# {"id":"BLDG_0003000e00958547","idOriginal":"BLDG_0003000e00958547","origin":[13.335610714172658,52.527208481788854],"elevation":34.0499992370605}
# Longitude: 13.335610714172658
# Latitude: 52.527208481788854
# Elevation: 34.0499992370605

# File produced by Open Asset Import Library (http://www.assimp.sf.net)
# (assimp v3.1.0)

mtllib BLDG_0003000e00958547.obj.mtl

# 36 vertex positions
v  22.3291 -2.38144e-16 3.88919
v  13.585 2.68327e-16 -4.38211
v  23.471 1.62891e-16 -2.6602
v  12.4487 -1.32768e-16 2.16827
v  3.3785 1.1926e-15 -19.4766
v  1.13626 4.01095e-16 -6.55038
v  9.92227 -1.05823e-16 1.72822
v  3.50102 -3.73391e-17 0.609794
v  0 0 0
v  25.7234 9.53913e-16 -15.5786
v  16.9338 1.45044e-15 -23.6875
v  26.836 1.34466e-15 -21.96
v  15.8267 1.05963e-15 -17.3051
v  14.4074 1.47743e-15 -24.1282
v  7.98648 1.54601e-15 -25.2483
v  4.48562 1.58341e-15 -25.859
v  0.000407288 19.1432 -0.00060566
v  22.3295 21.6458 3.88851
v  9.92272 21.0897 1.72756
v  12.4492 21.6458 2.16759
v  3.50148 21.8908 0.609102
v  26.8365 21.6458 -21.9607
v  4.48603 19.1432 -25.8597
v  14.4079 21.0897 -24.1289
v  16.9342 21.6458 -23.6882
v  7.98695 21.8908 -25.249
v  1.13667 19.1432 -6.55099
v  3.37891 19.1432 -19.4772
v  25.7238 19.1432 -15.5792
v  15.8271 19.1432 -17.3057
v  13.5854 19.1432 -4.38272
v  23.4714 19.1432 -2.66081
v  13.3008 21.0897 -17.7464
v  11.059 21.0897 -4.82283
v  6.87982 21.8908 -18.8666
v  4.63774 21.8908 -5.94128

# 0 UV coordinates

# 64 vertex normals
vn 6.34828e-24 -1 -6.12323e-17
vn -3.17596e-24 -1 -6.12323e-17
vn -1.00828e-23 -1 -6.12323e-17
vn 0 -1 -6.12323e-17
vn -2.48407e-23 -1 -6.12323e-17
vn 9.77365e-24 -1 -6.12323e-17
vn -6.50435e-24 -1 -6.12323e-17
vn 1.3016e-23 -1 -6.12323e-17
vn 1.11538e-23 -1 -6.12323e-17
vn -8.77701e-24 -1 -6.12323e-17
vn -1.90073e-23 -1 -6.12323e-17
vn -0.171593 3.48184e-05 0.985168
vn -0.171593 3.48148e-05 0.985168
vn -0.171593 3.48502e-05 0.985168
vn -0.171593 3.48111e-05 0.985168
vn -0.171593 3.48185e-05 0.985168
vn -0.171593 3.48975e-05 0.985168
vn -0.171593 3.47077e-05 0.985168
vn -0.171593 3.48282e-05 0.985168
vn 0.171854 -3.48106e-05 -0.985122
vn 0.171853 -3.45662e-05 -0.985123
vn 0.171854 -3.49062e-05 -0.985122
vn 0.171854 -3.46144e-05 -0.985122
vn 0.171854 -3.48866e-05 -0.985122
vn 0.171854 -3.44136e-05 -0.985123
vn 0.171854 -3.61645e-05 -0.985122
vn 0.171854 -3.46444e-05 -0.985123
vn -0.985286 1.55554e-05 -0.170912
vn -0.985286 1.55613e-05 -0.170912
vn -0.985286 1.55658e-05 -0.170912
vn -0.985286 1.55264e-05 -0.170912
vn -0.985286 1.55537e-05 -0.170912
vn -0.985286 1.55686e-05 -0.170912
vn 0.985138 -1.55697e-05 0.171766
vn 0.985138 -1.5487e-05 0.171765
vn -0.171854 3.47816e-05 0.985122
vn -0.171854 3.48312e-05 0.985122
vn 0.171593 -3.48153e-05 -0.985168
vn 0.171593 -3.48067e-05 -0.985168
vn 0.985138 -1.54875e-05 0.171766
vn 0.985138 -1.54739e-05 0.171765
vn 0.985286 -1.55577e-05 0.170912
vn 0.985286 -1.56109e-05 0.170912
vn 0.595682 0.796546 0.10333
vn 0.595682 0.796546 0.10333
vn 0.595682 0.796546 0.10333
vn 0.595682 0.796546 0.10333
vn 0.120204 0.99253 0.0208512
vn 0.120204 0.99253 0.0208512
vn 0.120204 0.99253 0.0208511
vn 0.120204 0.99253 0.0208512
vn 0.120204 0.99253 0.0208512
vn 0 1 0
vn -0.602657 0.791123 -0.10454
vn -0.602657 0.791123 -0.10454
vn -0.602657 0.791123 -0.10454
vn -0.602657 0.791123 -0.10454
vn -0.602657 0.791123 -0.104539
vn -0.061932 0.932807 0.355014
vn -0.061932 0.932807 0.355014
vn 0.0604527 0.935886 -0.347078
vn 0.0604527 0.935886 -0.347077
vn -0.256049 0.914226 0.314055
vn -0.136751 0.917228 -0.374156

# Mesh 'defaultobject' with 68 faces
g defaultobject
usemtl DefaultMaterial
f  1//1 2//1 3//1
f  2//1 1//1 4//2
f  2//1 4//2 5//3
f  5//3 4//2 6//4
f  6//4 4//2 7//5
f  6//4 7//5 8//6
f  6//4 8//6 9//4
f  10//7 11//7 12//7
f  11//7 10//7 13//8
f  11//7 13//8 14//9
f  14//9 13//8 15//10
f  15//10 13//8 2//1
f  15//10 2//1 16//11
f  16//11 2//1 5//3
f  8//12 17//12 9//12
f  17//12 8//12 7//13
f  17//12 7//13 4//14
f  17//12 4//14 1//15
f  17//12 1//15 18//16
f  17//12 18//16 19//17
f  19//17 18//16 20//18
f  21//19 17//12 19//17
f  11//20 22//20 12//20
f  22//20 11//20 14//21
f  22//20 14//21 15//22
f  22//20 15//22 16//23
f  22//20 16//23 23//24
f  22//20 23//24 24//25
f  22//20 24//25 25//26
f  24//25 23//24 26//27
f  17//28 6//28 9//28
f  6//28 17//28 5//29
f  5//29 17//28 16//30
f  16//30 17//28 27//31
f  16//30 27//31 28//32
f  16//30 28//32 23//33
f  12//34 29//34 10//34
f  29//34 12//34 22//35
f  10//36 30//36 13//36
f  30//36 10//36 29//37
f  31//38 3//38 2//38
f  3//38 31//38 32//39
f  3//40 18//40 1//40
f  18//40 3//40 32//41
f  13//42 31//42 2//42
f  31//42 13//42 30//43
f  33//44 30//44 24//44
f  30//44 33//44 34//45
f  30//44 34//45 19//46
f  30//44 19//46 31//47
f  35//48 24//48 26//48
f  24//48 35//48 36//49
f  24//48 36//49 21//50
f  24//48 21//50 34//51
f  34//51 21//50 19//52
f  24//53 34//53 33//53
f  28//54 26//54 23//54
f  26//54 28//54 27//55
f  26//54 27//55 17//56
f  26//54 17//56 35//57
f  35//57 17//56 21//58
f  35//53 21//53 36//53
f  30//59 22//59 25//59
f  22//59 30//59 29//60
f  31//61 18//61 32//61
f  18//61 31//61 20//62
f  24//63 30//63 25//63
f  19//64 20//64 31//64

