# {"id":"BLDG_0003000800251e12","idOriginal":"BLDG_0003000800251e12","origin":[13.345114900051797,52.54886789668401],"elevation":35.0400009155273}
# Longitude: 13.345114900051797
# Latitude: 52.54886789668401
# Elevation: 35.0400009155273

# File produced by Open Asset Import Library (http://www.assimp.sf.net)
# (assimp v3.1.0)

mtllib BLDG_0003000800251e12.obj.mtl

# 32 vertex positions
v  20.5223 -0.75 5.16026
v  16.7642 22.4087 9.02455
v  16.7637 -0.75 9.02528
v  20.5227 17.8813 5.15967
v  13.1427 18.0466 12.7486
v  13.1423 -0.75 12.7492
v  3.88631 -0.75 3.7107
v  3.88671 18.0431 3.7101
v  0 -0.75 -4.59243e-17
v  0.000398997 17.9911 -0.00059379
v  3.66005 -0.75 -3.77845
v  3.66055 22.4087 -3.77918
v  6.94678 -0.75 -7.17149
v  6.94719 18.4417 -7.1721
v  10.2041 18.3658 -4.11609
v  10.2036 -0.75 -4.11548
v  12.4035 3.83584e-16 -6.26441
v  10.204 17.943 -4.11607
v  10.2037 2.52002e-16 -4.11551
v  12.4039 17.943 -6.26497
v  12.8305 17.943 -5.87694
v  12.8301 3.59824e-16 -5.87637
v  14.98 5.14242e-16 -8.39821
v  14.9803 17.943 -8.39878
v  11.4308 7.22575e-16 -11.8005
v  11.4312 17.943 -11.8011
v  6.94718 17.943 -7.17208
v  6.94679 4.39129e-16 -7.17151
v  12.2073 18.3109 -2.2501
v  12.2069 -0.75 -2.24949
v  12.6485 -0.75 -2.751
v  12.6489 17.7505 -2.75158

# 0 UV coordinates

# 41 vertex normals
vn 0.716909 6.84394e-06 0.697167
vn 0.716909 6.82651e-06 0.697167
vn 0.716909 6.82755e-06 0.697167
vn -0.698649 3.75754e-05 0.715465
vn -0.698649 3.75464e-05 0.715465
vn -0.690576 3.76216e-05 0.723259
vn -0.690577 3.7618e-05 0.723259
vn -0.71827 -6.75254e-06 -0.695764
vn -0.71827 -6.75535e-06 -0.695764
vn -0.71827 -6.75535e-06 -0.695764
vn -0.71827 -6.76457e-06 -0.695764
vn 0.684262 -3.76783e-05 -0.729236
vn 0.684262 -3.76629e-05 -0.729236
vn 0.698773 7.81199e-06 0.715344
vn -0.672925 3.77386e-05 0.739711
vn 0.760995 4.37055e-06 0.648758
vn 0.692014 -3.7577e-05 -0.721884
vn -0.71827 -6.7505e-06 -0.695764
vn -0.71827 -6.76958e-06 -0.695764
vn -0.684262 3.76478e-05 0.729236
vn -0.684262 3.7666e-05 0.729236
vn 0.681599 -3.7712e-05 -0.731726
vn 0.681599 -3.76994e-05 -0.731726
vn -0.750477 -4.94371e-06 -0.660896
vn -0.750478 -4.9661e-06 -0.660896
vn 0.708784 -3.74394e-05 -0.705425
vn 0.708784 -3.74454e-05 -0.705425
vn 0 1 0
vn -0.449434 0.765797 0.459961
vn -0.449434 0.765797 0.459961
vn -0.449434 0.765797 0.459961
vn 0.449451 0.765777 -0.459978
vn 0.449451 0.765777 -0.459978
vn 0.44945 0.765777 -0.459978
vn 0.44945 0.765777 -0.459979
vn 0.44945 0.765777 -0.459978
vn 2.60383e-23 -1 -6.12323e-17
vn 0 -1 -6.12323e-17
vn 2.96807e-23 -1 -6.12323e-17
vn 0 -1 -6.12323e-17
vn 0 -1 0

# Mesh 'defaultobject' with 56 faces
g defaultobject
usemtl DefaultMaterial
f  1//1 2//1 3//1
f  2//1 1//1 4//2
f  3//1 5//3 6//3
f  5//3 3//1 2//1
f  5//4 7//4 6//4
f  7//4 5//4 8//5
f  8//6 9//6 7//6
f  9//6 8//6 10//7
f  10//8 11//8 9//8
f  11//8 10//8 12//9
f  12//9 13//10 11//8
f  13//10 12//9 14//11
f  13//12 15//12 16//12
f  15//12 13//12 14//13
f  17//14 18//14 19//14
f  18//14 17//14 20//14
f  21//15 17//15 22//15
f  17//15 21//15 20//15
f  23//16 21//16 22//16
f  21//16 23//16 24//16
f  25//17 24//17 23//17
f  24//17 25//17 26//17
f  27//18 25//18 28//18
f  25//18 27//18 26//19
f  18//20 28//20 19//20
f  28//20 18//20 27//21
f  16//22 29//22 30//22
f  29//22 16//22 15//23
f  29//24 31//24 30//24
f  31//24 29//24 32//25
f  31//26 4//26 1//26
f  4//26 31//26 32//27
f  18//28 26//28 27//28
f  26//28 18//28 20//28
f  26//28 20//28 21//28
f  26//28 21//28 24//28
f  10//29 2//29 12//29
f  2//29 10//29 8//30
f  2//29 8//30 5//31
f  32//32 2//32 4//32
f  2//32 32//32 29//33
f  2//32 29//33 12//34
f  12//34 29//33 15//35
f  12//34 15//35 14//36
f  22//37 25//37 23//37
f  25//37 22//37 17//38
f  25//37 17//38 19//39
f  25//37 19//39 28//40
f  1//41 30//41 31//41
f  30//41 1//41 7//41
f  7//41 1//41 3//41
f  7//41 3//41 6//41
f  16//41 11//41 13//41
f  11//41 16//41 9//41
f  9//41 16//41 7//41
f  7//41 16//41 30//41

