# {"id":"BLDG_0003000b006f7b34","idOriginal":"BLDG_0003000b006f7b34","origin":[13.340853004743671,52.53072890340682],"elevation":33.4300003051758}
# Longitude: 13.340853004743671
# Latitude: 52.53072890340682
# Elevation: 33.4300003051758

# File produced by Open Asset Import Library (http://www.assimp.sf.net)
# (assimp v3.1.0)

mtllib BLDG_0003000b006f7b34.obj.mtl

# 38 vertex positions
v  -5.78599 20.7351 -5.69299
v  -2.95671 18.5172 -0.0513315
v  -2.78697 18.5172 -5.64145
v  -5.95573 20.7351 -0.102867
v  -3.3413 18.5172 12.6148
v  -6.34022 20.7351 12.56
v  -15.5829 18.5172 -0.268003
v  -12.584 20.7351 -0.216612
v  -12.4974 20.7351 -5.80816
v  -12.7802 20.7351 12.4425
v  -15.779 18.5172 12.3879
v  -15.4962 20.7351 -5.85962
v  -21.4739 18.5172 -0.369097
v  -21.3872 20.7351 -5.96071
v  -6.34022 20.74 12.56
v  -12.584 20.74 -0.216613
v  -12.7802 20.74 12.4425
v  -5.95573 20.74 -0.102867
v  -12.4974 20.74 -5.80816
v  -5.78599 20.74 -5.69299
v  0.00043673 20.52 -0.00064937
v  -2.78693 20.52 -5.64151
v  -2.95666 20.52 -0.0513949
v  0.170173 20.52 -5.59077
v  -6.34066 -7.69118e-16 12.5606
v  -2.9571 3.10727e-18 -0.0507455
v  -3.34169 -7.72468e-16 12.6154
v  -12.7806 -7.61924e-16 12.4432
v  -15.7794 -7.58574e-16 12.3885
v  -15.5833 1.63746e-17 -0.267417
v  0.169736 -3.05176e-07 -5.59012
v  0 -3.05176e-07 -1.86866e-23
v  -21.4743 2.25648e-17 -0.368511
v  -5.78643 3.48555e-16 -5.69233
v  -12.4978 3.55607e-16 -5.8075
v  -21.3877 3.64948e-16 -5.96006
v  -2.78736 3.45403e-16 -5.64086
v  -15.4966 3.58758e-16 -5.85896

# 0 UV coordinates

# 58 vertex normals
vn 0.594323 0.804024 0.0180458
vn 0.594323 0.804024 0.0180458
vn 0.594323 0.804024 0.0180458
vn 0.594323 0.804024 0.0180458
vn -0.594514 0.804032 -0.00921345
vn -0.594514 0.804032 -0.00921346
vn -0.594514 0.804032 -0.00921345
vn -0.00632578 0.929557 0.368624
vn -0.00632578 0.929557 0.368624
vn -0.00632578 0.929557 0.368624
vn 0 1 0
vn -7.7481e-24 -1 -6.12323e-17
vn 0 -1 -6.12323e-17
vn 0 -1 -6.12324e-17
vn -8.28021e-26 -1 -6.12323e-17
vn -1.03147e-07 -1 -3.13193e-09
vn -9.36339e-10 -1 5.45636e-08
vn -4.87707e-08 -1 -1.43714e-07
vn -3.87842e-24 -1 -6.12323e-17
vn 1.26436e-24 -1 -6.12323e-17
vn 0.01169 0.731995 -0.681209
vn -1.12144e-18 -1 4.48575e-18
vn 0.017158 -3.20262e-05 -0.999853
vn 0.017158 -3.20101e-05 -0.999853
vn 0.017158 -3.20086e-05 -0.999853
vn 0.0171581 -3.20086e-05 -0.999853
vn 0.0171581 -3.2004e-05 -0.999853
vn 0.017158 -3.2027e-05 -0.999853
vn 0.017158 -3.20273e-05 -0.999853
vn 0.0171582 -3.1956e-05 -0.999853
vn 0.017158 -3.20032e-05 -0.999853
vn -0.99988 -0 -0.0154956
vn -0.99988 -4.75675e-07 -0.0154956
vn 0.999539 -0.000100801 0.0303497
vn 0.999539 0 0.0303496
vn 0.0171581 0 -0.999853
vn -0.01824 3.20266e-05 0.999834
vn -0.01824 3.20261e-05 0.999834
vn -0.01824 0 0.999834
vn -0.01824 1.90636e-06 0.999834
vn -0.999539 2.03379e-05 -0.0303497
vn -0.999539 2.03373e-05 -0.0303497
vn 0.999539 -2.03123e-05 0.0303497
vn 0.999539 -2.03133e-05 0.0303497
vn -0.017158 3.20062e-05 0.999853
vn -0.017158 3.20062e-05 0.999853
vn -0.017158 3.2007e-05 0.999853
vn 0.999539 -2.03132e-05 0.0303496
vn 0.999539 -2.03132e-05 0.0303496
vn -0.01824 3.2026e-05 0.999834
vn -0.0182398 3.20567e-05 0.999834
vn -0.01824 3.2005e-05 0.999834
vn -0.99988 2.07778e-05 -0.0154956
vn -0.99988 2.07775e-05 -0.0154956
vn -0.017158 3.20041e-05 0.999853
vn -0.017158 3.20068e-05 0.999853
vn -0.99988 2.0726e-05 -0.0154956
vn -0.99988 2.07559e-05 -0.0154957

# Mesh 'defaultobject' with 68 faces
g defaultobject
usemtl DefaultMaterial
f  1//1 2//1 3//1
f  2//1 1//1 4//2
f  2//1 4//2 5//3
f  5//3 4//2 6//4
f  7//5 8//5 9//5
f  8//5 7//5 10//6
f  10//6 7//5 11//7
f  12//8 7//8 9//8
f  7//8 12//8 13//9
f  13//9 12//8 14//10
f  15//11 16//11 17//11
f  16//11 15//11 18//11
f  16//11 18//11 19//11
f  19//11 18//11 20//11
f  21//11 22//11 23//11
f  22//11 21//11 24//11
f  25//12 26//12 27//12
f  26//12 25//12 28//13
f  26//12 28//13 29//14
f  26//12 29//14 30//15
f  26//12 31//16 32//16
f  31//16 26//12 30//15
f  31//16 30//15 33//17
f  31//16 33//17 34//18
f  34//18 33//17 35//19
f  35//19 33//17 36//20
f  31//21 34//21 37//21
f  35//19 36//20 38//22
f  24//23 3//23 22//23
f  3//23 24//23 31//24
f  3//23 31//24 37//25
f  3//23 37//25 34//26
f  34//26 1//27 3//23
f  35//28 12//28 9//28
f  12//28 35//28 14//29
f  14//29 35//28 38//30
f  14//29 38//30 36//31
f  17//32 8//32 10//32
f  8//32 17//32 16//33
f  4//34 15//34 6//34
f  15//35 4//35 18//35
f  9//28 34//26 35//28
f  34//26 9//28 1//27
f  1//36 9//36 19//36
f  1//36 19//36 20//36
f  25//37 10//37 28//37
f  10//37 25//37 6//38
f  10//39 6//39 17//39
f  17//39 6//39 15//40
f  23//41 3//41 2//41
f  3//41 23//41 22//42
f  31//43 21//43 32//43
f  21//43 31//43 24//44
f  21//45 26//45 32//45
f  26//45 21//45 2//46
f  2//46 21//45 23//47
f  26//48 5//48 27//48
f  5//48 26//48 2//49
f  27//50 6//38 25//37
f  6//38 27//50 5//51
f  28//37 11//52 29//52
f  11//52 28//37 10//37
f  11//53 30//53 29//53
f  30//53 11//53 7//54
f  30//55 13//55 33//55
f  13//55 30//55 7//56
f  13//57 36//57 33//57
f  36//57 13//57 14//58

