# {"id":"BLDG_0003000b001d87f3","idOriginal":"BLDG_0003000b001d87f3","origin":[13.344471182607148,52.52191038088682],"elevation":32.3800010681152}
# Longitude: 13.344471182607148
# Latitude: 52.52191038088682
# Elevation: 32.3800010681152

# File produced by Open Asset Import Library (http://www.assimp.sf.net)
# (assimp v3.1.0)

mtllib BLDG_0003000b001d87f3.obj.mtl

# 34 vertex positions
v  18.0791 -5.16892e-16 8.44149
v  19.2414 17.2042 14.9567
v  19.241 -9.15867e-16 14.9572
v  18.0794 17.2042 8.44094
v  18.6394 -5.12649e-16 8.3722
v  18.6398 17.2042 8.37165
v  18.4599 -4.49994e-16 7.34896
v  18.4603 17.2042 7.34842
v  17.9936 -2.87263e-16 4.69136
v  17.9939 17.2042 4.69082
v  17.8193 -2.26445e-16 3.69813
v  17.8197 17.2042 3.69759
v  17.2974 17.2042 3.81826
v  17.297 -2.33834e-16 3.8188
v  16.0991 1.68285e-16 -2.7483
v  16.0995 17.2042 -2.74884
v  0.761761 17.2042 -0.130701
v  0.761395 7.9698e-18 -0.130157
v  0.000366235 17.2042 -0.00054411
v  0 0 0
v  1.03939 17.2042 5.35818
v  1.03902 -3.28127e-16 5.35872
v  3.44146 -3.0372e-16 4.96012
v  3.44182 17.2042 4.95958
v  3.89238 17.2042 7.45393
v  3.89201 -4.56455e-16 7.45447
v  4.30401 17.2042 9.73271
v  4.30365 -5.9599e-16 9.73325
v  4.52025 17.2042 10.9257
v  4.51988 -6.69039e-16 10.9262
v  3.23404 17.2042 11.1014
v  3.23367 -6.79798e-16 11.102
v  4.34624 17.2042 17.5381
v  4.34587 -1.07393e-15 17.5386

# 0 UV coordinates

# 40 vertex normals
vn 0.984469 -2.65122e-05 -0.175561
vn 0.984469 -2.65038e-05 -0.175561
vn 0.122716 2.87458e-05 0.992442
vn 0.98496 -2.64253e-05 -0.172781
vn 0.98496 -2.64295e-05 -0.172781
vn 0.984949 -2.64328e-05 -0.172845
vn 0.984954 -2.64315e-05 -0.172815
vn -0.225114 -2.60208e-05 -0.974332
vn 0.983767 -2.66183e-05 -0.179449
vn -0.168266 -2.75943e-05 -0.985742
vn -0.168266 -2.75917e-05 -0.985742
vn -0.168501 -2.75874e-05 -0.985702
vn -0.168501 -2.7588e-05 -0.985702
vn -0.981717 2.69166e-05 0.190349
vn -0.981717 2.69184e-05 0.190349
vn 0.163676 2.77132e-05 0.986514
vn -0.984075 2.65822e-05 0.177754
vn -0.984075 2.65685e-05 0.177754
vn -0.984074 2.65736e-05 0.177761
vn -0.983967 2.66173e-05 0.178352
vn -0.983967 2.65901e-05 0.178352
vn -0.135354 -2.84247e-05 -0.990797
vn -0.135355 -2.84759e-05 -0.990797
vn -0.985398 2.63552e-05 0.170267
vn 0.170759 2.75015e-05 0.985313
vn 0.170759 2.75602e-05 0.985313
vn 0 1 -0
vn -1.05901e-22 -1 -6.12324e-17
vn -4.34868e-23 -1 -6.12323e-17
vn 1.39659e-22 -1 -6.12323e-17
vn -4.87994e-23 -1 -6.12323e-17
vn 2.11646e-24 -1 -6.12323e-17
vn 4.17313e-24 -1 -6.12323e-17
vn -2.28351e-23 -1 -6.12323e-17
vn -4.68527e-24 -1 -6.12323e-17
vn 1.24432e-24 -1 -6.12323e-17
vn -2.98126e-20 -1 -6.12203e-17
vn 7.20924e-18 -1 -6.27204e-17
vn 7.96243e-24 -1 -6.12323e-17
vn 0 -1 -6.12323e-17

# Mesh 'defaultobject' with 64 faces
g defaultobject
usemtl DefaultMaterial
f  1//1 2//1 3//1
f  2//1 1//1 4//2
f  5//3 4//3 1//3
f  4//3 5//3 6//3
f  7//4 6//4 5//4
f  6//4 7//4 8//5
f  9//6 8//6 7//6
f  8//6 9//6 10//6
f  11//7 10//7 9//7
f  10//7 11//7 12//7
f  13//8 11//8 14//8
f  11//8 13//8 12//8
f  15//9 13//9 14//9
f  13//9 15//9 16//9
f  17//10 15//10 18//10
f  15//10 17//10 16//11
f  19//12 18//12 20//12
f  18//12 19//12 17//13
f  21//14 20//14 22//14
f  20//14 21//14 19//15
f  23//16 21//16 22//16
f  21//16 23//16 24//16
f  25//17 23//17 26//17
f  23//17 25//17 24//18
f  27//19 26//17 28//19
f  26//17 27//19 25//17
f  29//20 28//20 30//20
f  28//20 29//20 27//21
f  31//22 30//22 32//22
f  30//22 31//22 29//23
f  33//24 32//24 34//24
f  32//24 33//24 31//24
f  3//25 33//25 34//25
f  33//25 3//25 2//26
f  8//27 4//27 6//27
f  12//27 13//27 10//27
f  4//27 33//27 2//27
f  33//27 4//27 29//27
f  29//27 4//27 27//27
f  27//27 4//27 8//27
f  27//27 8//27 10//27
f  27//27 10//27 25//27
f  25//27 10//27 24//27
f  24//27 10//27 13//27
f  24//27 13//27 16//27
f  24//27 16//27 21//27
f  21//27 16//27 19//27
f  19//27 16//27 17//27
f  31//27 33//27 29//27
f  1//28 7//28 5//28
f  7//28 1//28 9//29
f  9//29 1//28 11//30
f  11//30 1//28 14//31
f  34//32 1//28 3//32
f  1//28 34//32 14//31
f  14//31 34//32 15//33
f  15//33 34//32 30//34
f  30//34 34//32 32//35
f  15//33 23//36 18//36
f  23//36 15//33 30//34
f  23//36 30//34 28//37
f  23//36 28//37 26//38
f  18//36 23//36 22//39
f  18//36 22//39 20//40

