# {"id":"BLDG_0003000a0010cabf","idOriginal":"BLDG_0003000a0010cabf","origin":[13.32013778863413,52.56004536062266],"elevation":36.5}
# Longitude: 13.32013778863413
# Latitude: 52.56004536062266
# Elevation: 36.5

# File produced by Open Asset Import Library (http://www.assimp.sf.net)
# (assimp v3.1.0)

mtllib BLDG_0003000a0010cabf.obj.mtl

# 18 vertex positions
v  94.0183 6.17678 -2.10834
v  110.42 6.17678 -20.5008
v  91.2173 6.17678 -16.9357
v  107.011 6.17678 -4.53081
v  113.363 6.17678 -5.71582
v  91.2173 4.74669 -16.9356
v  2.6329 4.74669 14.9299
v  94.0183 4.74669 -2.1083
v  0.000102812 4.74669 -0.00015336
v  107.011 2.7742e-16 -4.53061
v  94.0182 1.29087e-16 -2.10815
v  113.362 3.49981e-16 -5.71563
v  110.42 1.2553e-15 -20.5007
v  91.2172 1.037e-15 -16.9355
v  91.2172 -0.0900002 -16.9355
v  94.0182 -0.0900002 -2.10814
v  0 -0.0900002 -5.51092e-18
v  2.6328 -0.0900002 14.93

# 0 UV coordinates

# 22 vertex normals
vn 0 1 0
vn 0.183285 2.73586e-05 0.98306
vn 0.183285 2.72651e-05 0.98306
vn 0.183416 2.72671e-05 0.983035
vn 0.183416 2.73388e-05 0.983035
vn 0.980765 -2.67928e-05 -0.195194
vn 0.980765 -2.67928e-05 -0.195194
vn -0.182541 -2.74383e-05 -0.983198
vn -0.982621 2.65226e-05 0.185625
vn -0.982621 2.6537e-05 0.185625
vn 0.982621 -2.60294e-05 -0.185625
vn 0.982621 -2.59772e-05 -0.185625
vn -0.182541 -2.72947e-05 -0.983198
vn -0.182541 -2.72747e-05 -0.983198
vn -0.984805 2.64501e-05 0.173663
vn -0.984805 2.64401e-05 0.173663
vn 0.183285 2.74212e-05 0.98306
vn 0.183285 2.76927e-05 0.98306
vn 2.17435e-24 -1 -6.12323e-17
vn 0 -1 -6.12323e-17
vn -2.87412e-24 -1 -6.12323e-17
vn 0 -1 0

# Mesh 'defaultobject' with 28 faces
g defaultobject
usemtl DefaultMaterial
f  1//1 2//1 3//1
f  2//1 1//1 4//1
f  2//1 4//1 5//1
f  6//1 7//1 8//1
f  7//1 6//1 9//1
f  10//2 1//2 11//2
f  1//2 10//2 4//3
f  12//4 4//4 10//4
f  4//4 12//4 5//5
f  13//6 5//6 12//6
f  5//6 13//6 2//7
f  3//8 13//8 14//8
f  13//8 3//8 2//8
f  1//9 14//9 11//9
f  14//9 1//9 3//10
f  15//11 8//11 16//11
f  8//11 15//11 6//12
f  9//13 15//13 17//13
f  15//13 9//13 6//14
f  7//15 17//15 18//15
f  17//15 7//15 9//16
f  16//17 7//17 18//17
f  7//17 16//17 8//18
f  10//19 13//19 12//19
f  13//19 10//19 11//20
f  13//19 11//20 14//21
f  15//22 18//22 17//22
f  18//22 15//22 16//22

