# {"id":"BLDG_000300020032aae3","idOriginal":"BLDG_000300020032aae3","origin":[13.36533047896273,52.54807059962391],"elevation":35.9500007629395}
# Longitude: 13.36533047896273
# Latitude: 52.54807059962391
# Elevation: 35.9500007629395

# File produced by Open Asset Import Library (http://www.assimp.sf.net)
# (assimp v3.1.0)

mtllib BLDG_000300020032aae3.obj.mtl

# 44 vertex positions
v  4.42727 20.9281 -4.35262
v  0 0 0
v  0.000446133 20.9281 -0.00066302
v  7.32172 20.9281 -7.19813
v  14.0457 20.9281 -13.8084
v  17.028 20.9281 -16.7402
v  21.4161 20.9281 -21.0541
v  4.42682 2.66481e-16 -4.35196
v  7.32127 4.40718e-16 -7.19746
v  14.0453 8.45481e-16 -13.8077
v  17.0275 1.025e-15 -16.7396
v  21.4156 1.28915e-15 -21.0535
v  29.324 7.97214e-16 -13.0195
v  24.9362 13.0579 -8.70602
v  24.9359 5.33065e-16 -8.7056
v  29.3244 20.9281 -13.0202
v  15.2484 20.9281 0.817812
v  21.9724 20.9281 -5.79247
v  24.9363 20.9281 -8.70627
v  12.3236 -2.26155e-16 3.69339
v  7.89724 20.9281 8.04469
v  7.89679 -4.92636e-16 8.04535
v  12.3239 13.0579 3.69298
v  15.2483 13.0579 0.818061
v  21.9722 13.0579 -5.79222
v  12.3241 20.9281 3.69273
v  26.856 5.22191e-17 -0.852802
v  28.9286 13.0579 1.24239
v  28.9283 -7.61e-17 1.24281
v  26.8563 13.0579 -0.853216
v  25.807 13.0579 4.27997
v  25.8068 -2.62098e-16 4.28038
v  25.382 13.0579 4.38973
v  25.3817 -2.68819e-16 4.39015
v  28.1472 13.0579 -5.44398
v  28.1469 3.33322e-16 -5.44356
v  15.5098 13.0579 6.93884
v  15.5095 -4.24907e-16 6.93925
v  20.1227 -3.51968e-16 5.74808
v  20.123 13.0579 5.74766
v  22.1707 13.0579 7.81848
v  22.1705 -4.78769e-16 7.8189
v  25.2643 13.0579 4.80811
v  25.264 -2.94437e-16 4.80853

# 0 UV coordinates

# 54 vertex normals
vn -0.701052 -7.6343e-06 -0.713111
vn -0.701052 -7.67924e-06 -0.713111
vn -0.701052 -7.61653e-06 -0.713111
vn -0.701052 -7.67106e-06 -0.713111
vn -0.701051 -7.82017e-06 -0.713111
vn -0.701052 -7.57558e-06 -0.713111
vn -0.701052 -7.58942e-06 -0.713111
vn -0.701052 -7.65519e-06 -0.713111
vn -0.701052 -7.64927e-06 -0.713111
vn -0.701052 -7.59801e-06 -0.71311
vn 0.701052 7.61981e-06 0.713111
vn 0.701052 7.62763e-06 0.713111
vn 0.701052 7.66138e-06 0.713111
vn 0 1 0
vn 0.701052 7.6343e-06 0.713111
vn 0.701052 7.71786e-06 0.71311
vn 0.701052 7.44629e-06 0.713111
vn 0.701052 7.60792e-06 0.713111
vn 0.701052 7.72991e-06 0.71311
vn 0.711054 -3.74318e-05 -0.703138
vn 0.711054 -3.74442e-05 -0.703138
vn 0.697405 7.81398e-06 0.716677
vn 0.697405 7.83074e-06 0.716677
vn 0.250012 2.53235e-05 0.968243
vn 0.712656 -3.74323e-05 -0.701514
vn 0.712656 -3.73845e-05 -0.701514
vn 0.962663 -1.19534e-05 0.270702
vn 0.962663 -1.19457e-05 0.270702
vn -0.713665 3.73974e-05 0.700487
vn -0.713665 3.73581e-05 0.700487
vn 0.250012 2.53235e-05 0.968243
vn 0.250012 2.53618e-05 0.968243
vn -0.711053 3.74513e-05 0.703138
vn 0.962663 -1.18086e-05 0.270701
vn 0.962662 -1.19595e-05 0.270706
vn 0.697405 7.83384e-06 0.716677
vn 0.697406 7.93536e-06 0.716677
vn 0.712656 -3.74149e-05 -0.701514
vn 0.712656 -3.73825e-05 -0.701514
vn -0.713665 3.74047e-05 0.700487
vn -0.713665 3.74056e-05 0.700487
vn 0 -1 -6.12323e-17
vn 5.78401e-25 -1 -6.12323e-17
vn 0 -1 -6.12323e-17
vn -1.07604e-24 -1 -6.12323e-17
vn -4.90902e-25 -1 -6.12323e-17
vn 1.15697e-24 -1 -6.12323e-17
vn -4.57891e-24 -1 -6.12323e-17
vn -2.72615e-24 -1 -6.12323e-17
vn -1.11022e-16 1 -5.55112e-17
vn 2.2192e-24 -1 -6.12323e-17
vn -4.77344e-24 -1 -6.12323e-17
vn 7.17425e-24 -1 -6.12325e-17
vn 3.1585e-24 -1 -6.12323e-17

# Mesh 'defaultobject' with 84 faces
g defaultobject
usemtl DefaultMaterial
f  1//1 2//1 3//1
f  2//1 1//1 4//2
f  2//1 4//2 5//3
f  2//1 5//3 6//4
f  2//1 6//4 7//5
f  2//1 7//5 8//6
f  8//6 7//5 9//7
f  9//7 7//5 10//8
f  10//8 7//5 11//9
f  11//9 7//5 12//10
f  13//11 14//11 15//11
f  14//11 13//11 16//12
f  14//11 16//12 17//13
f  17//14 16//14 18//14
f  18//14 16//14 19//14
f  20//15 21//15 22//15
f  21//15 20//15 23//16
f  21//15 23//16 24//17
f  21//15 24//17 25//18
f  21//15 25//18 26//19
f  26//19 25//18 14//11
f  26//19 14//11 17//13
f  27//20 28//20 29//20
f  28//20 27//20 30//21
f  29//22 31//22 32//22
f  31//22 29//22 28//23
f  32//24 33//24 34//24
f  33//24 32//24 31//24
f  15//25 35//25 36//25
f  35//25 15//25 14//26
f  36//27 30//27 27//27
f  30//27 36//27 35//28
f  37//29 20//29 38//29
f  20//29 37//29 23//30
f  39//31 37//31 38//31
f  37//31 39//31 40//32
f  41//33 39//33 42//33
f  39//33 41//33 40//33
f  34//34 43//34 44//34
f  43//34 34//34 33//35
f  44//36 41//36 42//36
f  41//36 44//36 43//37
f  12//38 16//38 13//38
f  16//38 12//38 7//39
f  21//40 2//40 22//40
f  2//40 21//40 3//41
f  2//42 20//42 22//42
f  20//42 2//42 29//43
f  29//43 2//42 27//44
f  27//44 2//42 36//44
f  36//44 2//42 8//45
f  36//44 8//45 15//46
f  15//46 8//45 9//47
f  15//46 9//47 10//44
f  15//46 10//44 13//48
f  13//48 10//44 12//49
f  12//50 10//50 11//50
f  20//42 39//44 38//44
f  39//44 20//42 44//51
f  44//51 20//42 34//52
f  34//52 20//42 32//53
f  32//53 20//42 29//43
f  44//51 42//54 39//44
f  26//14 3//14 21//14
f  3//14 26//14 17//14
f  3//14 17//14 18//14
f  3//14 18//14 19//14
f  3//14 19//14 16//14
f  3//14 16//14 7//14
f  3//14 7//14 1//14
f  1//1 7//39 4//2
f  4//14 7//14 5//14
f  5//14 7//14 6//14
f  14//14 30//14 35//14
f  30//14 14//14 25//14
f  30//14 31//14 28//14
f  31//14 30//14 25//14
f  31//14 25//14 24//14
f  31//14 24//14 33//14
f  33//14 24//14 43//14
f  43//14 24//14 41//14
f  41//14 24//14 40//14
f  40//14 24//14 37//14
f  37//14 24//14 23//14

