# {"id":"BLDG_00030002003088a5","idOriginal":"BLDG_00030002003088a5","origin":[13.392013431013886,52.524822848701916],"elevation":33.3699989318848}
# Longitude: 13.392013431013886
# Latitude: 52.524822848701916
# Elevation: 33.3699989318848

# File produced by Open Asset Import Library (http://www.assimp.sf.net)
# (assimp v3.1.0)

mtllib BLDG_00030002003088a5.obj.mtl

# 54 vertex positions
v  2.97655 -1.7852e-16 2.91546
v  5.10215 -4.71882e-16 7.70641
v  1.97067 -4.34017e-16 7.08804
v  6.10803 -2.16385e-16 3.53383
v  0.216322 -1.45145e-16 2.3704
v  -0.789556 -4.00642e-16 6.54298
v  4.19704 -7.01784e-16 11.461
v  1.06555 -6.6392e-16 10.8426
v  -1.69467 -6.30544e-16 10.2976
v  3.34606 -9.17934e-16 14.991
v  0.228752 -8.7647e-16 14.3138
v  -2.51898 -8.39922e-16 13.717
v  -13.1888 -2.50715e-16 4.09449
v  -12.5186 8.84093e-18 -0.144383
v  -13.7919 -4.8427e-16 7.90873
v  -14.3054 -6.8315e-16 11.1567
v  2.07921 -1.23972e-15 20.2461
v  -1.05158 -1.20168e-15 19.6249
v  -3.8112 -1.16815e-15 19.0773
v  8.39655 -0.610001 -6.1161
v  0 -0.610001 -3.73518e-17
v  1.98402 -0.610001 -8.6589
v  6.41253 -0.610001 2.5428
v  3.36931 -7.87577e-17 1.28621
v  6.45542 -1.28147e-16 2.09279
v  0.649074 -3.52243e-17 0.575256
v  4.32319 23.21 -3.60177
v  8.39698 19.42 -6.11674
v  1.98445 19.42 -8.65954
v  3.20677 23.21 1.27065
v  6.41296 19.42 2.54217
v  0.00042769 19.42 -0.00063357
v  6.10849 21.63 3.53315
v  3.36977 21.63 1.28553
v  2.97701 21.63 2.91477
v  6.45588 21.63 2.09211
v  0.216741 19.63 2.36978
v  0.649494 19.63 0.574635
v  5.10261 21.63 7.70573
v  1.97113 21.63 7.08735
v  -0.789094 21.63 6.54229
v  4.1975 21.63 11.4603
v  1.06601 21.63 10.8419
v  -1.69421 21.63 10.2969
v  3.34653 21.63 14.9903
v  0.229214 21.63 14.3132
v  -2.51857 19.4935 13.7164
v  -12.5182 19.63 -0.145004
v  -13.1884 21.63 4.0938
v  -13.7914 21.63 7.90805
v  -14.3049 19.4935 11.1561
v  2.07968 21.63 20.2455
v  -1.05112 21.63 19.6242
v  -3.81078 19.4935 19.0767

# 0 UV coordinates

# 65 vertex normals
vn -1.54699e-23 -1 -6.12323e-17
vn 0 -1 -6.12323e-17
vn -8.77535e-24 -1 -6.12323e-17
vn -8.77535e-24 -1 -6.12323e-17
vn 0 -1 -6.12323e-17
vn 0 -1 -6.12323e-17
vn 4.64892e-24 -1 -6.12323e-17
vn 1.07083e-23 -1 -6.12323e-17
vn -1.46512e-24 -1 -6.12323e-17
vn -9.51001e-25 -1 -6.12323e-17
vn -1.39074e-24 -1 -6.12323e-17
vn 2.67396e-24 -1 -6.12324e-17
vn -6.07689e-23 -1 -6.12323e-17
vn 1.36617e-23 -1 -6.12323e-17
vn -0 -1 0
vn 1.48572e-23 -1 -6.12323e-17
vn 5.61852e-24 -1 -6.12323e-17
vn 0.258952 0.711681 -0.653034
vn 0.724691 0.668768 0.166049
vn 0.724691 0.668768 0.166049
vn -0.724681 0.668779 -0.166047
vn -0.724681 0.668779 -0.166047
vn 0 1 0
vn -0.563568 0.814821 -0.135859
vn -0.563568 0.814821 -0.135859
vn -0.563568 0.814821 -0.135859
vn 0.0818843 0.906282 -0.414666
vn -0.100636 0.85449 0.509627
vn -0.58824 0.796156 -0.141806
vn 0.0818843 0.906282 -0.414666
vn 0.0818843 0.906282 -0.414666
vn -0.105602 0.838372 0.534771
vn -0.11022 0.85463 0.507404
vn -0.58824 0.796156 -0.141806
vn -0.58824 0.796156 -0.141806
vn 0.368613 -3.7304e-05 -0.929583
vn 0.368613 -3.72731e-05 -0.929583
vn 0.97474 -1.37531e-05 0.223343
vn 0.97474 -1.37317e-05 0.223343
vn -0.368613 3.72708e-05 0.929583
vn -0.368613 3.72745e-05 0.929583
vn -0.368613 3.72795e-05 0.929583
vn -0.97474 1.37485e-05 -0.223343
vn -0.97474 1.37432e-05 -0.223343
vn 0.252865 -3.60056e-05 -0.967502
vn 0.252865 -3.60084e-05 -0.967502
vn 0.972151 -1.33523e-05 0.234355
vn -0.972151 1.33425e-05 -0.234355
vn -0.972151 1.33447e-05 -0.234355
vn 0.252865 -3.60015e-05 -0.967502
vn 0.972151 -1.33387e-05 0.234355
vn 0.972151 -1.33253e-05 0.234355
vn 0.972151 -1.33475e-05 0.234355
vn -0.987732 1.61813e-05 -0.156162
vn -0.987732 1.61745e-05 -0.156162
vn 0.193729 -3.5173e-05 -0.981055
vn 0.193729 -3.51765e-05 -0.981055
vn -0.987732 1.61412e-05 -0.156162
vn -0.212273 3.54592e-05 0.97721
vn -0.212274 3.54105e-05 0.97721
vn -0.987731 1.61739e-05 -0.156162
vn -0.194631 3.52071e-05 0.980877
vn 0.972151 -1.33355e-05 0.234355
vn -0.194632 3.51563e-05 0.980876
vn -0.972151 1.33535e-05 -0.234355

# Mesh 'defaultobject' with 100 faces
g defaultobject
usemtl DefaultMaterial
f  1//1 2//1 3//1
f  2//1 1//1 4//2
f  3//1 5//3 1//1
f  5//3 3//1 6//4
f  3//1 7//5 8//5
f  7//5 3//1 2//1
f  6//4 8//5 9//6
f  8//5 6//4 3//1
f  8//5 10//7 11//7
f  10//7 8//5 7//5
f  9//6 11//7 12//8
f  11//7 9//6 8//5
f  13//9 5//3 6//4
f  5//3 13//9 14//10
f  15//11 6//4 9//6
f  6//4 15//11 13//9
f  12//8 15//11 9//6
f  15//11 12//8 16//12
f  11//7 17//13 18//13
f  17//13 11//7 10//7
f  18//13 12//8 11//7
f  12//8 18//13 19//14
f  20//15 21//15 22//15
f  21//15 20//15 23//15
f  24//16 4//2 1//1
f  4//2 24//16 25//5
f  1//1 26//17 24//16
f  26//17 1//1 5//3
f  27//18 28//18 29//18
f  30//19 28//19 27//19
f  28//19 30//19 31//20
f  32//21 27//21 29//21
f  27//21 32//21 30//22
f  33//23 34//23 35//23
f  34//23 33//23 36//23
f  37//24 34//24 38//24
f  34//24 37//24 35//25
f  39//23 35//23 40//23
f  35//23 39//23 33//23
f  35//25 37//24 40//26
f  40//27 37//27 41//27
f  42//23 40//23 43//23
f  40//23 42//23 39//23
f  43//23 41//23 44//23
f  41//23 43//23 40//23
f  45//23 43//23 46//23
f  43//23 45//23 42//23
f  47//28 43//28 44//28
f  43//29 47//29 46//29
f  48//30 41//27 37//27
f  41//27 48//30 49//31
f  44//23 49//23 50//23
f  49//23 44//23 41//23
f  51//32 44//32 50//32
f  44//33 51//33 47//33
f  52//23 46//23 53//23
f  46//23 52//23 45//23
f  47//29 53//34 46//29
f  53//34 47//29 54//35
f  29//36 20//36 22//36
f  20//36 29//36 28//37
f  20//38 31//38 23//38
f  31//38 20//38 28//39
f  31//40 21//40 23//40
f  21//40 31//40 32//41
f  32//41 31//40 30//42
f  32//43 22//43 21//43
f  22//43 32//43 29//44
f  34//45 25//45 24//45
f  25//45 34//45 36//46
f  25//47 33//47 4//47
f  33//47 25//47 36//47
f  37//48 26//48 5//48
f  26//48 37//48 38//49
f  38//50 24//45 26//50
f  24//45 38//50 34//45
f  4//47 39//51 2//51
f  39//51 4//47 33//47
f  2//51 42//52 7//52
f  42//52 2//51 39//51
f  7//52 45//53 10//53
f  45//53 7//52 42//52
f  49//54 14//54 13//54
f  14//54 49//54 48//55
f  48//56 5//56 14//56
f  5//56 48//56 37//57
f  50//58 13//54 15//58
f  13//54 50//58 49//54
f  12//59 51//59 16//59
f  51//59 12//59 47//60
f  51//61 15//58 16//61
f  15//58 51//61 50//58
f  17//62 53//62 18//62
f  53//62 17//62 52//62
f  10//53 52//63 17//63
f  52//63 10//53 45//53
f  18//62 54//64 19//64
f  54//64 18//62 53//62
f  54//65 12//65 19//65
f  12//65 54//65 47//65

