# {"id":"BLDG_0003000b0051ce0e","idOriginal":"BLDG_0003000b0051ce0e","origin":[13.394654585961623,52.528215728960824],"elevation":35.5999984741211}
# Longitude: 13.394654585961623
# Latitude: 52.528215728960824
# Elevation: 35.5999984741211

# File produced by Open Asset Import Library (http://www.assimp.sf.net)
# (assimp v3.1.0)

mtllib BLDG_0003000b0051ce0e.obj.mtl

# 21 vertex positions
v  19.5508 15.3956 0.405996
v  26.9505 1.64365e-16 -2.68429
v  19.5505 -2.48899e-17 0.406483
v  26.9508 15.3956 -2.68478
v  31.3005 -4.8917e-16 7.98875
v  31.3008 15.3956 7.98826
v  29.1259 19.5763 2.65161
v  29.8985 15.3956 8.57398
v  29.8981 -5.25034e-16 8.57446
v  7.1022 15.3956 5.60542
v  0 0 0
v  7.10187 -3.43263e-16 5.60591
v  0.000328793 15.3956 -0.00048709
v  7.35378 5.64628e-16 -9.22108
v  7.3541 15.3956 -9.22157
v  3.67731 19.5763 -4.61116
v  17.4498 15.3956 13.7734
v  17.4495 -8.43408e-16 13.7739
v  24.7247 19.5763 4.48985
v  13.3266 19.5763 3.00558
v  18.5004 19.5763 7.08957

# 0 UV coordinates

# 31 vertex normals
vn -0.385405 -2.09815e-05 -0.922748
vn -0.385405 -2.09672e-05 -0.922748
vn 0.926041 -3.1668e-05 -0.377422
vn 0.926041 -3.16797e-05 -0.377422
vn 0.926041 -3.15881e-05 -0.377422
vn 0.385405 2.09965e-05 0.922748
vn -0.619588 3.80434e-05 0.784927
vn -0.619588 3.80658e-05 0.784927
vn -0.781823 -3.02964e-06 -0.623501
vn -0.781823 -3.05207e-06 -0.623501
vn -0.781823 -3.01717e-06 -0.623501
vn 0.619588 -3.80788e-05 -0.784927
vn 0.385405 2.0901e-05 0.922748
vn -0.619588 3.80767e-05 0.784927
vn 0 -1 -6.12323e-17
vn -6.04506e-24 -1 -6.12323e-17
vn -2.31094e-24 -1 -6.12323e-17
vn -0.226326 0.809412 -0.541876
vn -0.226326 0.809412 -0.541876
vn 0.226321 0.80942 0.541865
vn 0.226321 0.80942 0.541865
vn -0.358333 0.815795 0.453955
vn -0.358333 0.815795 0.453955
vn 0.358346 0.815781 -0.453972
vn 0.358346 0.815781 -0.453972
vn -0.226326 0.809412 -0.541876
vn 0.226321 0.80942 0.541865
vn 0.226321 0.80942 0.541865
vn -0.358333 0.815796 0.453955
vn -0.358333 0.815796 0.453955
vn 0.358346 0.815781 -0.453972

# Mesh 'defaultobject' with 38 faces
g defaultobject
usemtl DefaultMaterial
f  1//1 2//1 3//1
f  2//1 1//1 4//2
f  4//3 5//3 2//3
f  5//3 4//3 6//4
f  6//4 4//3 7//5
f  5//6 8//6 9//6
f  8//6 5//6 6//6
f  10//7 11//7 12//7
f  11//7 10//7 13//8
f  13//9 14//9 11//9
f  14//9 13//9 15//10
f  15//10 13//9 16//11
f  14//12 1//12 3//12
f  1//12 14//12 15//12
f  9//6 17//13 18//13
f  17//13 9//6 8//6
f  17//14 12//7 18//14
f  12//7 17//14 10//7
f  2//15 9//15 3//15
f  9//15 2//15 5//16
f  12//17 14//17 3//15
f  14//17 12//17 11//15
f  18//15 3//15 9//15
f  3//15 18//15 12//17
f  7//18 1//18 19//18
f  1//18 7//18 4//19
f  6//20 19//20 8//20
f  19//20 6//20 7//21
f  16//22 10//22 20//22
f  10//22 16//22 13//23
f  15//24 20//24 1//24
f  20//24 15//24 16//25
f  19//18 1//18 21//26
f  21//27 8//20 19//20
f  8//20 21//27 17//28
f  17//29 20//22 10//22
f  20//22 17//29 21//30
f  21//31 1//24 20//24

