# {"id":"BLDG_0003000e0011fc66","idOriginal":"BLDG_0003000e0011fc66","origin":[13.353134834689955,52.52548506387442],"elevation":34.6100006103516}
# Longitude: 13.353134834689955
# Latitude: 52.52548506387442
# Elevation: 34.6100006103516

# File produced by Open Asset Import Library (http://www.assimp.sf.net)
# (assimp v3.1.0)

mtllib BLDG_0003000e0011fc66.obj.mtl

# 10 vertex positions
v  8.71072 -1.0852e-15 17.7226
v  1.77897 1.56046 18.354
v  1.77894 -1.12386e-15 18.354
v  8.71075 1.56046 17.7226
v  0 0 0
v  3.3238e-05 1.56046 -4.93601e-05
v  6.93178 3.86595e-17 -0.631357
v  6.93181 1.56046 -0.631406
v  3.80168 2.34114 3.14824
v  4.90913 2.34114 14.5743

# 0 UV coordinates

# 15 vertex normals
vn 0.0907061 2.97651e-05 0.995878
vn 0.0907061 2.97212e-05 0.995878
vn -0.995336 2.42042e-05 0.0964715
vn -0.995336 2.42523e-05 0.0964715
vn -0.0907061 -2.95693e-05 -0.995878
vn -0.090706 -2.95564e-05 -0.995878
vn 0.995336 -2.43929e-05 -0.0964715
vn -6.59945e-24 -1 -6.12323e-17
vn 4.12465e-25 -1 -6.12323e-17
vn -0.0198541 0.975751 -0.217982
vn -0.21786 0.975752 0.0211157
vn -0.21786 0.975752 0.0211157
vn 0.217862 0.975751 -0.021116
vn 0.217862 0.975751 -0.0211159
vn 0.0198538 0.975752 0.217979

# Mesh 'defaultobject' with 16 faces
g defaultobject
usemtl DefaultMaterial
f  1//1 2//1 3//1
f  2//1 1//1 4//2
f  2//3 5//3 3//3
f  5//3 2//3 6//4
f  6//5 7//5 5//5
f  7//5 6//5 8//6
f  7//7 4//7 1//7
f  4//7 7//7 8//7
f  3//8 7//8 1//8
f  7//8 3//8 5//9
f  9//10 8//10 6//10
f  9//11 2//11 10//11
f  2//11 9//11 6//12
f  9//13 4//13 8//13
f  4//13 9//13 10//14
f  2//15 4//15 10//15

