# {"id":"BLDG_00030009007eef0c","idOriginal":"BLDG_00030009007eef0c","origin":[13.397491092626991,52.53774269879053],"elevation":46.5900001525879}
# Longitude: 13.397491092626991
# Latitude: 52.53774269879053
# Elevation: 46.5900001525879

# File produced by Open Asset Import Library (http://www.assimp.sf.net)
# (assimp v3.1.0)

mtllib BLDG_00030009007eef0c.obj.mtl

# 10 vertex positions
v  13.7286 16.9191 -5.89439
v  2.31076 18.9617 5.24968
v  16.039 18.9617 -0.644175
v  0.000361402 16.9191 -0.00053563
v  4.62106 16.9191 10.5
v  18.3493 16.9191 4.60617
v  13.7282 3.60894e-16 -5.89385
v  4.6207 -6.42974e-16 10.5006
v  0 0 0
v  18.3489 -2.82079e-16 4.6067

# 0 UV coordinates

# 15 vertex normals
vn -0.132343 0.942052 -0.30826
vn -0.132343 0.942052 -0.30826
vn 0.132341 0.942053 0.308256
vn 0.132341 0.942053 0.308256
vn 0 -1 -6.12323e-17
vn -2.4711e-24 -1 -6.12323e-17
vn -0.9153 3.23126e-05 0.402772
vn -0.9153 3.23024e-05 0.402772
vn -0.9153 3.23145e-05 0.402772
vn -0.394503 -2.06638e-05 -0.918895
vn -0.394503 -2.06811e-05 -0.918894
vn 0.9153 -3.23126e-05 -0.402772
vn 0.9153 -3.2261e-05 -0.402772
vn 0.9153 -3.26401e-05 -0.402772
vn 0.394503 2.07056e-05 0.918895

# Mesh 'defaultobject' with 16 faces
g defaultobject
usemtl DefaultMaterial
f  1//1 2//1 3//1
f  2//1 1//1 4//2
f  3//3 5//3 6//3
f  5//3 3//3 2//4
f  7//5 8//5 9//5
f  8//5 7//5 10//6
f  5//7 9//7 8//7
f  9//7 5//7 4//8
f  4//8 5//7 2//9
f  4//10 7//10 9//10
f  7//10 4//10 1//11
f  1//12 10//12 7//12
f  10//12 1//12 6//13
f  6//13 1//12 3//14
f  10//15 5//15 8//15
f  5//15 10//15 6//15

