# {"id":"BLDG_000300000028f927","idOriginal":"BLDG_000300000028f927","origin":[13.366658058472751,52.50328923862887],"elevation":33.9900016784668}
# Longitude: 13.366658058472751
# Latitude: 52.50328923862887
# Elevation: 33.9900016784668

# File produced by Open Asset Import Library (http://www.assimp.sf.net)
# (assimp v3.1.0)

mtllib BLDG_000300000028f927.obj.mtl

# 8 vertex positions
v  0.000155473 7.29344 -0.00023037
v  15.1698 7.29344 0.521431
v  3.88313 7.29344 -6.39682
v  11.6609 7.29344 7.20801
v  0 0 0
v  15.1696 -3.19425e-17 0.521661
v  11.6607 -4.41377e-16 7.20824
v  3.88298 3.91678e-16 -6.39658

# 0 UV coordinates

# 9 vertex normals
vn -0 1 0
vn 2.56333e-25 -1 -6.12323e-17
vn 0 -1 -6.12323e-17
vn -0.525811 3.80766e-05 0.850601
vn 0.885483 -4.22507e-06 0.464671
vn 0.522597 -3.80611e-05 -0.85258
vn 0.522597 -3.80751e-05 -0.85258
vn -0.854827 1.83183e-06 -0.518913
vn -0.854827 1.83312e-06 -0.518913

# Mesh 'defaultobject' with 12 faces
g defaultobject
usemtl DefaultMaterial
f  1//1 2//1 3//1
f  2//1 1//1 4//1
f  5//2 6//2 7//2
f  6//2 5//2 8//3
f  7//4 1//4 5//4
f  1//4 7//4 4//4
f  6//5 4//5 7//5
f  4//5 6//5 2//5
f  3//6 6//6 8//6
f  6//6 3//6 2//7
f  1//8 8//8 5//8
f  8//8 1//8 3//9

