# {"id":"BLDG_0003000b00373d78","idOriginal":"BLDG_0003000b00373d78","origin":[13.330207153041474,52.52499579136079],"elevation":33.7999992370605}
# Longitude: 13.330207153041474
# Latitude: 52.52499579136079
# Elevation: 33.7999992370605

# File produced by Open Asset Import Library (http://www.assimp.sf.net)
# (assimp v3.1.0)

mtllib BLDG_0003000b00373d78.obj.mtl

# 17 vertex positions
v  8.53872 9.95461e-16 -16.2571
v  2.66593 8.72043e-16 -14.2415
v  3.21782 1.05257e-15 -17.1898
v  0 0 0
v  5.3209 -5.71093e-17 0.932666
v  13.8596 9.38351e-16 -15.3244
v  13.3077 7.57824e-16 -12.3762
v  10.6418 -1.14219e-16 1.86533
v  3.21817 16.2266 -17.1903
v  13.86 16.2266 -15.325
v  8.53914 19.4833 -16.2577
v  10.6421 16.2266 1.86482
v  0.000345113 16.2266 -0.00051332
v  5.32132 19.4833 0.93205
v  2.66628 16.2266 -14.2421
v  13.3081 16.2266 -12.3767
v  7.98725 19.4833 -13.3095

# 0 UV coordinates

# 29 vertex normals
vn -1.63374e-23 -1 -6.12324e-17
vn 0 -1 -6.12323e-17
vn 1.7933e-23 -1 -6.12323e-17
vn -1.04559e-22 -1 -6.12323e-17
vn -3.3821e-24 -1 -6.12323e-17
vn 0.172651 -3.48179e-05 -0.984983
vn 0.172651 -3.48857e-05 -0.984983
vn 0.172651 -3.48758e-05 -0.984983
vn 0.172651 -3.45306e-05 -0.984983
vn -0.172651 3.48324e-05 0.984983
vn -0.172651 3.48368e-05 0.984983
vn -0.172651 3.48314e-05 0.984983
vn -0.172651 3.48288e-05 0.984983
vn -0.982927 1.50944e-05 -0.183998
vn -0.982927 1.50958e-05 -0.183998
vn -0.982927 1.50846e-05 -0.183998
vn -0.992278 0 -0.124035
vn 0.982927 -1.50836e-05 0.183998
vn 0.982927 -1.50592e-05 0.183998
vn 0.982927 -1.48918e-05 0.183998
vn 0.982927 -1.50917e-05 0.183998
vn -0.507507 0.856394 -0.0950022
vn -0.507507 0.856394 -0.0950022
vn -0.507507 0.856394 -0.0950022
vn -0.507507 0.856394 -0.0950022
vn 0.507514 0.85639 0.0950036
vn 0.507514 0.85639 0.0950035
vn 0.507513 0.85639 0.0950035
vn 0.507514 0.85639 0.0950035

# Mesh 'defaultobject' with 60 faces
g defaultobject
usemtl DefaultMaterial
f  1//1 2//1 3//1
f  2//1 1//1 4//2
f  4//2 1//1 5//2
f  5//2 1//1 6//3
f  5//2 6//3 7//4
f  5//2 7//4 8//5
f  1//1 2//1 3//1
f  2//1 1//1 4//2
f  4//2 1//1 5//2
f  5//2 1//1 6//3
f  5//2 6//3 7//4
f  5//2 7//4 8//5
f  9//6 1//6 3//6
f  1//6 9//6 6//7
f  6//7 9//6 10//8
f  10//8 9//6 11//9
f  12//10 5//10 8//10
f  5//10 12//10 4//11
f  4//11 12//10 13//12
f  13//12 12//10 14//13
f  3//14 15//14 9//14
f  15//14 3//14 13//15
f  13//15 3//14 4//16
f  4//17 3//17 2//17
f  10//18 7//18 6//18
f  7//18 10//18 8//19
f  8//19 10//18 16//20
f  8//19 16//20 12//21
f  9//6 1//6 3//6
f  1//6 9//6 6//7
f  6//7 9//6 10//8
f  10//8 9//6 11//9
f  12//10 5//10 8//10
f  5//10 12//10 4//11
f  4//11 12//10 13//12
f  13//12 12//10 14//13
f  3//14 15//14 9//14
f  15//14 3//14 13//15
f  13//15 3//14 4//16
f  4//17 3//17 2//17
f  10//18 7//18 6//18
f  7//18 10//18 8//19
f  8//19 10//18 16//20
f  8//19 16//20 12//21
f  9//22 17//22 11//22
f  17//22 9//22 14//23
f  14//23 9//22 15//24
f  14//23 15//24 13//25
f  11//26 16//26 10//26
f  16//26 11//26 12//27
f  12//27 11//26 17//28
f  12//27 17//28 14//29
f  9//22 17//22 11//22
f  17//22 9//22 14//23
f  14//23 9//22 15//24
f  14//23 15//24 13//25
f  11//26 16//26 10//26
f  16//26 11//26 12//27
f  12//27 11//26 17//28
f  12//27 17//28 14//29

