# {"id":"BLDG_0003000f0041429c","idOriginal":"BLDG_0003000f0041429c","origin":[13.384706417941137,52.55483156499721],"elevation":39.9700012207031}
# Longitude: 13.384706417941137
# Latitude: 52.55483156499721
# Elevation: 39.9700012207031

# File produced by Open Asset Import Library (http://www.assimp.sf.net)
# (assimp v3.1.0)

mtllib BLDG_0003000f0041429c.obj.mtl

# 10 vertex positions
v  1.09729 4.749 1.19358
v  5.41666 4.749 -4.7517
v  0.000101363 4.749 -0.00015052
v  2.15619 4.749 2.34661
v  7.58329 4.749 -2.41359
v  5.41656 2.90949e-16 -4.75155
v  1.09719 -7.3095e-17 1.19373
v  0 0 0
v  2.15609 -1.43697e-16 2.34676
v  7.58319 1.47781e-16 -2.41344

# 0 UV coordinates

# 13 vertex normals
vn 0 1 0
vn 0 -1 -6.12323e-17
vn 7.04244e-24 -1 -6.12323e-17
vn -9.20578e-24 -1 -6.12323e-17
vn -0.736252 3.71464e-05 0.676707
vn -0.736252 3.7163e-05 0.676707
vn -0.73653 3.71767e-05 0.676405
vn -0.73653 3.71427e-05 0.676405
vn 0.659406 9.79192e-06 0.751787
vn 0.733493 -3.72005e-05 -0.679697
vn 0.733493 -3.72005e-05 -0.679697
vn -0.659452 -9.75133e-06 -0.751746
vn -0.659452 -9.67297e-06 -0.751746

# Mesh 'defaultobject' with 16 faces
g defaultobject
usemtl DefaultMaterial
f  1//1 2//1 3//1
f  2//1 1//1 4//1
f  2//1 4//1 5//1
f  6//2 7//2 8//2
f  7//2 6//2 9//3
f  9//3 6//2 10//4
f  1//5 8//5 7//5
f  8//5 1//5 3//6
f  4//7 7//7 9//7
f  7//7 4//7 1//8
f  4//9 10//9 5//9
f  10//9 4//9 9//9
f  5//10 6//10 2//10
f  6//10 5//10 10//11
f  3//12 6//12 8//12
f  6//12 3//12 2//13

