# {"id":"BLDG_0003000a00419a4f","idOriginal":"BLDG_0003000a00419a4f","origin":[13.38661373144317,52.523037622907104],"elevation":32.9700012207031}
# Longitude: 13.38661373144317
# Latitude: 52.523037622907104
# Elevation: 32.9700012207031

# File produced by Open Asset Import Library (http://www.assimp.sf.net)
# (assimp v3.1.0)

mtllib BLDG_0003000a00419a4f.obj.mtl

# 19 vertex positions
v  18.5781 1.62737e-16 -2.65769
v  10.8948 3.33972e-16 -5.45418
v  16.1939 4.96412e-16 -8.10702
v  13.6532 1.17694e-17 -0.192209
v  2.75836 -3.22203e-16 5.26198
v  0 0 0
v  19.4326 -6.63317e-16 10.8328
v  8.77872 -1.02544e-15 16.7467
v  10.8953 21.33 -5.45486
v  16.1944 21.33 -8.10769
v  18.5785 18.662 -2.65828
v  13.6536 18.662 -0.1928
v  2.75875 18.662 5.26138
v  0.00039834 18.662 -0.000590241
v  5.44788 21.33 -2.72777
v  19.433 18.662 10.8322
v  8.77912 18.662 16.7461
v  14.1061 21.33 13.7891
v  8.20623 21.33 2.53421

# 0 UV coordinates

# 26 vertex normals
vn 0 -1 -6.12323e-17
vn -5.85186e-24 -1 -6.12323e-17
vn -2.68115e-24 -1 -6.12323e-17
vn -0.447658 -1.87189e-05 -0.894205
vn -0.447657 -1.8699e-05 -0.894205
vn 0.916155 -3.22353e-05 -0.400824
vn 0.916155 -3.22473e-05 -0.400824
vn 0.447658 1.87244e-05 0.894205
vn 0.447658 1.87058e-05 0.894205
vn -0.885687 3.35828e-05 0.464282
vn -0.885687 3.35893e-05 0.464282
vn -0.447658 -1.87266e-05 -0.894205
vn -0.447657 -1.88937e-05 -0.894205
vn 0.485338 1.72899e-05 0.874327
vn 0.485338 1.73346e-05 0.874327
vn 0.485338 1.71902e-05 0.874327
vn -0.885687 3.36291e-05 0.464282
vn 0.885687 -3.36142e-05 -0.464282
vn -0.355359 0.91598 0.186281
vn 0.355367 0.915976 -0.186285
vn 0.355367 0.915976 -0.186285
vn 0.183413 0.912212 0.366372
vn 0.183413 0.912212 0.366372
vn -0.355359 0.91598 0.186281
vn -0.355359 0.91598 0.186281
vn 0.183413 0.912212 0.366372

# Mesh 'defaultobject' with 34 faces
g defaultobject
usemtl DefaultMaterial
f  1//1 2//1 3//1
f  2//1 1//1 4//1
f  2//1 5//2 6//2
f  5//2 2//1 4//1
f  5//2 7//3 8//3
f  7//3 5//2 4//1
f  9//4 3//4 2//4
f  3//4 9//4 10//5
f  3//6 11//6 1//6
f  11//6 3//6 10//7
f  1//8 12//8 4//8
f  12//8 1//8 11//9
f  13//10 6//10 5//10
f  6//10 13//10 14//11
f  14//12 2//4 6//12
f  2//4 14//12 9//4
f  9//4 14//12 15//13
f  16//14 8//14 7//14
f  8//14 16//14 17//15
f  17//15 16//14 18//16
f  17//17 5//10 8//17
f  5//10 17//17 13//10
f  4//18 16//18 7//18
f  16//18 4//18 12//18
f  19//19 17//19 18//19
f  17//19 19//19 13//19
f  12//20 18//20 16//20
f  18//20 12//20 19//21
f  12//22 10//22 9//22
f  10//22 12//22 11//23
f  15//24 13//19 19//19
f  13//19 15//24 14//25
f  15//26 12//22 9//22
f  15//21 19//21 12//20

