# {"id":"BLDG_000300080011623a","idOriginal":"BLDG_000300080011623a","origin":[13.391196850365981,52.508534928585235],"elevation":34.8699989318848}
# Longitude: 13.391196850365981
# Latitude: 52.508534928585235
# Elevation: 34.8699989318848

# File produced by Open Asset Import Library (http://www.assimp.sf.net)
# (assimp v3.1.0)

mtllib BLDG_000300080011623a.obj.mtl

# 46 vertex positions
v  2.27189 -1.95041e-15 31.8526
v  1.88192 -1.6146e-15 26.3685
v  8.34974 -1.92038e-15 31.3622
v  8.50893 -1.80382e-15 29.4586
v  9.34876 -1.74943e-15 28.5704
v  13.3093 -1.56018e-15 25.4797
v  8.69518 -1.88988e-15 30.864
v  9.27528 -1.79608e-15 29.3322
v  13.5101 -1.7312e-15 28.2727
v  12.4639 0.220001 13.7231
v  6.41269 0.220001 20.2285
v  5.98363 0.220001 13.9776
v  12.8989 0.220001 19.7729
v  1.47234 -0.139999 20.6086
v  13.307 -0.139999 25.4799
v  1.88192 -0.139999 26.3685
v  12.8974 -0.139999 19.7201
v  0.514115 -0.399998 7.14996
v  12.4603 -0.399998 13.6728
v  1.02823 -0.399998 14.2999
v  0 -0.399998 -2.44928e-17
v  11.9462 -0.399998 6.52287
v  11.4321 -0.399998 -0.627096
v  8.69571 24.6361 30.8632
v  8.50946 24.6361 29.4578
v  9.27581 24.6361 29.3314
v  9.34929 24.6361 28.5696
v  13.5106 24.6361 28.2719
v  13.3098 24.6361 25.479
v  1.88244 24.6361 26.3677
v  12.8995 24.7731 19.7722
v  12.4644 24.7731 13.7223
v  5.98415 24.7731 13.9768
v  6.41321 24.7731 20.2277
v  1.88244 24.5462 26.3677
v  1.47287 24.5462 20.6078
v  12.898 24.5462 19.7193
v  13.3075 24.5462 25.4791
v  1.02873 23.0431 14.2992
v  0.00050052 23.0431 -0.00074073
v  0.514726 28.2221 7.14906
v  11.4326 23.0431 -0.627836
v  12.4608 23.0431 13.6721
v  11.9468 28.2221 6.52196
v  2.27241 24.6361 31.8518
v  8.35026 24.6361 31.3614

# 0 UV coordinates

# 53 vertex normals
vn 1.974e-24 -1 -6.12323e-17
vn -1.41368e-23 -1 -6.12323e-17
vn 2.80888e-23 -1 -6.12324e-17
vn 1.87294e-23 -1 -6.12324e-17
vn -1.08713e-22 -1 -6.12323e-17
vn 2.71404e-22 -1 -6.12322e-17
vn 7.08063e-24 -1 -6.12324e-17
vn 0 -1 0
vn 0.991332 -2.5294e-05 -0.131378
vn 0.162743 2.76954e-05 0.986668
vn 0.99538 -1.81982e-05 0.0960105
vn 0.99538 -1.82367e-05 0.0960118
vn 0.0713588 2.99818e-05 0.997451
vn 0.0713588 2.99853e-05 0.997451
vn 0.997425 -2.354e-05 -0.0717196
vn 0.997425 -2.35789e-05 -0.0717192
vn -0.0775367 -2.98373e-05 -0.996989
vn -0.0775367 -2.98358e-05 -0.996989
vn 0.997425 -2.35752e-05 -0.0717193
vn 0.997425 -2.3572e-05 -0.0717193
vn -0.039237 -3.07551e-05 -0.99923
vn -0.0392369 -3.07155e-05 -0.99923
vn -0.997653 2.34583e-05 0.0684777
vn 0.0700629 3.00425e-05 0.997543
vn 0.0700629 3.00425e-05 0.997543
vn -0.997481 2.35366e-05 0.0709294
vn -0.0775367 -2.98504e-05 -0.996989
vn -0.0775367 -2.98493e-05 -0.996989
vn 0.997481 -2.3511e-05 -0.0709296
vn 0.997481 -2.35512e-05 -0.0709294
vn 0.0775368 2.98514e-05 0.996989
vn 0.0775369 2.98514e-05 0.996989
vn -0.997425 2.35612e-05 0.0717194
vn -0.997425 2.35666e-05 0.0717193
vn -0.997425 2.35616e-05 0.0717194
vn -0.997425 2.35557e-05 0.0717194
vn 0.997425 -2.35683e-05 -0.0717193
vn 0.997425 -2.35666e-05 -0.0717193
vn 0.997425 -2.35692e-05 -0.0717193
vn 0.997425 -2.35686e-05 -0.0717193
vn -0.0547718 -3.03801e-05 -0.998499
vn -0.0547718 -3.03788e-05 -0.998499
vn 0.0547718 3.03507e-05 0.998499
vn 0.0547718 3.03897e-05 0.998499
vn -0.997481 2.35355e-05 0.0709295
vn 0.0804285 2.9768e-05 0.99676
vn 0.0804285 2.97696e-05 0.99676
vn 0.821748 4.71943e-07 0.569851
vn 0 1 0
vn -0.0320794 0.810534 -0.584813
vn -0.0320794 0.810534 -0.584813
vn 0.0320785 0.810546 0.584796
vn 0.0320785 0.810546 0.584796

# Mesh 'defaultobject' with 76 faces
g defaultobject
usemtl DefaultMaterial
f  1//1 2//1 3//1
f  4//2 3//1 2//1
f  5//3 4//2 2//1
f  6//4 5//3 2//1
f  7//5 3//1 4//2
f  8//6 4//2 5//3
f  9//7 5//3 6//4
f  10//8 11//8 12//8
f  11//8 10//8 13//8
f  14//8 15//8 16//8
f  15//8 14//8 17//8
f  18//8 19//8 20//8
f  19//8 18//8 21//8
f  19//8 21//8 22//8
f  22//8 21//8 23//8
f  4//9 24//9 7//9
f  24//9 4//9 25//9
f  8//10 25//10 4//10
f  25//10 8//10 26//10
f  5//11 26//11 8//11
f  26//11 5//11 27//12
f  9//13 27//13 5//13
f  27//13 9//13 28//14
f  6//15 28//15 9//15
f  28//15 6//15 29//16
f  30//17 6//17 2//17
f  6//17 30//17 29//18
f  10//19 31//19 13//19
f  31//19 10//19 32//20
f  33//21 10//21 12//21
f  10//21 33//21 32//22
f  34//23 12//23 11//23
f  12//23 34//23 33//23
f  13//24 34//24 11//24
f  34//24 13//24 31//25
f  35//26 14//26 16//26
f  14//26 35//26 36//26
f  36//27 17//27 14//27
f  17//27 36//27 37//28
f  17//29 38//29 15//29
f  38//29 17//29 37//30
f  15//31 35//31 16//31
f  35//31 15//31 38//32
f  39//33 18//33 20//33
f  18//33 39//33 21//34
f  21//34 39//33 40//35
f  40//35 39//33 41//36
f  42//37 22//37 23//37
f  22//37 42//37 19//38
f  19//38 42//37 43//39
f  43//39 42//37 44//40
f  40//41 23//41 21//41
f  23//41 40//41 42//42
f  19//43 39//43 20//43
f  39//43 19//43 43//44
f  45//45 2//45 1//45
f  2//45 45//45 30//45
f  3//46 45//46 1//46
f  45//46 3//46 46//47
f  7//48 46//48 3//48
f  46//48 7//48 24//48
f  46//49 25//49 45//49
f  25//49 46//49 24//49
f  26//49 27//49 25//49
f  45//49 29//49 30//49
f  29//49 45//49 27//49
f  27//49 45//49 25//49
f  29//49 27//49 28//49
f  32//49 34//49 31//49
f  34//49 32//49 33//49
f  38//49 36//49 35//49
f  36//49 38//49 37//49
f  42//50 41//50 44//50
f  41//50 42//50 40//51
f  44//52 39//52 43//52
f  39//52 44//52 41//53

