# {"id":"BLDG_000300000037aa7a","idOriginal":"BLDG_000300000037aa7a","origin":[13.355740597813652,52.533238231108896],"elevation":35.2999992370605}
# Longitude: 13.355740597813652
# Latitude: 52.533238231108896
# Elevation: 35.2999992370605

# File produced by Open Asset Import Library (http://www.assimp.sf.net)
# (assimp v3.1.0)

mtllib BLDG_000300000037aa7a.obj.mtl

# 44 vertex positions
v  0.000368401 17.2929 -0.00054733
v  0.993443 2.70572e-17 -0.441878
v  0 0 0
v  0.993812 17.2929 -0.442425
v  10.1539 17.2929 20.9821
v  10.1536 -1.28481e-15 20.9826
v  25.7218 -8.25584e-16 13.4828
v  25.7222 17.2929 13.4823
v  29.242 -7.21722e-16 11.7866
v  29.2423 17.2929 11.7861
v  19.0815 5.74162e-16 -9.37678
v  19.0818 17.2929 -9.37732
v  18.0856 17.2929 -8.88667
v  18.0853 5.44118e-16 -8.88613
v  13.9349 0.48 -17.7559
v  18.0855 13.5845 -8.88656
v  18.0853 0.48 -8.88614
v  13.9352 13.5845 -17.7564
v  -3.38756 13.5845 -9.23594
v  -3.38784 0.48 -9.23553
v  0.993733 13.5845 -0.442308
v  0.993454 0.48 -0.441893
v  14.8295 0.970001 -18.1991
v  13.9352 14.2549 -17.7564
v  13.9349 0.970001 -17.756
v  14.8298 14.2549 -18.1995
v  17.2906 0.970001 -19.3723
v  17.2909 14.2549 -19.3727
v  -2.57484 0.970001 -60.366
v  -2.57455 14.2549 -60.3665
v  -5.03662 14.2549 -59.1433
v  -5.0369 0.970001 -59.1428
v  -8.76715 14.2549 -57.3296
v  -8.76743 0.970001 -57.3292
v  -24.0219 14.2549 -49.9117
v  -24.0222 0.970001 -49.9113
v  -26.5535 14.2549 -48.7588
v  -26.5537 0.970001 -48.7584
v  -6.48085 14.2549 -7.71474
v  -6.48113 0.970001 -7.71432
v  -4.31233 0.970001 -8.79296
v  -4.31204 14.2549 -8.79338
v  -3.38783 0.970001 -9.23554
v  -3.38755 14.2549 -9.23596

# 0 UV coordinates

# 48 vertex normals
vn -0.406405 -2.0261e-05 -0.913693
vn -0.406405 -2.02601e-05 -0.913693
vn -0.900148 3.29998e-05 0.435585
vn -0.900148 3.29629e-05 0.435585
vn 0.434003 1.92758e-05 0.900911
vn 0.434003 1.93013e-05 0.900911
vn 0.434083 1.92718e-05 0.900873
vn 0.901489 -3.29254e-05 -0.432803
vn 0.901489 -3.30382e-05 -0.432803
vn -0.441837 -1.89922e-05 -0.897095
vn -0.441836 -1.89435e-05 -0.897096
vn -0.442943 -1.89391e-05 -0.89655
vn -0.442943 -1.89514e-05 -0.89655
vn 0.905747 -3.28171e-05 -0.423819
vn 0.905747 -3.26982e-05 -0.423819
vn -0.441363 -1.90035e-05 -0.897329
vn -0.441363 -1.89302e-05 -0.897329
vn -0.895058 3.31792e-05 0.445949
vn -0.895058 3.31863e-05 0.445949
vn 0.442943 1.89342e-05 0.89655
vn 0.442943 1.88731e-05 0.89655
vn 0.443884 1.88392e-05 0.896084
vn 0.430296 1.93392e-05 0.902688
vn 0.430296 1.93063e-05 0.902688
vn 0.899903 -3.29796e-05 -0.43609
vn 0.899903 -3.29796e-05 -0.43609
vn -0.444932 -1.8817e-05 -0.895564
vn -0.444933 -1.90661e-05 -0.895564
vn -0.437229 -1.90849e-05 -0.89935
vn -0.437229 -1.91005e-05 -0.89935
vn -0.437305 -1.90507e-05 -0.899313
vn -0.437305 -1.9082e-05 -0.899313
vn -0.414465 -2.01402e-05 -0.910066
vn -0.414463 -1.98789e-05 -0.910066
vn -0.898327 3.30451e-05 0.439327
vn -0.898327 3.32199e-05 0.439327
vn 0.44531 1.88191e-05 0.895377
vn 0.44531 1.88488e-05 0.895376
vn 0.431797 1.93478e-05 0.901971
vn 0.431797 1.93544e-05 0.901971
vn 0.441363 1.89796e-05 0.897329
vn 0.441363 1.89201e-05 0.897329
vn -0 1 0
vn 0 -1 -6.12323e-17
vn 0 -1 -6.12323e-17
vn 6.92808e-24 -1 -6.12323e-17
vn 0 -1 -6.12323e-17
vn 0 -1 0

# Mesh 'defaultobject' with 76 faces
g defaultobject
usemtl DefaultMaterial
f  1//1 2//1 3//1
f  2//1 1//1 4//2
f  5//3 3//3 6//3
f  3//3 5//3 1//4
f  7//5 5//5 6//5
f  5//5 7//5 8//6
f  9//7 8//7 7//7
f  8//7 9//7 10//7
f  11//8 10//8 9//8
f  10//8 11//8 12//9
f  13//10 11//10 14//10
f  11//10 13//10 12//11
f  4//12 14//12 2//12
f  14//12 4//12 13//13
f  15//14 16//14 17//14
f  16//14 15//14 18//15
f  19//16 15//16 20//16
f  15//16 19//16 18//17
f  21//18 20//18 22//18
f  20//18 21//18 19//19
f  17//20 21//20 22//20
f  21//20 17//20 16//21
f  23//22 24//22 25//22
f  24//22 23//22 26//22
f  27//23 26//23 23//23
f  26//23 27//23 28//24
f  29//25 28//25 27//25
f  28//25 29//25 30//26
f  31//27 29//27 32//27
f  29//27 31//27 30//28
f  33//29 32//29 34//29
f  32//29 33//29 31//30
f  35//31 34//31 36//31
f  34//31 35//31 33//32
f  37//33 36//33 38//33
f  36//33 37//33 35//34
f  39//35 38//35 40//35
f  38//35 39//35 37//36
f  41//37 39//37 40//37
f  39//37 41//37 42//38
f  43//39 42//39 41//39
f  42//39 43//39 44//40
f  25//41 44//41 43//41
f  44//41 25//41 24//42
f  13//43 10//43 12//43
f  10//43 13//43 4//43
f  10//43 4//43 1//43
f  10//43 1//43 5//43
f  10//43 5//43 8//43
f  16//43 19//43 21//43
f  19//43 16//43 18//43
f  28//43 31//43 35//43
f  31//43 28//43 30//43
f  35//43 31//43 33//43
f  42//43 37//43 39//43
f  37//43 42//43 44//43
f  37//43 44//43 24//43
f  37//43 24//43 26//43
f  37//43 26//43 28//43
f  37//43 28//43 35//43
f  3//44 7//44 6//44
f  7//44 3//44 2//45
f  7//44 2//45 14//44
f  7//44 14//44 9//46
f  9//46 14//44 11//47
f  17//48 20//48 15//48
f  20//48 17//48 22//48
f  27//48 32//48 29//48
f  32//48 27//48 23//48
f  32//48 23//48 34//48
f  34//48 23//48 25//48
f  34//48 25//48 43//48
f  34//48 43//48 36//48
f  36//48 43//48 41//48
f  36//48 41//48 38//48
f  38//48 41//48 40//48

