# {"id":"BLDG_0003000e005a8f6b","idOriginal":"BLDG_0003000e005a8f6b","origin":[13.383158135291685,52.51013656885415],"elevation":34.689998626709}
# Longitude: 13.383158135291685
# Latitude: 52.51013656885415
# Elevation: 34.689998626709

# File produced by Open Asset Import Library (http://www.assimp.sf.net)
# (assimp v3.1.0)

mtllib BLDG_0003000e005a8f6b.obj.mtl

# 92 vertex positions
v  21.0764 -0.489998 -1.91473
v  21.9153 23.7989 8.67691
v  21.9147 -0.489998 8.67768
v  21.0769 23.7989 -1.9155
v  18.442 23.7989 -1.73101
v  18.4414 -0.489998 -1.73024
v  5.97624 23.7989 -0.490986
v  5.97572 -0.489998 -0.490218
v  0.000518313 23.7989 -0.00076755
v  0 -0.489998 -3.00037e-17
v  17.576 22.81 -11.4617
v  20.3077 7.12036e-16 -11.6284
v  17.5755 7.01784e-16 -11.461
v  20.3081 22.81 -11.6292
v  20.5431 22.81 -8.66004
v  20.5426 5.3023e-16 -8.65932
v  8.91961 22.81 -10.9312
v  8.91912 6.69299e-16 -10.9305
v  17.8105 5.19977e-16 -8.49188
v  9.12668 19.9 -7.96028
v  9.12626 4.87388e-16 -7.95965
v  17.8109 19.9 -8.49251
v  21.0769 22.81 -1.91547
v  21.0764 1.17245e-16 -1.91475
v  18.3466 19.9 -1.72422
v  18.3462 1.05539e-16 -1.72359
v  5.4882 -0.439999 -7.71476
v  5.97621 22.1581 -0.490934
v  5.97573 -0.439999 -0.49022
v  5.48868 22.1581 -7.71548
v  9.12834 -0.439999 -7.92959
v  9.12882 22.1581 -7.9303
v  8.91911 -0.439999 -10.9305
v  8.91959 22.1581 -10.9312
v  8.88274 -0.439999 -13.1953
v  8.88323 22.1581 -13.1961
v  -0.911413 22.1581 -12.3366
v  -0.911896 -0.439999 -12.3359
v  0.000483301 22.1581 -0.0007157
v  1.067e-06 -0.439999 -1.58045e-06
v  17.7749 -0.459999 -8.50369
v  18.4415 4.85344 -1.73041
v  18.4414 -0.459999 -1.73024
v  17.775 4.85344 -8.50385
v  9.12845 4.85344 -7.92975
v  9.12834 -0.459999 -7.92959
v  5.48831 4.85344 -7.71493
v  5.4882 -0.459999 -7.71476
v  5.97584 4.85344 -0.490387
v  5.97572 -0.459999 -0.490219
v  24.5826 -0.349998 -8.98223
v  20.4936 22.9529 -9.27772
v  20.4931 -0.349998 -9.27699
v  24.5831 22.9529 -8.98297
v  24.6725 -0.349998 -9.66528
v  24.673 22.9529 -9.66602
v  24.0938 22.9529 -9.98402
v  24.0933 -0.349998 -9.98328
v  23.639 -0.349998 -19.5642
v  23.6395 22.9529 -19.5649
v  18.5903 22.9529 -19.1709
v  18.5898 -0.349998 -19.1702
v  18.4739 -0.349998 -20.6515
v  18.4744 22.9529 -20.6522
v  17.0717 -0.349998 -21.788
v  17.0722 22.9529 -21.7887
v  16.3308 22.9529 -21.7308
v  16.3303 -0.349998 -21.73
v  14.095 22.9529 -21.5563
v  14.0945 -0.349998 -21.5556
v  13.6574 22.9529 -21.5226
v  13.6569 -0.349998 -21.5218
v  12.4491 22.9529 -20.1849
v  12.4486 -0.349998 -20.1841
v  12.5649 22.9529 -18.6996
v  12.5644 -0.349998 -18.6989
v  8.53521 22.9529 -18.3854
v  8.53471 -0.349998 -18.3847
v  8.88324 22.9529 -13.1961
v  8.88275 -0.349998 -13.1954
v  8.91961 22.9529 -10.9312
v  8.91911 -0.349998 -10.9305
v  20.2382 -0.349998 -11.6242
v  20.2387 22.9529 -11.6249
v  0.423959 23.7989 5.72743
v  0.423441 -0.489998 5.7282
v  0.726661 23.7989 9.83472
v  0.726143 -0.489998 9.83549
v  0.884571 23.7989 11.9607
v  0.884052 -0.489998 11.9614
v  22.0422 -0.489998 10.287
v  22.0427 23.7989 10.2863

# 0 UV coordinates

# 85 vertex normals
vn 0.996883 -2.37862e-05 -0.078896
vn 0.996883 -2.37825e-05 -0.078896
vn -0.0698453 -3.00286e-05 -0.997558
vn -0.0698453 -3.00335e-05 -0.997558
vn -0.0989862 -2.93325e-05 -0.995089
vn -0.0989862 -2.93281e-05 -0.995089
vn -0.0817603 -2.97504e-05 -0.996652
vn -0.0817603 -2.97495e-05 -0.996652
vn -0.0611715 -3.02444e-05 -0.998127
vn 0.996883 -2.37498e-05 -0.0788964
vn -0.0611716 -3.02444e-05 -0.998127
vn 0.0611716 3.02421e-05 0.998127
vn 0.0611715 3.02146e-05 0.998127
vn -0.997578 2.34725e-05 0.0695546
vn -0.997578 2.34697e-05 0.0695546
vn 0.996883 -2.375e-05 -0.0788959
vn 0.0698453 3.00293e-05 0.997558
vn 0.0698454 3.00364e-05 0.997558
vn -0.996883 2.38003e-05 0.0788961
vn -0.996883 2.37988e-05 0.0788961
vn 0.997731 -2.34131e-05 -0.0673285
vn 0.997731 -2.34117e-05 -0.0673285
vn 0.0589127 3.02763e-05 0.998263
vn 0.0589129 3.0298e-05 0.998263
vn 0.997578 -2.34591e-05 -0.0695546
vn 0.997578 -2.35012e-05 -0.0695543
vn 0.999871 -2.18585e-05 -0.0160546
vn -0.0874104 -2.96227e-05 -0.996172
vn -0.0874104 -2.96213e-05 -0.996172
vn -0.997279 2.36111e-05 0.073721
vn -0.997279 2.36103e-05 0.073721
vn 0.0817603 2.975e-05 0.996652
vn 0.0817603 2.975e-05 0.996652
vn 0.995193 -2.4538e-05 -0.0979325
vn 0.995193 -2.4182e-05 -0.0979327
vn -0.0662505 -3.01047e-05 -0.997803
vn -0.0662505 -3.01166e-05 -0.997803
vn -0.0589129 -3.02759e-05 -0.998263
vn -0.997731 2.34377e-05 0.0673285
vn -0.997731 2.34369e-05 0.0673285
vn 0.0989862 2.93427e-05 0.995089
vn 0.0989862 2.92997e-05 0.995089
vn -0.0718883 3.30483e-05 0.997413
vn 0.991451 -1.7058e-05 0.130478
vn 0.991451 -1.70526e-05 0.130478
vn 0.481248 -3.79758e-05 -0.876585
vn 0.481247 -3.80117e-05 -0.876585
vn 0.998878 -2.28355e-05 -0.0473641
vn -0.0778008 -2.98363e-05 -0.996969
vn 0.996955 -2.37612e-05 -0.0779746
vn 0.629658 -3.79954e-05 -0.776872
vn 0.629658 -3.79444e-05 -0.776873
vn -0.0778756 -2.98409e-05 -0.996963
vn -0.0777821 -2.99216e-05 -0.99697
vn -0.0777813 -2.98432e-05 -0.99697
vn -0.0769765 -2.9856e-05 -0.997033
vn -0.0769809 -2.99406e-05 -0.997033
vn -0.742107 -5.3234e-06 -0.670281
vn -0.996975 2.37537e-05 0.077718
vn -0.0777465 -2.98376e-05 -0.996973
vn -0.997759 2.34292e-05 0.066917
vn -0.999871 2.18674e-05 0.0160546
vn 0.0611716 3.02275e-05 0.998127
vn 0.0611716 3.02329e-05 0.998127
vn -0.994153 2.46494e-05 0.107976
vn -0.994153 2.45681e-05 0.107977
vn -0.997279 2.36107e-05 0.073721
vn -0.997279 2.36111e-05 0.073721
vn -0.997295 2.36029e-05 0.0734993
vn -0.997295 2.36041e-05 0.0734993
vn -0.997253 2.36226e-05 0.0740736
vn -0.997253 2.36201e-05 0.0740736
vn 0.0788905 2.98212e-05 0.996883
vn 0.996879 -2.37884e-05 -0.0789504
vn -3.57382e-25 -1 -6.12323e-17
vn 9.25935e-24 -1 -6.12323e-17
vn 0 -1 0
vn 9.33592e-24 -1 -6.12323e-17
vn 5.12453e-24 -1 -6.12323e-17
vn 0.0427522 0.715228 0.697582
vn -0.72617 0.685109 0.0574713
vn 0.0427523 0.715228 0.697583
vn -0.72617 0.685109 0.0574711
vn -0.72617 0.685109 0.057471
vn 0 1 0

# Mesh 'defaultobject' with 164 faces
g defaultobject
usemtl DefaultMaterial
f  1//1 2//1 3//1
f  2//1 1//1 4//2
f  5//3 1//3 6//3
f  1//3 5//3 4//4
f  7//5 6//5 8//5
f  6//5 7//5 5//6
f  9//7 8//7 10//7
f  8//7 9//7 7//8
f  11//9 12//9 13//9
f  12//9 11//9 14//9
f  12//10 15//10 16//10
f  15//10 12//10 14//10
f  17//11 13//9 18//11
f  13//9 17//11 11//9
f  19//12 20//12 21//12
f  20//12 19//12 22//13
f  20//14 18//14 21//14
f  18//14 20//14 17//15
f  16//10 23//16 24//16
f  23//16 16//10 15//10
f  24//17 25//17 26//17
f  25//17 24//17 23//18
f  25//19 19//19 26//19
f  19//19 25//19 22//20
f  27//21 28//21 29//21
f  28//21 27//21 30//22
f  31//23 30//23 27//23
f  30//23 31//23 32//24
f  33//25 32//25 31//25
f  32//25 33//25 34//26
f  35//27 34//27 33//27
f  34//27 35//27 36//27
f  37//28 35//28 38//28
f  35//28 37//28 36//29
f  39//30 38//30 40//30
f  38//30 39//30 37//31
f  29//32 39//32 40//32
f  39//32 29//32 28//33
f  41//34 42//34 43//34
f  42//34 41//34 44//35
f  45//36 41//36 46//36
f  41//36 45//36 44//37
f  47//38 46//38 48//38
f  46//38 47//38 45//38
f  49//39 48//39 50//39
f  48//39 49//39 47//40
f  43//41 49//41 50//41
f  49//41 43//41 42//42
f  51//43 52//43 53//43
f  52//43 51//43 54//43
f  55//44 54//44 51//44
f  54//44 55//44 56//45
f  57//46 55//46 58//46
f  55//46 57//46 56//47
f  59//48 57//48 58//48
f  57//48 59//48 60//48
f  61//49 59//49 62//49
f  59//49 61//49 60//49
f  63//50 61//50 62//50
f  61//50 63//50 64//50
f  65//51 64//51 63//51
f  64//51 65//51 66//52
f  67//53 65//53 68//53
f  65//53 67//53 66//53
f  69//54 68//54 70//54
f  68//54 69//54 67//55
f  71//56 70//56 72//56
f  70//56 71//56 69//57
f  73//58 72//58 74//58
f  72//58 73//58 71//58
f  75//59 74//59 76//59
f  74//59 75//59 73//59
f  77//60 76//60 78//60
f  76//60 77//60 75//60
f  79//61 78//61 80//61
f  78//61 79//61 77//61
f  81//62 80//62 82//62
f  80//62 81//62 79//62
f  83//63 81//63 82//63
f  81//63 83//63 84//64
f  52//65 83//65 53//65
f  83//65 52//65 84//66
f  85//67 10//67 86//67
f  10//67 85//67 9//68
f  87//69 86//69 88//69
f  86//69 87//69 85//70
f  89//71 88//71 90//71
f  88//71 89//71 87//72
f  91//73 89//73 90//73
f  89//73 91//73 92//73
f  3//74 92//74 91//74
f  92//74 3//74 2//74
f  26//75 16//75 24//75
f  16//75 26//75 19//76
f  33//77 38//77 35//77
f  38//77 33//77 31//77
f  38//77 31//77 27//77
f  38//77 27//77 40//77
f  40//77 27//77 29//77
f  43//77 46//77 41//77
f  46//77 43//77 50//77
f  46//77 50//77 48//77
f  78//77 76//77 80//77
f  53//77 55//77 51//77
f  55//77 53//77 58//77
f  58//77 53//77 59//77
f  59//77 53//77 83//77
f  59//77 83//77 82//77
f  59//77 82//77 62//77
f  62//77 82//77 63//77
f  63//77 82//77 65//77
f  65//77 82//77 80//77
f  65//77 80//77 68//77
f  68//77 80//77 76//77
f  68//77 76//77 70//77
f  70//77 76//77 74//77
f  70//77 74//77 72//77
f  88//77 91//77 90//77
f  91//77 88//77 86//77
f  91//77 86//77 10//77
f  91//77 10//77 8//77
f  91//77 8//77 6//77
f  91//77 6//77 3//77
f  3//77 6//77 1//77
f  12//78 19//76 13//78
f  19//76 12//78 16//75
f  13//78 21//79 18//79
f  21//79 13//78 19//76
f  11//80 22//80 14//80
f  14//81 22//81 15//81
f  20//82 11//80 17//82
f  11//80 20//82 22//80
f  25//83 15//81 22//81
f  15//81 25//83 23//84
f  28//85 37//85 39//85
f  37//85 28//85 30//85
f  37//85 30//85 32//85
f  37//85 32//85 34//85
f  37//85 34//85 36//85
f  44//85 49//85 42//85
f  49//85 44//85 45//85
f  49//85 45//85 47//85
f  64//85 75//85 61//85
f  75//85 64//85 73//85
f  73//85 64//85 66//85
f  73//85 66//85 67//85
f  73//85 67//85 69//85
f  73//85 69//85 71//85
f  56//85 52//85 54//85
f  52//85 56//85 57//85
f  52//85 57//85 84//85
f  84//85 57//85 60//85
f  84//85 60//85 81//85
f  81//85 60//85 79//85
f  79//85 60//85 75//85
f  79//85 75//85 77//85
f  75//85 60//85 61//85
f  7//85 4//85 5//85
f  4//85 7//85 2//85
f  2//85 7//85 9//85
f  2//85 9//85 85//85
f  2//85 85//85 87//85
f  2//85 87//85 89//85
f  2//85 89//85 92//85

