# {"id":"BLDG_0003000f001c0d6e","idOriginal":"BLDG_0003000f001c0d6e","origin":[13.385118505426165,52.523909957407064],"elevation":33.0699996948242}
# Longitude: 13.385118505426165
# Latitude: 52.523909957407064
# Elevation: 33.0699996948242

# File produced by Open Asset Import Library (http://www.assimp.sf.net)
# (assimp v3.1.0)

mtllib BLDG_0003000f001c0d6e.obj.mtl

# 36 vertex positions
v  14.4686 5.13 -3.16633
v  13.9128 5.13 9.08294
v  17.0012 5.13 8.4071
v  11.3802 5.13 -2.4905
v  8.65161 1.77 23.1222
v  15.9918 1.77 18.5835
v  8.03922 1.77 20.3238
v  16.6042 1.77 21.3819
v  3.42752 1.77 -0.750122
v  10.7689 1.77 -5.28305
v  2.8164 1.77 -3.54277
v  11.3801 1.77 -2.49039
v  11.3802 7.53 -2.49058
v  4.6119 7.53 21.0736
v  15.9919 7.53 18.5833
v  0.000225231 7.53 -0.00027541
v  0 0 0
v  3.42749 4.59283e-17 -0.750066
v  11.38 1.52489e-16 -2.49034
v  14.4685 1.77 -3.16622
v  14.4685 1.93872e-16 -3.16617
v  0.000174008 5.13 -0.0001995
v  3.7777e-05 1.77 -5.59799e-05
v  15.9917 -1.13791e-15 18.5836
v  16.6041 -1.30927e-15 21.382
v  13.9127 -5.5618e-16 9.08311
v  15.9918 5.13 18.5834
v  4.61178 1.77 21.0738
v  4.61174 -1.2904e-15 21.0739
v  4.61185 5.13 21.0737
v  8.03919 -1.24448e-15 20.3238
v  2.53272 -7.08667e-16 11.5734
v  17.0011 -5.14796e-16 8.40726
v  8.65158 -1.41583e-15 23.1222
v  10.7689 3.2349e-16 -5.28299
v  2.81636 2.16928e-16 -3.54271

# 0 UV coordinates

# 52 vertex normals
vn 0 1 -0
vn -0.21378 -2.62981e-05 -0.976882
vn -0.213767 -2.62027e-05 -0.976885
vn -0.213767 -2.63652e-05 -0.976885
vn -0.213767 -2.64157e-05 -0.976885
vn -0.213767 -4.18363e-05 -0.976885
vn -0.213773 -2.62731e-05 -0.976883
vn -0.213773 -2.6322e-05 -0.976883
vn -0.213773 -2.63356e-05 -0.976883
vn -0.500027 -1.67173e-05 -0.86601
vn 0.976883 -2.77194e-05 -0.213776
vn 0.976882 -2.32758e-05 -0.213778
vn 0.976883 -2.32932e-05 -0.213776
vn 0.976883 -2.7591e-05 -0.213775
vn 0.976883 -2.77574e-05 -0.213775
vn 0.976883 -2.85965e-05 -0.213775
vn 0.976883 -2.79245e-05 -0.213775
vn 0.976883 -2.77149e-05 -0.213775
vn 0.213773 2.65036e-05 0.976883
vn 0.213773 2.65049e-05 0.976883
vn 0.213773 2.66063e-05 0.976883
vn 0.213773 2.6509e-05 0.976883
vn 0.213773 2.59145e-05 0.976883
vn 0 -3.17824e-05 -1
vn -0.976883 2.76111e-05 0.213775
vn -0.976884 4.88389e-05 0.213772
vn -0.976882 2.75736e-05 0.213778
vn -0.976882 1.99265e-05 0.213781
vn -0.976883 2.75794e-05 0.213775
vn -0.976883 2.77343e-05 0.213775
vn 0 3.17864e-05 1
vn 0.976883 -2.746e-05 -0.213775
vn 0.976883 -2.79239e-05 -0.213775
vn 0.976883 -2.75511e-05 -0.213775
vn 0.213773 2.62843e-05 0.976883
vn 0.213774 2.63431e-05 0.976883
vn 0.213775 2.59447e-05 0.976883
vn -0.976883 2.77343e-05 0.213776
vn -0.213774 -2.6447e-05 -0.976883
vn -0.213774 -2.62126e-05 -0.976883
vn 0.976883 -2.72817e-05 -0.213776
vn 0.976883 -2.78471e-05 -0.213776
vn -0.976883 2.76603e-05 0.213776
vn -0.976883 2.76819e-05 0.213776
vn -2.8268e-24 -1 -6.12323e-17
vn -1.41341e-23 -1 -6.12323e-17
vn 2.2748e-24 -1 -6.12323e-17
vn 0 -1 -6.12323e-17
vn 7.26437e-23 -1 -6.12323e-17
vn -2.13976e-23 -1 -6.12323e-17
vn 2.27012e-24 -1 -6.12323e-17
vn -2.48241e-23 -1 -6.12323e-17

# Mesh 'defaultobject' with 68 faces
g defaultobject
usemtl DefaultMaterial
f  1//1 2//1 3//1
f  2//1 1//1 4//1
f  5//1 6//1 7//1
f  6//1 5//1 8//1
f  9//1 10//1 11//1
f  10//1 9//1 12//1
f  13//1 14//1 15//1
f  14//1 13//1 16//1
f  17//2 9//2 18//2
f  19//3 20//3 21//3
f  20//3 19//3 1//4
f  1//4 19//3 12//5
f  1//4 12//5 9//2
f  1//6 9//6 4//6
f  4//7 9//2 13//7
f  13//7 9//2 16//8
f  16//8 9//2 22//9
f  22//9 9//2 17//2
f  22//10 17//10 23//10
f  24//11 8//11 25//11
f  8//11 24//11 6//12
f  6//12 24//11 26//13
f  6//12 26//13 27//14
f  27//14 26//13 15//15
f  15//15 26//13 2//16
f  15//15 2//16 13//17
f  13//17 2//16 4//18
f  27//19 7//19 6//19
f  7//19 27//19 15//20
f  7//19 15//20 14//21
f  7//19 14//21 28//22
f  7//19 28//22 29//23
f  28//24 14//24 30//24
f  29//23 31//23 7//19
f  22//25 14//25 16//25
f  14//26 22//26 23//26
f  14//25 23//27 17//27
f  14//25 17//27 32//28
f  14//25 32//28 28//29
f  28//29 32//28 29//30
f  14//31 28//31 30//31
f  21//32 3//32 33//32
f  3//32 21//32 20//33
f  3//32 20//33 1//34
f  33//35 2//35 26//35
f  2//35 33//35 3//36
f  25//37 5//37 34//37
f  5//37 25//37 8//37
f  31//38 5//38 7//38
f  5//38 31//38 34//38
f  35//39 11//39 10//39
f  11//39 35//39 36//40
f  35//41 12//41 19//41
f  12//41 35//41 10//42
f  36//43 9//43 11//43
f  9//43 36//43 18//44
f  21//45 26//45 19//45
f  26//45 21//45 33//46
f  35//47 18//47 36//47
f  18//47 35//47 31//48
f  31//48 35//47 34//49
f  34//49 35//47 19//45
f  34//49 19//45 26//45
f  34//49 26//45 24//50
f  34//49 24//50 25//51
f  18//47 32//48 17//48
f  32//48 18//47 29//52
f  29//52 18//47 31//48

