# {"id":"BLDG_00030000001c8599","idOriginal":"BLDG_00030000001c8599","origin":[13.346293638309703,52.5557547685432],"elevation":36.5400009155273}
# Longitude: 13.346293638309703
# Latitude: 52.5557547685432
# Elevation: 36.5400009155273

# File produced by Open Asset Import Library (http://www.assimp.sf.net)
# (assimp v3.1.0)

mtllib BLDG_00030000001c8599.obj.mtl

# 26 vertex positions
v  6.6499 -3.98812e-16 6.5131
v  16.2406 -9.74435e-17 1.59137
v  8.98566 -5.38894e-16 8.80081
v  2.37862 -1.42652e-16 2.32969
v  27.1762 -2.73713e-16 4.47007
v  23.1966 -5.13909e-16 8.39277
v  20.204 1.43723e-16 -2.34717
v  0 0 0
v  7.24737 4.40992e-16 -7.20194
v  17.8665 2.83671e-16 -4.6327
v  13.5911 5.39642e-16 -8.81302
v  11.2108 6.82158e-16 -11.1405
v  13.9033 19.37 -0.695005
v  16.2409 16.9844 1.59083
v  17.8669 19.37 -4.63331
v  8.98603 16.9844 8.80027
v  6.65031 19.37 6.51248
v  13.5916 20 -8.81365
v  9.62842 20 -4.87487
v  2.37905 20 2.32905
v  11.2111 16.9844 -11.141
v  7.24773 16.9844 -7.20248
v  0.000361632 16.9844 -0.00053837
v  23.1969 16.9844 8.39223
v  20.2044 19.2736 -2.34778
v  27.1766 19.2736 4.46946

# 0 UV coordinates

# 46 vertex normals
vn 0 -1 -6.12323e-17
vn -4.32911e-25 -1 -6.12323e-17
vn 1.94799e-24 -1 -6.12323e-17
vn -1.94346e-24 -1 -6.12323e-17
vn -4.11991e-25 -1 -6.12323e-17
vn -2.89846e-24 -1 -6.12323e-17
vn 0 -1 -6.12323e-17
vn 2.84624e-24 -1 -6.12323e-17
vn 0.415477 0.807794 0.418148
vn 0.415502 0.807794 0.418123
vn 0.415502 0.807794 0.418123
vn 0.0738613 0.994494 0.0743362
vn 0.0738698 0.994494 0.0743358
vn 0.0738862 0.994492 0.0743432
vn 0.073874 0.994493 0.07434
vn -0.473273 0.741111 -0.4762
vn -0.473217 0.741145 -0.476202
vn -0.473217 0.741145 -0.476202
vn -0.473218 0.741145 -0.476202
vn -0.265063 0.92534 0.271088
vn -0.265063 0.925339 0.271088
vn -0.245697 0.924858 0.290296
vn 0.699116 -3.75703e-05 -0.715008
vn 0.699116 -3.7718e-05 -0.715008
vn 0.699116 -3.75362e-05 -0.715008
vn 0.699116 -3.73356e-05 -0.715008
vn 0.699116 -3.75792e-05 -0.715008
vn 0.699116 -3.69126e-05 -0.715008
vn 0.699116 -3.70662e-05 -0.715008
vn 0.699116 -3.78079e-05 -0.715008
vn -0.69972 3.74801e-05 0.714417
vn -0.69972 3.76638e-05 0.714417
vn -0.69972 3.75714e-05 0.714417
vn -0.69972 3.75152e-05 0.714417
vn 0 1 1.11022e-16
vn 0 1 0
vn -0.70488 -7.50275e-06 -0.709326
vn -0.70488 -7.50699e-06 -0.709326
vn -0.70488 -7.39618e-06 -0.709327
vn -0.70488 -7.47583e-06 -0.709326
vn 0.701998 7.57656e-06 0.712179
vn 0.701998 7.63301e-06 0.712179
vn -0.699116 3.75603e-05 0.715008
vn -0.699116 3.75019e-05 0.715008
vn 0.70488 7.46625e-06 0.709326
vn 0.70488 7.51017e-06 0.709326

# Mesh 'defaultobject' with 48 faces
g defaultobject
usemtl DefaultMaterial
f  1//1 2//1 3//1
f  2//1 1//1 4//2
f  2//1 5//3 6//3
f  5//3 2//1 7//4
f  7//4 2//1 4//2
f  7//4 4//2 8//1
f  7//4 8//1 9//5
f  7//4 9//5 10//6
f  10//6 9//5 11//7
f  11//7 9//5 12//8
f  13//9 14//9 15//9
f  14//10 13//10 16//10
f  16//10 13//10 17//11
f  18//12 13//12 15//12
f  13//12 18//12 17//13
f  17//14 18//14 19//14
f  17//13 19//15 20//15
f  21//16 19//16 18//16
f  19//17 21//17 22//17
f  19//17 22//17 20//18
f  20//18 22//17 23//19
f  24//20 25//20 14//20
f  25//20 24//20 26//21
f  15//22 14//22 25//22
f  7//23 26//23 5//23
f  26//23 7//23 10//24
f  26//23 10//24 11//25
f  26//23 11//25 12//26
f  26//23 12//26 21//27
f  26//23 21//27 25//28
f  25//28 21//27 15//29
f  15//29 21//27 18//30
f  23//31 17//31 20//31
f  17//31 23//31 16//32
f  16//32 23//31 8//33
f  16//32 8//33 3//34
f  3//35 8//35 4//35
f  3//35 4//35 1//36
f  12//37 22//37 21//37
f  22//37 12//37 23//38
f  23//38 12//37 9//39
f  23//38 9//39 8//40
f  5//41 24//41 6//41
f  24//41 5//41 26//42
f  24//43 2//43 6//43
f  2//43 24//43 14//44
f  2//45 16//45 3//45
f  16//45 2//45 14//46

