# {"id":"BLDG_00030002007d4cbd","idOriginal":"BLDG_00030002007d4cbd","origin":[13.404115901663028,52.5252503023978],"elevation":35.189998626709}
# Longitude: 13.404115901663028
# Latitude: 52.5252503023978
# Elevation: 35.189998626709

# File produced by Open Asset Import Library (http://www.assimp.sf.net)
# (assimp v3.1.0)

mtllib BLDG_00030002007d4cbd.obj.mtl

# 30 vertex positions
v  4.71007 24.234 2.16019
v  14.2475 -4.00314e-16 6.53763
v  14.248 24.234 6.53686
v  4.70955 -1.32321e-16 2.16096
v  14.7507 -3.70556e-16 6.05164
v  14.7512 24.234 6.05087
v  23.9838 1.761e-16 -2.87594
v  23.9843 24.234 -2.8767
v  27.8068 24.234 1.07631
v  27.8063 -6.59519e-17 1.07708
v  34.5926 3.35868e-16 -5.48514
v  34.5931 24.234 -5.48591
v  34.7596 3.45763e-16 -5.64675
v  34.7601 24.234 -5.64751
v  21.8963 1.14586e-15 -18.7133
v  21.8968 24.234 -18.714
v  15.3287 24.234 -12.6896
v  15.3282 7.76968e-16 -12.6888
v  11.1852 24.234 -14.9552
v  11.1847 9.15692e-16 -14.9544
v  11.0294 24.234 -14.7024
v  11.0289 9.00215e-16 -14.7016
v  7.04427 24.234 -7.48086
v  7.04376 4.58024e-16 -7.48009
v  8.32043 4.18494e-16 -6.83452
v  8.32095 24.234 -6.83528
v  4.44771 24.234 -3.65363
v  4.44719 2.23674e-16 -3.65287
v  0.000517855 24.234 -0.00076656
v  0 0 0

# 0 UV coordinates

# 40 vertex normals
vn -0.417058 3.76797e-05 0.90888
vn -0.417058 3.76647e-05 0.90888
vn 0.694692 7.89995e-06 0.719307
vn 0.694693 7.91401e-06 0.719307
vn 0.695111 7.89299e-06 0.718903
vn 0.695111 7.86848e-06 0.718903
vn -0.718876 3.73801e-05 0.695139
vn -0.718876 3.73201e-05 0.695139
vn 0.695139 7.9538e-06 0.718875
vn 0.695139 7.85375e-06 0.718875
vn 0.695361 7.85201e-06 0.718661
vn 0.695368 7.94703e-06 0.718654
vn 0.712627 -3.7396e-05 -0.701543
vn 0.712627 -3.74647e-05 -0.701543
vn -0.675948 -8.87277e-06 -0.736949
vn -0.675948 -8.89937e-06 -0.736949
vn 0.479735 -3.79777e-05 -0.877413
vn 0.479735 -3.80123e-05 -0.877414
vn -0.851295 1.58999e-06 -0.524688
vn -0.851294 1.61058e-06 -0.52469
vn -0.875536 3.42214e-06 -0.483153
vn -0.451256 3.78607e-05 0.892394
vn -0.451256 3.78779e-05 0.892395
vn -0.634747 -1.08774e-05 -0.77272
vn -0.634747 -1.08698e-05 -0.77272
vn -0.634721 -1.08797e-05 -0.772742
vn -0.634721 -1.08786e-05 -0.772742
vn -0.41704 3.76541e-05 0.908888
vn -0 1 0
vn 1.79574e-23 -1 -6.12323e-17
vn 3.94871e-24 -1 -6.12323e-17
vn 4.1684e-24 -1 -6.12323e-17
vn 4.10962e-22 -1 -6.12324e-17
vn -2.06305e-23 -1 -6.12323e-17
vn 2.82885e-23 -1 -6.12323e-17
vn 0 -1 -6.12323e-17
vn 5.13775e-24 -1 -6.12323e-17
vn 1.20015e-24 -1 -6.12323e-17
vn 9.95325e-25 -1 -6.12323e-17
vn -3.0334e-19 -1 -6.15779e-17

# Mesh 'defaultobject' with 56 faces
g defaultobject
usemtl DefaultMaterial
f  1//1 2//1 3//1
f  2//1 1//1 4//2
f  3//3 5//3 6//3
f  5//3 3//3 2//4
f  6//5 7//5 8//5
f  7//5 6//5 5//6
f  9//7 7//7 10//7
f  7//7 9//7 8//8
f  9//9 11//9 12//9
f  11//9 9//9 10//10
f  12//11 13//11 14//11
f  13//11 12//11 11//12
f  14//13 15//13 16//13
f  15//13 14//13 13//14
f  17//15 15//15 18//15
f  15//15 17//15 16//16
f  19//17 18//17 20//17
f  18//17 19//17 17//18
f  21//19 20//19 22//19
f  20//19 21//19 19//20
f  23//21 22//21 24//21
f  22//21 23//21 21//21
f  23//22 25//22 26//22
f  25//22 23//22 24//23
f  27//24 25//24 28//24
f  25//24 27//24 26//25
f  29//26 28//26 30//26
f  28//26 29//26 27//27
f  29//28 4//28 1//28
f  4//28 29//28 30//28
f  21//29 17//29 19//29
f  17//29 21//29 23//29
f  3//29 8//29 1//29
f  8//29 3//29 6//29
f  17//29 14//29 16//29
f  14//29 17//29 23//29
f  14//29 23//29 26//29
f  14//29 26//29 27//29
f  14//29 27//29 29//29
f  14//29 29//29 8//29
f  8//29 29//29 1//29
f  14//29 8//29 9//29
f  14//29 9//29 12//29
f  22//30 25//30 24//30
f  28//31 4//31 30//31
f  4//31 28//31 25//30
f  4//31 25//30 2//32
f  2//32 25//30 22//30
f  2//32 22//30 20//33
f  2//32 20//33 18//34
f  2//32 18//34 15//35
f  2//32 15//35 5//36
f  5//36 15//35 7//37
f  7//37 15//35 13//38
f  7//37 13//38 10//39
f  10//39 13//38 11//40

