# {"id":"BLDG_0003000e002ca620","idOriginal":"BLDG_0003000e002ca620","origin":[13.358274437925552,52.50487508207359],"elevation":30.06}
# Longitude: 13.358274437925552
# Latitude: 52.50487508207359
# Elevation: 30.06

# File produced by Open Asset Import Library (http://www.assimp.sf.net)
# (assimp v3.1.0)

mtllib BLDG_0003000e002ca620.obj.mtl

# 44 vertex positions
v  -0.528787 -1.71821e-15 28.0605
v  10.9704 -1.73173e-15 28.2814
v  -0.387166 -1.25803e-15 20.5453
v  11.112 -1.27143e-15 20.764
v  -0.268453 -8.72295e-16 14.2457
v  -0.103874 -3.37521e-16 5.51214
v  15.7732 -1.27686e-15 20.8526
v  20.1172 5.93763e-16 -9.69689
v  0 -5.34058e-07 -3.27016e-23
v  0.171327 5.567e-16 -9.0916
v  11.7414 7.73501e-16 -12.6322
v  0.31352 1.01873e-15 -16.6371
v  11.1122 9.94 20.7637
v  11.1122 8.44 20.7637
v  10.9705 8.94 28.2811
v  11.1121 5.36 20.7638
v  11.3956 11.94 5.73048
v  11.3955 9.96216 5.73055
v  11.231 10.44 14.4641
v  11.3954 5.36 5.73069
v  11.2309 8.44 14.4641
v  11.2308 5.36 14.4642
v  11.6708 13.94 -8.87332
v  11.6708 12.84 -8.87328
v  11.4994 12.44 0.218326
v  11.6706 5.36 -8.87305
v  11.4993 5.36 0.21855
v  11.4994 9.96216 0.218404
v  11.7416 12.84 -12.6326
v  11.7415 5.36 -12.6324
v  -0.268273 8.44 14.2454
v  -0.386986 8.44 20.545
v  -0.386954 9.94 20.5449
v  -0.528597 8.94 28.0602
v  0.000212248 9.96216 -0.00031471
v  -0.103662 9.96216 5.51183
v  -0.103619 11.94 5.51176
v  -0.26823 10.44 14.2453
v  0.313793 12.84 -16.6376
v  0.171601 12.84 -9.092
v  0.171624 13.94 -9.09204
v  0.000265039 12.44 -0.00039298
v  20.1173 5.36 -9.69706
v  15.7734 5.36 20.8525

# 0 UV coordinates

# 63 vertex normals
vn -9.03244e-24 1 6.12323e-17
vn 5.50975e-24 1 6.12323e-17
vn 5.84434e-24 1 6.12323e-17
vn 8.43118e-24 1 6.12323e-17
vn 6.6082e-24 1 6.12323e-17
vn 0 1 6.12323e-17
vn -7.39206e-08 1 -9.82805e-08
vn 1.78365e-09 1 5.87755e-08
vn -1.66431e-24 1 6.12323e-17
vn -4.87929e-24 1 6.12323e-17
vn -0.999822 2.04021e-05 -0.0188411
vn -0.999822 2.07659e-05 -0.0188412
vn -0.999822 2.07504e-05 -0.0188412
vn -0.999822 2.07323e-05 -0.0188411
vn -0.999822 2.06171e-05 -0.0188412
vn -0.999822 2.07448e-05 -0.0188412
vn -0.999822 2.08609e-05 -0.0188413
vn -0.999822 2.07659e-05 -0.0188412
vn -0.999822 2.10825e-05 -0.0188411
vn -0.999823 2.06924e-05 -0.0188412
vn -0.999822 2.06836e-05 -0.0188412
vn -0.0185609 -3.11908e-05 -0.999828
vn -0.999822 2.05368e-05 -0.0188411
vn -0.999822 2.06924e-05 -0.0188413
vn 0.999822 -2.07067e-05 0.0188412
vn 0.999822 -2.07056e-05 0.0188412
vn 0.999822 -2.0696e-05 0.0188412
vn 0.999822 -2.07096e-05 0.0188411
vn 0.999822 -2.07164e-05 0.0188412
vn 0.999822 -2.06924e-05 0.0188412
vn 0.999822 -2.07075e-05 0.0188412
vn 0.999822 -2.07119e-05 0.0188412
vn 0.999823 -2.0705e-05 0.0188412
vn 0.999823 -2.07064e-05 0.0188412
vn 0.999822 -2.0706e-05 0.0188412
vn 0.999822 -2.07168e-05 0.0188412
vn 0.999822 -2.07063e-05 0.0188412
vn -0.330732 3.67818e-05 0.943725
vn -0.330731 3.69497e-05 0.943725
vn -0.330731 3.68817e-05 0.943725
vn -0.330731 3.69062e-05 0.943725
vn -0.990041 1.66798e-05 -0.140777
vn -0.990041 1.67049e-05 -0.140777
vn 0.0190171 -3.20708e-05 -0.999819
vn -0.019017 3.16108e-05 0.999819
vn -0.019017 3.16177e-05 0.999819
vn 0.019017 -3.19875e-05 -0.999819
vn 0.019017 -3.20005e-05 -0.999819
vn -0.019017 3.19822e-05 0.999819
vn -0.019017 3.19805e-05 0.999819
vn 0.0190169 -3.18708e-05 -0.999819
vn 0.0190169 -3.18736e-05 -0.999819
vn -0.0190168 3.21884e-05 0.999819
vn -0.019017 3.09111e-05 0.999819
vn 0.0192027 -3.19792e-05 -0.999816
vn 0.0192026 -3.2193e-05 -0.999816
vn 0 -1 0
vn 0.00309517 -0.986666 -0.162728
vn 0.00309516 -0.986666 -0.162728
vn 0.00321849 -0.985574 -0.169213
vn 0.00321849 -0.985574 -0.169213
vn 0.00250789 -0.991266 -0.131852
vn 0.00253166 -0.991271 -0.131815

# Mesh 'defaultobject' with 84 faces
g defaultobject
usemtl DefaultMaterial
f  1//1 2//1 3//1
f  4//2 3//1 2//1
f  5//3 3//1 4//2
f  6//4 5//3 4//2
f  7//5 6//4 4//2
f  8//6 6//4 7//5
f  9//7 6//4 8//6
f  10//8 9//7 8//6
f  11//9 10//8 8//6
f  12//10 10//8 11//9
f  13//11 14//11 15//11
f  16//12 15//11 14//11
f  4//13 15//11 16//12
f  2//14 15//11 4//13
f  17//15 18//15 19//15
f  20//16 19//15 18//15
f  21//17 19//15 20//16
f  22//18 21//17 20//16
f  14//11 21//17 22//18
f  16//12 14//11 22//18
f  23//19 24//19 25//19
f  26//20 25//19 24//19
f  27//21 25//19 26//20
f  28//22 25//22 27//22
f  18//15 28//23 27//21
f  20//16 18//15 27//21
f  29//24 30//24 24//19
f  26//20 24//19 30//24
f  5//25 31//25 3//25
f  32//25 3//25 31//25
f  1//26 3//25 32//25
f  33//27 1//26 32//25
f  34//28 1//26 33//27
f  6//29 35//29 5//25
f  36//30 5//25 35//29
f  37//31 5//25 36//30
f  31//25 5//25 37//31
f  38//32 31//25 37//31
f  12//33 39//33 10//33
f  40//34 10//33 39//33
f  9//35 10//33 40//34
f  41//36 9//35 40//34
f  35//29 9//35 41//36
f  42//37 35//29 41//36
f  6//29 9//35 35//29
f  43//38 30//38 8//38
f  11//39 8//38 30//38
f  29//40 39//40 30//38
f  11//39 30//38 39//40
f  12//41 11//39 39//40
f  7//42 44//42 8//42
f  43//43 8//42 44//42
f  4//44 16//44 7//44
f  44//44 7//44 16//44
f  40//45 24//45 41//45
f  23//46 41//45 24//45
f  35//47 42//47 28//47
f  25//48 28//47 42//47
f  36//49 18//49 37//49
f  17//50 37//49 18//49
f  31//51 38//51 21//51
f  19//52 21//51 38//51
f  32//53 14//53 33//53
f  13//54 33//53 14//53
f  1//55 34//55 2//55
f  15//56 2//55 34//55
f  30//57 43//57 26//57
f  27//57 26//57 43//57
f  20//57 27//57 43//57
f  22//57 20//57 43//57
f  16//57 22//57 43//57
f  44//57 16//57 43//57
f  39//57 29//57 40//57
f  24//57 40//57 29//57
f  41//58 23//58 42//58
f  25//59 42//58 23//58
f  35//57 28//57 36//57
f  18//57 36//57 28//57
f  37//60 17//60 38//60
f  19//61 38//60 17//60
f  31//57 21//57 32//57
f  14//57 32//57 21//57
f  33//62 13//62 34//62
f  15//63 34//63 13//63

