# {"id":"BLDG_0003000000189a47","idOriginal":"BLDG_0003000000189a47","origin":[13.396760486853614,52.52628680625773],"elevation":35.9199981689453}
# Longitude: 13.396760486853614
# Latitude: 52.52628680625773
# Elevation: 35.9199981689453

# File produced by Open Asset Import Library (http://www.assimp.sf.net)
# (assimp v3.1.0)

mtllib BLDG_0003000000189a47.obj.mtl

# 24 vertex positions
v  16.3986 13.1443 5.75752
v  4.89631 13.5469 -1.31806
v  7.15033 13.1443 8.24645
v  14.2441 13.5469 -3.83377
v  2.25432 13.5469 9.56407
v  0.000289349 13.5469 -0.00042854
v  21.9477 13.5469 4.26413
v  17.4324 13.1443 10.3596
v  23.025 13.1443 9.05978
v  8.15639 13.1443 12.5154
v  3.22022 13.1443 13.6627
v  19.7932 13.5469 -5.32715
v  19.7929 3.26167e-16 -5.32672
v  14.2438 2.34724e-16 -3.83334
v  21.9474 -2.61129e-16 4.26456
v  4.89602 8.06815e-17 -1.31763
v  16.3984 -3.52572e-16 5.75794
v  7.15005 -5.04975e-16 8.24687
v  0 0 0
v  2.25403 -5.85656e-16 9.56449
v  23.0247 -5.54777e-16 9.0602
v  17.4321 -6.34366e-16 10.36
v  8.15611 -7.66375e-16 12.5159
v  3.21994 -8.36623e-16 13.6631

# 0 UV coordinates

# 37 vertex normals
vn 0.0106447 0.999161 0.0395534
vn 0.0106447 0.999161 0.0395534
vn 0.0770908 0.996859 -0.0181677
vn 0.0106447 0.999161 0.0395534
vn 0.0184832 0.996661 0.0795272
vn -0.0682559 0.99755 0.0153325
vn 0.0770908 0.996859 -0.0181678
vn 0.021548 0.99546 0.0927141
vn 0.0106447 0.999161 0.0395534
vn -0.0682559 0.99755 0.0153325
vn -0.259876 -2.49963e-05 -0.965642
vn -0.259876 -2.50316e-05 -0.965642
vn 0.975686 -2.78289e-05 -0.219171
vn 0.975686 -2.76857e-05 -0.219171
vn -0.259876 -2.50042e-05 -0.965642
vn 0.259876 2.49843e-05 0.965642
vn 0.259876 2.49995e-05 0.965642
vn -0.973336 2.80465e-05 0.229383
vn -0.973336 2.80457e-05 0.229383
vn -0.259876 -2.49962e-05 -0.965642
vn 0.975686 -2.7744e-05 -0.219171
vn 0.22638 2.59872e-05 0.974039
vn -0.975686 2.77455e-05 0.219171
vn 0.973336 -2.80891e-05 -0.229383
vn 0.973336 -2.80478e-05 -0.229383
vn 0.22638 2.59852e-05 0.974039
vn 0.22638 2.59637e-05 0.974039
vn -0.973336 2.80361e-05 0.229383
vn 7.50383e-24 -1 -6.12323e-17
vn 7.50383e-24 -1 -6.12323e-17
vn 4.45442e-24 -1 -6.12323e-17
vn 0 -1 -6.12323e-17
vn 8.5047e-24 -1 -6.12323e-17
vn 0 -1 -6.12323e-17
vn 0 -1 -6.12323e-17
vn 7.1454e-24 -1 -6.12323e-17
vn 2.48082e-24 -1 -6.12323e-17

# Mesh 'defaultobject' with 44 faces
g defaultobject
usemtl DefaultMaterial
f  1//1 2//1 3//1
f  2//1 1//1 4//2
f  5//3 3//3 6//3
f  6//4 3//1 2//1
f  7//5 8//5 9//5
f  8//6 7//6 1//6
f  3//3 5//3 10//7
f  10//8 5//8 11//8
f  1//1 12//9 4//2
f  12//10 1//6 7//6
f  4//11 13//11 14//11
f  13//11 4//11 12//12
f  13//13 7//13 15//13
f  7//13 13//13 12//14
f  2//15 14//11 16//15
f  14//11 2//15 4//11
f  17//16 3//16 18//16
f  3//16 17//16 1//17
f  5//18 19//18 20//18
f  19//18 5//18 6//19
f  6//20 16//15 19//20
f  16//15 6//20 2//15
f  15//13 9//21 21//21
f  9//21 15//13 7//13
f  21//22 8//22 22//22
f  8//22 21//22 9//22
f  8//23 17//23 22//23
f  17//23 8//23 1//23
f  18//24 10//24 23//24
f  10//24 18//24 3//25
f  23//26 11//26 24//26
f  11//26 23//26 10//27
f  11//28 20//18 24//28
f  20//18 11//28 5//18
f  14//29 15//29 17//29
f  15//29 14//29 13//30
f  17//29 16//31 14//29
f  16//31 17//29 18//32
f  19//33 18//32 20//33
f  18//32 19//33 16//31
f  21//34 17//29 15//29
f  17//29 21//34 22//35
f  23//36 20//33 18//32
f  20//33 23//36 24//37

