# {"id":"BLDG_00030008003837ec","idOriginal":"BLDG_00030008003837ec","origin":[13.347170522888726,52.55386181640029],"elevation":35.8699989318848}
# Longitude: 13.347170522888726
# Latitude: 52.55386181640029
# Elevation: 35.8699989318848

# File produced by Open Asset Import Library (http://www.assimp.sf.net)
# (assimp v3.1.0)

mtllib BLDG_00030008003837ec.obj.mtl

# 8 vertex positions
v  3.50926 2.53684 3.56246
v  0 0 0
v  3.50921 -2.18143e-16 3.56254
v  5.4018e-05 2.53684 -8.04001e-05
v  14.6919 4.94619e-16 -8.07774
v  14.6919 2.53684 -8.07782
v  11.0271 7.18638e-16 -11.7362
v  11.0271 2.53684 -11.7363

# 0 UV coordinates

# 10 vertex normals
vn -0.712419 3.74248e-05 0.701754
vn -0.712419 3.74105e-05 0.701754
vn 0.721139 6.7074e-06 0.69279
vn 0.721139 6.33477e-06 0.69279
vn 0.706494 -3.74595e-05 -0.707719
vn -0.728783 -6.18334e-06 -0.684745
vn -0.728783 -6.00657e-06 -0.684745
vn 0 1 0
vn 1.31222e-24 -1 -6.12323e-17
vn 5.08094e-24 -1 -6.12323e-17

# Mesh 'defaultobject' with 12 faces
g defaultobject
usemtl DefaultMaterial
f  1//1 2//1 3//1
f  2//1 1//1 4//2
f  5//3 1//3 3//3
f  1//3 5//3 6//4
f  7//5 6//5 5//5
f  6//5 7//5 8//5
f  4//6 7//6 2//6
f  7//6 4//6 8//7
f  4//8 6//8 8//8
f  6//8 4//8 1//8
f  2//9 5//9 3//9
f  5//9 2//9 7//10

