# {"id":"BLDG_00030009000dca06","idOriginal":"BLDG_00030009000dca06","origin":[13.392480993425625,52.55798903660702],"elevation":41.6599998474121}
# Longitude: 13.392480993425625
# Latitude: 52.55798903660702
# Elevation: 41.6599998474121

# File produced by Open Asset Import Library (http://www.assimp.sf.net)
# (assimp v3.1.0)

mtllib BLDG_00030009000dca06.obj.mtl

# 8 vertex positions
v  0.00027615 12.9315 -0.000409939
v  1.69502 2.09622e-16 -3.42338
v  0 0 0
v  1.6953 12.9315 -3.42379
v  16.9736 -2.43359e-16 3.97436
v  16.9738 12.9315 3.97395
v  15.2788 12.9315 7.39733
v  15.2785 -4.52981e-16 7.39774

# 0 UV coordinates

# 10 vertex normals
vn -0.896166 5.0712e-06 -0.443719
vn -0.896166 5.07857e-06 -0.443719
vn 0.435795 -3.78337e-05 -0.900046
vn 0.435795 -3.78458e-05 -0.900046
vn 0.896166 -5.0967e-06 0.44372
vn 0.896166 -5.10635e-06 0.44372
vn -0.435795 3.78836e-05 0.900046
vn -0 1 0
vn 0 -1 -6.12323e-17
vn -3.26568e-24 -1 -6.12323e-17

# Mesh 'defaultobject' with 12 faces
g defaultobject
usemtl DefaultMaterial
f  1//1 2//1 3//1
f  2//1 1//1 4//2
f  4//3 5//3 2//3
f  5//3 4//3 6//4
f  5//5 7//5 8//5
f  7//5 5//5 6//6
f  8//7 1//7 3//7
f  1//7 8//7 7//7
f  1//8 6//8 4//8
f  6//8 1//8 7//8
f  2//9 8//9 3//9
f  8//9 2//9 5//10

