# {"id":"BLDG_00030009007e0f0a","idOriginal":"BLDG_00030009007e0f0a","origin":[13.397167467082232,52.54401696416574],"elevation":45.7700004577637}
# Longitude: 13.397167467082232
# Latitude: 52.54401696416574
# Elevation: 45.7700004577637

# File produced by Open Asset Import Library (http://www.assimp.sf.net)
# (assimp v3.1.0)

mtllib BLDG_00030009007e0f0a.obj.mtl

# 20 vertex positions
v  22.2968 16.0905 -8.42346
v  22.5886 16.0905 -7.72997
v  25.0799 16.0905 -9.5934
v  32.8681 16.0905 -12.053
v  4.838 16.0905 11.5036
v  37.0744 16.0905 -2.05076
v  25.3707 16.0905 -8.89993
v  8.7127 16.0905 -1.89554
v  8.08608 16.0905 -3.38335
v  0.000343701 16.0905 -0.000509599
v  25.0795 5.87395e-16 -9.59289
v  22.2965 5.15757e-16 -8.42295
v  22.5883 4.73293e-16 -7.72946
v  8.71235 1.16037e-16 -1.89503
v  8.08573 2.07139e-16 -3.38284
v  0 0 0
v  4.83766 -7.04423e-16 11.5041
v  37.074 1.25541e-16 -2.05025
v  32.8677 7.38001e-16 -12.0525
v  25.3703 5.44932e-16 -8.89942

# 0 UV coordinates

# 25 vertex normals
vn -0 1 0
vn -0.387531 -2.09079e-05 -0.921857
vn -0.921729 3.19418e-05 0.387835
vn -0.387601 -2.09191e-05 -0.921827
vn -0.387601 -2.09055e-05 -0.921827
vn 0.921597 -3.20096e-05 -0.388148
vn 0.921597 -3.19545e-05 -0.388148
vn -0.385955 -2.09727e-05 -0.922518
vn -0.385955 -2.09532e-05 -0.922518
vn -0.921812 3.19646e-05 0.387637
vn -0.921812 3.19671e-05 0.387637
vn 0.387599 2.08807e-05 0.921828
vn 0.387599 2.08264e-05 0.921828
vn 0.921805 -3.19652e-05 -0.387654
vn 0.921805 -3.19433e-05 -0.387654
vn -0.387665 -2.09119e-05 -0.9218
vn -0.387665 -2.09579e-05 -0.9218
vn 0.922213 -3.19155e-05 -0.386683
vn 0.922214 -3.20473e-05 -0.38668
vn 2.33069e-23 -1 -6.12323e-17
vn 0 -1 -6.12323e-17
vn 5.98148e-23 -1 -6.12323e-17
vn -4.46486e-24 -1 -6.12324e-17
vn -6.46643e-24 -1 -6.12323e-17
vn 0 -1 -6.12323e-17

# Mesh 'defaultobject' with 36 faces
g defaultobject
usemtl DefaultMaterial
f  1//1 2//1 3//1
f  4//1 5//1 6//1
f  5//1 4//1 7//1
f  5//1 7//1 3//1
f  5//1 3//1 2//1
f  5//1 2//1 8//1
f  5//1 8//1 9//1
f  5//1 9//1 10//1
f  1//2 11//2 12//2
f  11//2 1//2 3//2
f  2//3 12//3 13//3
f  12//3 2//3 1//3
f  8//4 13//4 14//4
f  13//4 8//4 2//5
f  8//6 15//6 9//6
f  15//6 8//6 14//7
f  10//8 15//8 16//8
f  15//8 10//8 9//9
f  5//10 16//10 17//10
f  16//10 5//10 10//11
f  5//12 18//12 6//12
f  18//12 5//12 17//13
f  6//14 19//14 4//14
f  19//14 6//14 18//15
f  7//16 19//16 20//16
f  19//16 7//16 4//17
f  7//18 11//18 3//18
f  11//18 7//18 20//19
f  11//20 13//20 12//20
f  15//21 17//21 16//21
f  17//21 15//21 14//22
f  17//21 14//22 13//20
f  17//21 13//20 18//23
f  18//23 13//20 20//24
f  20//24 13//20 11//20
f  18//23 20//24 19//25

