# {"id":"BLDG_0003000800115a26","idOriginal":"BLDG_0003000800115a26","origin":[13.350118676750327,52.50727374492226],"elevation":35.1300010681152}
# Longitude: 13.350118676750327
# Latitude: 52.50727374492226
# Elevation: 35.1300010681152

# File produced by Open Asset Import Library (http://www.assimp.sf.net)
# (assimp v3.1.0)

mtllib BLDG_0003000800115a26.obj.mtl

# 34 vertex positions
v  18.796 -6.43148e-16 10.5034
v  26.2722 -1.06812e-06 0.87262
v  21.8864 -1.06812e-06 12.2304
v  12.8138 -4.38454e-16 7.1605
v  8.03895 -1.06812e-06 4.49226
v  4.0606 -1.06812e-06 2.26911
v  0 -1.06812e-06 -6.54032e-23
v  23.78 3.18448e-17 -0.520065
v  9.04461 5.3605e-16 -8.75436
v  4.98401 -1.06812e-06 -11.0235
v  4.061 18.84 2.26852
v  0.000401187 18.84 -0.00059527
v  8.03935 18.84 4.49166
v  12.8142 18.8417 7.1599
v  18.7964 18.8417 10.5028
v  18.7964 18.84 10.5028
v  12.8143 22.2 7.1598
v  8.03942 22.2 4.49156
v  23.7804 22.1994 -0.520767
v  9.04501 18.84 -8.75495
v  9.04509 22.1994 -8.75506
v  23.7804 18.84 -0.520661
v  26.2726 18.84 0.872024
v  4.98441 18.84 -11.0241
v  9.66561 18.84 0.894757
v  5.68733 22.1994 -1.3285
v  5.68726 18.84 -1.32839
v  9.66568 22.2 0.894651
v  20.4226 18.8417 6.9059
v  14.4405 22.2 3.56289
v  14.4405 18.8417 3.563
v  20.4227 22.1994 6.90579
v  21.8868 18.84 12.2298
v  20.4226 18.84 6.9059

# 0 UV coordinates

# 52 vertex normals
vn -2.84277e-07 -1 -1.09774e-07
vn -4.32249e-08 -1 7.73515e-08
vn 5.86373e-08 -1 2.95374e-07
vn 0 -1 0
vn 2.70836e-08 -1 -8.15413e-07
vn 4.32249e-08 -1 -7.73515e-08
vn 2.09989e-07 -1 9.49419e-08
vn -0.487813 3.79694e-05 0.872948
vn -0.487813 3.79644e-05 0.872948
vn -0.487814 3.80042e-05 0.872948
vn -0.487813 3.79642e-05 0.872948
vn -0.487784 0 0.872964
vn -0.487813 3.7961e-05 0.872948
vn -0.487813 3.79446e-05 0.872948
vn -0.266204 -0.837975 0.476375
vn -0.38396 0.616821 0.6871
vn -0.487813 3.78868e-05 0.872948
vn 0.487814 -3.78062e-05 -0.872948
vn 0.487814 -3.79693e-05 -0.872948
vn 0.487813 -3.76717e-05 -0.872948
vn 0.487814 -3.80007e-05 -0.872948
vn 0.487814 -3.80022e-05 -0.872948
vn 0.487813 -3.7952e-05 -0.872948
vn 0.487813 -3.80225e-05 -0.872948
vn -0.487813 3.79975e-05 0.872948
vn -0.487813 3.79906e-05 0.872948
vn -0.487814 3.79579e-05 0.872948
vn -0.487813 3.80477e-05 0.872948
vn -0.911195 6.38654e-06 -0.411976
vn -0.911195 6.38455e-06 -0.411976
vn -0.487814 3.79408e-05 0.872948
vn -0.487813 3.79908e-05 0.872948
vn 0.932865 -8.54808e-06 0.360226
vn 0.932865 -8.4483e-06 0.360226
vn -0.911195 6.3748e-06 -0.411976
vn -0.911195 6.41866e-06 -0.411976
vn 0.911195 -6.12344e-06 0.411976
vn 0.911195 -6.67734e-06 0.411976
vn 0.825125 -0 0.56495
vn -0.911195 6.41751e-06 -0.411976
vn -0.911195 6.38096e-06 -0.411976
vn 0.911195 -6.36651e-06 0.411976
vn 0.911195 -6.36651e-06 0.411976
vn 0 1 0
vn 8.11955e-05 1 3.67107e-05
vn 3.65483e-05 1 -6.54036e-05
vn 3.65483e-05 1 -6.54036e-05
vn -0.000122092 1 -5.52011e-05
vn 0.000443674 1 0.000171325
vn -0.000895756 0.999999 -0.000868456
vn 0.000206751 1 -0.000369983
vn 0.00022246 1 0.00010058

# Mesh 'defaultobject' with 62 faces
g defaultobject
usemtl DefaultMaterial
f  1//1 2//1 3//1
f  2//1 1//1 4//2
f  2//1 4//2 5//3
f  2//1 5//3 6//4
f  2//1 6//4 7//4
f  2//1 7//4 8//5
f  8//5 7//4 9//6
f  9//6 7//4 10//7
f  7//8 11//8 12//8
f  11//8 7//8 13//9
f  13//9 7//8 14//10
f  14//10 7//8 15//11
f  15//12 7//12 16//12
f  16//13 7//8 4//13
f  16//13 4//13 1//14
f  4//15 7//15 6//15
f  4//16 6//16 5//16
f  13//9 17//17 18//17
f  17//17 13//9 14//10
f  19//18 20//18 21//18
f  20//18 19//18 9//19
f  9//19 19//18 22//20
f  9//19 22//20 8//21
f  8//21 22//20 23//22
f  8//21 23//22 2//23
f  20//18 10//24 24//24
f  10//24 20//18 9//19
f  25//25 26//25 27//25
f  26//25 25//25 28//26
f  29//27 30//27 31//27
f  30//27 29//27 32//28
f  12//29 10//29 7//29
f  10//29 12//29 24//30
f  3//31 16//13 1//14
f  16//13 3//31 33//32
f  2//33 33//33 3//33
f  33//33 2//33 23//34
f  26//35 20//35 27//35
f  20//35 26//35 21//36
f  19//37 34//37 22//37
f  34//37 19//37 32//38
f  34//39 32//39 29//39
f  18//40 25//40 13//40
f  25//40 18//40 28//41
f  31//42 17//42 14//42
f  17//42 31//42 30//43
f  24//44 27//44 20//44
f  27//44 24//44 12//44
f  27//44 12//44 13//44
f  13//9 12//8 11//8
f  13//44 25//44 27//44
f  19//45 30//45 32//45
f  30//46 19//46 21//46
f  30//46 21//46 28//47
f  30//44 28//44 18//44
f  28//48 21//48 26//48
f  18//44 17//44 30//44
f  23//49 15//49 33//49
f  15//50 23//50 34//50
f  15//51 34//51 14//51
f  34//44 23//44 22//44
f  31//52 14//52 34//52

