# {"id":"BLDG_0003000e008bef6c","idOriginal":"BLDG_0003000e008bef6c","origin":[13.344181720624183,52.53507991799767],"elevation":34.1100006103516}
# Longitude: 13.344181720624183
# Latitude: 52.53507991799767
# Elevation: 34.1100006103516

# File produced by Open Asset Import Library (http://www.assimp.sf.net)
# (assimp v3.1.0)

mtllib BLDG_0003000e008bef6c.obj.mtl

# 14 vertex positions
v  10.5623 -2.44601e-16 3.99464
v  0.818989 4.25757 5.15483
v  0.818899 -3.15651e-16 5.15497
v  10.5624 4.25757 3.99451
v  8.42314 6.80418e-16 -11.1121
v  8.42323 4.25757 -11.1122
v  2.20089 4.25757 -10.2334
v  2.2008 6.26605e-16 -10.2332
v  0.894827 4.25757 -10.0245
v  0.894736 6.13813e-16 -10.0243
v  1.92619 4.25757 -2.32354
v  1.9261 1.42267e-16 -2.3234
v  9.0635e-05 4.25757 -0.00013477
v  0 0 0

# 0 UV coordinates

# 16 vertex normals
vn 0.118253 2.89461e-05 0.992984
vn 0.990123 -2.5545e-05 -0.140203
vn 0.990123 -2.54863e-05 -0.140203
vn -0.139851 -2.82969e-05 -0.990172
vn -0.157935 -2.78261e-05 -0.98745
vn -0.991151 2.52985e-05 0.132741
vn -0.991151 2.52836e-05 0.132742
vn -0.76986 -3.81333e-06 -0.638213
vn -0.76986 -3.84608e-06 -0.638213
vn -0.987616 2.60025e-05 0.156889
vn -0.987616 2.59905e-05 0.156889
vn 0 -1 -6.12323e-17
vn 0 -1 -6.12323e-17
vn -5.37479e-24 -1 -6.12323e-17
vn 9.79584e-23 -1 -6.12316e-17
vn 0 1 0

# Mesh 'defaultobject' with 24 faces
g defaultobject
usemtl DefaultMaterial
f  1//1 2//1 3//1
f  2//1 1//1 4//1
f  5//2 4//2 1//2
f  4//2 5//2 6//3
f  7//4 5//4 8//4
f  5//4 7//4 6//4
f  9//5 8//5 10//5
f  8//5 9//5 7//5
f  11//6 10//6 12//6
f  10//6 11//6 9//7
f  13//8 12//8 14//8
f  12//8 13//8 11//9
f  2//10 14//10 3//10
f  14//10 2//10 13//11
f  3//12 14//12 1//12
f  12//13 1//12 14//12
f  5//12 1//12 12//13
f  10//14 5//12 12//13
f  8//15 5//12 10//14
f  2//16 11//16 13//16
f  11//16 7//16 9//16
f  7//16 11//16 6//16
f  6//16 11//16 2//16
f  6//16 2//16 4//16

