# {"id":"BLDG_00030009007ea249","idOriginal":"BLDG_00030009007ea249","origin":[13.377358531540892,52.554867447016],"elevation":39.3499984741211}
# Longitude: 13.377358531540892
# Latitude: 52.554867447016
# Elevation: 39.3499984741211

# File produced by Open Asset Import Library (http://www.assimp.sf.net)
# (assimp v3.1.0)

mtllib BLDG_00030009007ea249.obj.mtl

# 10 vertex positions
v  6.37807 22.1361 -18.8884
v  0.000455738 21.3619 -0.000677071
v  6.16367 22.1361 0.202003
v  0.214863 21.3619 -19.0911
v  12.5413 21.3619 -18.6856
v  12.3268 21.3619 0.404732
v  0 0 0
v  12.5408 1.14412e-15 -18.685
v  12.3264 -2.48241e-17 0.405409
v  0.214407 1.16895e-15 -19.0904

# 0 UV coordinates

# 16 vertex normals
vn -0.124587 0.992208 -0.00139925
vn -0.124587 0.992208 -0.00139926
vn 0.124588 0.992208 0.00139927
vn 0.124588 0.992208 0.00139926
vn -2.2489e-25 -1 -6.12323e-17
vn -1.43929e-23 -1 -6.12323e-17
vn -0.0328717 3.23771e-05 0.99946
vn -0.0328717 3.23794e-05 0.99946
vn -0.0328717 3.23871e-05 0.99946
vn -0.999937 2.09768e-05 -0.0112305
vn -0.999937 2.09768e-05 -0.0112305
vn 0.0328717 -3.23811e-05 -0.99946
vn 0.0328719 -3.22921e-05 -0.99946
vn 0.0328719 -3.27117e-05 -0.99946
vn 0.999937 -2.0938e-05 0.0112304
vn 0.999937 -2.09824e-05 0.0112305

# Mesh 'defaultobject' with 16 faces
g defaultobject
usemtl DefaultMaterial
f  1//1 2//1 3//1
f  2//1 1//1 4//2
f  5//3 3//3 6//3
f  3//3 5//3 1//4
f  7//5 8//5 9//5
f  8//5 7//5 10//6
f  6//7 7//7 9//7
f  7//7 6//7 2//8
f  2//8 6//7 3//9
f  2//10 10//10 7//10
f  10//10 2//10 4//11
f  4//12 8//12 10//12
f  8//12 4//12 5//13
f  5//13 4//12 1//14
f  8//15 6//15 9//15
f  6//15 8//15 5//16

