# {"id":"BLDG_000300090031ee15","idOriginal":"BLDG_000300090031ee15","origin":[13.356025054224153,52.55985147491019],"elevation":40.2900009155273}
# Longitude: 13.356025054224153
# Latitude: 52.55985147491019
# Elevation: 40.2900009155273

# File produced by Open Asset Import Library (http://www.assimp.sf.net)
# (assimp v3.1.0)

mtllib BLDG_000300090031ee15.obj.mtl

# 17 vertex positions
v  27.002 13.9608 -7.33358
v  4.36095 15.3365 4.61219
v  28.4682 15.3365 -1.93489
v  2.89469 13.9608 -0.786506
v  1.46656 15.3365 5.39825
v  0.000297441 13.9608 -0.00044264
v  5.82715 13.9608 10.011
v  29.9344 13.9608 3.4639
v  2.93275 13.9608 10.797
v  28.4679 1.18448e-16 -1.9344
v  27.0017 4.49025e-16 -7.33314
v  29.9341 -2.1213e-16 3.46434
v  1.46623 -3.30577e-16 5.39874
v  2.93246 -6.61155e-16 10.7975
v  0 0 0
v  2.8944 4.81325e-17 -0.786063
v  5.82685 -6.13022e-16 10.0114

# 0 UV coordinates

# 27 vertex normals
vn -0.0625852 0.97107 -0.230448
vn -0.0625852 0.97107 -0.230448
vn -0.0625852 0.97107 -0.230448
vn -0.0625853 0.97107 -0.230448
vn 0.0625845 0.971071 0.230445
vn 0.0625845 0.971071 0.230445
vn 0.0625844 0.971071 0.230445
vn 0.0625845 0.971071 0.230445
vn 0.965043 -2.88842e-05 -0.262093
vn 0.965043 -2.88724e-05 -0.262093
vn 0.965043 -2.88798e-05 -0.262093
vn 0.965043 -2.83154e-05 -0.262093
vn -0.965043 2.88932e-05 0.262093
vn -0.965043 2.88968e-05 0.262093
vn -0.965043 2.88705e-05 0.262093
vn -0.965043 2.88111e-05 0.262093
vn -0.262088 -2.50353e-05 -0.965044
vn -0.262088 -2.50151e-05 -0.965044
vn -0.262088 -2.50151e-05 -0.965044
vn -0.262088 -2.50137e-05 -0.965044
vn 0.262088 2.50189e-05 0.965044
vn 0.262088 2.50024e-05 0.965044
vn 0.262088 2.50024e-05 0.965044
vn 0.262087 2.50683e-05 0.965044
vn -3.78821e-25 -1 -6.12323e-17
vn -1.8941e-25 -1 -6.12323e-17
vn 0 -1 -6.12323e-17

# Mesh 'defaultobject' with 30 faces
g defaultobject
usemtl DefaultMaterial
f  1//1 2//1 3//1
f  2//1 1//1 4//2
f  2//1 4//2 5//3
f  5//3 4//2 6//4
f  3//5 7//5 8//5
f  7//5 3//5 2//6
f  7//5 2//6 9//7
f  9//7 2//6 5//8
f  1//9 10//9 11//9
f  10//9 1//9 12//10
f  12//10 1//9 8//11
f  8//11 1//9 3//12
f  9//13 13//13 14//13
f  13//13 9//13 15//14
f  15//14 9//13 6//15
f  6//15 9//13 5//16
f  11//17 4//17 1//17
f  4//17 11//17 16//18
f  4//17 16//18 6//19
f  6//19 16//18 15//20
f  8//21 17//21 12//21
f  17//21 8//21 7//22
f  17//21 7//22 14//23
f  14//23 7//22 9//24
f  10//25 16//25 11//25
f  16//25 10//25 12//26
f  16//25 12//26 17//27
f  16//25 17//27 15//27
f  15//27 17//27 13//27
f  13//27 17//27 14//27

