# {"id":"BLDG_0003000a00419a5f","idOriginal":"BLDG_0003000a00419a5f","origin":[13.387080979389587,52.5234363391533],"elevation":33.4900016784668}
# Longitude: 13.387080979389587
# Latitude: 52.5234363391533
# Elevation: 33.4900016784668

# File produced by Open Asset Import Library (http://www.assimp.sf.net)
# (assimp v3.1.0)

mtllib BLDG_0003000a00419a5f.obj.mtl

# 8 vertex positions
v  29.5199 1.51789e-16 -2.47891
v  2.09637 -1.52863e-15 24.9644
v  0 0 0
v  31.6163 -1.37684e-15 22.4855
v  31.6169 25.81 22.4846
v  29.5205 25.81 -2.47972
v  2.09692 25.81 24.9635
v  0.000550931 25.81 -0.000816329

# 0 UV coordinates

# 11 vertex normals
vn -5.70667e-25 -1 -6.12323e-17
vn 0 -1 -6.12323e-17
vn 0.996493 -2.38582e-05 -0.0836801
vn 0.996493 -2.3929e-05 -0.08368
vn 0.0836794 2.97256e-05 0.996493
vn 0.0836795 2.97356e-05 0.996493
vn -0.996493 2.39174e-05 0.0836801
vn -0.996493 2.39196e-05 0.0836801
vn -0.0836794 -2.9731e-05 -0.996493
vn -0.0836794 -2.97313e-05 -0.996493
vn 0 1 0

# Mesh 'defaultobject' with 12 faces
g defaultobject
usemtl DefaultMaterial
f  1//1 2//1 3//1
f  2//1 1//1 4//2
f  1//3 5//3 4//3
f  5//3 1//3 6//4
f  4//5 7//5 2//5
f  7//5 4//5 5//6
f  3//7 7//7 8//7
f  7//7 3//7 2//8
f  1//9 8//9 6//9
f  8//9 1//9 3//10
f  7//11 6//11 8//11
f  6//11 7//11 5//11

