# {"id":"BLDG_0003000e006ab2a6","idOriginal":"BLDG_0003000e006ab2a6","origin":[13.324437162906676,52.53674894697689],"elevation":34.5200004577637}
# Longitude: 13.324437162906676
# Latitude: 52.53674894697689
# Elevation: 34.5200004577637

# File produced by Open Asset Import Library (http://www.assimp.sf.net)
# (assimp v3.1.0)

mtllib BLDG_0003000e006ab2a6.obj.mtl

# 16 vertex positions
v  0.458199 3.69112 -2.42592
v  6.03659 3.69112 -5.20835
v  0.141788 3.69112 -4.09564
v  7.66291 3.69112 -1.44721
v  7.8478e-05 3.69112 -0.00011686
v  1.31086 3.69112 2.09316
v  7.52086 3.69112 2.65014
v  1.62636 3.69112 3.76286
v  6.03651 3.18913e-16 -5.20824
v  7.66283 8.86087e-17 -1.44709
v  0.14171 2.50778e-16 -4.09552
v  0.45812 1.48537e-16 -2.4258
v  0 0 0
v  1.31079 -1.28176e-16 2.09327
v  1.62628 -2.30416e-16 3.76298
v  7.52078 -1.62281e-16 2.65025

# 0 UV coordinates

# 21 vertex normals
vn 0 1 0
vn 0.917868 -3.21567e-05 -0.396885
vn 0.917868 -3.20621e-05 -0.396885
vn -0.185487 -2.7157e-05 -0.982647
vn -0.185487 -2.72982e-05 -0.982647
vn -0.982515 2.67801e-05 0.186186
vn -0.982515 2.6784e-05 0.186186
vn -0.982631 1.50168e-05 -0.185573
vn -0.982631 1.50163e-05 -0.185573
vn -0.847545 3.48086e-05 0.530723
vn -0.847545 3.48224e-05 0.530723
vn -0.982613 2.67578e-05 0.185667
vn 0.185497 2.71782e-05 0.982645
vn 0.9994 -2.00837e-05 0.0346478
vn 0.9994 -2.02058e-05 0.0346479
vn 3.89462e-24 -1 -6.12323e-17
vn 5.75812e-24 -1 -6.12323e-17
vn -1.55794e-23 -1 -6.12323e-17
vn 2.20704e-24 -1 -6.12323e-17
vn -2.94197e-23 -1 -6.12323e-17
vn 0 -1 -6.12323e-17

# Mesh 'defaultobject' with 28 faces
g defaultobject
usemtl DefaultMaterial
f  1//1 2//1 3//1
f  2//1 1//1 4//1
f  4//1 1//1 5//1
f  4//1 5//1 6//1
f  4//1 6//1 7//1
f  7//1 6//1 8//1
f  9//2 4//2 10//2
f  4//2 9//2 2//3
f  3//4 9//4 11//4
f  9//4 3//4 2//5
f  1//6 11//6 12//6
f  11//6 1//6 3//7
f  5//8 12//8 13//8
f  12//8 5//8 1//9
f  6//10 13//10 14//10
f  13//10 6//10 5//11
f  8//12 14//12 15//12
f  14//12 8//12 6//12
f  16//13 8//13 15//13
f  8//13 16//13 7//13
f  10//14 7//14 16//14
f  7//14 10//14 4//15
f  9//16 12//16 11//16
f  12//16 9//16 14//17
f  14//17 9//16 15//18
f  15//18 9//16 16//19
f  16//19 9//16 10//20
f  14//17 13//21 12//16

