# {"id":"BLDG_0003000900323b92","idOriginal":"BLDG_0003000900323b92","origin":[13.365522340497668,52.55407353347652],"elevation":38.4500007629395}
# Longitude: 13.365522340497668
# Latitude: 52.55407353347652
# Elevation: 38.4500007629395

# File produced by Open Asset Import Library (http://www.assimp.sf.net)
# (assimp v3.1.0)

mtllib BLDG_0003000900323b92.obj.mtl

# 36 vertex positions
v  0.511854 -3.3245e-16 5.42932
v  2.65249 -5.7496e-16 9.38981
v  0.896219 -5.82218e-16 9.50835
v  0.363157 -2.35539e-16 3.84664
v  0 0 0
v  13.7842 1.13307e-16 -1.85044
v  13.8509 8.2492e-17 -1.3472
v  4.69528 6.15096e-17 -1.00453
v  3.02097 -8.97447e-16 14.6564
v  19.6746 -1.0341e-15 16.8882
v  3.29916 -1.14127e-15 18.6384
v  2.91461 -7.82152e-16 12.7735
v  4.76249 2.83679e-17 -0.463283
v  19.2601 -6.67234e-16 10.8968
v  18.3847 1.09538e-16 -1.78889
v  18.7685 -2.30601e-16 3.76599
v  20.1142 -6.60638e-16 10.789
v  19.7082 -2.26982e-16 3.70691
v  3.02113 7.43454 14.6562
v  19.2603 7.43454 10.8965
v  2.91477 7.43454 12.7733
v  19.6748 7.43454 16.888
v  3.29932 7.43454 18.6381
v  0.363315 7.43454 3.8464
v  4.76265 7.43454 -0.463518
v  0.00015849 7.43454 -0.00023562
v  13.7844 7.43454 -1.85068
v  13.8511 7.43454 -1.34743
v  18.3849 7.43454 -1.78913
v  18.7686 7.43454 3.76576
v  0.512012 7.43454 5.42908
v  0.896378 7.43454 9.50811
v  19.7084 7.43454 3.70667
v  2.65265 7.43454 9.38958
v  20.1143 7.43454 10.7888
v  4.69544 7.43454 -1.00476

# 0 UV coordinates

# 40 vertex normals
vn 5.87445e-23 -1 -6.12324e-17
vn -3.7827e-23 -1 -6.12323e-17
vn 6.23441e-23 -1 -6.12323e-17
vn 7.14569e-25 -1 -6.12323e-17
vn 8.05859e-25 -1 -6.12323e-17
vn 3.4023e-24 -1 -6.12324e-17
vn 0 -1 -6.12323e-17
vn -3.0988e-23 -1 -6.12323e-17
vn 0 -1 -6.12383e-17
vn -3.33948e-23 -1 -6.12323e-17
vn 2.22906e-24 -1 -6.12323e-17
vn 0 1 0
vn -0.995573 2.42045e-05 0.093991
vn -0.995573 2.42025e-05 0.093991
vn -0.995615 2.41882e-05 0.0935407
vn -0.995615 2.41912e-05 0.0935406
vn -0.99559 2.41963e-05 0.0938141
vn 0.0673407 3.01774e-05 0.99773
vn 0.0673407 3.01762e-05 0.99773
vn -0.997013 2.37092e-05 0.0772316
vn -0.998408 2.30789e-05 0.0563997
vn -0.997568 2.34911e-05 0.0696926
vn -0.997569 2.34822e-05 0.0696926
vn 0.106272 2.93648e-05 0.994337
vn 0.997616 -2.34359e-05 -0.0690155
vn 0.997616 -2.34306e-05 -0.0690155
vn 0.12513 2.87711e-05 0.99214
vn 0.998361 -2.30738e-05 -0.0572245
vn -0.0627512 -3.03175e-05 -0.998029
vn -0.0627509 -3.02855e-05 -0.998029
vn 0.997622 -2.34292e-05 -0.0689175
vn -0.0969637 -2.94577e-05 -0.995288
vn -0.0969637 -2.94861e-05 -0.995288
vn 0.991328 -2.54001e-05 -0.131409
vn 0.991328 -2.52727e-05 -0.131411
vn -0.0926704 -2.95745e-05 -0.995697
vn -0.992379 2.50373e-05 0.123226
vn -0.992379 2.50359e-05 0.123226
vn -0.0968203 -2.94797e-05 -0.995302
vn -0.0968203 -2.94856e-05 -0.995302

# Mesh 'defaultobject' with 68 faces
g defaultobject
usemtl DefaultMaterial
f  1//1 2//1 3//1
f  2//1 1//1 4//2
f  2//1 4//2 5//3
f  6//4 7//4 8//4
f  9//5 10//5 11//5
f  10//5 9//5 12//6
f  10//5 12//6 2//1
f  10//5 2//1 5//3
f  10//5 5//3 13//7
f  10//5 13//7 8//4
f  10//5 8//4 7//4
f  10//5 7//4 14//8
f  14//8 7//4 15//7
f  14//8 15//7 16//9
f  14//8 16//9 17//10
f  18//11 17//10 16//9
f  19//12 20//12 21//12
f  20//12 19//12 22//12
f  22//12 19//12 23//12
f  24//12 25//12 26//12
f  25//12 24//12 27//12
f  27//12 24//12 28//12
f  28//12 24//12 29//12
f  29//12 24//12 30//12
f  30//12 24//12 31//12
f  30//12 31//12 32//12
f  30//12 32//12 33//12
f  33//12 32//12 34//12
f  33//12 34//12 35//12
f  35//12 34//12 21//12
f  35//12 21//12 20//12
f  27//12 36//12 25//12
f  24//13 5//13 4//13
f  5//13 24//13 26//14
f  31//15 4//15 1//15
f  4//15 31//15 24//16
f  32//17 1//17 3//17
f  1//17 32//17 31//17
f  2//18 32//18 3//18
f  32//18 2//18 34//19
f  21//20 2//20 12//20
f  2//20 21//20 34//20
f  19//21 12//21 9//21
f  12//21 19//21 21//21
f  23//22 9//22 11//22
f  9//22 23//22 19//23
f  10//24 23//24 11//24
f  23//24 10//24 22//24
f  14//25 22//25 10//25
f  22//25 14//25 20//26
f  17//27 20//27 14//27
f  20//27 17//27 35//27
f  18//28 35//28 17//28
f  35//28 18//28 33//28
f  30//29 18//29 16//29
f  18//29 30//29 33//30
f  15//31 30//31 16//31
f  30//31 15//31 29//31
f  28//32 15//32 7//32
f  15//32 28//32 29//33
f  6//34 28//34 7//34
f  28//34 6//34 27//35
f  36//36 6//36 8//36
f  6//36 36//36 27//36
f  25//37 8//37 13//37
f  8//37 25//37 36//38
f  26//39 13//39 5//39
f  13//39 26//39 25//40

