# {"id":"BLDG_000300090014bd9d","idOriginal":"BLDG_000300090014bd9d","origin":[13.361285207968866,52.550056808567554],"elevation":35.939998626709}
# Longitude: 13.361285207968866
# Latitude: 52.550056808567554
# Elevation: 35.939998626709

# File produced by Open Asset Import Library (http://www.assimp.sf.net)
# (assimp v3.1.0)

mtllib BLDG_000300090014bd9d.obj.mtl

# 26 vertex positions
v  0 0 0
v  13.435 3.13894e-16 -5.12627
v  4.39806 -2.69437e-16 4.40024
v  8.93219 5.76568e-16 -9.41607
v  23.5758 -7.22163e-17 1.17938
v  21.8972 -1.79751e-16 2.93556
v  27.7445 1.94841e-16 -3.18199
v  10.6041 6.84491e-16 -11.1786
v  14.7563 9.52513e-16 -15.5557
v  30.8738 3.95307e-16 -6.45586
v  22.376 8.91028e-16 -14.5516
v  17.8732 1.1537e-15 -18.8414
v  30.8741 16.21 -6.45637
v  19.2596 19.6 -11.2665
v  27.7449 19.6 -3.18261
v  22.3763 16.21 -14.5521
v  14.7567 19.6 -15.5563
v  17.8735 16.21 -18.8419
v  15.1074 19 -6.88939
v  23.5762 19 1.17878
v  10.6045 19 -11.1792
v  13.4354 16.21 -5.12679
v  21.8976 16.21 2.93505
v  8.9326 19.3433 -9.41668
v  0.000412246 19.3433 -0.000612901
v  4.3984 16.21 4.39972

# 0 UV coordinates

# 43 vertex normals
vn 0 -1 -6.12323e-17
vn -5.24698e-24 -1 -6.12323e-17
vn 0 -1 -6.12324e-17
vn 0 -1 -6.12323e-17
vn -9.71812e-24 -1 -6.12323e-17
vn 3.91315e-24 -1 -6.12323e-17
vn -2.60651e-24 -1 -6.12323e-17
vn -7.96772e-24 -1 -6.12323e-17
vn -1.78561e-23 -1 -6.12323e-17
vn 0.413354 0.800554 -0.433881
vn 0.413354 0.800553 -0.433882
vn 0.413354 0.800553 -0.433882
vn 0.413354 0.800553 -0.433881
vn -0.0682606 0.995091 0.0716505
vn -0.0682605 0.995091 0.0716502
vn -0.0682604 0.995091 0.0716503
vn -0.0682604 0.995091 0.0716503
vn -0.520193 0.656701 0.546025
vn -0.520193 0.6567 0.546026
vn -0.520193 0.6567 0.546026
vn 0.410188 0.885922 0.216534
vn 0.326433 0.893058 0.309658
vn 0.326433 0.893058 0.309658
vn -0.689772 3.76284e-05 0.724027
vn 0.725502 6.34432e-06 0.68822
vn -0.707282 3.74805e-05 0.706932
vn -0.707282 3.7473e-05 0.706932
vn -0.725502 -6.33862e-06 -0.68822
vn -0.725502 -5.99256e-06 -0.68822
vn -0.725502 -6.34456e-06 -0.68822
vn -0.725502 -6.30994e-06 -0.68822
vn -0.725502 -6.39332e-06 -0.68822
vn -0.725502 -6.2994e-06 -0.68822
vn -0.725502 -6.2485e-06 -0.68822
vn 0.722893 6.33864e-06 0.69096
vn 0.722893 6.52515e-06 0.69096
vn 0.722893 6.49479e-06 0.69096
vn 0.722893 6.33942e-06 0.69096
vn 0.722893 6.55296e-06 0.69096
vn 0.722893 6.49623e-06 0.69096
vn 0.689772 -3.76284e-05 -0.724027
vn 0.689772 -3.7499e-05 -0.724026
vn 0.689772 -3.76883e-05 -0.724027

# Mesh 'defaultobject' with 48 faces
g defaultobject
usemtl DefaultMaterial
f  1//1 2//1 3//1
f  2//1 1//1 4//2
f  2//1 5//3 6//3
f  5//3 2//1 7//4
f  7//4 2//1 4//2
f  7//4 4//2 8//5
f  7//4 8//5 9//6
f  7//4 9//6 10//7
f  10//7 9//6 11//8
f  11//8 9//6 12//9
f  13//10 14//10 15//10
f  14//10 13//10 16//11
f  14//10 16//11 17//12
f  17//12 16//11 18//13
f  15//14 19//14 20//14
f  19//14 15//14 14//15
f  19//14 14//15 21//16
f  21//16 14//15 17//17
f  20//18 22//18 23//18
f  22//18 20//18 19//19
f  22//18 19//19 21//20
f  21//21 24//21 22//21
f  22//22 25//22 26//22
f  25//22 22//22 24//23
f  23//24 2//24 6//24
f  2//24 23//24 22//24
f  2//25 26//25 3//25
f  26//25 2//25 22//25
f  26//26 1//26 3//26
f  1//26 26//26 25//27
f  18//28 21//28 17//28
f  21//28 25//29 24//29
f  25//29 21//28 1//30
f  1//30 21//28 18//28
f  1//30 18//28 4//31
f  4//31 18//28 8//32
f  8//32 18//28 9//33
f  9//33 18//28 12//34
f  20//35 13//35 15//35
f  13//35 20//35 23//36
f  13//35 23//36 10//37
f  10//37 23//36 7//38
f  7//38 23//36 5//39
f  5//39 23//36 6//40
f  10//41 16//41 13//41
f  16//41 10//41 18//42
f  18//42 10//41 12//43
f  12//9 10//7 11//8

