# {"id":"BLDG_0003000f00414237","idOriginal":"BLDG_0003000f00414237","origin":[13.385428210243003,52.55307705959277],"elevation":39.9500007629395}
# Longitude: 13.385428210243003
# Latitude: 52.55307705959277
# Elevation: 39.9500007629395

# File produced by Open Asset Import Library (http://www.assimp.sf.net)
# (assimp v3.1.0)

mtllib BLDG_0003000f00414237.obj.mtl

# 26 vertex positions
v  4.1737 3.01973e-16 -4.93159
v  16.1694 -1.48989e-17 0.243317
v  12.9106 -2.50675e-16 4.09383
v  7.43248 5.37749e-16 -8.78211
v  0 0 0
v  8.64805 -5.59076e-16 9.13041
v  2.06256 4.35512e-16 -7.11245
v  5.77777 6.42416e-16 -10.4915
v  8.5426 20.9539 -0.41954
v  9.63412 20.3737 0.708049
v  6.62768 19.936 -2.39764
v  4.1741 18.6318 -4.93218
v  7.43265 7.9534 -8.78236
v  4.17387 7.9534 -4.93184
v  7.43287 18.6318 -8.7827
v  16.1698 18.6318 0.242726
v  11.8014 20.9539 -4.27006
v  12.911 18.6318 4.09324
v  8.64845 18.6318 9.12982
v  0.000397697 18.6318 -0.00059046
v  6.81668 20.581 7.19578
v  0.837216 19.7021 0.882845
v  11.0583 20.581 2.17925
v  5.02048 19.7021 -4.0579
v  2.06273 7.9534 -7.1127
v  5.77794 7.9534 -10.4917

# 0 UV coordinates

# 36 vertex normals
vn -6.71679e-24 -1 -6.12323e-17
vn -3.3584e-24 -1 -6.12323e-17
vn -2.56753e-24 -1 -6.12323e-17
vn -1.73732e-24 -1 -6.12323e-17
vn 5.54139e-24 -1 -6.12323e-17
vn 0.718498 -3.67172e-05 -0.695529
vn -0.763323 -4.1887e-06 -0.646016
vn 0.718498 -3.73727e-05 -0.695529
vn 0.718498 -3.73409e-05 -0.695529
vn 0.718498 -3.76653e-05 -0.695529
vn 0.763324 4.20082e-06 0.646016
vn 0.763324 4.21097e-06 0.646016
vn -0.726025 3.72843e-05 0.687669
vn -0.726025 3.72899e-05 0.687669
vn -0.726025 3.73494e-05 0.687669
vn -0.726025 3.73425e-05 0.687669
vn -0.763324 -4.1797e-06 -0.646016
vn 0.718498 -3.69428e-05 -0.695529
vn 0.718498 -3.72617e-05 -0.695529
vn 0.763324 4.17349e-06 0.646016
vn -0.718498 3.73527e-05 0.695529
vn -0.718498 3.73944e-05 0.695529
vn -0.672841 -9.10198e-06 -0.739788
vn -0.67284 -9.05762e-06 -0.739788
vn 0.718498 -3.73599e-05 -0.695529
vn -0.265847 0.937392 -0.224992
vn -0.265847 0.937392 -0.224992
vn 0.265846 0.937393 0.224991
vn 0.265846 0.937393 0.224991
vn -0.505737 0.748915 -0.428201
vn -0.50551 0.749284 -0.427824
vn -0.0772665 0.994868 -0.0653311
vn -0.0772559 0.994863 -0.0654116
vn 0.452541 0.805308 0.382995
vn 0.452396 0.805619 0.382514
vn 0 1 -0

# Mesh 'defaultobject' with 42 faces
g defaultobject
usemtl DefaultMaterial
f  1//1 2//1 3//1
f  2//1 1//1 4//2
f  5//3 3//1 6//3
f  3//1 5//3 1//1
f  7//4 4//2 1//1
f  4//2 7//4 8//5
f  9//6 10//6 11//6
f  12//7 13//7 14//7
f  13//7 12//7 15//7
f  15//8 2//8 4//8
f  2//8 15//8 16//9
f  16//9 15//8 17//10
f  2//11 18//11 3//11
f  18//11 2//11 16//12
f  19//13 5//13 6//13
f  5//13 19//13 20//14
f  20//14 19//13 21//15
f  20//14 21//15 22//16
f  20//17 1//17 5//17
f  1//17 20//17 12//7
f  18//18 10//6 23//18
f  11//6 12//19 24//19
f  3//11 19//20 6//20
f  19//20 3//11 18//11
f  14//21 7//21 1//21
f  7//21 14//21 25//22
f  25//23 8//23 7//23
f  8//23 25//23 26//24
f  8//25 13//25 4//8
f  13//25 8//25 26//25
f  17//26 12//26 9//26
f  12//26 17//26 15//27
f  16//28 9//28 18//28
f  9//28 16//28 17//29
f  24//30 20//30 22//30
f  20//31 24//31 12//31
f  23//32 22//32 21//32
f  22//33 23//33 24//33
f  18//34 21//34 19//34
f  21//35 18//35 23//35
f  26//36 14//36 13//36
f  14//36 26//36 25//36

