# {"id":"BLDG_0003000e006e4a95","idOriginal":"BLDG_0003000e006e4a95","origin":[13.385978893027566,52.55750234494298],"elevation":40.4700012207031}
# Longitude: 13.385978893027566
# Latitude: 52.55750234494298
# Elevation: 40.4700012207031

# File produced by Open Asset Import Library (http://www.assimp.sf.net)
# (assimp v3.1.0)

mtllib BLDG_0003000e006e4a95.obj.mtl

# 10 vertex positions
v  0.000380451 17.823 -0.00056499
v  19.376 21.4037 2.94538
v  2.62215 21.4037 -5.55989
v  16.7542 17.823 8.5047
v  21.9976 17.823 -2.61372
v  5.24377 17.823 -11.119
v  16.7538 -5.20797e-16 8.50527
v  21.9972 1.60009e-16 -2.61315
v  0 0 0
v  5.24339 6.80807e-16 -11.1184

# 0 UV coordinates

# 14 vertex normals
vn -0.227931 0.863981 0.448982
vn -0.227931 0.863981 0.448982
vn 0.227938 0.863971 -0.448997
vn 0.904468 -5.84133e-06 0.426542
vn 0.904468 -5.82421e-06 0.426542
vn 0.904468 -5.50328e-06 0.426542
vn -0.45267 3.79102e-05 0.891678
vn -0.45267 3.80013e-05 0.891678
vn -0.904468 5.78542e-06 -0.426542
vn -0.904468 5.77582e-06 -0.426542
vn -0.904468 5.80661e-06 -0.426542
vn 0.45267 -3.79575e-05 -0.891678
vn 0.45267 -3.7946e-05 -0.891678
vn -4.58604e-25 -1 -6.12323e-17

# Mesh 'defaultobject' with 16 faces
g defaultobject
usemtl DefaultMaterial
f  1//1 2//1 3//1
f  2//1 1//1 4//2
f  3//3 5//3 6//3
f  5//3 3//3 2//3
f  5//4 7//4 8//4
f  7//4 5//4 4//5
f  4//5 5//4 2//6
f  7//7 1//7 9//7
f  1//7 7//7 4//8
f  1//9 10//9 9//9
f  10//9 1//9 6//10
f  6//10 1//9 3//11
f  6//12 8//12 10//12
f  8//12 6//12 5//13
f  9//14 8//14 7//14
f  8//14 9//14 10//14

