# {"id":"BLDG_0003000f002ffbc0","idOriginal":"BLDG_0003000f002ffbc0","origin":[13.349098270121482,52.54716773372824],"elevation":35.7099990844727}
# Longitude: 13.349098270121482
# Latitude: 52.54716773372824
# Elevation: 35.7099990844727

# File produced by Open Asset Import Library (http://www.assimp.sf.net)
# (assimp v3.1.0)

mtllib BLDG_0003000f002ffbc0.obj.mtl

# 60 vertex positions
v  3.38473 20.3237 4.17578
v  5.31732 20.32 6.56071
v  5.31732 20.3237 6.56071
v  25.5568 21.19 31.5374
v  31.8508 18.4683 39.3047
v  29.6919 21.75 36.6404
v  31.8504 -2.40675e-15 39.3053
v  23.7126 21.1564 29.2616
v  13.5909 21.1564 16.7707
v  13.5909 20.3237 16.7707
v  11.7026 20.3237 14.4405
v  9.54469 20.3237 11.7775
v  9.54469 20.32 11.7775
v  0.0004328 20.3237 -0.000643849
v  0 0 0
v  29.6915 -2.24362e-15 36.641
v  25.5564 -1.93115e-15 31.5381
v  23.7122 -1.7918e-15 29.2622
v  13.5904 -1.02695e-15 16.7714
v  11.7022 -8.84266e-16 14.4412
v  9.54426 -7.21205e-16 11.7782
v  5.31689 -4.01767e-16 6.56136
v  3.3843 -2.55732e-16 4.17642
v  24.3208 17.9644 4.28396
v  22.1631 20.32 1.62081
v  22.1631 20.3237 1.62081
v  16.0034 17.9644 -5.98113
v  16.003 3.66203e-16 -5.98056
v  24.3204 -2.62352e-16 4.28453
v  17.9355 2.20163e-16 -3.59554
v  22.1626 -9.92857e-17 1.62146
v  17.9359 20.32 -3.59619
v  17.9359 20.3237 -3.59619
v  44.443 18.4683 29.1181
v  38.1494 21.19 21.3506
v  42.2843 21.75 26.4537
v  36.3053 18.4683 19.0747
v  36.3049 -1.16803e-15 19.0753
v  44.4426 -1.78301e-15 29.1187
v  38.149 -1.30739e-15 21.3513
v  42.2838 -1.61986e-15 26.4544
v  16.5344 17.9644 10.5513
v  18.4223 -7.88803e-16 12.8821
v  16.534 -6.46117e-16 10.5519
v  28.5345 -1.55293e-15 25.3612
v  18.4227 17.9644 12.8816
v  28.5349 18.4683 25.3606
v  18.4227 18.4683 12.8815
v  36.6727 -2.16788e-15 35.4042
v  36.6731 18.4683 35.4036
v  8.21657 17.9644 0.286596
v  8.21618 -1.75838e-17 0.287165
v  4.90385 2.32711e-16 -3.80046
v  4.90423 17.9644 -3.80102
v  10.1492 20.3237 2.67145
v  14.3766 20.3237 7.88828
v  30.3792 21.19 27.6364
v  34.5143 21.75 32.7393
v  14.3766 20.32 7.88828
v  10.1492 20.32 2.67145

# 0 UV coordinates

# 93 vertex normals
vn -0.776937 0 0.629578
vn -0.776937 3.62384e-05 0.629578
vn -0.776937 3.65059e-05 0.629578
vn -0.776937 3.63092e-05 0.629578
vn -0.776937 3.64722e-05 0.629578
vn -0.776937 3.66452e-05 0.629579
vn -0.776937 3.7048e-05 0.629578
vn -0.776937 3.59235e-05 0.629578
vn -0.776944 0 0.629569
vn -0.776937 3.66818e-05 0.629579
vn -0.776937 3.72777e-05 0.629578
vn -0.776937 3.57551e-05 0.629578
vn -0.776937 3.64485e-05 0.629578
vn -5.55112e-17 -1 -1.85037e-17
vn 1.55431e-16 1 -5.55112e-17
vn -3.01346e-16 -1 1.90324e-16
vn 0 0 1
vn 7.40149e-17 -1 -1.11022e-16
vn 1.11022e-16 1 -4.44089e-17
vn -0.8 0 0.6
vn 1.66533e-16 1 -8.32667e-17
vn 0.776989 0 -0.629514
vn 0.776964 -3.66492e-05 -0.629545
vn 0.776964 -3.65333e-05 -0.629545
vn 0.776964 -3.64848e-05 -0.629545
vn 1.11022e-17 1 5.55112e-17
vn 5.55112e-17 1 5.55112e-17
vn 0.776965 -4.0129e-05 -0.629543
vn 0.776964 -3.62384e-05 -0.629545
vn 0.776964 -3.71098e-05 -0.629546
vn 0.776964 -3.64903e-05 -0.629545
vn 0.776964 -3.65923e-05 -0.629545
vn -0.759257 0 0.650791
vn -4.16334e-17 1 9.71445e-17
vn 0.776937 -3.65337e-05 -0.629578
vn 0.776937 -3.65021e-05 -0.629578
vn 0.776937 -3.65329e-05 -0.629579
vn 0.776937 -3.6571e-05 -0.629578
vn 0.776937 -3.48752e-05 -0.629578
vn 0.628931 1.10594e-05 0.777461
vn 0.628931 1.10392e-05 0.777461
vn 0.628931 1.11244e-05 0.777461
vn 0 1 0
vn -0.627027 -1.13303e-05 -0.778998
vn -0.627027 -1.13073e-05 -0.778998
vn 0.627027 1.13021e-05 0.778998
vn 0.627027 1.12809e-05 0.778998
vn -0.628931 -1.12047e-05 -0.777461
vn -0.628931 -1.12696e-05 -0.777461
vn -0.612569 -1.19953e-05 -0.790417
vn -0.612569 -1.19998e-05 -0.790417
vn 0.776937 -3.64763e-05 -0.629578
vn -0.627028 -1.28141e-05 -0.778997
vn -0.627027 -1.1448e-05 -0.778997
vn -0.382113 0.79286 -0.474724
vn -0.382113 0.79286 -0.474725
vn -0.382113 0.79286 -0.474725
vn 0.276225 0.934665 -0.223834
vn 0.276225 0.934665 -0.223834
vn 0.355528 0.823714 0.441696
vn 0.355528 0.823714 0.441696
vn 0.355528 0.823714 0.441696
vn 0.276225 0.934665 -0.223834
vn 0.276225 0.934665 -0.223834
vn 0.308947 0.917538 -0.25035
vn 0.308947 0.917538 -0.25035
vn 0.302315 0.917484 -0.258511
vn -0.428099 0.732584 -0.5292
vn -0.428099 0.732584 -0.5292
vn -0.428099 0.732584 -0.5292
vn -0.0534297 0.996385 -0.0660477
vn -0.0534297 0.996385 -0.0660477
vn -0.0534297 0.996385 -0.0660477
vn -0.0534296 0.996385 -0.0660477
vn 0.434842 0.722473 0.537536
vn 0.434843 0.722473 0.537536
vn 0.434843 0.722473 0.537536
vn 0.434843 0.722473 0.537536
vn 0 -1 -6.12323e-17
vn -3.8926e-23 -1 -6.12323e-17
vn 3.05065e-23 -1 -6.12323e-17
vn 2.5956e-23 -1 -6.12323e-17
vn 1.62991e-23 -1 -6.12323e-17
vn -5.52132e-23 -1 -6.12323e-17
vn 1.26207e-23 -1 -6.12323e-17
vn 0 -1 -6.12323e-17
vn 0 -1 -6.12324e-17
vn 2.55063e-23 -1 -6.12324e-17
vn -2.62253e-23 -1 -6.12323e-17
vn -4.22575e-23 -1 -6.12323e-17
vn 5.78676e-23 -1 -6.12323e-17
vn 2.58081e-23 -1 -6.12323e-17
vn -1.2358e-23 -1 -6.12324e-17

# Mesh 'defaultobject' with 108 faces
g defaultobject
usemtl DefaultMaterial
f  1//1 2//1 3//1
f  4//2 5//2 6//2
f  5//2 4//2 7//3
f  7//3 4//2 8//4
f  7//3 8//4 9//5
f  7//3 9//5 10//6
f  7//3 10//6 11//7
f  7//3 11//7 12//8
f  7//9 12//9 13//9
f  7//3 13//10 2//10
f  7//3 2//10 1//11
f  7//3 1//11 14//12
f  7//3 14//12 15//13
f  7//14 15//14 16//14
f  16//15 15//15 17//15
f  17//16 15//14 18//16
f  18//17 15//17 19//17
f  19//18 15//14 20//18
f  20//19 15//15 21//19
f  21//20 15//20 22//20
f  22//21 15//15 23//21
f  24//22 25//22 26//22
f  25//23 24//23 27//23
f  27//23 24//23 28//24
f  28//24 24//23 29//25
f  28//26 29//26 30//26
f  30//26 29//26 31//27
f  32//28 27//23 33//28
f  27//23 32//28 25//23
f  34//29 35//29 36//29
f  35//29 34//29 37//30
f  37//30 34//29 38//31
f  38//31 34//29 39//32
f  38//33 39//33 40//33
f  40//34 39//34 41//34
f  42//35 43//35 44//35
f  43//35 42//35 45//36
f  45//36 42//35 46//37
f  45//36 46//37 47//38
f  47//38 46//37 48//39
f  34//40 49//40 39//40
f  49//40 34//40 7//41
f  7//41 34//40 5//42
f  5//43 34//43 50//43
f  51//44 28//44 52//44
f  28//44 51//44 27//45
f  29//46 42//46 44//46
f  42//46 29//46 24//47
f  47//48 38//48 45//48
f  38//48 47//48 37//49
f  14//50 53//50 15//50
f  53//50 14//50 54//51
f  53//52 51//52 52//52
f  51//52 53//52 54//52
f  10//53 48//53 46//53
f  48//53 10//53 9//54
f  27//55 55//55 33//55
f  55//55 27//55 51//56
f  55//55 51//56 3//57
f  14//58 51//58 54//58
f  51//58 14//58 3//59
f  3//43 14//43 1//43
f  26//60 42//60 24//60
f  42//60 26//60 56//61
f  42//60 56//61 12//62
f  11//63 42//63 12//63
f  42//63 11//63 10//63
f  42//63 10//63 46//64
f  9//65 47//65 48//65
f  47//65 9//65 8//66
f  47//67 8//67 4//67
f  37//68 57//68 35//68
f  57//68 37//68 47//69
f  57//68 47//69 4//70
f  35//71 58//71 36//71
f  58//71 35//71 57//72
f  58//71 57//72 6//73
f  6//73 57//72 4//74
f  36//75 50//75 34//75
f  50//75 36//75 58//76
f  50//75 58//76 5//77
f  5//77 58//76 6//78
f  32//43 59//43 25//43
f  59//43 32//43 60//43
f  59//43 60//43 13//43
f  13//43 60//43 2//43
f  53//79 23//79 15//14
f  23//79 53//79 22//80
f  22//80 53//79 21//81
f  21//81 53//79 52//82
f  21//81 52//82 20//18
f  20//18 52//82 28//79
f  20//18 28//79 19//18
f  19//18 28//79 44//83
f  44//83 28//79 30//84
f  44//83 30//84 31//85
f  44//83 31//85 29//86
f  44//83 18//16 19//18
f  18//16 44//83 43//87
f  18//16 43//87 45//88
f  18//16 45//88 17//16
f  17//16 45//88 16//14
f  16//14 45//88 7//14
f  7//14 45//88 38//89
f  7//14 38//89 49//90
f  49//90 38//89 40//91
f  49//90 40//91 41//92
f  49//90 41//92 39//93

