# {"id":"BLDG_000300080027279a","idOriginal":"BLDG_000300080027279a","origin":[13.362360034139826,52.559904750078736],"elevation":40}
# Longitude: 13.362360034139826
# Latitude: 52.559904750078736
# Elevation: 40

# File produced by Open Asset Import Library (http://www.assimp.sf.net)
# (assimp v3.1.0)

mtllib BLDG_000300080027279a.obj.mtl

# 30 vertex positions
v  5.26941 9.62905e-17 -1.57254
v  0.0866794 -1.76184e-17 0.287731
v  0 0 0
v  1.27229 -2.59805e-16 4.24294
v  2.5784 -5.26629e-16 8.60051
v  7.01873 1.28287e-16 -2.09508
v  11.5369 2.10888e-16 -3.44406
v  3.41849 -6.98428e-16 11.4062
v  5.07237 -1.03625e-15 16.9232
v  14.7515 -4.46522e-16 7.29226
v  6.24301 -1.27555e-15 20.8313
v  6.31249 -1.28959e-15 21.0606
v  14.9887 -1.13604e-15 18.5529
v  15.5663 -6.13219e-16 10.0146
v  17.865 -1.08337e-15 17.6928
v  0.0869714 13.6974 0.287296
v  5.2697 13.6974 -1.57298
v  0.000291947 13.6974 -0.00043429
v  7.01902 13.6974 -2.09551
v  11.5372 13.6974 -3.44449
v  14.7517 13.6974 7.29183
v  1.27258 13.6974 4.24251
v  2.57869 13.6974 8.60007
v  3.41878 13.6974 11.4058
v  15.5666 13.6974 10.0142
v  5.07267 13.6974 16.9228
v  17.8653 13.6974 17.6924
v  6.2433 13.6974 20.8309
v  6.31279 13.6974 21.0602
v  14.989 13.6974 18.5525

# 0 UV coordinates

# 40 vertex normals
vn 0 -1 -6.12323e-17
vn 2.33169e-24 -1 -6.12323e-17
vn -1.69316e-23 -1 -6.12323e-17
vn 2.58403e-23 -1 -6.12323e-17
vn -2.00082e-23 -1 -6.12324e-17
vn 6.00679e-24 -1 -6.12323e-17
vn 0 -1 -6.12323e-17
vn 1.25601e-23 -1 -6.12323e-17
vn 4.3127e-24 -1 -6.12323e-17
vn -1.51049e-22 -1 -6.12324e-17
vn 2.15431e-24 -1 -6.12323e-17
vn -4.96537e-23 -1 -6.12323e-17
vn 1.98014e-23 -1 -6.12323e-17
vn 0 1 0
vn -0.957496 2.95532e-05 0.288447
vn -0.957496 2.95537e-05 0.288447
vn -0.95789 2.95225e-05 0.287135
vn -0.95789 2.952e-05 0.287135
vn -0.957896 2.95037e-05 0.287115
vn -0.957896 2.9522e-05 0.287115
vn -0.957979 2.94967e-05 0.28684
vn -0.957885 2.9518e-05 0.287153
vn -0.957885 2.95046e-05 0.287153
vn -0.957947 2.94794e-05 0.286946
vn -0.957947 2.95128e-05 0.286946
vn -0.957017 2.96308e-05 0.290031
vn -0.957016 2.95572e-05 0.290035
vn 0.277663 2.45615e-05 0.960678
vn 0.277663 2.45769e-05 0.960678
vn 0.286498 2.43109e-05 0.958081
vn 0.957988 -2.9518e-05 -0.286807
vn 0.957988 -2.95006e-05 -0.286807
vn 0.958009 -2.94933e-05 -0.286737
vn 0.958009 -2.95055e-05 -0.286737
vn 0.957981 -2.94968e-05 -0.286831
vn -0.28609 -2.42933e-05 -0.958203
vn -0.286213 -2.42712e-05 -0.958166
vn -0.286213 -2.42895e-05 -0.958166
vn -0.285966 -2.42869e-05 -0.95824
vn -0.285966 -2.42788e-05 -0.95824

# Mesh 'defaultobject' with 56 faces
g defaultobject
usemtl DefaultMaterial
f  1//1 2//1 3//1
f  2//1 1//1 4//2
f  4//2 1//1 5//3
f  5//3 1//1 6//4
f  5//3 6//4 7//5
f  5//3 7//5 8//6
f  8//6 7//5 9//7
f  9//7 7//5 10//8
f  9//7 10//8 11//9
f  11//9 10//8 12//10
f  12//10 10//8 13//11
f  13//11 10//8 14//12
f  13//11 14//12 15//13
f  16//14 17//14 18//14
f  17//14 16//14 19//14
f  19//14 16//14 20//14
f  20//14 16//14 21//14
f  21//14 16//14 22//14
f  21//14 22//14 23//14
f  21//14 23//14 24//14
f  21//14 24//14 25//14
f  25//14 24//14 26//14
f  25//14 26//14 27//14
f  27//14 26//14 28//14
f  27//14 28//14 29//14
f  27//14 29//14 30//14
f  16//15 3//15 2//15
f  3//15 16//15 18//16
f  22//17 2//17 4//17
f  2//17 22//17 16//18
f  23//19 4//19 5//19
f  4//19 23//19 22//20
f  24//21 5//21 8//21
f  5//21 24//21 23//21
f  26//22 8//22 9//22
f  8//22 26//22 24//23
f  28//24 9//24 11//24
f  9//24 28//24 26//25
f  29//26 11//26 12//26
f  11//26 29//26 28//27
f  13//28 29//28 12//28
f  29//28 13//28 30//29
f  15//30 30//30 13//30
f  30//30 15//30 27//30
f  14//31 27//31 15//31
f  27//31 14//31 25//32
f  10//33 25//33 14//33
f  25//33 10//33 21//34
f  7//35 21//35 10//35
f  21//35 7//35 20//35
f  19//36 7//36 6//36
f  7//36 19//36 20//36
f  17//37 6//37 1//37
f  6//37 17//37 19//38
f  18//39 1//39 3//39
f  1//39 18//39 17//40

