# {"id":"BLDG_000300090014bcb4","idOriginal":"BLDG_000300090014bcb4","origin":[13.362879417668182,52.550825490286826],"elevation":36.33}
# Longitude: 13.362879417668182
# Latitude: 52.550825490286826
# Elevation: 36.33

# File produced by Open Asset Import Library (http://www.assimp.sf.net)
# (assimp v3.1.0)

mtllib BLDG_000300090014bcb4.obj.mtl

# 21 vertex positions
v  2.26538 -1.34765e-16 2.20088
v  12.1106 2.14711e-16 -3.5065
v  4.33044 -2.57612e-16 4.20713
v  0 0 0
v  10.0504 6.10149e-16 -9.96449
v  24.9718 -3.45044e-17 0.563499
v  12.4897 7.58235e-16 -12.3829
v  22.5309 -1.8249e-16 2.98029
v  20.3994 -3.11716e-16 5.09071
v  0.000426712 20.02 -0.000634381
v  2.26581 20.02 2.20025
v  10.0509 20.02 -9.96512
v  10.1128 20.02 -5.57967
v  12.2429 20.02 -7.69153
v  12.4902 20.02 -12.3836
v  14.2411 20.02 -5.61899
v  22.5313 20.02 2.97965
v  24.9722 20.02 0.562865
v  12.111 18.31 -3.50708
v  20.3998 18.31 5.09013
v  4.33083 18.31 4.20655

# 0 UV coordinates

# 28 vertex normals
vn 0 -1 -6.12323e-17
vn 0 -1 -6.12323e-17
vn 2.47861e-24 -1 -6.12323e-17
vn -2.83583e-24 -1 -6.12323e-17
vn 1.18243e-23 -1 -6.12323e-17
vn -0 1 0
vn -0.35656 0.868727 0.343771
vn -0.35656 0.868727 0.343771
vn -0.35656 0.868727 0.343771
vn 0.359576 0.85975 0.362678
vn 0.359576 0.85975 0.362678
vn 0.359576 0.85975 0.362678
vn -0.704064 -7.49574e-06 -0.710137
vn -0.704063 -7.35004e-06 -0.710137
vn -0.704064 -7.50386e-06 -0.710137
vn 0 -1 0
vn 0.703592 7.50153e-06 0.710604
vn 0.703592 7.58335e-06 0.710604
vn 0.703592 7.49658e-06 0.710604
vn 0.703592 8.28048e-06 0.710604
vn -0.696822 3.75798e-05 0.717245
vn -0.696822 3.75773e-05 0.717245
vn -0.696822 3.75763e-05 0.717245
vn 0.7199 -3.73383e-05 -0.694078
vn 0.7199 -3.72535e-05 -0.694078
vn -0.7199 3.73712e-05 0.694078
vn -0.7199 3.73247e-05 0.694078
vn 0.704064 7.4924e-06 0.710137

# Mesh 'defaultobject' with 38 faces
g defaultobject
usemtl DefaultMaterial
f  1//1 2//1 3//1
f  2//1 1//1 4//2
f  2//1 4//2 5//3
f  2//1 5//3 6//4
f  6//4 5//3 7//2
f  2//1 8//5 9//5
f  8//5 2//1 6//4
f  10//6 11//6 12//6
f  13//6 12//6 11//6
f  14//6 12//6 13//6
f  15//6 12//6 14//6
f  16//6 15//6 14//6
f  17//6 15//6 16//6
f  18//6 15//6 17//6
f  17//7 19//7 20//7
f  19//7 17//7 16//8
f  19//7 16//8 14//9
f  13//10 19//10 14//10
f  19//10 13//10 11//11
f  19//10 11//11 21//12
f  10//13 5//13 4//13
f  5//13 10//13 7//14
f  7//14 10//13 15//15
f  15//16 10//16 12//16
f  18//17 8//17 6//17
f  8//17 18//17 9//18
f  9//18 18//17 20//19
f  20//19 18//17 17//20
f  4//21 11//21 10//21
f  11//21 4//21 21//22
f  21//22 4//21 3//23
f  3//1 4//13 1//1
f  7//24 18//24 6//24
f  18//24 7//24 15//25
f  20//26 2//26 9//26
f  2//26 20//26 19//27
f  2//28 21//28 3//28
f  21//28 2//28 19//28

