# {"id":"BLDG_0003000a0011238a","idOriginal":"BLDG_0003000a0011238a","origin":[13.380844027984704,52.544747340346056],"elevation":45.2700004577637}
# Longitude: 13.380844027984704
# Latitude: 52.544747340346056
# Elevation: 45.2700004577637

# File produced by Open Asset Import Library (http://www.assimp.sf.net)
# (assimp v3.1.0)

mtllib BLDG_0003000a0011238a.obj.mtl

# 19 vertex positions
v  9.02139 3.19043e-16 -5.21037
v  9.23735 -9.3378e-17 1.52498
v  5.8906 5.31849e-17 -0.868576
v  12.3727 1.72279e-16 -2.81354
v  5.54825 4.71141e-16 -7.69431
v  2.41745 2.05283e-16 -3.35252
v  3.46356 -1.52912e-16 2.49724
v  0 0 0
v  9.02146 3.07186 -5.21046
v  9.23742 3.07186 1.52488
v  12.3728 3.07186 -2.81363
v  5.89067 3.07186 -0.868673
v  5.54831 3.17317 -7.69442
v  2.41752 3.07186 -3.35262
v  9.02146 3.17317 -5.21047
v  6.5548e-05 3.07186 -9.72999e-05
v  5.89067 3.17317 -0.868676
v  2.41752 3.17317 -3.35263
v  3.46363 3.17317 2.49714

# 0 UV coordinates

# 25 vertex normals
vn 0 -1 -6.12323e-17
vn 9.60147e-24 -1 -6.12323e-17
vn 9.26472e-24 -1 -6.12323e-17
vn 9.26472e-24 -1 -6.12323e-17
vn 5.99928e-24 -1 -6.12323e-17
vn 0 1 0
vn -0.0110078 0.999821 0.0153914
vn -0.0110078 0.999821 0.0153914
vn -0.0142542 0.9997 0.0199307
vn -0.0192389 0.999719 -0.0138729
vn -0.581723 3.82183e-05 0.813387
vn 0.581723 -3.8202e-05 -0.813387
vn 0.581723 -3.79759e-05 -0.813387
vn 0.810502 1.15996e-06 0.585737
vn 0.581723 -3.81487e-05 -0.813387
vn 0.811117 -3.63611e-06 0.584884
vn -0.811117 -1.20885e-06 -0.584884
vn -0.811117 -1.237e-06 -0.584884
vn -0.811117 -1.21816e-06 -0.584884
vn -0.811117 -1.19306e-06 -0.584884
vn 0.581723 -3.52738e-05 -0.813387
vn 0.581723 -3.74784e-05 -0.813387
vn 0.811117 1.30368e-06 0.584884
vn -0.584841 3.8199e-05 0.811148
vn -0.584841 3.81722e-05 0.811148

# Mesh 'defaultobject' with 31 faces
g defaultobject
usemtl DefaultMaterial
f  1//1 2//1 3//1
f  2//1 1//1 4//2
f  3//1 5//3 1//1
f  5//3 3//1 6//4
f  6//4 7//5 8//5
f  7//5 6//4 3//1
f  9//6 10//6 11//6
f  10//6 9//6 12//6
f  12//7 13//7 14//7
f  13//7 12//7 15//8
f  16//9 17//9 18//9
f  17//10 16//10 19//10
f  10//11 3//11 2//11
f  3//11 10//11 12//11
f  1//12 11//12 4//12
f  11//12 1//12 9//13
f  4//14 10//14 2//14
f  10//14 4//14 11//14
f  5//15 15//15 1//12
f  15//15 5//15 13//15
f  15//16 12//16 9//16
f  14//17 5//17 6//17
f  5//17 14//17 13//18
f  16//19 6//17 8//19
f  6//17 16//19 18//20
f  14//21 17//21 12//21
f  17//21 14//21 18//22
f  3//23 19//23 7//23
f  19//23 3//23 17//23
f  19//24 8//24 7//24
f  8//24 19//24 16//25

