# {"id":"BLDG_000300000026fa1a","idOriginal":"BLDG_000300000026fa1a","origin":[13.327760708886592,52.52885131224669],"elevation":33.939998626709}
# Longitude: 13.327760708886592
# Latitude: 52.52885131224669
# Elevation: 33.939998626709

# File produced by Open Asset Import Library (http://www.assimp.sf.net)
# (assimp v3.1.0)

mtllib BLDG_000300000026fa1a.obj.mtl

# 10 vertex positions
v  2.08409 5.98926e-19 -0.0097812
v  5.10641 3.04264e-16 -4.969
v  5.1173 1.47486e-18 -0.0240862
v  0 0 0
v  0.931783 3.04904e-16 -4.97947
v  2.08414 2.17299 -0.00984996
v  0.931829 2.17299 -4.97954
v  4.621e-05 2.17299 -6.87595e-05
v  5.10646 2.17299 -4.96907
v  5.11735 2.17299 -0.024155

# 0 UV coordinates

# 14 vertex normals
vn 0 -1 -6.12323e-17
vn 0 -1 -6.12323e-17
vn -1.68044e-24 -1 -6.12323e-17
vn 0 1 0
vn 0.00469322 3.15425e-05 0.999989
vn 0.00469322 3.15433e-05 0.999989
vn 0.00471608 3.15428e-05 0.999989
vn 0.00471608 3.15422e-05 0.999989
vn 0.999998 -2.13555e-05 -0.00220187
vn 0.999998 -2.13551e-05 -0.00220187
vn 0.00250661 -3.16523e-05 -0.999997
vn 0.00250661 -3.16524e-05 -0.999997
vn -0.982939 1.50827e-05 -0.183932
vn -0.982939 1.50833e-05 -0.183932

# Mesh 'defaultobject' with 16 faces
g defaultobject
usemtl DefaultMaterial
f  1//1 2//1 3//1
f  2//1 1//1 4//2
f  2//1 4//2 5//3
f  6//4 7//4 8//4
f  7//4 6//4 9//4
f  9//4 6//4 10//4
f  1//5 8//5 4//5
f  8//5 1//5 6//6
f  3//7 6//7 1//7
f  6//7 3//7 10//8
f  2//9 10//9 3//9
f  10//9 2//9 9//10
f  7//11 2//11 5//11
f  2//11 7//11 9//12
f  8//13 5//13 4//13
f  5//13 8//13 7//14

