# {"id":"BLDG_00030000001f410f","idOriginal":"BLDG_00030000001f410f","origin":[13.374755616117753,52.55350225582228],"elevation":38.8899993896484}
# Longitude: 13.374755616117753
# Latitude: 52.55350225582228
# Elevation: 38.8899993896484

# File produced by Open Asset Import Library (http://www.assimp.sf.net)
# (assimp v3.1.0)

mtllib BLDG_00030000001f410f.obj.mtl

# 8 vertex positions
v  8.37139 5.30574e-16 -8.66493
v  5.99919 20.9435 1.41452
v  5.99874 -8.66552e-17 1.41519
v  8.37184 20.9435 -8.6656
v  0.00040502 18.9878 -0.00060177
v  0 0 0
v  2.37265 6.17229e-16 -10.0801
v  2.37305 18.9878 -10.0807

# 0 UV coordinates

# 12 vertex normals
vn 0.973399 -1.34994e-05 0.229118
vn 0.973399 -1.34818e-05 0.229118
vn -0.229611 3.57415e-05 0.973283
vn -0.229611 3.57434e-05 0.973282
vn -0.973399 1.35018e-05 -0.229118
vn -0.973399 1.34923e-05 -0.229118
vn 0.229611 -3.57411e-05 -0.973283
vn 0.229611 -3.57392e-05 -0.973283
vn 8.29439e-25 -1 -6.12323e-17
vn 3.31775e-24 -1 -6.12323e-17
vn -0.294398 0.953167 -0.0692951
vn -0.294398 0.953167 -0.0692951

# Mesh 'defaultobject' with 12 faces
g defaultobject
usemtl DefaultMaterial
f  1//1 2//1 3//1
f  2//1 1//1 4//2
f  3//3 5//3 6//3
f  5//3 3//3 2//4
f  5//5 7//5 6//5
f  7//5 5//5 8//6
f  8//7 1//7 7//7
f  1//7 8//7 4//8
f  6//9 1//9 3//9
f  1//9 6//9 7//10
f  5//11 4//11 8//11
f  4//11 5//11 2//12

