# {"id":"BLDG_0003000e005308b0","idOriginal":"BLDG_0003000e005308b0","origin":[13.348782925285985,52.543128991546666],"elevation":35.1500015258789}
# Longitude: 13.348782925285985
# Latitude: 52.543128991546666
# Elevation: 35.1500015258789

# File produced by Open Asset Import Library (http://www.assimp.sf.net)
# (assimp v3.1.0)

mtllib BLDG_0003000e005308b0.obj.mtl

# 26 vertex positions
v  2.02938 12.34 2.70202
v  0 0 0
v  2.02911 -1.65475e-16 2.70241
v  0.000262777 12.34 -0.00039082
v  4.12471 -6.40136e-17 1.04542
v  4.12497 12.34 1.04503
v  4.16651 -6.19451e-17 1.01164
v  4.16677 12.34 1.01125
v  11.4512 14.26 -18.9698
v  14.9197 0.0199966 -14.6239
v  11.4509 0.0199966 -18.9693
v  18.3884 0.0199966 -10.2785
v  18.3887 14.26 -10.279
v  14.9201 20.19 -14.6246
v  9.11866 14.26 -17.0843
v  -2.64128 14.26 -7.57854
v  9.11835 0.0199985 -17.0839
v  -2.64158 0.0199985 -7.57809
v  16.0559 0.0199985 -8.39308
v  4.29593 0.0199985 1.1127
v  4.29624 14.26 1.11225
v  16.0562 14.26 -8.39353
v  2.09215 1.0018e-16 -1.63606
v  2.09241 12.34 -1.63645
v  12.5875 20.19 -12.7391
v  5.15459 20.19 -6.73092

# 0 UV coordinates

# 38 vertex normals
vn -0.799672 3.60401e-05 0.600437
vn -0.799672 3.60452e-05 0.600437
vn 0.620237 1.16292e-05 0.784414
vn 0.628522 1.12481e-05 0.777792
vn 0.628523 1.12554e-05 0.777791
vn 0.781531 -3.64485e-05 -0.623866
vn 0.781531 -3.64482e-05 -0.623866
vn 0.781531 -3.64068e-05 -0.623866
vn 0.781531 -3.63e-05 -0.623866
vn -0.628632 -1.12998e-05 -0.777703
vn -0.628632 -1.12229e-05 -0.777703
vn -0.628632 -1.10752e-05 -0.777703
vn -0.628632 -1.12478e-05 -0.777703
vn 0.628632 1.12478e-05 0.777703
vn 0.628632 1.12672e-05 0.777703
vn 0.628632 1.12413e-05 0.777703
vn 0 -1 0
vn -0.781531 3.64015e-05 0.623866
vn -0.781531 3.64068e-05 0.623866
vn 0.78718 -3.63034e-05 -0.616723
vn -0.616012 -1.18306e-05 -0.787737
vn -0.616012 -1.18369e-05 -0.787737
vn 0 1 0
vn -0.458589 0.683978 -0.567337
vn -0.458589 0.683978 -0.567337
vn -0.458589 0.683977 -0.567337
vn 0.458584 0.683986 0.56733
vn 0.458584 0.683986 0.56733
vn 0.458584 0.683986 0.56733
vn -0.569939 0.684238 0.45496
vn -1.48155e-24 -1 -6.12323e-17
vn -1.4375e-24 -1 -6.12323e-17
vn 0 -1 -6.12291e-17
vn -4.77111e-07 -1 3.80859e-07
vn -2.07017e-07 -1 -2.56108e-07
vn -7.89704e-08 -1 6.30389e-08
vn 2.07017e-07 -1 2.56108e-07
vn -4.77111e-07 -1 3.80859e-07

# Mesh 'defaultobject' with 44 faces
g defaultobject
usemtl DefaultMaterial
f  1//1 2//1 3//1
f  2//1 1//1 4//2
f  5//3 1//3 3//3
f  1//3 5//3 6//3
f  7//4 6//4 5//4
f  6//4 7//4 8//5
f  9//6 10//6 11//6
f  10//6 9//6 12//7
f  12//7 9//6 13//8
f  13//8 9//6 14//9
f  11//10 15//10 9//10
f  15//10 11//10 16//11
f  16//11 11//10 17//12
f  16//11 17//12 18//13
f  13//14 19//14 12//14
f  19//14 13//14 20//15
f  20//15 13//14 21//16
f  21//17 13//17 22//17
f  21//18 18//18 20//18
f  18//18 21//18 16//19
f  23//20 8//20 7//20
f  8//20 23//20 24//20
f  4//21 23//21 2//21
f  23//21 4//21 24//22
f  24//23 6//23 8//23
f  6//23 24//23 1//23
f  1//23 24//23 4//23
f  9//24 25//24 14//24
f  25//24 9//24 26//25
f  26//25 9//24 16//26
f  16//17 9//17 15//17
f  14//27 22//27 13//27
f  22//27 14//27 21//28
f  21//28 14//27 26//29
f  26//17 14//17 25//17
f  16//30 21//30 26//30
f  7//31 2//31 23//31
f  2//31 7//31 3//32
f  3//32 7//31 5//33
f  10//34 17//34 11//34
f  17//34 10//34 18//35
f  18//35 10//34 20//36
f  20//36 10//34 19//37
f  19//37 10//34 12//38

