# {"id":"BLDG_0003000a000455b2","idOriginal":"BLDG_0003000a000455b2","origin":[13.376175839519187,52.55960158852913],"elevation":41.189998626709}
# Longitude: 13.376175839519187
# Latitude: 52.55960158852913
# Elevation: 41.189998626709

# File produced by Open Asset Import Library (http://www.assimp.sf.net)
# (assimp v3.1.0)

mtllib BLDG_0003000a000455b2.obj.mtl

# 8 vertex positions
v  8.81159 2.66419e-16 -4.35095
v  0 0 0
v  0.370964 3.32021e-16 -5.42231
v  8.44063 -6.56018e-17 1.07136
v  0.371147 8.61854 -5.42259
v  8.81177 8.61854 -4.35123
v  8.44077 6.95525 1.07114
v  0.000148375 6.95525 -0.000220509

# 0 UV coordinates

# 12 vertex normals
vn -5.73372e-25 -1 -6.12323e-17
vn 0 -1 -6.12323e-17
vn 0.125918 -3.41361e-05 -0.992041
vn 0.125918 -3.41391e-05 -0.992041
vn 0.997668 -1.90348e-05 0.0682546
vn 0.997668 -1.91431e-05 0.0682548
vn -0.125918 3.41486e-05 0.992041
vn -0.125918 3.41325e-05 0.992041
vn -0.997668 1.91191e-05 -0.0682547
vn -0.997668 1.91184e-05 -0.0682547
vn -0.0369046 0.956087 0.290751
vn -0.0369046 0.956087 0.290751

# Mesh 'defaultobject' with 12 faces
g defaultobject
usemtl DefaultMaterial
f  1//1 2//1 3//1
f  2//1 1//1 4//2
f  5//3 1//3 3//3
f  1//3 5//3 6//4
f  1//5 7//5 4//5
f  7//5 1//5 6//6
f  4//7 8//7 2//7
f  8//7 4//7 7//8
f  8//9 3//9 2//9
f  3//9 8//9 5//10
f  8//11 6//11 5//11
f  6//11 8//11 7//12

