# {"id":"BLDG_0003000e005e19b1","idOriginal":"BLDG_0003000e005e19b1","origin":[13.387511714386862,52.50908414464765],"elevation":35.25}
# Longitude: 13.387511714386862
# Latitude: 52.50908414464765
# Elevation: 35.25

# File produced by Open Asset Import Library (http://www.assimp.sf.net)
# (assimp v3.1.0)

mtllib BLDG_0003000e005e19b1.obj.mtl

# 72 vertex positions
v  0.377809 8.34783 1.99681
v  1.79047 8.34783 -0.239015
v  0.000178189 8.34783 -0.000263779
v  7.19582 8.34783 -3.50598
v  0.699466 8.34783 3.6959
v  8.89305 8.34783 1.94945
v  9.2156 8.34783 1.93361
v  10.4667 8.34783 2.03064
v  8.58079 8.34783 2.03444
v  8.29474 8.34783 2.18524
v  1.32164 8.34783 6.98628
v  8.04787 8.34783 2.39415
v  9.53436 8.34783 1.98819
v  9.83413 8.34783 2.11046
v  10.0998 8.34783 2.29433
v  1.96324 8.34783 10.3783
v  7.85256 8.34783 2.65164
v  7.71698 8.34783 2.94506
v  7.35742 8.34783 3.52747
v  10.4821 8.34783 8.92033
v  3.34592 8.34783 10.1675
v  4.29155 8.34783 11.3085
v  4.51065 8.34783 11.4689
v  4.75561 8.34783 11.5855
v  5.01793 8.34783 11.6552
v  5.28854 8.34783 11.6747
v  9.4904 8.34783 11.2295
v  10.642 8.34783 9.21296
v  10.7323 8.34783 9.53417
v  10.7479 8.34783 9.86708
v  10.6886 8.34783 10.1949
v  9.81244 8.34783 11.1437
v  10.557 8.34783 10.5012
v  10.1077 8.34783 10.9882
v  10.3597 8.34783 10.7703
v  7.64811 8.34783 3.26111
v  1.32146 -4.27802e-16 6.98654
v  3.34575 -6.22598e-16 10.1678
v  1.96306 -6.35506e-16 10.3786
v  0.699287 -2.26325e-16 3.69617
v  0.37763 -1.22285e-16 1.99707
v  0 0 0
v  1.79029 1.46193e-17 -0.238751
v  4.29137 -6.9246e-16 11.3087
v  7.19564 2.14663e-16 -3.50571
v  4.51047 -7.02282e-16 11.4691
v  4.75543 -7.09425e-16 11.5858
v  5.01775 -7.13692e-16 11.6555
v  5.28836 -7.14885e-16 11.675
v  7.35724 -2.16011e-16 3.52773
v  7.64793 -1.99701e-16 3.26137
v  7.7168 -1.80349e-16 2.94532
v  7.85238 -1.62382e-16 2.65191
v  8.04769 -1.46615e-16 2.39441
v  8.29457 -1.33823e-16 2.1855
v  8.58062 -1.2459e-16 2.0347
v  8.89288 -1.19385e-16 1.94971
v  9.21542 -1.18416e-16 1.93387
v  10.4665 -1.24357e-16 2.03091
v  9.53418 -1.21758e-16 1.98846
v  9.83395 -1.29245e-16 2.11073
v  10.0996 -1.40504e-16 2.2946
v  9.49022 -6.87622e-16 11.2297
v  10.4819 -5.46229e-16 8.92059
v  9.81226 -6.82373e-16 11.144
v  10.1076 -6.72851e-16 10.9885
v  10.3595 -6.59505e-16 10.7705
v  10.5568 -6.4303e-16 10.5015
v  10.6884 -6.24274e-16 10.1952
v  10.7477 -6.042e-16 9.86734
v  10.6418 -5.64147e-16 9.21322
v  10.7321 -5.83816e-16 9.53443

# 0 UV coordinates

# 93 vertex normals
vn 0 1 0
vn 3.29131e-23 -1 -6.12323e-17
vn 4.52343e-23 -1 -6.12324e-17
vn -8.76867e-23 -1 -6.12323e-17
vn 0 -1 -6.12323e-17
vn 0 -1 -6.12323e-17
vn -6.56326e-24 -1 -6.12323e-17
vn -2.39989e-23 -1 -6.12323e-17
vn 2.13944e-22 -1 -6.12323e-17
vn -1.29643e-22 -1 -6.12324e-17
vn 1.07381e-22 -1 -6.12323e-17
vn -1.72815e-22 -1 -6.12324e-17
vn 5.338e-23 -1 -6.12323e-17
vn -6.97378e-23 -1 -6.12323e-17
vn 1.28804e-22 -1 -6.12323e-17
vn -6.27125e-23 -1 -6.12323e-17
vn 1.61935e-23 -1 -6.12323e-17
vn -5.16504e-23 -1 -6.12323e-17
vn 5.37196e-23 -1 -6.12324e-17
vn -2.40772e-23 -1 -6.12323e-17
vn -2.50299e-24 -1 -6.12323e-17
vn -1.52227e-23 -1 -6.12322e-17
vn -9.95467e-24 -1 -6.12323e-17
vn -1.35342e-23 -1 -6.12323e-17
vn 1.27135e-23 -1 -6.12323e-17
vn -1.68549e-23 -1 -6.12323e-17
vn 1.33129e-22 -1 -6.12323e-17
vn -2.54555e-22 -1 -6.12324e-17
vn 3.38885e-23 -1 -6.12323e-17
vn -1.09573e-22 -1 -6.12323e-17
vn -4.29877e-23 -1 -6.12323e-17
vn -8.08118e-23 -1 -6.12323e-17
vn 4.49927e-22 -1 -6.12325e-17
vn -2.97252e-22 -1 -6.12324e-17
vn -0.982548 2.6845e-05 0.186007
vn -0.982548 2.68512e-05 0.186007
vn -0.982588 2.68322e-05 0.185796
vn -0.982588 2.68392e-05 0.185796
vn -0.982578 2.68231e-05 0.185853
vn -0.982578 2.68337e-05 0.185852
vn 0.150716 2.79548e-05 0.988577
vn -0.76993 3.65979e-05 0.638129
vn -0.769929 3.6547e-05 0.638129
vn -0.590723 3.81534e-05 0.806874
vn -0.590722 3.81197e-05 0.806875
vn -0.429947 3.7756e-05 0.902854
vn -0.42995 3.76277e-05 0.902853
vn -0.256729 3.59435e-05 0.966483
vn -0.256725 3.60684e-05 0.966484
vn -0.0718318 3.30979e-05 0.997417
vn -0.0718355 3.29801e-05 0.997416
vn 0.105372 2.91088e-05 0.994433
vn 0.105372 2.92203e-05 0.994433
vn 0.257235 2.50845e-05 0.966349
vn 0.465948 1.80464e-05 0.884812
vn 0.654295 9.95305e-06 0.75624
vn 0.654293 9.86733e-06 0.756241
vn 0.806319 1.42433e-06 0.591481
vn 0.918848 -7.18723e-06 0.394611
vn 0.984014 -1.54064e-05 0.178093
vn 0.998899 -2.28192e-05 -0.0469229
vn 0.998899 -2.28245e-05 -0.0469228
vn 0.962668 -2.91314e-05 -0.270685
vn 0.877631 -3.39173e-05 -0.479336
vn 0.87763 -3.37635e-05 -0.479339
vn 0.865251 -3.42027e-05 -0.501339
vn 0.865251 -3.43494e-05 -0.501339
vn 0.675581 8.8557e-06 0.737286
vn 0.977069 -1.41473e-05 0.212923
vn 0.977069 -1.40922e-05 0.212921
vn 0.90778 -6.09279e-06 0.419448
vn 0.907779 -6.13144e-06 0.419448
vn 0.796734 2.08639e-06 0.60433
vn 0.796734 2.06844e-06 0.60433
vn 0.64597 1.03132e-05 0.763362
vn 0.466338 1.79807e-05 0.884607
vn 0.262636 2.48687e-05 0.964895
vn 0.262636 2.48824e-05 0.964895
vn 0.0490385 3.05166e-05 0.998797
vn -0.168776 3.47547e-05 0.985654
vn -0.377665 3.73298e-05 0.925942
vn -0.377666 3.72734e-05 0.925942
vn -0.569132 3.81551e-05 0.822246
vn -0.56913 3.80666e-05 0.822247
vn 0.58358 1.32085e-05 0.812056
vn 0.583579 1.31849e-05 0.812056
vn 0.860978 -3.44648e-05 -0.508642
vn -0.517258 -1.60001e-05 -0.855829
vn -0.517258 -1.6008e-05 -0.855829
vn -0.132189 -2.84996e-05 -0.991225
vn -0.132189 -2.84993e-05 -0.991225
vn -0.982588 2.68454e-05 0.185799
vn -0.982588 2.68449e-05 0.1858

# Mesh 'defaultobject' with 140 faces
g defaultobject
usemtl DefaultMaterial
f  1//1 2//1 3//1
f  2//1 1//1 4//1
f  4//1 1//1 5//1
f  4//1 5//1 6//1
f  4//1 6//1 7//1
f  4//1 7//1 8//1
f  6//1 5//1 9//1
f  9//1 5//1 10//1
f  10//1 5//1 11//1
f  10//1 11//1 12//1
f  8//1 7//1 13//1
f  8//1 13//1 14//1
f  8//1 14//1 15//1
f  16//1 12//1 11//1
f  12//1 16//1 17//1
f  17//1 16//1 18//1
f  18//1 16//1 19//1
f  19//1 16//1 20//1
f  20//1 16//1 21//1
f  20//1 21//1 22//1
f  20//1 22//1 23//1
f  20//1 23//1 24//1
f  20//1 24//1 25//1
f  20//1 25//1 26//1
f  20//1 26//1 27//1
f  20//1 27//1 28//1
f  28//1 27//1 29//1
f  29//1 27//1 30//1
f  30//1 27//1 31//1
f  31//1 27//1 32//1
f  31//1 32//1 33//1
f  33//1 32//1 34//1
f  33//1 34//1 35//1
f  36//1 18//1 19//1
f  37//2 38//2 39//2
f  38//2 37//2 40//3
f  38//2 40//3 41//4
f  38//2 41//4 42//5
f  38//2 42//5 43//6
f  38//2 43//6 44//7
f  44//7 43//6 45//8
f  44//7 45//8 46//9
f  46//9 45//8 47//10
f  47//10 45//8 48//11
f  48//11 45//8 49//12
f  49//12 45//8 50//13
f  50//13 45//8 51//14
f  51//14 45//8 52//6
f  52//6 45//8 53//15
f  53//15 45//8 54//16
f  54//16 45//8 55//17
f  55//17 45//8 56//18
f  56//18 45//8 57//19
f  57//19 45//8 58//20
f  58//20 45//8 59//21
f  58//20 59//21 60//22
f  60//22 59//21 61//23
f  61//23 59//21 62//24
f  50//13 63//25 49//12
f  63//25 50//13 64//26
f  63//25 64//26 65//27
f  65//27 64//26 66//28
f  66//28 64//26 67//29
f  67//29 64//26 68//30
f  68//30 64//26 69//31
f  69//31 64//26 70//32
f  70//32 64//26 71//33
f  70//32 71//33 72//34
f  5//35 41//35 40//35
f  41//35 5//35 1//36
f  11//37 40//37 37//37
f  40//37 11//37 5//38
f  16//39 37//39 39//39
f  37//39 16//39 11//40
f  38//41 16//41 39//41
f  16//41 38//41 21//41
f  22//42 38//42 44//42
f  38//42 22//42 21//43
f  23//44 44//44 46//44
f  44//44 23//44 22//45
f  47//46 23//46 46//46
f  23//46 47//46 24//47
f  48//48 24//48 47//48
f  24//48 48//48 25//49
f  49//50 25//50 48//50
f  25//50 49//50 26//51
f  63//52 26//52 49//52
f  26//52 63//52 27//53
f  65//54 27//54 63//54
f  27//54 65//54 32//54
f  66//55 32//55 65//55
f  32//55 66//55 34//55
f  67//56 34//56 66//56
f  34//56 67//56 35//57
f  68//58 35//58 67//58
f  35//58 68//58 33//58
f  69//59 33//59 68//59
f  33//59 69//59 31//59
f  70//60 31//60 69//60
f  31//60 70//60 30//60
f  72//61 30//61 70//61
f  30//61 72//61 29//62
f  71//63 29//63 72//63
f  29//63 71//63 28//63
f  64//64 28//64 71//64
f  28//64 64//64 20//65
f  50//66 20//66 64//66
f  20//66 50//66 19//67
f  51//68 19//68 50//68
f  19//68 51//68 36//68
f  52//69 36//69 51//69
f  36//69 52//69 18//70
f  53//71 18//71 52//71
f  18//71 53//71 17//72
f  54//73 17//73 53//73
f  17//73 54//73 12//74
f  55//75 12//75 54//75
f  12//75 55//75 10//75
f  56//76 10//76 55//76
f  10//76 56//76 9//76
f  57//77 9//77 56//77
f  9//77 57//77 6//78
f  58//79 6//79 57//79
f  6//79 58//79 7//79
f  60//80 7//80 58//80
f  7//80 60//80 13//80
f  61//81 13//81 60//81
f  13//81 61//81 14//82
f  15//83 61//83 62//83
f  61//83 15//83 14//84
f  59//85 15//85 62//85
f  15//85 59//85 8//86
f  45//87 8//87 59//87
f  8//87 45//87 4//87
f  2//88 45//88 43//88
f  45//88 2//88 4//89
f  3//90 43//90 42//90
f  43//90 3//90 2//91
f  1//92 42//92 41//92
f  42//92 1//92 3//93

