# {"id":"BLDG_0003000a004187b3","idOriginal":"BLDG_0003000a004187b3","origin":[13.335355320870255,52.53824139910953],"elevation":32.93}
# Longitude: 13.335355320870255
# Latitude: 52.53824139910953
# Elevation: 32.93

# File produced by Open Asset Import Library (http://www.assimp.sf.net)
# (assimp v3.1.0)

mtllib BLDG_0003000a004187b3.obj.mtl

# 10 vertex positions
v  0 0 0
v  121.011 -5.75128e-16 9.39255
v  115.946 -1.79984e-15 29.3936
v  5.0656 1.22471e-15 -20.0011
v  5.06574 6.48 -20.0013
v  0.00013787 6.48 -0.00020516
v  8.65437 7.58 -8.44892
v  115.946 6.48 29.3934
v  112.357 7.58 17.841
v  121.011 6.48 9.39234

# 0 UV coordinates

# 15 vertex normals
vn 0 -1 -6.12323e-17
vn -0.166351 0.985166 -0.042131
vn -0.0260547 0.994363 0.102775
vn -0.0260547 0.994363 0.102775
vn 0.0260549 0.994363 -0.102776
vn 0.0260549 0.994363 -0.102776
vn 0.166351 0.985166 0.0421312
vn 0.969393 -1.28394e-05 0.245515
vn 0.969393 -1.27823e-05 0.245515
vn -0.245739 3.59079e-05 0.969336
vn -0.245739 3.55929e-05 0.969336
vn -0.969393 1.28519e-05 -0.245515
vn -0.969393 1.28107e-05 -0.245515
vn 0.245739 -3.60403e-05 -0.969336
vn 0.245739 -3.58796e-05 -0.969336

# Mesh 'defaultobject' with 16 faces
g defaultobject
usemtl DefaultMaterial
f  1//1 2//1 3//1
f  2//1 1//1 4//1
f  5//2 6//2 7//2
f  7//3 8//3 9//3
f  8//3 7//3 6//4
f  7//5 10//5 5//5
f  10//5 7//5 9//6
f  8//7 10//7 9//7
f  2//8 8//8 3//8
f  8//8 2//8 10//9
f  3//10 6//10 1//10
f  6//10 3//10 8//11
f  6//12 4//12 1//12
f  4//12 6//12 5//13
f  5//14 2//14 4//14
f  2//14 5//14 10//15

