# {"id":"BLDG_00030008002ff15f","idOriginal":"BLDG_00030008002ff15f","origin":[13.34403570719227,52.559232523055634],"elevation":38.3300018310547}
# Longitude: 13.34403570719227
# Latitude: 52.559232523055634
# Elevation: 38.3300018310547

# File produced by Open Asset Import Library (http://www.assimp.sf.net)
# (assimp v3.1.0)

mtllib BLDG_00030008002ff15f.obj.mtl

# 38 vertex positions
v  0 0 0
v  7.80327 1.51714e-16 -2.47768
v  2.81927 -1.66029e-16 2.71146
v  4.9647 3.1888e-16 -5.20771
v  10.6511 -6.27251e-16 10.2438
v  19.1566 -5.16894e-16 8.44152
v  14.1726 -8.34637e-16 13.6307
v  25.7222 -9.83174e-17 1.60564
v  29.8965 1.67802e-16 -2.74042
v  26.3727 3.75045e-16 -6.12495
v  18.5359 8.35946e-16 -13.652
v  14.3616 5.69826e-16 -9.30597
v  11.4958 7.38371e-16 -12.0585
v  15.6539 1.00544e-15 -16.4201
v  11.4959 4.92813 -12.0587
v  15.654 4.92813 -16.4203
v  0.000104916 4.92813 -0.000156251
v  4.9648 4.92813 -5.20787
v  7.80338 4.92813 -2.47783
v  29.8966 4.92813 -2.74058
v  26.3728 4.92813 -6.12511
v  18.536 4.92813 -13.6522
v  25.7223 4.92813 1.60549
v  19.1567 4.92813 8.44137
v  14.1727 4.92813 13.6305
v  2.81942 7.23947 2.71123
v  10.6512 4.92813 10.2436
v  10.6512 7.23947 10.2435
v  2.81937 4.92813 2.71131
v  14.3619 12.0035 -9.30635
v  7.80343 7.23947 -2.47791
v  7.80353 12.0035 -2.47806
v  14.3617 4.92813 -9.30613
v  22.1987 12.0035 -1.77927
v  15.6352 4.92813 5.05448
v  22.1985 4.92813 -1.77904
v  15.6353 12.0035 5.05426
v  15.6352 7.23947 5.05441

# 0 UV coordinates

# 50 vertex normals
vn -9.40528e-25 -1 -6.12323e-17
vn -2.80239e-24 -1 -6.12323e-17
vn 0 -1 -6.12323e-17
vn -2.28632e-24 -1 -6.12323e-17
vn 0 -1 -6.12323e-17
vn 0 -1 -6.12323e-17
vn -1.71786e-24 -1 -6.12323e-17
vn -1.66533e-16 1 -1.11022e-16
vn 6.63269e-24 -1 -6.12323e-17
vn 1.09924e-24 -1 -6.12323e-17
vn -0.723793 -6.49165e-06 -0.690018
vn -0.723793 -6.46866e-06 -0.690018
vn -0.723793 -6.42488e-06 -0.690018
vn 0.693192 -3.75894e-05 -0.720753
vn 0.693192 -3.75648e-05 -0.720753
vn 0.692711 -3.76266e-05 -0.721215
vn 0.692711 -3.74705e-05 -0.721215
vn 0.692711 -3.7967e-05 -0.721215
vn 0.692711 -3.80227e-05 -0.721215
vn 0.692711 -3.7628e-05 -0.721215
vn 0.721219 6.6154e-06 0.692707
vn 0.721219 6.69676e-06 0.692707
vn 0.721219 6.88541e-06 0.692707
vn 0.721219 6.42272e-06 0.692707
vn 0.721219 6.69676e-06 0.692707
vn 0.721219 6.61645e-06 0.692707
vn -0.693192 3.75161e-05 0.720753
vn -0.693192 3.76302e-05 0.720753
vn -0.693192 3.76305e-05 0.720753
vn -0.726531 3.72706e-05 0.687133
vn -0.693192 3.76302e-05 0.720753
vn -0.693192 3.75995e-05 0.720752
vn -0.693192 3.76266e-05 0.720753
vn -0.721219 -6.68141e-06 -0.692707
vn -0.721219 -6.61098e-06 -0.692707
vn -0.721219 -6.59829e-06 -0.692707
vn -0.721219 -6.66272e-06 -0.692707
vn -0.721219 -6.62244e-06 -0.692707
vn -0.721219 -6.76688e-06 -0.692707
vn 0.721219 6.60553e-06 0.692707
vn 0.721219 6.62888e-06 0.692707
vn -0.173851 -2.75569e-05 -0.984772
vn 0.721219 6.53365e-06 0.692707
vn 0.721219 6.83123e-06 0.692707
vn -0.693192 3.75778e-05 0.720753
vn -0.693192 3.76472e-05 0.720752
vn 0.692711 -3.76598e-05 -0.721215
vn 0.692711 -3.77094e-05 -0.721215
vn -0.692711 3.76346e-05 0.721215
vn 0 1 0

# Mesh 'defaultobject' with 72 faces
g defaultobject
usemtl DefaultMaterial
f  1//1 2//1 3//1
f  2//1 1//1 4//2
f  5//3 6//3 7//3
f  6//3 5//3 8//4
f  8//4 5//3 9//5
f  9//5 5//3 10//6
f  10//6 5//3 3//1
f  10//6 3//1 11//7
f  11//7 3//1 2//1
f  11//8 2//8 12//8
f  11//7 12//9 13//9
f  11//7 13//9 14//10
f  15//11 14//11 13//11
f  14//11 15//11 16//11
f  17//12 4//12 1//12
f  4//12 17//12 18//13
f  4//14 19//14 2//14
f  19//14 4//14 18//15
f  10//16 20//16 9//16
f  20//16 10//16 11//17
f  20//16 11//17 14//18
f  20//16 14//18 21//19
f  21//19 14//18 22//17
f  22//17 14//18 16//20
f  23//21 9//21 20//21
f  9//21 23//21 24//22
f  9//21 24//22 25//23
f  9//21 25//23 8//24
f  8//24 25//23 6//25
f  6//25 25//23 7//26
f  26//27 27//27 28//27
f  27//27 26//27 5//28
f  5//28 26//27 3//29
f  3//30 26//30 29//30
f  3//29 29//31 17//31
f  3//29 17//31 1//32
f  27//27 7//33 25//33
f  7//33 27//27 5//28
f  30//34 31//34 32//34
f  31//34 30//34 19//35
f  19//35 30//34 2//36
f  2//36 30//34 33//37
f  2//36 33//37 12//38
f  31//34 29//39 26//39
f  29//39 31//34 19//35
f  34//40 35//40 36//40
f  35//40 34//40 37//41
f  35//42 37//42 38//42
f  38//43 27//43 35//40
f  27//43 38//43 28//44
f  37//45 31//45 38//45
f  31//45 37//45 32//46
f  33//47 34//47 36//47
f  34//47 33//47 30//48
f  33//49 13//49 12//49
f  13//49 33//49 15//49
f  22//50 36//50 21//50
f  36//50 22//50 33//50
f  33//50 22//50 16//50
f  33//50 16//50 15//50
f  21//50 23//50 20//50
f  23//50 21//50 24//50
f  24//50 21//50 25//50
f  25//50 21//50 36//50
f  25//50 36//50 35//50
f  25//50 35//50 27//50
f  34//50 32//50 37//50
f  32//50 34//50 30//50
f  38//50 26//50 28//50
f  26//50 38//50 31//50
f  19//50 17//50 29//50
f  17//50 19//50 18//50

