# {"id":"BLDG_00030000001b5560","idOriginal":"BLDG_00030000001b5560","origin":[13.34166158511765,52.56016888054477],"elevation":37.560001373291}
# Longitude: 13.34166158511765
# Latitude: 52.56016888054477
# Elevation: 37.560001373291

# File produced by Open Asset Import Library (http://www.assimp.sf.net)
# (assimp v3.1.0)

mtllib BLDG_00030000001b5560.obj.mtl

# 8 vertex positions
v  0 0 0
v  6.51903 9.52641e-17 -1.55578
v  1.92514 -1.40617e-16 2.29645
v  4.59297 2.35882e-16 -3.85225
v  1.92519 2.36286 2.29638
v  5.0296e-05 2.36286 -7.49193e-05
v  6.51908 2.36286 -1.55586
v  4.59302 2.36286 -3.85233

# 0 UV coordinates

# 11 vertex normals
vn 0 -1 -6.12323e-17
vn -2.20983e-24 -1 -6.12323e-17
vn -0.766342 3.66703e-05 0.642433
vn -0.766342 3.66821e-05 0.642433
vn 0.642544 1.05021e-05 0.766249
vn 0.642544 1.06368e-05 0.766249
vn 0.766194 -3.66277e-05 -0.64261
vn 0.766194 -3.6695e-05 -0.64261
vn -0.642621 -1.06146e-05 -0.766184
vn -0.642621 -1.07358e-05 -0.766184
vn 0 1 0

# Mesh 'defaultobject' with 12 faces
g defaultobject
usemtl DefaultMaterial
f  1//1 2//1 3//1
f  2//1 1//1 4//2
f  5//3 1//3 3//3
f  1//3 5//3 6//4
f  2//5 5//5 3//5
f  5//5 2//5 7//6
f  4//7 7//7 2//7
f  7//7 4//7 8//8
f  6//9 4//9 1//9
f  4//9 6//9 8//10
f  6//11 7//11 8//11
f  7//11 6//11 5//11

