# {"id":"BLDG_000300000018e11d","idOriginal":"BLDG_000300000018e11d","origin":[13.40303415340626,52.53033934480465],"elevation":37.4900016784668}
# Longitude: 13.40303415340626
# Latitude: 52.53033934480465
# Elevation: 37.4900016784668

# File produced by Open Asset Import Library (http://www.assimp.sf.net)
# (assimp v3.1.0)

mtllib BLDG_000300000018e11d.obj.mtl

# 10 vertex positions
v  0 0 0
v  16.4247 9.50348e-16 -15.5204
v  11.6366 -1.88295e-16 3.0751
v  4.7881 1.13864e-15 -18.5955
v  0.000423165 19.8039 -0.000626639
v  14.0311 23.1163 -6.22336
v  2.39455 23.1163 -9.29846
v  11.637 19.8039 3.07447
v  16.4251 19.8039 -15.521
v  4.78853 19.8039 -18.5961

# 0 UV coordinates

# 14 vertex normals
vn 0 -1 -6.12323e-17
vn 1.83252e-24 -1 -6.12323e-17
vn -0.083327 0.94532 0.31532
vn 0.0833289 0.945317 -0.315327
vn 0.0833289 0.945318 -0.315327
vn 0.968412 -1.27234e-05 0.249354
vn 0.968412 -1.28166e-05 0.249354
vn 0.968412 -1.30146e-05 0.249354
vn -0.255491 3.60568e-05 0.966811
vn -0.968412 1.28027e-05 -0.249354
vn -0.968412 1.28046e-05 -0.249354
vn -0.968412 1.28946e-05 -0.249354
vn 0.255491 -3.60976e-05 -0.966811
vn 0.255491 -3.60264e-05 -0.966811

# Mesh 'defaultobject' with 16 faces
g defaultobject
usemtl DefaultMaterial
f  1//1 2//1 3//1
f  2//1 1//1 4//2
f  5//3 6//3 7//3
f  6//3 5//3 8//3
f  7//4 9//4 10//4
f  9//4 7//4 6//5
f  9//6 3//6 2//6
f  3//6 9//6 8//7
f  8//7 9//6 6//8
f  3//9 5//9 1//9
f  5//9 3//9 8//9
f  5//10 4//10 1//10
f  4//10 5//10 10//11
f  10//11 5//10 7//12
f  10//13 2//13 4//13
f  2//13 10//13 9//14

