# {"id":"BLDG_00030000001dac39","idOriginal":"BLDG_00030000001dac39","origin":[13.368877590623399,52.546742991072044],"elevation":36.2999992370605}
# Longitude: 13.368877590623399
# Latitude: 52.546742991072044
# Elevation: 36.2999992370605

# File produced by Open Asset Import Library (http://www.assimp.sf.net)
# (assimp v3.1.0)

mtllib BLDG_00030000001dac39.obj.mtl

# 8 vertex positions
v  0.457707 -7.83572e-16 12.7967
v  11.0902 -4.41488e-17 0.721004
v  11.4942 -8.33537e-16 13.6127
v  0 0 0
v  0.45792 9.96332 12.7964
v  11.0904 9.96332 0.720689
v  0.00021244 9.96332 -0.000315621
v  11.4944 9.96332 13.6124

# 0 UV coordinates

# 10 vertex normals
vn -3.35652e-24 -1 -6.12323e-17
vn 3.73899e-25 -1 -6.12323e-17
vn 0 1 0
vn -0.999361 2.24402e-05 0.0357447
vn -0.999361 2.24409e-05 0.0357447
vn -0.0737344 3.31701e-05 0.997278
vn -0.0737344 3.31787e-05 0.997278
vn 0.999509 -2.23266e-05 -0.0313244
vn 0.0648759 -3.29948e-05 -0.997893
vn 0.0648759 -3.29949e-05 -0.997893

# Mesh 'defaultobject' with 12 faces
g defaultobject
usemtl DefaultMaterial
f  1//1 2//1 3//1
f  2//1 1//1 4//2
f  5//3 6//3 7//3
f  6//3 5//3 8//3
f  5//4 4//4 1//4
f  4//4 5//4 7//5
f  3//6 5//6 1//6
f  5//6 3//6 8//7
f  2//8 8//8 3//8
f  8//8 2//8 6//8
f  7//9 2//9 4//9
f  2//9 7//9 6//10

