# {"id":"BLDG_0003000e00810d45","idOriginal":"BLDG_0003000e00810d45","origin":[13.420808510529985,52.50586554510831],"elevation":34.6100006103516}
# Longitude: 13.420808510529985
# Latitude: 52.50586554510831
# Elevation: 34.6100006103516

# File produced by Open Asset Import Library (http://www.assimp.sf.net)
# (assimp v3.1.0)

mtllib BLDG_0003000e00810d45.obj.mtl

# 8 vertex positions
v  3.78027 5.08093e-16 -8.29778
v  10.9192 -3.02895e-16 4.94665
v  0 0 0
v  14.6995 2.05198e-16 -3.35114
v  3.78066 18.481 -8.29837
v  10.9196 19.5864 4.94603
v  14.6998 18.481 -3.35172
v  0.000418965 19.5864 -0.00061874

# 0 UV coordinates

# 12 vertex normals
vn 0 -1 -6.12323e-17
vn 7.74929e-24 -1 -6.12323e-17
vn 0.0496627 0.992732 -0.109625
vn 0.0496627 0.992732 -0.109625
vn -0.412654 3.76125e-05 0.910888
vn -0.412654 3.758e-05 0.910888
vn -0.910013 6.36904e-06 -0.41458
vn -0.910013 6.37182e-06 -0.41458
vn 0.412654 -3.75933e-05 -0.910888
vn 0.412654 -3.76157e-05 -0.910888
vn 0.910013 -6.37582e-06 0.41458
vn 0.910013 -6.39498e-06 0.41458

# Mesh 'defaultobject' with 12 faces
g defaultobject
usemtl DefaultMaterial
f  1//1 2//1 3//1
f  2//1 1//1 4//2
f  5//3 6//3 7//3
f  6//3 5//3 8//4
f  2//5 8//5 3//5
f  8//5 2//5 6//6
f  8//7 1//7 3//7
f  1//7 8//7 5//8
f  5//9 4//9 1//9
f  4//9 5//9 7//10
f  4//11 6//11 2//11
f  6//11 4//11 7//12

