# {"id":"BLDG_0003000f00414302","idOriginal":"BLDG_0003000f00414302","origin":[13.38761817139282,52.551927441673584],"elevation":40.7599983215332}
# Longitude: 13.38761817139282
# Latitude: 52.551927441673584
# Elevation: 40.7599983215332

# File produced by Open Asset Import Library (http://www.assimp.sf.net)
# (assimp v3.1.0)

mtllib BLDG_0003000f00414302.obj.mtl

# 10 vertex positions
v  3.22446 5.08004 2.66709
v  5.17633 5.08004 0.0270013
v  2.93547 5.55019 0.30065
v  2.24099 5.55019 -0.273839
v  0.000108449 5.08004 -0.00016098
v  1.95198 5.08004 -2.64025
v  0 0 0
v  5.17622 -1.66321e-18 0.0271623
v  3.22435 -1.63322e-16 2.66725
v  1.95187 1.61659e-16 -2.64009

# 0 UV coordinates

# 16 vertex normals
vn 0.221692 0.961243 0.163902
vn -0.175731 0.961244 0.212435
vn -0.175731 0.961244 0.212435
vn -0.221693 0.961243 -0.163902
vn 0.175734 0.961242 -0.212439
vn 0.175734 0.961242 -0.212439
vn 0 -1 -6.12323e-17
vn -3.0148e-26 -1 -6.12323e-17
vn 0.804103 1.65815e-06 0.59449
vn 0.804103 1.62956e-06 0.59449
vn -0.637401 3.80212e-05 0.770533
vn -0.637401 3.80245e-05 0.770533
vn -0.804103 -1.67261e-06 -0.59449
vn -0.804103 -1.70883e-06 -0.59449
vn 0.637401 -3.80881e-05 -0.770533
vn 0.637401 -3.79984e-05 -0.770533

# Mesh 'defaultobject' with 16 faces
g defaultobject
usemtl DefaultMaterial
f  1//1 2//1 3//1
f  4//2 1//2 3//2
f  1//2 4//2 5//3
f  4//4 6//4 5//4
f  4//5 2//5 6//5
f  2//5 4//5 3//6
f  7//7 8//7 9//7
f  8//7 7//7 10//8
f  8//9 1//9 9//9
f  1//9 8//9 2//10
f  1//11 7//11 9//11
f  7//11 1//11 5//12
f  5//13 10//13 7//13
f  10//13 5//13 6//14
f  10//15 2//15 8//15
f  2//15 10//15 6//16

