# {"id":"BLDG_0003000b001f2b15","idOriginal":"BLDG_0003000b001f2b15","origin":[13.364251967997046,52.49964141086131],"elevation":33.939998626709}
# Longitude: 13.364251967997046
# Latitude: 52.49964141086131
# Elevation: 33.939998626709

# File produced by Open Asset Import Library (http://www.assimp.sf.net)
# (assimp v3.1.0)

mtllib BLDG_0003000b001f2b15.obj.mtl

# 52 vertex positions
v  32.9279 25.2312 -30.4006
v  34.6469 2.29022e-15 -37.4021
v  34.6474 22.8092 -37.4029
v  31.2084 25.2312 -23.3983
v  29.0379 25.2312 -14.5593
v  27.3732 25.2312 -7.78061
v  25.6806 25.2312 -0.887691
v  23.9879 22.8092 6.0053
v  32.9274 1.86145e-15 -30.3998
v  23.9874 -3.67763e-16 6.00602
v  31.2078 1.43268e-15 -23.3975
v  29.0373 8.91452e-16 -14.5585
v  27.3727 4.76376e-16 -7.77981
v  25.6801 5.43066e-17 -0.886895
v  6.83748 -1.04829e-16 1.71199
v  0.000486139 22.8092 -0.000720301
v  0 0 0
v  11.5981 -1.77816e-16 2.90396
v  17.6604 -2.7076e-16 4.42185
v  6.83797 22.8092 1.71127
v  11.5986 22.8092 2.90324
v  17.6609 22.8092 4.42113
v  24.9008 1.53468e-15 -25.0632
v  22.7281 22.8092 -16.2139
v  24.9013 22.8092 -25.0639
v  21.0462 22.8092 -9.36471
v  21.0457 5.73379e-16 -9.36399
v  22.7276 9.92772e-16 -16.2132
v  19.2961 22.8092 -26.5443
v  21.1188 2.05242e-15 -33.5186
v  19.2956 1.62533e-15 -26.5436
v  22.942 2.47951e-15 -40.4935
v  22.9425 22.8092 -40.4942
v  21.1193 25.2312 -33.5194
v  28.3404 22.8092 -39.0686
v  28.3399 2.39222e-15 -39.0679
v  1.84072 4.19799e-16 -6.85584
v  3.68144 8.39599e-16 -13.7117
v  5.56172 1.26842e-15 -20.7149
v  5.56226 25.2312 -20.7157
v  3.68198 25.2312 -13.7125
v  1.84126 25.2312 -6.85664
v  15.1887 22.8092 -10.8313
v  10.5194 22.8092 -12.0004
v  10.5189 7.3477e-16 -11.9997
v  15.1883 6.63182e-16 -10.8306
v  12.3789 1.15895e-15 -18.9271
v  12.3793 22.8092 -18.9278
v  19.3536 25.2312 -2.47187
v  13.3937 25.2312 -3.96411
v  8.67874 25.2312 -5.14466
v  26.6209 25.2312 -32.0663

# 0 UV coordinates

# 89 vertex normals
vn 0.971148 -1.30877e-05 0.238478
vn 0.971148 -1.32415e-05 0.238479
vn 0.971148 -1.30233e-05 0.238479
vn 0.971148 -1.3256e-05 0.238479
vn 0.971148 -1.29511e-05 0.238479
vn 0.971148 -1.32169e-05 0.238479
vn 0.971148 -1.32211e-05 0.238479
vn 0.971148 -1.31698e-05 0.238479
vn 0 -1 -6.245e-17
vn -1.11022e-16 1 2.77556e-17
vn 8.88178e-17 -1 -4.44089e-17
vn 3.70074e-17 1 7.40149e-17
vn -0.242885 3.58105e-05 0.970055
vn -0.242885 3.58168e-05 0.970055
vn -0.242885 3.58068e-05 0.970055
vn -0.242885 3.57958e-05 0.970055
vn -0.242885 3.58521e-05 0.970055
vn -0.242885 3.58168e-05 0.970055
vn -0.242885 3.58068e-05 0.970055
vn -0.242885 3.58214e-05 0.970055
vn -0.971148 1.31702e-05 -0.238479
vn -0.971148 1.3155e-05 -0.238479
vn -0.971148 1.31802e-05 -0.238479
vn -5.55112e-17 1 5.55112e-17
vn -0.967493 1.25767e-05 -0.252899
vn -0.967493 1.25793e-05 -0.252899
vn -0.967493 1.26365e-05 -0.252899
vn -0.967493 1.28899e-05 -0.252899
vn 0.255352 -3.59848e-05 -0.966848
vn 0.255353 -3.588e-05 -0.966848
vn 0.255353 -3.60062e-05 -0.966848
vn 1.4803e-17 1 3.70074e-18
vn -0.965795 1.23955e-05 -0.259306
vn -0.965795 1.24043e-05 -0.259306
vn -0.965795 1.23855e-05 -0.259306
vn -0.965795 1.23949e-05 -0.259306
vn -0.965795 1.21638e-05 -0.259306
vn -0.965795 1.24252e-05 -0.259306
vn 0.242885 -3.58011e-05 -0.970055
vn 0.242885 -3.58394e-05 -0.970055
vn 0.242885 -3.58315e-05 -0.970055
vn -4.85723e-17 -1 1.11022e-16
vn -0.255353 3.59082e-05 0.966848
vn -0.255352 3.60092e-05 0.966848
vn 0.253668 -3.59727e-05 -0.967291
vn 0.253668 -3.59034e-05 -0.967291
vn 0.965795 -1.23578e-05 0.259305
vn 0.965795 -1.24219e-05 0.259306
vn -0.338068 0.937453 -0.0830173
vn -0.338068 0.937453 -0.0830172
vn -0.338068 0.937453 -0.0830172
vn -0.338068 0.937453 -0.0830172
vn -0.338068 0.937453 -0.0830172
vn -0.338068 0.937453 -0.0830172
vn 0.078441 0.946414 -0.313285
vn 0.078441 0.946414 -0.313285
vn 0.078441 0.946414 -0.313285
vn 0.078441 0.946414 -0.313285
vn 0.078441 0.946414 -0.313285
vn -0.0784393 0.946416 0.313278
vn -0.0784393 0.946416 0.313278
vn -0.0784393 0.946416 0.313278
vn -0.0784393 0.946416 0.313278
vn -0.0784393 0.946416 0.313278
vn -0.0784393 0.946416 0.313278
vn -0.0813192 0.947937 0.307901
vn -0.0813192 0.947937 0.307901
vn -0.0813193 0.947937 0.307901
vn 0.0813209 0.947934 -0.307908
vn 0.0813211 0.947934 -0.307908
vn 0.081321 0.947934 -0.307908
vn 0.0813211 0.947935 -0.307908
vn 0.31389 0.945712 0.0842762
vn 0.31389 0.945712 0.0842762
vn 0 1 0
vn 6.86888e-24 -1 -6.12323e-17
vn 0 -1 -6.12323e-17
vn 1.42509e-23 -1 -6.12323e-17
vn -9.00564e-24 -1 -6.12323e-17
vn 9.53615e-24 -1 -6.12323e-17
vn -1.44683e-23 -1 -6.12323e-17
vn 3.93997e-23 -1 -6.12324e-17
vn -1.3933e-23 -1 -6.12323e-17
vn 1.0582e-24 -1 -6.12323e-17
vn -1.51985e-24 -1 -6.12323e-17
vn -4.99076e-24 -1 -6.12323e-17
vn -2.38702e-24 -1 -6.12323e-17
vn -1.6575e-23 -1 -6.12323e-17
vn 1.5709e-23 -1 -6.12323e-17

# Mesh 'defaultobject' with 100 faces
g defaultobject
usemtl DefaultMaterial
f  1//1 2//1 3//1
f  2//1 1//1 4//2
f  2//1 4//2 5//3
f  2//1 5//3 6//4
f  2//1 6//4 7//5
f  2//1 7//5 8//6
f  2//1 8//6 9//7
f  9//7 8//6 10//8
f  9//9 10//9 11//9
f  11//10 10//10 12//10
f  12//11 10//9 13//11
f  13//12 10//10 14//12
f  15//13 16//13 17//13
f  16//13 15//13 18//14
f  16//13 18//14 19//15
f  16//13 19//15 10//16
f  16//13 10//16 20//17
f  20//17 10//16 21//18
f  21//18 10//16 22//19
f  22//19 10//16 8//20
f  23//21 24//21 25//21
f  24//21 23//21 26//22
f  26//22 23//21 27//23
f  27//24 23//24 28//24
f  29//25 30//25 31//25
f  30//25 29//25 32//26
f  32//26 29//25 33//27
f  33//27 29//25 34//28
f  2//29 35//29 3//29
f  35//29 2//29 33//30
f  33//30 2//29 32//31
f  32//32 2//32 36//32
f  16//33 37//33 17//33
f  37//33 16//33 38//34
f  38//34 16//33 39//35
f  39//35 16//33 40//36
f  40//36 16//33 41//37
f  41//37 16//33 42//38
f  27//39 43//39 26//39
f  43//39 27//39 44//40
f  44//40 27//39 45//41
f  45//42 27//42 46//42
f  23//43 29//43 31//43
f  29//43 23//43 25//44
f  40//45 47//45 39//45
f  47//45 40//45 48//46
f  47//47 44//47 45//47
f  44//47 47//47 48//48
f  25//49 4//49 1//49
f  4//49 25//49 5//50
f  5//50 25//49 24//51
f  5//50 24//51 6//52
f  6//52 24//51 26//53
f  6//52 26//53 7//54
f  26//55 49//55 7//55
f  49//55 26//55 50//56
f  50//56 26//55 51//57
f  51//57 26//55 43//58
f  51//57 43//58 42//56
f  42//56 43//58 44//59
f  7//60 22//60 8//60
f  22//60 7//60 21//61
f  21//61 7//60 20//62
f  20//62 7//60 16//63
f  16//63 7//60 49//64
f  16//63 49//64 50//64
f  16//63 50//64 51//61
f  16//63 51//61 42//65
f  52//66 25//66 1//66
f  25//66 52//66 29//67
f  29//67 52//66 34//68
f  3//69 52//69 1//69
f  52//69 3//69 34//70
f  34//70 3//69 35//71
f  34//70 35//71 33//72
f  40//73 44//73 48//73
f  44//73 40//73 42//74
f  42//75 40//75 41//75
f  10//9 45//42 14//76
f  46//42 14//76 45//42
f  27//42 14//76 46//42
f  13//11 14//76 27//42
f  28//77 13//11 27//42
f  12//11 13//11 28//77
f  23//78 12//11 28//77
f  11//9 12//11 23//78
f  30//79 11//9 23//78
f  32//80 11//9 30//79
f  9//9 11//9 32//80
f  36//81 9//9 32//80
f  2//82 9//9 36//81
f  23//78 31//83 30//79
f  17//84 37//84 15//84
f  18//85 15//84 37//84
f  38//86 18//85 37//84
f  19//87 18//85 38//86
f  10//9 19//87 38//86
f  45//42 10//9 38//86
f  39//88 45//42 38//86
f  47//89 45//42 39//88

