# {"id":"BLDG_0003000e000c9cc4","idOriginal":"BLDG_0003000e000c9cc4","origin":[13.339356899377423,52.51568186802935],"elevation":33.7200012207031}
# Longitude: 13.339356899377423
# Latitude: 52.51568186802935
# Elevation: 33.7200012207031

# File produced by Open Asset Import Library (http://www.assimp.sf.net)
# (assimp v3.1.0)

mtllib BLDG_0003000e000c9cc4.obj.mtl

# 68 vertex positions
v  2.832 28.9141 7.7544
v  7.95343 28.9141 -3.0104
v  0.0006153 28.9141 -0.000914089
v  3.30859 28.9141 8.92854
v  14.5455 28.9141 5.32667
v  11.4947 28.9141 -4.0837
v  10.2955 28.9141 -8.06221
v  19.2628 28.9141 -5.91698
v  21.4943 28.9141 3.77686
v  27.7172 28.9141 -7.91175
v  30.7922 28.9141 1.70292
v  27.1799 28.9141 -11.9878
v  30.8954 28.9141 -12.4512
v  31.4073 28.9141 -8.39968
v  6.83069 28.9141 -7.06436
v  36.1329 28.9141 1.22656
v  34.8723 28.9141 -8.66973
v  48.4258 28.9141 0.130554
v  45.4591 28.9141 -9.49518
v  45.8957 28.9141 -13.6287
v  49.0369 28.9141 0.0762646
v  47.9946 28.9141 -13.6767
v  54.5076 28.9141 0.338099
v  51.5843 28.9141 -9.78665
v  56.0653 28.9141 -9.58453
v  68.9212 28.9141 1.02944
v  68.3668 28.9141 -9.0295
v  78.4229 28.9141 2.96787
v  68.8982 28.9141 -13.048
v  71.9747 28.9141 -8.47384
v  76.0921 28.9141 -7.81358
v  80.2078 28.9141 -7.12834
v  72.2809 28.9141 -12.7328
v  51.5298 28.9141 -13.7583
v  2.83139 -4.74876e-16 7.75532
v  3.30798 -5.46772e-16 8.92946
v  14.5448 -3.2622e-16 5.32758
v  21.4937 -2.31322e-16 3.77777
v  30.7915 -1.0433e-16 1.70384
v  36.1323 -7.51611e-17 1.22747
v  48.4252 -8.05009e-18 0.131468
v  49.0363 -4.72583e-18 0.0771786
v  54.507 -2.07586e-17 0.339014
v  68.9206 -6.30908e-17 1.03035
v  78.4222 -1.81786e-16 2.96879
v  80.2072 4.36429e-16 -7.12743
v  76.0915 4.78388e-16 -7.81267
v  71.9741 5.18817e-16 -8.47292
v  72.2803 7.79605e-16 -12.7319
v  68.8976 7.98905e-16 -13.0471
v  68.3662 5.52841e-16 -9.02858
v  56.0646 5.86827e-16 -9.58362
v  51.5836 5.99203e-16 -9.78573
v  51.5292 8.42399e-16 -13.7574
v  47.9939 8.37399e-16 -13.6758
v  45.8951 8.34462e-16 -13.6278
v  45.4585 5.81356e-16 -9.49426
v  34.8717 5.30812e-16 -8.66882
v  31.4067 5.14276e-16 -8.39876
v  30.8948 7.62358e-16 -12.4503
v  27.1793 7.33987e-16 -11.9869
v  27.7166 4.84399e-16 -7.91083
v  19.2622 3.62254e-16 -5.91606
v  11.4941 2.49998e-16 -4.08278
v  10.2949 4.93612e-16 -8.0613
v  6.83007 4.32511e-16 -7.06344
v  7.95282 1.84278e-16 -3.00949
v  0 0 0

# 0 UV coordinates

# 84 vertex normals
vn 0 1 0
vn -0.926578 3.16037e-05 0.376104
vn -0.926578 3.1596e-05 0.376104
vn 0.305243 2.35912e-05 0.952275
vn 0.305243 2.36023e-05 0.952275
vn 0.217683 2.62165e-05 0.97602
vn 0.217683 2.62257e-05 0.97602
vn 0.217705 2.62234e-05 0.976015
vn 0.217705 2.62165e-05 0.976015
vn 0.0888417 2.95971e-05 0.996046
vn 0.0888416 2.9591e-05 0.996046
vn 0.088805 2.95924e-05 0.996049
vn 0.0884989 2.95988e-05 0.996076
vn 0.0884994 2.96099e-05 0.996076
vn -0.0478065 3.2594e-05 0.998857
vn -0.0479091 3.25939e-05 0.998852
vn -0.0479091 3.25871e-05 0.998852
vn -0.199893 3.5196e-05 0.979818
vn -0.199893 3.52504e-05 0.979818
vn 0.984729 -1.55444e-05 0.174096
vn 0.164234 -3.46951e-05 -0.986421
vn 0.158334 -3.45832e-05 -0.987386
vn 0.158334 -3.45995e-05 -0.987386
vn 0.997425 -1.90512e-05 0.0717147
vn 0.092773 -3.34771e-05 -0.995687
vn 0.0927732 -3.34443e-05 -0.995687
vn -0.991369 1.678e-05 -0.131103
vn -0.991369 1.70416e-05 -0.131104
vn 0.0450734 -3.25619e-05 -0.998984
vn 0.0450735 -3.255e-05 -0.998984
vn 0.0450594 -3.25616e-05 -0.998984
vn 0.999906 -2.18045e-05 -0.0137056
vn 0.999906 -2.16725e-05 -0.0137066
vn -0.0230936 -3.11287e-05 -0.999733
vn -0.0230936 -3.11317e-05 -0.999733
vn -0.0228435 -3.11372e-05 -0.999739
vn -0.0228434 -3.11342e-05 -0.999739
vn -0.994469 1.78047e-05 -0.105035
vn -0.994469 1.78012e-05 -0.105035
vn -0.0777327 -2.9851e-05 -0.996974
vn -0.0777038 -2.98516e-05 -0.996976
vn 0.992113 -2.50339e-05 -0.125346
vn 0.992113 -2.51005e-05 -0.125346
vn -0.123745 -2.87591e-05 -0.992314
vn -0.123744 -2.87182e-05 -0.992314
vn -0.991422 2.51907e-05 0.130698
vn -0.991422 2.51929e-05 0.130698
vn -0.229639 -2.58764e-05 -0.973276
vn -0.229639 -2.58915e-05 -0.973276
vn -0.229691 -2.58749e-05 -0.973264
vn 0.957448 -2.95236e-05 -0.288605
vn 0.957448 -2.94878e-05 -0.288606
vn -0.27675 -2.44918e-05 -0.960942
vn -0.27675 -2.4476e-05 -0.960942
vn -0.963723 2.89402e-05 0.266904
vn -0.353924 -2.20361e-05 -0.935274
vn -0.353924 -2.20385e-05 -0.935274
vn -0.939354 3.08202e-05 0.342949
vn -0.939354 3.08316e-05 0.342949
vn 7.98871e-24 -1 -6.12323e-17
vn 1.62532e-24 -1 -6.12323e-17
vn 2.45825e-24 -1 -6.12323e-17
vn 0 -1 -6.12323e-17
vn 2.43421e-23 -1 -6.12323e-17
vn 7.06738e-24 -1 -6.12323e-17
vn 0 -1 -6.12323e-17
vn 2.23469e-24 -1 -6.12323e-17
vn -1.45338e-23 -1 -6.12323e-17
vn 1.00238e-24 -1 -6.12323e-17
vn 2.88181e-23 -1 -6.12324e-17
vn -3.56829e-23 -1 -6.12323e-17
vn -1.38489e-23 -1 -6.12323e-17
vn -2.01416e-23 -1 -6.12323e-17
vn -1.14066e-23 -1 -6.12323e-17
vn 0 -1 -6.12323e-17
vn 0 -1 -6.12323e-17
vn 1.09511e-24 -1 -6.12323e-17
vn -7.72077e-25 -1 -6.12323e-17
vn 2.03149e-23 -1 -6.12324e-17
vn -1.83929e-25 -1 -6.12323e-17
vn 1.88385e-23 -1 -6.12323e-17
vn -3.43116e-24 -1 -6.12323e-17
vn 4.95197e-24 -1 -6.12323e-17
vn -6.99828e-22 -1 -6.12276e-17

# Mesh 'defaultobject' with 132 faces
g defaultobject
usemtl DefaultMaterial
f  1//1 2//1 3//1
f  2//1 1//1 4//1
f  2//1 4//1 5//1
f  2//1 5//1 6//1
f  2//1 6//1 7//1
f  6//1 5//1 8//1
f  8//1 5//1 9//1
f  8//1 9//1 10//1
f  10//1 9//1 11//1
f  10//1 11//1 12//1
f  12//1 11//1 13//1
f  13//1 11//1 14//1
f  7//1 15//1 2//1
f  16//1 14//1 11//1
f  14//1 16//1 17//1
f  17//1 16//1 18//1
f  17//1 18//1 19//1
f  19//1 18//1 20//1
f  20//1 18//1 21//1
f  20//1 21//1 22//1
f  22//1 21//1 23//1
f  22//1 23//1 24//1
f  24//1 23//1 25//1
f  25//1 23//1 26//1
f  25//1 26//1 27//1
f  27//1 26//1 28//1
f  27//1 28//1 29//1
f  29//1 28//1 30//1
f  30//1 28//1 31//1
f  31//1 28//1 32//1
f  33//1 29//1 30//1
f  34//1 22//1 24//1
f  4//2 35//2 36//2
f  35//2 4//2 1//3
f  37//4 4//4 36//4
f  4//4 37//4 5//5
f  38//6 5//6 37//6
f  5//6 38//6 9//7
f  39//8 9//8 38//8
f  9//8 39//8 11//9
f  40//10 11//10 39//10
f  11//10 40//10 16//11
f  41//12 16//12 40//12
f  16//12 41//12 18//12
f  42//13 18//13 41//13
f  18//13 42//13 21//14
f  43//15 21//15 42//15
f  21//15 43//15 23//15
f  44//16 23//16 43//16
f  23//16 44//16 26//17
f  45//18 26//18 44//18
f  26//18 45//18 28//19
f  46//20 28//20 45//20
f  28//20 46//20 32//20
f  31//21 46//21 47//21
f  46//21 31//21 32//21
f  30//22 47//22 48//22
f  47//22 30//22 31//23
f  49//24 30//24 48//24
f  30//24 49//24 33//24
f  29//25 49//25 50//25
f  49//25 29//25 33//26
f  27//27 50//27 51//27
f  50//27 27//27 29//28
f  25//29 51//29 52//29
f  51//29 25//29 27//30
f  24//31 52//31 53//31
f  52//31 24//31 25//31
f  54//32 24//32 53//32
f  24//32 54//32 34//33
f  22//34 54//34 55//34
f  54//34 22//34 34//35
f  20//36 55//36 56//36
f  55//36 20//36 22//37
f  19//38 56//38 57//38
f  56//38 19//38 20//39
f  17//40 57//40 58//40
f  57//40 17//40 19//40
f  14//41 58//41 59//41
f  58//41 14//41 17//41
f  60//42 14//42 59//42
f  14//42 60//42 13//43
f  12//44 60//44 61//44
f  60//44 12//44 13//45
f  10//46 61//46 62//46
f  61//46 10//46 12//47
f  8//48 62//48 63//48
f  62//48 8//48 10//49
f  6//50 63//50 64//50
f  63//50 6//50 8//50
f  65//51 6//51 64//51
f  6//51 65//51 7//52
f  15//53 65//53 66//53
f  65//53 15//53 7//54
f  2//55 66//55 67//55
f  66//55 2//55 15//55
f  3//56 67//56 68//56
f  67//56 3//56 2//57
f  1//58 68//58 35//58
f  68//58 1//58 3//59
f  35//60 37//60 36//60
f  37//60 35//60 68//61
f  37//60 68//61 67//62
f  37//60 67//62 66//63
f  37//60 66//63 64//64
f  64//64 66//63 65//65
f  64//64 38//63 37//60
f  38//63 64//64 63//66
f  38//63 63//66 39//67
f  39//67 63//66 62//68
f  39//67 62//68 40//69
f  40//69 62//68 61//70
f  40//69 61//70 59//71
f  59//71 61//70 60//72
f  54//73 53//73 55//73
f  49//74 48//74 50//74
f  59//71 41//63 40//69
f  41//63 59//71 58//75
f  41//63 58//75 57//76
f  41//63 57//76 42//77
f  42//77 57//76 43//78
f  43//78 57//76 56//79
f  43//78 56//79 53//73
f  43//78 53//73 44//80
f  53//73 56//79 55//73
f  44//80 53//73 52//81
f  44//80 52//81 51//82
f  44//80 51//82 45//63
f  45//63 51//82 50//74
f  45//63 50//74 48//74
f  45//63 48//74 46//83
f  46//83 48//74 47//84

