# {"id":"BLDG_0003000e0087699e","idOriginal":"BLDG_0003000e0087699e","origin":[13.340499828011184,52.529732987744445],"elevation":34.6199989318848}
# Longitude: 13.340499828011184
# Latitude: 52.529732987744445
# Elevation: 34.6199989318848

# File produced by Open Asset Import Library (http://www.assimp.sf.net)
# (assimp v3.1.0)

mtllib BLDG_0003000e0087699e.obj.mtl

# 26 vertex positions
v  15.9745 22.6768 -7.64099
v  15.8752 21.265 -2.76371
v  16.0565 18.3964 -11.6726
v  15.8072 -3.39545e-17 0.554518
v  15.6472 21.8811 8.43224
v  15.6467 -5.16368e-16 8.43293
v  15.8747 1.69187e-16 -2.76304
v  15.974 4.67832e-16 -7.64027
v  16.0561 7.14704e-16 -11.672
v  15.8076 21.8811 0.553826
v  0.34332 18.3964 -14.4707
v  0.0790698 21.265 -3.31798
v  0.24787 22.6768 -10.4394
v  0.000391523 18.3964 -0.00058213
v  0.342929 8.8604e-16 -14.4701
v  0 0 0
v  0.247388 6.39186e-16 -10.4387
v  0.0786172 2.03127e-16 -3.31731
v  9.68457 18.3964 -12.8073
v  9.68418 7.84183e-16 -12.8067
v  9.2548 18.3964 8.29834
v  9.25441 -5.08162e-16 8.29892
v  9.41667 -2.02274e-17 0.330339
v  9.41706 18.3964 0.329757
v  9.48468 21.265 -2.98789
v  9.60256 22.6768 -8.77567

# 0 UV coordinates

# 40 vertex normals
vn 0.999793 -2.07606e-05 0.0203585
vn 0.999793 -2.06202e-05 0.0203584
vn 0.999793 -2.06594e-05 0.0203585
vn 0.999793 -2.06475e-05 0.0203585
vn 0.999793 -2.06813e-05 0.0203585
vn 0.999793 -2.03798e-05 0.0203584
vn -0.999719 2.05147e-05 -0.0236924
vn -0.999719 2.05125e-05 -0.0236924
vn -0.999719 2.05278e-05 -0.0236924
vn -0.999719 2.05269e-05 -0.0236924
vn 1.77636e-15 1 5.55112e-17
vn 7.10543e-16 1 6.66134e-17
vn 0.175317 -3.49102e-05 -0.984512
vn 0.175317 -3.49074e-05 -0.984512
vn 0.175317 -3.48642e-05 -0.984512
vn -8.32667e-18 -1 0
vn -0.0209606 3.21128e-05 0.99978
vn -0.0209606 3.20809e-05 0.99978
vn -0.999793 2.06053e-05 -0.0203584
vn -0.999793 2.06577e-05 -0.0203585
vn -0.0350587 3.23711e-05 0.999385
vn -0.0229291 0.756477 0.653618
vn -0.0229291 0.756477 0.653618
vn -0.0229385 0.756491 0.653602
vn 0.128339 0.681262 -0.720702
vn 0.128339 0.681262 -0.720702
vn 0.12818 0.681274 -0.720718
vn 0.128308 0.681451 -0.720529
vn -0.467101 0.867584 -0.170632
vn -0.0420204 0.970852 0.23597
vn -0.00974748 0.960571 0.277862
vn -0.478454 0.878058 -0.00974263
vn -0.478454 0.878058 -0.00974258
vn -0.0344263 0.980483 0.193568
vn -0.00831129 0.971518 0.236819
vn -1.69331e-24 -1 -6.12323e-17
vn -3.15513e-24 -1 -6.12323e-17
vn 0 -1 -6.12323e-17
vn 8.09498e-24 -1 -6.12323e-17
vn 6.78926e-24 -1 -6.12323e-17

# Mesh 'defaultobject' with 48 faces
g defaultobject
usemtl DefaultMaterial
f  1//1 2//1 3//1
f  4//2 5//2 6//2
f  5//2 4//2 7//3
f  5//2 7//3 8//4
f  5//2 8//4 9//5
f  5//2 9//5 3//1
f  5//2 3//1 2//1
f  5//2 2//1 10//6
f  11//7 12//7 13//7
f  12//7 11//7 14//8
f  14//8 11//7 15//9
f  14//8 15//9 16//10
f  16//11 15//11 17//11
f  16//11 17//11 18//12
f  9//13 19//13 3//13
f  19//13 9//13 11//14
f  11//14 9//13 15//15
f  15//16 9//16 20//16
f  6//17 21//17 22//17
f  21//17 6//17 5//18
f  21//19 23//19 22//19
f  23//19 21//19 24//20
f  23//21 14//21 16//21
f  14//21 23//21 24//21
f  25//22 24//22 2//22
f  24//22 25//22 14//23
f  14//24 25//24 12//24
f  3//25 26//25 1//25
f  26//25 3//25 19//26
f  26//27 19//27 13//27
f  13//28 19//28 11//28
f  2//29 24//29 10//29
f  25//30 1//30 26//30
f  1//31 25//31 2//31
f  21//32 10//32 24//32
f  10//32 21//32 5//33
f  12//34 26//34 13//34
f  26//35 12//35 25//35
f  18//36 23//36 16//36
f  23//36 18//36 17//37
f  23//36 6//38 22//38
f  6//38 23//36 4//38
f  4//38 23//36 17//37
f  4//38 17//37 15//16
f  4//38 15//16 7//39
f  7//39 15//16 20//16
f  7//39 20//16 8//40
f  8//40 20//16 9//16

