# {"id":"BLDG_0003000b006906d3","idOriginal":"BLDG_0003000b006906d3","origin":[13.398019972595437,52.53657529479068],"elevation":45.5499992370605}
# Longitude: 13.398019972595437
# Latitude: 52.53657529479068
# Elevation: 45.5499992370605

# File produced by Open Asset Import Library (http://www.assimp.sf.net)
# (assimp v3.1.0)

mtllib BLDG_0003000b006906d3.obj.mtl

# 10 vertex positions
v  0 0 0
v  16.9751 -1.00764e-15 16.456
v  6.2014 -1.28851e-15 21.0429
v  10.7737 2.80868e-16 -4.58692
v  0.00043643 20.431 -0.00064675
v  11.5888 22.9891 18.7487
v  5.38736 22.9891 -2.29419
v  6.20183 20.431 21.0423
v  16.9756 20.431 16.4554
v  10.7742 20.431 -4.58756

# 0 UV coordinates

# 14 vertex normals
vn 1.32787e-23 -1 -6.12324e-17
vn 6.63933e-24 -1 -6.12323e-17
vn -0.38623 0.915353 0.113823
vn -0.38623 0.915353 0.113823
vn 0.386238 0.915349 -0.113825
vn 0.386238 0.915349 -0.113825
vn 0.391725 2.07439e-05 0.920082
vn 0.391725 2.07575e-05 0.920082
vn -0.959214 2.94528e-05 0.282682
vn -0.959214 2.94384e-05 0.282682
vn -0.391725 -2.07579e-05 -0.920082
vn -0.391725 -2.07439e-05 -0.920082
vn -0.391725 -2.08212e-05 -0.920082
vn 0.959214 -2.94481e-05 -0.282682

# Mesh 'defaultobject' with 16 faces
g defaultobject
usemtl DefaultMaterial
f  1//1 2//1 3//1
f  2//1 1//1 4//2
f  5//3 6//3 7//3
f  6//3 5//3 8//4
f  7//5 9//5 10//5
f  9//5 7//5 6//6
f  9//7 3//7 2//7
f  3//7 9//7 8//7
f  8//7 9//7 6//8
f  8//9 1//9 3//9
f  1//9 8//9 5//10
f  5//11 4//11 1//11
f  4//11 5//11 10//12
f  10//12 5//11 7//13
f  4//14 9//14 2//14
f  9//14 4//14 10//14

