# {"id":"BLDG_0003000000187c76","idOriginal":"BLDG_0003000000187c76","origin":[13.394178911393508,52.53123774408006],"elevation":35.4900016784668}
# Longitude: 13.394178911393508
# Latitude: 52.53123774408006
# Elevation: 35.4900016784668

# File produced by Open Asset Import Library (http://www.assimp.sf.net)
# (assimp v3.1.0)

mtllib BLDG_0003000000187c76.obj.mtl

# 8 vertex positions
v  1.59994 4.99444 2.63016
v  2.30465 4.99444 -1.08903
v  0.00010666 4.99444 -0.00015805
v  3.17008 4.99444 1.8282
v  2.30455 6.6674e-17 -1.08887
v  1.59983 -1.61061e-16 2.63032
v  0 0 0
v  3.16997 -1.11955e-16 1.82836

# 0 UV coordinates

# 11 vertex normals
vn 0 1 0
vn 3.39195e-24 -1 -6.12323e-17
vn -2.50923e-24 -1 -6.12323e-17
vn -0.854377 3.46982e-05 0.519654
vn -0.854377 3.46904e-05 0.519654
vn 0.454864 1.8452e-05 0.890561
vn 0.454864 1.84656e-05 0.890561
vn 0.958703 -2.94463e-05 -0.284408
vn 0.958703 -2.94934e-05 -0.284408
vn -0.427202 -1.9489e-05 -0.904156
vn -0.427202 -1.95003e-05 -0.904156

# Mesh 'defaultobject' with 12 faces
g defaultobject
usemtl DefaultMaterial
f  1//1 2//1 3//1
f  2//1 1//1 4//1
f  5//2 6//2 7//2
f  6//2 5//2 8//3
f  1//4 7//4 6//4
f  7//4 1//4 3//5
f  1//6 8//6 4//6
f  8//6 1//6 6//7
f  4//8 5//8 2//8
f  5//8 4//8 8//9
f  3//10 5//10 7//10
f  5//10 3//10 2//11

