# {"id":"BLDG_00030000001a082b","idOriginal":"BLDG_00030000001a082b","origin":[13.409884880069134,52.5260312893412],"elevation":36.7999992370605}
# Longitude: 13.409884880069134
# Latitude: 52.5260312893412
# Elevation: 36.7999992370605

# File produced by Open Asset Import Library (http://www.assimp.sf.net)
# (assimp v3.1.0)

mtllib BLDG_00030000001a082b.obj.mtl

# 8 vertex positions
v  0 0 0
v  12.9292 5.74692e-16 -9.38543
v  10.2153 -1.59133e-16 2.59883
v  2.71393 7.33825e-16 -11.9843
v  0.000422279 19.754 -0.00062489
v  10.2157 19.754 2.59821
v  2.71432 18.3541 -11.9848
v  12.9296 18.3541 -9.38601

# 0 UV coordinates

# 12 vertex normals
vn 0 -1 -6.12323e-17
vn 4.90651e-24 -1 -6.12323e-17
vn -0.246552 3.59355e-05 0.969129
vn -0.246552 3.59172e-05 0.969129
vn -0.975304 1.38622e-05 -0.220865
vn -0.975304 1.38759e-05 -0.220865
vn 0.246552 -3.58878e-05 -0.969129
vn 0.246552 -3.59318e-05 -0.969129
vn 0.975304 -1.38769e-05 0.220865
vn 0.975304 -1.38359e-05 0.220865
vn 0.027918 0.993568 -0.109738
vn 0.027918 0.993568 -0.109738

# Mesh 'defaultobject' with 12 faces
g defaultobject
usemtl DefaultMaterial
f  1//1 2//1 3//1
f  2//1 1//1 4//2
f  3//3 5//3 1//3
f  5//3 3//3 6//4
f  5//5 4//5 1//5
f  4//5 5//5 7//6
f  7//7 2//7 4//7
f  2//7 7//7 8//8
f  2//9 6//9 3//9
f  6//9 2//9 8//10
f  8//11 5//11 6//11
f  5//11 8//11 7//12

