# {"id":"BLDG_0003000b002c599e","idOriginal":"BLDG_0003000b002c599e","origin":[13.39754355344243,52.52971239343166],"elevation":35.5900001525879}
# Longitude: 13.39754355344243
# Latitude: 52.52971239343166
# Elevation: 35.5900001525879

# File produced by Open Asset Import Library (http://www.assimp.sf.net)
# (assimp v3.1.0)

mtllib BLDG_0003000b002c599e.obj.mtl

# 21 vertex positions
v  1.24615 19.8092 4.17086
v  0 0 0
v  1.24573 -2.5543e-16 4.17149
v  0.000423128 19.8092 -0.00062679
v  11.9884 2.18721e-16 -3.57198
v  11.9889 19.8092 -3.57261
v  5.99473 23.9381 -1.78675
v  14.0471 19.8092 3.31979
v  14.0467 -2.03317e-16 3.32042
v  22.0976 -1.70542e-16 2.78516
v  22.098 19.8092 2.78453
v  22.9976 -9.50769e-16 15.5272
v  22.9981 19.8092 15.5266
v  22.5481 23.9381 9.15544
v  17.7957 19.8092 15.8725
v  17.7953 -9.71948e-16 15.8731
v  4.99475 19.8092 16.7236
v  4.99433 -1.02406e-15 16.7242
v  7.64673 23.9381 3.74519
v  15.9215 23.9381 9.59601
v  9.52103 23.9381 10.0215

# 0 UV coordinates

# 33 vertex normals
vn -0.958187 2.9522e-05 0.286143
vn -0.958187 2.95211e-05 0.286143
vn -0.285547 -2.42247e-05 -0.958365
vn -0.285547 -2.42209e-05 -0.958365
vn -0.285547 -2.42247e-05 -0.958365
vn 0.958187 -2.95424e-05 -0.286142
vn -0.0663381 -3.01543e-05 -0.997797
vn 0.997515 -2.35519e-05 -0.0704585
vn 0.997515 -2.35544e-05 -0.0704585
vn 0.997515 -2.34246e-05 -0.0704585
vn 0.0663381 3.01424e-05 0.997797
vn 0.0663382 3.01897e-05 0.997797
vn 0.066338 3.00922e-05 0.997797
vn -0.958187 2.95187e-05 0.286143
vn 1.76502e-24 -1 -6.12323e-17
vn -1.94419e-24 -1 -6.12323e-17
vn -3.08185e-24 -1 -6.12323e-17
vn -7.55145e-24 -1 -6.12323e-17
vn 4.52262e-24 -1 -6.12323e-17
vn -0.527885 0.834557 0.157642
vn -0.527885 0.834557 0.157642
vn 0.5279 0.834547 -0.157646
vn 0.5279 0.834547 -0.157646
vn -0.0360161 0.839786 -0.541721
vn -0.0360161 0.839786 -0.541721
vn 0.0360152 0.839796 0.541706
vn 0.0360151 0.839796 0.541706
vn -0.0360161 0.839786 -0.541721
vn 0.0360151 0.839796 0.541706
vn 0.0360151 0.839796 0.541706
vn -0.527886 0.834557 0.157642
vn -0.527885 0.834557 0.157642
vn 0.5279 0.834547 -0.157646

# Mesh 'defaultobject' with 38 faces
g defaultobject
usemtl DefaultMaterial
f  1//1 2//1 3//1
f  2//1 1//1 4//2
f  4//3 5//3 2//3
f  5//3 4//3 6//4
f  6//4 4//3 7//5
f  5//6 8//6 9//6
f  8//6 5//6 6//6
f  8//7 10//7 9//7
f  10//7 8//7 11//7
f  11//8 12//8 10//8
f  12//8 11//8 13//9
f  13//9 11//8 14//10
f  12//11 15//11 16//11
f  15//11 12//11 13//12
f  16//11 17//13 18//13
f  17//13 16//11 15//11
f  17//14 3//1 18//14
f  3//1 17//14 1//1
f  3//15 5//15 9//15
f  5//15 3//15 2//16
f  10//17 16//17 9//15
f  16//17 10//17 12//18
f  18//19 9//15 16//17
f  9//15 18//19 3//15
f  7//20 1//20 19//20
f  1//20 7//20 4//21
f  6//22 19//22 8//22
f  19//22 6//22 7//23
f  11//24 20//24 14//24
f  20//24 11//24 8//25
f  14//26 15//26 13//26
f  15//26 14//26 20//27
f  20//24 8//25 21//28
f  21//29 15//26 20//27
f  15//26 21//29 17//30
f  17//31 19//20 1//20
f  19//20 17//31 21//32
f  21//33 8//22 19//22

