# {"id":"BLDG_0003000f00416e8f","idOriginal":"BLDG_0003000f00416e8f","origin":[13.40484173904441,52.52707964303968],"elevation":36.810001373291}
# Longitude: 13.40484173904441
# Latitude: 52.52707964303968
# Elevation: 36.810001373291

# File produced by Open Asset Import Library (http://www.assimp.sf.net)
# (assimp v3.1.0)

mtllib BLDG_0003000f00416e8f.obj.mtl

# 51 vertex positions
v  24.1578 8.78929e-16 -14.354
v  26.6345 4.74564e-16 -7.75022
v  22.0651 5.82231e-16 -9.50855
v  28.7272 7.71262e-16 -12.5957
v  13.5083 1.12986e-15 -18.452
v  11.4181 8.33102e-16 -13.6056
v  8.74793 1.24203e-15 -20.2838
v  6.65778 9.45268e-16 -15.4374
v  19.7945 2.60315e-16 -4.25126
v  24.1642 1.24342e-16 -2.03065
v  9.61485 5.77075e-16 -9.42435
v  5.06227 7.18738e-16 -11.7379
v  14.7263 -4.58238e-16 7.4836
v  19.096 -5.94211e-16 9.7042
v  4.55258 -1.41663e-16 2.31353
v  0 0 0
v  28.7277 22.5363 -12.5964
v  22.0656 21.443 -9.50923
v  26.635 22.5363 -7.75093
v  13.5087 22.5363 -18.4527
v  11.4186 21.443 -13.6063
v  24.1583 22.5363 -14.3547
v  6.65826 22.5363 -15.4381
v  8.74841 22.5363 -20.2845
v  24.1646 17.9807 -2.03122
v  26.6349 18.379 -7.7508
v  19.7949 17.9807 -4.25183
v  22.0655 17.9807 -9.50912
v  5.0626 15.5373 -11.7384
v  11.4185 17.5641 -13.6061
v  6.65816 17.5641 -15.438
v  9.61518 15.5373 -9.42484
v  14.7266 15.5373 7.4831
v  21.6305 17.5641 3.83622
v  17.2608 17.5641 1.61561
v  19.0964 15.5373 9.70371
v  19.7948 15.5373 -4.25175
v  24.1646 17.5641 -2.03121
v  9.17606 14.9047 -8.40666
v  19.3552 14.9047 -3.2338
v  6.96686 17.125 -3.28414
v  17.1435 17.125 1.88718
v  4.55291 15.5373 2.31304
v  0.000332032 15.5373 -0.00049152
v  7.08409 17.5641 -3.55597
v  2.53151 17.5641 -5.86949
v  14.7265 8.24452 7.48333
v  19.7948 14.4633 -4.25172
v  17.5092 17.3653 1.04031
v  9.61516 14.4633 -9.42481
v  4.55276 8.24429 2.31327

# 0 UV coordinates

# 74 vertex normals
vn -1.64024e-23 -1 -6.12323e-17
vn 0 -1 -6.12323e-17
vn -7.03775e-24 -1 -6.12323e-17
vn 1.05592e-23 -1 -6.12323e-17
vn -7.87223e-24 -1 -6.12323e-17
vn -3.4739e-24 -1 -6.12323e-17
vn -1.36869e-23 -1 -6.12323e-17
vn 5.15638e-24 -1 -6.12323e-17
vn -8.46591e-24 -1 -6.12323e-17
vn -1.45363e-24 -1 -6.12323e-17
vn 3.25035e-24 -1 -6.12323e-17
vn -0.200216 0.975928 -0.086472
vn -0.0728968 0.979183 0.189437
vn -0.0728969 0.979183 0.189437
vn 0.192585 0.977759 0.0830573
vn -0.0728968 0.979183 0.189437
vn -0.0289584 0.997955 0.0569846
vn -0.074494 0.996702 -0.0321735
vn -0.161496 0.89319 0.41968
vn -0.184528 0.913289 0.363115
vn -0.137188 0.953049 0.269959
vn -0.137188 0.953049 0.269959
vn 0.137191 0.953047 -0.269965
vn -0.351384 0.92385 -0.15176
vn -0.224829 0.86817 0.442418
vn -0.224833 0.868163 0.442429
vn 0.167822 0.928852 -0.330256
vn 0.167823 0.928857 -0.330241
vn -0.114407 0.967588 0.22513
vn -0.114406 0.967587 0.225139
vn -0.137188 0.953049 0.269959
vn -0.137188 0.953049 0.269959
vn 0.137191 0.953046 -0.269965
vn -0.0728968 0.979183 0.189437
vn 0.918037 -7.03186e-06 0.396494
vn 0.918037 -7.07103e-06 0.396495
vn -0.453038 3.77428e-05 0.891491
vn -0.453037 3.87569e-05 0.891491
vn -0.918037 7.02985e-06 -0.396494
vn -0.918037 7.11671e-06 -0.396495
vn 0.918243 -7.07682e-06 0.396016
vn 0.918243 -7.13066e-06 0.396017
vn -0.918243 7.07122e-06 -0.396016
vn -0.918243 7.0831e-06 -0.396017
vn 0.918037 -6.99417e-06 0.396495
vn 0.918037 -7.076e-06 0.396495
vn 0.918037 -7.36211e-06 0.396494
vn -0.453037 3.78928e-05 0.891492
vn -0.453037 3.78553e-05 0.891491
vn 0.918037 -7.1409e-06 0.396495
vn 0.918037 -7.24051e-06 0.396495
vn 0.918037 -6.69083e-06 0.396494
vn 0.918037 -7.06608e-06 0.396494
vn -0.918037 3.98887e-06 -0.396495
vn 0.453037 -3.79123e-05 -0.891491
vn 0.453038 -3.78849e-05 -0.891491
vn -0.453038 3.78649e-05 0.891491
vn -0.918244 6.90996e-06 -0.396016
vn 0.918243 -7.15373e-06 0.396016
vn 0.918243 -7.11313e-06 0.396016
vn -0.453037 3.78854e-05 0.891491
vn -0.918243 7.09495e-06 -0.396017
vn -0.918243 7.06739e-06 -0.396016
vn 0.359135 -3.72012e-05 -0.933286
vn 0.359135 -3.72316e-05 -0.933286
vn 0.918037 -7.11963e-06 0.396494
vn 0.918037 -7.11161e-06 0.396494
vn -0.359135 3.72433e-05 0.933286
vn -0.359135 3.71554e-05 0.933286
vn 0.359135 -3.72164e-05 -0.933286
vn -0.359135 3.71921e-05 0.933286
vn -0.359135 3.71898e-05 0.933286
vn -0.918243 7.08784e-06 -0.396017
vn 0.359135 -3.72164e-05 -0.933286

# Mesh 'defaultobject' with 88 faces
g defaultobject
usemtl DefaultMaterial
f  1//1 2//1 3//1
f  2//1 1//1 4//2
f  3//1 5//3 1//1
f  5//3 3//1 6//4
f  7//5 6//4 8//5
f  6//4 7//5 5//3
f  9//6 2//1 10//6
f  2//1 9//6 3//1
f  11//7 8//5 6//4
f  8//5 11//7 12//8
f  13//9 10//6 14//9
f  10//6 13//9 9//6
f  9//6 15//10 11//7
f  15//10 9//6 13//9
f  16//11 11//7 15//10
f  11//7 16//11 12//8
f  17//12 18//12 19//12
f  18//13 20//13 21//13
f  20//13 18//13 22//14
f  23//15 21//15 24//15
f  24//16 21//13 20//13
f  25//17 26//17 27//17
f  27//18 26//18 28//18
f  29//19 30//19 31//19
f  30//20 29//20 32//20
f  33//21 34//21 35//21
f  34//21 33//21 36//22
f  34//23 37//23 35//23
f  34//24 38//24 37//24
f  37//25 39//25 40//25
f  39//26 37//26 32//26
f  40//27 41//27 42//27
f  41//28 40//28 39//28
f  42//29 43//29 33//29
f  43//29 42//29 41//30
f  44//31 45//31 46//31
f  45//31 44//31 43//32
f  46//33 32//33 29//33
f  32//33 46//33 45//33
f  18//13 17//34 22//14
f  2//35 25//35 10//35
f  25//35 2//35 26//36
f  38//37 27//37 37//37
f  27//37 38//37 25//38
f  27//39 3//39 9//39
f  3//39 27//39 28//40
f  6//41 32//41 11//41
f  32//41 6//41 30//42
f  29//43 8//43 12//43
f  8//43 29//43 31//44
f  38//45 14//45 10//35
f  14//45 38//45 36//46
f  36//46 38//45 34//47
f  14//48 33//48 13//48
f  33//48 14//48 36//49
f  47//50 40//50 33//50
f  42//51 33//50 40//50
f  42//51 48//52 49//52
f  37//53 49//52 48//52
f  49//54 33//54 35//54
f  32//55 9//55 11//55
f  9//55 32//55 37//56
f  13//48 43//57 15//57
f  43//57 13//48 33//48
f  50//58 39//58 32//58
f  45//59 51//59 32//41
f  51//59 45//59 43//60
f  15//57 44//61 16//61
f  44//61 15//57 43//57
f  44//62 12//43 16//62
f  12//43 44//62 29//43
f  29//43 44//62 46//63
f  22//64 4//64 1//64
f  4//64 22//64 17//65
f  4//66 19//66 2//35
f  19//66 4//66 17//67
f  26//68 18//68 28//68
f  18//68 26//68 19//69
f  20//70 1//64 5//70
f  1//64 20//70 22//64
f  3//71 21//71 6//71
f  21//71 3//71 18//68
f  30//72 23//72 31//72
f  23//72 30//72 21//71
f  23//73 7//73 8//43
f  7//73 23//73 24//73
f  24//74 5//70 7//74
f  5//70 24//74 20//70

