# {"id":"BLDG_00030009007ef036","idOriginal":"BLDG_00030009007ef036","origin":[13.39869814901201,52.54225587213041],"elevation":45.810001373291}
# Longitude: 13.39869814901201
# Latitude: 52.54225587213041
# Elevation: 45.810001373291

# File produced by Open Asset Import Library (http://www.assimp.sf.net)
# (assimp v3.1.0)

mtllib BLDG_00030009007ef036.obj.mtl

# 50 vertex positions
v  0.732742 15.227 0.289311
v  0.694835 15.227 -1.76568
v  0.000325286 15.227 -0.0004822
v  2.07349 15.227 0.820765
v  8.29406 15.227 3.28697
v  1.89685 15.227 -4.8175
v  1.17729 15.227 -6.4668
v  6.97797 15.227 -8.99719
v  8.85085 15.227 3.50751
v  9.55843 15.227 3.78767
v  10.7852 15.227 0.693603
v  7.3372 15.227 -8.17133
v  23.1588 15.227 -4.6979
v  9.92289 15.227 -9.32136
v  9.81079 15.227 -9.57799
v  10.1117 15.227 -10.3632
v  12.6533 15.227 -10.512
v  11.7613 15.227 -11.0831
v  15.315 15.227 -11.6624
v  14.9596 15.227 -12.4778
v  22.8452 15.227 -5.45027
v  19.155 15.227 -14.3082
v  19.418 15.227 -13.677
v  19.7977 15.227 -12.7672
v  12.5413 15.227 -10.7692
v  0.69451 1.08087e-16 -1.7652
v  0.732417 -1.77447e-17 0.289794
v  0 0 0
v  2.07317 -5.02869e-17 0.821248
v  8.29374 -2.01298e-16 3.28745
v  1.89652 2.94957e-16 -4.81702
v  8.85052 -2.14802e-16 3.50799
v  9.5581 -2.31958e-16 3.78816
v  10.7849 -4.25005e-17 0.694086
v  1.17697 3.95948e-16 -6.46632
v  6.97764 5.50889e-16 -8.9967
v  7.33688 5.0032e-16 -8.17084
v  12.5409 6.59395e-16 -10.7687
v  12.653 6.43643e-16 -10.5115
v  11.7609 6.78615e-16 -11.0826
v  23.1585 2.87634e-16 -4.69742
v  9.92257 5.70739e-16 -9.32088
v  9.81046 5.86453e-16 -9.57751
v  10.1114 6.34534e-16 -10.3627
v  15.3147 7.14086e-16 -11.6619
v  14.9592 7.64016e-16 -12.4773
v  22.8449 3.33703e-16 -5.44978
v  19.1547 8.76095e-16 -14.3077
v  19.4177 8.37447e-16 -13.6766
v  19.7973 7.81734e-16 -12.7667

# 0 UV coordinates

# 62 vertex normals
vn 0 1 0
vn -1.77159e-23 -1 -6.12323e-17
vn 0 -1 -6.12323e-17
vn 2.08602e-24 -1 -6.12323e-17
vn 0 -1 -6.12323e-17
vn -8.53421e-24 -1 -6.12323e-17
vn 1.34286e-23 -1 -6.12323e-17
vn 3.09025e-24 -1 -6.12323e-17
vn 0 -1 -6.12323e-17
vn 6.43183e-24 -1 -6.12323e-17
vn 0 -1 -6.12318e-17
vn 2.27472e-22 -1 -6.12327e-17
vn 3.89596e-24 -1 -6.12324e-17
vn 3.67839e-23 -1 -6.12324e-17
vn -3.54417e-23 -1 -6.12322e-17
vn 1.53666e-23 -1 -6.12324e-17
vn 5.40163e-23 -1 -6.12324e-17
vn 1.41977e-23 -1 -6.12324e-17
vn -1.79068e-18 -1 -5.99879e-17
vn -8.39488e-20 -1 -6.11777e-17
vn 0.929593 -8.18067e-06 0.368587
vn 0.929593 -8.18537e-06 0.368587
vn 0.399453 2.04914e-05 0.916753
vn 0.399454 2.04914e-05 0.916753
vn 0.923008 -3.19648e-05 -0.384781
vn 0.92313 -3.18281e-05 -0.384488
vn 0.92313 -3.19545e-05 -0.384488
vn 0.922882 -3.19699e-05 -0.385082
vn 0.922881 -3.1831e-05 -0.385084
vn 0.923087 -3.19359e-05 -0.384591
vn 0.923087 -3.19602e-05 -0.38459
vn -0.399879 -2.04817e-05 -0.916568
vn -0.399878 -2.04243e-05 -0.916568
vn -0.916682 3.22419e-05 0.399618
vn -0.916682 3.22993e-05 0.399617
vn -0.396744 -2.05594e-05 -0.917929
vn -0.396744 -2.06169e-05 -0.917929
vn 0.916744 -3.22391e-05 -0.399475
vn 0.916744 -3.22139e-05 -0.399476
vn 0.373336 -3.73149e-05 -0.927696
vn 0.373335 -3.7373e-05 -0.927696
vn -0.399979 -2.05033e-05 -0.916524
vn -0.399979 -2.04459e-05 -0.916524
vn -0.916382 3.22573e-05 0.400305
vn -0.406387 -2.02642e-05 -0.913701
vn -0.406387 -2.02769e-05 -0.913701
vn 0.917001 -3.22242e-05 -0.398884
vn 0.917001 -3.22525e-05 -0.398884
vn -0.399836 -2.04765e-05 -0.916587
vn -0.399836 -2.05083e-05 -0.916587
vn -0.916568 3.22352e-05 0.399879
vn -0.916568 3.22424e-05 0.399879
vn -0.930431 8.27343e-06 -0.366466
vn -0.930431 8.26901e-06 -0.366466
vn -0.930565 8.28486e-06 -0.366127
vn -0.930565 8.28703e-06 -0.366127
vn -0.933784 8.6026e-06 -0.357837
vn -0.367915 3.73059e-05 0.929859
vn -0.368492 3.73082e-05 0.929631
vn -0.368551 3.73072e-05 0.929607
vn -0.368258 3.73003e-05 0.929724
vn -0.368144 3.72988e-05 0.929769

# Mesh 'defaultobject' with 96 faces
g defaultobject
usemtl DefaultMaterial
f  1//1 2//1 3//1
f  2//1 1//1 4//1
f  2//1 4//1 5//1
f  2//1 5//1 6//1
f  6//1 5//1 7//1
f  7//1 5//1 8//1
f  8//1 5//1 9//1
f  8//1 9//1 10//1
f  8//1 10//1 11//1
f  8//1 11//1 12//1
f  13//1 12//1 11//1
f  12//1 13//1 14//1
f  14//1 13//1 15//1
f  15//1 13//1 16//1
f  16//1 13//1 17//1
f  16//1 17//1 18//1
f  17//1 13//1 19//1
f  19//1 13//1 20//1
f  20//1 13//1 21//1
f  20//1 21//1 22//1
f  22//1 21//1 23//1
f  23//1 21//1 24//1
f  25//1 18//1 17//1
f  26//2 27//2 28//2
f  27//2 26//2 29//3
f  29//3 26//2 30//4
f  30//4 26//2 31//5
f  30//4 31//5 32//6
f  32//6 31//5 33//7
f  33//7 31//5 34//8
f  34//8 31//5 35//9
f  34//8 35//9 36//10
f  34//8 36//10 37//11
f  38//12 39//12 40//12
f  37//11 41//3 34//8
f  41//3 37//11 42//13
f  41//3 42//13 43//14
f  41//3 43//14 44//15
f  41//3 44//15 39//12
f  39//12 44//15 40//12
f  41//3 39//12 45//16
f  41//3 45//16 46//17
f  41//3 46//17 47//18
f  47//18 46//17 48//3
f  47//18 48//3 49//19
f  47//18 49//19 50//20
f  10//21 34//21 11//21
f  34//21 10//21 33//22
f  11//23 41//23 13//23
f  41//23 11//23 34//24
f  13//25 47//25 21//25
f  47//25 13//25 41//25
f  21//26 50//26 24//26
f  50//26 21//26 47//27
f  24//28 49//28 23//28
f  49//28 24//28 50//29
f  23//30 48//30 22//30
f  48//30 23//30 49//31
f  20//32 48//32 46//32
f  48//32 20//32 22//33
f  19//34 46//34 45//34
f  46//34 19//34 20//35
f  17//36 45//36 39//36
f  45//36 17//36 19//37
f  17//38 38//38 25//38
f  38//38 17//38 39//39
f  18//40 38//40 40//40
f  38//40 18//40 25//41
f  16//42 40//42 44//42
f  40//42 16//42 18//43
f  14//44 43//44 42//44
f  43//44 14//44 15//44
f  12//45 42//45 37//45
f  42//45 12//45 14//46
f  12//47 36//47 8//47
f  36//47 12//47 37//48
f  7//49 36//49 35//49
f  36//49 7//49 8//50
f  6//51 35//51 31//51
f  35//51 6//51 7//52
f  2//53 31//53 26//53
f  31//53 2//53 6//54
f  3//55 26//55 28//55
f  26//55 3//55 2//56
f  15//57 44//57 43//57
f  44//57 15//57 16//57
f  3//58 27//58 1//58
f  27//58 3//58 28//58
f  1//59 29//59 4//59
f  29//59 1//59 27//59
f  4//60 30//60 5//60
f  30//60 4//60 29//60
f  5//61 32//61 9//61
f  32//61 5//61 30//61
f  9//62 33//62 10//62
f  33//62 9//62 32//62

