# {"id":"BLDG_0003000b00099ae6","idOriginal":"BLDG_0003000b00099ae6","origin":[13.356490833691417,52.53532659632303],"elevation":36.8800010681152}
# Longitude: 13.356490833691417
# Latitude: 52.53532659632303
# Elevation: 36.8800010681152

# File produced by Open Asset Import Library (http://www.assimp.sf.net)
# (assimp v3.1.0)

mtllib BLDG_0003000b00099ae6.obj.mtl

# 8 vertex positions
v  9.57889 22.4946 12.1603
v  0 0 0
v  9.57841 -7.44644e-16 12.161
v  0.00047924 22.4946 -0.00071206
v  15.2342 7.54219e-16 -12.3173
v  15.2347 22.4946 -12.3181
v  24.8131 22.4946 -0.157087
v  24.8126 9.5752e-18 -0.156375

# 0 UV coordinates

# 10 vertex normals
vn -0.785585 3.62888e-05 0.618754
vn -0.785585 3.63232e-05 0.618754
vn -0.628733 -1.12205e-05 -0.777622
vn -0.628733 -1.12459e-05 -0.777622
vn 0.785585 -3.63702e-05 -0.618754
vn 0.785585 -3.63044e-05 -0.618754
vn 0.628733 1.12185e-05 0.777622
vn 0.628733 1.11839e-05 0.777622
vn 0 1 0
vn 0 -1 -6.12323e-17

# Mesh 'defaultobject' with 12 faces
g defaultobject
usemtl DefaultMaterial
f  1//1 2//1 3//1
f  2//1 1//1 4//2
f  4//3 5//3 2//3
f  5//3 4//3 6//4
f  5//5 7//5 8//5
f  7//5 5//5 6//6
f  8//7 1//7 3//7
f  1//7 8//7 7//8
f  7//9 4//9 1//9
f  4//9 7//9 6//9
f  2//10 8//10 3//10
f  8//10 2//10 5//10

