# {"id":"BLDG_00030009007ad18a","idOriginal":"BLDG_00030009007ad18a","origin":[13.319876706855498,52.52531950727964],"elevation":32.5900001525879}
# Longitude: 13.319876706855498
# Latitude: 52.52531950727964
# Elevation: 32.5900001525879

# File produced by Open Asset Import Library (http://www.assimp.sf.net)
# (assimp v3.1.0)

mtllib BLDG_00030009007ad18a.obj.mtl

# 24 vertex positions
v  7.29601 20.2173 -11.6107
v  1.20551 22.1891 -12.1869
v  0.000471613 22.1891 -0.00070195
v  2.61544 22.1891 -26.445
v  3.9148 22.1891 -39.5849
v  8.40224 20.2173 -26.4326
v  20.718 22.1891 -39.549
v  19.6901 20.2173 -26.4085
v  9.38302 22.1891 -39.5732
v  18.4502 20.2173 -10.5557
v  6.38448 22.1891 0.603137
v  17.4953 22.1891 1.65406
v  19.6897 1.61701e-15 -26.4079
v  8.4018 1.61849e-15 -26.4319
v  18.4498 6.4631e-16 -10.555
v  7.29559 7.10912e-16 -11.6101
v  17.4948 -1.01325e-16 1.65476
v  1.20504 7.46187e-16 -12.1862
v  0 0 0
v  2.61497 1.61924e-15 -26.4443
v  3.91433 2.42383e-15 -39.5842
v  20.7175 2.42164e-15 -39.5483
v  9.38255 2.42312e-15 -39.5725
v  6.38401 -3.69744e-17 0.603839

# 0 UV coordinates

# 41 vertex normals
vn 0.305279 0.951784 0.0301878
vn 0.305279 0.951784 0.0301879
vn 0.305279 0.951784 0.0301879
vn 0.339053 0.940427 0.025305
vn -0.000316349 0.988932 0.148366
vn -0.000316365 0.988932 0.148366
vn -0.000316397 0.988932 0.148366
vn 0.0149698 0.987283 -0.158266
vn 0.0149698 0.987283 -0.158266
vn 0.0149698 0.987283 -0.158266
vn -0.00213226 3.16499e-05 0.999998
vn -0.00213226 3.165e-05 0.999998
vn 0.0941658 -3.34653e-05 -0.995557
vn 0.0941658 -3.34631e-05 -0.995557
vn 0.996955 -1.86978e-05 0.0779767
vn 0.996955 -1.86957e-05 0.0779767
vn 0.997226 -1.88392e-05 0.0744274
vn 0.997226 -1.88646e-05 0.0744275
vn -0.995146 1.8038e-05 -0.0984063
vn -0.995146 1.80585e-05 -0.0984063
vn -0.995146 1.8085e-05 -0.0984063
vn -0.995146 1.79701e-05 -0.0984063
vn -0.995146 1.80225e-05 -0.0984063
vn -0.995146 1.80373e-05 -0.0984063
vn 0.00213233 -3.16782e-05 -0.999998
vn 0.0021326 -3.15439e-05 -0.999998
vn 0.00213242 -3.16781e-05 -0.999998
vn 1.32481e-19 -1 -1.23341e-16
vn -0.0941658 3.3497e-05 0.995557
vn -0.0941658 3.34955e-05 0.995557
vn -0.0941659 3.34967e-05 0.995557
vn -0.0941658 3.34958e-05 0.995557
vn 0.996955 -1.87924e-05 0.0779767
vn 0.996955 -1.87888e-05 0.0779767
vn 0 -1 -6.12323e-17
vn 2.12e-24 -1 -6.12323e-17
vn -3.93624e-24 -1 -6.12323e-17
vn 6.93889e-18 1 5.55112e-17
vn 2.27435e-23 -1 -6.12324e-17
vn -5.70957e-24 -1 -6.12323e-17
vn -1.11372e-23 -1 -6.12323e-17

# Mesh 'defaultobject' with 88 faces
g defaultobject
usemtl DefaultMaterial
f  1//1 2//1 3//1
f  2//1 1//1 4//2
f  4//2 1//1 5//3
f  5//4 1//4 6//4
f  7//5 6//5 8//5
f  6//5 7//5 9//6
f  6//5 9//6 5//7
f  10//8 11//8 12//8
f  11//8 10//8 3//9
f  3//9 10//8 1//10
f  1//1 2//1 3//1
f  2//1 1//1 4//2
f  4//2 1//1 5//3
f  5//4 1//4 6//4
f  7//5 6//5 8//5
f  6//5 7//5 9//6
f  6//5 9//6 5//7
f  10//8 11//8 12//8
f  11//8 10//8 3//9
f  3//9 10//8 1//10
f  13//11 6//11 14//11
f  6//11 13//11 8//12
f  1//13 15//13 16//13
f  15//13 1//13 10//14
f  15//15 12//15 17//15
f  12//15 15//15 10//16
f  14//17 1//17 16//17
f  1//17 14//17 6//18
f  3//19 18//19 19//19
f  18//19 3//19 20//20
f  20//20 3//19 21//21
f  21//21 3//19 2//22
f  21//21 2//22 4//23
f  21//21 4//23 5//24
f  22//25 9//25 7//25
f  9//25 22//25 5//26
f  5//26 22//25 21//27
f  21//28 22//28 23//28
f  12//29 24//29 17//29
f  24//29 12//29 19//30
f  19//30 12//29 11//31
f  19//30 11//31 3//32
f  22//33 8//33 13//33
f  8//33 22//33 7//34
f  13//11 6//11 14//11
f  6//11 13//11 8//12
f  1//13 15//13 16//13
f  15//13 1//13 10//14
f  15//15 12//15 17//15
f  12//15 15//15 10//16
f  14//17 1//17 16//17
f  1//17 14//17 6//18
f  3//19 18//19 19//19
f  18//19 3//19 20//20
f  20//20 3//19 21//21
f  21//21 3//19 2//22
f  21//21 2//22 4//23
f  21//21 4//23 5//24
f  22//25 9//25 7//25
f  9//25 22//25 5//26
f  5//26 22//25 21//27
f  21//28 22//28 23//28
f  12//29 24//29 17//29
f  24//29 12//29 19//30
f  19//30 12//29 11//31
f  19//30 11//31 3//32
f  22//33 8//33 13//33
f  8//33 22//33 7//34
f  17//35 16//35 15//35
f  16//35 17//35 18//36
f  18//36 17//35 19//37
f  19//38 17//38 24//38
f  13//39 23//28 22//28
f  23//28 13//39 21//28
f  21//28 13//39 14//40
f  21//28 14//40 20//41
f  20//41 14//40 16//35
f  20//41 16//35 18//36
f  17//35 16//35 15//35
f  16//35 17//35 18//36
f  18//36 17//35 19//37
f  19//38 17//38 24//38
f  13//39 23//28 22//28
f  23//28 13//39 21//28
f  21//28 13//39 14//40
f  21//28 14//40 20//41
f  20//41 14//40 16//35
f  20//41 16//35 18//36

