# {"id":"BLDG_0003000b00373d83","idOriginal":"BLDG_0003000b00373d83","origin":[13.320126615326613,52.525308448872515],"elevation":30.6700000762939}
# Longitude: 13.320126615326613
# Latitude: 52.525308448872515
# Elevation: 30.6700000762939

# File produced by Open Asset Import Library (http://www.assimp.sf.net)
# (assimp v3.1.0)

mtllib BLDG_0003000b00373d83.obj.mtl

# 50 vertex positions
v  11.0823 -7.62939e-08 1.04923
v  13.8519 1.72183e-15 -28.1196
v  16.958 -9.83102e-17 1.60553
v  12.2411 -7.62939e-08 -11.1554
v  0.956087 -7.62939e-08 -12.2239
v  0 -7.62939e-08 -4.67165e-24
v  0.702693 -7.62939e-08 -8.98414
v  0.293937 -7.62939e-08 -3.75807
v  20.7224 2.32929e-15 -38.0401
v  15.089 2.51961e-15 -41.1483
v  21.0163 2.51882e-15 -41.1354
v  19.9777 1.84902e-15 -30.1967
v  19.7792 1.72104e-15 -28.1067
v  18.1169 6.4901e-16 -10.5991
v  17.8097 4.50946e-16 -7.3645
v  3.22043 2.52119e-15 -41.1741
v  17.3143 1.31444e-16 -2.14665
v  2.20135 1.72338e-15 -28.1449
v  2.97728 2.33084e-15 -38.0655
v  2.36553 1.85191e-15 -30.244
v  12.2416 21.78 -11.1561
v  11.9345 23.47 -7.92154
v  17.8102 23.47 -7.36525
v  0.703191 23.47 -8.98488
v  0.95655 21.78 -12.2245
v  11.4391 23.86 -2.7037
v  17.3148 23.86 -2.1474
v  0.294444 23.86 -3.75883
v  11.0827 21.78 1.04854
v  16.9585 21.78 1.60484
v  0.000462926 21.78 -0.00068901
v  19.9782 23.84 -30.1975
v  13.8524 21.78 -28.1202
v  19.7797 24.09 -28.1074
v  14.0509 23.84 -30.2104
v  14.0517 23.84 -30.2194
v  14.7956 24.57 -38.0538
v  20.723 24.57 -38.0409
v  15.0895 21.78 -41.149
v  21.0168 21.78 -41.1361
v  18.1174 24.09 -10.5999
v  2.36604 23.84 -30.2448
v  2.20181 21.78 -28.1456
v  2.9778 24.57 -38.0662
v  14.7944 24.57 -38.0405
v  3.22089 21.78 -41.1748
v  14.0512 1.85036e-15 -30.2186
v  14.0504 1.84981e-15 -30.2096
v  14.7951 2.33008e-15 -38.053
v  14.7938 2.32926e-15 -38.0398

# 0 UV coordinates

# 87 vertex normals
vn 1.31143e-08 -1 -1.37038e-09
vn 0.0406483 -0.999166 0.0038596
vn -0 -1 0
vn -2.5964e-23 -1 -6.12323e-17
vn -1.36618e-23 -1 -6.12323e-17
vn -2.05074e-22 -1 -6.12323e-17
vn 4.89641e-23 -1 -6.12323e-17
vn 0 -1 -6.12323e-17
vn 5.87234e-24 -1 -6.12323e-17
vn 1.09526e-22 -1 -6.12323e-17
vn 0 -1 -6.12323e-17
vn -1.77636e-16 -1 -7.21645e-17
vn 0 1 5.55112e-17
vn 0.043494 0.887166 -0.459396
vn 0.043494 0.887166 -0.459396
vn 0.043494 0.887166 -0.459396
vn 0.0069941 0.997243 -0.0738736
vn 0.00699409 0.997243 -0.0738736
vn 0.0069941 0.997243 -0.0738736
vn 0.00699409 0.997243 -0.0738736
vn -0.0455406 0.87553 0.481013
vn -0.0455407 0.87553 0.481013
vn -0.0455406 0.87553 0.481013
vn -0.0455406 0.87553 0.481013
vn -0.35904 0.922086 -0.144384
vn -0.00152634 0.712294 0.70188
vn 0 1 0
vn -0.00034212 0.99569 0.0927439
vn -0.000201485 0.995699 0.0926519
vn 0.00145584 0.742847 -0.669459
vn 0.00145627 0.742847 -0.66946
vn -0.362836 0.931216 -0.0344517
vn -0.362836 0.931216 -0.0344517
vn -0.373734 0.916871 0.140253
vn -0.00152321 0.713795 0.700353
vn -0.0015231 0.713796 0.700352
vn -0.000202076 0.995674 0.0929133
vn -0.000202079 0.995674 0.0929133
vn 0.00145241 0.744271 -0.667876
vn 0.00145255 0.744271 -0.667876
vn 0.995522 -1.83646e-05 0.0945262
vn 0.995522 -1.81178e-05 0.0945262
vn 0.995522 -1.78218e-05 0.0945255
vn 0.995522 -1.81166e-05 0.0945261
vn 0.995522 -1.835e-05 0.0945262
vn 0.995522 -1.81381e-05 0.0945261
vn 0.995522 -1.81619e-05 0.0945261
vn 0.995522 -1.8211e-05 0.0945261
vn 0 1 6.66134e-17
vn 0 1 3.70074e-17
vn 0 1 7.40149e-17
vn -0.995525 5.0684e-05 -0.0944945
vn -0.995522 1.81507e-05 -0.0945261
vn -0.995522 1.81977e-05 -0.0945261
vn -0.995522 1.80964e-05 -0.0945261
vn -0.995522 1.81618e-05 -0.0945261
vn -0.995522 1.81873e-05 -0.0945261
vn -1.22125e-15 1 -6.93889e-17
vn 3.10862e-16 -1 -3.33067e-17
vn 1.11022e-16 -1 -4.85723e-17
vn 1.77636e-15 1 2.22045e-16
vn 0.995522 -1.80105e-05 0.0945261
vn 0.995522 -1.81467e-05 0.0945262
vn 0.995522 -1.81884e-05 0.0945261
vn 0.995522 -1.81539e-05 0.0945261
vn -1.5592e-15 -1 -2.09301e-16
vn -2.98233e-16 1 3.29249e-17
vn -0.996955 1.86475e-05 -0.0779767
vn -0.996955 1.87212e-05 -0.0779767
vn -0.996955 1.87087e-05 -0.0779767
vn -0.996955 1.87286e-05 -0.0779767
vn 2.96059e-16 1 5.55112e-17
vn 4.22942e-17 -1 -5.81545e-17
vn 0.00217529 -3.15724e-05 -0.999998
vn 0.00217467 -3.17408e-05 -0.999998
vn 0.00217466 -3.17477e-05 -0.999998
vn -0.996955 1.86904e-05 -0.0779766
vn -0.996955 1.86856e-05 -0.0779766
vn -0.996955 1.87236e-05 -0.0779766
vn -0.996955 1.87231e-05 -0.0779766
vn -0.094255 3.35008e-05 0.995548
vn -0.094255 3.34974e-05 0.995548
vn -0.094255 3.35039e-05 0.995548
vn -0.094255 3.34975e-05 0.995548
vn -0.00217476 3.16602e-05 0.999998
vn 0.0942551 -3.34765e-05 -0.995548
vn 0.094255 -3.35226e-05 -0.995548

# Mesh 'defaultobject' with 204 faces
g defaultobject
usemtl DefaultMaterial
f  1//1 2//1 3//1
f  2//2 1//2 4//2
f  4//3 1//1 5//3
f  5//3 1//1 6//3
f  5//3 6//3 7//3
f  7//3 6//3 8//3
f  9//4 10//4 11//4
f  10//4 9//4 12//5
f  10//4 12//5 13//6
f  10//4 13//6 14//7
f  10//4 14//7 15//8
f  10//4 15//8 2//1
f  10//4 2//1 16//9
f  2//1 15//8 17//10
f  2//1 17//10 3//1
f  16//9 2//1 18//11
f  16//9 18//11 19//12
f  19//13 18//13 20//13
f  1//1 2//1 3//1
f  2//2 1//2 4//2
f  4//3 1//1 5//3
f  5//3 1//1 6//3
f  5//3 6//3 7//3
f  7//3 6//3 8//3
f  9//4 10//4 11//4
f  10//4 9//4 12//5
f  10//4 12//5 13//6
f  10//4 13//6 14//7
f  10//4 14//7 15//8
f  10//4 15//8 2//1
f  10//4 2//1 16//9
f  2//1 15//8 17//10
f  2//1 17//10 3//1
f  16//9 2//1 18//11
f  16//9 18//11 19//12
f  19//13 18//13 20//13
f  21//14 22//14 23//14
f  22//14 21//14 24//15
f  24//15 21//14 25//16
f  23//17 26//17 27//17
f  26//17 23//17 22//18
f  26//17 22//18 28//19
f  28//19 22//18 24//20
f  27//21 29//21 30//21
f  29//21 27//21 26//22
f  29//21 26//22 31//23
f  31//23 26//22 28//24
f  32//25 33//25 34//25
f  32//26 35//26 33//26
f  32//27 36//27 35//27
f  36//28 32//28 37//28
f  37//29 32//29 38//29
f  38//30 39//30 37//30
f  39//30 38//30 40//31
f  33//32 41//32 34//32
f  41//32 33//32 21//33
f  23//34 41//34 21//34
f  42//35 33//35 36//35
f  33//35 42//35 43//36
f  44//37 36//37 45//37
f  36//37 44//37 42//38
f  46//39 45//39 39//39
f  45//39 46//39 44//40
f  21//14 22//14 23//14
f  22//14 21//14 24//15
f  24//15 21//14 25//16
f  23//17 26//17 27//17
f  26//17 23//17 22//18
f  26//17 22//18 28//19
f  28//19 22//18 24//20
f  27//21 29//21 30//21
f  29//21 27//21 26//22
f  29//21 26//22 31//23
f  31//23 26//22 28//24
f  32//25 33//25 34//25
f  32//26 35//26 33//26
f  32//27 36//27 35//27
f  36//28 32//28 37//28
f  37//29 32//29 38//29
f  38//30 39//30 37//30
f  39//30 38//30 40//31
f  33//32 41//32 34//32
f  41//32 33//32 21//33
f  23//34 41//34 21//34
f  42//35 33//35 36//35
f  33//35 42//35 43//36
f  44//37 36//37 45//37
f  36//37 44//37 42//38
f  46//39 45//39 39//39
f  45//39 46//39 44//40
f  32//41 40//41 38//41
f  40//41 32//41 11//42
f  11//42 32//41 34//43
f  11//42 34//43 41//44
f  11//42 41//44 23//45
f  11//42 23//45 27//46
f  11//42 27//46 30//47
f  11//42 30//47 3//48
f  11//4 3//1 9//4
f  9//49 3//49 12//49
f  12//5 3//1 13//6
f  13//50 3//49 14//50
f  14//7 3//1 15//8
f  15//51 3//49 17//51
f  36//52 33//52 35//52
f  33//53 36//53 37//53
f  33//53 4//54 21//54
f  4//54 33//53 37//53
f  4//54 37//53 39//55
f  4//54 39//55 2//56
f  2//56 39//55 10//57
f  2//58 10//58 47//58
f  2//1 47//59 48//59
f  47//59 10//4 49//60
f  47//58 49//61 50//61
f  36//62 39//62 45//62
f  39//62 36//62 33//63
f  39//62 33//63 10//64
f  10//64 33//63 2//65
f  10//58 2//58 49//61
f  49//60 2//1 50//66
f  50//66 2//1 47//59
f  47//58 2//58 48//67
f  46//68 42//68 44//68
f  42//68 46//68 43//69
f  43//69 46//68 16//70
f  43//69 16//70 18//71
f  18//13 16//72 19//13
f  18//11 19//12 20//73
f  11//74 39//74 40//74
f  39//74 11//74 46//75
f  46//75 11//74 16//76
f  16//9 11//4 10//4
f  24//77 31//77 28//77
f  31//77 24//77 25//78
f  31//77 25//78 5//79
f  31//77 5//79 6//80
f  6//3 5//3 7//3
f  6//27 7//27 8//27
f  30//81 1//81 3//81
f  1//81 30//81 6//82
f  6//82 30//81 29//83
f  6//82 29//83 31//84
f  2//85 43//85 18//85
f  43//85 2//85 33//85
f  25//86 4//86 5//86
f  4//86 25//86 21//87
f  32//41 40//41 38//41
f  40//41 32//41 11//42
f  11//42 32//41 34//43
f  11//42 34//43 41//44
f  11//42 41//44 23//45
f  11//42 23//45 27//46
f  11//42 27//46 30//47
f  11//42 30//47 3//48
f  11//4 3//1 9//4
f  9//49 3//49 12//49
f  12//5 3//1 13//6
f  13//50 3//49 14//50
f  14//7 3//1 15//8
f  15//51 3//49 17//51
f  36//52 33//52 35//52
f  33//53 36//53 37//53
f  33//53 4//54 21//54
f  4//54 33//53 37//53
f  4//54 37//53 39//55
f  4//54 39//55 2//56
f  2//56 39//55 10//57
f  2//58 10//58 47//58
f  2//1 47//59 48//59
f  47//59 10//4 49//60
f  47//58 49//61 50//61
f  36//62 39//62 45//62
f  39//62 36//62 33//63
f  39//62 33//63 10//64
f  10//64 33//63 2//65
f  10//58 2//58 49//61
f  49//60 2//1 50//66
f  50//66 2//1 47//59
f  47//58 2//58 48//67
f  46//68 42//68 44//68
f  42//68 46//68 43//69
f  43//69 46//68 16//70
f  43//69 16//70 18//71
f  18//13 16//72 19//13
f  18//11 19//12 20//73
f  11//74 39//74 40//74
f  39//74 11//74 46//75
f  46//75 11//74 16//76
f  16//9 11//4 10//4
f  24//77 31//77 28//77
f  31//77 24//77 25//78
f  31//77 25//78 5//79
f  31//77 5//79 6//80
f  6//27 5//3 7//27
f  6//27 7//27 8//27
f  30//81 1//81 3//81
f  1//81 30//81 6//82
f  6//82 30//81 29//83
f  6//82 29//83 31//84
f  2//85 43//85 18//85
f  43//85 2//85 33//85
f  25//86 4//86 5//86
f  4//86 25//86 21//87

