# {"id":"BLDG_0003000b002ea241","idOriginal":"BLDG_0003000b002ea241","origin":[13.328023540313074,52.53306202584839],"elevation":38.939998626709}
# Longitude: 13.328023540313074
# Latitude: 52.53306202584839
# Elevation: 38.939998626709

# File produced by Open Asset Import Library (http://www.assimp.sf.net)
# (assimp v3.1.0)

mtllib BLDG_0003000b002ea241.obj.mtl

# 26 vertex positions
v  -10.7331 3.21609e-16 -5.25228
v  -4.44064 1.12626e-16 -1.83932
v  -10.7996 1.07758e-16 -1.75982
v  -4.46607 3.26408e-16 -5.33064
v  2.95185 -0.899999 -3.86221
v  -4.47251 -0.899998 -18.2062
v  2.85347 -0.899998 -18.2767
v  2.9786 -0.899999 0.0566758
v  -4.47362 -0.899998 -1.76737
v  0 -0.899999 -5.5109e-17
v  0.189765 -0.899998 4.91333
v  -15.9179 -0.899998 9.44176
v  -18.0011 -0.899998 2.04894
v  -10.7995 3.34312 -1.75992
v  -10.7331 3.34312 -5.25239
v  -4.466 3.34312 -5.33075
v  -4.44057 3.34312 -1.83943
v  2.85366 7.82612 -18.277
v  2.95204 7.82612 -3.86248
v  2.97878 7.82612 0.0563996
v  -18.0009 7.82612 2.04867
v  -4.47343 7.82612 -1.76765
v  0.189951 7.82612 4.91305
v  0.000185568 7.82612 -0.00027619
v  -4.47232 7.82612 -18.2064
v  -15.9178 7.82612 9.44148

# 0 UV coordinates

# 32 vertex normals
vn 0 -1 -6.12323e-17
vn 2.41929e-24 -1 -6.12323e-17
vn -5.97262e-10 -1 -6.20216e-08
vn -1.22033e-07 -1 8.32867e-10
vn -1.19972e-07 -1 -8.10144e-12
vn 1.01127e-08 -1 -5.31473e-07
vn -2.75954e-07 -1 1.92626e-07
vn 0 -1 0
vn -0.999819 2.05041e-05 -0.0190241
vn -0.999819 2.07886e-05 -0.0190244
vn -0.0125023 -3.13944e-05 -0.999922
vn -0.0125023 -3.13962e-05 -0.999922
vn 0.999973 -2.14826e-05 -0.00728433
vn 0.0125023 3.13606e-05 0.999922
vn 0.0125023 3.13971e-05 0.999922
vn 0.999977 -2.14985e-05 -0.00682467
vn 0.999977 -2.14724e-05 -0.00682466
vn 0.999977 -2.14724e-05 -0.00682469
vn 0.999977 -2.14723e-05 -0.00682469
vn -0.271517 -2.47203e-05 -0.962434
vn -0.271517 -2.46923e-05 -0.962434
vn 0.999255 -2.24728e-05 -0.0385937
vn 0.999255 -2.24714e-05 -0.0385937
vn -1 2.12547e-05 -6.75279e-05
vn -1 2.13093e-05 -6.75569e-05
vn -0.00962953 -3.14873e-05 -0.999954
vn -0.00962927 -3.1269e-05 -0.999954
vn 0.270642 2.47683e-05 0.96268
vn -0.962517 2.91087e-05 0.27122
vn -0.962517 2.89961e-05 0.27122
vn -0.0190243 3.20495e-05 0.999819
vn 0 1 0

# Mesh 'defaultobject' with 88 faces
g defaultobject
usemtl DefaultMaterial
f  1//1 2//1 3//1
f  2//1 1//1 4//2
f  5//3 6//3 7//3
f  6//3 5//3 8//4
f  6//3 8//4 9//5
f  9//5 8//4 10//6
f  9//5 10//6 11//7
f  9//5 11//7 12//8
f  9//5 12//8 13//8
f  1//1 2//1 3//1
f  2//1 1//1 4//2
f  5//3 6//3 7//3
f  6//3 5//3 8//4
f  6//3 8//4 9//5
f  9//5 8//4 10//6
f  9//5 10//6 11//7
f  9//5 11//7 12//8
f  9//5 12//8 13//8
f  14//9 1//9 3//9
f  1//9 14//9 15//10
f  15//11 4//11 1//11
f  4//11 15//11 16//12
f  4//13 17//13 2//13
f  17//13 4//13 16//13
f  2//14 14//14 3//14
f  14//14 2//14 17//15
f  18//16 5//16 7//16
f  5//16 18//16 19//17
f  5//16 19//17 8//18
f  8//18 19//17 20//19
f  21//20 9//20 13//20
f  9//20 21//20 22//21
f  10//22 23//22 11//22
f  23//22 10//22 24//23
f  22//24 6//24 9//24
f  6//24 22//24 25//25
f  25//26 7//26 6//26
f  7//26 25//26 18//27
f  11//28 26//28 12//28
f  26//28 11//28 23//28
f  26//29 13//29 12//29
f  13//29 26//29 21//30
f  8//31 24//31 10//31
f  24//31 8//31 20//31
f  14//9 1//9 3//9
f  1//9 14//9 15//10
f  15//11 4//11 1//11
f  4//11 15//11 16//12
f  4//13 17//13 2//13
f  17//13 4//13 16//13
f  2//14 14//14 3//14
f  14//14 2//14 17//15
f  18//16 5//16 7//16
f  5//16 18//16 19//17
f  5//16 19//17 8//18
f  8//18 19//17 20//19
f  21//20 9//20 13//20
f  9//20 21//20 22//21
f  10//22 23//22 11//22
f  23//22 10//22 24//23
f  22//24 6//24 9//24
f  6//24 22//24 25//25
f  25//26 7//26 6//26
f  7//26 25//26 18//27
f  11//28 26//28 12//28
f  26//28 11//28 23//28
f  26//29 13//29 12//29
f  13//29 26//29 21//30
f  8//31 24//31 10//31
f  24//31 8//31 20//31
f  17//32 15//32 14//32
f  15//32 17//32 16//32
f  26//32 22//32 21//32
f  22//32 26//32 23//32
f  22//32 23//32 25//32
f  25//32 23//32 24//32
f  25//32 24//32 18//32
f  18//32 24//32 19//32
f  19//32 24//32 20//32
f  17//32 15//32 14//32
f  15//32 17//32 16//32
f  26//32 22//32 21//32
f  22//32 26//32 23//32
f  22//32 23//32 25//32
f  25//32 23//32 24//32
f  25//32 24//32 18//32
f  18//32 24//32 19//32
f  19//32 24//32 20//32

