# {"id":"BLDG_00030000001c4cb0","idOriginal":"BLDG_00030000001c4cb0","origin":[13.356227585964696,52.550701774602175],"elevation":36.39}
# Longitude: 13.356227585964696
# Latitude: 52.550701774602175
# Elevation: 36.39

# File produced by Open Asset Import Library (http://www.assimp.sf.net)
# (assimp v3.1.0)

mtllib BLDG_00030000001c4cb0.obj.mtl

# 40 vertex positions
v  28.6696 21.18 12.6763
v  23.5733 20.73 17.8365
v  30.6577 18.13 10.6634
v  22.2802 -6.10352e-07 19.146
v  20.8594 21.0733 20.5843
v  20.859 -6.10352e-07 20.5849
v  23.5728 -6.10352e-07 17.8371
v  28.6692 -6.10352e-07 12.677
v  30.6573 -6.10352e-07 10.664
v  22.2806 21.0733 19.1453
v  26.7815 -6.10352e-07 6.83913
v  18.0664 1.0786e-16 -1.76149
v  9.79832 6.07483e-16 -9.92095
v  26.7819 18.13 6.83856
v  18.0668 18.13 -1.76207
v  9.7987 18.13 -9.92153
v  0.000386263 18.13 -0.00057448
v  6.95921 20.73 6.86669
v  2.01424 21.18 1.98666
v  8.26847 18.13 8.15888
v  0 -6.10352e-07 -3.73733e-23
v  8.26808 -6.10352e-07 8.15946
v  2.01379 -6.10352e-07 1.98733
v  6.95877 -6.10352e-07 6.86734
v  1.42159 18.13 -1.43957
v  1.4212 -6.10352e-07 -1.43899
v  18.4048 18.13 15.3205
v  9.68929 -6.10352e-07 6.72047
v  18.4044 -6.10352e-07 15.3211
v  9.68967 18.13 6.71989
v  16.9832 -6.10352e-07 16.7601
v  16.9836 18.13 16.7595
v  19.6975 20.73 14.0116
v  10.9824 20.73 5.411
v  9.67304 20.73 4.11889
v  24.7939 21.18 8.85146
v  16.0787 21.18 0.250839
v  9.82443 21.18 -5.92129
v  8.38041 20.73 5.4277
v  3.43544 21.18 0.547666

# 0 UV coordinates

# 59 vertex normals
vn 0.711491 7.13414e-06 0.702696
vn 0.711491 7.05955e-06 0.702696
vn 0.71149 7.04216e-06 0.702696
vn 0.711491 7.0635e-06 0.702696
vn 0.711491 7.03792e-06 0.702696
vn 0.711491 8.92704e-06 0.702696
vn 0.702416 -3.75777e-05 -0.711767
vn 0.702416 -3.74957e-05 -0.711767
vn 0.702416 -3.75305e-05 -0.711767
vn 0.702416 -3.74038e-05 -0.711767
vn 0.702416 -3.76675e-05 -0.711767
vn 0.702416 -3.75305e-05 -0.711767
vn -0.702416 3.74881e-05 0.711767
vn -0.702416 3.75125e-05 0.711767
vn -0.702416 3.74943e-05 0.711767
vn -0.702416 3.75407e-05 0.711767
vn 0 -1 0
vn -0.711491 -7.13135e-06 -0.702696
vn -0.711491 -7.10029e-06 -0.702696
vn -0.711491 -7.10767e-06 -0.702696
vn -0.711491 0 -0.702696
vn -0.702416 3.75402e-05 0.711767
vn -0.702416 3.7485e-05 0.711767
vn -0.702416 3.75516e-05 0.711767
vn -0.702416 3.75402e-05 0.711767
vn -0.711491 -7.05696e-06 -0.702696
vn 0.71149 7.13279e-06 0.702696
vn 0.71149 7.1523e-06 0.702696
vn -3.54661e-08 -1 -3.50277e-08
vn 3.59623e-08 -1 -3.64411e-08
vn 3.07461e-08 -1 -3.11554e-08
vn 0.711491 0 0.702695
vn -0.573401 0.577591 0.581034
vn -0.573401 0.577591 0.581034
vn -0.573401 0.57759 0.581034
vn -0.5734 0.577591 0.581034
vn -0.043499 0.998081 0.0440781
vn -0.043499 0.998081 0.0440781
vn -0.043499 0.998081 0.0440781
vn -0.043499 0.998081 0.0440781
vn -0.043499 0.998081 0.0440781
vn 0 1 0
vn 0.514977 0.680066 -0.521833
vn 0.514977 0.680066 -0.521833
vn 0.514977 0.680066 -0.521833
vn 0.514977 0.680066 -0.521833
vn 0.580817 0.577574 0.573637
vn 0.580817 0.577574 0.573637
vn 0.580817 0.577574 0.573637
vn 0.0459882 0.997909 0.0454197
vn 0.0459882 0.997909 0.0454197
vn 0.0459882 0.997909 0.0454197
vn 0.0459882 0.997909 0.0454197
vn -0.521622 0.680078 -0.515174
vn -0.521622 0.680078 -0.515174
vn -0.521622 0.680078 -0.515174
vn -0.521622 0.680078 -0.515174
vn -0.220038 0.86806 -0.445035
vn -0.338321 0.879711 -0.334138

# Mesh 'defaultobject' with 76 faces
g defaultobject
usemtl DefaultMaterial
f  1//1 2//1 3//1
f  4//2 5//2 6//2
f  5//2 4//2 7//3
f  5//2 7//3 8//4
f  5//2 8//4 9//5
f  5//2 9//5 3//1
f  5//2 3//1 2//1
f  5//2 2//1 10//6
f  11//7 3//7 9//7
f  3//7 11//7 12//8
f  3//7 12//8 13//9
f  3//7 13//9 14//10
f  14//10 13//9 15//11
f  15//11 13//9 16//12
f  17//13 18//13 19//13
f  18//13 17//13 20//14
f  20//14 17//13 21//15
f  20//14 21//15 22//16
f  22//16 21//15 23//16
f  22//17 23//16 24//17
f  13//18 25//18 16//18
f  25//18 13//18 17//19
f  17//19 13//18 21//20
f  21//20 13//18 26//21
f  27//22 28//22 29//22
f  28//22 27//22 30//23
f  5//24 31//24 6//24
f  31//24 5//24 32//25
f  32//26 29//26 31//26
f  29//26 32//26 27//26
f  28//27 20//27 22//27
f  20//27 28//27 30//28
f  8//17 11//17 9//17
f  11//17 8//17 7//17
f  11//17 7//17 4//17
f  11//17 4//17 6//17
f  11//17 6//17 31//17
f  11//17 31//17 29//17
f  29//17 12//29 11//17
f  12//29 29//17 28//30
f  12//29 28//30 13//30
f  13//30 28//30 22//17
f  13//30 22//17 24//17
f  13//30 24//17 23//26
f  13//30 23//26 21//31
f  13//32 21//32 26//32
f  33//33 27//33 2//33
f  27//33 33//33 34//34
f  27//33 34//34 35//35
f  27//33 35//35 30//36
f  36//37 2//37 1//37
f  2//37 36//37 37//38
f  2//37 37//38 38//39
f  2//37 38//39 33//40
f  33//40 38//39 35//41
f  33//42 35//42 34//42
f  14//43 1//43 3//43
f  1//43 14//43 15//44
f  1//43 15//44 16//45
f  1//43 16//45 38//46
f  1//37 38//46 37//38
f  1//37 37//38 36//37
f  39//47 30//47 35//47
f  30//47 39//47 20//48
f  20//48 39//47 18//49
f  38//50 39//50 35//50
f  39//50 38//50 18//51
f  18//51 38//50 40//52
f  18//51 40//52 19//53
f  25//54 38//54 16//54
f  38//54 25//54 40//55
f  40//55 25//54 19//56
f  19//56 25//54 17//57
f  2//58 27//58 10//58
f  27//59 5//59 10//59
f  5//59 27//59 32//59

