# {"id":"BLDG_0003000a00295b44","idOriginal":"BLDG_0003000a00295b44","origin":[13.400271569800664,52.53493534501414],"elevation":47.2200012207031}
# Longitude: 13.400271569800664
# Latitude: 52.53493534501414
# Elevation: 47.2200012207031

# File produced by Open Asset Import Library (http://www.assimp.sf.net)
# (assimp v3.1.0)

mtllib BLDG_0003000a00295b44.obj.mtl

# 19 vertex positions
v  5.81233 -2.52815e-16 4.12879
v  19.1142 2.11799e-16 -3.45894
v  11.2236 -4.88185e-16 7.97267
v  13.7811 4.43772e-16 -7.24734
v  21.3422 1.86562e-15 -30.468
v  7.96875 6.96587e-16 -11.3761
v  27.1941 1.61627e-15 -26.3957
v  0 0 0
v  5.8128 21.8157 4.1281
v  15.1694 25.1803 2.25607
v  9.79724 25.1803 -1.56008
v  11.224 21.8157 7.97198
v  19.1147 21.8157 -3.45963
v  13.7815 21.8157 -7.24803
v  27.1946 21.8157 -26.3964
v  7.96929 25.1803 -11.3769
v  21.3427 25.1803 -30.4688
v  0.000466074 21.8157 -0.00069051
v  3.98491 25.1803 -5.68886

# 0 UV coordinates

# 31 vertex normals
vn -2.29698e-24 -1 -6.12323e-17
vn 1.16531e-24 -1 -6.12323e-17
vn 0 -1 -6.12323e-17
vn 1.01638e-23 -1 -6.12323e-17
vn -2.13847e-24 -1 -6.12323e-17
vn -0.252499 0.899941 0.355457
vn -0.252499 0.899941 0.355457
vn 0.252506 0.899935 -0.355468
vn 0.252506 0.899935 -0.355468
vn 0.349567 0.904347 0.244865
vn 0.349567 0.904347 0.244865
vn -0.252499 0.899941 0.355457
vn -0.252499 0.899941 0.355457
vn 0.349567 0.904347 0.244865
vn 0.252506 0.899935 -0.355468
vn 0.822984 4.22377e-07 0.568064
vn 0.822984 3.86399e-07 0.568064
vn 0.822984 3.26488e-07 0.568064
vn -0.579111 3.81819e-05 0.815248
vn -0.579111 3.81692e-05 0.815248
vn 0.579111 -3.81569e-05 -0.815248
vn 0.579111 -3.81836e-05 -0.815248
vn -0.819047 -6.70079e-07 -0.573726
vn 0.571196 -3.82126e-05 -0.820814
vn 0.571196 -3.81851e-05 -0.820814
vn 0.819047 6.58191e-07 0.573726
vn 0.819047 5.98356e-07 0.573726
vn -0.579111 3.81692e-05 0.815248
vn -0.579111 3.81765e-05 0.815248
vn -0.819047 -6.61326e-07 -0.573726
vn -0.819047 -6.53021e-07 -0.573726

# Mesh 'defaultobject' with 34 faces
g defaultobject
usemtl DefaultMaterial
f  1//1 2//1 3//1
f  2//1 1//1 4//2
f  5//3 4//2 6//3
f  4//2 5//3 7//4
f  8//5 4//2 1//1
f  4//2 8//5 6//3
f  9//6 10//6 11//6
f  10//6 9//6 12//7
f  11//8 13//8 14//8
f  13//8 11//8 10//9
f  15//10 16//10 14//10
f  16//10 15//10 17//11
f  11//6 18//12 9//6
f  18//12 11//6 19//13
f  19//14 14//10 16//10
f  19//15 11//8 14//8
f  13//16 3//16 2//16
f  3//16 13//16 12//17
f  12//17 13//16 10//18
f  12//19 1//19 3//19
f  1//19 12//19 9//20
f  4//21 13//21 2//21
f  13//21 4//21 14//22
f  16//23 5//23 6//23
f  5//23 16//23 17//23
f  5//24 15//24 7//24
f  15//24 5//24 17//25
f  7//26 14//26 4//26
f  14//26 7//26 15//27
f  9//20 8//28 1//19
f  8//28 9//20 18//29
f  18//30 6//23 8//30
f  6//23 18//30 16//23
f  16//23 18//30 19//31

