# {"id":"BLDG_0003000a00045440","idOriginal":"BLDG_0003000a00045440","origin":[13.37882820348472,52.5531552751535],"elevation":38.3199996948242}
# Longitude: 13.37882820348472
# Latitude: 52.5531552751535
# Elevation: 38.3199996948242

# File produced by Open Asset Import Library (http://www.assimp.sf.net)
# (assimp v3.1.0)

mtllib BLDG_0003000a00045440.obj.mtl

# 21 vertex positions
v  11.0336 7.90012 -21.3657
v  17.4621 1.19256e-15 -19.476
v  11.0335 1.30826e-15 -21.3655
v  17.4623 7.90012 -19.4762
v  14.7368 7.90012 -9.84215
v  14.7367 6.02642e-16 -9.8419
v  8.29618 7.90012 -11.6891
v  8.29601 7.15736e-16 -11.6889
v  11.0556 -1.94128e-16 3.17035
v  4.61532 19.0691 1.32279
v  4.61491 -8.10346e-17 1.3234
v  11.056 19.0691 3.16975
v  11.5165 8.61391 -10.7656
v  14.7369 9.32771 -9.84219
v  8.29641 18.7202 -11.6894
v  14.7371 18.7202 -9.84249
v  0.000406859 19.0691 -0.000604331
v  0 0 0
v  3.68366 7.96726e-16 -13.0115
v  3.68406 19.0691 -13.0121
v  13.336 8.61391 -17.1973

# 0 UV coordinates

# 31 vertex normals
vn 0.281988 -3.63353e-05 -0.959418
vn 0.281988 -3.66351e-05 -0.959418
vn 0.962237 -1.18399e-05 0.272212
vn 0.962237 -1.19846e-05 0.272212
vn -0.962237 1.19176e-05 -0.272212
vn -0.962237 1.18343e-05 -0.272212
vn -0.275655 3.63429e-05 0.961257
vn -0.275655 3.6328e-05 0.961257
vn -0.275655 3.66905e-05 0.961257
vn 0.275655 -3.62956e-05 -0.961257
vn 0.275655 -3.63293e-05 -0.961257
vn 0.962237 -1.18641e-05 0.272212
vn 0.962237 -1.18591e-05 0.272212
vn -0.275655 3.63401e-05 0.961257
vn -0.962184 1.18964e-05 -0.272401
vn -0.962184 1.18862e-05 -0.272401
vn 0.275655 -3.63586e-05 -0.961257
vn 1.88566e-23 -1 -6.12323e-17
vn 3.15663e-24 -1 -6.12324e-17
vn -1.16856e-24 -1 -6.12323e-17
vn 1.63087e-24 -1 -6.12323e-17
vn -4.89531e-24 -1 -6.12323e-17
vn 0.0071079 0.999668 -0.0247865
vn 0.0071079 0.999668 -0.0247865
vn 0.0071079 0.999668 -0.0247865
vn 0.0697621 0.997368 0.0197502
vn 0.0587654 0.978044 -0.199939
vn 0.20052 0.978046 0.0567261
vn 0.20052 0.978046 0.0567261
vn -0.200519 0.978046 -0.0567258
vn -0.200519 0.978046 -0.0567259

# Mesh 'defaultobject' with 34 faces
g defaultobject
usemtl DefaultMaterial
f  1//1 2//1 3//1
f  2//1 1//1 4//2
f  2//3 5//3 6//3
f  5//3 2//3 4//4
f  7//5 3//5 8//5
f  3//5 7//5 1//6
f  9//7 10//7 11//7
f  10//7 9//7 12//8
f  13//9 5//9 14//9
f  15//10 14//10 7//10
f  14//10 15//10 16//11
f  6//3 12//12 9//12
f  12//12 6//3 16//13
f  11//7 17//14 18//14
f  17//14 11//7 10//7
f  17//15 19//15 18//15
f  19//15 17//15 20//16
f  20//17 8//17 19//17
f  8//17 20//17 15//10
f  2//18 8//18 3//18
f  8//18 2//18 6//19
f  11//20 6//19 9//20
f  6//19 11//20 8//18
f  18//21 8//18 11//20
f  8//18 18//21 19//22
f  16//23 10//23 12//23
f  10//23 16//23 15//24
f  10//23 15//24 17//25
f  17//26 15//26 20//26
f  21//27 4//27 1//27
f  13//28 4//28 21//28
f  4//28 13//28 5//29
f  7//30 21//30 1//30
f  21//30 7//30 13//31

