# {"id":"BLDG_0003000b002eb5a9","idOriginal":"BLDG_0003000b002eb5a9","origin":[13.336796476594234,52.52448818647447],"elevation":32.9099998474121}
# Longitude: 13.336796476594234
# Latitude: 52.52448818647447
# Elevation: 32.9099998474121

# File produced by Open Asset Import Library (http://www.assimp.sf.net)
# (assimp v3.1.0)

mtllib BLDG_0003000b002eb5a9.obj.mtl

# 10 vertex positions
v  0 0 0
v  6.76111 5.62098e-16 -9.17976
v  5.85697 -3.10019e-17 0.506299
v  0.644187 4.32149e-16 -7.05753
v  0.887007 5.94914e-16 -9.71568
v  8.8361e-05 4.15284 -0.00013136
v  5.85705 4.15284 0.506168
v  6.7612 4.15284 -9.17989
v  0.887095 4.15284 -9.71581
v  0.644275 4.15284 -7.05767

# 0 UV coordinates

# 12 vertex normals
vn -4.6285e-25 -1 -6.12323e-17
vn -2.5328e-24 -1 -6.12323e-17
vn -7.1452e-24 -1 -6.12323e-17
vn -0.0861228 3.33403e-05 0.996284
vn 0.995672 -1.82475e-05 0.0929407
vn 0.0908572 -3.34937e-05 -0.995864
vn 0.0908574 -3.32611e-05 -0.995864
vn -0.995854 1.83101e-05 -0.0909707
vn -0.995854 1.83139e-05 -0.0909707
vn -0.99586 1.83139e-05 -0.0908986
vn -0.99586 1.83125e-05 -0.0908986
vn 0 1 0

# Mesh 'defaultobject' with 16 faces
g defaultobject
usemtl DefaultMaterial
f  1//1 2//1 3//1
f  2//1 1//1 4//2
f  2//1 4//2 5//3
f  3//4 6//4 1//4
f  6//4 3//4 7//4
f  2//5 7//5 3//5
f  7//5 2//5 8//5
f  9//6 2//6 5//6
f  2//6 9//6 8//7
f  10//8 5//8 4//8
f  5//8 10//8 9//9
f  6//10 4//10 1//10
f  4//10 6//10 10//11
f  7//12 10//12 6//12
f  10//12 7//12 8//12
f  10//12 8//12 9//12

