# {"id":"BLDG_0003000b0011adf5","idOriginal":"BLDG_0003000b0011adf5","origin":[13.3403196271252,52.530563320975595],"elevation":34.9}
# Longitude: 13.3403196271252
# Latitude: 52.530563320975595
# Elevation: 34.9

# File produced by Open Asset Import Library (http://www.assimp.sf.net)
# (assimp v3.1.0)

mtllib BLDG_0003000b0011adf5.obj.mtl

# 24 vertex positions
v  -1.65904 22.1 16.6827
v  2.09429 19.89 -27.1978
v  -0.103336 22.1 -27.2862
v  0.538585 19.89 16.7711
v  -10.2534 22.1 16.3373
v  -8.69765 22.1 -27.6316
v  -12.4511 19.89 16.2491
v  -10.8954 19.89 -27.7198
v  12.3885 5.61667 -11.2601
v  0.000119962 5.61667 -0.00017837
v  12.2332 5.61667 0.560471
v  0.155445 5.61667 -11.8208
v  -8.69812 1.6919e-15 -27.6309
v  -12.4515 -9.95007e-16 16.2497
v  -10.8958 1.69731e-15 -27.7192
v  -0.103807 1.67075e-15 -27.2855
v  2.09387 1.66534e-15 -27.1971
v  -10.2538 -1.00042e-15 16.338
v  0.538161 -1.02697e-15 16.7718
v  -1.65951 -1.02157e-15 16.6834
v  0 -0.0199989 -1.22458e-18
v  12.3884 -0.0199989 -11.26
v  12.2331 -0.0199989 0.56065
v  0.155325 -0.0199989 -11.8206

# 0 UV coordinates

# 35 vertex normals
vn 0.708365 0.705401 0.0250633
vn 0.708365 0.705401 0.0250633
vn 0 1 0
vn -0.708351 0.705416 -0.0250628
vn -0.708351 0.705416 -0.0250628
vn -1.06681e-23 -1 -6.12323e-17
vn 0 -1 -6.12324e-17
vn 1.40054e-22 -1 -6.12323e-17
vn 4.21255e-23 -1 -6.12323e-17
vn -5.79321e-24 -1 -6.12323e-17
vn -6.93889e-18 -1 7.40149e-17
vn 0 -1 0
vn 0.0401592 -3.25072e-05 -0.999193
vn 0.0401591 -3.29388e-05 -0.999193
vn 0.0401591 -3.24748e-05 -0.999193
vn 0.0401591 -3.24728e-05 -0.999193
vn 1.19932e-18 1 3.28955e-17
vn -0.0401592 3.16323e-05 0.999193
vn -0.0401591 3.2082e-05 0.999193
vn -0.0401591 3.24745e-05 0.999193
vn -0.0401589 3.25644e-05 0.999193
vn -0.0401597 3.24745e-05 0.999193
vn 6.13825e-18 1 -8.54018e-17
vn 0.999375 -2.01483e-05 0.0353598
vn 0.999375 -2.0157e-05 0.0353598
vn -0.999375 2.01564e-05 -0.0353599
vn -0.999375 2.01085e-05 -0.0353598
vn -0.0457827 3.25923e-05 0.998951
vn -0.0457827 3.25854e-05 0.998951
vn -0.999914 2.08648e-05 -0.013139
vn -0.999914 2.08662e-05 -0.013139
vn 0.0457827 -3.258e-05 -0.998951
vn 0.0457827 -3.25738e-05 -0.998951
vn 0.999914 -2.09009e-05 0.0131391
vn 0.999914 -2.0731e-05 0.013139

# Mesh 'defaultobject' with 40 faces
g defaultobject
usemtl DefaultMaterial
f  1//1 2//1 3//1
f  2//1 1//1 4//2
f  5//3 3//3 6//3
f  3//3 5//3 1//3
f  7//4 6//4 8//4
f  6//4 7//4 5//5
f  9//3 10//3 11//3
f  10//3 9//3 12//3
f  13//6 14//6 15//6
f  14//6 13//6 16//7
f  14//6 16//7 17//8
f  14//6 17//8 18//9
f  18//9 17//8 19//10
f  18//9 19//10 20//11
f  21//12 22//12 23//12
f  22//12 21//12 24//12
f  2//13 6//13 3//13
f  6//13 2//13 8//14
f  8//14 2//13 17//15
f  8//14 17//15 15//16
f  15//6 17//8 16//7
f  15//17 16//17 13//17
f  5//18 4//18 1//18
f  4//18 5//18 7//19
f  4//18 7//19 19//20
f  19//20 7//19 18//21
f  18//21 7//19 14//22
f  19//23 18//23 20//23
f  17//24 4//24 19//24
f  4//24 17//24 2//25
f  7//26 15//26 14//26
f  15//26 7//26 8//27
f  23//28 10//28 21//28
f  10//28 23//28 11//29
f  10//30 24//30 21//30
f  24//30 10//30 12//31
f  12//32 22//32 24//32
f  22//32 12//32 9//33
f  22//34 11//34 23//34
f  11//34 22//34 9//35

