# {"id":"BLDG_0003000e0032556e","idOriginal":"BLDG_0003000e0032556e","origin":[13.342984309084885,52.51631983041962],"elevation":34.3899993896484}
# Longitude: 13.342984309084885
# Latitude: 52.51631983041962
# Elevation: 34.3899993896484

# File produced by Open Asset Import Library (http://www.assimp.sf.net)
# (assimp v3.1.0)

mtllib BLDG_0003000e0032556e.obj.mtl

# 20 vertex positions
v  0.714337 3.14866 7.01492
v  10.2542 3.14866 -1.04212
v  6.702e-05 3.14866 -9.955e-05
v  4.17348 3.14866 6.63459
v  10.966 3.14866 5.94111
v  4.71365 3.14866 11.9255
v  1.24946 3.14866 12.2667
v  1.7054 3.14866 16.7401
v  11.9608 3.14866 15.6782
v  11.5065 3.14866 11.2318
v  0 0 0
v  0.71427 -4.29546e-16 7.01502
v  1.24939 -7.51125e-16 12.2668
v  1.70533 -1.02504e-15 16.7402
v  11.9607 -9.60022e-16 15.6783
v  11.5064 -6.87753e-16 11.2319
v  4.71358 -7.30235e-16 11.9256
v  4.17341 -4.06257e-16 6.63469
v  10.9659 -3.63794e-16 5.94121
v  10.2541 6.38054e-17 -1.04202

# 0 UV coordinates

# 25 vertex normals
vn 0 1 0
vn -0.994856 2.43589e-05 0.101296
vn -0.994856 2.43784e-05 0.101296
vn -0.994849 2.43917e-05 0.101368
vn -0.994849 2.4361e-05 0.101368
vn -0.994846 2.43995e-05 0.101398
vn -0.994846 2.43926e-05 0.101398
vn 0.102989 2.91126e-05 0.994683
vn 0.994821 -2.45986e-05 -0.101645
vn 0.994821 -2.46324e-05 -0.101645
vn -0.101605 -2.94839e-05 -0.994825
vn -0.101605 -2.94531e-05 -0.994825
vn 0.994829 -2.43174e-05 -0.101566
vn 0.994829 -2.44455e-05 -0.101566
vn 0.101566 2.91668e-05 0.994829
vn 0.101566 2.93443e-05 0.994829
vn 0.994845 -2.4293e-05 -0.101407
vn -0.101099 -2.93027e-05 -0.994876
vn -0.101099 -2.93079e-05 -0.994876
vn -2.2896e-23 -1 -6.12323e-17
vn 2.92559e-24 -1 -6.12323e-17
vn 3.31375e-24 -1 -6.12323e-17
vn -4.56767e-24 -1 -6.12323e-17
vn 4.68153e-24 -1 -6.12323e-17
vn -3.46925e-24 -1 -6.12323e-17

# Mesh 'defaultobject' with 36 faces
g defaultobject
usemtl DefaultMaterial
f  1//1 2//1 3//1
f  2//1 1//1 4//1
f  2//1 4//1 5//1
f  4//1 1//1 6//1
f  6//1 1//1 7//1
f  6//1 7//1 8//1
f  6//1 8//1 9//1
f  9//1 10//1 6//1
f  1//2 11//2 12//2
f  11//2 1//2 3//3
f  7//4 12//4 13//4
f  12//4 7//4 1//5
f  8//6 13//6 14//6
f  13//6 8//6 7//7
f  15//8 8//8 14//8
f  8//8 15//8 9//8
f  16//9 9//9 15//9
f  9//9 16//9 10//10
f  6//11 16//11 17//11
f  16//11 6//11 10//12
f  18//13 6//13 17//13
f  6//13 18//13 4//14
f  19//15 4//15 18//15
f  4//15 19//15 5//16
f  20//17 5//17 19//17
f  5//17 20//17 2//17
f  3//18 20//18 11//18
f  20//18 3//18 2//19
f  11//20 18//20 17//20
f  18//20 11//20 20//21
f  18//20 20//21 19//22
f  13//23 15//23 14//23
f  15//23 13//23 17//20
f  17//20 13//23 12//24
f  17//20 12//24 11//20
f  15//23 17//20 16//25

