# {"id":"BLDG_0003000e007044f7","idOriginal":"BLDG_0003000e007044f7","origin":[13.328738907497058,52.53149301284885],"elevation":35.12}
# Longitude: 13.328738907497058
# Latitude: 52.53149301284885
# Elevation: 35.12

# File produced by Open Asset Import Library (http://www.assimp.sf.net)
# (assimp v3.1.0)

mtllib BLDG_0003000e007044f7.obj.mtl

# 19 vertex positions
v  13.5167 -1.40083e-16 2.28773
v  8.82748 18.7609 1.49341
v  13.5171 18.7609 2.28714
v  0.000398983 18.7609 -0.00059374
v  8.82708 -9.14816e-17 1.49401
v  0 -1.06812e-06 -6.54032e-23
v  4.41354 -1.06812e-06 0.747004
v  4.41399 21.0946 0.746336
v  -0.0247247 18.7609 8.962
v  -0.0357466 18.7609 12.894
v  -0.0251237 -5.48801e-16 8.96259
v  -0.0361456 -7.89565e-16 12.8946
v  12.0294 -6.73731e-16 11.0029
v  7.13753 18.7609 10.1742
v  7.13713 -6.23028e-16 10.1748
v  12.0298 18.7609 11.0023
v  6.36878 -8.64699e-16 14.1216
v  6.36918 18.7609 14.121
v  3.9487 21.0946 5.5329

# 0 UV coordinates

# 29 vertex normals
vn 0.166879 -3.47543e-05 -0.985977
vn 0.166879 -3.47637e-05 -0.985977
vn 0.166879 -3.4756e-05 -0.985977
vn 0.166879 -3.47529e-05 -0.985977
vn 0.166879 0 -0.985977
vn 0.166879 -3.47589e-05 -0.985977
vn -0.999996 2.1178e-05 -0.00280316
vn -0.999996 2.11711e-05 -0.00280314
vn -0.999996 2.11811e-05 -0.00280316
vn -0.999996 2.11779e-05 -0.00280314
vn -0.166879 3.47246e-05 0.985977
vn -0.166879 3.47707e-05 0.985977
vn 0.98575 -1.56102e-05 0.168219
vn 0.98575 -1.56677e-05 0.168219
vn -0.188155 3.51078e-05 0.982139
vn -0.188155 3.50572e-05 0.982139
vn 0.981573 -1.48421e-05 0.191089
vn 0.45389 0.886666 0.0883616
vn 0.538992 0.84068 0.0523941
vn -0.0834097 0.866129 0.492812
vn 0 1 0
vn -0.538983 0.840686 -0.0523933
vn -0.467266 0.884116 -0.00130983
vn -5.04731e-25 -1 -6.12323e-17
vn 8.44745e-24 -1 -6.12323e-17
vn -7.96496e-24 -1 -6.12324e-17
vn 8.73434e-08 -1 1.772e-07
vn -2.01611e-08 -1 1.19118e-07
vn 0.166879 0 -0.985977

# Mesh 'defaultobject' with 68 faces
g defaultobject
usemtl DefaultMaterial
f  1//1 2//1 3//1
f  2//1 1//1 4//2
f  4//2 1//1 5//3
f  4//2 5//3 6//4
f  6//5 5//5 7//5
f  4//2 8//6 2//1
f  6//7 9//7 4//7
f  9//7 6//7 10//8
f  10//8 6//7 11//9
f  10//8 11//9 12//10
f  13//11 14//11 15//11
f  14//11 13//11 16//12
f  1//13 16//13 13//13
f  16//13 1//13 3//14
f  17//15 10//15 12//15
f  10//15 17//15 18//16
f  15//17 18//17 17//17
f  18//17 15//17 14//17
f  1//1 2//1 3//1
f  2//1 1//1 4//2
f  4//2 1//1 5//3
f  4//2 5//3 6//4
f  6//5 5//5 7//5
f  4//2 8//6 2//1
f  6//7 9//7 4//7
f  9//7 6//7 10//8
f  10//8 6//7 11//9
f  10//8 11//9 12//10
f  13//11 14//11 15//11
f  14//11 13//11 16//12
f  1//13 16//13 13//13
f  16//13 1//13 3//14
f  17//15 10//15 12//15
f  10//15 17//15 18//16
f  15//17 18//17 17//17
f  18//17 15//17 14//17
f  8//18 14//18 2//18
f  14//19 8//19 19//19
f  9//20 14//20 19//20
f  16//21 2//21 14//21
f  2//21 16//21 3//21
f  18//21 9//21 10//21
f  9//21 18//21 14//21
f  8//22 9//22 19//22
f  9//23 8//23 4//23
f  8//18 14//18 2//18
f  14//19 8//19 19//19
f  9//20 14//20 19//20
f  16//21 2//21 14//21
f  2//21 16//21 3//21
f  18//21 9//21 10//21
f  9//21 18//21 14//21
f  8//22 9//22 19//22
f  9//23 8//23 4//23
f  12//24 15//24 17//24
f  15//24 1//25 13//25
f  1//25 15//24 12//24
f  1//25 12//24 11//26
f  1//25 11//26 7//27
f  7//27 11//26 6//28
f  1//29 7//5 5//5
f  12//24 15//24 17//24
f  15//24 1//25 13//25
f  1//25 15//24 12//24
f  1//25 12//24 11//26
f  1//25 11//26 7//27
f  7//27 11//26 6//28
f  1//29 7//5 5//5

