# {"id":"BLDG_000300090014a154","idOriginal":"BLDG_000300090014a154","origin":[13.359153669505055,52.54876989669227],"elevation":36.4500007629395}
# Longitude: 13.359153669505055
# Latitude: 52.54876989669227
# Elevation: 36.4500007629395

# File produced by Open Asset Import Library (http://www.assimp.sf.net)
# (assimp v3.1.0)

mtllib BLDG_000300090014a154.obj.mtl

# 36 vertex positions
v  23.3292 -4.15223e-16 6.7811
v  24.8519 2.24502e-16 -3.66639
v  29.1964 -4.58581e-17 0.74892
v  21.238 -5.46871e-16 8.93109
v  17.7754 -7.64861e-16 12.4911
v  15.3307 -9.18762e-16 15.0045
v  9.56714 -1.28161e-15 20.9302
v  5.1413 -1.01637e-15 16.5986
v  18.9012 -1.5012e-16 2.45165
v  10.9049 -6.53525e-16 10.6729
v  7.99225 5.02998e-16 -8.21458
v  0 0 0
v  5.90075 3.71368e-16 -6.0649
v  2.43757 1.5341e-16 -2.50537
v  15.3312 21.361 15.0039
v  17.7758 21.36 12.4905
v  17.7758 21.361 12.4905
v  23.3297 21.361 6.78042
v  29.1968 21.361 0.748243
v  21.2385 21.361 8.93041
v  21.2385 21.36 8.93041
v  9.56759 21.361 20.9296
v  2.43802 21.36 -2.50605
v  5.90121 21.36 -6.06558
v  18.9016 19.1129 2.45105
v  24.8523 19.1129 -3.66699
v  5.14171 19.1129 16.598
v  10.9053 19.1129 10.6723
v  7.99265 19.1129 -8.21518
v  0.000407278 19.1129 -0.000605551
v  16.8105 21.361 4.60096
v  5.90121 21.361 -6.06558
v  13.3479 21.361 8.16101
v  2.43802 21.361 -2.50605
v  13.3479 21.36 8.16101
v  16.8105 21.36 4.60096

# 0 UV coordinates

# 58 vertex normals
vn 8.12706e-24 -1 -6.12323e-17
vn -4.56038e-23 -1 -6.12323e-17
vn 0 -1 -6.12323e-17
vn 0 -1 -6.12323e-17
vn 0 -1 -6.12324e-17
vn -1.93531e-23 -1 -6.12323e-17
vn 1.11022e-16 -1 1.11022e-16
vn 0.707107 0 0.707107
vn 9.68172e-24 -1 -6.12323e-17
vn 4.84352e-24 -1 -6.12323e-17
vn 5.55112e-17 -1 0
vn 0 1 0
vn 0.716844 0 0.697234
vn 0.716844 6.79108e-06 0.697233
vn 0.716844 6.78784e-06 0.697234
vn 0.716886 0 0.697191
vn 0.716844 6.90445e-06 0.697233
vn 0.716844 6.91308e-06 0.697233
vn 0.716844 6.91841e-06 0.697233
vn 0.716844 6.66876e-06 0.697234
vn 0.716844 6.72432e-06 0.697234
vn 0.716844 6.7996e-06 0.697233
vn 0.716844 6.74026e-06 0.697233
vn -0.71674 -6.81767e-06 -0.697341
vn -0.71674 -6.82566e-06 -0.697341
vn -0.716844 -6.77398e-06 -0.697233
vn -0.716844 -6.78267e-06 -0.697233
vn 0.712802 -3.74359e-05 -0.701365
vn 0.712802 -3.74571e-05 -0.701366
vn -0.699462 3.7517e-05 0.71467
vn -0.699462 3.75998e-05 0.714669
vn -0.716844 -6.83535e-06 -0.697233
vn -0.716844 -6.81844e-06 -0.697233
vn -0.71674 -6.82567e-06 -0.697341
vn -0.71674 -6.80619e-06 -0.697341
vn 0.699107 -3.75707e-05 -0.715018
vn 0.699106 -3.75446e-05 -0.715018
vn -0.699462 3.75466e-05 0.714669
vn -0.699462 3.75476e-05 0.714669
vn -0.71674 -6.82066e-06 -0.697341
vn -0.244608 0.93998 -0.237917
vn -0.244608 0.93998 -0.237917
vn -0.244608 0.93998 -0.237917
vn -0.940689 0 0.33927
vn -0.716844 0 -0.697234
vn -0.244417 0.93998 -0.238112
vn -0.244608 0.93998 -0.237916
vn -0.244608 0.93998 -0.237916
vn 0.699107 0 -0.715017
vn 0.419407 0.800162 -0.428764
vn 0.419313 0.800162 -0.428856
vn 0.547955 -0.000256533 -0.836508
vn 0.419191 0.800293 -0.428731
vn -0.25583 0 0.966722
vn -0.377577 0.84161 0.386171
vn -0.37777 0.84161 0.385983
vn -0.378158 0.841077 0.386764
vn -0.716684 0 -0.697398

# Mesh 'defaultobject' with 64 faces
g defaultobject
usemtl DefaultMaterial
f  1//1 2//1 3//1
f  2//1 1//1 4//2
f  2//1 4//2 5//3
f  2//1 5//3 6//4
f  2//1 6//4 7//5
f  2//1 7//5 8//6
f  2//1 8//6 9//7
f  9//8 8//8 10//8
f  10//9 11//9 9//7
f  11//9 10//9 12//10
f  11//9 12//10 13//11
f  13//12 12//12 14//12
f  15//13 16//13 17//13
f  18//14 3//14 19//14
f  3//14 18//14 20//15
f  3//16 20//16 21//16
f  3//14 21//17 16//13
f  3//14 16//13 15//13
f  3//14 15//13 22//18
f  3//14 22//18 1//19
f  1//19 22//18 4//20
f  4//20 22//18 5//21
f  5//21 22//18 6//22
f  6//22 22//18 7//23
f  23//24 13//24 14//24
f  13//24 23//24 24//25
f  25//26 2//26 9//26
f  2//26 25//26 26//27
f  2//28 19//28 3//28
f  19//28 2//28 26//29
f  22//30 8//30 7//30
f  8//30 22//30 27//31
f  27//32 10//32 8//32
f  10//32 27//32 28//33
f  24//25 11//34 13//24
f  11//34 24//25 29//35
f  11//36 25//36 9//36
f  25//36 11//36 29//37
f  28//38 12//38 10//38
f  12//38 28//38 30//39
f  30//40 14//24 12//40
f  14//24 30//40 23//24
f  26//41 18//41 19//41
f  18//41 26//41 25//42
f  18//41 25//42 20//43
f  20//44 25//44 21//44
f  16//45 15//45 17//45
f  15//46 16//46 28//46
f  15//47 28//47 22//47
f  22//47 28//47 27//48
f  21//49 31//49 20//49
f  31//50 21//50 25//50
f  31//51 25//51 32//51
f  32//52 25//52 24//52
f  24//53 25//53 29//53
f  17//54 28//54 16//54
f  28//55 17//55 33//55
f  28//56 33//56 30//56
f  30//57 33//57 34//57
f  30//58 34//58 23//58
f  21//12 35//12 16//12
f  35//12 21//12 36//12
f  35//12 36//12 23//12
f  23//12 36//12 24//12

