# {"id":"BLDG_0003000f0041205d","idOriginal":"BLDG_0003000f0041205d","origin":[13.345331043991225,52.5533706797426],"elevation":35.939998626709}
# Longitude: 13.345331043991225
# Latitude: 52.5533706797426
# Elevation: 35.939998626709

# File produced by Open Asset Import Library (http://www.assimp.sf.net)
# (assimp v3.1.0)

mtllib BLDG_0003000f0041205d.obj.mtl

# 17 vertex positions
v  9.44943 20.514 -9.74123
v  13.6414 3.46692e-16 -5.6619
v  9.44899 5.96439e-16 -9.74058
v  17.8339 9.69444e-17 -1.58322
v  17.8343 20.514 -1.58387
v  13.6419 23.194 -5.66264
v  8.29252 20.514 8.25241
v  4.14604 -2.52677e-16 4.12653
v  8.29208 -5.05354e-16 8.25306
v  0 0 0
v  0.000436755 20.514 -0.000650151
v  4.14654 23.194 4.12579
v  7.36111 20.514 -7.58847
v  7.36068 4.6462e-16 -7.58782
v  15.7456 -3.48742e-17 0.569539
v  15.746 20.514 0.568889
v  11.5536 23.194 -3.50988

# 0 UV coordinates

# 29 vertex normals
vn 0.697314 -3.75725e-05 -0.716766
vn 0.697314 -3.76417e-05 -0.716766
vn 0.697314 -3.75642e-05 -0.716766
vn 0.697314 -3.73545e-05 -0.716766
vn -0.705437 3.74591e-05 0.708773
vn -0.705437 3.74638e-05 0.708773
vn -0.705437 3.74823e-05 0.708773
vn -0.705437 3.75948e-05 0.708773
vn -0.717768 -6.79325e-06 -0.696282
vn -0.717769 -6.82069e-06 -0.696282
vn -0.717768 -6.57209e-06 -0.696282
vn -0.717769 -6.78555e-06 -0.696282
vn 0.717768 6.78516e-06 0.696282
vn 0.717769 6.75745e-06 0.696282
vn 0.717769 6.76087e-06 0.696282
vn 0 1 0
vn -9.05315e-24 -1 -6.12323e-17
vn -1.71233e-24 -1 -6.12323e-17
vn 1.32737e-24 -1 -6.12323e-17
vn -2.65473e-24 -1 -6.12323e-17
vn 6.03543e-24 -1 -6.12323e-17
vn 1.691e-24 -1 -6.12323e-17
vn -0.298984 0.909115 -0.290033
vn -0.298984 0.909115 -0.290033
vn -0.298984 0.909115 -0.290033
vn 0.298982 0.909116 0.290032
vn 0.298982 0.909116 0.290032
vn 0.298982 0.909116 0.290032
vn 0 -1 0

# Mesh 'defaultobject' with 30 faces
g defaultobject
usemtl DefaultMaterial
f  1//1 2//1 3//1
f  2//1 1//1 4//2
f  4//2 1//1 5//3
f  5//3 1//1 6//4
f  7//5 8//5 9//5
f  8//5 7//5 10//6
f  10//6 7//5 11//7
f  11//7 7//5 12//8
f  3//9 13//9 1//9
f  13//9 3//9 11//10
f  11//10 3//9 14//11
f  11//10 14//11 10//12
f  5//13 15//13 4//13
f  15//13 5//13 9//14
f  9//14 5//13 7//15
f  7//16 5//16 16//16
f  2//17 14//17 3//17
f  14//17 2//17 10//18
f  10//18 2//17 8//19
f  8//19 2//17 4//20
f  8//19 4//20 15//21
f  8//19 15//21 9//22
f  1//23 17//23 6//23
f  17//23 1//23 12//24
f  12//24 1//23 11//25
f  11//16 1//16 13//16
f  6//26 16//26 5//26
f  16//26 6//26 7//27
f  7//27 6//26 12//28
f  12//29 6//29 17//29

