# {"id":"BLDG_00030000001b4576","idOriginal":"BLDG_00030000001b4576","origin":[13.339596244630178,52.55791729531286],"elevation":38.6100006103516}
# Longitude: 13.339596244630178
# Latitude: 52.55791729531286
# Elevation: 38.6100006103516

# File produced by Open Asset Import Library (http://www.assimp.sf.net)
# (assimp v3.1.0)

mtllib BLDG_00030000001b4576.obj.mtl

# 12 vertex positions
v  7.15632 3.26731 1.28009
v  5.659 -1.67899e-16 2.742
v  7.15625 -7.83893e-17 1.2802
v  4.16176 -2.57408e-16 4.2038
v  4.16183 3.26731 4.20369
v  5.65909 4.03236 2.74187
v  6.9538e-05 3.26731 -0.00010358
v  1.49724 8.95095e-17 -1.4618
v  0 0 0
v  2.99449 1.79019e-16 -2.9236
v  2.99455 3.26731 -2.92371
v  1.49733 4.03236 -1.46193

# 0 UV coordinates

# 19 vertex normals
vn 0.698587 7.80117e-06 0.715525
vn 0.698587 7.77655e-06 0.715525
vn 0.698587 7.87949e-06 0.715525
vn 0.698587 7.74439e-06 0.715525
vn -0.698587 -7.81548e-06 -0.715525
vn -0.698587 -7.84629e-06 -0.715525
vn -0.698587 -7.87825e-06 -0.715525
vn -0.698587 -7.89332e-06 -0.715525
vn -0.710651 3.75257e-05 0.703545
vn -0.710651 3.74284e-05 0.703545
vn 0.710651 -3.74019e-05 -0.703545
vn 0.710651 -3.74019e-05 -0.703545
vn 4.27699e-24 -1 -6.12323e-17
vn 1.71079e-23 -1 -6.12323e-17
vn 4.27699e-24 -1 -6.12323e-17
vn -4.27699e-24 -1 -6.12323e-17
vn -0.244027 0.939195 0.241587
vn 0.244033 0.939192 -0.241593
vn 0.244033 0.939192 -0.241592

# Mesh 'defaultobject' with 20 faces
g defaultobject
usemtl DefaultMaterial
f  1//1 2//1 3//1
f  2//1 1//1 4//2
f  4//2 1//1 5//3
f  5//3 1//1 6//4
f  7//5 8//5 9//5
f  8//5 7//5 10//6
f  10//6 7//5 11//7
f  11//7 7//5 12//8
f  5//9 9//9 4//9
f  9//9 5//9 7//10
f  10//11 1//11 3//11
f  1//11 10//11 11//12
f  2//13 10//13 3//13
f  10//13 2//13 4//14
f  10//13 4//14 8//15
f  8//15 4//14 9//16
f  12//17 5//17 6//17
f  5//17 12//17 7//17
f  11//18 6//18 1//18
f  6//18 11//18 12//19

