# {"id":"BLDG_0003000a0037ea5d","idOriginal":"BLDG_0003000a0037ea5d","origin":[13.38509328665476,52.56525877106555],"elevation":41.1800003051758}
# Longitude: 13.38509328665476
# Latitude: 52.56525877106555
# Elevation: 41.1800003051758

# File produced by Open Asset Import Library (http://www.assimp.sf.net)
# (assimp v3.1.0)

mtllib BLDG_0003000a0037ea5d.obj.mtl

# 10 vertex positions
v  11.3974 7.7014 -4.15595
v  7.19023 -2.28921e-16 3.73857
v  11.3972 2.54464e-16 -4.15571
v  7.19039 7.7014 3.73832
v  9.29393 10.3724 -0.208899
v  0.000164389 7.7014 -0.00024426
v  0 0 0
v  4.00162 4.95643e-16 -8.09446
v  4.00178 7.7014 -8.09471
v  2.00103 10.3724 -4.04756

# 0 UV coordinates

# 16 vertex normals
vn 0.882507 -3.8585e-06 0.4703
vn 0.882507 -3.88762e-06 0.470299
vn 0.882507 -3.9915e-06 0.4703
vn -0.461319 3.79558e-05 0.887235
vn -0.461319 3.79252e-05 0.887235
vn -0.896439 5.07916e-06 -0.443167
vn -0.896439 5.09997e-06 -0.443167
vn -0.896439 5.06142e-06 -0.443167
vn 0.470072 -3.80212e-05 -0.882628
vn 0.470072 -3.80467e-05 -0.882628
vn 0 -1 -6.12323e-17
vn -5.7888e-24 -1 -6.12323e-17
vn -0.237213 0.860597 0.45067
vn -0.23653 0.858552 0.454908
vn 0.239434 0.860557 -0.449571
vn 0.238816 0.858551 -0.453715

# Mesh 'defaultobject' with 16 faces
g defaultobject
usemtl DefaultMaterial
f  1//1 2//1 3//1
f  2//1 1//1 4//2
f  4//2 1//1 5//3
f  2//4 6//4 7//4
f  6//4 2//4 4//5
f  6//6 8//6 7//6
f  8//6 6//6 9//7
f  9//7 6//6 10//8
f  9//9 3//9 8//9
f  3//9 9//9 1//10
f  2//11 8//11 3//11
f  8//11 2//11 7//12
f  6//13 5//13 10//13
f  5//14 6//14 4//14
f  10//15 1//15 9//15
f  1//16 10//16 5//16

