# {"id":"BLDG_0003000a00112380","idOriginal":"BLDG_0003000a00112380","origin":[13.37993718362636,52.54464442880706],"elevation":45.2700004577637}
# Longitude: 13.37993718362636
# Latitude: 52.54464442880706
# Elevation: 45.2700004577637

# File produced by Open Asset Import Library (http://www.assimp.sf.net)
# (assimp v3.1.0)

mtllib BLDG_0003000a00112380.obj.mtl

# 10 vertex positions
v  10.8758 3.62246 1.117
v  6.10809 -3.62652e-16 5.92256
v  10.8757 -6.84034e-17 1.11711
v  6.10816 3.62246 5.92245
v  8.49204 6.40174 3.51963
v  0 0 0
v  7.7293e-05 3.62246 -0.00011474
v  4.76764 2.94249e-16 -4.80545
v  4.76772 3.62246 -4.80556
v  2.38396 6.40174 -2.40293

# 0 UV coordinates

# 14 vertex normals
vn 0.709894 7.15866e-06 0.704308
vn 0.709894 7.20501e-06 0.704308
vn 0.709894 7.0967e-06 0.704308
vn -0.69612 3.76197e-05 0.717926
vn -0.69612 3.75932e-05 0.717926
vn -0.709894 -7.16153e-06 -0.704308
vn -0.709894 -7.20502e-06 -0.704308
vn -0.709894 -7.14739e-06 -0.704308
vn 0.69612 -3.76274e-05 -0.717926
vn -0.441774 0.772822 0.455612
vn -0.441774 0.772822 0.455612
vn 0.44179 0.772803 -0.455629
vn 3.67708e-24 -1 -6.12323e-17
vn 3.67708e-24 -1 -6.12323e-17

# Mesh 'defaultobject' with 16 faces
g defaultobject
usemtl DefaultMaterial
f  1//1 2//1 3//1
f  2//1 1//1 4//2
f  4//2 1//1 5//3
f  4//4 6//4 2//4
f  6//4 4//4 7//5
f  7//6 8//6 6//6
f  8//6 7//6 9//7
f  9//7 7//6 10//8
f  8//9 1//9 3//9
f  1//9 8//9 9//9
f  10//10 4//10 5//10
f  4//10 10//10 7//11
f  9//12 5//12 1//12
f  5//12 9//12 10//12
f  2//13 8//13 3//13
f  8//13 2//13 6//14

