# {"id":"BLDG_00030009007ed8b2","idOriginal":"BLDG_00030009007ed8b2","origin":[13.38428754857738,52.566422204435014],"elevation":41.3699989318848}
# Longitude: 13.38428754857738
# Latitude: 52.566422204435014
# Elevation: 41.3699989318848

# File produced by Open Asset Import Library (http://www.assimp.sf.net)
# (assimp v3.1.0)

mtllib BLDG_00030009007ed8b2.obj.mtl

# 10 vertex positions
v  0.000385407 18.0567 -0.00057274
v  7.7475 21.8666 13.0917
v  6.35237 21.8666 -0.683
v  1.37516 18.0567 13.7401
v  14.1197 18.0567 12.4435
v  12.7042 18.0567 -1.36519
v  1.37477 -8.41371e-16 13.7406
v  14.1193 -7.61981e-16 12.4441
v  0 0 0
v  12.7038 8.35584e-17 -1.36461

# 0 UV coordinates

# 16 vertex normals
vn -0.50959 0.858868 0.0516123
vn -0.508664 0.859459 0.0508927
vn 0.509535 0.858863 -0.0522308
vn 0.508613 0.859453 -0.0515133
vn 0.101211 2.94195e-05 0.994865
vn 0.101211 2.93663e-05 0.994865
vn 0.101211 2.94672e-05 0.994865
vn -0.995032 2.43928e-05 0.0995545
vn -0.995032 2.43959e-05 0.0995545
vn -0.106803 -2.92578e-05 -0.99428
vn -0.106803 -2.92553e-05 -0.99428
vn -0.106803 -2.92504e-05 -0.99428
vn 0.994787 -2.44652e-05 -0.101972
vn 0.994787 -2.44576e-05 -0.101972
vn 4.7882e-24 -1 -6.12323e-17
vn 0 -1 -6.12323e-17

# Mesh 'defaultobject' with 16 faces
g defaultobject
usemtl DefaultMaterial
f  1//1 2//1 3//1
f  2//2 1//2 4//2
f  3//3 5//3 6//3
f  5//4 3//4 2//4
f  5//5 7//5 8//5
f  7//5 5//5 4//6
f  4//6 5//5 2//7
f  4//8 9//8 7//8
f  9//8 4//8 1//9
f  1//10 10//10 9//10
f  10//10 1//10 6//11
f  6//11 1//10 3//12
f  10//13 5//13 8//13
f  5//13 10//13 6//14
f  9//15 8//15 7//15
f  8//15 9//15 10//16

