# {"id":"BLDG_00030009007e104d","idOriginal":"BLDG_00030009007e104d","origin":[13.39396237803367,52.55144477589453],"elevation":48.3699989318848}
# Longitude: 13.39396237803367
# Latitude: 52.55144477589453
# Elevation: 48.3699989318848

# File produced by Open Asset Import Library (http://www.assimp.sf.net)
# (assimp v3.1.0)

mtllib BLDG_00030009007e104d.obj.mtl

# 34 vertex positions
v  11.8631 3.5408 -9.91053
v  18.0231 6.38982e-16 -10.4354
v  11.863 6.06838e-16 -9.91042
v  18.0232 3.5408 -10.4355
v  18.9529 3.5408 -1.87214
v  18.9528 1.14629e-16 -1.87203
v  12.8019 3.5408 -1.26458
v  12.8018 7.74266e-17 -1.26447
v  19.6234 3.5408 4.30359
v  19.6234 -2.63526e-16 4.3037
v  13.4723 -3.00728e-16 4.91126
v  16.5479 4.04624 4.60735
v  13.4724 4.04624 4.91113
v  6.98545 4.04624 5.55187
v  6.98537 -3.39962e-16 5.552
v  6.98544 3.5408 5.55189
v  6.78398 3.87776 3.49112
v  6.38103 3.5408 -0.630379
v  6.38096 3.85927e-17 -0.630267
v  2.73148 3.87776 5.97205
v  3.79498 4.04624 5.867
v  0.604486 3.5408 6.18215
v  0 0 0
v  0.60441 -3.78555e-16 6.18226
v  7.5619e-05 3.5408 -0.00011219
v  6.68325 4.04624 2.46074
v  2.53113 4.04624 25.8889
v  2.53104 -1.58524e-15 25.889
v  0.604496 4.04624 6.18214
v  8.92046 3.5408 25.3444
v  8.92039 -1.5519e-15 25.3445
v  15.2768 4.04624 -7.10032
v  15.8774 4.04624 -1.56838
v  3.49277 4.04624 2.77587

# 0 UV coordinates

# 49 vertex normals
vn -0.0849105 -2.95921e-05 -0.996389
vn -0.0849107 -2.98834e-05 -0.996389
vn 0.994157 -2.48587e-05 -0.10794
vn 0.994157 -2.43115e-05 -0.10794
vn -0.994157 2.45731e-05 0.10794
vn -0.994157 2.45549e-05 0.10794
vn 0.994157 -2.48439e-05 -0.10794
vn 0.0982949 2.93761e-05 0.995157
vn 0.0982949 2.94486e-05 0.995157
vn 0.0982949 2.94391e-05 0.995157
vn 0.0982948 2.94505e-05 0.995157
vn 0.995255 -2.46247e-05 -0.0973013
vn -0.0982948 -2.94361e-05 -0.995157
vn 0.098295 2.97942e-05 0.995157
vn -0.995255 2.43399e-05 0.0973013
vn -0.995255 2.43381e-05 0.0973013
vn -0.0982948 -2.94323e-05 -0.995157
vn 0.995255 -2.46323e-05 -0.0973013
vn -0.995255 2.44067e-05 0.0973013
vn -0.995255 2.4343e-05 0.0973013
vn 0.0982947 2.98225e-05 0.995157
vn 0.995255 -2.427e-05 -0.0973013
vn 0.0849108 3.01302e-05 0.996389
vn 0.0849106 2.98635e-05 0.996389
vn 7.87907e-24 -1 -6.12323e-17
vn 0 -1 -6.12323e-17
vn -6.89412e-25 -1 -6.12323e-17
vn 0 -1 -6.12323e-17
vn 5.31659e-24 -1 -6.12323e-17
vn 1.33431e-23 -1 -6.12323e-17
vn -0.0137073 0.986884 -0.160849
vn 0.160467 0.986887 -0.0174226
vn 0.160467 0.986887 -0.0174226
vn -0.160466 0.986888 0.0174225
vn -0.160466 0.986888 0.0174225
vn 0.160467 0.986887 -0.0174227
vn 0.160467 0.986887 -0.0174226
vn -0.00797179 0.996706 -0.080708
vn -0.160466 0.986888 0.0174225
vn -0.00797178 0.996706 -0.080708
vn -0.00797178 0.996706 -0.080708
vn 0.154993 0.987799 -0.0151529
vn -0.154991 0.9878 0.0151528
vn -0.154991 0.9878 0.0151528
vn -0.0157886 0.987016 -0.159847
vn -0.0157886 0.987016 -0.159847
vn 0.0157884 0.987016 0.159846
vn 0.0782107 0.996908 -0.00764628
vn 0.0782107 0.996908 -0.00764628

# Mesh 'defaultobject' with 58 faces
g defaultobject
usemtl DefaultMaterial
f  1//1 2//1 3//1
f  2//1 1//1 4//2
f  2//3 5//3 6//3
f  5//3 2//3 4//4
f  7//5 3//5 8//5
f  3//5 7//5 1//6
f  6//3 9//7 10//7
f  9//7 6//3 5//3
f  9//8 11//8 10//8
f  11//8 9//8 12//9
f  11//8 12//9 13//10
f  11//8 14//11 15//11
f  14//11 11//8 13//10
f  16//12 17//12 14//12
f  18//13 8//13 19//13
f  8//13 18//13 7//13
f  20//14 16//14 21//14
f  22//15 23//15 24//15
f  23//15 22//15 25//16
f  25//17 19//13 23//17
f  19//13 25//17 18//13
f  17//12 18//18 26//18
f  27//19 24//15 28//19
f  24//15 27//19 29//20
f  22//21 20//14 29//21
f  15//22 30//22 31//22
f  30//22 15//22 16//12
f  31//23 27//23 28//23
f  27//23 31//23 30//24
f  2//25 8//25 3//25
f  8//25 2//25 6//26
f  11//27 6//26 10//27
f  6//26 11//27 8//25
f  19//28 11//27 15//28
f  11//27 19//28 8//25
f  23//29 15//28 24//29
f  15//28 23//29 19//28
f  24//29 31//30 28//30
f  31//30 24//29 15//28
f  32//31 4//31 1//31
f  33//32 4//32 32//32
f  4//32 33//32 5//33
f  7//34 32//34 1//34
f  32//34 7//34 33//35
f  12//36 5//33 33//32
f  5//33 12//36 9//37
f  12//38 7//38 13//38
f  12//39 33//35 7//34
f  7//38 14//40 13//38
f  14//40 7//38 18//41
f  21//42 16//42 34//42
f  34//43 22//43 21//43
f  22//43 34//43 25//44
f  25//45 26//45 18//45
f  26//45 25//45 34//46
f  34//47 16//47 26//47
f  16//48 27//48 30//48
f  27//48 16//48 29//49

