# {"id":"BLDG_0003000f003bc975","idOriginal":"BLDG_0003000f003bc975","origin":[13.334762425245655,52.50736272295709],"elevation":33.2299995422363}
# Longitude: 13.334762425245655
# Latitude: 52.50736272295709
# Elevation: 33.2299995422363

# File produced by Open Asset Import Library (http://www.assimp.sf.net)
# (assimp v3.1.0)

mtllib BLDG_0003000f003bc975.obj.mtl

# 78 vertex positions
v  -0.585089 1.00359e-15 -16.3899
v  1.27556 1.01576e-15 -16.5886
v  -0.299026 8.39971e-16 -13.7178
v  7.04169 2.15112e-15 -35.1305
v  9.27917 2.31054e-15 -37.7339
v  8.41407 2.12688e-15 -34.7346
v  8.25794 2.32862e-15 -38.0292
v  3.10555 6.59112e-16 -10.7641
v  19.3886 2.35979e-15 -38.5383
v  10.4298 6.28926e-16 -10.2711
v  3.4202 7.26031e-16 -11.857
v  10.339 2.53541e-15 -41.4064
v  1.69069 7.7844e-16 -12.7129
v  1.56164 8.52191e-16 -13.9173
v  6.01984 1.77723e-15 -29.0243
v  1.1794 1.07067e-15 -17.4854
v  5.31056 1.67373e-15 -27.3341
v  13.5936 -0.279999 3.92224
v  20.4314 -0.279999 0.431655
v  18.9757 -0.279999 5.47439
v  11.0306 -0.279999 3.18262
v  8.53351 -0.279999 2.46195
v  0 -0.279999 -1.7145e-17
v  2.38393 -0.279999 -8.2652
v  10.4298 -0.279999 -10.2711
v  32.5827 -0.279999 -41.6852
v  3.10555 -0.279999 -10.7641
v  19.3886 -0.279999 -38.5383
v  10.3389 -0.279999 -41.4064
v  6.01604 -0.279999 -42.6534
v  9.47272 -0.279999 -54.6318
v  34.4014 -0.279999 -47.9901
v  31.9999 -0.279999 -48.6837
v  28.5301 -0.279999 -49.6846
v  26.0191 -0.279999 -50.4083
v  17.3034 -0.279999 -52.9229
v  17.5808 -0.279999 -53.8837
v  9.89645 -0.279999 -56.1006
v  12.3936 -0.279999 -55.3803
v  3.1057 7.05113 -10.7643
v  10.4299 7.05113 -10.2714
v  19.3888 7.05113 -38.5385
v  10.3391 7.05113 -41.4067
v  9.27932 7.05113 -37.7341
v  8.25809 7.05113 -38.0294
v  7.04184 7.05113 -35.1307
v  8.41422 7.05113 -34.7348
v  6.01999 7.05113 -29.0245
v  5.31071 7.05113 -27.3343
v  1.17955 7.05113 -17.4857
v  1.27571 7.05113 -16.5888
v  -0.584939 7.05113 -16.3902
v  -0.298876 7.05113 -13.718
v  1.56179 7.05113 -13.9176
v  1.69084 7.05113 -12.7131
v  3.42035 7.05113 -11.8572
v  2.38415 10.3421 -8.26554
v  3.10577 10.3421 -10.7644
v  0.00022597 10.3421 -0.000335621
v  8.53374 10.3421 2.46162
v  11.0308 10.3421 3.18228
v  13.5938 10.3421 3.9219
v  18.9759 10.3421 5.47406
v  20.4316 10.3421 0.431319
v  32.5829 10.3421 -41.6855
v  34.4017 10.3421 -47.9905
v  32.0002 10.3421 -48.684
v  28.5304 10.3421 -49.685
v  26.0193 10.3421 -50.4087
v  17.3037 10.3421 -52.9232
v  17.581 10.3421 -53.884
v  12.3938 10.3421 -55.3806
v  9.89668 10.3421 -56.101
v  9.47295 10.3421 -54.6321
v  6.01626 10.3421 -42.6538
v  10.3392 10.3421 -41.4068
v  19.3888 10.3421 -38.5386
v  10.43 10.3421 -10.2715

# 0 UV coordinates

# 82 vertex normals
vn -3.88193e-23 -1 -6.12323e-17
vn 6.97539e-23 -1 -6.12323e-17
vn -2.11319e-22 -1 -6.12325e-17
vn -2.75399e-24 -1 -6.12323e-17
vn 7.48252e-22 -1 -6.12319e-17
vn 1.32692e-23 -1 -6.12323e-17
vn -7.72819e-23 -1 -6.12324e-17
vn 0 -1 -6.12324e-17
vn 0 -1 -6.12324e-17
vn 0 -1 -6.12323e-17
vn 3.35719e-19 -1 -6.10841e-17
vn 0 -1 0
vn -0.0671551 3.30076e-05 0.997743
vn -0.0671551 3.3003e-05 0.997743
vn 0.953269 -1.07278e-05 0.302123
vn 0.953269 -1.07278e-05 0.302123
vn 0.302121 -3.63273e-05 -0.95327
vn 0.302121 -3.68839e-05 -0.95327
vn -0.960795 1.17021e-05 -0.277258
vn 0.277764 -3.65614e-05 -0.960649
vn 0.277768 -3.60418e-05 -0.960648
vn -0.922119 7.29327e-06 -0.386906
vn -0.922119 7.23092e-06 -0.386906
vn -0.277207 3.65741e-05 0.96081
vn -0.277207 3.65918e-05 0.96081
vn -0.922217 7.40745e-06 -0.386672
vn -0.922217 7.36522e-06 -0.386672
vn -0.922096 7.39574e-06 -0.38696
vn -0.922159 7.47522e-06 -0.386812
vn -0.922159 7.40177e-06 -0.386812
vn -0.994302 2.44921e-05 0.106603
vn -0.106167 -2.9211e-05 -0.994348
vn -0.106166 -2.8943e-05 -0.994348
vn -0.994319 2.45205e-05 0.106444
vn -0.994319 2.45247e-05 0.106444
vn 0.106649 2.91992e-05 0.994297
vn 0.106649 2.92015e-05 0.994297
vn -0.994308 2.45047e-05 0.10654
vn -0.994308 2.45191e-05 0.10654
vn -0.443537 3.76816e-05 0.896256
vn -0.960964 1.16817e-05 -0.276673
vn -0.960964 1.17191e-05 -0.276674
vn -0.960744 1.16751e-05 -0.277438
vn -0.960832 1.16839e-05 -0.277132
vn -0.960832 1.16866e-05 -0.277132
vn -0.277198 3.62705e-05 0.960813
vn -0.277284 3.62632e-05 0.960788
vn -0.277284 3.62373e-05 0.960788
vn -0.277265 3.62404e-05 0.960793
vn -0.277265 3.62656e-05 0.960793
vn -0.2771 3.62723e-05 0.960841
vn -0.2771 3.62402e-05 0.960841
vn 0.96077 -1.15977e-05 0.277346
vn 0.96077 -1.17688e-05 0.277346
vn 0.96081 -1.17976e-05 0.277208
vn 0.96081 -1.1601e-05 0.277208
vn 0.960824 -1.16024e-05 0.277158
vn 0.960824 -1.19444e-05 0.277159
vn 0.277449 -3.62413e-05 -0.96074
vn 0.277448 -3.6341e-05 -0.960741
vn 0.277183 -3.62879e-05 -0.960817
vn 0.277183 -3.62381e-05 -0.960817
vn 0.276923 -3.6235e-05 -0.960892
vn 0.276923 -3.62847e-05 -0.960892
vn 0.277205 -3.62384e-05 -0.960811
vn 0.960774 -1.15923e-05 0.277333
vn 0.960773 -1.17635e-05 0.277335
vn 0.277204 -3.62633e-05 -0.960811
vn 0.277204 -3.62881e-05 -0.960811
vn 0.277176 -3.62629e-05 -0.960819
vn -0.960822 1.15991e-05 -0.277166
vn -0.960822 1.16853e-05 -0.277166
vn -0.960794 1.17812e-05 -0.277264
vn -0.960794 1.15954e-05 -0.277264
vn -0.277162 3.59095e-05 0.960823
vn -0.277161 3.62587e-05 0.960823
vn -0.302121 3.65624e-05 0.95327
vn -0.302121 3.65814e-05 0.95327
vn -0.953269 1.07359e-05 -0.302123
vn -0.953269 1.08215e-05 -0.302123
vn 0.0671551 -3.29609e-05 -0.997743
vn 0 1 0

# Mesh 'defaultobject' with 148 faces
g defaultobject
usemtl DefaultMaterial
f  1//1 2//1 3//1
f  4//2 5//2 6//2
f  5//2 4//2 7//3
f  8//4 9//4 10//4
f  9//4 8//4 11//5
f  9//4 11//5 12//6
f  12//6 11//5 6//2
f  6//2 11//5 13//7
f  6//2 13//7 14//8
f  6//2 14//8 2//1
f  2//1 14//8 3//1
f  6//2 2//1 15//9
f  15//9 2//1 16//10
f  15//9 16//10 17//11
f  12//6 6//2 5//2
f  18//12 19//12 20//12
f  19//12 18//12 21//12
f  19//12 21//12 22//12
f  19//12 22//12 23//12
f  19//12 23//12 24//12
f  19//12 24//12 25//12
f  19//12 25//12 26//12
f  25//12 24//12 27//12
f  26//12 25//12 28//12
f  26//12 28//12 29//12
f  26//12 29//12 30//12
f  26//12 30//12 31//12
f  26//12 31//12 32//12
f  32//12 31//12 33//12
f  33//12 31//12 34//12
f  34//12 31//12 35//12
f  35//12 31//12 36//12
f  36//12 31//12 37//12
f  37//12 31//12 38//12
f  37//12 38//12 39//12
f  10//13 40//13 8//13
f  40//13 10//13 41//14
f  9//15 41//15 10//15
f  41//15 9//15 42//16
f  43//17 9//17 12//17
f  9//17 43//17 42//18
f  44//19 12//19 5//19
f  12//19 44//19 43//19
f  45//20 5//20 7//20
f  5//20 45//20 44//21
f  46//22 7//22 4//22
f  7//22 46//22 45//23
f  6//24 46//24 4//24
f  46//24 6//24 47//25
f  48//26 6//26 15//26
f  6//26 48//26 47//27
f  49//28 15//28 17//28
f  15//28 49//28 48//28
f  50//29 17//29 16//29
f  17//29 50//29 49//30
f  51//31 16//31 2//31
f  16//31 51//31 50//31
f  52//32 2//32 1//32
f  2//32 52//32 51//33
f  53//34 1//34 3//34
f  1//34 53//34 52//35
f  14//36 53//36 3//36
f  53//36 14//36 54//37
f  55//38 14//38 13//38
f  14//38 55//38 54//39
f  11//40 55//40 13//40
f  55//40 11//40 56//40
f  40//41 11//41 8//41
f  11//41 40//41 56//42
f  57//43 27//43 24//43
f  27//43 57//43 58//43
f  59//44 24//44 23//44
f  24//44 59//44 57//45
f  22//46 59//46 23//46
f  59//46 22//46 60//46
f  21//47 60//47 22//47
f  60//47 21//47 61//48
f  18//49 61//49 21//49
f  61//49 18//49 62//50
f  20//51 62//51 18//51
f  62//51 20//51 63//52
f  19//53 63//53 20//53
f  63//53 19//53 64//54
f  26//55 64//55 19//55
f  64//55 26//55 65//56
f  32//57 65//57 26//57
f  65//57 32//57 66//58
f  67//59 32//59 33//59
f  32//59 67//59 66//60
f  68//61 33//61 34//61
f  33//61 68//61 67//62
f  69//63 34//63 35//63
f  34//63 69//63 68//64
f  70//65 35//65 36//65
f  35//65 70//65 69//65
f  37//66 70//66 36//66
f  70//66 37//66 71//67
f  72//68 37//68 39//68
f  37//68 72//68 71//69
f  73//70 39//70 38//70
f  39//70 73//70 72//70
f  74//71 38//71 31//71
f  38//71 74//71 73//72
f  75//73 31//73 30//73
f  31//73 75//73 74//74
f  29//75 75//75 30//75
f  75//75 29//75 76//76
f  28//77 76//77 29//77
f  76//77 28//77 77//78
f  78//79 28//79 25//79
f  28//79 78//79 77//80
f  58//81 25//81 27//81
f  25//81 58//81 78//81
f  52//82 53//82 54//82
f  41//82 56//82 40//82
f  56//82 41//82 42//82
f  56//82 42//82 55//82
f  55//82 42//82 54//82
f  54//82 42//82 51//82
f  54//82 51//82 52//82
f  51//82 42//82 50//82
f  50//82 42//82 49//82
f  49//82 42//82 48//82
f  48//82 42//82 47//82
f  47//82 42//82 46//82
f  46//82 42//82 44//82
f  44//82 42//82 43//82
f  45//82 46//82 44//82
f  57//82 78//82 58//82
f  78//82 57//82 59//82
f  78//82 59//82 60//82
f  78//82 60//82 65//82
f  65//82 60//82 64//82
f  64//82 60//82 61//82
f  64//82 61//82 62//82
f  64//82 62//82 63//82
f  74//82 72//82 73//82
f  72//82 74//82 75//82
f  72//82 75//82 71//82
f  71//82 75//82 76//82
f  71//82 76//82 70//82
f  70//82 76//82 69//82
f  69//82 76//82 77//82
f  69//82 77//82 68//82
f  68//82 77//82 78//82
f  68//82 78//82 67//82
f  67//82 78//82 66//82
f  66//82 78//82 65//82

