# {"id":"BLDG_0003000e003f1eb4","idOriginal":"BLDG_0003000e003f1eb4","origin":[13.362222521420504,52.52611344413641],"elevation":35.7099990844727}
# Longitude: 13.362222521420504
# Latitude: 52.52611344413641
# Elevation: 35.7099990844727

# File produced by Open Asset Import Library (http://www.assimp.sf.net)
# (assimp v3.1.0)

mtllib BLDG_0003000e003f1eb4.obj.mtl

# 178 vertex positions
v  3.36648 -0.389999 -12.5756
v  0.454948 9.06726 -12.3528
v  0.454746 -0.389999 -12.3525
v  3.36669 9.06726 -12.5758
v  3.15504 -0.389999 -17.0504
v  3.15524 9.06726 -17.0507
v  10.1024 -0.389999 -17.6186
v  10.1026 9.06726 -17.6189
v  10.4417 -0.16 -13.1176
v  3.36675 12.2443 -12.576
v  3.36649 -0.16 -12.5756
v  10.442 12.2443 -13.118
v  10.1024 -0.16 -17.6186
v  10.1027 12.2443 -17.619
v  3.15531 12.2443 -17.0508
v  3.15504 -0.16 -17.0504
v  -1.98446 -0.48 -19.4516
v  -1.53921 3.57416 -12.2154
v  -1.5393 -0.48 -12.2153
v  -1.98438 3.57416 -19.4517
v  -9.78849 3.57416 -18.996
v  -9.78858 -0.48 -18.9958
v  -9.73413 3.57416 -18.0679
v  -9.73422 -0.48 -18.0677
v  -13.4423 3.57416 -13.8999
v  -13.4424 -0.48 -13.8997
v  -9.12968 3.57416 -10.0614
v  -9.12977 -0.48 -10.0613
v  -7.50836 -0.48 -11.9767
v  -7.50827 3.57416 -11.9768
v  77.728 -1.38 -34.4174
v  81.0126 9.45569 -27.8287
v  81.0124 -1.38 -27.8283
v  77.7282 9.45569 -34.4178
v  62.9621 9.45569 -28.9783
v  62.9619 -1.38 -28.978
v  50.9095 9.45569 -24.5376
v  50.9093 -1.38 -24.5372
v  51.9214 9.45569 -21.7469
v  51.9212 -1.38 -21.7466
v  45.6063 9.45569 -19.424
v  45.6061 -1.38 -19.4237
v  35.8604 9.45569 -17.2787
v  35.8602 -1.38 -17.2784
v  29.069 9.45569 -16.1269
v  29.0687 -1.38 -16.1266
v  28.5759 -1.38 -19.091
v  28.5761 9.45569 -19.0914
v  19.159 9.45569 -17.5476
v  19.1588 -1.38 -17.5473
v  19.6422 9.45569 -14.5907
v  19.642 -1.38 -14.5903
v  10.4419 9.45569 -13.1179
v  10.4417 -1.38 -13.1176
v  0.454956 9.45569 -12.3528
v  0.454725 -1.38 -12.3524
v  1.25773 9.45569 -0.078339
v  1.25749 -1.38 -0.0779962
v  0.00023093 9.45569 -0.00034279
v  0 -1.38 -8.45005e-17
v  1.10312 9.45569 17.8635
v  1.10289 -1.38 17.8638
v  2.35061 -1.38 17.7863
v  2.35084 9.45569 17.7859
v  2.49716 9.45569 20.1677
v  2.49693 -1.38 20.168
v  6.51952 -1.38 19.9083
v  6.51975 9.45569 19.9079
v  8.6362 -1.38 19.7728
v  8.63643 9.45569 19.7724
v  12.6288 -1.38 19.5155
v  12.6291 9.45569 19.5152
v  12.4814 -1.38 17.16
v  12.4816 9.45569 17.1596
v  13.7389 -1.38 17.0814
v  13.7391 9.45569 17.081
v  12.6175 -1.38 -0.803562
v  12.6177 9.45569 -0.803904
v  11.3615 9.45569 -0.725275
v  11.3612 -1.38 -0.724932
v  11.1026 -1.38 -5.38403
v  11.1028 9.45569 -5.38437
v  12.3184 -1.38 -5.58122
v  12.3187 9.45569 -5.58156
v  38.4578 -1.38 -9.81131
v  38.458 9.45569 -9.81165
v  39.7036 -1.38 -10.0128
v  39.7038 9.45569 -10.0132
v  40.8903 9.45569 -5.45968
v  40.89 -1.38 -5.45934
v  39.6813 9.45569 -5.14275
v  39.6811 -1.38 -5.1424
v  44.2157 9.45569 12.1602
v  44.2154 -1.38 12.1605
v  45.4041 -1.38 11.8487
v  45.4044 9.45569 11.8484
v  46.0019 9.45569 14.1258
v  46.0016 -1.38 14.1261
v  49.8273 -1.38 13.1468
v  49.8276 9.45569 13.1464
v  51.8812 -1.38 12.6219
v  51.8815 9.45569 12.6216
v  55.7941 -1.38 11.6204
v  55.7943 9.45569 11.6201
v  55.1957 -1.38 9.32647
v  55.1959 9.45569 9.32613
v  56.4132 -1.38 9.00787
v  56.4134 9.45569 9.00753
v  51.8897 -1.38 -8.31806
v  51.8899 9.45569 -8.31841
v  50.6718 9.45569 -8.00042
v  50.6715 -1.38 -8.00008
v  49.465 -1.38 -12.5558
v  49.4652 9.45569 -12.5561
v  50.6678 -1.38 -12.9979
v  50.668 9.45569 -12.9983
v  75.4823 -1.38 -22.1131
v  75.4825 9.45569 -22.1134
v  76.7127 -1.38 -22.5645
v  76.713 9.45569 -22.5648
v  78.5951 9.45569 -18.5187
v  78.5948 -1.38 -18.5184
v  77.4685 9.45569 -17.9781
v  77.4683 -1.38 -17.9777
v  86.4022 9.45569 0.628587
v  86.4019 -1.38 0.62893
v  91.1695 -1.38 -1.63919
v  91.1697 9.45569 -1.63953
v  93.0867 -1.38 -2.55173
v  93.0869 9.45569 -2.55208
v  97.8456 -1.38 -4.81513
v  97.8458 9.45569 -4.81548
v  96.4222 -1.38 -7.79059
v  96.4225 9.45569 -7.79094
v  92.3113 -1.38 -16.3905
v  92.3115 9.45569 -16.3908
v  91.034 -1.38 -19.0604
v  91.0343 9.45569 -19.0608
v  90.1319 9.45569 -18.6288
v  90.1317 -1.38 -18.6284
v  89.3805 -1.38 -20.2045
v  89.3807 9.45569 -20.2048
v  86.8258 -1.38 -25.5658
v  86.8261 9.45569 -25.5661
v  83.0493 9.45569 -23.6657
v  83.0491 -1.38 -23.6653
v  87.719 1.59166e-15 -25.9938
v  86.8261 11.7778 -25.5662
v  86.8259 1.56546e-15 -25.5658
v  87.7192 11.7778 -25.9941
v  85.7556 1.84317e-15 -30.1012
v  85.7559 11.7778 -30.1016
v  84.7544 11.7778 -29.6214
v  84.7541 1.81377e-15 -29.6211
v  81.0127 11.7778 -27.8287
v  81.0124 1.704e-15 -27.8284
v  83.0494 11.7778 -23.6657
v  83.0491 1.44909e-15 -23.6654
v  10.0314 -0.389999 -18.5608
v  10.0316 9.06726 -18.5611
v  10.578 -0.389999 -18.4826
v  10.5782 9.06726 -18.4829
v  9.01043 -0.389999 -45.35
v  9.01063 9.06726 -45.3503
v  3.54049 9.06726 -45.0314
v  3.54029 -0.389999 -45.0311
v  1.7442 9.06726 -44.9264
v  1.74399 -0.389999 -44.9261
v  1.84356 9.06726 -43.2199
v  1.84335 -0.389999 -43.2197
v  1.04865 9.06726 -43.1728
v  1.04845 -0.389999 -43.1725
v  -3.4262 9.06726 -42.9119
v  -3.4264 -0.389999 -42.9116
v  -1.98426 9.06726 -19.4519
v  -1.98446 -0.389999 -19.4516
v  -1.53909 9.06726 -12.2156
v  -1.53929 -0.389999 -12.2153

# 0 UV coordinates

# 153 vertex normals
vn 0.0763878 2.9945e-05 0.997078
vn 0.0763874 2.98436e-05 0.997078
vn 0.998886 -2.27687e-05 -0.0471997
vn 0.998886 -2.27729e-05 -0.0471997
vn 0.0815142 2.98193e-05 0.996672
vn 0.0815142 2.98265e-05 0.996672
vn 0.0763877 2.99553e-05 0.997078
vn 0.0763875 2.98794e-05 0.997078
vn 0.997171 -2.36118e-05 -0.0751687
vn 0.997171 -2.36182e-05 -0.0751687
vn -0.0815142 -2.98343e-05 -0.996672
vn -0.998886 2.2787e-05 0.0471996
vn -0.998886 2.27678e-05 0.0471997
vn 0.998113 -2.31827e-05 -0.0614024
vn 0.998113 -2.32152e-05 -0.0614024
vn -0.0582956 -3.02198e-05 -0.998299
vn -0.0582956 -3.02249e-05 -0.998299
vn -0.998289 2.29778e-05 0.0584702
vn -0.998289 2.32126e-05 0.0584692
vn -0.747117 -5.11535e-06 -0.664693
vn -0.747117 -5.13474e-06 -0.664693
vn -0.66485 3.76212e-05 0.746977
vn -0.66485 3.79533e-05 0.746977
vn 0.763253 4.19468e-06 0.646099
vn 0.763253 4.26498e-06 0.646099
vn 0.0399375 3.08816e-05 0.999202
vn 0.0399373 3.06454e-05 0.999202
vn 0.894976 -3.30422e-05 -0.446113
vn 0.894976 -3.28748e-05 -0.446113
vn -0.345666 -2.2143e-05 -0.938358
vn -0.345666 -2.20995e-05 -0.938358
vn -0.345726 -2.2141e-05 -0.938335
vn -0.940106 3.09895e-05 0.340883
vn -0.940106 3.09295e-05 0.340884
vn -0.345219 -2.2323e-05 -0.938522
vn -0.214979 -2.64026e-05 -0.976619
vn -0.214979 -2.63269e-05 -0.976619
vn -0.167211 -2.76769e-05 -0.985921
vn -0.167211 -2.77064e-05 -0.985921
vn 0.986459 -2.62082e-05 -0.164009
vn -0.161768 -2.78216e-05 -0.986829
vn -0.986907 2.61163e-05 0.161289
vn -0.986907 2.61305e-05 0.161289
vn -0.158067 -2.79195e-05 -0.987428
vn -0.158066 -2.78326e-05 -0.987428
vn -0.0763875 -2.98761e-05 -0.997078
vn -0.0763876 -2.99649e-05 -0.997078
vn -0.997868 2.33291e-05 0.0652622
vn -0.997868 2.33294e-05 0.0652622
vn -0.0619062 -3.02553e-05 -0.998082
vn -0.0619062 -3.02544e-05 -0.998082
vn -0.9981 2.32329e-05 0.0616214
vn -0.9981 2.32209e-05 0.0616214
vn 0.062051 3.03006e-05 0.998073
vn 0.0620495 3.01246e-05 0.998073
vn -0.998118 2.32129e-05 0.0613188
vn 0.0644368 3.0071e-05 0.997922
vn 0.0644373 3.02484e-05 0.997922
vn 0.0638837 3.02567e-05 0.997957
vn 0.0638828 3.00829e-05 0.997957
vn 0.0643011 3.00741e-05 0.997931
vn 0.998047 -2.32254e-05 -0.0624669
vn 0.998047 -2.32371e-05 -0.0624669
vn 0.0623874 3.0294e-05 0.998052
vn 0.99804 -2.32407e-05 -0.0625784
vn 0.99804 -2.32309e-05 -0.0625784
vn -0.0624663 -3.02427e-05 -0.998047
vn 0.998463 -2.3018e-05 -0.0554235
vn 0.998463 -2.30203e-05 -0.0554235
vn 0.160093 2.7823e-05 0.987102
vn 0.15975 2.78402e-05 0.987157
vn 0.15975 2.78136e-05 0.987157
vn 0.159667 2.78177e-05 0.987171
vn -0.96769 2.87591e-05 0.252143
vn -0.96769 2.84073e-05 0.252144
vn -0.253592 -2.51603e-05 -0.967311
vn -0.967336 2.88054e-05 0.253496
vn -0.967337 2.87943e-05 0.253496
vn 0.253742 2.5198e-05 0.967272
vn 0.253742 2.52026e-05 0.967272
vn -0.967266 2.88124e-05 0.253765
vn -0.967266 2.84496e-05 0.253766
vn 0.248 2.53678e-05 0.96876
vn 0.248 2.52843e-05 0.96876
vn 0.24758 2.52944e-05 0.968868
vn 0.247966 2.52829e-05 0.968769
vn 0.247966 2.53701e-05 0.968769
vn 0.967619 -2.84147e-05 -0.252416
vn 0.967619 -2.87767e-05 -0.252415
vn 0.253159 2.52153e-05 0.967425
vn 0.253159 2.52198e-05 0.967425
vn 0.967567 -2.83893e-05 -0.252616
vn 0.967567 -2.84286e-05 -0.252616
vn -0.25258 -2.52329e-05 -0.967576
vn -0.252581 -2.53218e-05 -0.967576
vn 0.966671 -2.88721e-05 -0.256021
vn 0.966671 -2.88534e-05 -0.256021
vn 0.345044 2.22438e-05 0.938587
vn 0.345044 2.23296e-05 0.938586
vn 0.344804 2.23196e-05 0.938675
vn 0.344804 2.23196e-05 0.938675
vn 0.344424 2.23034e-05 0.938814
vn 0.344425 2.2467e-05 0.938814
vn -0.906705 3.25157e-05 0.421766
vn -0.43268 -1.94256e-05 -0.901548
vn -0.901477 3.27343e-05 0.432827
vn -0.901477 3.27557e-05 0.432827
vn 0.429604 1.95044e-05 0.903017
vn 0.429769 1.94815e-05 0.902939
vn 0.429768 1.91913e-05 0.902939
vn 0.429509 1.919e-05 0.903063
vn 0.42951 1.94906e-05 0.903062
vn 0.902094 -3.27139e-05 -0.431539
vn 0.902095 -3.33276e-05 -0.431537
vn 0.902217 -3.33141e-05 -0.431282
vn 0.902217 -3.26493e-05 -0.431283
vn 0.902096 -3.26507e-05 -0.431535
vn -0.431839 -1.9152e-05 -0.901951
vn -0.431841 -1.92973e-05 -0.90195
vn 0.902705 -3.33336e-05 -0.430261
vn 0.902752 -3.33445e-05 -0.430161
vn 0.902752 -3.27072e-05 -0.430162
vn -0.4495 -1.88083e-05 -0.893281
vn 0.898261 -3.29107e-05 -0.439463
vn 0.432107 1.92403e-05 0.901822
vn 0.90223 -3.29042e-05 -0.431256
vn -0.432334 -1.92335e-05 -0.901714
vn -0.432076 -1.9243e-05 -0.901837
vn -0.898261 3.30797e-05 0.439461
vn 0.449499 1.85962e-05 0.893281
vn 0.997171 -2.35978e-05 -0.0751689
vn -0.141529 3.43563e-05 0.989934
vn 0.998302 -2.30809e-05 -0.0582443
vn 0.998302 -2.32008e-05 -0.0582443
vn -0.0581928 -3.01693e-05 -0.998305
vn -0.0581935 -3.05675e-05 -0.998305
vn -0.0583389 -3.01659e-05 -0.998297
vn -0.998309 2.31079e-05 0.0581264
vn -0.998309 2.30953e-05 0.0581265
vn -0.0591821 -3.01456e-05 -0.998247
vn -0.0582062 -3.05716e-05 -0.998305
vn -0.0582053 -3.01682e-05 -0.998305
vn -0.998116 2.32175e-05 0.0613478
vn -0.998116 2.32173e-05 0.0613478
vn -0.998113 2.32066e-05 0.0614024
vn -0.998113 2.32192e-05 0.0614024
vn 0.0686519 3.01259e-05 0.997641
vn 0 1 0
vn -2.09398e-23 -1 -6.12323e-17
vn 2.3486e-23 -1 -6.12324e-17
vn -1.09988e-23 -1 -6.12324e-17
vn 3.57925e-23 -1 -6.12324e-17
vn 0 -1 0

# Mesh 'defaultobject' with 336 faces
g defaultobject
usemtl DefaultMaterial
f  1//1 2//1 3//1
f  2//1 1//1 4//2
f  5//3 4//3 1//3
f  4//3 5//3 6//4
f  7//5 6//5 5//5
f  6//5 7//5 8//6
f  9//7 10//7 11//7
f  10//7 9//7 12//8
f  13//9 12//9 9//9
f  12//9 13//9 14//10
f  15//11 13//11 16//11
f  13//11 15//11 14//11
f  10//12 16//12 11//12
f  16//12 10//12 15//13
f  17//14 18//14 19//14
f  18//14 17//14 20//15
f  21//16 17//16 22//16
f  17//16 21//16 20//17
f  23//18 22//18 24//18
f  22//18 23//18 21//19
f  25//20 24//20 26//20
f  24//20 25//20 23//21
f  27//22 26//22 28//22
f  26//22 27//22 25//23
f  29//24 27//24 28//24
f  27//24 29//24 30//25
f  19//26 30//26 29//26
f  30//26 19//26 18//27
f  31//28 32//28 33//28
f  32//28 31//28 34//29
f  35//30 31//30 36//30
f  31//30 35//30 34//31
f  37//32 36//32 38//32
f  36//32 37//32 35//32
f  39//33 38//33 40//33
f  38//33 39//33 37//34
f  41//35 40//35 42//35
f  40//35 41//35 39//35
f  43//36 42//36 44//36
f  42//36 43//36 41//37
f  45//38 44//38 46//38
f  44//38 45//38 43//39
f  47//40 45//40 46//40
f  45//40 47//40 48//40
f  49//41 47//41 50//41
f  47//41 49//41 48//41
f  51//42 50//42 52//42
f  50//42 51//42 49//43
f  53//44 52//44 54//44
f  52//44 53//44 51//45
f  55//46 54//46 56//46
f  54//46 55//46 53//47
f  57//48 56//48 58//48
f  56//48 57//48 55//49
f  59//50 58//50 60//50
f  58//50 59//50 57//51
f  61//52 60//52 62//52
f  60//52 61//52 59//53
f  63//54 61//54 62//54
f  61//54 63//54 64//55
f  65//56 63//56 66//56
f  63//56 65//56 64//56
f  67//57 65//57 66//57
f  65//57 67//57 68//58
f  69//59 68//59 67//59
f  68//59 69//59 70//60
f  71//61 70//61 69//61
f  70//61 71//61 72//61
f  73//62 72//62 71//62
f  72//62 73//62 74//63
f  75//64 74//64 73//64
f  74//64 75//64 76//64
f  77//65 76//65 75//65
f  76//65 77//65 78//66
f  79//67 77//67 80//67
f  77//67 79//67 78//67
f  81//68 79//68 80//68
f  79//68 81//68 82//69
f  83//70 82//70 81//70
f  82//70 83//70 84//70
f  85//71 84//71 83//71
f  84//71 85//71 86//72
f  87//73 86//73 85//73
f  86//73 87//73 88//73
f  89//74 87//74 90//74
f  87//74 89//74 88//75
f  91//76 90//76 92//76
f  90//76 91//76 89//76
f  93//77 92//77 94//77
f  92//77 93//77 91//78
f  95//79 93//79 94//79
f  93//79 95//79 96//80
f  97//81 95//81 98//81
f  95//81 97//81 96//82
f  99//83 97//83 98//83
f  97//83 99//83 100//84
f  101//85 100//85 99//85
f  100//85 101//85 102//85
f  103//86 102//86 101//86
f  102//86 103//86 104//87
f  105//88 104//88 103//88
f  104//88 105//88 106//89
f  107//90 106//90 105//90
f  106//90 107//90 108//91
f  109//92 108//92 107//92
f  108//92 109//92 110//93
f  111//94 109//94 112//94
f  109//94 111//94 110//95
f  113//96 111//96 112//96
f  111//96 113//96 114//97
f  115//98 114//98 113//98
f  114//98 115//98 116//99
f  117//100 116//100 115//100
f  116//100 117//100 118//101
f  119//102 118//102 117//102
f  118//102 119//102 120//103
f  121//104 119//104 122//104
f  119//104 121//104 120//104
f  123//105 122//105 124//105
f  122//105 123//105 121//105
f  125//106 124//106 126//106
f  124//106 125//106 123//107
f  127//108 125//108 126//108
f  125//108 127//108 128//108
f  129//109 128//109 127//109
f  128//109 129//109 130//110
f  131//111 130//111 129//111
f  130//111 131//111 132//112
f  133//113 132//113 131//113
f  132//113 133//113 134//114
f  135//115 134//115 133//115
f  134//115 135//115 136//116
f  137//117 136//117 135//117
f  136//117 137//117 138//117
f  139//118 137//118 140//118
f  137//118 139//118 138//119
f  141//120 139//120 140//120
f  139//120 141//120 142//120
f  143//121 142//121 141//121
f  142//121 143//121 144//122
f  145//123 143//123 146//123
f  143//123 145//123 144//123
f  33//124 145//124 146//124
f  145//124 33//124 32//124
f  147//125 148//125 149//125
f  148//125 147//125 150//125
f  151//126 150//126 147//126
f  150//126 151//126 152//126
f  153//127 151//127 154//127
f  151//127 153//127 152//127
f  155//128 154//128 156//128
f  154//128 155//128 153//128
f  157//129 156//129 158//129
f  156//129 157//129 155//129
f  149//130 157//130 158//130
f  157//130 149//130 148//130
f  159//131 8//131 7//131
f  8//131 159//131 160//131
f  161//132 160//132 159//132
f  160//132 161//132 162//132
f  163//133 162//133 161//133
f  162//133 163//133 164//134
f  165//135 163//135 166//135
f  163//135 165//135 164//136
f  167//137 166//137 168//137
f  166//137 167//137 165//137
f  169//138 168//138 170//138
f  168//138 169//138 167//139
f  171//140 170//140 172//140
f  170//140 171//140 169//140
f  173//141 172//141 174//141
f  172//141 173//141 171//142
f  175//143 174//143 176//143
f  174//143 175//143 173//144
f  177//145 176//145 178//145
f  176//145 177//145 175//146
f  3//147 177//147 178//147
f  177//147 3//147 2//147
f  148//148 155//148 157//148
f  155//148 148//148 150//148
f  155//148 150//148 153//148
f  153//148 150//148 152//148
f  165//148 169//148 164//148
f  169//148 165//148 167//148
f  164//148 160//148 162//148
f  160//148 164//148 6//148
f  6//148 164//148 175//148
f  175//148 164//148 169//148
f  175//148 169//148 171//148
f  175//148 171//148 173//148
f  6//148 2//148 4//148
f  2//148 6//148 177//148
f  177//148 6//148 175//148
f  6//148 8//148 160//148
f  12//148 15//148 10//148
f  15//148 12//148 14//148
f  21//148 23//148 20//148
f  20//148 30//148 18//148
f  30//148 20//148 27//148
f  27//148 20//148 25//148
f  25//148 20//148 23//148
f  145//148 142//148 144//148
f  142//148 145//148 139//148
f  139//148 145//148 134//148
f  134//148 145//148 132//148
f  132//148 145//148 130//148
f  139//148 136//148 138//148
f  136//148 139//148 134//148
f  49//148 45//148 48//148
f  45//148 88//148 43//148
f  88//148 45//148 86//148
f  86//148 45//148 84//148
f  84//148 45//148 51//148
f  51//148 45//148 49//148
f  84//148 51//148 53//148
f  84//148 53//148 55//148
f  84//148 55//148 82//148
f  82//148 55//148 79//148
f  108//148 110//148 111//148
f  35//148 32//148 34//148
f  32//148 35//148 145//148
f  145//148 35//148 120//148
f  145//148 120//148 130//148
f  130//148 120//148 128//148
f  120//148 35//148 118//148
f  118//148 35//148 116//148
f  116//148 35//148 39//148
f  39//148 35//148 37//148
f  116//148 39//148 41//148
f  116//148 41//148 114//148
f  114//148 41//148 43//148
f  114//148 43//148 111//148
f  111//148 43//148 108//148
f  108//148 43//148 106//148
f  106//148 43//148 104//148
f  104//148 43//148 102//148
f  102//148 43//148 88//148
f  102//148 88//148 89//148
f  102//148 89//148 91//148
f  102//148 91//148 100//148
f  100//148 91//148 96//148
f  96//148 91//148 93//148
f  79//148 76//148 78//148
f  76//148 79//148 55//148
f  76//148 55//148 57//148
f  76//148 57//148 74//148
f  74//148 57//148 59//148
f  74//148 59//148 72//148
f  72//148 59//148 64//148
f  64//148 59//148 61//148
f  72//148 64//148 70//148
f  70//148 64//148 68//148
f  65//148 68//148 64//148
f  97//148 100//148 96//148
f  128//148 121//148 125//148
f  121//148 128//148 120//148
f  125//148 121//148 123//148
f  147//149 154//149 151//149
f  154//149 147//149 149//150
f  154//149 149//150 158//151
f  154//149 158//151 156//152
f  161//153 166//153 163//153
f  166//153 161//153 168//153
f  168//153 161//153 170//153
f  170//153 161//153 172//153
f  172//153 161//153 174//153
f  174//153 161//153 159//153
f  174//153 159//153 7//153
f  174//153 7//153 176//153
f  176//153 7//153 5//153
f  176//153 5//153 1//153
f  176//153 1//153 3//153
f  176//153 3//153 178//153
f  9//153 16//153 13//153
f  16//153 9//153 11//153
f  19//153 22//153 17//153
f  22//153 19//153 24//153
f  24//153 19//153 29//153
f  24//153 29//153 26//153
f  26//153 29//153 28//153
f  135//153 140//153 137//153
f  141//153 146//153 143//153
f  146//153 141//153 140//153
f  146//153 140//153 135//153
f  146//153 135//153 133//153
f  129//153 119//153 131//153
f  119//153 129//153 122//153
f  122//153 129//153 124//153
f  124//153 129//153 127//153
f  124//153 127//153 126//153
f  33//153 36//153 31//153
f  36//153 33//153 146//153
f  36//153 146//153 119//153
f  119//153 146//153 133//153
f  119//153 133//153 131//153
f  36//153 119//153 117//153
f  36//153 117//153 115//153
f  36//153 115//153 40//153
f  36//153 40//153 38//153
f  40//153 115//153 42//153
f  42//153 115//153 44//153
f  44//153 115//153 113//153
f  44//153 113//153 112//153
f  98//153 95//153 99//153
f  107//153 112//153 109//153
f  112//153 107//153 44//153
f  44//153 107//153 87//153
f  87//153 107//153 90//153
f  90//153 107//153 105//153
f  90//153 105//153 92//153
f  92//153 105//153 103//153
f  92//153 103//153 95//153
f  92//153 95//153 94//153
f  95//153 103//153 101//153
f  95//153 101//153 99//153
f  66//153 63//153 67//153
f  75//153 80//153 77//153
f  80//153 75//153 58//153
f  58//153 75//153 60//153
f  60//153 75//153 63//153
f  60//153 63//153 62//153
f  63//153 75//153 73//153
f  63//153 73//153 71//153
f  63//153 71//153 69//153
f  63//153 69//153 67//153
f  87//153 46//153 44//153
f  46//153 87//153 85//153
f  46//153 85//153 83//153
f  46//153 83//153 52//153
f  46//153 52//153 50//153
f  52//153 83//153 54//153
f  54//153 83//153 56//153
f  56//153 83//153 81//153
f  56//153 81//153 80//153
f  56//153 80//153 58//153
f  50//153 47//153 46//153

