# {"id":"BLDG_00030000001e8c97","idOriginal":"BLDG_00030000001e8c97","origin":[13.376497243024534,52.541416054171016],"elevation":37.5200004577637}
# Longitude: 13.376497243024534
# Latitude: 52.541416054171016
# Elevation: 37.5200004577637

# File produced by Open Asset Import Library (http://www.assimp.sf.net)
# (assimp v3.1.0)

mtllib BLDG_00030000001e8c97.obj.mtl

# 12 vertex positions
v  0.000327534 15.3539 -0.00048621
v  26.0887 15.3539 8.38718
v  8.25712 15.3539 -8.755
v  8.50591 15.3539 8.12582
v  16.7883 15.3539 16.0483
v  17.6629 15.3539 16.8852
v  0 0 0
v  8.50558 -4.97593e-16 8.12631
v  16.788 -9.82706e-16 16.0488
v  17.6625 -1.03395e-15 16.8857
v  26.0884 -5.13596e-16 8.38766
v  8.2568 5.3606e-16 -8.75452

# 0 UV coordinates

# 14 vertex normals
vn -0 1 0
vn -0.690802 3.76644e-05 0.723044
vn -0.690802 3.76328e-05 0.723044
vn -0.69123 3.76606e-05 0.722635
vn -0.691396 3.76591e-05 0.722476
vn 0.710116 7.14183e-06 0.704085
vn 0.693034 -3.76066e-05 -0.720905
vn 0.693034 -3.7687e-05 -0.720905
vn -0.727484 -6.20849e-06 -0.686125
vn -0.727484 -6.23589e-06 -0.686125
vn 0 -1 -6.12323e-17
vn -2.67599e-25 -1 -6.12323e-17
vn -9.651e-26 -1 -6.12323e-17
vn 2.37592e-23 -1 -6.12323e-17

# Mesh 'defaultobject' with 20 faces
g defaultobject
usemtl DefaultMaterial
f  1//1 2//1 3//1
f  2//1 1//1 4//1
f  2//1 4//1 5//1
f  2//1 5//1 6//1
f  4//2 7//2 8//2
f  7//2 4//2 1//3
f  5//4 8//4 9//4
f  8//4 5//4 4//4
f  6//5 9//5 10//5
f  9//5 6//5 5//5
f  6//6 11//6 2//6
f  11//6 6//6 10//6
f  2//7 12//7 3//7
f  12//7 2//7 11//8
f  1//9 12//9 7//9
f  12//9 1//9 3//10
f  12//11 8//11 7//11
f  8//11 12//11 11//12
f  8//11 11//12 9//13
f  9//13 11//12 10//14

