# {"id":"BLDG_0003000b002421e3","idOriginal":"BLDG_0003000b002421e3","origin":[13.401773864283275,52.53228182683259],"elevation":43.3400001525879}
# Longitude: 13.401773864283275
# Latitude: 52.53228182683259
# Elevation: 43.3400001525879

# File produced by Open Asset Import Library (http://www.assimp.sf.net)
# (assimp v3.1.0)

mtllib BLDG_0003000b002421e3.obj.mtl

# 12 vertex positions
v  9.6906e-05 4.53549 -0.00014353
v  9.98606 -4.22407e-17 0.689843
v  9.98616 4.53549 0.6897
v  0 0 0
v  11.159 9.58883e-16 -15.6598
v  11.1591 4.53549 -15.6599
v  11.2109 1.00333e-15 -16.3856
v  11.2109 4.53549 -16.3858
v  1.22489 4.53549 -17.0756
v  1.22479 1.04557e-15 -17.0755
v  0.549982 4.53549 -7.67031
v  0.549885 4.69662e-16 -7.67017

# 0 UV coordinates

# 16 vertex normals
vn -0.0689163 3.30323e-05 0.997622
vn -0.0689163 3.30533e-05 0.997622
vn 0.997436 -1.91391e-05 0.0715602
vn 0.997436 -1.89082e-05 0.0715601
vn 0.997463 -1.91479e-05 0.0711841
vn 0.0689163 -3.33576e-05 -0.997622
vn 0.0689164 -3.29435e-05 -0.997622
vn -0.997435 1.90357e-05 -0.0715737
vn -0.997435 1.90262e-05 -0.0715737
vn -0.99744 1.90485e-05 -0.0715079
vn -0.99744 1.90379e-05 -0.0715079
vn 0 -1 -6.12323e-17
vn 0 -1 -6.12323e-17
vn -2.80429e-24 -1 -6.12323e-17
vn 1.63519e-23 -1 -6.12325e-17
vn 0 1 0

# Mesh 'defaultobject' with 20 faces
g defaultobject
usemtl DefaultMaterial
f  1//1 2//1 3//1
f  2//1 1//1 4//2
f  3//3 5//3 6//3
f  5//3 3//3 2//4
f  6//5 7//5 8//5
f  7//5 6//5 5//5
f  9//6 7//6 10//6
f  7//6 9//6 8//7
f  11//8 10//8 12//8
f  10//8 11//8 9//9
f  1//10 12//10 4//10
f  12//10 1//10 11//11
f  12//12 2//12 4//12
f  2//12 12//12 5//13
f  5//13 12//12 10//14
f  5//13 10//14 7//15
f  3//16 11//16 1//16
f  11//16 3//16 6//16
f  11//16 6//16 9//16
f  9//16 6//16 8//16

