# {"id":"BLDG_0003000000438f1b","idOriginal":"BLDG_0003000000438f1b","origin":[13.3418165276132,52.525017169748395],"elevation":32.9099998474121}
# Longitude: 13.3418165276132
# Latitude: 52.525017169748395
# Elevation: 32.9099998474121

# File produced by Open Asset Import Library (http://www.assimp.sf.net)
# (assimp v3.1.0)

mtllib BLDG_0003000000438f1b.obj.mtl

# 8 vertex positions
v  15.0441 -2.30911e-16 3.77107
v  5.9128e-05 2.77802 -8.78703e-05
v  0 0 0
v  15.0441 2.77802 3.77098
v  16.4256 1.1906e-16 -1.9444
v  16.4257 2.77802 -1.94449
v  1.23176 2.77802 -5.61893
v  1.2317 3.44055e-16 -5.61885

# 0 UV coordinates

# 10 vertex normals
vn -0.243145 3.59461e-05 0.96999
vn -0.243145 3.58576e-05 0.96999
vn 0.972007 -1.3282e-05 0.234953
vn 0.23506 -3.57011e-05 -0.971981
vn 0.23506 -3.57845e-05 -0.971981
vn -0.976806 1.40177e-05 -0.214125
vn -0.976806 1.40278e-05 -0.214125
vn 0 1 0
vn 0 -1 -6.12323e-17
vn 2.94442e-25 -1 -6.12323e-17

# Mesh 'defaultobject' with 12 faces
g defaultobject
usemtl DefaultMaterial
f  1//1 2//1 3//1
f  2//1 1//1 4//2
f  5//3 4//3 1//3
f  4//3 5//3 6//3
f  7//4 5//4 8//4
f  5//4 7//4 6//5
f  2//6 8//6 3//6
f  8//6 2//6 7//7
f  2//8 6//8 7//8
f  6//8 2//8 4//8
f  3//9 5//9 1//9
f  5//9 3//9 8//10

