# {"id":"BLDG_000300000020e49c","idOriginal":"BLDG_000300000020e49c","origin":[13.389501615784996,52.55487611461666],"elevation":41.2799987792969}
# Longitude: 13.389501615784996
# Latitude: 52.55487611461666
# Elevation: 41.2799987792969

# File produced by Open Asset Import Library (http://www.assimp.sf.net)
# (assimp v3.1.0)

mtllib BLDG_000300000020e49c.obj.mtl

# 8 vertex positions
v  4.41706 2.48801e-16 -4.06322
v  17.8234 21.0517 9.95064
v  17.823 -6.09342e-16 9.95131
v  4.41751 21.0517 -4.06389
v  13.4063 18.9747 14.0139
v  13.4059 -8.58142e-16 14.0145
v  0 0 0
v  0.000405122 18.9747 -0.00060139

# 0 UV coordinates

# 11 vertex normals
vn 0.722623 -3.73738e-05 -0.691242
vn 0.722623 -3.73364e-05 -0.691242
vn 0.677014 8.87685e-06 0.73597
vn 0.677014 8.86153e-06 0.73597
vn -0.722623 3.7358e-05 0.691242
vn -0.722623 3.7337e-05 0.691242
vn -0.677014 -8.87139e-06 -0.73597
vn -0.677014 -8.87626e-06 -0.73597
vn 0 -1 -6.12323e-17
vn 3.63926e-24 -1 -6.12323e-17
vn -0.236364 0.944993 0.226099

# Mesh 'defaultobject' with 12 faces
g defaultobject
usemtl DefaultMaterial
f  1//1 2//1 3//1
f  2//1 1//1 4//2
f  3//3 5//3 6//3
f  5//3 3//3 2//4
f  5//5 7//5 6//5
f  7//5 5//5 8//6
f  8//7 1//7 7//7
f  1//7 8//7 4//8
f  6//9 1//9 3//9
f  1//9 6//9 7//10
f  5//11 4//11 8//11
f  4//11 5//11 2//11

