# {"id":"BLDG_0003000f00412036","idOriginal":"BLDG_0003000f00412036","origin":[13.347636773564338,52.55252103670777],"elevation":36.0299987792969}
# Longitude: 13.347636773564338
# Latitude: 52.55252103670777
# Elevation: 36.0299987792969

# File produced by Open Asset Import Library (http://www.assimp.sf.net)
# (assimp v3.1.0)

mtllib BLDG_0003000f00412036.obj.mtl

# 64 vertex positions
v  10.6199 25.467 4.67775
v  11.7714 25.467 -1.96313
v  7.75218 25.467 1.47482
v  14.4927 25.467 1.23702
v  18.5466 22.2797 -2.38052
v  22.5599 22.2797 2.21151
v  23.2668 22.2797 2.20101
v  22.2201 22.2797 2.62005
v  20.9888 22.2797 3.89054
v  20.7796 22.2797 4.1055
v  12.7788 22.2797 12.3926
v  16.3621 22.2797 -2.36809
v  14.5968 22.2797 -4.08155
v  14.585 22.2797 -6.22158
v  10.1351 22.2797 -10.543
v  9.78179 22.2797 8.98278
v  8.49766 22.2797 7.73444
v  9.42157 22.2797 -9.80066
v  3.48457 22.2797 2.86141
v  8.57663 22.2797 -8.92074
v  8.19498 22.2797 -8.52505
v  8.17754 22.2797 -8.50638
v  8.05051 22.2797 -8.37385
v  4.63911 22.2797 -4.82599
v  1.5471 22.2797 -1.60911
v  3.20209 22.2797 3.11305
v  0.00047761 22.2797 -0.00071082
v  9.49918 22.2797 9.20939
v  14.4922 -7.57949e-17 1.23783
v  7.75164 -9.03558e-17 1.47562
v  11.7708 1.20158e-16 -1.96232
v  10.6194 -2.86479e-16 4.67856
v  14.5845 -0.149998 -6.22087
v  9.42109 -0.149998 -9.79995
v  10.1346 -0.149998 -10.5423
v  8.57615 -0.149998 -8.92003
v  8.1945 -0.149998 -8.52433
v  8.17706 -0.149998 -8.50567
v  8.05004 -0.149998 -8.37314
v  4.63863 -0.149998 -4.82528
v  1.54662 -0.149998 -1.60839
v  0 -0.149998 -9.18471e-18
v  3.48409 -0.149998 2.86212
v  3.20161 -0.149998 3.11376
v  14.5963 -0.149998 -4.08084
v  16.3616 -0.149998 -2.36738
v  8.49718 -0.149998 7.73516
v  18.5462 -0.149998 -2.37981
v  22.5594 -0.149998 2.21222
v  23.2664 -0.149998 2.20172
v  9.78131 -0.149998 8.98349
v  9.4987 -0.149998 9.2101
v  12.7783 -0.149998 12.3933
v  20.7791 -0.149998 4.10621
v  22.2197 -0.149998 2.62076
v  20.9883 -0.149998 3.89125
v  11.7708 -0.149998 -1.96232
v  7.75211 22.2797 1.47492
v  7.75163 -0.149998 1.47563
v  11.7713 22.2797 -1.96303
v  14.4927 22.2797 1.23712
v  14.4922 -0.149998 1.23783
v  10.6199 22.2797 4.67785
v  10.6194 -0.149998 4.67856

# 0 UV coordinates

# 58 vertex normals
vn 0 1 0
vn 7.44606e-25 -1 -6.12323e-17
vn 5.94252e-25 -1 -6.12323e-17
vn 0 -1 0
vn 0.696488 -3.75927e-05 -0.717568
vn 0.696488 -3.75281e-05 -0.717568
vn -0.00569208 -3.15648e-05 -0.999984
vn -0.00569208 -3.15653e-05 -0.999984
vn 0.696482 -3.76028e-05 -0.717574
vn 0.696482 -3.75337e-05 -0.717575
vn 0.664173 9.54894e-06 0.747579
vn 0.761793 -3.67627e-05 -0.64782
vn 0.761793 -3.67627e-05 -0.64782
vn -0.650019 -1.02435e-05 -0.759918
vn -0.650019 -1.02314e-05 -0.759918
vn -0.745014 3.70194e-05 0.667049
vn -0.745014 3.69992e-05 0.667049
vn 0.650019 1.02337e-05 0.759918
vn -0.761793 3.67583e-05 0.64782
vn -0.761793 3.67548e-05 0.64782
vn -0.664173 -9.54832e-06 -0.747579
vn -0.664173 -9.54435e-06 -0.747579
vn 0.745014 -3.70081e-05 -0.667049
vn 0.745013 -3.70081e-05 -0.667049
vn 0.999985 -2.14329e-05 -0.00549372
vn 0.999985 -2.14754e-05 -0.00549327
vn 0.696676 -3.7563e-05 -0.717386
vn -0.720962 -6.59309e-06 -0.692975
vn -0.721302 -6.57464e-06 -0.692621
vn -0.719762 -6.65813e-06 -0.694221
vn -0.730596 -6.09695e-06 -0.68281
vn -0.730577 -6.06691e-06 -0.68283
vn -0.721956 -6.56981e-06 -0.691939
vn -0.720832 -6.63016e-06 -0.693109
vn -0.720832 -6.63075e-06 -0.693109
vn -0.720962 -6.60798e-06 -0.692975
vn -0.720962 -6.62316e-06 -0.692975
vn -0.720814 -6.61718e-06 -0.693128
vn -0.720814 -6.61597e-06 -0.693128
vn -0.697203 3.75596e-05 0.716874
vn -0.697203 3.75644e-05 0.716874
vn 0.66517 9.4979e-06 0.746692
vn -0.697019 3.75764e-05 0.717052
vn -0.697019 3.75614e-05 0.717052
vn -0.697041 3.7561e-05 0.717031
vn -0.697041 3.75762e-05 0.717031
vn -0.625576 -1.14199e-05 -0.780163
vn -0.625575 -1.13868e-05 -0.780164
vn -0.69648 3.75663e-05 0.717576
vn -0.696481 3.75968e-05 0.717576
vn 0.719425 6.67356e-06 0.69457
vn 0.719425 6.73262e-06 0.69457
vn 0.71673 6.86717e-06 0.69735
vn 0.718075 6.79482e-06 0.695966
vn 0.718075 6.78581e-06 0.695966
vn 0.768839 3.91703e-06 0.639442
vn 0.0148501 3.13676e-05 0.99989
vn 0.0148504 3.1377e-05 0.99989

# Mesh 'defaultobject' with 112 faces
g defaultobject
usemtl DefaultMaterial
f  1//1 2//1 3//1
f  2//1 1//1 4//1
f  5//1 6//1 7//1
f  6//1 5//1 8//1
f  8//1 5//1 9//1
f  9//1 5//1 10//1
f  10//1 5//1 11//1
f  11//1 5//1 12//1
f  11//1 12//1 13//1
f  11//1 13//1 14//1
f  11//1 14//1 15//1
f  11//1 15//1 16//1
f  16//1 15//1 17//1
f  17//1 15//1 18//1
f  17//1 18//1 19//1
f  19//1 18//1 20//1
f  19//1 20//1 21//1
f  19//1 21//1 22//1
f  19//1 22//1 23//1
f  19//1 23//1 24//1
f  19//1 24//1 25//1
f  19//1 25//1 26//1
f  26//1 25//1 27//1
f  28//1 11//1 16//1
f  29//2 30//2 31//2
f  30//2 29//2 32//3
f  33//4 34//4 35//4
f  34//4 33//4 36//4
f  36//4 33//4 37//4
f  37//4 33//4 38//4
f  38//4 33//4 39//4
f  39//4 33//4 40//4
f  40//4 33//4 41//4
f  41//4 33//4 42//4
f  42//4 33//4 43//4
f  42//4 43//4 44//4
f  43//4 33//4 45//4
f  46//4 43//4 45//4
f  43//4 46//4 47//4
f  47//4 46//4 48//4
f  47//4 48//4 49//4
f  49//4 48//4 50//4
f  47//4 49//4 51//4
f  51//4 49//4 52//4
f  49//4 53//4 52//4
f  53//4 49//4 54//4
f  54//4 49//4 55//4
f  54//4 55//4 56//4
f  48//5 7//5 50//5
f  7//5 48//5 5//6
f  12//7 48//7 46//7
f  48//7 12//7 5//8
f  45//9 12//9 46//9
f  12//9 45//9 13//10
f  29//11 1//11 32//11
f  1//11 29//11 4//11
f  31//12 4//12 29//12
f  4//12 31//12 2//13
f  3//14 31//14 30//14
f  31//14 3//14 2//15
f  1//16 30//16 32//16
f  30//16 1//16 3//17
f  57//18 58//18 59//18
f  58//18 57//18 60//18
f  61//19 57//19 62//19
f  57//19 61//19 60//20
f  63//21 62//21 64//21
f  62//21 63//21 61//22
f  59//23 63//23 64//23
f  63//23 59//23 58//24
f  33//25 13//25 45//25
f  13//25 33//25 14//26
f  35//27 14//27 33//27
f  14//27 35//27 15//27
f  18//28 35//28 34//28
f  35//28 18//28 15//28
f  20//29 34//29 36//29
f  34//29 20//29 18//29
f  21//30 36//30 37//30
f  36//30 21//30 20//30
f  22//31 37//31 38//31
f  37//32 22//32 21//32
f  23//33 38//33 39//33
f  38//33 23//33 22//33
f  24//34 39//34 40//34
f  39//34 24//34 23//35
f  25//36 40//36 41//36
f  40//36 25//36 24//37
f  27//38 41//38 42//38
f  41//38 27//38 25//39
f  26//40 42//40 44//40
f  42//40 26//40 27//41
f  43//42 26//42 44//42
f  26//42 43//42 19//42
f  17//43 43//43 47//43
f  43//43 17//43 19//44
f  16//45 47//45 51//45
f  47//45 16//45 17//46
f  28//47 51//47 52//47
f  51//47 28//47 16//48
f  11//49 52//49 53//49
f  52//49 11//49 28//50
f  54//51 11//51 53//51
f  11//51 54//51 10//52
f  56//53 10//53 54//53
f  10//53 56//53 9//53
f  55//54 9//54 56//54
f  9//54 55//54 8//55
f  49//56 8//56 55//56
f  8//56 49//56 6//56
f  50//57 6//57 49//57
f  6//57 50//57 7//58

