# {"id":"BLDG_00030009007eefaf","idOriginal":"BLDG_00030009007eefaf","origin":[13.400270049500635,52.540690911389845],"elevation":46.3800010681152}
# Longitude: 13.400270049500635
# Latitude: 52.540690911389845
# Elevation: 46.3800010681152

# File produced by Open Asset Import Library (http://www.assimp.sf.net)
# (assimp v3.1.0)

mtllib BLDG_00030009007eefaf.obj.mtl

# 35 vertex positions
v  30.212 9.42267e-17 -1.53884
v  27.489 -4.53638e-16 7.40847
v  28.357 3.53088e-16 -5.76637
v  26.9908 -3.84126e-16 6.27325
v  26.1751 -4.06043e-16 6.63119
v  22.7403 -4.98331e-16 8.13837
v  20.323 5.46048e-16 -8.91763
v  21.2269 -2.8714e-16 4.68936
v  18.4772 -2.21068e-16 3.61032
v  14.769 -3.20704e-16 5.23749
v  0 0 0
v  4.31168 -6.01675e-16 9.82611
v  37.2384 -8.86288e-16 14.4742
v  27.4124 -1.1503e-15 18.7859
v  33.0642 -3.03838e-16 4.96205
v  32.5661 -2.34327e-16 3.82685
v  23.2384 -5.67845e-16 9.27362
v  33.0646 16.673 4.96152
v  31.6633 16.673 16.9202
v  37.2388 16.673 14.4737
v  32.5665 16.673 3.82632
v  28.3573 16.673 -5.7669
v  30.2124 16.673 -1.53937
v  20.3233 16.673 -8.91816
v  26.9912 16.673 6.27273
v  27.4893 16.673 7.40794
v  26.1755 16.673 6.63066
v  18.4776 16.673 3.60979
v  0.000356211 16.673 -0.00052793
v  21.2273 16.673 4.68883
v  22.7407 16.673 8.13784
v  14.7693 16.673 5.23696
v  4.31203 16.673 9.82558
v  27.4127 16.673 18.7853
v  23.2388 16.673 9.27309

# 0 UV coordinates

# 43 vertex normals
vn 0 -1 -6.12323e-17
vn 2.10408e-23 -1 -6.12323e-17
vn 1.13459e-23 -1 -6.12323e-17
vn -8.18168e-24 -1 -6.12323e-17
vn 0 -1 -6.12323e-17
vn 4.35846e-24 -1 -6.12323e-17
vn 8.89196e-25 -1 -6.12323e-17
vn -1.72809e-24 -1 -6.12323e-17
vn -7.59912e-24 -1 -6.12323e-17
vn 7.9597e-24 -1 -6.12323e-17
vn 8.78344e-24 -1 -6.12323e-17
vn 0 1 -0
vn 0.91571 -3.24045e-05 -0.401839
vn 0.91572 -1.67719e-05 -0.401816
vn 0.915741 1.927e-05 -0.401769
vn 0.91572 -3.43444e-05 -0.401816
vn 0.915721 -3.17938e-05 -0.401814
vn 0.91572 -3.23107e-05 -0.401816
vn 0.401817 2.03233e-05 0.91572
vn 0.401816 2.04217e-05 0.91572
vn 0.401814 2.04217e-05 0.915721
vn 0.401814 2.04091e-05 0.915721
vn 0.401814 2.04217e-05 0.915721
vn 0 -1 0
vn -0.915721 3.23222e-05 0.401816
vn -0.915721 3.23107e-05 0.401816
vn -0.401814 -2.04217e-05 -0.915721
vn -0.401814 -2.04106e-05 -0.915721
vn 0.401814 2.03955e-05 0.915721
vn 0.401814 2.03957e-05 0.915721
vn 0.401814 2.04332e-05 0.915721
vn 0.365156 -3.72848e-05 -0.930946
vn 0.365156 -3.73115e-05 -0.930946
vn -0.365307 3.72863e-05 0.930887
vn -0.365307 3.72476e-05 0.930887
vn -0.401816 -2.03955e-05 -0.91572
vn -0.401816 -2.04152e-05 -0.91572
vn -0.915719 3.21945e-05 0.401819
vn -0.915719 3.23222e-05 0.401818
vn -0.91572 3.22059e-05 0.401816
vn -0.915721 3.23222e-05 0.401816
vn -0.91572 3.2287e-05 0.401816
vn -0.91572 3.2296e-05 0.401816

# Mesh 'defaultobject' with 66 faces
g defaultobject
usemtl DefaultMaterial
f  1//1 2//1 3//1
f  4//2 3//1 2//1
f  5//3 3//1 4//2
f  6//1 3//1 5//3
f  7//4 3//1 6//1
f  8//5 7//4 6//1
f  9//6 7//4 8//5
f  10//1 7//4 9//6
f  11//7 7//4 10//1
f  12//8 11//7 10//1
f  13//9 14//9 15//9
f  16//10 15//9 14//9
f  1//1 16//10 14//9
f  2//1 1//1 14//9
f  17//11 2//1 14//9
f  18//12 19//12 20//12
f  19//12 18//12 21//12
f  22//12 21//12 23//12
f  21//12 22//12 24//12
f  21//12 24//12 25//12
f  21//12 25//12 19//12
f  19//12 25//12 26//12
f  25//12 24//12 27//12
f  27//12 24//12 28//12
f  28//12 24//12 29//12
f  27//12 28//12 30//12
f  27//12 30//12 31//12
f  28//12 29//12 32//12
f  32//12 29//12 33//12
f  26//12 34//12 19//12
f  34//12 26//12 35//12
f  13//13 18//13 20//13
f  18//14 13//14 21//14
f  21//15 13//15 23//15
f  23//16 13//16 22//16
f  22//16 13//16 1//17
f  22//16 1//17 3//18
f  1//1 13//9 15//9
f  1//1 15//9 16//10
f  20//19 14//19 13//19
f  14//19 20//19 34//20
f  34//12 20//12 19//12
f  25//21 5//21 4//21
f  5//21 25//21 6//22
f  6//22 25//21 31//23
f  31//24 25//24 27//24
f  4//25 26//25 25//25
f  26//25 4//25 2//26
f  7//27 29//27 24//27
f  29//27 7//27 11//28
f  28//29 10//29 9//29
f  10//29 28//29 12//30
f  12//30 28//29 33//31
f  33//12 28//12 32//12
f  3//32 24//32 22//32
f  24//32 3//32 7//33
f  8//34 28//34 9//34
f  28//34 8//34 30//35
f  2//36 35//36 26//36
f  35//36 2//36 17//37
f  17//38 34//38 35//38
f  34//38 17//38 14//39
f  8//40 31//40 30//40
f  31//40 8//40 6//41
f  11//42 33//42 29//42
f  33//42 11//42 12//43

