# {"id":"BLDG_00030000001f3b34","idOriginal":"BLDG_00030000001f3b34","origin":[13.388326908687182,52.550871674531315],"elevation":43.67}
# Longitude: 13.388326908687182
# Latitude: 52.550871674531315
# Elevation: 43.67

# File produced by Open Asset Import Library (http://www.assimp.sf.net)
# (assimp v3.1.0)

mtllib BLDG_00030000001f3b34.obj.mtl

# 19 vertex positions
v  10.8186 -1.20629e-16 1.97003
v  2.91403 9.79875e-16 -16.0026
v  13.7326 8.59245e-16 -14.0325
v  0 0 0
v  10.5474 19.0021 1.90177
v  -0.0482584 1.23 -0.927657
v  10.547 1.23 1.90233
v  -0.047879 19.0021 -0.92822
v  5.24986 24.1803 0.486612
v  2.70686 1.23 -16.058
v  2.70724 19.0021 -16.0586
v  13.3021 1.23 -13.228
v  13.3025 19.0021 -13.2286
v  0.000371043 17.38 -0.00055071
v  10.819 17.38 1.96948
v  5.40979 23.43 0.984272
v  13.733 17.38 -14.0331
v  2.9144 17.38 -16.0031
v  8.32382 23.43 -15.0183

# 0 UV coordinates

# 21 vertex normals
vn -9.47116e-24 -1 -6.12323e-17
vn -0.258053 3.61112e-05 0.966131
vn -0.258053 3.61229e-05 0.966131
vn -0.258053 3.61399e-05 0.966131
vn -0.983822 1.53268e-05 -0.179147
vn -0.983822 1.53267e-05 -0.179147
vn 0.983822 -1.52828e-05 0.179147
vn 0.983822 -1.53386e-05 0.179147
vn -0.179151 3.49995e-05 0.983822
vn -0.179151 3.49995e-05 0.983822
vn -0.179151 3.50055e-05 0.983822
vn 0.179151 -3.50095e-05 -0.983822
vn 0.179151 -3.50195e-05 -0.983822
vn 0.179151 -3.49195e-05 -0.983822
vn 0.983821 -1.53156e-05 0.179152
vn -0.983821 1.53314e-05 -0.179152
vn -0.983821 1.53268e-05 -0.179152
vn 0.72808 0.672549 0.132582
vn 0.72808 0.672549 0.132582
vn -0.728069 0.672561 -0.13258
vn -0.728069 0.672561 -0.13258

# Mesh 'defaultobject' with 23 faces
g defaultobject
usemtl DefaultMaterial
f  1//1 2//1 3//1
f  2//1 1//1 4//1
f  5//2 6//2 7//2
f  6//2 5//2 8//3
f  8//3 5//2 9//4
f  8//5 10//5 6//5
f  10//5 8//5 11//6
f  12//7 5//7 7//7
f  5//7 12//7 13//8
f  1//9 14//9 4//9
f  14//9 1//9 15//10
f  14//9 15//10 16//11
f  2//12 17//12 3//12
f  17//12 2//12 18//13
f  17//12 18//13 19//14
f  3//15 15//15 1//15
f  15//15 3//15 17//15
f  2//16 14//16 18//16
f  14//16 2//16 4//17
f  17//18 16//18 15//18
f  16//18 17//18 19//19
f  18//20 16//20 19//20
f  16//20 18//20 14//21

