# {"id":"BLDG_00030009005b6df8","idOriginal":"BLDG_00030009005b6df8","origin":[13.367628958210343,52.55156541250518],"elevation":36.5999984741211}
# Longitude: 13.367628958210343
# Latitude: 52.55156541250518
# Elevation: 36.5999984741211

# File produced by Open Asset Import Library (http://www.assimp.sf.net)
# (assimp v3.1.0)

mtllib BLDG_00030009005b6df8.obj.mtl

# 23 vertex positions
v  16.3582 18.4534 -15.0144
v  20.4071 6.42385e-16 -10.4909
v  16.3578 9.19333e-16 -15.0138
v  24.4563 3.65437e-16 -5.96804
v  24.4567 18.4534 -5.96862
v  20.4075 21.5076 -10.4916
v  9.58082 18.4534 -8.79387
v  0.000393441 18.4534 -0.00058476
v  9.58043 5.38433e-16 -8.79328
v  0 0 0
v  16.291 18.4534 11.801
v  10.5105 -8.05822e-16 13.1601
v  16.2907 -7.2264e-16 11.8016
v  4.73042 -8.89003e-16 14.5185
v  4.73081 18.4534 14.5179
v  10.511 21.5076 13.1594
v  4.13352 18.4534 12.6847
v  4.13313 -7.76753e-16 12.6853
v  13.714 18.4534 3.89147
v  13.7136 -2.38319e-16 3.89205
v  11.6475 21.5076 -2.4513
v  6.85724 21.5076 1.94534
v  8.92381 21.5076 8.28801

# 0 UV coordinates

# 38 vertex normals
vn 0.745043 -3.70716e-05 -0.667016
vn 0.745043 -3.7032e-05 -0.667016
vn 0.745043 -3.70716e-05 -0.667016
vn 0.745043 -3.6725e-05 -0.667016
vn -0.676193 -8.87182e-06 -0.736724
vn -0.676193 -8.94977e-06 -0.736724
vn -0.676193 -8.89856e-06 -0.736724
vn -0.676193 -8.92868e-06 -0.736724
vn 0.228788 2.59949e-05 0.973476
vn 0.228788 2.59984e-05 0.973476
vn 0.228788 2.60126e-05 0.973476
vn 0.228788 2.58471e-05 0.973476
vn -0.950805 3.00887e-05 0.309791
vn -0.950805 3.01283e-05 0.309791
vn -0.950805 3.00995e-05 0.309791
vn -5.55112e-17 -1 -3.70074e-17
vn 0.676193 8.98799e-06 0.736724
vn 0.676193 8.87458e-06 0.736724
vn 0.950805 -3.018e-05 -0.309791
vn 0.950805 -3.00682e-05 -0.309791
vn -0.303925 0.893298 -0.331132
vn -0.303925 0.893298 -0.331132
vn -0.303925 0.893298 -0.331132
vn -0.303925 0.893298 -0.331132
vn 0.303923 0.8933 0.33113
vn 0.303923 0.893299 0.331129
vn 0.303923 0.893299 0.33113
vn -0.43613 0.888594 0.1421
vn -0.43613 0.888593 0.1421
vn -0.43613 0.888593 0.1421
vn -0.43613 0.888594 0.1421
vn 0.436141 0.888588 -0.142103
vn 0.436141 0.888588 -0.142103
vn 0.436141 0.888588 -0.142103
vn 0 -1 -6.12323e-17
vn -1.07304e-23 -1 -6.12323e-17
vn 1.11022e-16 1 0
vn 0 -1 -6.12323e-17

# Mesh 'defaultobject' with 42 faces
g defaultobject
usemtl DefaultMaterial
f  1//1 2//1 3//1
f  2//1 1//1 4//2
f  4//2 1//1 5//3
f  5//3 1//1 6//4
f  3//5 7//5 1//5
f  7//5 3//5 8//6
f  8//6 3//5 9//7
f  8//6 9//7 10//8
f  11//9 12//9 13//9
f  12//9 11//9 14//10
f  14//10 11//9 15//11
f  15//11 11//9 16//12
f  10//13 17//13 8//13
f  17//13 10//13 15//14
f  15//14 10//13 14//15
f  14//16 10//16 18//16
f  4//17 19//17 20//17
f  19//17 4//17 5//18
f  20//19 11//19 13//19
f  11//19 20//19 19//20
f  1//21 21//21 6//21
f  21//21 1//21 7//22
f  21//21 7//22 22//23
f  22//23 7//22 8//24
f  6//25 19//25 5//25
f  19//25 6//25 21//26
f  19//25 21//26 22//27
f  8//28 23//28 22//28
f  23//28 8//28 17//29
f  23//28 17//29 16//30
f  16//30 17//29 15//31
f  23//32 19//32 22//32
f  19//32 23//32 11//33
f  11//33 23//32 16//34
f  12//35 20//35 13//35
f  20//35 12//35 9//36
f  9//36 12//35 10//16
f  10//16 12//35 14//16
f  10//37 14//37 18//37
f  20//35 2//38 4//38
f  2//38 20//35 3//38
f  3//38 20//35 9//36

