# {"id":"BLDG_0003000b001de443","idOriginal":"BLDG_0003000b001de443","origin":[13.347911945471095,52.504080403574534],"elevation":33.2599983215332}
# Longitude: 13.347911945471095
# Latitude: 52.504080403574534
# Elevation: 33.2599983215332

# File produced by Open Asset Import Library (http://www.assimp.sf.net)
# (assimp v3.1.0)

mtllib BLDG_0003000b001de443.obj.mtl

# 32 vertex positions
v  13.4463 17.9177 2.16818
v  12.2743 17.9177 0.737
v  11.9477 17.9177 5.20341
v  13.7726 17.9177 1.50732
v  11.6468 17.9177 5.81349
v  0.261809 17.9177 -0.557379
v  0.000381491 17.9177 -0.00056601
v  1.79827 17.9177 -3.6221
v  5.17985 17.9177 -10.3532
v  5.94483 17.9177 -11.8754
v  7.91844 17.9177 -15.8156
v  14.367 17.9177 -3.46604
v  15.4876 17.9177 -5.71537
v  19.4372 17.9177 -9.96304
v  13.412 17.9177 -1.5474
v  16.9895 17.9177 -5.006
v  13.7722 -9.23316e-17 1.50789
v  13.4459 -1.32797e-16 2.16875
v  12.2739 -4.51629e-17 0.737566
v  13.4116 9.47163e-17 -1.54683
v  14.3667 2.12199e-16 -3.46547
v  15.4872 3.49931e-16 -5.7148
v  16.9891 3.06495e-16 -5.00544
v  19.4368 6.10026e-16 -9.96247
v  7.91806 9.68389e-16 -15.815
v  5.94445 7.27125e-16 -11.8749
v  5.17947 6.33918e-16 -10.3527
v  1.79789 2.21755e-16 -3.62153
v  0.261428 3.4095e-17 -0.556813
v  0 0 0
v  11.6464 -3.56008e-16 5.81405
v  11.9473 -3.18652e-16 5.20398

# 0 UV coordinates

# 37 vertex normals
vn 0 1 0
vn 0.896673 -5.10602e-06 0.442693
vn 0.457239 -3.78283e-05 -0.889344
vn 0.895126 -4.97414e-06 0.445813
vn 0.895231 -4.98246e-06 0.445603
vn 0.895075 -4.97199e-06 0.445915
vn 0.895075 -5.01964e-06 0.445915
vn -0.42707 3.76799e-05 0.904218
vn -0.42707 3.76559e-05 0.904218
vn 0.896651 -5.10264e-06 0.442739
vn 0.896651 -5.09301e-06 0.442739
vn 0.452972 -3.78301e-05 -0.891525
vn -0.894105 4.90004e-06 -0.447858
vn -0.894105 4.87621e-06 -0.447858
vn -0.893513 4.85022e-06 -0.449037
vn -0.893575 4.84348e-06 -0.448914
vn -0.893575 4.85543e-06 -0.448914
vn -0.893949 4.87643e-06 -0.44817
vn -0.893949 4.87494e-06 -0.44817
vn -0.905195 5.84738e-06 -0.424996
vn -0.905195 5.84793e-06 -0.424996
vn -0.446651 3.77815e-05 0.894708
vn 0.896853 -5.12136e-06 0.442328
vn 0.896655 -5.1023e-06 0.44273
vn -2.39152e-23 -1 -6.12323e-17
vn 0 -1 -6.12323e-17
vn -6.89787e-25 -1 -6.12323e-17
vn 0 -1 -6.12323e-17
vn 0 -1 -6.12323e-17
vn -5.45659e-25 -1 -6.12323e-17
vn 1.86197e-24 -1 -6.12323e-17
vn 0 -1 -6.12324e-17
vn 0 -1 -6.12323e-17
vn 1.44151e-24 -1 -6.12323e-17
vn 2.58475e-24 -1 -6.12323e-17
vn 2.25585e-24 -1 -6.12323e-17
vn 3.71925e-24 -1 -6.12323e-17

# Mesh 'defaultobject' with 60 faces
g defaultobject
usemtl DefaultMaterial
f  1//1 2//1 3//1
f  2//1 1//1 4//1
f  5//1 6//1 7//1
f  6//1 5//1 8//1
f  8//1 5//1 9//1
f  9//1 5//1 10//1
f  10//1 5//1 11//1
f  11//1 5//1 2//1
f  11//1 2//1 12//1
f  11//1 12//1 13//1
f  11//1 13//1 14//1
f  2//1 5//1 3//1
f  12//1 2//1 15//1
f  14//1 13//1 16//1
f  17//2 1//2 18//2
f  1//2 17//2 4//2
f  2//3 17//3 19//3
f  17//3 2//3 4//3
f  20//4 2//4 19//4
f  2//4 20//4 15//4
f  21//5 15//5 20//5
f  15//5 21//5 12//5
f  22//6 12//6 21//6
f  12//6 22//6 13//7
f  23//8 13//8 22//8
f  13//8 23//8 16//9
f  24//10 16//10 23//10
f  16//10 24//10 14//11
f  11//12 24//12 25//12
f  24//12 11//12 14//12
f  10//13 25//13 26//13
f  25//13 10//13 11//14
f  9//15 26//15 27//15
f  26//15 9//15 10//15
f  8//16 27//16 28//16
f  27//16 8//16 9//17
f  6//18 28//18 29//18
f  28//18 6//18 8//19
f  7//20 29//20 30//20
f  29//20 7//20 6//21
f  31//22 7//22 30//22
f  7//22 31//22 5//22
f  32//23 5//23 31//23
f  5//23 32//23 3//23
f  18//24 3//24 32//24
f  3//24 18//24 1//24
f  30//25 32//25 31//25
f  32//25 30//25 18//26
f  18//26 30//25 17//27
f  17//27 30//25 19//28
f  19//28 30//25 20//29
f  20//29 30//25 21//30
f  21//30 30//25 22//31
f  22//31 30//25 29//32
f  22//31 29//32 28//33
f  22//31 24//34 23//34
f  24//34 22//31 28//33
f  24//34 28//33 27//35
f  24//34 27//35 26//36
f  24//34 26//36 25//37

