# {"id":"BLDG_000300000018b01f","idOriginal":"BLDG_000300000018b01f","origin":[13.398601901156152,52.531619712134486],"elevation":36.4199981689453}
# Longitude: 13.398601901156152
# Latitude: 52.531619712134486
# Elevation: 36.4199981689453

# File produced by Open Asset Import Library (http://www.assimp.sf.net)
# (assimp v3.1.0)

mtllib BLDG_000300000018b01f.obj.mtl

# 8 vertex positions
v  8.1447e-05 3.81273 -0.00012066
v  3.17081 5.21601e-18 -0.085184
v  0 0 0
v  3.17089 3.81273 -0.0853046
v  3.25536 3.81273 3.09418
v  3.25528 -1.89471e-16 3.0943
v  0.0845537 3.81273 3.17936
v  0.0844723 -1.94687e-16 3.17948

# 0 UV coordinates

# 9 vertex normals
vn -0.0268554 -3.10616e-05 -0.999639
vn -0.0268554 -3.10631e-05 -0.999639
vn 0.999647 -2.22188e-05 -0.0265585
vn 0.999647 -2.21549e-05 -0.0265586
vn 0.0268554 3.10547e-05 0.999639
vn -0.999647 2.21954e-05 0.0265585
vn -0.999647 2.21948e-05 0.0265585
vn 0 -1 -6.12323e-17
vn 0 1 -0

# Mesh 'defaultobject' with 12 faces
g defaultobject
usemtl DefaultMaterial
f  1//1 2//1 3//1
f  2//1 1//1 4//2
f  2//3 5//3 6//3
f  5//3 2//3 4//4
f  6//5 7//5 8//5
f  7//5 6//5 5//5
f  7//6 3//6 8//6
f  3//6 7//6 1//7
f  6//8 3//8 2//8
f  3//8 6//8 8//8
f  4//9 1//9 5//9
f  5//9 1//9 7//9

