# {"id":"BLDG_0003000e006e4ad2","idOriginal":"BLDG_0003000e006e4ad2","origin":[13.388196808460892,52.560679514816634],"elevation":41}
# Longitude: 13.388196808460892
# Latitude: 52.560679514816634
# Elevation: 41

# File produced by Open Asset Import Library (http://www.assimp.sf.net)
# (assimp v3.1.0)

mtllib BLDG_0003000e006e4ad2.obj.mtl

# 24 vertex positions
v  20.8696 9.16611 -7.81001
v  31.2462 5.99034e-17 -0.978297
v  20.8694 4.78207e-16 -7.80972
v  31.2464 9.16611 -0.978587
v  28.235 8.59257 3.57499
v  28.2349 -2.18922e-16 3.57526
v  17.8787 8.59257 -3.24295
v  17.8785 1.98557e-16 -3.24267
v  6.87012 16.3848 -10.4907
v  9.86063 9.21986e-16 -15.0572
v  6.86977 6.42336e-16 -10.4901
v  9.86098 16.3848 -15.0577
v  20.8698 18.7226 -7.81031
v  18.5189 18.2393 -9.358
v  13.3177 18.7495 -12.7821
v  17.8789 16.3848 -3.24319
v  11.0054 16.3848 7.25268
v  11.005 -4.44131e-16 7.2532
v  0 0 0
v  0.000349803 16.3848 -0.000519509
v  8.65527 18.2393 5.7037
v  3.45593 18.7495 2.27689
v  15.528 18.2393 -4.79095
v  10.3269 18.7495 -8.21505

# 0 UV coordinates

# 38 vertex normals
vn 0.549873 -3.81327e-05 -0.835248
vn 0.549873 -3.81544e-05 -0.835248
vn 0.834104 -2.64295e-07 0.551607
vn 0.834104 -1.90583e-07 0.551607
vn -0.549873 3.81684e-05 0.835248
vn -0.836574 4.98894e-07 -0.547855
vn -0.836574 4.91354e-07 -0.547855
vn 0.549873 -3.82414e-05 -0.835248
vn 0.549873 -3.81708e-05 -0.835248
vn 0.54988 -8.15139e-05 -0.835244
vn 0.549873 -3.77242e-05 -0.835248
vn 0.836574 -4.48371e-07 0.547854
vn 0.836574 -5.11834e-07 0.547854
vn 0.836574 -5.19592e-07 0.547855
vn -0.550308 3.82173e-05 0.834962
vn -0.550308 3.82226e-05 0.834962
vn -0.550308 3.82358e-05 0.834962
vn -0.550308 3.81772e-05 0.834962
vn -0.836574 4.89502e-07 -0.547854
vn -0.0574521 0.994527 0.0872687
vn -0.0574521 0.994527 0.0872687
vn -0.34418 0.907889 0.239327
vn 0.460277 0.835037 0.301426
vn 0.0683129 0.99666 0.0447367
vn 0.0683129 0.99666 0.0447367
vn -0.415035 0.868258 -0.271797
vn -0.415035 0.868258 -0.271797
vn 0.460277 0.835037 0.301426
vn 0.460278 0.835037 0.301426
vn 0.0683128 0.99666 0.0447367
vn 0.0683128 0.99666 0.0447366
vn -0.415034 0.868258 -0.271797
vn -0.415035 0.868258 -0.271798
vn -3.12221e-24 -1 -6.12323e-17
vn 6.25677e-24 -1 -6.12323e-17
vn -1.47149e-24 -1 -6.12323e-17
vn -6.40636e-25 -1 -6.12323e-17
vn -1.28057e-24 -1 -6.12323e-17

# Mesh 'defaultobject' with 42 faces
g defaultobject
usemtl DefaultMaterial
f  1//1 2//1 3//1
f  2//1 1//1 4//2
f  2//3 5//3 6//3
f  5//3 2//3 4//4
f  6//5 7//5 8//5
f  7//5 6//5 5//5
f  9//6 10//6 11//6
f  10//6 9//6 12//7
f  12//8 3//1 10//8
f  3//1 12//8 13//9
f  13//10 12//10 14//10
f  14//11 12//8 15//11
f  1//12 16//12 7//12
f  16//12 1//12 13//13
f  8//14 17//14 18//14
f  17//14 8//14 16//12
f  17//15 19//15 18//15
f  19//15 17//15 20//16
f  20//16 17//15 21//17
f  20//16 21//17 22//18
f  20//19 11//6 19//19
f  11//6 20//19 9//6
f  7//20 4//20 1//20
f  4//20 7//20 5//21
f  13//22 14//22 16//22
f  14//23 23//23 16//23
f  14//24 24//24 23//24
f  24//24 14//24 15//25
f  15//26 9//26 24//26
f  9//26 15//26 12//27
f  21//28 16//23 23//23
f  16//23 21//28 17//29
f  22//30 23//24 24//24
f  23//24 22//30 21//31
f  20//32 24//26 9//26
f  24//26 20//32 22//33
f  6//34 3//34 2//34
f  3//34 6//34 8//35
f  3//34 11//36 10//36
f  11//36 3//34 8//35
f  8//35 19//37 11//36
f  19//37 8//35 18//38

