# {"id":"BLDG_0003000e0074301a","idOriginal":"BLDG_0003000e0074301a","origin":[13.377635038667806,52.52587896229453],"elevation":33.7099990844727}
# Longitude: 13.377635038667806
# Latitude: 52.52587896229453
# Elevation: 33.7099990844727

# File produced by Open Asset Import Library (http://www.assimp.sf.net)
# (assimp v3.1.0)

mtllib BLDG_0003000e0074301a.obj.mtl

# 20 vertex positions
v  33.5637 -8.52555e-16 13.9233
v  13.7228 -5.08591e-16 8.30593
v  25.2326 -5.67911e-17 0.927469
v  16.1018 -1.538e-15 25.1174
v  7.77068 -7.42233e-16 12.1216
v  0 0 0
v  5.95212 2.33641e-16 -3.81565
v  7.77078 4.21295 12.1214
v  5.95221 4.21295 -3.81578
v  8.9874e-05 4.21295 -0.00013328
v  13.7229 4.21295 8.30579
v  33.5641 19.1995 13.9227
v  11.9368 23.3702 18.6187
v  16.1022 19.1995 25.1168
v  29.3987 23.3702 7.42463
v  25.233 19.1995 0.926861
v  7.7711 19.1995 12.121
v  16.1019 4.21295 25.1172
v  33.5638 4.21295 13.9231
v  25.2327 4.21295 0.927335

# 0 UV coordinates

# 33 vertex normals
vn 0 -1 -6.12323e-17
vn 1.3227e-24 -1 -6.12323e-17
vn -7.7609e-24 -1 -6.12323e-17
vn 0 1 0
vn 0.256562 0.879775 0.400216
vn 0.256562 0.879775 0.400216
vn -0.256565 0.879771 -0.400221
vn -0.256565 0.879771 -0.400221
vn -0.841865 4.02456e-05 0.539688
vn -0.841865 3.51218e-05 0.539689
vn -0.841867 3.87846e-05 0.539685
vn -0.841865 3.50153e-05 0.539688
vn -0.841865 3.50758e-05 0.539688
vn -0.841865 3.87846e-05 0.539688
vn -0.841865 3.50328e-05 0.539689
vn 0.539685 1.08262e-05 0.841867
vn 0.539685 1.51398e-05 0.841867
vn 0.539686 1.55409e-05 0.841867
vn 0.539685 1.50698e-05 0.841867
vn -0.539685 -1.52327e-05 -0.841867
vn -0.539685 -1.51616e-05 -0.841867
vn -0.539685 -1.49678e-05 -0.841867
vn -0.539685 -1.5168e-05 -0.841867
vn -0.539685 -1.51206e-05 -0.841867
vn 0.841865 -3.46071e-05 -0.539688
vn 0.841865 -3.50689e-05 -0.539688
vn 0.841865 -3.5065e-05 -0.539688
vn 0.841865 -3.50177e-05 -0.539688
vn 0.841865 -3.4957e-05 -0.539688
vn -0.539685 -1.50876e-05 -0.841867
vn -0.539685 -1.51201e-05 -0.841867
vn 0.841865 -3.52164e-05 -0.539688
vn 0.841865 -3.50907e-05 -0.539688

# Mesh 'defaultobject' with 36 faces
g defaultobject
usemtl DefaultMaterial
f  1//1 2//1 3//1
f  2//1 1//1 4//2
f  2//1 4//2 5//3
f  2//1 6//1 7//1
f  6//1 2//1 5//3
f  8//4 9//4 10//4
f  9//4 8//4 11//4
f  12//5 13//5 14//5
f  13//5 12//5 15//6
f  16//7 13//7 15//7
f  13//7 16//7 17//8
f  18//9 5//9 4//9
f  5//9 18//9 14//10
f  5//9 14//10 8//11
f  8//11 14//10 17//12
f  17//12 14//10 13//13
f  8//11 6//14 5//9
f  6//14 8//11 10//15
f  1//16 18//16 4//16
f  18//16 1//16 14//17
f  14//17 1//16 19//18
f  14//17 19//18 12//19
f  2//20 20//20 3//20
f  20//20 2//20 16//21
f  16//21 2//20 11//22
f  16//21 11//22 17//23
f  17//23 11//22 8//24
f  3//25 19//25 1//25
f  19//25 3//25 12//26
f  12//26 3//25 15//27
f  15//27 3//25 20//28
f  15//27 20//28 16//29
f  7//30 10//30 9//30
f  10//30 7//30 6//31
f  7//32 11//32 2//32
f  11//32 7//32 9//33

