# {"id":"BLDG_00030000001da8f1","idOriginal":"BLDG_00030000001da8f1","origin":[13.368527058675834,52.548720845956176],"elevation":36.7799987792969}
# Longitude: 13.368527058675834
# Latitude: 52.548720845956176
# Elevation: 36.7799987792969

# File produced by Open Asset Import Library (http://www.assimp.sf.net)
# (assimp v3.1.0)

mtllib BLDG_00030000001da8f1.obj.mtl

# 12 vertex positions
v  9.28514 16.6449 28.337
v  0 0 0
v  9.28479 -1.73517e-15 28.3375
v  0.0003549 16.6449 -0.00052736
v  14.0134 -1.64505e-15 26.8656
v  14.0137 16.6449 26.8651
v  13.8156 -1.60587e-15 26.2259
v  13.816 16.6449 26.2254
v  18.6354 -1.52271e-15 24.8678
v  18.6358 16.6449 24.8672
v  9.51535 1.90716e-16 -3.11462
v  9.51571 16.6449 -3.11515

# 0 UV coordinates

# 15 vertex normals
vn -0.950291 3.01919e-05 0.311363
vn -0.950291 3.01268e-05 0.311363
vn 0.297209 2.39541e-05 0.954812
vn 0.297209 2.38616e-05 0.954813
vn 0.955384 -2.97034e-05 -0.295367
vn 0.271226 2.4663e-05 0.962516
vn 0.271226 2.47717e-05 0.962516
vn 0.950776 -3.01202e-05 -0.309878
vn 0.950776 -3.01202e-05 -0.309878
vn -0.311085 -2.3478e-05 -0.950382
vn -0.311085 -2.34639e-05 -0.950382
vn 0 1 0
vn 0 -1 -6.12323e-17
vn -1.73994e-22 -1 -6.12322e-17
vn 1.16697e-23 -1 -6.12323e-17

# Mesh 'defaultobject' with 20 faces
g defaultobject
usemtl DefaultMaterial
f  1//1 2//1 3//1
f  2//1 1//1 4//2
f  5//3 1//3 3//3
f  1//3 5//3 6//4
f  7//5 6//5 5//5
f  6//5 7//5 8//5
f  9//6 8//6 7//6
f  8//6 9//6 10//7
f  11//8 10//8 9//8
f  10//8 11//8 12//9
f  4//10 11//10 2//10
f  11//10 4//10 12//11
f  6//12 8//12 1//12
f  1//12 12//12 4//12
f  12//12 1//12 8//12
f  12//12 8//12 10//12
f  2//13 5//13 3//13
f  5//13 2//13 7//14
f  7//14 2//13 9//15
f  9//15 2//13 11//13

