# {"id":"BLDG_000300000018dfb1","idOriginal":"BLDG_000300000018dfb1","origin":[13.403012887658972,52.530496890259954],"elevation":37.6399993896484}
# Longitude: 13.403012887658972
# Latitude: 52.530496890259954
# Elevation: 37.6399993896484

# File produced by Open Asset Import Library (http://www.assimp.sf.net)
# (assimp v3.1.0)

mtllib BLDG_000300000018dfb1.obj.mtl

# 8 vertex positions
v  4.90787 -1.58577e-16 2.58976
v  0.000229193 10.7261 -0.0003394
v  0 0 0
v  4.90811 11.3672 2.5894
v  4.0908 9.7284e-16 -15.8877
v  4.09102 10.7261 -15.888
v  8.99866 8.14263e-16 -13.2979
v  8.99891 11.3672 -13.2983

# 0 UV coordinates

# 10 vertex normals
vn -0.466687 3.79727e-05 0.884423
vn -0.466687 3.79781e-05 0.884423
vn -0.968414 1.28028e-05 -0.249349
vn -0.968414 1.28152e-05 -0.249349
vn 0.466687 -3.79733e-05 -0.884423
vn 0.466687 -3.79577e-05 -0.884423
vn 0.968414 -1.2846e-05 0.249349
vn 0 -1 -6.12323e-17
vn -1.43453e-23 -1 -6.12323e-17
vn -0.114194 0.993023 -0.0294028

# Mesh 'defaultobject' with 12 faces
g defaultobject
usemtl DefaultMaterial
f  1//1 2//1 3//1
f  2//1 1//1 4//2
f  2//3 5//3 3//3
f  5//3 2//3 6//4
f  6//5 7//5 5//5
f  7//5 6//5 8//6
f  7//7 4//7 1//7
f  4//7 7//7 8//7
f  3//8 7//8 1//8
f  7//8 3//8 5//9
f  2//10 8//10 6//10
f  8//10 2//10 4//10

