# {"id":"BLDG_0003000f000031b7","idOriginal":"BLDG_0003000f000031b7","origin":[13.36655936979386,52.50667170576872],"elevation":31.0499992370605}
# Longitude: 13.36655936979386
# Latitude: 52.50667170576872
# Elevation: 31.0499992370605

# File produced by Open Asset Import Library (http://www.assimp.sf.net)
# (assimp v3.1.0)

mtllib BLDG_0003000f000031b7.obj.mtl

# 28 vertex positions
v  86.6986 -1.19754e-15 19.5573
v  90.3102 7.1 9.4087
v  86.6987 7.1 19.5571
v  90.3102 -5.76134e-16 9.40898
v  112.246 17.45 -52.2279
v  90.3104 17.45 9.40837
v  112.245 3.19799e-15 -52.2272
v  112.245 7.1 -52.2275
v  114.731 7.1 -59.2118
v  114.731 3.62566e-15 -59.2115
v  75.7836 7.1 26.9694
v  21.0886 -4.59547e-16 7.50497
v  75.7835 -1.65142e-15 26.9697
v  21.0888 7.1 7.50475
v  0 0 0
v  0.000151349 7.1 -0.00022432
v  29.1151 5.00951e-15 -81.8114
v  29.1153 7.1 -81.8117
v  31.6006 5.43715e-15 -88.7955
v  31.6007 7.1 -88.7957
v  79.352 7.1 16.9426
v  79.3518 -1.03745e-15 16.9428
v  82.9636 7.1 6.79421
v  28.2689 17.45 -12.6708
v  28.2687 7.1 -12.6705
v  50.2038 7.1 -74.3067
v  50.2041 17.45 -74.307
v  104.899 7.1 -54.842

# 0 UV coordinates

# 38 vertex normals
vn 0.942122 -9.61949e-06 0.335269
vn 0.942118 1.20929e-05 0.335283
vn 0.942118 -9.54319e-06 0.335281
vn 0.942117 1.20887e-05 0.335284
vn 0.942117 7.10541e-06 0.335283
vn 0.328935 -3.69648e-05 -0.944353
vn 0.942104 3.13311e-05 0.33532
vn 0.942118 -9.61895e-06 0.335283
vn -0.335279 3.68173e-05 0.942119
vn -0.335279 3.6917e-05 0.942119
vn -0.335279 3.6917e-05 0.942119
vn -0.335279 3.69127e-05 0.942119
vn -0.942118 9.48989e-06 -0.335281
vn -0.942118 9.54605e-06 -0.335281
vn -0.942118 9.54605e-06 -0.335282
vn -0.942118 9.43886e-06 -0.335282
vn 0.335276 -3.70703e-05 -0.94212
vn 0.335276 -3.75765e-05 -0.94212
vn -0.335281 3.71021e-05 0.942118
vn -0.335279 3.69743e-05 0.942119
vn -0.335279 3.68944e-05 0.942119
vn -0.335279 3.69428e-05 0.942119
vn -0.942118 9.51229e-06 -0.335281
vn -0.942118 9.54319e-06 -0.335281
vn 0.335279 -3.70296e-05 -0.942119
vn 0.335279 -3.62995e-05 -0.942119
vn 0.335279 -3.70296e-05 -0.942119
vn 0.942118 -9.74313e-06 0.335282
vn 0.942118 -9.64216e-06 0.335282
vn -5.17949e-24 -1 -6.12323e-17
vn -2.34766e-24 -1 -6.12323e-17
vn 8.80554e-23 -1 -6.12324e-17
vn 0 -1 -6.12323e-17
vn 1.08111e-24 -1 -6.12323e-17
vn 1.00837e-23 -1 -6.12323e-17
vn -1.9788e-24 -1 -6.12323e-17
vn 0 -1 0
vn 0 1 0

# Mesh 'defaultobject' with 52 faces
g defaultobject
usemtl DefaultMaterial
f  1//1 2//1 3//1
f  2//2 1//2 4//2
f  2//3 5//3 6//3
f  5//4 2//2 4//2
f  5//4 4//2 7//5
f  5//6 7//6 8//6
f  8//7 7//7 9//7
f  9//8 7//8 10//8
f  11//9 12//9 13//9
f  12//9 11//9 14//10
f  12//9 14//10 15//11
f  15//11 14//10 16//12
f  16//13 17//13 15//13
f  17//13 16//13 18//14
f  17//13 18//14 19//15
f  19//15 18//14 20//16
f  10//17 20//17 9//17
f  20//17 10//17 19//18
f  1//19 21//19 22//19
f  21//19 1//19 3//19
f  23//20 24//20 25//20
f  24//20 23//20 6//21
f  6//21 23//20 2//22
f  26//23 24//23 27//23
f  24//23 26//23 25//24
f  8//25 27//25 5//25
f  27//25 8//25 28//26
f  27//25 28//26 26//27
f  22//28 11//28 13//28
f  11//28 22//28 21//29
f  7//30 19//30 10//30
f  19//30 7//30 4//31
f  19//30 4//31 17//32
f  17//32 4//31 15//33
f  15//33 4//31 22//34
f  22//34 4//31 1//35
f  15//33 22//34 13//36
f  15//33 13//36 12//37
f  14//38 18//38 16//38
f  18//38 14//38 20//38
f  20//38 14//38 25//38
f  25//38 14//38 11//38
f  25//38 11//38 21//38
f  25//38 21//38 23//38
f  23//38 21//38 3//38
f  23//38 3//38 2//38
f  20//38 26//38 9//38
f  26//38 20//38 25//38
f  9//38 26//38 28//38
f  9//38 28//38 8//38
f  6//38 27//38 24//38
f  27//38 6//38 5//38

