# {"id":"BLDG_0003000f0008fb48","idOriginal":"BLDG_0003000f0008fb48","origin":[13.380336372339757,52.524251495823016],"elevation":33.7599983215332}
# Longitude: 13.380336372339757
# Latitude: 52.524251495823016
# Elevation: 33.7599983215332

# File produced by Open Asset Import Library (http://www.assimp.sf.net)
# (assimp v3.1.0)

mtllib BLDG_0003000f0008fb48.obj.mtl

# 8 vertex positions
v  6.19627 6.11915e-17 -0.999334
v  3.78559 -1.43724e-15 23.472
v  0 0 0
v  9.98186 -1.37605e-15 22.4726
v  3.78607 22.4244 23.4713
v  6.19675 22.4244 -1.00004
v  0.000478459 22.4244 -0.0007093
v  9.98234 22.4244 22.4719

# 0 UV coordinates

# 11 vertex normals
vn -1.41908e-24 -1 -6.12323e-17
vn 1.63195e-23 -1 -6.12323e-17
vn 0 1 0
vn -0.987243 2.61007e-05 0.159224
vn -0.987243 2.60804e-05 0.159224
vn -0.159222 -2.78303e-05 -0.987243
vn -0.159222 -2.78299e-05 -0.987243
vn 0.987243 -2.6073e-05 -0.159224
vn 0.987243 -2.6116e-05 -0.159224
vn 0.159222 2.77578e-05 0.987243
vn 0.159223 2.78459e-05 0.987243

# Mesh 'defaultobject' with 12 faces
g defaultobject
usemtl DefaultMaterial
f  1//1 2//1 3//1
f  2//1 1//1 4//2
f  5//3 6//3 7//3
f  6//3 5//3 8//3
f  3//4 5//4 7//4
f  5//4 3//4 2//5
f  1//6 7//6 6//6
f  7//6 1//6 3//7
f  1//8 8//8 4//8
f  8//8 1//8 6//9
f  4//10 5//10 2//10
f  5//10 4//10 8//11

