# {"id":"BLDG_00030000002091e6","idOriginal":"BLDG_00030000002091e6","origin":[13.391376833927948,52.54749120922926],"elevation":47.810001373291}
# Longitude: 13.391376833927948
# Latitude: 52.54749120922926
# Elevation: 47.810001373291

# File produced by Open Asset Import Library (http://www.assimp.sf.net)
# (assimp v3.1.0)

mtllib BLDG_00030000002091e6.obj.mtl

# 18 vertex positions
v  0.729721 15.8296 10.3795
v  0.38078 15.8296 -0.0252646
v  0.000338005 15.8296 -0.000501459
v  1.2303 15.8296 10.3471
v  2.87174 15.8296 -0.190815
v  5.37299 15.8296 10.0829
v  27.3066 15.8296 -1.81062
v  27.9706 15.8296 8.64114
v  27.5022 15.8296 1.25983
v  1.22996 -6.33606e-16 10.3476
v  0.729383 -6.35594e-16 10.38
v  5.37265 -6.17431e-16 10.0834
v  27.9703 -5.29148e-16 8.64165
v  27.5018 -7.71729e-17 1.26033
v  27.3063 1.10838e-16 -1.81012
v  2.8714 1.16534e-17 -0.190314
v  0.380442 1.5163e-18 -0.0247631
v  0 0 0

# 0 UV coordinates

# 22 vertex normals
vn 0 1 0
vn 0.0647282 3.01807e-05 0.997903
vn 0.0647301 3.0241e-05 0.997903
vn 0.0636338 3.02676e-05 0.997973
vn 0.0636336 3.02077e-05 0.997973
vn 0.0636725 3.02674e-05 0.997971
vn 0.997992 -2.32924e-05 -0.06334
vn 0.997978 -2.32973e-05 -0.0635581
vn -0.0661454 -3.01963e-05 -0.99781
vn -0.0661454 -3.01945e-05 -0.99781
vn -0.0663144 -3.0193e-05 -0.997799
vn -0.0663144 -3.01923e-05 -0.997799
vn -0.0649529 -3.02249e-05 -0.997888
vn -0.0649529 -3.02249e-05 -0.997888
vn -0.99754 2.35224e-05 0.070095
vn -0.99754 2.35208e-05 0.070095
vn 0 -1 -6.12323e-17
vn -1.20438e-23 -1 -6.12323e-17
vn 0 -1 -6.12323e-17
vn -9.1863e-24 -1 -6.12323e-17
vn 4.46479e-25 -1 -6.12323e-17
vn 0 -1 -6.12284e-17

# Mesh 'defaultobject' with 32 faces
g defaultobject
usemtl DefaultMaterial
f  1//1 2//1 3//1
f  2//1 1//1 4//1
f  2//1 4//1 5//1
f  5//1 4//1 6//1
f  5//1 6//1 7//1
f  7//1 6//1 8//1
f  7//1 8//1 9//1
f  1//2 10//2 4//2
f  10//2 1//2 11//3
f  4//4 12//4 6//4
f  12//4 4//4 10//5
f  6//6 13//6 8//6
f  13//6 6//6 12//6
f  8//7 14//7 9//7
f  14//7 8//7 13//7
f  9//8 15//8 7//8
f  15//8 9//8 14//8
f  5//9 15//9 16//9
f  15//9 5//9 7//10
f  2//11 16//11 17//11
f  16//11 2//11 5//12
f  3//13 17//13 18//13
f  17//13 3//13 2//14
f  1//15 18//15 11//15
f  18//15 1//15 3//16
f  17//17 11//17 18//17
f  11//17 17//17 10//18
f  10//18 17//17 16//19
f  10//18 16//19 12//20
f  12//20 16//19 15//17
f  12//20 15//17 13//21
f  13//21 15//17 14//22

