# {"id":"BLDG_0003000b0056a3fe","idOriginal":"BLDG_0003000b0056a3fe","origin":[13.404054710513277,52.524548529855366],"elevation":35.4599990844727}
# Longitude: 13.404054710513277
# Latitude: 52.524548529855366
# Elevation: 35.4599990844727

# File produced by Open Asset Import Library (http://www.assimp.sf.net)
# (assimp v3.1.0)

mtllib BLDG_0003000b0056a3fe.obj.mtl

# 19 vertex positions
v  16.9125 -1.55132e-16 2.53349
v  12.9347 -8.53234e-16 13.9344
v  11.5927 -1.06335e-16 1.73658
v  18.2545 -9.02031e-16 14.7313
v  1.44997 -7.4789e-16 12.214
v  0 0 0
v  13.4929 -1.16391e-15 19.0081
v  18.6891 -1.1439e-15 18.6814
v  12.264 17.205 7.83493
v  16.9128 13.2849 2.53307
v  11.5929 13.2849 1.73616
v  17.5839 17.205 8.63184
v  12.935 13.2849 13.934
v  18.2549 17.205 14.7307
v  1.45026 13.2849 12.2135
v  0.725355 17.205 6.10644
v  0.000283883 13.2849 -0.00042021
v  13.4932 13.2849 19.0076
v  18.6895 17.205 18.6808

# 0 UV coordinates

# 27 vertex normals
vn -1.65901e-24 -1 -6.12323e-17
vn 0 -1 -6.12323e-17
vn -7.61313e-25 -1 -6.12323e-17
vn -1.66498e-23 -1 -6.12324e-17
vn 0.0816774 0.83429 -0.545242
vn 0.0816774 0.83429 -0.545242
vn -0.598299 0.798564 0.0658261
vn -0.0816748 0.834302 0.545225
vn -0.0816748 0.834302 0.545225
vn 0.0816773 0.83429 -0.545242
vn -0.5983 0.798564 0.0658262
vn -0.5983 0.798564 0.0658262
vn 0.994002 -2.47219e-05 -0.109362
vn 0.994002 -2.47288e-05 -0.109362
vn 0.0627473 3.01817e-05 0.99803
vn 0.0627473 3.01892e-05 0.998029
vn -0.994002 2.47183e-05 0.109362
vn -0.994002 2.47261e-05 0.109362
vn 0.148147 -3.44509e-05 -0.988965
vn 0.148147 -3.44208e-05 -0.988965
vn 0.994002 -2.45795e-05 -0.109362
vn 0.994002 -2.51776e-05 -0.109362
vn -0.148147 3.44687e-05 0.988965
vn -0.993027 2.49484e-05 0.117887
vn -0.993027 2.49486e-05 0.117887
vn -0.993027 2.49416e-05 0.117887
vn 0.148147 -3.44473e-05 -0.988965

# Mesh 'defaultobject' with 34 faces
g defaultobject
usemtl DefaultMaterial
f  1//1 2//1 3//1
f  2//1 1//1 4//2
f  5//2 3//1 2//1
f  3//1 5//2 6//3
f  7//4 4//2 8//4
f  4//2 7//4 2//1
f  9//5 10//5 11//5
f  10//5 9//5 12//6
f  12//7 13//7 14//7
f  12//8 9//8 13//8
f  15//9 9//8 16//9
f  9//8 15//9 13//8
f  16//10 11//5 17//10
f  11//5 16//10 9//5
f  18//11 14//7 13//7
f  14//7 18//11 19//12
f  4//13 19//13 8//13
f  19//13 4//13 14//14
f  8//15 18//15 7//15
f  18//15 8//15 19//16
f  18//17 2//17 7//17
f  2//17 18//17 13//18
f  11//19 1//19 3//19
f  1//19 11//19 10//20
f  10//21 4//13 1//21
f  4//13 10//21 14//14
f  14//14 10//21 12//22
f  2//23 15//23 5//23
f  15//23 2//23 13//23
f  15//24 6//24 5//24
f  6//24 15//24 17//25
f  17//25 15//24 16//26
f  17//27 3//19 6//27
f  3//19 17//27 11//19

