# {"id":"BLDG_000300000019e85e","idOriginal":"BLDG_000300000019e85e","origin":[13.404550370191371,52.52907647966093],"elevation":37.5699996948242}
# Longitude: 13.404550370191371
# Latitude: 52.52907647966093
# Elevation: 37.5699996948242

# File produced by Open Asset Import Library (http://www.assimp.sf.net)
# (assimp v3.1.0)

mtllib BLDG_000300000019e85e.obj.mtl

# 8 vertex positions
v  6.8416e-05 3.20153 -0.0001013
v  8.36421 3.30044 -3.69653
v  1.31746 3.30044 -5.03864
v  7.04682 3.30044 1.342
v  1.31739 3.08521e-16 -5.03853
v  7.04675 -8.21802e-17 1.3421
v  0 0 0
v  8.36414 2.26341e-16 -3.69643

# 0 UV coordinates

# 10 vertex normals
vn -0.00356076 0.999819 0.0186959
vn -0.013369 0.999905 -0.00349551
vn 0 -1 -6.12323e-17
vn -5.68122e-24 -1 -6.12323e-17
vn -0.967477 1.26708e-05 -0.25296
vn -0.967477 1.26834e-05 -0.25296
vn 0.187094 -3.50823e-05 -0.982342
vn 0.967477 -1.2678e-05 0.25296
vn -0.187094 3.50892e-05 0.982342
vn -0.187094 3.50849e-05 0.982342

# Mesh 'defaultobject' with 12 faces
g defaultobject
usemtl DefaultMaterial
f  1//1 2//1 3//1
f  2//2 1//2 4//2
f  5//3 6//3 7//3
f  6//3 5//3 8//4
f  1//5 5//5 7//5
f  5//5 1//5 3//6
f  3//7 8//7 5//7
f  8//7 3//7 2//7
f  8//8 4//8 6//8
f  4//8 8//8 2//8
f  6//9 1//9 7//9
f  1//9 6//9 4//10

