# {"id":"BLDG_00030008004e648b","idOriginal":"BLDG_00030008004e648b","origin":[13.365069823085276,52.54832129907561],"elevation":35.939998626709}
# Longitude: 13.365069823085276
# Latitude: 52.54832129907561
# Elevation: 35.939998626709

# File produced by Open Asset Import Library (http://www.assimp.sf.net)
# (assimp v3.1.0)

mtllib BLDG_00030008004e648b.obj.mtl

# 26 vertex positions
v  3.0402 1.77568e-16 -2.8999
v  9.40404 1.27108e-16 -2.07583
v  0 0 0
v  5.94555 3.49353e-16 -5.70537
v  18.1908 7.75616e-16 -12.6668
v  19.1858 7.11392e-16 -11.6179
v  12.4691 4.33838e-16 -7.08512
v  9.0257 -5.71792e-16 9.33808
v  34.9039 9.73437e-16 -15.8974
v  13.4927 3.71356e-16 -6.0647
v  23.3043 9.5738e-16 -15.6352
v  21.4238 1.07272e-15 -17.5189
v  27.4714 1.43635e-15 -23.4573
v  9.02613 20.0834 9.33744
v  0.000428119 20.0834 -0.00063627
v  34.9043 20.0834 -15.8981
v  27.4718 20.0834 -23.4579
v  21.4242 20.0834 -17.5195
v  23.3047 20.0834 -15.6358
v  19.1862 20.0834 -11.6186
v  18.1912 20.0834 -12.6674
v  12.4696 20.0834 -7.08576
v  13.4931 20.0834 -6.06534
v  9.40447 20.0834 -2.07647
v  5.94598 20.0834 -5.70601
v  3.04063 20.0834 -2.90054

# 0 UV coordinates

# 30 vertex normals
vn 0 -1 -6.12323e-17
vn -1.30729e-24 -1 -6.12323e-17
vn -9.16318e-24 -1 -6.12323e-17
vn 0 -1 -6.12323e-17
vn 1.87383e-23 -1 -6.12323e-17
vn 3.34369e-24 -1 -6.12323e-17
vn 3.0358e-24 -1 -6.12323e-17
vn 4.71325e-24 -1 -6.12324e-17
vn -0.719031 3.73426e-05 0.694978
vn -0.719031 3.73455e-05 0.694978
vn 0.698161 7.81933e-06 0.715941
vn 0.713091 -3.74096e-05 -0.701072
vn -0.700635 -7.72813e-06 -0.71352
vn -0.7077 3.74327e-05 0.706513
vn -0.707701 3.74663e-05 0.706513
vn -0.698255 -7.81865e-06 -0.715849
vn 0.725497 -3.72349e-05 -0.688226
vn -0.698295 -7.80041e-06 -0.71581
vn -0.698295 -7.81657e-06 -0.71581
vn -0.706007 3.74838e-05 0.708205
vn -0.706007 3.75006e-05 0.708205
vn -0.698316 -7.79081e-06 -0.715789
vn -0.698316 -7.78231e-06 -0.715789
vn 0.723959 -3.72899e-05 -0.689843
vn 0.723959 -3.72805e-05 -0.689843
vn -0.694633 -7.98262e-06 -0.719364
vn -0.694633 -7.97408e-06 -0.719364
vn -0.690214 -8.21153e-06 -0.723606
vn -0.690214 -8.21124e-06 -0.723606
vn -0 1 0

# Mesh 'defaultobject' with 48 faces
g defaultobject
usemtl DefaultMaterial
f  1//1 2//1 3//1
f  2//1 1//1 4//2
f  5//3 6//3 7//3
f  8//4 2//1 9//4
f  2//1 8//4 3//1
f  9//4 2//1 10//5
f  9//4 10//5 7//3
f  9//4 7//3 6//3
f  9//4 6//3 11//6
f  9//4 11//6 12//7
f  9//4 12//7 13//8
f  14//9 3//9 8//9
f  3//9 14//9 15//10
f  9//11 14//11 8//11
f  14//11 9//11 16//11
f  13//12 16//12 9//12
f  16//12 13//12 17//12
f  18//13 13//13 12//13
f  13//13 18//13 17//13
f  19//14 12//14 11//14
f  12//14 19//14 18//15
f  20//16 11//16 6//16
f  11//16 20//16 19//16
f  5//17 20//17 6//17
f  20//17 5//17 21//17
f  22//18 5//18 7//18
f  5//18 22//18 21//19
f  23//20 7//20 10//20
f  7//20 23//20 22//21
f  24//22 10//22 2//22
f  10//22 24//22 23//23
f  4//24 24//24 2//24
f  24//24 4//24 25//25
f  26//26 4//26 1//26
f  4//26 26//26 25//27
f  15//28 1//28 3//28
f  1//28 15//28 26//29
f  22//30 23//30 21//30
f  18//30 19//30 17//30
f  15//30 14//30 26//30
f  24//30 26//30 14//30
f  16//30 24//30 14//30
f  25//30 26//30 24//30
f  23//30 24//30 16//30
f  20//30 23//30 16//30
f  21//30 23//30 20//30
f  19//30 20//30 16//30
f  17//30 19//30 16//30

