# {"id":"BLDG_0003000000174b96","idOriginal":"BLDG_0003000000174b96","origin":[13.37877058740421,52.530754754697476],"elevation":32.8499984741211}
# Longitude: 13.37877058740421
# Latitude: 52.530754754697476
# Elevation: 32.8499984741211

# File produced by Open Asset Import Library (http://www.assimp.sf.net)
# (assimp v3.1.0)

mtllib BLDG_0003000000174b96.obj.mtl

# 33 vertex positions
v  22.2812 6.15 9.77483
v  16.3881 3.91 -4.01476
v  16.3882 6.15 -4.01483
v  16.3881 2.45825e-16 -4.01463
v  22.2812 5.37 9.77485
v  22.2811 -5.98547e-16 9.77502
v  25.3058 5.37 16.8536
v  25.3057 3.91 16.8536
v  25.3057 -1.03199e-15 16.8538
v  9.06141 -1.45707e-15 23.7958
v  9.0615 3.91 23.7957
v  9.06153 5.37 23.7956
v  4.75065 -1.56996e-15 25.6393
v  4.75073 3.91 25.6392
v  0.143926 6.15 2.92717
v  6.03697 5.37 16.7168
v  6.03699 6.15 16.7168
v  6.03694 3.91 16.7169
v  4.58776 3.91 13.3258
v  4.58768 -8.1598e-16 13.326
v  0.143795 -1.79249e-16 2.92737
v  0.143878 3.91 2.92724
v  1.08014 3.91 2.52713
v  15.4858 3.91 -3.62913
v  15.4857 2.22212e-16 -3.629
v  1.08005 -1.5475e-16 2.52726
v  1.72507 -1.13644e-15 18.5595
v  0.276027 3.91 15.1685
v  0.275944 -9.28808e-16 15.1686
v  0 0 0
v  8.3419e-05 3.91 -0.000123731
v  14.4056 3.76969e-16 -6.15637
v  14.4057 3.91 -6.15649

# 0 UV coordinates

# 52 vertex normals
vn 0.91955 -3.20246e-05 -0.392973
vn 0.91955 -3.21494e-05 -0.392973
vn 0.91955 -3.0656e-05 -0.392973
vn 0.91955 -3.20224e-05 -0.392973
vn 0.919577 -3.20177e-05 -0.392909
vn 0.919577 -3.15662e-05 -0.39291
vn 0.919577 -3.21921e-05 -0.392909
vn 0.392973 2.07223e-05 0.91955
vn 0.392973 2.04109e-05 0.91955
vn 0.392973 2.07223e-05 0.91955
vn 0.392973 2.06172e-05 0.91955
vn 0.393208 2.0714e-05 0.919449
vn 0.393208 2.0762e-05 0.919449
vn -0.91955 3.26127e-05 0.392973
vn -0.91955 3.18423e-05 0.392973
vn -0.91955 3.2326e-05 0.392973
vn -0.91955 3.20852e-05 0.392973
vn -0.91955 3.2033e-05 0.392973
vn 0.999529 -2.22956e-05 -0.0306752
vn -0.919577 3.15661e-05 0.392909
vn -0.919577 3.19055e-05 0.392909
vn -0.392971 -2.08229e-05 -0.919551
vn -0.392971 -1.9444e-05 -0.919551
vn -0.392971 -2.06542e-05 -0.919551
vn -0.392971 -2.07621e-05 -0.919551
vn -0.39297 -2.07979e-05 -0.919551
vn -0.392971 -2.06064e-05 -0.919551
vn -0.392971 -2.06615e-05 -0.919551
vn -0.392971 -2.07289e-05 -0.919551
vn -0.91955 3.20852e-05 0.392973
vn -0.91955 3.20874e-05 0.392973
vn -0.91955 3.20129e-05 0.392973
vn -0.919547 3.20541e-05 0.39298
vn -0.919547 3.20333e-05 0.39298
vn -0.392978 -2.07058e-05 -0.919548
vn -0.392977 -2.07147e-05 -0.919548
vn 0.919547 -3.19472e-05 -0.39298
vn 0.919547 -3.1925e-05 -0.39298
vn -0.392971 -2.07703e-05 -0.919551
vn -0.392971 -2.0549e-05 -0.919551
vn 0.392971 2.04867e-05 0.919551
vn 0.392971 2.15941e-05 0.919551
vn -2.45901e-24 -1 -6.12323e-17
vn -5.86636e-24 -1 -6.12323e-17
vn 7.7859e-24 -1 -6.12324e-17
vn 5.29833e-24 -1 -6.12324e-17
vn 2.46113e-24 -1 -6.12323e-17
vn 6.12316e-24 -1 -6.12323e-17
vn 0 -1 -6.12323e-17
vn -3.70074e-18 1 5.18104e-17
vn -2.45911e-24 -1 -6.12323e-17
vn 0 1 0

# Mesh 'defaultobject' with 62 faces
g defaultobject
usemtl DefaultMaterial
f  1//1 2//1 3//1
f  2//1 1//1 4//2
f  4//2 1//1 5//3
f  4//2 5//3 6//4
f  6//5 5//5 7//5
f  6//5 7//5 8//6
f  6//5 8//6 9//7
f  8//8 10//8 9//8
f  10//8 8//8 7//9
f  10//8 7//9 11//10
f  11//10 7//9 12//11
f  11//12 13//12 10//12
f  13//12 11//12 14//13
f  15//14 16//14 17//14
f  16//14 15//14 18//15
f  18//15 15//14 19//16
f  19//16 15//14 20//17
f  20//17 15//14 21//18
f  21//19 15//19 22//19
f  16//20 11//20 12//20
f  11//20 16//20 18//21
f  3//22 22//22 15//22
f  22//22 3//22 23//23
f  23//23 3//22 24//24
f  24//24 3//22 25//25
f  25//25 3//22 2//26
f  25//25 2//26 4//27
f  23//23 21//28 22//22
f  21//28 23//23 26//29
f  14//30 27//30 13//30
f  27//30 14//30 28//31
f  27//30 28//31 29//32
f  30//33 23//33 31//33
f  23//33 30//33 26//34
f  32//35 31//35 33//35
f  31//35 32//35 30//36
f  32//37 24//37 25//37
f  24//37 32//37 33//38
f  20//39 28//39 19//39
f  28//39 20//39 29//40
f  5//41 17//41 16//41
f  17//41 5//41 1//42
f  32//43 25//43 30//43
f  27//44 10//44 13//44
f  10//44 27//44 9//45
f  9//45 27//44 29//46
f  9//45 29//46 6//47
f  6//47 29//46 20//48
f  6//47 20//48 21//49
f  6//47 21//49 4//49
f  4//49 21//28 26//34
f  4//50 26//50 25//50
f  25//43 26//51 30//43
f  11//52 28//52 14//52
f  28//52 11//52 18//52
f  28//52 18//52 19//52
f  33//52 23//52 24//52
f  23//52 33//52 31//52
f  7//52 16//52 12//52
f  16//52 7//52 5//52
f  3//52 17//52 1//52
f  17//52 3//52 15//52

