# {"id":"BLDG_0003000f0003f2dc","idOriginal":"BLDG_0003000f0003f2dc","origin":[13.360453663400277,52.52609513395419],"elevation":32.7900009155273}
# Longitude: 13.360453663400277
# Latitude: 52.52609513395419
# Elevation: 32.7900009155273

# File produced by Open Asset Import Library (http://www.assimp.sf.net)
# (assimp v3.1.0)

mtllib BLDG_0003000f0003f2dc.obj.mtl

# 76 vertex positions
v  13.9341 -1.17395e-16 1.9172
v  12.7273 -1.43344e-16 2.34098
v  13.2587 -4.6463e-18 0.0758799
v  16.2867 -5.04676e-16 8.24199
v  14.8484 -5.70678e-16 9.31989
v  15.8574 -4.07126e-16 6.64886
v  15.6242 -5.58727e-16 9.1247
v  10.9362 3.26283e-16 -5.32861
v  0.509616 -5.49676e-17 0.897689
v  0 0 0
v  0.554503 -6.17465e-17 1.0084
v  2.5463 -3.61087e-16 5.89699
v  4.10301 -6.58275e-16 10.7505
v  11.7592 2.17287e-16 -3.54856
v  12.5335 1.06927e-16 -1.74625
v  5.37856 -9.70533e-16 15.85
v  14.0668 -3.93305e-16 6.42316
v  6.11227 -1.28444e-15 20.9765
v  14.8345 -3.79737e-16 6.20158
v  6.33031 -1.62177e-15 26.4856
v  15.8299 -8.35507e-16 13.6449
v  5.88791 -1.89653e-15 30.9727
v  16.1529 -9.4493e-16 15.4319
v  5.74101 -1.93522e-15 31.6046
v  6.73037 -1.94684e-15 31.7943
v  16.3382 -1.03412e-15 16.8885
v  7.05912 -1.98874e-15 32.4786
v  7.98671 -2.10683e-15 34.4071
v  16.5315 -1.12718e-15 18.4082
v  16.7342 -1.22499e-15 20.0056
v  7.00299 -2.15957e-15 35.2685
v  6.87735 -2.14358e-15 35.0073
v  8.70019 -2.37583e-15 38.8002
v  16.9215 -1.6121e-15 26.3276
v  9.75692 -2.51043e-15 40.9985
v  18.1813 -1.61574e-15 26.387
v  18.1394 -1.72907e-15 28.2378
v  21.4461 -2.15887e-15 35.257
v  0.509937 15.0706 0.897212
v  0.000321148 15.0706 -0.00047676
v  0.554824 15.0706 1.00792
v  2.54662 15.0706 5.89651
v  4.10333 15.0706 10.75
v  5.37889 15.0706 15.8495
v  6.11259 15.0706 20.976
v  6.33063 15.0706 26.4851
v  5.88823 15.0706 30.9722
v  5.74133 15.0706 31.6041
v  6.73069 15.0706 31.7938
v  7.05944 15.0706 32.4781
v  7.98703 15.0706 34.4066
v  6.87767 15.0706 35.0068
v  7.00331 15.0706 35.268
v  8.70051 15.0706 38.7998
v  9.75724 15.0706 40.998
v  21.4464 15.0706 35.2565
v  18.1397 15.0706 28.2374
v  18.1816 15.0706 26.3865
v  16.9218 15.0706 26.3271
v  16.7345 15.0706 20.0051
v  16.5318 15.0706 18.4077
v  16.3385 15.0706 16.8881
v  16.1533 15.0706 15.4314
v  15.8302 15.0706 13.6444
v  14.8488 15.0706 9.31941
v  15.6245 15.0706 9.12423
v  16.287 15.0706 8.24152
v  15.8578 15.0706 6.64839
v  14.8348 15.0706 6.2011
v  14.0671 15.0706 6.42268
v  12.7277 15.0706 2.34051
v  13.9344 15.0706 1.91672
v  13.259 15.0706 0.0754031
v  12.5338 15.0706 -1.74673
v  11.7595 15.0706 -3.54904
v  10.9365 15.0706 -5.32909

# 0 UV coordinates

# 97 vertex normals
vn 3.95758e-24 -1 -6.12323e-17
vn 9.6114e-24 -1 -6.12323e-17
vn -6.8503e-23 -1 -6.12324e-17
vn -1.68963e-23 -1 -6.12323e-17
vn -2.07691e-23 -1 -6.12324e-17
vn -6.68284e-24 -1 -6.12323e-17
vn -7.27756e-24 -1 -6.12323e-17
vn 0 -1 -6.12323e-17
vn 3.40564e-23 -1 -6.12323e-17
vn 1.4373e-23 -1 -6.12323e-17
vn -4.11528e-24 -1 -6.12323e-17
vn -1.80025e-22 -1 -6.12324e-17
vn 8.26e-24 -1 -6.12323e-17
vn -1.57768e-23 -1 -6.12323e-17
vn -4.01223e-23 -1 -6.12324e-17
vn 0 -1 -6.12323e-17
vn -3.90395e-22 -1 -6.12326e-17
vn 9.05599e-23 -1 -6.12323e-17
vn 0 -1 -6.12324e-17
vn 2.12219e-22 -1 -6.12322e-17
vn -4.58124e-23 -1 -6.12324e-17
vn -1.05373e-22 -1 -6.12324e-17
vn 5.01417e-23 -1 -6.12323e-17
vn -6.34335e-22 -1 -6.1233e-17
vn -1.01886e-22 -1 -6.12324e-17
vn 1.0841e-22 -1 -6.12323e-17
vn 4.47995e-23 -1 -6.12323e-17
vn 1.1309e-22 -1 -6.12323e-17
vn -3.77264e-23 -1 -6.12324e-17
vn -0.869637 3.41468e-05 0.493691
vn -0.869637 3.41495e-05 0.493691
vn -0.926724 3.16338e-05 0.375744
vn -0.926723 3.16316e-05 0.375744
vn -0.926082 3.1673e-05 0.377321
vn -0.926082 3.167e-05 0.377321
vn -0.952219 2.99398e-05 0.305416
vn -0.952219 2.99549e-05 0.305416
vn -0.970113 2.83658e-05 0.242655
vn -0.970113 2.83351e-05 0.242655
vn -0.989913 2.55617e-05 0.141677
vn -0.989913 2.5593e-05 0.141677
vn -0.999218 2.25285e-05 0.0395468
vn -0.995175 1.80866e-05 -0.0981184
vn -0.974028 1.36053e-05 -0.226427
vn -0.974028 1.35766e-05 -0.226427
vn -0.188318 3.49604e-05 0.982108
vn -0.188316 3.50899e-05 0.982108
vn -0.901376 3.29237e-05 0.433037
vn -0.901175 3.29041e-05 0.433456
vn -0.901175 3.29326e-05 0.433456
vn -0.475843 -1.76809e-05 -0.87953
vn -0.475843 -1.7696e-05 -0.87953
vn -0.901145 3.29339e-05 0.433518
vn -0.901329 3.28161e-05 0.433136
vn -0.901329 3.29257e-05 0.433135
vn -0.901274 3.29282e-05 0.433249
vn -0.901274 3.28185e-05 0.433249
vn 0.440869 1.90087e-05 0.897571
vn 0.440869 1.90476e-05 0.897571
vn 0.904639 -3.27205e-05 -0.426179
vn 0.904639 -3.28347e-05 -0.426179
vn 0.999744 -2.06666e-05 0.022647
vn 0.0470726 -3.2606e-05 -0.998891
vn 0.0470726 -3.26119e-05 -0.998892
vn 0.999561 -2.219e-05 -0.0296156
vn 0.999561 -2.23164e-05 -0.0296153
vn 0.992041 -2.52025e-05 -0.125915
vn 0.992041 -2.50772e-05 -0.125916
vn 0.992012 -2.50831e-05 -0.126143
vn 0.992012 -2.51941e-05 -0.126142
vn 0.992007 -2.5193e-05 -0.126181
vn 0.992007 -2.52091e-05 -0.126181
vn 0.984052 -2.6675e-05 -0.177882
vn 0.984052 -2.66118e-05 -0.177882
vn 0.975205 -2.77952e-05 -0.221306
vn 0.244003 2.54812e-05 0.969774
vn 0.244004 2.54961e-05 0.969774
vn 0.799798 1.98528e-06 0.600269
vn 0.799797 1.88494e-06 0.60027
vn 0.965566 -2.88847e-05 -0.26016
vn 0.965565 -2.88223e-05 -0.26016
vn 0.400641 -3.75047e-05 -0.916235
vn 0.40064 -3.75337e-05 -0.916235
vn -0.277307 -2.44856e-05 -0.960781
vn -0.277306 -2.44552e-05 -0.960781
vn 0.950157 -3.01281e-05 -0.311771
vn 0.331351 2.27877e-05 0.943508
vn 0.938841 -3.09179e-05 -0.344351
vn 0.929124 -3.15131e-05 -0.369769
vn 0.929124 -3.15091e-05 -0.369769
vn 0.918786 -3.20817e-05 -0.394757
vn 0.918786 -3.20252e-05 -0.394757
vn 0.907679 -3.25744e-05 -0.419665
vn 0.907679 -3.26228e-05 -0.419665
vn -0.438019 -1.91049e-05 -0.898966
vn -0.438019 -1.9074e-05 -0.898966
vn 0 1 0

# Mesh 'defaultobject' with 148 faces
g defaultobject
usemtl DefaultMaterial
f  1//1 2//1 3//1
f  4//2 5//2 6//2
f  5//2 4//2 7//3
f  8//4 9//4 10//4
f  9//4 8//4 11//5
f  11//5 8//4 12//6
f  12//6 8//4 13//7
f  13//7 8//4 14//8
f  13//7 14//8 15//9
f  13//7 15//9 16//10
f  16//10 15//9 3//1
f  16//10 3//1 2//1
f  16//10 2//1 17//8
f  16//10 17//8 18//11
f  18//11 17//8 19//12
f  18//11 19//12 20//13
f  20//13 19//12 6//2
f  20//13 6//2 5//2
f  20//13 5//2 21//14
f  20//13 21//14 22//15
f  22//15 21//14 23//16
f  22//15 23//16 24//17
f  24//17 23//16 25//18
f  25//18 23//16 26//19
f  25//18 26//19 27//20
f  27//20 26//19 28//21
f  28//21 26//19 29//22
f  28//21 29//22 30//23
f  28//21 31//24 32//24
f  31//24 28//21 33//25
f  33//25 28//21 30//23
f  33//25 30//23 34//16
f  33//25 34//16 35//26
f  35//26 34//16 36//27
f  35//26 36//27 37//28
f  35//26 37//28 38//29
f  39//30 10//30 9//30
f  10//30 39//30 40//31
f  41//32 9//32 11//32
f  9//32 41//32 39//33
f  42//34 11//34 12//34
f  11//34 42//34 41//35
f  43//36 12//36 13//36
f  12//36 43//36 42//37
f  44//38 13//38 16//38
f  13//38 44//38 43//39
f  45//40 16//40 18//40
f  16//40 45//40 44//41
f  46//42 18//42 20//42
f  18//42 46//42 45//42
f  47//43 20//43 22//43
f  20//43 47//43 46//43
f  48//44 22//44 24//44
f  22//44 48//44 47//45
f  25//46 48//46 24//46
f  48//46 25//46 49//47
f  50//48 25//48 27//48
f  25//48 50//48 49//48
f  51//49 27//49 28//49
f  27//49 51//49 50//50
f  52//51 28//51 32//51
f  28//51 52//51 51//52
f  53//53 32//53 31//53
f  32//53 53//53 52//53
f  54//54 31//54 33//54
f  31//54 54//54 53//55
f  55//56 33//56 35//56
f  33//56 55//56 54//57
f  38//58 55//58 35//58
f  55//58 38//58 56//59
f  37//60 56//60 38//60
f  56//60 37//60 57//61
f  36//62 57//62 37//62
f  57//62 36//62 58//62
f  59//63 36//63 34//63
f  36//63 59//63 58//64
f  30//65 59//65 34//65
f  59//65 30//65 60//66
f  29//67 60//67 30//67
f  60//67 29//67 61//68
f  26//69 61//69 29//69
f  61//69 26//69 62//70
f  23//71 62//71 26//71
f  62//71 23//71 63//72
f  21//73 63//73 23//73
f  63//73 21//73 64//74
f  5//75 64//75 21//75
f  64//75 5//75 65//75
f  7//76 65//76 5//76
f  65//76 7//76 66//77
f  4//78 66//78 7//78
f  66//78 4//78 67//79
f  6//80 67//80 4//80
f  67//80 6//80 68//81
f  69//82 6//82 19//82
f  6//82 69//82 68//83
f  70//84 19//84 17//84
f  19//84 70//84 69//85
f  2//86 70//86 17//86
f  70//86 2//86 71//86
f  1//87 71//87 2//87
f  71//87 1//87 72//87
f  3//88 72//88 1//88
f  72//88 3//88 73//88
f  15//89 73//89 3//89
f  73//89 15//89 74//90
f  14//91 74//91 15//91
f  74//91 14//91 75//92
f  8//93 75//93 14//93
f  75//93 8//93 76//94
f  40//95 8//95 10//95
f  8//95 40//95 76//96
f  40//97 75//97 76//97
f  75//97 40//97 74//97
f  74//97 40//97 39//97
f  74//97 39//97 73//97
f  73//97 39//97 41//97
f  73//97 41//97 42//97
f  73//97 42//97 72//97
f  72//97 42//97 71//97
f  71//97 42//97 70//97
f  70//97 42//97 43//97
f  70//97 43//97 68//97
f  68//97 43//97 67//97
f  67//97 43//97 66//97
f  66//97 43//97 65//97
f  65//97 43//97 44//97
f  65//97 44//97 64//97
f  64//97 44//97 63//97
f  63//97 44//97 45//97
f  63//97 45//97 62//97
f  62//97 45//97 61//97
f  61//97 45//97 60//97
f  60//97 45//97 46//97
f  60//97 46//97 59//97
f  59//97 46//97 47//97
f  59//97 47//97 58//97
f  58//97 47//97 57//97
f  57//97 47//97 56//97
f  56//97 47//97 49//97
f  49//97 47//97 48//97
f  56//97 49//97 50//97
f  56//97 50//97 51//97
f  56//97 51//97 52//97
f  56//97 52//97 53//97
f  56//97 53//97 54//97
f  56//97 54//97 55//97
f  68//97 69//97 70//97

