# {"id":"BLDG_00030000001bfc69","idOriginal":"BLDG_00030000001bfc69","origin":[13.347061736431325,52.5466110262588],"elevation":35.0099983215332}
# Longitude: 13.347061736431325
# Latitude: 52.5466110262588
# Elevation: 35.0099983215332

# File produced by Open Asset Import Library (http://www.assimp.sf.net)
# (assimp v3.1.0)

mtllib BLDG_00030000001bfc69.obj.mtl

# 26 vertex positions
v  17.2994 18.98 -5.95782
v  19.7382 21.72 -7.95042
v  15.7593 21.72 -12.8759
v  28.1419 21.72 2.45234
v  25.7002 18.98 4.44146
v  24.4741 22.77 -11.8197
v  20.4952 22.77 -16.7452
v  32.8832 22.77 -1.41017
v  27.509 18.98 -14.2992
v  23.53 18.98 -19.2246
v  35.9216 18.98 -3.88529
v  13.3206 22.1967 -10.8834
v  0.000472623 22.1967 -0.00070316
v  3.94299 18.98 4.95455
v  13.3201 6.66372e-16 -10.8827
v  3.94259 -3.03415e-16 4.95515
v  0 0 0
v  17.299 3.64774e-16 -5.95722
v  15.7588 7.88376e-16 -12.8752
v  20.4948 1.0253e-15 -16.7445
v  23.5296 1.17713e-15 -19.224
v  25.6998 -2.71998e-16 4.44206
v  27.5086 8.75534e-16 -14.2986
v  28.1414 -1.50205e-16 2.45303
v  32.8827 8.63039e-17 -1.40945
v  35.9212 2.37869e-16 -3.88469

# 0 UV coordinates

# 44 vertex normals
vn -0.510589 0.75443 0.412473
vn -0.510592 0.75443 0.41247
vn -0.510592 0.75443 0.41247
vn -0.131634 0.985579 0.106335
vn -0.131634 0.985578 0.106339
vn -0.131635 0.985578 0.106338
vn 0.540785 0.718821 -0.436861
vn 0.540785 0.718827 -0.436852
vn 0.540781 0.718827 -0.436857
vn 0.540781 0.718827 -0.436857
vn 0.387894 0.883245 0.263469
vn 0.286564 0.891548 0.350746
vn 0.286564 0.891549 0.350746
vn 0 -1 -6.12323e-17
vn 0 -1 -6.12323e-17
vn -2.18745e-23 -1 -6.12323e-17
vn 6.82704e-23 -1 -6.12323e-17
vn 4.80597e-24 -1 -6.12323e-17
vn -4.0588e-23 -1 -6.12323e-17
vn -1.00456e-23 -1 -6.12323e-17
vn 5.1731e-24 -1 -6.12323e-17
vn -8.07236e-24 -1 -6.12323e-17
vn -0.632695 -1.0832e-05 -0.774401
vn -0.632695 -1.11664e-05 -0.774401
vn -0.632695 -1.10603e-05 -0.774401
vn -0.632695 -1.1124e-05 -0.774401
vn -0.632695 -1.11049e-05 -0.774401
vn -0.632695 -1.11081e-05 -0.774401
vn -0.632695 -1.11737e-05 -0.774401
vn 0.631593 1.11117e-05 0.7753
vn 0.631593 1.11938e-05 0.7753
vn 0.631593 1.10963e-05 0.7753
vn 0.631593 1.11543e-05 0.7753
vn 0.631593 1.11741e-05 0.7753
vn 0.631593 1.11686e-05 0.7753
vn 0.77789 -3.64496e-05 -0.6284
vn 0.77789 -3.64818e-05 -0.6284
vn 0.77789 -3.65669e-05 -0.6284
vn 0.77789 -3.64725e-05 -0.6284
vn 0.632695 1.10471e-05 0.774401
vn -0.782525 3.63862e-05 0.62262
vn -0.782525 3.63856e-05 0.62262
vn -0.77789 3.64022e-05 0.6284
vn -0.77789 3.64804e-05 0.6284

# Mesh 'defaultobject' with 48 faces
g defaultobject
usemtl DefaultMaterial
f  1//1 2//1 3//1
f  2//1 1//1 4//2
f  4//2 1//1 5//3
f  3//4 6//4 7//4
f  6//4 3//4 2//5
f  6//4 2//5 8//6
f  8//6 2//5 4//6
f  7//7 9//7 10//7
f  9//8 7//8 6//8
f  9//7 6//8 11//9
f  11//9 6//8 8//10
f  3//11 12//11 1//11
f  1//12 13//12 14//12
f  13//12 1//12 12//13
f  15//14 16//14 17//14
f  16//14 15//14 18//15
f  18//15 15//14 19//15
f  18//15 19//15 20//16
f  18//15 20//16 21//17
f  18//15 21//17 22//18
f  22//18 21//17 23//19
f  22//18 23//19 24//20
f  24//20 23//19 25//21
f  25//21 23//19 26//22
f  10//23 3//23 7//23
f  3//23 13//24 12//24
f  13//24 3//23 17//25
f  17//25 3//23 10//23
f  17//25 10//23 15//26
f  15//26 10//23 19//27
f  19//27 10//23 20//28
f  20//28 10//23 21//29
f  4//30 11//30 8//30
f  11//30 4//30 5//31
f  11//30 5//31 26//32
f  26//32 5//31 25//33
f  25//33 5//31 24//34
f  24//34 5//31 22//35
f  10//36 23//36 21//36
f  23//36 10//36 26//37
f  26//37 10//36 9//38
f  26//37 9//38 11//39
f  18//40 14//40 16//40
f  14//40 18//40 1//40
f  14//41 17//41 16//41
f  17//41 14//41 13//42
f  5//43 18//43 22//43
f  18//43 5//43 1//44

