# {"id":"BLDG_000300090031fec4","idOriginal":"BLDG_000300090031fec4","origin":[13.359415005217278,52.56088831911503],"elevation":40.4300003051758}
# Longitude: 13.359415005217278
# Latitude: 52.56088831911503
# Elevation: 40.4300003051758

# File produced by Open Asset Import Library (http://www.assimp.sf.net)
# (assimp v3.1.0)

mtllib BLDG_000300090031fec4.obj.mtl

# 10 vertex positions
v  5.47927 3.70941e-17 -0.605793
v  0.856284 -4.6326e-16 7.56561
v  0 0 0
v  6.64552 -6.85532e-16 11.1956
v  1.33895 -7.24658e-16 11.8346
v  0.856347 2.9722 7.56552
v  5.47933 2.9722 -0.605887
v  6.3337e-05 2.9722 -9.42405e-05
v  6.64559 2.9722 11.1955
v  1.33901 2.9722 11.8345

# 0 UV coordinates

# 14 vertex normals
vn 0 -1 -6.12323e-17
vn -1.32168e-23 -1 -6.12323e-17
vn -1.38332e-23 -1 -6.12323e-17
vn 0 1 0
vn -0.993656 2.47547e-05 0.112463
vn -0.993656 2.47405e-05 0.112463
vn -0.993669 2.47314e-05 0.112348
vn -0.993669 2.47513e-05 0.112348
vn 0.11955 2.86652e-05 0.992828
vn 0.11955 2.89804e-05 0.992828
vn 0.995152 -2.43513e-05 -0.0983445
vn 0.995152 -2.43242e-05 -0.0983445
vn -0.109891 -2.91735e-05 -0.993944
vn -0.109891 -2.91686e-05 -0.993944

# Mesh 'defaultobject' with 16 faces
g defaultobject
usemtl DefaultMaterial
f  1//1 2//1 3//1
f  2//1 1//1 4//2
f  2//1 4//2 5//3
f  6//4 7//4 8//4
f  7//4 6//4 9//4
f  9//4 6//4 10//4
f  6//5 3//5 2//5
f  3//5 6//5 8//6
f  10//7 2//7 5//7
f  2//7 10//7 6//8
f  10//9 4//9 9//9
f  4//9 10//9 5//10
f  9//11 1//11 7//11
f  1//11 9//11 4//12
f  8//13 1//13 3//13
f  1//13 8//13 7//14

