# {"id":"BLDG_0003000b006b457b","idOriginal":"BLDG_0003000b006b457b","origin":[13.348680521863916,52.55456034162413],"elevation":36.4599990844727}
# Longitude: 13.348680521863916
# Latitude: 52.55456034162413
# Elevation: 36.4599990844727

# File produced by Open Asset Import Library (http://www.assimp.sf.net)
# (assimp v3.1.0)

mtllib BLDG_0003000b006b457b.obj.mtl

# 26 vertex positions
v  10.9567 8.41123e-16 -13.7366
v  7.78813 5.04271e-16 -8.23538
v  6.71768 5.66651e-16 -9.25411
v  2.13641 -1.24498e-16 2.0332
v  0 0 0
v  7.11413 -4.14571e-16 6.77045
v  12.0272 7.78743e-16 -12.7178
v  14.1636 6.54246e-16 -10.6846
v  9.06949 -5.28518e-16 8.63135
v  19.1413 3.64172e-16 -5.94738
v  16.8576 -2.42464e-17 0.395974
v  21.0966 2.50225e-16 -4.08649
v  7.78855 19.76 -8.236
v  9.92499 21.5 -6.20286
v  14.164 21.5 -10.6853
v  2.13687 21.5 2.03252
v  0.000420792 19.76 -0.0006263
v  14.9027 22.89 -1.46565
v  19.1418 22.89 -5.9481
v  7.11462 22.89 6.76973
v  16.858 19.76 0.395348
v  21.0971 19.76 -4.08712
v  9.06991 19.76 8.63072
v  12.0276 22.1133 -12.7185
v  6.7181 19.76 -9.25474
v  10.9572 22.1133 -13.7373

# 0 UV coordinates

# 41 vertex normals
vn 1.16138e-23 -1 -6.12323e-17
vn 0 -1 -6.12323e-17
vn 0 -1 -6.12323e-17
vn 2.24086e-23 -1 -6.12323e-17
vn -1.40841e-23 -1 -6.12323e-17
vn -2.76846e-23 -1 -6.12323e-17
vn -6.35791e-24 -1 -6.12323e-17
vn -0.369194 0.861276 -0.349142
vn -0.369193 0.861276 -0.349143
vn -0.369193 0.861276 -0.349143
vn -0.144052 0.980148 -0.136229
vn -0.144053 0.980148 -0.136229
vn -0.144054 0.980148 -0.13623
vn -0.144053 0.980148 -0.13623
vn 0.550214 0.653084 0.520332
vn 0.550211 0.653086 0.520332
vn 0.550213 0.653086 0.520331
vn 0.550213 0.653086 0.520331
vn -0.102627 0.917374 0.384568
vn -0.245699 0.934334 0.258171
vn -0.245699 0.934334 0.258171
vn 0.689393 -3.74141e-05 -0.724387
vn 0.689393 -3.76479e-05 -0.724387
vn 0.689393 -3.76782e-05 -0.724387
vn -4.44089e-16 1 4.996e-16
vn -5.55112e-17 1 5.55112e-17
vn -0.689393 3.77539e-05 0.724387
vn -0.689393 3.76476e-05 0.724387
vn -0.689393 3.76228e-05 0.724387
vn -0.689393 3.76424e-05 0.724387
vn -0.624695 0 0.780869
vn 0.726561 6.28799e-06 0.687102
vn 0.726561 6.25069e-06 0.687102
vn 0.726561 6.32306e-06 0.687102
vn 0 1 0
vn -0.726561 -6.30575e-06 -0.687102
vn -0.726561 -6.32306e-06 -0.687102
vn -0.689393 3.76424e-05 0.724387
vn -0.689393 3.76241e-05 0.724388
vn -0.726561 -6.27237e-06 -0.687102
vn -0.726561 -6.30077e-06 -0.687102

# Mesh 'defaultobject' with 48 faces
g defaultobject
usemtl DefaultMaterial
f  1//1 2//1 3//1
f  2//1 4//2 5//2
f  4//2 2//1 6//2
f  6//2 2//1 1//1
f  6//2 1//1 7//3
f  6//2 7//3 8//2
f  6//2 8//2 9//4
f  9//4 8//2 10//5
f  9//4 10//5 11//6
f  11//6 10//5 12//7
f  13//8 14//8 15//8
f  14//8 13//8 16//9
f  16//9 13//8 17//10
f  15//11 18//11 19//11
f  18//11 15//11 20//12
f  20//12 15//11 14//13
f  20//12 14//13 16//14
f  19//15 21//15 22//15
f  21//15 19//15 18//16
f  21//15 18//16 23//17
f  23//17 18//16 20//18
f  15//19 24//19 13//19
f  25//20 24//20 26//20
f  24//20 25//20 13//21
f  22//22 15//22 19//22
f  24//23 1//23 26//23
f  1//23 24//23 15//22
f  1//23 15//22 22//22
f  1//23 22//22 12//24
f  1//25 12//25 7//25
f  7//3 12//7 8//2
f  8//26 12//25 10//26
f  16//27 23//27 20//27
f  23//27 16//27 17//28
f  23//27 17//28 5//29
f  23//27 5//29 9//30
f  9//4 5//2 4//2
f  9//31 4//31 6//31
f  22//32 11//32 12//32
f  11//32 22//32 9//33
f  9//33 22//32 23//34
f  23//35 22//35 21//35
f  17//36 2//36 5//36
f  2//36 17//36 13//37
f  13//38 3//38 2//38
f  3//38 13//38 25//39
f  25//40 1//40 3//40
f  1//40 25//40 26//41

