# {"id":"BLDG_0003000f001baad1","idOriginal":"BLDG_0003000f001baad1","origin":[13.3507745756872,52.541440559110306],"elevation":34.18}
# Longitude: 13.3507745756872
# Latitude: 52.541440559110306
# Elevation: 34.18

# File produced by Open Asset Import Library (http://www.assimp.sf.net)
# (assimp v3.1.0)

mtllib BLDG_0003000f001baad1.obj.mtl

# 43 vertex positions
v  15.6403 -6.0708e-16 9.91437
v  13.4965 1.80071e-16 -2.94078
v  20.5575 -3.73496e-16 6.09965
v  10.7231 -8.40664e-16 13.7291
v  3.68935 -2.89236e-16 4.72358
v  0 0 0
v  21.4677 5.61522e-16 -9.17035
v  30.6547 1.00115e-15 -16.3501
v  26.9426 1.2893e-15 -21.0559
v  4.90356 2.34653e-16 -3.83218
v  9.80712 4.69307e-16 -7.66436
v  17.7556 8.49669e-16 -13.8762
v  22.3491 1.06949e-15 -17.466
v  37.8074 4.45933e-16 -7.28264
v  39.9995 9.82386e-16 -16.0436
v  41.7413 6.32806e-16 -10.3345
v  33.201 2.27115e-16 -3.70907
v  28.5947 8.29686e-18 -0.135498
v  25.1396 2.76492e-16 -4.51546
v  34.3523 7.14128e-16 -11.6626
v  17.7561 22.63 -13.8769
v  21.4681 19.54 -9.17097
v  22.3496 22.63 -17.4667
v  9.8076 22.63 -7.66508
v  4.90404 22.63 -3.8329
v  13.4969 19.54 -2.9414
v  20.5579 19.54 6.09904
v  8.5934 22.63 0.890683
v  15.6408 22.63 9.91365
v  3.68977 19.54 4.72296
v  10.7235 19.54 13.7285
v  0.000416149 19.54 -0.00061879
v  37.8078 19.54 -7.28326
v  39.9999 19.54 -16.0442
v  34.3527 19.54 -11.6632
v  41.7417 19.54 -10.3351
v  26.0617 22.63 -12.7609
v  26.943 19.54 -21.0565
v  29.7465 22.63 -8.08975
v  33.2015 22.63 -3.70978
v  30.6551 19.54 -16.3507
v  25.14 19.54 -4.51608
v  28.5951 19.54 -0.136117

# 0 UV coordinates

# 76 vertex normals
vn -2.96624e-24 -1 -6.12323e-17
vn -1.1865e-23 -1 -6.12323e-17
vn 0 -1 -6.12323e-17
vn -5.23846e-24 -1 -6.12324e-17
vn 3.03013e-23 -1 -6.12323e-17
vn -1.23987e-23 -1 -6.12324e-17
vn 0 1 0
vn 5.55112e-17 -1 0
vn 1.66533e-16 -1 1.11022e-16
vn 1.11022e-16 1 2.77556e-16
vn 1.14363e-23 -1 -6.12323e-17
vn 1.30222e-23 -1 -6.12323e-17
vn -2.60445e-23 -1 -6.12324e-17
vn 8.07343e-24 -1 -6.12323e-17
vn 9.25186e-18 -1 -5.55112e-17
vn 0.282166 0.888832 0.361053
vn 0.282166 0.888832 0.361053
vn 0.282166 0.888832 0.361053
vn 0.282166 0.888832 0.361053
vn 0.350485 0.895669 -0.273746
vn 0.350485 0.895669 -0.273746
vn 0.350485 0.895669 -0.273746
vn -0.350474 0.895676 0.273738
vn -0.350474 0.895676 0.273738
vn -0.350474 0.895676 0.273738
vn -0.350475 0.895676 0.273738
vn 0.367694 0.883557 -0.290049
vn 0.367694 0.883557 -0.290049
vn 0.367694 0.883557 -0.290049
vn 0.367694 0.883557 -0.290049
vn 0.367694 0.883557 -0.290049
vn 0.367694 0.883557 -0.290049
vn -0.367683 0.883564 0.290041
vn -0.367683 0.883564 0.290041
vn -0.367683 0.883564 0.290041
vn -0.367683 0.883564 0.290041
vn -0.367683 0.883564 0.29004
vn -0.615771 -1.17038e-05 -0.787925
vn -0.615771 -1.18377e-05 -0.787925
vn -0.615771 -1.18976e-05 -0.787925
vn -0.615771 -1.17971e-05 -0.787925
vn -0.615771 -1.18136e-05 -0.787925
vn -0.615771 -1.18577e-05 -0.787925
vn -0.615771 -1.19204e-05 -0.787925
vn -0.615771 -1.1805e-05 -0.787925
vn -0.615771 -1.18879e-05 -0.787925
vn -0.615771 -1.18377e-05 -0.787925
vn 0.612962 1.19642e-05 0.790113
vn 0.612961 1.19831e-05 0.790113
vn 0.612961 1.19835e-05 0.790113
vn 0.612962 1.21005e-05 0.790113
vn 0.612962 1.21759e-05 0.790113
vn 0.612961 1.19887e-05 0.790113
vn 0.612961 1.18808e-05 0.790113
vn 0.612962 1.19881e-05 0.790113
vn 0.612962 1.19713e-05 0.790113
vn 0.785127 -3.64316e-05 -0.619335
vn 0.785127 -3.62469e-05 -0.619335
vn 0.785127 -3.63501e-05 -0.619335
vn 0.785127 -3.62945e-05 -0.619335
vn -0.785127 3.63247e-05 0.619335
vn -0.785127 3.63422e-05 0.619335
vn -0.785127 3.63205e-05 0.619335
vn -3.70074e-17 1 1.11022e-16
vn -0.788101 3.6268e-05 0.615546
vn -0.788101 3.62853e-05 0.615546
vn -0.788101 3.6271e-05 0.615546
vn -0.788101 3.62775e-05 0.615546
vn 0.788101 -3.62329e-05 -0.615546
vn 0.788101 -3.6267e-05 -0.615546
vn -0.612961 -1.19449e-05 -0.790113
vn -0.612961 -1.20221e-05 -0.790113
vn 0.956475 -2.95999e-05 -0.291814
vn 0.956475 -2.96163e-05 -0.291814
vn 0.615771 1.18293e-05 0.787925
vn 0.615771 1.18485e-05 0.787925

# Mesh 'defaultobject' with 82 faces
g defaultobject
usemtl DefaultMaterial
f  1//1 2//1 3//1
f  2//1 1//1 4//2
f  2//1 4//2 5//3
f  2//1 5//3 6//3
f  2//1 6//3 7//4
f  7//4 6//3 8//5
f  8//5 6//3 9//6
f  9//7 6//7 10//7
f  9//6 10//8 11//8
f  9//6 11//8 12//9
f  9//7 12//10 13//10
f  14//11 15//11 16//11
f  15//11 14//11 17//12
f  15//11 17//12 18//13
f  15//11 18//13 19//14
f  15//11 19//14 20//15
f  20//15 19//14 8//5
f  8//5 19//14 7//4
f  21//16 22//16 23//16
f  22//16 21//16 24//17
f  22//16 24//17 25//18
f  22//16 25//18 26//19
f  27//20 28//20 29//20
f  28//20 27//20 26//21
f  28//20 26//21 25//22
f  29//23 30//23 31//23
f  30//23 29//23 28//24
f  30//23 28//24 32//25
f  32//25 28//24 25//26
f  33//7 34//7 35//7
f  34//7 33//7 36//7
f  37//27 38//27 23//27
f  38//27 37//27 39//28
f  38//27 39//28 40//29
f  38//27 40//29 41//30
f  41//30 40//29 35//31
f  35//31 40//29 33//32
f  42//33 23//33 22//33
f  23//33 42//33 37//34
f  37//34 42//33 43//35
f  37//34 43//35 39//36
f  39//36 43//35 40//37
f  24//38 32//38 25//38
f  32//38 24//38 6//39
f  6//39 24//38 21//40
f  6//39 21//40 23//41
f  6//39 23//41 38//42
f  6//39 38//42 10//43
f  10//43 38//42 11//44
f  11//44 38//42 12//45
f  12//45 38//42 13//46
f  13//46 38//42 9//47
f  27//48 1//48 3//48
f  1//48 27//48 4//49
f  4//49 27//48 31//50
f  31//50 27//48 29//51
f  43//52 33//52 40//52
f  33//52 16//53 36//53
f  16//53 33//52 43//52
f  16//53 43//52 14//54
f  14//54 43//52 17//55
f  17//55 43//52 18//56
f  38//57 8//57 9//57
f  8//57 38//57 20//58
f  20//58 38//57 41//59
f  20//58 41//59 35//60
f  7//61 42//61 22//61
f  42//61 7//61 43//62
f  43//62 7//61 18//63
f  18//64 7//64 19//64
f  31//65 5//65 4//65
f  5//65 31//65 6//66
f  6//66 31//65 30//67
f  6//66 30//67 32//68
f  2//69 27//69 3//69
f  27//69 2//69 26//70
f  35//71 15//71 20//71
f  15//71 35//71 34//72
f  15//73 36//73 16//73
f  36//73 15//73 34//74
f  7//75 26//75 2//75
f  26//75 7//75 22//76

