# {"id":"BLDG_0003000e002f88c3","idOriginal":"BLDG_0003000e002f88c3","origin":[13.378293625506958,52.50861051814045],"elevation":34.7700004577637}
# Longitude: 13.378293625506958
# Latitude: 52.50861051814045
# Elevation: 34.7700004577637

# File produced by Open Asset Import Library (http://www.assimp.sf.net)
# (assimp v3.1.0)

mtllib BLDG_0003000e002f88c3.obj.mtl

# 62 vertex positions
v  10.2 7.85466 -17.7271
v  0.000172469 7.85466 -0.00025546
v  11.6021 7.85466 -0.720457
v  -0.36041 7.85466 -5.26792
v  -1.16103 7.85466 -16.9521
v  0.479591 23.065 6.99359
v  23.4651 23.065 -1.45733
v  0.00049695 23.065 -0.00073607
v  0.888923 23.065 12.9711
v  1.12114 23.065 12.9553
v  18.6584 23.065 11.7622
v  23.9717 23.065 5.98365
v  21.7193 23.065 11.5535
v  22.7173 23.065 11.4855
v  24.0647 23.065 11.3939
v  24.3385 23.065 11.3753
v  21.7127 35.6684 -27.2611
v  -1.16044 35.6684 -16.953
v  22.3039 35.6684 -18.5536
v  -1.98029 35.6684 -28.9098
v  21.4937 35.6684 -30.473
v  21.3564 35.6684 -32.4976
v  -2.11667 35.6684 -30.916
v  15.6387 35.6684 -32.1233
v  21.0444 35.6684 -32.4913
v  19.6988 35.6684 -32.4
v  -1.86551 35.6684 -30.9332
v  11.6024 23.1672 -0.72094
v  22.3036 23.1672 -18.5533
v  10.2003 23.1672 -17.7276
v  23.4651 23.1672 -1.45733
v  22.3031 -0.18 -18.5525
v  10.1998 -0.18 -17.7269
v  11.6019 -0.18 -0.720203
v  10.1998 1.08546e-15 -17.7269
v  11.6019 4.41001e-17 -0.720208
v  -1.1612 1.038e-15 -16.9519
v  -0.360578 3.22552e-16 -5.26767
v  4.90702e-06 4.45153e-22 -7.2699e-06
v  0 -0.23 -1.40834e-17
v  0.479094 -0.23 6.99433
v  0.888426 -0.23 12.9718
v  1.12064 -0.23 12.9561
v  18.6579 -0.23 11.763
v  21.7188 -0.23 11.5542
v  22.7168 -0.23 11.4862
v  24.0642 -0.23 11.3947
v  24.338 -0.23 11.3761
v  23.9712 -0.23 5.98439
v  23.4646 -0.23 -1.4566
v  21.712 -0.0699997 -27.26
v  22.3031 -0.0699997 -18.5525
v  21.4929 -0.0699997 -30.4719
v  21.3557 -0.0699997 -32.4964
v  21.0437 -0.0699997 -32.4902
v  19.6981 -0.0699997 -32.3989
v  15.6379 -0.0699997 -32.1221
v  -1.86627 -0.0699997 -30.9321
v  -2.11744 -0.0699997 -30.9149
v  -1.98105 -0.0699997 -28.9087
v  -1.1612 -0.0699997 -16.9519
v  23.4646 -0.18 -1.4566

# 0 UV coordinates

# 56 vertex normals
vn 0 1 -0
vn -0.0680574 -3.00915e-05 -0.997681
vn -0.996619 2.38465e-05 0.0821629
vn -0.996619 2.3848e-05 0.0821629
vn 0.996619 -2.38926e-05 -0.0821629
vn 0.996619 -2.37787e-05 -0.082163
vn -0.0680575 -3.00425e-05 -0.997681
vn -0.0680575 -3.00487e-05 -0.997681
vn -0.997661 2.3443e-05 0.0683613
vn -0.997661 2.34468e-05 0.0683613
vn -0.997665 2.34409e-05 0.0682923
vn -0.997665 2.34409e-05 0.0682923
vn 0.061957 3.02174e-05 0.998079
vn -0.997662 2.3443e-05 0.0683373
vn -0.997662 2.34423e-05 0.0683373
vn -0.997663 2.34411e-05 0.0683192
vn -0.997663 2.34424e-05 0.0683192
vn 0.0675551 3.00916e-05 0.997716
vn 0.067555 3.00914e-05 0.997716
vn 0.0678751 3.00909e-05 0.997694
vn 0.06805 3.00827e-05 0.997682
vn 0.0680497 3.00419e-05 0.997682
vn 0.0679696 3.00441e-05 0.997687
vn 0.0679706 3.0085e-05 0.997687
vn 0.0677855 3.00891e-05 0.9977
vn 0.0677847 3.00429e-05 0.9977
vn 0.0677611 3.00433e-05 0.997702
vn 0.0677651 3.00896e-05 0.997701
vn 0.997694 -2.33846e-05 -0.067868
vn 0.997694 -2.3466e-05 -0.0678677
vn 0.99769 -2.34673e-05 -0.0679261
vn -0.061957 -3.02153e-05 -0.998079
vn -0.061957 -3.0215e-05 -0.998079
vn 0.997703 -2.34377e-05 -0.0677343
vn 0.997683 -2.3448e-05 -0.0680362
vn 0.99771 -2.34362e-05 -0.067642
vn -0.0200974 -3.11594e-05 -0.999798
vn -0.0676776 -3.00812e-05 -0.997707
vn -0.0676775 -3.00776e-05 -0.997707
vn -0.0680038 -3.00718e-05 -0.997685
vn -0.0680038 -3.00736e-05 -0.997685
vn -0.0678304 -3.00752e-05 -0.997697
vn -0.0678304 -3.00759e-05 -0.997697
vn -0.0682932 -3.00641e-05 -0.997665
vn -0.0682932 -3.00643e-05 -0.997665
vn -0.997697 2.3425e-05 0.0678254
vn -0.997697 2.34283e-05 0.0678254
vn -0.997657 2.34425e-05 0.0684071
vn 0.0680574 3.00673e-05 0.997681
vn 0.061957 3.02157e-05 0.998079
vn 0.061957 3.02123e-05 0.998079
vn 0.9977 -2.34139e-05 -0.0677849
vn 0 -1 -6.12323e-17
vn -6.22218e-24 -1 -6.12323e-17
vn -1.72513e-24 -1 -6.12323e-17
vn 0 -1 0

# Mesh 'defaultobject' with 108 faces
g defaultobject
usemtl DefaultMaterial
f  1//1 2//1 3//1
f  2//1 1//1 4//1
f  4//1 1//1 5//1
f  6//1 7//1 8//1
f  7//1 6//1 9//1
f  7//1 9//1 10//1
f  7//1 10//1 11//1
f  7//1 11//1 12//1
f  12//1 11//1 13//1
f  12//1 13//1 14//1
f  12//1 14//1 15//1
f  12//1 15//1 16//1
f  17//1 18//1 19//1
f  18//1 17//1 20//1
f  20//1 17//1 21//1
f  20//1 21//1 22//1
f  20//1 22//1 23//1
f  23//1 22//1 24//1
f  24//1 22//1 25//1
f  24//1 25//1 26//1
f  23//1 24//1 27//1
f  28//1 29//1 30//1
f  29//1 28//1 31//1
f  30//2 32//2 33//2
f  32//2 30//2 29//2
f  28//3 33//3 34//3
f  33//3 28//3 30//4
f  35//5 3//5 36//5
f  3//5 35//5 1//6
f  5//7 35//7 37//7
f  35//7 5//7 1//8
f  4//9 37//9 38//9
f  37//9 4//9 5//10
f  2//11 38//11 39//11
f  38//11 2//11 4//12
f  36//13 2//13 39//13
f  2//13 36//13 3//13
f  6//14 40//14 41//14
f  40//14 6//14 8//15
f  9//16 41//16 42//16
f  41//16 9//16 6//17
f  43//18 9//18 42//18
f  9//18 43//18 10//19
f  44//20 10//20 43//20
f  10//20 44//20 11//20
f  45//21 11//21 44//21
f  11//21 45//21 13//22
f  46//23 13//23 45//23
f  13//23 46//23 14//24
f  47//25 14//25 46//25
f  14//25 47//25 15//26
f  48//27 15//27 47//27
f  15//27 48//27 16//28
f  49//29 16//29 48//29
f  16//29 49//29 12//30
f  50//31 12//31 49//31
f  12//31 50//31 7//31
f  8//32 50//32 40//32
f  50//32 8//32 7//33
f  51//34 19//34 52//34
f  19//34 51//34 17//34
f  53//35 17//35 51//35
f  17//35 53//35 21//35
f  54//36 21//36 53//36
f  21//36 54//36 22//36
f  25//37 54//37 55//37
f  54//37 25//37 22//37
f  26//38 55//38 56//38
f  55//38 26//38 25//39
f  24//40 56//40 57//40
f  56//40 24//40 26//41
f  27//42 57//42 58//42
f  57//42 27//42 24//43
f  23//44 58//44 59//44
f  58//44 23//44 27//45
f  20//46 59//46 60//46
f  59//46 20//46 23//47
f  18//48 60//48 61//48
f  60//48 18//48 20//48
f  52//49 18//49 61//49
f  18//49 52//49 19//49
f  62//50 28//50 34//50
f  28//50 62//50 31//51
f  32//52 31//52 62//52
f  31//52 32//52 29//52
f  36//53 37//53 35//53
f  37//53 36//53 38//54
f  38//54 36//53 39//55
f  50//56 41//56 40//56
f  41//56 50//56 42//56
f  42//56 50//56 43//56
f  43//56 50//56 44//56
f  44//56 50//56 45//56
f  45//56 50//56 49//56
f  45//56 49//56 46//56
f  46//56 49//56 47//56
f  47//56 49//56 48//56
f  61//56 51//56 52//56
f  51//56 61//56 53//56
f  53//56 61//56 54//56
f  54//56 61//56 55//56
f  55//56 61//56 56//56
f  56//56 61//56 57//56
f  57//56 61//56 58//56
f  58//56 61//56 60//56
f  58//56 60//56 59//56
f  34//56 32//56 62//56
f  32//56 34//56 33//56

