# {"id":"BLDG_00030000001cf0cf","idOriginal":"BLDG_00030000001cf0cf","origin":[13.361755966315439,52.5421099448227],"elevation":35.1100006103516}
# Longitude: 13.361755966315439
# Latitude: 52.5421099448227
# Elevation: 35.1100006103516

# File produced by Open Asset Import Library (http://www.assimp.sf.net)
# (assimp v3.1.0)

mtllib BLDG_00030000001cf0cf.obj.mtl

# 16 vertex positions
v  9.24781 20.6595 9.16045
v  19.2482 21.7114 -5.33483
v  7.00921 21.7114 6.94268
v  21.4868 20.6595 -3.11706
v  15.358 22.4024 -9.18872
v  3.11907 22.4024 3.08878
v  12.2394 20.6595 -12.2782
v  0.000440299 20.6595 -0.000654261
v  12.2389 7.5178e-16 -12.2775
v  21.4863 1.90825e-16 -3.1164
v  15.3575 5.62603e-16 -9.18801
v  19.2477 3.26622e-16 -5.33414
v  0 0 0
v  9.24737 -5.60956e-16 9.1611
v  3.11859 -1.89177e-16 3.08949
v  7.00875 -4.25158e-16 6.94336

# 0 UV coordinates

# 26 vertex normals
vn 0.224267 0.948538 0.223562
vn 0.224267 0.948538 0.223562
vn 0.0886643 0.992132 0.0883858
vn 0.0886643 0.992132 0.0883858
vn -0.261352 0.929419 -0.260531
vn -0.261352 0.929419 -0.260531
vn 0.703785 -3.82147e-05 -0.710413
vn 0.703785 -3.73289e-05 -0.710413
vn 0.703785 -3.7506e-05 -0.710413
vn 0.703785 -3.75339e-05 -0.710413
vn 2.22045e-17 1 2.22045e-17
vn 0 1 2.77556e-17
vn -0.703785 3.74564e-05 0.710413
vn -0.703785 3.76074e-05 0.710413
vn -0.703785 3.75339e-05 0.710413
vn -0.703785 3.7506e-05 0.710413
vn 0 -1 -5.55112e-17
vn 1.38778e-16 -1 -2.22045e-16
vn 0.708218 7.24281e-06 0.705994
vn -0.708218 -7.26428e-06 -0.705994
vn -0.708218 -7.25268e-06 -0.705994
vn -5.56522e-24 -1 -6.12323e-17
vn 0 -1 -6.12323e-17
vn 1.9382e-24 -1 -6.12323e-17
vn -0.447214 0 0.894427
vn -8.32667e-17 1 1.38778e-16

# Mesh 'defaultobject' with 28 faces
g defaultobject
usemtl DefaultMaterial
f  1//1 2//1 3//1
f  2//1 1//1 4//2
f  3//3 5//3 6//3
f  5//3 3//3 2//4
f  6//5 7//5 8//5
f  7//5 6//5 5//6
f  2//7 7//7 5//7
f  7//7 2//7 4//8
f  7//7 4//8 9//9
f  9//9 4//8 10//10
f  9//11 10//11 11//11
f  11//11 10//11 12//12
f  8//13 3//13 6//13
f  3//13 8//13 1//14
f  1//14 8//13 13//15
f  1//14 13//15 14//16
f  14//17 13//17 15//17
f  14//17 15//17 16//18
f  10//19 1//19 14//19
f  1//19 10//19 4//19
f  8//20 9//20 13//20
f  9//20 8//20 7//21
f  11//22 13//17 9//22
f  13//17 11//22 12//23
f  13//17 12//23 10//24
f  13//17 10//24 14//17
f  13//25 14//25 15//25
f  15//26 14//26 16//26

