# {"id":"BLDG_0003000f004142fc","idOriginal":"BLDG_0003000f004142fc","origin":[13.384075745445575,52.55358331315908],"elevation":40.0499992370605}
# Longitude: 13.384075745445575
# Latitude: 52.55358331315908
# Elevation: 40.0499992370605

# File produced by Open Asset Import Library (http://www.assimp.sf.net)
# (assimp v3.1.0)

mtllib BLDG_0003000f004142fc.obj.mtl

# 35 vertex positions
v  4.90384 5.44578 3.44289
v  26.1268 5.66234 18.3442
v  26.1268 5.44578 18.3442
v  4.90384 5.66234 3.44288
v  26.1266 -1.12327e-15 18.3443
v  24.5457 5.66234 20.603
v  24.5456 -1.26158e-15 20.6031
v  3.28146 5.44578 5.76066
v  24.5457 5.44578 20.603
v  22.8496 5.44578 23.026
v  22.8495 -1.40995e-15 23.0262
v  1.58529 -5.01118e-16 8.18388
v  1.5854 5.44578 8.18371
v  3.28135 -3.52749e-16 5.76084
v  0.00011623 5.44578 -0.00017259
v  5.08376 4.42348e-16 -7.22409
v  0 0 0
v  5.08387 5.44578 -7.22427
v  9.97998 5.44578 -3.80905
v  9.97986 2.33227e-16 -3.80888
v  7.44191 5.66234 -0.18309
v  4.90372 -2.10826e-16 3.44306
v  31.2488 5.66234 11.0267
v  31.2488 5.44578 11.0267
v  9.97998 5.66234 -3.80906
v  12.5361 4.56841e-16 -7.46078
v  12.5362 5.44578 -7.46095
v  33.805 5.44578 7.37483
v  33.8049 -4.51589e-16 7.375
v  31.2486 -6.75203e-16 11.0269
v  25.0452 5.66234 12.1362
v  11.0845 5.66234 2.36611
v  22.485 5.66234 20.9681
v  3.64609 5.66234 7.8186
v  6.16443 5.66234 -1.07712

# 0 UV coordinates

# 57 vertex normals
vn 0.574633 -4.34733e-05 -0.818411
vn 0.574633 -3.80391e-05 -0.818411
vn 0.819243 7.63572e-07 0.573446
vn 0.819243 6.87214e-07 0.573446
vn -0.572358 3.89703e-05 0.820004
vn 0.819243 5.62491e-07 0.573446
vn -0.572358 3.80765e-05 0.820004
vn -0.572358 3.82201e-05 0.820004
vn -0.819244 -6.73516e-07 -0.573446
vn -0.817799 -7.84706e-07 -0.575504
vn -0.817799 -7.69602e-07 -0.575504
vn 0.572106 -3.81953e-05 -0.82018
vn 0.572106 -3.8254e-05 -0.820179
vn 0.819243 1.98992e-06 0.573446
vn -0.574633 3.82182e-05 0.818411
vn -0.574633 3.82019e-05 0.818411
vn -0.572106 4.03989e-05 0.820179
vn -0.572106 3.62632e-05 0.82018
vn -0.819243 -7.71908e-07 -0.573446
vn -0.819243 -6.7352e-07 -0.573446
vn 0.572106 -3.78177e-05 -0.82018
vn 0.572106 -3.82499e-05 -0.82018
vn 0.819243 7.93446e-07 0.573446
vn 0.819244 9.82142e-07 0.573446
vn 0.819243 7.84248e-07 0.573446
vn 0.819243 1.01952e-06 0.573446
vn -0.819243 -6.73519e-07 -0.573446
vn -0.819243 -6.58076e-07 -0.573446
vn 3.66379e-24 -1 -6.12323e-17
vn 0 -1 -6.12323e-17
vn -1.82848e-24 -1 -6.12323e-17
vn 0 -1 -6.12323e-17
vn 1.18468e-23 -1 -6.12323e-17
vn -1.38048e-23 -1 -6.12323e-17
vn -8.28286e-24 -1 -6.12323e-17
vn 0 -1 -6.12323e-17
vn 0.0277616 0.998822 -0.0397994
vn 0.0277616 0.998822 -0.0397994
vn 0.0398578 0.998816 0.0278993
vn -0.027771 0.998826 0.0396823
vn -0.0280397 0.998809 0.0399351
vn -0.0398578 0.998816 -0.0278993
vn 0.0279165 0.998809 -0.0400215
vn 0.0277711 0.998826 -0.0396825
vn -0.0438577 0.997083 0.0624636
vn -0.00684145 0.999965 -0.00478881
vn 0.118705 0.989447 0.0830902
vn -0.0829324 0.989447 0.118815
vn -0.0829323 0.989447 0.118815
vn -0.118706 0.989447 -0.0830903
vn 0.0829333 0.989447 -0.118816
vn 0.0829332 0.989447 -0.118816
vn -0.0400085 0.998803 -0.0281549
vn 0.0280798 0.9988 -0.0401234
vn 0.0279596 0.998805 -0.0400833
vn -0.028083 0.998805 0.0399968
vn -0.0280797 0.9988 0.0401233

# Mesh 'defaultobject' with 61 faces
g defaultobject
usemtl DefaultMaterial
f  1//1 2//1 3//1
f  2//1 1//1 4//2
f  5//3 6//3 7//3
f  6//3 5//3 2//4
f  6//5 8//5 9//5
f  7//3 10//6 11//6
f  10//6 7//3 9//6
f  10//7 12//7 11//7
f  12//7 10//7 13//8
f  13//9 14//9 12//9
f  14//9 13//9 8//9
f  15//10 16//10 17//10
f  16//10 15//10 18//11
f  16//12 19//12 20//12
f  19//12 16//12 18//13
f  1//14 19//14 21//14
f  1//15 17//15 22//15
f  17//15 1//15 15//16
f  23//17 19//17 24//17
f  19//17 23//17 25//18
f  25//19 26//19 20//19
f  26//19 25//19 27//20
f  26//21 28//21 29//21
f  28//21 26//21 27//22
f  29//23 23//23 30//23
f  23//23 29//23 28//24
f  30//23 3//25 5//3
f  3//25 30//23 24//26
f  8//9 22//27 14//9
f  22//27 8//9 4//28
f  26//29 30//29 20//29
f  30//29 26//29 29//30
f  22//31 30//29 5//31
f  30//29 22//31 20//29
f  5//31 14//32 22//31
f  14//32 5//31 7//33
f  11//34 14//32 7//33
f  14//32 11//34 12//35
f  16//36 22//31 17//36
f  22//31 16//36 20//29
f  27//37 23//37 28//37
f  23//37 27//37 25//38
f  3//39 24//39 31//39
f  32//40 3//40 31//40
f  3//41 32//41 1//41
f  32//42 19//42 1//42
f  32//43 24//43 19//43
f  24//44 32//44 31//44
f  4//45 8//45 2//45
f  2//46 8//46 6//46
f  10//47 9//47 33//47
f  34//48 10//48 33//48
f  10//48 34//48 13//49
f  34//50 8//50 13//50
f  34//51 9//51 8//51
f  9//51 34//51 33//52
f  35//53 18//53 15//53
f  21//54 18//54 35//54
f  18//55 21//55 19//55
f  21//56 15//56 1//56
f  15//57 21//57 35//57

