# {"id":"BLDG_0003000000189a35","idOriginal":"BLDG_0003000000189a35","origin":[13.396953035044914,52.531454979652686],"elevation":35.7900009155273}
# Longitude: 13.396953035044914
# Latitude: 52.531454979652686
# Elevation: 35.7900009155273

# File produced by Open Asset Import Library (http://www.assimp.sf.net)
# (assimp v3.1.0)

mtllib BLDG_0003000000189a35.obj.mtl

# 10 vertex positions
v  0.037162 6.06769 4.51674
v  0 0 0
v  0.0370324 -2.76582e-16 4.51693
v  0.000129603 6.06769 -0.000192011
v  8.52605 -2.61434e-16 4.26955
v  8.52618 6.06769 4.26936
v  8.46382 1.12532e-17 -0.183778
v  8.46395 6.06769 -0.18397
v  6.73736 6.06769 -0.146027
v  6.73724 8.92979e-18 -0.145835

# 0 UV coordinates

# 13 vertex normals
vn -0.999966 2.16178e-05 0.0081983
vn -0.999966 2.16183e-05 0.0081983
vn 0.029129 3.09575e-05 0.999576
vn 0.029129 3.10408e-05 0.999576
vn 0.999902 -2.16592e-05 -0.0139736
vn 0.999902 -2.18169e-05 -0.0139733
vn -0.0219707 -3.11685e-05 -0.999759
vn -0.021641 -3.11752e-05 -0.999766
vn -0.021641 -3.11757e-05 -0.999766
vn 0 1 0
vn 2.76061e-24 -1 -6.12323e-17
vn 0 -1 -6.12323e-17
vn 0 -1 -6.12323e-17

# Mesh 'defaultobject' with 16 faces
g defaultobject
usemtl DefaultMaterial
f  1//1 2//1 3//1
f  2//1 1//1 4//2
f  5//3 1//3 3//3
f  1//3 5//3 6//4
f  7//5 6//5 5//5
f  6//5 7//5 8//6
f  9//7 7//7 10//7
f  7//7 9//7 8//7
f  4//8 10//8 2//8
f  10//8 4//8 9//9
f  1//10 9//10 4//10
f  9//10 1//10 6//10
f  9//10 6//10 8//10
f  2//11 5//11 3//11
f  5//11 2//11 10//12
f  5//11 10//12 7//13

