# {"id":"BLDG_0003000f001c2501","idOriginal":"BLDG_0003000f001c2501","origin":[13.397989539657233,52.52635733042968],"elevation":35.3199996948242}
# Longitude: 13.397989539657233
# Latitude: 52.52635733042968
# Elevation: 35.3199996948242

# File produced by Open Asset Import Library (http://www.assimp.sf.net)
# (assimp v3.1.0)

mtllib BLDG_0003000f001c2501.obj.mtl

# 38 vertex positions
v  25.6633 12.1741 1.40049
v  17.8904 12.1741 -1.89167
v  19.2159 12.1741 3.16031
v  24.3487 12.1741 -3.61003
v  0.000572036 26.7799 -0.00084716
v  0.686125 26.7799 2.68554
v  1.68304 26.9877 0.985884
v  7.38133 26.9877 -0.530272
v  8.38716 26.7799 -2.23228
v  9.05487 26.7799 0.458845
v  19.216 19.3505 3.16008
v  9.05484 25.2516 0.458894
v  10.327 25.2516 5.58619
v  17.8906 19.3505 -1.8919
v  0.685966 19.3505 2.68577
v  2.0058 19.3505 7.85762
v  18.1787 25.2516 37.2309
v  27.6045 19.3505 35.1331
v  27.1087 25.2516 73.2218
v  37.0188 19.3505 71.0162
v  9.96815 19.3505 39.0586
v  19.1392 19.3505 74.9958
v  24.3484 2.21027e-16 -3.60965
v  17.8902 1.15808e-16 -1.89128
v  25.663 -8.57788e-17 1.40087
v  19.2156 -1.93537e-16 3.16069
v  0 0 0
v  0.685552 -1.64493e-16 2.68638
v  8.38658 1.36636e-16 -2.23143
v  9.0543 -2.8148e-17 0.459692
v  2.00538 -4.81178e-16 7.85823
v  27.6041 -2.15132e-15 35.1337
v  37.0184 -4.34852e-15 71.0168
v  27.1081 -4.48359e-15 73.2226
v  9.96773 -2.39169e-15 39.0592
v  19.1388 -4.59221e-15 74.9965
v  10.3265 -3.42104e-16 5.58698
v  18.1781 -2.27979e-15 37.2317

# 0 UV coordinates

# 54 vertex normals
vn 0 1 0
vn -0.14362 0.988954 0.0366511
vn -0.0381137 0.988953 -0.143246
vn -0.0381137 0.988953 -0.143246
vn 0.143874 0.988952 -0.0356978
vn 0.0381135 0.988953 0.143245
vn 0.0381134 0.988953 0.143245
vn 0.523544 0.842038 -0.129901
vn 0.524527 0.840199 -0.137615
vn -0.546589 0.826346 0.135619
vn -0.547157 0.825301 0.139632
vn 0.504635 0.853121 -0.132396
vn 0.523544 0.842038 -0.129901
vn 0.486326 0.864412 -0.127593
vn 0.506208 0.853217 -0.1256
vn -0.548123 0.825266 0.136
vn -0.556657 0.818506 0.142056
vn -0.556657 0.818506 0.142056
vn -0.568651 0.810388 0.141093
vn -0.257126 -2.50957e-05 -0.966378
vn -0.257126 -2.50862e-05 -0.966378
vn 0.967264 -2.86422e-05 -0.253772
vn 0.263318 2.48609e-05 0.964709
vn 0.263318 2.49078e-05 0.964709
vn -0.968946 2.85208e-05 0.247271
vn -0.968946 2.85195e-05 0.247271
vn -0.257126 -2.50782e-05 -0.966378
vn -0.257126 -2.50831e-05 -0.966378
vn 0.970571 -2.832e-05 -0.240817
vn 0.970571 -2.83585e-05 -0.240816
vn 0.257126 2.49914e-05 0.966378
vn 0.257126 2.49319e-05 0.966378
vn -0.257126 -2.50842e-05 -0.966378
vn -0.257126 -2.51022e-05 -0.966378
vn 0.967264 -2.86111e-05 -0.253772
vn 0.967264 -2.85984e-05 -0.253772
vn -0.968946 2.85189e-05 0.247271
vn -0.968946 2.8522e-05 0.247271
vn 0.967264 -2.86744e-05 -0.253772
vn 0.967264 -2.86107e-05 -0.253772
vn 0.217265 2.63217e-05 0.976113
vn 0.217265 2.61645e-05 0.976113
vn -0.968946 2.85255e-05 0.247271
vn 0.217265 2.65243e-05 0.976113
vn -0.968946 2.8622e-05 0.247271
vn 0 -1 -6.12323e-17
vn 3.03339e-24 -1 -6.12323e-17
vn -1.08786e-24 -1 -6.12323e-17
vn 2.30006e-24 -1 -6.12323e-17
vn -2.15287e-23 -1 -6.12323e-17
vn -2.12951e-23 -1 -6.12323e-17
vn -6.75148e-24 -1 -6.12323e-17
vn 2.16265e-23 -1 -6.12323e-17
vn 2.93851e-23 -1 -6.12323e-17

# Mesh 'defaultobject' with 68 faces
g defaultobject
usemtl DefaultMaterial
f  1//1 2//1 3//1
f  2//1 1//1 4//1
f  5//2 6//2 7//2
f  8//3 5//3 7//3
f  5//3 8//3 9//4
f  8//5 10//5 9//5
f  8//6 6//6 10//6
f  6//6 8//6 7//7
f  11//8 12//8 13//8
f  12//9 11//9 14//9
f  15//10 13//10 12//10
f  13//11 15//11 16//11
f  11//12 17//12 18//12
f  17//13 11//8 13//8
f  18//14 19//14 20//14
f  19//15 18//15 17//15
f  16//16 17//16 13//16
f  17//17 16//17 21//17
f  22//18 17//17 21//17
f  17//19 22//19 19//19
f  2//20 23//20 24//20
f  23//20 2//20 4//21
f  23//22 1//22 25//22
f  1//22 23//22 4//22
f  25//23 3//23 26//23
f  3//23 25//23 1//24
f  6//25 27//25 28//25
f  27//25 6//25 5//26
f  5//27 29//27 27//27
f  29//27 5//27 9//28
f  29//29 10//29 30//29
f  10//29 29//29 9//30
f  12//31 6//31 15//31
f  6//31 12//31 10//32
f  12//33 24//20 30//33
f  24//20 12//33 14//34
f  2//35 11//35 3//35
f  11//35 2//35 14//36
f  16//37 28//25 31//37
f  28//25 16//37 15//38
f  26//39 18//39 32//39
f  18//39 26//39 11//35
f  32//39 20//40 33//40
f  20//40 32//39 18//39
f  33//41 19//41 34//41
f  19//41 33//41 20//42
f  21//43 31//37 35//43
f  31//37 21//43 16//37
f  34//41 22//44 36//44
f  22//44 34//41 19//41
f  22//45 35//43 36//45
f  35//43 22//45 21//43
f  25//46 24//46 23//46
f  24//46 25//46 26//47
f  27//46 30//46 28//46
f  30//46 27//46 29//46
f  30//46 26//47 37//48
f  26//47 30//46 24//46
f  37//48 28//46 30//46
f  28//46 37//48 31//49
f  37//48 32//50 38//50
f  32//50 37//48 26//47
f  32//50 34//51 38//50
f  34//51 32//50 33//52
f  35//53 37//48 38//50
f  37//48 35//53 31//49
f  36//54 38//50 34//51
f  38//50 36//54 35//53

