# {"id":"BLDG_00030009007f902a","idOriginal":"BLDG_00030009007f902a","origin":[13.372044285757887,52.55521119889235],"elevation":39.4199981689453}
# Longitude: 13.372044285757887
# Latitude: 52.55521119889235
# Elevation: 39.4199981689453

# File produced by Open Asset Import Library (http://www.assimp.sf.net)
# (assimp v3.1.0)

mtllib BLDG_00030009007f902a.obj.mtl

# 26 vertex positions
v  17.9265 4.84667 7.89552
v  13.9502 4.84667 0.527328
v  11.7561 4.84667 5.17819
v  19.9575 4.84667 3.11858
v  13.9505 21.2028 0.52681
v  0.00045539 21.2028 -0.00067679
v  11.7565 21.2028 5.17767
v  5.16435 21.2028 -11.9344
v  17.067 21.2028 -6.86323
v  18.2584 21.2028 -9.6893
v  6.40356 21.2028 -14.7716
v  18.6029 21.2028 -10.5057
v  6.84809 21.2028 -15.649
v  18.258 -0.149998 -9.68862
v  17.0666 -0.149998 -6.86256
v  18.6025 -0.149998 -10.5051
v  6.84763 -0.149998 -15.6483
v  6.40311 -0.149998 -14.7709
v  5.1639 -0.149998 -11.9337
v  0 -0.149998 -9.18471e-18
v  11.756 -0.149998 5.17835
v  13.9501 -0.149998 0.527486
v  17.9264 -4.83471e-16 7.89567
v  11.756 -3.17082e-16 5.17834
v  19.9574 -1.90967e-16 3.11874
v  13.9501 -3.22989e-17 0.527482

# 0 UV coordinates

# 28 vertex normals
vn 0 1 0
vn 0.921463 -7.27769e-06 0.388465
vn 0.921463 -7.35414e-06 0.388466
vn 0.92134 -7.34127e-06 0.388758
vn 0.400851 -3.76001e-05 -0.916143
vn 0.400851 -3.7609e-05 -0.916143
vn -0.892045 4.71284e-06 -0.451947
vn -0.892045 4.69268e-06 -0.451947
vn -0.916402 6.85119e-06 -0.400259
vn -0.916402 6.86906e-06 -0.400259
vn -0.917762 6.98577e-06 -0.39713
vn -0.917762 6.97939e-06 -0.39713
vn -0.40311 3.76049e-05 0.915151
vn -0.40311 3.76327e-05 0.915151
vn 0.904411 -5.78431e-06 0.426662
vn 0.904411 -5.74957e-06 0.426662
vn -0.403035 3.75316e-05 0.915185
vn 0.92027 -7.16447e-06 0.391284
vn 0.92027 -7.50564e-06 0.391284
vn 0.396072 -3.75286e-05 -0.91822
vn 0.396072 -3.7707e-05 -0.91822
vn -0.904411 5.70312e-06 -0.426662
vn -0.904411 5.69263e-06 -0.426662
vn 0.921416 -7.30613e-06 0.388577
vn 0.921416 -7.27272e-06 0.388577
vn -3.782e-24 -1 -6.12324e-17
vn 0 -1 -6.12323e-17
vn 0 -1 -0

# Mesh 'defaultobject' with 44 faces
g defaultobject
usemtl DefaultMaterial
f  1//1 2//1 3//1
f  2//1 1//1 4//1
f  5//1 6//1 7//1
f  6//1 5//1 8//1
f  8//1 5//1 9//1
f  8//1 9//1 10//1
f  8//1 10//1 11//1
f  11//1 10//1 12//1
f  11//1 12//1 13//1
f  14//2 9//2 15//2
f  9//2 14//2 10//3
f  16//4 10//4 14//4
f  10//4 16//4 12//4
f  13//5 16//5 17//5
f  16//5 13//5 12//6
f  11//7 17//7 18//7
f  17//7 11//7 13//8
f  8//9 18//9 19//9
f  18//9 8//9 11//10
f  6//11 19//11 20//11
f  19//11 6//11 8//12
f  21//13 6//13 20//13
f  6//13 21//13 7//14
f  22//15 7//15 21//15
f  7//15 22//15 5//16
f  23//17 3//17 24//17
f  3//17 23//17 1//17
f  25//18 1//18 23//18
f  1//18 25//18 4//19
f  2//20 25//20 26//20
f  25//20 2//20 4//21
f  3//22 26//22 24//22
f  26//22 3//22 2//23
f  15//24 5//24 22//24
f  5//24 15//24 9//25
f  24//26 25//26 23//26
f  25//26 24//26 26//27
f  14//28 17//28 16//28
f  17//28 14//28 15//28
f  17//28 15//28 22//28
f  17//28 22//28 21//28
f  17//28 21//28 18//28
f  18//28 21//28 19//28
f  19//28 21//28 20//28

