# {"id":"BLDG_0003000f0003e83f","idOriginal":"BLDG_0003000f0003e83f","origin":[13.367739892897522,52.5034003208371],"elevation":34.3899993896484}
# Longitude: 13.367739892897522
# Latitude: 52.5034003208371
# Elevation: 34.3899993896484

# File produced by Open Asset Import Library (http://www.assimp.sf.net)
# (assimp v3.1.0)

mtllib BLDG_0003000f0003e83f.obj.mtl

# 8 vertex positions
v  3.5292 -1.44081e-16 2.35302
v  9.7755e-05 4.58547 -0.00014484
v  0 0 0
v  3.52929 4.58547 2.35287
v  9.21527 3.78068e-16 -6.17432
v  9.21536 4.58547 -6.17447
v  5.68617 4.58547 -8.52748
v  5.68607 5.22149e-16 -8.52734

# 0 UV coordinates

# 10 vertex normals
vn -0.554736 3.81467e-05 0.832026
vn -0.554736 3.80977e-05 0.832026
vn 0.831997 -2.43504e-07 0.55478
vn 0.831998 -8.1168e-08 0.554779
vn 0.554736 -3.78975e-05 -0.832026
vn 0.554736 -3.80705e-05 -0.832027
vn -0.831997 2.13175e-07 -0.55478
vn -0.831997 2.27116e-07 -0.55478
vn 0 -1 -6.12323e-17
vn 0 1 0

# Mesh 'defaultobject' with 12 faces
g defaultobject
usemtl DefaultMaterial
f  1//1 2//1 3//1
f  2//1 1//1 4//2
f  5//3 4//3 1//3
f  4//3 5//3 6//4
f  7//5 5//5 8//5
f  5//5 7//5 6//6
f  2//7 8//7 3//7
f  8//7 2//7 7//8
f  1//9 8//9 5//9
f  8//9 1//9 3//9
f  4//10 7//10 2//10
f  7//10 4//10 6//10

