# {"id":"BLDG_0003000f00414263","idOriginal":"BLDG_0003000f00414263","origin":[13.381795578700865,52.55392502026492],"elevation":39.689998626709}
# Longitude: 13.381795578700865
# Latitude: 52.55392502026492
# Elevation: 39.689998626709

# File produced by Open Asset Import Library (http://www.assimp.sf.net)
# (assimp v3.1.0)

mtllib BLDG_0003000f00414263.obj.mtl

# 10 vertex positions
v  12.4584 20.8312 8.8351
v  0 0 0
v  12.4579 -5.41034e-16 8.83576
v  0.000444541 20.8312 -0.000660201
v  6.22944 22.378 4.41717
v  13.8183 1.17154e-15 -19.1326
v  13.8188 20.8312 -19.1333
v  26.2763 6.30502e-16 -10.2969
v  26.2767 20.8312 -10.2975
v  20.0478 22.378 -14.7155

# 0 UV coordinates

# 12 vertex normals
vn -0.578514 3.81828e-05 0.815672
vn -0.578514 3.81965e-05 0.815672
vn -0.578514 3.81092e-05 0.815672
vn -0.810673 -1.25629e-06 -0.5855
vn -0.810673 -1.25405e-06 -0.5855
vn 0.578514 -3.81828e-05 -0.815672
vn 0.578514 -3.84322e-05 -0.815672
vn 0.810673 1.24147e-06 0.5855
vn 0 -1 -6.12323e-17
vn -9.39976e-24 -1 -6.12323e-17
vn -0.160932 0.980097 -0.116232
vn 0.160932 0.980098 0.116231

# Mesh 'defaultobject' with 16 faces
g defaultobject
usemtl DefaultMaterial
f  1//1 2//1 3//1
f  2//1 1//1 4//2
f  4//2 1//1 5//3
f  4//4 6//4 2//4
f  6//4 4//4 7//5
f  7//6 8//6 6//6
f  8//6 7//6 9//6
f  9//6 7//6 10//7
f  8//8 1//8 3//8
f  1//8 8//8 9//8
f  6//9 3//9 2//9
f  3//9 6//9 8//10
f  7//11 5//11 10//11
f  5//11 7//11 4//11
f  10//12 1//12 9//12
f  1//12 10//12 5//12

