# {"id":"BLDG_0003000e0047ae33","idOriginal":"BLDG_0003000e0047ae33","origin":[13.349643780751755,52.561817088849466],"elevation":38.8400001525879}
# Longitude: 13.349643780751755
# Latitude: 52.561817088849466
# Elevation: 38.8400001525879

# File produced by Open Asset Import Library (http://www.assimp.sf.net)
# (assimp v3.1.0)

mtllib BLDG_0003000e0047ae33.obj.mtl

# 36 vertex positions
v  1.113 12.7039 4.19237
v  0 0 0
v  1.11273 -2.56733e-16 4.19277
v  0.000270553 12.7039 -0.00040285
v  2.16933 12.7039 8.17427
v  2.16906 -5.00554e-16 8.17467
v  12.5293 12.7039 5.70459
v  11.9591 -2.17524e-16 3.55243
v  11.9594 12.7039 3.55203
v  12.529 -3.4933e-16 5.70499
v  12.5541 -2.07931e-16 3.39577
v  12.5544 12.7039 3.39537
v  10.8956 1.76068e-16 -2.87541
v  10.8959 12.7039 -2.87581
v  4.22774 12.7039 -1.11583
v  4.22747 6.83e-17 -1.11542
v  2.66027 12.7039 10.0205
v  2.66 -6.13602e-16 10.0209
v  5.01377 12.7039 18.8936
v  5.0135 -1.15693e-15 18.8941
v  6.55819 12.7039 24.7115
v  6.55792 -1.51317e-15 24.7119
v  7.67891 12.7039 28.9335
v  7.67864 -1.77169e-15 28.934
v  18.5771 -1.60218e-15 26.1656
v  18.5774 12.7039 26.1652
v  16.9654 -1.22896e-15 20.0704
v  16.9656 12.7039 20.07
v  16.3706 12.7039 20.2267
v  16.3704 -1.23855e-15 20.2271
v  15.8124 -1.10951e-15 18.1196
v  15.8127 12.7039 18.1192
v  16.4074 -1.09985e-15 17.9619
v  16.4077 12.7039 17.9615
v  13.1234 -3.39681e-16 5.54741
v  13.1237 12.7039 5.547

# 0 UV coordinates

# 49 vertex normals
vn -0.966541 2.8724e-05 0.256513
vn -0.966541 2.87185e-05 0.256513
vn -0.966567 2.86936e-05 0.256413
vn -0.966567 2.87214e-05 0.256413
vn 0.966689 -2.86516e-05 -0.255954
vn 0.966689 -2.87275e-05 -0.255954
vn 0.254625 2.52432e-05 0.96704
vn 0.254626 2.52623e-05 0.96704
vn 0.966765 -2.87119e-05 -0.255668
vn -0.255199 -2.52264e-05 -0.966888
vn -0.255199 -2.52259e-05 -0.966888
vn -0.25512 -2.52282e-05 -0.966909
vn -0.25512 -2.52287e-05 -0.966909
vn -0.966415 2.87268e-05 0.256988
vn -0.966415 2.87086e-05 0.256988
vn -0.966578 2.87311e-05 0.256373
vn -0.966578 2.87108e-05 0.256373
vn -0.966524 2.86979e-05 0.256575
vn -0.966524 2.87364e-05 0.256575
vn -0.966529 2.87722e-05 0.256559
vn -0.966529 2.86975e-05 0.256559
vn 0.246198 2.54491e-05 0.969219
vn 0.246198 2.5596e-05 0.969219
vn 0.96677 -2.8565e-05 -0.255647
vn 0.96677 -2.87079e-05 -0.255647
vn -0.254624 -2.52067e-05 -0.96704
vn -0.254625 -2.52449e-05 -0.96704
vn 0.966691 -2.8718e-05 -0.255946
vn 0.256238 2.51589e-05 0.966614
vn 0.966748 -2.86213e-05 -0.25573
vn 0.966748 -2.86915e-05 -0.25573
vn -0.256272 -2.5194e-05 -0.966605
vn -0.256272 -2.52132e-05 -0.966605
vn 0 -1 -6.12323e-17
vn -5.87898e-24 -1 -6.12323e-17
vn 0 -1 -6.12323e-17
vn 1.47491e-23 -1 -6.12323e-17
vn 1.63792e-23 -1 -6.12323e-17
vn 0 -1 -6.12323e-17
vn -2.81873e-23 -1 -6.12323e-17
vn -5.28552e-23 -1 -6.12324e-17
vn -7.15216e-23 -1 -6.12324e-17
vn 0 -1 -6.12324e-17
vn 6.31759e-24 -1 -6.12323e-17
vn 2.34406e-23 -1 -6.12323e-17
vn 1.59522e-23 -1 -6.12323e-17
vn 5.97939e-24 -1 -6.12323e-17
vn 1.63773e-22 -1 -6.12324e-17
vn 0 1 0

# Mesh 'defaultobject' with 68 faces
g defaultobject
usemtl DefaultMaterial
f  1//1 2//1 3//1
f  2//1 1//1 4//2
f  5//3 3//3 6//3
f  3//3 5//3 1//4
f  7//5 8//5 9//5
f  8//5 7//5 10//6
f  9//7 11//7 12//7
f  11//7 9//7 8//8
f  12//9 13//9 14//9
f  13//9 12//9 11//9
f  15//10 13//10 16//10
f  13//10 15//10 14//11
f  4//12 16//12 2//12
f  16//12 4//12 15//13
f  17//14 6//14 18//14
f  6//14 17//14 5//15
f  19//16 18//16 20//16
f  18//16 19//16 17//17
f  21//18 20//18 22//18
f  20//18 21//18 19//19
f  23//20 22//20 24//20
f  22//20 23//20 21//21
f  23//22 25//22 26//22
f  25//22 23//22 24//23
f  26//24 27//24 28//24
f  27//24 26//24 25//25
f  29//26 27//26 30//26
f  27//26 29//26 28//27
f  29//28 31//28 32//28
f  31//28 29//28 30//28
f  32//29 33//29 34//29
f  33//29 32//29 31//29
f  34//30 35//30 36//30
f  35//30 34//30 33//31
f  7//32 35//32 10//32
f  35//32 7//32 36//33
f  16//34 3//34 2//34
f  3//34 16//34 6//35
f  6//35 16//34 13//36
f  6//35 13//36 18//37
f  18//37 13//36 20//38
f  20//38 13//36 8//39
f  8//39 13//36 11//40
f  8//39 22//41 20//38
f  22//41 8//39 10//42
f  22//41 10//42 35//43
f  22//41 35//43 31//44
f  31//44 35//43 33//45
f  22//41 31//44 24//46
f  24//46 30//47 25//47
f  30//47 24//46 31//44
f  25//47 30//47 27//48
f  23//49 32//49 21//49
f  32//49 23//49 29//49
f  29//49 23//49 28//49
f  28//49 23//49 26//49
f  19//49 9//49 17//49
f  9//49 19//49 7//49
f  7//49 19//49 36//49
f  36//49 19//49 34//49
f  34//49 19//49 32//49
f  32//49 19//49 21//49
f  1//49 15//49 4//49
f  15//49 1//49 14//49
f  14//49 1//49 5//49
f  14//49 5//49 9//49
f  14//49 9//49 12//49
f  9//49 5//49 17//49

