# {"id":"BLDG_00030000001f0bdc","idOriginal":"BLDG_00030000001f0bdc","origin":[13.38032992699402,52.55138581930927],"elevation":39.8499984741211}
# Longitude: 13.38032992699402
# Latitude: 52.55138581930927
# Elevation: 39.8499984741211

# File produced by Open Asset Import Library (http://www.assimp.sf.net)
# (assimp v3.1.0)

mtllib BLDG_00030000001f0bdc.obj.mtl

# 22 vertex positions
v  20.272 20.2494 1.57414
v  21.9747 23.0793 -4.93883
v  17.8346 20.2494 -0.874583
v  24.4112 23.0793 -2.49092
v  20.1724 22.0101 -6.74949
v  16.0323 22.0101 -2.68533
v  15.7109 23.0437 -11.2318
v  11.5709 23.0437 -7.16766
v  13.6007 20.2494 -13.3517
v  9.46066 20.2494 -9.28753
v  8.38268 20.2494 8.40416
v  6.57865 22.0101 6.59518
v  2.11271 23.0437 2.11717
v  0.000432081 20.2494 -0.000641651
v  21.9742 3.02371e-16 -4.9381
v  24.4107 1.5248e-16 -2.49019
v  20.2715 -9.64273e-17 1.57478
v  17.8342 5.35135e-17 -0.873942
v  13.6002 8.17516e-16 -13.3511
v  9.46022 5.68658e-16 -9.28689
v  8.38225 -5.14646e-16 8.4048
v  0 0 0

# 0 UV coordinates

# 31 vertex normals
vn -0.310726 0.898772 0.309286
vn -0.310726 0.898772 0.309285
vn -0.538011 0.842068 0.0382769
vn 0.397534 0.823394 0.404954
vn 0.112996 0.986906 0.115105
vn 0.112996 0.986906 0.115105
vn -0.478231 0.730735 -0.487157
vn -0.478231 0.730735 -0.487157
vn 0.397537 0.823393 0.404956
vn 0.112995 0.986906 0.115104
vn -0.478233 0.730732 -0.487159
vn 0.708748 -3.7465e-05 -0.705462
vn 0.708748 -3.75129e-05 -0.705462
vn 0.700679 7.69589e-06 0.713476
vn 0.700679 7.66394e-06 0.713476
vn -0.708748 3.74395e-05 0.705462
vn -0.708748 3.74416e-05 0.705462
vn -0.700539 -7.67286e-06 -0.713614
vn 0.708748 -3.75713e-05 -0.705462
vn 0.708748 -3.74812e-05 -0.705462
vn 0.700539 7.68043e-06 0.713614
vn 0.700539 7.70887e-06 0.713614
vn -0.708056 3.74884e-05 0.706156
vn -0.708056 3.74848e-05 0.706156
vn -0.708056 3.76e-05 0.706156
vn -0.708056 3.7479e-05 0.706156
vn -0.700539 -7.66449e-06 -0.713614
vn 5.28419e-24 -1 -6.12323e-17
vn 0 -1 -6.12323e-17
vn -3.07508e-24 -1 -6.12323e-17
vn -5.38763e-24 -1 -6.12323e-17

# Mesh 'defaultobject' with 40 faces
g defaultobject
usemtl DefaultMaterial
f  1//1 2//1 3//1
f  2//1 1//1 4//2
f  2//3 5//3 3//3
f  5//4 6//4 3//4
f  6//5 7//5 8//5
f  7//5 6//5 5//6
f  8//7 9//7 10//7
f  9//7 8//7 7//8
f  11//9 6//4 12//9
f  6//4 11//9 3//4
f  12//10 8//5 13//10
f  8//5 12//10 6//5
f  13//11 10//7 14//11
f  10//7 13//11 8//7
f  15//12 4//12 16//12
f  4//12 15//12 2//13
f  16//14 1//14 17//14
f  1//14 16//14 4//15
f  1//16 18//16 17//16
f  18//16 1//16 3//17
f  10//18 19//18 20//18
f  19//18 10//18 9//18
f  7//19 5//19 9//19
f  9//19 15//12 19//20
f  15//12 9//19 5//19
f  15//12 5//19 2//13
f  18//21 11//21 21//21
f  11//21 18//21 3//22
f  11//23 22//23 21//23
f  22//23 11//23 14//24
f  14//24 11//23 12//25
f  14//24 12//25 13//26
f  14//27 20//18 22//27
f  20//18 14//27 10//18
f  17//28 15//28 16//28
f  15//28 17//28 18//29
f  19//30 18//29 20//30
f  18//29 19//30 15//28
f  21//31 20//30 18//29
f  20//30 21//31 22//29

