# {"id":"BLDG_0003000e009c17d8","idOriginal":"BLDG_0003000e009c17d8","origin":[13.364919595155788,52.50488749515257],"elevation":33.5800018310547}
# Longitude: 13.364919595155788
# Latitude: 52.50488749515257
# Elevation: 33.5800018310547

# File produced by Open Asset Import Library (http://www.assimp.sf.net)
# (assimp v3.1.0)

mtllib BLDG_0003000e009c17d8.obj.mtl

# 44 vertex positions
v  -6.30138 20.002 -16.6069
v  -1.25271 8.65749e-16 -14.1388
v  -6.30181 1.01684e-15 -16.6063
v  6.13033 6.44815e-16 -10.5306
v  9.75869 5.36238e-16 -8.75743
v  -1.25229 20.002 -14.1394
v  6.13076 20.002 -10.5313
v  9.75911 20.002 -8.75806
v  -10.501 20.002 -9.39289
v  -12.9378 20.002 -5.20701
v  -12.9382 3.18798e-16 -5.20637
v  -10.5014 5.7511e-16 -9.39225
v  5.66656 9.12896e-17 -1.49087
v  1.93121 22.4174 -3.3173
v  1.93073 -1.83105e-06 -3.31659
v  5.66704 22.4174 -1.49158
v  0.00047787 22.42 -0.00070825
v  -7.68358 1.89324e-16 -3.0919
v  0 -1.83105e-06 -1.1212e-22
v  -7.6831 22.4174 -3.09261
v  -7.6831 22.42 -3.09261
v  1.93121 22.42 -3.3173
v  16.2748 22.0521 -20.3284
v  21.446 20.1001 -29.5121
v  18.8604 22.0521 -24.9202
v  9.83649 22.0521 -8.8943
v  9.83603 0.41 -8.89362
v  21.4456 0.41 -29.5114
v  18.8599 0.41 -24.9196
v  16.2743 0.41 -20.3277
v  13.2902 20.1001 -33.0474
v  8.74363 20.1001 -35.0182
v  8.74321 0.41 -35.0176
v  13.2898 0.41 -33.0468
v  1.80755 20.1001 -12.3175
v  1.80713 0.41 -12.3168
v  8.51424 0.41 -24.4254
v  8.51466 20.1001 -24.426
v  4.15238 20.1001 -26.7295
v  4.15196 0.41 -26.7289
v  -5.45184 22.4174 -6.92544
v  -5.45184 22.42 -6.92544
v  10.9025 22.0521 -28.7368
v  10.8053 22.0521 -28.7834

# 0 UV coordinates

# 64 vertex normals
vn 0.439078 -3.77161e-05 -0.898449
vn 0.439077 -3.77717e-05 -0.898449
vn 0.439077 -3.77091e-05 -0.898449
vn 0.439077 -3.77374e-05 -0.898449
vn 0.439077 -3.77137e-05 -0.898449
vn 0.439077 -3.77589e-05 -0.898449
vn -0.864226 2.53912e-06 -0.503104
vn -0.864226 2.46098e-06 -0.503104
vn -0.864226 2.52713e-06 -0.503104
vn 0 1 1.11022e-16
vn -0.439077 3.77374e-05 0.898449
vn -0.439077 3.77374e-05 0.898449
vn 0.871335 -3.08112e-06 0.490688
vn 0.871335 -3.05299e-06 0.490688
vn -0.373312 3.72633e-05 0.927706
vn -0.373312 3.72602e-05 0.927706
vn -0.373312 8.42756e-05 0.927706
vn 0.864226 -2.52717e-06 0.503104
vn 0.864226 -2.52747e-06 0.503104
vn 0.864226 0 0.503104
vn -0.373312 3.7257e-05 0.927706
vn 0.871359 -3.52305e-06 0.490647
vn 0.871359 -2.97863e-06 0.490647
vn 0.871359 -3.00952e-06 0.490647
vn 0.871359 -3.07539e-06 0.490647
vn 0 -1 0
vn 0.397718 -3.74498e-05 -0.917508
vn 0.397718 -3.75719e-05 -0.917508
vn 0.397718 -3.74498e-05 -0.917508
vn -0.392201 3.74568e-05 0.91988
vn -0.392201 3.74308e-05 0.91988
vn -0.874766 3.31718e-06 -0.484546
vn -0.874766 3.33608e-06 -0.484546
vn -0.874766 3.29371e-06 -0.484546
vn -0.874766 3.34064e-06 -0.484546
vn -0.466946 3.79571e-05 0.884286
vn -0.466946 3.79866e-05 0.884286
vn 0.122344 0.960396 -0.250344
vn 0.122345 0.960396 -0.250344
vn 0.122345 0.960396 -0.250344
vn 0.122345 0.960396 -0.250344
vn -0.342024 0.918355 -0.199107
vn -0.342024 0.918355 -0.199107
vn -0.342024 0.918355 -0.199107
vn 0 1 0
vn -0.189259 0.976127 -0.106568
vn -0.189259 0.976127 -0.106568
vn -0.19188 0.975646 -0.106285
vn 0.150488 0.937492 -0.313786
vn 0.147064 0.929123 -0.339267
vn 0.159542 0.929501 -0.332527
vn 0.147171 0.929016 -0.339514
vn -0.159485 0.929504 0.332547
vn -0.159538 0.929505 0.332519
vn -0.172115 0.929589 0.325945
vn -0.328087 0.927002 -0.181733
vn 0 -1 -6.12323e-17
vn -9.05202e-24 -1 -6.12323e-17
vn 1.18226e-23 -1 -6.12323e-17
vn -1.93078e-07 -1 -1.12399e-07
vn -1.93078e-07 -1 -1.12399e-07
vn 9.6569e-08 -1 -1.97602e-07
vn 4.78145e-07 -1 2.45306e-08
vn 0 -1 -6.12323e-17

# Mesh 'defaultobject' with 76 faces
g defaultobject
usemtl DefaultMaterial
f  1//1 2//1 3//1
f  2//1 1//1 4//2
f  4//2 1//1 5//3
f  5//3 1//1 6//4
f  5//3 6//4 7//5
f  5//3 7//5 8//6
f  3//7 9//7 1//7
f  9//7 3//7 10//8
f  10//8 3//7 11//9
f  11//10 3//10 12//10
f  13//11 14//11 15//11
f  14//11 13//11 16//12
f  5//13 16//13 13//13
f  16//13 5//13 8//14
f  17//15 18//15 19//15
f  18//15 17//15 20//16
f  20//17 17//17 21//17
f  15//18 17//18 19//18
f  17//18 15//18 14//19
f  17//18 14//19 22//20
f  18//15 10//21 11//21
f  10//21 18//15 20//16
f  23//22 24//22 25//22
f  24//22 23//22 26//23
f  24//22 26//23 27//24
f  24//22 27//24 28//25
f  28//26 27//26 29//26
f  29//26 27//26 30//26
f  28//27 31//27 24//27
f  31//27 28//27 32//28
f  32//28 28//27 33//29
f  33//26 28//26 34//26
f  27//30 35//30 36//30
f  35//30 27//30 26//31
f  35//32 37//32 36//32
f  37//32 35//32 38//33
f  39//34 33//34 40//34
f  33//34 39//34 32//35
f  37//36 39//36 40//36
f  39//36 37//36 38//37
f  7//38 16//38 8//38
f  16//38 7//38 6//39
f  16//38 6//39 1//40
f  16//38 1//40 41//41
f  16//12 41//41 14//11
f  9//42 41//42 1//42
f  41//42 9//42 20//43
f  20//43 9//42 10//44
f  17//45 42//45 21//45
f  42//45 17//45 22//45
f  38//46 23//46 25//46
f  23//46 38//46 26//47
f  26//48 38//48 35//48
f  24//49 43//49 25//49
f  43//50 24//50 31//50
f  43//51 31//51 44//51
f  44//52 31//52 32//52
f  43//53 38//53 25//53
f  38//54 43//54 44//54
f  38//55 44//55 39//55
f  32//56 39//56 44//56
f  12//57 18//57 11//57
f  18//57 12//57 3//58
f  18//57 3//58 2//59
f  18//57 2//59 19//60
f  19//60 2//59 15//61
f  15//61 2//59 4//62
f  15//61 4//62 13//63
f  13//63 4//62 5//64
f  33//26 37//26 40//26
f  37//26 27//26 36//26
f  27//26 37//26 30//26
f  30//26 37//26 33//26
f  30//26 33//26 34//26
f  30//26 34//26 29//26
f  29//26 34//26 28//26

