# {"id":"BLDG_0003000f00003bf6","idOriginal":"BLDG_0003000f00003bf6","origin":[13.377058546940564,52.50913966927207],"elevation":34.9300003051758}
# Longitude: 13.377058546940564
# Latitude: 52.50913966927207
# Elevation: 34.9300003051758

# File produced by Open Asset Import Library (http://www.assimp.sf.net)
# (assimp v3.1.0)

mtllib BLDG_0003000f00003bf6.obj.mtl

# 114 vertex positions
v  12.4638 9.93388e-16 -16.2233
v  0.168969 7.3804e-18 -0.120531
v  -1.02311 9.2806e-16 -15.1564
v  13.0143 5.68229e-16 -9.27988
v  53.1064 -0.16 45.4045
v  67.994 -0.16 53.9138
v  52.937 -0.16 54.3114
v  67.7901 -0.16 44.6222
v  53.3681 -0.16 31.6453
v  67.4848 -0.16 30.7108
v  81.3396 -0.16 43.9004
v  80.3767 -0.16 29.8574
v  28.0149 -1.02 23.0305
v  12.7555 -1.02 -9.09532
v  38.6193 -1.02 12.5498
v  0.267596 -1.02 -0.19084
v  53.2733 -1.02 44.1691
v  60.2247 -1.02 30.6311
v  24.7123 -0.950001 19.852
v  15.6282 -0.950001 27.4722
v  15.0934 -0.950001 19.4398
v  40.8612 -0.950001 62.5624
v  53.1244 -0.950001 44.4591
v  52.937 -0.950001 54.3114
v  53.4805 -0.950001 61.8856
v  68.0723 -0.139999 53.9117
v  82.4928 -0.139999 60.7362
v  68.1576 -0.139999 61.4771
v  82.1322 -0.139999 55.4686
v  81.3316 -0.139999 43.7843
v  67.7928 -0.139999 44.5089
v  82.9718 -2.93 67.7306
v  68.1576 -2.93 61.4772
v  82.4927 -2.93 60.7363
v  83.3812 -2.93 73.7081
v  78.0145 -2.93 74.0729
v  50.6472 -2.93 75.9353
v  53.4805 -2.93 61.8857
v  52.937 -2.93 54.3115
v  40.8612 -2.93 62.5625
v  33.7425 -2.93 77.0855
v  15.6282 -2.93 27.4723
v  0 -2.93 -1.79411e-16
v  2.36331 -2.93 29.8423
v  10.9789 -2.93 45.181
v  4.78638 -2.93 36.508
v  3.36351 -2.93 33.473
v  15.0934 -2.93 19.4398
v  24.7122 -2.93 19.852
v  68.0723 -2.93 53.9118
v  6.27958 39.16 -8.64803
v  12.4646 36.79 -16.2244
v  -1.02232 36.79 -15.1575
v  13.0151 36.79 -9.28104
v  6.59248 39.16 -4.70144
v  0.169754 36.79 -0.121694
v  60.4522 38.76 46.6717
v  52.9378 35.6 54.3103
v  67.9948 35.6 53.9126
v  53.1072 35.6 45.4034
v  60.4491 38.76 45.0121
v  67.7909 35.6 44.6211
v  60.4382 38.76 38.0945
v  53.3689 35.6 31.6442
v  67.6383 38.76 37.6653
v  67.4856 35.6 30.7097
v  80.3775 35.6 29.8563
v  80.859 38.76 36.8777
v  81.3403 35.6 43.8993
v  6.51242 39.98 -4.64438
v  28.0157 36.79 23.0293
v  33.3179 39.98 17.7889
v  0.268402 36.79 -0.192035
v  12.7563 36.79 -9.09651
v  38.6201 36.79 12.5486
v  60.2255 35.79 30.63
v  33.3179 38.76 17.7889
v  56.7499 38.76 37.3988
v  38.6201 35.79 12.5486
v  28.0156 35.79 23.0294
v  53.2741 35.79 44.1679
v  24.7124 4.34605 19.8518
v  52.9371 4.34605 54.3113
v  53.1245 4.34605 44.459
v  15.0935 4.34605 19.4396
v  53.4807 4.34605 61.8854
v  40.8614 4.34605 62.5622
v  15.6284 4.34605 27.472
v  68.0724 4.41275 53.9115
v  81.3317 4.41275 43.7842
v  67.7929 4.41275 44.5088
v  68.1577 4.41275 61.477
v  82.4929 4.41275 60.7361
v  82.1323 4.41275 55.4684
v  82.9724 24.8253 67.7298
v  78.0151 24.8253 74.072
v  83.3818 24.8253 73.7072
v  82.4933 24.8253 60.7354
v  50.6478 24.8253 75.9344
v  68.1582 24.8253 61.4764
v  68.0729 24.8253 53.9109
v  53.4811 24.8253 61.8848
v  52.9375 24.8253 54.3106
v  0.000592055 24.8253 -0.00087703
v  15.094 24.8253 19.439
v  24.7128 24.8253 19.8511
v  4.78697 24.8253 36.5071
v  3.3641 24.8253 33.4722
v  2.36391 24.8253 29.8414
v  33.7431 24.8253 77.0846
v  40.8618 24.8253 62.5616
v  10.9795 24.8253 45.1801
v  15.6288 24.8253 27.4714
v  32.2678 39.3482 18.8267

# 0 UV coordinates

# 124 vertex normals
vn 6.22638e-24 -1 -6.12323e-17
vn -8.98879e-24 -1 -6.12324e-17
vn 0 -1 0
vn -0.02508 0.948079 -0.317046
vn 0.329618 0.943752 -0.0261329
vn 0.329618 0.943752 -0.0261329
vn -0.329614 0.943754 0.0261325
vn -0.329614 0.943754 0.0261326
vn 0.0103239 0.920374 0.390904
vn -0.395309 0.918548 0.000748642
vn -0.394096 0.919039 -0.00749609
vn 0.394945 0.918664 -0.0086671
vn 0.387014 0.922074 -0.000733073
vn 0.395321 0.918543 -0.0006226
vn -0.395315 0.918546 0.00062259
vn -0.40225 0.915498 -0.00765134
vn -0.0273372 0.910333 -0.412973
vn -0.0248963 0.908258 -0.417669
vn 0.0246205 0.910379 0.413042
vn -0.0243596 0.912257 -0.408894
vn -0.0273373 0.910333 -0.412973
vn 0.0217918 0.912249 0.409055
vn 0.0246067 0.910379 0.413042
vn -0.253434 0.91873 0.302829
vn -0.253434 0.91873 0.302829
vn 0.253441 0.918726 -0.302838
vn 0.253441 0.918726 -0.302838
vn 0.238451 0.928417 -0.284926
vn 0.238451 0.928417 -0.284926
vn -0.238445 0.928421 0.284919
vn -0.238445 0.928421 0.284919
vn 0 1 0
vn -0.042811 3.24277e-05 0.999083
vn -0.0428108 3.24964e-05 0.999083
vn 0.626275 -3.80168e-05 -0.779602
vn 0.626275 -3.79821e-05 -0.779602
vn -0.996879 2.3758e-05 0.0789464
vn -0.996879 2.37593e-05 0.0789464
vn -0.964088 2.89667e-05 0.265582
vn -0.964088 2.89584e-05 0.265582
vn -0.905431 3.27229e-05 0.424493
vn -0.905431 3.27385e-05 0.424493
vn -0.813842 3.57343e-05 0.581087
vn -0.813842 3.57203e-05 0.581087
vn -0.81404 3.57018e-05 0.580809
vn -0.81404 3.57298e-05 0.580809
vn 0.0678827 3.00897e-05 0.997693
vn 0.0678937 3.00929e-05 0.997693
vn 0.0678937 3.01029e-05 0.997693
vn 0.067819 3.01025e-05 0.997698
vn 0.0678189 3.00841e-05 0.997698
vn 0.997663 -2.35501e-05 -0.0683193
vn 0.997662 -2.35509e-05 -0.0683365
vn 0.997662 -2.32764e-05 -0.0683375
vn -0.0788587 -2.98185e-05 -0.996886
vn -0.0788588 -2.98441e-05 -0.996886
vn 0.996872 -2.37648e-05 -0.0790343
vn 0.996872 -2.37666e-05 -0.0790343
vn 0.580571 1.33424e-05 0.81421
vn 0.580571 1.33437e-05 0.81421
vn 0.580571 1.32631e-05 0.81421
vn -0.996872 2.37617e-05 0.0790344
vn -0.996872 2.37613e-05 0.0790344
vn 0.0264011 3.10018e-05 0.999651
vn -0.999819 2.07306e-05 -0.0190175
vn 0.999759 -2.20226e-05 -0.0219398
vn -0.999819 2.07306e-05 -0.0190179
vn -0.999819 2.07296e-05 -0.0190179
vn -0.0660518 -3.01508e-05 -0.997816
vn -0.0660517 -3.00976e-05 -0.997816
vn -0.0660517 -3.00976e-05 -0.997816
vn 0.997658 -2.34449e-05 -0.0684041
vn 0.997658 -2.26412e-05 -0.0684041
vn 0.0531982 3.03959e-05 0.998584
vn -0.702949 -7.44879e-06 -0.711241
vn -0.702948 -8.3135e-06 -0.711241
vn 0.702949 8.97595e-06 0.711241
vn 0.702948 6.9857e-06 0.711241
vn -0.641792 3.79508e-05 0.766879
vn -0.641792 3.79225e-05 0.766879
vn -0.580571 -1.33443e-05 -0.81421
vn -0.580571 -1.33234e-05 -0.81421
vn -0.580571 -1.34885e-05 -0.81421
vn 0.641792 -3.78604e-05 -0.766879
vn 0.641792 -3.79082e-05 -0.766879
vn 0.641792 -3.79021e-05 -0.766879
vn 0.641792 -3.79315e-05 -0.766879
vn 0.889581 -4.57691e-06 0.456777
vn 0.889581 -4.55324e-06 0.456777
vn 0.889581 -3.46036e-06 0.456777
vn -0.641792 3.79405e-05 0.766879
vn 0.0428108 -3.25811e-05 -0.999083
vn 0.0428109 -3.25734e-05 -0.999083
vn -0.997791 2.3463e-05 0.0664376
vn -0.997791 2.34869e-05 0.0664376
vn -0.811885 3.60466e-05 0.583818
vn -0.811885 3.56902e-05 0.583818
vn 0.0535546 3.04932e-05 0.998565
vn 0.997435 -2.38203e-05 -0.0715799
vn 0.999819 -2.10012e-05 0.0190179
vn 0.999819 -2.1015e-05 0.0190179
vn 0.654677 -3.74071e-05 -0.755909
vn 0.654677 -3.80203e-05 -0.755908
vn -0.999936 2.21333e-05 0.0112748
vn -0.999936 2.21427e-05 0.0112748
vn 0.0516164 2.98427e-05 0.998667
vn 0.997665 -2.38533e-05 -0.0682919
vn 0.997665 -2.39078e-05 -0.0682918
vn 0.997661 -2.39134e-05 -0.0683613
vn -0.0534398 -3.06301e-05 -0.998571
vn -0.999558 2.27217e-05 0.0297189
vn -0.0516163 -3.04624e-05 -0.998667
vn -0.0516164 -3.04766e-05 -0.998667
vn 0.999936 -2.1796e-05 -0.0112748
vn -0.026401 -3.10378e-05 -0.999651
vn -0.026401 -3.10342e-05 -0.999651
vn -0.997435 2.35015e-05 0.0715799
vn -0.997435 2.35113e-05 0.0715799
vn -0.0535549 -3.04177e-05 -0.998565
vn -0.0535546 -3.02878e-05 -0.998565
vn 0.811885 -3.587e-05 -0.583818
vn 0.811885 -3.57174e-05 -0.583818
vn 0.997791 -2.33899e-05 -0.0664376
vn 0.997791 -2.33856e-05 -0.0664376

# Mesh 'defaultobject' with 200 faces
g defaultobject
usemtl DefaultMaterial
f  1//1 2//1 3//1
f  2//1 1//1 4//2
f  5//3 6//3 7//3
f  6//3 5//3 8//3
f  9//3 8//3 5//3
f  8//3 9//3 10//3
f  10//3 11//3 8//3
f  11//3 10//3 12//3
f  13//3 14//3 15//3
f  14//3 13//3 16//3
f  15//3 17//3 13//3
f  17//3 15//3 18//3
f  19//3 20//3 21//3
f  20//3 19//3 22//3
f  22//3 19//3 23//3
f  22//3 23//3 24//3
f  22//3 24//3 25//3
f  26//3 27//3 28//3
f  27//3 26//3 29//3
f  29//3 26//3 30//3
f  30//3 26//3 31//3
f  32//3 33//3 34//3
f  33//3 32//3 35//3
f  33//3 35//3 36//3
f  33//3 36//3 37//3
f  33//3 37//3 38//3
f  33//3 38//3 39//3
f  38//3 37//3 40//3
f  40//3 37//3 41//3
f  40//3 41//3 42//3
f  42//3 41//3 43//3
f  43//3 41//3 44//3
f  44//3 41//3 45//3
f  44//3 45//3 46//3
f  44//3 46//3 47//3
f  48//3 43//3 49//3
f  43//3 48//3 42//3
f  39//3 50//3 33//3
f  51//4 52//4 53//4
f  54//5 51//5 55//5
f  51//5 54//5 52//6
f  55//7 53//7 56//7
f  53//7 55//7 51//8
f  57//9 58//9 59//9
f  60//10 57//10 61//10
f  57//11 60//11 58//11
f  61//12 59//12 62//12
f  59//13 61//13 57//13
f  61//14 62//14 63//14
f  63//15 60//15 61//15
f  60//16 63//16 64//16
f  64//17 65//17 66//17
f  65//18 64//18 63//18
f  63//19 62//19 65//19
f  67//20 65//20 68//20
f  65//17 67//21 66//17
f  68//22 62//22 69//22
f  62//23 68//23 65//23
f  70//24 71//24 72//24
f  71//24 70//24 73//25
f  74//26 72//26 75//26
f  72//26 74//26 70//27
f  76//28 77//28 78//28
f  77//28 76//28 79//29
f  78//30 80//30 81//30
f  80//30 78//30 77//31
f  82//32 83//32 84//32
f  83//32 82//32 85//32
f  83//32 85//32 86//32
f  86//32 85//32 87//32
f  87//32 85//32 88//32
f  89//32 90//32 91//32
f  90//32 89//32 92//32
f  90//32 92//32 93//32
f  90//32 93//32 94//32
f  95//32 96//32 97//32
f  96//32 95//32 98//32
f  96//32 98//32 99//32
f  99//32 98//32 100//32
f  99//32 100//32 101//32
f  99//32 101//32 102//32
f  102//32 101//32 103//32
f  104//32 105//32 106//32
f  105//32 104//32 107//32
f  107//32 104//32 108//32
f  108//32 104//32 109//32
f  102//32 110//32 99//32
f  110//32 102//32 111//32
f  110//32 111//32 112//32
f  112//32 111//32 113//32
f  112//32 113//32 107//32
f  107//32 113//32 105//32
f  49//33 105//33 48//33
f  105//33 49//33 106//34
f  43//35 106//35 49//35
f  106//35 43//35 104//36
f  109//37 43//37 44//37
f  43//37 109//37 104//38
f  108//39 44//39 47//39
f  44//39 108//39 109//40
f  107//41 47//41 46//41
f  47//41 107//41 108//42
f  112//43 46//43 45//43
f  46//43 112//43 107//44
f  110//45 45//45 41//45
f  45//45 110//45 112//46
f  37//47 110//47 41//47
f  110//47 37//47 99//47
f  36//48 99//48 37//48
f  99//48 36//48 96//49
f  35//50 96//50 36//50
f  96//50 35//50 97//51
f  32//52 97//52 35//52
f  97//52 32//52 95//52
f  34//53 95//53 32//53
f  95//53 34//53 98//54
f  53//55 1//55 3//55
f  1//55 53//55 52//56
f  1//57 54//57 4//57
f  54//57 1//57 52//58
f  54//59 2//59 4//59
f  2//59 54//59 56//60
f  56//60 54//59 55//61
f  56//62 3//62 2//62
f  3//62 56//62 53//63
f  6//64 58//64 7//64
f  58//64 6//64 59//64
f  58//65 5//65 7//65
f  5//65 58//65 60//65
f  8//66 59//66 6//66
f  59//66 8//66 62//66
f  60//65 9//67 5//65
f  9//67 60//65 64//68
f  64//69 10//69 9//69
f  10//69 64//69 66//70
f  66//70 12//71 10//69
f  12//71 66//70 67//71
f  67//72 11//72 12//72
f  11//72 67//72 69//72
f  69//72 67//72 68//73
f  11//74 62//74 8//74
f  62//74 11//74 69//74
f  77//75 80//75 114//75
f  71//76 114//75 80//75
f  75//77 114//77 79//77
f  114//77 75//77 72//78
f  71//79 16//79 13//79
f  16//79 71//79 73//80
f  73//81 14//81 16//81
f  14//81 73//81 74//82
f  74//82 73//81 70//83
f  14//84 75//84 15//84
f  75//84 14//84 74//85
f  15//84 76//86 18//86
f  76//86 15//84 79//87
f  76//88 17//88 18//88
f  17//88 76//88 81//89
f  81//89 76//88 78//90
f  81//91 13//79 17//91
f  13//79 81//91 80//91
f  85//92 19//92 21//92
f  19//92 85//92 82//93
f  88//94 21//94 20//94
f  21//94 88//94 85//95
f  87//96 20//96 22//96
f  20//96 87//96 88//97
f  25//98 87//98 22//98
f  87//98 25//98 86//98
f  24//99 86//99 25//99
f  86//99 24//99 83//99
f  23//100 83//100 24//100
f  83//100 23//100 84//101
f  19//102 84//102 23//102
f  84//102 19//102 82//103
f  92//104 26//104 28//104
f  26//104 92//104 89//105
f  27//106 92//106 28//106
f  92//106 27//106 93//106
f  29//107 93//107 27//107
f  93//107 29//107 94//108
f  30//109 94//109 29//109
f  94//109 30//109 90//109
f  91//110 30//110 31//110
f  30//110 91//110 90//110
f  89//111 31//111 26//111
f  31//111 89//111 91//111
f  100//112 34//112 33//112
f  34//112 100//112 98//113
f  50//114 100//114 33//114
f  100//114 50//114 101//114
f  103//115 50//115 39//115
f  50//115 103//115 101//116
f  102//117 39//117 38//117
f  39//117 102//117 103//118
f  111//119 38//119 40//119
f  38//119 111//119 102//120
f  42//121 111//121 40//121
f  111//121 42//121 113//122
f  48//123 113//123 42//123
f  113//123 48//123 105//124

