# {"id":"BLDG_000300000028c09a","idOriginal":"BLDG_000300000028c09a","origin":[13.36052349531062,52.50294071182667],"elevation":35}
# Longitude: 13.36052349531062
# Latitude: 52.50294071182667
# Elevation: 35

# File produced by Open Asset Import Library (http://www.assimp.sf.net)
# (assimp v3.1.0)

mtllib BLDG_000300000028c09a.obj.mtl

# 24 vertex positions
v  1.20901 2.14144e-16 -3.49724
v  1.61082 2.44339e-16 -3.99035
v  0.387478 6.85531e-17 -1.11956
v  0 0 0
v  17.0868 1.6727e-16 -2.73172
v  14.521 -2.96853e-16 4.84798
v  2.22941 3.12286e-16 -5.10002
v  2.43737 3.49115e-16 -5.70149
v  2.57369 3.87168e-16 -6.32293
v  2.637 4.25941e-16 -6.95614
v  2.6253 4.64894e-16 -7.5923
v  1.95243 2.77219e-16 -4.52733
v  2.63711 5.20429 -6.9563
v  2.62541 5.20429 -7.59246
v  2.5738 5.20429 -6.32309
v  2.43748 5.20429 -5.70165
v  2.22952 5.20429 -5.10019
v  1.95254 5.20429 -4.5275
v  1.61093 5.20429 -3.99052
v  1.20912 5.20429 -3.4974
v  0.387589 5.20429 -1.11972
v  0.000110896 5.20429 -0.00016439
v  14.5211 5.20429 4.84781
v  17.0869 5.20429 -2.73188

# 0 UV coordinates

# 31 vertex normals
vn -3.60782e-23 -1 -6.12324e-17
vn -8.64293e-25 -1 -6.12323e-17
vn 0 -1 -6.12323e-17
vn 5.6147e-24 -1 -6.12324e-17
vn -5.56751e-24 -1 -6.12324e-17
vn -1.12432e-23 -1 -6.12323e-17
vn -1.15804e-23 -1 -6.12323e-17
vn -5.55223e-22 -1 -6.12327e-17
vn -0.999831 2.18786e-05 0.0183925
vn -0.999831 2.18803e-05 0.0183925
vn -0.995039 1.80065e-05 -0.0994866
vn -0.995039 1.80612e-05 -0.099487
vn -0.976775 1.40347e-05 -0.21427
vn -0.976775 1.39899e-05 -0.214269
vn -0.945103 9.80376e-06 -0.326772
vn -0.900235 5.41402e-06 -0.435405
vn -0.843735 1.0312e-06 -0.53676
vn -0.843735 1.00661e-06 -0.53676
vn -0.775227 -3.43557e-06 -0.631683
vn -0.775227 -3.42439e-06 -0.631683
vn -0.945172 9.83184e-06 -0.326574
vn -0.945172 9.83312e-06 -0.326574
vn -0.945002 9.80555e-06 -0.327064
vn -0.945002 9.81276e-06 -0.327064
vn -0.316678 3.66762e-05 0.948533
vn -0.316678 3.67719e-05 0.948533
vn 0.9472 -1.01674e-05 0.320644
vn 0.9472 -1.003e-05 0.320644
vn 0.31859 -3.67499e-05 -0.947893
vn 0.31859 -3.66918e-05 -0.947892
vn -0 1 0

# Mesh 'defaultobject' with 44 faces
g defaultobject
usemtl DefaultMaterial
f  1//1 2//1 3//1
f  4//2 5//2 6//2
f  5//2 4//2 7//3
f  5//2 7//3 8//4
f  5//2 8//4 9//5
f  5//2 9//5 10//6
f  5//2 10//6 11//7
f  7//3 4//2 3//1
f  7//3 3//1 12//8
f  12//8 3//1 2//1
f  13//9 11//9 10//9
f  11//9 13//9 14//10
f  15//11 10//11 9//11
f  10//11 15//11 13//12
f  16//13 9//13 8//13
f  9//13 16//13 15//14
f  17//15 8//15 7//15
f  8//15 17//15 16//15
f  18//16 7//16 12//16
f  7//16 18//16 17//16
f  19//17 12//17 2//17
f  12//17 19//17 18//18
f  20//19 2//19 1//19
f  2//19 20//19 19//20
f  21//21 1//21 3//21
f  1//21 21//21 20//22
f  22//23 3//23 4//23
f  3//23 22//23 21//24
f  6//25 22//25 4//25
f  22//25 6//25 23//26
f  5//27 23//27 6//27
f  23//27 5//27 24//28
f  14//29 5//29 11//29
f  5//29 14//29 24//30
f  22//31 23//31 21//31
f  24//31 21//31 23//31
f  20//31 21//31 24//31
f  19//31 20//31 24//31
f  18//31 19//31 24//31
f  17//31 18//31 24//31
f  16//31 17//31 24//31
f  15//31 16//31 24//31
f  13//31 15//31 24//31
f  14//31 13//31 24//31

