# {"id":"BLDG_00030009007e10a2","idOriginal":"BLDG_00030009007e10a2","origin":[13.398352340760646,52.54798606576622],"elevation":48.5200004577637}
# Longitude: 13.398352340760646
# Latitude: 52.54798606576622
# Elevation: 48.5200004577637

# File produced by Open Asset Import Library (http://www.assimp.sf.net)
# (assimp v3.1.0)

mtllib BLDG_00030009007e10a2.obj.mtl

# 8 vertex positions
v  0 0 0
v  12.0165 -1.28574e-16 2.09978
v  7.82366 -4.27871e-16 6.98767
v  4.19287 2.99297e-16 -4.88789
v  7.82374 3.95455 6.98754
v  8.4478e-05 3.95455 -0.00012528
v  4.19293 2.78378 -4.88798
v  12.0166 2.78378 2.09969

# 0 UV coordinates

# 10 vertex normals
vn 0 -1 -6.12323e-17
vn -0.666136 3.78691e-05 0.745831
vn -0.666136 3.7858e-05 0.745831
vn -0.759007 -4.41212e-06 -0.651082
vn -0.759007 -4.51066e-06 -0.651082
vn 0.666136 -3.77531e-05 -0.745831
vn 0.759007 4.41885e-06 0.651082
vn 0.759007 4.57496e-06 0.651082
vn 0.119174 0.983867 -0.133432
vn 0.119174 0.983867 -0.133432

# Mesh 'defaultobject' with 12 faces
g defaultobject
usemtl DefaultMaterial
f  1//1 2//1 3//1
f  2//1 1//1 4//1
f  5//2 1//2 3//2
f  1//2 5//2 6//3
f  6//4 4//4 1//4
f  4//4 6//4 7//5
f  4//6 8//6 2//6
f  8//6 4//6 7//6
f  2//7 5//7 3//7
f  5//7 2//7 8//8
f  8//9 6//9 5//9
f  6//9 8//9 7//10

