# {"id":"BLDG_0003000e00123834","idOriginal":"BLDG_0003000e00123834","origin":[13.334121063492987,52.56019840766737],"elevation":37.3800010681152}
# Longitude: 13.334121063492987
# Latitude: 52.56019840766737
# Elevation: 37.3800010681152

# File produced by Open Asset Import Library (http://www.assimp.sf.net)
# (assimp v3.1.0)

mtllib BLDG_0003000e00123834.obj.mtl

# 12 vertex positions
v  21.7159 -2.91099e-16 4.75401
v  13.3691 20.2784 13.3148
v  13.3687 -8.15338e-16 13.3155
v  21.7163 20.2784 4.75336
v  8.1127 5.18823e-16 -8.47303
v  8.11313 20.2784 -8.47367
v  0.000431436 20.2784 -0.00064298
v  0 0 0
v  5.56951 20.2784 5.54594
v  5.56908 -3.3963e-16 5.54658
v  8.76942 20.2784 8.7336
v  8.76898 -5.34818e-16 8.73425

# 0 UV coordinates

# 15 vertex normals
vn 0.71601 6.92228e-06 0.69809
vn 0.697125 -3.75565e-05 -0.716949
vn -0.722298 -6.56104e-06 -0.691582
vn -0.722298 -6.56604e-06 -0.691582
vn -0.705674 3.74762e-05 0.708537
vn -0.705674 3.74797e-05 0.708536
vn -0.70575 3.74919e-05 0.708461
vn -0.70575 3.74754e-05 0.708461
vn -0.705686 3.74594e-05 0.708525
vn -0.705686 3.74926e-05 0.708525
vn 0 -1 -6.12323e-17
vn 1.31213e-23 -1 -6.12323e-17
vn 9.18843e-24 -1 -6.12323e-17
vn 3.97075e-20 -1 -6.12687e-17
vn 0 1 0

# Mesh 'defaultobject' with 20 faces
g defaultobject
usemtl DefaultMaterial
f  1//1 2//1 3//1
f  2//1 1//1 4//1
f  5//2 4//2 1//2
f  4//2 5//2 6//2
f  7//3 5//3 8//3
f  5//3 7//3 6//4
f  9//5 8//5 10//5
f  8//5 9//5 7//6
f  11//7 10//7 12//7
f  10//7 11//7 9//8
f  2//9 12//9 3//9
f  12//9 2//9 11//10
f  3//11 5//11 1//11
f  5//11 3//11 10//12
f  5//11 10//12 8//13
f  10//12 3//11 12//14
f  4//15 11//15 2//15
f  11//15 4//15 9//15
f  9//15 4//15 6//15
f  9//15 6//15 7//15

