# {"id":"BLDG_0003000e0011fbf6","idOriginal":"BLDG_0003000e0011fbf6","origin":[13.350088589625408,52.52861244469867],"elevation":33.5400009155273}
# Longitude: 13.350088589625408
# Latitude: 52.52861244469867
# Elevation: 33.5400009155273

# File produced by Open Asset Import Library (http://www.assimp.sf.net)
# (assimp v3.1.0)

mtllib BLDG_0003000e0011fbf6.obj.mtl

# 8 vertex positions
v  0.000357518 16.7883 -0.00053119
v  0.0530879 8.33319e-16 -13.6091
v  0 0 0
v  0.0534454 16.7883 -13.6097
v  11.1821 8.27076e-16 -13.5072
v  11.1824 16.7883 -13.5077
v  11.1293 16.7883 0.101425
v  11.129 -6.24299e-18 0.101956

# 0 UV coordinates

# 11 vertex normals
vn -0.999992 2.1172e-05 -0.00390087
vn -0.999992 2.11721e-05 -0.00390087
vn 0.00916087 -3.18346e-05 -0.999958
vn 0.00916095 -3.17778e-05 -0.999958
vn 0.999992 -2.11787e-05 0.00390082
vn 0.999992 -2.11789e-05 0.00390082
vn -0.00916089 3.18342e-05 0.999958
vn -0.00916089 3.18355e-05 0.999958
vn 0 1 0
vn -7.82063e-24 -1 -6.12323e-17
vn 0 -1 -6.12323e-17

# Mesh 'defaultobject' with 12 faces
g defaultobject
usemtl DefaultMaterial
f  1//1 2//1 3//1
f  2//1 1//1 4//2
f  4//3 5//3 2//3
f  5//3 4//3 6//4
f  5//5 7//5 8//5
f  7//5 5//5 6//6
f  8//7 1//7 3//7
f  1//7 8//7 7//8
f  1//9 6//9 4//9
f  6//9 1//9 7//9
f  5//10 3//10 2//10
f  3//10 5//10 8//11

