# {"id":"BLDG_00030000001a3c43","idOriginal":"BLDG_00030000001a3c43","origin":[13.421892996226962,52.509976740056814],"elevation":35.6199989318848}
# Longitude: 13.421892996226962
# Latitude: 52.509976740056814
# Elevation: 35.6199989318848

# File produced by Open Asset Import Library (http://www.assimp.sf.net)
# (assimp v3.1.0)

mtllib BLDG_00030000001a3c43.obj.mtl

# 10 vertex positions
v  4.47724 -1.16827e-16 1.90793
v  7.0826e-05 3.31076 -0.00010462
v  0 0 0
v  4.47731 3.31076 1.90782
v  2.14307 2.85577e-16 -4.66383
v  2.14315 3.31076 -4.66393
v  6.62032 1.6875e-16 -2.7559
v  6.62039 3.31076 -2.75601
v  3.25474 3.6213 -1.25729
v  3.36573 3.6213 -1.49885

# 0 UV coordinates

# 16 vertex normals
vn -0.392028 3.74655e-05 0.919953
vn -0.392028 3.74063e-05 0.919953
vn -0.908659 6.24444e-06 -0.417538
vn -0.908659 6.26444e-06 -0.417538
vn 0.392028 -3.74016e-05 -0.919953
vn 0.392028 -3.74961e-05 -0.919953
vn 0.90866 -6.22951e-06 0.417538
vn 0.908659 -6.28563e-06 0.417538
vn -0.0496447 0.991949 0.116499
vn -0.115069 0.991949 -0.0528754
vn -0.115069 0.991949 -0.0528754
vn 0.0496452 0.991949 -0.1165
vn 0.115069 0.991949 0.0528755
vn 0.115069 0.991949 0.0528754
vn -8.48054e-24 -1 -6.12323e-17
vn 0 -1 -6.12323e-17

# Mesh 'defaultobject' with 16 faces
g defaultobject
usemtl DefaultMaterial
f  1//1 2//1 3//1
f  2//1 1//1 4//2
f  2//3 5//3 3//3
f  5//3 2//3 6//4
f  6//5 7//5 5//5
f  7//5 6//5 8//6
f  7//7 4//7 1//7
f  4//7 7//7 8//8
f  2//9 4//9 9//9
f  10//10 2//10 9//10
f  2//10 10//10 6//11
f  10//12 8//12 6//12
f  10//13 4//13 8//13
f  4//13 10//13 9//14
f  5//15 1//15 3//15
f  1//15 5//15 7//16

