# {"id":"BLDG_0003000800087dd0","idOriginal":"BLDG_0003000800087dd0","origin":[13.338234051595554,52.54900564289534],"elevation":35.689998626709}
# Longitude: 13.338234051595554
# Latitude: 52.54900564289534
# Elevation: 35.689998626709

# File produced by Open Asset Import Library (http://www.assimp.sf.net)
# (assimp v3.1.0)

mtllib BLDG_0003000800087dd0.obj.mtl

# 8 vertex positions
v  5.6875e-05 2.67261 -8.46805e-05
v  8.4706 2.67261 2.97891
v  2.88264 2.67261 -2.77903
v  5.56748 2.67261 5.77844
v  0 0 0
v  5.56743 -3.53833e-16 5.77853
v  8.47054 -1.82411e-16 2.97899
v  2.88259 1.70161e-16 -2.77894

# 0 UV coordinates

# 11 vertex normals
vn -0 1 0
vn -0.720138 3.72006e-05 0.69383
vn -0.720138 3.73088e-05 0.69383
vn 0.694148 7.96294e-06 0.719832
vn 0.694148 7.96294e-06 0.719832
vn 0.71762 -3.75348e-05 -0.696435
vn 0.71762 -3.73569e-05 -0.696435
vn -0.694046 -8.04092e-06 -0.719931
vn -0.694046 -8.06374e-06 -0.719931
vn -3.27172e-24 -1 -6.12323e-17
vn -3.29571e-24 -1 -6.12323e-17

# Mesh 'defaultobject' with 12 faces
g defaultobject
usemtl DefaultMaterial
f  1//1 2//1 3//1
f  2//1 1//1 4//1
f  4//2 5//2 6//2
f  5//2 4//2 1//3
f  7//4 4//4 6//4
f  4//4 7//4 2//5
f  8//6 2//6 7//6
f  2//6 8//6 3//7
f  1//8 8//8 5//8
f  8//8 1//8 3//9
f  5//10 7//10 6//10
f  7//10 5//10 8//11

