# {"id":"BLDG_0003000e00532cf0","idOriginal":"BLDG_0003000e00532cf0","origin":[13.402108935981683,52.534665545505824],"elevation":49.7799987792969}
# Longitude: 13.402108935981683
# Latitude: 52.534665545505824
# Elevation: 49.7799987792969

# File produced by Open Asset Import Library (http://www.assimp.sf.net)
# (assimp v3.1.0)

mtllib BLDG_0003000e00532cf0.obj.mtl

# 19 vertex positions
v  20.2635 23.479 -19.5268
v  18.7446 21.4203 -28.1251
v  15.184 23.479 -22.7826
v  23.8241 21.4203 -24.8693
v  11.6233 21.4203 -17.44
v  16.7028 23.479 -14.1842
v  5.09187 23.479 3.23733
v  0.000457679 21.4203 -0.00067798
v  5.86679 23.479 -28.7548
v  2.2967 21.4203 -23.4182
v  9.4368 21.4203 -34.0913
v  16.7023 8.68487e-16 -14.1835
v  18.7441 1.72213e-15 -28.1245
v  23.8237 1.52276e-15 -24.8686
v  11.6228 1.06785e-15 -17.4393
v  5.09137 -1.98275e-16 3.23807
v  0 0 0
v  9.43634 2.08745e-15 -34.0906
v  2.29624 1.43391e-15 -23.4175

# 0 UV coordinates

# 31 vertex normals
vn 0.164798 0.952229 -0.257104
vn 0.164798 0.952229 -0.257104
vn -0.268762 0.946405 -0.179122
vn -0.164795 0.952231 0.257098
vn -0.268762 0.946405 -0.179122
vn -0.268762 0.946405 -0.179122
vn -0.164795 0.952231 0.257098
vn -0.164795 0.952231 0.257098
vn 0.164798 0.952229 -0.257104
vn 0.164798 0.952229 -0.257104
vn 2.18698e-23 -1 -6.12323e-17
vn 2.18698e-23 -1 -6.12323e-17
vn 2.68268e-23 -1 -6.12323e-17
vn 0 -1 -6.12323e-17
vn 0 -1 -6.12323e-17
vn -1.19109e-23 -1 -6.12323e-17
vn -0.832125 2.26293e-07 -0.554588
vn -0.832125 2.52128e-07 -0.554588
vn -0.539639 3.81157e-05 0.841897
vn -0.539639 3.81478e-05 0.841897
vn -0.831162 1.76673e-07 -0.556031
vn -0.831162 1.36415e-07 -0.556031
vn -0.831162 1.44298e-07 -0.556031
vn 0.539639 -3.82203e-05 -0.841897
vn 0.539639 -3.82203e-05 -0.841897
vn 0.832125 -2.02741e-07 0.554588
vn 0.832125 -2.30475e-07 0.554588
vn 0.832125 0 0.554588
vn 0.832125 -2.79374e-07 0.554588
vn -0.536652 3.81776e-05 0.843803
vn -0.536652 3.81825e-05 0.843803

# Mesh 'defaultobject' with 34 faces
g defaultobject
usemtl DefaultMaterial
f  1//1 2//1 3//1
f  2//1 1//1 4//2
f  1//3 5//3 6//3
f  1//4 3//4 5//4
f  5//3 7//5 6//3
f  7//5 5//3 8//6
f  9//7 5//4 3//4
f  5//4 9//7 10//8
f  11//9 3//1 2//1
f  3//1 11//9 9//10
f  12//11 13//11 14//11
f  13//11 12//11 15//12
f  16//13 15//12 12//11
f  15//12 16//13 17//14
f  15//12 18//15 13//11
f  18//15 15//12 19//16
f  8//17 15//17 17//17
f  15//17 8//17 5//18
f  15//19 10//19 19//19
f  10//19 15//19 5//20
f  10//21 18//21 19//21
f  18//21 10//21 11//22
f  11//22 10//21 9//23
f  11//24 13//24 18//24
f  13//24 11//24 2//24
f  2//24 14//25 13//24
f  14//25 2//24 4//25
f  4//26 12//26 14//26
f  12//26 4//26 6//27
f  6//27 4//26 1//28
f  12//26 7//29 16//29
f  7//29 12//26 6//27
f  16//30 8//30 17//30
f  8//30 16//30 7//31

