# {"id":"BLDG_0003000b0063c498","idOriginal":"BLDG_0003000b0063c498","origin":[13.398287875596543,52.52508953598888],"elevation":34.7400016784668}
# Longitude: 13.398287875596543
# Latitude: 52.52508953598888
# Elevation: 34.7400016784668

# File produced by Open Asset Import Library (http://www.assimp.sf.net)
# (assimp v3.1.0)

mtllib BLDG_0003000b0063c498.obj.mtl

# 26 vertex positions
v  19.7591 3.08986e-16 -5.04613
v  12.5214 -2.49686e-16 4.07768
v  10.7723 1.68453e-16 -2.75105
v  21.5082 -1.09153e-16 1.78261
v  1.93634 -4.15212e-16 6.78092
v  0 0 0
v  25.436 -4.77323e-17 0.779527
v  23.342 -5.47527e-16 8.94179
v  27.4579 -4.81305e-16 7.86031
v  14.3711 -6.91861e-16 11.299
v  10.7727 19.8168 -2.75168
v  19.7595 19.8168 -5.04675
v  20.1305 21.2832 -3.59842
v  20.8809 20.6405 -0.668803
v  21.5087 21.1536 1.78194
v  1.93677 19.8168 6.7803
v  12.5218 19.8168 4.07706
v  0.000423307 19.8168 -0.000626841
v  1.24213 20.6405 4.34763
v  0.410991 21.2832 1.43699
v  25.4364 19.8168 0.7789
v  27.4584 19.8168 7.85968
v  23.3425 21.1536 8.94112
v  14.3715 19.8168 11.2983
v  11.8941 20.6405 1.62627
v  11.1437 21.2832 -1.30335

# 0 UV coordinates

# 43 vertex normals
vn 1.61937e-24 -1 -6.12323e-17
vn 0 -1 -6.12323e-17
vn -1.37486e-24 -1 -6.12323e-17
vn 1.35097e-24 -1 -6.12323e-17
vn -1.76707e-24 -1 -6.12323e-17
vn -6.75879e-24 -1 -6.12323e-17
vn 3.06268e-24 -1 -6.12323e-17
vn -0.247441 -2.53591e-05 -0.968903
vn -0.247441 -2.53708e-05 -0.968903
vn 0.968726 -2.82572e-05 -0.248133
vn 0.968726 -2.85505e-05 -0.248133
vn 0.968726 -2.855e-05 -0.248133
vn 0.247441 2.53468e-05 0.968903
vn 0.247441 2.53733e-05 0.968903
vn -0.961564 2.92219e-05 0.274582
vn -0.961564 2.92255e-05 0.274582
vn -0.961564 2.93883e-05 0.274582
vn -0.961564 2.92292e-05 0.274582
vn -0.247441 -2.53626e-05 -0.968903
vn -0.247441 -2.53602e-05 -0.968903
vn -0.247441 -2.53621e-05 -0.968903
vn 0.961564 -2.92388e-05 -0.274582
vn 0.961564 -2.92323e-05 -0.274582
vn 0.25413 2.5176e-05 0.96717
vn 0.25413 2.51725e-05 0.96717
vn 0.25413 2.5143e-05 0.96717
vn -0.968726 2.85445e-05 0.248133
vn -0.968726 2.85505e-05 0.248133
vn -0.184196 0.97043 -0.156002
vn 0.0766052 0.95087 0.299962
vn 0.0514403 0.978152 0.201425
vn -0.173266 0.713916 -0.678456
vn -0.173266 0.713916 -0.678456
vn 0.0766596 0.950834 0.300062
vn 0.0766052 0.95087 0.299962
vn 0.0514038 0.978175 0.201326
vn 0.0514586 0.978152 0.20142
vn -0.173301 0.713778 -0.678593
vn -0.17323 0.713916 -0.678466
vn 0.288233 0.954016 -0.082307
vn 0.303388 0.949693 -0.0777109
vn -0.138192 0.989773 0.035397
vn -0.138192 0.989773 0.035397

# Mesh 'defaultobject' with 48 faces
g defaultobject
usemtl DefaultMaterial
f  1//1 2//1 3//1
f  2//1 1//1 4//2
f  5//3 3//1 2//1
f  3//1 5//3 6//4
f  7//5 8//5 4//2
f  8//5 7//5 9//6
f  8//5 2//1 4//2
f  2//1 8//5 10//7
f  11//8 1//8 3//8
f  1//8 11//8 12//9
f  13//10 14//10 12//10
f  12//10 4//11 1//11
f  4//11 12//10 14//10
f  4//11 14//10 15//12
f  2//13 16//13 5//13
f  16//13 2//13 17//14
f  16//15 6//15 5//15
f  6//15 16//15 18//16
f  18//16 16//15 19//17
f  18//16 19//17 20//18
f  18//19 3//8 6//19
f  3//8 18//19 11//8
f  15//20 7//20 4//20
f  7//20 15//20 21//21
f  7//22 22//22 9//22
f  22//22 7//22 21//23
f  9//24 23//24 8//24
f  23//24 9//24 22//25
f  8//24 24//26 10//26
f  24//26 8//24 23//24
f  24//27 2//27 10//27
f  2//27 24//27 17//28
f  15//29 14//29 17//29
f  14//30 25//30 17//30
f  25//31 13//31 26//31
f  13//31 25//31 14//31
f  26//32 12//32 11//32
f  12//32 26//32 13//33
f  16//34 25//34 19//34
f  25//30 16//35 17//30
f  19//36 26//36 20//36
f  26//37 19//37 25//37
f  20//38 11//38 18//38
f  11//39 20//39 26//39
f  21//40 23//40 22//40
f  23//41 21//41 15//41
f  24//42 15//42 17//42
f  15//42 24//42 23//43

