# {"id":"BLDG_0003000f00415b0c","idOriginal":"BLDG_0003000f00415b0c","origin":[13.395761856592136,52.55737933743808],"elevation":43.0299987792969}
# Longitude: 13.395761856592136
# Latitude: 52.55737933743808
# Elevation: 43.0299987792969

# File produced by Open Asset Import Library (http://www.assimp.sf.net)
# (assimp v3.1.0)

mtllib BLDG_0003000f00415b0c.obj.mtl

# 10 vertex positions
v  11.0138 6.18957e-16 -10.1083
v  10.2876 -6.82186e-16 11.1409
v  0 0 0
v  21.3014 -6.32291e-17 1.03261
v  11.0143 21.3606 -10.109
v  5.1443 23.4798 5.56973
v  16.1581 23.4798 -4.53861
v  0.000456248 21.3606 -0.00067712
v  10.2881 21.3606 11.1403
v  21.3019 21.3606 1.03193

# 0 UV coordinates

# 16 vertex normals
vn -3.73644e-24 -1 -6.12323e-17
vn 3.73644e-24 -1 -6.12323e-17
vn -0.182013 0.96309 -0.198317
vn -0.182013 0.96309 -0.198317
vn 0.182012 0.96309 0.198316
vn 0.182012 0.96309 0.198316
vn -0.734683 3.72166e-05 0.67841
vn -0.734683 3.71976e-05 0.67841
vn -0.734683 3.69175e-05 0.67841
vn -0.676172 -8.91182e-06 -0.736744
vn -0.676172 -8.92383e-06 -0.736744
vn 0.734683 -3.71838e-05 -0.67841
vn 0.734683 -3.72494e-05 -0.67841
vn 0.734683 -3.69175e-05 -0.67841
vn 0.676172 8.88786e-06 0.736744
vn 0.676172 8.86396e-06 0.736744

# Mesh 'defaultobject' with 16 faces
g defaultobject
usemtl DefaultMaterial
f  1//1 2//1 3//1
f  2//1 1//1 4//2
f  5//3 6//3 7//3
f  6//3 5//3 8//4
f  7//5 9//5 10//5
f  9//5 7//5 6//6
f  9//7 3//7 2//7
f  3//7 9//7 8//8
f  8//8 9//7 6//9
f  8//10 1//10 3//10
f  1//10 8//10 5//11
f  5//12 4//12 1//12
f  4//12 5//12 10//13
f  10//13 5//12 7//14
f  4//15 9//15 2//15
f  9//15 4//15 10//16

