# {"id":"BLDG_0003000e0012398d","idOriginal":"BLDG_0003000e0012398d","origin":[13.339413848444448,52.558684766736924],"elevation":37.3400001525879}
# Longitude: 13.339413848444448
# Latitude: 52.558684766736924
# Elevation: 37.3400001525879

# File produced by Open Asset Import Library (http://www.assimp.sf.net)
# (assimp v3.1.0)

mtllib BLDG_0003000e0012398d.obj.mtl

# 108 vertex positions
v  31.3399 2.0174e-16 -3.29467
v  19.3678 10.1339 9.79239
v  19.3675 -5.99631e-16 9.79271
v  31.3401 10.1339 -3.29499
v  21.2412 7.71831e-16 -12.6049
v  21.2414 10.1339 -12.6053
v  5.56941 10.1339 4.75362
v  5.5692 -2.91095e-16 4.75394
v  -19.4209 1.66 19.9298
v  -15.7868 23.0559 23.459
v  -15.7872 1.66 23.4597
v  -19.4205 23.0559 19.9291
v  -21.0898 1.66 18.3082
v  -21.0893 23.0559 18.3075
v  -30.4681 23.0559 28.0482
v  -30.4686 1.66 28.0488
v  -28.8412 23.0559 29.6281
v  -28.8417 1.66 29.6288
v  -22.0043 23.0559 36.2697
v  -22.0048 1.66 36.2704
v  -21.7155 23.0559 36.5502
v  -21.7159 1.66 36.5509
v  -17.1633 23.0559 40.9816
v  -17.1638 1.66 40.9823
v  -16.0775 23.0559 42.0381
v  -16.078 1.66 42.0388
v  -9.25181 23.0559 48.6576
v  -9.25227 1.66 48.6582
v  -7.59399 23.0559 50.2809
v  -7.59444 1.66 50.2816
v  1.82136 1.66 40.6487
v  1.82182 23.0559 40.648
v  0.161327 1.66 39.0292
v  0.161782 23.0559 39.0285
v  -6.70482 1.66 32.3849
v  -6.70436 23.0559 32.3842
v  -16.078 1.67 42.0388
v  -9.25217 5.9686 48.6581
v  -9.25227 1.67 48.6582
v  -16.0779 5.9686 42.0386
v  -22.1626 5.9686 48.3004
v  -22.1626 1.67 48.3005
v  -15.3421 5.9686 54.9268
v  -15.3422 1.67 54.9269
v  4.1076e-05 1.63 -6.11907e-05
v  5.56941 10.0263 4.75362
v  5.56923 1.63 4.75389
v  0.000219774 10.0263 -0.000327391
v  -6.75152 10.0263 6.90372
v  -6.7517 1.63 6.90398
v  -3.2833 10.0263 10.2954
v  -3.28348 1.63 10.2957
v  5.96373 10.0263 19.3407
v  5.96355 1.63 19.341
v  -6.70464 10.0263 32.3846
v  -6.70482 1.63 32.3849
v  2.90185 10.1339 8.03166
v  2.90163 -4.91817e-16 8.03198
v  11.1556 10.1339 15.4253
v  11.1553 -9.44548e-16 15.4256
v  14.6469 -8.86582e-16 14.479
v  14.6471 10.1339 14.4787
v  28.8062 -0.299999 9.65468
v  24.1389 6.11103 14.4517
v  24.1388 -0.299999 14.4519
v  28.8064 6.11103 9.65448
v  26.4373 -0.299999 7.34474
v  26.4375 6.11103 7.34454
v  36.7585 -0.299999 -3.24795
v  36.7586 6.11103 -3.24815
v  21.8679 -0.299999 -17.6163
v  21.8681 6.11103 -17.6165
v  14.6842 6.11103 -10.2439
v  14.684 -0.299999 -10.2437
v  11.648 6.11103 -7.12689
v  11.6479 -0.299999 -7.12668
v  9.25849 -0.299999 -9.46402
v  9.25862 6.11103 -9.46422
v  0.000136445 6.11103 -0.00020326
v  0 -0.299999 -1.83697e-17
v  5.56933 6.11103 4.75375
v  5.56919 -0.299999 4.75395
v  21.2412 -0.299999 -12.6049
v  21.2413 6.11103 -12.6051
v  31.34 6.11103 -3.29486
v  31.3399 -0.299999 -3.29466
v  19.3677 6.11103 9.79251
v  19.3675 -0.299999 9.79272
v  -12.5508 1.66 26.6211
v  -12.5504 23.0559 26.6204
v  -11.11 1.66 25.1507
v  -11.1095 23.0559 25.15
v  -14.3614 1.66 21.9919
v  -14.3609 23.0559 21.9912
v  0.161505 10.0263 39.0289
v  0.161326 1.63 39.0292
v  24.1077 1.63 14.4838
v  24.1079 10.0263 14.4835
v  24.1388 1.63 14.4518
v  24.139 10.0263 14.4515
v  19.3676 1.63 9.79266
v  19.3678 10.0263 9.79239
v  14.6471 10.0263 14.4787
v  14.647 1.63 14.4789
v  11.1556 10.0263 15.4253
v  11.1554 1.63 15.4256
v  2.90167 1.63 8.03193
v  2.90184 10.0263 8.03167

# 0 UV coordinates

# 97 vertex normals
vn 0.737838 5.68757e-06 0.674977
vn 0.677823 -3.77099e-05 -0.735225
vn -0.742252 -5.46592e-06 -0.670121
vn 0.696786 -3.75781e-05 -0.717279
vn 0.696786 -3.76133e-05 -0.717279
vn 0.696885 -3.76109e-05 -0.717183
vn 0.696885 -3.75487e-05 -0.717183
vn -0.72036 -6.66413e-06 -0.6936
vn -0.72036 -6.72834e-06 -0.6936
vn -0.69667 3.75461e-05 0.717392
vn -0.69667 3.76101e-05 0.717391
vn -0.69679 3.76089e-05 0.717275
vn -0.69679 3.7545e-05 0.717275
vn -0.696604 3.74828e-05 0.717456
vn -0.696609 3.76107e-05 0.717451
vn -0.697539 3.76018e-05 0.716546
vn -0.697539 3.7474e-05 0.716547
vn -0.697383 3.76033e-05 0.716699
vn -0.696177 3.76148e-05 0.71787
vn -0.699646 3.75658e-05 0.714489
vn -0.699647 3.75814e-05 0.714489
vn 0.715122 6.98848e-06 0.699
vn 0.698305 -3.75791e-05 -0.715801
vn 0.695404 -3.76002e-05 -0.718619
vn 0.696177 -3.77994e-05 -0.71787
vn -0.717175 -6.98934e-06 -0.696893
vn -0.696831 3.6964e-05 0.717236
vn -0.696831 3.77551e-05 0.717235
vn 0.717255 6.60003e-06 0.696811
vn 0.717255 7.00619e-06 0.696811
vn 0.649244 -3.79109e-05 -0.76058
vn 0.649244 -3.7973e-05 -0.76058
vn -0.714949 -6.93049e-06 -0.699177
vn -0.714949 -6.95076e-06 -0.699177
vn -0.699179 3.75464e-05 0.714947
vn -0.699265 3.74644e-05 0.714862
vn -0.699265 3.75456e-05 0.714862
vn -0.717357 -6.88006e-06 -0.696706
vn -0.717357 -6.72179e-06 -0.696706
vn -0.775632 -3.50292e-06 -0.631185
vn -0.775632 -3.52116e-06 -0.631185
vn -0.667234 3.78131e-05 0.744848
vn -0.667234 3.78288e-05 0.744848
vn 0.261678 2.50445e-05 0.965155
vn 0.704521 7.52664e-06 0.709684
vn 0.716735 6.71199e-06 0.697345
vn 0.698142 -3.76531e-05 -0.715959
vn 0.716227 6.83952e-06 0.697867
vn 0.694377 -3.77271e-05 -0.719612
vn 0.694377 -3.78421e-05 -0.719612
vn -0.716214 -6.87698e-06 -0.697881
vn -0.716214 -6.87426e-06 -0.697881
vn -0.716343 -6.76346e-06 -0.697748
vn -0.716343 -6.87001e-06 -0.697748
vn 0.699272 -3.7628e-05 -0.714856
vn 0.699272 -3.7628e-05 -0.714856
vn -0.714826 -6.95768e-06 -0.699302
vn -0.714826 -7.05555e-06 -0.699302
vn -0.649244 3.79096e-05 0.76058
vn -0.649244 3.79318e-05 0.76058
vn 0.742252 5.29206e-06 0.670121
vn 0.742252 5.49561e-06 0.670121
vn -0.677823 3.76134e-05 0.735225
vn -0.737838 -5.68192e-06 -0.674977
vn -0.737839 -5.80103e-06 -0.674977
vn -0.698651 3.7635e-05 0.715463
vn -0.698651 3.77414e-05 0.715463
vn 0.702082 -3.75278e-05 -0.712096
vn 0.702082 -3.75278e-05 -0.712096
vn 0.714251 7.02577e-06 0.69989
vn 0.71425 6.92834e-06 0.69989
vn 0.69681 -3.75411e-05 -0.717255
vn 0.69681 -3.75804e-05 -0.717255
vn -0.717283 -6.86262e-06 -0.696782
vn -0.695404 3.76542e-05 0.718619
vn -0.695404 3.7664e-05 0.718619
vn 0.715787 7.20747e-06 0.698319
vn 0.715787 6.7835e-06 0.698319
vn 0.716731 6.79375e-06 0.69735
vn 0.716752 6.95551e-06 0.697328
vn 0.698651 -3.74361e-05 -0.715463
vn 0.698651 -3.75724e-05 -0.715463
vn -0.704521 -7.60615e-06 -0.709683
vn -0.70452 -7.44553e-06 -0.709684
vn -0.261679 -2.49975e-05 -0.965155
vn -0.261679 -2.51368e-05 -0.965155
vn 0.667234 -3.78434e-05 -0.744848
vn 0.667234 -3.77614e-05 -0.744848
vn 0.775632 3.52065e-06 0.631185
vn 0.775632 3.49378e-06 0.631185
vn 0 1 0
vn 0 -1 -6.12323e-17
vn 5.31903e-24 -1 -6.12323e-17
vn -2.39413e-24 -1 -6.12323e-17
vn 3.80181e-24 -1 -6.12323e-17
vn 1.25938e-23 -1 -6.12323e-17
vn -0 -1 0

# Mesh 'defaultobject' with 196 faces
g defaultobject
usemtl DefaultMaterial
f  1//1 2//1 3//1
f  2//1 1//1 4//1
f  5//2 4//2 1//2
f  4//2 5//2 6//2
f  7//3 5//3 8//3
f  5//3 7//3 6//3
f  9//4 10//4 11//4
f  10//4 9//4 12//5
f  13//6 12//6 9//6
f  12//6 13//6 14//7
f  15//8 13//8 16//8
f  13//8 15//8 14//9
f  17//10 16//10 18//10
f  16//10 17//10 15//11
f  19//12 18//12 20//12
f  18//12 19//12 17//13
f  21//14 20//14 22//14
f  20//14 21//14 19//15
f  23//16 22//16 24//16
f  22//16 23//16 21//17
f  25//18 24//18 26//18
f  24//18 25//18 23//18
f  27//19 26//19 28//19
f  26//19 27//19 25//19
f  29//20 28//20 30//20
f  28//20 29//20 27//21
f  31//22 29//22 30//22
f  29//22 31//22 32//22
f  33//23 32//23 31//23
f  32//23 33//23 34//23
f  35//24 34//24 33//24
f  34//24 35//24 36//24
f  37//25 38//25 39//25
f  38//25 37//25 40//25
f  41//26 37//26 42//26
f  37//26 41//26 40//26
f  43//27 42//27 44//27
f  42//27 43//27 41//28
f  39//29 43//29 44//29
f  43//29 39//29 38//30
f  45//31 46//31 47//31
f  46//31 45//31 48//32
f  49//33 45//33 50//33
f  45//33 49//33 48//34
f  51//35 50//35 52//35
f  50//35 51//35 49//35
f  53//36 52//36 54//36
f  52//36 53//36 51//37
f  55//38 54//38 56//38
f  54//38 55//38 53//39
f  57//40 8//40 58//40
f  8//40 57//40 7//41
f  59//42 58//42 60//42
f  58//42 59//42 57//43
f  61//44 59//44 60//44
f  59//44 61//44 62//44
f  3//45 62//45 61//45
f  62//45 3//45 2//45
f  63//46 64//46 65//46
f  64//46 63//46 66//46
f  67//47 66//47 63//47
f  66//47 67//47 68//47
f  69//48 68//48 67//48
f  68//48 69//48 70//48
f  71//49 70//49 69//49
f  70//49 71//49 72//50
f  73//51 71//51 74//51
f  71//51 73//51 72//52
f  75//53 74//53 76//53
f  74//53 75//53 73//54
f  77//55 75//55 76//55
f  75//55 77//55 78//56
f  79//57 77//57 80//57
f  77//57 79//57 78//58
f  81//59 80//59 82//59
f  80//59 81//59 79//60
f  83//61 81//61 82//61
f  81//61 83//61 84//62
f  85//63 83//63 86//63
f  83//63 85//63 84//63
f  87//64 86//64 88//64
f  86//64 87//64 85//65
f  64//66 88//66 65//66
f  88//66 64//66 87//67
f  89//68 36//68 35//68
f  36//68 89//68 90//69
f  91//70 90//70 89//70
f  90//70 91//70 92//71
f  93//72 92//72 91//72
f  92//72 93//72 94//73
f  10//74 93//74 11//74
f  93//74 10//74 94//74
f  95//75 56//75 96//75
f  56//75 95//75 55//76
f  97//77 95//77 96//77
f  95//77 97//77 98//78
f  99//79 98//79 97//79
f  98//80 99//80 100//80
f  101//81 100//81 99//81
f  100//81 101//81 102//82
f  103//83 101//83 104//83
f  101//83 103//83 102//84
f  105//85 104//85 106//85
f  104//85 105//85 103//86
f  107//87 105//87 106//87
f  105//87 107//87 108//88
f  47//89 108//89 107//89
f  108//89 47//89 46//90
f  62//91 57//91 59//91
f  57//91 62//91 2//91
f  57//91 2//91 4//91
f  57//91 4//91 7//91
f  7//91 4//91 6//91
f  66//91 87//91 64//91
f  87//91 66//91 68//91
f  87//91 68//91 85//91
f  85//91 68//91 70//91
f  85//91 70//91 72//91
f  85//91 72//91 84//91
f  84//91 79//91 81//91
f  79//91 84//91 75//91
f  75//91 84//91 73//91
f  73//91 84//91 72//91
f  78//91 79//91 75//91
f  32//91 27//91 29//91
f  27//91 32//91 34//91
f  27//91 34//91 25//91
f  25//91 34//91 36//91
f  25//91 36//91 23//91
f  23//91 36//91 90//91
f  23//91 90//91 21//91
f  21//91 90//91 19//91
f  94//91 90//91 92//91
f  90//91 94//91 19//91
f  19//91 94//91 10//91
f  10//91 17//91 19//91
f  17//91 10//91 12//91
f  17//91 12//91 15//91
f  15//91 12//91 14//91
f  40//91 43//91 38//91
f  43//91 40//91 41//91
f  49//91 46//91 48//91
f  46//91 49//91 108//91
f  108//91 49//91 51//91
f  108//91 51//91 105//91
f  105//91 51//91 53//91
f  103//91 100//91 102//91
f  100//91 103//91 105//91
f  100//91 105//91 98//91
f  98//91 105//91 95//91
f  95//91 105//91 53//91
f  95//91 53//91 55//91
f  3//92 5//92 1//92
f  5//92 3//92 8//93
f  8//93 3//92 61//94
f  8//93 61//94 58//95
f  58//95 61//94 60//96
f  76//97 80//97 77//97
f  65//97 88//97 63//97
f  67//97 63//97 88//97
f  86//97 67//97 88//97
f  69//97 67//97 86//97
f  71//97 69//97 86//97
f  83//97 71//97 86//97
f  82//97 80//97 83//97
f  76//97 83//97 80//97
f  74//97 83//97 76//97
f  71//97 83//97 74//97
f  91//97 11//97 93//97
f  9//97 16//97 13//97
f  16//97 9//97 11//97
f  16//97 11//97 91//97
f  16//97 91//97 89//97
f  16//97 89//97 35//97
f  16//97 35//97 33//97
f  16//97 33//97 18//97
f  18//97 33//97 20//97
f  20//97 33//97 31//97
f  20//97 31//97 22//97
f  22//97 31//97 28//97
f  28//97 31//97 30//97
f  22//97 28//97 24//97
f  24//97 28//97 26//97
f  37//97 44//97 42//97
f  44//97 37//97 39//97
f  47//97 50//97 45//97
f  50//97 47//97 52//97
f  52//97 47//97 107//97
f  52//97 107//97 54//97
f  54//97 107//97 106//97
f  54//97 106//97 56//97
f  56//97 106//97 96//97
f  96//97 106//97 104//97
f  96//97 104//97 101//97
f  96//97 101//97 99//97
f  96//97 99//97 97//97

