# {"id":"BLDG_00030008004eca6a","idOriginal":"BLDG_00030008004eca6a","origin":[13.408034092141039,52.51216241950111],"elevation":33.25}
# Longitude: 13.408034092141039
# Latitude: 52.51216241950111
# Elevation: 33.25

# File produced by Open Asset Import Library (http://www.assimp.sf.net)
# (assimp v3.1.0)

mtllib BLDG_00030008004eca6a.obj.mtl

# 10 vertex positions
v  14.0753 5.18928e-16 -8.47474
v  29.8116 23.9524 12.6134
v  29.8111 -7.72393e-16 12.6141
v  14.0759 23.9524 -8.4755
v  15.7923 23.9524 21.1633
v  15.7918 -1.29592e-15 21.164
v  0 0 0
v  0.000511949 23.9524 -0.000756989
v  7.89645 25.5596 10.5812
v  10.672 25.5596 8.89927

# 0 UV coordinates

# 16 vertex normals
vn 0.801473 -3.60738e-05 -0.59803
vn 0.801473 -3.61223e-05 -0.59803
vn 0.520676 1.57896e-05 0.853754
vn 0.520676 1.58672e-05 0.853754
vn -0.801473 3.59943e-05 0.59803
vn -0.801473 3.60304e-05 0.59803
vn -0.801473 3.59534e-05 0.59803
vn -0.515817 -1.60501e-05 -0.856699
vn -0.515817 -1.60545e-05 -0.856699
vn 0.0974618 0.992579 -0.0727225
vn 0.0629101 0.992605 0.103816
vn 0.0632317 0.992599 0.103681
vn -0.0626324 0.992601 -0.104024
vn -0.0631312 0.992553 -0.104181
vn 0 -1 -6.12323e-17
vn 0 -1 -6.12323e-17

# Mesh 'defaultobject' with 16 faces
g defaultobject
usemtl DefaultMaterial
f  1//1 2//1 3//1
f  2//1 1//1 4//2
f  3//3 5//3 6//3
f  5//3 3//3 2//4
f  5//5 7//5 6//5
f  7//5 5//5 8//6
f  8//6 5//5 9//7
f  8//8 1//8 7//8
f  1//8 8//8 4//9
f  10//10 2//10 4//10
f  5//11 10//11 9//11
f  10//12 5//12 2//12
f  9//13 4//13 8//13
f  4//14 9//14 10//14
f  6//15 1//15 3//15
f  1//15 6//15 7//16

