# {"id":"BLDG_0003000a003d163e","idOriginal":"BLDG_0003000a003d163e","origin":[13.357209588211369,52.53964416622692],"elevation":34.810001373291}
# Longitude: 13.357209588211369
# Latitude: 52.53964416622692
# Elevation: 34.810001373291

# File produced by Open Asset Import Library (http://www.assimp.sf.net)
# (assimp v3.1.0)

mtllib BLDG_0003000a003d163e.obj.mtl

# 80 vertex positions
v  8.57461 23.9595 -8.59059
v  9.00838 23.9595 -8.58233
v  8.91 23.9595 -8.76852
v  9.22869 23.9595 -7.33068
v  11.754 23.9595 -10.2731
v  12.8778 23.9595 -8.93775
v  12.0894 23.9595 -10.451
v  11.8518 23.9595 -10.0876
v  8.01872 23.9595 -6.70373
v  8.19128 23.9595 -6.37454
v  15.5841 23.9595 -10.3284
v  16.749 23.9595 -8.74812
v  15.8627 23.9595 -10.472
v  5.19183 23.9595 -4.81431
v  6.036 23.9595 -3.1846
v  22.516 23.9595 -11.7723
v  28.5481 23.9595 -0.990603
v  22.818 23.9595 -11.9307
v  3.60023 23.9595 -1.89988
v  0.000510478 23.9595 -0.000758651
v  5.73791 23.9595 10.9407
v  28.2091 23.9595 -0.812743
v  22.1149 23.9595 2.37487
v  22.8701 23.9595 1.98033
v  21.1576 23.9595 2.87602
v  13.0489 23.9595 7.11713
v  20.6191 23.9595 3.495
v  13.8788 23.9595 7.02551
v  20.0405 23.9595 4.07659
v  14.6995 23.9595 6.87634
v  19.4235 23.9595 4.61779
v  15.5084 23.9595 6.67081
v  18.8797 23.9595 5.03709
v  16.1433 23.9595 6.46684
v  18.3139 23.9595 5.42546
v  16.7655 23.9595 6.22846
v  17.7261 23.9595 5.78107
v  17.3743 23.9595 5.95564
v  17.4923 23.9595 6.1367
v  17.8286 23.9595 5.9771
v  8.19077 3.90282e-16 -6.37378
v  6.03549 1.94954e-16 -3.18384
v  5.19132 2.94745e-16 -4.81355
v  9.22818 4.48828e-16 -7.32992
v  8.01821 4.10439e-16 -6.70297
v  8.90949 5.3687e-16 -8.76776
v  8.5741 5.25975e-16 -8.58983
v  9.00787 5.2547e-16 -8.58157
v  11.8512 6.17638e-16 -10.0868
v  12.0889 6.39895e-16 -10.4503
v  11.7535 6.29e-16 -10.2724
v  3.59972 1.16288e-16 -1.89912
v  5.7374 -6.69972e-16 10.9415
v  0 0 0
v  12.8773 5.47233e-16 -8.93699
v  13.0484 -4.35845e-16 7.11789
v  15.5836 6.32385e-16 -10.3276
v  15.8622 6.41179e-16 -10.4712
v  16.7485 5.35621e-16 -8.74736
v  22.5155 7.20799e-16 -11.7715
v  13.8783 -4.30235e-16 7.02627
v  14.699 -4.21101e-16 6.8771
v  15.5079 -4.08516e-16 6.67157
v  16.1428 -3.96026e-16 6.4676
v  16.765 -3.81429e-16 6.22921
v  22.8175 7.30499e-16 -11.93
v  17.3738 -3.64724e-16 5.9564
v  21.1571 -1.76152e-16 2.87678
v  22.1144 -1.45465e-16 2.37563
v  28.5476 6.06105e-17 -0.989844
v  17.7256 -3.54035e-16 5.78183
v  17.4918 -3.75811e-16 6.13746
v  18.3134 -3.3226e-16 5.42622
v  18.8792 -3.08479e-16 5.03785
v  19.423 -2.82804e-16 4.61855
v  20.04 -2.49666e-16 4.07735
v  20.6186 -2.14053e-16 3.49576
v  22.8696 -1.21307e-16 1.98109
v  28.2086 4.97197e-17 -0.811984
v  17.8281 -3.66038e-16 5.97786

# 0 UV coordinates

# 96 vertex normals
vn -0 1 0
vn 1.70626e-23 -1 -6.12323e-17
vn -6.53269e-23 -1 -6.12324e-17
vn 1.59621e-22 -1 -6.12324e-17
vn 0 -1 -6.12324e-17
vn -1.70091e-23 -1 -6.12324e-17
vn 2.441e-22 -1 -6.12322e-17
vn -2.10569e-24 -1 -6.12323e-17
vn -1.27965e-22 -1 -6.12324e-17
vn 1.43527e-23 -1 -6.12323e-17
vn 0 -1 -6.12323e-17
vn 0 -1 -6.12324e-17
vn -8.28792e-23 -1 -6.12324e-17
vn 2.10955e-23 -1 -6.12323e-17
vn -3.35128e-23 -1 -6.12324e-17
vn 6.55283e-24 -1 -6.12323e-17
vn -1.96386e-24 -1 -6.12323e-17
vn -7.72396e-24 -1 -6.12323e-17
vn 1.34656e-23 -1 -6.12323e-17
vn 0 -1 -6.12323e-17
vn 5.62959e-24 -1 -6.12323e-17
vn 0 -1 -6.12323e-17
vn 3.9676e-24 -1 -6.12323e-17
vn -1.25154e-22 -1 -6.12325e-17
vn -6.37805e-23 -1 -6.12324e-17
vn 9.50662e-23 -1 -6.12322e-17
vn 2.15292e-22 -1 -6.12321e-17
vn -1.6535e-22 -1 -6.12325e-17
vn 2.43106e-22 -1 -6.12321e-17
vn -4.41161e-22 -1 -6.12327e-17
vn -2.0264e-20 -1 -6.12661e-17
vn 0 -1 -6.12579e-17
vn 5.02724e-24 -1 -6.12323e-17
vn -0.458196 -1.83695e-05 -0.888851
vn -0.457043 -1.843e-05 -0.889444
vn -0.457043 -1.84128e-05 -0.889444
vn 0.88686 -3.35612e-05 -0.462039
vn 0.886859 -3.35262e-05 -0.462039
vn -0.468645 -1.7974e-05 -0.883387
vn -0.468646 -1.80091e-05 -0.883386
vn -0.884693 3.36096e-05 0.466174
vn -0.884692 3.35911e-05 0.466176
vn -0.467864 -1.80389e-05 -0.8838
vn 0.884158 -3.36303e-05 -0.467187
vn -0.468645 -1.79554e-05 -0.883387
vn -0.468648 -1.80091e-05 -0.883385
vn -0.887527 3.34891e-05 0.460756
vn -0.887527 3.35152e-05 0.460755
vn -0.460063 -1.83168e-05 -0.887886
vn -0.885693 3.35613e-05 0.464271
vn -0.461474 -1.82636e-05 -0.887154
vn -0.887947 3.34901e-05 0.459945
vn -0.887947 3.34724e-05 0.459945
vn -0.466525 -1.80676e-05 -0.884508
vn -0.466525 -1.8063e-05 -0.884508
vn -0.466618 -1.80637e-05 -0.884459
vn -0.466618 -1.80641e-05 -0.884459
vn -0.885627 3.35547e-05 0.464398
vn -0.885627 3.35737e-05 0.464398
vn 0.463437 1.81687e-05 0.88613
vn 0.463437 1.81687e-05 0.88613
vn 0.109729 2.91316e-05 0.993961
vn 0.109729 2.91357e-05 0.993961
vn 0.178836 2.7345e-05 0.983879
vn 0.246268 2.54448e-05 0.969202
vn 0.305844 2.36344e-05 0.952082
vn 0.305843 2.36222e-05 0.952082
vn 0.357789 2.19342e-05 0.933802
vn 0.408948 2.01704e-05 0.912558
vn 0.408948 2.01518e-05 0.912558
vn -0.83778 3.50958e-05 0.546008
vn -0.837784 3.51515e-05 0.546002
vn 0.428792 1.94912e-05 0.903403
vn 0.42879 1.94568e-05 0.903404
vn 0.886235 -3.35756e-05 -0.463235
vn 0.886232 -3.35051e-05 -0.463242
vn 0.51764 1.60892e-05 0.855599
vn 0.565906 1.40774e-05 0.82447
vn 0.565904 1.40329e-05 0.824471
vn 0.610604 1.20482e-05 0.791936
vn 0.659449 9.7335e-06 0.751749
vn 0.708897 7.20918e-06 0.705312
vn 0.708898 7.26529e-06 0.705311
vn 0.754465 4.7455e-06 0.65634
vn 0.46378 1.81944e-05 0.885951
vn 0.463779 1.81575e-05 0.885951
vn 0.463074 1.81837e-05 0.88632
vn 0.463544 1.81662e-05 0.886074
vn 0.463544 1.82058e-05 0.886074
vn 0.464542 1.81659e-05 0.885551
vn 0.46454 1.81289e-05 0.885552
vn 0.885846 -3.36093e-05 -0.46398
vn -0.464467 -1.81495e-05 -0.88559
vn -0.464414 -1.81515e-05 -0.885618
vn 0.889341 -3.34608e-05 -0.457245
vn 0.889341 -3.34069e-05 -0.457245

# Mesh 'defaultobject' with 156 faces
g defaultobject
usemtl DefaultMaterial
f  1//1 2//1 3//1
f  2//1 1//1 4//1
f  5//1 6//1 7//1
f  6//1 5//1 8//1
f  6//1 8//1 2//1
f  6//1 2//1 4//1
f  6//1 4//1 9//1
f  6//1 9//1 10//1
f  11//1 12//1 13//1
f  12//1 11//1 6//1
f  12//1 6//1 10//1
f  12//1 10//1 14//1
f  12//1 14//1 15//1
f  16//1 17//1 18//1
f  17//1 16//1 12//1
f  17//1 12//1 15//1
f  17//1 15//1 19//1
f  17//1 19//1 20//1
f  17//1 20//1 21//1
f  17//1 21//1 22//1
f  22//1 21//1 23//1
f  22//1 23//1 24//1
f  23//1 21//1 25//1
f  25//1 21//1 26//1
f  26//1 27//1 25//1
f  27//1 26//1 28//1
f  27//1 28//1 29//1
f  29//1 28//1 30//1
f  29//1 30//1 31//1
f  31//1 30//1 32//1
f  31//1 32//1 33//1
f  33//1 32//1 34//1
f  33//1 34//1 35//1
f  35//1 34//1 36//1
f  35//1 36//1 37//1
f  37//1 36//1 38//1
f  37//1 38//1 39//1
f  37//1 39//1 40//1
f  41//2 42//2 43//2
f  44//3 41//2 45//3
f  46//4 44//3 47//4
f  44//3 46//4 48//5
f  44//3 48//5 49//6
f  50//7 49//6 51//7
f  52//8 53//8 54//8
f  53//8 52//8 42//2
f  53//8 42//2 41//2
f  53//8 41//2 44//3
f  53//8 44//3 49//6
f  53//8 49//6 50//7
f  53//8 50//7 55//9
f  53//8 55//9 56//10
f  56//10 55//9 57//11
f  56//10 57//11 58//12
f  56//10 58//12 59//13
f  56//10 59//13 60//14
f  56//10 60//14 61//15
f  61//15 60//14 62//16
f  62//16 60//14 63//17
f  63//17 60//14 64//18
f  64//18 60//14 65//19
f  65//19 60//14 66//20
f  65//19 66//20 67//21
f  67//21 66//20 68//22
f  68//22 66//20 69//23
f  69//23 66//20 70//11
f  67//21 68//22 71//24
f  67//21 71//24 72//25
f  71//24 68//22 73//26
f  73//26 68//22 74//27
f  74//27 68//22 75//28
f  75//28 68//22 76//29
f  76//29 68//22 77//30
f  69//23 70//11 78//31
f  78//31 70//11 79//32
f  80//33 72//25 71//24
f  11//34 58//34 57//34
f  58//34 11//34 13//34
f  6//35 57//35 55//35
f  57//35 6//35 11//36
f  50//37 6//37 55//37
f  6//37 50//37 7//38
f  5//39 50//39 51//39
f  50//39 5//39 7//40
f  8//41 51//41 49//41
f  51//41 8//41 5//42
f  2//43 49//43 48//43
f  49//43 2//43 8//43
f  46//44 2//44 48//44
f  2//44 46//44 3//44
f  1//45 46//45 47//45
f  46//45 1//45 3//46
f  4//47 47//47 44//47
f  47//47 4//47 1//48
f  9//49 44//49 45//49
f  44//49 9//49 4//49
f  10//50 45//50 41//50
f  45//50 10//50 9//50
f  14//51 41//51 43//51
f  41//51 14//51 10//51
f  15//52 43//52 42//52
f  43//52 15//52 14//53
f  19//54 42//54 52//54
f  42//54 19//54 15//55
f  20//56 52//56 54//56
f  52//56 20//56 19//57
f  21//58 54//58 53//58
f  54//58 21//58 20//59
f  56//60 21//60 53//60
f  21//60 56//60 26//61
f  61//62 26//62 56//62
f  26//62 61//62 28//63
f  62//64 28//64 61//64
f  28//64 62//64 30//64
f  63//65 30//65 62//65
f  30//65 63//65 32//65
f  64//66 32//66 63//66
f  32//66 64//66 34//67
f  65//68 34//68 64//68
f  34//68 65//68 36//68
f  67//69 36//69 65//69
f  36//69 67//69 38//70
f  39//71 67//71 72//71
f  67//71 39//71 38//72
f  80//73 39//73 72//73
f  39//73 80//73 40//74
f  71//75 40//75 80//75
f  40//75 71//75 37//76
f  73//77 37//77 71//77
f  37//77 73//77 35//77
f  74//78 35//78 73//78
f  35//78 74//78 33//79
f  75//80 33//80 74//80
f  33//80 75//80 31//80
f  76//81 31//81 75//81
f  31//81 76//81 29//81
f  77//82 29//82 76//82
f  29//82 77//82 27//83
f  68//84 27//84 77//84
f  27//84 68//84 25//84
f  69//85 25//85 68//85
f  25//85 69//85 23//86
f  78//87 23//87 69//87
f  23//87 78//87 24//87
f  79//88 24//88 78//88
f  24//88 79//88 22//89
f  70//90 22//90 79//90
f  22//90 70//90 17//91
f  66//92 17//92 70//92
f  17//92 66//92 18//92
f  16//93 66//93 60//93
f  66//93 16//93 18//93
f  12//94 60//94 59//94
f  60//94 12//94 16//94
f  58//95 12//95 59//95
f  12//95 58//95 13//96

