# {"id":"BLDG_0003000a000836f3","idOriginal":"BLDG_0003000a000836f3","origin":[13.371625426096976,52.55238830932819],"elevation":38.8699989318848}
# Longitude: 13.371625426096976
# Latitude: 52.55238830932819
# Elevation: 38.8699989318848

# File produced by Open Asset Import Library (http://www.assimp.sf.net)
# (assimp v3.1.0)

mtllib BLDG_0003000a000836f3.obj.mtl

# 12 vertex positions
v  6.44262 16.4026 8.96414
v  3.22114 -2.74464e-16 4.48233
v  6.44227 -5.48927e-16 8.96466
v  0 0 0
v  0.000349805 16.4026 -0.0005198
v  3.22151 17.6259 4.48177
v  13.4186 16.4026 -9.73767
v  16.6394 3.21765e-16 -5.25482
v  13.4183 5.96229e-16 -9.73715
v  19.8605 4.73013e-17 -0.772489
v  19.8609 16.4026 -0.773009
v  16.6398 17.6259 -5.25538

# 0 UV coordinates

# 20 vertex normals
vn -0.812062 3.5796e-05 0.583572
vn -0.812062 3.57929e-05 0.583572
vn -0.812062 3.58117e-05 0.583571
vn -0.812062 3.58727e-05 0.583572
vn 0.812062 -3.58196e-05 -0.583572
vn 0.812062 -3.57507e-05 -0.583571
vn 0.812062 -3.57745e-05 -0.583572
vn 0.812062 -3.61552e-05 -0.583572
vn -0.58732 -1.31233e-05 -0.809355
vn -0.58732 -1.3114e-05 -0.809355
vn 0.58732 1.31301e-05 0.809355
vn 0.58732 1.31301e-05 0.809355
vn 1.15702e-24 -1 -6.12323e-17
vn 0 -1 -6.12323e-17
vn 2.89256e-25 -1 -6.12323e-17
vn -3.47107e-24 -1 -6.12324e-17
vn -0.127089 0.976308 -0.175134
vn -0.127089 0.976308 -0.175134
vn 0.127088 0.976308 0.175133
vn 0.127088 0.976308 0.175133

# Mesh 'defaultobject' with 20 faces
g defaultobject
usemtl DefaultMaterial
f  1//1 2//1 3//1
f  2//1 1//1 4//2
f  4//2 1//1 5//3
f  5//3 1//1 6//4
f  7//5 8//5 9//5
f  8//5 7//5 10//6
f  10//6 7//5 11//7
f  11//7 7//5 12//8
f  5//9 9//9 4//9
f  9//9 5//9 7//10
f  10//11 1//11 3//11
f  1//11 10//11 11//12
f  2//13 10//13 3//13
f  10//13 2//13 4//14
f  10//13 4//14 8//15
f  8//15 4//14 9//16
f  12//17 5//17 6//17
f  5//17 12//17 7//18
f  11//19 6//19 1//19
f  6//19 11//19 12//20

