# {"id":"BLDG_00030000001d7694","idOriginal":"BLDG_00030000001d7694","origin":[13.364517725618315,52.548756398442634],"elevation":35.7099990844727}
# Longitude: 13.364517725618315
# Latitude: 52.548756398442634
# Elevation: 35.7099990844727

# File produced by Open Asset Import Library (http://www.assimp.sf.net)
# (assimp v3.1.0)

mtllib BLDG_00030000001d7694.obj.mtl

# 22 vertex positions
v  4.48586 3.786 -4.55535
v  5.41523 3.786 -0.443969
v  7.05643 3.786 -1.98762
v  4.9628 3.786 5.11392
v  0.59849 3.786 0.721205
v  8.0703e-05 3.786 -0.000119951
v  6.86094 3.786 -0.117483
v  10.2445 3.786 9.72413
v  13.347 3.786 6.56543
v  9.83633 3.786 10.1363
v  6.36877 3.786 0.409074
v  13.3469 -4.02024e-16 6.56555
v  6.36869 -2.50559e-17 0.409194
v  6.86085 7.18641e-18 -0.117363
v  4.96272 -3.13145e-16 5.11404
v  9.83625 -6.20678e-16 10.1364
v  10.2445 -5.95439e-16 9.72425
v  7.05635 1.21699e-16 -1.9875
v  0 0 0
v  4.48578 2.78927e-16 -4.55523
v  0.59841 -4.41684e-17 0.721325
v  5.41515 2.71779e-17 -0.44385

# 0 UV coordinates

# 28 vertex normals
vn 0 1 0
vn 0 -1 -6.12323e-17
vn 0 -1 -6.12323e-17
vn 0 -1 -6.12323e-17
vn -3.75947e-21 -1 -6.12356e-17
vn -1.13958e-24 -1 -6.12323e-17
vn -1.05386e-24 -1 -6.12323e-17
vn 0.666741 -3.78013e-05 -0.74529
vn 0.666741 -3.78136e-05 -0.74529
vn 0.685129 8.4968e-06 0.728422
vn 0.706715 -3.74724e-05 -0.707498
vn 0.706715 -3.75071e-05 -0.707498
vn -0.712517 -7.04217e-06 -0.701655
vn -0.712517 -7.10363e-06 -0.701655
vn -0.769633 3.66305e-05 0.638486
vn -0.769633 3.66346e-05 0.638486
vn -0.709397 3.74694e-05 0.704809
vn -0.709397 3.74473e-05 0.704809
vn -0.717663 3.74685e-05 0.69639
vn -0.717663 3.73781e-05 0.69639
vn 0.710539 7.1238e-06 0.703658
vn 0.710538 6.94741e-06 0.703659
vn 0.713427 6.82717e-06 0.70073
vn 0.713427 7.16853e-06 0.70073
vn 0.717595 -3.72179e-05 -0.696461
vn 0.717595 -3.74343e-05 -0.696461
vn -0.730563 -6.07952e-06 -0.682845
vn -0.730563 -5.99156e-06 -0.682845

# Mesh 'defaultobject' with 40 faces
g defaultobject
usemtl DefaultMaterial
f  1//1 2//1 3//1
f  2//1 1//1 4//1
f  4//1 1//1 5//1
f  5//1 1//1 6//1
f  7//1 8//1 9//1
f  8//1 7//1 10//1
f  10//1 7//1 4//1
f  4//1 7//1 11//1
f  4//1 11//1 2//1
f  12//2 13//2 14//2
f  13//2 12//2 15//3
f  15//3 12//2 16//4
f  16//4 12//2 17//5
f  18//6 19//6 20//6
f  19//6 18//6 21//7
f  21//7 18//6 22//3
f  21//7 22//3 15//3
f  15//3 22//3 13//2
f  22//8 11//8 13//8
f  11//8 22//8 2//9
f  18//10 2//10 22//10
f  2//10 18//10 3//10
f  20//11 3//11 18//11
f  3//11 20//11 1//12
f  6//13 20//13 19//13
f  20//13 6//13 1//14
f  5//15 19//15 21//15
f  19//15 5//15 6//16
f  4//17 21//17 15//17
f  21//17 4//17 5//18
f  10//19 15//19 16//19
f  15//19 10//19 4//20
f  17//21 10//21 16//21
f  10//21 17//21 8//22
f  12//23 8//23 17//23
f  8//23 12//23 9//24
f  14//25 9//25 12//25
f  9//25 14//25 7//26
f  11//27 14//27 13//27
f  14//27 11//27 7//28

