# File produced by Open Asset Import Library (http://www.assimp.sf.net)
# (assimp v3.1.0)

mtllib BLDG_0003000f00248a98.obj.mtl

# 101 vertex positions
v  1.24979 20.81 2.91308
v  2.41672 20 18.4443
v  2.41674 20.81 18.4442
v  2.4163 -1.12942e-15 18.4449
v  1.24977 20 2.91311
v  1.24934 -1.78415e-16 2.91374
v  1.96578 -7.62277e-16 12.4489
v  1.69986 -5.45563e-16 8.90972
v  2.64146 20.81 21.435
v  3.89927 20 38.1757
v  3.89929 20.81 38.1757
v  3.89885 -2.33763e-15 38.1764
v  2.64144 20 21.4351
v  2.64101 -1.31256e-15 21.4357
v  3.44833 -1.97048e-15 32.1804
v  3.09153 -1.67971e-15 27.4317
v  0.892785 14.7056 -1.83636
v  6.84627 1.39808e-16 -2.28324
v  0.892471 1.12416e-16 -1.83589
v  0.892915 20.81 -1.83655
v  5.88999 25.7804 -2.21216
v  6.25154 26.14 -2.23934
v  11.6099 20.81 -2.64178
v  10.8415 1.58189e-16 -2.58342
v  11.6095 1.61722e-16 -2.64112
v  11.6099 20 -2.64176
v  15.1522 20.81 44.503
v  12.026 20 2.89625
v  12.7482 20 12.5267
v  13.3759 20 20.8626
v  14.2081 20 31.9676
v  14.8585 20 40.5941
v  14.9339 20 41.5978
v  14.9338 16.5164 41.5979
v  14.9335 -2.54717e-15 41.5984
v  15.1519 6.43348 44.5034
v  15.1518 -2.72506e-15 44.5036
v  15.1522 20 44.503
v  12.0256 -1.77383e-16 2.89688
v  12.026 18.0717 2.89631
v  14.3864 -2.72858e-15 44.5611
v  4.43489 6.43556 45.3086
v  4.43476 -2.77437e-15 45.3088
v  4.4352 20.81 45.3082
v  9.79382 26.14 44.9054
v  49.3095 20 39.0135
v  49.309 -2.3889e-15 39.0137
v  63.2832 22.0751 37.9636
v  49.3096 22.0751 39.0135
v  63.2831 20 37.9636
v  63.2828 -2.32456e-15 37.963
v  46.4016 20 0.311481
v  45.9695 3.32708e-16 -5.43353
v  46.4012 -1.91114e-17 0.312114
v  48.5859 20 29.3827
v  47.1247 -6.08799e-16 9.94244
v  48.5855 -1.79921e-15 29.3833
v  45.9699 22.0751 -5.43423
v  45.9699 20 -5.43417
v  47.1252 20 9.94181
v  59.9436 22.0751 -6.48415
v  62.559 -1.73487e-15 28.3326
v  59.9431 3.96997e-16 -6.48345
v  59.9435 20 -6.48408
v  19.7989 -1.41593e-16 2.31239
v  12.8403 20 2.83502
v  1.02462 4.71756e-18 -0.0770437
v  1.02505 20 -0.0776761
v  1.02507 20.81 -0.0777017
v  4.12399 20 41.1665
v  4.12356 -2.52076e-15 41.1671
v  4.12401 20.81 41.1665
v  0.224884 -1.83132e-16 2.99077
v  0.000444002 20.81 -0.00065808
v  0 0 0
v  0.225328 20.81 2.99011
v  0.112997 26 1.49456
v  1.60858 -1.31731e-15 21.5133
v  1.38414 20.81 18.5219
v  1.3837 -1.13418e-15 18.5225
v  1.60903 20.81 21.5127
v  1.4967 26 20.0171
v  3.09917 -2.52548e-15 41.2442
v  2.87473 20.81 38.2527
v  2.87429 -2.34235e-15 38.2534
v  3.09962 20.81 41.2435
v  2.98729 26 39.748
v  20.523 -7.31278e-16 11.9427
v  21.9853 20 31.3829
v  21.9848 -1.92169e-15 31.3835
v  20.5235 20 11.942
v  9.36722 26.14 39.2277
v  6.12988 25.7805 0.978557
v  6.13939 25.7805 1.10502
v  7.52244 25.7814 19.5007
v  7.53191 25.7814 19.6267
v  9.00594 25.7823 39.2323
v  9.01537 25.7823 39.3578
v  6.09456 26 1.0448
v  7.47826 26 19.5673
v  8.96885 26 39.2982

# 0 UV coordinates

# 166 vertex normals
vn -0.997189 2.34342e-05 0.0749252
vn -0.997189 2.36508e-05 0.0749252
vn -0.997189 2.35854e-05 0.0749251
vn -0.997189 2.36537e-05 0.0749252
vn 8.88178e-16 1 -5.55112e-17
vn nan nan inf
vn -0.997189 2.38451e-05 0.0749252
vn -0.997189 2.36508e-05 0.0749252
vn -0.997189 2.37048e-05 0.0749252
vn -0.997189 2.36375e-05 0.0749252
vn 0.996546 0 -0.0830455
vn -0.998053 0 0.0623783
vn -0.0749245 -2.99355e-05 -0.997189
vn -0.0749245 -2.99277e-05 -0.997189
vn -0.0749245 -2.99378e-05 -0.997189
vn -0.0749248 -2.99474e-05 -0.997189
vn -0.0749245 -2.9942e-05 -0.997189
vn -0.0749245 -2.9944e-05 -0.997189
vn -0.0749247 -2.99355e-05 -0.997189
vn 0.820548 -3.55614e-05 -0.571578
vn 0.997189 -2.31104e-05 -0.0749252
vn 0.997189 -1.99282e-05 -0.0749253
vn 0.997189 -2.36234e-05 -0.0749253
vn 0.997171 -0.00773152 -0.0747737
vn 0.997164 0.00503449 -0.0750966
vn 0.997187 -0.00579894 -0.0747272
vn 0.997169 0.00120529 -0.0751784
vn 0.997189 -2.27725e-05 -0.0749254
vn 0.997189 -2.36725e-05 -0.0749252
vn 0.997189 -2.3675e-05 -0.0749252
vn 0.997189 -2.36645e-05 -0.0749252
vn 0.997189 -2.36853e-05 -0.0749252
vn 0.992845 -2.49774e-05 -0.119406
vn 0.997189 -2.36719e-05 -0.0749251
vn 0.0668896 3.01259e-05 0.99776
vn 0.0749244 2.97275e-05 0.997189
vn 0.0749245 2.98934e-05 0.997189
vn 0.0749238 2.95573e-05 0.997189
vn 0.0749253 3.03308e-05 0.997189
vn 0.0749249 3.00025e-05 0.997189
vn 0.0749241 2.98034e-05 0.997189
vn 0.0749259 3.1277e-05 0.997189
vn 0.0749658 3.00659e-05 0.997186
vn 0.0749658 2.99488e-05 0.997186
vn 0.0749805 4.53176e-06 0.997185
vn 0.0749245 2.96483e-05 0.997189
vn 0.0749282 4.53255e-06 0.997189
vn 0.0748888 2.96491e-05 0.997192
vn 0.0749804 -3.47048e-05 0.997185
vn -0.997189 2.36716e-05 0.0749249
vn -0.997189 2.36674e-05 0.0749251
vn -0.997189 2.25404e-05 0.0749251
vn -0.997189 2.21758e-05 0.0749251
vn -0.997189 2.2506e-05 0.0749251
vn 0.99827 -1.83487e-05 0.0588015
vn 0.997189 -1.46564e-05 -0.0749251
vn 0.997188 -5.62927e-05 -0.0749456
vn 0.997189 -2.35647e-05 -0.074925
vn -0.0842349 3.33014e-05 0.996446
vn -0.0749804 -2.99358e-05 -0.997185
vn -0.0749804 -2.99431e-05 -0.997185
vn -0.0749804 -2.99325e-05 -0.997185
vn -0.0749804 -2.99565e-05 -0.997185
vn 0 1 0
vn -0.997189 2.36456e-05 0.0749251
vn -0.997189 2.3648e-05 0.0749251
vn -0.997189 2.36438e-05 0.0749252
vn -0.997189 2.36552e-05 0.0749252
vn -0.997189 2.36359e-05 0.0749252
vn -0.997189 2.36329e-05 0.0749252
vn -0.997189 2.36372e-05 0.0749252
vn -0.997189 2.36032e-05 0.0749252
vn -0.997185 2.36466e-05 0.074981
vn -0.997185 2.36475e-05 0.074981
vn -0.997185 2.36471e-05 0.074981
vn -0.0749804 -2.99345e-05 -0.997185
vn -0.0749804 -2.99345e-05 -0.997185
vn -0.0749804 -2.99345e-05 -0.997185
vn 0.0749805 2.99321e-05 0.997185
vn 0.0749806 2.99372e-05 0.997185
vn 0.0749805 2.98058e-05 0.997185
vn -0.997185 2.36437e-05 0.074981
vn -0.997185 2.36504e-05 0.0749811
vn -0.997185 2.36585e-05 0.0749811
vn -0.0749797 -2.89366e-05 -0.997185
vn -0.0749805 -2.99325e-05 -0.997185
vn -0.0749797 -2.99732e-05 -0.997185
vn 0.0749808 3.0024e-05 0.997185
vn 0.0749798 2.99741e-05 0.997185
vn 0.074979 2.89093e-05 0.997185
vn -0.997185 2.3637e-05 0.0749811
vn -0.997185 2.36485e-05 0.0749812
vn -0.997185 2.36758e-05 0.0749812
vn -0.0749832 -3.12626e-05 -0.997185
vn -0.0749821 -2.98411e-05 -0.997185
vn -0.0749795 -2.99731e-05 -0.997185
vn 0.0749806 2.98403e-05 0.997185
vn 0.0749795 2.97825e-05 0.997185
vn 0.0749806 3.12851e-05 0.997185
vn 0.997185 -2.36759e-05 -0.0749811
vn -0.0749805 -2.99711e-05 -0.997185
vn -0.0749804 -2.9876e-05 -0.997185
vn 0.0749804 2.99292e-05 0.997185
vn -0.0749244 -2.99278e-05 -0.997189
vn -0.0749244 -3.01065e-05 -0.997189
vn -0.0749244 -3.01071e-05 -0.997189
vn -1.71823e-23 -1 -6.12323e-17
vn -8.52428e-23 -1 -6.12323e-17
vn -1.71812e-23 -1 -6.12323e-17
vn 5.69615e-25 -1 -6.12323e-17
vn 5.82073e-25 -1 -6.12323e-17
vn 0 -1 -6.12323e-17
vn -2.09457e-24 -1 -6.12323e-17
vn -7.80626e-18 1 -4.16334e-17
vn -8.59101e-18 1 -5.02244e-17
vn -9.49559e-25 -1 -6.12324e-17
vn -2.92864e-25 -1 -6.12323e-17
vn 3.8369e-23 -1 -6.12323e-17
vn 1.52304e-23 -1 -6.12323e-17
vn 1.66183e-24 -1 -6.12324e-17
vn 2.06936e-24 -1 -6.12323e-17
vn 3.93991e-22 -1 -6.12323e-17
vn -2.0029e-23 -1 -6.12324e-17
vn 7.89133e-24 -1 -6.12323e-17
vn 1.0658e-23 -1 -6.12322e-17
vn 7.03342e-24 -1 -6.12323e-17
vn 1.56125e-17 -1 1.38778e-16
vn -1.64389e-24 -1 -6.12323e-17
vn 0 -1 -6.12323e-17
vn -6.55673e-25 -1 -6.12323e-17
vn -0.702232 0.70999 0.0527632
vn -0.702238 0.709984 0.0527637
vn -0.702232 0.70999 0.0527632
vn -0.702232 0.70999 0.0527633
vn -0.701857 0.710363 0.0527297
vn -0.702232 0.709991 0.0527632
vn -0.702232 0.70999 0.0527632
vn -0.702232 0.70999 0.0527632
vn -0.702213 0.710009 0.0527617
vn -0.702232 0.70999 0.0527632
vn -0.702232 0.70999 0.0527632
vn -0.702232 0.709989 0.0527692
vn -0.702233 0.70999 0.0527632
vn -0.702204 0.710018 0.0527578
vn -0.702232 0.70999 0.0527632
vn -0.702232 0.70999 0.0527632
vn 0.702249 0.709974 -0.0527644
vn 0.702249 0.709974 -0.0527644
vn -0.0720343 0.277558 -0.958004
vn -0.0720342 0.27756 -0.958004
vn -0.0720344 0.27756 -0.958004
vn 0.0720332 0.277613 0.957989
vn 0.0720331 0.277613 0.957989
vn 0.0720331 0.277614 0.957988
vn -0.0720343 0.277559 -0.958004
vn -0.0720342 0.27756 -0.958004
vn -0.0720337 0.27756 -0.958004
vn 0.0720318 0.277613 0.957989
vn 0.0720332 0.277613 0.957989
vn 0.0720332 0.277611 0.957989
vn -0.0720339 0.277565 -0.958003
vn -0.0720342 0.27756 -0.958004
vn -0.0720371 0.27756 -0.958004
vn 0.0720334 0.277613 0.957989
vn 0.0720332 0.277613 0.957989
vn 0.072033 0.277604 0.957991

# Mesh 'defaultobject' with 199 faces
g defaultobject
usemtl DefaultMaterial
f  1//1 2//1 3//1
f  2//1 1//1 4//2
f  4//2 1//1 5//3
f  4//2 5//3 6//4
f  4//5 6//5 7//5
f  7//5 6//4 8//6
f  9//7 10//7 11//7
f  10//7 9//7 12//8
f  12//8 9//7 13//9
f  12//8 13//9 14//10
f  12//11 14//11 15//11
f  15//12 14//12 16//12
f  17//13 18//13 19//13
f  18//13 17//13 20//14
f  18//13 20//14 21//15
f  18//13 21//15 22//16
f  18//13 22//16 23//17
f  18//13 23//17 24//18
f  24//18 23//17 25//19
f  25//20 23//20 26//20
f  27//21 26//21 23//21
f  26//21 27//21 28//22
f  26//21 28//22 25//23
f  28//24 27//24 29//24
f  29//25 27//25 30//25
f  30//26 27//26 31//26
f  31//27 27//27 32//27
f  32//28 27//21 33//28
f  33//28 27//21 34//29
f  34//29 27//21 35//30
f  35//30 27//21 36//31
f  35//30 36//31 37//32
f  36//33 27//33 38//33
f  28//22 39//34 25//23
f  39//35 28//35 40//35
f  41//36 42//36 43//36
f  42//36 41//36 44//37
f  44//37 41//36 37//38
f  44//37 37//38 36//39
f  44//37 36//39 45//40
f  45//40 36//39 38//41
f  45//40 38//41 27//42
f  34//43 46//43 33//43
f  46//43 34//43 35//44
f  46//45 35//45 47//45
f  46//46 48//46 49//46
f  48//47 46//47 47//47
f  48//48 47//48 50//48
f  50//49 47//49 51//49
f  52//50 53//50 54//50
f  55//51 56//51 57//51
f  58//52 59//52 49//52
f  52//50 49//52 59//52
f  53//50 52//50 59//52
f  60//53 49//52 52//50
f  55//51 49//52 60//53
f  56//51 55//51 60//53
f  46//54 49//52 55//51
f  51//55 48//55 50//55
f  48//56 51//56 61//56
f  61//57 51//57 62//57
f  61//56 62//58 63//58
f  61//59 63//59 64//59
f  40//60 65//60 39//60
f  65//60 40//60 54//61
f  54//61 40//60 52//62
f  52//62 40//60 28//63
f  52//64 28//64 66//64
f  67//65 17//65 19//65
f  17//65 67//65 68//66
f  17//65 68//66 20//67
f  20//67 68//66 69//68
f  43//69 70//69 71//69
f  70//69 43//69 42//70
f  70//69 42//70 44//71
f  70//69 44//71 72//72
f  73//73 74//73 75//73
f  74//73 73//73 76//74
f  74//73 76//74 77//75
f  68//76 74//76 69//76
f  74//76 68//76 75//77
f  75//77 68//76 67//78
f  6//79 76//79 73//79
f  76//79 6//79 5//80
f  76//79 5//80 1//81
f  78//82 79//82 80//82
f  79//82 78//82 81//83
f  79//82 81//83 82//84
f  2//85 79//85 3//85
f  79//85 2//85 80//86
f  80//86 2//85 4//87
f  14//88 81//88 78//88
f  81//88 14//88 13//89
f  81//88 13//89 9//90
f  83//91 84//91 85//91
f  84//91 83//91 86//92
f  84//91 86//92 87//93
f  10//94 84//94 11//94
f  84//94 10//94 85//95
f  85//95 10//94 12//96
f  71//97 86//97 83//97
f  86//97 71//97 70//98
f  86//97 70//98 72//99
f  88//100 89//100 90//100
f  89//100 88//100 91//100
f  89//101 57//101 90//101
f  57//101 89//101 55//102
f  56//103 91//103 88//103
f  91//103 56//103 60//103
f  53//104 64//104 63//104
f  64//104 53//104 59//104
f  64//104 59//104 61//105
f  61//105 59//104 58//106
f  85//107 71//107 83//107
f  80//108 14//108 78//108
f  75//109 6//109 73//109
f  6//109 39//110 8//6
f  39//110 6//109 25//111
f  25//111 6//109 67//112
f  67//112 6//109 75//109
f  25//111 67//112 19//113
f  25//114 19//114 18//114
f  25//114 18//114 24//115
f  15//116 90//116 12//116
f  90//116 15//116 88//117
f  88//117 15//116 16//118
f  88//117 16//118 14//108
f  88//117 14//108 4//119
f  4//119 14//108 80//108
f  88//117 4//119 7//120
f  88//117 7//120 65//121
f  65//121 7//120 8//6
f  65//121 8//6 39//110
f  41//122 35//122 37//122
f  35//122 41//122 43//123
f  35//122 43//123 71//107
f  35//122 71//107 47//124
f  47//124 71//107 51//125
f  51//125 71//107 62//126
f  62//126 71//107 12//116
f  12//116 71//107 85//107
f  62//126 12//116 90//116
f  62//126 90//116 57//127
f  65//121 56//128 88//117
f  56//128 65//121 54//129
f  56//128 54//129 62//126
f  62//126 54//129 63//129
f  63//129 54//129 53//130
f  62//126 57//127 56//128
f  66//64 60//64 52//64
f  60//64 66//64 28//64
f  60//64 28//64 91//64
f  91//64 28//64 29//64
f  91//64 29//64 89//64
f  89//64 29//64 30//64
f  89//64 30//64 31//64
f  89//64 46//64 55//64
f  46//64 89//64 31//64
f  46//64 31//64 32//64
f  46//64 32//64 33//64
f  21//131 92//131 22//131
f  92//131 21//131 93//132
f  93//132 21//131 20//133
f  93//132 20//133 69//134
f  92//135 93//135 94//135
f  92//131 94//136 95//136
f  95//136 94//136 1//137
f  95//136 1//137 3//138
f  92//139 95//139 96//139
f  92//131 96//140 9//140
f  92//131 9//140 11//141
f  92//131 11//141 97//142
f  92//131 97//142 45//143
f  45//144 97//144 98//144
f  45//143 98//145 72//145
f  45//143 72//145 44//146
f  22//147 27//147 23//147
f  27//147 22//147 92//147
f  27//147 92//147 45//148
f  93//149 77//149 99//149
f  77//149 93//149 69//150
f  77//149 69//150 74//151
f  1//152 77//152 76//152
f  77//152 1//152 94//153
f  77//152 94//153 99//154
f  95//155 82//155 100//155
f  82//155 95//155 3//156
f  82//155 3//156 79//157
f  9//158 82//158 81//158
f  82//158 9//158 96//159
f  82//158 96//159 100//160
f  97//161 87//161 101//161
f  87//161 97//161 11//162
f  87//161 11//162 84//163
f  72//164 87//164 86//164
f  87//164 72//164 98//165
f  87//164 98//165 101//166
f  49//64 61//64 58//64
f  61//64 49//64 48//64

