# {"id":"BLDG_0003000a00419117","idOriginal":"BLDG_0003000a00419117","origin":[13.368029499828133,52.5023157460578],"elevation":31.7700004577637}
# Longitude: 13.368029499828133
# Latitude: 52.5023157460578
# Elevation: 31.7700004577637

# File produced by Open Asset Import Library (http://www.assimp.sf.net)
# (assimp v3.1.0)

mtllib BLDG_0003000a00419117.obj.mtl

# 30 vertex positions
v  4.04734 5.88764e-16 -9.61525
v  0.178646 -4.487e-18 0.0732783
v  0 0 0
v  3.31746 -1.00727e-16 1.645
v  5.0846 -3.68937e-16 6.0252
v  2.02986 -2.92825e-16 4.78219
v  4.13232 6.01035e-16 -9.81564
v  28.4059 -8.34306e-18 0.136253
v  22.3689 -7.99729e-16 13.0606
v  22.3316 -8.05795e-16 13.1596
v  24.0061 -6.82723e-16 11.1497
v  23.1387 -8.18918e-16 13.3739
v  28.3367 -1.89877e-17 0.310092
v  5.04945 -3.74034e-16 6.10844
v  0.0807607 -1.90034e-17 0.31035
v  5.05003 27.5761 6.10757
v  5.08519 27.5761 6.02432
v  22.3322 27.5761 13.1588
v  22.3695 27.5761 13.0597
v  23.1392 27.5761 13.3731
v  24.0067 27.5761 11.1488
v  28.3373 27.5761 0.309221
v  28.4065 27.5761 0.135382
v  4.13291 27.5761 -9.81651
v  4.04792 27.5761 -9.61612
v  0.000587881 27.5761 -0.000870979
v  0.179234 27.5761 0.0724073
v  0.0813486 27.5761 0.309479
v  3.31805 27.5761 1.64413
v  2.03044 27.5761 4.78132

# 0 UV coordinates

# 37 vertex normals
vn 0 -1 -6.12323e-17
vn 0 -1 -6.12323e-17
vn 4.7336e-24 -1 -6.12323e-17
vn -1.10217e-21 -1 -6.12323e-17
vn -1.12927e-24 -1 -6.12323e-17
vn -7.96501e-25 -1 -6.12323e-17
vn -2.14467e-22 -1 -6.12321e-17
vn 2.20041e-23 -1 -6.12323e-17
vn 2.66843e-23 -1 -6.12323e-17
vn 0 -1 -6.12305e-17
vn -1.25556e-22 -1 -6.12322e-17
vn 1.47386e-23 -1 -6.12323e-17
vn -0.921245 7.35285e-06 -0.388983
vn -0.37777 3.73084e-05 0.925899
vn -0.37777 3.72935e-05 0.925899
vn 0.935932 -8.81845e-06 0.352182
vn -0.377077 3.72767e-05 0.926182
vn 0.931656 -8.37462e-06 0.363341
vn 0.928631 -8.07056e-06 0.371004
vn 0.929058 -8.10796e-06 0.369933
vn 0.929058 -8.10777e-06 0.369933
vn 0.379344 -3.73025e-05 -0.925256
vn 0.379344 -3.73054e-05 -0.925256
vn -0.920636 7.30118e-06 -0.390421
vn -0.921676 7.39521e-06 -0.38796
vn -0.921676 7.40105e-06 -0.38796
vn -0.379502 3.73123e-05 0.925191
vn -0.379502 3.73125e-05 0.925191
vn -0.924311 7.65103e-06 -0.381641
vn -0.924311 7.65082e-06 -0.381641
vn -0.381213 3.73238e-05 0.924487
vn -0.381213 3.73287e-05 0.924487
vn -0.925111 7.72723e-06 -0.379696
vn -0.925111 7.7223e-06 -0.379696
vn -0.376902 3.72789e-05 0.926253
vn -0.376901 3.72972e-05 0.926253
vn -0 1 0

# Mesh 'defaultobject' with 56 faces
g defaultobject
usemtl DefaultMaterial
f  1//1 2//1 3//1
f  2//1 1//1 4//2
f  4//2 5//3 6//3
f  5//3 4//2 1//1
f  5//3 1//1 7//4
f  5//3 7//4 8//5
f  5//3 8//5 9//6
f  5//3 9//6 10//7
f  9//6 8//5 11//8
f  9//6 11//8 12//9
f  11//8 8//5 13//10
f  10//7 14//11 5//3
f  4//2 15//12 2//1
f  16//13 5//13 14//13
f  5//13 16//13 17//13
f  10//14 16//14 14//14
f  16//14 10//14 18//15
f  9//16 18//16 10//16
f  18//16 9//16 19//16
f  12//17 19//17 9//17
f  19//17 12//17 20//17
f  11//18 20//18 12//18
f  20//18 11//18 21//18
f  13//19 21//19 11//19
f  21//19 13//19 22//19
f  8//20 22//20 13//20
f  22//20 8//20 23//21
f  24//22 8//22 7//22
f  8//22 24//22 23//23
f  25//24 7//24 1//24
f  7//24 25//24 24//24
f  26//25 1//25 3//25
f  1//25 26//25 25//26
f  2//27 26//27 3//27
f  26//27 2//27 27//28
f  28//29 2//29 15//29
f  2//29 28//29 27//30
f  4//31 28//31 15//31
f  28//31 4//31 29//32
f  30//33 4//33 6//33
f  4//33 30//33 29//34
f  5//35 30//35 6//35
f  30//35 5//35 17//36
f  25//37 23//37 24//37
f  23//37 25//37 26//37
f  23//37 26//37 27//37
f  23//37 27//37 28//37
f  23//37 28//37 29//37
f  23//37 29//37 30//37
f  23//37 30//37 17//37
f  23//37 17//37 16//37
f  23//37 16//37 19//37
f  19//37 16//37 18//37
f  23//37 19//37 22//37
f  22//37 19//37 21//37
f  20//37 21//37 19//37

