# {"id":"BLDG_00030000001f5e38","idOriginal":"BLDG_00030000001f5e38","origin":[13.376656470991076,52.55934672167786],"elevation":40.9099998474121}
# Longitude: 13.376656470991076
# Latitude: 52.55934672167786
# Elevation: 40.9099998474121

# File produced by Open Asset Import Library (http://www.assimp.sf.net)
# (assimp v3.1.0)

mtllib BLDG_00030000001f5e38.obj.mtl

# 9 vertex positions
v  0.118321 2.05927e-16 -3.36304
v  4.01283 -8.59121e-18 0.140305
v  0 0 0
v  4.13115 1.97335e-16 -3.22273
v  5.6107e-05 2.62999 -8.33906e-05
v  4.01289 2.62999 0.140222
v  0.118377 2.62999 -3.36312
v  4.13121 2.62999 -3.22281
v  2.06568 4.62999 -1.61151

# 0 UV coordinates

# 13 vertex normals
vn 0 -1 -6.12323e-17
vn 3.918e-24 -1 -6.12323e-17
vn -0.0349428 3.24321e-05 0.999389
vn -0.999382 2.02055e-05 -0.035161
vn -0.999382 2.0206e-05 -0.035161
vn 0.0349427 -3.2455e-05 -0.999389
vn 0.0349427 -3.2457e-05 -0.999389
vn 0.999382 -2.02684e-05 0.035161
vn 0.999382 -2.02651e-05 0.035161
vn -0.0267386 0.64378 0.764743
vn -0.705314 0.708461 -0.0248149
vn 0.0267394 0.643751 -0.764768
vn 0.705328 0.708447 0.0248154

# Mesh 'defaultobject' with 14 faces
g defaultobject
usemtl DefaultMaterial
f  1//1 2//1 3//1
f  2//1 1//1 4//2
f  2//3 5//3 3//3
f  5//3 2//3 6//3
f  5//4 1//4 3//4
f  1//4 5//4 7//5
f  7//6 4//6 1//6
f  4//6 7//6 8//7
f  4//8 6//8 2//8
f  6//8 4//8 8//9
f  9//10 5//10 6//10
f  9//11 7//11 5//11
f  9//12 8//12 7//12
f  9//13 6//13 8//13

