# {"id":"BLDG_00030000001f3c32","idOriginal":"BLDG_00030000001f3c32","origin":[13.388790537125514,52.55058751716568],"elevation":46.689998626709}
# Longitude: 13.388790537125514
# Latitude: 52.55058751716568
# Elevation: 46.689998626709

# File produced by Open Asset Import Library (http://www.assimp.sf.net)
# (assimp v3.1.0)

mtllib BLDG_00030000001f3c32.obj.mtl

# 21 vertex positions
v  22.7374 -6.1315e-16 10.0135
v  14.1716 -1.38305e-15 22.5869
v  12.7542 -6.88122e-16 11.2379
v  24.13 -1.30826e-15 21.3656
v  1.5748 -7.72078e-16 12.609
v  11.1763 8.54407e-17 -1.39535
v  0 0 0
v  2.99225 -1.46701e-15 23.958
v  12.7546 18.5316 11.2373
v  22.7378 18.5316 10.0129
v  24.1304 18.5316 21.365
v  23.4342 22.5725 15.6888
v  14.172 18.5316 22.5863
v  1.5752 18.5316 12.6084
v  0.00039564 18.5316 -0.00058718
v  11.1767 18.5316 -1.39594
v  5.58865 22.5725 -0.698391
v  2.99264 18.5316 23.9574
v  13.4634 22.5725 16.9117
v  7.16497 22.5725 11.9227
v  7.87369 22.5725 17.5972

# 0 UV coordinates

# 33 vertex normals
vn 7.36324e-24 -1 -6.12323e-17
vn -2.49128e-23 -1 -6.12323e-17
vn -7.38374e-25 -1 -6.12323e-17
vn 0 -1 -6.12323e-17
vn 4.93155e-24 -1 -6.12323e-17
vn -0.121734 -2.88202e-05 -0.992563
vn -0.121734 -2.88712e-05 -0.992563
vn 0.992559 -2.50067e-05 -0.121764
vn 0.992559 -2.51644e-05 -0.121764
vn 0.121734 2.88726e-05 0.992563
vn -0.992291 2.51144e-05 0.123933
vn -0.992291 2.51117e-05 0.123933
vn -0.123887 -2.87963e-05 -0.992296
vn -0.123887 -2.87914e-05 -0.992296
vn -0.123887 -2.87907e-05 -0.992296
vn 0.992291 -2.50612e-05 -0.123933
vn 0.992291 -2.51178e-05 -0.123932
vn 0.121734 2.88674e-05 0.992563
vn -0.992291 2.5108e-05 0.123933
vn -0.0702518 0.816678 -0.572802
vn -0.0702518 0.816678 -0.572802
vn 0.0702499 0.816689 0.572786
vn 0.0702499 0.816689 0.572786
vn -0.578488 0.812485 0.0722505
vn -0.578488 0.812485 0.0722505
vn 0.578502 0.812475 -0.0722522
vn 0.578502 0.812475 -0.0722522
vn -0.0702516 0.816678 -0.572802
vn 0.0702497 0.816689 0.572787
vn 0.0702498 0.816689 0.572786
vn -0.578488 0.812485 0.0722505
vn -0.578488 0.812485 0.0722505
vn 0.578502 0.812474 -0.0722523

# Mesh 'defaultobject' with 38 faces
g defaultobject
usemtl DefaultMaterial
f  1//1 2//1 3//1
f  2//1 1//1 4//2
f  5//3 6//3 3//1
f  6//3 5//3 7//4
f  8//5 3//1 2//1
f  3//1 8//5 5//3
f  9//6 1//6 3//6
f  1//6 9//6 10//7
f  10//8 4//8 1//8
f  4//8 10//8 11//8
f  11//8 10//8 12//9
f  4//10 13//10 2//10
f  13//10 4//10 11//10
f  14//11 7//11 5//11
f  7//11 14//11 15//12
f  15//13 6//13 7//13
f  6//13 15//13 16//14
f  16//14 15//13 17//15
f  6//16 9//16 3//16
f  9//16 6//16 16//17
f  2//10 18//18 8//18
f  18//18 2//10 13//10
f  18//19 5//11 8//19
f  5//11 18//19 14//11
f  10//20 19//20 12//20
f  19//20 10//20 9//21
f  12//22 13//22 11//22
f  13//22 12//22 19//23
f  17//24 14//24 20//24
f  14//24 17//24 15//25
f  16//26 20//26 9//26
f  20//26 16//26 17//27
f  19//20 9//21 21//28
f  21//29 13//22 19//23
f  13//22 21//29 18//30
f  18//31 20//24 14//24
f  20//24 18//31 21//32
f  21//33 9//26 20//26

