# {"id":"BLDG_0003000f001c0d70","idOriginal":"BLDG_0003000f001c0d70","origin":[13.386442948693476,52.524580733068404],"elevation":34.5}
# Longitude: 13.386442948693476
# Latitude: 52.524580733068404
# Elevation: 34.5

# File produced by Open Asset Import Library (http://www.assimp.sf.net)
# (assimp v3.1.0)

mtllib BLDG_0003000f001c0d70.obj.mtl

# 8 vertex positions
v  23.1011 24.43 -6.55616
v  3.44071 24.43 11.7835
v  26.5413 24.43 5.22816
v  0.000521454 24.43 -0.00077275
v  0 0 0
v  3.44019 -7.21581e-16 11.7843
v  23.1006 4.01402e-16 -6.55539
v  26.5408 -3.20179e-16 5.22893

# 0 UV coordinates

# 9 vertex normals
vn 0 1 -0
vn -0.959932 2.93586e-05 0.280233
vn -0.959932 2.93537e-05 0.280233
vn -0.272997 -2.46026e-05 -0.962015
vn -0.272997 -2.45977e-05 -0.962015
vn 0.959932 -2.93949e-05 -0.280233
vn 0.272997 2.45803e-05 0.962015
vn 0 -1 -6.12323e-17
vn 0 -1 -6.12324e-17

# Mesh 'defaultobject' with 12 faces
g defaultobject
usemtl DefaultMaterial
f  1//1 2//1 3//1
f  2//1 1//1 4//1
f  2//2 5//2 6//2
f  5//2 2//2 4//3
f  4//4 7//4 5//4
f  7//4 4//4 1//5
f  7//6 3//6 8//6
f  3//6 7//6 1//6
f  8//7 2//7 6//7
f  2//7 8//7 3//7
f  7//8 6//8 5//8
f  6//8 7//8 8//9

