# {"id":"BLDG_0003000b002ea1e4","idOriginal":"BLDG_0003000b002ea1e4","origin":[13.328103115691935,52.53192230949197],"elevation":36.5099983215332}
# Longitude: 13.328103115691935
# Latitude: 52.53192230949197
# Elevation: 36.5099983215332

# File produced by Open Asset Import Library (http://www.assimp.sf.net)
# (assimp v3.1.0)

mtllib BLDG_0003000b002ea1e4.obj.mtl

# 21 vertex positions
v  2.21014 19.8978 -14.9218
v  8.86776 9.13578e-16 -14.9199
v  2.20972 9.13659e-16 -14.9212
v  15.5258 9.13497e-16 -14.9185
v  15.5262 19.8978 -14.9192
v  8.86821 21.014 -14.9205
v  15.4852 3.41686e-16 -5.58015
v  15.4609 -1.87654e-19 0.00306462
v  15.4856 19.8978 -5.58078
v  15.4613 19.8978 0.00243488
v  2.14523 21.014 -0.00023993
v  8.80327 21.014 0.00107981
v  0.000446882 21.014 -0.00066507
v  0 0 0
v  8.80283 -1.06843e-19 0.00174488
v  2.14478 -2.60323e-20 0.000425139
v  2.1695 19.8978 -5.58342
v  2.16908 3.41847e-16 -5.58279
v  0.0242963 3.41873e-16 -5.58322
v  0.0247195 19.8978 -5.58385
v  8.82757 21.014 -5.58214

# 0 UV coordinates

# 36 vertex normals
vn 0.000198239 -3.16851e-05 -1
vn 0.000198239 -3.16851e-05 -1
vn 0.000198239 -3.16851e-05 -1
vn 0.000198239 -3.16144e-05 -1
vn 0.999991 -2.11423e-05 0.00435167
vn 0.999991 -2.12048e-05 0.00435154
vn 0.999991 -2.1105e-05 0.00435167
vn 0.999991 -2.10945e-05 0.00435171
vn -0.000198217 3.16538e-05 1
vn -0.000198221 3.16142e-05 1
vn -0.000198218 3.16531e-05 1
vn -0.000198218 3.1653e-05 1
vn 0 1 6.30809e-17
vn 0 1 6.19659e-17
vn -0.999991 2.11304e-05 -0.00435165
vn -0.999991 2.11303e-05 -0.00435165
vn -0.999991 2.11279e-05 -0.00435163
vn -0.999991 2.11279e-05 -0.00435163
vn 0.000198091 -3.16611e-05 -1
vn -0.165351 0.986234 -0.000719565
vn -0.165351 0.986234 -0.00071955
vn -0.165351 0.986235 -0.000719538
vn 0.165352 0.986234 0.000719563
vn 0.165352 0.986234 0.000719571
vn 0.165352 0.986234 0.000719543
vn 3.88677e-05 0.980593 -0.196057
vn 3.88625e-05 0.980593 -0.196057
vn 3.88523e-05 0.980593 -0.196057
vn -1.36233e-23 -1 -6.12323e-17
vn -2.2786e-23 -1 -6.12323e-17
vn 0 -1 -6.12323e-17
vn 5.09137e-24 -1 -6.12323e-17
vn 8.52585e-24 -1 -6.12323e-17
vn 0 -1 -5.81545e-17
vn -2.10145e-24 -1 -6.12323e-17
vn 1.76837e-23 -1 -6.12323e-17

# Mesh 'defaultobject' with 76 faces
g defaultobject
usemtl DefaultMaterial
f  1//1 2//1 3//1
f  2//1 1//1 4//2
f  4//2 1//1 5//3
f  5//3 1//1 6//4
f  5//5 7//5 4//5
f  7//5 5//5 8//6
f  8//6 5//5 9//7
f  8//6 9//7 10//8
f  11//9 10//9 12//9
f  10//9 11//9 13//10
f  10//9 13//10 14//11
f  10//9 14//11 8//12
f  8//13 14//13 15//13
f  15//13 14//13 16//14
f  17//15 3//15 18//15
f  3//15 17//15 1//16
f  13//17 19//17 14//17
f  19//17 13//17 20//18
f  20//19 18//19 19//19
f  18//19 20//19 17//19
f  1//1 2//1 3//1
f  2//1 1//1 4//2
f  4//2 1//1 5//3
f  5//3 1//1 6//4
f  5//5 7//5 4//5
f  7//5 5//5 8//6
f  8//6 5//5 9//7
f  8//6 9//7 10//8
f  11//9 10//9 12//9
f  10//9 11//9 13//10
f  10//9 13//10 14//11
f  10//9 14//11 8//12
f  8//13 14//13 15//13
f  15//13 14//13 16//14
f  17//15 3//15 18//15
f  3//15 17//15 1//16
f  13//17 19//17 14//17
f  19//17 13//17 20//18
f  20//19 18//19 19//19
f  18//19 20//19 17//19
f  1//20 21//20 6//20
f  21//20 1//20 17//21
f  21//20 17//21 12//22
f  6//23 9//23 5//23
f  9//23 6//23 21//23
f  9//23 21//23 10//24
f  10//24 21//23 12//25
f  17//26 11//26 12//26
f  11//26 17//26 13//27
f  13//27 17//26 20//28
f  1//20 21//20 6//20
f  21//20 1//20 17//21
f  21//20 17//21 12//22
f  6//23 9//23 5//23
f  9//23 6//23 21//23
f  9//23 21//23 10//24
f  10//24 21//23 12//25
f  17//26 11//26 12//26
f  11//26 17//26 13//27
f  13//27 17//26 20//28
f  7//29 2//29 4//29
f  2//29 7//29 8//30
f  2//29 8//30 15//31
f  2//29 15//31 3//32
f  3//32 15//31 16//33
f  3//32 16//33 18//34
f  18//34 16//33 19//35
f  19//35 16//33 14//36
f  7//29 2//29 4//29
f  2//29 7//29 8//30
f  2//29 8//30 15//31
f  2//29 15//31 3//32
f  3//32 15//31 16//33
f  3//32 16//33 18//34
f  18//34 16//33 19//35
f  19//35 16//33 14//36

