# {"id":"BLDG_0003000b005c8ea4","idOriginal":"BLDG_0003000b005c8ea4","origin":[13.40413454958128,52.527506609560675],"elevation":34.3800010681152}
# Longitude: 13.40413454958128
# Latitude: 52.527506609560675
# Elevation: 34.3800010681152

# File produced by Open Asset Import Library (http://www.assimp.sf.net)
# (assimp v3.1.0)

mtllib BLDG_0003000b005c8ea4.obj.mtl

# 10 vertex positions
v  12.1171 -2.34946e-16 3.83696
v  4.44128 7.29144e-16 -11.9078
v  16.5584 4.94198e-16 -8.07087
v  0 0 0
v  2.22106 19.5118 -5.95453
v  12.1174 17.7208 3.8364
v  14.3381 19.5118 -2.11757
v  0.000378678 17.7208 -0.00056062
v  4.44166 17.7208 -11.9084
v  16.5587 17.7208 -8.07143

# 0 UV coordinates

# 16 vertex normals
vn 0 -1 -6.12323e-17
vn -5.25035e-24 -1 -6.12323e-17
vn -0.0819909 0.962411 0.258926
vn -0.0819909 0.962411 0.258926
vn 0.0819924 0.962409 -0.258931
vn 0.0819925 0.962409 -0.258931
vn 0.936952 -8.90949e-06 0.349457
vn 0.936953 -9.01034e-06 0.349457
vn 0.936953 -8.63074e-06 0.349457
vn -0.301884 3.66002e-05 0.953345
vn -0.301884 3.66341e-05 0.953345
vn -0.936952 8.96635e-06 -0.349457
vn -0.936952 8.95991e-06 -0.349457
vn -0.936952 8.88212e-06 -0.349457
vn 0.301884 -3.66176e-05 -0.953345
vn 0.301884 -3.66014e-05 -0.953345

# Mesh 'defaultobject' with 16 faces
g defaultobject
usemtl DefaultMaterial
f  1//1 2//1 3//1
f  2//1 1//1 4//2
f  5//3 6//3 7//3
f  6//3 5//3 8//4
f  9//5 7//5 10//5
f  7//5 9//5 5//6
f  10//7 1//7 3//7
f  1//7 10//7 6//8
f  6//8 10//7 7//9
f  1//10 8//10 4//10
f  8//10 1//10 6//11
f  8//12 2//12 4//12
f  2//12 8//12 9//13
f  9//13 8//12 5//14
f  9//15 3//15 2//15
f  3//15 9//15 10//16

