# {"id":"BLDG_0003000f00294328","idOriginal":"BLDG_0003000f00294328","origin":[13.390410564308619,52.52728031083057],"elevation":35.1800003051758}
# Longitude: 13.390410564308619
# Latitude: 52.52728031083057
# Elevation: 35.1800003051758

# File produced by Open Asset Import Library (http://www.assimp.sf.net)
# (assimp v3.1.0)

mtllib BLDG_0003000f00294328.obj.mtl

# 24 vertex positions
v  11.9001 1.03366e-15 -16.881
v  16.0369 24.8518 -7.11328
v  16.0364 4.35515e-16 -7.11249
v  11.9007 24.8518 -16.8818
v  10.2635 17.9304 -4.5525
v  6.12692 8.76873e-16 -14.3204
v  10.2631 2.78726e-16 -4.55193
v  6.1273 17.9304 -14.321
v  22.2876 -4.68498e-16 7.65115
v  22.288 17.9304 7.65059
v  19.1625 24.8518 0.268544
v  25.5549 24.8518 15.3655
v  25.5544 -9.40913e-16 15.3663
v  22.2882 24.8518 7.65037
v  19.7558 17.9304 17.8654
v  19.7554 -1.09397e-15 17.8659
v  16.4886 -6.21558e-16 10.1508
v  16.489 17.9304 10.1503
v  6.25202 17.9304 14.5629
v  0 0 0
v  6.25164 -8.91755e-16 14.5635
v  0.000382822 17.9304 -0.00056725
v  3.12635 24.8518 7.28095
v  13.3764 24.8518 2.79866

# 0 UV coordinates

# 38 vertex normals
vn 0.920853 -3.19784e-05 -0.389911
vn -0.920852 3.19691e-05 0.389911
vn -0.920852 3.19832e-05 0.389911
vn -0.405435 -2.02223e-05 -0.914124
vn -0.405435 -2.02547e-05 -0.914124
vn 0.920852 -3.19842e-05 -0.389911
vn 0.920852 -3.20181e-05 -0.389911
vn 0.920852 -3.20391e-05 -0.389911
vn 0.920853 -3.19794e-05 -0.389911
vn 0.395841 2.05513e-05 0.918319
vn 0.395841 2.05946e-05 0.918319
vn -0.920852 3.20077e-05 0.389911
vn -0.920852 3.20284e-05 0.389911
vn -0.395841 -2.06398e-05 -0.918319
vn -0.918913 3.21065e-05 0.39446
vn -0.918913 3.20984e-05 0.39446
vn -0.918913 3.20633e-05 0.39446
vn -0.405435 -2.02632e-05 -0.914124
vn -0.405435 -2.02574e-05 -0.914124
vn 0.395841 2.06117e-05 0.918319
vn -0.680261 0.674002 0.288039
vn 0.259304 0.755568 0.601564
vn 0.261837 0.756891 0.598797
vn -0.262462 0.755541 -0.600226
vn -0.680261 0.674002 0.288039
vn -0.680261 0.674002 0.288039
vn -0.680261 0.674002 0.288039
vn -0.263576 0.753147 -0.602742
vn -0.265612 0.755517 -0.598869
vn 0.260397 0.753166 0.604099
vn 0.262468 0.755552 0.600209
vn 6.32239e-24 -1 -6.12323e-17
vn 6.32239e-24 -1 -6.12323e-17
vn -8.36653e-24 -1 -6.12323e-17
vn 0 -1 -6.12323e-17
vn -1.20076e-23 -1 -6.12323e-17
vn -1.20076e-23 -1 -6.12323e-17
vn 0 -1 -6.12323e-17

# Mesh 'defaultobject' with 43 faces
g defaultobject
usemtl DefaultMaterial
f  1//1 2//1 3//1
f  2//1 1//1 4//1
f  5//2 6//2 7//2
f  6//2 5//2 8//3
f  8//4 1//4 6//4
f  1//4 8//4 4//5
f  2//1 9//6 3//1
f  9//6 2//1 10//7
f  10//7 2//1 11//8
f  9//6 12//9 13//9
f  12//9 9//6 14//9
f  13//10 15//10 16//10
f  15//10 13//10 12//11
f  15//12 17//12 16//12
f  17//12 15//12 18//13
f  14//14 10//14 18//14
f  19//15 20//15 21//15
f  20//15 19//15 22//16
f  22//16 19//15 23//17
f  22//18 7//18 20//18
f  7//18 22//18 5//19
f  17//20 19//20 21//20
f  19//20 17//20 18//20
f  8//21 2//21 4//21
f  2//21 8//21 5//21
f  10//22 24//22 18//22
f  24//23 10//23 11//23
f  24//24 11//24 5//24
f  11//25 2//21 5//21
f  18//26 12//26 14//26
f  12//26 18//26 15//27
f  24//28 22//28 23//28
f  22//29 24//29 5//29
f  18//30 23//30 19//30
f  23//31 18//31 24//31
f  3//32 6//32 1//32
f  6//32 3//32 7//33
f  9//34 7//33 3//32
f  7//33 9//34 17//35
f  13//36 17//35 9//34
f  17//35 13//36 16//37
f  20//38 17//35 21//38
f  17//35 20//38 7//33

