# {"id":"BLDG_00030000001cdcc5","idOriginal":"BLDG_00030000001cdcc5","origin":[13.355696954976205,52.561089232431435],"elevation":39.8499984741211}
# Longitude: 13.355696954976205
# Latitude: 52.561089232431435
# Elevation: 39.8499984741211

# File produced by Open Asset Import Library (http://www.assimp.sf.net)
# (assimp v3.1.0)

mtllib BLDG_00030000001cdcc5.obj.mtl

# 10 vertex positions
v  2.76234 11.6456 10.5872
v  0 0 0
v  2.76209 -6.48301e-16 10.5876
v  0.000248111 11.6456 -0.000369269
v  1.38141 17.2684 5.29323
v  14.7798 2.41582e-16 -3.94533
v  14.7801 11.6456 -3.9457
v  17.6463 -4.02683e-16 6.57631
v  17.6466 11.6456 6.57594
v  16.2134 17.2684 1.31494

# 0 UV coordinates

# 15 vertex normals
vn -0.967615 2.86427e-05 0.252432
vn -0.967615 2.86194e-05 0.252432
vn -0.967615 2.86145e-05 0.252432
vn -0.257909 -2.51413e-05 -0.966169
vn -0.257909 -2.51284e-05 -0.966169
vn 0.964835 -2.88734e-05 -0.262857
vn 0.964835 -2.88842e-05 -0.262857
vn 0.964835 -2.87888e-05 -0.262857
vn 0.260212 2.5138e-05 0.965551
vn 0.260212 2.50955e-05 0.965551
vn -0.185984 0.696144 -0.693393
vn -0.184852 0.697348 -0.692485
vn 0.186802 0.696164 0.693153
vn 0.185677 0.697364 0.692248
vn 0 -1 -6.12323e-17

# Mesh 'defaultobject' with 16 faces
g defaultobject
usemtl DefaultMaterial
f  1//1 2//1 3//1
f  2//1 1//1 4//2
f  4//2 1//1 5//3
f  4//4 6//4 2//4
f  6//4 4//4 7//5
f  7//6 8//6 6//6
f  8//6 7//6 9//7
f  9//7 7//6 10//8
f  8//9 1//9 3//9
f  1//9 8//9 9//10
f  7//11 5//11 10//11
f  5//12 7//12 4//12
f  10//13 1//13 9//13
f  1//14 10//14 5//14
f  2//15 8//15 3//15
f  8//15 2//15 6//15

