# {"id":"BLDG_0003000b003786ad","idOriginal":"BLDG_0003000b003786ad","origin":[13.331053299016975,52.52570189733567],"elevation":33.9500007629395}
# Longitude: 13.331053299016975
# Latitude: 52.52570189733567
# Elevation: 33.9500007629395

# File produced by Open Asset Import Library (http://www.assimp.sf.net)
# (assimp v3.1.0)

mtllib BLDG_0003000b003786ad.obj.mtl

# 28 vertex positions
v  23.6987 16.1321 -8.30937
v  21.2121 16.1321 1.88367
v  21.9119 16.1321 1.9458
v  17.7581 16.1321 1.57688
v  0.000343122 16.1321 -0.00051035
v  23.7504 16.1321 -8.60316
v  23.0507 16.1321 -8.66835
v  20.0213 16.1321 -8.95241
v  12.0898 16.1321 -9.69287
v  12.1207 16.1321 -10.0023
v  9.2931 16.1321 -9.95419
v  9.32806 16.1321 -10.2678
v  1.74637 16.1321 -9.98914
v  1.86084 16.1321 -10.6485
v  23.6983 5.08771e-16 -8.30886
v  23.0503 5.30752e-16 -8.66784
v  23.75 5.2676e-16 -8.60265
v  21.9115 -1.19177e-16 1.94631
v  20.021 5.48146e-16 -8.9519
v  21.2118 -1.15373e-16 1.88418
v  17.7578 -9.65873e-17 1.57739
v  12.0894 5.93486e-16 -9.69236
v  0 0 0
v  9.29276 6.09487e-16 -9.95368
v  9.32772 6.28692e-16 -10.2673
v  1.74603 6.11627e-16 -9.98863
v  1.86049 6.52004e-16 -10.648
v  12.1203 6.12434e-16 -10.0018

# 0 UV coordinates

# 36 vertex normals
vn 0 1 0
vn 3.959e-24 -1 -6.12324e-17
vn -4.72213e-23 -1 -6.12323e-17
vn 8.15017e-24 -1 -6.12323e-17
vn 1.12808e-22 -1 -6.12324e-17
vn -1.14271e-23 -1 -6.12323e-17
vn -3.10717e-24 -1 -6.12323e-17
vn 0 -1 -6.12323e-17
vn 5.68482e-24 -1 -6.12323e-17
vn 1.4933e-23 -1 -6.12324e-17
vn -7.87242e-24 -1 -6.12323e-17
vn -8.24227e-24 -1 -6.12323e-17
vn 2.56012e-23 -1 -6.12325e-17
vn 0.0930178 -3.34685e-05 -0.995664
vn 0.0930178 -3.34699e-05 -0.995664
vn -0.985265 1.55343e-05 -0.171037
vn -0.985265 1.55444e-05 -0.171037
vn -0.985064 1.55045e-05 -0.172191
vn -0.985064 1.54935e-05 -0.172191
vn -0.0884797 3.33921e-05 0.996078
vn -0.0884797 3.33988e-05 0.996078
vn -0.0884721 3.34018e-05 0.996079
vn -0.0884721 3.33954e-05 0.996079
vn -0.0884513 3.33934e-05 0.996081
vn -0.0884512 3.34006e-05 0.996081
vn 0.985158 -1.55264e-05 0.171648
vn 0.985158 -1.55378e-05 0.171648
vn 0.984885 -1.54823e-05 0.173207
vn 0.0927643 -3.34653e-05 -0.995688
vn 0.0933595 -3.34762e-05 -0.995632
vn 0.0929522 -3.34687e-05 -0.995671
vn 0.995048 -1.8033e-05 0.0993914
vn 0.0946521 -3.34942e-05 -0.99551
vn 0.094652 -3.34998e-05 -0.99551
vn -0.993846 1.76476e-05 -0.110772
vn -0.993846 1.7589e-05 -0.110769

# Mesh 'defaultobject' with 52 faces
g defaultobject
usemtl DefaultMaterial
f  1//1 2//1 3//1
f  2//1 1//1 4//1
f  4//1 1//1 5//1
f  5//1 1//1 6//1
f  5//1 6//1 7//1
f  5//1 7//1 8//1
f  5//1 8//1 9//1
f  5//1 9//1 10//1
f  5//1 10//1 11//1
f  11//1 10//1 12//1
f  11//1 13//1 5//1
f  13//1 11//1 14//1
f  15//2 16//2 17//2
f  16//2 15//2 18//3
f  16//2 18//3 19//4
f  19//4 18//3 20//5
f  19//4 20//5 21//6
f  19//4 21//6 22//7
f  22//7 21//6 23//8
f  22//7 23//8 24//9
f  22//7 24//9 25//10
f  24//9 23//8 26//11
f  24//9 26//11 27//12
f  25//10 28//13 22//7
f  14//14 24//14 27//14
f  24//14 14//14 11//15
f  13//16 27//16 26//16
f  27//16 13//16 14//17
f  5//18 26//18 23//18
f  26//18 5//18 13//19
f  21//20 5//20 23//20
f  5//20 21//20 4//21
f  20//22 4//21 21//20
f  4//21 20//22 2//23
f  18//24 2//24 20//24
f  2//24 18//24 3//25
f  15//26 3//26 18//26
f  3//26 15//26 1//27
f  17//28 1//28 15//28
f  1//28 17//28 6//28
f  7//29 17//29 16//29
f  17//29 7//29 6//29
f  8//30 16//30 19//30
f  16//30 8//30 7//30
f  9//31 19//31 22//31
f  19//31 9//31 8//31
f  28//32 9//32 22//32
f  9//32 28//32 10//32
f  12//33 28//33 25//33
f  28//33 12//33 10//34
f  11//35 25//35 24//35
f  25//35 11//35 12//36

