# {"id":"BLDG_00030002007e9477","idOriginal":"BLDG_00030002007e9477","origin":[13.344398251327103,52.52734303242763],"elevation":33.5800018310547}
# Longitude: 13.344398251327103
# Latitude: 52.52734303242763
# Elevation: 33.5800018310547

# File produced by Open Asset Import Library (http://www.assimp.sf.net)
# (assimp v3.1.0)

mtllib BLDG_00030002007e9477.obj.mtl

# 47 vertex positions
v  12.2439 2.16837e-16 -3.54122
v  5.5118 -1.83105e-06 0.104698
v  5.5747 2.23659e-16 -3.65263
v  -0.378617 -1.38576e-15 22.6311
v  5.13295 -1.39217e-15 22.7358
v  15.5978 2.13406e-16 -3.48519
v  19.3391 -1.83105e-06 23.0057
v  19.4377 -1.04819e-15 17.1182
v  19.718 -1.83105e-06 0.374547
v  19.7814 -1.83105e-06 -3.4153
v  2.7559 -1.83105e-06 0.052349
v  -0.28012 -1.02525e-15 16.7436
v  0 -1.83105e-06 -1.1212e-22
v  5.51199 8.7458 0.104421
v  0.000309951 14.56 -0.00046066
v  5.51206 12.0844 0.104316
v  12.181 12.0844 0.230994
v  5.51211 14.56 0.104237
v  2.75624 16.02 0.0518421
v  12.1809 8.7458 0.231099
v  5.23182 14.56 16.8479
v  2.47609 18.5499 16.7954
v  5.2319 18.5499 16.8477
v  -0.279725 18.5499 16.743
v  2.47604 16.02 16.7955
v  -0.27981 14.56 16.7432
v  12.2451 56.215 -3.54299
v  15.5981 12.08 -3.48557
v  12.2441 8.7458 -3.54149
v  15.599 56.215 -3.48696
v  5.57488 8.7458 -3.65291
v  19.7817 12.08 -3.41568
v  -0.378222 18.5499 22.6305
v  19.3394 12.08 23.0053
v  5.13321 12.08 22.7354
v  5.13335 18.5499 22.7352
v  19.4379 12.08 17.1178
v  5.23177 12.0844 16.8479
v  5.23177 12.08 16.8479
v  19.4379 12.0844 17.1178
v  19.7182 12.08 0.374165
v  19.7182 12.0844 0.374165
v  12.1819 56.215 0.229597
v  15.5348 12.08 0.2947
v  15.5348 12.0844 0.2947
v  15.5357 56.215 0.293304
v  2.42691 22.3498 19.739

# 0 UV coordinates

# 74 vertex normals
vn 8.13898e-09 -1 -4.87193e-07
vn 3.68146e-07 -1 1.77551e-07
vn -1.77287e-23 -1 -6.12323e-17
vn -3.8271e-23 -1 -6.12324e-17
vn -1.27922e-07 -1 -5.10539e-08
vn 1.53123e-06 -1 -2.85374e-07
vn -5.3842e-07 -1 1.00345e-07
vn -4.37555e-07 -1 -7.3247e-09
vn -2.07663e-09 -1 1.09324e-07
vn 0.0189918 -3.20382e-05 -0.99982
vn 0.0189918 -3.20376e-05 -0.99982
vn 0.0189918 -3.20374e-05 -0.99982
vn 0.0189918 -3.20347e-05 -0.99982
vn 0.0189918 -3.20347e-05 -0.99982
vn 0.0189918 -3.20391e-05 -0.99982
vn 0.0189918 -3.20363e-05 -0.99982
vn 0.0189918 -3.20419e-05 -0.99982
vn 0.0189917 -3.24275e-05 -0.99982
vn 0.0189917 -3.24274e-05 -0.99982
vn 0.018993 -3.0703e-05 -0.99982
vn 0.0189914 -3.24278e-05 -0.99982
vn 0.0167035 -3.19883e-05 -0.99986
vn 0.0167036 -3.19857e-05 -0.99986
vn 0.0167036 -3.19743e-05 -0.99986
vn 0.0167035 -3.2023e-05 -0.99986
vn 0.0167035 -3.19607e-05 -0.99986
vn 0.0167035 -3.19895e-05 -0.999861
vn -0.99986 2.07556e-05 -0.0167276
vn -0.99986 2.07563e-05 -0.0167276
vn -0.99986 2.07563e-05 -0.0167276
vn -0.99986 2.07548e-05 -0.0167276
vn -0.99986 2.07481e-05 -0.0167276
vn -0.0189918 3.21356e-05 0.99982
vn -0.0189917 3.1977e-05 0.99982
vn -0.0189916 3.19766e-05 0.99982
vn -0.0189918 3.2068e-05 0.99982
vn -0.018992 3.1943e-05 0.99982
vn 0.99986 -2.07813e-05 0.016738
vn 0.99986 -2.06238e-05 0.0167376
vn -0.0189917 0 0.99982
vn 0.99986 -2.0623e-05 0.0167377
vn 0.99986 -2.07809e-05 0.0167378
vn 0.99986 -0 0.0167378
vn 0.99986 -2.07826e-05 0.0167377
vn 0.99986 -2.07829e-05 0.0167377
vn -0.99986 2.08915e-05 -0.0167379
vn -0.99986 2.07432e-05 -0.0167378
vn -0.99986 2.07535e-05 -0.0167377
vn 0.99986 -2.07731e-05 0.0167377
vn 0.999856 4.64492e-07 0.0169855
vn 0.99986 -2.07752e-05 0.0167377
vn -0.0189918 3.20366e-05 0.99982
vn -0.0189918 3.2037e-05 0.99982
vn -0.99986 2.07855e-05 -0.0167378
vn -0.99986 2.07858e-05 -0.0167378
vn 0.99986 -2.08416e-05 0.0167377
vn 0.99986 -2.0646e-05 0.0167377
vn 0.99986 -2.0768e-05 0.0167377
vn 0.99986 0 0.0167142
vn 0.99986 -2.07329e-05 0.0167377
vn 0 1 -0
vn 0.00010292 1 0.000262075
vn -0.00211673 0.999997 -0.00118568
vn 0.00128844 0.999999 0.000597211
vn 0.00184432 0.999998 0.000771297
vn 0.46801 0.883688 0.00783215
vn 0.468021 0.883682 0.0078347
vn -0.468002 0.883693 -0.00782965
vn -0.468013 0.883687 -0.00783221
vn 0.0150132 0.612449 -0.790368
vn 0.0150131 0.612449 -0.790368
vn 0.809372 0.587139 0.013549
vn -0.0150129 0.61248 0.790344
vn -0.809357 0.587161 -0.0135405

# Mesh 'defaultobject' with 88 faces
g defaultobject
usemtl DefaultMaterial
f  1//1 2//1 3//1
f  2//1 1//1 4//2
f  4//2 1//1 5//3
f  5//3 1//1 6//4
f  5//3 6//4 7//5
f  7//5 6//4 8//6
f  8//6 6//4 9//7
f  9//7 6//4 10//8
f  11//9 12//9 13//9
f  12//9 11//9 2//1
f  12//9 2//1 4//2
f  11//10 14//10 2//10
f  14//10 11//10 13//11
f  14//10 13//11 15//12
f  14//10 15//12 16//13
f  14//10 16//13 17//14
f  16//13 15//12 18//15
f  18//15 15//12 19//16
f  17//14 20//17 14//10
f  21//18 22//18 23//18
f  22//18 21//18 24//19
f  24//19 21//18 25//20
f  24//19 25//20 26//21
f  27//22 28//22 29//22
f  28//22 27//22 30//23
f  31//24 1//24 3//24
f  1//24 31//24 6//25
f  6//25 31//24 10//26
f  10//26 31//24 29//22
f  10//26 29//22 32//27
f  32//27 29//22 28//22
f  13//28 26//28 15//28
f  26//28 13//28 12//29
f  26//28 12//29 33//30
f  33//30 12//29 4//31
f  33//30 24//32 26//28
f  7//33 34//33 5//33
f  35//34 5//33 34//33
f  4//35 5//33 35//34
f  33//36 4//35 35//34
f  36//37 33//36 35//34
f  8//38 34//38 7//38
f  34//38 8//38 37//39
f  37//40 38//40 39//40
f  38//40 37//40 40//40
f  9//41 37//39 8//38
f  37//39 9//41 41//42
f  37//43 41//43 40//43
f  40//43 41//43 42//43
f  10//44 41//42 9//41
f  41//42 10//44 32//45
f  17//46 29//46 20//46
f  29//46 17//46 27//47
f  27//47 17//46 43//48
f  30//49 44//49 28//49
f  44//50 30//50 45//50
f  45//51 30//49 46//51
f  45//52 43//52 17//52
f  43//52 45//52 46//53
f  14//54 3//54 2//54
f  3//54 14//54 31//55
f  16//56 21//56 38//56
f  21//56 16//56 18//57
f  39//58 36//58 35//58
f  36//59 39//59 38//59
f  36//58 38//56 21//56
f  36//58 21//56 23//60
f  28//61 44//61 32//61
f  37//61 35//61 34//61
f  35//62 37//62 42//62
f  35//63 42//63 32//63
f  35//61 32//61 44//61
f  35//64 44//64 17//64
f  35//65 17//65 38//65
f  38//61 17//61 16//61
f  43//61 30//61 27//61
f  30//61 43//61 46//61
f  14//61 29//61 31//61
f  29//61 14//61 20//61
f  25//66 18//66 19//66
f  18//67 25//67 21//67
f  26//68 19//68 15//68
f  19//69 26//69 25//69
f  22//70 47//70 23//70
f  47//70 22//70 24//71
f  47//72 36//72 23//72
f  47//73 33//73 36//73
f  24//74 33//74 47//74

