# {"id":"BLDG_000300020012bfb6","idOriginal":"BLDG_000300020012bfb6","origin":[13.381549524495204,52.5181654119283],"elevation":33.0800018310547}
# Longitude: 13.381549524495204
# Latitude: 52.5181654119283
# Elevation: 33.0800018310547

# File produced by Open Asset Import Library (http://www.assimp.sf.net)
# (assimp v3.1.0)

mtllib BLDG_000300020012bfb6.obj.mtl

# 8 vertex positions
v  11.0371 5.2274e-17 -0.853698
v  2.00424 -1.58664e-15 25.9118
v  0 0 0
v  13.0414 -1.53437e-15 25.0581
v  2.00468 20.5928 25.9111
v  0.000439405 20.5928 -0.0006511
v  11.0376 20.5928 -0.854349
v  13.0418 20.5928 25.0574

# 0 UV coordinates

# 11 vertex normals
vn 0 -1 -6.12323e-17
vn -7.72834e-24 -1 -6.12323e-17
vn -0.997022 2.37126e-05 0.0771183
vn -0.997022 2.37172e-05 0.0771183
vn -0.0771176 -2.98783e-05 -0.997022
vn -0.0771176 -2.98782e-05 -0.997022
vn 0.997022 -2.36713e-05 -0.0771183
vn 0.997022 -2.37211e-05 -0.0771183
vn 0.0771178 2.99409e-05 0.997022
vn 0.0771177 2.98489e-05 0.997022
vn 0 1 0

# Mesh 'defaultobject' with 12 faces
g defaultobject
usemtl DefaultMaterial
f  1//1 2//1 3//1
f  2//1 1//1 4//2
f  3//3 5//3 6//3
f  5//3 3//3 2//4
f  1//5 6//5 7//5
f  6//5 1//5 3//6
f  1//7 8//7 4//7
f  8//7 1//7 7//8
f  4//9 5//9 2//9
f  5//9 4//9 8//10
f  5//11 7//11 6//11
f  7//11 5//11 8//11

