# {"id":"BLDG_0003000f000b4747","idOriginal":"BLDG_0003000f000b4747","origin":[13.347525878150837,52.53506472209346],"elevation":34.6199989318848}
# Longitude: 13.347525878150837
# Latitude: 52.53506472209346
# Elevation: 34.6199989318848

# File produced by Open Asset Import Library (http://www.assimp.sf.net)
# (assimp v3.1.0)

mtllib BLDG_0003000f000b4747.obj.mtl

# 12 vertex positions
v  10.7734 10.5825 -1.7117
v  0.835472 12.8125 4.94952
v  11.6086 12.8125 3.23815
v  0.000225327 10.5825 -0.00033499
v  1.67062 10.5825 9.89951
v  12.4438 10.5825 8.18815
v  0.835199 -3.03095e-16 4.94992
v  12.4436 -5.014e-16 8.18848
v  1.6704 -6.06191e-16 9.89984
v  0 0 0
v  11.6084 -1.98304e-16 3.23856
v  10.7732 1.04791e-16 -1.71136

# 0 UV coordinates

# 19 vertex normals
vn -0.0636963 0.913873 -0.400973
vn -0.0636963 0.913873 -0.400973
vn 0.063695 0.913877 0.400964
vn 0.063695 0.913877 0.400964
vn 3.86733e-24 -1 -6.12323e-17
vn 3.86733e-24 -1 -6.12323e-17
vn -3.86733e-24 -1 -6.12323e-17
vn 0 -1 -6.12323e-17
vn -0.986062 2.62565e-05 0.166378
vn -0.986062 2.62732e-05 0.166378
vn -0.986062 2.62625e-05 0.166378
vn -0.986062 2.61964e-05 0.166378
vn 0.986062 -2.62381e-05 -0.166378
vn 0.986062 -2.62372e-05 -0.166378
vn 0.986062 -2.63232e-05 -0.166378
vn 0.986062 -2.61538e-05 -0.166378
vn -0.156887 -2.79227e-05 -0.987616
vn -0.156887 -2.79254e-05 -0.987616
vn 0.156887 2.78908e-05 0.987616

# Mesh 'defaultobject' with 20 faces
g defaultobject
usemtl DefaultMaterial
f  1//1 2//1 3//1
f  2//1 1//1 4//2
f  3//3 5//3 6//3
f  5//3 3//3 2//4
f  7//5 8//5 9//5
f  8//5 7//5 10//6
f  8//5 10//6 11//7
f  11//7 10//6 12//8
f  5//9 7//9 9//9
f  7//9 5//9 10//10
f  10//10 5//9 4//11
f  4//11 5//9 2//12
f  1//13 11//13 12//13
f  11//13 1//13 8//14
f  8//14 1//13 6//15
f  6//15 1//13 3//16
f  4//17 12//17 10//17
f  12//17 4//17 1//18
f  8//19 5//19 9//19
f  5//19 8//19 6//19

