# {"id":"BLDG_00030000001f5bbb","idOriginal":"BLDG_00030000001f5bbb","origin":[13.375990648000267,52.552359755466206],"elevation":34.8499984741211}
# Longitude: 13.375990648000267
# Latitude: 52.552359755466206
# Elevation: 34.8499984741211

# File produced by Open Asset Import Library (http://www.assimp.sf.net)
# (assimp v3.1.0)

mtllib BLDG_00030000001f5bbb.obj.mtl

# 10 vertex positions
v  0.000195849 9.18093 -0.000290941
v  52.7949 2.95662e-15 -48.2852
v  0 0 0
v  52.7951 9.18093 -48.2855
v  0.303916 9.18093 0.331468
v  0.30372 -2.03143e-17 0.331758
v  4.55631 9.18093 4.96007
v  4.55611 -3.03735e-16 4.96036
v  57.3927 2.6573e-15 -43.3971
v  57.3929 9.18093 -43.3974

# 0 UV coordinates

# 14 vertex normals
vn -0.674888 -8.98763e-06 -0.73792
vn -0.674888 -9.30749e-06 -0.73792
vn -0.737588 3.7133e-05 0.675251
vn -0.737588 3.71328e-05 0.675251
vn -0.7364 3.71539e-05 0.676546
vn -0.7364 3.71487e-05 0.676546
vn 0.675147 9.28173e-06 0.737683
vn 0.675147 8.91046e-06 0.737683
vn 0.728411 -3.73356e-05 -0.68514
vn 0.728411 -3.7057e-05 -0.68514
vn 0 1 0
vn 0 -1 -6.12328e-17
vn 1.88355e-24 -1 -6.12323e-17
vn 0 -1 -6.12323e-17

# Mesh 'defaultobject' with 16 faces
g defaultobject
usemtl DefaultMaterial
f  1//1 2//1 3//1
f  2//1 1//1 4//2
f  5//3 3//3 6//3
f  3//3 5//3 1//4
f  7//5 6//5 8//5
f  6//5 7//5 5//6
f  7//7 9//7 10//7
f  9//7 7//7 8//8
f  10//9 2//9 4//9
f  2//9 10//9 9//10
f  5//11 4//11 1//11
f  4//11 5//11 7//11
f  4//11 7//11 10//11
f  2//12 6//12 3//12
f  6//12 2//12 8//13
f  8//13 2//12 9//14

