# {"id":"BLDG_00030009007ef01d","idOriginal":"BLDG_00030009007ef01d","origin":[13.39709881917248,52.54100703585523],"elevation":46.439998626709}
# Longitude: 13.39709881917248
# Latitude: 52.54100703585523
# Elevation: 46.439998626709

# File produced by Open Asset Import Library (http://www.assimp.sf.net)
# (assimp v3.1.0)

mtllib BLDG_00030009007ef01d.obj.mtl

# 31 vertex positions
v  14.2327 21.4669 1.9149
v  17.3321 22.0092 9.15548
v  17.7723 21.4669 0.4035
v  20.8789 21.4669 7.66109
v  11.3401 21.4669 -4.84278
v  5.56019 21.4669 5.61812
v  2.64562 21.4669 -1.13018
v  2.91503 21.4669 6.74762
v  0.000458538 21.4669 -0.00067975
v  11.1387 22.0092 6.65553
v  8.66513 21.4669 12.8072
v  17.3321 21.4669 9.15549
v  9.89647 22.0092 3.7665
v  10.3949 21.4669 16.8122
v  11.5401 22.0092 13.9627
v  16.1803 22.0092 12.0077
v  19.0487 21.4669 13.166
v  6.01449 21.4669 13.924
v  17.7718 -2.47488e-17 0.404179
v  17.3316 -5.60654e-16 9.15617
v  14.2323 -1.17296e-16 1.91558
v  20.8784 -4.69148e-16 7.66177
v  11.3396 2.96493e-16 -4.8421
v  5.55974 -3.44052e-16 5.6188
v  2.64516 6.91619e-17 -1.1295
v  2.91457 -4.13214e-16 6.7483
v  0 0 0
v  8.66467 -7.84256e-16 12.8079
v  10.3944 -1.02949e-15 16.8129
v  19.0483 -8.06226e-16 13.1667
v  6.01403 -8.52641e-16 13.9247

# 0 UV coordinates

# 41 vertex normals
vn -0.0269752 0.997638 -0.0631728
vn 0.128268 0.990219 -0.0549049
vn 0 1 -0
vn 0.044425 0.993433 0.105438
vn -0.10525 0.993416 0.0452537
vn -0.104895 0.993451 0.0453041
vn 0.105154 0.993437 -0.0450111
vn 0.104969 0.993451 -0.0451333
vn -0.221501 0.970456 0.0956659
vn -0.0936833 0.970456 -0.222348
vn -0.0936833 0.970456 -0.222348
vn 0.221809 0.970457 -0.0949453
vn 0.0936824 0.970457 0.222346
vn 0.0936824 0.970457 0.222346
vn -1.74645e-24 -1 -6.12323e-17
vn 0 -1 -6.12323e-17
vn 0 -1 -6.12323e-17
vn -1.03228e-23 -1 -6.12324e-17
vn 1.55075e-23 -1 -6.12323e-17
vn 2.35459e-24 -1 -6.12323e-17
vn -0.919319 3.18571e-05 0.393514
vn -0.392703 -2.07289e-05 -0.919665
vn -0.392703 -2.07463e-05 -0.919665
vn 0.919319 -3.20646e-05 -0.393514
vn 0.919319 -3.20534e-05 -0.393514
vn 0.38828 2.08785e-05 0.921542
vn 0.38828 2.09096e-05 0.921542
vn -0.392703 -2.07333e-05 -0.919665
vn -0.392703 -2.07391e-05 -0.919665
vn 0.919319 -3.21038e-05 -0.393514
vn -0.918036 3.21674e-05 0.396497
vn -0.918036 3.21645e-05 0.396497
vn -0.392703 -2.0733e-05 -0.919665
vn -0.392703 -2.08866e-05 -0.919665
vn -0.918036 3.21586e-05 0.396497
vn -0.918036 3.21762e-05 0.396497
vn 0.919319 -3.21494e-05 -0.393514
vn 0.38828 2.08534e-05 0.921542
vn 0.38828 2.08818e-05 0.921542
vn -0.918036 3.21762e-05 0.396497
vn 0.38828 2.08935e-05 0.921542

# Mesh 'defaultobject' with 57 faces
g defaultobject
usemtl DefaultMaterial
f  1//1 2//1 3//1
f  3//2 2//2 4//2
f  5//3 6//3 1//3
f  6//3 5//3 7//3
f  7//3 8//3 6//3
f  8//3 7//3 9//3
f  10//4 11//4 12//4
f  13//5 11//5 10//5
f  11//6 13//6 6//6
f  1//7 10//7 12//7
f  10//8 1//8 13//8
f  11//9 14//9 15//9
f  16//10 11//10 15//10
f  11//10 16//10 12//11
f  16//12 17//12 12//12
f  16//13 14//13 17//13
f  14//13 16//13 15//14
f  6//3 18//3 11//3
f  18//3 6//3 8//3
f  19//15 20//15 21//15
f  20//15 19//15 22//16
f  23//16 24//16 25//16
f  24//16 23//16 21//15
f  25//16 26//16 27//16
f  26//16 25//16 24//16
f  28//17 21//15 20//15
f  21//15 28//17 24//16
f  20//15 29//18 28//17
f  29//18 20//15 30//19
f  24//16 31//20 26//16
f  31//20 24//16 28//17
f  2//21 1//21 12//21
f  1//22 19//22 21//22
f  19//22 1//22 3//23
f  19//24 4//24 22//24
f  4//24 19//24 3//25
f  22//26 2//26 20//26
f  2//26 22//26 4//27
f  7//28 23//28 25//28
f  23//28 7//28 5//29
f  23//30 1//30 21//30
f  1//30 23//30 5//30
f  8//31 27//31 26//31
f  27//31 8//31 9//32
f  9//33 25//28 27//33
f  25//28 9//33 7//28
f  1//22 6//34 13//34
f  14//35 28//35 29//35
f  28//35 14//35 11//36
f  20//37 17//37 30//37
f  17//37 20//37 12//37
f  30//38 14//38 29//38
f  14//38 30//38 17//39
f  18//40 26//31 31//40
f  26//31 18//40 8//31
f  28//41 18//41 31//41
f  18//41 28//41 11//41

