# {"id":"BLDG_0003000b0013ef3e","idOriginal":"BLDG_0003000b0013ef3e","origin":[13.385497211482116,52.53015701529748],"elevation":35.310001373291}
# Longitude: 13.385497211482116
# Latitude: 52.53015701529748
# Elevation: 35.310001373291

# File produced by Open Asset Import Library (http://www.assimp.sf.net)
# (assimp v3.1.0)

mtllib BLDG_0003000b0013ef3e.obj.mtl

# 23 vertex positions
v  0 0 0
v  5.40329 -9.2433e-18 0.150955
v  1.59274 -1.55613e-16 2.54135
v  3.81151 1.4627e-16 -2.38877
v  11.5607 -4.51863e-16 7.37948
v  12.9222 6.64477e-16 -10.8517
v  20.7421 -9.95115e-17 1.62515
v  6.57144 3.55869e-17 -0.581179
v  2.57276 2.67294e-16 -4.36524
v  3.74092 3.12125e-16 -5.09739
v  3.81179 12.99 -2.38918
v  6.57171 12.99 -0.58159
v  2.57303 12.99 -4.36566
v  5.40356 12.99 0.150544
v  15.753 12.99 -6.33595
v  12.9225 12.99 -10.8521
v  20.7424 12.99 1.62474
v  11.561 12.99 7.37907
v  1.59306 14.7959 2.54088
v  3.81236 14.7959 -2.38957
v  0.000315803 14.7959 -0.000468181
v  5.4051 14.7959 0.151779
v  1.59302 12.99 2.54094

# 0 UV coordinates

# 29 vertex normals
vn 0 -1 -6.12323e-17
vn 2.6544e-24 -1 -6.12323e-17
vn 8.32062e-24 -1 -6.12323e-17
vn 2.77556e-17 -1 -5.55112e-17
vn -0 1 0
vn 0.53106 1.54752e-05 0.847334
vn 0.53106 1.55023e-05 0.847334
vn -0.847333 3.49065e-05 0.531062
vn 0.531406 1.5456e-05 0.847117
vn 0.531063 -0.000124826 0.847332
vn 0.531326 1.54531e-05 0.847168
vn 0.531406 1.54756e-05 0.847117
vn 0.53105 -0.00103039 0.84734
vn -0.53105 -1.54725e-05 -0.84734
vn -0.53105 -1.54754e-05 -0.84734
vn -0.53105 -1.55516e-05 -0.84734
vn -0.847339 3.48902e-05 0.531053
vn -0.847339 3.48817e-05 0.531053
vn -0.847339 3.49508e-05 0.531053
vn 0.847331 -3.49066e-05 -0.531065
vn 0.847331 -3.48444e-05 -0.531065
vn 0 -1 0
vn 0.847339 -0.000356373 -0.531053
vn 0.847331 -0.000380411 -0.531065
vn -0.847331 3.49105e-05 0.531065
vn -0.847331 3.4891e-05 0.531065
vn -0.531062 -1.54659e-05 -0.847333
vn -0.531062 -1.54718e-05 -0.847333
vn -0.531063 -1.55067e-05 -0.847332

# Mesh 'defaultobject' with 42 faces
g defaultobject
usemtl DefaultMaterial
f  1//1 2//1 3//1
f  2//1 1//1 4//1
f  5//2 6//2 7//2
f  6//2 5//2 8//3
f  6//2 8//3 2//1
f  6//2 2//1 4//1
f  6//2 4//1 9//1
f  6//2 9//1 10//4
f  11//5 12//5 13//5
f  12//5 11//5 14//5
f  13//5 15//5 16//5
f  15//5 13//5 17//5
f  17//5 13//5 12//5
f  17//5 12//5 18//5
f  19//5 20//5 21//5
f  20//5 19//5 22//5
f  7//6 18//6 5//6
f  18//6 7//6 17//7
f  8//8 18//8 12//8
f  18//8 8//8 5//8
f  2//9 23//9 3//9
f  23//10 2//10 8//10
f  23//11 8//11 12//11
f  23//5 12//5 14//5
f  23//9 14//12 19//12
f  22//13 19//13 14//13
f  1//14 11//14 4//14
f  11//14 1//14 21//15
f  11//14 21//15 20//16
f  3//17 21//17 1//17
f  21//17 3//17 23//18
f  21//17 23//18 19//19
f  16//20 7//20 6//20
f  7//20 16//20 17//21
f  17//22 16//22 15//22
f  14//23 20//23 22//23
f  20//24 14//24 11//24
f  9//25 11//25 13//25
f  11//25 9//25 4//26
f  6//27 13//27 16//27
f  13//27 6//27 10//28
f  13//27 10//28 9//29

