# {"id":"BLDG_00030009005bcace","idOriginal":"BLDG_00030009005bcace","origin":[13.38215752200412,52.55146863747581],"elevation":40.4300003051758}
# Longitude: 13.38215752200412
# Latitude: 52.55146863747581
# Elevation: 40.4300003051758

# File produced by Open Asset Import Library (http://www.assimp.sf.net)
# (assimp v3.1.0)

mtllib BLDG_00030009005bcace.obj.mtl

# 20 vertex positions
v  27.6005 19.1154 -15.6023
v  59.0178 -6.57739e-16 10.7417
v  27.6001 9.5533e-16 -15.6017
v  59.0182 19.1154 10.7411
v  28.6902 20.4865 -14.6887
v  55.3806 20.3686 7.69094
v  51.6784 19.1154 19.2403
v  51.678 -1.17816e-15 19.2409
v  20.3763 4.28944e-16 -7.00519
v  20.3767 19.1154 -7.0058
v  48.0407 20.3686 16.1901
v  21.4664 20.4865 -6.09216
v  11.8763 19.1154 -14.1333
v  19.0997 1.39176e-15 -22.7292
v  11.8759 8.65377e-16 -14.1327
v  19.1001 19.1154 -22.7298
v  8.19665 19.1154 7.48883
v  0 0 0
v  8.19625 -4.58596e-16 7.48944
v  0.000407931 19.1154 -0.000605719

# 0 UV coordinates

# 29 vertex normals
vn 0.642513 -3.79956e-05 -0.766275
vn 0.642513 -3.79056e-05 -0.766275
vn 0.642513 -3.79988e-05 -0.766275
vn 0.642513 -3.85951e-05 -0.766275
vn 0.756837 4.58482e-06 0.653604
vn 0.756837 4.72699e-06 0.653604
vn -0.642513 3.80338e-05 0.766275
vn -0.642513 3.79956e-05 0.766275
vn -0.642513 3.81506e-05 0.766275
vn -0.642513 3.82515e-05 0.766275
vn -0.765586 -4.06552e-06 -0.643333
vn -0.765586 -4.00133e-06 -0.643333
vn 0.642513 -3.79942e-05 -0.766275
vn 0.642513 -3.79582e-05 -0.766275
vn -0.67456 3.77911e-05 0.73822
vn -0.67456 3.77878e-05 0.73822
vn -0.765586 -4.04767e-06 -0.643333
vn 0.765586 4.04758e-06 0.643333
vn 7.35937e-24 -1 -6.12323e-17
vn 0 -1 -6.12323e-17
vn 6.80012e-24 -1 -6.12323e-17
vn 1.00826e-24 -1 -6.12323e-17
vn 0.193208 0.966866 0.166854
vn 0.193208 0.966866 0.166854
vn 0.00260236 0.999994 0.0021868
vn 0.0025617 0.999994 0.00221228
vn -0.531401 0.719869 -0.446544
vn -0.531401 0.719869 -0.446544
vn 0 1 0

# Mesh 'defaultobject' with 36 faces
g defaultobject
usemtl DefaultMaterial
f  1//1 2//1 3//1
f  2//1 1//1 4//2
f  4//2 1//1 5//3
f  4//2 5//3 6//4
f  2//5 7//5 8//5
f  7//5 2//5 4//6
f  7//7 9//7 8//7
f  9//7 7//7 10//8
f  10//8 7//7 11//9
f  10//8 11//9 12//10
f  13//11 14//11 15//11
f  14//11 13//11 16//12
f  14//13 1//1 3//1
f  1//1 14//13 16//14
f  17//15 18//15 19//15
f  18//15 17//15 20//16
f  20//17 15//11 18//17
f  15//11 20//17 13//11
f  9//18 17//18 19//18
f  17//18 9//18 10//18
f  8//19 3//19 2//19
f  3//19 8//19 9//20
f  14//21 9//20 15//21
f  9//20 14//21 3//19
f  18//22 9//20 19//22
f  9//20 18//22 15//21
f  7//23 6//23 11//23
f  6//23 7//23 4//24
f  11//25 5//25 12//25
f  5//26 11//26 6//26
f  12//27 1//27 10//27
f  1//27 12//27 5//28
f  16//29 10//29 1//29
f  10//29 16//29 13//29
f  13//29 17//29 10//29
f  17//29 13//29 20//29

