# {"id":"BLDG_0003000b0034828a","idOriginal":"BLDG_0003000b0034828a","origin":[13.361873223977513,52.55435292003348],"elevation":38.3899993896484}
# Longitude: 13.361873223977513
# Latitude: 52.55435292003348
# Elevation: 38.3899993896484

# File produced by Open Asset Import Library (http://www.assimp.sf.net)
# (assimp v3.1.0)

mtllib BLDG_0003000b0034828a.obj.mtl

# 32 vertex positions
v  42.2858 -1.98703e-16 3.24507
v  22.9541 1.51592e-16 -2.47569
v  41.3867 2.73323e-16 -4.46371
v  43.1848 -6.70729e-16 10.9538
v  24.7522 -7.92461e-16 12.9419
v  20.4986 2.86744e-16 -4.68288
v  18.3258 2.73372e-16 -4.46451
v  18.5725 1.22655e-16 -2.00311
v  0 0 0
v  20.12 -8.23052e-16 13.4415
v  1.54754 -9.45708e-16 15.4446
v  0.773769 -4.72854e-16 7.72229
v  22.6713 3.00115e-16 -4.90125
v  22.9544 13.4908 -2.47612
v  20.7636 13.4192 -2.23982
v  22.9544 13.4192 -2.47611
v  20.7636 15.3782 -2.23989
v  18.5728 13.4192 -2.00353
v  18.5728 13.4908 -2.00354
v  18.3261 13.4908 -4.46493
v  22.6716 13.4908 -4.90168
v  20.4989 15.3782 -4.68337
v  41.387 13.4192 -4.46414
v  43.1851 13.4192 10.9534
v  42.2862 17.9111 3.2445
v  24.7525 13.4192 12.9414
v  20.1203 13.4192 13.441
v  1.54782 13.4192 15.4442
v  0.000286005 13.4192 -0.00042531
v  0.774151 17.9111 7.72172
v  23.8536 17.9111 5.23252
v  19.3466 17.9111 5.71861

# 0 UV coordinates

# 57 vertex normals
vn 0 -1 -6.12323e-17
vn 6.2483e-24 -1 -6.12323e-17
vn -6.07378e-24 -1 -6.12323e-17
vn 5.51218e-23 -1 -6.12324e-17
vn -7.30342e-25 -1 -6.12323e-17
vn 0 -1 -6.12323e-17
vn 2.92137e-24 -1 -6.12323e-17
vn 0 -1 -5.55112e-17
vn 6.20561e-24 -1 -6.12323e-17
vn 0.107232 2.69574e-05 0.994234
vn 0.107232 2.91643e-05 0.994234
vn 0.107232 2.91643e-05 0.994234
vn 0.107231 3.02703e-05 0.994234
vn -0.100004 -2.9411e-05 -0.994987
vn -0.100004 -2.93964e-05 -0.994987
vn -0.100004 -2.9411e-05 -0.994987
vn -0.100004 -2.93506e-05 -0.994987
vn 0.993268 -2.48485e-05 -0.11584
vn 0.993268 -2.48476e-05 -0.11584
vn 0.993268 -2.48485e-05 -0.11584
vn 0.993268 -2.47569e-05 -0.11584
vn 0.107232 2.92252e-05 0.994234
vn 0.107232 2.9104e-05 0.994234
vn 0.107232 2.92182e-05 0.994234
vn 0.107232 2.92866e-05 0.994234
vn 0.107232 2.9104e-05 0.994234
vn 0.107232 2.92334e-05 0.994234
vn -0.995018 2.43742e-05 0.0997002
vn -0.995018 2.43808e-05 0.0997002
vn -0.995018 2.43668e-05 0.0997002
vn -0.995017 2.43468e-05 0.0997002
vn -0.995018 2.43725e-05 0.0996999
vn -0.995018 2.44032e-05 0.0996997
vn -0.995018 2.99706e-05 0.0996999
vn 0.993268 -2.48776e-05 -0.11584
vn 0.993268 -2.48485e-05 -0.115839
vn 0.993268 -2.99512e-05 -0.11584
vn -0.107232 -2.92273e-05 -0.994234
vn -0.107232 -2.92259e-05 -0.994234
vn -0.107232 -2.92096e-05 -0.994234
vn -0.0537176 0.865477 -0.49806
vn -0.0537176 0.865477 -0.49806
vn -0.0537175 0.865477 -0.49806
vn -0.0537176 0.865477 -0.49806
vn -0.0537176 0.865477 -0.49806
vn -0.0537176 0.865477 -0.49806
vn -0.0537176 0.865477 -0.49806
vn 0.0537162 0.865485 0.498047
vn 0.0537162 0.865485 0.498047
vn 0.0537162 0.865485 0.498047
vn 0.0537162 0.865485 0.498047
vn 0.0537162 0.865485 0.498047
vn 0.0537162 0.865485 0.498047
vn -0.646732 0.759491 0.070075
vn -0.650657 0.756568 0.0651953
vn 0.646168 0.759465 -0.0753592
vn 0.650137 0.756545 -0.0704439

# Mesh 'defaultobject' with 60 faces
g defaultobject
usemtl DefaultMaterial
f  1//1 2//1 3//1
f  2//1 1//1 4//1
f  2//1 4//1 5//1
f  2//1 5//1 6//2
f  6//2 5//1 7//3
f  7//3 5//1 8//4
f  8//4 5//1 9//5
f  9//5 5//1 10//6
f  9//5 10//6 11//7
f  9//5 11//7 12//8
f  6//2 13//9 2//1
f  14//10 15//10 16//10
f  15//10 14//10 17//11
f  15//10 17//11 18//12
f  18//12 17//11 19//13
f  20//14 6//14 7//14
f  6//14 20//14 13//15
f  13//15 20//14 21//16
f  21//16 20//14 22//17
f  23//18 1//18 3//18
f  1//18 23//18 4//19
f  4//19 23//18 24//20
f  24//20 23//18 25//21
f  26//22 4//22 24//22
f  4//22 26//22 27//23
f  4//22 27//23 28//24
f  4//22 28//24 5//25
f  5//25 28//24 10//26
f  10//26 28//24 11//27
f  28//28 12//28 11//28
f  12//28 28//28 9//29
f  9//29 28//28 29//30
f  29//30 28//28 30//31
f  18//32 7//32 8//32
f  7//32 18//32 20//33
f  20//33 18//32 19//34
f  21//35 2//35 13//35
f  2//35 21//35 16//36
f  16//36 21//35 14//37
f  16//38 3//38 2//38
f  3//38 16//38 23//38
f  29//39 8//39 9//39
f  8//39 29//39 18//40
f  16//41 25//41 23//41
f  25//41 16//41 31//42
f  31//42 16//41 15//43
f  31//42 15//43 18//44
f  31//42 18//44 32//45
f  32//45 18//44 29//46
f  32//45 29//46 30//47
f  31//48 24//48 25//48
f  24//48 31//48 32//49
f  24//48 32//49 30//50
f  24//48 30//50 26//51
f  26//51 30//50 27//52
f  27//52 30//50 28//53
f  22//54 19//54 17//54
f  19//55 22//55 20//55
f  21//56 17//56 14//56
f  17//57 21//57 22//57

