# {"id":"BLDG_00030009007ea429","idOriginal":"BLDG_00030009007ea429","origin":[13.375566812066737,52.55960160108857],"elevation":40.7999992370605}
# Longitude: 13.375566812066737
# Latitude: 52.55960160108857
# Elevation: 40.7999992370605

# File produced by Open Asset Import Library (http://www.assimp.sf.net)
# (assimp v3.1.0)

mtllib BLDG_00030009007ea429.obj.mtl

# 8 vertex positions
v  14.7619 6.65402e-16 -10.8668
v  0 0 0
v  2.95825 8.2562e-16 -13.4834
v  11.8036 -1.60218e-16 2.61656
v  0.00029432 13.7971 -0.00043745
v  2.95854 13.7971 -13.4838
v  14.7621 11.9852 -10.8672
v  11.8039 11.9852 2.61618

# 0 UV coordinates

# 11 vertex normals
vn 1.26882e-24 -1 -6.12323e-17
vn -6.34412e-25 -1 -6.12323e-17
vn -0.976767 1.40418e-05 -0.214302
vn -0.976768 1.40442e-05 -0.214302
vn 0.216421 -3.55222e-05 -0.9763
vn 0.216421 -3.55338e-05 -0.9763
vn 0.976767 -1.40418e-05 0.214302
vn -0.216421 3.55721e-05 0.9763
vn -0.216421 3.5553e-05 0.9763
vn 0.144767 0.988956 0.0317617
vn 0.144767 0.988956 0.0317617

# Mesh 'defaultobject' with 12 faces
g defaultobject
usemtl DefaultMaterial
f  1//1 2//1 3//1
f  2//1 1//1 4//2
f  5//3 3//3 2//3
f  3//3 5//3 6//4
f  6//5 1//5 3//5
f  1//5 6//5 7//6
f  1//7 8//7 4//7
f  8//7 1//7 7//7
f  4//8 5//8 2//8
f  5//8 4//8 8//9
f  7//10 5//10 8//10
f  5//10 7//10 6//11

