# {"id":"BLDG_0003000b001e4b71","idOriginal":"BLDG_0003000b001e4b71","origin":[13.35199658783371,52.521472473193796],"elevation":35.26}
# Longitude: 13.35199658783371
# Latitude: 52.521472473193796
# Elevation: 35.26

# File produced by Open Asset Import Library (http://www.assimp.sf.net)
# (assimp v3.1.0)

mtllib BLDG_0003000b001e4b71.obj.mtl

# 32 vertex positions
v  20.9237 1.42986e-15 -23.3513
v  13.3694 7.72738e-16 -12.6198
v  16.1768 1.49921e-15 -24.484
v  18.1208 7.04535e-16 -11.5059
v  12.9251 6.57765e-16 -10.7421
v  17.6766 5.89562e-16 -9.62828
v  10.1668 -5.60242e-17 0.914944
v  14.9182 -1.24228e-16 2.02879
v  9.83761 -1.41212e-16 2.30616
v  14.589 -2.09415e-16 3.42
v  12.9251 -0.21 -10.7421
v  3.58877 -0.21 -14.9126
v  13.3694 -0.21 -12.6198
v  10.1668 -0.21 0.914951
v  3.13732 -0.21 -13.0366
v  0.334497 -0.21 -1.38995
v  9.83761 -0.21 2.30617
v  0 -0.21 -1.28588e-17
v  14.5895 23.2 3.41927
v  20.9243 25.74 -23.3521
v  14.9188 25.58 2.02798
v  18.1214 25.74 -11.5067
v  17.6771 25.74 -9.62909
v  16.1773 23.2 -24.4847
v  13.3699 23.2 -12.6205
v  9.83811 23.2 2.30543
v  12.9257 25.74 -10.7429
v  10.1674 25.58 0.914135
v  0.000498581 23.2 -0.00074035
v  3.58927 23.2 -14.9133
v  0.335046 25.58 -1.39077
v  3.13787 25.74 -13.0375

# 0 UV coordinates

# 62 vertex normals
vn 1.77952e-24 -1 -6.12323e-17
vn 6.23819e-24 -1 -6.12323e-17
vn 1.40551e-24 -1 -6.12323e-17
vn -2.45965e-24 -1 -6.12324e-17
vn -5.43341e-24 -1 -6.12323e-17
vn 9.05569e-25 -1 -6.12323e-17
vn 2.84543e-24 -1 -6.12323e-17
vn 2.13407e-24 -1 -6.12323e-17
vn 0 -1 -0
vn 0.973128 -1.34799e-05 0.230264
vn 0.973128 -1.34638e-05 0.230264
vn 0.973128 -1.31234e-05 0.230263
vn 0.973128 -1.35621e-05 0.230264
vn 0.973128 -1.3403e-05 0.230264
vn 0.973128 -1.31538e-05 0.230264
vn 0.973128 -2.3504e-05 0.230264
vn 0.973128 1.23565e-05 0.230264
vn -0.973128 1.34327e-05 -0.230264
vn -0.973128 1.35495e-05 -0.230264
vn -0.973128 1.34518e-05 -0.230264
vn -0.973128 1.38016e-05 -0.230263
vn -0.973128 1.33787e-05 -0.230264
vn -0.973128 1.34431e-05 -0.230264
vn -0.973128 1.35492e-05 -0.230264
vn -0.973128 1.36234e-05 -0.230264
vn 0.973128 -1.35285e-05 0.230264
vn 0.973128 -1.34804e-05 0.230264
vn 0.973128 -1.34422e-05 0.230264
vn 0.973128 -1.34431e-05 0.230264
vn 0.973128 -1.03572e-05 0.230264
vn 0.973128 -3.88346e-05 0.230264
vn 0.973128 -1.36478e-05 0.230264
vn 0.973128 -1.47908e-05 0.230264
vn -0.228236 3.56559e-05 0.973606
vn -0.228236 3.56512e-05 0.973606
vn -0.228236 3.56273e-05 0.973606
vn -0.228236 3.56516e-05 0.973606
vn -0.228236 3.68543e-05 0.973606
vn -0.972243 1.33576e-05 -0.233974
vn -0.972243 1.32973e-05 -0.233974
vn -0.972243 1.3301e-05 -0.233974
vn -0.972243 1.33071e-05 -0.233974
vn 0 1 0
vn 0.232086 -3.57297e-05 -0.972695
vn 0.232086 -3.57127e-05 -0.972695
vn 0.228236 -3.56783e-05 -0.973606
vn 0.228237 -3.50961e-05 -0.973606
vn 0.228236 -3.56366e-05 -0.973606
vn -0.449271 0.887048 -0.106307
vn -0.449271 0.887048 -0.106308
vn -0.449271 0.887048 -0.106308
vn -0.195649 0.51495 0.834595
vn -0.195649 0.51495 0.834595
vn -0.195649 0.51495 0.834595
vn -0.195648 0.514944 0.834598
vn -0.00304822 0.999911 0.0130031
vn -0.0030482 0.999911 0.0130031
vn -0.00304822 0.999911 0.013003
vn -0.00304825 0.999911 0.013003
vn 0.181747 0.604886 -0.775294
vn 0.181749 0.604886 -0.775293
vn 0.181748 0.604881 -0.775298

# Mesh 'defaultobject' with 68 faces
g defaultobject
usemtl DefaultMaterial
f  1//1 2//1 3//1
f  2//1 1//1 4//2
f  2//1 4//2 5//3
f  5//3 4//2 6//4
f  5//3 6//4 7//5
f  7//5 6//4 8//6
f  7//5 8//6 9//7
f  9//7 8//6 10//8
f  11//9 12//9 13//9
f  12//9 11//9 14//9
f  12//9 14//9 15//9
f  15//9 14//9 16//9
f  16//9 14//9 17//9
f  16//9 17//9 18//9
f  8//10 19//10 10//10
f  19//10 8//10 6//11
f  19//10 6//11 4//12
f  19//10 4//12 1//13
f  19//10 1//13 20//14
f  19//10 20//14 21//15
f  21//16 20//16 22//16
f  21//17 22//17 23//17
f  2//18 24//18 3//18
f  24//18 2//18 5//19
f  24//18 5//19 7//20
f  24//18 7//20 9//21
f  24//18 9//21 25//22
f  25//22 9//21 26//23
f  25//22 26//23 27//24
f  27//24 26//23 28//25
f  28//26 25//26 27//26
f  25//26 28//26 26//27
f  25//26 26//27 2//28
f  2//28 26//27 9//29
f  2//28 9//29 13//30
f  13//31 9//31 11//31
f  11//32 9//29 14//32
f  14//32 9//29 17//33
f  19//34 9//34 10//34
f  9//34 19//34 18//35
f  18//35 19//34 26//36
f  18//35 26//36 29//37
f  18//35 17//38 9//34
f  30//39 31//39 32//39
f  31//39 30//39 29//40
f  29//40 30//39 12//41
f  29//40 12//41 18//42
f  18//43 12//43 15//43
f  18//42 15//9 16//9
f  24//44 1//44 3//44
f  1//44 24//44 20//45
f  30//46 13//46 12//46
f  13//46 30//46 2//47
f  2//47 30//46 25//48
f  24//49 22//49 20//49
f  22//49 24//49 25//50
f  22//49 25//50 23//51
f  21//52 26//52 19//52
f  26//52 21//52 28//53
f  26//52 28//53 29//54
f  29//54 28//53 31//55
f  23//56 28//56 21//56
f  28//56 23//56 31//57
f  31//57 23//56 27//58
f  31//57 27//58 32//59
f  25//60 27//60 23//60
f  27//60 25//60 32//61
f  32//61 25//60 30//62

