# {"id":"BLDG_0003000a00045487","idOriginal":"BLDG_0003000a00045487","origin":[13.387121343950247,52.553732412467504],"elevation":39.25}
# Longitude: 13.387121343950247
# Latitude: 52.553732412467504
# Elevation: 39.25

# File produced by Open Asset Import Library (http://www.assimp.sf.net)
# (assimp v3.1.0)

mtllib BLDG_0003000a00045487.obj.mtl

# 21 vertex positions
v  10.8306 17.8235 -9.45567
v  10.3773 21.134 -1.80414
v  14.5916 21.134 -5.48336
v  6.6163 17.8235 -5.77644
v  14.1381 17.8235 2.16838
v  18.3525 17.8235 -1.51085
v  3.63491 21.134 4.08214
v  0.000380484 17.8235 -0.00056487
v  7.26929 17.8235 8.16506
v  20.5901 6.91465 8.98379
v  18.3523 8.66939 -1.51056
v  14.1379 6.91465 2.16873
v  24.8009 8.66939 5.30076
v  10.8302 5.78958e-16 -9.45511
v  14.1377 -1.3281e-16 2.16894
v  6.61592 3.53671e-16 -5.77588
v  18.3521 9.24782e-17 -1.51028
v  7.26891 -5e-16 8.16562
v  0 0 0
v  20.59 -5.50112e-16 8.98401
v  24.8007 -3.24595e-16 5.30103

# 0 UV coordinates

# 29 vertex normals
vn -0.340706 0.855347 -0.390258
vn -0.340706 0.855347 -0.390258
vn 0.340703 0.85535 0.390254
vn 0.340703 0.85535 0.390254
vn -0.340706 0.855347 -0.390258
vn -0.340706 0.855347 -0.390258
vn 0.340703 0.85535 0.390254
vn 0.340703 0.85535 0.390254
vn -0.21749 0.954096 0.205911
vn -0.21749 0.954096 0.205911
vn 3.46256e-24 -1 -6.12323e-17
vn 0 -1 -6.12323e-17
vn -4.03878e-24 -1 -6.12323e-17
vn -0.657663 -9.82133e-06 -0.753312
vn 0.726174 -3.72808e-05 -0.687511
vn 0.726174 -3.72511e-05 -0.687511
vn 0.726174 -3.73898e-05 -0.687511
vn 0.657663 9.8136e-06 0.753312
vn 0.657663 9.90703e-06 0.753312
vn -0.746929 3.69878e-05 0.664904
vn -0.746929 3.70174e-05 0.664904
vn -0.746929 3.69442e-05 0.664904
vn -0.657663 -9.83499e-06 -0.753312
vn 0.657663 9.85847e-06 0.753312
vn 0.726174 -3.72479e-05 -0.687511
vn 0.658358 9.88637e-06 0.752705
vn 0.658358 9.79272e-06 0.752705
vn -0.726174 3.72329e-05 0.687511
vn -0.726174 3.72091e-05 0.687511

# Mesh 'defaultobject' with 36 faces
g defaultobject
usemtl DefaultMaterial
f  1//1 2//1 3//1
f  2//1 1//1 4//2
f  3//3 5//3 6//3
f  5//3 3//3 2//4
f  4//2 7//5 2//1
f  7//5 4//2 8//6
f  2//4 9//7 5//3
f  9//7 2//4 7//8
f  10//9 11//9 12//9
f  11//9 10//9 13//10
f  14//11 15//11 16//11
f  15//11 14//11 17//12
f  16//11 18//12 19//12
f  18//12 16//11 15//11
f  20//13 17//12 21//13
f  17//12 20//13 15//11
f  4//14 14//14 16//14
f  14//14 4//14 1//14
f  1//15 17//15 14//15
f  17//15 1//15 6//16
f  6//16 1//15 3//17
f  11//18 5//18 12//18
f  5//18 11//18 6//19
f  9//20 19//20 18//20
f  19//20 9//20 8//21
f  8//21 9//20 7//22
f  8//23 16//14 19//23
f  16//14 8//23 4//14
f  15//24 9//24 18//24
f  9//24 15//24 5//18
f  17//15 13//25 21//25
f  13//25 17//15 11//25
f  21//26 10//26 20//26
f  10//26 21//26 13//27
f  10//28 15//28 20//28
f  15//28 10//28 12//29

