# {"id":"BLDG_0003000e00350674","idOriginal":"BLDG_0003000e00350674","origin":[13.406950640251353,52.52390823181949],"elevation":35.2799987792969}
# Longitude: 13.406950640251353
# Latitude: 52.52390823181949
# Elevation: 35.2799987792969

# File produced by Open Asset Import Library (http://www.assimp.sf.net)
# (assimp v3.1.0)

mtllib BLDG_0003000e00350674.obj.mtl

# 32 vertex positions
v  23.2083 24.1572 -2.63338
v  27.8837 20.1144 -6.31622
v  25.5613 24.1572 -7.5364
v  25.5307 20.1144 -1.4132
v  14.2254 23.6202 -7.35227
v  16.5784 23.6202 -12.2553
v  12.9211 20.1144 -8.0373
v  15.2742 23.8607 -12.9404
v  10.1926 20.1144 -2.35183
v  11.5142 23.6202 -1.70089
v  20.6089 24.1572 2.77939
v  22.9622 20.1144 3.93886
v  7.33122 23.8607 3.61058
v  8.65279 23.6202 4.26164
v  17.7474 24.1572 8.74192
v  20.1007 20.1144 9.90139
v  5.19178 20.1144 -12.0977
v  7.34174 23.8607 -17.1075
v  0.000509968 23.8607 -0.00075468
v  2.61202 20.1144 -6.08626
v  27.8832 3.86718e-16 -6.31558
v  12.9207 4.92104e-16 -8.03667
v  15.2737 7.92327e-16 -12.9397
v  25.5302 8.64947e-17 -1.41257
v  10.1922 1.43969e-16 -2.3512
v  22.9618 -2.41225e-16 3.9395
v  7.33071 -2.2113e-16 3.61133
v  20.1003 -6.06324e-16 9.90203
v  5.19135 7.40731e-16 -12.0971
v  7.34123 1.04749e-15 -17.1068
v  0 0 0
v  2.61159 3.72637e-16 -6.08562

# 0 UV coordinates

# 50 vertex normals
vn 0.756427 0.544095 0.363015
vn -0.0476756 0.998601 -0.0228799
vn -0.0476756 0.998601 -0.0228799
vn -0.831231 0.387199 -0.398914
vn -0.141803 0.818231 0.557126
vn -0.831212 0.387398 -0.39876
vn -0.831231 0.387199 -0.398914
vn -0.0476811 0.9986 -0.022898
vn -0.0476791 0.998601 -0.0228732
vn 0.756291 0.544327 0.36295
vn 0.756329 0.544098 0.363213
vn 0.342199 0.860832 -0.376654
vn -0.831155 0.387398 -0.398878
vn -0.0476872 0.9986 -0.0228855
vn 0.756291 0.544327 0.36295
vn 0.756291 0.544326 0.36295
vn -0.263935 0.823351 0.502425
vn -0.263935 0.823351 0.502425
vn 0.217821 0.870086 -0.442158
vn 0.217821 0.870086 -0.442158
vn -2.05162e-24 -1 -6.12323e-17
vn -1.36775e-24 -1 -6.12323e-17
vn 0 -1 -6.12323e-17
vn -1.82764e-24 -1 -6.12323e-17
vn -7.88148e-24 -1 -6.12324e-17
vn 9.79578e-25 -1 -6.12323e-17
vn 9.4729e-25 -1 -6.12323e-17
vn 0.465058 -3.7914e-05 -0.88528
vn 0.465058 -3.79186e-05 -0.88528
vn 0.465058 -3.64376e-05 -0.88528
vn 0.465058 -3.80295e-05 -0.88528
vn 0.901556 -5.55344e-06 0.432663
vn -0.901556 5.59027e-06 -0.432663
vn -0.901556 5.55266e-06 -0.432663
vn 0.901556 -5.55871e-06 0.432663
vn 0.901556 -5.53443e-06 0.432663
vn -0.441917 3.78398e-05 0.897056
vn -0.441917 3.78191e-05 0.897056
vn -0.441918 3.50366e-05 0.897055
vn -0.441917 3.76108e-05 0.897056
vn 0.465058 -3.79586e-05 -0.88528
vn -0.465058 3.7926e-05 0.88528
vn -0.465058 3.79152e-05 0.88528
vn -0.918955 7.15691e-06 -0.394362
vn -0.918955 7.14823e-06 -0.394362
vn -0.441917 3.78166e-05 0.897056
vn -0.918955 7.16747e-06 -0.394362
vn -0.918955 7.16781e-06 -0.394362
vn 0.441917 -3.78129e-05 -0.897056
vn 0.441917 -3.78288e-05 -0.897056

# Mesh 'defaultobject' with 60 faces
g defaultobject
usemtl DefaultMaterial
f  1//1 2//1 3//1
f  2//1 1//1 4//1
f  5//2 3//2 6//2
f  3//2 5//2 1//3
f  5//4 6//4 7//4
f  6//5 8//5 7//5
f  5//6 9//6 10//6
f  9//7 5//4 7//4
f  1//8 10//8 11//8
f  10//9 1//3 5//2
f  4//10 11//10 12//10
f  11//11 4//11 1//11
f  13//12 14//12 9//12
f  14//13 10//13 9//13
f  14//14 11//14 10//14
f  11//14 14//14 15//14
f  15//15 12//10 11//10
f  12//10 15//15 16//16
f  17//17 8//17 18//17
f  8//17 17//17 7//18
f  9//19 19//19 13//19
f  19//19 9//19 20//20
f  21//21 22//21 23//21
f  22//21 21//21 24//22
f  25//23 24//22 26//23
f  24//22 25//23 22//21
f  27//24 26//23 28//24
f  26//23 27//24 25//23
f  23//21 29//25 30//25
f  29//25 23//21 22//21
f  31//26 25//23 27//24
f  25//23 31//26 32//27
f  8//28 21//28 23//28
f  21//28 8//28 2//29
f  2//29 8//28 6//30
f  3//31 2//29 6//30
f  21//32 4//32 24//32
f  4//32 21//32 2//32
f  9//33 22//33 25//33
f  22//33 9//33 7//34
f  24//32 12//35 26//35
f  12//35 24//32 4//32
f  26//35 16//36 28//36
f  16//36 26//35 12//35
f  16//37 27//37 28//37
f  27//37 16//37 13//38
f  13//38 16//37 14//39
f  14//39 16//37 15//40
f  18//41 23//28 30//41
f  23//28 18//41 8//28
f  22//42 17//42 29//42
f  17//42 22//42 7//43
f  17//44 30//44 29//44
f  30//44 17//44 18//45
f  27//37 19//46 31//46
f  19//46 27//37 13//38
f  19//47 32//47 31//47
f  32//47 19//47 20//48
f  20//49 25//49 32//49
f  25//49 20//49 9//50

