# {"id":"BLDG_0003000a00223f5e","idOriginal":"BLDG_0003000a00223f5e","origin":[13.396912344917956,52.54330741487387],"elevation":45.9799995422363}
# Longitude: 13.396912344917956
# Latitude: 52.54330741487387
# Elevation: 45.9799995422363

# File produced by Open Asset Import Library (http://www.assimp.sf.net)
# (assimp v3.1.0)

mtllib BLDG_0003000a00223f5e.obj.mtl

# 10 vertex positions
v  17.1269 -7.67913e-16 12.541
v  7.37519 19.4482 16.8169
v  7.37477 -1.02978e-15 16.8175
v  17.1273 19.4482 12.5404
v  0 0 0
v  0.000415416 19.4482 -0.00061592
v  9.75216 2.61862e-16 -4.27653
v  9.75257 19.4482 -4.27715
v  4.8765 19.8398 -2.1389
v  10.113 19.8398 9.80254

# 0 UV coordinates

# 15 vertex normals
vn 0.401604 2.0446e-05 0.915813
vn 0.401604 2.04276e-05 0.915813
vn -0.915815 3.22794e-05 0.401601
vn -0.915815 3.22805e-05 0.401601
vn -0.401604 -2.04253e-05 -0.915813
vn -0.401604 -2.04021e-05 -0.915813
vn -0.401604 -2.05845e-05 -0.915813
vn 0.915815 -3.23004e-05 -0.401601
vn 0.915815 -3.22577e-05 -0.401601
vn 0.0294559 0.997307 0.0671708
vn -0.0671707 0.997307 0.0294555
vn -0.0671707 0.997307 0.0294555
vn 0.0671711 0.997307 -0.0294557
vn 0.067171 0.997307 -0.0294557
vn -4.33164e-24 -1 -6.12323e-17

# Mesh 'defaultobject' with 16 faces
g defaultobject
usemtl DefaultMaterial
f  1//1 2//1 3//1
f  2//1 1//1 4//2
f  2//3 5//3 3//3
f  5//3 2//3 6//4
f  6//5 7//5 5//5
f  7//5 6//5 8//6
f  8//6 6//5 9//7
f  7//8 4//8 1//8
f  4//8 7//8 8//9
f  10//10 2//10 4//10
f  6//11 10//11 9//11
f  10//11 6//11 2//12
f  9//13 4//13 8//13
f  4//13 9//13 10//14
f  5//15 1//15 3//15
f  1//15 5//15 7//15

