# {"id":"BLDG_0003000a0014a266","idOriginal":"BLDG_0003000a0014a266","origin":[13.378745560488435,52.56238076943548],"elevation":41.0400009155273}
# Longitude: 13.378745560488435
# Latitude: 52.56238076943548
# Elevation: 41.0400009155273

# File produced by Open Asset Import Library (http://www.assimp.sf.net)
# (assimp v3.1.0)

mtllib BLDG_0003000a0014a266.obj.mtl

# 18 vertex positions
v  9.6864 6.18395 -21.8091
v  10.3353 1.42068e-15 -23.2015
v  9.68627 1.33541e-15 -21.8089
v  10.3354 6.18395 -23.2017
v  7.86224 6.18395 -22.6127
v  7.86211 1.38462e-15 -22.6125
v  7.03024 6.18395 -21.0018
v  7.03011 1.28597e-15 -21.0016
v  9.03509 1.23141e-15 -20.1105
v  9.03522 6.18395 -20.1107
v  3.57224 6.18395 -7.95158
v  3.57211 4.86882e-16 -7.95138
v  0.000131944 6.18395 -0.0001961
v  0 0 0
v  14.5721 -3.95181e-16 6.45379
v  14.5722 6.18395 6.4536
v  24.93 1.00991e-15 -16.4931
v  24.9301 6.18395 -16.4933

# 0 UV coordinates

# 23 vertex normals
vn -0.906394 5.86968e-06 -0.422434
vn -0.906394 5.99996e-06 -0.422434
vn 0.403125 -3.76524e-05 -0.915145
vn -0.888497 4.39937e-06 -0.458882
vn -0.888497 4.33087e-06 -0.458882
vn -0.406123 3.77361e-05 0.913818
vn -0.406123 3.7701e-05 0.913818
vn -0.912164 6.45976e-06 -0.409826
vn -0.912164 6.53366e-06 -0.409826
vn -0.912179 6.46777e-06 -0.409791
vn -0.912179 6.4612e-06 -0.409791
vn -0.40495 3.7545e-05 0.914339
vn 0.911448 -6.46854e-06 0.411415
vn 0.911448 -6.37053e-06 0.411415
vn 0.417641 -3.74735e-05 -0.908612
vn 0 1 0
vn 1.05554e-24 -1 -6.12323e-17
vn 6.08009e-24 -1 -6.12323e-17
vn 2.98209e-24 -1 -6.12323e-17
vn -3.06431e-23 -1 -6.12322e-17
vn 1.20194e-23 -1 -6.12324e-17
vn 1.10073e-23 -1 -6.12324e-17
vn -2.14522e-24 -1 -6.12323e-17

# Mesh 'defaultobject' with 32 faces
g defaultobject
usemtl DefaultMaterial
f  1//1 2//1 3//1
f  2//1 1//1 4//2
f  5//3 3//3 6//3
f  3//3 5//3 1//3
f  7//4 6//4 8//4
f  6//4 7//4 5//5
f  7//6 9//6 10//6
f  9//6 7//6 8//7
f  11//8 9//8 12//8
f  9//8 11//8 10//9
f  13//10 12//10 14//10
f  12//10 13//10 11//11
f  13//12 15//12 16//12
f  15//12 13//12 14//12
f  16//13 17//13 18//13
f  17//13 16//13 15//14
f  4//15 17//15 2//15
f  17//15 4//15 18//15
f  18//16 13//16 16//16
f  13//16 18//16 11//16
f  11//16 18//16 10//16
f  10//16 18//16 4//16
f  10//16 4//16 1//16
f  10//16 1//16 7//16
f  5//16 7//16 1//16
f  14//17 17//17 15//17
f  17//17 14//17 12//18
f  17//17 12//18 9//19
f  17//17 9//19 8//20
f  17//17 8//20 3//21
f  3//21 8//20 6//22
f  2//23 17//17 3//21

