# {"id":"BLDG_0003000e001a16db","idOriginal":"BLDG_0003000e001a16db","origin":[13.341897703395293,52.52112318647885],"elevation":33.7000007629395}
# Longitude: 13.341897703395293
# Latitude: 52.52112318647885
# Elevation: 33.7000007629395

# File produced by Open Asset Import Library (http://www.assimp.sf.net)
# (assimp v3.1.0)

mtllib BLDG_0003000e001a16db.obj.mtl

# 8 vertex positions
v  4.99904 35.6444 46.0738
v  15.4609 35.6444 -1.53304
v  0.000758654 35.6444 -0.00112727
v  20.3311 35.6444 44.5883
v  20.3303 -2.73031e-15 44.5894
v  4.99828 -2.82128e-15 46.0749
v  15.4602 9.38025e-17 -1.53191
v  0 0 0

# 0 UV coordinates

# 11 vertex normals
vn 0 1 0
vn 0.0964386 2.94755e-05 0.995339
vn 0.0964384 2.93678e-05 0.995339
vn 0.994471 -2.44974e-05 -0.10501
vn 0.994471 -2.4479e-05 -0.10501
vn -0.0986046 -2.93727e-05 -0.995127
vn -0.0986046 -2.93732e-05 -0.995127
vn -0.994167 2.45894e-05 0.107849
vn -0.994167 2.45706e-05 0.107849
vn 9.48566e-24 -1 -6.12323e-17
vn -5.8823e-25 -1 -6.12323e-17

# Mesh 'defaultobject' with 12 faces
g defaultobject
usemtl DefaultMaterial
f  1//1 2//1 3//1
f  2//1 1//1 4//1
f  5//2 1//2 6//2
f  1//2 5//2 4//3
f  7//4 4//4 5//4
f  4//4 7//4 2//5
f  3//6 7//6 8//6
f  7//6 3//6 2//7
f  1//8 8//8 6//8
f  8//8 1//8 3//9
f  6//10 7//10 5//10
f  7//10 6//10 8//11

