# {"id":"BLDG_0003000b0024217c","idOriginal":"BLDG_0003000b0024217c","origin":[13.40341922086322,52.53138058885956],"elevation":40.0900001525879}
# Longitude: 13.40341922086322
# Latitude: 52.53138058885956
# Elevation: 40.0900001525879

# File produced by Open Asset Import Library (http://www.assimp.sf.net)
# (assimp v3.1.0)

mtllib BLDG_0003000b0024217c.obj.mtl

# 10 vertex positions
v  0 0 0
v  20.8342 2.26536e-17 -0.369961
v  15.9497 -5.40663e-16 8.82969
v  4.88448 5.63316e-16 -9.19965
v  20.8346 18.2916 -0.37054
v  15.9501 18.2916 8.82911
v  18.3925 22.2206 4.22916
v  0.00039086 18.2916 -0.00057883
v  4.88487 18.2916 -9.20023
v  2.44271 22.2206 -4.60053

# 0 UV coordinates

# 14 vertex normals
vn 6.97085e-26 -1 -6.12323e-17
vn 1.39417e-25 -1 -6.12323e-17
vn 0.883228 -4.04089e-06 0.468943
vn 0.883228 -4.03936e-06 0.468943
vn 0.883229 -3.91492e-06 0.468943
vn -0.484331 3.80248e-05 0.874885
vn -0.883228 4.03358e-06 -0.468943
vn -0.883228 4.03936e-06 -0.468943
vn -0.883228 4.10135e-06 -0.468943
vn 0.484331 -3.8041e-05 -0.874885
vn 0.484331 -3.80382e-05 -0.874885
vn -0.291717 0.798263 0.526951
vn 0.291728 0.798246 -0.52697
vn 0.291728 0.798246 -0.52697

# Mesh 'defaultobject' with 16 faces
g defaultobject
usemtl DefaultMaterial
f  1//1 2//1 3//1
f  2//1 1//1 4//2
f  5//3 3//3 2//3
f  3//3 5//3 6//4
f  6//4 5//3 7//5
f  3//6 8//6 1//6
f  8//6 3//6 6//6
f  8//7 4//7 1//7
f  4//7 8//7 9//8
f  9//8 8//7 10//9
f  9//10 2//10 4//10
f  2//10 9//10 5//11
f  8//12 7//12 10//12
f  7//12 8//12 6//12
f  10//13 5//13 9//13
f  5//13 10//13 7//14

