# {"id":"BLDG_0003000000198737","idOriginal":"BLDG_0003000000198737","origin":[13.418344332468884,52.50888735936361],"elevation":35.2900009155273}
# Longitude: 13.418344332468884
# Latitude: 52.50888735936361
# Elevation: 35.2900009155273

# File produced by Open Asset Import Library (http://www.assimp.sf.net)
# (assimp v3.1.0)

mtllib BLDG_0003000000198737.obj.mtl

# 8 vertex positions
v  7.08619 8.1385e-16 -13.2912
v  2.21066 -7.12049e-17 1.16286
v  0 0 0
v  9.17795 7.42951e-16 -12.1333
v  7.3506e-05 3.43689 -0.00010859
v  2.21074 3.43689 1.16275
v  9.17802 3.43689 -12.1334
v  7.08627 3.43689 -13.2913

# 0 UV coordinates

# 10 vertex normals
vn 0 -1 -6.12323e-17
vn 0 -1 -6.12323e-17
vn -0.465544 3.79643e-05 0.885024
vn -0.465545 3.79088e-05 0.885024
vn 0.88576 -4.28856e-06 0.464144
vn 0.88576 -4.43644e-06 0.464144
vn 0.484291 -3.80233e-05 -0.874907
vn -0.88242 4.00811e-06 -0.470463
vn -0.88242 3.97177e-06 -0.470463
vn 0 1 0

# Mesh 'defaultobject' with 12 faces
g defaultobject
usemtl DefaultMaterial
f  1//1 2//1 3//1
f  2//1 1//1 4//2
f  5//3 2//3 6//3
f  2//3 5//3 3//4
f  6//5 4//5 7//5
f  4//5 6//5 2//6
f  8//7 4//7 1//7
f  4//7 8//7 7//7
f  5//8 1//8 3//8
f  1//8 5//8 8//9
f  7//10 5//10 6//10
f  5//10 7//10 8//10

