# {"id":"BLDG_0003000a0018ebe3","idOriginal":"BLDG_0003000a0018ebe3","origin":[13.384439630408428,52.55932484966173],"elevation":39.9799995422363}
# Longitude: 13.384439630408428
# Latitude: 52.55932484966173
# Elevation: 39.9799995422363

# File produced by Open Asset Import Library (http://www.assimp.sf.net)
# (assimp v3.1.0)

mtllib BLDG_0003000a0018ebe3.obj.mtl

# 24 vertex positions
v  5.43207 6.88353e-16 -11.2417
v  8.88608 -2.62923e-16 4.29386
v  0 0 0
v  5.61951 7.12136e-16 -11.6301
v  13.4159 4.73876e-16 -7.73898
v  13.1728 4.18076e-16 -6.8277
v  10.8956 -3.22386e-16 5.26496
v  16.4732 -4.87402e-16 7.95987
v  13.9926 3.91158e-16 -6.38809
v  15.9528 3.32052e-16 -5.42281
v  18.6693 4.69594e-16 -7.66905
v  23.0063 3.2867e-16 -5.36759
v  13.1732 20.7512 -6.82836
v  13.4164 20.7512 -7.73964
v  5.61995 20.7512 -11.6307
v  5.43252 20.7512 -11.2423
v  0.000442914 20.7512 -0.00065789
v  8.88652 20.7512 4.29321
v  10.8961 20.7512 5.2643
v  16.4736 20.7512 7.95921
v  23.0067 20.7512 -5.36825
v  18.6698 20.7512 -7.66971
v  15.9533 20.7512 -5.42347
v  13.993 20.7512 -6.38875

# 0 UV coordinates

# 27 vertex normals
vn 0 -1 -6.12323e-17
vn -3.98287e-22 -1 -6.12323e-17
vn 0 -1 -6.12323e-17
vn 0 -1 -6.12322e-17
vn 1.39776e-23 -1 -6.12323e-17
vn -2.25738e-23 -1 -6.12323e-17
vn 0.966195 -1.24726e-05 0.257811
vn 0.966196 -1.24277e-05 0.25781
vn 0.446559 -3.79062e-05 -0.894754
vn 0.446559 -3.79164e-05 -0.894754
vn -0.900616 5.44373e-06 -0.434616
vn -0.900393 5.42442e-06 -0.435078
vn -0.900393 5.42431e-06 -0.435078
vn -0.435081 3.77938e-05 0.900391
vn -0.435081 3.78125e-05 0.900392
vn -0.4351 3.78314e-05 0.900382
vn -0.4351 3.78108e-05 0.900382
vn -0.435051 3.78302e-05 0.900406
vn 0.89792 -5.20184e-06 0.440159
vn 0.46875 -3.80069e-05 -0.883331
vn -0.637247 -1.082e-05 -0.770659
vn -0.637248 -1.08493e-05 -0.770659
vn 0.441772 -3.78485e-05 -0.897128
vn 0.441771 -3.78894e-05 -0.897128
vn 0.472577 -3.80238e-05 -0.88129
vn 0.472577 -3.80035e-05 -0.881289
vn -0 1 0

# Mesh 'defaultobject' with 44 faces
g defaultobject
usemtl DefaultMaterial
f  1//1 2//1 3//1
f  2//1 1//1 4//2
f  2//1 4//2 5//3
f  2//1 5//3 6//4
f  2//1 6//4 7//5
f  6//4 8//3 7//5
f  8//3 6//4 9//1
f  8//3 9//1 10//1
f  8//3 10//1 11//6
f  8//3 11//6 12//3
f  13//7 5//7 14//7
f  5//7 13//7 6//8
f  15//9 5//9 4//9
f  5//9 15//9 14//10
f  16//11 4//11 1//11
f  4//11 16//11 15//11
f  17//12 1//12 3//12
f  1//12 17//12 16//13
f  17//14 2//14 18//14
f  2//14 17//14 3//15
f  18//16 7//16 19//16
f  7//16 18//16 2//17
f  19//18 8//18 20//18
f  8//18 19//18 7//18
f  20//19 12//19 21//19
f  12//19 20//19 8//19
f  22//20 12//20 11//20
f  12//20 22//20 21//20
f  23//21 11//21 10//21
f  11//21 23//21 22//22
f  24//23 10//23 9//23
f  10//23 24//23 23//24
f  13//25 9//25 6//25
f  9//25 13//25 24//26
f  16//27 14//27 15//27
f  14//27 16//27 17//27
f  14//27 17//27 13//27
f  13//27 17//27 24//27
f  24//27 17//27 23//27
f  23//27 21//27 22//27
f  21//27 23//27 20//27
f  20//27 23//27 17//27
f  20//27 17//27 18//27
f  20//27 18//27 19//27

