# {"id":"BLDG_0003000a0004995c","idOriginal":"BLDG_0003000a0004995c","origin":[13.424872630431167,52.51983939301541],"elevation":35.7400016784668}
# Longitude: 13.424872630431167
# Latitude: 52.51983939301541
# Elevation: 35.7400016784668

# File produced by Open Asset Import Library (http://www.assimp.sf.net)
# (assimp v3.1.0)

mtllib BLDG_0003000a0004995c.obj.mtl

# 21 vertex positions
v  42.137 7.361e-16 -12.0214
v  23.0823 1.11122e-16 -1.81476
v  31.4177 1.08169e-15 -17.6654
v  33.7927 -2.35515e-16 3.84626
v  17.3152 -5.60401e-16 9.15204
v  28.0256 -9.07038e-16 14.8131
v  0 0 0
v  5.73888 6.72436e-16 -10.9817
v  28.4377 8.31217 1.01549
v  42.1372 7.52563 -12.0217
v  33.9583 8.31217 -9.48257
v  33.7929 7.52563 3.84602
v  23.0825 7.52563 -1.81499
v  31.4179 7.52563 -17.6656
v  25.5541 8.31217 6.49889
v  28.0258 7.52563 14.8128
v  17.3154 7.52563 9.1518
v  20.199 8.31217 3.66838
v  8.34698 8.31217 -2.59604
v  5.73904 7.52563 -10.982
v  0.000161026 7.52563 -0.000237959

# 0 UV coordinates

# 35 vertex normals
vn 9.76057e-25 -1 -6.12323e-17
vn -9.75008e-25 -1 -6.12323e-17
vn -2.82145e-24 -1 -6.12323e-17
vn -4.23217e-24 -1 -6.12323e-17
vn 8.71185e-25 -1 -6.12323e-17
vn 0.113973 0.991674 0.0599348
vn 0.113973 0.991674 0.0599348
vn -0.113973 0.991674 -0.0599348
vn -0.113973 0.991674 -0.0599348
vn -0.113973 0.991674 -0.0599348
vn 0.113973 0.991674 0.0599348
vn 0.113973 0.991674 0.0599349
vn -0.0588534 0.992037 0.111348
vn -0.0588534 0.992037 0.111348
vn 0.058854 0.992037 -0.111349
vn -0.111623 0.992037 -0.0583324
vn 0.058854 0.992037 -0.111349
vn 0.058854 0.992037 -0.111349
vn -0.0588534 0.992037 0.111348
vn -0.0588534 0.992037 0.111348
vn 0.0599933 0.991674 -0.113943
vn 0.465889 -3.79512e-05 -0.884843
vn 0.465889 -3.7839e-05 -0.884843
vn 0.885081 -4.63693e-06 0.465438
vn 0.885081 -4.18454e-06 0.465438
vn -0.885081 4.11961e-06 -0.465438
vn -0.885081 4.09749e-06 -0.465438
vn 0.885081 -4.13182e-06 0.465438
vn -0.467296 3.79509e-05 0.884101
vn -0.467296 3.78672e-05 0.884101
vn -0.886277 4.31878e-06 -0.463155
vn -0.886277 4.36628e-06 -0.463155
vn 0.467296 -3.79048e-05 -0.884101
vn 0.467296 -3.79156e-05 -0.884101
vn -0.467296 3.79942e-05 0.884101

# Mesh 'defaultobject' with 38 faces
g defaultobject
usemtl DefaultMaterial
f  1//1 2//1 3//1
f  2//1 1//1 4//2
f  4//2 5//3 2//1
f  5//3 4//2 6//4
f  2//1 7//5 8//5
f  7//5 2//1 5//3
f  9//6 10//6 11//6
f  10//6 9//6 12//7
f  13//8 11//8 14//8
f  11//8 13//8 9//9
f  13//8 15//10 9//9
f  15//11 12//7 9//6
f  12//7 15//11 16//12
f  17//13 15//13 18//13
f  15//13 17//13 16//14
f  15//15 13//15 18//15
f  19//16 20//16 21//16
f  13//15 19//17 18//15
f  19//17 13//15 20//18
f  18//13 21//19 17//13
f  21//19 18//13 19//20
f  11//21 10//21 14//21
f  14//22 1//22 3//22
f  1//22 14//22 10//23
f  1//24 12//24 4//24
f  12//24 1//24 10//25
f  13//26 3//26 2//26
f  3//26 13//26 14//27
f  4//24 16//28 6//28
f  16//28 4//24 12//24
f  6//29 17//29 5//29
f  17//29 6//29 16//30
f  21//31 8//31 7//31
f  8//31 21//31 20//32
f  20//33 2//33 8//33
f  2//33 20//33 13//34
f  5//29 21//35 7//35
f  21//35 5//29 17//29

