# {"id":"BLDG_00030000001fad55","idOriginal":"BLDG_00030000001fad55","origin":[13.384397146067936,52.55256520129673],"elevation":40.3199996948242}
# Longitude: 13.384397146067936
# Latitude: 52.55256520129673
# Elevation: 40.3199996948242

# File produced by Open Asset Import Library (http://www.assimp.sf.net)
# (assimp v3.1.0)

mtllib BLDG_00030000001fad55.obj.mtl

# 8 vertex positions
v  0 0 0
v  22.0028 -7.65388e-16 12.4997
v  18.9502 -1.00699e-15 16.4453
v  3.05259 2.41599e-16 -3.94561
v  22.0032 16.7458 12.4992
v  0.000398985 18.6934 -0.00059239
v  18.9506 18.6934 16.4447
v  3.05295 16.7458 -3.94614

# 0 UV coordinates

# 12 vertex normals
vn -6.77783e-24 -1 -6.12323e-17
vn 6.77783e-24 -1 -6.12323e-17
vn 0.238698 0.931326 -0.275055
vn 0.238698 0.931326 -0.275055
vn -0.655427 3.79431e-05 0.755259
vn -0.655427 3.79232e-05 0.755259
vn -0.790924 -2.51023e-06 -0.611914
vn -0.790924 -2.50201e-06 -0.611914
vn 0.655427 -3.79138e-05 -0.755259
vn 0.655427 -3.78411e-05 -0.755259
vn 0.790924 2.54644e-06 0.611914
vn 0.790924 2.47729e-06 0.611914

# Mesh 'defaultobject' with 12 faces
g defaultobject
usemtl DefaultMaterial
f  1//1 2//1 3//1
f  2//1 1//1 4//2
f  5//3 6//3 7//3
f  6//3 5//3 8//4
f  7//5 1//5 3//5
f  1//5 7//5 6//6
f  6//7 4//7 1//7
f  4//7 6//7 8//8
f  4//9 5//9 2//9
f  5//9 4//9 8//10
f  2//11 7//11 3//11
f  7//11 2//11 5//12

