# {"id":"BLDG_0003000f000e857f","idOriginal":"BLDG_0003000f000e857f","origin":[13.336915322429293,52.51074086724782],"elevation":33.6500015258789}
# Longitude: 13.336915322429293
# Latitude: 52.51074086724782
# Elevation: 33.6500015258789

# File produced by Open Asset Import Library (http://www.assimp.sf.net)
# (assimp v3.1.0)

mtllib BLDG_0003000f000e857f.obj.mtl

# 10 vertex positions
v  3.39898 -1.15379e-16 1.88428
v  5.6086e-05 2.63605 -8.33003e-05
v  0 0 0
v  3.39903 2.63605 1.8842
v  6.81305 -2.33242e-16 3.80913
v  6.81311 2.63605 3.80905
v  8.03336 -9.96627e-17 1.62762
v  8.03342 2.63605 1.62753
v  1.21946 2.63605 -2.18193
v  1.2194 1.33599e-16 -2.18184

# 0 UV coordinates

# 12 vertex normals
vn -0.484849 3.79811e-05 0.874598
vn -0.484849 3.79811e-05 0.874598
vn -0.491121 3.79846e-05 0.871092
vn 0.872735 -3.22033e-06 0.488195
vn 0.487983 -3.8025e-05 -0.872853
vn 0.487983 -3.79681e-05 -0.872853
vn -0.872921 3.15607e-06 -0.487862
vn -0.872921 3.1494e-06 -0.487862
vn -0 1 0
vn 1.01321e-24 -1 -6.12323e-17
vn 6.82091e-25 -1 -6.12323e-17
vn 0 -1 -6.12323e-17

# Mesh 'defaultobject' with 16 faces
g defaultobject
usemtl DefaultMaterial
f  1//1 2//1 3//1
f  2//1 1//1 4//2
f  5//3 4//3 1//3
f  4//3 5//3 6//3
f  7//4 6//4 5//4
f  6//4 7//4 8//4
f  9//5 7//5 10//5
f  7//5 9//5 8//6
f  2//7 10//7 3//7
f  10//7 2//7 9//8
f  2//9 8//9 9//9
f  8//9 2//9 4//9
f  8//9 4//9 6//9
f  1//10 7//10 5//10
f  7//10 1//10 10//11
f  10//11 1//10 3//12

