# {"id":"BLDG_0003000a001ab360","idOriginal":"BLDG_0003000a001ab360","origin":[13.379644010243233,52.55876395900136],"elevation":40.2799987792969}
# Longitude: 13.379644010243233
# Latitude: 52.55876395900136
# Elevation: 40.2799987792969

# File produced by Open Asset Import Library (http://www.assimp.sf.net)
# (assimp v3.1.0)

mtllib BLDG_0003000a001ab360.obj.mtl

# 10 vertex positions
v  3.62481 16.8235 -13.8912
v  6.4114 21.1876 1.49472
v  10.0358 21.1876 -12.3959
v  0.000358972 16.8235 -0.000533359
v  12.8222 16.8235 2.99024
v  16.4467 16.8235 -10.9004
v  3.62445 8.50556e-16 -13.8906
v  12.8219 -1.83132e-16 2.99078
v  0 0 0
v  16.4463 6.67424e-16 -10.8999

# 0 UV coordinates

# 16 vertex normals
vn -0.534764 0.833401 -0.139534
vn -0.534764 0.833401 -0.139535
vn 0.53477 0.833397 0.139536
vn 0.53477 0.833397 0.139536
vn 0 -1 -6.12323e-17
vn 8.96596e-24 -1 -6.12323e-17
vn -0.227158 3.57151e-05 0.973858
vn -0.227158 3.57213e-05 0.973858
vn -0.227158 3.57517e-05 0.973858
vn -0.967604 1.2642e-05 -0.252474
vn -0.967604 1.26371e-05 -0.252474
vn 0.227158 -3.57045e-05 -0.973858
vn 0.227158 -3.5727e-05 -0.973858
vn 0.227158 -3.56853e-05 -0.973858
vn 0.967604 -1.26202e-05 0.252474
vn 0.967604 -1.27307e-05 0.252474

# Mesh 'defaultobject' with 16 faces
g defaultobject
usemtl DefaultMaterial
f  1//1 2//1 3//1
f  2//1 1//1 4//2
f  3//3 5//3 6//3
f  5//3 3//3 2//4
f  7//5 8//5 9//5
f  8//5 7//5 10//6
f  5//7 9//7 8//7
f  9//7 5//7 4//8
f  4//8 5//7 2//9
f  4//10 7//10 9//10
f  7//10 4//10 1//11
f  1//12 10//12 7//12
f  10//12 1//12 6//13
f  6//13 1//12 3//14
f  10//15 5//15 8//15
f  5//15 10//15 6//16

