# {"id":"BLDG_0003000b0063c496","idOriginal":"BLDG_0003000b0063c496","origin":[13.402814176188574,52.52497175872797],"elevation":35.7599983215332}
# Longitude: 13.402814176188574
# Latitude: 52.52497175872797
# Elevation: 35.7599983215332

# File produced by Open Asset Import Library (http://www.assimp.sf.net)
# (assimp v3.1.0)

mtllib BLDG_0003000b0063c496.obj.mtl

# 21 vertex positions
v  22.9647 1.74067e-17 -0.284274
v  7.37549 -1.77077e-16 2.8919
v  10.4564 3.17717e-16 -5.18871
v  19.8838 -4.77388e-16 7.79633
v  0 0 0
v  2.91689 4.98732e-16 -8.14492
v  18.2561 -7.38785e-16 12.0653
v  5.54825 -4.70531e-16 7.68435
v  8.91637 20.1163 -1.14904
v  7.37585 16.8819 2.89136
v  15.1705 20.1163 1.30317
v  10.4568 16.8819 -5.18925
v  22.965 16.8819 -0.284808
v  13.6301 20.1163 5.34348
v  19.8841 16.8819 7.7958
v  0.000360718 16.8819 -0.000533991
v  1.45888 20.1163 -4.0731
v  2.91725 16.8819 -8.14545
v  5.54862 16.8819 7.68382
v  11.9026 20.1163 9.87417
v  18.2565 16.8819 12.0647

# 0 UV coordinates

# 28 vertex normals
vn -9.11301e-25 -1 -6.12323e-17
vn -9.11301e-25 -1 -6.12323e-17
vn 1.5455e-24 -1 -6.12323e-17
vn 3.02375e-24 -1 -6.12323e-17
vn 0 -1 -6.12323e-17
vn -0.218655 0.800756 0.557656
vn 0.218662 0.80074 -0.557676
vn 0.218662 0.800739 -0.557676
vn 0.405368 0.900994 0.154556
vn 0.405368 0.900994 0.154555
vn -0.405365 0.900995 -0.154554
vn -0.218655 0.800756 0.557657
vn 0.218662 0.800739 -0.557676
vn -0.405365 0.900995 -0.154554
vn 0.405368 0.900994 0.154555
vn 0.365038 -3.72468e-05 -0.930993
vn 0.365038 -3.72419e-05 -0.930993
vn 0.934388 -8.67483e-06 0.356256
vn 0.934388 -8.70096e-06 0.356256
vn -0.365038 3.7251e-05 0.930993
vn -0.941449 9.45155e-06 -0.337155
vn -0.941449 9.43743e-06 -0.337155
vn -0.941449 9.44039e-06 -0.337155
vn 0.365038 -3.72468e-05 -0.930993
vn -0.325917 3.68672e-05 0.945398
vn -0.325917 3.67634e-05 0.945398
vn -0.934388 8.6824e-06 -0.356256
vn 0.934388 -8.68009e-06 0.356256

# Mesh 'defaultobject' with 38 faces
g defaultobject
usemtl DefaultMaterial
f  1//1 2//1 3//1
f  2//1 1//1 4//2
f  5//3 3//1 2//1
f  3//1 5//3 6//4
f  2//1 7//5 8//5
f  7//5 2//1 4//2
f  9//6 10//6 11//6
f  11//7 12//7 9//7
f  12//7 11//7 13//8
f  13//9 14//9 15//9
f  14//9 13//9 11//10
f  11//11 10//11 14//11
f  16//12 9//6 17//12
f  9//6 16//12 10//6
f  17//13 12//7 18//13
f  12//7 17//13 9//7
f  14//11 19//14 20//14
f  19//14 14//11 10//11
f  15//9 20//15 21//15
f  20//15 15//9 14//9
f  12//16 1//16 3//16
f  1//16 12//16 13//17
f  1//18 15//18 4//18
f  15//18 1//18 13//19
f  2//20 16//20 5//20
f  16//20 2//20 10//20
f  16//21 6//21 5//21
f  6//21 16//21 18//22
f  18//22 16//21 17//23
f  18//24 3//16 6//24
f  3//16 18//24 12//16
f  21//25 8//25 7//25
f  8//25 21//25 19//25
f  19//25 21//25 20//26
f  19//27 2//27 8//27
f  2//27 19//27 10//27
f  4//18 21//28 7//28
f  21//28 4//18 15//18

