# {"id":"BLDG_0003000b00099f52","idOriginal":"BLDG_0003000b00099f52","origin":[13.364835017326532,52.53921939633649],"elevation":33.8800010681152}
# Longitude: 13.364835017326532
# Latitude: 52.53921939633649
# Elevation: 33.8800010681152

# File produced by Open Asset Import Library (http://www.assimp.sf.net)
# (assimp v3.1.0)

mtllib BLDG_0003000b00099f52.obj.mtl

# 24 vertex positions
v  35.6467 9.42149 48.0913
v  5.79698 9.42149 -4.27075
v  0.000200832 9.42149 -0.00029831
v  12.8057 9.42149 -9.43299
v  23.9988 9.42149 -17.6776
v  30.81 9.42149 -22.6947
v  36.5703 9.42149 -26.9377
v  71.6339 9.42149 21.0268
v  43.9769 9.42149 41.827
v  37.8713 9.42149 46.4193
v  63.7414 9.42149 26.9632
v  69.6699 9.42149 22.5054
v  0 0 0
v  37.8711 -2.84238e-15 46.4196
v  35.6465 -2.94476e-15 48.0916
v  43.9767 -2.56118e-15 41.8273
v  63.7412 -1.65104e-15 26.9635
v  69.6697 -1.37808e-15 22.5057
v  71.6337 -1.28754e-15 21.0271
v  30.8098 1.38963e-15 -22.6944
v  36.5701 1.64944e-15 -26.9374
v  23.9986 1.08242e-15 -17.6773
v  12.8055 5.77586e-16 -9.43269
v  5.79678 2.6149e-16 -4.27045

# 0 UV coordinates

# 28 vertex normals
vn 0 1 0
vn 0 -1 -6.12323e-17
vn 2.22252e-23 -1 -6.12324e-17
vn 0 -1 -6.12323e-17
vn -5.75364e-24 -1 -6.12323e-17
vn 7.55254e-19 -1 -6.04203e-17
vn -1.94095e-19 -1 -6.1334e-17
vn 0 -1 -6.12704e-17
vn 0.601097 1.23219e-05 0.799176
vn 0.601047 1.24432e-05 0.799214
vn 0.601047 1.25742e-05 0.799214
vn 0.600981 1.25822e-05 0.799264
vn 0.600981 1.27459e-05 0.799263
vn 0.601457 1.27332e-05 0.798905
vn 0.601456 1.25685e-05 0.798906
vn 0.80729 -3.55457e-05 -0.590155
vn 0.80729 -3.59819e-05 -0.590155
vn -0.593079 -1.28208e-05 -0.805144
vn -0.593079 -1.28637e-05 -0.805144
vn -0.593064 -1.28214e-05 -0.805155
vn -0.593063 -1.2843e-05 -0.805156
vn -0.593043 -1.28331e-05 -0.805171
vn -0.593043 -1.28438e-05 -0.805171
vn -0.593122 -1.28489e-05 -0.805113
vn -0.593122 -1.28296e-05 -0.805113
vn -0.803373 3.6046e-05 0.595476
vn -0.803373 3.59794e-05 0.595476
vn 0.600811 1.23486e-05 0.799391

# Mesh 'defaultobject' with 44 faces
g defaultobject
usemtl DefaultMaterial
f  1//1 2//1 3//1
f  2//1 1//1 4//1
f  4//1 1//1 5//1
f  5//1 1//1 6//1
f  6//1 1//1 7//1
f  7//1 1//1 8//1
f  8//1 1//1 9//1
f  9//1 1//1 10//1
f  8//1 9//1 11//1
f  8//1 11//1 12//1
f  13//2 14//2 15//2
f  14//2 13//2 16//3
f  16//3 13//2 17//4
f  17//4 13//2 18//4
f  18//4 13//2 19//5
f  19//5 13//2 20//4
f  19//5 20//4 21//4
f  20//4 13//2 22//6
f  22//6 13//2 23//7
f  23//7 13//2 24//8
f  16//9 10//9 14//9
f  10//9 16//9 9//9
f  17//10 9//10 16//10
f  9//10 17//10 11//11
f  18//12 11//12 17//12
f  11//12 18//12 12//13
f  19//14 12//14 18//14
f  12//14 19//14 8//15
f  21//16 8//16 19//16
f  8//16 21//16 7//17
f  6//18 21//18 20//18
f  21//18 6//18 7//19
f  5//20 20//20 22//20
f  20//20 5//20 6//20
f  4//21 22//20 23//21
f  22//20 4//21 5//20
f  2//22 23//22 24//22
f  23//22 2//22 4//23
f  3//24 24//24 13//24
f  24//24 3//24 2//25
f  1//26 13//26 15//26
f  13//26 1//26 3//27
f  14//28 1//28 15//28
f  1//28 14//28 10//28

