# {"id":"BLDG_0003000e000e06ba","idOriginal":"BLDG_0003000e000e06ba","origin":[13.338852442666632,52.55182045021219],"elevation":34.1699981689453}
# Longitude: 13.338852442666632
# Latitude: 52.55182045021219
# Elevation: 34.1699981689453

# File produced by Open Asset Import Library (http://www.assimp.sf.net)
# (assimp v3.1.0)

mtllib BLDG_0003000e000e06ba.obj.mtl

# 12 vertex positions
v  8.11064 13.0435 7.86435
v  4.05518 -2.40789e-16 3.93238
v  8.11036 -4.81578e-16 7.86476
v  0 0 0
v  0.000277588 13.0435 -0.00041335
v  4.05555 17.249 3.93183
v  8.56986 13.0435 -8.82165
v  12.6248 2.99356e-16 -4.88886
v  8.56959 5.40145e-16 -8.82124
v  16.6799 5.85674e-17 -0.956478
v  16.6802 13.0435 -0.956892
v  12.6251 17.249 -4.88941

# 0 UV coordinates

# 20 vertex normals
vn -0.696154 3.75654e-05 0.717893
vn -0.696154 3.75623e-05 0.717893
vn -0.696154 3.75654e-05 0.717893
vn -0.696154 3.75762e-05 0.717893
vn 0.696154 -3.75392e-05 -0.717893
vn 0.696154 -3.75105e-05 -0.717893
vn 0.696154 -3.76131e-05 -0.717893
vn 0.696153 -3.76565e-05 -0.717893
vn -0.717264 -6.8171e-06 -0.696802
vn -0.717264 -6.79904e-06 -0.696802
vn 0.717264 6.80112e-06 0.696802
vn 0.717264 6.706e-06 0.696802
vn -0.42833 0.802113 -0.416111
vn -0.42833 0.802113 -0.416111
vn 0.428328 0.802116 0.416108
vn 0.428328 0.802116 0.416108
vn 0 -1 -6.12323e-17
vn 3.81021e-25 -1 -6.12323e-17
vn -7.62043e-25 -1 -6.12323e-17
vn 3.04817e-24 -1 -6.12323e-17

# Mesh 'defaultobject' with 20 faces
g defaultobject
usemtl DefaultMaterial
f  1//1 2//1 3//1
f  2//1 1//1 4//2
f  4//2 1//1 5//3
f  5//3 1//1 6//4
f  7//5 8//5 9//5
f  8//5 7//5 10//6
f  10//6 7//5 11//7
f  11//7 7//5 12//8
f  5//9 9//9 4//9
f  9//9 5//9 7//10
f  10//11 1//11 3//11
f  1//11 10//11 11//12
f  7//13 6//13 12//13
f  6//13 7//13 5//14
f  12//15 1//15 11//15
f  1//15 12//15 6//16
f  2//17 10//17 3//17
f  10//17 2//17 4//18
f  10//17 4//18 8//19
f  8//19 4//18 9//20

