# {"id":"BLDG_0003000f00109d41","idOriginal":"BLDG_0003000f00109d41","origin":[13.342029759417404,52.50554153005506],"elevation":32.3800010681152}
# Longitude: 13.342029759417404
# Latitude: 52.50554153005506
# Elevation: 32.3800010681152

# File produced by Open Asset Import Library (http://www.assimp.sf.net)
# (assimp v3.1.0)

mtllib BLDG_0003000f00109d41.obj.mtl

# 146 vertex positions
v  0 0 0
v  50.2665 9.88202e-16 -16.1386
v  0.54877 -1.038e-16 1.69519
v  1.52606 -2.88876e-16 4.7177
v  7.6731 -1.68004e-16 2.74371
v  19.4111 6.27464e-17 -1.02473
v  31.6328 3.03098e-16 -4.94997
v  43.2913 5.32353e-16 -8.69399
v  49.7675 6.59699e-16 -10.7737
v  50.7991 4.56137e-16 -7.44928
v  52.0979 4.81811e-16 -7.86857
v  51.7476 6.95903e-16 -11.365
v  52.766 4.94916e-16 -8.08259
v  1.1493e-05 0.539997 -1.706e-05
v  46.5448 0.539997 -28.1335
v  50.2665 0.539997 -16.1386
v  44.5618 0.539997 -27.5524
v  44.1483 0.539997 -28.884
v  43.927 0.539997 -29.6001
v  43.3063 0.539997 -29.4051
v  42.6867 0.539997 -29.21
v  41.1094 0.539997 -28.713
v  40.9292 0.539997 -29.2843
v  38.0109 0.539997 -27.7359
v  39.8105 0.539997 -29.5085
v  38.6185 0.539997 -29.1332
v  37.4387 0.539997 -27.557
v  36.867 0.539997 -27.3756
v  33.1199 0.539997 -26.1961
v  32.5486 0.539997 -26.0159
v  31.6896 0.539997 -25.7454
v  31.5095 0.539997 -26.3176
v  28.5902 0.539997 -24.7693
v  30.3907 0.539997 -26.5409
v  29.1978 0.539997 -26.1657
v  26.3329 0.539997 -24.0573
v  25.7603 0.539997 -23.8774
v  25.1881 0.539997 -23.6973
v  25.0079 0.539997 -24.2695
v  23.8892 0.539997 -24.4937
v  22.0887 0.539997 -22.7212
v  22.6963 0.539997 -24.1176
v  20.1764 0.539997 -22.1185
v  19.6039 0.539997 -21.9384
v  17.3205 0.539997 -21.2189
v  17.1403 0.539997 -21.7903
v  16.0216 0.539997 -22.0148
v  14.222 0.539997 -20.2431
v  14.8295 0.539997 -21.6392
v  12.7917 0.539997 -19.7921
v  8.77682 0.539997 -18.5277
v  8.2055 0.539997 -18.3475
v  7.44201 0.539997 -18.1072
v  7.26187 0.539997 -18.6795
v  6.14223 0.539997 -18.9028
v  4.95018 0.539997 -18.5275
v  4.3426 0.539997 -17.1311
v  2.10524 0.539997 -16.4269
v  1.53392 0.539997 -16.2468
v  0.961385 0.539997 -16.0667
v  0.781531 0.539997 -16.638
v  -0.337172 0.539997 -16.8622
v  -1.53044 0.539997 -16.4869
v  -2.13773 0.539997 -15.0896
v  -4.04907 0.539997 -14.4879
v  -0.306875 0.539997 -0.951829
v  -4.62467 0.539997 -14.3069
v  -2.31787 0.539997 -15.6621
v  4.16247 0.539997 -17.7036
v  14.0418 0.539997 -20.8144
v  21.9085 0.539997 -23.2925
v  28.41 0.539997 -25.3409
v  37.8308 0.539997 -28.3084
v  0.549158 18.2515 1.69461
v  50.2669 18.2515 -16.1391
v  0.000388452 18.2515 -0.000576611
v  1.52645 18.2515 4.71713
v  7.67349 18.2515 2.74314
v  19.4115 18.2515 -1.0253
v  31.6332 18.2515 -4.95055
v  43.2917 18.2515 -8.69456
v  49.7679 18.2515 -10.7743
v  50.7995 18.2515 -7.44985
v  51.748 18.2515 -11.3655
v  52.0983 18.2515 -7.86915
v  52.7664 18.2515 -8.08317
v  38.6192 32.415 -29.1342
v  38.0116 32.415 -27.7369
v  39.8112 32.415 -29.5095
v  37.8314 32.415 -28.3094
v  29.1985 32.415 -26.1667
v  28.5909 32.415 -24.7703
v  30.3914 32.415 -26.5419
v  28.4107 32.415 -25.3419
v  22.6969 32.415 -24.1186
v  22.0894 32.415 -22.7222
v  23.8899 32.415 -24.4947
v  21.9092 32.415 -23.2935
v  14.8302 32.415 -21.6402
v  14.2226 32.415 -20.2441
v  16.0223 32.415 -22.0158
v  14.0425 32.415 -20.8154
v  4.95086 32.415 -18.5285
v  4.34328 32.415 -17.1321
v  6.14291 32.415 -18.9038
v  4.16314 32.415 -17.7046
v  -1.52977 32.415 -16.488
v  -2.13705 32.415 -15.0906
v  -0.336494 32.415 -16.8632
v  -2.31719 32.415 -15.6631
v  46.5455 32.415 -28.1345
v  0.000689897 32.415 -0.00102407
v  50.2672 32.415 -16.1396
v  44.5625 32.415 -27.5534
v  44.149 32.415 -28.885
v  43.9277 32.415 -29.6012
v  43.3069 32.415 -29.4061
v  42.6874 32.415 -29.211
v  41.1101 32.415 -28.714
v  40.9299 32.415 -29.2853
v  37.4394 32.415 -27.558
v  36.8677 32.415 -27.3766
v  33.1206 32.415 -26.1971
v  32.5492 32.415 -26.0169
v  31.6903 32.415 -25.7464
v  31.5101 32.415 -26.3186
v  26.3335 32.415 -24.0583
v  25.761 32.415 -23.8784
v  25.1888 32.415 -23.6983
v  25.0086 32.415 -24.2705
v  20.1771 32.415 -22.1195
v  19.6046 32.415 -21.9394
v  17.3211 32.415 -21.22
v  17.141 32.415 -21.7913
v  12.7924 32.415 -19.7931
v  8.77749 32.415 -18.5287
v  -0.306196 32.415 -0.952836
v  8.20617 32.415 -18.3485
v  7.44269 32.415 -18.1082
v  -4.04839 32.415 -14.4889
v  -4.624 32.415 -14.3079
v  7.26254 32.415 -18.6805
v  1.5346 32.415 -16.2478
v  2.10592 32.415 -16.428
v  0.962064 32.415 -16.0677
v  0.782209 32.415 -16.639

# 0 UV coordinates

# 117 vertex normals
vn 2.25113e-24 -1 -6.12323e-17
vn 0 -1 -6.12323e-17
vn 6.61925e-24 -1 -6.12323e-17
vn -1.03922e-23 -1 -6.12324e-17
vn -8.72474e-24 -1 -6.12324e-17
vn 0 -1 -6.12323e-17
vn 2.94363e-23 -1 -6.12324e-17
vn -1.26498e-23 -1 -6.12323e-17
vn -6.03994e-23 -1 -6.12323e-17
vn -2.05862e-23 -1 -6.12323e-17
vn 0 -1 0
vn 0 1 0
vn 0.305691 2.35755e-05 0.952131
vn -0.951391 2.99765e-05 0.307986
vn -0.951391 2.99789e-05 0.307986
vn -0.951498 2.99714e-05 0.307654
vn -0.951498 2.99683e-05 0.307654
vn 0.30575 2.35676e-05 0.952112
vn 0.30575 2.35757e-05 0.952112
vn 0.305678 2.35827e-05 0.952135
vn 0.305678 2.35657e-05 0.952135
vn 0.305788 2.35768e-05 0.9521
vn 0.305788 2.35931e-05 0.9521
vn 0.30576 2.35721e-05 0.952109
vn 0.305755 2.35759e-05 0.95211
vn -0.955069 2.97304e-05 0.296384
vn 0.307224 2.35339e-05 0.951637
vn 0.307224 2.35099e-05 0.951637
vn 0.305077 2.35773e-05 0.952328
vn 0.305079 2.36647e-05 0.952327
vn 0.955084 -2.95299e-05 -0.296335
vn 0.955084 -2.97275e-05 -0.296334
vn 0.955087 -2.97271e-05 -0.296324
vn 0.955087 -2.97428e-05 -0.296324
vn -0.305691 -2.35742e-05 -0.952131
vn -0.305691 -2.3632e-05 -0.952131
vn 0.955082 -2.97118e-05 -0.296341
vn -0.281235 -2.43285e-05 -0.959639
vn 0.955019 -2.97135e-05 -0.296545
vn 0.955404 -2.96829e-05 -0.295303
vn -0.299827 -2.37541e-05 -0.953993
vn -0.300395 -2.37363e-05 -0.953815
vn -0.300521 -2.37324e-05 -0.953775
vn 0.953705 -2.9818e-05 -0.300744
vn 0.196508 -3.51648e-05 -0.980502
vn -0.300264 -2.37404e-05 -0.953856
vn -0.723171 -6.41614e-06 -0.690669
vn -0.9539 2.98028e-05 0.300126
vn -0.298437 -2.37975e-05 -0.95443
vn -0.302422 -2.36729e-05 -0.953174
vn -0.300261 -2.37405e-05 -0.953857
vn -0.300741 -2.37615e-05 -0.953706
vn -0.30074 -2.37255e-05 -0.953706
vn -0.300377 -2.37369e-05 -0.953821
vn -0.300378 -2.37728e-05 -0.95382
vn 0.953851 -2.98068e-05 -0.30028
vn 0.195733 -3.51531e-05 -0.980657
vn -0.300042 -2.37473e-05 -0.953926
vn -0.72317 -6.41618e-06 -0.69067
vn -0.953754 2.98143e-05 0.300589
vn -0.300811 -2.37233e-05 -0.953684
vn -0.299662 -2.37771e-05 -0.954045
vn -0.299661 -2.37592e-05 -0.954046
vn -0.300276 -2.374e-05 -0.953852
vn -0.300277 -2.3758e-05 -0.953852
vn 0.953852 -2.98065e-05 -0.300278
vn 0.953851 -2.97496e-05 -0.300281
vn 0.196507 -3.5153e-05 -0.980502
vn -0.300703 -2.37267e-05 -0.953718
vn -0.300703 -2.37447e-05 -0.953718
vn -0.723297 -6.40929e-06 -0.690537
vn -0.953705 2.97611e-05 0.300744
vn -0.953706 2.98181e-05 0.300741
vn -0.300561 -2.37311e-05 -0.953763
vn -0.300561 -2.37491e-05 -0.953763
vn -0.300122 -2.37449e-05 -0.953901
vn -0.300513 -2.37326e-05 -0.953778
vn 0.953706 -2.9818e-05 -0.300741
vn 0.953705 -2.9761e-05 -0.300743
vn 0.196765 -3.51568e-05 -0.980451
vn -0.300485 -2.37425e-05 -0.953786
vn -0.300485 -2.37515e-05 -0.953786
vn -0.723171 -6.43778e-06 -0.690669
vn -0.953705 2.98182e-05 0.300743
vn -0.953705 2.97897e-05 0.300744
vn -0.300706 -2.37266e-05 -0.953717
vn -0.300402 -2.37361e-05 -0.953813
vn -0.30074 -2.37345e-05 -0.953706
vn -0.3002 -2.37514e-05 -0.953876
vn 0.953852 -2.97779e-05 -0.300278
vn 0.195593 -3.51481e-05 -0.980685
vn 0.195594 -3.51452e-05 -0.980685
vn -0.300264 -2.37449e-05 -0.953856
vn -0.722795 -6.40606e-06 -0.691063
vn -0.722795 -6.44737e-06 -0.691062
vn -0.9539 2.97885e-05 0.300124
vn -0.9539 2.97705e-05 0.300125
vn -0.300208 -2.37467e-05 -0.953874
vn -0.30074 -2.373e-05 -0.953706
vn -0.300122 -2.37505e-05 -0.953901
vn -0.300122 -2.37493e-05 -0.953901
vn 0.95385 -2.97889e-05 -0.300283
vn 0.196509 -3.51611e-05 -0.980502
vn -0.299968 -2.37564e-05 -0.953949
vn -0.299968 -2.37553e-05 -0.953949
vn -0.723307 -6.41954e-06 -0.690526
vn -0.723307 -6.42495e-06 -0.690526
vn -0.9539 2.97814e-05 0.300125
vn -0.9539 2.97885e-05 0.300124
vn -0.300287 -2.37442e-05 -0.953849
vn -0.300287 -2.37464e-05 -0.953849
vn -0.29996 -2.37589e-05 -0.953952
vn -0.299959 -2.37544e-05 -0.953952
vn -0.951506 2.99705e-05 0.30763
vn -0.951506 2.99604e-05 0.30763
vn -0.951752 2.99511e-05 0.306867
vn -0.951752 2.99517e-05 0.306867

# Mesh 'defaultobject' with 284 faces
g defaultobject
usemtl DefaultMaterial
f  1//1 2//1 3//1
f  4//2 3//1 2//1
f  5//3 4//2 2//1
f  6//4 5//3 2//1
f  7//2 6//4 2//1
f  8//5 7//2 2//1
f  9//6 8//5 2//1
f  10//7 9//6 2//1
f  11//8 10//7 2//1
f  12//9 11//8 2//1
f  13//10 11//8 12//9
f  14//11 15//11 16//11
f  15//11 14//11 17//11
f  17//11 14//11 18//11
f  18//11 14//11 19//11
f  19//11 14//11 20//11
f  20//11 14//11 21//11
f  21//11 14//11 22//11
f  22//11 14//11 23//11
f  23//11 14//11 24//11
f  23//11 24//11 25//11
f  25//11 24//11 26//11
f  24//11 14//11 27//11
f  27//11 14//11 28//11
f  28//11 14//11 29//11
f  29//11 14//11 30//11
f  30//11 14//11 31//11
f  31//11 14//11 32//11
f  32//11 14//11 33//11
f  32//11 33//11 34//11
f  34//11 33//11 35//11
f  33//11 14//11 36//11
f  36//11 14//11 37//11
f  37//11 14//11 38//11
f  38//11 14//11 39//11
f  39//11 14//11 40//11
f  40//11 14//11 41//11
f  40//11 41//11 42//11
f  41//11 14//11 43//11
f  43//11 14//11 44//11
f  44//11 14//11 45//11
f  45//11 14//11 46//11
f  46//11 14//11 47//11
f  47//11 14//11 48//11
f  47//11 48//11 49//11
f  48//11 14//11 50//11
f  50//11 14//11 51//11
f  51//11 14//11 52//11
f  52//11 14//11 53//11
f  53//11 14//11 54//11
f  54//11 14//11 55//11
f  55//11 14//11 56//11
f  56//11 14//11 57//11
f  57//11 14//11 58//11
f  58//11 14//11 59//11
f  59//11 14//11 60//11
f  60//11 14//11 61//11
f  61//11 14//11 62//11
f  62//11 14//11 63//11
f  63//11 14//11 64//11
f  64//11 14//11 65//11
f  65//11 14//11 66//11
f  65//11 66//11 67//11
f  68//11 63//11 64//11
f  69//11 56//11 57//11
f  70//11 49//11 48//11
f  71//11 42//11 41//11
f  72//11 35//11 33//11
f  73//11 26//11 24//11
f  74//12 75//12 76//12
f  75//12 74//12 77//12
f  75//12 77//12 78//12
f  75//12 78//12 79//12
f  75//12 79//12 80//12
f  75//12 80//12 81//12
f  75//12 81//12 82//12
f  75//12 82//12 83//12
f  75//12 83//12 84//12
f  84//12 83//12 85//12
f  84//12 85//12 86//12
f  87//12 88//12 89//12
f  88//12 87//12 90//12
f  91//12 92//12 93//12
f  92//12 91//12 94//12
f  95//12 96//12 97//12
f  96//12 95//12 98//12
f  99//12 100//12 101//12
f  100//12 99//12 102//12
f  103//12 104//12 105//12
f  104//12 103//12 106//12
f  107//12 108//12 109//12
f  108//12 107//12 110//12
f  111//12 112//12 113//12
f  112//12 111//12 114//12
f  112//12 114//12 115//12
f  112//12 115//12 116//12
f  112//12 116//12 117//12
f  112//12 117//12 118//12
f  112//12 118//12 119//12
f  112//12 119//12 120//12
f  112//12 120//12 88//12
f  88//12 120//12 89//12
f  112//12 88//12 121//12
f  112//12 121//12 122//12
f  112//12 122//12 123//12
f  112//12 123//12 124//12
f  112//12 124//12 125//12
f  112//12 125//12 126//12
f  112//12 126//12 92//12
f  92//12 126//12 93//12
f  112//12 92//12 127//12
f  112//12 127//12 128//12
f  112//12 128//12 129//12
f  112//12 129//12 130//12
f  112//12 130//12 97//12
f  112//12 97//12 96//12
f  112//12 96//12 131//12
f  112//12 131//12 132//12
f  112//12 132//12 133//12
f  112//12 133//12 134//12
f  112//12 134//12 101//12
f  112//12 101//12 100//12
f  112//12 100//12 135//12
f  112//12 135//12 136//12
f  112//12 136//12 137//12
f  137//12 136//12 138//12
f  137//12 138//12 139//12
f  137//12 139//12 108//12
f  137//12 108//12 140//12
f  137//12 140//12 141//12
f  108//12 139//12 104//12
f  104//12 139//12 142//12
f  104//12 142//12 105//12
f  108//12 104//12 143//12
f  143//12 104//12 144//12
f  108//12 143//12 145//12
f  108//12 145//12 146//12
f  108//12 146//12 109//12
f  16//13 112//13 14//13
f  112//13 16//13 113//13
f  74//14 1//14 3//14
f  1//14 74//14 76//15
f  77//16 3//16 4//16
f  3//16 77//16 74//17
f  5//18 77//18 4//18
f  77//18 5//18 78//19
f  6//20 78//20 5//20
f  78//20 6//20 79//21
f  7//22 79//22 6//22
f  79//22 7//22 80//23
f  8//24 80//24 7//24
f  80//24 8//24 81//24
f  9//25 81//24 8//24
f  81//24 9//25 82//25
f  83//26 9//26 10//26
f  9//26 83//26 82//26
f  11//27 83//27 10//27
f  83//27 11//27 85//28
f  13//29 85//29 11//29
f  85//29 13//29 86//30
f  12//31 86//31 13//31
f  86//31 12//31 84//32
f  2//33 84//33 12//33
f  84//33 2//33 75//34
f  76//35 2//35 1//35
f  2//35 76//35 75//36
f  15//37 113//37 16//37
f  113//37 15//37 111//37
f  114//38 15//38 17//38
f  15//38 114//38 111//38
f  18//39 114//39 17//39
f  114//39 18//39 115//39
f  19//40 115//40 18//40
f  115//40 19//40 116//40
f  117//41 19//41 20//41
f  19//41 117//41 116//41
f  118//42 20//42 21//42
f  20//42 118//42 117//42
f  119//43 21//43 22//43
f  21//43 119//43 118//43
f  23//44 119//44 22//44
f  119//44 23//44 120//44
f  89//45 23//45 25//45
f  23//45 89//45 120//45
f  87//46 25//46 26//46
f  25//46 87//46 89//46
f  90//47 26//47 73//47
f  26//47 90//47 87//47
f  88//48 73//48 24//48
f  73//48 88//48 90//48
f  121//49 24//49 27//49
f  24//49 121//49 88//49
f  122//50 27//50 28//50
f  27//50 122//50 121//50
f  123//51 28//51 29//51
f  28//51 123//51 122//51
f  124//52 29//52 30//52
f  29//52 124//52 123//53
f  125//54 30//54 31//54
f  30//54 125//54 124//55
f  32//56 125//56 31//56
f  125//56 32//56 126//56
f  93//57 32//57 34//57
f  32//57 93//57 126//57
f  91//58 34//58 35//58
f  34//58 91//58 93//58
f  94//59 35//59 72//59
f  35//59 94//59 91//59
f  92//60 72//60 33//60
f  72//60 92//60 94//60
f  127//61 33//61 36//61
f  33//61 127//61 92//61
f  128//62 36//62 37//62
f  36//62 128//62 127//63
f  129//64 37//64 38//64
f  37//64 129//64 128//65
f  39//66 129//66 38//66
f  129//66 39//66 130//67
f  97//68 39//68 40//68
f  39//68 97//68 130//68
f  95//69 40//69 42//69
f  40//69 95//69 97//70
f  98//71 42//71 71//71
f  42//71 98//71 95//71
f  96//72 71//72 41//72
f  71//72 96//72 98//73
f  131//74 41//74 43//74
f  41//74 131//74 96//75
f  132//76 43//76 44//76
f  43//76 132//76 131//76
f  133//77 44//77 45//77
f  44//77 133//77 132//77
f  46//78 133//78 45//78
f  133//78 46//78 134//79
f  101//80 46//80 47//80
f  46//80 101//80 134//80
f  99//81 47//81 49//81
f  47//81 99//81 101//82
f  102//83 49//83 70//83
f  49//83 102//83 99//83
f  100//84 70//84 48//84
f  70//84 100//84 102//85
f  135//86 48//86 50//86
f  48//86 135//86 100//86
f  136//87 50//87 51//87
f  50//87 136//87 135//87
f  138//88 51//88 52//88
f  51//88 138//88 136//53
f  139//89 52//89 53//89
f  52//89 139//89 138//89
f  54//90 139//90 53//90
f  139//90 54//90 142//90
f  105//91 54//91 55//91
f  54//91 105//91 142//92
f  103//93 55//93 56//93
f  55//93 103//93 105//93
f  106//94 56//94 69//94
f  56//94 106//94 103//95
f  104//96 69//96 57//96
f  69//96 104//96 106//97
f  144//98 57//98 58//98
f  57//98 144//98 104//98
f  143//99 58//99 59//99
f  58//99 143//99 144//99
f  145//100 59//100 60//100
f  59//100 145//100 143//101
f  61//102 145//102 60//102
f  145//102 61//102 146//102
f  109//103 61//103 62//103
f  61//103 109//103 146//103
f  107//104 62//104 63//104
f  62//104 107//104 109//105
f  110//106 63//106 68//106
f  63//106 110//106 107//107
f  108//108 68//108 64//108
f  68//108 108//108 110//109
f  140//110 64//110 65//110
f  64//110 140//110 108//111
f  141//112 65//112 67//112
f  65//112 141//112 140//113
f  137//114 67//114 66//114
f  67//114 137//114 141//115
f  112//116 66//116 14//116
f  66//116 112//116 137//117

