# {"id":"BLDG_00030008002ffab0","idOriginal":"BLDG_00030008002ffab0","origin":[13.348151350139469,52.56070168158649],"elevation":38.3800010681152}
# Longitude: 13.348151350139469
# Latitude: 52.56070168158649
# Elevation: 38.3800010681152

# File produced by Open Asset Import Library (http://www.assimp.sf.net)
# (assimp v3.1.0)

mtllib BLDG_00030008002ffab0.obj.mtl

# 16 vertex positions
v  8.5401 12.7005 8.15456
v  0 0 0
v  8.53983 -4.99347e-16 8.15496
v  0.000270454 12.7005 -0.000402709
v  17.7487 9.71702e-17 -1.58691
v  17.7489 12.7005 -1.58731
v  9.25665 5.99162e-16 -9.78505
v  9.25692 12.7005 -9.78546
v  5.97651 12.7005 -6.35405
v  5.97623 3.89049e-16 -6.35365
v  6.08468 12.7005 -5.3041
v  6.08441 3.24758e-16 -5.3037
v  4.57751 12.7005 -3.74798
v  4.57724 2.29473e-16 -3.74757
v  3.53193 12.7005 -3.74179
v  3.53166 2.29094e-16 -3.74139

# 0 UV coordinates

# 21 vertex normals
vn -0.690622 3.76474e-05 0.723216
vn -0.690622 3.76385e-05 0.723216
vn 0.726708 6.36321e-06 0.686946
vn 0.726708 6.27358e-06 0.686946
vn 0.694549 -3.76098e-05 -0.719446
vn -0.722831 -6.50834e-06 -0.691025
vn -0.72283 -6.4824e-06 -0.691025
vn -0.994734 2.44235e-05 0.10249
vn -0.994734 2.44647e-05 0.10249
vn -0.718314 -6.76751e-06 -0.69572
vn -0.718314 -6.75445e-06 -0.69572
vn -0.00591809 -3.15799e-05 -0.999982
vn -0.00591809 -3.15801e-05 -0.999982
vn -0.727194 -6.28006e-06 -0.686432
vn -0.727194 -6.27031e-06 -0.686432
vn 0 1 0
vn 1.3795e-23 -1 -6.12323e-17
vn 6.68886e-25 -1 -6.12323e-17
vn -2.22877e-24 -1 -6.12323e-17
vn 0 -1 -6.12323e-17
vn -2.77498e-23 -1 -6.12324e-17

# Mesh 'defaultobject' with 28 faces
g defaultobject
usemtl DefaultMaterial
f  1//1 2//1 3//1
f  2//1 1//1 4//2
f  5//3 1//3 3//3
f  1//3 5//3 6//4
f  7//5 6//5 5//5
f  6//5 7//5 8//5
f  9//6 7//6 10//6
f  7//6 9//6 8//7
f  11//8 10//8 12//8
f  10//8 11//8 9//9
f  13//10 12//10 14//10
f  12//10 13//10 11//11
f  15//12 14//12 16//12
f  14//12 15//12 13//13
f  4//14 16//14 2//14
f  16//14 4//14 15//15
f  1//16 6//16 4//16
f  15//16 4//16 6//16
f  13//16 15//16 6//16
f  11//16 13//16 6//16
f  9//16 11//16 6//16
f  8//16 9//16 6//16
f  16//17 14//17 2//17
f  2//17 5//18 3//18
f  5//18 2//17 14//17
f  5//18 14//17 12//19
f  5//18 12//19 7//20
f  7//20 12//19 10//21

