# {"id":"BLDG_0003000f003c898e","idOriginal":"BLDG_0003000f003c898e","origin":[13.375052802974785,52.54543597507633],"elevation":39.2700004577637}
# Longitude: 13.375052802974785
# Latitude: 52.54543597507633
# Elevation: 39.2700004577637

# File produced by Open Asset Import Library (http://www.assimp.sf.net)
# (assimp v3.1.0)

mtllib BLDG_0003000f003c898e.obj.mtl

# 8 vertex positions
v  22.7498 7.99922e-16 -13.0637
v  0 0 0
v  17.8929 1.10068e-15 -17.9754
v  4.85695 -3.00753e-16 4.91167
v  22.7499 5.92096 -13.0639
v  0.000154582 7.24701 -0.00022956
v  4.85708 5.92096 4.91149
v  17.893 7.24701 -17.9756

# 0 UV coordinates

# 11 vertex normals
vn 2.41748e-24 -1 -6.12323e-17
vn 0 -1 -6.12323e-17
vn 0.13362 0.982067 0.133006
vn -0.708732 -7.22949e-06 -0.705478
vn -0.708732 -7.17198e-06 -0.705478
vn 0.711057 -3.76345e-05 -0.703135
vn 0.711057 -3.73779e-05 -0.703135
vn 0.708732 7.31584e-06 0.705478
vn 0.708732 7.11262e-06 0.705478
vn -0.711057 3.73718e-05 0.703135
vn -0.711057 3.744e-05 0.703135

# Mesh 'defaultobject' with 12 faces
g defaultobject
usemtl DefaultMaterial
f  1//1 2//1 3//1
f  2//1 1//1 4//2
f  5//3 6//3 7//3
f  6//3 5//3 8//3
f  6//4 3//4 2//4
f  3//4 6//4 8//5
f  3//6 5//6 1//6
f  5//6 3//6 8//7
f  1//8 7//8 4//8
f  7//8 1//8 5//9
f  7//10 2//10 4//10
f  2//10 7//10 6//11

