# {"id":"BLDG_00030000001ce12d","idOriginal":"BLDG_00030000001ce12d","origin":[13.358760285615226,52.56178776076433],"elevation":39.7000007629395}
# Longitude: 13.358760285615226
# Latitude: 52.56178776076433
# Elevation: 39.7000007629395

# File produced by Open Asset Import Library (http://www.assimp.sf.net)
# (assimp v3.1.0)

mtllib BLDG_00030000001ce12d.obj.mtl

# 66 vertex positions
v  0.0450322 -2.43866e-16 3.98264
v  1.97013 -2.68766e-16 4.38928
v  0.0239334 -2.548e-16 4.16121
v  0.0645494 -2.34088e-16 3.82296
v  0.928034 -2.40299e-16 3.92438
v  1.37012 -9.86512e-18 0.16111
v  0.0168654 9.09872e-18 -0.148593
v  0 0 0
v  0.659912 3.44122e-16 -5.61994
v  5.8001 3.07394e-16 -5.02012
v  5.75489 2.83688e-16 -4.63298
v  9.22484 -5.5152e-16 9.007
v  1.82967 -4.98757e-16 8.14532
v  10.7361 2.4807e-16 -4.05129
v  9.47117 -4.22674e-16 6.90279
v  12.7565 -4.46094e-16 7.28527
v  13.6196 2.3546e-16 -3.84535
v  13.6037 2.27584e-16 -3.71673
v  13.1954 2.76669e-16 -4.51835
v  15.4805 2.14185e-16 -3.49791
v  15.4389 1.9226e-16 -3.13985
v  15.0976 -5.48443e-16 8.95675
v  12.5954 -5.30588e-16 8.66516
v  10.752 2.56011e-16 -4.18098
v  11.3296 2.90055e-16 -4.73696
v  15.2575 -4.63957e-16 7.577
v  19.1189 -4.91478e-16 8.02645
v  16.6611 1.83548e-16 -2.99757
v  23.0881 -5.82617e-16 9.51486
v  19.0013 -5.53488e-16 9.03915
v  17.5441 1.7725e-16 -2.89471
v  17.5856 1.99119e-16 -3.25186
v  24.3962 1.5041e-16 -2.45639
v  0.045432 18.7656 3.98204
v  0.928434 18.7656 3.92378
v  0.0649493 18.7656 3.82236
v  0.0243333 18.7656 4.16061
v  1.97053 18.7656 4.38868
v  11.33 18.7656 -4.73756
v  10.7524 18.7656 -4.18158
v  10.7365 18.7656 -4.05189
v  0.0172653 18.7656 -0.149189
v  5.8005 18.7656 -5.02071
v  0.660312 18.7656 -5.62053
v  0.000399881 18.7656 -0.00059506
v  1.37052 18.7656 0.160515
v  5.75529 18.7656 -4.63357
v  1.83007 18.7656 8.14472
v  9.22524 18.7656 9.00641
v  9.47157 18.7656 6.90219
v  13.1958 18.7656 -4.51895
v  13.62 18.7656 -3.84595
v  13.6041 18.7656 -3.71733
v  15.4809 18.7656 -3.49851
v  15.4393 18.7656 -3.14044
v  16.6615 18.7656 -2.99817
v  12.7569 18.7656 7.28468
v  17.5445 18.7656 -2.89531
v  15.098 18.7656 8.95616
v  15.2579 18.7656 7.57641
v  12.5958 18.7656 8.66456
v  24.3966 18.7656 -2.45698
v  17.586 18.7656 -3.25246
v  19.1193 18.7656 8.02585
v  23.0885 18.7656 9.51426
v  19.0017 18.7656 9.03855

# 0 UV coordinates

# 77 vertex normals
vn 2.34763e-24 -1 -6.12324e-17
vn -2.62317e-23 -1 -6.12323e-17
vn 3.91572e-23 -1 -6.12325e-17
vn -4.16875e-23 -1 -6.12323e-17
vn 1.00236e-24 -1 -6.12323e-17
vn 0 -1 -6.12323e-17
vn 7.38156e-24 -1 -6.12324e-17
vn -3.79528e-24 -1 -6.12323e-17
vn 0 -1 -6.12323e-17
vn 5.77579e-21 -1 -6.12321e-17
vn -1.45153e-24 -1 -6.12323e-17
vn -2.47233e-22 -1 -6.12322e-17
vn 3.03609e-24 -1 -6.12324e-17
vn 0 -1 -6.12323e-17
vn 0 -1 -6.12321e-17
vn 8.46709e-23 -1 -6.12323e-17
vn 4.43059e-23 -1 -6.12323e-17
vn -2.08158e-23 -1 -6.12323e-17
vn 0 -1 -6.12324e-17
vn 9.46584e-24 -1 -6.12323e-17
vn -8.15457e-23 -1 -6.12323e-17
vn 0 -1 -6.12321e-17
vn 1.02582e-23 -1 -6.12323e-17
vn 0 1 0
vn -0.116783 3.39813e-05 0.993157
vn -0.99317 1.74642e-05 -0.116673
vn -0.99317 1.74612e-05 -0.116673
vn 0.116653 -3.39812e-05 -0.993173
vn 0.116653 -3.39812e-05 -0.993173
vn -0.992613 1.73059e-05 -0.121325
vn -0.992613 1.73044e-05 -0.121324
vn -0.993092 1.7441e-05 -0.117337
vn -0.993092 1.74425e-05 -0.117338
vn -0.116391 3.39758e-05 0.993203
vn -0.999301 2.01128e-05 -0.0373699
vn -0.999301 2.01065e-05 -0.0373698
vn -0.115737 3.39692e-05 0.99328
vn -0.115737 3.39658e-05 0.99328
vn 0.993217 -1.74617e-05 0.116274
vn 0.993217 -1.75126e-05 0.116274
vn -0.115642 3.39607e-05 0.993291
vn -0.99325 1.74716e-05 -0.115993
vn -0.115753 3.39625e-05 0.993278
vn 0.99335 -1.75039e-05 0.115135
vn 0.99335 -1.75011e-05 0.115135
vn -0.115615 3.39551e-05 0.993294
vn -0.115615 3.39355e-05 0.993294
vn -0.993332 1.75462e-05 -0.115289
vn -0.993332 1.74453e-05 -0.115287
vn -0.115623 3.39667e-05 0.993293
vn 0.994083 -1.7775e-05 0.108625
vn 0.116013 -3.39622e-05 -0.993248
vn 0.116013 -3.3974e-05 -0.993248
vn -0.993289 1.74341e-05 -0.115656
vn -0.993289 1.74327e-05 -0.115656
vn 0.115709 -3.39569e-05 -0.993283
vn 0.11571 -3.39443e-05 -0.993283
vn 0.115629 -3.39613e-05 -0.993293
vn 0.115629 -3.39555e-05 -0.993293
vn 0.993318 -1.74914e-05 0.115412
vn 0.115806 -3.39645e-05 -0.993272
vn 0.992469 -1.72991e-05 0.122499
vn 0.99247 -1.72489e-05 0.122491
vn 0.84599 -3.49661e-05 -0.533199
vn 0.116368 -3.39744e-05 -0.993206
vn 0.116368 -3.39803e-05 -0.993206
vn -0.69352 -8.07878e-06 -0.720437
vn -0.992572 1.72776e-05 -0.121656
vn 0.115988 -3.39706e-05 -0.993251
vn 0.115988 -3.39677e-05 -0.993251
vn 0.993251 -1.74971e-05 0.115987
vn 0.115906 -3.39681e-05 -0.99326
vn 0.115906 -3.39692e-05 -0.99326
vn -0.993164 1.74622e-05 -0.116727
vn -0.993164 1.74623e-05 -0.116727
vn -0.99362 1.75971e-05 -0.112776
vn -0.99362 1.75972e-05 -0.112776

# Mesh 'defaultobject' with 128 faces
g defaultobject
usemtl DefaultMaterial
f  1//1 2//1 3//1
f  2//1 1//1 4//2
f  2//1 4//2 5//3
f  2//1 5//3 6//4
f  7//5 6//4 8//5
f  6//4 7//5 9//6
f  10//7 11//7 9//6
f  2//1 12//8 13//8
f  12//8 2//1 6//4
f  12//8 6//4 9//6
f  12//8 9//6 11//7
f  12//8 11//7 14//9
f  12//8 14//9 15//10
f  15//10 14//9 16//11
f  17//12 18//12 19//12
f  20//13 21//13 18//12
f  16//11 22//14 23//14
f  22//14 16//11 14//9
f  22//14 14//9 24//15
f  22//14 24//15 25//16
f  22//14 25//16 19//12
f  22//14 19//12 26//17
f  26//17 19//12 27//18
f  27//18 19//12 18//12
f  27//18 18//12 21//13
f  27//18 21//13 28//19
f  27//18 29//20 30//20
f  29//20 27//18 28//19
f  29//20 28//19 31//21
f  29//20 31//21 32//22
f  29//20 32//22 33//23
f  34//24 35//24 36//24
f  35//24 34//24 37//24
f  35//24 37//24 38//24
f  39//24 40//24 41//24
f  42//24 43//24 44//24
f  43//24 42//24 45//24
f  43//24 45//24 46//24
f  43//24 46//24 35//24
f  43//24 35//24 47//24
f  47//24 35//24 41//24
f  41//24 35//24 38//24
f  41//24 38//24 48//24
f  41//24 48//24 49//24
f  41//24 49//24 50//24
f  41//24 50//24 39//24
f  39//24 50//24 51//24
f  51//24 50//24 52//24
f  52//24 50//24 53//24
f  53//24 50//24 54//24
f  54//24 50//24 55//24
f  50//24 56//24 55//24
f  56//24 50//24 57//24
f  56//24 57//24 58//24
f  59//24 60//24 61//24
f  58//24 62//24 63//24
f  62//24 58//24 57//24
f  62//24 57//24 61//24
f  62//24 61//24 60//24
f  62//24 60//24 64//24
f  62//24 64//24 65//24
f  65//24 64//24 66//24
f  45//25 6//25 46//25
f  6//25 45//25 8//25
f  35//26 6//26 5//26
f  6//26 35//26 46//27
f  36//28 5//28 4//28
f  5//28 36//28 35//29
f  34//30 4//30 1//30
f  4//30 34//30 36//31
f  37//32 1//32 3//32
f  1//32 37//32 34//33
f  37//34 2//34 38//34
f  2//34 37//34 3//34
f  48//35 2//35 13//35
f  2//35 48//35 38//36
f  48//37 12//37 49//37
f  12//37 48//37 13//38
f  49//39 15//39 50//39
f  15//39 49//39 12//40
f  50//41 16//41 57//41
f  16//41 50//41 15//41
f  61//42 16//42 23//42
f  16//42 61//42 57//42
f  61//43 22//43 59//43
f  22//43 61//43 23//43
f  59//44 26//44 60//44
f  26//44 59//44 22//45
f  60//46 27//46 64//46
f  27//46 60//46 26//47
f  66//48 27//48 30//48
f  27//48 66//48 64//49
f  66//50 29//50 65//50
f  29//50 66//50 30//50
f  65//51 33//51 62//51
f  33//51 65//51 29//51
f  63//52 33//52 32//52
f  33//52 63//52 62//53
f  58//54 32//54 31//54
f  32//54 58//54 63//55
f  56//56 31//56 28//56
f  31//56 56//56 58//57
f  55//58 28//58 21//58
f  28//58 55//58 56//59
f  55//60 20//60 54//60
f  20//60 55//60 21//60
f  53//61 20//61 18//61
f  20//61 53//61 54//61
f  53//62 17//62 52//62
f  17//62 53//62 18//63
f  52//64 19//64 51//64
f  19//64 52//64 17//64
f  39//65 19//65 25//65
f  19//65 39//65 51//66
f  40//67 25//67 24//67
f  25//67 40//67 39//67
f  41//68 24//68 14//68
f  24//68 41//68 40//68
f  47//69 14//69 11//69
f  14//69 47//69 41//70
f  47//71 10//71 43//71
f  10//71 47//71 11//71
f  44//72 10//72 9//72
f  10//72 44//72 43//73
f  42//74 9//74 7//74
f  9//74 42//74 44//75
f  45//76 7//76 8//76
f  7//76 45//76 42//77

