# {"id":"BLDG_000300000017ae0a","idOriginal":"BLDG_000300000017ae0a","origin":[13.379615390586137,52.53687359273728],"elevation":36.439998626709}
# Longitude: 13.379615390586137
# Latitude: 52.53687359273728
# Elevation: 36.439998626709

# File produced by Open Asset Import Library (http://www.assimp.sf.net)
# (assimp v3.1.0)

mtllib BLDG_000300000017ae0a.obj.mtl

# 10 vertex positions
v  7.03826 20.3327 13.3632
v  0 0 0
v  7.03783 -8.18299e-16 13.3638
v  0.000433823 20.3327 -0.00064368
v  20.8663 4.91429e-16 -8.02564
v  20.8668 20.3327 -8.02628
v  27.9041 -3.2687e-16 5.3382
v  27.9046 20.3327 5.33755
v  24.3857 22.351 -1.34443
v  10.5679 22.351 3.9702

# 0 UV coordinates

# 15 vertex normals
vn -0.884803 3.36132e-05 0.465966
vn -0.884803 3.36296e-05 0.465966
vn -0.358984 -2.18879e-05 -0.933344
vn -0.358984 -2.18716e-05 -0.933344
vn 0.884803 -3.36766e-05 -0.465966
vn 0.884803 -3.35936e-05 -0.465966
vn 0.884803 -3.35372e-05 -0.465966
vn 0.358984 2.1819e-05 0.933344
vn 0.358984 2.18861e-05 0.933344
vn -0.22993 0.965645 0.121088
vn -0.093289 0.965644 -0.242547
vn -0.093289 0.965644 -0.242547
vn 0.093288 0.965644 0.242545
vn 0.093288 0.965645 0.242545
vn -2.52591e-24 -1 -6.12323e-17

# Mesh 'defaultobject' with 16 faces
g defaultobject
usemtl DefaultMaterial
f  1//1 2//1 3//1
f  2//1 1//1 4//2
f  4//3 5//3 2//3
f  5//3 4//3 6//4
f  6//5 7//5 5//5
f  7//5 6//5 8//6
f  8//6 6//5 9//7
f  7//8 1//8 3//8
f  1//8 7//8 8//9
f  10//10 4//10 1//10
f  6//11 10//11 9//11
f  10//11 6//11 4//12
f  9//13 1//13 8//13
f  1//13 9//13 10//14
f  5//15 3//15 2//15
f  3//15 5//15 7//15

