# {"id":"BLDG_0003000b001d87a6","idOriginal":"BLDG_0003000b001d87a6","origin":[13.345335375939241,52.52120856696116],"elevation":32.8400001525879}
# Longitude: 13.345335375939241
# Latitude: 52.52120856696116
# Elevation: 32.8400001525879

# File produced by Open Asset Import Library (http://www.assimp.sf.net)
# (assimp v3.1.0)

mtllib BLDG_0003000b001d87a6.obj.mtl

# 28 vertex positions
v  14.7346 -9.96121e-16 16.2679
v  14.9053 17.4098 17.1958
v  14.9049 -1.05297e-15 17.1964
v  14.735 17.4098 16.2673
v  15.2744 -9.87519e-16 16.1274
v  15.2747 17.4098 16.1269
v  12.7724 -1.83233e-16 2.99242
v  12.7727 17.4098 2.99187
v  12.2408 17.4098 3.08916
v  12.2405 -1.8919e-16 3.08971
v  11.4578 1.24288e-16 -2.02978
v  11.4582 17.4098 -2.03033
v  0.000370633 17.4098 -0.00055059
v  0 0 0
v  3.19514 17.4098 18.7765
v  3.19477 -1.14976e-15 18.777
v  3.63043 -1.14418e-15 18.6858
v  3.6308 17.4098 18.6853
v  3.71915 17.4098 19.2387
v  3.71878 -1.17806e-15 19.2392
v  4.29189 17.4098 22.8333
v  4.29152 -1.39817e-15 22.8338
v  4.43123 17.4098 23.7056
v  4.43086 -1.45158e-15 23.7062
v  15.7266 -1.32718e-15 21.6745
v  15.727 17.4098 21.674
v  15.5862 -1.28031e-15 20.909
v  15.5866 17.4098 20.9084

# 0 UV coordinates

# 35 vertex normals
vn 0.983589 -2.65978e-05 -0.180424
vn 0.983589 -2.66712e-05 -0.180423
vn 0.251877 2.52739e-05 0.967759
vn 0.251874 2.51819e-05 0.96776
vn 0.982337 -2.67925e-05 -0.187119
vn 0.982337 -2.67925e-05 -0.187119
vn -0.179932 -2.72704e-05 -0.983679
vn -0.179932 -2.72802e-05 -0.983679
vn 0.988515 -2.58449e-05 -0.151124
vn -0.174436 -2.74268e-05 -0.984668
vn -0.174436 -2.74188e-05 -0.984668
vn -0.985833 2.62904e-05 0.167732
vn -0.985833 2.62917e-05 0.167732
vn 0.204878 2.66301e-05 0.978788
vn -0.987497 2.60025e-05 0.15764
vn -0.987497 2.60063e-05 0.157639
vn -0.987543 2.5998e-05 0.157349
vn -0.987543 2.59943e-05 0.157349
vn -0.987482 2.60088e-05 0.15773
vn 0.177018 2.7396e-05 0.984208
vn 0.983583 -2.66185e-05 -0.180455
vn 0.983583 -2.66527e-05 -0.180455
vn 0.983577 -2.66516e-05 -0.180486
vn 0.983577 -2.66008e-05 -0.180487
vn -1.99965e-22 -1 -6.12323e-17
vn -2.61126e-24 -1 -6.12324e-17
vn 6.33721e-25 -1 -6.12323e-17
vn 0 -1 -6.12323e-17
vn -1.75743e-24 -1 -6.12323e-17
vn 6.32964e-21 -1 -6.12336e-17
vn -3.00603e-21 -1 -6.12318e-17
vn 8.16425e-21 -1 -6.12337e-17
vn -1.13494e-22 -1 -6.12323e-17
vn 0 -1 -6.12324e-17
vn 0 1 0

# Mesh 'defaultobject' with 52 faces
g defaultobject
usemtl DefaultMaterial
f  1//1 2//1 3//1
f  2//1 1//1 4//2
f  5//3 4//3 1//3
f  4//3 5//3 6//4
f  7//5 6//5 5//5
f  6//5 7//5 8//6
f  9//7 7//7 10//7
f  7//7 9//7 8//8
f  11//9 9//9 10//9
f  9//9 11//9 12//9
f  13//10 11//10 14//10
f  11//10 13//10 12//11
f  15//12 14//12 16//12
f  14//12 15//12 13//13
f  17//14 15//14 16//14
f  15//14 17//14 18//14
f  19//15 17//15 20//15
f  17//15 19//15 18//16
f  21//17 20//17 22//17
f  20//17 21//17 19//18
f  23//19 22//19 24//19
f  22//19 23//19 21//19
f  25//20 23//20 24//20
f  23//20 25//20 26//20
f  27//21 26//21 25//21
f  26//21 27//21 28//22
f  3//23 28//23 27//23
f  28//23 3//23 2//24
f  14//25 17//25 16//25
f  22//26 25//26 24//26
f  25//26 22//26 20//27
f  25//26 20//27 17//25
f  25//26 17//25 14//25
f  25//26 14//25 10//28
f  10//28 14//25 11//29
f  25//26 10//28 27//30
f  27//30 10//28 3//31
f  3//31 10//28 1//32
f  10//28 5//33 1//32
f  5//33 10//28 7//34
f  15//35 12//35 13//35
f  12//35 15//35 9//35
f  9//35 15//35 8//35
f  8//35 15//35 6//35
f  6//35 15//35 4//35
f  4//35 15//35 18//35
f  18//35 2//35 4//35
f  2//35 18//35 19//35
f  2//35 19//35 21//35
f  2//35 21//35 28//35
f  28//35 21//35 23//35
f  28//35 23//35 26//35

