# {"id":"BLDG_0003000e00420e6d","idOriginal":"BLDG_0003000e00420e6d","origin":[13.35511024227765,52.540006610608415],"elevation":35.24}
# Longitude: 13.35511024227765
# Latitude: 52.540006610608415
# Elevation: 35.24

# File produced by Open Asset Import Library (http://www.assimp.sf.net)
# (assimp v3.1.0)

mtllib BLDG_0003000e00420e6d.obj.mtl

# 50 vertex positions
v  8.81426 23.62 -15.8314
v  13.2336 20.88 -2.34917
v  15.1002 20.88 -14.8001
v  6.94712 23.62 -3.37644
v  12.5736 20.88 2.0537
v  6.28708 23.62 1.02643
v  34.3084 17.2791 1.09443
v  40.0311 20.6367 6.54007
v  42.0246 17.2791 2.3552
v  33.6682 20.6367 5.50041
v  27.7719 20.62 4.53701
v  22.5159 17.88 -0.832405
v  21.8756 20.62 3.5736
v  33.6682 20.62 5.50041
v  34.3084 17.88 1.09441
v  22.5159 17.2791 -0.832386
v  12.5736 20.6367 2.05371
v  21.8756 20.6367 3.5736
v  13.2336 17.2791 -2.34906
v  24.3259 17.88 -13.2863
v  28.4122 20.62 0.130917
v  30.2217 20.62 -12.3191
v  36.1173 17.88 -11.3518
v  2.52824 20.88 -16.8627
v  0.660483 20.88 -4.40353
v  0.000444809 20.88 -0.00066116
v  12.5732 0.1 2.05436
v  21.8752 0.1 3.57425
v  0 0 0
v  12.5732 -1.25794e-16 2.05437
v  6.28658 -6.28968e-17 1.02718
v  40.0306 0.1 6.54072
v  33.6677 0.1 5.50106
v  33.6677 -3.36843e-16 5.50107
v  27.7715 -2.77851e-16 4.53766
v  21.8752 -2.1886e-16 3.57425
v  30.2212 7.54289e-16 -12.3185
v  24.3255 8.13518e-16 -13.2858
v  36.1169 6.9506e-16 -11.3512
v  8.81376 9.69351e-16 -15.8307
v  2.5278 1.0325e-15 -16.862
v  15.0997 9.06201e-16 -14.7994
v  34.3081 -6.70481e-17 1.09498
v  22.5155 5.09354e-17 -0.831839
v  0.660038 2.69598e-16 -4.40287
v  13.2332 1.43805e-16 -2.34851
v  34.3081 0.1 1.09497
v  42.0243 0.1 2.35575
v  13.2332 0.1 -2.34851
v  22.5155 0.1 -0.831842

# 0 UV coordinates

# 86 vertex normals
vn 0.390805 0.918607 0.0585859
vn 0.390805 0.918607 0.0585859
vn 0.390805 0.918607 0.0585858
vn 0.390805 0.918607 0.0585858
vn 0.0971037 0.798363 -0.594296
vn 0.0971037 0.798363 -0.594296
vn 0.0845257 0.85161 -0.517315
vn 0.0845257 0.85161 -0.517315
vn 0.0971038 0.798363 -0.594296
vn -0.412586 0.908943 -0.0599626
vn -0.412586 0.908943 -0.0599626
vn -0.412586 0.908943 -0.0599626
vn 0.412591 0.90894 0.0599633
vn 0.412591 0.90894 0.0599634
vn 0.412591 0.90894 0.0599633
vn -0.3908 0.918609 -0.0585851
vn -0.3908 0.918609 -0.0585851
vn -0.3908 0.918609 -0.0585851
vn -0.3908 0.918609 -0.0585852
vn -0.161255 3.41544e-05 0.986913
vn -0.161255 3.47075e-05 0.986913
vn -0.161255 3.46825e-05 0.986913
vn -0.161255 3.36644e-05 0.986913
vn -0.161255 3.02649e-05 0.986913
vn -0.161255 3.46995e-05 0.986913
vn -0.161255 3.47311e-05 0.986913
vn -0.161259 2.82357e-05 0.986912
vn -0.161255 3.47078e-05 0.986913
vn -0.161255 3.59157e-05 0.986913
vn -0.161255 3.46987e-05 0.986913
vn -0.161275 2.65489e-05 0.986909
vn -0.161255 3.47022e-05 0.986913
vn 0.161901 -3.47186e-05 -0.986807
vn 0.161901 -3.47056e-05 -0.986807
vn 0.161901 -3.47186e-05 -0.986807
vn 0.161901 -3.46919e-05 -0.986807
vn 0.161901 -3.47292e-05 -0.986807
vn 0.161901 -3.47288e-05 -0.986807
vn 0.161901 -3.46879e-05 -0.986807
vn 0.161901 -3.45324e-05 -0.986807
vn 0.989603 -1.65565e-05 0.143823
vn 0.989604 -1.68972e-05 0.143822
vn 0.9896 4.1154e-06 0.143844
vn 0.989603 -1.656e-05 0.143823
vn 0.989604 -1.66011e-05 0.143822
vn -0.989603 1.65565e-05 -0.143823
vn -0.989604 1.61671e-05 -0.143822
vn -0.989603 1.65108e-05 -0.143823
vn -0.989603 1.43982e-05 -0.143823
vn -0.989604 1.40746e-05 -0.143823
vn -0.988949 1.63722e-05 -0.148254
vn -0.988949 1.63529e-05 -0.148254
vn -0.988949 1.63733e-05 -0.148254
vn 4.44089e-16 1 1.11022e-16
vn 0.988949 -1.64015e-05 0.148254
vn 0.988949 -1.6394e-05 0.148254
vn 0.988949 -1.42676e-05 0.148257
vn 0.988949 -1.6384e-05 0.148254
vn 0.988949 -1.33885e-05 0.148254
vn 0.988949 -1.47343e-05 0.148254
vn -0.989603 1.66011e-05 -0.143823
vn -0.989604 1.65417e-05 -0.143823
vn -0.989606 -3.20344e-06 -0.143809
vn 0.161255 -3.46868e-05 -0.986913
vn 0.161255 -3.46799e-05 -0.986913
vn 0.902793 -5.66998e-06 0.430074
vn 0.902793 -5.6405e-06 0.430074
vn -0.988949 1.6384e-05 -0.148254
vn -0.988949 1.63885e-05 -0.148254
vn 0.161255 -3.46799e-05 -0.986913
vn 0.161255 -3.46868e-05 -0.986913
vn 0.989604 -1.65417e-05 0.143822
vn 0.989604 -1.65108e-05 0.143823
vn 0.989606 4.10222e-06 0.143807
vn 2.81686e-24 -1 -6.12323e-17
vn 1.12674e-23 -1 -6.12323e-17
vn 0 -1 -6.12323e-17
vn 0 -1 -6.12323e-17
vn 2.98572e-24 -1 -6.12323e-17
vn -2.4881e-24 -1 -6.12323e-17
vn 5.9376e-24 -1 -6.12323e-17
vn 1.05557e-23 -1 -6.12323e-17
vn 3.73379e-24 -1 -6.12323e-17
vn 0 -1 -6.12323e-17
vn 4.66724e-25 -1 -6.12323e-17
vn 0 -1 0

# Mesh 'defaultobject' with 96 faces
g defaultobject
usemtl DefaultMaterial
f  1//1 2//1 3//1
f  2//1 1//1 4//2
f  2//1 4//2 5//3
f  5//3 4//2 6//4
f  7//5 8//5 9//5
f  8//5 7//5 10//6
f  11//7 12//7 13//7
f  14//8 15//8 11//7
f  16//9 17//9 18//9
f  17//9 16//9 19//9
f  20//10 21//10 22//10
f  21//10 20//10 12//11
f  21//10 12//11 11//12
f  22//13 15//13 23//13
f  15//13 22//13 21//14
f  15//13 21//14 11//15
f  24//16 4//16 1//16
f  4//16 24//16 25//17
f  4//16 25//17 6//18
f  6//18 25//17 26//19
f  6//20 17//20 5//20
f  26//21 27//21 28//21
f  27//21 26//21 29//22
f  27//21 29//22 30//23
f  30//23 29//22 31//10
f  17//20 13//24 18//24
f  13//24 17//20 32//25
f  32//25 17//20 33//26
f  33//26 17//20 6//20
f  33//26 6//20 26//21
f  33//26 26//21 34//27
f  34//27 26//21 35//28
f  35//28 26//21 28//21
f  35//28 28//21 36//29
f  10//30 32//25 8//30
f  32//31 10//31 14//31
f  32//25 14//32 11//32
f  32//25 11//32 13//24
f  20//33 37//33 38//33
f  37//33 20//33 39//34
f  39//34 20//33 23//35
f  23//35 20//33 22//36
f  24//37 40//37 41//37
f  40//37 24//37 42//38
f  42//38 24//37 3//39
f  3//39 24//37 1//40
f  23//41 43//41 39//41
f  43//41 23//41 34//42
f  34//43 23//43 33//43
f  33//44 23//41 15//44
f  33//44 15//44 14//45
f  38//46 12//46 20//46
f  12//46 38//46 13//47
f  13//47 38//46 28//48
f  28//48 38//46 44//49
f  28//48 44//49 36//50
f  41//51 25//51 24//51
f  25//51 41//51 26//52
f  26//52 41//51 29//53
f  29//54 41//54 45//54
f  3//55 46//55 42//55
f  46//55 3//55 30//56
f  30//56 3//55 27//57
f  27//57 3//55 17//58
f  17//58 3//55 2//59
f  17//58 2//59 5//60
f  14//61 47//61 33//61
f  47//61 14//61 7//62
f  7//63 14//63 10//63
f  7//64 48//64 47//64
f  48//64 7//64 9//65
f  48//66 8//66 32//66
f  8//66 48//66 9//67
f  17//68 49//68 27//68
f  49//68 17//68 19//69
f  19//70 50//70 49//70
f  50//70 19//70 16//71
f  16//72 28//72 50//72
f  28//72 16//72 13//73
f  13//74 16//74 18//74
f  37//75 44//75 38//75
f  44//75 37//75 39//76
f  44//75 39//76 43//77
f  44//75 43//77 36//78
f  36//78 43//77 35//79
f  35//79 43//77 34//80
f  40//81 45//81 41//81
f  45//81 40//81 42//82
f  45//81 42//82 29//83
f  29//83 42//82 46//84
f  29//83 46//84 31//63
f  31//63 46//84 30//85
f  33//86 48//86 32//86
f  48//86 33//86 47//86
f  27//86 50//86 28//86
f  50//86 27//86 49//86

