# {"id":"BLDG_0003000e00180ba4","idOriginal":"BLDG_0003000e00180ba4","origin":[13.408896389154753,52.51128470234591],"elevation":34.689998626709}
# Longitude: 13.408896389154753
# Latitude: 52.51128470234591
# Elevation: 34.689998626709

# File produced by Open Asset Import Library (http://www.assimp.sf.net)
# (assimp v3.1.0)

mtllib BLDG_0003000e00180ba4.obj.mtl

# 56 vertex positions
v  37.3385 25.0242 66.0176
v  30.4519 25.0242 58.6704
v  35.0384 25.0242 67.2479
v  40.8854 25.0242 64.1205
v  46.1908 25.0242 61.2835
v  41.6433 25.0242 52.5548
v  23.9641 25.0242 46.1711
v  39.985 25.0242 49.3705
v  39.0183 25.0242 47.5141
v  37.1903 25.0242 44.0059
v  22.4277 25.0242 43.21
v  35.0535 25.0242 39.9046
v  10.1478 25.0242 19.5494
v  33.4252 25.0242 36.7779
v  29.7189 25.0242 29.6608
v  27.9814 25.0242 26.327
v  26.2565 25.0242 23.0166
v  25.2755 25.0242 21.131
v  23.511 25.0242 17.7438
v  8.62859 25.0242 16.6228
v  21.3125 25.0242 13.5242
v  0.000534884 25.0242 -0.00079082
v  19.6599 25.0242 10.35
v  17.9284 25.0242 7.02545
v  15.8408 25.0242 3.0191
v  14.1439 25.0242 -0.239832
v  12.446 25.0242 -3.5
v  11.1909 25.0242 -5.90649
v  30.4513 -3.59258e-15 58.6712
v  37.338 -4.04246e-15 66.0184
v  35.0379 -4.11779e-15 67.2486
v  40.8848 -3.9263e-15 64.1213
v  46.1903 -3.75258e-15 61.2842
v  41.6428 -3.2181e-15 52.5556
v  23.9636 -2.82721e-15 46.1718
v  39.9845 -3.02312e-15 49.3712
v  39.0178 -2.90945e-15 47.5149
v  37.1897 -2.69463e-15 44.0066
v  35.0529 -2.4435e-15 39.9054
v  22.4272 -2.6459e-15 43.2107
v  33.4246 -2.25204e-15 36.7787
v  10.1473 -1.1971e-15 19.5502
v  29.7183 -1.81625e-15 29.6616
v  27.9809 -1.61211e-15 26.3278
v  26.256 -1.40941e-15 23.0174
v  25.2749 -1.29395e-15 21.1318
v  23.5104 -1.08655e-15 17.7446
v  21.312 -8.28168e-16 13.525
v  8.62806 -1.0179e-15 16.6236
v  19.6594 -6.33806e-16 10.3508
v  0 0 0
v  17.9279 -4.30233e-16 7.02624
v  15.8403 -1.84915e-16 3.01989
v  14.1434 1.4637e-17 -0.239041
v  12.4455 2.14265e-16 -3.49921
v  11.1904 3.6162e-16 -5.9057

# 0 UV coordinates

# 74 vertex normals
vn 0 1 0
vn -3.33849e-23 -1 -6.12323e-17
vn 4.05939e-23 -1 -6.12324e-17
vn -2.89507e-23 -1 -6.12323e-17
vn -1.51862e-23 -1 -6.12324e-17
vn 9.43439e-24 -1 -6.12323e-17
vn 9.2652e-24 -1 -6.12323e-17
vn 1.78803e-23 -1 -6.12324e-17
vn 1.31404e-23 -1 -6.12323e-17
vn 2.69776e-24 -1 -6.12324e-17
vn 1.24667e-23 -1 -6.12323e-17
vn 3.30434e-23 -1 -6.12323e-17
vn -6.24303e-24 -1 -6.12323e-17
vn 8.31963e-24 -1 -6.12324e-17
vn 3.99719e-23 -1 -6.12324e-17
vn 8.94511e-24 -1 -6.12323e-17
vn -1.66831e-23 -1 -6.12322e-17
vn 5.46342e-25 -1 -6.12324e-17
vn 9.64818e-24 -1 -6.12323e-17
vn 5.06256e-24 -1 -6.12323e-17
vn 0 -1 -6.12323e-17
vn 3.56642e-24 -1 -6.12323e-17
vn -4.464e-24 -1 -6.12323e-17
vn 1.85241e-24 -1 -6.12324e-17
vn 0 -1 -6.12323e-17
vn -1.54156e-24 -1 -6.12323e-17
vn -0.881845 3.3762e-05 0.471539
vn -0.881845 3.37714e-05 0.471539
vn 0.471636 1.76235e-05 0.881793
vn 0.471636 1.75541e-05 0.881794
vn 0.47164 1.75518e-05 0.881791
vn 0.471557 1.76919e-05 0.881835
vn 0.471557 1.75526e-05 0.881836
vn 0.88686 -3.37028e-05 -0.462039
vn 0.88686 -3.36409e-05 -0.462039
vn 0.886934 -3.35744e-05 -0.461897
vn 0.886934 -3.37125e-05 -0.461896
vn 0.886948 -3.3573e-05 -0.461869
vn 0.886825 -3.35099e-05 -0.462106
vn 0.886825 -3.35773e-05 -0.462105
vn 0.886853 -3.35073e-05 -0.462052
vn 0.886936 -3.36421e-05 -0.461893
vn 0.886935 -3.35069e-05 -0.461894
vn 0.886938 -3.35304e-05 -0.461889
vn 0.8868 -3.35491e-05 -0.462154
vn 0.886834 -3.35428e-05 -0.462088
vn 0.88711 -3.35623e-05 -0.461557
vn 0.88711 -3.35309e-05 -0.461557
vn 0.886877 -3.36077e-05 -0.462005
vn 0.886877 -3.35728e-05 -0.462005
vn 0.886851 -3.35206e-05 -0.462055
vn 0.886852 -3.36087e-05 -0.462054
vn 0.886986 -3.35191e-05 -0.461796
vn 0.88692 -3.35303e-05 -0.461924
vn 0.88692 -3.35201e-05 -0.461924
vn 0.886826 -3.35578e-05 -0.462103
vn 0.886826 -3.35241e-05 -0.462104
vn 0.886966 -3.35593e-05 -0.461835
vn 0.886921 -3.35293e-05 -0.461921
vn 0.886921 -3.35604e-05 -0.461921
vn 0.886657 -3.35661e-05 -0.462428
vn 0.886657 -3.35345e-05 -0.462428
vn -0.466738 -1.79725e-05 -0.884396
vn -0.466738 -1.79622e-05 -0.884396
vn -0.887571 3.35126e-05 0.460671
vn -0.887571 3.35298e-05 0.460671
vn -0.887542 3.35488e-05 0.460727
vn -0.887542 3.35137e-05 0.460727
vn -0.887579 3.35461e-05 0.460656
vn -0.887579 3.35474e-05 0.460656
vn -0.887629 3.34764e-05 0.460558
vn -0.88763 3.35441e-05 0.460558
vn -0.887563 3.35493e-05 0.460687
vn -0.887563 3.34791e-05 0.460687

# Mesh 'defaultobject' with 108 faces
g defaultobject
usemtl DefaultMaterial
f  1//1 2//1 3//1
f  2//1 1//1 4//1
f  2//1 4//1 5//1
f  2//1 5//1 6//1
f  2//1 6//1 7//1
f  7//1 6//1 8//1
f  7//1 8//1 9//1
f  7//1 9//1 10//1
f  7//1 10//1 11//1
f  11//1 10//1 12//1
f  11//1 12//1 13//1
f  13//1 12//1 14//1
f  13//1 14//1 15//1
f  13//1 15//1 16//1
f  13//1 16//1 17//1
f  13//1 17//1 18//1
f  13//1 18//1 19//1
f  13//1 19//1 20//1
f  20//1 19//1 21//1
f  20//1 21//1 22//1
f  22//1 21//1 23//1
f  22//1 23//1 24//1
f  22//1 24//1 25//1
f  22//1 25//1 26//1
f  22//1 26//1 27//1
f  22//1 27//1 28//1
f  29//2 30//2 31//2
f  30//2 29//2 32//3
f  32//3 29//2 33//4
f  33//4 29//2 34//5
f  34//5 29//2 35//6
f  34//5 35//6 36//7
f  36//7 35//6 37//8
f  37//8 35//6 38//9
f  38//9 35//6 39//10
f  39//10 35//6 40//11
f  39//10 40//11 41//12
f  41//12 40//11 42//13
f  41//12 42//13 43//14
f  43//14 42//13 44//15
f  44//15 42//13 45//16
f  45//16 42//13 46//17
f  46//17 42//13 47//18
f  47//18 42//13 48//19
f  48//19 42//13 49//20
f  48//19 49//20 50//21
f  50//21 49//20 51//22
f  50//21 51//22 52//23
f  52//23 51//22 53//24
f  53//24 51//22 54//25
f  54//25 51//22 55//25
f  55//25 51//22 56//26
f  3//27 29//27 31//27
f  29//27 3//27 2//28
f  3//29 30//29 1//29
f  30//29 3//29 31//30
f  1//29 32//31 4//31
f  32//31 1//29 30//29
f  4//32 33//32 5//32
f  33//32 4//32 32//33
f  5//34 34//34 6//34
f  34//34 5//34 33//35
f  6//36 36//36 8//36
f  36//36 6//36 34//37
f  8//38 37//38 9//38
f  37//38 8//38 36//38
f  9//39 38//39 10//39
f  38//39 9//39 37//40
f  10//41 39//41 12//41
f  39//41 10//41 38//41
f  12//42 41//42 14//42
f  41//42 12//42 39//43
f  14//42 43//44 15//44
f  43//44 14//42 41//42
f  15//45 44//45 16//45
f  44//45 15//45 43//45
f  16//46 45//46 17//46
f  45//46 16//46 44//46
f  17//47 46//47 18//47
f  46//47 17//47 45//48
f  18//49 47//49 19//49
f  47//49 18//49 46//50
f  19//51 48//51 21//51
f  48//51 19//51 47//52
f  21//53 50//53 23//53
f  50//53 21//53 48//53
f  23//54 52//54 24//54
f  52//54 23//54 50//55
f  24//56 53//56 25//56
f  53//56 24//56 52//57
f  25//58 54//58 26//58
f  54//58 25//58 53//58
f  26//59 55//59 27//59
f  55//59 26//59 54//60
f  27//61 56//61 28//61
f  56//61 27//61 55//62
f  22//63 56//63 51//63
f  56//63 22//63 28//64
f  20//65 51//65 49//65
f  51//65 20//65 22//66
f  13//67 49//67 42//67
f  49//67 13//67 20//68
f  11//69 42//69 40//69
f  42//69 11//69 13//70
f  7//71 40//71 35//71
f  40//71 7//71 11//72
f  2//73 35//73 29//73
f  35//73 2//73 7//74

