# {"id":"BLDG_0003000a0010da40","idOriginal":"BLDG_0003000a0010da40","origin":[13.388024504754922,52.55288040115646],"elevation":40.3400001525879}
# Longitude: 13.388024504754922
# Latitude: 52.55288040115646
# Elevation: 40.3400001525879

# File produced by Open Asset Import Library (http://www.assimp.sf.net)
# (assimp v3.1.0)

mtllib BLDG_0003000a0010da40.obj.mtl

# 22 vertex positions
v  10.7391 20.7977 3.54539
v  18.7179 20.1276 -1.99537
v  17.7694 20.7977 -2.84898
v  11.5964 20.1276 4.49055
v  5.74758 21.5975 -1.95773
v  12.206 21.5975 -7.8559
v  4.11975 20.1276 -3.75231
v  10.405 20.1276 -9.47667
v  0.000429694 20.1276 -0.00063785
v  1.62827 21.5975 1.79395
v  6.61979 20.7977 7.29707
v  7.47707 21.1476 8.24219
v  15.4678 20.1276 8.75874
v  11.3448 21.1476 12.5063
v  18.7174 1.22142e-16 -1.99473
v  10.4046 5.80239e-16 -9.47603
v  11.5959 -2.75006e-16 4.49119
v  4.11932 2.29724e-16 -3.75168
v  0 0 0
v  7.47662 -5.0473e-16 8.24286
v  11.3443 -7.65828e-16 12.5069
v  15.4674 -5.36357e-16 8.75938

# 0 UV coordinates

# 36 vertex normals
vn 0.314092 0.884361 0.345329
vn 0.313092 0.885321 0.343773
vn 0.071992 0.994285 0.0788306
vn 0.0720158 0.994256 0.0791779
vn -0.350525 0.853817 -0.384874
vn -0.349788 0.854955 -0.383015
vn -0.349265 0.854956 -0.383491
vn -0.349265 0.854956 -0.383491
vn 0.0720681 0.994256 0.0791304
vn 0.0720681 0.994256 0.0791304
vn 0.313092 0.885321 0.343773
vn -0.0465579 0.949804 -0.309363
vn 0.133387 0.983651 -0.120987
vn 0.133387 0.983651 -0.120987
vn 0.668953 -3.78564e-05 -0.743305
vn 0.668953 -3.78159e-05 -0.743305
vn 0.668953 -3.75913e-05 -0.743305
vn 0.668953 -3.9622e-05 -0.743305
vn 0.673345 9.01157e-06 0.739328
vn 0.673345 9.05093e-06 0.739328
vn -0.673345 -9.06261e-06 -0.739329
vn -0.673345 -9.04666e-06 -0.739329
vn -0.740695 3.71152e-05 0.671841
vn -0.740695 3.70053e-05 0.671841
vn -0.740695 3.71037e-05 0.671841
vn -0.740695 3.70817e-05 0.671841
vn -0.673345 -9.05467e-06 -0.739329
vn -0.740695 3.71016e-05 0.671841
vn 0.740695 -3.70506e-05 -0.671841
vn 0.740695 -3.71164e-05 -0.671841
vn 0.672605 9.04886e-06 0.740002
vn 0.672605 9.08225e-06 0.740001
vn 8.25238e-25 -1 -6.12323e-17
vn 8.2444e-25 -1 -6.12323e-17
vn 0 -1 -6.12323e-17
vn -4.47655e-24 -1 -6.12323e-17

# Mesh 'defaultobject' with 40 faces
g defaultobject
usemtl DefaultMaterial
f  1//1 2//1 3//1
f  2//2 1//2 4//2
f  5//3 3//3 6//3
f  3//4 5//4 1//4
f  7//5 6//5 8//5
f  6//6 7//6 5//6
f  5//7 9//7 10//7
f  9//7 5//7 7//8
f  1//9 10//9 11//9
f  10//9 1//9 5//10
f  1//2 11//11 4//2
f  11//12 12//12 4//12
f  13//13 12//13 14//13
f  12//13 13//13 4//14
f  8//15 15//15 16//15
f  15//15 8//15 2//16
f  2//16 8//15 6//17
f  2//16 6//17 3//18
f  15//19 4//19 17//19
f  4//19 15//19 2//20
f  7//21 16//21 18//21
f  16//21 7//21 8//22
f  12//23 19//23 20//23
f  19//23 12//23 11//24
f  19//23 11//24 9//25
f  10//26 9//25 11//24
f  9//27 18//21 19//27
f  18//21 9//27 7//21
f  14//28 20//23 21//28
f  20//23 14//28 12//23
f  17//29 13//29 22//29
f  13//29 17//29 4//30
f  22//31 14//31 21//31
f  14//31 22//31 13//32
f  20//33 22//33 21//33
f  22//33 20//33 17//34
f  17//34 16//35 15//35
f  16//35 17//34 18//36
f  19//35 17//34 20//33
f  17//34 19//35 18//36

