# {"id":"BLDG_0003000f00432170","idOriginal":"BLDG_0003000f00432170","origin":[13.347877125012943,52.54694917819365],"elevation":35.0099983215332}
# Longitude: 13.347877125012943
# Latitude: 52.54694917819365
# Elevation: 35.0099983215332

# File produced by Open Asset Import Library (http://www.assimp.sf.net)
# (assimp v3.1.0)

mtllib BLDG_0003000f00432170.obj.mtl

# 25 vertex positions
v  15.4226 -1.18185e-15 19.3011
v  2.80164 1.28681e-16 -2.10152
v  18.3534 -1.04389e-15 17.048
v  0 0 0
v  -9.62383 0.0900002 -1.66481
v  -12.7178 0.0900002 4.73439
v  -14.5974 0.0900002 2.39704
v  10.0957 0.0900002 33.1043
v  -4.65026 0.0900002 -5.72666
v  15.0692 0.0900002 29.0424
v  -2.7707 0.0900002 -3.38932
v  20.0428 0.0900002 24.9806
v  15.4226 3.37714 19.3009
v  18.3535 3.37714 17.0479
v  2.80171 3.37714 -2.10162
v  7.1912e-05 3.37714 -0.00010699
v  -14.597 17.0106 2.39651
v  -4.6499 17.0106 -5.7272
v  -9.62332 24.2549 -1.66557
v  20.0432 17.0106 24.9801
v  10.096 17.0106 33.1038
v  15.0697 24.2549 29.0417
v  -12.7175 17.0106 4.73385
v  -2.77034 17.0106 -3.38985
v  -7.74376 24.2549 0.67177

# 0 UV coordinates

# 35 vertex normals
vn -1.39371e-23 -1 -6.12323e-17
vn -2.44849e-24 -1 -6.12323e-17
vn 0 -1 0
vn 0.609463 1.2184e-05 0.792815
vn 0.609463 1.1993e-05 0.792815
vn 0.776257 -3.66309e-05 -0.630417
vn 0.776257 -3.66309e-05 -0.630417
vn -0.600053 -1.25659e-05 -0.79996
vn -0.600053 -1.25075e-05 -0.79996
vn -0.781229 3.62893e-05 0.624244
vn -0.781229 3.64118e-05 0.624244
vn -0.632544 -1.1068e-05 -0.774524
vn -0.632544 -1.10591e-05 -0.774524
vn -0.632544 -1.10749e-05 -0.774524
vn -0.632544 -1.09885e-05 -0.774524
vn 0.632544 1.10571e-05 0.774524
vn 0.632544 1.1182e-05 0.774524
vn 0.632544 1.10054e-05 0.774524
vn 0.632544 1.11935e-05 0.774524
vn -0.779291 3.6461e-05 0.626662
vn -0.779291 3.64506e-05 0.626662
vn -0.779291 3.63376e-05 0.626662
vn 0.779291 -3.64302e-05 -0.626662
vn 0.779291 -3.64444e-05 -0.626662
vn 0.779291 -3.60795e-05 -0.626662
vn 0.779291 -3.64522e-05 -0.626662
vn 0 1 0
vn -0.58316 0.663337 0.468944
vn -0.583159 0.663337 0.468944
vn -0.583159 0.663339 0.468943
vn -0.583159 0.663337 0.468944
vn 0.583181 0.663307 -0.468961
vn 0.583181 0.663307 -0.468961
vn 0.58318 0.663308 -0.46896
vn 0.583181 0.663307 -0.468961

# Mesh 'defaultobject' with 42 faces
g defaultobject
usemtl DefaultMaterial
f  1//1 2//1 3//1
f  2//1 1//1 4//2
f  5//3 6//3 7//3
f  6//3 5//3 8//3
f  8//3 5//3 9//3
f  8//3 9//3 10//3
f  10//3 9//3 11//3
f  10//3 11//3 12//3
f  3//4 13//4 1//4
f  13//4 3//4 14//5
f  2//6 14//6 3//6
f  14//6 2//6 15//7
f  16//8 2//8 4//8
f  2//8 16//8 15//9
f  13//10 4//10 1//10
f  4//10 13//10 16//11
f  17//12 5//12 7//12
f  5//12 17//12 9//13
f  9//13 17//12 18//14
f  18//14 17//12 19//15
f  20//16 10//16 12//16
f  10//16 20//16 8//17
f  8//17 20//16 21//18
f  21//18 20//16 22//19
f  7//20 23//20 17//20
f  23//20 7//20 21//21
f  21//21 7//20 8//22
f  8//3 7//3 6//3
f  18//23 11//23 9//23
f  11//23 18//23 12//24
f  12//24 18//23 24//25
f  12//24 24//25 20//26
f  13//27 15//27 16//27
f  15//27 13//27 14//27
f  17//28 25//28 19//28
f  25//28 17//28 22//29
f  22//29 17//28 23//30
f  22//29 23//30 21//31
f  19//32 24//32 18//32
f  24//32 19//32 20//33
f  20//33 19//32 25//34
f  20//33 25//34 22//35

