# {"id":"BLDG_0003000e00001052","idOriginal":"BLDG_0003000e00001052","origin":[13.383444455046849,52.52393852515133],"elevation":33.7400016784668}
# Longitude: 13.383444455046849
# Latitude: 52.52393852515133
# Elevation: 33.7400016784668

# File produced by Open Asset Import Library (http://www.assimp.sf.net)
# (assimp v3.1.0)

mtllib BLDG_0003000e00001052.obj.mtl

# 37 vertex positions
v  28.756 21.26 -2.02445
v  31.0773 12.76 -11.0766
v  27.8655 21.26 -4.50346
v  34.5111 12.76 -1.44243
v  35.3935 12.76 1.03312
v  8.86308 12.76 -3.15932
v  15.0821 20.1266 0.777464
v  15.5105 21.26 -0.0991603
v  14.3505 19.26 0.314449
v  13.4087 15.6996 4.20154
v  13.226 15.6997 3.68889
v  17.0904 12.76 4.76674
v  17.3825 15.6993 15.3493
v  20.4701 12.76 14.2489
v  13.6422 19.26 16.6824
v  8.57874 19.26 2.37165
v  24.6658 12.76 2.06625
v  25.5482 12.76 4.54216
v  21.2321 12.76 -7.56744
v  0.000272308 12.76 -0.0004036
v  3.43427 12.76 9.63413
v  6.81397 12.76 19.1163
v  21.2318 4.63347e-16 -7.56704
v  31.077 6.78224e-16 -11.0762
v  13.6564 2.97992e-16 -4.86658
v  1.46221 3.19123e-17 -0.521167
v  0 0 0
v  35.3932 -6.32853e-17 1.03353
v  24.6655 -1.26546e-16 2.06666
v  17.0901 -2.91904e-16 4.76715
v  24.6656 5.54848 2.06648
v  25.548 -2.78152e-16 4.54257
v  20.4698 -8.72519e-16 14.2493
v  19.6674 -7.34668e-16 11.998
v  8.27681 -1.13863e-15 18.5952
v  6.8137 -1.17056e-15 19.1167
v  3.434 -5.89945e-16 9.63453

# 0 UV coordinates

# 66 vertex normals
vn 0.800933 0.525109 -0.287691
vn 0.802439 0.523728 -0.286007
vn 0.802439 0.523728 -0.286007
vn -0.802079 0.524325 0.285925
vn -0.802003 0.522804 0.288906
vn -0.802079 0.524325 0.285925
vn -0.802079 0.524325 0.285924
vn 0.628864 0.744506 -0.224144
vn 0.628864 0.744506 -0.224144
vn 0.628864 0.744506 -0.224144
vn 0.631794 0.742203 -0.223542
vn 0.631957 0.741549 -0.225245
vn -0.801456 0.524208 0.287879
vn -0.802418 0.523766 0.285999
vn -0.287652 0.515542 -0.807139
vn -0.287728 0.515494 -0.807142
vn -0.287703 0.51548 -0.80716
vn 0.287715 0.515526 0.807127
vn 0.287714 0.515526 0.807127
vn 0.287722 0.515526 0.807124
vn 0.287727 0.51552 0.807126
vn -0.263851 0.618369 -0.740272
vn -0.263851 0.618369 -0.740272
vn 0.287761 0.515127 0.807364
vn -0.627159 0.746126 0.223536
vn -0.628243 0.745587 0.222285
vn -0.628845 0.744524 0.224137
vn 0.263866 0.618315 0.740312
vn -0.335748 -2.25965e-05 -0.941952
vn -0.33578 5.65029e-06 -0.94194
vn -0.335748 -4.45066e-05 -0.941952
vn -0.335674 -9.36457e-05 -0.941978
vn -0.335703 -4.43506e-05 -0.941968
vn -0.335736 -2.25329e-05 -0.941956
vn -0.335736 -2.26229e-05 -0.941956
vn 0.941957 -3.06028e-05 -0.335735
vn 0.941957 -3.0799e-05 -0.335734
vn 0.941957 -3.07496e-05 -0.335734
vn 0.335786 2.26384e-05 0.941938
vn 0.335786 2.26116e-05 0.941938
vn 0.335786 2.26262e-05 0.941938
vn 0.335732 2.26537e-05 0.941957
vn 0.335732 2.26823e-05 0.941957
vn -0.941957 3.0624e-05 0.335734
vn -0.941957 3.08034e-05 0.335735
vn -0.941957 3.07014e-05 0.335734
vn 0.941955 -3.06082e-05 -0.335738
vn 0.941955 -3.07615e-05 -0.335738
vn 0 1 5.55112e-17
vn 0.335736 2.26534e-05 0.941956
vn 0.335737 2.15084e-05 0.941956
vn 0.335736 2.26862e-05 0.941956
vn 0.335736 2.25589e-05 0.941956
vn 0.335736 2.27604e-05 0.941956
vn -0.941956 3.07215e-05 0.335738
vn -0.941955 3.07378e-05 0.335738
vn -0.941956 3.07486e-05 0.335738
vn -0.941955 3.07389e-05 0.335738
vn 1.36896e-23 -1 -6.12323e-17
vn 2.13107e-24 -1 -6.12323e-17
vn -3.15189e-24 -1 -6.12323e-17
vn 0 -1 -6.12323e-17
vn -7.92373e-24 -1 -6.12323e-17
vn -1.07483e-22 -1 -6.12324e-17
vn 1.02987e-23 -1 -6.12323e-17
vn 0 -1 -6.12323e-17

# Mesh 'defaultobject' with 70 faces
g defaultobject
usemtl DefaultMaterial
f  1//1 2//1 3//1
f  2//2 1//2 4//2
f  4//2 1//2 5//3
f  6//4 7//4 8//4
f  7//5 6//5 9//5
f  9//6 10//6 7//4
f  10//6 9//6 11//7
f  12//8 13//8 14//8
f  13//8 12//8 15//9
f  15//9 12//8 10//10
f  15//11 10//11 16//11
f  16//12 10//12 11//12
f  17//13 1//13 3//13
f  1//14 17//14 18//14
f  8//15 19//15 6//15
f  19//16 8//16 3//16
f  19//17 3//17 2//17
f  12//18 7//18 10//18
f  7//18 12//18 8//19
f  8//19 12//18 3//20
f  3//20 12//21 17//21
f  6//22 16//22 9//22
f  16//22 6//22 20//23
f  5//24 1//24 18//24
f  21//25 16//25 20//25
f  16//26 21//26 15//26
f  15//27 21//27 22//27
f  9//28 16//28 11//28
f  23//29 2//29 24//29
f  2//30 23//30 25//30
f  2//31 25//31 19//31
f  19//32 25//32 26//32
f  19//33 26//33 6//33
f  6//34 26//34 27//34
f  6//34 27//34 20//35
f  24//36 5//36 28//36
f  5//36 24//36 4//37
f  4//37 24//36 2//38
f  29//39 12//39 30//39
f  12//39 29//39 31//40
f  12//39 31//40 17//41
f  18//42 28//42 5//42
f  28//42 18//42 32//43
f  17//44 32//44 18//44
f  32//44 17//44 31//45
f  32//44 31//45 29//46
f  33//47 12//47 14//47
f  12//47 33//47 30//48
f  30//49 33//49 34//49
f  14//50 35//50 33//50
f  35//50 14//50 36//51
f  36//51 14//50 22//52
f  22//52 14//50 13//53
f  22//52 13//53 15//54
f  27//55 21//55 20//55
f  21//55 27//55 22//56
f  22//56 27//55 37//57
f  22//56 37//57 36//58
f  35//59 34//59 33//59
f  34//59 35//59 30//60
f  32//61 24//61 28//61
f  24//61 32//61 29//62
f  24//61 29//62 30//60
f  24//61 30//60 23//63
f  23//63 30//60 35//59
f  23//63 35//59 36//64
f  23//63 36//64 37//62
f  23//63 37//62 25//65
f  25//65 37//62 26//62
f  26//62 37//62 27//66

