# {"id":"BLDG_000300020029884d","idOriginal":"BLDG_000300020029884d","origin":[13.335465570669681,52.510404298059086],"elevation":34.0999984741211}
# Longitude: 13.335465570669681
# Latitude: 52.510404298059086
# Elevation: 34.0999984741211

# File produced by Open Asset Import Library (http://www.assimp.sf.net)
# (assimp v3.1.0)

mtllib BLDG_000300020029884d.obj.mtl

# 12 vertex positions
v  1.3368e-05 0.628312 -1.98595e-05
v  4.51423 4.75466 -3.34325
v  1.03295 4.75466 -4.2004
v  3.48129 0.628312 0.857136
v  5.54699 0.628312 -7.54337
v  2.06571 0.628312 -8.40053
v  4.51413 2.04706e-16 -3.3431
v  2.06569 5.14383e-16 -8.40051
v  5.54697 4.61897e-16 -7.54335
v  1.03285 2.57191e-16 -4.20025
v  3.48128 -5.24857e-17 0.857156
v  0 0 0

# 0 UV coordinates

# 18 vertex normals
vn -0.165024 0.72357 0.670234
vn -0.165024 0.72357 0.670234
vn 0.16503 0.723546 -0.670258
vn 0.16503 0.723546 -0.670258
vn 6.82758e-24 -1 -6.12323e-17
vn 0 -1 -6.12323e-17
vn -8.53447e-24 -1 -6.12323e-17
vn 6.82758e-24 -1 -6.12323e-17
vn 0.971072 -1.30237e-05 0.238787
vn 0.971072 -1.31026e-05 0.238787
vn 0.971072 -1.31026e-05 0.238787
vn 0.971072 -1.30917e-05 0.238787
vn -0.971072 1.3113e-05 -0.238787
vn -0.971072 1.31269e-05 -0.238787
vn -0.971072 1.31269e-05 -0.238787
vn -0.971072 1.30237e-05 -0.238787
vn -0.239078 3.57735e-05 0.971
vn 0.239078 -3.60305e-05 -0.971

# Mesh 'defaultobject' with 20 faces
g defaultobject
usemtl DefaultMaterial
f  1//1 2//1 3//1
f  2//1 1//1 4//2
f  3//3 5//3 6//3
f  5//3 3//3 2//4
f  7//5 8//5 9//5
f  8//5 7//5 10//6
f  10//6 7//5 11//7
f  10//6 11//7 12//8
f  5//9 7//9 9//9
f  7//9 5//9 2//10
f  7//9 2//10 11//11
f  11//11 2//10 4//12
f  1//13 10//13 12//13
f  10//13 1//13 3//14
f  10//13 3//14 8//15
f  8//15 3//14 6//16
f  11//17 1//17 12//17
f  1//17 11//17 4//17
f  6//18 9//18 8//18
f  9//18 6//18 5//18

