# {"id":"BLDG_00030000014f9600","idOriginal":"BLDG_00030000014f9600","origin":[13.35340983817664,52.519907412982846],"elevation":33.9900016784668}
# Longitude: 13.35340983817664
# Latitude: 52.519907412982846
# Elevation: 33.9900016784668

# File produced by Open Asset Import Library (http://www.assimp.sf.net)
# (assimp v3.1.0)

mtllib BLDG_00030000014f9600.obj.mtl

# 14 vertex positions
v  6.14645 -4.89774e-17 0.799862
v  6.938e-05 3.25731 -0.000103
v  0 0 0
v  6.14652 3.25731 0.799759
v  9.26972 9.30338e-16 -15.1936
v  9.26979 3.25731 -15.1937
v  11.5281 1.48894e-15 -24.3162
v  11.5282 3.25731 -24.3163
v  9.48626 3.25731 -24.808
v  9.48619 1.51904e-15 -24.8079
v  5.44317 3.25731 -25.7808
v  5.4431 1.57861e-15 -25.7807
v  1.11917 3.25731 -7.78522
v  1.1191 4.76701e-16 -7.78512

# 0 UV coordinates

# 17 vertex normals
vn -0.129046 3.41042e-05 0.991639
vn 0.981461 -1.48766e-05 0.191664
vn 0.970698 -1.31468e-05 0.240303
vn 0.970698 -1.28976e-05 0.240303
vn 0.23411 -3.57451e-05 -0.97221
vn 0.23411 -3.56766e-05 -0.97221
vn 0.233942 -3.57428e-05 -0.972251
vn -0.972325 1.33228e-05 -0.233631
vn -0.972325 1.3394e-05 -0.233631
vn -0.989825 1.65838e-05 -0.142287
vn -0.989825 1.65839e-05 -0.142287
vn 5.25189e-25 -1 -6.12323e-17
vn -7.67759e-24 -1 -6.12323e-17
vn 0 -1 -6.12323e-17
vn 7.20043e-24 -1 -6.12323e-17
vn 5.48009e-20 -1 -6.1456e-17
vn 0 1 0

# Mesh 'defaultobject' with 24 faces
g defaultobject
usemtl DefaultMaterial
f  1//1 2//1 3//1
f  2//1 1//1 4//1
f  5//2 4//2 1//2
f  4//2 5//2 6//2
f  7//3 6//3 5//3
f  6//3 7//3 8//4
f  9//5 7//5 10//5
f  7//5 9//5 8//6
f  11//7 10//7 12//7
f  10//7 11//7 9//7
f  13//8 12//8 14//8
f  12//8 13//8 11//9
f  2//10 14//10 3//10
f  14//10 2//10 13//11
f  3//12 5//12 1//12
f  5//12 3//12 14//13
f  5//12 14//13 12//14
f  5//12 12//14 7//15
f  7//15 12//14 10//16
f  4//17 13//17 2//17
f  13//17 4//17 6//17
f  13//17 6//17 11//17
f  11//17 6//17 8//17
f  11//17 8//17 9//17

