# {"id":"BLDG_0003000e00533a1a","idOriginal":"BLDG_0003000e00533a1a","origin":[13.392956066664944,52.56355752557555],"elevation":41.7900009155273}
# Longitude: 13.392956066664944
# Latitude: 52.56355752557555
# Elevation: 41.7900009155273

# File produced by Open Asset Import Library (http://www.assimp.sf.net)
# (assimp v3.1.0)

mtllib BLDG_0003000e00533a1a.obj.mtl

# 10 vertex positions
v  20.9438 15.5464 8.94409
v  10.3869 -9.73164e-16 15.893
v  20.9434 -5.47698e-16 8.94458
v  10.3872 15.5464 15.8925
v  15.6655 18.6284 12.4182
v  0 0 0
v  0.000332007 15.5464 -0.00049302
v  10.5566 4.25466e-16 -6.94838
v  10.5569 15.5464 -6.94888
v  5.27869 18.6284 -3.47478

# 0 UV coordinates

# 15 vertex normals
vn 0.549797 1.47544e-05 0.835299
vn 0.549797 1.47206e-05 0.835299
vn 0.549797 1.47886e-05 0.835299
vn -0.837083 3.52714e-05 0.547076
vn -0.837083 3.52259e-05 0.547076
vn -0.549797 -1.47482e-05 -0.835299
vn -0.549797 -1.47544e-05 -0.835299
vn -0.549797 -1.47886e-05 -0.835299
vn 0.837083 -3.52563e-05 -0.547076
vn -0.366946 0.898798 0.239817
vn -0.366946 0.898798 0.239817
vn 0.366956 0.898792 -0.239824
vn 0.366956 0.898792 -0.239824
vn 0 -1 -6.12323e-17
vn 3.53008e-24 -1 -6.12323e-17

# Mesh 'defaultobject' with 16 faces
g defaultobject
usemtl DefaultMaterial
f  1//1 2//1 3//1
f  2//1 1//1 4//2
f  4//2 1//1 5//3
f  4//4 6//4 2//4
f  6//4 4//4 7//5
f  7//6 8//6 6//6
f  8//6 7//6 9//7
f  9//7 7//6 10//8
f  8//9 1//9 3//9
f  1//9 8//9 9//9
f  7//10 5//10 10//10
f  5//10 7//10 4//11
f  10//12 1//12 9//12
f  1//12 10//12 5//13
f  6//14 3//14 2//14
f  3//14 6//14 8//15

