# {"id":"BLDG_00030000001878d0","idOriginal":"BLDG_00030000001878d0","origin":[13.39370075053574,52.529818295802436],"elevation":34.7799987792969}
# Longitude: 13.39370075053574
# Latitude: 52.529818295802436
# Elevation: 34.7799987792969

# File produced by Open Asset Import Library (http://www.assimp.sf.net)
# (assimp v3.1.0)

mtllib BLDG_00030000001878d0.obj.mtl

# 10 vertex positions
v  3.92866 2.76004 8.97513
v  8.05258 2.76004 7.37451
v  5.10371 3.03379 6.1486
v  2.94893 3.03379 1.22581
v  5.8941e-05 2.76004 -8.73394e-05
v  4.12398 2.76004 -1.6007
v  3.9286 -5.49573e-16 8.97521
v  4.12392 9.80094e-17 -1.60062
v  8.05252 -4.51564e-16 7.3746
v  0 0 0

# 0 UV coordinates

# 14 vertex normals
vn 0.0444829 0.992414 0.114608
vn -0.112621 0.992414 0.0492962
vn -0.112621 0.992414 0.0492962
vn -0.0444831 0.992414 -0.114609
vn 0.112622 0.992414 -0.0492966
vn -4.89035e-24 -1 -6.12323e-17
vn 0 -1 -6.12323e-17
vn 0.361832 2.18707e-05 0.932243
vn 0.361831 2.17144e-05 0.932244
vn -0.916085 3.22927e-05 0.400985
vn -0.916085 3.2252e-05 0.400985
vn -0.361831 -2.17732e-05 -0.932244
vn -0.361831 -2.17223e-05 -0.932244
vn 0.916085 -3.2164e-05 -0.400985

# Mesh 'defaultobject' with 16 faces
g defaultobject
usemtl DefaultMaterial
f  1//1 2//1 3//1
f  4//2 1//2 3//2
f  1//2 4//2 5//3
f  4//4 6//4 5//4
f  4//5 2//5 6//5
f  2//5 4//5 3//5
f  7//6 8//6 9//6
f  8//6 7//6 10//7
f  9//8 1//8 7//8
f  1//8 9//8 2//9
f  1//10 10//10 7//10
f  10//10 1//10 5//11
f  5//12 8//12 10//12
f  8//12 5//12 6//13
f  8//14 2//14 9//14
f  2//14 8//14 6//14

