# {"id":"BLDG_0003000f0041312d","idOriginal":"BLDG_0003000f0041312d","origin":[13.37595097317496,52.52833620311526],"elevation":33.6399993896484}
# Longitude: 13.37595097317496
# Latitude: 52.52833620311526
# Elevation: 33.6399993896484

# File produced by Open Asset Import Library (http://www.assimp.sf.net)
# (assimp v3.1.0)

mtllib BLDG_0003000f0041312d.obj.mtl

# 113 vertex positions
v  9.41634 23.6295 11.335
v  15.5411 20.9441 15.4274
v  12.9448 20.9441 9.71306
v  12.0514 23.6295 17.1346
v  14.0598 23.6295 21.555
v  17.5495 20.9441 19.8478
v  13.0556 23.6295 19.3448
v  10.57 20.9441 23.2623
v  8.56161 20.9441 18.8419
v  16.5453 23.6295 17.6375
v  10.57 20.94 23.2623
v  20 23.63 34.629
v  14.0598 23.63 21.555
v  16.5102 20.94 36.3363
v  23.4897 20.94 32.9218
v  17.5495 20.94 19.8478
v  22.1739 23.63 39.4137
v  25.6637 23.63 37.7064
v  27.8375 20.94 42.4912
v  20.8581 20.94 45.9057
v  23.5244 21.5 32.6396
v  27.8761 21.5 44.7675
v  29.5445 27.41 36.9605
v  41.1174 27.41 31.7137
v  42.7855 21.5 23.9071
v  47.1372 21.5 36.035
v  30.1514 28.21 -6.02886
v  38.2945 22.7 -1.94
v  32.2318 22.7 -14.8171
v  31.3659 22.7 1.24502
v  28.3347 28.21 -5.19373
v  25.3032 22.7 -11.6321
v  33.8304 22.2238 6.47981
v  38.2945 23.7243 -1.94003
v  31.3659 22.2238 1.24504
v  40.6808 23.7243 3.12842
v  42.7483 22.2238 7.51992
v  34.8642 23.7243 8.67549
v  35.8979 22.2238 10.8713
v  41.7145 23.7243 5.32415
v  48.8634 23.7243 20.5083
v  42.7483 23.7243 7.51987
v  42.013 22.2238 23.8597
v  49.5322 26.7365 21.9286
v  42.0131 25.8348 23.8596
v  42.6818 26.7365 25.28
v  48.8634 25.8348 20.5083
v  51.4444 27.0798 25.9903
v  44.5941 27.0798 29.3416
v  53.3392 25.8348 30.015
v  46.4889 25.8348 33.3664
v  25.3032 22.7002 -11.6321
v  26.6943 28.2069 -4.43968
v  28.3347 28.2069 -5.19373
v  23.6629 22.7002 -10.8781
v  29.7255 22.7002 1.99907
v  31.3659 22.7002 1.24502
v  11.2967 28.2069 2.63847
v  8.35287 22.7002 -3.84022
v  14.2402 22.7002 9.11751
v  7.05744 22.7002 -3.24473
v  10.0012 28.2069 3.23396
v  12.9448 22.7002 9.713
v  32.2086 22.22 7.27323
v  34.2762 22.22 11.6647
v  34.8642 23.72 8.67549
v  33.8304 22.22 6.47981
v  35.8979 22.22 10.8713
v  18.8307 20.9441 19.221
v  16.8223 20.9441 14.8006
v  8.18451 28.2069 4.06909
v  0.000484213 22.7002 -0.00071822
v  5.88785 22.7002 12.957
v  5.88781 20.9441 12.9571
v  31.3654 -7.62797e-17 1.24574
v  29.7251 -1.22452e-16 1.99979
v  23.6624 6.66047e-16 -10.8774
v  8.35238 2.35102e-16 -3.83951
v  14.2397 -5.5833e-16 9.11822
v  7.05695 1.98638e-16 -3.24401
v  12.9443 -5.94794e-16 9.71372
v  32.2082 -4.454e-16 7.27393
v  34.2757 -7.14299e-16 11.6654
v  33.8299 -3.96817e-16 6.48051
v  35.8975 -6.65716e-16 10.872
v  16.8218 -9.06317e-16 14.8013
v  18.8303 -1.17699e-15 19.2217
v  17.549 -1.21537e-15 19.8485
v  23.4892 -2.01592e-15 32.9225
v  27.8371 -2.60188e-15 42.4918
v  20.8576 -2.81095e-15 45.9064
v  16.5098 -2.225e-15 36.337
v  23.5239 0.75 32.6402
v  27.8757 0.75 44.7681
v  42.7851 0.75 23.9078
v  47.1368 0.75 36.0357
v  32.2314 9.07245e-16 -14.8164
v  38.294 1.18747e-16 -1.93928
v  33.5648 22.7 0.2342
v  25.3027 7.12219e-16 -11.6314
v  40.6803 -1.91606e-16 3.12917
v  15.5406 -9.44698e-16 15.4281
v  0 0 0
v  5.88736 -7.93432e-16 12.9577
v  8.19528 22.7002 11.8963
v  10.6374 22.7002 10.7737
v  8.56116 -1.15378e-15 18.8426
v  10.5696 -1.42445e-15 23.263
v  42.7478 -4.60505e-16 7.52062
v  48.8628 -1.25582e-15 20.5091
v  42.0125 -1.46103e-15 23.8604
v  46.4884 -2.04315e-15 33.3672
v  53.3387 -1.83794e-15 30.0159

# 0 UV coordinates

# 150 vertex normals
vn 0.517834 0.822491 -0.235279
vn 0.517834 0.822492 -0.235278
vn 0.517834 0.822491 -0.235278
vn -0.517818 0.822503 0.235271
vn -0.517818 0.822503 0.235271
vn -0.326056 0.670445 -0.666477
vn 0.32605 0.67046 0.666464
vn -0.518415 0.82205 0.235542
vn -0.518415 0.82205 0.235542
vn 0.51843 0.822038 -0.23555
vn -0.200297 0.890089 -0.409417
vn 0.200294 0.890093 0.409411
vn -0.518415 0.82205 0.235542
vn -0.518415 0.82205 0.235543
vn -0.766801 0.579924 0.275144
vn -0.279633 0.735788 -0.616783
vn -0.279633 0.735788 -0.616783
vn 0.766823 0.579891 -0.275152
vn 0.279627 0.7358 0.616771
vn 0.279627 0.7358 0.616771
vn 0.633067 0.714417 -0.298052
vn 0.255706 0.79069 0.556258
vn 0.255706 0.79069 0.556258
vn -0.255711 0.790681 -0.556269
vn -0.255711 0.790681 -0.556269
vn -0.174687 0.981183 0.082244
vn -0.174687 0.981183 0.082244
vn 0.231121 0.850529 0.472423
vn 0.231121 0.850529 0.472423
vn -0.231125 0.850523 -0.472431
vn -0.174688 0.981183 0.0822439
vn -0.174687 0.981183 0.082244
vn -0.174687 0.981183 0.082244
vn -0.218891 0.867121 -0.447424
vn -0.218891 0.867121 -0.447424
vn -0.0335163 0.997087 -0.0685091
vn -0.0335163 0.997087 -0.0685091
vn 0.118457 0.962985 0.242132
vn 0.118457 0.962985 0.242132
vn -0.255615 0.79086 -0.556059
vn 0.25561 0.790869 0.556049
vn -0.255615 0.79086 -0.55606
vn -0.255615 0.79086 -0.556059
vn 0.25561 0.790869 0.556049
vn 0.25561 0.790869 0.556049
vn -0.255615 0.79086 -0.556059
vn 0.25561 0.790869 0.556049
vn -0.578193 0.769149 0.272217
vn -0.231065 0.850608 -0.472309
vn 0.231061 0.850613 0.472301
vn 0.80414 0.468903 -0.365362
vn 0.51843 0.822038 -0.23555
vn 0.326051 0.67046 0.666464
vn -0.628712 0.723271 0.285656
vn -0.255615 0.79086 -0.556059
vn 0.25561 0.790869 0.556049
vn -0.517818 0.822503 0.235271
vn 0.417673 1.98354e-05 0.908597
vn 0.417673 1.98296e-05 0.908597
vn -0.417673 -1.98294e-05 -0.908597
vn 0.417673 1.98386e-05 0.908597
vn -0.417673 -1.98294e-05 -0.908597
vn 0.417673 1.98291e-05 0.908598
vn -0.904743 3.28894e-05 0.425959
vn -0.904743 3.28986e-05 0.425959
vn -0.439453 -1.90024e-05 -0.898266
vn -0.439453 -1.90779e-05 -0.898265
vn 0.439452 1.89819e-05 0.898266
vn 0.439453 1.90592e-05 0.898265
vn 0.910433 -3.25054e-05 -0.413656
vn 0.910433 -3.25711e-05 -0.413656
vn 0.439452 1.89811e-05 0.898266
vn 0.439454 1.91028e-05 0.898265
vn 0.910433 -3.25014e-05 -0.413656
vn 0.910433 -3.25775e-05 -0.413656
vn 0.910433 -3.25173e-05 -0.413656
vn 0.910433 -3.26002e-05 -0.413657
vn 0.910433 -3.22456e-05 -0.413657
vn 0.439453 1.91083e-05 0.898265
vn 0.439453 1.90614e-05 0.898266
vn -0.910433 3.25173e-05 0.413657
vn -0.910433 3.24419e-05 0.413657
vn -0.94124 3.07519e-05 0.337737
vn -0.94124 3.08384e-05 0.337737
vn -0.412918 -1.99554e-05 -0.910768
vn -0.412918 -1.99934e-05 -0.910768
vn 0.94124 -3.07471e-05 -0.337737
vn 0.412918 1.99938e-05 0.910768
vn 0.904743 -3.27762e-05 -0.425959
vn -0.417673 -1.86206e-05 -0.908597
vn -0.417673 -1.98295e-05 -0.908597
vn 0.904743 -3.28282e-05 -0.425958
vn 0.904742 -3.26775e-05 -0.425959
vn -0.904743 3.27377e-05 0.425959
vn -0.904743 3.27331e-05 0.425959
vn 0.417673 2.09262e-05 0.908597
vn -0.439453 -1.9042e-05 -0.898265
vn -0.439453 -1.9022e-05 -0.898266
vn -0.910433 3.25164e-05 0.413656
vn -0.910433 3.25081e-05 0.413656
vn -0.417673 -1.98382e-05 -0.908597
vn -0.417673 -1.96589e-05 -0.908597
vn -0.417673 -2.02657e-05 -0.908597
vn -0.910433 3.25524e-05 0.413656
vn -0.910433 3.25128e-05 0.413656
vn 0.417673 1.96876e-05 0.908597
vn 0.910433 -3.253e-05 -0.413656
vn 0.910433 -3.25155e-05 -0.413657
vn -0.910433 3.25524e-05 0.413656
vn -0.910433 3.25173e-05 0.413656
vn 0.904743 -3.28239e-05 -0.425959
vn 0.904743 -3.27377e-05 -0.425958
vn 0.904743 -3.19492e-05 -0.425958
vn 0.904743 -3.27948e-05 -0.425959
vn 0.904743 -3.28396e-05 -0.425959
vn -0.904743 3.27103e-05 0.425959
vn -0.904743 3.27285e-05 0.425959
vn -0.439453 -1.82047e-05 -0.898265
vn -0.904743 3.2697e-05 0.425959
vn -0.904743 3.28306e-05 0.425959
vn -0.904743 3.29488e-05 0.425959
vn -0.904742 2.81972e-05 0.425959
vn -0.439453 -1.87191e-05 -0.898265
vn -0.439453 -1.88819e-05 -0.898265
vn 0.904743 -3.28306e-05 -0.425959
vn 0.904743 -3.2697e-05 -0.425959
vn 0.904743 -3.46245e-05 -0.425959
vn 0.904743 -3.29647e-05 -0.425958
vn 0.439453 1.90425e-05 0.898266
vn -0.417673 -1.98294e-05 -0.908597
vn 0 -1 -6.12323e-17
vn -1.20833e-23 -1 -6.12323e-17
vn 0 -1 -6.12323e-17
vn 6.11816e-23 -1 -6.12324e-17
vn -7.66263e-24 -1 -6.12323e-17
vn 2.10901e-24 -1 -6.12323e-17
vn -1.40387e-23 -1 -6.12323e-17
vn -7.59448e-24 -1 -6.12323e-17
vn -5.18792e-24 -1 -6.12323e-17
vn -5.18792e-24 -1 -6.12323e-17
vn 0 -1 0
vn 1.95114e-24 -1 -6.12323e-17
vn -5.85341e-24 -1 -6.12323e-17
vn -2.47858e-24 -1 -6.12323e-17
vn -2.86068e-24 -1 -6.12323e-17
vn 0 -1 -6.12324e-17
vn -7.73767e-24 -1 -6.12323e-17
vn -1.58572e-23 -1 -6.12323e-17
vn 3.70865e-23 -1 -6.12324e-17
vn 0 -1 -6.12323e-17

# Mesh 'defaultobject' with 187 faces
g defaultobject
usemtl DefaultMaterial
f  1//1 2//1 3//1
f  2//1 1//1 4//2
f  5//3 6//3 7//3
f  7//4 8//4 5//4
f  8//4 7//4 4//5
f  8//4 4//5 9//4
f  7//3 2//1 4//2
f  7//6 10//6 2//6
f  7//7 6//7 10//7
f  11//8 12//8 13//8
f  12//8 11//8 14//9
f  13//10 15//10 16//10
f  15//10 13//10 12//10
f  15//11 17//11 18//11
f  17//12 19//12 18//12
f  19//12 17//12 20//12
f  14//9 17//13 12//8
f  17//13 14//9 20//14
f  21//15 22//15 23//15
f  24//16 21//16 23//16
f  21//16 24//16 25//17
f  24//18 26//18 25//18
f  24//19 22//19 26//19
f  22//19 24//19 23//20
f  27//21 28//21 29//21
f  30//22 27//22 31//22
f  27//22 30//22 28//23
f  31//24 29//24 32//24
f  29//24 31//24 27//25
f  33//26 34//26 35//26
f  34//26 33//26 36//27
f  37//28 38//28 39//28
f  38//28 37//28 40//29
f  38//30 40//30 33//30
f  40//31 36//27 33//26
f  39//32 41//32 42//32
f  41//32 39//32 43//33
f  44//34 45//34 46//34
f  45//34 44//34 47//35
f  48//36 46//36 49//36
f  46//36 48//36 44//37
f  50//38 49//38 51//38
f  49//38 50//38 48//39
f  52//40 53//40 54//40
f  53//40 52//40 55//40
f  54//41 56//41 57//41
f  56//41 54//41 53//41
f  55//40 58//42 53//40
f  58//42 55//40 59//43
f  53//41 60//44 56//41
f  60//44 53//41 58//45
f  58//42 61//46 62//46
f  61//46 58//42 59//43
f  60//44 62//47 63//47
f  62//47 60//44 58//45
f  64//48 65//48 66//48
f  67//49 64//49 66//49
f  66//50 65//50 68//50
f  10//51 69//51 70//51
f  17//52 15//10 12//10
f  6//7 69//53 10//7
f  10//6 70//6 2//6
f  71//54 72//54 73//54
f  62//46 72//55 71//55
f  72//55 62//46 61//46
f  63//47 71//56 73//56
f  71//56 63//47 62//47
f  74//57 4//5 1//57
f  4//5 74//57 9//4
f  75//58 56//58 76//58
f  56//58 75//58 57//59
f  59//60 77//60 78//60
f  77//60 59//60 55//60
f  76//58 60//61 79//61
f  60//61 76//58 56//58
f  61//62 78//60 80//62
f  78//60 61//62 59//60
f  79//61 63//63 81//63
f  63//63 79//61 60//61
f  65//64 82//64 83//64
f  82//64 65//64 64//65
f  64//66 84//66 82//66
f  84//66 64//66 67//67
f  85//68 65//68 83//68
f  65//68 85//68 68//69
f  86//70 69//70 87//70
f  69//70 86//70 70//71
f  87//72 6//72 88//72
f  6//72 87//72 69//73
f  88//74 15//74 89//74
f  15//74 88//74 16//75
f  15//74 90//76 89//74
f  90//76 15//74 19//77
f  19//77 15//74 18//78
f  90//79 20//79 91//79
f  20//79 90//79 19//80
f  20//81 92//81 91//81
f  92//81 20//81 14//82
f  22//83 93//83 94//83
f  93//83 22//83 21//84
f  21//85 95//85 93//85
f  95//85 21//85 25//86
f  95//87 26//87 96//87
f  26//87 95//87 25//87
f  96//88 22//88 94//88
f  22//88 96//88 26//88
f  97//89 28//89 98//89
f  28//89 97//89 29//89
f  30//90 99//90 35//90
f  32//91 97//91 100//91
f  97//91 32//91 29//91
f  98//89 36//92 101//92
f  36//92 98//89 34//93
f  33//94 75//94 84//94
f  75//94 33//94 35//95
f  99//96 28//96 34//96
f  2//97 86//97 102//97
f  86//97 2//97 70//98
f  73//99 103//99 104//99
f  103//99 73//99 72//100
f  72//101 80//62 103//101
f  80//62 72//101 61//62
f  73//102 105//102 74//102
f  3//103 106//103 63//103
f  9//104 104//99 107//104
f  104//99 9//104 74//105
f  1//106 105//106 106//106
f  81//107 2//107 102//107
f  2//107 81//107 3//108
f  8//109 107//104 108//109
f  107//104 8//109 9//104
f  14//82 108//109 92//81
f  108//109 14//82 11//110
f  36//92 109//111 101//92
f  109//111 36//92 37//112
f  37//112 36//92 40//113
f  109//111 41//114 110//114
f  41//114 109//111 42//115
f  43//116 85//116 111//116
f  85//116 43//116 39//117
f  42//118 37//118 39//118
f  51//119 111//116 112//119
f  111//116 51//119 45//120
f  45//120 51//119 49//121
f  45//120 49//121 46//122
f  45//123 41//123 43//123
f  41//123 45//123 47//124
f  47//125 113//125 110//114
f  113//125 47//125 50//126
f  50//126 47//125 44//127
f  50//126 44//127 48//128
f  113//129 51//129 112//129
f  51//129 113//129 50//129
f  55//60 100//91 77//60
f  100//91 55//60 52//130
f  82//131 85//131 83//131
f  85//131 82//131 84//132
f  87//133 102//133 86//133
f  102//133 87//133 88//134
f  103//135 81//135 104//135
f  81//135 103//135 80//133
f  104//135 102//133 107//136
f  102//133 104//135 81//135
f  107//136 88//134 108//137
f  88//134 107//136 102//133
f  108//137 89//138 92//138
f  89//138 108//137 88//134
f  90//139 92//138 89//138
f  92//138 90//139 91//140
f  93//141 96//141 94//141
f  96//141 93//141 95//141
f  75//142 97//142 98//142
f  97//142 75//142 100//143
f  101//144 75//142 98//142
f  75//142 101//144 84//132
f  109//145 84//132 101//144
f  84//132 109//145 85//131
f  110//146 85//131 109//145
f  85//131 110//146 111//147
f  111//147 113//148 112//148
f  113//148 111//147 110//146
f  100//143 76//149 77//149
f  76//149 100//143 75//142
f  78//150 76//149 79//150
f  76//149 78//150 77//149
f  80//133 79//150 81//135
f  79//150 80//133 78//150

