# {"id":"BLDG_00030000001906ac","idOriginal":"BLDG_00030000001906ac","origin":[13.396948515195824,52.53740787209877],"elevation":46.0999984741211}
# Longitude: 13.396948515195824
# Latitude: 52.53740787209877
# Elevation: 46.0999984741211

# File produced by Open Asset Import Library (http://www.assimp.sf.net)
# (assimp v3.1.0)

mtllib BLDG_00030000001906ac.obj.mtl

# 21 vertex positions
v  30.9001 6.30994e-16 -10.3049
v  11.3407 3.5787e-16 -5.84446
v  28.722 9.06356e-16 -14.8019
v  13.3381 7.68048e-17 -1.25432
v  0 0 0
v  1.99736 -2.81065e-16 4.59015
v  18.7496 -6.84691e-16 11.1819
v  7.5425 -1.06137e-15 17.3334
v  30.9005 20.3386 -10.3056
v  11.3412 20.3386 -5.84511
v  13.3385 20.3386 -1.25496
v  28.7224 20.3386 -14.8026
v  0.000458866 21.4827 -0.00068009
v  7.66824 23.898 1.66716
v  5.67088 23.898 -2.92299
v  1.99782 21.4827 4.58947
v  13.3386 21.4827 -1.255
v  11.3412 21.4827 -5.84515
v  13.1466 23.898 14.2569
v  7.54295 21.4827 17.3328
v  18.75 21.4827 11.1812

# 0 UV coordinates

# 29 vertex normals
vn 0 -1 -6.12323e-17
vn -1.07285e-24 -1 -6.12323e-17
vn 0 -1 -6.12323e-17
vn 0 -1 -6.12323e-17
vn 0 1 0
vn -0.325292 0.93496 0.141548
vn -0.325292 0.93496 0.141548
vn 0.325299 0.934957 -0.141551
vn 0.325299 0.934957 -0.141551
vn -0.325292 0.93496 0.141548
vn -0.325292 0.93496 0.141548
vn 0.325299 0.934957 -0.141551
vn 0.325299 0.934957 -0.141551
vn -0.458097 -1.83556e-05 -0.888902
vn -0.458097 -1.83735e-05 -0.888902
vn -0.458097 -1.8198e-05 -0.888902
vn 0.91695 -3.18033e-05 -0.399003
vn 0.481179 1.74509e-05 0.876622
vn 0.481179 1.74333e-05 0.876622
vn 0.481179 1.779e-05 0.876622
vn -0.91695 3.2191e-05 0.399003
vn -0.91695 3.22138e-05 0.399002
vn 0.91695 -3.22342e-05 -0.399002
vn -0.458097 -1.83603e-05 -0.888902
vn -0.458097 -1.83394e-05 -0.888902
vn 0.899995 -3.30416e-05 -0.435901
vn 0.458097 1.83412e-05 0.888902
vn -0.91695 3.22138e-05 0.399003
vn -0.91695 3.22172e-05 0.399003

# Mesh 'defaultobject' with 36 faces
g defaultobject
usemtl DefaultMaterial
f  1//1 2//1 3//1
f  2//1 1//1 4//2
f  5//3 4//2 6//3
f  4//2 5//3 2//1
f  6//3 7//4 8//4
f  7//4 6//3 4//2
f  9//5 10//5 11//5
f  10//5 9//5 12//5
f  13//6 14//6 15//6
f  14//6 13//6 16//7
f  15//8 17//8 18//8
f  17//8 15//8 14//9
f  16//7 19//10 14//6
f  19//10 16//7 20//11
f  14//9 21//12 17//8
f  21//12 14//9 19//13
f  13//14 2//14 5//14
f  2//14 13//14 18//15
f  18//15 13//14 15//16
f  10//17 17//17 11//17
f  17//17 10//17 18//17
f  21//18 8//18 7//18
f  8//18 21//18 20//19
f  20//19 21//18 19//20
f  20//21 6//21 8//21
f  6//21 20//21 16//22
f  4//23 21//23 7//23
f  21//23 4//23 17//17
f  10//24 3//24 2//14
f  3//24 10//24 12//25
f  3//26 9//26 1//26
f  9//26 3//26 12//26
f  1//27 11//27 4//27
f  11//27 1//27 9//27
f  16//22 5//28 6//21
f  5//28 16//22 13//29

