# {"id":"BLDG_00030009004849d6","idOriginal":"BLDG_00030009004849d6","origin":[13.363202166731853,52.54580127020563],"elevation":34.6599998474121}
# Longitude: 13.363202166731853
# Latitude: 52.54580127020563
# Elevation: 34.6599998474121

# File produced by Open Asset Import Library (http://www.assimp.sf.net)
# (assimp v3.1.0)

mtllib BLDG_00030009004849d6.obj.mtl

# 86 vertex positions
v  11.2966 16.9396 -6.00105
v  12.8622 16.9396 -3.60644
v  11.5309 16.9396 -6.12559
v  14.8876 16.9396 0.226849
v  3.35183 16.9396 6.33477
v  10.4131 16.9396 -5.53191
v  6.21691 16.9396 -3.30195
v  5.3328 16.9396 -2.83282
v  1.11876 16.9396 -0.594211
v  0.234646 16.9396 -0.125043
v  0.000361057 16.9396 -0.00053659
v  1.6269 16.9396 3.07419
v  13.4368 16.9396 -3.9105
v  15.9038 16.9396 -0.311169
v  14.1109 16.9396 -3.70367
v  16.0443 16.9396 -0.0451786
v  15.8497 16.9396 0.655066
v  15.2575 16.9396 0.926785
v  15.9061 18.8508 2.15494
v  13.4367 18.8508 4.3587
v  16.2763 18.8508 2.85599
v  15.2575 18.8508 0.926724
v  14.8877 18.8508 0.226789
v  12.0452 18.8508 1.73179
v  12.0453 19.908 1.73176
v  4.82055 19.908 8.91842
v  13.4367 19.908 4.35867
v  3.35189 19.908 6.33467
v  3.72439 19.908 9.49852
v  2.33464 19.908 6.87328
v  8.43876 17.0366 15.2489
v  4.82049 17.0366 8.91851
v  8.16318 17.0366 15.4266
v  9.74578 17.0366 14.5888
v  16.2762 17.0366 2.85605
v  18.3113 17.0366 6.70646
v  19.6551 17.0366 9.24683
v  18.8859 17.0366 6.40339
v  19.1182 17.0366 5.77287
v  15.906 17.0366 2.155
v  16.5025 17.0366 1.88939
v  17.2925 17.0366 2.31823
v  17.1618 17.0366 2.07092
v  0.234285 7.62381e-18 -0.124506
v  1.62654 -1.88273e-16 3.07473
v  0 0 0
v  1.11839 3.63521e-17 -0.593674
v  5.33244 1.73428e-16 -2.83229
v  6.21655 2.02154e-16 -3.30142
v  10.4127 3.38699e-16 -5.53137
v  11.2962 3.67425e-16 -6.00051
v  11.5305 3.75051e-16 -6.12506
v  12.8619 2.20798e-16 -3.6059
v  3.35147 -3.87925e-16 6.3353
v  13.4365 2.39416e-16 -3.90996
v  14.1106 2.26751e-16 -3.70313
v  14.8873 -1.39234e-17 0.227386
v  15.9034 1.90208e-17 -0.310632
v  15.2571 -5.6782e-17 0.927321
v  16.044 2.73354e-18 -0.044642
v  15.8494 -4.01441e-17 0.655603
v  15.2571 1.74 0.927266
v  12.0449 1.74 1.73233
v  14.8873 1.74 0.227331
v  13.4364 1.74 4.35924
v  15.9057 1.74 2.15549
v  16.2759 1.74 2.85653
v  13.4364 1.41 4.35925
v  3.3515 1.41 6.33526
v  12.0449 1.41 1.73234
v  4.82016 1.41 8.91901
v  2.33424 1.41 6.87387
v  3.72399 1.41 9.49911
v  4.82017 1.82 8.91899
v  8.43843 1.82 15.2494
v  8.16285 1.82 15.4271
v  9.74545 1.82 14.5893
v  19.6547 1.82 9.24731
v  18.311 1.82 6.70694
v  16.2759 1.82 2.85653
v  18.8855 1.82 6.40387
v  19.1179 1.82 5.77335
v  17.2922 1.82 2.31871
v  15.9057 1.82 2.15548
v  16.5022 1.82 1.88987
v  17.1615 1.82 2.0714

# 0 UV coordinates

# 86 vertex normals
vn -0 1 0
vn -1.79261e-24 -1 -6.12323e-17
vn -1.52052e-23 -1 -6.12323e-17
vn 6.37966e-24 -1 -6.12323e-17
vn 0 -1 -6.12323e-17
vn 0 -1 -6.12323e-17
vn 0 -1 -6.12324e-17
vn 0 -1 -6.12324e-17
vn 1.13855e-23 -1 -6.12323e-17
vn 2.19862e-24 -1 -6.12323e-17
vn 1.5016e-22 -1 -6.12324e-17
vn 0 -1 -6.12323e-17
vn -2.99987e-24 -1 -6.12323e-17
vn 3.63514e-24 -1 -6.12323e-17
vn -1.82867e-23 -1 -6.12323e-17
vn -0 -1 0
vn -0.469388 -1.79471e-05 -0.882992
vn -0.469389 -1.79735e-05 -0.882992
vn -0.468986 -1.79873e-05 -0.883206
vn -0.468985 -1.79625e-05 -0.883206
vn -0.469275 -1.79646e-05 -0.883052
vn -0.469275 -1.79763e-05 -0.883052
vn -0.468725 -1.79856e-05 -0.883344
vn -0.469139 -1.79758e-05 -0.883124
vn -0.469139 -1.79698e-05 -0.883124
vn -0.468754 -1.79894e-05 -0.883329
vn -0.468754 -1.79905e-05 -0.883329
vn -0.469279 -1.79697e-05 -0.88305
vn -0.469279 -1.79694e-05 -0.88305
vn -0.883937 3.36629e-05 0.467605
vn -0.883937 3.36528e-05 0.467605
vn -0.883929 3.36698e-05 0.467621
vn -0.883929 3.36633e-05 0.467621
vn 0.467931 1.80114e-05 0.883765
vn -0.884165 3.36152e-05 0.467175
vn -0.884165 3.36641e-05 0.467174
vn 0.416977 1.99195e-05 0.908917
vn 0.416977 1.99168e-05 0.908917
vn 0.963492 -1.20237e-05 0.267738
vn 0.963491 -1.21315e-05 0.26774
vn 0.884134 -3.37153e-05 -0.467234
vn 0.884131 -3.36158e-05 -0.467239
vn 0.884132 -3.36213e-05 -0.467237
vn 0.293321 -3.65471e-05 -0.956014
vn 0.293322 -3.65306e-05 -0.956014
vn -0.467723 -1.8037e-05 -0.883875
vn -0.467723 -1.80231e-05 -0.883875
vn 0.884124 -3.36094e-05 -0.467252
vn 0.884165 -3.36735e-05 -0.467174
vn -0.467931 -1.80337e-05 -0.883765
vn -0.467931 -1.8006e-05 -0.883765
vn -0.88368 3.36329e-05 0.468091
vn -0.88368 3.36427e-05 0.468091
vn 0.467747 1.80252e-05 0.883863
vn 0.467747 1.80339e-05 0.883862
vn 0.884282 -3.36157e-05 -0.466953
vn 0.884282 -3.36223e-05 -0.466953
vn 0.884282 -3.36219e-05 -0.466954
vn 0.884282 -3.36671e-05 -0.466953
vn 0.88368 -3.36455e-05 -0.468091
vn -0.467931 -1.8023e-05 -0.883765
vn -0.467931 -1.80294e-05 -0.883765
vn -0.467932 -1.8029e-05 -0.883765
vn -0.883799 3.36514e-05 0.467867
vn -0.883799 3.36521e-05 0.467867
vn 0.467747 1.80078e-05 0.883863
vn 0.467747 1.80237e-05 0.883863
vn 0.467747 1.80449e-05 0.883863
vn 0.450798 1.86459e-05 0.892626
vn 0.474528 1.77485e-05 0.88024
vn 0.474528 1.77484e-05 0.88024
vn 0.883952 -3.37751e-05 -0.467578
vn 0.883951 -3.36497e-05 -0.467579
vn 0.466541 1.80809e-05 0.884499
vn 0.938332 -9.04128e-06 0.345735
vn 0.884131 -3.36433e-05 -0.467238
vn 0.884131 -3.36433e-05 -0.467239
vn 0.265439 -3.62011e-05 -0.964128
vn -0.406813 -2.02726e-05 -0.913511
vn -0.884282 3.36369e-05 0.466954
vn -0.467747 -1.80071e-05 -0.883863
vn -0.467747 -1.80348e-05 -0.883863
vn -0.889529 3.34438e-05 0.456878
vn -0.889529 3.34152e-05 0.456878
vn 0.541996 1.51017e-05 0.840381
vn 0.541994 1.50495e-05 0.840382

# Mesh 'defaultobject' with 156 faces
g defaultobject
usemtl DefaultMaterial
f  1//1 2//1 3//1
f  2//1 1//1 4//1
f  4//1 1//1 5//1
f  5//1 1//1 6//1
f  5//1 6//1 7//1
f  5//1 7//1 8//1
f  5//1 8//1 9//1
f  5//1 9//1 10//1
f  5//1 10//1 11//1
f  5//1 11//1 12//1
f  13//1 14//1 15//1
f  14//1 13//1 16//1
f  16//1 13//1 17//1
f  17//1 13//1 2//1
f  17//1 2//1 18//1
f  18//1 2//1 4//1
f  19//1 20//1 21//1
f  20//1 19//1 22//1
f  20//1 22//1 23//1
f  20//1 23//1 24//1
f  25//1 26//1 27//1
f  26//1 25//1 28//1
f  26//1 28//1 29//1
f  29//1 28//1 30//1
f  31//1 32//1 33//1
f  32//1 31//1 34//1
f  32//1 34//1 35//1
f  35//1 34//1 36//1
f  36//1 34//1 37//1
f  35//1 36//1 38//1
f  35//1 38//1 39//1
f  35//1 39//1 40//1
f  40//1 39//1 41//1
f  41//1 39//1 42//1
f  41//1 42//1 43//1
f  44//2 45//2 46//2
f  45//2 44//2 47//3
f  45//2 47//3 48//4
f  45//2 48//4 49//5
f  45//2 49//5 50//6
f  45//2 50//6 51//7
f  45//2 51//7 52//8
f  45//2 52//8 53//9
f  45//2 53//9 54//10
f  54//10 53//9 55//11
f  54//10 55//11 56//7
f  54//10 56//7 57//12
f  57//12 56//7 58//13
f  57//12 58//13 59//14
f  59//14 58//13 60//6
f  59//14 60//6 61//15
f  62//16 63//16 64//16
f  63//16 62//16 65//16
f  65//16 62//16 66//16
f  65//16 66//16 67//16
f  68//16 69//16 70//16
f  69//16 68//16 71//16
f  69//16 71//16 72//16
f  72//16 71//16 73//16
f  74//16 75//16 76//16
f  75//16 74//16 77//16
f  77//16 74//16 78//16
f  78//16 74//16 79//16
f  79//16 74//16 80//16
f  79//16 80//16 81//16
f  81//16 80//16 82//16
f  82//16 80//16 83//16
f  83//16 80//16 84//16
f  83//16 84//16 85//16
f  83//16 85//16 86//16
f  1//17 52//17 51//17
f  52//17 1//17 3//18
f  6//19 51//19 50//19
f  51//19 6//19 1//20
f  7//21 50//21 49//21
f  50//21 7//21 6//22
f  8//23 49//23 48//23
f  49//23 8//23 7//23
f  9//24 48//24 47//24
f  48//24 9//24 8//25
f  10//26 47//26 44//26
f  47//26 10//26 9//27
f  11//28 44//28 46//28
f  44//28 11//28 10//29
f  12//30 46//30 45//30
f  46//30 12//30 11//31
f  5//32 45//32 54//32
f  45//32 5//32 12//33
f  57//34 5//34 54//34
f  5//34 57//34 4//34
f  18//35 57//35 59//35
f  57//35 18//35 4//36
f  61//37 18//37 59//37
f  18//37 61//37 17//38
f  60//39 17//39 61//39
f  17//39 60//39 16//40
f  58//41 16//41 60//41
f  16//41 58//41 14//42
f  56//43 14//42 58//41
f  14//42 56//43 15//43
f  13//44 56//44 55//44
f  56//44 13//44 15//45
f  2//46 55//46 53//46
f  55//46 2//46 13//47
f  52//48 2//48 53//48
f  2//48 52//48 3//48
f  64//49 22//49 62//49
f  22//49 64//49 23//49
f  24//50 64//50 63//50
f  64//50 24//50 23//51
f  20//52 63//52 65//52
f  63//52 20//52 24//53
f  67//54 20//54 65//54
f  20//54 67//54 21//55
f  66//56 21//56 67//56
f  21//56 66//56 19//57
f  62//58 19//57 66//56
f  19//57 62//58 22//59
f  70//60 27//60 68//60
f  27//60 70//60 25//60
f  28//61 70//61 69//61
f  70//61 28//61 25//62
f  30//63 69//61 72//63
f  69//61 30//63 28//61
f  29//64 72//64 73//64
f  72//64 29//64 30//65
f  71//66 29//66 73//66
f  29//66 71//66 26//66
f  68//67 26//66 71//66
f  26//66 68//67 27//68
f  77//69 31//69 75//69
f  31//69 77//69 34//69
f  78//70 34//70 77//70
f  34//70 78//70 37//71
f  79//72 37//72 78//72
f  37//72 79//72 36//73
f  81//74 36//74 79//74
f  36//74 81//74 38//74
f  82//75 38//75 81//75
f  38//75 82//75 39//75
f  83//76 39//76 82//76
f  39//76 83//76 42//76
f  86//77 42//76 83//76
f  42//76 86//77 43//77
f  41//78 86//78 85//78
f  86//78 41//78 43//78
f  40//79 85//79 84//79
f  85//79 40//79 41//79
f  35//80 84//80 80//80
f  84//80 35//80 40//80
f  32//81 80//81 74//81
f  80//81 32//81 35//82
f  33//83 74//83 76//83
f  74//83 33//83 32//84
f  75//85 33//85 76//85
f  33//85 75//85 31//86

