# {"id":"BLDG_00030002002258e5","idOriginal":"BLDG_00030002002258e5","origin":[13.40723078330884,52.52774314388601],"elevation":36.6500015258789}
# Longitude: 13.40723078330884
# Latitude: 52.52774314388601
# Elevation: 36.6500015258789

# File produced by Open Asset Import Library (http://www.assimp.sf.net)
# (assimp v3.1.0)

mtllib BLDG_00030002002258e5.obj.mtl

# 8 vertex positions
v  29.8176 3.55691 0.631889
v  7.6023e-05 3.55691 -0.00011253
v  25.3093 3.55691 11.288
v  4.5854 3.55691 -10.4442
v  25.3092 -6.91197e-16 11.2881
v  0 0 0
v  29.8175 -3.86989e-17 0.632001
v  4.58533 6.39516e-16 -10.4441

# 0 UV coordinates

# 9 vertex normals
vn 0 1 0
vn -0.407331 3.74618e-05 0.913281
vn 0.920968 -7.4152e-06 0.389639
vn 0.401946 -3.75374e-05 -0.915663
vn 0.401946 -3.75913e-05 -0.915663
vn -0.91564 6.85227e-06 -0.401999
vn -0.91564 6.79884e-06 -0.401999
vn 8.25663e-26 -1 -6.12323e-17
vn 2.52643e-25 -1 -6.12323e-17

# Mesh 'defaultobject' with 12 faces
g defaultobject
usemtl DefaultMaterial
f  1//1 2//1 3//1
f  2//1 1//1 4//1
f  2//2 5//2 3//2
f  5//2 2//2 6//2
f  3//3 7//3 1//3
f  7//3 3//3 5//3
f  4//4 7//4 8//4
f  7//4 4//4 1//5
f  2//6 8//6 6//6
f  8//6 2//6 4//7
f  6//8 7//8 5//8
f  7//8 6//8 8//9

