# {"id":"BLDG_0003000800251dd6","idOriginal":"BLDG_0003000800251dd6","origin":[13.339483500441883,52.54848891159336],"elevation":35.060001373291}
# Longitude: 13.339483500441883
# Latitude: 52.54848891159336
# Elevation: 35.060001373291

# File produced by Open Asset Import Library (http://www.assimp.sf.net)
# (assimp v3.1.0)

mtllib BLDG_0003000800251dd6.obj.mtl

# 16 vertex positions
v  6.6691e-05 3.13359 -9.92799e-05
v  5.2923 3.083e-16 -5.03493
v  0 0 0
v  5.29236 3.05518 -5.03503
v  6.81519 3.94097 -3.40417
v  6.81511 2.08438e-16 -3.40405
v  7.07408 2.23808e-16 -3.65507
v  7.07416 3.93576 -3.65519
v  8.53111 4.81248 -1.9957
v  8.531 1.22192e-16 -1.99555
v  11.3862 3.09439 1.25648
v  11.3861 -7.69434e-17 1.25658
v  5.77241 3.09439 6.31528
v  5.77234 -3.86705e-16 6.31537
v  2.85286 -1.91121e-16 3.12124
v  2.85297 4.81248 3.12109

# 0 UV coordinates

# 25 vertex normals
vn -0.689271 -8.28461e-06 -0.724504
vn -0.689271 -8.32402e-06 -0.724504
vn 0.73091 -3.71449e-05 -0.682474
vn 0.73091 -3.71423e-05 -0.682474
vn -0.695997 -7.89774e-06 -0.718045
vn -0.695997 -7.90819e-06 -0.718045
vn 0.751488 -3.69716e-05 -0.659747
vn 0.751488 -3.69504e-05 -0.659747
vn 0.751488 -3.689e-05 -0.659747
vn 0.669432 9.29865e-06 0.742873
vn -0.738128 3.71131e-05 0.67466
vn -0.738129 3.7079e-05 0.67466
vn -0.738128 3.7079e-05 0.67466
vn -0.738129 3.70842e-05 0.67466
vn 0 -1 -6.12323e-17
vn 0 -1 -6.12323e-17
vn 0 -1 -6.12323e-17
vn 3.20117e-24 -1 -6.12323e-17
vn 0 -1 -6.12323e-17
vn 0.247034 0.929422 0.274135
vn 0.247034 0.929422 0.274135
vn -0.247035 0.929421 -0.274137
vn -0.247035 0.929421 -0.274137
vn -0.247035 0.929421 -0.274137
vn -0.247035 0.929421 -0.274137

# Mesh 'defaultobject' with 28 faces
g defaultobject
usemtl DefaultMaterial
f  1//1 2//1 3//1
f  2//1 1//1 4//2
f  2//3 5//3 6//3
f  5//3 2//3 4//4
f  5//5 7//5 6//5
f  7//5 5//5 8//6
f  7//7 9//7 10//7
f  9//7 7//7 8//8
f  10//7 11//9 12//9
f  11//9 10//7 9//7
f  12//10 13//10 14//10
f  13//10 12//10 11//10
f  13//11 15//11 14//11
f  15//11 13//11 16//12
f  16//12 3//13 15//11
f  3//13 16//12 1//14
f  2//15 15//15 3//15
f  15//15 2//15 6//16
f  15//15 6//16 7//17
f  15//15 7//17 10//16
f  15//15 10//16 14//18
f  14//18 10//16 12//19
f  13//20 9//20 16//20
f  9//20 13//20 11//21
f  16//22 4//22 1//22
f  4//22 16//22 5//23
f  5//23 16//22 9//24
f  5//23 9//24 8//25

