# {"id":"BLDG_0003000000169a92","idOriginal":"BLDG_0003000000169a92","origin":[13.371955607520606,52.534050123347306],"elevation":36.3899993896484}
# Longitude: 13.371955607520606
# Latitude: 52.534050123347306
# Elevation: 36.3899993896484

# File produced by Open Asset Import Library (http://www.assimp.sf.net)
# (assimp v3.1.0)

mtllib BLDG_0003000000169a92.obj.mtl

# 12 vertex positions
v  0 0 0
v  3.32458 -1.36687e-16 2.23228
v  1.63858 -1.9474e-16 3.18034
v  9.46235 3.14807e-16 -5.14118
v  12.3201 -4.45119e-18 0.0726935
v  4.39463 -2.61779e-16 4.27518
v  1.63865 3.46991 3.18023
v  7.3998e-05 3.46991 -0.00010983
v  3.32465 3.46991 2.23217
v  4.39471 3.46991 4.27507
v  12.3201 3.46991 0.0725836
v  9.46242 3.46991 -5.14129

# 0 UV coordinates

# 17 vertex normals
vn 7.65515e-24 -1 -6.12323e-17
vn 2.77063e-24 -1 -6.12323e-17
vn -1.99498e-24 -1 -6.12323e-17
vn 0 -1 -6.12323e-17
vn -0.88895 3.34108e-05 0.458005
vn -0.88895 3.34542e-05 0.458005
vn 0.490139 1.7104e-05 0.871644
vn 0.490139 1.71573e-05 0.871644
vn -0.885839 3.35338e-05 0.463993
vn -0.885839 3.35657e-05 0.463993
vn 0.468468 1.78924e-05 0.88348
vn 0.468468 1.78924e-05 0.88348
vn 0.876919 -3.40218e-05 -0.480638
vn 0.876919 -3.40681e-05 -0.480638
vn -0.477413 -1.76309e-05 -0.878679
vn -0.477413 -1.76583e-05 -0.878679
vn 0 1 0

# Mesh 'defaultobject' with 20 faces
g defaultobject
usemtl DefaultMaterial
f  1//1 2//1 3//1
f  2//1 1//1 4//2
f  2//1 4//2 5//3
f  5//3 6//4 2//1
f  7//5 1//5 3//5
f  1//5 7//5 8//6
f  2//7 7//7 3//7
f  7//7 2//7 9//8
f  10//9 2//9 6//9
f  2//9 10//9 9//10
f  5//11 10//11 6//11
f  10//11 5//11 11//12
f  4//13 11//13 5//13
f  11//13 4//13 12//14
f  8//15 4//15 1//15
f  4//15 8//15 12//16
f  7//17 12//17 8//17
f  12//17 7//17 9//17
f  12//17 9//17 10//17
f  12//17 10//17 11//17

