# {"id":"BLDG_0003000900483520","idOriginal":"BLDG_0003000900483520","origin":[13.35729467746791,52.5463706851257],"elevation":36.3800010681152}
# Longitude: 13.35729467746791
# Latitude: 52.5463706851257
# Elevation: 36.3800010681152

# File produced by Open Asset Import Library (http://www.assimp.sf.net)
# (assimp v3.1.0)

mtllib BLDG_0003000900483520.obj.mtl

# 44 vertex positions
v  13.9026 -8.83046e-16 14.4212
v  8.68044 -1.45197e-17 0.237124
v  18.2708 -6.23671e-16 10.1853
v  4.30839 -2.73655e-16 4.46912
v  4.37206 2.59135e-16 -4.232
v  0 0 0
v  39.5594 6.40379e-16 -10.4582
v  32.5108 1.39793e-15 -22.8299
v  42.0334 7.87282e-16 -12.8573
v  34.9344 3.6576e-16 -5.97332
v  29.5687 1.75256e-15 -28.6215
v  28.2237 1.67284e-15 -27.3196
v  25.7475 1.52608e-15 -24.9227
v  32.6699 2.31305e-16 -3.77749
v  21.1185 1.25171e-15 -20.442
v  23.1393 8.42467e-16 -13.7585
v  18.8522 1.11738e-15 -18.2482
v  33.8558 1.47765e-15 -24.1318
v  29.5692 24.8725 -28.6223
v  28.2242 24.8725 -27.3204
v  25.748 24.87 -24.9235
v  21.1191 24.87 -20.4428
v  21.1191 24.8725 -20.4428
v  18.8527 24.8725 -18.249
v  0.000529944 24.8725 -0.00078791
v  4.37259 24.8725 -4.23279
v  25.748 24.8725 -24.9235
v  32.6704 22.3634 -3.7782
v  34.9349 24.87 -5.97411
v  34.9349 24.8725 -5.97411
v  42.0339 22.3634 -12.858
v  39.5599 24.87 -10.459
v  39.5599 24.8725 -10.459
v  13.9031 24.8725 14.4205
v  4.30892 24.8725 4.46834
v  33.8563 22.3634 -24.1325
v  32.5113 22.3634 -22.8306
v  23.1397 22.3634 -13.7592
v  18.2713 22.3634 10.1846
v  8.68092 22.3634 0.236416
v  30.0352 24.8725 -20.4338
v  25.4062 24.8725 -15.9531
v  25.4062 24.87 -15.9531
v  30.0352 24.87 -20.4338

# 0 UV coordinates

# 67 vertex normals
vn 1.00741e-23 -1 -6.12323e-17
vn 0 -1 -6.12323e-17
vn -2.80309e-24 -1 -6.12323e-17
vn 5.60617e-24 -1 -6.12323e-17
vn 0 -1 -6.12323e-17
vn -9.53535e-24 -1 -6.12323e-17
vn 2.3821e-23 -1 -6.12323e-17
vn 1.69647e-23 -1 -6.12323e-17
vn -1.22861e-23 -1 -6.12323e-17
vn -2.68548e-23 -1 -6.12323e-17
vn 9.85701e-24 -1 -6.12323e-17
vn 0 -1 -6.12323e-17
vn -5.4074e-24 -1 -6.12323e-17
vn 1.82237e-23 -1 -6.12323e-17
vn -0.695505 -7.92713e-06 -0.718522
vn -0.695505 -7.92718e-06 -0.718522
vn -0.695504 -7.96326e-06 -0.718522
vn -0.695505 -7.68251e-06 -0.718521
vn -0.695504 -7.97572e-06 -0.718522
vn -0.695504 -8.84889e-06 -0.718522
vn -0.695505 -7.97398e-06 -0.718522
vn -0.695505 -7.95217e-06 -0.718522
vn -0.695505 -8.06656e-06 -0.718522
vn -0.695509 0 -0.718517
vn -0.695505 -7.39077e-06 -0.718521
vn -0.695504 -7.94983e-06 -0.718522
vn -0.695505 -0 -0.718522
vn 0.696181 0 0.717866
vn 0.696147 7.35098e-06 0.717899
vn 0.696147 7.9031e-06 0.717899
vn 0.696147 7.82042e-06 0.7179
vn 0.696147 7.98291e-06 0.717899
vn 0.696147 7.89547e-06 0.7179
vn 0.696143 -0 0.717903
vn 0.696147 8.3861e-06 0.717899
vn -0.719935 3.73288e-05 0.694041
vn -0.719935 3.73562e-05 0.694041
vn -0.719935 3.73006e-05 0.694041
vn -0.719935 3.7325e-05 0.694041
vn 0.723236 -3.72738e-05 -0.690601
vn 0.723236 -3.72936e-05 -0.690601
vn 0.695504 7.90526e-06 0.718522
vn 0.723235 -3.72852e-05 -0.690601
vn 0.723235 -3.72604e-05 -0.690602
vn -0.723236 3.72951e-05 0.690601
vn -0.723236 3.73025e-05 0.690601
vn 0.719935 -3.73542e-05 -0.694041
vn 0.719935 -3.73295e-05 -0.694041
vn 0.696147 7.88928e-06 0.717899
vn 0.696147 7.90541e-06 0.717899
vn 0.695504 7.90031e-06 0.718522
vn 0.695505 7.93422e-06 0.718522
vn 0.425707 0.808414 -0.406498
vn 0.425707 0.808414 -0.406498
vn 0.425707 0.808414 -0.406498
vn 0.260634 0.927129 0.26926
vn 0.260634 0.927129 0.26926
vn 0.260635 0.927129 0.26926
vn 0.260635 0.927129 0.26926
vn 0.260634 0.927129 0.26926
vn -0.450237 0.782595 0.429921
vn -0.450237 0.782594 0.429921
vn -0.450237 0.782595 0.429921
vn 0.274457 0.924482 -0.264586
vn 0.274457 0.924482 -0.264586
vn 0.274457 0.924482 -0.264586
vn 0 1 0

# Mesh 'defaultobject' with 76 faces
g defaultobject
usemtl DefaultMaterial
f  1//1 2//1 3//1
f  2//1 1//1 4//2
f  2//1 4//2 5//3
f  5//3 4//2 6//4
f  7//5 8//5 9//5
f  8//5 7//5 10//6
f  8//5 10//6 11//7
f  11//7 10//6 12//8
f  12//8 10//6 13//9
f  13//9 10//6 14//10
f  13//9 14//10 15//11
f  15//11 14//10 16//12
f  15//11 16//12 17//13
f  17//13 16//12 2//1
f  17//13 2//1 5//3
f  11//7 18//14 8//5
f  12//15 19//15 11//15
f  19//15 12//15 13//16
f  19//15 13//16 15//17
f  19//15 15//17 17//18
f  19//15 17//18 5//19
f  19//15 5//19 20//20
f  20//20 5//19 21//21
f  21//21 5//19 22//22
f  22//22 5//19 6//23
f  22//24 6//24 23//24
f  23//24 6//24 24//25
f  24//25 6//23 25//26
f  24//25 25//26 26//24
f  27//27 20//20 21//21
f  28//28 29//28 30//28
f  29//29 28//29 31//29
f  31//29 28//29 9//30
f  9//30 28//29 7//31
f  7//31 28//29 10//32
f  10//32 28//29 14//33
f  32//34 31//29 33//34
f  31//29 32//35 29//29
f  34//36 4//36 1//36
f  4//36 34//36 6//37
f  6//37 34//36 35//38
f  6//37 35//38 25//39
f  11//40 36//40 18//40
f  36//40 11//40 19//41
f  18//42 37//42 8//42
f  37//42 18//42 36//42
f  8//43 31//43 9//43
f  31//43 8//43 37//44
f  28//45 16//45 14//45
f  16//45 28//45 38//46
f  2//47 39//47 3//47
f  39//47 2//47 40//48
f  3//49 34//49 1//49
f  34//49 3//49 39//50
f  16//51 40//51 2//51
f  40//51 16//51 38//52
f  31//53 41//53 33//53
f  41//53 31//53 37//54
f  41//53 37//54 27//55
f  19//56 37//56 36//56
f  37//56 19//56 20//56
f  37//56 20//56 27//57
f  24//58 38//58 23//58
f  38//58 24//58 26//46
f  38//58 26//46 25//59
f  38//58 25//59 40//60
f  30//61 38//61 28//61
f  38//61 30//61 42//62
f  38//61 42//62 23//63
f  39//64 35//64 34//64
f  35//64 39//64 40//65
f  35//64 40//65 25//66
f  32//67 43//67 29//67
f  43//67 32//67 44//67
f  43//67 44//67 22//67
f  22//67 44//67 21//67

