# {"id":"BLDG_00030009007f9024","idOriginal":"BLDG_00030009007f9024","origin":[13.371858642573175,52.55493563222387],"elevation":38.9300003051758}
# Longitude: 13.371858642573175
# Latitude: 52.55493563222387
# Elevation: 38.9300003051758

# File produced by Open Asset Import Library (http://www.assimp.sf.net)
# (assimp v3.1.0)

mtllib BLDG_00030009007f9024.obj.mtl

# 38 vertex positions
v  6.46 20.971 -14.8835
v  14.1435 20.971 -1.82039
v  14.4405 20.971 -11.27
v  15.0597 20.971 -3.75074
v  15.2136 20.971 -4.07676
v  23.3251 20.971 -0.544653
v  18.1298 20.971 -9.6008
v  23.4804 20.971 -0.84868
v  31.296 20.971 -3.64067
v  26.7252 20.971 0.538963
v  27.4691 20.971 0.0631997
v  30.7072 20.971 4.97537
v  35.1928 20.971 1.80905
v  0.000447242 20.971 -0.00066469
v  11.3781 20.971 5.11342
v  2.88156 20.971 -6.69532
v  3.82978 20.971 -8.86506
v  11.7569 20.971 5.28266
v  14.7271 20.971 -1.63626
v  11.3776 -3.13147e-16 5.11408
v  0 0 0
v  11.7565 -3.2351e-16 5.28333
v  14.7267 1.00152e-16 -1.6356
v  14.1431 1.11426e-16 -1.81973
v  15.0593 2.29626e-16 -3.75007
v  15.2132 2.49589e-16 -4.0761
v  23.3246 3.33097e-17 -0.543989
v  23.4799 5.1926e-17 -0.848015
v  26.7248 -3.30427e-17 0.539627
v  27.4686 -3.91057e-18 0.0638644
v  30.7068 -3.04694e-16 4.97603
v  35.1924 -1.10813e-16 1.80971
v  31.2956 2.22886e-16 -3.64001
v  18.1294 5.87839e-16 -9.60014
v  14.4401 6.90049e-16 -11.2693
v  6.45956 9.11314e-16 -14.8829
v  3.82933 5.42788e-16 -8.86439
v  2.88112 4.0993e-16 -6.69466

# 0 UV coordinates

# 46 vertex normals
vn 0 1 0
vn -0.409975 3.76665e-05 0.912097
vn -0.407902 3.76398e-05 0.913025
vn 0.918906 -7.10266e-06 0.394476
vn 0.300881 -3.66452e-05 -0.953662
vn 0.300881 -3.66398e-05 -0.953662
vn 0.903409 -5.67721e-06 0.428781
vn 0.90431 -5.75704e-06 0.426877
vn -0.399238 3.75747e-05 0.916847
vn -0.399238 3.75953e-05 0.916848
vn 0.890529 -4.61428e-06 0.454926
vn 0.890532 -4.53468e-06 0.454921
vn -0.393202 3.75048e-05 0.919452
vn -0.393202 3.75499e-05 0.919452
vn 0.538805 1.51866e-05 0.842431
vn 0.538806 1.52349e-05 0.84243
vn -0.834912 3.52905e-05 0.550384
vn -0.834912 3.5214e-05 0.550384
vn 0.576686 1.35669e-05 0.816966
vn 0.576686 1.36166e-05 0.816966
vn 0.813439 -3.57584e-05 -0.58165
vn 0.412397 -3.76903e-05 -0.911004
vn 0.412397 -3.76527e-05 -0.911004
vn 0.412221 -3.76703e-05 -0.911084
vn 0.412221 -3.7689e-05 -0.911084
vn 0.41248 -3.76721e-05 -0.910967
vn -0.916317 6.85034e-06 -0.400453
vn -0.91632 6.85059e-06 -0.400447
vn -0.918549 7.06009e-06 -0.395307
vn -0.918549 7.06105e-06 -0.395307
vn 4.65896e-24 -1 -6.12323e-17
vn -1.74401e-23 -1 -6.12323e-17
vn 0 -1 -6.12323e-17
vn 0 -1 -6.12323e-17
vn 3.64373e-24 -1 -6.12323e-17
vn 0 -1 -6.12323e-17
vn 2.61304e-24 -1 -6.12323e-17
vn -4.68798e-23 -1 -6.12323e-17
vn 7.46412e-24 -1 -6.12324e-17
vn -1.07975e-23 -1 -6.12323e-17
vn 4.82971e-24 -1 -6.12324e-17
vn 1.34422e-24 -1 -6.12323e-17
vn 0 -1 -6.12323e-17
vn -6.81692e-24 -1 -6.12323e-17
vn -5.61475e-20 -1 -6.10885e-17
vn 1.63965e-24 -1 -6.12323e-17

# Mesh 'defaultobject' with 72 faces
g defaultobject
usemtl DefaultMaterial
f  1//1 2//1 3//1
f  4//1 3//1 2//1
f  5//1 3//1 4//1
f  6//1 3//1 5//1
f  7//1 3//1 6//1
f  8//1 7//1 6//1
f  9//1 7//1 8//1
f  10//1 9//1 8//1
f  11//1 9//1 10//1
f  12//1 9//1 11//1
f  13//1 9//1 12//1
f  14//1 15//1 16//1
f  17//1 16//1 15//1
f  1//1 17//1 15//1
f  18//1 1//1 15//1
f  2//1 1//1 18//1
f  19//1 2//1 18//1
f  20//2 14//2 21//2
f  14//2 20//2 15//2
f  22//3 15//3 20//3
f  15//3 22//3 18//3
f  23//4 18//4 22//4
f  18//4 23//4 19//4
f  2//5 23//5 24//5
f  23//5 2//5 19//6
f  25//7 2//7 24//7
f  2//7 25//7 4//7
f  26//8 4//8 25//8
f  4//8 26//8 5//8
f  27//9 5//9 26//9
f  5//9 27//9 6//10
f  28//11 6//11 27//11
f  6//11 28//11 8//12
f  29//13 8//13 28//13
f  8//13 29//13 10//14
f  30//15 10//15 29//15
f  10//15 30//15 11//16
f  12//17 30//17 31//17
f  30//17 12//17 11//18
f  32//19 12//19 31//19
f  12//19 32//19 13//20
f  33//21 13//21 32//21
f  13//21 33//21 9//21
f  7//22 33//22 34//22
f  33//22 7//22 9//23
f  3//24 34//24 35//24
f  34//24 3//24 7//25
f  1//26 35//26 36//26
f  35//26 1//26 3//26
f  17//27 36//27 37//27
f  36//27 17//27 1//27
f  16//28 37//27 38//28
f  37//27 16//28 17//27
f  14//29 38//29 21//29
f  38//29 14//29 16//30
f  38//31 20//31 21//31
f  20//31 38//31 22//32
f  22//32 38//31 24//33
f  22//32 24//33 23//34
f  37//35 24//33 38//31
f  24//33 37//35 25//36
f  25//36 37//35 36//37
f  25//36 36//37 26//38
f  26//38 36//37 27//39
f  27//39 36//37 28//40
f  28//40 36//37 29//41
f  29//41 36//37 30//36
f  30//36 36//37 32//42
f  32//42 36//37 35//43
f  32//42 35//43 33//44
f  33//44 35//43 34//45
f  32//42 31//46 30//36

