# {"id":"BLDG_0003000a00149cfe","idOriginal":"BLDG_0003000a00149cfe","origin":[13.379038887165425,52.56047897764791],"elevation":40.9300003051758}
# Longitude: 13.379038887165425
# Latitude: 52.56047897764791
# Elevation: 40.9300003051758

# File produced by Open Asset Import Library (http://www.assimp.sf.net)
# (assimp v3.1.0)

mtllib BLDG_0003000a00149cfe.obj.mtl

# 10 vertex positions
v  0 0 0
v  15.437 2.99937e-16 -4.89834
v  10.7023 -3.18213e-16 5.19681
v  4.73467 6.1815e-16 -10.0951
v  0.000289974 13.5903 -0.000430901
v  13.0701 18.5443 0.148643
v  2.36773 18.5443 -5.04816
v  10.7026 13.5903 5.19637
v  15.4373 13.5903 -4.89877
v  4.73496 13.5903 -10.0956

# 0 UV coordinates

# 15 vertex normals
vn -7.98203e-25 -1 -6.12323e-17
vn 0 -1 -6.12323e-17
vn -0.290149 0.747505 0.597536
vn -0.290149 0.747505 0.597536
vn 0.29016 0.747483 -0.597558
vn 0.29016 0.747483 -0.597558
vn 0.90537 -5.86052e-06 0.424623
vn 0.90537 -5.80097e-06 0.424623
vn -0.436804 3.78429e-05 0.899557
vn -0.436804 3.78193e-05 0.899557
vn -0.90537 5.85442e-06 -0.424623
vn -0.90537 5.87542e-06 -0.424623
vn -0.90537 5.87003e-06 -0.424623
vn 0.436804 -3.77874e-05 -0.899557
vn 0.436804 -3.7819e-05 -0.899557

# Mesh 'defaultobject' with 16 faces
g defaultobject
usemtl DefaultMaterial
f  1//1 2//1 3//1
f  2//1 1//1 4//2
f  5//3 6//3 7//3
f  6//3 5//3 8//4
f  7//5 9//5 10//5
f  9//5 7//5 6//6
f  9//7 3//7 2//7
f  3//7 9//7 8//7
f  8//7 9//7 6//8
f  3//9 5//9 1//9
f  5//9 3//9 8//10
f  5//11 4//11 1//11
f  4//11 5//11 10//12
f  10//12 5//11 7//13
f  10//14 2//14 4//14
f  2//14 10//14 9//15

