# {"id":"BLDG_0003000f003e7559","idOriginal":"BLDG_0003000f003e7559","origin":[13.369567637649512,52.555884961871165],"elevation":40.0099983215332}
# Longitude: 13.369567637649512
# Latitude: 52.555884961871165
# Elevation: 40.0099983215332

# File produced by Open Asset Import Library (http://www.assimp.sf.net)
# (assimp v3.1.0)

mtllib BLDG_0003000f003e7559.obj.mtl

# 8 vertex positions
v  4.1503 3.22723e-16 -5.27047
v  0 0 0
v  1.23368 3.60111e-16 -5.88105
v  2.93607 -3.76531e-17 0.614921
v  4.15037 3.16596 -5.27057
v  6.7511e-05 3.16596 -0.00010036
v  2.93614 3.16596 0.614821
v  1.23375 3.16596 -5.88115

# 0 UV coordinates

# 10 vertex normals
vn -7.39128e-25 -1 -6.12323e-17
vn -7.34188e-25 -1 -6.12323e-17
vn 0 1 0
vn -0.204989 3.54095e-05 0.978764
vn -0.204989 3.5422e-05 0.978764
vn 0.979374 -1.45618e-05 0.202057
vn 0.204904 -3.53247e-05 -0.978782
vn 0.204904 -3.53401e-05 -0.978782
vn -0.978698 1.43617e-05 -0.205303
vn -0.978698 1.43644e-05 -0.205303

# Mesh 'defaultobject' with 12 faces
g defaultobject
usemtl DefaultMaterial
f  1//1 2//1 3//1
f  2//1 1//1 4//2
f  5//3 6//3 7//3
f  6//3 5//3 8//3
f  4//4 6//4 2//4
f  6//4 4//4 7//5
f  1//6 7//6 4//6
f  7//6 1//6 5//6
f  8//7 1//7 3//7
f  1//7 8//7 5//8
f  6//9 3//9 2//9
f  3//9 6//9 8//10

