# {"id":"BLDG_00030009005bca11","idOriginal":"BLDG_00030009005bca11","origin":[13.37635272293969,52.5518081234509],"elevation":38.1599998474121}
# Longitude: 13.37635272293969
# Latitude: 52.5518081234509
# Elevation: 38.1599998474121

# File produced by Open Asset Import Library (http://www.assimp.sf.net)
# (assimp v3.1.0)

mtllib BLDG_00030009005bca11.obj.mtl

# 24 vertex positions
v  14.2632 4.24648e-17 -0.693503
v  13.7372 1.33217e-17 -0.21756
v  12.2256 1.68825e-16 -2.75712
v  7.02371 4.34979e-16 -7.10375
v  0.383301 -2.34668e-17 0.383242
v  0 0 0
v  2.12911 -1.30386e-16 2.12936
v  12.3243 -7.54724e-16 12.3256
v  7.36314 4.13708e-16 -6.75636
v  9.18592 2.99169e-16 -4.8858
v  19.2696 -3.34227e-16 5.45835
v  11.7127 1.4046e-16 -2.29389
v  0.383654 16.5417 0.382718
v  0.000352879 16.5417 -0.000524189
v  2.12946 16.5417 2.12884
v  12.3246 16.5417 12.325
v  19.27 16.5417 5.45782
v  13.7376 16.5417 -0.218084
v  14.2636 16.5417 -0.694028
v  12.226 16.5417 -2.75764
v  11.713 16.5417 -2.29442
v  9.18627 16.5417 -4.88632
v  7.36349 16.5417 -6.75688
v  7.02406 16.5417 -7.10427

# 0 UV coordinates

# 30 vertex normals
vn 0 -1 -6.12323e-17
vn 3.91083e-23 -1 -6.12323e-17
vn 0 -1 -6.12323e-17
vn 2.94028e-24 -1 -6.12323e-17
vn 0 -1 -6.12324e-17
vn 6.64286e-23 -1 -6.12323e-17
vn 0 -1 -6.12046e-17
vn -0.707052 3.74918e-05 0.707161
vn -0.707052 3.74925e-05 0.707161
vn -0.70717 3.75046e-05 0.707044
vn -0.70717 3.74906e-05 0.707044
vn -0.707143 3.74641e-05 0.70707
vn -0.707143 3.75049e-05 0.70707
vn 0.703095 7.55548e-06 0.711096
vn 0.703095 7.50826e-06 0.711096
vn 0.716101 -3.74016e-05 -0.697997
vn 0.670953 9.18659e-06 0.7415
vn 0.670953 9.18405e-06 0.7415
vn 0.711579 -3.74537e-05 -0.702606
vn 0.711579 -3.74438e-05 -0.702606
vn -0.670233 -9.22507e-06 -0.742151
vn 0.716048 -3.73893e-05 -0.698051
vn 0.716048 -3.73972e-05 -0.698051
vn 0.716195 -3.74097e-05 -0.697901
vn 0.716194 -3.73877e-05 -0.697901
vn 0.715254 -3.73979e-05 -0.698865
vn 0.715254 -3.74183e-05 -0.698864
vn -0.711101 -7.11045e-06 -0.703089
vn -0.711101 -7.10512e-06 -0.703089
vn 0 1 0

# Mesh 'defaultobject' with 44 faces
g defaultobject
usemtl DefaultMaterial
f  1//1 2//1 3//1
f  4//2 5//2 6//2
f  5//2 4//2 7//3
f  7//3 4//2 8//4
f  8//4 4//2 9//5
f  8//4 9//5 10//6
f  8//4 10//6 11//1
f  11//1 10//6 12//7
f  11//1 12//7 2//1
f  2//1 12//7 3//1
f  13//8 6//8 5//8
f  6//8 13//8 14//9
f  15//10 5//10 7//10
f  5//10 15//10 13//11
f  16//12 7//12 8//12
f  7//12 16//12 15//13
f  16//14 11//14 17//14
f  11//14 16//14 8//15
f  17//16 2//16 18//16
f  2//16 17//16 11//16
f  18//17 1//17 19//17
f  1//17 18//17 2//18
f  19//19 3//19 20//19
f  3//19 19//19 1//20
f  21//21 3//21 12//21
f  3//21 21//21 20//21
f  21//22 10//22 22//22
f  10//22 21//22 12//23
f  22//24 9//24 23//24
f  9//24 22//24 10//25
f  23//26 4//26 24//26
f  4//26 23//26 9//27
f  14//28 4//28 6//28
f  4//28 14//28 24//29
f  13//30 24//30 14//30
f  24//30 13//30 15//30
f  24//30 15//30 16//30
f  24//30 16//30 23//30
f  23//30 16//30 22//30
f  22//30 16//30 21//30
f  21//30 16//30 17//30
f  21//30 17//30 18//30
f  21//30 18//30 20//30
f  19//30 20//30 18//30

