# {"id":"BLDG_000300000028d497","idOriginal":"BLDG_000300000028d497","origin":[13.362179661718862,52.50323018255169],"elevation":34.5800018310547}
# Longitude: 13.362179661718862
# Latitude: 52.50323018255169
# Elevation: 34.5800018310547

# File produced by Open Asset Import Library (http://www.assimp.sf.net)
# (assimp v3.1.0)

mtllib BLDG_000300000028d497.obj.mtl

# 21 vertex positions
v  17.8161 1.85241e-16 -3.02522
v  9.40803 6.84083e-16 -11.1719
v  19.4704 5.63753e-16 -9.20679
v  16.1618 -1.93271e-16 3.15635
v  5.83093 1.5499e-15 -25.3118
v  12.3018 1.45327e-15 -23.7337
v  2.86785 7.62294e-16 -12.4492
v  6.54018 -7.82105e-17 1.27727
v  1.43392 3.81147e-16 -6.2246
v  0 0 0
v  5.83142 22.8188 -25.3125
v  9.40847 20.9082 -11.1726
v  12.3023 20.9082 -23.7344
v  2.86834 22.8188 -12.4499
v  1.43441 22.8188 -6.22532
v  19.4708 20.9082 -9.20745
v  7.97459 22.8188 -4.94805
v  17.8166 22.8188 -3.02594
v  6.54062 20.9082 1.27661
v  16.1623 20.9082 3.15569
v  0.000445566 20.9082 -0.00066043

# 0 UV coordinates

# 35 vertex normals
vn 6.47066e-24 -1 -6.12323e-17
vn 0 -1 -6.12323e-17
vn -9.86613e-24 -1 -6.12323e-17
vn 9.6354e-24 -1 -6.12323e-17
vn -6.76702e-24 -1 -6.12323e-17
vn -9.95537e-24 -1 -6.12323e-17
vn 0 -1 -6.12323e-17
vn 0.268719 0.961227 0.0619033
vn 0.268719 0.961227 0.0619033
vn 0.268719 0.961227 0.0619032
vn 0.0549567 0.958015 -0.281401
vn 0.0549567 0.958015 -0.281401
vn 0.0549567 0.958015 -0.281401
vn -0.0549556 0.958017 0.281396
vn -0.0549556 0.958017 0.281396
vn -0.191675 3.50926e-05 0.981458
vn -0.191675 3.50937e-05 0.981458
vn -0.191675 3.50814e-05 0.981458
vn -0.191675 3.50862e-05 0.981458
vn 0.23693 -3.57462e-05 -0.971527
vn 0.23693 -3.57228e-05 -0.971527
vn 0.974478 -1.36723e-05 0.224485
vn 0.974478 -1.37147e-05 0.224485
vn 0.191676 -3.50615e-05 -0.981458
vn 0.191675 -3.5115e-05 -0.981458
vn -0.974478 1.36759e-05 -0.224485
vn -0.974478 1.36817e-05 -0.224485
vn -0.974478 1.36843e-05 -0.224485
vn -0.974478 1.36778e-05 -0.224485
vn -0.974478 1.36136e-05 -0.224485
vn -0.974478 1.35968e-05 -0.224485
vn 0.966007 -1.24495e-05 0.258516
vn 0.966007 -1.23599e-05 0.258516
vn 0.966007 -1.24554e-05 0.258516
vn 0.966007 -1.25584e-05 0.258516

# Mesh 'defaultobject' with 38 faces
g defaultobject
usemtl DefaultMaterial
f  1//1 2//1 3//1
f  2//1 1//1 4//2
f  2//1 5//3 6//3
f  5//3 2//1 7//4
f  7//4 2//1 4//2
f  7//4 4//2 8//5
f  7//4 8//5 9//6
f  9//6 8//5 10//7
f  11//8 12//8 13//8
f  12//8 11//8 14//9
f  12//8 14//9 15//10
f  16//11 17//11 18//11
f  17//11 16//11 12//12
f  17//11 12//12 15//13
f  18//14 19//14 20//14
f  19//14 18//14 17//15
f  19//14 17//15 21//15
f  21//15 17//15 15//15
f  20//16 8//16 4//16
f  8//16 20//16 10//17
f  10//17 20//16 19//18
f  10//17 19//18 21//19
f  11//20 6//20 5//20
f  6//20 11//20 13//21
f  6//22 12//22 2//22
f  12//22 6//22 13//23
f  12//24 3//24 2//24
f  3//24 12//24 16//25
f  21//26 9//26 10//26
f  9//26 21//26 7//27
f  7//27 21//26 5//28
f  5//28 21//26 11//29
f  11//29 21//26 14//30
f  14//30 21//26 15//31
f  16//32 1//32 3//32
f  1//32 16//32 4//33
f  4//33 16//32 20//34
f  20//34 16//32 18//35

