# {"id":"BLDG_0003000e009a1075","idOriginal":"BLDG_0003000e009a1075","origin":[13.35774231575605,52.52158945783966],"elevation":32.5499992370605}
# Longitude: 13.35774231575605
# Latitude: 52.52158945783966
# Elevation: 32.5499992370605

# File produced by Open Asset Import Library (http://www.assimp.sf.net)
# (assimp v3.1.0)

mtllib BLDG_0003000e009a1075.obj.mtl

# 12 vertex positions
v  0 0 0
v  3.91837 1.65657e-16 -2.70539
v  3.13431 -4.39365e-17 0.717537
v  8.37654 2.23956e-15 -36.5749
v  29.8494 1.93842e-15 -31.6568
v  22.2569 -9.15126e-17 1.49451
v  0.000142198 6.67418 -0.000211081
v  3.13446 6.67418 0.717326
v  3.91852 6.67418 -2.7056
v  22.2571 6.67418 1.4943
v  29.8495 6.67418 -31.657
v  8.37668 6.67418 -36.5751

# 0 UV coordinates

# 12 vertex normals
vn 0 -1 -6.12323e-17
vn 0 -1 -6.12323e-17
vn -9.04467e-24 -1 -6.12323e-17
vn -0.223157 3.55737e-05 0.974783
vn 0.974755 -1.36926e-05 0.223279
vn -0.223241 3.5606e-05 0.974763
vn 0.974762 -1.36463e-05 0.223244
vn 0.974762 -1.39152e-05 0.223245
vn 0.223255 -3.54275e-05 -0.97476
vn -0.974762 1.37076e-05 -0.223244
vn -0.974762 1.38747e-05 -0.223244
vn 0 1 0

# Mesh 'defaultobject' with 20 faces
g defaultobject
usemtl DefaultMaterial
f  1//1 2//1 3//1
f  2//1 1//1 4//2
f  2//1 4//2 5//3
f  5//3 6//1 2//1
f  3//4 7//4 1//4
f  7//4 3//4 8//4
f  2//5 8//5 3//5
f  8//5 2//5 9//5
f  6//6 9//6 2//6
f  9//6 6//6 10//6
f  5//7 10//7 6//7
f  10//7 5//7 11//8
f  12//9 5//9 4//9
f  5//9 12//9 11//9
f  7//10 4//10 1//10
f  4//10 7//10 12//11
f  8//12 12//12 7//12
f  12//12 8//12 9//12
f  12//12 9//12 10//12
f  12//12 10//12 11//12

