# {"id":"BLDG_000300080032b229","idOriginal":"BLDG_000300080032b229","origin":[13.387972326199298,52.50819241426064],"elevation":34.2000007629395}
# Longitude: 13.387972326199298
# Latitude: 52.50819241426064
# Elevation: 34.2000007629395

# File produced by Open Asset Import Library (http://www.assimp.sf.net)
# (assimp v3.1.0)

mtllib BLDG_000300080032b229.obj.mtl

# 8 vertex positions
v  0.463347 -4.37715e-16 7.14843
v  10.3889 4.12327e-17 -0.673381
v  10.8522 -3.96482e-16 6.47505
v  0 0 0
v  0.463446 4.64303 7.14828
v  10.8523 4.64303 6.4749
v  9.911e-05 4.64303 -0.0001467
v  10.389 4.64303 -0.673528

# 0 UV coordinates

# 10 vertex normals
vn 0 -1 -6.12323e-17
vn 0.0646818 3.01864e-05 0.997906
vn 0.0646817 3.00779e-05 0.997906
vn -0.997906 2.3345e-05 0.0646823
vn -0.997906 2.33436e-05 0.0646823
vn -0.0646818 -3.01451e-05 -0.997906
vn -0.0646818 -3.01489e-05 -0.997906
vn 0.997906 -2.33544e-05 -0.0646824
vn 0.997906 -2.33616e-05 -0.0646824
vn 0 1 -0

# Mesh 'defaultobject' with 12 faces
g defaultobject
usemtl DefaultMaterial
f  1//1 2//1 3//1
f  2//1 1//1 4//1
f  3//2 5//2 1//2
f  5//2 3//2 6//3
f  4//4 5//4 7//4
f  5//4 4//4 1//5
f  2//6 7//6 8//6
f  7//6 2//6 4//7
f  2//8 6//8 3//8
f  6//8 2//8 8//9
f  8//10 5//10 6//10
f  5//10 8//10 7//10

