# {"id":"BLDG_00030000001f8967","idOriginal":"BLDG_00030000001f8967","origin":[13.380575793185677,52.55897092647572],"elevation":40.2000007629395}
# Longitude: 13.380575793185677
# Latitude: 52.55897092647572
# Elevation: 40.2000007629395

# File produced by Open Asset Import Library (http://www.assimp.sf.net)
# (assimp v3.1.0)

mtllib BLDG_00030000001f8967.obj.mtl

# 8 vertex positions
v  13.414 3.76894 3.64028
v  3.25219 3.94248 -6.2378
v  8.0424e-05 3.76894 -0.000119491
v  16.6661 3.94248 -2.5974
v  13.4139 -2.2291e-16 3.6404
v  3.2521 3.81948e-16 -6.23768
v  16.666 1.59037e-16 -2.59728
v  0 0 0

# 0 UV coordinates

# 11 vertex normals
vn -0.00661239 0.999681 0.024365
vn -0.00661239 0.999681 0.024365
vn 4.43423e-24 -1 -6.12323e-17
vn 0 -1 -6.12323e-17
vn 0.261915 -3.61736e-05 -0.965091
vn 0.261915 -3.61577e-05 -0.965091
vn 0.886721 -4.24451e-06 0.462305
vn 0.886721 -4.264e-06 0.462305
vn -0.261915 3.61189e-05 0.965091
vn -0.886721 4.2645e-06 -0.462305
vn -0.886721 4.27946e-06 -0.462305

# Mesh 'defaultobject' with 12 faces
g defaultobject
usemtl DefaultMaterial
f  1//1 2//1 3//1
f  2//1 1//1 4//2
f  5//3 6//3 7//3
f  6//3 5//3 8//4
f  2//5 7//5 6//5
f  7//5 2//5 4//6
f  7//7 1//7 5//7
f  1//7 7//7 4//8
f  5//9 3//9 8//9
f  3//9 5//9 1//9
f  3//10 6//10 8//10
f  6//10 3//10 2//11

