# {"id":"BLDG_00030006000f3989","idOriginal":"BLDG_00030006000f3989","origin":[13.39373340168826,52.53110211531781],"elevation":35.9599990844727}
# Longitude: 13.39373340168826
# Latitude: 52.53110211531781
# Elevation: 35.9599990844727

# File produced by Open Asset Import Library (http://www.assimp.sf.net)
# (assimp v3.1.0)

mtllib BLDG_00030006000f3989.obj.mtl

# 8 vertex positions
v  10.286 17.0922 1.58287
v  0.00041487 19.4271 -0.00061476
v  2.16028 17.0922 5.38655
v  8.12614 19.4271 -3.80429
v  8.12572 2.32908e-16 -3.80368
v  0 0 0
v  10.2856 -9.69558e-17 1.58341
v  2.15991 -3.29864e-16 5.38709

# 0 UV coordinates

# 10 vertex normals
vn 0.158446 0.927536 0.338485
vn -0.423954 -1.96062e-05 -0.905684
vn -0.423954 -1.96012e-05 -0.905684
vn 0.928175 -3.16088e-05 -0.372145
vn 0.928175 -3.15906e-05 -0.372145
vn 0.423954 1.96145e-05 0.905684
vn 0.423954 1.96021e-05 0.905684
vn -0.928175 3.15952e-05 0.372145
vn -0.928175 3.15976e-05 0.372145
vn -1.01827e-24 -1 -6.12323e-17

# Mesh 'defaultobject' with 12 faces
g defaultobject
usemtl DefaultMaterial
f  1//1 2//1 3//1
f  2//1 1//1 4//1
f  2//2 5//2 6//2
f  5//2 2//2 4//3
f  5//4 1//4 7//4
f  1//4 5//4 4//5
f  7//6 3//6 8//6
f  3//6 7//6 1//7
f  3//8 6//8 8//8
f  6//8 3//8 2//9
f  7//10 6//10 5//10
f  6//10 7//10 8//10

