# {"id":"BLDG_0003000f00412069","idOriginal":"BLDG_0003000f00412069","origin":[13.345473851934125,52.55436737363206],"elevation":35.6100006103516}
# Longitude: 13.345473851934125
# Latitude: 52.55436737363206
# Elevation: 35.6100006103516

# File produced by Open Asset Import Library (http://www.assimp.sf.net)
# (assimp v3.1.0)

mtllib BLDG_0003000f00412069.obj.mtl

# 27 vertex positions
v  28.162 -1.02885e-15 16.8024
v  19.8763 1.17232e-16 -1.91455
v  33.4183 -6.90853e-16 11.2825
v  22.9057 -1.36685e-15 22.3223
v  9.27398 -5.53404e-16 9.03777
v  15.2393 3.93934e-16 -6.43343
v  10.6023 6.70636e-16 -10.9523
v  0 0 0
v  15.2393 0.209999 -6.43344
v  27.47 0.209999 -9.75886
v  19.8763 0.209999 -1.91456
v  10.6023 0.209999 -10.9523
v  22.812 0.209999 -14.2561
v  18.154 0.209999 -18.7533
v  18.1544 19.1752 -18.7539
v  15.2399 24.7451 -6.43422
v  22.8125 24.7451 -14.2569
v  10.6027 19.1752 -10.9529
v  9.93869 24.7451 -0.958059
v  0.000408255 19.1752 -0.00060776
v  28.1625 24.7451 16.8016
v  9.27439 19.1752 9.03716
v  22.9061 19.1752 22.3217
v  14.5757 24.7451 3.56083
v  19.8767 19.1752 -1.91516
v  27.4704 19.1752 -9.75947
v  33.4187 19.1752 11.2819

# 0 UV coordinates

# 51 vertex normals
vn 1.76321e-23 -1 -6.12324e-17
vn -2.35095e-23 -1 -6.12323e-17
vn -5.83867e-24 -1 -6.12323e-17
vn -4.2911e-24 -1 -6.12323e-17
vn -4.2911e-24 -1 -6.12323e-17
vn 0 -1 -6.12323e-17
vn 0 -1 0
vn -0.468568 0.758087 -0.453595
vn -0.468568 0.758087 -0.453595
vn -0.468568 0.758087 -0.453595
vn -0.468568 0.758087 -0.453595
vn -0.411791 0.807389 0.422554
vn -0.411791 0.807389 0.422554
vn -0.411791 0.807389 0.422554
vn -0.411791 0.807389 0.422554
vn 0.468565 0.758091 0.453592
vn 0.468565 0.758091 0.453592
vn 0.468565 0.758091 0.453592
vn 0.411806 0.807373 -0.422569
vn 0.411806 0.807373 -0.422569
vn 0.411806 0.807373 -0.422569
vn -0.697927 3.75075e-05 0.716169
vn -0.697928 3.7574e-05 0.716168
vn -0.697927 3.75336e-05 0.716168
vn -0.697928 3.76038e-05 0.716168
vn 0.694583 -3.76002e-05 -0.719412
vn 0.694583 -3.76674e-05 -0.719412
vn 0.694583 -3.75665e-05 -0.719412
vn 0.694583 -3.7604e-05 -0.719412
vn 0.724188 6.46622e-06 0.689603
vn 0.724188 6.2901e-06 0.689602
vn 0.724188 6.46622e-06 0.689602
vn 0.724188 6.64913e-06 0.689602
vn 0.697927 -3.75808e-05 -0.716169
vn 0.697927 -3.76081e-05 -0.716169
vn 0.697928 -3.78539e-05 -0.716168
vn 0.697927 -4.10537e-05 -0.716169
vn 0.697927 -3.74438e-05 -0.716168
vn 0.697927 -3.75274e-05 -0.716168
vn 0.697928 -3.76567e-05 -0.716168
vn -0.697927 3.7581e-05 0.716168
vn -0.697927 3.75466e-05 0.716168
vn -0.697927 3.75423e-05 0.716168
vn -0.697927 3.75585e-05 0.716168
vn -0.718493 -6.7154e-06 -0.695534
vn -0.718493 -6.78239e-06 -0.695534
vn -0.718493 -6.6693e-06 -0.695534
vn -0.718493 -6.74773e-06 -0.695534
vn -0.718493 -7.15007e-06 -0.695534
vn 0.718493 6.77983e-06 0.695534
vn 0.718493 6.81668e-06 0.695534

# Mesh 'defaultobject' with 54 faces
g defaultobject
usemtl DefaultMaterial
f  1//1 2//1 3//1
f  2//1 1//1 4//2
f  2//1 4//2 5//3
f  2//1 5//3 6//4
f  6//4 5//3 7//5
f  7//5 5//3 8//6
f  9//7 10//7 11//7
f  10//7 9//7 12//7
f  10//7 12//7 13//7
f  13//7 12//7 14//7
f  15//8 16//8 17//8
f  16//8 15//8 18//9
f  16//8 18//9 19//10
f  19//10 18//9 20//11
f  21//12 22//12 23//12
f  22//12 21//12 24//13
f  22//12 24//13 20//14
f  20//14 24//13 19//15
f  17//16 25//16 26//16
f  25//16 17//16 16//17
f  25//16 16//17 19//18
f  27//19 24//19 21//19
f  24//19 27//19 25//20
f  24//19 25//20 19//21
f  25//22 9//22 11//22
f  9//22 25//22 12//23
f  12//23 25//22 18//24
f  18//24 25//22 16//25
f  15//26 13//26 14//26
f  13//26 15//26 10//27
f  10//27 15//26 26//28
f  26//28 15//26 17//29
f  27//30 1//30 3//30
f  1//30 27//30 4//31
f  4//31 27//30 23//32
f  23//32 27//30 21//33
f  2//34 27//34 3//34
f  27//34 2//34 6//35
f  27//34 6//35 7//36
f  27//34 7//36 12//37
f  27//34 12//37 25//38
f  25//38 12//37 18//39
f  25//38 18//39 16//40
f  23//41 5//41 4//41
f  5//41 23//41 8//42
f  8//42 23//41 22//43
f  8//42 22//43 20//44
f  14//45 18//45 15//45
f  18//45 14//45 20//46
f  20//46 14//45 12//47
f  20//46 12//47 8//48
f  8//48 12//47 7//49
f  10//50 25//50 11//50
f  25//50 10//50 26//51

