# {"id":"BLDG_0003000f0010a348","idOriginal":"BLDG_0003000f0010a348","origin":[13.35034034121211,52.506748916456694],"elevation":34.69}
# Longitude: 13.35034034121211
# Latitude: 52.506748916456694
# Elevation: 34.69

# File produced by Open Asset Import Library (http://www.assimp.sf.net)
# (assimp v3.1.0)

mtllib BLDG_0003000f0010a348.obj.mtl

# 101 vertex positions
v  28.7142 19.31 -38.4319
v  24.0617 19.31 -38.1767
v  28.0681 19.31 -35.9571
v  24.9634 19.31 -40.5264
v  21.9736 19.31 -39.3335
v  22.8783 19.31 -41.6908
v  25.5487 19.31 0.840308
v  15.6909 19.31 11.4551
v  20.8831 19.31 15.2459
v  16.5051 19.31 8.33603
v  19.0178 19.31 -1.28921
v  19.5964 19.31 -3.50551
v  11.8993 19.31 -6.48648
v  12.6904 19.31 -8.54766
v  9.92147 19.31 -7.93053
v  10.7125 19.31 -9.9917
v  14.5454 19.31 -19.9788
v  17.5346 19.31 -27.7674
v  8.73713 19.31 -22.7651
v  1.11368 19.31 -2.90135
v  -2.50898 19.31 -1.83273
v  0.0004112 19.31 -0.0006101
v  4.54917 19.31 -11.8529
v  16.7689 19.31 -52.0633
v  5.34022 19.31 -13.9141
v  11.8629 19.31 -30.9096
v  16.3018 19.31 -42.4757
v  17.2145 19.31 -44.8537
v  19.4144 19.31 -50.5859
v  22.8783 22.4528 -41.6909
v  23.9783 23.1826 -44.5571
v  21.1464 23.1826 -46.1385
v  26.0635 23.1826 -43.3927
v  26.8007 23.1826 -42.981
v  28.7142 22.4528 -38.432
v  24.9635 22.4528 -40.5265
v  25.0783 22.4528 -47.4232
v  19.4145 22.4528 -50.586
v  27.1635 22.4528 -46.2588
v  30.3002 22.4528 -44.5072
v  38.714 19.31 -39.8085
v  36.8048 19.31 -33.9138
v  39.6562 19.31 -42.7175
v  30.3001 19.31 -44.5071
v  17.8546 19.31 -54.8922
v  27.1634 19.31 -46.2587
v  25.0782 19.31 -47.4231
v  1.11375 22.4697 -2.90145
v  8.20381 23.1179 -3.45488
v  5.51766 23.1179 -5.41606
v  10.1817 23.12 -2.01083
v  15.0344 23.12 1.53217
v  16.5052 22.47 8.33593
v  6.48605 22.4697 1.0209
v  8.46391 22.4697 2.46495
v  11.8994 22.4697 -6.48658
v  9.92154 22.4697 -7.93063
v  19.0179 22.47 -1.28931
v  10.1817 23.1179 -2.01083
v  17.2145 22.4528 -44.8538
v  16.3019 22.4528 -42.4758
v  11.863 22.4528 -30.9097
v  20.0465 23.1826 -43.2724
v  19.1378 23.1826 -40.9047
v  15.8605 23.1826 -32.3654
v  21.9736 22.4528 -39.3336
v  17.5347 22.4528 -27.7675
v  8.02645 23.12 -11.953
v  14.5455 22.47 -19.9789
v  10.5375 23.12 -18.4959
v  7.2354 23.1179 -9.89182
v  10.7126 22.4697 -9.9918
v  5.34029 22.4697 -13.9142
v  8.7372 22.47 -22.7652
v  4.54923 22.4697 -11.853
v  8.02645 23.1179 -11.953
v  16.5048 5.58515 8.33647
v  5.37242 5.58515 3.92218
v  15.6906 5.58515 11.4555
v  8.46356 5.58515 2.46548
v  6.48569 5.58515 1.02143
v  6.48591 15.8749 1.02111
v  0.00033805 15.8749 -0.00050157
v  5.37264 15.8749 3.92185
v  1.11361 15.8749 -2.90125
v  16.7685 3.18792e-15 -52.0627
v  0 -1.37329e-06 -8.40898e-23
v  -2.50939 1.12185e-16 -1.83212
v  5.3723 -1.37329e-06 3.92235
v  12.69 5.23356e-16 -8.54704
v  15.6905 -1.37329e-06 11.4557
v  20.8827 -9.33583e-16 15.2466
v  24.0612 2.33761e-15 -38.1761
v  28.0677 2.2017e-15 -35.9565
v  28.7137 2.35324e-15 -38.4313
v  36.8044 2.07659e-15 -33.9132
v  17.8542 3.36114e-15 -54.8916
v  38.7136 2.43753e-15 -39.8079
v  39.6557 2.61566e-15 -42.7169
v  19.596 2.14613e-16 -3.5049
v  25.5483 -5.14914e-17 0.840918

# 0 UV coordinates

# 143 vertex normals
vn 0 1 0
vn -0.113861 0.972349 0.203894
vn -0.113861 0.972349 0.203894
vn -0.113861 0.972349 0.203893
vn -0.113861 0.972349 0.203894
vn 0 -1 0
vn 0.113863 0.972348 -0.203897
vn 0.113863 0.972348 -0.203897
vn 0.113863 0.972348 -0.203898
vn 0.113863 0.972348 -0.203897
vn -0.0817897 0.990334 0.112024
vn -0.0819028 0.990469 0.110735
vn -0.0820503 0.990272 0.112381
vn -0.0820378 0.990277 0.112341
vn -0.589667 0 0.807646
vn -0.589667 0 0.807646
vn 0.0817906 0.990334 -0.112026
vn 0.0817835 0.99033 -0.112066
vn 0.0817583 0.990341 -0.111981
vn 0.0818059 0.990263 -0.112635
vn -0.206949 0.975123 -0.0794244
vn -0.206949 0.975123 -0.0794243
vn -0.206949 0.975123 -0.0794244
vn -0.206949 0.975122 -0.0794245
vn -0.206949 0.975123 -0.0794243
vn -0.206949 0.975123 -0.0794244
vn 0.206949 0.975122 0.0794247
vn 0.206949 0.975122 0.0794246
vn 0.20695 0.975122 0.0794247
vn 0.206949 0.975122 0.0794247
vn 0.206949 0.975122 0.0794246
vn 0.18526 0.980114 0.0711004
vn 0.187489 0.979553 0.0729569
vn 0.184683 0.980239 0.0708791
vn 0.184787 0.980214 0.0709447
vn 0.184755 0.980223 0.0709067
vn -0.185294 0.980109 -0.0710847
vn -0.185331 0.980099 -0.0711277
vn -0.185331 0.980099 -0.0711277
vn -0.18396 0.980418 -0.0702861
vn -0.184754 0.980223 -0.0709064
vn -0.184754 0.980224 -0.0709064
vn 0.22868 0.97167 0.0596981
vn 0.196036 0.97926 0.0511763
vn -0.10742 0.975123 0.193898
vn 0.0895716 0.978321 -0.186722
vn -4.27478e-07 -1 -1.64061e-07
vn 1.5592e-08 -1 -2.13557e-08
vn 2.23337e-07 -1 2.09322e-08
vn 5.62904e-08 -1 -7.70989e-08
vn 3.53311e-07 -1 -1.21653e-07
vn 1.8119e-23 -1 -6.12323e-17
vn 5.36792e-23 -1 -6.12324e-17
vn 1.65573e-23 -1 -6.12323e-17
vn -3.76007e-23 -1 -6.12323e-17
vn 4.43561e-23 -1 -6.12324e-17
vn 2.23262e-23 -1 -6.12324e-17
vn 2.54474e-23 -1 -6.12324e-17
vn 1.59783e-23 -1 -6.12323e-17
vn -0.589668 3.81089e-05 0.807646
vn -0.589667 3.7998e-05 0.807646
vn -0.589667 3.7998e-05 0.807646
vn -0.589667 3.82996e-05 0.807646
vn -0.589667 3.81396e-05 0.807646
vn -0.589667 3.8057e-05 0.807646
vn -0.589667 3.80771e-05 0.807646
vn -0.589667 3.78513e-05 0.807646
vn -0.589667 3.80382e-05 0.807646
vn -0.589667 3.80643e-05 0.807646
vn 0.589667 -3.80798e-05 -0.807646
vn 0.589667 -3.80495e-05 -0.807646
vn 0.589667 -3.80508e-05 -0.807646
vn 0.589667 -3.80407e-05 -0.807646
vn -0.933604 8.56335e-06 -0.358306
vn -0.933604 8.59351e-06 -0.358306
vn -0.933604 8.59349e-06 -0.358306
vn -0.933604 8.5013e-06 -0.358306
vn 0.48756 -3.79098e-05 -0.873089
vn 0.487561 -3.75454e-05 -0.873089
vn 0.48756 -3.98669e-05 -0.873089
vn 0.48756 -3.73282e-05 -0.873089
vn 0.487561 -3.69736e-05 -0.873089
vn 0.48756 -3.79098e-05 -0.873089
vn 0.951347 -1.05583e-05 0.30812
vn 0.951347 -1.05174e-05 0.30812
vn 0.951348 -1.06275e-05 0.30812
vn 0.951347 -1.03704e-05 0.308121
vn -0.589667 3.81037e-05 0.807646
vn -0.589667 3.80831e-05 0.807646
vn -0.589667 3.80714e-05 0.807646
vn -0.589667 3.82262e-05 0.807646
vn -0.589667 3.83976e-05 0.807646
vn -0.589667 3.8016e-05 0.807646
vn -0.589667 3.80132e-05 0.807646
vn -0.487561 3.82057e-05 0.873089
vn -0.487561 3.79098e-05 0.873089
vn -0.487561 3.79098e-05 0.873089
vn -0.487561 3.79098e-05 0.873089
vn -0.933604 8.52337e-06 -0.358306
vn -0.933605 5.48017e-06 -0.358305
vn -0.933604 1.05763e-05 -0.358306
vn -0.933604 8.62187e-06 -0.358306
vn -0.933604 8.33938e-06 -0.358306
vn 0.933604 -8.52338e-06 0.358306
vn 0.933604 -8.4994e-06 0.358306
vn 0.933604 -9.13361e-06 0.358306
vn 0.933604 -8.52338e-06 0.358306
vn -0.933604 8.57269e-06 -0.358306
vn -0.933604 7.99746e-06 -0.358306
vn -0.933604 8.78674e-06 -0.358306
vn -0.933604 8.56217e-06 -0.358306
vn -0.933604 8.74936e-06 -0.358306
vn -0.933604 8.47699e-06 -0.358306
vn 0.933604 -8.26071e-06 0.358306
vn 0.933604 -8.65133e-06 0.358306
vn 0.933604 -8.65133e-06 0.358306
vn 0.933604 -8.36953e-06 0.358306
vn 0.589667 -3.79893e-05 -0.807646
vn 0.589667 -3.79315e-05 -0.807646
vn 0.589668 -3.79315e-05 -0.807646
vn 0.589667 -3.80534e-05 -0.807646
vn 0.933604 -8.5332e-06 0.358306
vn 0.951347 -1.05413e-05 0.30812
vn 0.951347 -1.04631e-05 0.30812
vn 0.487561 -3.79508e-05 -0.873089
vn 0.487561 -3.7999e-05 -0.873089
vn 0.967573 -1.31456e-05 0.252591
vn 0.967573 -1.25656e-05 0.25259
vn -0.48756 3.79678e-05 0.873089
vn -0.48756 3.79039e-05 0.873089
vn -0.484605 3.77724e-05 0.874733
vn -0.484605 3.7988e-05 0.874733
vn 0.967573 -1.26597e-05 0.252591
vn 0.967573 -1.24385e-05 0.25259
vn -0.484605 3.79077e-05 0.874733
vn 0.432516 -3.74363e-05 -0.901626
vn 0.432516 -3.79805e-05 -0.901626
vn 0.933604 -8.54624e-06 0.358306
vn 0.933604 -8.53878e-06 0.358306
vn -0.967573 1.26719e-05 -0.252591
vn -0.967573 1.26047e-05 -0.25259
vn 0.933604 -8.56527e-06 0.358306
vn 0.933604 -8.56527e-06 0.358306

# Mesh 'defaultobject' with 194 faces
g defaultobject
usemtl DefaultMaterial
f  1//1 2//1 3//1
f  2//1 1//1 4//1
f  2//1 4//1 5//1
f  5//1 4//1 6//1
f  7//1 8//1 9//1
f  8//1 7//1 10//1
f  10//1 7//1 11//1
f  11//1 7//1 12//1
f  11//1 12//1 13//1
f  13//1 12//1 14//1
f  13//1 14//1 15//1
f  15//1 14//1 2//1
f  15//1 2//1 16//1
f  16//1 2//1 17//1
f  17//1 2//1 18//1
f  17//1 18//1 19//1
f  18//1 2//1 5//1
f  20//1 21//1 22//1
f  21//1 20//1 23//1
f  21//1 23//1 24//1
f  24//1 23//1 25//1
f  24//1 25//1 19//1
f  24//1 19//1 26//1
f  26//1 19//1 18//1
f  24//1 26//1 27//1
f  24//1 27//1 28//1
f  24//1 28//1 29//1
f  30//2 31//2 32//2
f  31//2 30//2 33//3
f  33//3 30//2 34//4
f  34//4 30//2 35//5
f  35//6 30//6 36//6
f  32//7 37//7 38//7
f  37//7 32//7 39//8
f  39//8 32//7 40//9
f  40//9 32//7 34//10
f  34//1 32//1 31//1
f  34//6 31//6 33//6
f  41//1 1//1 42//1
f  1//1 41//1 43//1
f  1//1 43//1 44//1
f  44//1 43//1 45//1
f  44//1 45//1 46//1
f  46//1 45//1 47//1
f  47//1 45//1 29//1
f  29//1 45//1 24//1
f  48//11 49//11 50//11
f  49//12 48//12 51//12
f  51//13 48//13 52//13
f  52//14 48//14 53//14
f  53//15 48//15 54//15
f  53//15 54//15 55//16
f  50//17 56//17 57//17
f  56//18 50//18 58//18
f  58//19 50//19 59//19
f  58//20 59//20 52//20
f  59//6 50//6 49//6
f  60//21 32//21 38//21
f  32//21 60//21 61//22
f  32//21 61//22 62//23
f  32//21 62//23 63//24
f  63//24 62//23 64//25
f  64//25 62//23 65//26
f  63//27 30//27 32//27
f  30//27 63//27 64//28
f  30//27 64//28 66//29
f  66//29 64//28 65//30
f  66//29 65//30 67//31
f  68//32 69//32 70//32
f  69//33 68//33 71//33
f  69//34 71//34 50//34
f  69//35 50//35 72//35
f  72//36 50//36 57//36
f  73//37 70//37 74//37
f  70//38 73//38 75//38
f  70//38 75//38 48//39
f  70//40 48//40 76//40
f  76//41 48//41 71//41
f  71//41 48//41 50//42
f  77//1 78//1 79//1
f  78//1 77//1 80//1
f  78//1 80//1 81//1
f  35//43 40//43 34//43
f  53//44 58//44 52//44
f  62//45 67//45 65//45
f  69//46 74//46 70//46
f  82//1 83//1 84//1
f  83//1 82//1 85//1
f  86//47 87//47 88//47
f  87//47 86//47 89//48
f  89//48 86//47 90//49
f  89//48 90//49 91//50
f  91//50 90//49 92//51
f  90//49 86//47 93//52
f  93//52 86//47 94//53
f  94//53 86//47 95//54
f  95//54 86//47 96//55
f  96//55 86//47 97//56
f  96//55 97//56 98//57
f  98//57 97//56 99//58
f  92//51 100//59 101//59
f  100//59 92//51 90//49
f  9//60 91//60 92//60
f  91//60 9//60 79//61
f  91//60 79//61 89//62
f  89//62 79//61 87//63
f  87//63 79//61 88//64
f  79//61 9//60 8//65
f  88//64 78//66 21//66
f  78//66 88//64 79//61
f  21//66 78//66 83//67
f  83//67 78//66 84//68
f  21//66 83//67 22//69
f  14//70 100//70 90//70
f  100//70 14//70 101//71
f  101//71 14//70 12//72
f  101//71 12//72 7//73
f  21//74 86//74 88//74
f  86//74 21//74 24//75
f  86//74 24//75 97//76
f  97//76 24//75 45//77
f  38//78 47//78 29//78
f  47//78 38//78 46//79
f  46//79 38//78 44//80
f  44//80 38//78 37//81
f  44//80 37//81 39//82
f  44//80 39//82 40//83
f  43//84 98//84 99//84
f  98//84 43//84 96//85
f  96//85 43//84 41//86
f  96//85 41//86 42//87
f  20//88 54//88 48//88
f  54//88 20//88 55//89
f  55//89 10//90 53//90
f  10//90 55//89 20//88
f  10//90 20//88 85//91
f  10//90 85//91 82//92
f  10//90 82//92 77//93
f  77//93 82//92 81//94
f  77//93 81//1 80//1
f  35//95 4//95 1//95
f  4//95 35//95 36//96
f  4//95 36//96 6//97
f  6//97 36//96 30//98
f  62//99 27//99 26//99
f  27//99 62//99 28//100
f  28//100 62//99 29//101
f  29//101 62//99 61//102
f  29//101 61//102 60//103
f  29//101 60//103 38//99
f  30//104 5//104 6//104
f  5//104 30//104 18//105
f  18//105 30//104 66//106
f  18//105 66//106 67//107
f  48//108 23//108 20//108
f  23//108 48//108 25//109
f  25//109 48//108 19//110
f  19//110 48//108 75//111
f  19//110 75//111 73//112
f  19//110 73//112 74//113
f  69//114 16//114 17//114
f  16//114 69//114 72//115
f  16//114 72//115 15//116
f  15//116 72//115 57//117
f  11//118 56//118 58//118
f  56//118 11//118 13//119
f  56//118 13//119 57//120
f  57//120 13//119 15//121
f  85//122 22//122 83//122
f  22//122 85//122 20//122
f  101//123 9//123 92//123
f  9//123 101//123 7//124
f  45//125 99//125 97//125
f  99//125 45//125 43//126
f  44//127 35//127 1//127
f  35//127 44//127 40//128
f  96//129 1//95 95//129
f  1//95 96//129 42//130
f  94//131 2//131 93//131
f  2//131 94//131 3//132
f  95//133 3//133 94//133
f  3//133 95//133 1//127
f  11//134 53//134 10//134
f  53//134 11//134 58//134
f  18//135 62//135 26//135
f  62//135 18//135 67//135
f  74//136 17//136 19//136
f  17//136 74//136 69//137
f  81//138 84//138 78//138
f  84//138 81//138 82//139
f  8//140 77//140 79//140
f  77//140 8//140 10//141
f  93//142 14//142 90//142
f  14//142 93//142 2//143

