# {"id":"BLDG_00030000001cdcdd","idOriginal":"BLDG_00030000001cdcdd","origin":[13.35604090779578,52.561661550816055],"elevation":39.8400001525879}
# Longitude: 13.35604090779578
# Latitude: 52.561661550816055
# Elevation: 39.8400001525879

# File produced by Open Asset Import Library (http://www.assimp.sf.net)
# (assimp v3.1.0)

mtllib BLDG_00030000001cdcdd.obj.mtl

# 10 vertex positions
v  5.30094 17.243 -1.30501
v  3.75545 11.908 14.846
v  9.0801 17.243 13.6128
v  0.000253706 11.908 -0.0003776
v  10.6014 11.908 -2.60931
v  14.4045 11.908 12.38
v  3.75519 -9.09076e-16 14.8463
v  10.6011 1.59751e-16 -2.60894
v  14.4043 -7.58079e-16 12.3804
v  0 0 0

# 0 UV coordinates

# 14 vertex normals
vn -0.677192 0.715528 0.171554
vn -0.677615 0.715165 0.171394
vn 0.677151 0.715506 -0.171809
vn 0.677572 0.715145 -0.171651
vn 1.253e-24 -1 -6.12323e-17
vn 0 -1 -6.12323e-17
vn 0.225598 2.6091e-05 0.974221
vn 0.225598 2.60837e-05 0.974221
vn -0.969469 2.84296e-05 0.245215
vn -0.969469 2.84308e-05 0.245215
vn -0.238969 -2.56998e-05 -0.971027
vn -0.238969 -2.57048e-05 -0.971027
vn -0.238969 -2.56736e-05 -0.971027
vn 0.969288 -2.84423e-05 -0.24593

# Mesh 'defaultobject' with 16 faces
g defaultobject
usemtl DefaultMaterial
f  1//1 2//1 3//1
f  2//2 1//2 4//2
f  5//3 3//3 6//3
f  3//4 5//4 1//4
f  7//5 8//5 9//5
f  8//5 7//5 10//6
f  6//7 7//7 9//7
f  7//7 6//7 2//7
f  2//7 6//7 3//8
f  2//9 10//9 7//9
f  10//9 2//9 4//10
f  4//11 8//11 10//11
f  8//11 4//11 5//12
f  5//12 4//11 1//13
f  8//14 6//14 9//14
f  6//14 8//14 5//14

