# {"id":"BLDG_000300000017d76b","idOriginal":"BLDG_000300000017d76b","origin":[13.396298272927522,52.5106037604536],"elevation":30.2700004577637}
# Longitude: 13.396298272927522
# Latitude: 52.5106037604536
# Elevation: 30.2700004577637

# File produced by Open Asset Import Library (http://www.assimp.sf.net)
# (assimp v3.1.0)

mtllib BLDG_000300000017d76b.obj.mtl

# 8 vertex positions
v  0 0 0
v  51.8073 -1.82036e-15 29.7288
v  2.8144 -2.07097e-15 33.8215
v  49.0674 2.45809e-16 -4.01436
v  2.81471 14.3415 33.821
v  0.000306298 14.3415 -0.00045321
v  51.8076 14.3415 29.7283
v  49.0678 14.3415 -4.01481

# 0 UV coordinates

# 10 vertex normals
vn 4.06121e-24 -1 -6.12323e-17
vn 0 -1 -6.12323e-17
vn -0.996556 2.39137e-05 0.0829269
vn -0.996556 2.39045e-05 0.0829269
vn 0.0832462 2.97568e-05 0.996529
vn 0.0832462 2.97351e-05 0.996529
vn 0.99672 -2.40265e-05 -0.0809315
vn -0.0815407 -2.97546e-05 -0.99667
vn -0.0815407 -2.97575e-05 -0.99667
vn 0 1 0

# Mesh 'defaultobject' with 12 faces
g defaultobject
usemtl DefaultMaterial
f  1//1 2//1 3//1
f  2//1 1//1 4//2
f  5//3 1//3 3//3
f  1//3 5//3 6//4
f  2//5 5//5 3//5
f  5//5 2//5 7//6
f  4//7 7//7 2//7
f  7//7 4//7 8//7
f  6//8 4//8 1//8
f  4//8 6//8 8//9
f  5//10 8//10 6//10
f  8//10 5//10 7//10

