# {"id":"BLDG_000300000018968c","idOriginal":"BLDG_000300000018968c","origin":[13.3966070349632,52.53304960323051],"elevation":35.9900016784668}
# Longitude: 13.3966070349632
# Latitude: 52.53304960323051
# Elevation: 35.9900016784668

# File produced by Open Asset Import Library (http://www.assimp.sf.net)
# (assimp v3.1.0)

mtllib BLDG_000300000018968c.obj.mtl

# 8 vertex positions
v  2.99132 14.964 19.278
v  21.3208 15.943 -3.28156
v  0.000340529 15.943 -0.00050457
v  24.3118 14.964 15.9969
v  21.3205 2.00907e-16 -3.28106
v  0 0 0
v  24.3115 -9.79557e-16 15.9974
v  2.991 -1.18046e-15 19.2784

# 0 UV coordinates

# 11 vertex normals
vn 0.00762271 0.998743 0.0495327
vn 0.00762271 0.998743 0.0495327
vn -0.152102 -2.80314e-05 -0.988365
vn -0.152102 -2.80364e-05 -0.988365
vn 0.988178 -2.60033e-05 -0.153313
vn 0.988178 -2.59151e-05 -0.153313
vn 0.152102 2.79842e-05 0.988365
vn -0.988178 2.59596e-05 0.153313
vn -0.988178 2.59588e-05 0.153313
vn 0 -1 -6.12323e-17
vn -2.01273e-24 -1 -6.12323e-17

# Mesh 'defaultobject' with 12 faces
g defaultobject
usemtl DefaultMaterial
f  1//1 2//1 3//1
f  2//1 1//1 4//2
f  3//3 5//3 6//3
f  5//3 3//3 2//4
f  5//5 4//5 7//5
f  4//5 5//5 2//6
f  7//7 1//7 8//7
f  1//7 7//7 4//7
f  1//8 6//8 8//8
f  6//8 1//8 3//9
f  5//10 8//10 6//10
f  8//10 5//10 7//11

