# {"id":"BLDG_0003000f004118c4","idOriginal":"BLDG_0003000f004118c4","origin":[13.342076441446524,52.553937384439884],"elevation":34.689998626709}
# Longitude: 13.342076441446524
# Latitude: 52.553937384439884
# Elevation: 34.689998626709

# File produced by Open Asset Import Library (http://www.assimp.sf.net)
# (assimp v3.1.0)

mtllib BLDG_0003000f004118c4.obj.mtl

# 23 vertex positions
v  4.26593 -2.52785e-16 4.12829
v  12.0409 -2.84814e-16 4.65137
v  8.53187 -5.0557e-16 8.25658
v  21.3789 -3.53619e-16 5.77504
v  17.3684 -6.01973e-16 9.83097
v  25.3894 -1.05265e-16 1.7191
v  19.9974 2.15734e-16 -3.52321
v  0 0 0
v  11.4848 7.22514e-16 -11.7996
v  3.52828 2.21966e-16 -3.62498
v  25.3897 16.8119 1.71857
v  17.3687 16.8119 9.83043
v  21.3793 21.8746 5.77434
v  19.9978 16.8119 -3.52374
v  11.4851 16.8119 -11.8001
v  8.53222 16.8119 8.25605
v  0.00035786 16.8119 -0.000532839
v  4.2664 21.8746 4.1276
v  3.52863 16.8119 -3.62551
v  12.0413 16.8119 4.65083
v  16.0196 21.8746 0.563385
v  11.7633 21.8746 -3.57479
v  7.78506 21.8746 0.512499

# 0 UV coordinates

# 39 vertex normals
vn -5.31771e-24 -1 -6.12323e-17
vn 4.99658e-24 -1 -6.12323e-17
vn 4.372e-24 -1 -6.12323e-17
vn 4.9368e-24 -1 -6.12323e-17
vn 0 -1 -6.12323e-17
vn 1 0 0
vn 0.711078 7.11909e-06 0.703113
vn 0.711078 7.1406e-06 0.703113
vn 0.711078 7.16985e-06 0.703113
vn 0.711078 7.19943e-06 0.703113
vn 0.697086 -3.75937e-05 -0.716987
vn 0.697086 -3.76303e-05 -0.716987
vn 0.697086 -3.75643e-05 -0.716987
vn 0 1 5.55112e-17
vn -0.695419 3.75801e-05 0.718605
vn -0.695419 3.75728e-05 0.718605
vn -0.695419 3.75784e-05 0.718605
vn -0.695419 3.75702e-05 0.718605
vn -0.716601 -6.87341e-06 -0.697484
vn -0.716601 -6.84046e-06 -0.697484
vn -0.716601 -6.84249e-06 -0.697484
vn -0.716601 -6.85254e-06 -0.697484
vn -0.697086 3.74841e-05 0.716987
vn -0.697086 3.75439e-05 0.716987
vn 0.716601 6.87795e-06 0.697484
vn 0.716601 6.8554e-06 0.697484
vn 0.462758 0.747869 -0.475969
vn 0.462758 0.747869 -0.475969
vn 0.462758 0.747869 -0.475969
vn 0.462758 0.74787 -0.475969
vn -0.46274 0.747891 0.475951
vn -0.46274 0.747891 0.475951
vn -0.46274 0.747891 0.475951
vn -0.465002 0.760874 -0.452597
vn -0.465002 0.760874 -0.452597
vn -0.465002 0.760874 -0.452597
vn 0.464999 0.760877 0.452594
vn 0.464999 0.760877 0.452594
vn 0.464999 0.760877 0.452594

# Mesh 'defaultobject' with 42 faces
g defaultobject
usemtl DefaultMaterial
f  1//1 2//1 3//1
f  2//1 4//2 5//2
f  4//2 2//1 6//3
f  6//3 2//1 7//4
f  7//4 2//1 1//1
f  7//4 1//1 8//5
f  7//4 8//5 9//5
f  9//6 8//6 10//6
f  11//7 4//7 6//7
f  4//7 11//7 5//8
f  5//8 11//7 12//9
f  12//9 11//7 13//10
f  6//11 14//11 11//11
f  14//11 6//11 15//12
f  15//12 6//11 9//13
f  9//14 6//14 7//14
f  16//15 1//15 3//15
f  1//15 16//15 8//16
f  8//16 16//15 17//17
f  17//17 16//15 18//18
f  9//19 19//19 15//19
f  19//19 9//19 17//20
f  17//20 9//19 10//21
f  17//20 10//21 8//22
f  12//23 2//23 5//23
f  2//23 12//23 20//24
f  2//25 16//25 3//25
f  16//25 2//25 20//26
f  11//27 21//27 13//27
f  21//27 11//27 22//28
f  22//28 11//27 14//29
f  22//28 14//29 15//30
f  13//31 20//31 12//31
f  20//31 13//31 21//32
f  20//31 21//32 22//33
f  15//34 23//34 22//34
f  23//34 15//34 19//34
f  23//34 19//34 18//35
f  18//35 19//34 17//36
f  23//37 20//37 22//37
f  20//37 23//37 16//38
f  16//38 23//37 18//39

