# {"id":"BLDG_00030009007ed8b0","idOriginal":"BLDG_00030009007ed8b0","origin":[13.380891226419706,52.56613007515504],"elevation":41.9799995422363}
# Longitude: 13.380891226419706
# Latitude: 52.56613007515504
# Elevation: 41.9799995422363

# File produced by Open Asset Import Library (http://www.assimp.sf.net)
# (assimp v3.1.0)

mtllib BLDG_00030009007ed8b0.obj.mtl

# 52 vertex positions
v  0.581295 7.86723 2.68668
v  18.6049 7.86723 26.8877
v  0.000167884 7.86723 -0.00024953
v  6.38303 7.86723 29.5439
v  27.4239 7.86723 -7.64863
v  27.1995 7.86723 -7.27299
v  29.4819 7.86723 1.83985
v  27.1186 7.86723 -7.57724
v  29.1248 7.86723 1.58618
v  15.7593 7.86723 -4.80086
v  25.1291 7.86723 2.421
v  29.8948 7.86723 24.4268
v  14.2929 7.86723 -5.77261
v  11.9684 7.86723 -5.26789
v  11.7305 7.86723 -5.20742
v  10.7903 7.86723 -3.71452
v  8.4471 7.86723 -3.22328
v  23.7799 7.86723 25.7513
v  6.96942 7.86723 -4.17815
v  6.73416 7.86723 -4.13075
v  4.40109 7.86723 -3.62406
v  3.46143 7.86723 -2.12809
v  24.2996 7.86723 28.203
v  1.00537 7.86723 -1.60513
v  19.1301 7.86723 29.3386
v  29.197 7.86723 1.90034
v  27.4238 4.68329e-16 -7.64839
v  27.1993 4.45327e-16 -7.27274
v  27.1185 4.63957e-16 -7.57699
v  1.00521 9.82705e-17 -1.60488
v  0.581127 -1.64527e-16 2.68693
v  0 0 0
v  3.46126 1.30293e-16 -2.12784
v  6.38286 -1.80906e-15 29.5442
v  4.40092 2.21894e-16 -3.62381
v  6.734 2.5292e-16 -4.1305
v  6.96925 2.55823e-16 -4.1779
v  8.44693 1.97353e-16 -3.22303
v  10.7901 2.27433e-16 -3.71427
v  11.7303 3.18847e-16 -5.20717
v  11.9683 3.2255e-16 -5.26764
v  14.2927 3.53455e-16 -5.77236
v  15.7591 2.93953e-16 -4.80061
v  25.129 -1.48259e-16 2.42125
v  29.1246 -9.71411e-17 1.58643
v  29.4817 -1.12674e-16 1.8401
v  29.1968 -1.16377e-16 1.90059
v  18.6047 -1.64641e-15 26.888
v  23.7798 -1.57683e-15 25.7515
v  29.8946 -1.49572e-15 24.427
v  19.1299 -1.79649e-15 29.3389
v  24.2995 -1.72695e-15 28.2032

# 0 UV coordinates

# 58 vertex normals
vn -0 1 0
vn 2.4105e-23 -1 -6.12323e-17
vn 0 -1 -6.12323e-17
vn 1.98533e-22 -1 -6.12323e-17
vn -8.64456e-23 -1 -6.12323e-17
vn 8.57144e-22 -1 -6.12323e-17
vn 0 -1 -6.12323e-17
vn 0 -1 -6.12323e-17
vn 0 -1 -6.12323e-17
vn -5.35568e-23 -1 -6.12324e-17
vn 1.38154e-24 -1 -6.12323e-17
vn 9.23536e-24 -1 -6.12323e-17
vn 1.76221e-23 -1 -6.12324e-17
vn -7.9941e-24 -1 -6.12323e-17
vn 3.00636e-24 -1 -6.12323e-17
vn -1.89349e-23 -1 -6.12324e-17
vn 3.29266e-23 -1 -6.12323e-17
vn -0.246289 -2.54683e-05 -0.969196
vn -0.246291 -2.5527e-05 -0.969196
vn -0.846173 1.14401e-06 -0.532909
vn -0.846172 1.16016e-06 -0.532909
vn -0.205188 -2.66768e-05 -0.978722
vn 0.542741 -3.82874e-05 -0.8399
vn 0.542741 -3.8229e-05 -0.8399
vn -0.197496 -2.68614e-05 -0.980304
vn -0.197497 -2.69088e-05 -0.980303
vn -0.21223 -2.64789e-05 -0.97722
vn -0.21223 -2.64493e-05 -0.97722
vn -0.846805 1.21508e-06 -0.531903
vn -0.846805 1.18942e-06 -0.531903
vn -0.20826 -2.65579e-05 -0.978074
vn -0.20826 -2.65844e-05 -0.978074
vn -0.847486 1.24878e-06 -0.530817
vn -0.847486 1.26733e-06 -0.530817
vn -0.977401 2.75675e-05 0.211391
vn -0.977401 2.75622e-05 0.211391
vn -0.977454 2.756e-05 0.211151
vn -0.977454 2.7561e-05 0.211151
vn 0.212375 2.65176e-05 0.977188
vn -0.977802 2.7516e-05 0.209531
vn 0.21456 2.64415e-05 0.976711
vn 0.978264 -2.74614e-05 -0.207363
vn 0.211699 2.65241e-05 0.977335
vn 0.977344 -2.76082e-05 -0.211657
vn 0.204513 2.669e-05 0.978864
vn 0.204513 2.66603e-05 0.978864
vn -0.974635 2.78949e-05 0.223802
vn 0.207654 2.65927e-05 0.978202
vn 0.207655 2.66082e-05 0.978202
vn 0.977278 -2.75676e-05 -0.211964
vn -0.227708 -2.60674e-05 -0.973729
vn -0.227707 -2.60085e-05 -0.97373
vn -0.966441 2.87621e-05 0.256887
vn -0.966442 2.87776e-05 0.256887
vn -0.211216 -2.65371e-05 -0.977439
vn -0.211216 -2.64779e-05 -0.977439
vn 0.552401 -3.82598e-05 -0.833578
vn -0.212186 -2.65098e-05 -0.977229

# Mesh 'defaultobject' with 100 faces
g defaultobject
usemtl DefaultMaterial
f  1//1 2//1 3//1
f  2//1 1//1 4//1
f  5//1 6//1 7//1
f  6//1 5//1 8//1
f  7//1 6//1 9//1
f  9//1 6//1 10//1
f  9//1 10//1 11//1
f  11//1 10//1 12//1
f  12//1 10//1 13//1
f  12//1 13//1 14//1
f  12//1 14//1 15//1
f  12//1 15//1 16//1
f  12//1 16//1 17//1
f  12//1 17//1 18//1
f  18//1 17//1 19//1
f  18//1 19//1 20//1
f  18//1 20//1 21//1
f  18//1 21//1 22//1
f  18//1 22//1 23//1
f  23//1 22//1 24//1
f  23//1 24//1 2//1
f  23//1 2//1 25//1
f  2//1 24//1 3//1
f  26//1 7//1 9//1
f  27//2 28//2 29//2
f  30//3 31//3 32//3
f  31//3 30//3 33//3
f  31//3 33//3 34//3
f  34//3 33//3 35//4
f  34//3 35//4 36//5
f  34//3 36//5 37//6
f  34//3 37//6 38//7
f  34//3 38//7 39//3
f  34//3 39//3 40//3
f  34//3 40//3 41//8
f  34//3 41//8 42//9
f  34//3 42//9 43//7
f  34//3 43//7 28//2
f  34//3 28//2 27//2
f  34//3 27//2 44//10
f  44//10 27//2 45//11
f  45//11 27//2 46//12
f  45//11 46//12 47//13
f  44//10 48//9 34//3
f  48//9 44//10 49//14
f  49//14 44//10 50//15
f  48//9 49//14 51//16
f  52//17 51//16 49//14
f  15//18 41//18 40//18
f  41//18 15//18 14//19
f  16//20 40//20 39//20
f  40//20 16//20 15//21
f  17//22 39//22 38//22
f  39//22 17//22 16//22
f  19//23 38//23 37//23
f  38//23 19//23 17//24
f  20//25 37//25 36//25
f  37//25 20//25 19//26
f  21//27 36//27 35//27
f  36//27 21//27 20//28
f  22//29 35//29 33//29
f  35//29 22//29 21//30
f  24//31 33//31 30//31
f  33//31 24//31 22//32
f  3//33 30//33 32//33
f  30//33 3//33 24//34
f  1//35 32//35 31//35
f  32//35 1//35 3//36
f  4//37 31//37 34//37
f  31//37 4//37 1//38
f  4//39 48//39 2//39
f  48//39 4//39 34//39
f  25//40 48//40 51//40
f  48//40 25//40 2//40
f  25//41 52//41 23//41
f  52//41 25//41 51//41
f  23//42 49//42 18//42
f  49//42 23//42 52//42
f  18//43 50//43 12//43
f  50//43 18//43 49//43
f  12//44 44//44 11//44
f  44//44 12//44 50//44
f  11//45 45//45 9//45
f  45//45 11//45 44//46
f  26//47 45//47 47//47
f  45//47 26//47 9//47
f  26//48 46//48 7//48
f  46//48 26//48 47//49
f  7//50 27//50 5//50
f  27//50 7//50 46//50
f  8//51 27//51 29//51
f  27//51 8//51 5//52
f  6//53 29//53 28//53
f  29//53 6//53 8//54
f  10//55 28//55 43//55
f  28//55 10//55 6//56
f  13//57 43//57 42//57
f  43//57 13//57 10//57
f  14//58 42//58 41//58
f  42//58 14//58 13//58

