# {"id":"BLDG_00030009007f8ff9","idOriginal":"BLDG_00030009007f8ff9","origin":[13.372132463819648,52.55367873412845],"elevation":36.7200012207031}
# Longitude: 13.372132463819648
# Latitude: 52.55367873412845
# Elevation: 36.7200012207031

# File produced by Open Asset Import Library (http://www.assimp.sf.net)
# (assimp v3.1.0)

mtllib BLDG_00030009007f8ff9.obj.mtl

# 72 vertex positions
v  2.53705 24.6472 -1.86535
v  3.6953 24.6472 -4.93807
v  3.31519 24.6472 -5.07233
v  0.00052565 24.6472 -0.00078114
v  0.578865 24.6472 -2.36156
v  1.86162 24.6472 0.465591
v  4.22597 24.6472 -12.0094
v  14.3758 24.6472 -9.69038
v  4.31711 24.6472 -12.3726
v  5.01205 24.6472 -11.8174
v  5.00007 24.6472 -11.7007
v  4.97337 24.6472 -11.4522
v  4.3993 24.6472 -9.57228
v  4.84228 24.6472 -9.5029
v  1.16631 24.6472 3.3931
v  5.78471 24.6472 14.3802
v  0.687857 24.6472 3.61599
v  16.1249 24.6472 -9.17617
v  15.9608 24.6472 -8.54229
v  16.4182 24.6472 -8.4576
v  15.1645 24.6472 -5.4687
v  6.01802 24.6472 13.8897
v  6.11657 24.6472 14.2275
v  14.694 24.6472 -2.96984
v  8.85658 24.6472 12.0608
v  9.02806 24.6472 12.4461
v  12.1187 24.6472 7.89122
v  12.5797 24.6472 6.37111
v  12.092 24.6472 10.7685
v  12.8527 24.6472 8.15816
v  18.2387 24.6472 -2.10944
v  15.3446 24.6472 7.03168
v  16.8043 24.6472 3.89977
v  17.2857 24.6472 4.03587
v  16.4852 24.6472 7.35739
v  15.7241 24.6472 -5.33805
v  15.164 3.34813e-16 -5.46792
v  14.6935 1.81803e-16 -2.96906
v  15.7236 3.26813e-16 -5.33727
v  16.4177 5.17831e-16 -8.45682
v  15.9603 5.23016e-16 -8.54151
v  16.1244 5.6183e-16 -9.17539
v  14.3752 5.93317e-16 -9.6896
v  4.31658 7.57557e-16 -12.3718
v  4.22545 7.35316e-16 -12.0086
v  5.01153 7.23562e-16 -11.8167
v  4.99954 7.16415e-16 -11.6999
v  4.97284 7.01199e-16 -11.4514
v  4.39877 5.86086e-16 -9.5715
v  4.84175 5.81837e-16 -9.50212
v  3.69477 3.02322e-16 -4.93729
v  3.31467 3.10543e-16 -5.07154
v  2.53652 1.14172e-16 -1.86457
v  0.57834 1.44556e-16 -2.36078
v  0 0 0
v  1.8611 -2.8557e-17 0.466372
v  1.16578 -2.07815e-16 3.39388
v  0.687332 -2.21463e-16 3.61677
v  5.78418 -8.8058e-16 14.381
v  6.11604 -8.71231e-16 14.2283
v  6.0175 -8.50544e-16 13.8904
v  9.02754 -7.62149e-16 12.4468
v  8.85605 -7.3856e-16 12.0616
v  12.0915 -6.5943e-16 10.7693
v  12.8521 -4.99591e-16 8.15895
v  12.1182 -4.83246e-16 7.89201
v  12.5792 -3.90166e-16 6.37189
v  15.3441 -4.30614e-16 7.03246
v  16.4847 -4.50558e-16 7.35817
v  17.2851 -2.47174e-16 4.03665
v  16.8038 -2.3884e-16 3.90055
v  18.2382 1.29118e-16 -2.10866

# 0 UV coordinates

# 90 vertex normals
vn 0 1 0
vn 0.982732 -1.50876e-05 0.185035
vn -0.227358 3.57069e-05 0.973811
vn 0.97613 -1.39295e-05 0.217186
vn 0.97613 -1.38901e-05 0.217186
vn 0.182079 -3.50418e-05 -0.983284
vn 0.182079 -3.50348e-05 -0.983284
vn 0.968112 -1.27013e-05 0.250519
vn 0.968111 -1.27387e-05 0.25052
vn 0.282048 -3.64163e-05 -0.9594
vn 0.282048 -3.64272e-05 -0.9594
vn 0.257657 -3.61179e-05 -0.966236
vn 0.257657 -3.61129e-05 -0.966237
vn -0.969936 1.2967e-05 -0.243359
vn -0.969936 1.29857e-05 -0.243361
vn -0.237215 3.58424e-05 0.971457
vn -0.994768 1.79862e-05 -0.102161
vn -0.994768 1.7971e-05 -0.102158
vn -0.994277 1.78082e-05 -0.106834
vn -0.994277 1.78274e-05 -0.106836
vn -0.956402 1.11354e-05 -0.292052
vn -0.956402 1.11241e-05 -0.292052
vn -0.154746 3.46072e-05 0.987954
vn -0.969853 1.29641e-05 -0.24369
vn -0.969853 1.29547e-05 -0.24369
vn 0.333036 -3.69991e-05 -0.942914
vn 0.333037 -3.69841e-05 -0.942914
vn -0.971802 1.32557e-05 -0.2358
vn -0.971802 1.32417e-05 -0.235799
vn 0.245643 -3.59669e-05 -0.96936
vn 0.245643 -3.59581e-05 -0.96936
vn -0.971279 1.31734e-05 -0.237942
vn -0.971279 1.3172e-05 -0.237942
vn -0.243074 3.59261e-05 0.970008
vn -0.243074 3.59248e-05 0.970008
vn -0.972934 1.34246e-05 -0.231083
vn -0.972934 1.3424e-05 -0.231083
vn -0.422277 -1.97196e-05 -0.906467
vn -0.422277 -1.97206e-05 -0.906467
vn -0.903802 3.28306e-05 0.427951
vn -0.903802 3.28371e-05 0.427951
vn 0.417934 1.98789e-05 0.908477
vn 0.417934 1.9871e-05 0.908478
vn 0.959998 -2.93589e-05 -0.280008
vn 0.959998 -2.93515e-05 -0.280009
vn 0.432434 1.93853e-05 0.901666
vn 0.432434 1.93505e-05 0.901666
vn 0.913573 -3.23643e-05 -0.406675
vn 0.37093 2.15236e-05 0.928661
vn 0.960066 -1.16018e-05 0.279774
vn 0.341779 -3.70862e-05 -0.93978
vn 0.34178 -3.7068e-05 -0.93978
vn 0.956957 -1.12003e-05 0.290231
vn 0.956957 -1.12049e-05 0.290231
vn -0.232368 3.5777e-05 0.972628
vn -0.274597 3.63259e-05 0.96156
vn -0.274597 3.63341e-05 0.96156
vn 0.972168 -1.32587e-05 0.234286
vn 0.972168 -1.33352e-05 0.234287
vn 0.272073 -3.63053e-05 -0.962277
vn 0.272072 -3.63239e-05 -0.962277
vn 0.972671 -1.34153e-05 0.232187
vn 0.235877 -3.58243e-05 -0.971783
vn 0.235877 -3.58334e-05 -0.971783
vn 1.94706e-22 -1 -6.12325e-17
vn -8.05783e-22 -1 -6.12319e-17
vn 0 -1 -6.12323e-17
vn 8.57025e-23 -1 -6.12324e-17
vn -1.67712e-23 -1 -6.12323e-17
vn 9.62421e-24 -1 -6.12324e-17
vn 0 -1 -6.12324e-17
vn 0 -1 -6.12323e-17
vn -4.04339e-24 -1 -6.12323e-17
vn 8.17143e-24 -1 -6.12323e-17
vn 2.54498e-24 -1 -6.12324e-17
vn 2.77831e-25 -1 -6.12323e-17
vn 5.2157e-23 -1 -6.12326e-17
vn 1.11782e-24 -1 -6.12323e-17
vn -6.89831e-26 -1 -6.12323e-17
vn -3.00007e-23 -1 -6.12323e-17
vn 0 -1 -6.12324e-17
vn -6.06678e-23 -1 -6.12324e-17
vn 1.0928e-23 -1 -6.12324e-17
vn -1.42271e-23 -1 -6.12323e-17
vn 7.54929e-24 -1 -6.12324e-17
vn -3.88692e-23 -1 -6.12322e-17
vn 9.46659e-23 -1 -6.12326e-17
vn -2.84598e-23 -1 -6.12322e-17
vn 6.00555e-23 -1 -6.12323e-17
vn 1.17113e-23 -1 -6.12323e-17

# Mesh 'defaultobject' with 140 faces
g defaultobject
usemtl DefaultMaterial
f  1//1 2//1 3//1
f  4//1 1//1 5//1
f  1//1 4//1 6//1
f  7//1 8//1 9//1
f  8//1 7//1 10//1
f  8//1 10//1 11//1
f  8//1 11//1 12//1
f  8//1 12//1 13//1
f  8//1 13//1 14//1
f  8//1 14//1 2//1
f  8//1 2//1 1//1
f  8//1 1//1 6//1
f  8//1 6//1 15//1
f  16//1 15//1 17//1
f  15//1 16//1 8//1
f  8//1 16//1 18//1
f  18//1 16//1 19//1
f  19//1 16//1 20//1
f  20//1 16//1 21//1
f  21//1 16//1 22//1
f  22//1 16//1 23//1
f  22//1 24//1 21//1
f  24//1 22//1 25//1
f  25//1 22//1 26//1
f  25//1 27//1 28//1
f  27//1 25//1 29//1
f  27//1 29//1 30//1
f  24//1 28//1 31//1
f  28//1 24//1 25//1
f  31//1 28//1 32//1
f  31//1 32//1 33//1
f  33//1 32//1 34//1
f  34//1 32//1 35//1
f  36//1 20//1 21//1
f  37//2 24//2 38//2
f  24//2 37//2 21//2
f  39//3 21//3 37//3
f  21//3 39//3 36//3
f  40//4 36//4 39//4
f  36//4 40//4 20//5
f  19//6 40//6 41//6
f  40//6 19//6 20//7
f  42//8 19//8 41//8
f  19//8 42//8 18//9
f  8//10 42//10 43//10
f  42//10 8//10 18//11
f  9//12 43//12 44//12
f  43//12 9//12 8//13
f  7//14 44//14 45//14
f  44//14 7//14 9//15
f  46//16 7//16 45//16
f  7//16 46//16 10//16
f  11//17 46//17 47//17
f  46//17 11//17 10//18
f  12//19 47//19 48//19
f  47//19 12//19 11//20
f  13//21 48//21 49//21
f  48//21 13//21 12//22
f  50//23 13//23 49//23
f  13//23 50//23 14//23
f  2//24 50//24 51//24
f  50//24 2//24 14//25
f  3//26 51//26 52//26
f  51//26 3//26 2//27
f  1//28 52//28 53//28
f  52//28 1//28 3//29
f  5//30 53//30 54//30
f  53//30 5//30 1//31
f  4//32 54//32 55//32
f  54//32 4//32 5//33
f  56//34 4//34 55//34
f  4//34 56//34 6//35
f  15//36 56//36 57//36
f  56//36 15//36 6//37
f  17//38 57//38 58//38
f  57//38 17//38 15//39
f  16//40 58//40 59//40
f  58//40 16//40 17//41
f  60//42 16//42 59//42
f  16//42 60//42 23//43
f  61//44 23//44 60//44
f  23//44 61//44 22//45
f  62//46 22//46 61//46
f  22//46 62//46 26//47
f  63//48 26//48 62//48
f  26//48 63//48 25//48
f  64//49 25//49 63//49
f  25//49 64//49 29//49
f  65//50 29//50 64//50
f  29//50 65//50 30//50
f  27//51 65//51 66//51
f  65//51 27//51 30//52
f  67//53 27//53 66//53
f  27//53 67//53 28//54
f  68//55 28//55 67//55
f  28//55 68//55 32//55
f  69//56 32//56 68//56
f  32//56 69//56 35//57
f  70//58 35//58 69//58
f  35//58 70//58 34//59
f  33//60 70//60 71//60
f  70//60 33//60 34//61
f  72//62 33//62 71//62
f  33//62 72//62 31//62
f  24//63 72//63 38//63
f  72//63 24//63 31//64
f  58//65 60//65 59//65
f  60//65 58//65 61//66
f  61//66 58//65 62//67
f  62//67 58//65 63//68
f  63//68 58//65 64//69
f  64//69 58//65 66//70
f  64//69 66//70 65//71
f  66//70 58//65 67//72
f  54//73 53//73 55//73
f  68//74 70//74 69//74
f  70//74 68//74 67//72
f  70//74 67//72 58//65
f  70//74 58//65 57//75
f  70//74 57//75 56//76
f  70//74 56//76 71//77
f  71//77 56//76 72//78
f  72//78 56//76 55//73
f  72//78 55//73 53//73
f  72//78 53//73 51//79
f  51//79 53//73 52//80
f  51//79 38//81 72//78
f  38//81 51//79 50//72
f  38//81 50//72 37//67
f  48//82 50//72 49//82
f  50//72 48//82 41//83
f  41//83 48//82 42//84
f  42//84 48//82 43//85
f  43//85 48//82 47//86
f  43//85 47//86 46//87
f  43//85 46//87 44//88
f  44//88 46//87 45//89
f  37//67 40//90 39//90
f  40//90 37//67 50//72
f  40//90 50//72 41//83

