# {"id":"BLDG_0003000b0051c5b9","idOriginal":"BLDG_0003000b0051c5b9","origin":[13.385253341589157,52.52894963934859],"elevation":35.7200012207031}
# Longitude: 13.385253341589157
# Latitude: 52.52894963934859
# Elevation: 35.7200012207031

# File produced by Open Asset Import Library (http://www.assimp.sf.net)
# (assimp v3.1.0)

mtllib BLDG_0003000b0051c5b9.obj.mtl

# 21 vertex positions
v  3.42607 -2.91181e-16 4.75534
v  9.89365 2.25217e-16 -3.67808
v  13.3015 -6.44177e-17 1.05202
v  0 0 0
v  29.9565 3.18019e-16 -5.19364
v  20.4913 -6.75472e-16 11.0313
v  34.2291 -3.60021e-16 5.87959
v  10.6158 -9.02236e-16 14.7346
v  4.94729 21.454 -1.83972
v  3.42647 18.9086 4.75475
v  8.36426 21.454 2.903
v  0.000403576 18.9086 -0.000598281
v  9.89406 18.9086 -3.67867
v  13.3019 18.9086 1.05142
v  29.9569 18.9086 -5.19424
v  16.8969 21.454 6.04098
v  32.0933 21.454 0.342293
v  20.4917 18.9086 11.0307
v  34.2295 18.9086 5.87899
v  11.9591 21.454 7.89264
v  10.6162 18.9086 14.734

# 0 UV coordinates

# 33 vertex normals
vn 0 -1 -6.12323e-17
vn 3.55007e-24 -1 -6.12323e-17
vn 2.43214e-24 -1 -6.12323e-17
vn 1.69168e-24 -1 -6.12323e-17
vn -0.362961 0.894358 0.261501
vn -0.362961 0.894358 0.261501
vn 0.362971 0.894352 -0.261509
vn 0.362971 0.894352 -0.261509
vn -0.138414 0.919025 -0.369101
vn -0.138414 0.919025 -0.369101
vn 0.138412 0.919027 0.369095
vn 0.138412 0.919027 0.369095
vn -0.138414 0.919025 -0.369101
vn 0.138412 0.919027 0.369095
vn -0.362961 0.894358 0.261501
vn -0.36296 0.894358 0.261501
vn 0.362971 0.894352 -0.261509
vn -0.811355 3.58203e-05 0.584554
vn -0.811355 3.58128e-05 0.584554
vn -0.34846 -2.22201e-05 -0.937323
vn -0.34846 -2.22131e-05 -0.937324
vn -0.34846 -2.21498e-05 -0.937324
vn 0.811355 -3.58163e-05 -0.584554
vn 0.811355 -3.58509e-05 -0.584554
vn -0.351125 -2.21365e-05 -0.936328
vn -0.351125 -2.21011e-05 -0.936328
vn 0.93296 -3.13349e-05 -0.35998
vn 0.93296 -3.1344e-05 -0.35998
vn 0.93296 -3.16939e-05 -0.35998
vn 0.351125 2.21929e-05 0.936328
vn 0.351125 2.21379e-05 0.936328
vn 0.351125 2.2112e-05 0.936328
vn -0.811355 3.57953e-05 0.584554

# Mesh 'defaultobject' with 38 faces
g defaultobject
usemtl DefaultMaterial
f  1//1 2//1 3//1
f  2//1 1//1 4//2
f  5//1 6//1 3//1
f  6//1 5//1 7//3
f  8//4 3//1 6//1
f  3//1 8//4 1//1
f  9//5 10//5 11//5
f  10//5 9//5 12//6
f  13//7 11//7 14//7
f  11//7 13//7 9//8
f  15//9 16//9 17//9
f  16//9 15//9 14//10
f  17//11 18//11 19//11
f  18//11 17//11 16//12
f  16//9 14//10 20//13
f  20//11 18//11 16//12
f  18//11 20//11 21//14
f  21//15 11//5 10//5
f  11//5 21//15 20//16
f  20//17 14//7 11//7
f  10//18 4//18 1//18
f  4//18 10//18 12//19
f  12//20 2//20 4//20
f  2//20 12//20 13//21
f  13//21 12//20 9//22
f  2//23 14//23 3//23
f  14//23 2//23 13//24
f  14//25 5//25 3//25
f  5//25 14//25 15//26
f  15//27 7//27 5//27
f  7//27 15//27 19//28
f  19//28 15//27 17//29
f  7//30 18//30 6//30
f  18//30 7//30 19//31
f  6//30 21//32 8//32
f  21//32 6//30 18//30
f  21//33 1//18 8//33
f  1//18 21//33 10//18

