# {"id":"BLDG_0003000a0010cb05","idOriginal":"BLDG_0003000a0010cb05","origin":[13.324494445333894,52.55614985813649],"elevation":36.3199996948242}
# Longitude: 13.324494445333894
# Latitude: 52.55614985813649
# Elevation: 36.3199996948242

# File produced by Open Asset Import Library (http://www.assimp.sf.net)
# (assimp v3.1.0)

mtllib BLDG_0003000a0010cb05.obj.mtl

# 8 vertex positions
v  35.2821 3.01222e-15 -49.1932
v  0 0 0
v  30.0545 3.20499e-15 -52.3414
v  5.27831 -1.87359e-16 3.05981
v  0.000100548 4.72893 -0.000149909
v  30.0546 4.72893 -52.3415
v  35.2822 3.07355 -49.1933
v  5.27837 3.07355 3.05971

# 0 UV coordinates

# 11 vertex normals
vn -1.8402e-23 -1 -6.12324e-17
vn -2.30414e-24 -1 -6.12323e-17
vn -0.867205 2.6535e-06 -0.497951
vn -0.867205 2.12098e-06 -0.497951
vn 0.515893 -3.84616e-05 -0.856653
vn 0.515894 -3.74656e-05 -0.856652
vn 0.867205 -3.29571e-06 0.497951
vn -0.501521 3.80789e-05 0.865146
vn -0.501521 3.8143e-05 0.865146
vn 0.227087 0.965106 0.130394
vn 0.227086 0.965106 0.130393

# Mesh 'defaultobject' with 12 faces
g defaultobject
usemtl DefaultMaterial
f  1//1 2//1 3//1
f  2//1 1//1 4//2
f  5//3 3//3 2//3
f  3//3 5//3 6//4
f  6//5 1//5 3//5
f  1//5 6//5 7//6
f  1//7 8//7 4//7
f  8//7 1//7 7//7
f  4//8 5//8 2//8
f  5//8 4//8 8//9
f  7//10 5//10 8//10
f  5//10 7//10 6//11

