# {"id":"BLDG_0003000b00099f39","idOriginal":"BLDG_0003000b00099f39","origin":[13.360975523981788,52.54054930268906],"elevation":35.3899993896484}
# Longitude: 13.360975523981788
# Latitude: 52.54054930268906
# Elevation: 35.3899993896484

# File produced by Open Asset Import Library (http://www.assimp.sf.net)
# (assimp v3.1.0)

mtllib BLDG_0003000b00099f39.obj.mtl

# 12 vertex positions
v  10.2758 1.73047e-16 -2.82607
v  0 0 0
v  9.06438 3.06712e-16 -5.00899
v  10.1266 1.68064e-16 -2.74469
v  11.5601 6.78465e-18 -0.110802
v  2.61831 -2.96221e-16 4.83766
v  11.5602 5.59139 -0.110979
v  0.000119159 5.59139 -0.00017705
v  2.61843 5.59139 4.83748
v  10.1267 5.59139 -2.74487
v  10.2759 5.59139 -2.82625
v  9.0645 5.59139 -5.00917

# 0 UV coordinates

# 17 vertex normals
vn -4.09514e-24 -1 -6.12324e-17
vn 1.27722e-22 -1 -6.12321e-17
vn 0 -1 -6.12323e-17
vn 5.88595e-26 -1 -6.12323e-17
vn 0 1 0
vn 0.878334 -3.37285e-05 -0.478047
vn 0.878334 -3.38707e-05 -0.478047
vn 0.478746 1.76089e-05 0.877953
vn 0.478745 1.75707e-05 0.877954
vn 0.874381 -3.40059e-05 -0.485241
vn 0.874381 -3.40401e-05 -0.485241
vn -0.483666 -1.74072e-05 -0.875253
vn -0.483666 -1.7455e-05 -0.875253
vn -0.879451 3.38099e-05 0.47599
vn -0.879451 3.38142e-05 0.47599
vn 0.484207 1.7357e-05 0.874953
vn 0.484207 1.74238e-05 0.874953

# Mesh 'defaultobject' with 20 faces
g defaultobject
usemtl DefaultMaterial
f  1//1 2//1 3//1
f  2//1 1//1 4//2
f  2//1 4//2 5//3
f  2//1 5//3 6//4
f  7//5 8//5 9//5
f  8//5 7//5 10//5
f  8//5 10//5 11//5
f  8//5 11//5 12//5
f  4//6 7//6 5//6
f  7//6 4//6 10//7
f  1//8 10//8 4//8
f  10//8 1//8 11//9
f  3//10 11//10 1//10
f  11//10 3//10 12//11
f  8//12 3//12 2//12
f  3//12 8//12 12//13
f  9//14 2//14 6//14
f  2//14 9//14 8//15
f  5//16 9//16 6//16
f  9//16 5//16 7//17

