# {"id":"BLDG_0003000f00333ad5","idOriginal":"BLDG_0003000f00333ad5","origin":[13.366849618495978,52.53756176700654],"elevation":34.8899993896484}
# Longitude: 13.366849618495978
# Latitude: 52.53756176700654
# Elevation: 34.8899993896484

# File produced by Open Asset Import Library (http://www.assimp.sf.net)
# (assimp v3.1.0)

mtllib BLDG_0003000f00333ad5.obj.mtl

# 216 vertex positions
v  70.7611 -1.84285e-15 30.0961
v  69.5268 -1.89859e-15 31.0063
v  68.3408 -1.64186e-15 26.8136
v  64.9961 -1.36389e-15 22.274
v  63.7735 -1.41912e-15 23.1759
v  62.6032 -1.16505e-15 19.0268
v  59.1311 -8.7662e-16 14.3163
v  57.9204 -9.31264e-16 15.2087
v  56.7918 -6.82259e-16 11.1421
v  53.4292 -4.02847e-16 6.57899
v  52.2289 -4.56981e-16 7.46306
v  50.9393 -1.96016e-16 3.20119
v  47.632 7.86975e-17 -1.28523
v  46.4441 2.51098e-17 -0.410074
v  45.2314 2.78249e-16 -4.54416
v  41.8372 5.60239e-16 -9.1494
v  40.6606 5.07162e-16 -8.28258
v  39.3409 7.67638e-16 -12.5365
v  36.0139 1.04402e-15 -17.0501
v  34.8484 9.91526e-16 -16.1929
v  32.9375 1.29963e-15 -21.2246
v  78.7101 -2.50329e-15 40.8819
v  74.2346 -2.70398e-15 44.1594
v  74.3123 -2.13788e-15 34.9142
v  73.0706 -2.19395e-15 35.8299
v  27.5429 1.0676e-15 -17.4353
v  67.1115 -1.6973e-15 27.7191
v  64.4989 -1.47956e-15 24.1631
v  61.3844 -1.22003e-15 19.9245
v  55.5848 -7.36684e-16 12.031
v  49.7447 -2.49895e-16 4.08109
v  44.0479 2.24806e-16 -3.67136
v  43.9857 2.29987e-16 -3.75598
v  38.1691 7.14742e-16 -11.6726
v  24.8141 0.760002 20.6294
v  32.9064 0.760002 18.9163
v  26.5493 0.760002 22.9818
v  41.6221 0.760002 7.82289
v  32.6329 0.760002 31.229
v  52.1246 0.760002 21.0956
v  34.7518 0.760002 34.1016
v  38.221 0.760002 27.0388
v  38.221 0.700001 27.0388
v  26.5493 0.700001 22.9818
v  32.9064 0.700001 18.9163
v  32.6329 0.700001 31.229
v  34.7518 1.01 34.1015
v  59.3086 1.01 30.1746
v  41.5571 1.01 43.3273
v  52.1246 1.01 21.0956
v  34.8567 0.970001 -0.727077
v  24.8142 0.970001 20.6294
v  18.0981 0.970001 11.5246
v  41.6221 0.970001 7.82288
v  27.5429 -0.0599976 -17.4353
v  22.4007 -0.0599976 -16.4686
v  26.2057 -0.0599976 -19.266
v  38.3002 -0.0599976 -3.24448
v  0 -0.0599976 -3.67379e-18
v  2.85683 -0.0599976 3.84923
v  4.98339 -0.0599976 4.12466
v  74.2346 -0.0599976 44.1594
v  6.47078 -0.0599976 6.14133
v  8.27765 -0.0599976 8.59191
v  6.1742 -0.0599976 8.32058
v  9.7674 -0.0599976 10.6129
v  11.5154 -0.0599976 12.9842
v  9.35474 -0.0599976 12.6062
v  12.9111 -0.0599976 14.8777
v  14.643 -0.0599976 17.2274
v  12.9101 -0.0599976 17.0193
v  12.6019 -0.0599976 16.9823
v  16.1084 -0.0599976 19.2137
v  17.7076 -0.0599976 21.3833
v  15.6313 -0.0599976 21.0649
v  19.1253 -0.0599976 23.3071
v  20.7841 -0.0599976 25.5577
v  18.8267 -0.0599976 25.3709
v  22.3565 -0.0599976 27.6901
v  24.142 -0.0599976 30.1122
v  22.1667 -0.0599976 29.8714
v  25.6287 -0.0599976 32.1289
v  27.2226 -0.0599976 34.2916
v  25.3002 -0.0599976 34.0945
v  28.7421 -0.0599976 36.3522
v  28.4492 -0.0599976 38.3381
v  30.4567 -0.0599976 38.6778
v  32.0328 -0.0599976 40.8163
v  31.7125 -0.0599976 42.7351
v  33.6141 -0.0599976 42.9605
v  35.0801 -0.0599976 44.9487
v  35.0595 -0.0599976 45.0933
v  34.8019 -0.0599976 46.8994
v  36.8072 -0.0599976 47.2916
v  38.2785 -0.0599976 49.2878
v  73.1144 -0.0599976 44.9798
v  43.2202 -0.0599976 55.9908
v  44.6707 -0.0599976 57.9592
v  47.3699 -0.0599976 63.8353
v  41.455 -0.0599976 53.5966
v  39.9557 -0.0599976 51.5632
v  38.0074 -0.0599976 51.2191
v  41.2159 -0.0599976 55.5432
v  44.3614 -0.0599976 59.7812
v  52.1252 27.0796 21.0948
v  32.6334 27.0796 31.2281
v  34.7524 27.0796 34.1007
v  38.2215 27.0796 27.038
v  32.907 27.0796 18.9155
v  24.8147 27.0796 20.6286
v  26.5499 27.0796 22.9809
v  41.6227 27.0796 7.82205
v  38.2216 29.996 27.0379
v  26.55 29.996 22.9808
v  32.6335 29.996 31.2281
v  32.907 29.996 18.9154
v  34.7518 1.41514 34.1015
v  59.3087 1.41514 30.1746
v  52.1246 1.41514 21.0956
v  41.5571 1.41514 43.3273
v  34.8567 1.45768 -0.727092
v  24.8142 1.45768 20.6294
v  41.6221 1.45768 7.82287
v  18.0981 1.45768 11.5246
v  22.4012 27.1146 -16.4695
v  27.5434 27.1146 -17.4362
v  26.2063 27.1146 -19.2669
v  38.3008 27.1146 -3.24534
v  74.2351 27.1146 44.1586
v  0.000579333 27.1146 -0.00086032
v  73.115 27.1146 44.9789
v  4.98397 27.1146 4.1238
v  2.85741 27.1146 3.84837
v  6.17478 27.1146 8.31972
v  8.27823 27.1146 8.59105
v  6.47136 27.1146 6.14047
v  9.35532 27.1146 12.6054
v  11.5159 27.1146 12.9834
v  9.76798 27.1146 10.612
v  12.9117 27.1146 14.8769
v  12.9107 27.1146 17.0184
v  14.6436 27.1146 17.2265
v  12.6025 27.1146 16.9814
v  15.6319 27.1146 21.064
v  17.7082 27.1146 21.3824
v  16.109 27.1146 19.2129
v  18.8273 27.1146 25.3701
v  20.7846 27.1146 25.5568
v  19.1259 27.1146 23.3062
v  22.1673 27.1146 29.8705
v  24.1425 27.1146 30.1113
v  22.3571 27.1146 27.6893
v  25.3008 27.1146 34.0937
v  27.2232 27.1146 34.2907
v  25.6293 27.1146 32.128
v  28.4498 27.1146 38.3372
v  30.4573 27.1146 38.6769
v  28.7427 27.1146 36.3514
v  31.713 27.1146 42.7343
v  33.6147 27.1146 42.9597
v  32.0333 27.1146 40.8155
v  34.8025 27.1146 46.8986
v  36.8078 27.1146 47.2907
v  35.0601 27.1146 45.0924
v  38.008 27.1146 51.2183
v  39.9563 27.1146 51.5623
v  38.2791 27.1146 49.2869
v  41.2165 27.1146 55.5423
v  43.2208 27.1146 55.99
v  41.4556 27.1146 53.5957
v  44.6712 27.1146 57.9583
v  47.3705 27.1146 63.8344
v  35.0807 27.1146 44.9479
v  44.3619 27.1146 59.7803
v  74.3124 5.65305 34.9141
v  73.0707 5.65305 35.8297
v  78.7103 5.65305 40.8817
v  68.3409 5.65305 26.8134
v  67.1116 5.65305 27.7189
v  70.7612 5.65305 30.0959
v  62.6033 5.65305 19.0266
v  61.3845 5.65305 19.9243
v  64.9962 5.65305 22.2738
v  56.7919 5.65305 11.142
v  55.5849 5.65305 12.0308
v  59.1312 5.65305 14.3161
v  50.9394 5.65305 3.20101
v  49.7448 5.65305 4.08091
v  53.4293 5.65305 6.57881
v  45.2315 5.65305 -4.54433
v  44.048 5.65305 -3.67154
v  47.6321 5.65305 -1.28541
v  39.341 5.65305 -12.5367
v  38.1692 5.65305 -11.6728
v  41.8374 5.65305 -9.14958
v  74.2347 5.65305 44.1592
v  27.543 5.65305 -17.4355
v  69.5269 5.65305 31.0062
v  64.499 5.65305 24.1629
v  63.7737 5.65305 23.1757
v  57.9205 5.65305 15.2085
v  52.2291 5.65305 7.46288
v  46.4443 5.65305 -0.410253
v  43.9859 5.65305 -3.75615
v  40.6607 5.65305 -8.28276
v  34.8485 5.65305 -16.193
v  36.014 5.65305 -17.0503
v  32.9376 5.65305 -21.2247
v  34.8567 -0.0599976 -0.727044
v  18.0986 27.1146 11.5238
v  18.0981 -0.0599976 11.5247
v  34.8573 27.1146 -0.727904
v  59.3092 27.1146 30.1738
v  59.3086 -0.0599976 30.1746
v  41.5577 27.1146 43.3265
v  41.5571 -0.0599976 43.3273

# 0 UV coordinates

# 199 vertex normals
vn -5.71325e-23 -1 -6.12323e-17
vn 3.67157e-23 -1 -6.12324e-17
vn 1.11579e-23 -1 -6.12323e-17
vn -1.26948e-23 -1 -6.12323e-17
vn -2.21619e-24 -1 -6.12323e-17
vn -2.58264e-23 -1 -6.12323e-17
vn 2.99882e-23 -1 -6.12323e-17
vn -2.57471e-24 -1 -6.12324e-17
vn 1.43851e-22 -1 -6.12323e-17
vn 0 -1 -6.12323e-17
vn -3.62794e-22 -1 -6.1232e-17
vn 2.23578e-22 -1 -6.12325e-17
vn 8.34978e-23 -1 -6.12324e-17
vn -1.95773e-23 -1 -6.12323e-17
vn -1.01584e-23 -1 -6.12323e-17
vn -8.56162e-23 -1 -6.12322e-17
vn 0 -1 -6.12324e-17
vn 0 -1 0
vn 0 1 0
vn 0.599917 1.25e-05 0.800062
vn 0.599918 1.25559e-05 0.800062
vn 0.836794 -3.5227e-05 -0.547517
vn -0.538768 -1.51864e-05 -0.842454
vn -0.538769 -1.52061e-05 -0.842454
vn -0.804747 3.59682e-05 0.593617
vn -0.804747 3.59158e-05 0.593617
vn -0.804748 3.75126e-05 0.593617
vn -0.804748 3.19232e-05 0.593617
vn 0.595328 1.87523e-05 0.803483
vn 0.595328 1.19333e-05 0.803483
vn 0.784193 -3.25318e-05 -0.620518
vn 0.784193 -3.5785e-05 -0.620518
vn -0.599301 -1.1327e-05 -0.800524
vn -0.599301 -1.50959e-05 -0.800524
vn 0.784193 -3.15671e-05 -0.620518
vn 0.784193 -3.8024e-05 -0.620517
vn -0.590175 -1.37173e-05 -0.807275
vn -0.590175 -1.17051e-05 -0.807275
vn -0.804748 3.43104e-05 0.593617
vn 0.606057 1.33263e-05 0.795421
vn 0.606057 1.4807e-05 0.795421
vn 0.590175 1.29562e-05 0.807275
vn -0.784193 3.63751e-05 0.620518
vn -0.784193 3.63779e-05 0.620518
vn -0.595328 -1.2788e-05 -0.803483
vn -0.595328 -1.27316e-05 -0.803483
vn 0.804748 -3.60332e-05 -0.593617
vn 0.804748 -3.59195e-05 -0.593617
vn 0.796911 -3.60102e-05 -0.604096
vn 0.796911 -3.61364e-05 -0.604096
vn 0.807539 -3.59026e-05 -0.589814
vn 0.807539 -3.58446e-05 -0.589814
vn -0.592332 -1.28655e-05 -0.805694
vn -0.592332 -1.29071e-05 -0.805694
vn -0.592332 -1.28796e-05 -0.805694
vn -0.803003 3.59908e-05 0.595975
vn -0.803003 3.59871e-05 0.595975
vn -0.128447 3.41399e-05 0.991716
vn -0.128447 3.41491e-05 0.991716
vn -0.804785 3.59473e-05 0.593567
vn -0.804785 3.59577e-05 0.593566
vn -0.990866 1.68564e-05 -0.134848
vn -0.127933 3.41223e-05 0.991783
vn -0.127933 3.41202e-05 0.991783
vn -0.804942 3.59298e-05 0.593354
vn -0.979237 1.44772e-05 -0.202721
vn -0.979237 1.44428e-05 -0.20272
vn -0.172333 3.48585e-05 0.985039
vn -0.804944 3.5958e-05 0.593351
vn -0.98938 1.64748e-05 -0.145355
vn -0.989379 1.65095e-05 -0.145356
vn -0.119235 3.39693e-05 0.992866
vn -0.119234 3.39735e-05 0.992866
vn -0.119237 3.39733e-05 0.992866
vn -0.119237 3.39689e-05 0.992866
vn -0.804715 3.59629e-05 0.593661
vn -0.804715 3.59347e-05 0.593661
vn -0.968356 1.2762e-05 -0.249571
vn -0.151585 3.45229e-05 0.988444
vn -0.805013 3.59e-05 0.593257
vn -0.805013 3.59565e-05 0.593257
vn -0.989692 1.65739e-05 -0.143214
vn -0.989692 1.65145e-05 -0.143214
vn -0.0949878 3.36091e-05 0.995478
vn -0.0949887 3.35388e-05 0.995478
vn -0.804838 3.59602e-05 0.593494
vn -0.996235 1.84429e-05 -0.0866903
vn -0.996235 1.85128e-05 -0.0866911
vn -0.121022 3.39959e-05 0.99265
vn -0.121022 3.40047e-05 0.99265
vn -0.804899 3.59173e-05 0.593411
vn -0.8049 3.59589e-05 0.593411
vn -0.98632 1.58389e-05 -0.164845
vn -0.10199 3.35964e-05 0.994785
vn -0.101988 3.3736e-05 0.994786
vn -0.804839 3.60019e-05 0.593493
vn -0.989297 1.64799e-05 -0.145913
vn -0.166836 3.48398e-05 0.985985
vn -0.805019 3.5885e-05 0.593249
vn -0.805019 3.5998e-05 0.593248
vn -0.986352 1.57764e-05 -0.164651
vn -0.986352 1.56841e-05 -0.16465
vn -0.117692 3.38687e-05 0.99305
vn -0.117692 3.38767e-05 0.99305
vn -0.804867 3.60013e-05 0.593455
vn -0.804866 3.5918e-05 0.593456
vn -0.989982 1.66443e-05 -0.141191
vn -0.989984 1.66447e-05 -0.141179
vn -0.191911 3.52308e-05 0.981412
vn -0.191912 3.50934e-05 0.981412
vn -0.804979 3.59988e-05 0.593303
vn -0.804979 3.59156e-05 0.593304
vn -0.990291 1.67201e-05 -0.13901
vn -0.173905 3.4953e-05 0.984762
vn -0.804866 3.5918e-05 0.593456
vn -0.804867 3.60013e-05 0.593456
vn -0.992544 1.73284e-05 -0.12189
vn -0.217978 3.54762e-05 0.975954
vn -0.217978 3.54453e-05 0.975954
vn -0.805038 3.59976e-05 0.593224
vn -0.805036 3.58013e-05 0.593226
vn -0.985894 1.575e-05 -0.16737
vn -0.985894 1.57265e-05 -0.16737
vn -0.803035 3.59571e-05 0.595931
vn 0.590879 1.28804e-05 0.80676
vn 0.59088 1.2986e-05 0.80676
vn 0.590835 1.29888e-05 0.806792
vn 0.590833 1.28751e-05 0.806794
vn 0.796911 -3.6097e-05 -0.604096
vn 0.590833 1.2803e-05 0.806794
vn 0.590834 1.36241e-05 0.806793
vn 0.805015 -3.51372e-05 -0.593254
vn 0.805016 -3.62296e-05 -0.593254
vn -0.593491 -1.27105e-05 -0.804841
vn 0.805883 -3.61901e-05 -0.592075
vn 0.593542 1.27188e-05 0.804803
vn 0.80487 -3.61949e-05 -0.593451
vn -0.59307 -1.35298e-05 -0.805151
vn -0.593067 -1.27295e-05 -0.805153
vn 0.805869 -3.50589e-05 -0.592094
vn 0.805869 -3.61677e-05 -0.592093
vn 0.805868 -3.61749e-05 -0.592095
vn 0.805867 -3.56326e-05 -0.592097
vn 0.593692 1.31031e-05 0.804692
vn 0.593691 1.27006e-05 0.804693
vn 0.805032 -3.61985e-05 -0.593231
vn -0.593076 -1.31294e-05 -0.805147
vn -0.593074 -1.27292e-05 -0.805148
vn 0.805931 -3.5635e-05 -0.592009
vn 0.805932 -3.60387e-05 -0.592009
vn 0.593325 1.25761e-05 0.804963
vn 0.593325 1.27163e-05 0.804963
vn 0.804999 -3.61956e-05 -0.593277
vn 0.804998 -3.56394e-05 -0.593278
vn -0.592962 -1.31344e-05 -0.805231
vn 0.805898 -3.56267e-05 -0.592055
vn 0.805898 -3.61624e-05 -0.592054
vn 0.593073 1.27318e-05 0.805149
vn 0.593074 1.31279e-05 0.805148
vn 0.804948 -3.56594e-05 -0.593345
vn 0.804948 -3.61419e-05 -0.593345
vn -0.593046 -1.26626e-05 -0.805169
vn 0.805806 -3.61404e-05 -0.592179
vn 0.805806 -3.55956e-05 -0.59218
vn 0.593161 1.30778e-05 0.805084
vn 0.593159 1.26776e-05 0.805085
vn 0.805144 -3.61356e-05 -0.59308
vn -0.593522 -1.26751e-05 -0.804818
vn -0.593522 -1.26412e-05 -0.804818
vn 0.805923 -3.61549e-05 -0.59202
vn 0.805923 -3.61931e-05 -0.59202
vn 0.805923 -3.6073e-05 -0.59202
vn 0.593105 1.25963e-05 0.805125
vn 0.593106 1.29859e-05 0.805124
vn 0.804983 -3.55633e-05 -0.593298
vn 0.804983 -3.56435e-05 -0.593298
vn -0.593409 -1.27142e-05 -0.804901
vn -0.59341 -1.31146e-05 -0.8049
vn 0.805905 -3.61831e-05 -0.592044
vn 0.592511 1.27531e-05 0.805562
vn 0.592513 1.31539e-05 0.805561
vn 0.805004 -3.56557e-05 -0.593269
vn 0.805004 -3.54605e-05 -0.59327
vn -0.57479 -1.37351e-05 -0.818301
vn -0.57479 -1.3653e-05 -0.818301
vn -0.796911 3.63677e-05 0.604096
vn -0.796911 3.60988e-05 0.604096
vn -0.804748 3.5902e-05 0.593617
vn 0.599301 1.25291e-05 0.800524
vn 0.599301 1.25825e-05 0.800524
vn 0.784193 -3.63428e-05 -0.620517
vn 0.784193 -3.64456e-05 -0.620517
vn -0.606057 -1.22776e-05 -0.795421
vn -0.606057 -1.21753e-05 -0.795421
vn -0.804747 3.5945e-05 0.593617
vn 0.538768 1.51932e-05 0.842454
vn -0.836795 3.51679e-05 0.547517
vn -0.599918 -1.24973e-05 -0.800062
vn -0.599918 -1.25553e-05 -0.800062

# Mesh 'defaultobject' with 400 faces
g defaultobject
usemtl DefaultMaterial
f  1//1 2//1 3//1
f  4//2 5//2 6//2
f  7//3 8//3 9//3
f  10//4 11//4 12//4
f  13//5 14//5 15//5
f  16//6 17//6 18//6
f  19//7 20//7 21//7
f  22//8 23//8 24//8
f  25//9 24//8 23//8
f  26//10 25//9 23//8
f  2//1 25//9 26//10
f  27//11 2//1 26//10
f  3//1 2//1 27//11
f  28//12 27//11 26//10
f  5//2 28//12 26//10
f  29//10 5//2 26//10
f  6//2 5//2 29//10
f  8//3 29//10 26//10
f  30//13 8//3 26//10
f  9//3 8//3 30//13
f  11//4 30//13 26//10
f  31//14 11//4 26//10
f  12//4 11//4 31//14
f  14//5 31//14 26//10
f  32//15 14//5 26//10
f  15//5 14//5 32//15
f  33//16 32//15 26//10
f  17//6 33//16 26//10
f  34//17 17//6 26//10
f  18//6 17//6 34//17
f  20//7 34//17 26//10
f  21//7 20//7 26//10
f  35//18 36//18 37//18
f  36//18 35//18 38//18
f  39//18 40//18 41//18
f  40//18 39//18 42//18
f  40//18 42//18 36//18
f  40//18 36//18 38//18
f  43//18 44//18 45//18
f  44//18 43//18 46//18
f  47//18 48//18 49//18
f  48//18 47//18 50//18
f  51//18 52//18 53//18
f  52//18 51//18 54//18
f  55//18 56//18 57//18
f  56//18 55//18 58//18
f  56//18 58//18 59//18
f  59//18 58//18 60//18
f  60//18 58//18 61//18
f  61//18 58//18 62//18
f  61//18 62//18 63//18
f  63//18 62//18 64//18
f  63//18 64//18 65//18
f  64//18 62//18 66//18
f  66//18 62//18 67//18
f  66//18 67//18 68//18
f  67//18 62//18 69//18
f  69//18 62//18 70//18
f  69//18 70//18 71//18
f  69//18 71//18 72//18
f  70//18 62//18 73//18
f  73//18 62//18 74//18
f  73//18 74//18 75//18
f  74//18 62//18 76//18
f  76//18 62//18 77//18
f  76//18 77//18 78//18
f  77//18 62//18 79//18
f  79//18 62//18 80//18
f  79//18 80//18 81//18
f  80//18 62//18 82//18
f  82//18 62//18 83//18
f  82//18 83//18 84//18
f  83//18 62//18 85//18
f  85//18 62//18 86//18
f  86//18 62//18 87//18
f  87//18 62//18 88//18
f  88//18 62//18 89//18
f  89//18 62//18 90//18
f  90//18 62//18 91//18
f  91//18 62//18 92//18
f  92//18 62//18 93//18
f  93//18 62//18 94//18
f  94//18 62//18 95//18
f  95//18 62//18 96//18
f  95//18 96//18 97//18
f  97//18 96//18 98//18
f  98//18 96//18 99//18
f  95//18 97//18 100//18
f  95//18 100//18 101//18
f  95//18 101//18 102//18
f  100//18 97//18 103//18
f  98//18 99//18 104//18
f  105//19 106//19 107//19
f  106//19 105//19 108//19
f  108//19 105//19 109//19
f  109//19 110//19 111//19
f  110//19 109//19 112//19
f  112//19 109//19 105//19
f  113//19 114//19 115//19
f  114//19 113//19 116//19
f  117//19 118//19 119//19
f  118//19 117//19 120//19
f  121//19 122//19 123//19
f  122//19 121//19 124//19
f  125//19 126//19 127//19
f  126//19 125//19 128//19
f  128//19 125//19 129//19
f  129//19 125//19 130//19
f  129//19 130//19 131//19
f  131//19 130//19 132//19
f  132//19 130//19 133//19
f  134//19 135//19 136//19
f  137//19 138//19 139//19
f  140//19 141//19 142//19
f  141//19 140//19 143//19
f  144//19 145//19 146//19
f  147//19 148//19 149//19
f  150//19 151//19 152//19
f  153//19 154//19 155//19
f  156//19 157//19 158//19
f  159//19 160//19 161//19
f  162//19 163//19 164//19
f  165//19 166//19 167//19
f  168//19 169//19 170//19
f  131//19 171//19 172//19
f  171//19 131//19 169//19
f  169//19 131//19 163//19
f  163//19 131//19 173//19
f  173//19 131//19 146//19
f  146//19 131//19 135//19
f  135//19 131//19 136//19
f  136//19 131//19 132//19
f  146//19 135//19 139//19
f  146//19 139//19 138//19
f  146//19 138//19 140//19
f  146//19 140//19 142//19
f  173//19 146//19 145//19
f  173//19 145//19 149//19
f  173//19 149//19 152//19
f  152//19 149//19 148//19
f  173//19 152//19 155//19
f  155//19 152//19 151//19
f  173//19 155//19 157//19
f  157//19 155//19 158//19
f  158//19 155//19 154//19
f  173//19 157//19 160//19
f  160//19 157//19 161//19
f  163//19 173//19 164//19
f  169//19 163//19 167//19
f  169//19 167//19 170//19
f  170//19 167//19 166//19
f  172//19 171//19 174//19
f  175//19 176//19 177//19
f  178//19 179//19 180//19
f  181//19 182//19 183//19
f  184//19 185//19 186//19
f  187//19 188//19 189//19
f  190//19 191//19 192//19
f  193//19 194//19 195//19
f  196//19 176//19 197//19
f  176//19 196//19 177//19
f  197//19 176//19 198//19
f  197//19 198//19 179//19
f  179//19 198//19 180//19
f  197//19 179//19 199//19
f  197//19 199//19 200//19
f  197//19 200//19 182//19
f  182//19 200//19 183//19
f  197//19 182//19 201//19
f  197//19 201//19 185//19
f  185//19 201//19 186//19
f  197//19 185//19 202//19
f  197//19 202//19 188//19
f  188//19 202//19 189//19
f  197//19 188//19 203//19
f  197//19 203//19 191//19
f  191//19 203//19 192//19
f  197//19 191//19 204//19
f  197//19 204//19 205//19
f  197//19 205//19 195//19
f  197//19 195//19 194//19
f  197//19 194//19 206//19
f  197//19 206//19 207//19
f  197//19 207//19 208//19
f  43//20 115//20 46//20
f  115//20 43//20 113//21
f  45//22 113//22 43//22
f  113//22 45//22 116//22
f  114//23 45//23 44//23
f  45//23 114//23 116//24
f  115//25 44//25 46//25
f  44//25 115//25 114//26
f  120//27 47//27 49//27
f  47//27 120//27 117//28
f  48//29 120//29 49//29
f  120//29 48//29 118//30
f  50//31 118//31 48//31
f  118//31 50//31 119//32
f  117//33 50//33 47//33
f  50//33 117//33 119//34
f  51//35 123//35 54//35
f  123//35 51//35 121//36
f  124//37 51//37 53//37
f  51//37 124//37 121//38
f  122//39 53//39 52//39
f  53//39 122//39 124//39
f  54//40 122//40 52//40
f  122//40 54//40 123//41
f  209//42 210//42 211//42
f  210//42 209//42 212//42
f  213//43 209//43 214//43
f  209//43 213//43 212//44
f  215//45 214//45 216//45
f  214//45 215//45 213//46
f  211//47 215//47 216//47
f  215//47 211//47 210//48
f  55//49 128//49 58//49
f  128//49 55//49 126//50
f  57//51 126//51 55//51
f  126//51 57//51 127//52
f  125//53 57//53 56//53
f  57//53 125//53 127//54
f  130//55 56//53 59//55
f  56//53 130//55 125//53
f  133//56 59//56 60//56
f  59//56 133//56 130//57
f  61//58 133//58 60//58
f  133//58 61//58 132//59
f  136//60 61//60 63//60
f  61//60 136//60 132//61
f  134//62 63//62 65//62
f  63//62 134//62 136//62
f  64//63 134//63 65//63
f  134//63 64//63 135//64
f  139//65 64//65 66//65
f  64//65 139//65 135//65
f  137//66 66//66 68//66
f  66//66 137//66 139//67
f  67//68 137//68 68//68
f  137//68 67//68 138//68
f  140//69 67//69 69//69
f  67//69 140//69 138//69
f  143//70 69//70 72//70
f  69//70 143//70 140//71
f  71//72 143//72 72//72
f  143//72 71//72 141//73
f  70//74 141//73 71//72
f  141//73 70//74 142//75
f  146//76 70//76 73//76
f  70//76 146//76 142//77
f  144//78 73//78 75//78
f  73//78 144//78 146//78
f  74//79 144//79 75//79
f  144//79 74//79 145//79
f  149//80 74//80 76//80
f  74//80 149//80 145//81
f  147//82 76//82 78//82
f  76//82 147//82 149//83
f  77//84 147//84 78//84
f  147//84 77//84 148//85
f  152//86 77//86 79//86
f  77//86 152//86 148//86
f  150//87 79//87 81//87
f  79//87 150//87 152//88
f  80//89 150//89 81//89
f  150//89 80//89 151//90
f  155//91 80//91 82//91
f  80//91 155//91 151//92
f  153//93 82//93 84//93
f  82//93 153//93 155//93
f  83//94 153//94 84//94
f  153//94 83//94 154//95
f  158//96 83//96 85//96
f  83//96 158//96 154//96
f  156//97 85//97 86//97
f  85//97 156//97 158//97
f  87//98 156//98 86//98
f  156//98 87//98 157//98
f  161//99 87//99 88//99
f  87//99 161//99 157//100
f  159//101 88//101 89//101
f  88//101 159//101 161//102
f  90//103 159//103 89//103
f  159//103 90//103 160//104
f  173//105 90//105 91//105
f  90//105 173//105 160//106
f  164//107 91//107 92//107
f  91//107 164//107 173//107
f  162//108 92//108 93//108
f  92//108 162//108 164//108
f  94//109 162//109 93//109
f  162//109 94//109 163//110
f  167//111 94//111 95//111
f  94//111 167//111 163//112
f  165//113 95//113 102//113
f  95//113 165//113 167//113
f  101//114 165//114 102//114
f  165//114 101//114 166//114
f  170//115 101//115 100//115
f  101//115 170//115 166//116
f  168//117 100//117 103//117
f  100//117 168//117 170//117
f  97//118 168//118 103//118
f  168//118 97//118 169//119
f  171//120 97//120 98//120
f  97//120 171//120 169//121
f  174//122 98//122 104//122
f  98//122 174//122 171//123
f  172//124 104//124 99//124
f  104//124 172//124 174//124
f  96//125 172//125 99//125
f  172//125 96//125 131//126
f  62//127 131//127 96//127
f  131//127 62//127 129//128
f  58//49 129//129 62//129
f  129//129 58//49 128//49
f  22//130 196//130 23//130
f  196//130 22//130 177//131
f  24//132 177//132 22//132
f  177//132 24//132 175//133
f  176//134 24//134 25//134
f  24//134 176//134 175//134
f  2//135 176//135 25//135
f  176//135 2//135 198//135
f  1//136 198//136 2//136
f  198//136 1//136 180//136
f  3//137 180//137 1//137
f  180//137 3//137 178//137
f  179//138 3//138 27//138
f  3//138 179//138 178//139
f  28//140 179//140 27//140
f  179//140 28//140 199//141
f  5//142 199//141 28//140
f  199//141 5//142 200//143
f  4//144 200//144 5//144
f  200//144 4//144 183//145
f  6//146 183//146 4//146
f  183//146 6//146 181//146
f  182//147 6//147 29//147
f  6//147 182//147 181//148
f  8//149 182//149 29//149
f  182//149 8//149 201//150
f  7//151 201//151 8//151
f  201//151 7//151 186//152
f  9//153 186//153 7//153
f  186//153 9//153 184//154
f  185//155 9//155 30//155
f  9//155 185//155 184//155
f  11//156 185//156 30//156
f  185//156 11//156 202//157
f  10//158 202//158 11//158
f  202//158 10//158 189//159
f  12//160 189//160 10//160
f  189//160 12//160 187//161
f  188//162 12//162 31//162
f  12//162 188//162 187//162
f  14//163 188//163 31//163
f  188//163 14//163 203//164
f  13//165 203//165 14//165
f  203//165 13//165 192//166
f  15//167 192//167 13//167
f  192//167 15//167 190//167
f  191//168 15//168 32//168
f  15//168 191//168 190//169
f  33//170 191//170 32//170
f  191//170 33//170 204//170
f  17//171 204//170 33//170
f  204//170 17//171 205//172
f  16//173 205//173 17//173
f  205//173 16//173 195//174
f  18//175 195//175 16//175
f  195//175 18//175 193//176
f  194//177 18//177 34//177
f  18//177 194//177 193//178
f  20//179 194//179 34//179
f  194//179 20//179 206//179
f  19//180 206//180 20//180
f  206//180 19//180 207//181
f  21//182 207//182 19//182
f  207//182 21//182 208//183
f  197//184 21//184 26//184
f  21//184 197//184 208//185
f  196//186 26//186 23//186
f  26//186 196//186 197//187
f  107//188 39//188 41//188
f  39//188 107//188 106//188
f  40//189 107//189 41//189
f  107//189 40//189 105//190
f  38//191 105//191 40//191
f  105//191 38//191 112//192
f  110//193 38//193 35//193
f  38//193 110//193 112//194
f  111//195 35//195 37//195
f  35//195 111//195 110//195
f  36//196 111//196 37//196
f  111//196 36//196 109//196
f  108//197 36//197 42//197
f  36//197 108//197 109//197
f  106//198 42//198 39//198
f  42//198 106//198 108//199

