# {"id":"BLDG_0003000e0080bd70","idOriginal":"BLDG_0003000e0080bd70","origin":[13.379747149671378,52.52931013732643],"elevation":34.1399993896484}
# Longitude: 13.379747149671378
# Latitude: 52.52931013732643
# Elevation: 34.1399993896484

# File produced by Open Asset Import Library (http://www.assimp.sf.net)
# (assimp v3.1.0)

mtllib BLDG_0003000e0080bd70.obj.mtl

# 22 vertex positions
v  4.70093 20.66 -3.30985
v  11.6443 16.1071 -2.91901
v  9.40131 15.86 -6.6189
v  15.732 15.86 2.3733
v  11.8979 15.86 -3.07274
v  15.1156 16.4894 2.8072
v  11.0316 20.66 5.68235
v  0.000338389 15.86 -0.00050183
v  6.331 15.86 8.9917
v  11.7088 16.86 -8.01982
v  11.6443 16.86 -2.91907
v  13.9526 16.86 -4.31836
v  9.40049 16.86 -6.62053
v  13.9523 2.64391e-16 -4.31783
v  11.8975 1.8812e-16 -3.07224
v  13.9526 13.8584 -4.31827
v  9.40097 4.0526e-16 -6.6184
v  11.7084 4.9104e-16 -8.01929
v  15.7316 -1.45354e-16 2.37381
v  15.1153 -1.71924e-16 2.80773
v  6.33066 -5.50614e-16 8.9922
v  0 0 0

# 0 UV coordinates

# 36 vertex normals
vn 0.524096 0.767583 -0.368972
vn 0.524097 0.767582 -0.368973
vn 0.524096 0.767583 -0.368972
vn 0.524096 0.767583 -0.368972
vn -0.524077 0.767601 0.368959
vn -0.524077 0.767601 0.368959
vn 0 1 -0
vn 0.518391 1.59974e-05 0.855144
vn 0.518391 1.60097e-05 0.855144
vn 0.518391 1.59996e-05 0.855144
vn 0.518391 1.57351e-05 0.855144
vn 0.518391 1.60136e-05 0.855144
vn -0.518962 -1.5962e-05 -0.854798
vn -0.518961 -1.59827e-05 -0.854798
vn -0.51839 -0.00181828 -0.855142
vn 0.855142 -3.46427e-05 -0.518393
vn 0.855142 -3.46301e-05 -0.518393
vn 0.855142 -3.45914e-05 -0.518393
vn 0.575662 1.35246e-05 0.817688
vn 0.575662 1.43652e-05 0.817688
vn 0.575662 1.35864e-05 0.817688
vn 0.575662 1.32422e-05 0.817688
vn 0.575662 1.36121e-05 0.817688
vn -0.575662 -1.36176e-05 -0.817688
vn -0.575662 -1.35983e-05 -0.817688
vn -0.575662 -1.35903e-05 -0.817688
vn -0.85514 0.000140833 0.518396
vn -0.855142 0.000120851 0.518393
vn 0.817686 -3.56795e-05 -0.575665
vn -0.817686 3.56609e-05 0.575665
vn -0.817686 3.56723e-05 0.575665
vn 0 -1 -6.12323e-17
vn -5.91889e-24 -1 -6.12323e-17
vn -1.4202e-23 -1 -6.12323e-17
vn 6.67597e-24 -1 -6.12323e-17
vn 0 -1 -6.12323e-17

# Mesh 'defaultobject' with 40 faces
g defaultobject
usemtl DefaultMaterial
f  1//1 2//1 3//1
f  2//1 4//2 5//2
f  4//2 2//1 1//1
f  4//2 1//1 6//3
f  6//3 1//1 7//4
f  8//5 7//5 1//5
f  7//5 8//5 9//6
f  10//7 11//7 12//7
f  11//7 10//7 13//7
f  14//8 5//8 15//8
f  5//8 14//8 16//9
f  5//8 16//9 12//10
f  5//8 12//10 2//11
f  2//11 12//10 11//12
f  17//13 10//13 18//13
f  10//13 17//13 3//14
f  10//15 3//15 13//15
f  18//16 16//16 14//16
f  16//16 18//16 10//17
f  16//16 10//17 12//18
f  9//19 6//19 7//19
f  6//19 9//19 4//20
f  4//20 9//19 19//21
f  19//21 9//19 20//22
f  20//22 9//19 21//23
f  3//24 8//24 1//24
f  8//24 3//24 17//25
f  8//24 17//25 22//26
f  2//27 13//27 3//27
f  13//28 2//28 11//28
f  15//29 4//29 19//29
f  4//29 15//29 5//29
f  22//30 9//30 8//30
f  9//30 22//30 21//31
f  20//32 15//32 19//32
f  15//32 20//32 21//33
f  15//32 21//33 18//34
f  18//34 21//33 17//35
f  17//35 21//33 22//36
f  18//34 14//32 15//32

