# {"id":"BLDG_0003000e00143926","idOriginal":"BLDG_0003000e00143926","origin":[13.393117553276742,52.53661946693108],"elevation":43.5999984741211}
# Longitude: 13.393117553276742
# Latitude: 52.53661946693108
# Elevation: 43.5999984741211

# File produced by Open Asset Import Library (http://www.assimp.sf.net)
# (assimp v3.1.0)

mtllib BLDG_0003000e00143926.obj.mtl

# 30 vertex positions
v  37.5523 1.04017e-15 -16.9873
v  28.803 4.14472e-16 -6.76884
v  26.1059 7.23113e-16 -11.8093
v  40.2494 7.31529e-16 -11.9468
v  12.9065 -2.58467e-17 0.422109
v  10.5293 2.91653e-16 -4.76306
v  2.3772 -3.175e-16 5.18517
v  0 0 0
v  33.4427 -1.16492e-16 1.90245
v  44.854 2.04592e-16 -3.34124
v  17.0407 -5.78005e-16 9.43954
v  6.53989 -8.73471e-16 14.2649
v  26.1064 24.132 -11.8101
v  37.5528 20.8049 -16.9879
v  31.8297 24.132 -14.3991
v  40.2498 20.8049 -11.9474
v  10.5298 24.132 -4.76382
v  12.907 20.8049 0.42145
v  28.8034 20.8049 -6.7695
v  2.37765 20.8049 5.18451
v  0.000444281 20.8049 -0.0006586
v  5.26517 24.132 -2.38229
v  44.8544 20.8049 -3.3419
v  33.4432 20.8049 1.90179
v  39.1489 24.132 -0.720159
v  17.0411 20.8049 9.43888
v  6.54034 20.8049 14.2642
v  11.7908 24.132 11.8514
v  34.5267 24.132 -9.35857
v  7.64237 24.132 2.80288

# 0 UV coordinates

# 41 vertex normals
vn -2.95501e-24 -1 -6.12323e-17
vn 1.18201e-23 -1 -6.12323e-17
vn -4.34297e-24 -1 -6.12323e-17
vn 0 -1 -6.12323e-17
vn 0 -1 -6.12323e-17
vn 3.66903e-24 -1 -6.12323e-17
vn -0.412154 -2.00457e-05 -0.911114
vn -0.412154 -2.00592e-05 -0.911114
vn -0.412154 -2.01698e-05 -0.911114
vn 0.881715 -3.38538e-05 -0.471783
vn 0.881715 -3.38778e-05 -0.471783
vn -0.412154 -2.00457e-05 -0.911114
vn 0.412154 2.00304e-05 0.911114
vn 0.412154 2.00514e-05 0.911114
vn -0.90902 3.26084e-05 0.416751
vn -0.90902 3.26044e-05 0.416751
vn -0.412154 -2.00408e-05 -0.911114
vn -0.412154 -2.02399e-05 -0.911114
vn 0.417546 1.98135e-05 0.908656
vn 0.417546 1.98031e-05 0.908656
vn 0.417546 2.01774e-05 0.908656
vn -0.881715 3.38478e-05 0.471783
vn -0.881715 3.37778e-05 0.471783
vn 0.881715 -3.38531e-05 -0.471783
vn 0.417546 1.98205e-05 0.908656
vn 0.417546 2.00913e-05 0.908656
vn -0.90902 3.25988e-05 0.416751
vn 0.90902 -3.25864e-05 -0.416751
vn 0.413407 0.883269 -0.221203
vn 0.413406 0.883269 -0.221203
vn -0.413395 0.883276 0.221197
vn 0.207654 0.863805 0.459044
vn 0.207654 0.863805 0.459044
vn -0.453581 0.866615 0.20795
vn -0.453581 0.866615 0.20795
vn 0.207654 0.863805 0.459044
vn 0.453594 0.866607 -0.207956
vn -0.413395 0.883276 0.221197
vn 0.413406 0.883269 -0.221203
vn -0.453581 0.866615 0.20795
vn 0.453594 0.866607 -0.207956

# Mesh 'defaultobject' with 56 faces
g defaultobject
usemtl DefaultMaterial
f  1//1 2//1 3//1
f  2//1 1//1 4//2
f  3//1 5//3 6//3
f  5//3 3//1 2//1
f  6//3 7//4 8//4
f  7//4 6//3 5//3
f  9//5 4//2 10//5
f  4//2 9//5 2//1
f  7//4 11//6 12//6
f  11//6 7//4 5//3
f  13//7 1//7 3//7
f  1//7 13//7 14//8
f  14//8 13//7 15//9
f  1//10 16//10 4//10
f  16//10 1//10 14//11
f  17//12 3//7 6//12
f  3//7 17//12 13//7
f  2//13 18//13 5//13
f  18//13 2//13 19//14
f  20//15 8//15 7//15
f  8//15 20//15 21//16
f  21//17 6//12 8//17
f  6//12 21//17 17//12
f  17//12 21//17 22//18
f  23//19 9//19 10//19
f  9//19 23//19 24//20
f  24//20 23//19 25//21
f  24//22 2//22 9//22
f  2//22 24//22 19//23
f  4//10 23//24 10//24
f  23//24 4//10 16//10
f  26//25 12//25 11//25
f  12//25 26//25 27//25
f  27//25 26//25 28//26
f  27//27 7//15 12//27
f  7//15 27//27 20//15
f  5//28 26//28 11//28
f  26//28 5//28 18//28
f  14//29 29//29 16//29
f  29//29 14//29 15//30
f  29//31 15//31 19//31
f  15//32 13//32 19//32
f  18//33 13//32 17//33
f  13//32 18//33 19//32
f  22//34 20//34 30//34
f  20//34 22//34 21//35
f  22//36 18//33 17//33
f  22//37 30//37 18//37
f  29//31 24//38 25//38
f  24//38 29//31 19//31
f  16//29 25//39 23//39
f  25//39 16//29 29//29
f  30//34 27//40 28//40
f  27//40 30//34 20//34
f  18//37 28//41 26//41
f  28//41 18//37 30//37

