# {"id":"BLDG_00030009005b7121","idOriginal":"BLDG_00030009005b7121","origin":[13.373004334811622,52.54783420598156],"elevation":37.2900009155273}
# Longitude: 13.373004334811622
# Latitude: 52.54783420598156
# Elevation: 37.2900009155273

# File produced by Open Asset Import Library (http://www.assimp.sf.net)
# (assimp v3.1.0)

mtllib BLDG_00030009005b7121.obj.mtl

# 30 vertex positions
v  7.37967 -4.69765e-16 7.67184
v  2.15548 -2.43872e-16 3.98273
v  3.02587 -1.92535e-16 3.14434
v  6.51614 -5.2068e-16 8.50335
v  10.5527 -0.25 10.971
v  20.015 -0.25 5.70851
v  12.4756 -0.25 12.9694
v  9.93417 -0.25 -4.75855
v  7.37967 -0.25 7.67185
v  3.02586 -0.25 3.14435
v  2.47407 -0.25 2.57088
v  0.345322 -0.25 0.358564
v  7.86823 -0.25 -6.90368
v  0 -0.25 -1.53081e-17
v  7.53247 -0.25 -7.25203
v  7.38002 16.2611 7.67133
v  2.15583 16.2611 3.98222
v  6.51648 16.2611 8.50283
v  3.02621 16.2611 3.14382
v  20.0153 16.4323 5.70798
v  10.5531 16.4323 10.9705
v  12.476 16.4323 12.9689
v  7.38002 16.4323 7.67132
v  3.02622 16.4323 3.14382
v  2.47443 16.4323 2.57035
v  0.345678 16.4323 0.358035
v  9.93453 16.4323 -4.75908
v  0.000355799 16.4323 -0.00052851
v  7.53283 16.4323 -7.25256
v  7.86858 16.4323 -6.90421

# 0 UV coordinates

# 29 vertex normals
vn 1.39482e-23 -1 -6.12324e-17
vn 0 -1 -6.12323e-17
vn 0 -1 0
vn 0 1 0
vn 0.720798 -3.73478e-05 -0.693145
vn -0.693748 -8.01986e-06 -0.720218
vn -0.719726 3.73514e-05 0.694258
vn -0.719726 3.73511e-05 0.694258
vn 0.69362 8.00491e-06 0.720341
vn 0.69362 8.02631e-06 0.720341
vn -0.720747 3.73636e-05 0.693199
vn -0.720747 3.73224e-05 0.693199
vn -0.720594 3.73242e-05 0.693357
vn -0.720594 3.73654e-05 0.693357
vn 0.69368 8.01748e-06 0.720283
vn 0.693681 8.08302e-06 0.720283
vn 0.720273 -3.72927e-05 -0.693691
vn 0.720273 -3.73241e-05 -0.693691
vn 0.720275 -3.73439e-05 -0.693688
vn 0.720005 -3.73509e-05 -0.693968
vn -0.693569 -8.03016e-06 -0.72039
vn -0.693569 -8.04649e-06 -0.72039
vn -0.720282 3.73378e-05 0.693682
vn -0.720282 3.73385e-05 0.693682
vn -0.720585 3.73342e-05 0.693367
vn -0.720585 3.73343e-05 0.693367
vn -0.720597 3.73341e-05 0.693354
vn -0.720798 3.73218e-05 0.693145
vn -0.720798 3.73317e-05 0.693145

# Mesh 'defaultobject' with 52 faces
g defaultobject
usemtl DefaultMaterial
f  1//1 2//1 3//1
f  2//1 1//1 4//2
f  5//3 6//3 7//3
f  6//3 5//3 8//3
f  8//3 5//3 9//3
f  8//3 9//3 10//3
f  8//3 10//3 11//3
f  8//3 11//3 12//3
f  8//3 12//3 13//3
f  13//3 12//3 14//3
f  13//3 14//3 15//3
f  16//4 17//4 18//4
f  17//4 16//4 19//4
f  20//4 21//4 22//4
f  21//4 20//4 23//4
f  23//4 20//4 24//4
f  24//4 20//4 25//4
f  25//4 20//4 26//4
f  26//4 20//4 27//4
f  26//4 27//4 28//4
f  28//4 27//4 29//4
f  29//4 27//4 30//4
f  3//5 16//5 1//5
f  16//5 3//5 19//5
f  17//6 3//6 2//6
f  3//6 17//6 19//6
f  18//7 2//7 4//7
f  2//7 18//7 17//8
f  1//9 18//9 4//9
f  18//9 1//9 16//10
f  21//11 9//11 5//11
f  9//11 21//11 23//12
f  22//13 5//13 7//13
f  5//13 22//13 21//14
f  6//15 22//15 7//15
f  22//15 6//15 20//16
f  8//17 20//17 6//17
f  20//17 8//17 27//18
f  13//19 27//18 8//17
f  27//18 13//19 30//19
f  15//20 30//20 13//20
f  30//20 15//20 29//20
f  28//21 15//21 14//21
f  15//21 28//21 29//22
f  26//23 14//23 12//23
f  14//23 26//23 28//24
f  25//25 12//25 11//25
f  12//25 25//25 26//26
f  24//27 11//27 10//27
f  11//27 24//27 25//27
f  23//28 10//28 9//28
f  10//28 23//28 24//29

