# {"id":"BLDG_0003000b002c5a67","idOriginal":"BLDG_0003000b002c5a67","origin":[13.390463880097869,52.532376372743826],"elevation":31.8500003814697}
# Longitude: 13.390463880097869
# Latitude: 52.532376372743826
# Elevation: 31.8500003814697

# File produced by Open Asset Import Library (http://www.assimp.sf.net)
# (assimp v3.1.0)

mtllib BLDG_0003000b002c5a67.obj.mtl

# 46 vertex positions
v  24.4765 23.7309 46.0631
v  12.0806 22.7627 39.1939
v  13.3987 23.7309 47.756
v  23.2414 22.7627 37.4881
v  6.95862 20.9778 5.92332
v  17.5005 22.6079 -2.37061
v  5.9232 22.6079 -0.802782
v  18.4705 20.9778 4.36435
v  19.7054 20.9778 12.9383
v  8.57213 22.0193 16.4041
v  19.9926 22.0193 14.9318
v  8.26566 20.9778 14.4135
v  9.45606 22.5679 22.1457
v  20.8205 22.5679 20.6795
v  10.0622 20.9778 26.0832
v  21.3883 20.9778 24.6227
v  11.7725 20.9778 37.193
v  22.9527 20.9778 35.4843
v  24.7838 20.9778 48.1974
v  13.7268 20.9778 49.8872
v  0.000482695 22.6079 -0.00071548
v  1.03594 22.6079 6.72533
v  2.33719 22.6079 15.1779
v  4.13372 22.6079 26.8476
v  5.86534 22.6079 38.0958
v  6.17338 22.7627 40.0967
v  7.49153 23.7309 48.6588
v  7.81955 20.9778 50.79
v  17.5001 1.45114e-16 -2.36989
v  5.92272 4.91124e-17 -0.802066
v  18.4701 -2.6728e-16 4.36501
v  6.95817 -3.62739e-16 5.92398
v  19.705 -7.92285e-16 12.939
v  8.26521 -8.82612e-16 14.4141
v  21.3879 -1.50775e-15 24.6234
v  10.0617 -1.59718e-15 26.0839
v  22.9523 -2.17283e-15 35.485
v  11.7721 -2.27746e-15 37.1937
v  24.7834 -2.95128e-15 48.198
v  13.7263 -3.05475e-15 49.8879
v  0 0 0
v  1.03546 -4.11852e-16 6.72605
v  2.33671 -9.29423e-16 15.1786
v  4.13324 -1.64399e-15 26.8484
v  5.86486 -2.33274e-15 38.0965
v  7.8191 -3.11003e-15 50.7907

# 0 UV coordinates

# 67 vertex normals
vn -0.0167793 0.993813 -0.109795
vn -0.0167806 0.993813 -0.109793
vn 0.0312652 0.972482 0.230873
vn 0.0312652 0.972482 0.230872
vn -0.0587381 0.888228 -0.455631
vn -0.0587621 0.888193 -0.455698
vn -0.012036 0.995566 -0.0932903
vn -0.0120244 0.995568 -0.0932734
vn 0.0474151 0.928734 0.367702
vn 0.0474472 0.92871 0.367759
vn -0.0999195 0.750077 -0.653759
vn -0.0999172 0.750064 -0.653774
vn 0.118939 0.616606 0.778236
vn 0.118935 0.616592 0.778247
vn 0.260106 0.964749 -0.0400427
vn 0.0312652 0.972482 0.230872
vn 0.260106 0.964749 -0.0400427
vn 0.260106 0.964749 -0.0400427
vn 0.260106 0.96475 -0.0400427
vn 0.248278 0.962113 -0.112682
vn -0.0999149 0.750077 -0.65376
vn -0.0167802 0.993813 -0.109795
vn -0.0167801 0.993813 -0.109795
vn 0.118939 0.616606 0.778236
vn -0.134197 -2.84947e-05 -0.990955
vn -0.134197 -2.84974e-05 -0.990955
vn 0.989786 -2.56589e-05 -0.142559
vn 0.989786 -2.56408e-05 -0.142559
vn 0.134197 2.84891e-05 0.990955
vn -0.988357 2.53714e-05 0.152155
vn -0.988357 2.55007e-05 0.152155
vn -0.127891 -2.86486e-05 -0.991788
vn 0.989786 -2.56592e-05 -0.142559
vn 0.989786 -2.55692e-05 -0.142559
vn 0.989786 -2.62159e-05 -0.142559
vn 0.989786 -2.59718e-05 -0.142559
vn 0.127891 2.86542e-05 0.991788
vn 0.127891 2.86622e-05 0.991788
vn -0.151077 -2.80498e-05 -0.988522
vn 0.989786 -2.57903e-05 -0.142559
vn 0.989786 -2.61493e-05 -0.142559
vn 0.151077 2.80519e-05 0.988522
vn 0.151077 2.80438e-05 0.988522
vn -0.988357 2.59152e-05 0.152155
vn -0.988357 2.59175e-05 0.152155
vn -0.134197 -2.84959e-05 -0.990955
vn -0.988357 2.591e-05 0.152155
vn 0.988357 -2.59319e-05 -0.152155
vn 0.988357 -2.59108e-05 -0.152155
vn -0.988357 2.591e-05 0.152155
vn -0.988357 2.58972e-05 0.152155
vn 0.988357 -2.59324e-05 -0.152155
vn 0.151078 2.80529e-05 0.988522
vn -0.988357 2.58013e-05 0.152155
vn -0.988357 2.59099e-05 0.152155
vn 6.65964e-25 -1 -6.12323e-17
vn 6.69749e-25 -1 -6.12323e-17
vn -1.55534e-24 -1 -6.12323e-17
vn 5.49829e-24 -1 -6.12323e-17
vn 5.10214e-24 -1 -6.12323e-17
vn -2.94799e-24 -1 -6.12324e-17
vn -5.20713e-24 -1 -6.12323e-17
vn 0 -1 -6.12323e-17
vn -4.14352e-24 -1 -6.12323e-17
vn 6.00243e-24 -1 -6.12323e-17
vn 4.67057e-24 -1 -6.12323e-17
vn -2.62106e-23 -1 -6.12323e-17

# Mesh 'defaultobject' with 88 faces
g defaultobject
usemtl DefaultMaterial
f  1//1 2//1 3//1
f  2//1 1//1 4//2
f  5//3 6//3 7//3
f  6//3 5//3 8//4
f  9//5 10//5 11//5
f  10//6 9//6 12//6
f  11//7 13//7 14//7
f  13//8 11//8 10//8
f  14//9 15//9 16//9
f  15//10 14//10 13//10
f  4//11 17//11 2//11
f  17//12 4//12 18//12
f  19//13 3//13 20//13
f  3//14 19//14 1//14
f  5//15 21//15 22//15
f  21//16 5//3 7//3
f  5//15 23//17 12//17
f  23//17 5//15 22//15
f  12//17 24//18 15//18
f  24//18 12//17 23//17
f  15//18 25//19 17//19
f  25//19 15//18 24//18
f  26//20 17//20 25//20
f  26//21 2//11 17//11
f  2//1 27//22 3//1
f  27//22 2//1 26//23
f  3//13 28//24 20//13
f  28//24 3//13 27//24
f  7//25 29//25 30//25
f  29//25 7//25 6//26
f  29//27 8//27 31//27
f  8//27 29//27 6//28
f  31//29 5//29 32//29
f  5//29 31//29 8//29
f  13//30 12//30 15//30
f  12//30 13//30 10//31
f  12//32 33//32 34//32
f  33//32 12//32 9//32
f  9//33 35//33 33//33
f  35//33 9//33 16//34
f  16//34 9//33 11//35
f  16//34 11//35 14//36
f  35//37 15//37 36//37
f  15//37 35//37 16//38
f  17//39 37//39 38//39
f  37//39 17//39 18//39
f  18//33 39//33 37//33
f  39//33 18//33 19//33
f  19//33 18//33 4//40
f  19//33 4//40 1//41
f  39//42 20//42 40//42
f  20//42 39//42 19//43
f  22//44 41//44 42//44
f  41//44 22//44 21//45
f  21//46 30//25 41//46
f  30//25 21//46 7//25
f  23//47 42//44 43//47
f  42//44 23//47 22//44
f  32//48 12//48 34//48
f  12//48 32//48 5//49
f  24//50 43//47 44//50
f  43//47 24//50 23//47
f  25//51 44//50 45//51
f  44//50 25//51 24//50
f  36//52 17//52 38//52
f  17//52 36//52 15//52
f  40//42 28//53 46//53
f  28//53 40//42 20//42
f  27//54 26//54 28//54
f  28//54 45//51 46//55
f  45//51 28//54 25//51
f  25//51 28//54 26//54
f  29//56 32//56 30//56
f  32//56 29//56 31//57
f  33//58 36//58 34//58
f  36//58 33//58 35//59
f  37//60 40//60 38//60
f  40//60 37//60 39//61
f  42//62 30//56 32//56
f  30//56 42//62 41//63
f  32//56 43//64 42//62
f  43//64 32//56 34//58
f  34//58 44//65 43//64
f  44//65 34//58 36//58
f  36//58 45//66 44//65
f  45//66 36//58 38//60
f  46//67 38//60 40//60
f  38//60 46//67 45//66

