# {"id":"BLDG_0003000e00613bd9","idOriginal":"BLDG_0003000e00613bd9","origin":[13.387621047126302,52.514088276153274],"elevation":32.2099990844727}
# Longitude: 13.387621047126302
# Latitude: 52.514088276153274
# Elevation: 32.2099990844727

# File produced by Open Asset Import Library (http://www.assimp.sf.net)
# (assimp v3.1.0)

mtllib BLDG_0003000e00613bd9.obj.mtl

# 8 vertex positions
v  10.5891 4.98447e-17 -0.814026
v  1.85887 -1.48063e-15 24.1806
v  0 0 0
v  12.448 -1.43079e-15 23.3666
v  1.85947 28.0409 24.1797
v  10.5897 28.0409 -0.814912
v  0.000598558 28.0409 -0.00088635
v  12.4486 28.0409 23.3657

# 0 UV coordinates

# 10 vertex normals
vn -8.22156e-25 -1 -6.12323e-17
vn 1.0277e-23 -1 -6.12323e-17
vn 0 1 0
vn -0.0766476 -2.98781e-05 -0.997058
vn -0.0766477 -2.98801e-05 -0.997058
vn 0.997058 -2.36887e-05 -0.0766483
vn 0.997058 -2.37224e-05 -0.0766483
vn 0.0766477 2.99035e-05 0.997058
vn -0.997058 2.37059e-05 0.0766483
vn -0.997058 2.37029e-05 0.0766483

# Mesh 'defaultobject' with 12 faces
g defaultobject
usemtl DefaultMaterial
f  1//1 2//1 3//1
f  2//1 1//1 4//2
f  5//3 6//3 7//3
f  6//3 5//3 8//3
f  1//4 7//4 6//4
f  7//4 1//4 3//5
f  1//6 8//6 4//6
f  8//6 1//6 6//7
f  4//8 5//8 2//8
f  5//8 4//8 8//8
f  3//9 5//9 7//9
f  5//9 3//9 2//10

