# {"id":"BLDG_00030000001e9391","idOriginal":"BLDG_00030000001e9391","origin":[13.379981679196984,52.542426041472815],"elevation":40.5400009155273}
# Longitude: 13.379981679196984
# Latitude: 52.542426041472815
# Elevation: 40.5400009155273

# File produced by Open Asset Import Library (http://www.assimp.sf.net)
# (assimp v3.1.0)

mtllib BLDG_00030000001e9391.obj.mtl

# 14 vertex positions
v  27.3889 9.96577 29.4376
v  33.8997 9.96577 -31.1184
v  0.00021264 9.96577 -0.00031561
v  50.158 9.96577 8.21373
v  50.4248 9.96577 8.49893
v  47.1298 9.96577 -16.9707
v  61.3738 9.96577 -1.73986
v  33.8995 1.90543e-15 -31.1181
v  27.3887 -1.80255e-15 29.4379
v  0 0 0
v  50.1578 -5.02965e-16 8.21404
v  47.1296 1.03913e-15 -16.9703
v  50.4246 -5.20429e-16 8.49925
v  61.3736 1.06517e-16 -1.73955

# 0 UV coordinates

# 15 vertex normals
vn 0 1 0
vn 0 -1 -6.12323e-17
vn 0 -1 -6.12323e-17
vn 2.62221e-22 -1 -6.12324e-17
vn -5.41922e-24 -1 -6.12323e-17
vn -0.73213 3.73348e-05 0.681165
vn -0.73213 3.71936e-05 0.681165
vn 0.68185 8.65736e-06 0.731492
vn -0.730316 3.72923e-05 0.683109
vn 0.683021 8.57973e-06 0.730399
vn 0.730372 -3.70051e-05 -0.683049
vn 0.730372 -3.72988e-05 -0.683049
vn 0.730397 -3.69937e-05 -0.683022
vn -0.676238 -8.90142e-06 -0.736683
vn -0.676238 -9.0272e-06 -0.736683

# Mesh 'defaultobject' with 24 faces
g defaultobject
usemtl DefaultMaterial
f  1//1 2//1 3//1
f  2//1 1//1 4//1
f  2//1 4//1 5//1
f  2//1 5//1 6//1
f  6//1 5//1 7//1
f  8//2 9//2 10//2
f  9//2 8//2 11//3
f  11//3 8//2 12//3
f  11//3 12//3 13//4
f  13//4 12//3 14//5
f  1//6 10//6 9//6
f  10//6 1//6 3//7
f  1//8 11//8 4//8
f  11//8 1//8 9//8
f  5//9 11//9 13//9
f  11//9 5//9 4//9
f  5//10 14//10 7//10
f  14//10 5//10 13//10
f  7//11 12//11 6//11
f  12//11 7//11 14//12
f  6//13 8//13 2//13
f  8//13 6//13 12//13
f  3//14 8//14 10//14
f  8//14 3//14 2//15

