# {"id":"BLDG_0003000900149f96","idOriginal":"BLDG_0003000900149f96","origin":[13.355193535557145,52.54973910411449],"elevation":35.439998626709}
# Longitude: 13.355193535557145
# Latitude: 52.54973910411449
# Elevation: 35.439998626709

# File produced by Open Asset Import Library (http://www.assimp.sf.net)
# (assimp v3.1.0)

mtllib BLDG_0003000900149f96.obj.mtl

# 16 vertex positions
v  8.59225 21.2453 -8.70074
v  13.3468 22.72 -3.93724
v  18.0605 22.72 -8.71039
v  4.78065 22.72 4.73684
v  0.000452605 21.2453 -0.00067316
v  13.306 22.72 -13.4739
v  5.39873 21.2453 -11.9003
v  10.1792 22.72 -16.6068
v  13.3463 2.41042e-16 -3.93652
v  18.06 5.33313e-16 -8.70967
v  4.78017 -2.90092e-16 4.73756
v  10.1787 1.01683e-15 -16.606
v  13.3056 8.24997e-16 -13.4732
v  0 0 0
v  8.5918 5.32726e-16 -8.70007
v  5.39828 7.28645e-16 -11.8997

# 0 UV coordinates

# 27 vertex normals
vn -0.152289 0.976826 -0.150394
vn -0.152289 0.976826 -0.150394
vn -0.152289 0.976826 -0.150394
vn -0.151959 0.97668 0.15167
vn -0.151959 0.97668 0.15167
vn -0.151959 0.97668 0.15167
vn 0.71152 7.09634e-06 0.702666
vn 0.71152 7.06535e-06 0.702666
vn 0.71152 7.11127e-06 0.702666
vn 0 1 0
vn 0.707779 -3.748e-05 -0.706434
vn 0.707779 -3.74303e-05 -0.706434
vn 0.707779 -3.75097e-05 -0.706434
vn 5.55112e-17 1 -1.38778e-17
vn -0.703934 3.75047e-05 0.710265
vn -0.703934 3.75013e-05 0.710265
vn -0.71152 -7.10598e-06 -0.702666
vn -0.71152 -7.09734e-06 -0.702666
vn -0.707779 3.74792e-05 0.706434
vn -0.707779 3.74634e-05 0.706434
vn -0.701566 -7.64029e-06 -0.712604
vn -0.701567 -7.65345e-06 -0.712604
vn -6.9829e-24 -1 -6.12323e-17
vn -1.42635e-23 -1 -6.12323e-17
vn 0 -1 -6.12323e-17
vn 0 -1 -6.12323e-17
vn 4.6903e-24 -1 -6.12323e-17

# Mesh 'defaultobject' with 28 faces
g defaultobject
usemtl DefaultMaterial
f  1//1 2//1 3//1
f  2//1 1//1 4//2
f  4//2 1//1 5//3
f  6//4 1//4 3//4
f  1//4 6//4 7//5
f  7//5 6//4 8//6
f  3//7 9//7 10//7
f  9//7 3//7 11//8
f  11//8 3//7 4//9
f  4//10 3//10 2//10
f  10//11 6//11 3//11
f  6//11 10//11 8//12
f  8//12 10//11 12//13
f  12//14 10//14 13//14
f  4//15 14//15 11//15
f  14//15 4//15 5//16
f  5//17 15//17 14//17
f  15//17 5//17 1//18
f  1//19 16//19 15//19
f  16//19 1//19 7//20
f  7//21 12//21 16//21
f  12//21 7//21 8//22
f  12//23 15//23 16//23
f  15//23 12//23 13//24
f  15//23 11//25 14//25
f  11//25 15//23 9//26
f  9//26 15//23 13//24
f  9//26 13//24 10//27

