# {"id":"BLDG_00030009007e103b","idOriginal":"BLDG_00030009007e103b","origin":[13.393591994168231,52.54303897779865],"elevation":45.8899993896484}
# Longitude: 13.393591994168231
# Latitude: 52.54303897779865
# Elevation: 45.8899993896484

# File produced by Open Asset Import Library (http://www.assimp.sf.net)
# (assimp v3.1.0)

mtllib BLDG_00030009007e103b.obj.mtl

# 42 vertex positions
v  9.94003 -4.97905e-16 8.1314
v  4.39558 17.76 10.4605
v  4.3952 -6.40554e-16 10.461
v  4.39565 21.31 10.4604
v  9.94049 21.31 8.13073
v  12.6079 -4.2927e-16 7.01051
v  24.7271 21.31 1.91818
v  16.3588 -3.32773e-16 5.4346
v  19.0637 -2.63184e-16 4.29812
v  24.7271 17.76 1.91829
v  24.7267 -1.17496e-16 1.91885
v  8.21328 17.76 -3.45068
v  11.9641 17.76 -5.0266
v  8.2129 2.11259e-16 -3.45012
v  11.9637 3.07756e-16 -5.02604
v  13.2783 21.31 -5.57929
v  20.3319 21.31 -8.54287
v  5.54518 17.76 -2.33019
v  13.2782 17.76 -5.57918
v  20.3319 17.76 -8.54276
v  14.6689 17.76 -6.16348
v  14.6685 3.7737e-16 -6.16292
v  20.3315 5.23058e-16 -8.54219
v  0.000455087 21.31 -0.000674879
v  5.54526 21.31 -2.3303
v  0 0 0
v  13.2785 24 -5.57897
v  5.5448 1.42648e-16 -2.32963
v  5.5455 24 -2.32995
v  23.3294 21.31 -1.4086
v  7.07269 3.77433e-16 -6.16395
v  7.07307 17.76 -6.16452
v  4.40503 3.08804e-16 -5.04315
v  4.40541 17.76 -5.04371
v  13.5285 5.43519e-16 -8.87633
v  13.5289 17.76 -8.87689
v  10.8235 4.73929e-16 -7.73986
v  10.8239 17.76 -7.74042
v  16.2758 24 1.5549
v  16.2758 21.31 1.55498
v  8.54281 24 4.80392
v  8.54276 21.31 4.804

# 0 UV coordinates

# 60 vertex normals
vn 0.387347 2.09368e-05 0.921934
vn 0.387347 2.09524e-05 0.921934
vn 0.387347 2.09016e-05 0.921934
vn 0.387347 2.09013e-05 0.921934
vn 0.387347 2.09382e-05 0.921934
vn 0.387347 2.08116e-05 0.921934
vn 0.387347 2.10492e-05 0.921934
vn 0.387347 2.09004e-05 0.921934
vn 0.387347 2.09594e-05 0.921934
vn -0.38735 -2.09177e-05 -0.921933
vn -0.38735 -2.09053e-05 -0.921933
vn -0.387347 -2.0997e-05 -0.921934
vn -0.387201 -0.000737551 -0.921995
vn -0.38735 -0.000136881 -0.921933
vn -0.387634 0.000651425 -0.921813
vn -0.387347 -2.09004e-05 -0.921934
vn -0 -1 -0
vn -0.387347 -2.09302e-05 -0.921934
vn -0.387347 -2.08807e-05 -0.921934
vn -0.387347 -2.09253e-05 -0.921934
vn -0.387299 -2.0946e-05 -0.921954
vn -0.387411 0.00014218 -0.921907
vn -0.387347 -2.09282e-05 -0.921934
vn -0.38735 0.000153687 -0.921933
vn 0.921933 -3.18585e-05 -0.387349
vn 0.921933 -3.19532e-05 -0.387349
vn 0.921933 -3.20923e-05 -0.387349
vn 0.921933 -3.25333e-05 -0.387349
vn 0.921933 -3.2077e-05 -0.387349
vn -0.921933 3.19467e-05 0.387349
vn -0.921933 3.1991e-05 0.387349
vn -0.921933 3.19143e-05 0.387349
vn 0.921934 -3.19692e-05 -0.387347
vn 0.921934 -3.19419e-05 -0.387348
vn -0.921971 3.19732e-05 0.387259
vn -0.921971 3.19432e-05 0.387259
vn -0.387345 -2.09159e-05 -0.921935
vn -0.387345 -2.09302e-05 -0.921935
vn 0.921933 -3.19741e-05 -0.38735
vn -0.921933 3.19257e-05 0.38735
vn -0.921933 3.19648e-05 0.38735
vn -0.387348 -2.09302e-05 -0.921934
vn -0.387348 -2.0951e-05 -0.921934
vn 0.921932 -3.19781e-05 -0.387352
vn 0.921932 -3.17966e-05 -0.387352
vn 0.38735 2.08798e-05 0.921933
vn 0.38735 2.09643e-05 0.921933
vn -0.921932 3.19779e-05 0.387352
vn -0.921932 3.22548e-05 0.387352
vn 0 -1 -6.12323e-17
vn 2.54428e-23 -1 -6.12323e-17
vn 0 -1 -6.12323e-17
vn -9.11468e-24 -1 -6.12323e-17
vn 1.27241e-23 -1 -6.12323e-17
vn -4.58727e-24 -1 -6.12323e-17
vn 2.09497e-24 -1 -6.12323e-17
vn -9.59073e-21 -1 -6.12464e-17
vn 9.19594e-24 -1 -6.12323e-17
vn -6.12971e-24 -1 -6.12323e-17
vn -0 1 0

# Mesh 'defaultobject' with 80 faces
g defaultobject
usemtl DefaultMaterial
f  1//1 2//1 3//1
f  2//1 1//1 4//2
f  4//2 1//1 5//3
f  5//3 1//1 6//4
f  5//3 6//4 7//5
f  7//5 6//4 8//6
f  7//5 8//6 9//7
f  7//5 9//7 10//8
f  10//8 9//7 11//9
f  12//10 13//10 14//10
f  15//11 14//10 13//10
f  16//12 17//12 18//12
f  12//13 18//13 17//13
f  13//14 12//14 17//14
f  19//15 13//15 17//15
f  20//16 19//16 17//12
f  21//17 19//17 20//17
f  22//18 21//18 20//16
f  23//19 22//18 20//16
f  24//20 25//20 26//20
f  18//12 26//20 25//20
f  27//21 18//21 25//21
f  16//22 18//22 27//22
f  28//23 26//20 18//12
f  25//24 29//24 27//24
f  23//25 10//25 11//25
f  10//25 23//25 20//26
f  10//25 20//26 7//27
f  7//27 20//26 30//28
f  30//28 20//26 17//29
f  3//30 24//30 26//30
f  24//30 3//30 2//31
f  24//30 2//31 4//32
f  31//33 12//33 14//33
f  12//33 31//33 32//34
f  33//35 18//35 34//35
f  18//35 33//35 28//36
f  31//37 34//37 32//37
f  34//37 31//37 33//38
f  35//39 21//39 22//39
f  21//39 35//39 36//39
f  37//40 13//40 38//40
f  13//40 37//40 15//41
f  35//42 38//42 36//42
f  38//42 35//42 37//43
f  16//44 39//44 40//44
f  39//44 16//44 27//45
f  40//46 41//46 42//46
f  41//46 40//46 39//47
f  42//48 29//48 25//48
f  29//48 42//48 41//49
f  9//50 23//50 11//50
f  23//50 9//50 8//51
f  23//50 8//51 6//50
f  23//50 6//50 1//52
f  23//50 1//52 3//52
f  23//50 3//52 22//53
f  22//53 3//52 15//54
f  15//54 3//52 14//55
f  14//55 3//52 26//56
f  14//55 26//56 28//57
f  28//57 31//50 14//55
f  31//50 28//57 33//52
f  15//54 35//58 22//53
f  35//58 15//54 37//59
f  24//60 42//60 25//60
f  16//60 30//60 17//60
f  30//60 16//60 7//60
f  7//60 16//60 40//60
f  7//60 40//60 5//60
f  5//60 40//60 42//60
f  5//60 42//60 24//60
f  5//60 24//60 4//60
f  34//60 12//60 32//60
f  12//60 34//60 18//60
f  36//60 19//60 21//60
f  19//60 36//60 13//60
f  13//60 36//60 38//60
f  27//60 41//60 39//60
f  41//60 27//60 29//60

