# {"id":"BLDG_0003000b0011ae90","idOriginal":"BLDG_0003000b0011ae90","origin":[13.340171907747392,52.53197838050917],"elevation":34.6800003051758}
# Longitude: 13.340171907747392
# Latitude: 52.53197838050917
# Elevation: 34.6800003051758

# File produced by Open Asset Import Library (http://www.assimp.sf.net)
# (assimp v3.1.0)

mtllib BLDG_0003000b0011ae90.obj.mtl

# 12 vertex positions
v  6.31026 -1.21719e-17 0.198783
v  13.4556 1.07753e-15 -17.5974
v  12.6205 -2.43438e-17 0.397565
v  0 0 0
v  7.14535 1.0897e-15 -17.7962
v  0.835096 1.10187e-15 -17.995
v  12.6209 20.0333 0.396931
v  0.000426354 20.0333 -0.00063403
v  6.31071 21.0754 0.198116
v  0.835522 20.0333 -17.9956
v  13.456 20.0333 -17.598
v  7.1458 21.0754 -17.7968

# 0 UV coordinates

# 18 vertex normals
vn 0 -1 -6.12323e-17
vn -1.4897e-23 -1 -6.12323e-17
vn 5.12083e-24 -1 -6.12323e-17
vn 3.3751e-24 -1 -6.12323e-17
vn -0.0314859 3.23024e-05 0.999504
vn -0.0314859 3.23024e-05 0.999504
vn -0.0314859 3.23033e-05 0.999504
vn -0.0314859 3.23046e-05 0.999504
vn 0.0314858 -3.22639e-05 -0.999504
vn 0.0314861 -3.21686e-05 -0.999504
vn 0.0314858 -3.23589e-05 -0.999504
vn 0.0314858 -3.17791e-05 -0.999504
vn -0.998925 1.97922e-05 -0.0463573
vn -0.998925 1.97969e-05 -0.0463573
vn 0.998925 -1.97877e-05 0.0463573
vn -0.16271 0.986645 -0.0075509
vn -0.16271 0.986645 -0.0075509
vn 0.162711 0.986645 0.00755094

# Mesh 'defaultobject' with 20 faces
g defaultobject
usemtl DefaultMaterial
f  1//1 2//1 3//1
f  2//1 1//1 4//2
f  2//1 4//2 5//3
f  5//3 4//2 6//4
f  7//5 1//5 3//5
f  1//5 7//5 4//6
f  4//6 7//5 8//7
f  8//7 7//5 9//8
f  10//9 5//9 6//9
f  5//9 10//9 2//10
f  2//10 10//9 11//11
f  11//11 10//9 12//12
f  8//13 6//13 4//13
f  6//13 8//13 10//14
f  2//15 7//15 3//15
f  7//15 2//15 11//15
f  10//16 9//16 12//16
f  9//16 10//16 8//17
f  12//18 7//18 11//18
f  7//18 12//18 9//18

