# {"id":"BLDG_000300010005492e","idOriginal":"BLDG_000300010005492e","origin":[13.39649593537881,52.54119932921631],"elevation":46.5}
# Longitude: 13.39649593537881
# Latitude: 52.54119932921631
# Elevation: 46.5

# File produced by Open Asset Import Library (http://www.assimp.sf.net)
# (assimp v3.1.0)

mtllib BLDG_000300010005492e.obj.mtl

# 118 vertex positions
v  24.3917 -1.26795e-17 0.207071
v  26.3404 2.88901e-16 -4.71811
v  27.8613 8.3774e-17 -1.36813
v  22.8708 1.92448e-16 -3.14291
v  17.4429 0.259998 3.07404
v  19.5115 0.259998 -1.80202
v  20.95 0.259998 1.58415
v  16.0044 0.259998 -0.312134
v  12.6451 0.279999 1.26211
v  10.7431 0.279999 5.86382
v  9.34321 0.279999 2.51054
v  14.0515 0.279999 4.56639
v  36.3219 0.130001 -3.21226
v  37.6169 0.130001 -14.9996
v  42.9597 0.130001 -2.71666
v  33.6889 0.130001 -9.26543
v  -0.600538 0.200001 6.33
v  4.29764 0.200001 10.2838
v  0.853552 0.200001 9.8052
v  1.47333 0.200001 3.53384
v  30.1334 -0.18 3.63659
v  40.5147 -0.18 -6.60935
v  42.7656 -0.18 -1.65146
v  26.4813 -0.18 5.16545
v  23.0769 -0.18 6.5906
v  19.5619 -0.18 8.06203
v  16.2324 -0.18 9.45585
v  12.7599 -0.18 10.9095
v  9.28375 -0.18 12.3647
v  5.77955 -0.18 13.8316
v  3.68121 -0.18 8.80985
v  27.8826 -0.18 -1.3213
v  24.3532 -0.18 0.156141
v  20.9488 -0.18 1.5813
v  17.4339 -0.18 3.05273
v  14.1043 -0.18 4.44654
v  10.6615 -0.18 5.88775
v  9.2495 -0.18 2.50848
v  2.26728 -0.18 5.42605
v  10.3738 -0.18 -4.33478
v  12.6732 -0.18 1.07785
v  0 -0.18 -1.10218e-17
v  3.50515 -0.18 -1.46465
v  39.0086 -0.18 -9.92661
v  26.3728 -0.18 -4.64665
v  36.5765 -0.18 -15.2838
v  23.9407 -0.18 -10.0038
v  17.2202 -0.18 -7.1956
v  22.925 -0.18 -3.20592
v  19.5196 -0.18 -1.78297
v  16.0037 -0.18 -0.313813
v  12.7603 21.5476 10.9088
v  7.18587 21.5476 7.34224
v  9.28421 21.5476 12.364
v  16.2328 21.5476 9.45516
v  19.5624 21.5476 8.06134
v  23.0773 21.5476 6.58992
v  26.4818 21.5476 5.16476
v  30.1339 21.5476 3.6359
v  27.883 21.5476 -1.32199
v  10.662 21.5476 5.88707
v  14.1048 21.5476 4.44585
v  17.4343 21.5476 3.05204
v  20.9493 21.5476 1.58061
v  24.3537 21.5476 0.155453
v  19.5201 21.55 -1.78366
v  22.9254 21.5476 -3.20661
v  17.2207 21.55 -7.19629
v  26.3733 21.55 -4.64733
v  23.9412 21.55 -10.0045
v  17.4343 21.55 3.05204
v  12.6737 21.55 1.07716
v  14.1048 21.55 4.44585
v  16.0042 21.55 -0.314501
v  3.50561 21.55 -1.46534
v  10.3743 21.55 -4.33547
v  10.662 21.55 5.88707
v  5.77289 21.55 3.96071
v  7.18587 21.55 7.34224
v  9.24996 21.55 2.50779
v  26.3733 21.5476 -4.64733
v  36.5769 21.5476 -15.2845
v  23.9412 21.5476 -10.0045
v  39.0091 21.5476 -9.9273
v  40.5151 21.5476 -6.61004
v  42.766 21.5476 -1.65215
v  9.28421 21.55 12.364
v  3.68158 17.18 8.8093
v  5.77992 17.18 13.831
v  2.26765 17.1798 5.4255
v  0.000370794 17.1798 -0.0005497
v  27.8618 21.3601 -1.36881
v  25.3665 23.6719 -2.25627
v  24.3921 21.3601 0.206395
v  22.8712 21.3601 -3.14358
v  26.3409 21.3601 -4.71879
v  20.9505 21.7322 1.58347
v  18.4777 23.7707 0.635265
v  17.4434 21.7322 3.07336
v  16.0049 21.7322 -0.312814
v  19.512 21.7322 -1.8027
v  12.6456 21.73 1.26143
v  11.6962 23.77 3.54997
v  14.052 21.73 4.56572
v  10.7436 21.73 5.86314
v  9.34366 21.73 2.50986
v  -0.600176 17.18 6.32946
v  0.853915 17.18 9.80467
v  1.50642 19.9468 7.48758
v  36.3225 26.9697 -3.21311
v  37.6478 43.1695 -7.54985
v  33.6895 26.9697 -9.26628
v  37.6175 26.9697 -15.0004
v  42.9603 26.9697 -2.71751
v  1.4737 17.18 3.5333
v  4.29801 17.18 10.2833
v  22.9254 21.55 -3.20661
v  19.5201 21.5476 -1.78366

# 0 UV coordinates

# 131 vertex normals
vn 3.7763e-24 -1 -6.12323e-17
vn -7.5526e-24 -1 -6.12323e-17
vn 0 -1 0
vn 0 1 0
vn 0.000253284 1 0.000605047
vn 0.00059791 1 -0.000254004
vn 0.00059791 1 -0.000254004
vn -0.0002781 0.999999 0.000998584
vn -0.696345 0.656079 0.290969
vn -0.696337 0.656111 0.290918
vn -0.696362 0.656058 0.290976
vn -0.696362 0.656058 0.290976
vn -0.696362 0.656058 0.290976
vn -0.696362 0.656058 0.290976
vn 0.323476 0.622655 0.712505
vn -0.702666 0.635998 0.319011
vn -0.323482 0.622636 -0.712519
vn 0.702688 0.635968 -0.319021
vn 0.290278 0.669954 0.683301
vn -0.672413 0.682834 0.285654
vn -0.290284 0.669937 -0.683315
vn 0.672434 0.682809 -0.285664
vn 0.695031 0.655304 -0.295817
vn 0.273382 0.662793 0.697113
vn -0.696972 0.655413 0.29097
vn -0.26487 0.662632 -0.700544
vn -0.811439 0.475702 0.339521
vn -0.902217 0.178867 0.392443
vn -0.798169 0.252956 -0.546753
vn 0.902227 0.178806 -0.392447
vn -0.0718271 0.263409 0.962007
vn -0.6087 0.65243 -0.451464
vn 0.811461 0.475658 -0.33953
vn -0.104255 0.652889 0.750244
vn 0.922502 -3.19317e-05 -0.385992
vn -0.385552 0 -0.922686
vn -0.385552 -2.10043e-05 -0.922686
vn -0.385552 -2.09762e-05 -0.922686
vn -0.385552 -2.09981e-05 -0.922686
vn -0.385552 -2.09673e-05 -0.922686
vn -0.385552 -2.09819e-05 -0.922686
vn 0.38615 2.09489e-05 0.922436
vn 0.38615 2.09305e-05 0.922436
vn 0.38615 2.09312e-05 0.922436
vn 0.386149 2.08259e-05 0.922436
vn 0.38615 2.06236e-05 0.922436
vn 0.38615 2.16403e-05 0.922436
vn 0.38615 2.08721e-05 0.922436
vn 0.38615 2.10258e-05 0.922436
vn 0.38615 2.09526e-05 0.922436
vn 0.38615 2.08598e-05 0.922436
vn 0.38615 2.09641e-05 0.922436
vn 0.38615 2.09641e-05 0.922436
vn 0.38615 2.0964e-05 0.922436
vn 0.38615 2.0942e-05 0.922436
vn 0.910553 -3.26092e-05 -0.413392
vn 0.910553 -3.25295e-05 -0.413392
vn 0.910553 -3.24381e-05 -0.413392
vn 0.910553 -3.26009e-05 -0.413392
vn -0.922688 3.1892e-05 0.385547
vn -0.922688 3.19365e-05 0.385547
vn -0.922688 3.18923e-05 0.385547
vn -0.922688 3.19252e-05 0.385547
vn -0.922688 0.000712165 0.385546
vn -0.922688 3.19165e-05 0.385547
vn 0.385552 2.09901e-05 0.922686
vn 0.385552 -0 0.922686
vn 0.385552 2.09905e-05 0.922686
vn 0.385552 2.09871e-05 0.922686
vn 0.385552 5.21939e-05 0.922686
vn 0.385552 2.0994e-05 0.922686
vn 0.385552 2.09762e-05 0.922686
vn -0.385552 -2.09752e-05 -0.922686
vn -0.385552 -2.09819e-05 -0.922686
vn -0.137639 3.4259e-05 0.990482
vn -0.137639 3.43176e-05 0.990482
vn -0.910553 3.25949e-05 0.413391
vn -0.910553 3.2515e-05 0.413392
vn -0.920391 3.20136e-05 0.391
vn 0.920391 -3.21003e-05 -0.391
vn 0.920391 -3.20162e-05 -0.391
vn -0.920391 3.20158e-05 0.391
vn -0.920391 3.20526e-05 0.391
vn -0.920391 0 0.391
vn 0.92039 -3.20122e-05 -0.391
vn 0.920391 -3.20158e-05 -0.391
vn 0.92039 0 -0.391
vn 0.922688 -3.18885e-05 -0.385546
vn 0.922688 -3.19326e-05 -0.385547
vn 0.922688 0 -0.385547
vn -0.38615 -2.09377e-05 -0.922436
vn -0.38615 -2.09409e-05 -0.922436
vn -0.38615 -2.09748e-05 -0.922436
vn -0.38615 -2.09697e-05 -0.922436
vn -0.38615 -2.09578e-05 -0.922436
vn -0.38615 -2.09748e-05 -0.922436
vn 0.38615 2.09468e-05 0.922436
vn 0.386228 0 0.922403
vn 0.910553 -3.25233e-05 -0.413392
vn 0.910553 -3.25173e-05 -0.413392
vn 0.41339 2.00128e-05 0.910554
vn -0.910553 3.25225e-05 0.413392
vn -0.910553 3.25231e-05 0.413392
vn -0.41339 -2.00114e-05 -0.910554
vn -0.41339 -2.00013e-05 -0.910554
vn 0.92039 -3.20034e-05 -0.391
vn 0.390998 2.08116e-05 0.920391
vn -0.92039 3.20036e-05 0.391
vn -0.920391 3.20843e-05 0.391
vn -0.390998 -2.07735e-05 -0.920391
vn -0.390998 -2.08107e-05 -0.920391
vn -0.353657 -2.2073e-05 -0.935375
vn -0.353657 -2.20573e-05 -0.935375
vn 0.920126 -3.2072e-05 -0.391621
vn 0.920126 -3.20782e-05 -0.391621
vn 0.365093 2.17004e-05 0.930971
vn 0.365093 2.16629e-05 0.930971
vn -0.922811 3.18977e-05 0.385252
vn -0.922811 3.18934e-05 0.385252
vn -0.0744566 3.31689e-05 0.997224
vn -0.0744566 3.31782e-05 0.997224
vn -0.917005 3.23084e-05 0.398875
vn -0.917005 3.2178e-05 0.398875
vn -0.825 -3.03174e-07 -0.565132
vn -0.825 -1.85934e-07 -0.565132
vn 0.917005 -3.23208e-05 -0.398875
vn 0.917005 -3.22996e-05 -0.398875
vn -0.922502 3.191e-05 0.385992
vn -0.922502 3.19209e-05 0.385992
vn -0.803194 -1.69739e-06 -0.595717
vn -0.803194 -1.7113e-06 -0.595717

# Mesh 'defaultobject' with 214 faces
g defaultobject
usemtl DefaultMaterial
f  1//1 2//1 3//1
f  2//1 1//1 4//2
f  5//3 6//3 7//3
f  6//3 5//3 8//3
f  9//3 10//3 11//3
f  10//3 9//3 12//3
f  13//3 14//3 15//3
f  14//3 13//3 16//3
f  17//3 18//3 19//3
f  18//3 17//3 20//3
f  21//3 22//3 23//3
f  22//3 21//3 24//3
f  22//3 24//3 25//3
f  22//3 25//3 26//3
f  22//3 26//3 27//3
f  22//3 27//3 28//3
f  22//3 28//3 29//3
f  22//3 29//3 30//3
f  22//3 30//3 31//3
f  22//3 31//3 32//3
f  32//3 31//3 33//3
f  33//4 31//4 34//4
f  34//4 31//4 35//4
f  35//3 31//3 36//3
f  36//3 31//3 37//3
f  37//3 31//3 38//3
f  38//3 31//3 39//3
f  38//3 40//3 41//3
f  40//3 38//3 39//3
f  40//3 39//3 42//3
f  40//3 42//3 43//2
f  32//3 44//3 22//3
f  44//3 32//3 45//3
f  44//3 45//3 46//3
f  46//3 45//3 47//3
f  45//3 48//3 47//3
f  48//3 45//3 40//3
f  40//3 45//3 49//3
f  40//3 49//3 50//3
f  50//3 49//3 33//3
f  50//3 33//3 34//3
f  40//3 51//3 41//3
f  51//3 40//3 50//3
f  41//3 51//3 35//3
f  41//3 35//3 36//3
f  52//4 53//4 54//4
f  53//4 52//4 55//4
f  53//4 55//4 56//4
f  53//4 56//4 57//4
f  53//4 57//4 58//4
f  53//4 58//4 59//4
f  53//4 59//4 60//4
f  53//3 60//3 61//3
f  61//4 60//4 62//4
f  62//3 60//3 63//3
f  63//4 60//4 64//4
f  64//3 60//3 65//3
f  65//5 66//5 64//5
f  66//6 65//6 67//6
f  66//6 67//6 68//7
f  68//8 67//8 69//8
f  68//4 69//4 70//4
f  71//4 72//4 73//4
f  72//4 71//4 74//4
f  72//4 74//4 75//4
f  75//4 74//4 76//4
f  76//4 74//4 66//4
f  76//4 66//4 68//4
f  77//4 78//4 79//4
f  78//4 77//4 80//4
f  78//4 80//4 75//4
f  75//4 80//4 72//4
f  81//4 82//4 83//4
f  82//4 81//4 60//4
f  82//4 60//4 59//4
f  82//4 59//4 84//4
f  84//4 59//4 85//4
f  85//4 59//4 86//4
f  87//9 88//9 89//9
f  88//10 87//10 90//10
f  90//11 87//11 91//11
f  91//11 87//11 79//12
f  91//11 79//12 78//13
f  91//11 78//13 75//14
f  92//15 93//15 94//15
f  93//16 95//16 94//16
f  93//17 96//17 95//17
f  92//18 96//18 93//18
f  97//19 98//19 99//19
f  98//20 100//20 99//20
f  98//21 101//21 100//21
f  97//22 101//22 98//22
f  102//23 103//23 104//23
f  103//24 105//24 104//24
f  103//25 106//25 105//25
f  102//26 106//26 103//26
f  107//27 108//27 109//27
f  110//28 111//28 112//28
f  111//29 113//29 112//29
f  111//30 114//30 113//30
f  110//31 114//31 111//31
f  107//32 109//32 115//32
f  116//33 115//33 109//33
f  109//34 108//34 116//34
f  20//35 116//35 18//35
f  116//35 20//35 115//35
f  83//36 68//36 70//36
f  68//36 83//36 76//36
f  76//36 83//36 75//36
f  75//37 83//37 91//37
f  91//37 83//37 47//38
f  91//37 47//38 48//39
f  91//37 48//39 40//40
f  91//37 40//40 43//28
f  91//37 43//28 42//41
f  59//42 23//42 86//42
f  23//42 59//42 58//43
f  23//42 58//43 57//44
f  23//42 57//44 56//45
f  23//42 56//45 55//46
f  23//42 55//46 52//47
f  23//42 52//47 54//48
f  23//42 54//48 21//49
f  21//49 54//48 24//50
f  24//50 54//48 25//51
f  25//51 54//48 26//52
f  26//52 54//48 27//53
f  27//53 54//48 28//54
f  28//54 54//48 29//55
f  84//56 46//56 82//56
f  46//56 84//56 85//57
f  46//56 85//57 86//58
f  46//56 86//58 23//59
f  46//4 23//4 44//4
f  44//4 23//4 22//4
f  89//60 31//60 30//60
f  31//60 89//60 39//61
f  39//61 89//60 42//62
f  42//62 89//60 90//63
f  90//64 89//64 88//64
f  91//65 42//62 90//63
f  45//66 67//66 49//66
f  67//66 45//66 81//66
f  67//67 81//67 117//67
f  117//67 81//67 69//67
f  50//68 74//68 51//68
f  74//68 50//68 118//69
f  74//70 118//70 66//70
f  41//71 80//71 38//71
f  80//71 41//71 72//72
f  83//37 46//73 47//38
f  46//73 83//37 82//74
f  18//75 108//75 19//75
f  108//75 18//75 116//76
f  60//77 45//77 32//77
f  45//77 60//77 81//78
f  64//79 50//79 34//79
f  50//79 64//79 118//79
f  49//80 65//80 33//80
f  65//80 49//80 67//81
f  62//82 41//82 36//82
f  41//82 62//82 72//83
f  72//84 62//84 73//84
f  74//85 35//85 51//85
f  35//85 74//85 63//86
f  63//87 74//87 71//87
f  80//88 37//88 38//88
f  37//88 80//88 61//89
f  61//90 80//90 77//90
f  65//91 32//91 33//91
f  32//91 65//91 60//92
f  63//93 34//93 35//93
f  34//93 63//93 64//94
f  61//95 36//95 37//95
f  36//95 61//95 62//96
f  29//55 89//97 30//97
f  89//97 29//55 54//48
f  89//98 54//98 87//98
f  2//99 92//99 3//99
f  92//99 2//99 96//100
f  3//101 94//101 1//101
f  94//101 3//101 92//101
f  94//102 4//102 1//102
f  4//102 94//102 95//103
f  95//104 2//104 4//104
f  2//104 95//104 96//105
f  6//106 97//106 7//106
f  97//106 6//106 101//106
f  7//107 99//107 5//107
f  99//107 7//107 97//107
f  99//108 8//108 5//108
f  8//108 99//108 100//109
f  100//110 6//110 8//110
f  6//110 100//110 101//111
f  106//112 9//112 11//112
f  9//112 106//112 102//113
f  9//114 104//114 12//114
f  104//114 9//114 102//115
f  12//116 105//116 10//116
f  105//116 12//116 104//117
f  105//118 11//118 10//118
f  11//118 105//118 106//119
f  15//120 110//120 13//120
f  110//120 15//120 114//121
f  110//122 16//122 13//122
f  16//122 110//122 112//123
f  112//124 14//124 16//124
f  14//124 112//124 113//125
f  14//126 114//126 15//126
f  114//126 14//126 113//127
f  108//128 17//128 19//128
f  17//128 108//128 107//129
f  107//130 20//130 17//130
f  20//130 107//130 115//131

