# {"id":"BLDG_00030009007f8fb9","idOriginal":"BLDG_00030009007f8fb9","origin":[13.37314085103572,52.552088439441086],"elevation":37.8899993896484}
# Longitude: 13.37314085103572
# Latitude: 52.552088439441086
# Elevation: 37.8899993896484

# File produced by Open Asset Import Library (http://www.assimp.sf.net)
# (assimp v3.1.0)

mtllib BLDG_00030009007f8fb9.obj.mtl

# 14 vertex positions
v  7.22921 3.78295e-16 -6.17803
v  7.65175 -5.31221e-16 8.6755
v  0 0 0
v  14.881 -1.52926e-16 2.49747
v  15.9255 -1.10562e-15 18.0562
v  23.1547 -7.27328e-16 11.8782
v  0.000162308 7.61 -0.00024116
v  7.65191 7.11 8.67528
v  7.65192 7.61 8.67526
v  15.9256 7.11 18.056
v  7.22934 6.11 -6.17822
v  14.8811 5.61 2.49729
v  14.8811 6.11 2.49728
v  23.1548 5.61 11.878

# 0 UV coordinates

# 22 vertex normals
vn 0 -1 -6.12323e-17
vn 1.78052e-24 -1 -6.12323e-17
vn 0 -1 -6.12323e-17
vn -0.749971 3.82532e-05 0.661471
vn -0.749971 3.69334e-05 0.661471
vn -0.749971 3.69203e-05 0.661471
vn -0.749971 3.68033e-05 0.661471
vn 0.749971 -3.69373e-05 -0.661471
vn 0.749971 -3.70353e-05 -0.661471
vn 0.749971 -3.65523e-05 -0.661471
vn 0.749971 -3.70353e-05 -0.661471
vn 0.749971 -3.68366e-05 -0.661471
vn -0.649673 -1.02347e-05 -0.760214
vn -0.649673 -1.02458e-05 -0.760214
vn 0.649673 1.02942e-05 0.760214
vn 0.649673 1.03996e-05 0.760214
vn 0.649673 1.02121e-05 0.760214
vn 0.649673 1.05114e-05 0.760213
vn 0.116869 0.987784 -0.103078
vn 0.116869 0.987784 -0.103078
vn 0.116869 0.987784 -0.103078
vn 0.116869 0.987784 -0.103078

# Mesh 'defaultobject' with 24 faces
g defaultobject
usemtl DefaultMaterial
f  1//1 2//1 3//1
f  2//1 1//1 4//1
f  2//1 4//1 5//2
f  5//2 4//1 6//3
f  7//4 8//4 9//4
f  8//4 7//4 2//5
f  2//5 7//4 3//6
f  8//4 5//7 10//7
f  5//7 8//4 2//5
f  11//8 4//8 1//8
f  4//8 11//8 12//9
f  12//9 11//8 13//10
f  12//9 6//11 4//8
f  6//11 12//9 14//12
f  7//13 1//13 3//13
f  1//13 7//13 11//14
f  13//15 8//15 12//15
f  8//15 13//15 9//16
f  6//17 10//17 5//17
f  10//17 6//17 14//18
f  12//19 10//19 14//19
f  10//19 12//19 8//20
f  11//21 9//21 13//21
f  9//21 11//21 7//22

