# {"id":"BLDG_00030002000a46b3","idOriginal":"BLDG_00030002000a46b3","origin":[13.384675241275819,52.52272389100161],"elevation":33.6599998474121}
# Longitude: 13.384675241275819
# Latitude: 52.52272389100161
# Elevation: 33.6599998474121

# File produced by Open Asset Import Library (http://www.assimp.sf.net)
# (assimp v3.1.0)

mtllib BLDG_00030002000a46b3.obj.mtl

# 25 vertex positions
v  18.2452 8.84 5.70074
v  14.0518 8.84 4.88833
v  15.0906 8.84 7.14979
v  0.000188666 8.84 -0.00027959
v  0.687075 8.84 -0.315794
v  17.2064 8.84 3.43928
v  0.310246 8.84 -1.13616
v  9.3724 8.84 -5.29878
v  25.7773 8.84 -0.497658
v  12.527 8.84 -6.74783
v  21.0978 8.84 -10.6848
v  4.30274 8.84 9.36646
v  21.0977 6.54235e-16 -10.6845
v  12.5268 4.13168e-16 -6.74755
v  9.37221 3.24439e-16 -5.2985
v  0.310057 6.95525e-17 -1.13588
v  25.7771 3.04557e-17 -0.497379
v  18.245 -3.49087e-16 5.70102
v  15.0904 -4.37815e-16 7.15007
v  14.0516 -2.99341e-16 4.88861
v  17.2062 -2.10612e-16 3.43956
v  0 0 0
v  4.30255 -5.73547e-16 9.36673
v  0.686886 1.93197e-17 -0.315515
v  4.98944 -5.54227e-16 9.05122

# 0 UV coordinates

# 34 vertex normals
vn 0 1 0
vn -0.417411 -1.98078e-05 -0.908718
vn -0.417411 -1.98078e-05 -0.908718
vn -0.417411 -1.9851e-05 -0.908718
vn -0.417411 -1.97645e-05 -0.908718
vn -0.417411 -1.98271e-05 -0.908718
vn 0.908716 -3.26038e-05 -0.417416
vn 0.908716 -3.26423e-05 -0.417416
vn 0.41741 1.98111e-05 0.908718
vn 0.41741 1.98577e-05 0.908718
vn -0.908717 3.26049e-05 0.417412
vn 0.908717 -3.26316e-05 -0.417413
vn 0.908717 -3.26207e-05 -0.417413
vn -0.908717 3.2596e-05 0.417413
vn -0.908717 3.26049e-05 0.417413
vn -0.417411 -1.98316e-05 -0.908718
vn -0.417411 -1.98323e-05 -0.908718
vn 0.417411 1.98071e-05 0.908718
vn 0.417411 1.98249e-05 0.908718
vn 0.417411 1.98078e-05 0.908718
vn 0.417411 1.98107e-05 0.908718
vn 0.417411 1.98107e-05 0.908718
vn -0.908717 3.25952e-05 0.417414
vn -0.908717 3.25935e-05 0.417414
vn 5.43569e-23 -1 -6.12323e-17
vn 1.17606e-23 -1 -6.12323e-17
vn 0 -1 -6.12324e-17
vn 9.94786e-23 -1 -6.12323e-17
vn 1.03217e-25 -1 -6.12323e-17
vn 1.70167e-25 -1 -6.12323e-17
vn 2.95891e-24 -1 -6.12324e-17
vn 0 -1 -6.12323e-17
vn 3.06388e-24 -1 -6.12323e-17
vn 1.22555e-23 -1 -6.12323e-17

# Mesh 'defaultobject' with 46 faces
g defaultobject
usemtl DefaultMaterial
f  1//1 2//1 3//1
f  2//1 1//1 4//1
f  4//1 1//1 5//1
f  5//1 1//1 6//1
f  5//1 6//1 7//1
f  7//1 6//1 8//1
f  8//1 6//1 9//1
f  8//1 9//1 10//1
f  10//1 9//1 11//1
f  4//1 12//1 2//1
f  13//2 10//2 11//2
f  10//2 13//2 14//2
f  10//2 14//2 8//3
f  8//3 14//2 7//4
f  7//4 14//2 15//5
f  7//4 15//5 16//6
f  9//7 13//7 11//7
f  13//7 9//7 17//8
f  18//9 3//9 19//9
f  3//9 18//9 1//10
f  20//11 3//11 2//11
f  3//11 20//11 19//11
f  21//12 1//12 18//12
f  1//12 21//12 6//13
f  22//14 12//14 4//14
f  12//14 22//14 23//15
f  24//16 4//16 5//16
f  4//16 24//16 22//17
f  25//18 12//18 23//18
f  12//18 25//18 2//19
f  2//19 25//18 20//20
f  17//21 6//21 21//21
f  6//21 17//21 9//22
f  16//23 5//23 7//23
f  5//23 16//23 24//24
f  23//25 22//25 24//25
f  15//26 24//25 16//26
f  24//25 15//26 14//27
f  24//25 14//27 13//28
f  24//25 13//28 17//29
f  24//25 17//29 21//30
f  24//25 21//30 20//31
f  24//25 20//31 25//32
f  24//25 25//32 23//25
f  21//30 19//33 20//31
f  19//33 21//30 18//34

