# {"id":"BLDG_0003000e001236e8","idOriginal":"BLDG_0003000e001236e8","origin":[13.34082691980797,52.556418199830084],"elevation":38.2900009155273}
# Longitude: 13.34082691980797
# Latitude: 52.556418199830084
# Elevation: 38.2900009155273

# File produced by Open Asset Import Library (http://www.assimp.sf.net)
# (assimp v3.1.0)

mtllib BLDG_0003000e001236e8.obj.mtl

# 11 vertex positions
v  12.5107 18.9968 4.91313
v  7.32653 14.357 -7.38043
v  7.39101 18.9968 -0.0656481
v  16.1737 14.357 1.22329
v  8.84744 14.357 8.60327
v  0.000305582 14.357 -0.00045512
v  16.1734 -7.4933e-17 1.22375
v  0 0 0
v  7.32623 4.51893e-16 -7.37997
v  12.5102 -3.00879e-16 4.91374
v  8.84713 -5.26826e-16 8.60372

# 0 UV coordinates

# 17 vertex normals
vn 0.464211 0.74609 -0.477344
vn 0.464211 0.74609 -0.477344
vn -0.464193 0.746113 0.477326
vn -0.464193 0.746113 0.477326
vn -0.472534 0.7461 -0.469092
vn -8.25089e-25 -1 -6.12323e-17
vn 3.30036e-24 -1 -6.12323e-17
vn 0.709686 7.24916e-06 0.704518
vn 0.709686 7.23095e-06 0.704518
vn 0.709686 7.28426e-06 0.704518
vn 0.709686 7.11561e-06 0.704518
vn -0.709686 -7.22803e-06 -0.704518
vn -0.709686 -7.21389e-06 -0.704518
vn 0.697176 -3.75922e-05 -0.7169
vn 0.697176 -3.76353e-05 -0.7169
vn -0.697176 3.75821e-05 0.7169
vn -0.697176 3.7565e-05 0.7169

# Mesh 'defaultobject' with 18 faces
g defaultobject
usemtl DefaultMaterial
f  1//1 2//1 3//1
f  2//1 1//1 4//2
f  5//3 3//3 6//3
f  3//3 5//3 1//4
f  2//5 6//5 3//5
f  7//6 8//6 9//6
f  8//6 7//6 10//6
f  8//6 10//6 11//7
f  4//8 10//8 7//8
f  10//8 4//8 11//9
f  11//9 4//8 5//10
f  5//10 4//8 1//11
f  6//12 9//12 8//12
f  9//12 6//12 2//13
f  9//14 4//14 7//14
f  4//14 9//14 2//15
f  5//16 8//16 11//16
f  8//16 5//16 6//17

