# {"id":"BLDG_0003000e0037d1e9","idOriginal":"BLDG_0003000e0037d1e9","origin":[13.339946484578414,52.54895357885225],"elevation":35.0999984741211}
# Longitude: 13.339946484578414
# Latitude: 52.54895357885225
# Elevation: 35.0999984741211

# File produced by Open Asset Import Library (http://www.assimp.sf.net)
# (assimp v3.1.0)

mtllib BLDG_0003000e0037d1e9.obj.mtl

# 8 vertex positions
v  9.81598 3.60645e-16 -5.88979
v  9.89612 -9.96798e-16 16.279
v  0 0 0
v  19.7121 -6.36153e-16 10.3892
v  9.89639 12.7579 16.2785
v  0.000271527 12.7579 -0.00040423
v  9.81625 12.7579 -5.89019
v  19.7124 12.7579 10.3888

# 0 UV coordinates

# 10 vertex normals
vn 0 -1 -6.12323e-17
vn 3.88405e-24 -1 -6.12323e-17
vn -0.854497 3.46044e-05 0.519456
vn -0.854497 3.4645e-05 0.519456
vn -0.514509 -1.62188e-05 -0.857485
vn -0.514509 -1.61844e-05 -0.857485
vn 0.854497 -3.4592e-05 -0.519456
vn 0.854497 -3.46548e-05 -0.519456
vn 0.514509 1.62466e-05 0.857485
vn 0 1 0

# Mesh 'defaultobject' with 12 faces
g defaultobject
usemtl DefaultMaterial
f  1//1 2//1 3//1
f  2//1 1//1 4//2
f  5//3 3//3 2//3
f  3//3 5//3 6//4
f  6//5 1//5 3//5
f  1//5 6//5 7//6
f  1//7 8//7 4//7
f  8//7 1//7 7//8
f  4//9 5//9 2//9
f  5//9 4//9 8//9
f  5//10 7//10 6//10
f  7//10 5//10 8//10

