# {"id":"BLDG_00030009003263ac","idOriginal":"BLDG_00030009003263ac","origin":[13.376329290571308,52.54338345762944],"elevation":36.75}
# Longitude: 13.376329290571308
# Latitude: 52.54338345762944
# Elevation: 36.75

# File produced by Open Asset Import Library (http://www.assimp.sf.net)
# (assimp v3.1.0)

mtllib BLDG_00030009003263ac.obj.mtl

# 15 vertex positions
v  17.5723 21.5683 -11.7038
v  5.68132 21.0047 -6.98819
v  10.5261 21.5683 -3.03684
v  12.9364 21.0047 -15.9119
v  22.2082 21.0047 -7.49552
v  15.3708 21.0047 0.914539
v  0.000448075 21.0047 -0.00066524
v  4.84521 21.5683 3.95068
v  9.68994 21.0047 7.90206
v  5.68087 4.27862e-16 -6.98752
v  22.2078 4.58928e-16 -7.49486
v  15.3704 -5.60401e-17 0.915204
v  12.9359 9.74285e-16 -15.9113
v  0 0 0
v  9.68949 -4.83903e-16 7.90273

# 0 UV coordinates

# 20 vertex normals
vn -0.069665 0.995961 -0.0566378
vn -0.069665 0.995961 -0.0566378
vn 0.0696649 0.995961 0.0566377
vn 0.0696649 0.995961 0.0566378
vn -0.069665 0.995961 -0.0566378
vn 0.0696649 0.995961 0.0566377
vn -1.95315e-25 -1 -6.12323e-17
vn -1.84072e-25 -1 -6.12323e-17
vn 4.70156e-25 -1 -6.12323e-17
vn -0.775923 -3.41967e-06 -0.630827
vn -0.775923 -3.46922e-06 -0.630827
vn 0.672125 -3.77776e-05 -0.740438
vn 0.672125 -3.77913e-05 -0.740438
vn 0.672125 -3.78376e-05 -0.740438
vn 0.775923 3.40142e-06 0.630827
vn -0.632038 3.80285e-05 0.774938
vn -0.632038 3.80258e-05 0.774938
vn -0.632038 3.73524e-05 0.774938
vn -0.775923 -3.42684e-06 -0.630827
vn 0.775923 3.42838e-06 0.630827

# Mesh 'defaultobject' with 26 faces
g defaultobject
usemtl DefaultMaterial
f  1//1 2//1 3//1
f  2//1 1//1 4//2
f  5//3 3//3 6//3
f  3//3 5//3 1//4
f  3//1 7//5 8//5
f  7//5 3//1 2//1
f  6//3 8//6 9//6
f  8//6 6//3 3//3
f  10//7 11//7 12//7
f  11//7 10//7 13//8
f  14//9 12//7 15//9
f  12//7 14//9 10//7
f  2//10 13//10 10//10
f  13//10 2//10 4//11
f  4//12 11//12 13//12
f  11//12 4//12 5//13
f  5//13 4//12 1//14
f  11//15 6//15 12//15
f  6//15 11//15 5//15
f  9//16 14//16 15//16
f  14//16 9//16 7//17
f  7//17 9//16 8//18
f  7//19 10//10 14//19
f  10//10 7//19 2//10
f  12//15 9//20 15//20
f  9//20 12//15 6//15

