# {"id":"BLDG_00030009007e10ac","idOriginal":"BLDG_00030009007e10ac","origin":[13.398581041411248,52.54786948662576],"elevation":48.5099983215332}
# Longitude: 13.398581041411248
# Latitude: 52.54786948662576
# Elevation: 48.5099983215332

# File produced by Open Asset Import Library (http://www.assimp.sf.net)
# (assimp v3.1.0)

mtllib BLDG_00030009007e10ac.obj.mtl

# 8 vertex positions
v  7.5384e-05 3.52875 -0.000111789
v  3.1189 5.1688e-16 -8.44129
v  0 0 0
v  3.11898 3.52875 -8.4414
v  9.92134 3.53509e-16 -5.77325
v  9.9214 2.90694 -5.77334
v  5.87847 2.90694 5.16881
v  5.87841 -3.16504e-16 5.1689

# 0 UV coordinates

# 12 vertex normals
vn -0.93802 9.05918e-06 -0.346581
vn -0.93802 9.06814e-06 -0.346581
vn 0.365137 -3.72328e-05 -0.930954
vn 0.365137 -3.7259e-05 -0.930954
vn 0.93802 -9.22459e-06 0.346581
vn 0.93802 -9.1121e-06 0.346581
vn -0.660333 3.79643e-05 0.750973
vn -0.660333 3.78971e-05 0.750973
vn 0.0795518 0.996397 0.0293929
vn 0.0795518 0.996397 0.0293929
vn 1.61051e-24 -1 -6.12323e-17
vn 2.48484e-24 -1 -6.12323e-17

# Mesh 'defaultobject' with 12 faces
g defaultobject
usemtl DefaultMaterial
f  1//1 2//1 3//1
f  2//1 1//1 4//2
f  4//3 5//3 2//3
f  5//3 4//3 6//4
f  5//5 7//5 8//5
f  7//5 5//5 6//6
f  7//7 3//7 8//7
f  3//7 7//7 1//8
f  6//9 1//9 7//9
f  1//9 6//9 4//10
f  5//11 3//11 2//11
f  3//11 5//11 8//12

