# {"id":"BLDG_00030009007f6ced","idOriginal":"BLDG_00030009007f6ced","origin":[13.407687456242543,52.51653978179256],"elevation":33.2999992370605}
# Longitude: 13.407687456242543
# Latitude: 52.51653978179256
# Elevation: 33.2999992370605

# File produced by Open Asset Import Library (http://www.assimp.sf.net)
# (assimp v3.1.0)

mtllib BLDG_00030009007f6ced.obj.mtl

# 10 vertex positions
v  7.00342 14.1862 7.27426
v  0 0 0
v  7.00312 -4.45448e-16 7.27471
v  0.000303206 14.1862 -0.00044847
v  3.50197 19.0638 3.63675
v  8.2167 4.4948e-16 -7.34056
v  8.217 14.1862 -7.34101
v  14.7404 -2.21941e-17 0.362456
v  14.7407 14.1862 0.362008
v  11.479 19.0638 -3.48966

# 0 UV coordinates

# 16 vertex normals
vn -0.720427 3.73372e-05 0.693531
vn -0.720427 3.73226e-05 0.693531
vn -0.720427 3.73316e-05 0.693531
vn -0.666229 -9.33589e-06 -0.745747
vn -0.666229 -9.32018e-06 -0.745747
vn 0.763105 -3.67332e-05 -0.646274
vn 0.763105 -3.6744e-05 -0.646274
vn 0.763105 -3.67246e-05 -0.646274
vn 0.666229 9.35634e-06 0.745747
vn 0.666229 9.33042e-06 0.745747
vn -0.463065 0.718958 -0.518334
vn -0.463065 0.718958 -0.518334
vn 0.46306 0.718965 0.518329
vn 0.46306 0.718965 0.518329
vn 7.61851e-24 -1 -6.12323e-17
vn 0 -1 -6.12323e-17

# Mesh 'defaultobject' with 16 faces
g defaultobject
usemtl DefaultMaterial
f  1//1 2//1 3//1
f  2//1 1//1 4//2
f  4//2 1//1 5//3
f  4//4 6//4 2//4
f  6//4 4//4 7//5
f  7//6 8//6 6//6
f  8//6 7//6 9//7
f  9//7 7//6 10//8
f  8//9 1//9 3//9
f  1//9 8//9 9//10
f  10//11 4//11 5//11
f  4//11 10//11 7//12
f  9//13 5//13 1//13
f  5//13 9//13 10//14
f  6//15 3//15 2//15
f  3//15 6//15 8//16

