# {"id":"BLDG_00030008002727cc","idOriginal":"BLDG_00030008002727cc","origin":[13.364104279598495,52.558379799097025],"elevation":39.7700004577637}
# Longitude: 13.364104279598495
# Latitude: 52.558379799097025
# Elevation: 39.7700004577637

# File produced by Open Asset Import Library (http://www.assimp.sf.net)
# (assimp v3.1.0)

mtllib BLDG_00030008002727cc.obj.mtl

# 44 vertex positions
v  1.14241 13.9618 3.80304
v  0 0 0
v  1.14211 -2.32896e-16 3.80349
v  0.000297614 13.9618 -0.00044263
v  1.57977 -2.2483e-16 3.67175
v  1.58007 13.9618 3.67131
v  2.88607 13.9618 8.03497
v  2.88577 -4.92027e-16 8.03541
v  2.45331 13.9618 8.16558
v  2.45302 -5.00025e-16 8.16602
v  4.53043 13.9618 15.0787
v  4.53013 -9.23329e-16 15.0791
v  4.95488 -9.15556e-16 14.9522
v  4.95518 13.9618 14.9517
v  7.73528 13.9618 24.2419
v  7.73498 -1.48441e-15 24.2423
v  7.32096 13.9618 24.366
v  7.32067 -1.49201e-15 24.3664
v  8.22437 13.9618 27.372
v  8.22407 -1.67608e-15 27.3724
v  8.6341 -1.66854e-15 27.2493
v  8.6344 13.9618 27.2489
v  9.85608 13.9618 31.3288
v  9.85578 -1.91836e-15 31.3293
v  9.44975 13.9618 31.45
v  9.44945 -1.92579e-15 31.4505
v  10.5041 13.9618 34.9587
v  10.5038 -2.14063e-15 34.9592
v  10.7107 13.9618 35.6477
v  10.7104 -2.18282e-15 35.6482
v  18.6849 -2.04449e-15 33.3891
v  18.6852 13.9618 33.3887
v  21.1069 -2.0025e-15 32.7033
v  21.1072 13.9618 32.7029
v  18.0028 -1.36261e-15 22.253
v  18.0031 13.9618 22.2526
v  17.1832 -1.1937e-15 19.4946
v  17.1835 13.9618 19.4941
v  14.07 -5.51775e-16 9.01117
v  14.0703 13.9618 9.01073
v  13.3674 -4.0695e-16 6.64599
v  13.3677 13.9618 6.64555
v  10.4515 1.94281e-16 -3.17284
v  10.4518 13.9618 -3.17329

# 0 UV coordinates

# 45 vertex normals
vn -0.957752 2.95262e-05 0.287594
vn -0.957752 2.95334e-05 0.287594
vn 0.288227 2.42061e-05 0.957562
vn -0.958013 2.95041e-05 0.286724
vn -0.288933 -2.41847e-05 -0.957349
vn -0.957705 2.95302e-05 0.287753
vn 0.286357 2.42642e-05 0.958123
vn -0.958023 2.95033e-05 0.286691
vn -0.286917 -2.42468e-05 -0.957956
vn -0.957686 2.95318e-05 0.287817
vn 0.287557 2.42271e-05 0.957763
vn -0.957975 2.95074e-05 0.286853
vn -0.28582 -2.42806e-05 -0.958283
vn -0.957696 2.95309e-05 0.287782
vn -0.957866 2.95166e-05 0.287215
vn 0.27256 2.46742e-05 0.962139
vn 0.272454 2.46905e-05 0.962169
vn 0.958606 -2.9449e-05 -0.284737
vn 0.95858 -2.94573e-05 -0.284823
vn 0.958623 -2.94564e-05 -0.284678
vn 0.958598 -2.9456e-05 -0.284763
vn 0.958598 -2.94663e-05 -0.284763
vn 0.958622 -2.9476e-05 -0.284683
vn 0.958622 -2.94494e-05 -0.284683
vn -0.290488 -2.41437e-05 -0.956879
vn -0.290488 -2.41366e-05 -0.956879
vn 0 -1 -6.12323e-17
vn -1.23158e-22 -1 -6.12325e-17
vn 1.97779e-24 -1 -6.12323e-17
vn 1.11328e-24 -1 -6.12323e-17
vn 3.44771e-23 -1 -6.12323e-17
vn 7.89353e-24 -1 -6.12323e-17
vn -2.44588e-22 -1 -6.12327e-17
vn 1.46477e-23 -1 -6.12323e-17
vn 1.11618e-23 -1 -6.12323e-17
vn 1.55986e-22 -1 -6.12324e-17
vn 0 -1 -6.12323e-17
vn 5.65453e-22 -1 -6.12313e-17
vn 0 -1 -6.12323e-17
vn -2.56962e-23 -1 -6.12324e-17
vn -3.44537e-23 -1 -6.12323e-17
vn 5.12383e-23 -1 -6.12319e-17
vn -8.65872e-23 -1 -6.12326e-17
vn 3.40781e-22 -1 -6.12323e-17
vn -0 1 0

# Mesh 'defaultobject' with 84 faces
g defaultobject
usemtl DefaultMaterial
f  1//1 2//1 3//1
f  2//1 1//1 4//2
f  5//3 1//3 3//3
f  1//3 5//3 6//3
f  7//4 5//4 8//4
f  5//4 7//4 6//4
f  9//5 8//5 10//5
f  8//5 9//5 7//5
f  11//6 10//6 12//6
f  10//6 11//6 9//6
f  13//7 11//7 12//7
f  11//7 13//7 14//7
f  15//8 13//8 16//8
f  13//8 15//8 14//8
f  17//9 16//9 18//9
f  16//9 17//9 15//9
f  19//10 18//10 20//10
f  18//10 19//10 17//10
f  21//11 19//11 20//11
f  19//11 21//11 22//11
f  23//12 21//12 24//12
f  21//12 23//12 22//12
f  25//13 24//13 26//13
f  24//13 25//13 23//13
f  27//14 26//14 28//14
f  26//14 27//14 25//14
f  29//15 28//15 30//15
f  28//15 29//15 27//15
f  31//16 29//16 30//16
f  29//16 31//16 32//16
f  33//17 32//17 31//17
f  32//17 33//17 34//17
f  35//18 34//18 33//18
f  34//18 35//18 36//18
f  37//19 36//19 35//19
f  36//19 37//19 38//19
f  39//20 38//20 37//20
f  38//20 39//20 40//20
f  41//21 40//21 39//21
f  40//21 41//21 42//22
f  43//23 42//23 41//23
f  42//23 43//23 44//24
f  4//25 43//25 2//25
f  43//25 4//25 44//26
f  43//27 3//27 2//27
f  3//27 43//27 5//28
f  5//28 43//27 41//29
f  5//28 41//29 8//30
f  8//30 12//31 10//31
f  12//31 8//30 41//29
f  12//31 41//29 39//32
f  12//31 39//32 13//33
f  13//33 39//32 16//34
f  16//34 39//32 37//35
f  16//34 20//36 18//36
f  20//36 16//34 37//35
f  20//36 37//35 35//37
f  20//36 35//37 21//38
f  21//38 35//37 24//39
f  24//39 35//37 33//40
f  24//39 33//40 28//41
f  28//41 33//40 31//42
f  28//41 31//42 30//43
f  28//41 26//44 24//39
f  4//45 1//45 44//45
f  6//45 44//45 1//45
f  42//45 44//45 6//45
f  7//45 42//45 6//45
f  9//45 11//45 7//45
f  42//45 7//45 11//45
f  40//45 42//45 11//45
f  14//45 40//45 11//45
f  38//45 40//45 14//45
f  15//45 38//45 14//45
f  36//45 38//45 15//45
f  17//45 19//45 15//45
f  36//45 15//45 19//45
f  22//45 36//45 19//45
f  34//45 36//45 22//45
f  23//45 34//45 22//45
f  27//45 34//45 23//45
f  32//45 34//45 27//45
f  29//45 32//45 27//45
f  23//45 25//45 27//45

