# {"id":"BLDG_000300000028783b","idOriginal":"BLDG_000300000028783b","origin":[13.35053694921459,52.53507022796903],"elevation":35.1500015258789}
# Longitude: 13.35053694921459
# Latitude: 52.53507022796903
# Elevation: 35.1500015258789

# File produced by Open Asset Import Library (http://www.assimp.sf.net)
# (assimp v3.1.0)

mtllib BLDG_000300000028783b.obj.mtl

# 8 vertex positions
v  16.4491 1.61704e-16 -2.64083
v  2.23129 -8.46171e-16 13.819
v  0 0 0
v  18.6804 -6.84467e-16 11.1782
v  2.23175 21.8779 13.8183
v  16.4496 21.8779 -2.64152
v  0.000465925 21.8779 -0.00069253
v  18.6809 21.8779 11.1775

# 0 UV coordinates

# 11 vertex normals
vn 0 -1 -6.12323e-17
vn 3.63216e-24 -1 -6.12323e-17
vn 0 1 0
vn -0.987214 2.60663e-05 0.1594
vn -0.987214 2.607e-05 0.1594
vn -0.158515 -2.78782e-05 -0.987357
vn -0.158515 -2.78747e-05 -0.987357
vn 0.987214 -2.60523e-05 -0.1594
vn 0.987214 -2.60461e-05 -0.1594
vn 0.158515 2.78607e-05 0.987357
vn 0.158515 2.79131e-05 0.987357

# Mesh 'defaultobject' with 12 faces
g defaultobject
usemtl DefaultMaterial
f  1//1 2//1 3//1
f  2//1 1//1 4//2
f  5//3 6//3 7//3
f  6//3 5//3 8//3
f  5//4 3//4 2//4
f  3//4 5//4 7//5
f  7//6 1//6 3//6
f  1//6 7//6 6//7
f  1//8 8//8 4//8
f  8//8 1//8 6//9
f  4//10 5//10 2//10
f  5//10 4//10 8//11

