# {"id":"BLDG_0003000000176b74","idOriginal":"BLDG_0003000000176b74","origin":[13.382587478410779,52.52713828125835],"elevation":33.2099990844727}
# Longitude: 13.382587478410779
# Latitude: 52.52713828125835
# Elevation: 33.2099990844727

# File produced by Open Asset Import Library (http://www.assimp.sf.net)
# (assimp v3.1.0)

mtllib BLDG_0003000000176b74.obj.mtl

# 44 vertex positions
v  78.6327 -2.02925e-15 33.1402
v  83.4532 -1.24609e-15 20.3501
v  83.9372 -1.25858e-15 20.5541
v  5.30452 7.70676e-16 -12.5861
v  69.496 -3.30035e-15 53.8988
v  69.0536 -3.14531e-15 51.3668
v  73.4305 -3.25826e-15 53.2114
v  82.8585 -2.47034e-15 40.3437
v  81.8358 -2.1119e-15 34.49
v  67.3141 -1.73716e-15 28.3699
v  63.3754 -2.30939e-15 37.7151
v  84.7608 -3.13705e-15 51.2319
v  76.8791 -3.22137e-15 52.6089
v  59.3461 -2.89479e-15 47.2755
v  0 0 0
v  61.3515 -1.58328e-15 25.857
v  82.8586 6.12 40.3435
v  81.8359 6.12 34.4898
v  84.7609 6.12 51.2317
v  73.4303 6.12 53.2113
v  69.4961 6.12 53.8986
v  69.4961 3.37643 53.8987
v  83.9374 6.12 20.5539
v  5.30479 12.6075 -12.5865
v  83.9375 12.6075 20.5537
v  5.30465 6.12018 -12.5863
v  0.000269042 12.6075 -0.000398859
v  71.8288 12.6075 30.2721
v  67.314 6.12 28.3696
v  72.7316 11.6808 30.6527
v  78.633 12.6075 33.1398
v  78.149 6.12 32.9361
v  78.6329 6.12 33.14
v  65.3731 6.1202 32.9753
v  63.3756 6.1202 37.7149
v  59.3463 6.1202 47.2753
v  69.0538 6.1202 51.3666
v  81.2854 20.7063 26.8465
v  2.6527 20.7063 -6.2937
v  70.1809 6.1202 51.8416
v  76.2082 6.12 37.5411
v  76.0243 6.1202 37.977
v  66.5911 20.7063 20.6535
v  66.465 11.6808 45.5217

# 0 UV coordinates

# 78 vertex normals
vn 0 -1 -6.12323e-17
vn 1.46255e-24 -1 -6.12323e-17
vn 3.41629e-23 -1 -6.12323e-17
vn 4.87656e-23 -1 -6.12323e-17
vn -2.07014e-23 -1 -6.12323e-17
vn 2.20093e-24 -1 -6.12323e-17
vn 6.13387e-24 -1 -6.12324e-17
vn -1.86869e-23 -1 -6.12323e-17
vn -1.34371e-23 -1 -6.12323e-17
vn 4.16334e-17 1 -4.16334e-17
vn 0 -1 -6.12323e-17
vn 2.77556e-17 1 -5.55112e-17
vn 0.985079 -2.63415e-05 -0.172102
vn 0.985079 -2.63475e-05 -0.172103
vn 0.985079 -2.63635e-05 -0.172103
vn 0.172101 2.76675e-05 0.985079
vn 0.172101 2.76171e-05 0.985079
vn 0.172101 2.76195e-05 0.985079
vn 0.172101 2.76235e-05 0.985079
vn 0.172101 2.76675e-05 0.985079
vn 0.177766 2.75155e-05 0.984073
vn 0.388373 -3.79375e-05 -0.921502
vn 0.388373 -3.74e-05 -0.921502
vn 0.38838 0 -0.921499
vn 0.388373 -3.7432e-05 -0.921502
vn 0.388373 -3.74403e-05 -0.921502
vn -0.388373 3.74409e-05 0.921502
vn -0.388373 3.75134e-05 0.921502
vn -0.388374 3.87268e-05 0.921502
vn -0.388373 3.74826e-05 0.921502
vn -0.388373 3.83111e-05 0.921502
vn -0.388373 3.90216e-05 0.921502
vn -0.388373 3.78967e-05 0.921502
vn -0.388368 3.74808e-05 0.921504
vn -0.921518 -2.66184e-05 -0.388336
vn -0.921502 7.1756e-06 -0.388374
vn -0.921502 7.18016e-06 -0.388374
vn -0.921502 7.18283e-06 -0.388375
vn -0.921502 7.18283e-06 -0.388375
vn 0.388319 -3.7524e-05 -0.921525
vn -0.985079 2.62346e-05 0.172102
vn -0.985079 2.548e-05 0.1721
vn -0.985079 2.74188e-05 0.172102
vn 0.921501 -8.22276e-06 0.388376
vn 0.921502 -7.30414e-06 0.388374
vn 0.921502 -7.59401e-06 0.388375
vn 0.921501 -7.18303e-06 0.388376
vn 0.921501 -7.17467e-06 0.388376
vn -0.921502 7.37778e-06 -0.388375
vn -0.921502 7.38842e-06 -0.388375
vn -0.921502 7.38696e-06 -0.388375
vn -0.921501 7.43519e-06 -0.388375
vn -0.388372 3.75123e-05 0.921503
vn -0.388373 3.69206e-05 0.921502
vn -3.52994e-05 1 8.37561e-05
vn 1.77163e-05 1 0.000101405
vn 0 1 0
vn 0.000161249 1 -0.000382662
vn 2.50848e-05 1 1.05722e-05
vn 1.33766e-05 1 -2.33703e-06
vn 1.77163e-05 1 0.000101405
vn -0.2969 0.644656 0.704464
vn -0.2969 0.644655 0.704464
vn -0.2969 0.644655 0.704464
vn -0.296901 0.644656 0.704464
vn -0.633228 0.726497 -0.266879
vn -0.633228 0.726497 -0.266879
vn -0.633228 0.726497 -0.266879
vn 0 -1 0
vn 0.633232 0.726493 0.266881
vn 0.633235 0.726488 0.266887
vn 0.633231 0.726494 0.26688
vn 0.633232 0.726492 0.266881
vn 0.296911 0.644622 -0.70449
vn 0.296911 0.644622 -0.70449
vn 0.296911 0.644622 -0.70449
vn -0.305074 0.618838 0.723857
vn -0.305073 0.618839 0.723857

# Mesh 'defaultobject' with 84 faces
g defaultobject
usemtl DefaultMaterial
f  1//1 2//1 3//1
f  2//1 1//1 4//2
f  5//3 6//3 7//3
f  8//4 1//1 9//4
f  1//1 8//4 10//5
f  1//1 10//5 4//2
f  10//5 8//4 11//6
f  11//6 8//4 12//7
f  11//6 12//7 13//8
f  11//6 13//8 14//9
f  14//9 13//8 7//3
f  14//10 7//10 6//10
f  10//5 15//11 4//2
f  15//12 10//12 16//12
f  17//13 9//13 18//13
f  9//13 17//13 8//13
f  8//13 17//13 19//14
f  8//13 19//14 12//15
f  19//16 13//16 12//16
f  13//16 19//16 20//17
f  13//16 20//17 7//18
f  7//18 20//17 5//19
f  5//19 20//17 21//20
f  5//21 21//21 22//21
f  23//22 24//22 25//22
f  24//22 23//22 3//23
f  24//24 3//24 2//24
f  24//22 2//25 26//25
f  26//25 2//25 4//26
f  15//27 16//27 27//27
f  28//28 27//27 16//27
f  29//29 28//28 16//27
f  10//30 29//29 16//27
f  30//31 28//28 29//29
f  31//32 28//28 30//31
f  32//33 31//32 30//31
f  33//34 31//32 32//33
f  10//35 34//35 29//35
f  34//36 10//36 11//36
f  34//36 11//36 35//37
f  35//37 11//36 36//38
f  36//38 11//36 14//39
f  9//40 33//40 18//40
f  33//40 9//40 1//40
f  5//41 37//41 6//41
f  37//41 5//41 22//42
f  37//41 22//42 21//43
f  38//44 23//44 25//44
f  23//44 38//44 3//45
f  3//45 38//44 1//46
f  1//46 38//44 33//47
f  33//47 38//44 31//48
f  27//49 4//49 15//49
f  4//49 27//49 39//50
f  4//49 39//50 26//51
f  26//51 39//50 24//52
f  6//53 36//53 14//53
f  36//53 6//53 37//54
f  21//55 40//55 37//55
f  40//56 21//56 20//56
f  41//57 33//57 32//57
f  33//57 41//57 18//57
f  18//57 41//57 17//57
f  17//58 41//58 42//58
f  17//59 42//59 40//59
f  17//60 40//60 19//60
f  19//61 40//56 20//56
f  27//62 43//62 39//62
f  43//62 27//62 28//63
f  43//62 28//63 38//64
f  38//64 28//63 31//65
f  29//66 44//66 30//66
f  44//66 29//66 34//67
f  44//66 34//67 36//68
f  36//69 34//69 35//69
f  42//70 44//70 40//70
f  44//70 42//70 41//71
f  44//70 41//72 32//72
f  44//70 32//72 30//73
f  39//74 25//74 24//74
f  25//74 39//74 43//75
f  25//74 43//75 38//76
f  37//77 44//77 36//77
f  44//77 37//77 40//78

