# {"id":"BLDG_0003000f000b2e0c","idOriginal":"BLDG_0003000f000b2e0c","origin":[13.342455348257038,52.53467833483516],"elevation":33.7900009155273}
# Longitude: 13.342455348257038
# Latitude: 52.53467833483516
# Elevation: 33.7900009155273

# File produced by Open Asset Import Library (http://www.assimp.sf.net)
# (assimp v3.1.0)

mtllib BLDG_0003000f000b2e0c.obj.mtl

# 20 vertex positions
v  8.80123 2.88597e-16 -4.71315
v  1.65997 1.94045e-17 -0.316899
v  1.12197 2.12825e-16 -3.4757
v  13.4999 -1.4941e-15 24.4006
v  4.10011 -8.83618e-16 14.4306
v  2.22942 -9.05505e-16 14.788
v  6.33388 -1.8046e-15 29.4714
v  14.0327 -1.7287e-15 28.2318
v  6.65465 -1.80146e-15 29.4201
v  0 0 0
v  2.22952 4.40434 14.7879
v  4.1002 4.40434 14.4304
v  9.3749e-05 4.40434 -0.000139411
v  1.12206 4.40434 -3.47584
v  13.5 4.40434 24.4004
v  8.80132 4.40434 -4.71328
v  1.66006 4.40434 -0.317038
v  6.33397 4.40434 29.4712
v  14.0328 4.40434 28.2317
v  6.65475 4.40434 29.4199

# 0 UV coordinates

# 26 vertex normals
vn 0 -1 -6.12323e-17
vn -1.85294e-24 -1 -6.12323e-17
vn -1.48219e-23 -1 -6.12323e-17
vn 1.42228e-23 -1 -6.12323e-17
vn 2.80877e-23 -1 -6.12323e-17
vn 7.97216e-20 -1 -6.07368e-17
vn 0 -1 -6.12323e-17
vn 0 1 0
vn -0.985804 2.63135e-05 0.167899
vn -0.985804 2.62891e-05 0.167899
vn -0.18752 -2.71e-05 -0.982261
vn -0.18752 -2.70981e-05 -0.982261
vn -0.988826 2.57814e-05 0.149074
vn -0.988826 2.57664e-05 0.149074
vn 0.18768 2.7272e-05 0.98223
vn 0.18768 2.7073e-05 0.98223
vn -0.989151 2.56339e-05 0.146903
vn 0.157815 2.78679e-05 0.987469
vn 0.157814 2.7851e-05 0.987469
vn 0.159003 2.78156e-05 0.987278
vn 0.159003 2.78445e-05 0.987278
vn 0.990467 -2.5372e-05 -0.137748
vn 0.987226 -2.59627e-05 -0.159328
vn 0.987226 -2.61977e-05 -0.159328
vn -0.159089 -2.78798e-05 -0.987264
vn -0.159089 -2.78005e-05 -0.987264

# Mesh 'defaultobject' with 36 faces
g defaultobject
usemtl DefaultMaterial
f  1//1 2//1 3//1
f  2//1 1//1 4//2
f  2//1 4//2 5//3
f  2//1 5//3 6//1
f  5//3 4//2 7//4
f  7//4 4//2 8//5
f  7//4 8//5 9//6
f  6//1 10//7 2//1
f  11//8 12//8 13//8
f  14//8 15//8 16//8
f  15//8 14//8 17//8
f  15//8 17//8 13//8
f  15//8 13//8 12//8
f  15//8 12//8 18//8
f  15//8 18//8 19//8
f  19//8 18//8 20//8
f  17//9 3//9 2//9
f  3//9 17//9 14//10
f  13//11 2//11 10//11
f  2//11 13//11 17//12
f  11//13 10//13 6//13
f  10//13 11//13 13//14
f  5//15 11//15 6//15
f  11//15 5//15 12//16
f  18//17 5//17 7//17
f  5//17 18//17 12//17
f  9//18 18//18 7//18
f  18//18 9//18 20//19
f  8//20 20//20 9//20
f  20//20 8//20 19//21
f  4//22 19//22 8//22
f  19//22 4//22 15//22
f  1//23 15//23 4//23
f  15//23 1//23 16//24
f  14//25 1//25 3//25
f  1//25 14//25 16//26

