# {"id":"BLDG_0003000a0018f6a7","idOriginal":"BLDG_0003000a0018f6a7","origin":[13.404862686179198,52.53452381112733],"elevation":51.4000015258789}
# Longitude: 13.404862686179198
# Latitude: 52.53452381112733
# Elevation: 51.4000015258789

# File produced by Open Asset Import Library (http://www.assimp.sf.net)
# (assimp v3.1.0)

mtllib BLDG_0003000a0018f6a7.obj.mtl

# 10 vertex positions
v  11.1544 18.858 -8.46499
v  0.000352757 16.5068 -0.00052246
v  4.36203 18.858 2.80305
v  6.79274 16.5068 -11.2686
v  15.516 16.5068 -5.66127
v  8.7236 16.5068 5.60677
v  0 0 0
v  15.5156 3.46621e-16 -5.66075
v  8.72325 -3.43348e-16 5.6073
v  6.79239 6.89969e-16 -11.268

# 0 UV coordinates

# 15 vertex normals
vn -0.353821 0.910671 -0.213284
vn 0.353822 0.91067 0.213284
vn 0.353822 0.91067 0.213284
vn -1.5527e-24 -1 -6.12323e-17
vn -3.1054e-24 -1 -6.12323e-17
vn -0.540723 3.81917e-05 0.841201
vn -0.540723 3.81805e-05 0.841201
vn -0.540723 3.81745e-05 0.841201
vn -0.856433 1.96211e-06 -0.516259
vn -0.856433 1.96262e-06 -0.516259
vn 0.540723 -3.81917e-05 -0.841201
vn 0.540723 -3.81361e-05 -0.841201
vn 0.540723 -3.81745e-05 -0.841201
vn 0.856433 -1.96725e-06 0.516259
vn 0.856433 -1.93212e-06 0.516259

# Mesh 'defaultobject' with 16 faces
g defaultobject
usemtl DefaultMaterial
f  1//1 2//1 3//1
f  2//1 1//1 4//1
f  5//2 3//2 6//2
f  3//2 5//2 1//3
f  7//4 8//4 9//4
f  8//4 7//4 10//5
f  6//6 7//6 9//6
f  7//6 6//6 2//7
f  2//7 6//6 3//8
f  2//9 10//9 7//9
f  10//9 2//9 4//10
f  4//11 8//11 10//11
f  8//11 4//11 5//12
f  5//12 4//11 1//13
f  8//14 6//14 9//14
f  6//14 8//14 5//15

