# {"id":"BLDG_0003000f002d6800","idOriginal":"BLDG_0003000f002d6800","origin":[13.353273440069373,52.507040327777254],"elevation":34.7900009155273}
# Longitude: 13.353273440069373
# Latitude: 52.507040327777254
# Elevation: 34.7900009155273

# File produced by Open Asset Import Library (http://www.assimp.sf.net)
# (assimp v3.1.0)

mtllib BLDG_0003000f002d6800.obj.mtl

# 60 vertex positions
v  23.3831 1.95437e-17 -0.319172
v  21.2573 -1.22025e-15 19.9282
v  15.0829 -1.46086e-16 2.38576
v  29.4558 -1.00277e-15 16.3764
v  32.6958 -0.0600014 14.9728
v  23.3831 -0.0600014 -0.31917
v  26.9038 -0.0600014 -1.46649
v  29.4558 -0.0600014 16.3764
v  11.8117 -0.0200005 14.4487
v  2.14123 -0.0200005 7.74341
v  8.69579 -0.0200005 6.25014
v  2.14478 -0.0200005 7.75627
v  4.68678 -0.0200005 16.9095
v  34.5642 -0.130001 20.276
v  21.2573 -0.130001 19.9282
v  32.6958 -0.130001 14.9728
v  13.6923 -0.130001 5.10107
v  15.0829 -0.130001 2.38576
v  16.5559 -0.130001 12.6382
v  11.8117 -0.130001 14.4487
v  4.68678 -0.130001 16.9095
v  4.75168 -0.130001 17.1432
v  8.38869 -0.130001 30.2244
v  26.2939 -0.130001 23.4195
v  16.678 -0.130001 27.0742
v  26.9038 -0.130001 -1.46649
v  0 -0.130001 -7.96027e-18
v  25.3568 -0.130001 -5.85723
v  2.14123 -0.130001 7.74341
v  8.69579 -0.130001 6.25014
v  29.4563 20.7371 16.3758
v  23.3836 20.7371 -0.319827
v  15.0833 20.7371 2.3851
v  21.2578 20.7371 19.9275
v  4.75207 18.0698 17.1426
v  4.68717 18.0698 16.909
v  8.38908 18.0698 30.2238
v  16.6784 18.0698 27.0736
v  26.2943 18.0698 23.419
v  34.5646 18.0698 20.2754
v  32.6961 18.0698 14.9723
v  29.4562 18.07 16.3759
v  32.6961 18.07 14.9723
v  26.9041 18.07 -1.46706
v  23.3835 18.07 -0.319743
v  11.8118 4.42301 14.4486
v  8.69588 4.42301 6.25
v  2.14132 4.42301 7.74327
v  2.14488 4.42301 7.75613
v  4.68688 4.42301 16.9094
v  26.9041 18.0698 -1.46706
v  25.3572 18.0698 -5.85781
v  0.000387632 18.0698 -0.00057503
v  2.14161 18.0698 7.74284
v  8.69617 18.0698 6.24957
v  13.6926 18.0698 5.1005
v  16.5563 18.0698 12.6376
v  11.8121 18.0698 14.4482
v  21.2577 18.0698 19.9276
v  15.0833 18.0698 2.38519

# 0 UV coordinates

# 60 vertex normals
vn 1.30467e-24 -1 -6.12323e-17
vn -1.33646e-23 -1 -6.12323e-17
vn 0 -1 0
vn 0.939765 -3.07529e-05 -0.341821
vn 0.939765 -3.07736e-05 -0.341821
vn -0.309847 -2.3442e-05 -0.950786
vn -0.309847 -2.34562e-05 -0.950786
vn -0.943276 3.05466e-05 0.332009
vn -0.943276 3.05747e-05 0.332009
vn -0.963534 2.89902e-05 0.267587
vn -0.963533 2.8965e-05 0.267589
vn -0.963454 2.89471e-05 0.267873
vn -0.963454 2.89975e-05 0.267873
vn 0.355242 2.19346e-05 0.934774
vn 0.355242 2.19819e-05 0.934774
vn 0.355271 2.19849e-05 0.934763
vn 0.355272 2.20257e-05 0.934763
vn 0.3553 2.2032e-05 0.934752
vn 0.3553 2.19728e-05 0.934752
vn 0.943172 -3.04466e-05 -0.332304
vn 0.943172 -3.04653e-05 -0.332304
vn 0.39752 2.05887e-05 0.917594
vn 0.39752 2.05064e-05 0.917594
vn 0.397519 2.04694e-05 0.917594
vn 0.39752 2.05141e-05 0.917594
vn 0.943172 -3.05173e-05 -0.332304
vn 0.943172 -3.05656e-05 -0.332304
vn -0.309847 -2.34562e-05 -0.950786
vn -0.309847 -2.34608e-05 -0.950786
vn -0.939765 3.08583e-05 0.341821
vn -0.939765 3.07712e-05 0.341821
vn 0.934767 -3.11785e-05 -0.355262
vn 0.934767 -3.12764e-05 -0.355262
vn -0.22213 -2.61371e-05 -0.975017
vn -0.22213 -2.61014e-05 -0.975017
vn -0.963828 2.89426e-05 0.266525
vn -0.963831 2.8971e-05 0.266515
vn -0.963534 2.90791e-05 0.267588
vn -0.963533 2.89699e-05 0.267588
vn 0.326456 2.30652e-05 0.945212
vn 0.326456 2.27804e-05 0.945212
vn 0.943172 -3.05658e-05 -0.332304
vn 0.943172 -3.06615e-05 -0.332304
vn -0.225066 -2.59912e-05 -0.974343
vn -0.225066 -2.59749e-05 -0.974343
vn -0.963829 2.8939e-05 0.26652
vn -0.963829 2.89491e-05 0.26652
vn 0.22213 2.60812e-05 0.975017
vn 0.224125 2.60218e-05 0.97456
vn -0.934803 3.11098e-05 0.355166
vn -0.356554 -2.19351e-05 -0.934275
vn -0.326456 -2.28629e-05 -0.945212
vn -0.326456 -2.2921e-05 -0.945212
vn -0.39752 -2.05429e-05 -0.917594
vn -0.39752 -2.05782e-05 -0.917594
vn 0.943276 -3.06783e-05 -0.332009
vn 0.943276 -3.05881e-05 -0.332009
vn 0.309847 2.34337e-05 0.950786
vn 0.309847 2.34506e-05 0.950786
vn 0 1 0

# Mesh 'defaultobject' with 104 faces
g defaultobject
usemtl DefaultMaterial
f  1//1 2//1 3//1
f  2//1 1//1 4//2
f  5//3 6//3 7//3
f  6//3 5//3 8//3
f  9//3 10//3 11//3
f  10//3 9//3 12//3
f  12//3 9//3 13//3
f  14//3 15//3 16//3
f  15//3 17//3 18//3
f  17//3 15//3 19//3
f  19//3 15//3 20//3
f  20//3 15//3 21//3
f  21//3 15//3 22//3
f  22//3 15//3 23//3
f  23//3 15//3 14//3
f  23//3 14//3 24//3
f  23//3 24//3 25//3
f  26//3 27//3 28//3
f  27//3 26//3 18//3
f  27//3 18//3 29//3
f  29//3 18//3 17//3
f  29//3 17//3 30//3
f  1//4 31//4 4//4
f  31//4 1//4 32//5
f  33//6 1//6 3//6
f  1//6 33//6 32//7
f  34//8 3//8 2//8
f  3//8 34//8 33//9
f  35//10 21//10 22//10
f  21//10 35//10 36//11
f  37//12 22//12 23//12
f  22//12 37//12 35//13
f  25//14 37//14 23//14
f  37//14 25//14 38//15
f  24//16 38//16 25//16
f  38//16 24//16 39//17
f  14//18 39//18 24//18
f  39//18 14//18 40//19
f  16//20 40//20 14//20
f  40//20 16//20 41//21
f  4//22 34//22 2//22
f  34//22 4//22 31//23
f  5//24 42//24 8//24
f  42//24 5//24 43//25
f  7//26 43//26 5//26
f  43//26 7//26 44//27
f  45//28 7//28 6//28
f  7//28 45//28 44//29
f  42//30 6//30 8//30
f  6//30 42//30 45//31
f  11//32 46//32 9//32
f  46//32 11//32 47//33
f  48//34 11//34 10//34
f  11//34 48//34 47//35
f  49//36 10//36 12//36
f  10//36 49//36 48//37
f  50//38 12//38 13//38
f  12//38 50//38 49//39
f  9//40 50//40 13//40
f  50//40 9//40 46//41
f  28//42 51//42 26//42
f  51//42 28//42 52//43
f  53//44 28//44 27//44
f  28//44 53//44 52//45
f  54//46 27//46 29//46
f  27//46 54//46 53//47
f  30//48 54//48 29//48
f  54//48 30//48 55//48
f  17//49 55//49 30//49
f  55//49 17//49 56//49
f  57//50 17//50 19//50
f  17//50 57//50 56//50
f  58//51 19//51 20//51
f  19//51 58//51 57//51
f  36//52 20//52 21//52
f  20//52 36//52 58//53
f  59//54 16//54 15//54
f  16//54 59//54 41//55
f  18//56 59//56 15//56
f  59//56 18//56 60//57
f  26//58 60//58 18//58
f  60//58 26//58 51//59
f  31//60 33//60 34//60
f  33//60 31//60 32//60
f  43//60 45//60 42//60
f  45//60 43//60 44//60
f  47//60 50//60 46//60
f  50//60 47//60 49//60
f  49//60 47//60 48//60
f  53//60 51//60 52//60
f  51//60 53//60 60//60
f  60//60 53//60 56//60
f  56//60 53//60 55//60
f  55//60 53//60 54//60
f  56//60 59//60 60//60
f  59//60 56//60 57//60
f  59//60 57//60 58//60
f  59//60 40//60 41//60
f  40//60 59//60 39//60
f  39//60 59//60 38//60
f  38//60 59//60 58//60
f  38//60 58//60 36//60
f  38//60 36//60 35//60
f  38//60 35//60 37//60

