# {"id":"BLDG_00030000002751be","idOriginal":"BLDG_00030000002751be","origin":[13.344752662728913,52.53674614914543],"elevation":36.4700012207031}
# Longitude: 13.344752662728913
# Latitude: 52.53674614914543
# Elevation: 36.4700012207031

# File produced by Open Asset Import Library (http://www.assimp.sf.net)
# (assimp v3.1.0)

mtllib BLDG_00030000002751be.obj.mtl

# 24 vertex positions
v  2.73078 -3.55072e-17 0.579877
v  1.68799 4.92556e-16 -8.04405
v  4.54689 4.54957e-16 -7.43
v  0 0 0
v  -25.3497 0.0200005 -20.05
v  -36.5499 0.0200005 -28.2044
v  -24.2254 0.0200005 -25.8631
v  -40.9174 0.0200005 -6.13403
v  2.89152 0.0200005 -13.6567
v  1.68799 0.0200005 -8.04406
v  4.25964e-07 0.0200005 -6.29574e-07
v  -0.503029 0.0200005 2.82957
v  0.000523796 24.6043 -0.00077893
v  4.54742 24.6043 -7.43078
v  1.68852 24.6043 -8.04483
v  2.7313 24.6043 0.579098
v  0.000464421 21.8153 -0.00069063
v  -40.9169 21.8153 -6.13472
v  -0.502566 21.8153 2.82888
v  1.68846 21.8153 -8.04475
v  2.89198 21.8153 -13.6574
v  -25.3492 21.8153 -20.0507
v  -24.2249 21.8153 -25.8638
v  -36.5495 21.8153 -28.2051

# 0 UV coordinates

# 25 vertex normals
vn 1.76358e-23 -1 -6.12323e-17
vn 0 -1 -6.12323e-17
vn 0 -1 -0
vn 0 1 0
vn -0.207717 3.53895e-05 0.978189
vn -0.207717 3.53912e-05 0.978189
vn 0.975246 -1.37709e-05 0.221122
vn 0.975246 -1.3752e-05 0.221122
vn 0.209996 -3.54318e-05 -0.977702
vn 0.209996 -3.54298e-05 -0.977702
vn -0.978684 1.43333e-05 -0.205371
vn -0.978684 1.43319e-05 -0.205371
vn 0.977773 -1.4182e-05 0.209664
vn 0.977773 -1.41706e-05 0.209664
vn 0.220794 -3.55928e-05 -0.97532
vn 0.220794 -3.55977e-05 -0.97532
vn 0.981805 -1.48616e-05 0.189894
vn 0.186632 -3.50219e-05 -0.98243
vn 0.186632 -3.50916e-05 -0.98243
vn -0.980977 1.46296e-05 -0.194123
vn -0.980977 1.48141e-05 -0.194123
vn -0.216531 3.54476e-05 0.976276
vn 0.984563 -1.54174e-05 0.175032
vn 0.984563 -1.54212e-05 0.175032
vn 0.978684 -1.43365e-05 0.205371

# Mesh 'defaultobject' with 40 faces
g defaultobject
usemtl DefaultMaterial
f  1//1 2//1 3//1
f  2//1 1//1 4//2
f  5//3 6//3 7//3
f  6//3 5//3 8//3
f  8//3 5//3 9//3
f  8//3 9//3 10//3
f  8//3 10//3 11//3
f  8//3 11//3 12//3
f  13//4 14//4 15//4
f  14//4 13//4 16//4
f  17//4 18//4 19//4
f  18//4 17//4 20//4
f  18//4 20//4 21//4
f  18//4 21//4 22//4
f  18//4 22//4 23//4
f  18//4 23//4 24//4
f  1//5 13//5 4//5
f  13//5 1//5 16//6
f  3//7 16//7 1//7
f  16//7 3//7 14//8
f  15//9 3//9 2//9
f  3//9 15//9 14//10
f  13//11 2//11 4//11
f  2//11 13//11 15//12
f  9//13 20//13 10//13
f  20//13 9//13 21//14
f  22//15 9//15 5//15
f  9//15 22//15 21//16
f  7//17 22//17 5//17
f  22//17 7//17 23//17
f  24//18 7//18 6//18
f  7//18 24//18 23//19
f  18//20 6//20 8//20
f  6//20 18//20 24//21
f  12//22 18//22 8//22
f  18//22 12//22 19//22
f  11//23 19//23 12//23
f  19//23 11//23 17//24
f  10//25 17//25 11//25
f  17//25 10//25 20//25

