# {"id":"BLDG_00030009006dacb1","idOriginal":"BLDG_00030009006dacb1","origin":[13.385308326224733,52.53807523795539],"elevation":36.7000007629395}
# Longitude: 13.385308326224733
# Latitude: 52.53807523795539
# Elevation: 36.7000007629395

# File produced by Open Asset Import Library (http://www.assimp.sf.net)
# (assimp v3.1.0)

mtllib BLDG_00030009006dacb1.obj.mtl

# 82 vertex positions
v  21.1055 2.92457e-16 -4.77619
v  23.2234 7.44822e-16 -12.1639
v  25.3824 6.47648e-16 -10.5769
v  18.2571 1.12491e-15 -18.3712
v  24.4439 8.46467e-16 -13.8239
v  16.9573 4.79134e-16 -7.82485
v  17.3847 1.05324e-15 -17.2007
v  13.1877 1.2421e-15 -20.2851
v  14.1619 2.48865e-16 -4.06427
v  11.1258 1.07029e-15 -17.4791
v  13.463 -6.01988e-16 9.83121
v  20.6017 -8.35353e-17 1.36424
v  11.316 9.51826e-16 -15.5445
v  11.1274 8.57312e-16 -14.001
v  9.04682 8.72891e-16 -14.2554
v  11.7268 -5.09305e-16 8.31758
v  8.73202 8.75238e-16 -14.2937
v  8.38011 7.42423e-16 -12.1247
v  8.08168 7.44415e-16 -12.1572
v  11.4135 -5.3338e-16 8.71076
v  7.80691 5.90808e-16 -9.64862
v  7.16569 7.50565e-16 -12.2577
v  6.89092 5.96957e-16 -9.74905
v  1.4659 -1.3568e-16 2.21583
v  1.6636 -8.14182e-18 0.132966
v  2.12627 -1.39514e-16 2.27844
v  8.20433 -3.63269e-16 5.93262
v  7.62813 4.90789e-16 -8.01519
v  4.46055 5.12044e-16 -8.36231
v  7.42487 -4.16622e-16 6.80395
v  4.25733 3.84437e-16 -6.27833
v  3.4284 1.34574e-16 -2.19776
v  3.60427 2.31158e-16 -3.7751
v  3.88697 3.867e-16 -6.31529
v  1.08512 1.51206e-16 -2.46938
v  0.787984 -5.62677e-18 0.0918921
v  0.296498 1.56759e-16 -2.56007
v  0 0 0
v  3.07617 3.91568e-16 -6.3948
v  2.81012 2.36568e-16 -3.86344
v  10.2688 9.98974e-16 -16.3145
v  13.1882 21.2816 -20.2858
v  11.1278 21.2816 -14.0016
v  17.3851 21.2816 -17.2014
v  11.3165 21.2816 -15.5452
v  11.1263 21.2816 -17.4798
v  10.2692 21.2816 -16.3152
v  14.1624 21.2816 -4.06494
v  13.4634 21.2816 9.83054
v  20.6022 21.2816 1.36356
v  11.7272 21.2816 8.31691
v  11.414 21.2816 8.71008
v  8.20478 21.2816 5.93195
v  23.2239 21.2816 -12.1645
v  21.1059 21.2816 -4.77686
v  25.3829 21.2816 -10.5776
v  16.9577 21.2816 -7.82553
v  9.04728 21.2816 -14.2561
v  7.62858 21.2816 -8.01587
v  7.80736 21.2816 -9.64929
v  8.38056 21.2816 -12.1254
v  8.73248 21.2816 -14.2944
v  18.2576 21.2816 -18.3718
v  24.4444 21.2816 -13.8245
v  7.42532 21.2816 6.80328
v  2.12673 21.2816 2.27776
v  3.42885 21.2816 -2.19844
v  4.25778 21.2816 -6.27901
v  4.461 21.2816 -8.36298
v  1.46635 21.2816 2.21515
v  3.60473 21.2816 -3.77577
v  2.81057 21.2816 -3.86412
v  3.88742 21.2816 -6.31596
v  3.07662 21.2816 -6.39547
v  6.89137 21.2816 -9.74973
v  8.08213 21.2816 -12.1579
v  7.16614 21.2816 -12.2583
v  1.66405 21.2816 0.132292
v  1.08557 21.2816 -2.47006
v  0.788438 21.2816 0.0912183
v  0.000454236 21.2816 -0.000673761
v  0.296952 21.2816 -2.56074

# 0 UV coordinates

# 103 vertex normals
vn 0 -1 -6.12323e-17
vn 2.00785e-23 -1 -6.12324e-17
vn 1.77534e-23 -1 -6.12323e-17
vn -8.27236e-23 -1 -6.12324e-17
vn 2.08278e-23 -1 -6.12323e-17
vn -4.6824e-23 -1 -6.12323e-17
vn 0 -1 -6.12323e-17
vn -5.2278e-23 -1 -6.12323e-17
vn 2.48541e-23 -1 -6.12323e-17
vn 9.64328e-23 -1 -6.12324e-17
vn -7.08689e-24 -1 -6.12323e-17
vn -1.17212e-22 -1 -6.12323e-17
vn 1.4689e-22 -1 -6.12324e-17
vn 2.15893e-22 -1 -6.12324e-17
vn 3.00532e-23 -1 -6.12323e-17
vn 3.84166e-23 -1 -6.12323e-17
vn -7.96788e-23 -1 -6.12323e-17
vn 1.19203e-23 -1 -6.12323e-17
vn 4.33049e-24 -1 -6.12323e-17
vn -2.15784e-22 -1 -6.12323e-17
vn 1.80554e-23 -1 -6.12323e-17
vn 5.88038e-23 -1 -6.12324e-17
vn -6.8607e-23 -1 -6.12323e-17
vn 8.90874e-24 -1 -6.12323e-17
vn 0 -1 -6.12323e-17
vn 7.91322e-23 -1 -6.12323e-17
vn -2.7847e-24 -1 -6.12323e-17
vn 2.34776e-23 -1 -6.12323e-17
vn 3.23305e-24 -1 -6.12323e-17
vn -1.29466e-23 -1 -6.12323e-17
vn -2.54264e-23 -1 -6.12323e-17
vn 2.603e-23 -1 -6.12323e-17
vn 1.40826e-23 -1 -6.12324e-17
vn 0 1 -0
vn 0.802563 1.76926e-06 0.596567
vn -0.592203 3.81612e-05 0.805789
vn -0.592203 3.81432e-05 0.805789
vn 0.804875 1.62909e-06 0.593444
vn 0.592271 -3.8127e-05 -0.805739
vn 0.592271 -3.81605e-05 -0.805739
vn 0.805679 1.58229e-06 0.592352
vn 0.805679 1.5551e-06 0.592353
vn 0.592238 -3.82512e-05 -0.805763
vn 0.592237 -3.81695e-05 -0.805763
vn -0.801772 -1.80516e-06 -0.597629
vn -0.801772 -1.78687e-06 -0.59763
vn 0.592189 -3.81233e-05 -0.805799
vn -0.805833 -1.50888e-06 -0.592144
vn -0.805833 -1.54498e-06 -0.592143
vn -0.805415 -1.57185e-06 -0.592711
vn -0.805415 -1.53578e-06 -0.592712
vn -0.592357 3.81875e-05 0.805675
vn -0.592357 3.81248e-05 0.805676
vn -0.992613 1.73346e-05 -0.121324
vn -0.992613 1.73737e-05 -0.121325
vn 0.121379 -3.39926e-05 -0.992606
vn 0.120886 -3.40339e-05 -0.992666
vn 0.120889 -3.3984e-05 -0.992666
vn -0.987092 1.59813e-05 -0.160153
vn -0.987092 1.60255e-05 -0.160153
vn 0.108371 -3.38072e-05 -0.994111
vn 0.10899 -3.38207e-05 -0.994043
vn 0.10899 -3.38183e-05 -0.994043
vn -0.994055 1.77765e-05 -0.108879
vn -0.10899 3.37764e-05 0.994043
vn -0.108989 3.38209e-05 0.994043
vn -0.994064 1.7757e-05 -0.108798
vn -0.994064 1.77842e-05 -0.108799
vn 0.108932 -3.37752e-05 -0.994049
vn 0.108932 -3.38173e-05 -0.994049
vn -0.995279 1.81572e-05 -0.0970535
vn -0.995279 1.81817e-05 -0.0970537
vn 0.0992836 -3.36e-05 -0.995059
vn 0.0992824 -3.36211e-05 -0.995059
vn 0.0975956 -3.35915e-05 -0.995226
vn 0.0975962 -3.35693e-05 -0.995226
vn -0.994522 1.79157e-05 -0.104525
vn -0.110566 3.38251e-05 0.993869
vn -0.993841 1.77019e-05 -0.110816
vn 0.115144 -3.39066e-05 -0.993349
vn 0.114239 -3.38909e-05 -0.993453
vn 0.114239 -3.38906e-05 -0.993453
vn -0.99336 1.756e-05 -0.115047
vn -0.99336 1.75605e-05 -0.115047
vn -0.115832 3.39185e-05 0.993269
vn -0.115832 3.39189e-05 0.993269
vn -0.0468571 3.26243e-05 0.998902
vn -0.0468571 3.26245e-05 0.998902
vn -0.995525 1.82602e-05 -0.0944942
vn -0.995525 1.82547e-05 -0.0944942
vn -0.0943877 3.35328e-05 0.995536
vn -0.0943877 3.35334e-05 0.995536
vn -0.649455 3.79419e-05 0.7604
vn -0.649455 3.79347e-05 0.7604
vn 0.745304 5.2106e-06 0.666725
vn 0.745304 5.19383e-06 0.666725
vn -0.654502 3.78807e-05 0.75606
vn -0.654502 3.78976e-05 0.75606
vn 0.782126 3.03015e-06 0.62312
vn -0.657141 3.78645e-05 0.753768
vn 0.764527 4.11107e-06 0.644592
vn 0.764527 4.0787e-06 0.644592
vn 0.644521 -3.79458e-05 -0.764587

# Mesh 'defaultobject' with 160 faces
g defaultobject
usemtl DefaultMaterial
f  1//1 2//1 3//1
f  2//1 4//2 5//2
f  4//2 2//1 1//1
f  4//2 1//1 6//3
f  4//2 6//3 7//4
f  7//4 6//3 8//5
f  8//5 6//3 9//1
f  8//5 9//1 10//6
f  11//1 9//1 12//1
f  9//1 11//1 13//7
f  9//1 13//7 10//6
f  13//7 11//1 14//8
f  14//8 11//1 15//9
f  15//9 11//1 16//10
f  15//9 16//10 17//11
f  17//11 16//10 18//12
f  18//12 16//10 19//13
f  19//13 16//10 20//14
f  19//13 20//14 21//15
f  19//13 21//15 22//16
f  22//16 21//15 23//17
f  24//18 25//18 26//18
f  27//19 21//15 20//14
f  21//15 27//19 28//20
f  28//20 27//19 29//21
f  29//21 27//19 30//22
f  29//21 30//22 31//23
f  31//23 30//22 32//24
f  32//24 30//22 26//18
f  31//23 32//24 33//25
f  31//23 33//25 34//26
f  32//24 26//18 25//18
f  32//24 25//18 35//27
f  35//27 25//18 36//28
f  35//27 36//28 37//29
f  37//29 36//28 38//30
f  33//25 39//31 34//26
f  39//31 33//25 40//32
f  41//33 10//6 13//7
f  42//34 43//34 44//34
f  43//34 42//34 45//34
f  45//34 42//34 46//34
f  45//34 46//34 47//34
f  48//34 49//34 50//34
f  49//34 48//34 51//34
f  51//34 48//34 52//34
f  52//34 48//34 53//34
f  54//34 55//34 56//34
f  55//34 54//34 57//34
f  58//34 59//34 43//34
f  59//34 58//34 60//34
f  60//34 58//34 61//34
f  61//34 58//34 62//34
f  63//34 54//34 64//34
f  54//34 63//34 57//34
f  57//34 63//34 48//34
f  48//34 63//34 53//34
f  53//34 63//34 65//34
f  65//34 63//34 44//34
f  65//34 44//34 66//34
f  66//34 44//34 43//34
f  66//34 43//34 59//34
f  66//34 59//34 67//34
f  67//34 59//34 68//34
f  68//34 59//34 69//34
f  66//34 67//34 70//34
f  67//34 68//34 71//34
f  68//34 72//34 71//34
f  72//34 68//34 73//34
f  72//34 73//34 74//34
f  61//34 75//34 60//34
f  75//34 61//34 76//34
f  75//34 76//34 77//34
f  67//34 78//34 70//34
f  78//34 67//34 79//34
f  78//34 79//34 80//34
f  80//34 79//34 81//34
f  81//34 79//34 82//34
f  48//35 6//35 57//35
f  6//35 48//35 9//35
f  55//36 6//36 1//36
f  6//36 55//36 57//37
f  55//38 3//38 56//38
f  3//38 55//38 1//38
f  56//39 2//39 54//39
f  2//39 56//39 3//40
f  54//41 5//41 64//41
f  5//41 54//41 2//42
f  64//43 4//43 63//43
f  4//43 64//43 5//44
f  44//45 4//45 7//45
f  4//45 44//45 63//46
f  44//47 8//47 42//47
f  8//47 44//47 7//47
f  46//48 8//48 10//48
f  8//48 46//48 42//49
f  47//50 10//50 41//50
f  10//50 47//50 46//51
f  45//52 41//52 13//52
f  41//52 45//52 47//53
f  43//54 13//54 14//54
f  13//54 43//54 45//55
f  58//56 14//56 15//56
f  14//56 58//56 43//56
f  62//57 15//57 17//57
f  15//57 62//57 58//58
f  61//59 17//59 18//59
f  17//59 61//59 62//60
f  76//61 18//61 19//61
f  18//61 76//61 61//61
f  77//62 19//62 22//62
f  19//62 77//62 76//63
f  75//64 22//64 23//64
f  22//64 75//64 77//64
f  75//65 21//65 60//65
f  21//65 75//65 23//66
f  59//67 21//67 28//67
f  21//67 59//67 60//68
f  69//69 28//69 29//69
f  28//69 69//69 59//70
f  68//71 29//71 31//71
f  29//71 68//71 69//72
f  73//73 31//73 34//73
f  31//73 73//73 68//74
f  74//75 34//75 39//75
f  34//75 74//75 73//76
f  72//77 39//77 40//77
f  39//77 72//77 74//77
f  72//78 33//78 71//78
f  33//78 72//78 40//78
f  67//79 33//79 32//79
f  33//79 67//79 71//79
f  79//80 32//80 35//80
f  32//80 79//80 67//80
f  82//81 35//81 37//81
f  35//81 82//81 79//82
f  81//83 37//83 38//83
f  37//83 81//83 82//84
f  81//85 36//85 80//85
f  36//85 81//85 38//86
f  80//87 25//87 78//87
f  25//87 80//87 36//88
f  70//89 25//89 24//89
f  25//89 70//89 78//90
f  70//91 26//91 66//91
f  26//91 70//91 24//92
f  65//93 26//93 30//93
f  26//93 65//93 66//94
f  65//95 27//95 53//95
f  27//95 65//95 30//96
f  52//97 27//97 20//97
f  27//97 52//97 53//98
f  52//99 16//99 51//99
f  16//99 52//99 20//99
f  49//100 16//100 11//100
f  16//100 49//100 51//100
f  49//101 12//101 50//101
f  12//101 49//101 11//102
f  50//103 9//103 48//103
f  9//103 50//103 12//103

