# {"id":"BLDG_000300090060c76e","idOriginal":"BLDG_000300090060c76e","origin":[13.37337637512928,52.54441309014094],"elevation":36.2099990844727}
# Longitude: 13.37337637512928
# Latitude: 52.54441309014094
# Elevation: 36.2099990844727

# File produced by Open Asset Import Library (http://www.assimp.sf.net)
# (assimp v3.1.0)

mtllib BLDG_000300090060c76e.obj.mtl

# 8 vertex positions
v  6.00799 -1.68396e-16 2.75012
v  9.4103e-05 4.41212 -0.000139751
v  0 0 0
v  6.00809 4.41212 2.74998
v  13.8486 9.5089e-16 -15.5292
v  13.8487 4.41212 -15.5293
v  7.96955 4.41212 -17.996
v  7.96945 1.10193e-15 -17.9959

# 0 UV coordinates

# 10 vertex normals
vn -0.416211 3.76849e-05 0.909268
vn 0.919025 -6.95505e-06 0.394199
vn 0.919025 -6.78117e-06 0.394199
vn 0.386892 -3.73374e-05 -0.922125
vn 0.386892 -3.74949e-05 -0.922125
vn -0.914352 6.67606e-06 -0.40492
vn -0.914352 6.68882e-06 -0.40492
vn 0 -1 -6.12323e-17
vn 1.01273e-23 -1 -6.12323e-17
vn 0 1 0

# Mesh 'defaultobject' with 12 faces
g defaultobject
usemtl DefaultMaterial
f  1//1 2//1 3//1
f  2//1 1//1 4//1
f  5//2 4//2 1//2
f  4//2 5//2 6//3
f  7//4 5//4 8//4
f  5//4 7//4 6//5
f  2//6 8//6 3//6
f  8//6 2//6 7//7
f  3//8 5//8 1//8
f  5//8 3//8 8//9
f  2//10 6//10 7//10
f  6//10 2//10 4//10

