# {"id":"BLDG_0003000a0010dc16","idOriginal":"BLDG_0003000a0010dc16","origin":[13.388205976621322,52.55480331543249],"elevation":41.0999984741211}
# Longitude: 13.388205976621322
# Latitude: 52.55480331543249
# Elevation: 41.0999984741211

# File produced by Open Asset Import Library (http://www.assimp.sf.net)
# (assimp v3.1.0)

mtllib BLDG_0003000a0010dc16.obj.mtl

# 8 vertex positions
v  1.37582 7.72009e-17 -1.26079
v  0.664849 -4.44232e-17 0.725487
v  0 0 0
v  2.04282 2.98884e-17 -0.488114
v  0.665017 7.83167 0.725238
v  0.000167197 7.83167 -0.00024822
v  2.04299 7.83167 -0.488362
v  1.37599 7.83167 -1.26103

# 0 UV coordinates

# 11 vertex normals
vn -7.20709e-24 -1 -6.12323e-17
vn -7.06164e-24 -1 -6.12323e-17
vn -0.737245 3.71552e-05 0.675625
vn -0.737245 3.71528e-05 0.675625
vn 0.66093 9.69059e-06 0.750447
vn 0.66093 9.67401e-06 0.750447
vn 0.756971 -3.68702e-05 -0.653448
vn 0.756971 -3.68702e-05 -0.653448
vn -0.675614 -8.94329e-06 -0.737256
vn -0.675614 -8.93621e-06 -0.737256
vn 0 1 0

# Mesh 'defaultobject' with 12 faces
g defaultobject
usemtl DefaultMaterial
f  1//1 2//1 3//1
f  2//1 1//1 4//2
f  5//3 3//3 2//3
f  3//3 5//3 6//4
f  5//5 4//5 7//5
f  4//5 5//5 2//6
f  7//7 1//7 8//7
f  1//7 7//7 4//8
f  6//9 1//9 3//9
f  1//9 6//9 8//10
f  5//11 8//11 6//11
f  8//11 5//11 7//11

