# {"id":"BLDG_0003000e00093e70","idOriginal":"BLDG_0003000e00093e70","origin":[13.332676123113272,52.52411797745156],"elevation":31.41}
# Longitude: 13.332676123113272
# Latitude: 52.52411797745156
# Elevation: 31.41

# File produced by Open Asset Import Library (http://www.assimp.sf.net)
# (assimp v3.1.0)

mtllib BLDG_0003000e00093e70.obj.mtl

# 28 vertex positions
v  18.117 -1.52588e-07 8.65417
v  13.4297 23.97 37.749
v  13.4292 -2.3115e-15 37.7497
v  18.5727 -1.52588e-07 5.82597
v  19.7757 -1.52588e-07 -1.64083
v  20.406 -1.52588e-07 -5.55265
v  18.1175 21.05 8.65351
v  20.4065 21.05 -5.55331
v  18.5732 23.27 5.82523
v  19.7763 24.14 -1.6416
v  18.1175 23.97 8.65342
v  0.000447769 21.05 -0.00066585
v  2.62231 23.27 10.1656
v  0.901858 24.14 3.49428
v  3.27393 21.05 12.6926
v  0 -1.52588e-07 -9.34331e-24
v  3.27348 -1.52588e-07 12.6932
v  0.901345 -1.52588e-07 3.49505
v  2.62182 -1.52588e-07 10.1663
v  14.0824 21.05 -3.83248
v  14.0819 -1.52588e-07 -3.83181
v  7.52835 21.67 36.846
v  7.52789 -2.25621e-15 36.8467
v  11.7929 -1.52588e-07 10.375
v  11.7934 21.67 10.3743
v  11.7934 21.05 10.3743
v  12.2491 23.27 7.54607
v  13.4522 24.14 0.079237

# 0 UV coordinates

# 42 vertex normals
vn 0.987268 -1.5941e-05 0.159067
vn 0.987268 -1.59996e-05 0.159067
vn 0.987268 -1.61605e-05 0.159067
vn 0.987268 -1.54234e-05 0.159067
vn 0.987268 -1.59621e-05 0.159067
vn 0.987268 -1.59937e-05 0.159067
vn 0.987268 -1.61951e-05 0.159067
vn 0.987268 -1.58963e-05 0.159067
vn 0.987268 -1.62419e-05 0.159067
vn -0.968318 2.84983e-05 0.249721
vn -0.968318 2.85273e-05 0.249721
vn -0.968318 2.84926e-05 0.249721
vn -0.968318 2.84938e-05 0.249721
vn -0.262562 -2.49446e-05 -0.964915
vn -0.262562 -2.49344e-05 -0.964915
vn -0.262562 -2.49959e-05 -0.964915
vn -0.262562 -2.49369e-05 -0.964915
vn -0.151265 3.45399e-05 0.988493
vn -0.151265 3.45179e-05 0.988493
vn -0.987268 1.59672e-05 -0.159067
vn -0.987268 1.59524e-05 -0.159067
vn 0.463652 -3.78907e-05 -0.886018
vn -0.262562 -2.59182e-05 -0.964915
vn -0.262562 -2.49091e-05 -0.964915
vn 0.262562 2.49277e-05 0.964915
vn 0.170137 0.761649 0.625256
vn 0.170137 0.761649 0.625256
vn 0.170137 0.761649 0.625256
vn 0.170137 0.761649 0.625256
vn 0.0328972 0.99212 0.120897
vn 0.0328972 0.99212 0.120897
vn 0.0328972 0.99212 0.120897
vn 0.0328972 0.99212 0.120897
vn -0.170763 0.759614 -0.627556
vn -0.170763 0.759614 -0.627556
vn -0.170763 0.759614 -0.627556
vn -0.170763 0.759614 -0.627556
vn -0.354932 0.933141 -0.057186
vn -0.354932 0.933141 -0.057186
vn 0 -1 0
vn -8.60847e-10 -1 5.6255e-09
vn 1.49247e-09 -1 5.48483e-09

# Mesh 'defaultobject' with 52 faces
g defaultobject
usemtl DefaultMaterial
f  1//1 2//1 3//1
f  2//1 1//1 4//2
f  2//1 4//2 5//3
f  2//1 5//3 6//4
f  2//1 6//4 7//5
f  7//5 6//4 8//6
f  7//5 8//6 9//7
f  9//7 8//6 10//8
f  11//9 2//1 7//5
f  12//10 13//10 14//10
f  13//10 12//10 15//11
f  15//11 12//10 16//12
f  15//11 16//12 17//13
f  17//13 16//12 18//10
f  17//13 18//10 19//10
f  6//14 20//14 8//14
f  20//14 6//14 12//15
f  12//15 6//14 21//16
f  12//15 21//16 16//17
f  3//18 22//18 23//18
f  22//18 3//18 2//19
f  22//20 24//20 23//20
f  24//20 22//20 25//21
f  24//22 25//22 26//22
f  25//23 7//23 26//23
f  7//23 25//23 11//24
f  24//25 15//25 17//25
f  15//25 24//25 26//25
f  9//26 26//26 7//26
f  26//26 9//26 27//27
f  26//26 27//27 15//28
f  15//28 27//27 13//29
f  10//30 27//30 9//30
f  27//30 10//30 13//31
f  13//31 10//30 28//32
f  13//31 28//32 14//33
f  8//34 28//34 10//34
f  28//34 8//34 20//35
f  28//34 20//35 14//36
f  14//36 20//35 12//37
f  25//38 2//38 11//38
f  2//38 25//38 22//39
f  19//21 24//40 17//40
f  24//40 19//21 18//21
f  24//40 18//21 16//40
f  24//40 3//41 23//41
f  3//41 24//40 1//42
f  1//42 24//40 16//40
f  1//42 16//40 21//40
f  1//42 21//40 4//40
f  4//40 21//40 5//40
f  5//40 21//40 6//40

