# {"id":"BLDG_00030009000dbcf3","idOriginal":"BLDG_00030009000dbcf3","origin":[13.398424247316484,52.52269220228141],"elevation":34.7799987792969}
# Longitude: 13.398424247316484
# Latitude: 52.52269220228141
# Elevation: 34.7799987792969

# File produced by Open Asset Import Library (http://www.assimp.sf.net)
# (assimp v3.1.0)

mtllib BLDG_00030009000dbcf3.obj.mtl

# 18 vertex positions
v  0 0 0
v  16.9742 6.82932e-16 -11.1531
v  11.9292 -2.43554e-16 3.97753
v  9.28507 1.70508e-15 -27.8461
v  21.214 1.46154e-15 -23.8687
v  31.6794 1.24787e-15 -20.3792
v  27.4397 4.69263e-16 -7.66365
v  27.4402 26.22 -7.66448
v  9.28563 26.22 -27.847
v  5.04587 26.22 -15.1314
v  31.68 26.22 -20.38
v  5.04552 23.02 -15.1314
v  11.9297 23.02 3.97681
v  16.9747 23.02 -11.1539
v  0.000491732 23.02 -0.00072804
v  9.28556 23.02 -27.8469
v  31.6799 23.02 -20.3799
v  27.4402 23.02 -7.66438

# 0 UV coordinates

# 26 vertex normals
vn 0 -1 -6.12323e-17
vn -2.29481e-24 -1 -6.12323e-17
vn -1.00511e-23 -1 -6.12323e-17
vn 1.71848e-23 -1 -6.12323e-17
vn 5.72828e-24 -1 -6.12323e-17
vn 0 1 0
vn -0.948656 1.02605e-05 -0.316311
vn -0.948652 1.02521e-05 -0.316321
vn -0.948652 1.00804e-05 -0.316321
vn -0.948647 -8.65104e-06 -0.316337
vn -0.948656 0.000105568 -0.316311
vn 0.316309 -3.67557e-05 -0.948656
vn 0.316309 -3.67557e-05 -0.948656
vn 0.316309 -3.67153e-05 -0.948656
vn 0.316309 -3.67723e-05 -0.948656
vn 0.268682 2.4744e-05 0.963229
vn -0.316309 3.67419e-05 0.948656
vn -0.316309 3.67419e-05 0.948656
vn -0.316309 3.67824e-05 0.948656
vn -0.316309 3.68641e-05 0.948656
vn 0.948656 -1.01872e-05 0.316311
vn 0.948656 -1.03635e-05 0.316311
vn 0.948656 -1.04056e-05 0.316311
vn 0.948656 -1.02651e-05 0.316311
vn 0.948656 -1.02859e-05 0.316311
vn -0.316309 3.67669e-05 0.948656

# Mesh 'defaultobject' with 32 faces
g defaultobject
usemtl DefaultMaterial
f  1//1 2//1 3//1
f  2//1 1//1 4//2
f  2//1 4//2 5//3
f  2//1 5//3 6//4
f  6//4 7//5 2//1
f  8//6 9//6 10//6
f  9//6 8//6 11//6
f  12//6 13//6 14//6
f  13//6 12//6 15//6
f  15//7 12//7 1//7
f  1//8 16//8 4//8
f  16//8 1//8 9//9
f  9//10 1//10 12//10
f  9//11 12//11 10//11
f  17//12 9//12 11//12
f  9//12 17//12 6//13
f  9//12 6//13 5//14
f  9//12 5//14 4//15
f  9//16 4//16 16//16
f  7//17 14//17 2//17
f  14//17 7//17 18//18
f  14//17 10//19 12//19
f  10//19 14//17 8//20
f  8//20 14//17 18//18
f  6//21 18//21 7//21
f  18//21 6//21 17//21
f  18//21 17//21 8//22
f  8//22 17//21 11//23
f  2//24 13//24 3//24
f  13//24 2//24 14//25
f  3//26 15//26 1//26
f  15//26 3//26 13//26

