# {"id":"BLDG_000300000017afe2","idOriginal":"BLDG_000300000017afe2","origin":[13.380390392017636,52.536426668402804],"elevation":34.2000007629395}
# Longitude: 13.380390392017636
# Latitude: 52.536426668402804
# Elevation: 34.2000007629395

# File produced by Open Asset Import Library (http://www.assimp.sf.net)
# (assimp v3.1.0)

mtllib BLDG_000300000017afe2.obj.mtl

# 20 vertex positions
v  3.03724 6.15287 5.60036
v  10.4878 6.15287 1.59269
v  0.000131286 6.15287 -0.000194769
v  10.0995 6.15287 0.768105
v  8.37708 6.15287 -4.38938
v  11.5703 6.15287 -0.0650446
v  13.755 6.15287 -7.20734
v  19.6912 6.15287 3.22644
v  14.8188 6.15287 5.84164
v  14.1027 6.15287 4.54027
v  0 0 0
v  3.03711 -3.42935e-16 5.60056
v  10.4877 -9.7536e-17 1.59288
v  10.0993 -4.70448e-17 0.768299
v  11.5702 3.9709e-18 -0.0648498
v  14.1026 -2.78023e-16 4.54046
v  14.8187 -3.57709e-16 5.84183
v  19.6911 -1.97574e-16 3.22663
v  13.7549 4.4131e-16 -7.20715
v  8.37694 2.6876e-16 -4.38918

# 0 UV coordinates

# 25 vertex normals
vn 0 1 0
vn -0.879064 3.38418e-05 0.476705
vn -0.879064 3.3847e-05 0.476705
vn 0.473718 1.76981e-05 0.880677
vn 0.904696 -3.26984e-05 -0.426058
vn 0.904696 -3.28419e-05 -0.426057
vn 0.492871 1.69975e-05 0.870102
vn 0.492872 1.70777e-05 0.870102
vn -0.876258 3.40156e-05 0.481843
vn -0.876257 3.39964e-05 0.481843
vn -0.876103 3.38854e-05 0.482124
vn -0.876103 3.40212e-05 0.482123
vn 0.472922 1.77984e-05 0.881104
vn 0.472923 1.78825e-05 0.881104
vn 0.869172 -3.4242e-05 -0.49451
vn -0.464131 -1.80798e-05 -0.885767
vn -0.464131 -1.81484e-05 -0.885767
vn -0.464112 -1.81364e-05 -0.885777
vn -0.464112 -1.80805e-05 -0.885777
vn 9.74641e-24 -1 -6.12323e-17
vn 0 -1 -6.12323e-17
vn -1.50458e-23 -1 -6.12323e-17
vn 0 -1 -6.12323e-17
vn 3.22267e-24 -1 -6.12323e-17
vn -3.51489e-24 -1 -6.12323e-17

# Mesh 'defaultobject' with 36 faces
g defaultobject
usemtl DefaultMaterial
f  1//1 2//1 3//1
f  4//1 3//1 2//1
f  5//1 3//1 4//1
f  6//1 5//1 4//1
f  7//1 5//1 6//1
f  8//1 7//1 6//1
f  9//1 8//1 10//1
f  6//1 10//1 8//1
f  1//2 11//2 12//2
f  11//2 1//2 3//3
f  1//4 13//4 2//4
f  13//4 1//4 12//4
f  2//5 14//5 4//5
f  14//5 2//5 13//6
f  4//7 15//7 6//7
f  15//7 4//7 14//8
f  10//9 15//9 16//9
f  15//9 10//9 6//10
f  9//11 16//11 17//11
f  16//11 9//11 10//12
f  9//13 18//13 8//13
f  18//13 9//13 17//14
f  8//15 19//15 7//15
f  19//15 8//15 18//15
f  5//16 19//16 20//16
f  19//16 5//16 7//17
f  3//18 20//18 11//18
f  20//18 3//18 5//19
f  20//20 19//20 14//20
f  15//21 14//20 19//20
f  16//22 15//21 19//20
f  18//23 16//22 19//20
f  17//24 16//22 18//23
f  11//25 20//20 12//25
f  14//20 12//25 20//20
f  13//21 12//25 14//20

