# {"id":"BLDG_00030000001ce0f3","idOriginal":"BLDG_00030000001ce0f3","origin":[13.358765534325725,52.561006397658545],"elevation":40.7900009155273}
# Longitude: 13.358765534325725
# Latitude: 52.561006397658545
# Elevation: 40.7900009155273

# File produced by Open Asset Import Library (http://www.assimp.sf.net)
# (assimp v3.1.0)

mtllib BLDG_00030000001ce0f3.obj.mtl

# 10 vertex positions
v  29.5693 13.8444 -6.84303
v  1.16562 15.2287 5.26172
v  30.8508 15.2287 -1.63916
v  0.000295014 13.8444 -0.00043898
v  2.33088 13.8444 10.524
v  32.1322 13.8444 3.5648
v  0 0 0
v  2.33059 -6.44434e-16 10.5244
v  29.569 4.18988e-16 -6.8426
v  32.1319 -2.18308e-16 3.56523

# 0 UV coordinates

# 16 vertex normals
vn -0.0566309 0.96822 -0.243606
vn -0.0560867 0.968562 -0.242368
vn 0.056872 0.968221 0.243544
vn 0.0563298 0.968562 0.242311
vn -0.976347 2.76667e-05 0.216208
vn -0.976347 2.76607e-05 0.216208
vn -0.976347 2.74827e-05 0.216208
vn -0.225453 -2.60875e-05 -0.974254
vn -0.225453 -2.60879e-05 -0.974254
vn 0.970994 -2.81777e-05 -0.239104
vn 0.970994 -2.81818e-05 -0.239104
vn 0.970994 -2.89879e-05 -0.239104
vn 0.227401 2.60026e-05 0.973801
vn 0.227401 2.60746e-05 0.973801
vn 0 -1 -6.12323e-17
vn -6.50991e-25 -1 -6.12323e-17

# Mesh 'defaultobject' with 16 faces
g defaultobject
usemtl DefaultMaterial
f  1//1 2//1 3//1
f  2//2 1//2 4//2
f  3//3 5//3 6//3
f  5//4 3//4 2//4
f  5//5 7//5 8//5
f  7//5 5//5 4//6
f  4//6 5//5 2//7
f  4//8 9//8 7//8
f  9//8 4//8 1//9
f  1//10 10//10 9//10
f  10//10 1//10 6//11
f  6//11 1//10 3//12
f  10//13 5//13 8//13
f  5//13 10//13 6//14
f  7//15 10//15 8//15
f  10//15 7//15 9//16

