# {"id":"BLDG_0003000e001236c2","idOriginal":"BLDG_0003000e001236c2","origin":[13.334096997279604,52.55603039962856],"elevation":36.5099983215332}
# Longitude: 13.334096997279604
# Latitude: 52.55603039962856
# Elevation: 36.5099983215332

# File produced by Open Asset Import Library (http://www.assimp.sf.net)
# (assimp v3.1.0)

mtllib BLDG_0003000e001236c2.obj.mtl

# 12 vertex positions
v  3.52428 19.3103 -3.5021
v  8.50827 14.9852 8.34609
v  12.0322 19.3103 4.84446
v  0.000318816 14.9852 -0.00047502
v  7.04806 14.9852 -7.00345
v  15.556 14.9852 1.34311
v  12.0318 -2.96675e-16 4.84507
v  7.04774 4.28809e-16 -7.00298
v  15.5557 -8.22708e-17 1.34358
v  8.50795 -5.1108e-16 8.34656
v  0 0 0
v  3.52387 2.14404e-16 -3.50149

# 0 UV coordinates

# 17 vertex normals
vn -0.459861 0.754187 0.468753
vn 0.459878 0.754166 -0.46877
vn 0.459878 0.754166 -0.46877
vn -3.57683e-24 -1 -6.12323e-17
vn 0 -1 -6.12323e-17
vn 3.57683e-24 -1 -6.12323e-17
vn 0.704851 7.49942e-06 0.709356
vn 0.704851 7.50723e-06 0.709356
vn 0.704851 7.49942e-06 0.709356
vn 0.704851 7.4569e-06 0.709356
vn -0.704851 -7.49011e-06 -0.709356
vn -0.704851 -7.49442e-06 -0.709356
vn -0.704851 -7.49942e-06 -0.709356
vn -0.704851 -7.4569e-06 -0.709356
vn -0.700304 3.75099e-05 0.713845
vn -0.700304 3.75277e-05 0.713845
vn 0.700304 -3.7506e-05 -0.713845

# Mesh 'defaultobject' with 20 faces
g defaultobject
usemtl DefaultMaterial
f  1//1 2//1 3//1
f  2//1 1//1 4//1
f  5//2 3//2 6//2
f  3//2 5//2 1//3
f  7//4 8//4 9//4
f  8//4 7//4 10//5
f  8//4 10//5 11//6
f  8//4 11//6 12//1
f  6//7 7//7 9//7
f  7//7 6//7 10//8
f  10//8 6//7 2//9
f  2//9 6//7 3//10
f  4//11 12//11 11//11
f  12//11 4//11 8//12
f  8//12 4//11 5//13
f  5//13 4//11 1//14
f  2//15 11//15 10//15
f  11//15 2//15 4//16
f  8//17 6//17 9//17
f  6//17 8//17 5//17

