# {"id":"BLDG_0003000800154fa3","idOriginal":"BLDG_0003000800154fa3","origin":[13.390808839427839,52.52657869388128],"elevation":34.0800018310547}
# Longitude: 13.390808839427839
# Latitude: 52.52657869388128
# Elevation: 34.0800018310547

# File produced by Open Asset Import Library (http://www.assimp.sf.net)
# (assimp v3.1.0)

mtllib BLDG_0003000800154fa3.obj.mtl

# 21 vertex positions
v  15.4124 19.2684 -7.78462
v  20.157 5.76343e-16 -9.4124
v  15.412 4.76633e-16 -7.78401
v  20.1574 19.3631 -9.41302
v  20.8831 19.3631 -7.16557
v  20.8827 4.38727e-16 -7.16496
v  20.8831 19.3437 -7.16557
v  16.138 19.3631 -5.5375
v  16.138 19.3437 -5.5375
v  16.1376 3.39037e-16 -5.53689
v  24.5301 -2.53003e-16 4.13186
v  24.5305 19.3437 4.13125
v  22.7069 23.6028 -1.5173
v  19.7854 19.3437 5.75932
v  19.785 -3.52694e-16 5.75993
v  3.6996 19.3437 11.2785
v  0 0 0
v  3.69919 -6.90644e-16 11.2791
v  0.000413006 19.3437 -0.00061194
v  1.8501 23.6028 5.63879
v  17.9618 23.6028 0.110773

# 0 UV coordinates

# 31 vertex normals
vn -0.324598 -2.30133e-05 -0.945852
vn -0.324598 -2.29693e-05 -0.945852
vn 0.951627 -3.00568e-05 -0.307256
vn 0.324535 1.47061e-05 0.945874
vn 0.324535 1.96082e-05 0.945874
vn -0.951627 3.00644e-05 0.307256
vn -0.951627 3.00252e-05 0.307256
vn 0.951627 -3.00794e-05 -0.307256
vn 0.951627 -2.99856e-05 -0.307256
vn 0.951627 -3.01791e-05 -0.307256
vn 0.324535 2.29966e-05 0.945874
vn 0.324535 2.30065e-05 0.945874
vn -0.950201 3.01329e-05 0.311637
vn -0.950201 3.01464e-05 0.311637
vn -0.950201 3.01813e-05 0.311637
vn -0.324535 -2.29937e-05 -0.945874
vn -0.324535 -2.30031e-05 -0.945874
vn 0.324535 2.2937e-05 0.945874
vn -5.02772e-24 -1 -6.12323e-17
vn -6.70458e-24 -1 -6.12323e-17
vn -2.13384e-23 -1 -6.12323e-17
vn 2.09818e-24 -1 -6.12323e-17
vn -0.189228 0.812419 -0.551514
vn 0.189224 0.812428 0.551502
vn 0.189224 0.812428 0.551502
vn -0.0179584 0.999822 0.0057983
vn -0.013003 0.999197 -0.0378979
vn -0.189228 0.812419 -0.551514
vn -0.189228 0.812419 -0.551514
vn 0.189224 0.812428 0.551502
vn 0.189224 0.812428 0.551502

# Mesh 'defaultobject' with 36 faces
g defaultobject
usemtl DefaultMaterial
f  1//1 2//1 3//1
f  2//1 1//1 4//2
f  2//3 5//3 6//3
f  5//3 2//3 4//3
f  7//4 8//4 9//4
f  8//4 7//4 5//5
f  8//6 3//6 10//6
f  3//6 8//6 1//7
f  7//8 11//8 6//3
f  11//8 7//8 12//9
f  12//9 7//8 13//10
f  11//11 14//11 15//11
f  14//11 11//11 12//12
f  16//13 17//13 18//13
f  17//13 16//13 19//14
f  19//14 16//13 20//15
f  19//16 10//16 17//16
f  10//16 19//16 9//17
f  15//11 16//18 18//18
f  16//18 15//11 14//11
f  6//19 3//19 2//19
f  3//19 6//19 10//20
f  10//20 11//21 15//21
f  11//21 10//20 6//19
f  17//22 15//21 18//22
f  15//21 17//22 10//20
f  21//23 19//23 20//23
f  19//23 21//23 9//23
f  14//24 20//24 16//24
f  20//24 14//24 21//25
f  4//26 1//26 5//26
f  5//27 1//27 8//27
f  13//28 9//23 21//23
f  9//23 13//28 7//29
f  12//30 21//25 14//24
f  21//25 12//30 13//31

