# {"id":"BLDG_0003000a004c6834","idOriginal":"BLDG_0003000a004c6834","origin":[13.346563520847186,52.53279638832816],"elevation":35.3600006103516}
# Longitude: 13.346563520847186
# Latitude: 52.53279638832816
# Elevation: 35.3600006103516

# File produced by Open Asset Import Library (http://www.assimp.sf.net)
# (assimp v3.1.0)

mtllib BLDG_0003000a004c6834.obj.mtl

# 24 vertex positions
v  0.000146389 6.87556 -0.00021761
v  16.444 6.87556 -4.20298
v  0.0805495 6.87556 -4.49847
v  0.898828 6.87556 0.0156622
v  0.756106 6.87556 7.8212
v  18.9799 6.87556 8.13988
v  25.2679 6.87556 -7.76832
v  25.1356 6.87556 -0.171926
v  18.9528 6.87556 9.70968
v  26.505 6.87556 -0.148311
v  26.3299 6.87556 9.83784
v  16.515 6.87556 -7.93182
v  0.0804032 2.75439e-16 -4.49825
v  0.898682 -9.72358e-19 0.0158798
v  0 0 0
v  18.9798 -4.98437e-16 8.14009
v  0.755959 -4.78923e-16 7.82141
v  16.4439 2.57345e-16 -4.20276
v  26.3298 -6.02407e-16 9.83806
v  18.9527 -5.9456e-16 9.70989
v  16.5148 4.85671e-16 -7.9316
v  25.1355 1.05141e-17 -0.171709
v  25.2678 4.75659e-16 -7.7681
v  26.5048 9.0681e-18 -0.148093

# 0 UV coordinates

# 29 vertex normals
vn 0 1 0
vn -2.61832e-23 -1 -6.12323e-17
vn 0 -1 -6.12323e-17
vn 4.57004e-24 -1 -6.12324e-17
vn 4.47465e-23 -1 -6.12323e-17
vn -1.09972e-23 -1 -6.12323e-17
vn 0 -1 -6.12323e-17
vn 1.20941e-25 -1 -6.12323e-17
vn -0.99984 2.07222e-05 -0.0178715
vn -0.99984 2.07226e-05 -0.0178715
vn -0.0176674 3.20213e-05 0.999844
vn -0.0176674 3.2021e-05 0.999844
vn -0.999833 2.07095e-05 -0.0182817
vn -0.999833 2.07091e-05 -0.0182817
vn -0.0174843 3.19963e-05 0.999847
vn -0.999851 2.08111e-05 -0.0172751
vn -0.0173704 3.19905e-05 0.999849
vn -0.0173704 3.19858e-05 0.999849
vn 0.999846 -2.05259e-05 0.0175274
vn 0.999846 -2.08036e-05 0.0175276
vn 0.0172426 -3.20096e-05 -0.999851
vn 0.0172426 -3.20144e-05 -0.999851
vn 0.999848 -2.05295e-05 0.017418
vn 0.999848 -2.08056e-05 0.0174182
vn 0.0186757 -3.20875e-05 -0.999826
vn 0.0186758 -3.20182e-05 -0.999826
vn -0.999819 2.07538e-05 -0.0190238
vn 0.0180549 -3.2004e-05 -0.999837
vn 0.0180549 -3.20746e-05 -0.999837

# Mesh 'defaultobject' with 44 faces
g defaultobject
usemtl DefaultMaterial
f  1//1 2//1 3//1
f  2//1 1//1 4//1
f  2//1 4//1 5//1
f  2//1 5//1 6//1
f  2//1 6//1 7//1
f  7//1 6//1 8//1
f  8//1 6//1 9//1
f  8//1 9//1 10//1
f  10//1 9//1 11//1
f  7//1 12//1 2//1
f  13//2 14//2 15//2
f  14//2 16//3 17//3
f  16//3 14//2 13//2
f  16//3 13//2 18//3
f  16//3 19//4 20//4
f  19//4 16//3 18//3
f  19//4 18//3 21//5
f  19//4 21//5 22//6
f  22//6 21//5 23//7
f  24//8 19//4 22//6
f  1//9 13//9 15//9
f  13//9 1//9 3//10
f  14//11 1//11 15//11
f  1//11 14//11 4//12
f  5//13 14//13 17//13
f  14//13 5//13 4//14
f  16//15 5//15 17//15
f  5//15 16//15 6//15
f  9//16 16//16 20//16
f  16//16 9//16 6//16
f  19//17 9//17 20//17
f  9//17 19//17 11//18
f  24//19 11//19 19//19
f  11//19 24//19 10//20
f  8//21 24//21 22//21
f  24//21 8//21 10//22
f  23//23 8//23 22//23
f  8//23 23//23 7//24
f  12//25 23//25 21//25
f  23//25 12//25 7//26
f  2//27 21//27 18//27
f  21//27 2//27 12//27
f  3//28 18//28 13//28
f  18//28 3//28 2//29

