# {"id":"BLDG_0003000b002ea213","idOriginal":"BLDG_0003000b002ea213","origin":[13.324184119859801,52.533046369976404],"elevation":34.8800010681152}
# Longitude: 13.324184119859801
# Latitude: 52.533046369976404
# Elevation: 34.8800010681152

# File produced by Open Asset Import Library (http://www.assimp.sf.net)
# (assimp v3.1.0)

mtllib BLDG_0003000b002ea213.obj.mtl

# 30 vertex positions
v  41.0649 8.13524 71.1216
v  72.8485 8.13524 54.8687
v  39.1056 8.13524 64.3784
v  83.6309 8.13524 59.1253
v  81.8063 8.13524 52.3442
v  80.1605 8.13524 46.2274
v  71.2231 8.13524 48.828
v  83.6758 4.63474 45.2346
v  81.9147 5.01253 52.5494
v  85.4869 4.63474 51.5704
v  80.1037 5.01253 46.2136
v  19.6436 8.76 69.7483
v  52.2897 8.76 -14.5984
v  0.000206016 8.76 -0.0003067
v  72.9618 8.76 54.863
v  41.0647 -4.35496e-15 71.1218
v  81.8061 -3.20517e-15 52.3444
v  83.6307 -3.6204e-15 59.1255
v  72.8483 -3.35976e-15 54.869
v  80.1604 -2.83063e-15 46.2277
v  39.1054 -3.94206e-15 64.3787
v  71.223 -2.98987e-15 48.8282
v  83.6757 0.169998 45.2347
v  81.9146 0.169998 52.5496
v  80.1036 0.169998 46.2137
v  85.4868 0.169998 51.5706
v  52.2894 -0.93 -14.5981
v  19.6434 -0.93 69.7486
v  0 -0.93 -5.69461e-17
v  72.9616 -0.93 54.8633

# 0 UV coordinates

# 39 vertex normals
vn 0 1 0
vn 0.0975706 0.994838 -0.0278902
vn 0.0975709 0.994838 -0.0278901
vn 5.45534e-24 -1 -6.12323e-17
vn -1.06931e-22 -1 -6.12326e-17
vn -5.20882e-23 -1 -6.12324e-17
vn 6.88181e-24 -1 -6.12323e-17
vn 3.27374e-23 -1 -6.12323e-17
vn 0 -1 0
vn 0.965657 -2.89919e-05 -0.259821
vn 0.965657 -3.02401e-05 -0.259822
vn 0.965657 -2.78783e-05 -0.259821
vn 0.965657 -2.82081e-05 -0.259821
vn -0.271261 -2.40638e-05 -0.962506
vn -0.271261 -2.48393e-05 -0.962506
vn 0.271261 2.49383e-05 0.962506
vn 0.271261 2.43446e-05 0.962506
vn -0.960287 2.91596e-05 0.279015
vn -0.960287 2.88979e-05 0.279015
vn -0.965657 2.91137e-05 0.25982
vn -0.965657 2.80863e-05 0.259821
vn -0.279389 -2.44015e-05 -0.960178
vn -0.279389 -2.48517e-05 -0.960178
vn -0.96149 2.83529e-05 0.274838
vn -0.961491 2.98677e-05 0.274837
vn -0.26432 -2.45592e-05 -0.964435
vn -0.264321 -2.50686e-05 -0.964435
vn 0.961491 -3.00484e-05 -0.274837
vn 0.96149 -2.84277e-05 -0.274838
vn 0.264321 2.49768e-05 0.964435
vn 0.26432 2.46249e-05 0.964435
vn -0.962555 2.92133e-05 0.271086
vn -0.962555 2.90448e-05 0.271086
vn -0.268896 -2.47686e-05 -0.963169
vn -0.268896 -2.46066e-05 -0.963169
vn 0.958455 -2.93766e-05 -0.285242
vn 0.958455 -2.98981e-05 -0.285242
vn 0.268896 2.5374e-05 0.963169
vn 0.268896 2.46912e-05 0.963169

# Mesh 'defaultobject' with 96 faces
g defaultobject
usemtl DefaultMaterial
f  1//1 2//1 3//1
f  2//1 1//1 4//1
f  2//1 4//1 5//1
f  2//1 5//1 6//1
f  6//1 7//1 2//1
f  8//2 9//2 10//2
f  9//2 8//2 11//3
f  12//1 13//1 14//1
f  13//1 12//1 15//1
f  1//1 2//1 3//1
f  2//1 1//1 4//1
f  2//1 4//1 5//1
f  2//1 5//1 6//1
f  6//1 7//1 2//1
f  8//2 9//2 10//2
f  9//2 8//2 11//3
f  12//1 13//1 14//1
f  13//1 12//1 15//1
f  16//4 17//4 18//4
f  17//4 16//4 19//5
f  17//4 19//5 20//6
f  19//5 16//4 21//7
f  22//8 20//6 19//5
f  23//9 24//9 25//9
f  24//9 23//9 26//9
f  27//9 28//9 29//9
f  28//9 27//9 30//9
f  16//4 17//4 18//4
f  17//4 16//4 19//5
f  17//4 19//5 20//6
f  19//5 16//4 21//7
f  22//8 20//6 19//5
f  23//9 24//9 25//9
f  24//9 23//9 26//9
f  27//9 28//9 29//9
f  28//9 27//9 30//9
f  18//10 5//10 4//10
f  5//10 18//10 6//11
f  6//11 18//10 17//12
f  6//11 17//12 20//13
f  3//14 19//14 21//14
f  19//14 3//14 2//15
f  18//16 1//16 16//16
f  1//16 18//16 4//17
f  1//18 21//18 16//18
f  21//18 1//18 3//19
f  2//20 22//20 19//20
f  22//20 2//20 7//21
f  7//22 20//22 22//22
f  20//22 7//22 6//23
f  9//24 25//24 24//24
f  25//24 9//24 11//25
f  11//26 23//26 25//26
f  23//26 11//26 8//27
f  23//28 10//28 26//28
f  10//28 23//28 8//29
f  26//30 9//30 24//30
f  9//30 26//30 10//31
f  12//32 29//32 28//32
f  29//32 12//32 14//33
f  14//34 27//34 29//34
f  27//34 14//34 13//35
f  27//36 15//36 30//36
f  15//36 27//36 13//37
f  30//38 12//38 28//38
f  12//38 30//38 15//39
f  18//10 5//10 4//10
f  5//10 18//10 6//11
f  6//11 18//10 17//12
f  6//11 17//12 20//13
f  3//14 19//14 21//14
f  19//14 3//14 2//15
f  18//16 1//16 16//16
f  1//16 18//16 4//17
f  1//18 21//18 16//18
f  21//18 1//18 3//19
f  2//20 22//20 19//20
f  22//20 2//20 7//21
f  7//22 20//22 22//22
f  20//22 7//22 6//23
f  9//24 25//24 24//24
f  25//24 9//24 11//25
f  11//26 23//26 25//26
f  23//26 11//26 8//27
f  23//28 10//28 26//28
f  10//28 23//28 8//29
f  26//30 9//30 24//30
f  9//30 26//30 10//31
f  12//32 29//32 28//32
f  29//32 12//32 14//33
f  14//34 27//34 29//34
f  27//34 14//34 13//35
f  27//36 15//36 30//36
f  15//36 27//36 13//37
f  30//38 12//38 28//38
f  12//38 30//38 15//39

