# {"id":"BLDG_000300090034f310","idOriginal":"BLDG_000300090034f310","origin":[13.405941709303745,52.52771146056229],"elevation":35.8699989318848}
# Longitude: 13.405941709303745
# Latitude: 52.52771146056229
# Elevation: 35.8699989318848

# File produced by Open Asset Import Library (http://www.assimp.sf.net)
# (assimp v3.1.0)

mtllib BLDG_000300090034f310.obj.mtl

# 25 vertex positions
v  26.5758 1.95867e-15 -31.9876
v  24.0855 17.2453 -24.8062
v  24.0851 1.51891e-15 -24.8057
v  26.5762 17.2453 -31.9881
v  22.1096 14.3423 -25.4933
v  22.1093 1.56099e-15 -25.4929
v  24.6024 14.3423 -32.6745
v  24.6021 2.00071e-15 -32.674
v  12.7706 17.2453 -36.7896
v  12.7703 2.25268e-15 -36.7891
v  24.6024 17.2453 -32.6746
v  15.7492 12.2413 -27.7053
v  10.2777 10.1402 -29.6082
v  10.2778 13.0547 -29.6083
v  21.0612 11.4516 -25.8578
v  18.7502 14.3423 -26.6617
v  10.2778 14.3423 -29.6083
v  22.1095 10.1402 -25.4932
v  10.2775 1.81296e-15 -29.6079
v  11.8165 10.1402 4.15947
v  11.8163 -2.54714e-16 4.15979
v  0 0 0
v  0.000216712 10.1402 -0.00032081
v  10.7695 11.4516 3.79084
v  5.46447 12.2413 1.92323

# 0 UV coordinates

# 36 vertex normals
vn 0.944798 -9.79207e-06 0.327655
vn -0.328493 3.68839e-05 0.944506
vn -0.328493 3.68908e-05 0.944506
vn 0.328492 -3.69279e-05 -0.944507
vn 0.328492 -3.68886e-05 -0.944507
vn 0.328493 -3.68886e-05 -0.944506
vn 0.944703 -9.52049e-06 0.327926
vn 0.328493 -3.66597e-05 -0.944506
vn 0.328493 -3.6991e-05 -0.944506
vn 0.328493 -3.64354e-05 -0.944506
vn 0.328493 -3.6589e-05 -0.944506
vn -0.944703 9.785e-06 -0.327926
vn -0.944703 9.79272e-06 -0.327926
vn 0.944703 -9.87581e-06 0.327926
vn 0.944703 -9.68405e-06 0.327926
vn -0.332063 3.69409e-05 0.943257
vn -0.332063 3.6939e-05 0.943257
vn -0.332063 3.69214e-05 0.943257
vn -0.332063 3.70033e-05 0.943257
vn -0.944703 9.81505e-06 -0.327926
vn -0.944703 9.74427e-06 -0.327926
vn -0.766706 0.584235 -0.26614
vn -0.766509 0.584637 -0.265825
vn -0.117192 0.934197 0.336959
vn -0.117192 0.934197 0.336959
vn 0.721082 0.646057 0.250302
vn 0.721084 0.646054 0.250303
vn 0.131359 0.990286 0.0455978
vn 0.131358 0.990286 0.0455971
vn -0.322108 0.940077 -0.11181
vn -0.32211 0.940076 -0.111812
vn 3.16273e-23 -1 -6.12323e-17
vn -4.999e-24 -1 -6.12324e-17
vn 6.67137e-24 -1 -6.12323e-17
vn -9.70856e-24 -1 -6.12323e-17
vn -1.0771e-24 -1 -6.12323e-17

# Mesh 'defaultobject' with 39 faces
g defaultobject
usemtl DefaultMaterial
f  1//1 2//1 3//1
f  2//1 1//1 4//1
f  3//2 5//2 6//2
f  5//2 3//2 2//3
f  7//4 1//4 8//4
f  1//4 7//4 4//5
f  9//6 8//4 10//6
f  8//4 9//6 11//6
f  11//7 5//7 7//7
f  12//8 13//8 14//8
f  15//9 14//8 16//9
f  17//10 16//9 14//8
f  18//11 16//9 5//11
f  17//12 10//12 19//12
f  10//12 17//12 9//13
f  6//14 20//14 21//14
f  20//14 6//14 18//15
f  20//16 22//16 21//16
f  22//16 20//16 23//17
f  23//17 20//16 24//18
f  23//17 24//18 25//19
f  23//20 19//12 22//20
f  19//12 23//20 13//21
f  5//22 4//22 7//22
f  4//23 5//23 2//23
f  17//24 11//24 9//24
f  11//24 17//24 5//25
f  24//26 18//26 15//26
f  18//26 24//26 20//27
f  25//28 15//28 12//28
f  15//28 25//28 24//29
f  23//30 12//30 13//30
f  12//30 23//30 25//31
f  6//32 1//32 3//32
f  1//32 6//32 8//33
f  8//33 19//34 10//34
f  19//34 8//33 6//32
f  6//32 22//35 19//34
f  22//35 6//32 21//36

