# {"id":"BLDG_00030000001c2370","idOriginal":"BLDG_00030000001c2370","origin":[13.351435486178868,52.54620348976032],"elevation":36.7200012207031}
# Longitude: 13.351435486178868
# Latitude: 52.54620348976032
# Elevation: 36.7200012207031

# File produced by Open Asset Import Library (http://www.assimp.sf.net)
# (assimp v3.1.0)

mtllib BLDG_00030000001c2370.obj.mtl

# 16 vertex positions
v  22.6715 1.67797e-16 -2.74033
v  5.73993 2.71425e-16 -4.4327
v  15.2952 7.23268e-16 -11.8119
v  13.1162 -2.84046e-16 4.63883
v  0 0 0
v  3.68813 -2.77736e-16 4.53577
v  7.37626 -5.55471e-16 9.07153
v  7.37657 14.6959 9.07107
v  0.000312999 14.6959 -0.00046554
v  3.68856 20.1906 4.53513
v  5.74024 14.6959 -4.43317
v  15.2955 14.6959 -11.8123
v  22.6718 14.6959 -2.7408
v  13.1165 14.6959 4.63836
v  9.42848 20.1906 0.102422
v  14.3569 20.1906 -3.70358

# 0 UV coordinates

# 26 vertex normals
vn -3.7516e-24 -1 -6.12323e-17
vn -3.00128e-24 -1 -6.12323e-17
vn 4.99626e-24 -1 -6.12323e-17
vn 0 -1 -6.12323e-17
vn -8.58732e-25 -1 -6.12323e-17
vn -0.775878 3.64938e-05 0.630883
vn -0.775878 3.64767e-05 0.630883
vn -0.775878 3.65103e-05 0.630883
vn -0.775878 3.65769e-05 0.630883
vn -0.611215 -1.20545e-05 -0.791465
vn -0.611215 -1.20978e-05 -0.791465
vn -0.611215 -1.20834e-05 -0.791465
vn -0.611215 -1.20543e-05 -0.791465
vn 0.611215 1.20545e-05 0.791465
vn 0.611215 1.20262e-05 0.791465
vn 0.611215 1.21264e-05 0.791465
vn 0.611215 1.20545e-05 0.791465
vn 0.775878 -3.64545e-05 -0.630883
vn -0.41868 0.728546 -0.542151
vn -0.41868 0.728546 -0.542151
vn -0.41868 0.728546 -0.542151
vn 0.418675 0.728554 0.542144
vn 0.418675 0.728554 0.542144
vn 0.418675 0.728554 0.542144
vn 0.418675 0.728554 0.542144
vn 0.53148 0.728539 -0.432158

# Mesh 'defaultobject' with 28 faces
g defaultobject
usemtl DefaultMaterial
f  1//1 2//1 3//1
f  2//1 1//1 4//2
f  2//1 4//2 5//3
f  5//3 4//2 6//4
f  6//4 4//2 7//5
f  8//6 6//6 7//6
f  6//6 8//6 5//7
f  5//7 8//6 9//8
f  9//8 8//6 10//9
f  3//10 11//10 12//10
f  11//10 3//10 9//11
f  9//11 3//10 2//12
f  9//11 2//12 5//13
f  13//14 4//14 1//14
f  4//14 13//14 7//15
f  7//15 13//14 14//16
f  7//15 14//16 8//17
f  3//18 13//18 1//18
f  13//18 3//18 12//18
f  12//19 15//19 16//19
f  15//19 12//19 11//20
f  15//19 11//20 10//21
f  10//21 11//20 9//21
f  16//22 14//22 13//22
f  14//22 16//22 15//23
f  14//22 15//23 8//24
f  8//24 15//23 10//25
f  13//26 12//26 16//26

