# {"id":"BLDG_000300090034cd8a","idOriginal":"BLDG_000300090034cd8a","origin":[13.345823619764458,52.543480423408226],"elevation":35.810001373291}
# Longitude: 13.345823619764458
# Latitude: 52.543480423408226
# Elevation: 35.810001373291

# File produced by Open Asset Import Library (http://www.assimp.sf.net)
# (assimp v3.1.0)

mtllib BLDG_000300090034cd8a.obj.mtl

# 8 vertex positions
v  2.85933 2.71656 3.70505
v  0 0 0
v  2.85927 -2.26874e-16 3.70514
v  5.7837e-05 2.71656 -8.60402e-05
v  5.42409 -1.13959e-16 1.86109
v  5.42415 2.71656 1.86101
v  2.56868 1.2534e-16 -2.04696
v  2.56874 2.71656 -2.04705

# 0 UV coordinates

# 11 vertex normals
vn -0.791676 3.62406e-05 0.610941
vn -0.791676 3.62053e-05 0.610941
vn 0.583757 1.32804e-05 0.811928
vn 0.583757 1.33359e-05 0.811928
vn 0.807438 -3.58308e-05 -0.589953
vn 0.807438 -3.59033e-05 -0.589953
vn -0.623212 -1.15011e-05 -0.782053
vn -0.623212 -1.14867e-05 -0.782053
vn -0 1 0
vn -3.4626e-24 -1 -6.12323e-17
vn 0 -1 -6.12323e-17

# Mesh 'defaultobject' with 12 faces
g defaultobject
usemtl DefaultMaterial
f  1//1 2//1 3//1
f  2//1 1//1 4//2
f  5//3 1//3 3//3
f  1//3 5//3 6//4
f  7//5 6//5 5//5
f  6//5 7//5 8//6
f  4//7 7//7 2//7
f  7//7 4//7 8//8
f  4//9 6//9 8//9
f  6//9 4//9 1//9
f  3//10 7//10 5//10
f  7//10 3//10 2//11

