# {"id":"BLDG_00030000005306dc","idOriginal":"BLDG_00030000005306dc","origin":[13.381882095933351,52.54013303389892],"elevation":37.4199981689453}
# Longitude: 13.381882095933351
# Latitude: 52.54013303389892
# Elevation: 37.4199981689453

# File produced by Open Asset Import Library (http://www.assimp.sf.net)
# (assimp v3.1.0)

mtllib BLDG_00030000005306dc.obj.mtl

# 10 vertex positions
v  0 0 0
v  22.2548 -7.17235e-17 1.17133
v  14.1148 -6.94424e-16 11.3408
v  8.14001 6.22701e-16 -10.1695
v  14.1149 4.0157 11.3407
v  7.05752 6.33559 5.6702
v  8.5693e-05 4.0157 -0.00012716
v  8.1401 4.0157 -10.1696
v  15.1975 6.33559 -4.49927
v  22.2549 4.0157 1.17121

# 0 UV coordinates

# 15 vertex normals
vn -2.24459e-25 -1 -6.12323e-17
vn -0.626343 3.8195e-05 0.779547
vn -0.626343 3.79719e-05 0.779547
vn -0.626343 3.80508e-05 0.779547
vn -0.780703 -3.12819e-06 -0.624903
vn -0.780703 -3.23682e-06 -0.624903
vn 0.626343 -3.78611e-05 -0.779547
vn 0.626343 -3.81666e-05 -0.779547
vn 0.626343 -3.80561e-05 -0.779547
vn 0.780703 3.20877e-06 0.624903
vn 0.780703 3.06292e-06 0.624903
vn -0.193795 0.968701 -0.15512
vn -0.193795 0.968701 -0.15512
vn 0.193795 0.968701 0.15512
vn 0.193795 0.968701 0.15512

# Mesh 'defaultobject' with 16 faces
g defaultobject
usemtl DefaultMaterial
f  1//1 2//1 3//1
f  2//1 1//1 4//1
f  5//2 1//2 3//2
f  1//2 5//2 6//3
f  1//2 6//3 7//4
f  7//5 4//5 1//5
f  4//5 7//5 8//6
f  8//7 2//7 4//7
f  2//7 8//7 9//8
f  2//7 9//8 10//9
f  2//10 5//10 3//10
f  5//10 2//10 10//11
f  9//12 7//12 6//12
f  7//12 9//12 8//13
f  10//14 6//14 5//14
f  6//14 10//14 9//15

