# {"id":"BLDG_00030009005b6eb5","idOriginal":"BLDG_00030009005b6eb5","origin":[13.370914442776604,52.54874377285499],"elevation":36.53}
# Longitude: 13.370914442776604
# Latitude: 52.54874377285499
# Elevation: 36.53

# File produced by Open Asset Import Library (http://www.assimp.sf.net)
# (assimp v3.1.0)

mtllib BLDG_00030009005b6eb5.obj.mtl

# 26 vertex positions
v  13.896 -1.2207e-06 -4.36873
v  8.14799 2.72873e-16 -4.45636
v  13.3696 3.73393e-16 -6.09797
v  14.5599 -1.2207e-06 -2.18804
v  17.1614 -1.2207e-06 6.3577
v  8.67441 -1.2207e-06 -2.72712
v  0 -1.2207e-06 -7.47465e-23
v  18.0931 -1.2207e-06 9.41832
v  12.8715 -1.2207e-06 11.0599
v  0.663827 -1.2207e-06 2.1807
v  3.26524 -1.2207e-06 10.7265
v  4.19693 -1.2207e-06 13.7871
v  13.8965 20.59 -4.36938
v  9.33873 21.85 -0.54712
v  14.5604 21.85 -2.18873
v  8.67485 20.59 -2.72777
v  0.664293 21.85 2.18001
v  0.000439083 20.59 -0.00065234
v  11.9403 22.5 7.9986
v  17.1619 22.5 6.35699
v  3.26572 22.5 10.7258
v  12.872 20.59 11.0593
v  18.0936 20.59 9.41767
v  4.19737 20.59 13.7865
v  8.14843 20.59 -4.45701
v  13.3701 20.59 -6.09862

# 0 UV coordinates

# 37 vertex normals
vn -2.02547e-07 -1 -6.4426e-07
vn -2.13359e-07 -1 6.49513e-08
vn -2.13359e-07 -1 6.49513e-08
vn 1.12091e-06 -1 -1.04715e-06
vn 0 -1 0
vn -0.145095 0.875186 -0.461517
vn -0.145095 0.875186 -0.461517
vn -0.145095 0.875186 -0.461517
vn -0.0217664 0.997363 -0.0692346
vn -0.0217665 0.997363 -0.0692346
vn -0.0217665 0.997363 -0.0692346
vn 0 1 0
vn 0.15374 0.858619 0.489017
vn 0.15374 0.858619 0.489017
vn 0.15374 0.858619 0.489017
vn 0.15374 0.858619 0.489017
vn 0.956654 -2.97075e-05 -0.291228
vn 0.956654 -2.96997e-05 -0.291228
vn 0.956654 -2.97471e-05 -0.291228
vn 0.956654 -2.97236e-05 -0.291228
vn 0.956654 -2.96447e-05 -0.291228
vn 0.956654 -2.96163e-05 -0.291228
vn 0.956654 -2.93796e-05 -0.291228
vn 0.956654 -2.8882e-05 -0.291228
vn -0.956657 2.98935e-05 0.291216
vn -0.956657 2.96205e-05 0.291216
vn -0.956657 2.96318e-05 0.291216
vn -0.956657 2.96307e-05 0.291216
vn 0.299914 2.38491e-05 0.953966
vn 0.299914 2.38535e-05 0.953966
vn 0.299914 2.38257e-05 0.953966
vn -0.956654 2.96532e-05 0.291228
vn -0.956654 2.96599e-05 0.291228
vn -0.299914 -2.38409e-05 -0.953966
vn -0.299914 -2.38548e-05 -0.953966
vn -0.299914 -2.38282e-05 -0.953966
vn -0.299914 -2.38188e-05 -0.953966

# Mesh 'defaultobject' with 48 faces
g defaultobject
usemtl DefaultMaterial
f  1//1 2//1 3//1
f  2//1 1//1 4//2
f  2//1 4//2 5//3
f  2//1 5//3 6//4
f  6//4 5//3 7//5
f  7//5 5//3 8//5
f  7//5 8//5 9//5
f  7//5 9//5 10//5
f  10//5 9//5 11//5
f  11//5 9//5 12//5
f  13//6 14//6 15//6
f  14//6 13//6 16//6
f  14//6 16//6 17//7
f  17//7 16//6 18//8
f  15//9 19//9 20//9
f  19//9 15//9 21//10
f  21//10 15//9 17//11
f  17//12 15//12 14//12
f  20//13 22//13 23//13
f  22//13 20//13 19//14
f  22//13 19//14 24//15
f  24//15 19//14 21//16
f  13//12 25//12 16//12
f  25//12 13//12 26//12
f  5//17 23//17 8//17
f  23//17 5//17 4//18
f  23//17 4//18 1//19
f  23//17 1//19 3//20
f  23//17 3//20 13//21
f  13//21 3//20 26//22
f  13//21 20//23 23//17
f  20//23 13//21 15//24
f  17//25 24//25 21//25
f  24//25 17//25 18//26
f  24//25 18//26 7//27
f  24//25 7//27 12//28
f  12//5 7//5 10//5
f  12//5 10//5 11//5
f  23//29 9//29 8//29
f  9//29 23//29 12//30
f  12//30 23//29 24//31
f  24//15 23//17 22//13
f  16//32 2//32 6//32
f  2//32 16//32 25//33
f  25//34 3//34 2//34
f  3//34 25//34 26//35
f  18//36 6//36 7//36
f  6//36 18//36 16//37

