# {"id":"BLDG_0003000b002c5a90","idOriginal":"BLDG_0003000b002c5a90","origin":[13.396785791268892,52.53237545518818],"elevation":32.8600006103516}
# Longitude: 13.396785791268892
# Latitude: 52.53237545518818
# Elevation: 32.8600006103516

# File produced by Open Asset Import Library (http://www.assimp.sf.net)
# (assimp v3.1.0)

mtllib BLDG_0003000b002c5a90.obj.mtl

# 42 vertex positions
v  0.000481726 22.5534 -0.000713751
v  5.18888 1.48134e-17 -0.241922
v  0 0 0
v  5.18936 22.5534 -0.242636
v  5.18934 21.8677 -0.242614
v  5.22245 22.4316 0.944898
v  5.36359 24.4488 6.00737
v  5.53772 21.2709 12.2575
v  5.53775 22.5534 12.2575
v  5.53727 -7.50599e-16 12.2582
v  5.78746 22.5534 21.2169
v  5.78697 -1.2992e-15 21.2176
v  0.593742 22.5534 21.2852
v  0.593261 -1.30339e-15 21.286
v  0.348391 -7.65412e-16 12.5001
v  0.348913 24.4488 12.4994
v  11.1095 22.5534 11.9977
v  10.3733 22.4316 0.704755
v  11.1095 21.271 11.9978
v  10.7028 24.4488 5.75844
v  10.5561 23.7654 3.50885
v  10.296 22.5534 -0.480723
v  10.296 21.8677 -0.480701
v  15.6325 4.46285e-17 -0.728839
v  10.2955 2.93921e-17 -0.480009
v  15.633 22.5534 -0.729553
v  16.4461 -7.19456e-16 11.7496
v  16.4465 22.5534 11.7489
v  16.0398 24.4488 5.50961
v  17.0536 -1.29012e-15 21.0693
v  11.7054 22.5534 21.139
v  11.705 -1.29443e-15 21.1397
v  17.0541 22.5534 21.0685
v  11.109 -7.34692e-16 11.9984
v  13.7781 24.4488 11.8732
v  5.30077 23.7654 3.7539
v  5.34975 24.5995 5.51045
v  5.37132 24.9669 6.28416
v  10.7607 24.7189 6.64748
v  10.7208 24.9669 6.03473
v  0.174718 24.4488 6.24929
v  14.206 24.4488 18.4367

# 0 UV coordinates

# 62 vertex normals
vn -0.0465726 -3.0618e-05 -0.998915
vn -0.0465726 -3.06183e-05 -0.998915
vn -0.999612 2.24302e-05 0.0278601
vn 0.999612 -2.22144e-05 -0.0278602
vn 0.999612 -2.20761e-05 -0.0278601
vn 0.999612 -2.22481e-05 -0.0278602
vn 0.0131637 3.13455e-05 0.999913
vn 0.0131637 3.13453e-05 0.999913
vn -0.999612 2.22322e-05 0.0278602
vn -0.999612 2.22331e-05 0.0278602
vn -0.997882 2.35515e-05 0.0650552
vn -0.997882 2.32927e-05 0.0650553
vn -0.997882 2.37533e-05 0.065055
vn 0.997882 -2.28757e-05 -0.0650555
vn -0.0465726 -3.0619e-05 -0.998915
vn -0.0465726 -3.06163e-05 -0.998915
vn 0.997882 -2.33675e-05 -0.0650552
vn 0.997882 -2.34114e-05 -0.0650553
vn 0.997882 -2.33776e-05 -0.0650553
vn 0.0131639 3.14302e-05 0.999913
vn 0.0131639 3.14294e-05 0.999913
vn -0.997882 2.33719e-05 0.0650554
vn -0.0465727 -3.06655e-05 -0.998915
vn 0.997882 -2.34144e-05 -0.0650553
vn -0.952613 0.297692 -0.0625152
vn 0.999612 -2.19811e-05 -0.0278603
vn -0.999612 2.25822e-05 0.0278603
vn -0.997882 2.38608e-05 0.0650554
vn 0.997882 -2.26021e-05 -0.0650556
vn 0.0465727 3.06423e-05 0.998915
vn 0.0465726 3.06006e-05 0.998915
vn -0.999612 2.22331e-05 0.0278602
vn -0.999612 2.22327e-05 0.0278602
vn -0.999612 2.21704e-05 0.0278602
vn -0.0135131 0.956981 -0.289837
vn -0.0135132 0.956981 -0.289837
vn 0.0135129 0.956982 0.289832
vn 0.0135129 0.956982 0.289832
vn 0.00762174 0.815335 0.57894
vn -0.577485 0.815533 0.0376482
vn -0.577484 0.815533 0.0376482
vn 0.577497 0.815524 -0.037649
vn 0.577497 0.815524 -0.037649
vn 0.00475208 0.994781 0.101927
vn 0.00475219 0.99478 0.101928
vn -0.0199753 0.903368 -0.4284
vn -0.0199729 0.903369 -0.428398
vn 0.0174436 0.927208 0.374141
vn 0.0174454 0.927207 0.374142
vn -0.0135131 0.956981 -0.289837
vn -0.0135131 0.956981 -0.289837
vn 0.0135129 0.956982 0.289832
vn 0.342697 0.939397 -0.00955131
vn 0.342697 0.939397 -0.00955133
vn 0.0027752 0.977525 0.210803
vn -3.96252e-25 -1 -6.12323e-17
vn -9.90629e-25 -1 -6.12323e-17
vn -1.79063e-23 -1 -6.12323e-17
vn -1.21459e-23 -1 -6.12323e-17
vn 2.60843e-23 -1 -6.12323e-17
vn 9.09819e-24 -1 -6.12323e-17
vn 9.27791e-24 -1 -6.12323e-17

# Mesh 'defaultobject' with 71 faces
g defaultobject
usemtl DefaultMaterial
f  1//1 2//1 3//1
f  2//1 1//1 4//2
f  5//3 6//3 4//3
f  7//4 8//4 4//4
f  8//4 7//4 9//5
f  10//6 11//6 12//6
f  11//6 10//6 9//5
f  12//7 13//7 14//7
f  13//7 12//7 11//8
f  13//9 15//9 14//9
f  15//9 13//9 16//10
f  17//11 18//11 19//11
f  18//11 17//11 20//12
f  18//11 20//12 21//13
f  22//14 21//14 23//14
f  22//15 24//15 25//15
f  24//15 22//15 26//16
f  26//17 27//17 24//17
f  27//17 26//17 28//18
f  28//18 26//17 29//19
f  30//20 31//20 32//20
f  31//20 30//20 33//21
f  31//22 34//22 32//22
f  34//22 31//22 17//11
f  28//23 17//23 35//23
f  27//17 33//24 30//24
f  33//24 27//17 28//18
f  4//25 36//25 7//25
f  37//26 7//4 36//26
f  37//27 9//27 38//27
f  4//2 25//15 2//1
f  25//15 4//2 22//15
f  39//28 20//12 17//11
f  21//14 22//14 22//14
f  22//14 40//29 39//29
f  34//30 9//30 10//30
f  9//30 34//30 17//31
f  16//10 3//32 15//9
f  3//32 16//10 1//33
f  1//33 16//10 41//34
f  26//35 20//35 29//35
f  20//35 26//35 22//36
f  29//37 17//37 28//37
f  17//37 29//37 20//38
f  42//39 31//39 33//39
f  35//40 31//40 42//40
f  31//40 35//40 17//41
f  28//42 42//42 33//42
f  42//42 28//42 35//43
f  22//44 6//44 18//44
f  6//44 22//44 4//45
f  18//46 38//46 40//46
f  38//46 18//46 6//47
f  40//48 9//48 17//48
f  9//48 40//48 38//49
f  1//50 7//50 4//50
f  7//50 1//50 41//51
f  7//52 41//52 9//52
f  41//53 16//53 9//53
f  9//53 16//53 11//54
f  11//55 16//55 13//55
f  24//56 34//56 25//56
f  34//56 24//56 27//57
f  32//58 27//57 30//58
f  27//57 32//58 34//56
f  2//59 34//56 10//59
f  34//56 2//59 25//56
f  3//60 10//59 15//60
f  10//59 3//60 2//59
f  12//61 15//60 10//59
f  15//60 12//61 14//62

