# {"id":"BLDG_00030000002032bc","idOriginal":"BLDG_00030000002032bc","origin":[13.390195973454828,52.53865445525703],"elevation":43.5699996948242}
# Longitude: 13.390195973454828
# Latitude: 52.53865445525703
# Elevation: 43.5699996948242

# File produced by Open Asset Import Library (http://www.assimp.sf.net)
# (assimp v3.1.0)

mtllib BLDG_00030000002032bc.obj.mtl

# 18 vertex positions
v  23.123 9.55805e-16 -15.6095
v  25.1785 16.1758 -11.3325
v  25.1782 6.93883e-16 -11.332
v  23.1233 16.1758 -15.61
v  20.1653 15.1121 -9.07613
v  18.1429 8.13411e-16 -13.284
v  20.1649 5.55723e-16 -9.07565
v  18.1433 15.1121 -13.2845
v  30.9481 -4.14434e-17 0.676822
v  25.9353 21.3777 2.93246
v  25.9348 -1.79603e-16 2.93314
v  30.9485 21.3777 0.676145
v  20.1654 20.4757 -9.0763
v  25.1786 20.4757 -11.3326
v  5.61536 21.3777 12.0779
v  5.61491 -7.39598e-16 12.0785
v  0 0 0
v  0.00043717 20.4757 -0.00064827

# 0 UV coordinates

# 24 vertex normals
vn 0.901357 -3.29469e-05 -0.433077
vn -0.901357 3.29456e-05 0.433077
vn -0.901357 3.29182e-05 0.433077
vn -0.423103 -1.96222e-05 -0.906082
vn -0.423103 -1.96564e-05 -0.906082
vn 0.410418 2.01242e-05 0.911897
vn -0.410418 -2.01041e-05 -0.911897
vn -0.410418 -2.00011e-05 -0.911897
vn 0.901357 -3.29214e-05 -0.433077
vn 0.901357 -3.30292e-05 -0.433077
vn 0.410418 2.01481e-05 0.911897
vn -0.906808 3.2729e-05 0.421544
vn -0.906808 3.27072e-05 0.421544
vn -0.410418 -2.01084e-05 -0.911897
vn -0.171268 0.981782 0.0822896
vn -0.171268 0.981782 0.0822896
vn -0.0277309 0.997715 -0.0616146
vn -0.0277309 0.997715 -0.0616146
vn -0.0277309 0.997715 -0.0616146
vn -0.0277309 0.997715 -0.0616146
vn -1.21787e-23 -1 -6.12323e-17
vn 2.06313e-23 -1 -6.12323e-17
vn 0 -1 -6.12323e-17
vn -2.85402e-24 -1 -6.12323e-17

# Mesh 'defaultobject' with 30 faces
g defaultobject
usemtl DefaultMaterial
f  1//1 2//1 3//1
f  2//1 1//1 4//1
f  5//2 6//2 7//2
f  6//2 5//2 8//3
f  8//4 1//4 6//4
f  1//4 8//4 4//5
f  9//6 10//6 11//6
f  10//6 9//6 12//6
f  13//7 2//7 5//7
f  2//7 13//7 14//8
f  3//1 12//9 9//9
f  12//9 3//1 14//10
f  11//6 15//11 16//11
f  15//11 11//6 10//6
f  15//12 17//12 16//12
f  17//12 15//12 18//13
f  18//14 7//14 17//14
f  7//14 18//14 13//7
f  5//15 4//15 8//15
f  4//15 5//15 2//16
f  14//17 10//17 12//17
f  10//17 14//17 13//18
f  13//18 15//19 10//17
f  15//19 13//18 18//20
f  7//21 1//21 3//21
f  1//21 7//21 6//22
f  11//23 3//21 9//23
f  3//21 11//23 7//21
f  16//24 7//21 11//23
f  7//21 16//24 17//23

