# {"id":"BLDG_00030008003837e2","idOriginal":"BLDG_00030008003837e2","origin":[13.346171473893824,52.55580541368067],"elevation":36.6599998474121}
# Longitude: 13.346171473893824
# Latitude: 52.55580541368067
# Elevation: 36.6599998474121

# File produced by Open Asset Import Library (http://www.assimp.sf.net)
# (assimp v3.1.0)

mtllib BLDG_00030008003837e2.obj.mtl

# 10 vertex positions
v  8.3655e-05 3.929 -0.00012454
v  7.40737 3.929 -2.51595
v  4.83285 3.929 -5.05271
v  3.60957 3.929 1.37249
v  2.56636 3.929 2.44066
v  4.83277 3.09382e-16 -5.05259
v  0 0 0
v  2.56627 -1.49455e-16 2.44078
v  3.60948 -8.40486e-17 1.37262
v  7.40729 1.5405e-16 -2.51583

# 0 UV coordinates

# 14 vertex normals
vn 0 1 0
vn -0.722652 -6.52336e-06 -0.691212
vn -0.722652 -6.54664e-06 -0.691212
vn -0.689169 3.75893e-05 0.724601
vn -0.689169 3.76417e-05 0.724601
vn 0.715415 6.9295e-06 0.698699
vn 0.715415 6.9295e-06 0.698699
vn 0.715396 6.92181e-06 0.69872
vn 0.715396 6.8325e-06 0.69872
vn 0.701864 -3.75408e-05 -0.712311
vn 0.701864 -3.74737e-05 -0.712311
vn 0 -1 -6.12323e-17
vn 2.94319e-23 -1 -6.12323e-17
vn -5.38963e-24 -1 -6.12323e-17

# Mesh 'defaultobject' with 16 faces
g defaultobject
usemtl DefaultMaterial
f  1//1 2//1 3//1
f  2//1 1//1 4//1
f  4//1 1//1 5//1
f  1//2 6//2 7//2
f  6//2 1//2 3//3
f  5//4 7//4 8//4
f  7//4 5//4 1//5
f  9//6 5//6 8//6
f  5//6 9//6 4//7
f  10//8 4//8 9//8
f  4//8 10//8 2//9
f  6//10 2//10 10//10
f  2//10 6//10 3//11
f  6//12 8//12 7//12
f  8//12 6//12 9//13
f  9//13 6//12 10//14

