# {"id":"BLDG_000300020028d13e","idOriginal":"BLDG_000300020028d13e","origin":[13.424665325011288,52.50814178139738],"elevation":32.0699996948242}
# Longitude: 13.424665325011288
# Latitude: 52.50814178139738
# Elevation: 32.0699996948242

# File produced by Open Asset Import Library (http://www.assimp.sf.net)
# (assimp v3.1.0)

mtllib BLDG_000300020028d13e.obj.mtl

# 10 vertex positions
v  0 0 0
v  36.8185 1.11547e-15 -18.217
v  19.001 -7.93441e-16 12.9579
v  17.8175 1.90891e-15 -31.1749
v  19.0012 7.06756 12.9576
v  9.50078 12.605 6.47854
v  0.000151218 7.06756 -0.000223299
v  17.8176 7.06756 -31.1751
v  27.3182 12.605 -24.6963
v  36.8186 7.06756 -18.2172

# 0 UV coordinates

# 16 vertex normals
vn 0 -1 -6.12323e-17
vn -2.05783e-24 -1 -6.12323e-17
vn -0.563415 3.80987e-05 0.826174
vn -0.563415 3.81784e-05 0.826174
vn -0.563415 3.81578e-05 0.826174
vn -0.868204 2.8985e-06 -0.496207
vn -0.868204 2.84229e-06 -0.496207
vn 0.563415 -3.80987e-05 -0.826174
vn 0.563415 -3.80321e-05 -0.826174
vn 0.563415 -3.79466e-05 -0.826174
vn 0.868204 -2.64558e-06 0.496207
vn 0.868204 -2.40507e-06 0.496207
vn -0.377643 0.900445 -0.215836
vn -0.377643 0.900445 -0.215836
vn 0.377644 0.900444 0.215836
vn 0.377644 0.900444 0.215836

# Mesh 'defaultobject' with 16 faces
g defaultobject
usemtl DefaultMaterial
f  1//1 2//1 3//1
f  2//1 1//1 4//2
f  5//3 1//3 3//3
f  1//3 5//3 6//4
f  1//3 6//4 7//5
f  7//6 4//6 1//6
f  4//6 7//6 8//7
f  8//8 2//8 4//8
f  2//8 8//8 9//9
f  2//8 9//9 10//10
f  2//11 5//11 3//11
f  5//11 2//11 10//12
f  9//13 7//13 6//13
f  7//13 9//13 8//14
f  10//15 6//15 5//15
f  6//15 10//15 9//16

