# {"id":"BLDG_0003000a0010da0c","idOriginal":"BLDG_0003000a0010da0c","origin":[13.385252109412693,52.55244149602534],"elevation":40.0699996948242}
# Longitude: 13.385252109412693
# Latitude: 52.55244149602534
# Elevation: 40.0699996948242

# File produced by Open Asset Import Library (http://www.assimp.sf.net)
# (assimp v3.1.0)

mtllib BLDG_0003000a0010da0c.obj.mtl

# 19 vertex positions
v  16.6848 19.378 8.06968
v  9.99876 22.5876 8.92935
v  13.4518 22.5876 12.0134
v  13.2864 19.378 5.03434
v  16.1641 22.5876 -8.76267
v  3.28815 19.378 -3.89573
v  8.28735 22.5876 0.569204
v  11.2598 19.378 -13.34
v  21.0683 19.378 -4.18512
v  0.000413618 19.378 -0.000614081
v  4.99962 22.5876 4.46432
v  9.99827 -5.46809e-16 8.93007
v  16.6844 -4.94163e-16 8.07029
v  13.4513 -7.35655e-16 12.0142
v  13.286 -3.08302e-16 5.03496
v  3.28773 2.38507e-16 -3.89512
v  21.0678 2.56227e-16 -4.18451
v  11.2593 8.16803e-16 -13.3394
v  0 0 0

# 0 UV coordinates

# 30 vertex normals
vn 0.355063 0.846107 -0.397535
vn 0.355063 0.846107 -0.397535
vn -0.330145 0.901859 -0.278664
vn -0.330145 0.901859 -0.278664
vn 0.330144 0.90186 0.278663
vn 0.330144 0.90186 0.278663
vn -0.330145 0.901859 -0.278664
vn -0.330145 0.901859 -0.278664
vn 0.330144 0.90186 0.278663
vn 0.355063 0.846107 -0.397535
vn -3.3663e-24 -1 -6.12323e-17
vn -2.85031e-24 -1 -6.12323e-17
vn 9.00494e-25 -1 -6.12323e-17
vn 8.79057e-25 -1 -6.12323e-17
vn -3.10023e-24 -1 -6.12323e-17
vn -0.666142 3.78519e-05 0.745825
vn 0.666142 -3.78673e-05 -0.745825
vn 0.773346 3.60967e-06 0.633984
vn 0.773346 3.57064e-06 0.633984
vn -0.764173 -4.13045e-06 -0.645012
vn -0.764173 -4.12105e-06 -0.645012
vn 0.68233 -3.77437e-05 -0.731044
vn 0.68233 -3.76765e-05 -0.731044
vn 0.68233 -3.7824e-05 -0.731044
vn 0.764173 4.11186e-06 0.645012
vn 0.764173 4.17713e-06 0.645012
vn -0.666142 3.78519e-05 0.745825
vn -0.666142 3.78536e-05 0.745825
vn -0.666142 3.79449e-05 0.745825
vn -0.764173 -4.12911e-06 -0.645012

# Mesh 'defaultobject' with 34 faces
g defaultobject
usemtl DefaultMaterial
f  1//1 2//1 3//1
f  2//1 1//1 4//2
f  5//3 6//3 7//3
f  6//3 5//3 8//4
f  9//5 7//5 4//5
f  7//5 9//5 5//6
f  10//7 7//3 6//3
f  7//3 10//7 11//8
f  7//5 11//9 4//5
f  11//10 2//1 4//2
f  12//11 13//11 14//11
f  13//11 12//11 15//12
f  16//13 17//13 15//12
f  17//13 16//13 18//14
f  19//15 15//12 12//11
f  15//12 19//15 16//13
f  3//16 12//16 14//16
f  12//16 3//16 2//16
f  15//17 1//17 13//17
f  1//17 15//17 4//17
f  13//18 3//18 14//18
f  3//18 13//18 1//19
f  6//20 18//20 16//20
f  18//20 6//20 8//21
f  8//22 17//22 18//22
f  17//22 8//22 9//23
f  9//23 8//22 5//24
f  17//25 4//25 15//25
f  4//25 17//25 9//26
f  2//16 19//27 12//16
f  19//27 2//16 10//28
f  10//28 2//16 11//29
f  10//30 16//20 19//30
f  16//20 10//30 6//20

