# {"id":"BLDG_0003000e009a03a0","idOriginal":"BLDG_0003000e009a03a0","origin":[13.336211345201033,52.52733835153007],"elevation":34.0699996948242}
# Longitude: 13.336211345201033
# Latitude: 52.52733835153007
# Elevation: 34.0699996948242

# File produced by Open Asset Import Library (http://www.assimp.sf.net)
# (assimp v3.1.0)

mtllib BLDG_0003000e009a03a0.obj.mtl

# 8 vertex positions
v  5.85036 -6.5039e-17 1.06217
v  4.9244e-05 2.31448 -7.32206e-05
v  0 0 0
v  5.85041 2.31448 1.06209
v  6.34351 1.09841e-16 -1.79384
v  6.34356 2.31448 -1.79391
v  0.464326 2.31448 -2.86212
v  0.464277 1.7525e-16 -2.86205

# 0 UV coordinates

# 9 vertex normals
vn -0.178636 3.48916e-05 0.983915
vn 0.985418 -1.55143e-05 0.170153
vn 0.178765 -3.49178e-05 -0.983892
vn 0.178765 -3.49086e-05 -0.983892
vn -0.987097 1.59362e-05 -0.160125
vn -0.987097 1.59335e-05 -0.160125
vn 0 1 0
vn 0 -1 -6.12323e-17
vn 0 -1 -6.12323e-17

# Mesh 'defaultobject' with 12 faces
g defaultobject
usemtl DefaultMaterial
f  1//1 2//1 3//1
f  2//1 1//1 4//1
f  5//2 4//2 1//2
f  4//2 5//2 6//2
f  7//3 5//3 8//3
f  5//3 7//3 6//4
f  2//5 8//5 3//5
f  8//5 2//5 7//6
f  2//7 6//7 7//7
f  6//7 2//7 4//7
f  3//8 5//8 1//8
f  5//8 3//8 8//9

