# {"id":"BLDG_0003000b0011aea9","idOriginal":"BLDG_0003000b0011aea9","origin":[13.334218877107201,52.53219836826036],"elevation":33.72}
# Longitude: 13.334218877107201
# Latitude: 52.53219836826036
# Elevation: 33.72

# File produced by Open Asset Import Library (http://www.assimp.sf.net)
# (assimp v3.1.0)

mtllib BLDG_0003000b0011aea9.obj.mtl

# 16 vertex positions
v  2.79867 23.28 0.480717
v  12.987 20.15 2.23384
v  9.79482 23.28 1.68448
v  0.000428676 20.15 -0.00063773
v  12.9866 -1.36822e-16 2.23448
v  9.79433 -1.0319e-16 1.68521
v  0 0 0
v  2.79817 -2.94806e-17 0.481454
v  16.0043 20.15 -15.2922
v  5.81597 23.28 -17.0453
v  12.8121 23.28 -15.8416
v  3.01773 20.15 -17.5267
v  16.0039 9.36338e-16 -15.2916
v  3.0173 1.07316e-15 -17.526
v  12.8116 9.6997e-16 -15.8408
v  5.81547 1.04368e-15 -17.0446

# 0 UV coordinates

# 21 vertex normals
vn -0.169568 3.48511e-05 0.985518
vn -0.169568 3.48217e-05 0.985518
vn -0.169568 3.47925e-05 0.985518
vn -0.169568 3.4826e-05 0.985518
vn -0.169568 3.48028e-05 0.985518
vn -1.38778e-17 -1 5.55112e-17
vn 0.169568 -3.4658e-05 -0.985518
vn 0.169568 -3.46251e-05 -0.985518
vn 0.169568 -3.48175e-05 -0.985518
vn 0.169569 -3.47652e-05 -0.985518
vn 0.184289 0 -0.982872
vn -2.85266e-17 -1 9.86865e-17
vn -0.985502 1.55961e-05 -0.169665
vn -0.985502 1.56018e-05 -0.169665
vn 0.985502 -1.5606e-05 0.169665
vn -0.729922 0.67188 -0.125664
vn -0.729922 0.67188 -0.125664
vn 0 1 0
vn 0.684813 0.719118 0.117898
vn 0.684813 0.719118 0.117898
vn -2.75701e-24 -1 -6.12323e-17

# Mesh 'defaultobject' with 28 faces
g defaultobject
usemtl DefaultMaterial
f  1//1 2//1 3//1
f  2//1 1//1 4//2
f  2//1 4//2 5//3
f  5//3 4//2 6//4
f  6//4 4//2 7//5
f  6//6 7//6 8//6
f  9//7 10//7 11//7
f  10//7 9//7 12//8
f  12//8 9//7 13//9
f  12//8 13//9 14//10
f  14//11 13//11 15//11
f  14//12 15//12 16//12
f  4//13 14//13 7//13
f  14//13 4//13 12//14
f  13//15 2//15 5//15
f  2//15 13//15 9//15
f  12//16 1//16 10//16
f  1//16 12//16 4//17
f  10//18 3//18 11//18
f  3//18 10//18 1//18
f  11//19 2//19 9//19
f  2//19 11//19 3//20
f  6//6 13//21 5//21
f  13//21 6//6 8//6
f  13//21 8//6 7//6
f  13//21 7//6 15//12
f  15//12 7//6 16//12
f  16//12 7//6 14//12

