# {"id":"BLDG_0003000f00415ab0","idOriginal":"BLDG_0003000f00415ab0","origin":[13.389684304286769,52.55307169416898],"elevation":42.1500015258789}
# Longitude: 13.389684304286769
# Latitude: 52.55307169416898
# Elevation: 42.1500015258789

# File produced by Open Asset Import Library (http://www.assimp.sf.net)
# (assimp v3.1.0)

mtllib BLDG_0003000f00415ab0.obj.mtl

# 26 vertex positions
v  28.669 9.36827e-16 -15.2996
v  10.2561 7.56754e-16 -12.3587
v  19.3477 1.42758e-15 -23.3142
v  19.5774 2.65998e-16 -4.34407
v  8.78945 6.48537e-16 -10.5914
v  17.8323 1.37234e-16 -2.24121
v  0 0 0
v  9.04285 -5.11302e-16 8.3502
v  6.88399 7.56276e-16 -12.3509
v  8.33626 8.57832e-16 -14.0095
v  28.6693 15.5989 -15.3
v  19.348 15.5989 -23.3147
v  19.5777 15.5989 -4.34457
v  10.2564 15.5989 -12.3592
v  8.78979 15.5989 -10.5919
v  10.2562 4.21858 -12.3589
v  8.78954 4.21858 -10.5915
v  17.8326 15.5989 -2.2417
v  9.04318 15.5989 8.34971
v  0.000333049 15.5989 -0.00049434
v  4.52186 20.1574 4.17446
v  6.88408 4.11366 -12.351
v  8.33634 4.11366 -14.0096
v  20.0835 20.1574 -14.5775
v  14.9172 20.1574 -8.35204
v  13.3113 20.1574 -6.41695

# 0 UV coordinates

# 35 vertex normals
vn -1.81522e-24 -1 -6.12323e-17
vn -1.21015e-24 -1 -6.12323e-17
vn -1.26092e-23 -1 -6.12323e-17
vn -6.25873e-25 -1 -6.12323e-17
vn 1.34719e-24 -1 -6.12323e-17
vn 1.22267e-24 -1 -6.12324e-17
vn 0.651962 -3.79561e-05 -0.758252
vn 0.769532 3.77907e-06 0.638608
vn 0.769532 3.74471e-06 0.638609
vn -0.769532 -3.80474e-06 -0.638609
vn -0.769532 -3.75769e-06 -0.638609
vn -0.769532 -3.78472e-06 -0.638609
vn 0.769532 3.76983e-06 0.638609
vn -0.67841 3.7742e-05 0.734684
vn -0.67841 3.77673e-05 0.734684
vn -0.67841 3.76654e-05 0.734684
vn -0.769532 -3.80785e-06 -0.638608
vn 0.769532 3.8379e-06 0.638608
vn -0.67841 3.78217e-05 0.734684
vn -0.678409 3.76333e-05 0.734684
vn -0.752342 -4.72417e-06 -0.658773
vn -0.752342 -4.87689e-06 -0.658773
vn 0.651962 -3.7991e-05 -0.758252
vn 0.651962 -3.79757e-05 -0.758252
vn 0.388413 0.803162 -0.451737
vn 0.458447 0.803171 0.38045
vn 0.458447 0.803171 0.38045
vn -0.458449 0.803169 -0.380452
vn -0.458449 0.803169 -0.380451
vn -0.458449 0.803169 -0.380451
vn 0.458447 0.803171 0.38045
vn -0.458449 0.803169 -0.380451
vn 0.458447 0.803171 0.38045
vn -0.0318659 0.999142 -0.0264444
vn -0.0304207 0.999182 -0.0266373

# Mesh 'defaultobject' with 46 faces
g defaultobject
usemtl DefaultMaterial
f  1//1 2//1 3//1
f  2//1 1//1 4//2
f  5//3 4//2 6//3
f  4//2 5//3 2//1
f  7//4 6//3 8//4
f  6//3 7//4 5//3
f  9//5 2//1 5//3
f  2//1 9//5 10//6
f  3//7 11//7 1//7
f  11//7 3//7 12//7
f  1//8 13//8 4//8
f  13//8 1//8 11//9
f  14//10 3//10 2//10
f  3//10 14//10 12//11
f  15//12 16//12 17//12
f  16//12 15//12 14//10
f  4//8 18//13 6//13
f  18//13 4//8 13//8
f  19//14 7//14 8//14
f  7//14 19//14 20//15
f  20//15 19//14 21//16
f  20//17 5//17 7//17
f  5//17 20//17 15//12
f  6//13 19//18 8//18
f  19//18 6//13 18//13
f  17//19 9//19 5//19
f  9//19 17//19 22//20
f  22//21 10//21 9//21
f  10//21 22//21 23//22
f  10//23 16//23 2//23
f  16//23 10//23 23//24
f  24//25 11//25 12//25
f  25//26 11//26 24//26
f  11//26 25//26 13//27
f  14//28 24//28 12//28
f  24//28 14//28 25//29
f  25//29 15//30 26//30
f  15//30 25//29 14//28
f  13//27 26//31 18//31
f  26//31 13//27 25//26
f  26//30 20//32 21//32
f  20//32 26//30 15//30
f  18//31 21//33 19//33
f  21//33 18//31 26//31
f  23//34 17//34 16//34
f  17//35 23//35 22//35

