# {"id":"BLDG_0003000e000e19a4","idOriginal":"BLDG_0003000e000e19a4","origin":[13.415714454120975,52.51295854125771],"elevation":34.5200004577637}
# Longitude: 13.415714454120975
# Latitude: 52.51295854125771
# Elevation: 34.5200004577637

# File produced by Open Asset Import Library (http://www.assimp.sf.net)
# (assimp v3.1.0)

mtllib BLDG_0003000e000e19a4.obj.mtl

# 57 vertex positions
v  33.8146 -3.67894e-16 6.00817
v  31.7307 1.99314e-16 -3.25504
v  35.9883 2.26058e-16 -3.6918
v  29.5569 -3.94638e-16 6.44493
v  31.0918 -1.11185e-15 18.1578
v  26.756 -1.15996e-15 18.9436
v  16.7243 -1.27129e-15 20.7617
v  15.2046 -4.84791e-16 7.91723
v  24.14 -1.87475e-15 30.617
v  19.3803 -2.64582e-15 43.2095
v  17.8236 -1.8402e-15 30.0528
v  21.28 -2.65621e-15 43.3792
v  1.10783 -5.73339e-16 9.36333
v  14.0968 8.8548e-17 -1.4461
v  0 0 0
v  2.75595 -1.4263e-15 23.2932
v  3.40333 -1.76134e-15 28.7648
v  4.95997 -2.56695e-15 41.9215
v  17.8241 22.2041 30.0521
v  16.7248 22.2041 20.761
v  3.4038 22.2041 28.7641
v  2.75643 22.2041 23.2925
v  4.96044 22.2041 41.9208
v  19.3807 22.2041 43.2088
v  33.8151 25.206 6.00737
v  35.9889 25.206 -3.6926
v  29.5574 22.2041 6.44423
v  31.7311 22.2041 -3.25574
v  32.9013 23.7926 10.0849
v  31.0923 22.2041 18.1571
v  32.2115 24.1362 13.1631
v  26.7564 22.2041 18.9429
v  16.1235 24.1362 15.6786
v  15.2051 22.2041 7.91653
v  15.6961 23.7926 12.0661
v  24.1404 22.2041 30.6163
v  21.2805 22.2041 43.3785
v  23.3651 23.9751 34.0761
v  22.4175 25.2716 38.3048
v  1.1083 22.2041 9.36263
v  0.000474813 22.2041 -0.00070177
v  14.0973 22.2041 -1.4468
v  7.04894 25.206 -0.723846
v  10.2464 24.9886 21.935
v  13.4454 23.9751 21.3553
v  9.66414 25.1731 22.0405
v  9.35323 25.2716 22.0969
v  14.9211 23.9751 33.2766
v  14.5045 23.9751 29.7556
v  27.8756 24.1362 13.9489
v  28.6437 23.7926 10.5216
v  10.0815 25.2716 29.3605
v  11.0272 25.2716 37.3537
v  18.7699 25.2716 38.0453
v  18.2407 23.9751 33.5731
v  8.15677 25.206 8.63949
v  9.74068 25.206 22.0267

# 0 UV coordinates

# 84 vertex normals
vn 0 -1 -6.12323e-17
vn -1.67597e-23 -1 -6.12323e-17
vn 0 -1 -6.12323e-17
vn 1.13492e-24 -1 -6.12323e-17
vn 1.54523e-23 -1 -6.12324e-17
vn 4.28143e-23 -1 -6.12323e-17
vn -7.92537e-25 -1 -6.12323e-17
vn 0 -1 -6.12323e-17
vn 4.26179e-24 -1 -6.12323e-17
vn 1.08499e-23 -1 -6.12324e-17
vn -1.97411e-23 -1 -6.12324e-17
vn 0.993073 -2.49552e-05 -0.117496
vn -0.993073 2.49447e-05 0.117496
vn -0.993073 2.49554e-05 0.117496
vn -0.0889643 3.33868e-05 0.996035
vn -0.993073 2.49554e-05 0.117496
vn 0.975798 -1.39153e-05 0.218675
vn -0.975798 1.3959e-05 -0.218675
vn -0.975798 1.39613e-05 -0.218675
vn -0.102048 -2.92531e-05 -0.994779
vn -0.102048 -2.92687e-05 -0.99478
vn 0.975798 -1.391e-05 0.218675
vn 0.975798 -1.41322e-05 0.218675
vn 0.975798 -1.3959e-05 0.218675
vn 0.975798 -1.13538e-05 0.218676
vn 0.178328 2.72917e-05 0.983971
vn -0.993073 2.4786e-05 0.117496
vn -0.993073 2.44848e-05 0.117496
vn -0.102048 -2.92638e-05 -0.994779
vn 0.178328 2.7291e-05 0.983971
vn 0.0889643 -3.33891e-05 -0.996035
vn 0.975798 -1.3959e-05 0.218675
vn 0.975798 -1.42456e-05 0.218675
vn 0.975798 -1.30903e-05 0.218675
vn -0.0889653 3.3389e-05 0.996035
vn -0.993073 2.49554e-05 0.117496
vn -0.993073 2.49495e-05 0.117496
vn -0.102048 -2.92583e-05 -0.99478
vn -0.102048 -2.92584e-05 -0.99478
vn -0.102048 -2.92785e-05 -0.99478
vn 0.993073 -2.4954e-05 -0.117496
vn -0.178329 -2.89516e-05 -0.983971
vn -0.178326 -3.30818e-05 -0.983972
vn 0.473862 0.878813 -0.0560652
vn -0.580217 0.804016 -0.130026
vn 0.0676269 0.925304 0.373149
vn 0.0676268 0.925304 0.373149
vn -0.0116432 0.99347 -0.113499
vn -0.0188322 0.994408 -0.103911
vn -0.0379697 0.928202 -0.370135
vn -0.55823 0.814642 0.157279
vn -0.0420914 0.934731 -0.352854
vn -0.0379696 0.928202 -0.370135
vn -0.013698 0.995565 -0.0930708
vn -0.0122217 0.994663 -0.102456
vn 0.296986 0.954418 -0.0297761
vn 0.284054 0.958139 -0.0358127
vn -0.413831 0.909036 0.0489626
vn -0.420168 0.906468 0.0421264
vn -0.0459291 0.856429 0.514218
vn -0.0459292 0.856429 0.514218
vn -0.420583 0.905888 0.0497616
vn -0.420583 0.905888 0.0497616
vn 0.0251068 0.959352 -0.281092
vn 0.0251066 0.959352 -0.281091
vn 0.283893 0.958267 -0.033589
vn 0.283893 0.958267 -0.033589
vn 0.0404434 0.890696 -0.452798
vn 0.0630895 0.935328 0.348112
vn 0.0545895 0.927064 0.370908
vn 0.0444677 0.89035 -0.4531
vn 0.0400305 0.893048 -0.448177
vn 0.01996 0.959628 -0.280562
vn 0.0281889 0.957447 -0.287229
vn -0.0459297 0.856429 0.514218
vn -0.0363584 0.858775 0.511062
vn -0.387444 0.920753 0.0458407
vn -0.387444 0.920753 0.0458407
vn 0.387451 0.92075 -0.0458415
vn 0.387451 0.92075 -0.0458415
vn -0.387444 0.920753 0.0458407
vn 0.387451 0.92075 -0.0458415
vn 0.466095 0.882781 -0.0587637
vn 0.473861 0.878813 -0.0560652

# Mesh 'defaultobject' with 105 faces
g defaultobject
usemtl DefaultMaterial
f  1//1 2//1 3//1
f  2//1 1//1 4//1
f  5//2 4//1 1//1
f  4//1 5//2 6//3
f  4//1 7//4 8//4
f  7//4 4//1 6//3
f  9//5 10//5 11//5
f  10//5 9//5 12//6
f  13//7 14//7 8//4
f  14//7 13//7 15//8
f  13//7 7//4 16//9
f  7//4 13//7 8//4
f  11//5 16//9 7//4
f  16//9 11//5 17//10
f  18//11 11//5 10//5
f  11//5 18//11 17//10
f  7//12 19//12 11//12
f  19//12 7//12 20//12
f  21//13 16//13 17//13
f  16//13 21//13 22//14
f  10//15 23//15 18//15
f  23//15 10//15 24//15
f  23//16 17//13 18//16
f  17//13 23//16 21//13
f  3//17 25//17 1//17
f  25//17 3//17 26//17
f  27//18 2//18 4//18
f  2//18 27//18 28//19
f  28//20 3//20 2//20
f  3//20 28//20 26//21
f  25//17 5//22 1//17
f  5//22 25//17 29//23
f  5//22 29//23 30//24
f  31//25 30//24 29//23
f  5//26 32//26 6//26
f  32//26 5//26 30//26
f  33//27 34//27 20//27
f  34//27 33//27 35//28
f  34//29 4//29 8//29
f  4//29 34//29 27//29
f  6//26 20//30 7//30
f  20//30 6//26 32//26
f  19//31 9//31 11//31
f  9//31 19//31 36//31
f  36//32 12//32 9//32
f  12//32 36//32 37//32
f  37//32 36//32 38//33
f  37//32 38//33 39//34
f  12//35 24//15 10//15
f  24//15 12//35 37//35
f  40//36 15//36 13//36
f  15//36 40//36 41//37
f  41//38 14//38 15//38
f  14//38 41//38 42//39
f  42//39 41//38 43//40
f  14//41 34//41 8//41
f  34//41 14//41 42//41
f  22//14 13//36 16//13
f  13//36 22//14 40//36
f  20//42 44//42 45//42
f  46//43 22//43 47//43
f  48//44 19//44 49//44
f  28//45 25//45 26//45
f  25//45 28//45 27//45
f  50//46 30//46 31//46
f  30//46 50//46 32//47
f  51//48 31//48 29//48
f  31//49 51//49 50//49
f  51//50 29//50 27//50
f  29//51 25//51 27//51
f  51//52 34//52 35//52
f  34//53 51//50 27//50
f  50//54 35//54 33//54
f  35//55 50//55 51//55
f  52//56 45//56 47//56
f  45//57 52//57 49//57
f  21//58 47//58 22//58
f  47//59 21//59 52//59
f  53//60 24//60 54//60
f  24//60 53//60 23//61
f  23//62 52//62 21//62
f  52//62 23//62 53//63
f  48//64 54//64 55//64
f  54//64 48//64 53//65
f  53//66 49//66 52//66
f  49//66 53//66 48//67
f  55//68 19//68 48//68
f  32//69 33//69 20//69
f  33//70 32//70 50//70
f  38//71 19//71 55//71
f  19//72 38//72 36//72
f  39//73 55//73 54//73
f  55//74 39//74 38//74
f  37//75 54//60 24//60
f  54//76 37//76 39//76
f  43//77 40//77 56//77
f  40//77 43//77 41//78
f  42//79 56//79 34//79
f  56//79 42//79 43//80
f  56//77 22//81 57//81
f  22//81 56//77 40//77
f  34//79 57//82 20//82
f  57//82 34//79 56//79
f  49//83 20//83 45//83
f  20//84 49//44 19//44

