# {"id":"BLDG_000300090014bc37","idOriginal":"BLDG_000300090014bc37","origin":[13.359904974058718,52.54945100930975],"elevation":36.4500007629395}
# Longitude: 13.359904974058718
# Latitude: 52.54945100930975
# Elevation: 36.4500007629395

# File produced by Open Asset Import Library (http://www.assimp.sf.net)
# (assimp v3.1.0)

mtllib BLDG_000300090014bc37.obj.mtl

# 26 vertex positions
v  16.3068 -6.38986e-16 10.4354
v  13.5504 18.4309 13.2763
v  13.55 -8.12973e-16 13.2769
v  20.1755 -3.94826e-16 6.448
v  22.5425 -2.45444e-16 4.0084
v  28.5336 1.32671e-16 -2.16669
v  28.5341 21.3815 -2.16737
v  20.176 20.7 6.44735
v  22.5429 21.3815 4.00773
v  16.3073 21.3 10.4348
v  6.6142 20.7 -6.84093
v  0.000392765 18.4309 -0.00058397
v  2.75242 21.3 -2.84689
v  8.97695 18.4309 -9.28458
v  8.97655 5.68481e-16 -9.284
v  6.61376 4.18846e-16 -6.84028
v  2.75196 1.7428e-16 -2.84622
v  0 0 0
v  9.38976 -5.63365e-16 9.20044
v  9.39015 18.4309 9.19986
v  18.3826 18.4309 -0.0685923
v  24.3528 3.80984e-16 -6.22195
v  18.3822 4.16431e-18 -0.0680083
v  24.3532 18.4309 -6.22253
v  16.0156 20.7 2.37097
v  12.147 21.3 6.35832

# 0 UV coordinates

# 45 vertex normals
vn 0.717713 6.75056e-06 0.696338
vn 0.717714 6.74293e-06 0.696338
vn 0.717714 6.88056e-06 0.696338
vn 0.717714 6.83186e-06 0.696338
vn 0.717714 6.76576e-06 0.696338
vn 0.717714 6.25019e-06 0.696338
vn 0.717714 7.80708e-06 0.696338
vn 0.717714 6.92532e-06 0.696338
vn -0.71891 -6.76912e-06 -0.695103
vn -0.71891 -6.6393e-06 -0.695103
vn -0.71891 -6.69929e-06 -0.695103
vn -0.71891 -6.63685e-06 -0.695103
vn -0.71891 -6.72435e-06 -0.695103
vn -0.71891 -6.70377e-06 -0.695103
vn -0.69987 3.75386e-05 0.714271
vn -0.69987 3.75342e-05 0.71427
vn -0.69987 3.75246e-05 0.714271
vn -0.69987 3.75454e-05 0.71427
vn -0.717714 -6.76258e-06 -0.696338
vn -0.717714 -6.75047e-06 -0.696339
vn 0.696246 -3.75847e-05 -0.717803
vn 0.696246 -3.75783e-05 -0.717803
vn 0.69987 -3.75338e-05 -0.71427
vn 0.388575 0.831707 -0.396576
vn 0.388578 0.831707 -0.396574
vn 0.388578 0.831707 -0.396574
vn 0.0751482 0.994219 -0.0766932
vn 0.0751482 0.994219 -0.0766956
vn 0.0751488 0.994219 -0.0766951
vn 0.0751488 0.994219 -0.0766951
vn -0.410685 0.809731 0.419135
vn -0.410685 0.809734 0.419128
vn -0.410681 0.809734 0.419132
vn -0.410681 0.809734 0.419132
vn -0.324338 0.892066 -0.314679
vn -0.324338 0.892066 -0.314679
vn -0.442318 0.877794 -0.183937
vn 0 -1 -6.12323e-17
vn 0 -1 -6.12323e-17
vn 8.48033e-24 -1 -6.12323e-17
vn 1.3088e-23 -1 -6.12323e-17
vn 4.9811e-24 -1 -6.12323e-17
vn -2.25226e-23 -1 -6.12323e-17
vn 1.85037e-17 -1 -3.70074e-17
vn -0.894427 0 -0.447214

# Mesh 'defaultobject' with 48 faces
g defaultobject
usemtl DefaultMaterial
f  1//1 2//1 3//1
f  2//1 1//1 4//2
f  2//1 4//2 5//3
f  2//1 5//3 6//4
f  2//1 6//4 7//5
f  2//1 7//5 8//6
f  8//6 7//5 9//7
f  10//8 2//1 8//6
f  11//9 12//9 13//9
f  12//9 11//9 14//10
f  12//9 14//10 15//11
f  12//9 15//11 16//12
f  12//9 16//12 17//13
f  12//9 17//13 18//14
f  2//15 19//15 3//15
f  19//15 2//15 18//16
f  18//16 2//15 20//17
f  18//16 20//17 12//18
f  21//19 22//19 23//19
f  22//19 21//19 24//20
f  22//21 7//21 6//21
f  7//21 22//21 24//22
f  15//23 21//23 23//23
f  21//23 15//23 14//23
f  21//24 25//24 8//24
f  25//24 21//24 11//25
f  11//25 21//24 14//26
f  8//27 26//27 10//27
f  26//27 8//27 25//28
f  26//27 25//28 13//29
f  13//29 25//28 11//30
f  10//31 20//31 2//31
f  20//31 10//31 26//32
f  20//31 26//32 12//33
f  12//33 26//32 13//34
f  24//35 9//35 7//35
f  9//35 24//35 21//36
f  8//37 9//37 21//37
f  5//38 22//38 6//38
f  22//38 5//38 4//39
f  22//38 4//39 23//40
f  23//40 4//39 1//41
f  23//40 1//41 3//39
f  23//40 3//39 15//42
f  15//42 3//39 19//43
f  15//42 19//43 18//38
f  15//42 18//38 16//44
f  16//45 18//45 17//45

