# {"id":"BLDG_0003000e0014353b","idOriginal":"BLDG_0003000e0014353b","origin":[13.379913908409014,52.526103596650444],"elevation":32.2599983215332}
# Longitude: 13.379913908409014
# Latitude: 52.526103596650444
# Elevation: 32.2599983215332

# File produced by Open Asset Import Library (http://www.assimp.sf.net)
# (assimp v3.1.0)

mtllib BLDG_0003000e0014353b.obj.mtl

# 8 vertex positions
v  0.916474 -7.15624e-16 11.687
v  6.90898 3.31747e-17 -0.541784
v  7.82545 -6.82449e-16 11.1452
v  0 0 0
v  6.9091 5.59257 -0.541961
v  0.916593 5.59257 11.6869
v  7.82557 5.59257 11.1451
v  0.000119324 5.59257 -0.00017692

# 0 UV coordinates

# 11 vertex normals
vn 1.07519e-23 -1 -6.12323e-17
vn -9.77443e-25 -1 -6.12323e-17
vn 0 1 -0
vn 0.0781773 2.97796e-05 0.996939
vn 0.0781775 2.99518e-05 0.996939
vn -0.996939 2.3744e-05 0.0781781
vn -0.996939 2.37379e-05 0.0781781
vn -0.0781774 -2.98692e-05 -0.996939
vn -0.0781774 -2.98699e-05 -0.996939
vn 0.996939 -2.38123e-05 -0.078178
vn 0.996939 -2.3725e-05 -0.0781781

# Mesh 'defaultobject' with 12 faces
g defaultobject
usemtl DefaultMaterial
f  1//1 2//1 3//1
f  2//1 1//1 4//2
f  5//3 6//3 7//3
f  6//3 5//3 8//3
f  3//4 6//4 1//4
f  6//4 3//4 7//5
f  4//6 6//6 8//6
f  6//6 4//6 1//7
f  2//8 8//8 5//8
f  8//8 2//8 4//9
f  2//10 7//10 3//10
f  7//10 2//10 5//11

