# {"id":"BLDG_0003000e005591d9","idOriginal":"BLDG_0003000e005591d9","origin":[13.400278288939768,52.52790848111759],"elevation":36.0299987792969}
# Longitude: 13.400278288939768
# Latitude: 52.52790848111759
# Elevation: 36.0299987792969

# File produced by Open Asset Import Library (http://www.assimp.sf.net)
# (assimp v3.1.0)

mtllib BLDG_0003000e005591d9.obj.mtl

# 10 vertex positions
v  10.6105 19.6353 12.1719
v  6.89029 15.4954 19.564
v  18.2959 15.4954 16.0399
v  5.70322 19.6353 -1.76267
v  0.000331042 15.4954 -0.000490231
v  11.4059 15.4954 -3.52458
v  6.88995 -1.19798e-15 19.5645
v  11.4056 2.15788e-16 -3.52409
v  18.2955 -9.8219e-16 16.0404
v  0 0 0

# 0 UV coordinates

# 15 vertex normals
vn 0.16833 0.821501 0.544795
vn -0.537828 0.821503 0.189405
vn -0.537828 0.821503 0.189405
vn 0.537843 0.821491 -0.189411
vn 0.537843 0.821491 -0.189411
vn -1.36936e-23 -1 -6.12323e-17
vn -1.7117e-24 -1 -6.12323e-17
vn 0.295209 2.39014e-05 0.955433
vn -0.943219 3.06518e-05 0.332171
vn -0.943219 3.06598e-05 0.332171
vn -0.295209 -2.39204e-05 -0.955433
vn -0.295209 -2.39201e-05 -0.955433
vn -0.295209 -2.39285e-05 -0.955433
vn 0.943219 -3.07162e-05 -0.332171
vn 0.943219 -3.06687e-05 -0.332171

# Mesh 'defaultobject' with 16 faces
g defaultobject
usemtl DefaultMaterial
f  1//1 2//1 3//1
f  4//2 2//2 1//2
f  2//2 4//2 5//3
f  6//4 1//4 3//4
f  1//4 6//4 4//5
f  7//6 8//6 9//6
f  8//6 7//6 10//7
f  9//8 2//8 7//8
f  2//8 9//8 3//8
f  2//9 10//9 7//9
f  10//9 2//9 5//10
f  5//11 8//11 10//11
f  8//11 5//11 6//12
f  6//12 5//11 4//13
f  8//14 3//14 9//14
f  3//14 8//14 6//15

