# {"id":"BLDG_0003000f000b447b","idOriginal":"BLDG_0003000f000b447b","origin":[13.35163141870774,52.5302248005072],"elevation":35.5800018310547}
# Longitude: 13.35163141870774
# Latitude: 52.5302248005072
# Elevation: 35.5800018310547

# File produced by Open Asset Import Library (http://www.assimp.sf.net)
# (assimp v3.1.0)

mtllib BLDG_0003000f000b447b.obj.mtl

# 8 vertex positions
v  1.32643 2.67364 2.58904
v  6.04914 2.67364 -2.96825
v  5.6943e-05 2.67364 -8.46097e-05
v  7.28366 2.67364 -0.170315
v  1.32637 -1.58538e-16 2.58913
v  6.04909 1.81748e-16 -2.96817
v  7.2836 1.04236e-17 -0.17023
v  0 0 0

# 0 UV coordinates

# 9 vertex normals
vn 0 1 0
vn 0 -1 -6.12323e-17
vn -0.890011 3.3402e-05 0.455939
vn -0.890011 3.33841e-05 0.455939
vn 0.420297 1.97764e-05 0.907387
vn 0.420297 1.96678e-05 0.907387
vn 0.914902 -3.23667e-05 -0.403676
vn -0.440507 -1.90282e-05 -0.897749
vn -0.440508 -1.89922e-05 -0.897749

# Mesh 'defaultobject' with 12 faces
g defaultobject
usemtl DefaultMaterial
f  1//1 2//1 3//1
f  2//1 1//1 4//1
f  5//2 6//2 7//2
f  6//2 5//2 8//2
f  1//3 8//3 5//3
f  8//3 1//3 3//4
f  7//5 1//5 5//5
f  1//5 7//5 4//6
f  6//7 4//7 7//7
f  4//7 6//7 2//7
f  3//8 6//8 8//8
f  6//8 3//8 2//9

