# {"id":"BLDG_0003000e00533dd9","idOriginal":"BLDG_0003000e00533dd9","origin":[13.407158348015823,52.533694218240484],"elevation":50.439998626709}
# Longitude: 13.407158348015823
# Latitude: 52.533694218240484
# Elevation: 50.439998626709

# File produced by Open Asset Import Library (http://www.assimp.sf.net)
# (assimp v3.1.0)

mtllib BLDG_0003000e00533dd9.obj.mtl

# 10 vertex positions
v  7.95978 7.87674e-16 -12.8637
v  12.0773 -4.46116e-16 7.28563
v  0 0 0
v  20.037 3.41558e-16 -5.57807
v  12.0777 19.2464 7.28502
v  0.000411361 19.2464 -0.00060913
v  6.03913 23.4116 3.64207
v  7.9602 19.2464 -12.8643
v  20.0374 19.2464 -5.57868
v  13.9989 23.4116 -9.22162

# 0 UV coordinates

# 15 vertex normals
vn 0 -1 -6.12323e-17
vn -0.516542 3.81433e-05 0.856262
vn -0.516542 3.81402e-05 0.856262
vn -0.516542 3.80502e-05 0.856262
vn -0.850367 1.52186e-06 -0.526189
vn -0.850367 1.52114e-06 -0.526189
vn 0.516542 -3.81561e-05 -0.856262
vn 0.516542 -3.80965e-05 -0.856262
vn 0.516542 -3.81801e-05 -0.856262
vn 0.850367 -1.49368e-06 0.526189
vn 0.850367 -1.46747e-06 0.526189
vn -0.432469 0.861022 -0.267603
vn -0.432469 0.861022 -0.267603
vn 0.43247 0.861022 0.267603
vn 0.43247 0.861022 0.267603

# Mesh 'defaultobject' with 16 faces
g defaultobject
usemtl DefaultMaterial
f  1//1 2//1 3//1
f  2//1 1//1 4//1
f  5//2 3//2 2//2
f  3//2 5//2 6//3
f  6//3 5//2 7//4
f  6//5 1//5 3//5
f  1//5 6//5 8//6
f  8//7 4//7 1//7
f  4//7 8//7 9//8
f  9//8 8//7 10//9
f  4//10 5//10 2//10
f  5//10 4//10 9//11
f  8//12 7//12 10//12
f  7//12 8//12 6//13
f  10//14 5//14 9//14
f  5//14 10//14 7//15

