# {"id":"BLDG_000300000043a360","idOriginal":"BLDG_000300000043a360","origin":[13.344560152439396,52.53056391085301],"elevation":33.7299995422363}
# Longitude: 13.344560152439396
# Latitude: 52.53056391085301
# Elevation: 33.7299995422363

# File produced by Open Asset Import Library (http://www.assimp.sf.net)
# (assimp v3.1.0)

mtllib BLDG_000300000043a360.obj.mtl

# 12 vertex positions
v  12.3095 20.6158 0.45759
v  6.15451 -1.40296e-17 0.229121
v  12.309 -2.80592e-17 0.458242
v  0 0 0
v  0.000438873 20.6158 -0.000652391
v  6.15499 22.7752 0.2284
v  0.276805 20.6158 -16.3703
v  6.43087 9.88323e-16 -16.1405
v  0.276366 1.00235e-15 -16.3697
v  12.5854 9.74294e-16 -15.9114
v  12.5858 20.6158 -15.9121
v  6.43136 22.7752 -16.1413

# 0 UV coordinates

# 18 vertex normals
vn -0.0372024 3.24155e-05 0.999308
vn -0.0372024 3.24152e-05 0.999308
vn -0.0372024 3.24152e-05 0.999308
vn -0.0372024 3.24221e-05 0.999308
vn 0.0372026 -3.24115e-05 -0.999308
vn 0.0372024 -3.24575e-05 -0.999308
vn 0.0372025 -3.24111e-05 -0.999308
vn 0.0372025 -3.23504e-05 -0.999308
vn -0.999857 2.0751e-05 -0.0168804
vn -0.999857 2.07508e-05 -0.0168804
vn 0.999857 -2.07421e-05 0.0168804
vn -0.330878 0.943657 -0.00558615
vn -0.330878 0.943657 -0.00558615
vn 0.330882 0.943655 0.00558623
vn 0.330882 0.943656 0.00558623
vn 0 -1 -6.12323e-17
vn 6.30167e-24 -1 -6.12323e-17
vn 2.31296e-18 1 0

# Mesh 'defaultobject' with 20 faces
g defaultobject
usemtl DefaultMaterial
f  1//1 2//1 3//1
f  2//1 1//1 4//2
f  4//2 1//1 5//3
f  5//3 1//1 6//4
f  7//5 8//5 9//5
f  8//5 7//5 10//6
f  10//6 7//5 11//7
f  11//7 7//5 12//8
f  5//9 9//9 4//9
f  9//9 5//9 7//10
f  10//11 1//11 3//11
f  1//11 10//11 11//11
f  12//12 5//12 6//12
f  5//12 12//12 7//13
f  11//14 6//14 1//14
f  6//14 11//14 12//15
f  2//16 10//16 3//16
f  10//16 2//16 4//16
f  10//16 4//16 9//17
f  10//18 9//18 8//18

