# {"id":"BLDG_0003000b0049871c","idOriginal":"BLDG_0003000b0049871c","origin":[13.337857997007436,52.52877625580485],"elevation":34.3300018310547}
# Longitude: 13.337857997007436
# Latitude: 52.52877625580485
# Elevation: 34.3300018310547

# File produced by Open Asset Import Library (http://www.assimp.sf.net)
# (assimp v3.1.0)

mtllib BLDG_0003000b0049871c.obj.mtl

# 12 vertex positions
v  5.46501 13.9628 -31.7097
v  5.87659 16.4363 1.01174
v  11.3413 16.4363 -30.6976
v  0.000297113 13.9628 -0.0004418
v  11.7528 13.9628 2.02408
v  17.2175 13.9628 -29.6852
v  5.87624 -6.19833e-17 1.01226
v  11.7525 -1.23967e-16 2.02453
v  0 0 0
v  11.341 1.87965e-15 -30.697
v  5.46471 1.94163e-15 -31.7093
v  17.2172 1.81767e-15 -29.6848

# 0 UV coordinates

# 20 vertex normals
vn -0.377597 0.92368 -0.0650743
vn -0.377597 0.92368 -0.0650743
vn 0.377602 0.923679 0.065075
vn 0.377601 0.923679 0.065075
vn -0.169763 3.47989e-05 0.985485
vn -0.169763 3.4799e-05 0.985485
vn -0.169763 3.47944e-05 0.985485
vn -0.169763 3.47871e-05 0.985485
vn 0.169764 -3.48436e-05 -0.985485
vn 0.169763 -3.49708e-05 -0.985485
vn 0.169764 -3.47148e-05 -0.985485
vn 0.169764 -3.48194e-05 -0.985485
vn -0.985473 1.5596e-05 -0.169834
vn -0.985473 1.55844e-05 -0.169834
vn 0.985473 -1.5623e-05 0.169834
vn 0.985473 -1.5623e-05 0.169834
vn 1.10369e-24 -1 -6.12323e-17
vn -1.76591e-23 -1 -6.12324e-17
vn 1.21406e-23 -1 -6.12323e-17
vn -3.31108e-24 -1 -6.12323e-17

# Mesh 'defaultobject' with 20 faces
g defaultobject
usemtl DefaultMaterial
f  1//1 2//1 3//1
f  2//1 1//1 4//2
f  3//3 5//3 6//3
f  5//3 3//3 2//4
f  5//5 7//5 8//5
f  7//5 5//5 9//6
f  9//6 5//5 4//7
f  4//7 5//5 2//8
f  1//9 10//9 11//9
f  10//9 1//9 12//10
f  12//10 1//9 6//11
f  6//11 1//9 3//12
f  4//13 11//13 9//13
f  11//13 4//13 1//14
f  12//15 5//15 8//15
f  5//15 12//15 6//16
f  7//17 12//17 8//17
f  12//17 7//17 9//18
f  12//17 9//18 10//19
f  10//19 9//18 11//20

