# {"id":"BLDG_0003000b002ed374","idOriginal":"BLDG_0003000b002ed374","origin":[13.353294614123273,52.534123419768676],"elevation":34.8400001525879}
# Longitude: 13.353294614123273
# Latitude: 52.534123419768676
# Elevation: 34.8400001525879

# File produced by Open Asset Import Library (http://www.assimp.sf.net)
# (assimp v3.1.0)

mtllib BLDG_0003000b002ed374.obj.mtl

# 12 vertex positions
v  2.59789 -2.0163e-16 3.29287
v  17.7969 2.02662e-16 -3.30972
v  5.19579 -4.03261e-16 6.58575
v  0 0 0
v  15.199 4.04292e-16 -6.6026
v  12.6011 6.05923e-16 -9.89547
v  5.19618 18.6323 6.58516
v  0.000396873 18.6323 -0.00058975
v  2.59832 19.8526 3.29225
v  12.6015 18.6323 -9.89606
v  17.7973 18.6323 -3.31031
v  15.1994 19.8526 -6.60322

# 0 UV coordinates

# 17 vertex normals
vn 1.57555e-24 -1 -6.12323e-17
vn 3.1511e-24 -1 -6.12323e-17
vn 0 -1 -6.12323e-17
vn -0.785085 3.63246e-05 0.619388
vn -0.785085 3.63291e-05 0.619388
vn -0.785085 3.63274e-05 0.619388
vn -0.785085 3.63341e-05 0.619388
vn 0.785085 -3.63088e-05 -0.619388
vn 0.785085 -3.63047e-05 -0.619388
vn 0.785085 -3.63246e-05 -0.619388
vn 0.785085 -3.63341e-05 -0.619388
vn -0.617612 -1.17385e-05 -0.786483
vn -0.617612 -1.17273e-05 -0.786483
vn 0.617612 1.17305e-05 0.786483
vn -0.172535 0.960187 -0.219711
vn 0.172534 0.960187 0.219709
vn 0.172534 0.960187 0.219709

# Mesh 'defaultobject' with 20 faces
g defaultobject
usemtl DefaultMaterial
f  1//1 2//1 3//1
f  2//1 1//1 4//1
f  2//1 4//1 5//2
f  5//2 4//1 6//3
f  7//4 1//4 3//4
f  1//4 7//4 4//5
f  4//5 7//4 8//6
f  8//6 7//4 9//7
f  10//8 5//8 6//8
f  5//8 10//8 2//9
f  2//9 10//8 11//10
f  11//10 10//8 12//11
f  8//12 6//12 4//12
f  6//12 8//12 10//13
f  2//14 7//14 3//14
f  7//14 2//14 11//14
f  10//15 9//15 12//15
f  9//15 10//15 8//15
f  12//16 7//16 11//16
f  7//16 12//16 9//17

