# {"id":"BLDG_0003000600080245","idOriginal":"BLDG_0003000600080245","origin":[13.385405637461714,52.524031052135804],"elevation":33.0699996948242}
# Longitude: 13.385405637461714
# Latitude: 52.524031052135804
# Elevation: 33.0699996948242

# File produced by Open Asset Import Library (http://www.assimp.sf.net)
# (assimp v3.1.0)

mtllib BLDG_0003000600080245.obj.mtl

# 56 vertex positions
v  7.8843 9.53 16.1668
v  16.7284 9.53 11.3132
v  7.263 9.53 13.6525
v  26.15 9.53 11.6533
v  20.689 9.53 10.3345
v  25.5284 9.53 9.1378
v  24.831 9.53 6.31528
v  19.9913 9.53 7.51118
v  0.000207672 9.73 -0.000307759
v  1.3362 9.73 5.40623
v  13.13 9.73 -3.24475
v  14.4662 9.73 2.16085
v  17.0916 9.73 -4.22367
v  16.7284 9.73 11.3132
v  20.689 9.73 10.3345
v  3.02699 6.73 -3.4837
v  3.66406 6.73 -0.905585
v  16.4544 6.73 -6.80168
v  17.0915 6.73 -4.22357
v  17.4105 6.73 -7.03794
v  19.9913 6.73 7.51127
v  20.9473 6.73 7.27501
v  2.25952 3.83 -6.58704
v  3.02664 3.83 -3.48353
v  16.6433 3.83 -10.1424
v  17.4105 3.83 -7.03785
v  20.5236 3.83 -11.1015
v  20.9473 3.83 7.2751
v  24.8288 3.83 6.31596
v  3.59709 13.23 14.5585
v  14.4662 13.23 2.16074
v  1.33492 13.23 5.40645
v  16.7284 13.23 11.3128
v  3.59701 9.53 14.5587
v  1.33599 -3.31055e-16 5.40653
v  3.59681 -8.9148e-16 14.559
v  3.59701 9.73 14.5587
v  0 0 0
v  0.000143642 6.73 -0.00021287
v  26.1498 -7.13576e-16 11.6536
v  20.5235 6.79763e-16 -11.1014
v  24.8309 6.73 6.31537
v  26.1499 3.83 11.6535
v  26.15 6.73 11.6534
v  21.3102 -7.86804e-16 12.8495
v  7.88424 6.73 16.1669
v  7.8841 -9.89951e-16 16.1671
v  22.2663 -7.72337e-16 12.6132
v  7.26229 -8.36002e-16 13.653
v  17.0916 9.53 -4.22366
v  3.664 3.83 -0.905493
v  3.66392 5.54381e-17 -0.905372
v  2.25944 4.03332e-16 -6.58692
v  11.7253 5.466e-16 -8.92666
v  16.6432 6.21034e-16 -10.1422
v  7.69048 -9.41973e-16 15.3836

# 0 UV coordinates

# 82 vertex normals
vn 0 1 0
vn -0.97082 2.83007e-05 0.23981
vn -0.97082 2.73128e-05 0.23981
vn -0.97082 2.83822e-05 0.23981
vn -0.970784 -7.73256e-05 0.239954
vn -0.239878 -2.5567e-05 -0.970803
vn -0.9708 2.83021e-05 0.239891
vn -0.9708 2.8308e-05 0.239891
vn -0.324324 -2.39192e-05 -0.945946
vn 0.970766 -2.83785e-05 -0.240028
vn 0.970784 0.000422098 -0.239956
vn 0.970587 -0.000750191 -0.240749
vn 0.9708 -2.87726e-05 -0.239892
vn 0.9708 -2.80602e-05 -0.239891
vn 0.9708 -2.83749e-05 -0.239892
vn 0.9708 -2.80054e-05 -0.239891
vn 0.9708 -2.87605e-05 -0.239892
vn 0.23989 2.54108e-05 0.9708
vn 0.23989 2.59747e-05 0.9708
vn 0.23989 2.56145e-05 0.9708
vn 0.239889 2.56567e-05 0.9708
vn 0.23989 2.5561e-05 0.9708
vn 0.23989 2.55627e-05 0.9708
vn -0.139259 -2.83315e-05 -0.990256
vn 0.239952 2.55823e-05 0.970785
vn 0.239952 2.55853e-05 0.970785
vn 0.239952 2.72546e-05 0.970785
vn 0.239927 -0.000473406 0.970791
vn 0.239888 -0.00305288 0.970796
vn 0.239923 2.81668e-05 0.970792
vn 0.239934 2.56232e-05 0.970789
vn 0.239952 9.93505e-05 0.970785
vn -0.23989 -2.56669e-05 -0.9708
vn -0.23989 -2.56057e-05 -0.9708
vn -0.23989 -2.55863e-05 -0.9708
vn -0.23989 -2.55576e-05 -0.9708
vn -0.239889 -2.55215e-05 -0.9708
vn -0.239889 -2.55139e-05 -0.9708
vn -0.23989 -2.55822e-05 -0.9708
vn -0.23989 -2.54971e-05 -0.9708
vn -0.23989 -2.55215e-05 -0.9708
vn -0.23989 -2.5607e-05 -0.9708
vn -0.23989 -2.55864e-05 -0.9708
vn -0.239889 -2.55215e-05 -0.9708
vn 0.9708 -2.86278e-05 -0.239891
vn 0.9708 -2.64385e-05 -0.239891
vn 0.9708 -2.5756e-05 -0.239891
vn 0.9708 -2.59518e-05 -0.239891
vn -0.970784 2.83162e-05 0.239956
vn -0.970779 1.04503e-05 0.239977
vn -0.970772 2.8334e-05 0.240002
vn -0.336098 -2.2606e-05 -0.941827
vn -0.9708 0.00013301 0.239891
vn -0.239955 -2.55758e-05 -0.970784
vn -0.239955 -2.55611e-05 -0.970784
vn -0.239955 -2.55591e-05 -0.970784
vn -0.239955 -2.55608e-05 -0.970784
vn -0.239955 -2.55608e-05 -0.970784
vn -0.9708 2.83401e-05 0.239891
vn -0.970785 8.37392e-05 0.239949
vn -0.970729 -7.22809e-06 0.240179
vn -0.9708 2.83192e-05 0.239891
vn -0.23989 -2.55992e-05 -0.9708
vn -0.23989 -2.54856e-05 -0.9708
vn -0.23989 -2.54879e-05 -0.9708
vn -0.239952 -2.5585e-05 -0.970785
vn -0.239952 -2.55955e-05 -0.970785
vn 0.970784 -2.8497e-05 -0.239954
vn 0.970784 -2.84978e-05 -0.239954
vn 0.9708 -2.80151e-05 -0.239891
vn 0 -1 -6.12323e-17
vn 8.02478e-24 -1 -6.12323e-17
vn -2.77947e-24 -1 -6.12323e-17
vn 0 -1 -6.12323e-17
vn -7.97606e-25 -1 -6.12323e-17
vn -1.20399e-23 -1 -6.12323e-17
vn 4.09068e-24 -1 -6.12323e-17
vn 0 -1 -6.12324e-17
vn 7.02312e-24 -1 -6.12323e-17
vn 3.22074e-24 -1 -6.12323e-17
vn 2.13421e-23 -1 -6.12322e-17
vn -8.92331e-24 -1 -6.12323e-17

# Mesh 'defaultobject' with 108 faces
g defaultobject
usemtl DefaultMaterial
f  1//1 2//1 3//1
f  2//1 1//1 4//1
f  2//1 4//1 5//1
f  5//1 4//1 6//1
f  5//1 6//1 7//1
f  7//1 8//1 5//1
f  9//1 10//1 11//1
f  12//1 11//1 10//1
f  13//1 11//1 12//1
f  14//1 13//1 12//1
f  15//1 13//1 14//1
f  16//1 17//1 18//1
f  19//1 18//1 17//1
f  20//1 18//1 19//1
f  21//1 20//1 19//1
f  22//1 20//1 21//1
f  23//1 24//1 25//1
f  26//1 25//1 24//1
f  27//1 25//1 26//1
f  28//1 27//1 26//1
f  29//1 27//1 28//1
f  30//1 31//1 32//1
f  31//1 30//1 33//1
f  34//2 35//2 36//2
f  35//2 34//2 37//3
f  35//2 37//3 30//4
f  35//5 30//5 32//5
f  35//6 32//6 10//6
f  10//7 38//7 35//7
f  38//7 10//7 9//8
f  38//9 9//9 39//9
f  27//10 40//10 41//10
f  40//11 27//11 29//11
f  40//12 29//12 42//12
f  40//13 42//13 7//13
f  40//13 7//13 6//14
f  40//13 6//14 43//15
f  43//15 6//14 44//16
f  44//16 6//14 4//17
f  45//18 46//18 47//18
f  46//18 45//18 1//19
f  1//19 45//18 4//20
f  4//20 45//18 48//21
f  4//20 48//21 43//22
f  43//22 48//21 40//23
f  4//24 43//24 44//24
f  49//25 34//25 36//25
f  34//25 49//25 3//26
f  34//25 3//26 37//27
f  37//28 3//28 2//28
f  37//29 2//29 5//29
f  37//30 5//30 15//30
f  37//1 15//1 14//1
f  14//31 30//31 37//31
f  30//32 14//32 33//32
f  11//33 39//33 9//33
f  39//33 11//33 17//34
f  39//33 17//34 38//35
f  17//34 11//33 19//36
f  19//36 11//33 50//37
f  50//37 11//33 13//38
f  38//35 51//39 52//39
f  51//39 38//35 17//34
f  28//40 42//40 29//40
f  42//40 28//40 7//41
f  7//41 28//40 22//42
f  7//41 22//42 8//43
f  8//43 22//42 21//44
f  19//45 8//45 21//45
f  8//45 15//46 5//46
f  15//46 8//45 13//47
f  13//47 8//45 50//48
f  50//48 8//45 19//45
f  53//49 24//49 23//49
f  24//50 53//50 52//50
f  24//51 52//51 17//51
f  17//52 52//52 51//52
f  17//53 16//53 24//53
f  23//54 54//54 53//54
f  54//54 23//54 25//55
f  54//54 25//55 55//56
f  55//56 25//55 41//57
f  41//57 25//55 27//58
f  3//59 46//59 1//59
f  46//60 3//60 49//60
f  46//61 49//61 56//61
f  46//59 56//62 47//62
f  26//63 18//63 20//63
f  18//63 26//63 24//64
f  18//63 24//64 16//65
f  12//66 32//66 31//66
f  32//66 12//66 10//67
f  12//68 33//68 14//68
f  33//68 12//68 31//69
f  26//70 22//70 28//70
f  22//70 26//70 20//70
f  40//71 55//71 41//71
f  55//71 40//71 54//72
f  54//72 40//71 53//73
f  53//73 40//71 52//74
f  52//74 40//71 38//75
f  38//75 40//71 48//76
f  38//75 48//76 35//77
f  35//77 48//76 45//78
f  35//77 45//78 49//79
f  49//79 45//78 56//80
f  56//80 45//78 47//81
f  36//82 35//77 49//79

