# {"id":"BLDG_0003000900264de9","idOriginal":"BLDG_0003000900264de9","origin":[13.355964498844738,52.54120797719638],"elevation":35.7700004577637}
# Longitude: 13.355964498844738
# Latitude: 52.54120797719638
# Elevation: 35.7700004577637

# File produced by Open Asset Import Library (http://www.assimp.sf.net)
# (assimp v3.1.0)

mtllib BLDG_0003000900264de9.obj.mtl

# 46 vertex positions
v  20.2743 21.69 3.47777
v  16.7341 17.22 -6.13794
v  18.0018 21.69 -2.69495
v  21.1238 17.22 5.78584
v  16.7337 -4.57764e-07 -6.13739
v  21.1235 -4.57764e-07 5.78638
v  18.0013 -4.57764e-07 -2.69426
v  20.2738 -4.57764e-07 3.47845
v  32.8155 18.3417 37.5431
v  29.4322 21.5258 28.353
v  31.5061 22.2271 33.9862
v  28.2069 18.3417 25.0251
v  28.2065 -1.53238e-15 25.0257
v  32.8151 -2.29889e-15 37.5437
v  29.4317 -1.73616e-15 28.3536
v  31.5056 -2.0811e-15 33.9869
v  0.000366861 17.22 -0.00054531
v  3.5541 21.69 9.61021
v  1.2729 21.69 3.44066
v  4.40701 21.69 11.9169
v  4.40655 -7.29744e-16 11.9176
v  0 -4.57764e-07 -2.80299e-23
v  1.27244 -4.57764e-07 3.44135
v  3.55364 -4.57764e-07 9.61089
v  6.06067 17.22 -2.22327
v  6.0603 -4.57764e-07 -2.22273
v  11.5247 -1.90854e-15 31.1689
v  12.7546 -2.11222e-15 34.4951
v  14.8364 -2.45698e-15 40.1255
v  16.1509 -2.67465e-15 43.6804
v  16.1513 18.3417 43.6798
v  4.40701 21.6944 11.9169
v  11.5252 21.6944 31.1682
v  12.755 21.5258 34.4944
v  14.8369 22.2271 40.1248
v  22.2082 -2.53807e-15 41.4498
v  22.2086 18.3417 41.4492
v  10.4672 17.22 9.69436
v  10.4669 -5.93641e-16 9.6949
v  17.5825 18.3417 28.9376
v  17.5821 -1.77195e-15 28.9382
v  10.4672 18.3417 9.69432
v  7.3332 21.69 1.21793
v  9.6144 21.69 7.38748
v  18.8124 21.5258 32.2637
v  20.8943 22.2271 37.8941

# 0 UV coordinates

# 72 vertex normals
vn 0.938424 -3.09431e-05 -0.345485
vn 0.938424 -3.1097e-05 -0.345485
vn 0.938424 -3.08919e-05 -0.345485
vn 0.938424 -3.08941e-05 -0.345485
vn 0 1 0
vn 0.938424 -3.16034e-05 -0.345486
vn 0.938424 -3.09851e-05 -0.345485
vn 0.938424 -3.0963e-05 -0.345485
vn 0.938424 -3.08397e-05 -0.345485
vn 2.22045e-17 -1 -6.66134e-17
vn -5.55112e-17 -1 -3.70074e-17
vn -0.937938 3.0943e-05 0.346803
vn -0.937938 3.0883e-05 0.346803
vn -0.937938 3.098e-05 0.346803
vn -0.937938 3.09464e-05 0.346803
vn -0.37795 -0.915218 0.139747
vn -0.926394 0.156412 0.342535
vn -0.344339 -2.23922e-05 -0.938845
vn -0.344339 -2.24099e-05 -0.938845
vn -0.344339 -2.23892e-05 -0.938845
vn -0.344339 -2.23947e-05 -0.938845
vn -0.937938 3.09845e-05 0.346803
vn -0.937938 3.09463e-05 0.346803
vn -0.937938 3.09385e-05 0.346803
vn -0.937938 3.08113e-05 0.346803
vn -0.937938 3.09533e-05 0.346803
vn -0.937939 0 0.3468
vn -0.937938 3.08216e-05 0.346803
vn -0.937938 3.04674e-05 0.346803
vn -0.937938 3.11262e-05 0.346803
vn 0.345569 2.23345e-05 0.938393
vn 0.345569 2.22477e-05 0.938393
vn 0.345569 2.22985e-05 0.938393
vn 0.344339 2.24049e-05 0.938845
vn 0.344339 2.23854e-05 0.938845
vn -0.345569 -2.23961e-05 -0.938393
vn -0.344319 0 -0.938853
vn -0.344339 -2.21277e-05 -0.938845
vn 0.937938 -3.10196e-05 -0.346803
vn 0.937938 -3.09239e-05 -0.346803
vn 0.937938 -3.1163e-05 -0.346803
vn -4.28515e-24 -1 -6.12323e-17
vn -0 -1 0
vn -1.04649e-08 -1 8.85868e-08
vn 6.65146e-08 -1 -2.45938e-08
vn -4.90788e-07 -1 3.79916e-07
vn 1.27864e-23 -1 -6.12323e-17
vn 2.18563e-23 -1 -6.12324e-17
vn 1.91301e-24 -1 -6.12323e-17
vn -1.63945e-23 -1 -6.12323e-17
vn 7.57342e-24 -1 -6.12324e-17
vn -0.266162 0.634447 -0.725696
vn -0.266163 0.634446 -0.725697
vn -0.266163 0.634446 -0.725697
vn 0.301688 0.482064 0.822556
vn 0.301688 0.482063 0.822557
vn 0.301688 0.482063 0.822557
vn -0.230873 0.744076 -0.626936
vn -0.230873 0.744075 -0.626937
vn -0.230873 0.744075 -0.626937
vn -0.0400979 0.993245 -0.108886
vn -0.0400978 0.993245 -0.108886
vn -0.0400978 0.993245 -0.108886
vn -0.0400979 0.993245 -0.108886
vn 0.247364 0.698288 0.671718
vn 0.247364 0.698287 0.671718
vn 0.247364 0.698287 0.671719
vn 0.247364 0.698288 0.671718
vn 0.533983 0.822119 -0.197441
vn 0.432329 0.887434 -0.159854
vn 0.432329 0.887434 -0.159854
vn 0.446522 0.886668 -0.12016

# Mesh 'defaultobject' with 88 faces
g defaultobject
usemtl DefaultMaterial
f  1//1 2//1 3//1
f  2//1 1//1 4//2
f  2//1 4//2 5//3
f  5//3 4//2 6//4
f  5//3 6//4 7//4
f  7//4 6//5 8//5
f  9//6 10//6 11//6
f  10//6 9//6 12//7
f  12//7 9//6 13//8
f  13//8 9//6 14//9
f  13//10 14//10 15//10
f  15//10 14//10 16//11
f  17//12 18//12 19//12
f  18//12 17//12 20//13
f  20//13 17//12 21//14
f  21//14 17//12 22//15
f  21//16 22//16 23//16
f  21//17 23//17 24//17
f  5//18 25//18 2//18
f  25//18 5//18 17//19
f  17//19 5//18 26//20
f  17//19 26//20 22//21
f  27//22 20//13 21//14
f  20//13 27//22 28//23
f  20//13 28//23 29//24
f  20//13 29//24 30//25
f  20//13 30//25 31//26
f  20//27 31//27 32//27
f  32//28 31//26 33//28
f  33//28 31//26 34//29
f  34//29 31//26 35//30
f  9//31 36//31 14//31
f  36//31 9//31 30//32
f  30//32 9//31 31//33
f  31//5 9//5 37//5
f  6//34 38//34 39//34
f  38//34 6//34 4//35
f  40//36 13//36 41//36
f  13//36 40//36 12//36
f  42//37 20//37 32//37
f  20//38 42//38 38//38
f  39//39 40//39 41//39
f  40//39 39//39 38//40
f  40//39 38//40 42//41
f  15//10 41//42 13//10
f  41//42 15//10 16//11
f  7//27 26//43 5//43
f  26//43 7//27 8//43
f  26//43 8//43 22//43
f  22//43 8//43 6//43
f  22//43 6//43 23//43
f  23//43 6//43 39//44
f  23//43 39//44 24//45
f  24//45 39//44 41//42
f  24//45 41//42 21//46
f  21//46 41//42 27//47
f  27//47 41//42 16//11
f  27//47 16//11 14//10
f  27//47 14//10 28//48
f  28//48 14//10 36//49
f  28//48 36//49 29//50
f  29//50 36//49 30//51
f  2//52 43//52 3//52
f  43//52 2//52 25//53
f  43//52 25//53 19//54
f  19//54 25//53 17//54
f  3//5 44//5 1//5
f  44//5 3//5 43//5
f  44//5 43//5 18//5
f  18//5 43//5 19//5
f  1//55 38//55 4//55
f  38//55 1//55 44//56
f  38//55 44//56 18//57
f  12//58 45//58 10//58
f  45//58 12//58 40//59
f  45//58 40//59 34//60
f  10//61 46//61 11//61
f  46//61 10//61 45//62
f  46//61 45//62 35//63
f  35//63 45//62 34//64
f  11//65 37//65 9//65
f  37//65 11//65 46//66
f  37//65 46//66 31//67
f  31//67 46//66 35//68
f  18//69 20//69 38//69
f  42//70 33//70 40//70
f  33//70 42//70 32//71
f  34//72 40//72 33//72

