# {"id":"BLDG_0003000e008099e8","idOriginal":"BLDG_0003000e008099e8","origin":[13.362809837471179,52.526924398550726],"elevation":35.8499984741211}
# Longitude: 13.362809837471179
# Latitude: 52.526924398550726
# Elevation: 35.8499984741211

# File produced by Open Asset Import Library (http://www.assimp.sf.net)
# (assimp v3.1.0)

mtllib BLDG_0003000e008099e8.obj.mtl

# 8 vertex positions
v  1.06597 -1.79498e-16 2.93143
v  6.58503 1.46743e-16 -2.39649
v  7.65222 -3.27571e-17 0.534965
v  0 0 0
v  1.06603 3.05989 2.93133
v  7.65228 3.05989 0.534868
v  6.58509 3.05989 -2.39659
v  6.5215e-05 3.05989 -9.68091e-05

# 0 UV coordinates

# 10 vertex normals
vn 2.42123e-24 -1 -6.12323e-17
vn 0 -1 -6.12323e-17
vn 0.341928 2.24569e-05 0.939726
vn 0.939669 -3.08706e-05 -0.342085
vn 0.939669 -3.07457e-05 -0.342085
vn -0.341987 -2.24418e-05 -0.939705
vn -0.341987 -2.24792e-05 -0.939705
vn -0.939794 3.08382e-05 0.341742
vn -0.939794 3.08418e-05 0.341742
vn 0 1 0

# Mesh 'defaultobject' with 12 faces
g defaultobject
usemtl DefaultMaterial
f  1//1 2//1 3//1
f  2//1 1//1 4//2
f  3//3 5//3 1//3
f  5//3 3//3 6//3
f  2//4 6//4 3//4
f  6//4 2//4 7//5
f  8//6 2//6 4//6
f  2//6 8//6 7//7
f  5//8 4//8 1//8
f  4//8 5//8 8//9
f  6//10 8//10 5//10
f  8//10 6//10 7//10

