# {"id":"BLDG_000300000020514f","idOriginal":"BLDG_000300000020514f","origin":[13.395930510054123,52.539038979711634],"elevation":47.6300010681152}
# Longitude: 13.395930510054123
# Latitude: 52.539038979711634
# Elevation: 47.6300010681152

# File produced by Open Asset Import Library (http://www.assimp.sf.net)
# (assimp v3.1.0)

mtllib BLDG_000300000020514f.obj.mtl

# 11 vertex positions
v  22.4378 -1.15279e-15 18.8265
v  0 0 0
v  11.737 3.20312e-16 -5.2311
v  10.7008 -1.4731e-15 24.0576
v  11.7375 25.0599 -5.23189
v  17.0879 25.0599 6.7969
v  22.4383 25.0599 18.8257
v  10.7014 25.0599 24.0568
v  0.000535241 25.0599 -0.00079342
v  5.86902 25.0599 -2.61634
v  11.2194 25.0599 9.41245

# 0 UV coordinates

# 12 vertex normals
vn 0 -1 -6.12323e-17
vn 1.0014e-23 -1 -6.12323e-17
vn 0.913691 -3.23746e-05 -0.406411
vn 0.91369 -3.23755e-05 -0.406411
vn 0.913691 -3.23399e-05 -0.406411
vn 0.407092 2.02334e-05 0.913387
vn 0.407092 2.02452e-05 0.913387
vn -0.913691 3.23746e-05 0.406411
vn -0.913691 3.23824e-05 0.406411
vn -0.407092 -2.02239e-05 -0.913387
vn -0.407092 -2.0229e-05 -0.913387
vn 0 1 -0

# Mesh 'defaultobject' with 18 faces
g defaultobject
usemtl DefaultMaterial
f  1//1 2//1 3//1
f  2//1 1//1 4//2
f  5//3 1//3 3//3
f  1//3 5//3 6//4
f  1//3 6//4 7//5
f  1//6 8//6 4//6
f  8//6 1//6 7//7
f  8//8 2//8 4//8
f  2//8 8//8 9//9
f  9//10 3//10 2//10
f  3//10 9//10 5//11
f  5//3 9//10 10//8
f  5//12 11//12 6//12
f  11//12 7//12 6//12
f  7//12 11//12 8//12
f  9//12 11//12 10//8
f  11//12 9//12 8//12
f  11//12 5//12 10//8

