# {"id":"BLDG_0003000000191594","idOriginal":"BLDG_0003000000191594","origin":[13.399211849118794,52.535875796344705],"elevation":47.2400016784668}
# Longitude: 13.399211849118794
# Latitude: 52.535875796344705
# Elevation: 47.2400016784668

# File produced by Open Asset Import Library (http://www.assimp.sf.net)
# (assimp v3.1.0)

mtllib BLDG_0003000000191594.obj.mtl

# 8 vertex positions
v  16.9427 9.06725 12.0946
v  0 0 0
v  16.9425 -7.40598e-16 12.0949
v  0.000193702 9.06725 -0.00028702
v  3.04617 2.64255e-16 -4.31561
v  3.04634 7.64309 -4.31585
v  19.9888 7.64309 7.77904
v  19.9886 -4.76344e-16 7.77928

# 0 UV coordinates

# 12 vertex normals
vn -0.581019 3.81109e-05 0.81389
vn -0.581019 3.81755e-05 0.81389
vn -0.81698 -8.01095e-07 -0.576666
vn -0.81698 -7.83213e-07 -0.576666
vn 0.581019 -3.81701e-05 -0.81389
vn 0.581019 -3.80742e-05 -0.81389
vn 0.81698 8.95998e-07 0.576666
vn 0.81698 7.08634e-07 0.576666
vn -3.85155e-24 -1 -6.12323e-17
vn 0 -1 -6.12323e-17
vn 0.151249 0.965523 -0.211868
vn 0.151249 0.965523 -0.211868

# Mesh 'defaultobject' with 12 faces
g defaultobject
usemtl DefaultMaterial
f  1//1 2//1 3//1
f  2//1 1//1 4//2
f  4//3 5//3 2//3
f  5//3 4//3 6//4
f  5//5 7//5 8//5
f  7//5 5//5 6//6
f  8//7 1//7 3//7
f  1//7 8//7 7//8
f  2//9 8//9 3//9
f  8//9 2//9 5//10
f  7//11 4//11 1//11
f  4//11 7//11 6//12

