# {"id":"BLDG_00030009000dcaa2","idOriginal":"BLDG_00030009000dcaa2","origin":[13.390666510912377,52.55782972029129],"elevation":41.7099990844727}
# Longitude: 13.390666510912377
# Latitude: 52.55782972029129
# Elevation: 41.7099990844727

# File produced by Open Asset Import Library (http://www.assimp.sf.net)
# (assimp v3.1.0)

mtllib BLDG_00030009000dcaa2.obj.mtl

# 10 vertex positions
v  13.553 -4.07328e-16 6.65217
v  6.28579 7.64457e-16 -12.4845
v  19.8388 3.57129e-16 -5.83236
v  0 0 0
v  3.14333 20.4175 -6.24291
v  13.5534 17.2897 6.65162
v  16.6963 20.4175 0.409258
v  0.000369177 17.2897 -0.0005481
v  6.28616 17.2897 -12.4851
v  19.8392 17.2897 -5.83291

# 0 UV coordinates

# 14 vertex normals
vn 0 -1 -6.12323e-17
vn 0 -1 -6.12323e-17
vn -0.179995 0.912753 0.366719
vn 0.18 0.912748 -0.36673
vn 0.18 0.912748 -0.36673
vn 0.893178 -4.76638e-06 0.449703
vn 0.893178 -4.81565e-06 0.449703
vn 0.893178 -4.88623e-06 0.449703
vn -0.440613 3.785e-05 0.897697
vn -0.893178 4.8155e-06 -0.449703
vn -0.893178 4.82804e-06 -0.449703
vn -0.893178 4.88623e-06 -0.449703
vn 0.440613 -3.78274e-05 -0.897697
vn 0.440613 -3.78279e-05 -0.897697

# Mesh 'defaultobject' with 16 faces
g defaultobject
usemtl DefaultMaterial
f  1//1 2//1 3//1
f  2//1 1//1 4//2
f  5//3 6//3 7//3
f  6//3 5//3 8//3
f  9//4 7//4 10//4
f  7//4 9//4 5//5
f  10//6 1//6 3//6
f  1//6 10//6 6//7
f  6//7 10//6 7//8
f  1//9 8//9 4//9
f  8//9 1//9 6//9
f  8//10 2//10 4//10
f  2//10 8//10 9//11
f  9//11 8//10 5//12
f  9//13 3//13 2//13
f  3//13 9//13 10//14

