# {"id":"BLDG_0003000e0087c208","idOriginal":"BLDG_0003000e0087c208","origin":[13.3953317995257,52.53458037578613],"elevation":37.5499992370605}
# Longitude: 13.3953317995257
# Latitude: 52.53458037578613
# Elevation: 37.5499992370605

# File produced by Open Asset Import Library (http://www.assimp.sf.net)
# (assimp v3.1.0)

mtllib BLDG_0003000e0087c208.obj.mtl

# 21 vertex positions
v  16.9516 17.297 -13.3249
v  15.0065 19.766 -5.81468
v  19.9244 17.297 -7.72008
v  12.1238 19.766 -11.2496
v  10.0884 17.297 -3.90913
v  17.4584 19.766 -1.19196
v  24.8283 17.297 1.52536
v  14.9922 17.297 5.33632
v  12.5404 19.766 0.713519
v  1.83829 19.766 4.86001
v  0.000369421 17.297 -0.000547481
v  3.6761 17.297 9.72072
v  7.2958 17.297 -9.17411
v  10.088 2.39331e-16 -3.90858
v  16.9512 8.15883e-16 -13.3244
v  19.9241 4.72685e-16 -7.71953
v  7.29544 5.61719e-16 -9.17356
v  14.9918 -3.26789e-16 5.33687
v  24.8279 -9.34351e-17 1.52591
v  0 0 0
v  3.67573 -5.95256e-16 9.72127

# 0 UV coordinates

# 33 vertex normals
vn 0.376692 0.904535 -0.1998
vn 0.376692 0.904535 -0.1998
vn -0.376682 0.90454 0.199795
vn 0.376692 0.904535 -0.1998
vn 0.376692 0.904535 -0.1998
vn 0.155044 0.903231 0.400168
vn 0.155044 0.903231 0.400168
vn -0.155047 0.903228 -0.400175
vn -0.155047 0.903228 -0.400175
vn 0.155044 0.903232 0.400168
vn 0.155044 0.903231 0.400168
vn -0.376683 0.90454 0.199794
vn -0.376682 0.90454 0.199794
vn 3.1863e-24 -1 -6.12323e-17
vn 0 -1 -6.12323e-17
vn 1.93162e-24 -1 -6.12323e-17
vn 0 -1 -6.12323e-17
vn -0.883425 3.36792e-05 0.468573
vn -0.883425 3.37035e-05 0.468573
vn -0.394934 -2.06373e-05 -0.918709
vn -0.394934 -2.06699e-05 -0.918709
vn -0.394934 -2.05809e-05 -0.918709
vn 0.883425 -3.37358e-05 -0.468573
vn 0.883425 -3.36315e-05 -0.468573
vn 0.883425 -3.36329e-05 -0.468573
vn 0.361279 2.17854e-05 0.932458
vn 0.361279 2.18272e-05 0.932458
vn -0.935369 3.11641e-05 0.353674
vn -0.935369 3.11716e-05 0.353674
vn -0.935369 3.11451e-05 0.353674
vn -0.361279 -2.17979e-05 -0.932458
vn -0.361279 -2.18014e-05 -0.932458
vn 0.361279 2.17892e-05 0.932458

# Mesh 'defaultobject' with 38 faces
g defaultobject
usemtl DefaultMaterial
f  1//1 2//1 3//1
f  2//1 1//1 4//2
f  5//3 6//3 2//3
f  6//4 3//1 2//1
f  3//1 6//4 7//5
f  8//6 6//6 9//6
f  6//6 8//6 7//7
f  6//8 5//8 9//8
f  5//8 10//8 9//8
f  10//8 5//8 11//9
f  9//6 12//10 8//6
f  12//10 9//6 10//11
f  4//12 5//3 2//3
f  5//3 4//12 13//13
f  14//14 15//14 16//14
f  15//14 14//14 17//15
f  16//14 18//16 14//14
f  18//16 16//14 19//17
f  20//15 18//16 21//15
f  18//16 20//15 14//14
f  5//18 17//18 14//18
f  17//18 5//18 13//19
f  13//20 15//20 17//20
f  15//20 13//20 1//21
f  1//21 13//20 4//22
f  15//23 3//23 16//23
f  3//23 15//23 1//24
f  16//23 7//25 19//25
f  7//25 16//23 3//23
f  19//26 8//26 18//26
f  8//26 19//26 7//27
f  12//28 20//28 21//28
f  20//28 12//28 11//29
f  11//29 12//28 10//30
f  11//31 14//31 20//31
f  14//31 11//31 5//32
f  18//26 12//33 21//33
f  12//33 18//26 8//26

