# {"id":"BLDG_0003000b001d885e","idOriginal":"BLDG_0003000b001d885e","origin":[13.331871981131947,52.523079795398935],"elevation":33.7000007629395}
# Longitude: 13.331871981131947
# Latitude: 52.523079795398935
# Elevation: 33.7000007629395

# File produced by Open Asset Import Library (http://www.assimp.sf.net)
# (assimp v3.1.0)

mtllib BLDG_0003000b001d885e.obj.mtl

# 36 vertex positions
v  1.00584 3.94786e-16 -6.44734
v  2.86412 -2.75641e-17 0.450156
v  0 0 0
v  2.99527 1.17563e-15 -19.1995
v  10.3399 -9.95111e-17 1.62514
v  3.97094 1.55857e-15 -25.4535
v  6.8354 1.53114e-15 -25.0055
v  14.3121 1.45955e-15 -23.8362
v  13.2534 -1.2755e-16 2.08306
v  14.2593 2.67235e-16 -4.36429
v  16.2503 1.0487e-15 -17.1265
v  17.226 1.43164e-15 -23.3805
v  32.4488 8.93575e-16 -14.5932
v  33.351 1.27722e-15 -20.8586
v  29.6757 -2.85597e-16 4.66415
v  30.6058 1.09917e-16 -1.79508
v  0.000413285 19.43 -0.00061457
v  1.00625 19.43 -6.44796
v  2.99568 19.43 -19.2001
v  3.97135 19.43 -25.4541
v  32.4492 19.43 -14.5938
v  33.3515 23.04 -20.8594
v  16.2507 19.43 -17.1271
v  14.2597 19.43 -4.3649
v  30.6063 19.43 -1.7957
v  29.6762 23.04 4.66343
v  10.3404 20.8 1.62448
v  13.2539 23.04 2.08233
v  2.86459 22.26 0.449452
v  14.3126 20.8 -23.8368
v  6.83587 22.26 -25.0062
v  17.2264 23.04 -23.3812
v  13.3369 20.8 -17.5829
v  11.3462 20.8 -4.82286
v  5.8602 22.26 -18.7522
v  3.87043 22.26 -5.99789

# 0 UV coordinates

# 65 vertex normals
vn 0 -1 -6.12323e-17
vn 7.20014e-25 -1 -6.12323e-17
vn -5.11406e-23 -1 -6.12323e-17
vn 4.5349e-23 -1 -6.12323e-17
vn -1.7374e-23 -1 -6.12323e-17
vn 6.96569e-25 -1 -6.12323e-17
vn 4.40133e-23 -1 -6.12323e-17
vn 4.44702e-23 -1 -6.12323e-17
vn 3.40307e-23 -1 -6.12323e-17
vn 1.02026e-24 -1 -6.12323e-17
vn -4.09962e-24 -1 -6.12323e-17
vn 0 -1 -6.12323e-17
vn -0.988048 1.61407e-05 -0.154143
vn -0.988048 1.61474e-05 -0.154143
vn -0.988048 1.61137e-05 -0.154143
vn -0.988048 1.61269e-05 -0.154143
vn -0.988048 1.61398e-05 -0.154143
vn -0.988048 1.61507e-05 -0.154143
vn 0.98979 -1.6477e-05 0.142532
vn 0.98979 -1.66318e-05 0.142532
vn -0.154514 3.46189e-05 0.987991
vn -0.154514 3.4559e-05 0.987991
vn 0.988049 -1.6127e-05 0.154143
vn 0.988048 -1.61574e-05 0.154143
vn 0.155265 -3.45257e-05 -0.987873
vn 0.155265 -3.45575e-05 -0.987873
vn 0.98979 -1.65515e-05 0.142532
vn 0.98979 -1.65768e-05 0.142532
vn -0.155265 3.45505e-05 0.987873
vn -0.155265 3.45535e-05 0.987873
vn -0.155265 3.44829e-05 0.987873
vn -0.155265 3.45447e-05 0.987873
vn -0.155265 3.45247e-05 0.987873
vn -0.155265 3.50974e-05 0.987873
vn -0.155265 3.46256e-05 0.987873
vn -0.155265 3.45415e-05 0.987873
vn 0.154514 -3.45419e-05 -0.987991
vn 0.154514 -3.48623e-05 -0.987991
vn 0.154514 -3.43932e-05 -0.987991
vn 0.154514 -3.46067e-05 -0.987991
vn 0.154514 -3.45162e-05 -0.987991
vn 0.154515 -4.64799e-05 -0.98799
vn 0.154514 -3.43556e-05 -0.987991
vn 0.154514 -3.3755e-05 -0.987991
vn 0.416256 0.906926 0.0649391
vn 0.416256 0.906926 0.0649391
vn 0.416256 0.906925 0.0649392
vn 0.416256 0.906925 0.0649392
vn 0.187171 0.981893 0.0292001
vn 0.187171 0.981893 0.0292002
vn 0.187171 0.981893 0.0292001
vn 0.187171 0.981893 0.0292001
vn 0.187171 0.981893 0.0292001
vn 0 1 0
vn -0.690152 0.71561 -0.107669
vn -0.690152 0.71561 -0.107669
vn -0.690152 0.71561 -0.107669
vn -0.690152 0.71561 -0.107669
vn -0.690152 0.71561 -0.107669
vn -0.0765485 0.868656 0.489466
vn -0.0765486 0.868656 0.489466
vn -0.60795 0.725017 0.323646
vn 0.0751627 0.875016 -0.478223
vn 0.0751627 0.875016 -0.478223
vn -0.484412 0.728942 -0.483724

# Mesh 'defaultobject' with 68 faces
g defaultobject
usemtl DefaultMaterial
f  1//1 2//1 3//1
f  2//1 1//1 4//1
f  2//1 4//1 5//2
f  5//2 4//1 6//3
f  5//2 6//3 7//4
f  5//2 7//4 8//5
f  5//2 8//5 9//6
f  9//6 8//5 10//7
f  10//7 8//5 11//8
f  11//8 8//5 12//9
f  11//8 12//9 13//10
f  13//10 12//9 14//11
f  10//7 15//12 9//6
f  15//12 10//7 16//12
f  17//13 1//13 3//13
f  1//13 17//13 4//14
f  4//14 17//13 6//15
f  6//15 17//13 18//16
f  6//15 18//16 19//17
f  6//15 19//17 20//18
f  14//19 21//19 13//19
f  21//19 14//19 22//20
f  13//21 23//21 11//21
f  23//21 13//21 21//22
f  11//23 24//23 10//23
f  24//23 11//23 23//24
f  24//25 16//25 10//25
f  16//25 24//25 25//26
f  16//27 26//27 15//27
f  26//27 16//27 25//28
f  2//29 17//29 3//29
f  17//29 2//29 5//30
f  17//29 5//30 9//31
f  17//29 9//31 15//32
f  17//29 15//32 26//33
f  17//29 26//33 27//34
f  27//34 26//33 28//35
f  29//36 17//29 27//34
f  12//37 22//37 14//37
f  22//37 12//37 8//38
f  22//37 8//38 7//39
f  22//37 7//39 6//40
f  22//37 6//40 20//41
f  22//42 20//42 30//42
f  30//43 20//41 31//43
f  32//44 22//37 30//43
f  33//45 23//45 30//45
f  23//45 33//45 34//46
f  23//45 34//46 27//47
f  23//45 27//47 24//48
f  35//49 30//49 31//49
f  30//49 35//49 36//50
f  30//49 36//50 29//51
f  30//49 29//51 33//52
f  33//52 29//51 27//53
f  33//54 27//54 34//54
f  19//55 31//55 20//55
f  31//55 19//55 18//56
f  31//55 18//56 17//57
f  31//55 17//57 36//58
f  36//58 17//57 29//59
f  31//54 36//54 35//54
f  23//60 22//60 32//60
f  22//60 23//60 21//61
f  30//62 23//62 32//62
f  25//63 28//63 26//63
f  28//63 25//63 24//64
f  27//65 28//65 24//65

