# {"id":"BLDG_0003000a002259ff","idOriginal":"BLDG_0003000a002259ff","origin":[13.380943720363762,52.55378016538618],"elevation":38.25}
# Longitude: 13.380943720363762
# Latitude: 52.55378016538618
# Elevation: 38.25

# File produced by Open Asset Import Library (http://www.assimp.sf.net)
# (assimp v3.1.0)

mtllib BLDG_0003000a002259ff.obj.mtl

# 8 vertex positions
v  5.89421 4.98294e-16 -8.13775
v  18.6461 8.2393 1.39864
v  18.6459 -8.5658e-17 1.3989
v  5.89438 8.2393 -8.13802
v  12.7519 7.68609 9.53641
v  12.7517 -5.83952e-16 9.53666
v  0 0 0
v  0.000164014 7.68609 -0.00024359

# 0 UV coordinates

# 10 vertex normals
vn 0.59891 -3.83222e-05 -0.800817
vn 0.598909 -3.81477e-05 -0.800817
vn 0.809878 1.28423e-06 0.586598
vn 0.809878 1.198e-06 0.586598
vn -0.598909 3.81193e-05 0.800817
vn -0.598909 3.81599e-05 0.800817
vn -0.809878 -1.30862e-06 -0.586598
vn -0.809878 -1.35542e-06 -0.586598
vn 3.30911e-25 -1 -6.12323e-17
vn -0.0329275 0.998487 0.0440282

# Mesh 'defaultobject' with 12 faces
g defaultobject
usemtl DefaultMaterial
f  1//1 2//1 3//1
f  2//1 1//1 4//2
f  3//3 5//3 6//3
f  5//3 3//3 2//4
f  5//5 7//5 6//5
f  7//5 5//5 8//6
f  8//7 1//7 7//7
f  1//7 8//7 4//8
f  3//9 7//9 1//9
f  7//9 3//9 6//9
f  8//10 2//10 4//10
f  2//10 8//10 5//10

