# {"id":"BLDG_0003000e002862f5","idOriginal":"BLDG_0003000e002862f5","origin":[13.395861959279843,52.51616271147082],"elevation":33.7900009155273}
# Longitude: 13.395861959279843
# Latitude: 52.51616271147082
# Elevation: 33.7900009155273

# File produced by Open Asset Import Library (http://www.assimp.sf.net)
# (assimp v3.1.0)

mtllib BLDG_0003000e002862f5.obj.mtl

# 8 vertex positions
v  16.3655 11.518 -1.49889
v  2.01674 11.518 22.0213
v  18.382 11.518 20.5228
v  0.000245993 11.518 -0.00036412
v  16.3652 9.17585e-17 -1.49853
v  18.3817 -1.25668e-15 20.5231
v  2.0165 -1.34844e-15 22.0217
v  0 0 0

# 0 UV coordinates

# 9 vertex normals
vn 0 1 -0
vn 0.995834 -2.41576e-05 -0.0911872
vn 0.0911865 2.95449e-05 0.995834
vn -0.995834 2.4151e-05 0.0911872
vn -0.995834 2.41572e-05 0.0911872
vn -0.0911865 -2.95288e-05 -0.995834
vn -0.0911865 -2.9534e-05 -0.995834
vn 5.82696e-24 -1 -6.12323e-17
vn 0 -1 -6.12323e-17

# Mesh 'defaultobject' with 12 faces
g defaultobject
usemtl DefaultMaterial
f  1//1 2//1 3//1
f  2//1 1//1 4//1
f  5//2 3//2 6//2
f  3//2 5//2 1//2
f  6//3 2//3 7//3
f  2//3 6//3 3//3
f  8//4 2//4 4//4
f  2//4 8//4 7//5
f  5//6 4//6 1//6
f  4//6 5//6 8//7
f  7//8 5//8 6//8
f  5//8 7//8 8//9

