# {"id":"BLDG_0003000b004144b4","idOriginal":"BLDG_0003000b004144b4","origin":[13.357859522275726,52.54119701865285],"elevation":36.2999992370605}
# Longitude: 13.357859522275726
# Latitude: 52.54119701865285
# Elevation: 36.2999992370605

# File produced by Open Asset Import Library (http://www.assimp.sf.net)
# (assimp v3.1.0)

mtllib BLDG_0003000b004144b4.obj.mtl

# 21 vertex positions
v  10.2012 -6.8991e-16 11.2671
v  13.3125 -1.02425e-16 1.67273
v  15.8432 -5.58387e-16 9.11915
v  27.0382 6.27558e-16 -10.2488
v  29.3103 2.68884e-16 -4.39121
v  11.2896 2.62033e-16 -4.27933
v  4.55922 -8.21433e-16 13.415
v  5.64482 1.31017e-16 -2.13967
v  2.02286 -3.64459e-16 5.95206
v  0 0 0
v  15.8437 19.9719 9.11852
v  4.55964 19.9719 13.4144
v  10.2017 22.8706 11.2664
v  2.02329 19.9719 5.95143
v  0.000425539 19.9719 -0.00063245
v  29.3107 19.9719 -4.39184
v  27.0386 22.8706 -10.2495
v  13.3129 19.9719 1.6721
v  5.6453 22.8706 -2.14039
v  11.2901 22.8706 -4.28006
v  7.66817 22.8706 3.81168

# 0 UV coordinates

# 33 vertex normals
vn 2.23145e-24 -1 -6.12323e-17
vn 0 -1 -6.12323e-17
vn 4.00255e-24 -1 -6.12323e-17
vn -4.95454e-24 -1 -6.12323e-17
vn -2.79169e-24 -1 -6.12323e-17
vn 0.355793 2.20099e-05 0.934565
vn 0.355793 2.20125e-05 0.934565
vn 0.355793 2.20099e-05 0.934565
vn 0.355793 2.19079e-05 0.934565
vn -0.946813 3.03635e-05 0.321783
vn -0.946813 3.03448e-05 0.321783
vn -0.946813 3.03514e-05 0.321783
vn 0 1 1.11022e-16
vn 0.932319 -3.13053e-05 -0.361636
vn 0.932319 -3.12732e-05 -0.361637
vn 0.354441 2.20605e-05 0.935078
vn 0.946813 -3.03576e-05 -0.321783
vn -0.354441 -2.20591e-05 -0.935078
vn -0.354441 -2.2069e-05 -0.935078
vn -0.354441 -2.20467e-05 -0.935078
vn -0.354441 -2.20569e-05 -0.935078
vn -0.354441 -2.1858e-05 -0.935078
vn 0 -1 0
vn 0.148489 0.908015 0.391739
vn 0.148489 0.908015 0.391739
vn 0.148489 0.908015 0.391739
vn -0.410033 0.901362 0.139354
vn -0.410033 0.901362 0.139354
vn -0.410033 0.901362 0.139354
vn -0.410033 0.901362 0.139354
vn 0.410043 0.901357 -0.139357
vn 0.410043 0.901357 -0.139357
vn 0.410043 0.901357 -0.139357

# Mesh 'defaultobject' with 38 faces
g defaultobject
usemtl DefaultMaterial
f  1//1 2//1 3//1
f  2//1 4//2 5//2
f  4//2 2//1 6//3
f  6//3 2//1 1//1
f  6//3 1//1 7//2
f  6//3 7//2 8//4
f  8//4 7//2 9//2
f  8//4 9//2 10//5
f  11//6 1//6 3//6
f  1//6 11//6 7//7
f  7//7 11//6 12//8
f  12//8 11//6 13//9
f  10//10 14//10 15//10
f  14//10 10//10 12//11
f  12//11 10//10 7//12
f  7//13 10//13 9//13
f  4//14 16//14 5//14
f  16//14 4//14 17//15
f  5//16 18//16 2//16
f  18//16 5//16 16//16
f  2//17 11//17 3//17
f  11//17 2//17 18//17
f  15//18 8//18 10//18
f  8//18 15//18 6//19
f  6//19 15//18 4//20
f  4//20 15//18 17//21
f  17//21 15//18 19//22
f  17//23 19//23 20//23
f  17//24 18//24 16//24
f  18//24 17//24 20//25
f  18//24 20//25 19//26
f  15//27 21//27 19//27
f  21//27 15//27 13//28
f  13//28 15//27 14//29
f  13//28 14//29 12//30
f  21//31 18//31 19//31
f  18//31 21//31 11//32
f  11//32 21//31 13//33

