# {"id":"BLDG_0003000800251e30","idOriginal":"BLDG_0003000800251e30","origin":[13.334677466209662,52.55063611253855],"elevation":37.5900001525879}
# Longitude: 13.334677466209662
# Latitude: 52.55063611253855
# Elevation: 37.5900001525879

# File produced by Open Asset Import Library (http://www.assimp.sf.net)
# (assimp v3.1.0)

mtllib BLDG_0003000800251e30.obj.mtl

# 42 vertex positions
v  0 0 0
v  2.87915 -1.56595e-17 0.25574
v  2.87284 -1.92678e-17 0.314667
v  29.0068 1.30472e-16 -2.13077
v  0.0548115 3.10424e-17 -0.506961
v  0.760096 2.6362e-17 -0.430524
v  32.7025 4.39652e-16 -7.18007
v  32.1181 1.09763e-16 -1.79257
v  1.14926 2.48534e-16 -4.05887
v  10.0026 5.92909e-16 -9.68294
v  2.23091 8.65676e-16 -14.1376
v  10.3923 8.10853e-16 -13.2422
v  10.7952 8.39588e-16 -13.7115
v  1.5792 9.01335e-16 -14.7199
v  1.52438 8.70292e-16 -14.213
v  10.7407 8.0849e-16 -13.2036
v  8.74803 -5.25029e-17 0.857437
v  8.73356 -5.4873e-17 0.896145
v  28.8855 6.22815e-17 -1.01713
v  29.9706 3.67728e-17 -0.600545
v  29.5614 -1.92051e-16 3.13643
v  2.87293 4.03271 0.314539
v  0.0548973 4.03271 -0.507089
v  8.5799e-05 4.03271 -0.00012779
v  0.760182 4.03271 -0.430652
v  1.14934 4.03271 -4.05899
v  2.23099 4.03271 -14.1377
v  1.57928 4.03271 -14.72
v  1.52447 4.03271 -14.2131
v  10.7953 4.03271 -13.7116
v  10.3924 4.03271 -13.2424
v  2.87924 4.03271 0.255612
v  8.73365 4.03271 0.896017
v  8.74812 4.03271 0.857309
v  10.0027 4.03271 -9.68307
v  10.7408 4.03271 -13.2038
v  29.5615 4.03271 3.1363
v  28.8856 4.03271 -1.01726
v  29.9707 4.03271 -0.600673
v  29.0068 4.03271 -2.1309
v  32.7025 4.03271 -7.18019
v  32.1182 4.03271 -1.7927

# 0 UV coordinates

# 46 vertex normals
vn 0 -1 -6.12323e-17
vn -2.44132e-25 -1 -6.12323e-17
vn -3.42999e-24 -1 -6.12323e-17
vn 2.34109e-24 -1 -6.12323e-17
vn 0 -1 -6.12323e-17
vn -3.53344e-25 -1 -6.12323e-17
vn 1.27339e-24 -1 -6.12323e-17
vn 7.20321e-24 -1 -6.12323e-17
vn 7.8953e-24 -1 -6.12324e-17
vn 1.22941e-23 -1 -6.12324e-17
vn -4.56612e-24 -1 -6.12324e-17
vn 0 -1 -6.12324e-17
vn -1.40273e-23 -1 -6.12322e-17
vn 1.68144e-25 -1 -6.12323e-17
vn 0 1 0
vn 0.109595 -3.38307e-05 -0.993976
vn 0.109595 -3.37788e-05 -0.993976
vn 0.99406 -1.77088e-05 0.108832
vn -0.110117 3.38401e-05 0.993919
vn 0.994287 -1.77791e-05 0.106743
vn 0.108768 -3.38159e-05 -0.994067
vn -0.994206 1.77246e-05 -0.107491
vn -0.994206 1.7754e-05 -0.107492
vn -0.106108 3.3765e-05 0.994355
vn -0.106108 3.37676e-05 0.994355
vn -0.99429 1.77807e-05 -0.106708
vn -0.994297 1.77828e-05 -0.106645
vn 0.107747 -3.37969e-05 -0.994178
vn 0.107747 -3.37977e-05 -0.994178
vn -0.994206 1.77463e-05 -0.107491
vn -0.994206 1.77467e-05 -0.107491
vn -0.10888 3.38205e-05 0.994055
vn 0.994317 -1.77891e-05 0.10646
vn 0.994317 -1.77304e-05 0.106456
vn -0.10874 3.38103e-05 0.99407
vn 0.936704 -8.84161e-06 0.350121
vn -0.108846 3.38388e-05 0.994059
vn 0.994057 -1.77081e-05 0.108859
vn 0.358401 -3.71843e-05 -0.933568
vn 0.358401 -3.72119e-05 -0.933568
vn 0.994122 -1.77329e-05 0.10827
vn 0.994122 -1.77296e-05 0.10827
vn -0.108064 3.38048e-05 0.994144
vn -0.108064 3.3852e-05 0.994144
vn 0.994169 -1.82193e-05 0.107837
vn 0.994169 -1.72811e-05 0.107836

# Mesh 'defaultobject' with 80 faces
g defaultobject
usemtl DefaultMaterial
f  1//1 2//1 3//1
f  2//1 1//1 4//2
f  5//3 6//3 1//1
f  4//2 7//4 8//4
f  7//4 4//2 1//1
f  7//4 1//1 6//3
f  7//4 6//3 9//5
f  7//4 9//5 10//6
f  10//6 9//5 11//7
f  10//6 11//7 12//8
f  12//8 11//7 13//9
f  13//9 11//7 14//10
f  14//10 11//7 15//11
f  13//9 16//12 12//8
f  2//1 17//13 18//13
f  17//13 2//1 19//5
f  19//5 2//1 4//2
f  17//13 20//14 21//14
f  20//14 17//13 19//5
f  22//15 23//15 24//15
f  23//15 22//15 25//15
f  25//15 22//15 26//15
f  26//15 22//15 27//15
f  27//15 28//15 29//15
f  28//15 27//15 30//15
f  30//15 27//15 31//15
f  31//15 27//15 32//15
f  32//15 27//15 22//15
f  31//15 32//15 33//15
f  31//15 33//15 34//15
f  31//15 34//15 35//15
f  30//15 31//15 36//15
f  37//15 35//15 34//15
f  35//15 37//15 38//15
f  38//15 37//15 39//15
f  35//15 40//15 41//15
f  40//15 35//15 38//15
f  41//15 40//15 42//15
f  35//16 7//16 10//16
f  7//16 35//16 41//17
f  12//18 35//18 10//18
f  35//18 12//18 31//18
f  16//19 31//19 12//19
f  31//19 16//19 36//19
f  13//20 36//20 16//20
f  36//20 13//20 30//20
f  28//21 13//21 14//21
f  13//21 28//21 30//21
f  29//22 14//22 15//22
f  14//22 29//22 28//23
f  11//24 29//24 15//24
f  29//24 11//24 27//25
f  26//26 11//26 9//26
f  11//26 26//26 27//26
f  25//27 9//27 6//27
f  9//27 25//27 26//27
f  23//28 6//28 5//28
f  6//28 23//28 25//29
f  24//30 5//30 1//30
f  5//30 24//30 23//31
f  3//32 24//32 1//32
f  24//32 3//32 22//32
f  2//33 22//33 3//33
f  22//33 2//33 32//34
f  18//35 32//35 2//35
f  32//35 18//35 33//35
f  17//36 33//36 18//36
f  33//36 17//36 34//36
f  21//37 34//37 17//37
f  34//37 21//37 37//37
f  20//38 37//38 21//38
f  37//38 20//38 39//38
f  38//39 20//39 19//39
f  20//39 38//39 39//40
f  4//41 38//41 19//41
f  38//41 4//41 40//42
f  8//43 40//43 4//43
f  40//43 8//43 42//44
f  7//45 42//45 8//45
f  42//45 7//45 41//46

