# {"id":"BLDG_00030000001e89a1","idOriginal":"BLDG_00030000001e89a1","origin":[13.375864785659003,52.53874729196545],"elevation":36.3400001525879}
# Longitude: 13.375864785659003
# Latitude: 52.53874729196545
# Elevation: 36.3400001525879

# File produced by Open Asset Import Library (http://www.assimp.sf.net)
# (assimp v3.1.0)

mtllib BLDG_00030000001e89a1.obj.mtl

# 8 vertex positions
v  11.8505 -5.41894e-17 0.88498
v  0.0885691 -1.04734e-15 17.1044
v  0 0 0
v  11.9391 -1.10153e-15 17.9894
v  0.0890456 22.3391 17.1037
v  0.00047652 22.3391 -0.00070728
v  11.851 21.6998 0.884293
v  11.9396 21.6998 17.9887

# 0 UV coordinates

# 12 vertex normals
vn -2.61277e-25 -1 -6.12323e-17
vn -9.14471e-24 -1 -6.12323e-17
vn -0.999987 2.14948e-05 0.00517807
vn -0.999987 2.14949e-05 0.00517807
vn 0.0744711 -3.31618e-05 -0.997223
vn 0.0744711 -3.31589e-05 -0.997223
vn 0.999987 -2.15225e-05 -0.00517804
vn 0.999987 -2.14785e-05 -0.0051781
vn -0.0744711 3.31798e-05 0.997223
vn -0.0744711 3.3144e-05 0.997223
vn 0.0538907 0.998547 -0.000279055
vn 0.0538907 0.998547 -0.000279053

# Mesh 'defaultobject' with 12 faces
g defaultobject
usemtl DefaultMaterial
f  1//1 2//1 3//1
f  2//1 1//1 4//2
f  5//3 3//3 2//3
f  3//3 5//3 6//4
f  6//5 1//5 3//5
f  1//5 6//5 7//6
f  1//7 8//7 4//7
f  8//7 1//7 7//8
f  4//9 5//9 2//9
f  5//9 4//9 8//10
f  7//11 5//11 8//11
f  5//11 7//11 6//12

