# {"id":"BLDG_0003000b0051ce40","idOriginal":"BLDG_0003000b0051ce40","origin":[13.397135710310158,52.529187276597455],"elevation":35.8800010681152}
# Longitude: 13.397135710310158
# Latitude: 52.529187276597455
# Elevation: 35.8800010681152

# File produced by Open Asset Import Library (http://www.assimp.sf.net)
# (assimp v3.1.0)

mtllib BLDG_0003000b0051ce40.obj.mtl

# 28 vertex positions
v  0 0 0
v  5.9071 -9.60381e-16 15.6842
v  0.638936 -9.59027e-16 15.6621
v  7.12793 -9.60645e-16 15.6885
v  7.11209 -6.44699e-16 10.5287
v  12.2756 -6.45184e-16 10.5367
v  21.9992 -9.39703e-16 15.3465
v  22.2481 2.47555e-16 -4.04288
v  7.96094 1.8206e-16 -2.97327
v  10.3024 2.35575e-16 -3.84722
v  18.5644 4.24459e-16 -6.93194
v  11.8452 -7.81607e-16 12.7646
v  11.9649 -9.46736e-16 15.4614
v  13.2496 -6.96283e-16 11.3712
v  21.9997 22.552 15.3458
v  11.8457 22.552 12.7639
v  11.9653 22.552 15.4607
v  13.2501 22.552 11.3704
v  18.5649 22.552 -6.93266
v  22.2486 22.552 -4.04359
v  5.90759 22.552 15.6835
v  0.000481702 22.552 -0.00071355
v  0.639418 22.552 15.6614
v  7.96142 22.552 -2.97398
v  7.11257 22.552 10.528
v  7.12841 22.552 15.6878
v  12.276 22.552 10.5359
v  10.3029 22.552 -3.84794

# 0 UV coordinates

# 33 vertex normals
vn 0 -1 -6.12323e-17
vn -1.0239e-22 -1 -6.12323e-17
vn 2.31873e-23 -1 -6.12324e-17
vn -2.68068e-24 -1 -6.12323e-17
vn 1.95118e-23 -1 -6.12324e-17
vn 0 -1 -6.12323e-17
vn -4.1434e-25 -1 -6.12323e-17
vn -1.87821e-25 -1 -6.12323e-17
vn 1.07545e-23 -1 -6.12324e-17
vn 0 -1 -6.12323e-17
vn 0 1 0
vn -0.0035293 3.17488e-05 0.999994
vn 0.999995 -2.14735e-05 -0.0030698
vn 0.999995 -2.14525e-05 -0.00306989
vn -0.00153353 3.1664e-05 0.999999
vn -0.00153353 3.16641e-05 0.999999
vn -0.65062 3.79151e-05 0.759404
vn -0.704328 -7.41309e-06 -0.709875
vn -0.999017 2.27369e-05 0.0443393
vn 0.0114442 3.13855e-05 0.999935
vn 0.0114441 3.1385e-05 0.999935
vn 0.999918 -2.09051e-05 0.0128364
vn 0.617125 -3.81011e-05 -0.786865
vn 0.617125 -3.80469e-05 -0.786865
vn -0.349777 -2.21735e-05 -0.936833
vn -0.349777 -2.21488e-05 -0.936833
vn -0.349686 -2.21592e-05 -0.936867
vn -0.349687 -2.21765e-05 -0.936867
vn -0.349877 -2.21672e-05 -0.936796
vn -0.349877 -2.21529e-05 -0.936796
vn -0.999169 2.26339e-05 0.0407611
vn -0.999169 2.26316e-05 0.0407611
vn -0.00419795 3.17629e-05 0.999991

# Mesh 'defaultobject' with 52 faces
g defaultobject
usemtl DefaultMaterial
f  1//1 2//1 3//1
f  2//1 1//1 4//2
f  4//2 1//1 5//3
f  5//3 1//1 6//4
f  6//4 1//1 7//5
f  7//5 1//1 8//6
f  8//6 1//1 9//1
f  8//6 9//1 10//7
f  8//6 10//7 11//8
f  12//9 7//5 13//9
f  7//5 12//9 14//10
f  7//5 14//10 6//4
f  15//11 16//11 17//11
f  16//11 15//11 18//11
f  18//11 15//11 19//11
f  19//11 15//11 20//11
f  21//11 22//11 23//11
f  22//11 21//11 24//11
f  24//11 21//11 25//11
f  25//11 21//11 26//11
f  24//11 25//11 27//11
f  24//11 27//11 28//11
f  28//11 27//11 19//11
f  19//11 27//11 18//11
f  21//12 4//12 26//12
f  4//12 21//12 2//12
f  26//13 5//13 25//13
f  5//13 26//13 4//14
f  25//15 6//15 27//15
f  6//15 25//15 5//16
f  18//17 6//17 14//17
f  6//17 18//17 27//17
f  16//18 14//18 12//18
f  14//18 16//18 18//18
f  17//19 12//19 13//19
f  12//19 17//19 16//19
f  17//20 7//20 15//20
f  7//20 17//20 13//21
f  15//22 8//22 20//22
f  8//22 15//22 7//22
f  20//23 11//23 19//23
f  11//23 20//23 8//24
f  28//25 11//25 10//25
f  11//25 28//25 19//26
f  24//27 10//27 9//27
f  10//27 24//27 28//28
f  22//29 9//29 1//29
f  9//29 22//29 24//30
f  23//31 1//31 3//31
f  1//31 23//31 22//32
f  23//33 2//33 21//33
f  2//33 23//33 3//33

