# {"id":"BLDG_00030000001b4c97","idOriginal":"BLDG_00030000001b4c97","origin":[13.341356553967074,52.55301413950799],"elevation":35.1500015258789}
# Longitude: 13.341356553967074
# Latitude: 52.55301413950799
# Elevation: 35.1500015258789

# File produced by Open Asset Import Library (http://www.assimp.sf.net)
# (assimp v3.1.0)

mtllib BLDG_00030000001b4c97.obj.mtl

# 12 vertex positions
v  18.7323 16.1008 1.31481
v  14.4714 -3.46051e-16 5.65144
v  18.7319 -8.05403e-17 1.31532
v  10.2108 -6.11561e-16 9.98755
v  10.2112 16.1008 9.98704
v  14.4718 21.1265 5.65077
v  0.000342707 16.1008 -0.000510271
v  4.26465 2.65265e-16 -4.33211
v  0 0 0
v  8.52931 5.3053e-16 -8.66421
v  8.52965 16.1008 -8.66472
v  4.2651 21.1265 -4.33278

# 0 UV coordinates

# 19 vertex normals
vn 0.713294 7.00497e-06 0.700865
vn 0.713294 6.97645e-06 0.700864
vn 0.713294 7.04203e-06 0.700864
vn 0.713294 6.99231e-06 0.700864
vn -0.712633 -7.06485e-06 -0.701537
vn -0.712633 -7.05438e-06 -0.701537
vn -0.712633 -7.07741e-06 -0.701537
vn -0.712633 -7.05473e-06 -0.701537
vn -0.699248 3.75226e-05 0.71488
vn -0.699248 3.75398e-05 0.71488
vn 0.699248 -3.75514e-05 -0.714879
vn 0.699248 -3.75182e-05 -0.714879
vn 4.88158e-24 -1 -6.12323e-17
vn 1.95263e-23 -1 -6.12323e-17
vn 0 -1 -6.12323e-17
vn -0.445536 0.770728 0.455496
vn -0.445536 0.770728 0.455496
vn 0.445552 0.770708 -0.455513
vn 0.445552 0.770708 -0.455513

# Mesh 'defaultobject' with 20 faces
g defaultobject
usemtl DefaultMaterial
f  1//1 2//1 3//1
f  2//1 1//1 4//2
f  4//2 1//1 5//3
f  5//3 1//1 6//4
f  7//5 8//5 9//5
f  8//5 7//5 10//6
f  10//6 7//5 11//7
f  11//7 7//5 12//8
f  5//9 9//9 4//9
f  9//9 5//9 7//10
f  10//11 1//11 3//11
f  1//11 10//11 11//12
f  2//13 10//13 3//13
f  10//13 2//13 4//14
f  10//13 4//14 9//15
f  10//13 9//9 8//5
f  12//16 5//16 6//16
f  5//16 12//16 7//17
f  11//18 6//18 1//18
f  6//18 11//18 12//19

