# {"id":"BLDG_0003000f00303e0d","idOriginal":"BLDG_0003000f00303e0d","origin":[13.38956013432343,52.547364495402704],"elevation":48.7700004577637}
# Longitude: 13.38956013432343
# Latitude: 52.547364495402704
# Elevation: 48.7700004577637

# File produced by Open Asset Import Library (http://www.assimp.sf.net)
# (assimp v3.1.0)

mtllib BLDG_0003000f00303e0d.obj.mtl

# 62 vertex positions
v  15.7901 18.191 0.158939
v  15.6699 1.29237e-16 -2.11061
v  15.6703 18.191 -2.11118
v  15.7897 -9.7675e-18 0.159515
v  1.02131 18.191 12.2938
v  0.833846 -6.14775e-16 10.04
v  1.02092 -7.52816e-16 12.2944
v  0.834235 18.191 10.0395
v  5.5824 -7.37254e-16 12.0403
v  5.58279 18.191 12.0397
v  9.53429 -7.23734e-16 11.8195
v  9.53468 18.191 11.8189
v  9.46281 -6.19136e-16 10.1113
v  9.4632 18.191 10.1107
v  13.0841 -6.07744e-16 9.92522
v  13.0845 18.191 9.92464
v  13.2224 18.191 11.6621
v  13.222 -7.14134e-16 11.6627
v  13.1928 18.191 12.0585
v  13.1924 -7.38407e-16 12.0591
v  13.8796 18.191 12.8545
v  13.8792 -7.87149e-16 12.8551
v  16.024 -7.7434e-16 12.6459
v  16.0244 18.191 12.6454
v  16.5874 -7.24851e-16 11.8377
v  16.5878 18.191 11.8371
v  16.5039 -7.00631e-16 11.4422
v  16.5043 18.191 11.4416
v  16.4656 -6.53318e-16 10.6695
v  16.466 18.191 10.6689
v  21.4247 -6.35892e-16 10.3849
v  21.425 18.191 10.3843
v  21.2942 -4.86161e-16 7.93961
v  21.2946 18.191 7.93904
v  20.8064 7.09638e-17 -1.15893
v  20.8068 18.191 -1.1595
v  17.4138 18.191 -0.933077
v  17.4134 5.70992e-17 -0.9325
v  17.4667 18.191 0.0698538
v  17.4663 -4.3126e-18 0.0704301
v  12.4822 18.191 -1.93586
v  12.4818 1.18502e-16 -1.93528
v  12.5302 18.191 -1.19801
v  12.5298 7.33215e-17 -1.19743
v  8.24991 18.191 -0.95551
v  8.24952 5.84729e-17 -0.954934
v  8.17265 1.00686e-16 -1.64432
v  8.17304 18.191 -1.6449
v  4.85509 18.191 -1.47605
v  4.8547 9.03468e-17 -1.47547
v  4.99316 18.191 0.72637
v  4.99277 -4.45126e-17 0.726946
v  3.30258 18.191 0.81618
v  3.30219 -5.00119e-17 0.816756
v  3.28609 1.39893e-17 -0.228462
v  3.28648 18.191 -0.229038
v  0.000388382 18.191 -0.00057627
v  0 0 0
v  0.0468441 18.191 0.55324
v  0.0464558 -3.39115e-17 0.553817
v  0.175384 18.191 2.10059
v  0.174996 -1.28659e-16 2.10117

# 0 UV coordinates

# 78 vertex normals
vn 0.998611 -2.30293e-05 -0.0526923
vn -0.996575 2.38959e-05 0.0826997
vn 0.0556321 3.04283e-05 0.998451
vn 0.055782 3.04262e-05 0.998443
vn 0.055782 3.04245e-05 0.998443
vn 0.999126 -2.26425e-05 -0.0418097
vn 0.051306 3.05781e-05 0.998683
vn 0.0513057 3.05293e-05 0.998683
vn -0.996864 2.38283e-05 0.0791305
vn -0.996864 2.38324e-05 0.0791304
vn -0.997235 1.8921e-05 -0.0743195
vn -0.997234 1.89771e-05 -0.074322
vn -0.757137 3.68407e-05 0.653256
vn -0.757138 3.68749e-05 0.653255
vn 0.0970665 2.95018e-05 0.995278
vn 0.097066 2.9444e-05 0.995278
vn 0.820384 5.58749e-07 0.571813
vn 0.820386 6.73493e-07 0.571811
vn 0.978453 -2.74774e-05 -0.206471
vn 0.978453 -2.74663e-05 -0.206471
vn 0.998774 -2.29306e-05 -0.0494939
vn 0.998774 -2.29332e-05 -0.0494938
vn 0.0572927 3.03941e-05 0.998357
vn 0.0572927 3.03875e-05 0.998357
vn 0.99858 -2.30475e-05 -0.0532714
vn 0.99858 -2.29411e-05 -0.0532722
vn 0.998566 -2.29487e-05 -0.0535351
vn 0.998566 -2.30552e-05 -0.0535349
vn -0.0665845 -3.01837e-05 -0.997781
vn -0.0665846 -3.01907e-05 -0.997781
vn -0.998612 2.30288e-05 0.0526801
vn -0.998612 2.30288e-05 0.0526801
vn -0.0530608 -3.04986e-05 -0.998591
vn -0.0530608 -3.04995e-05 -0.998591
vn -0.0549102 -3.04588e-05 -0.998491
vn -0.0549102 -3.04559e-05 -0.998491
vn -0.997895 2.33991e-05 0.0648527
vn -0.997895 2.33468e-05 0.064854
vn -0.0565638 -3.04176e-05 -0.998399
vn 0.99384 -2.47165e-05 -0.110823
vn 0.99384 -2.47687e-05 -0.110822
vn -0.0508231 -3.05515e-05 -0.998708
vn -0.0508231 -3.05529e-05 -0.998708
vn -0.998041 2.32775e-05 0.062568
vn -0.998041 2.33036e-05 0.0625678
vn -0.0530494 -3.05003e-05 -0.998592
vn -0.0530494 -3.05017e-05 -0.998592
vn 0.999881 -2.18359e-05 -0.0154071
vn 0.999881 -2.1849e-05 -0.0154068
vn -0.0693566 -3.01218e-05 -0.997592
vn -0.0693566 -3.0122e-05 -0.997592
vn -0.9965 2.39236e-05 0.0835894
vn -0.9965 2.39236e-05 0.0835894
vn -0.996567 2.38996e-05 0.0827859
vn -0.996574 2.38961e-05 0.0827062
vn -0.996574 2.38972e-05 0.0827062
vn 0 1 0
vn 0 -1 -6.12323e-17
vn -1.79796e-24 -1 -6.12323e-17
vn 1.8234e-24 -1 -6.12323e-17
vn 2.5622e-24 -1 -6.12323e-17
vn 1.16414e-23 -1 -6.12323e-17
vn 4.90519e-24 -1 -6.12323e-17
vn 0 -1 -6.12323e-17
vn -3.43718e-23 -1 -6.12323e-17
vn 1.44848e-23 -1 -6.12324e-17
vn 0 -1 -6.12324e-17
vn -6.31653e-23 -1 -6.12323e-17
vn -1.6935e-23 -1 -6.12323e-17
vn 3.74977e-23 -1 -6.12324e-17
vn -6.22339e-24 -1 -6.12323e-17
vn 6.24961e-25 -1 -6.12323e-17
vn 0 -1 -6.12323e-17
vn 2.61565e-23 -1 -6.12324e-17
vn 0 -1 -6.12323e-17
vn 1.36662e-23 -1 -6.12323e-17
vn 7.1503e-24 -1 -6.12323e-17
vn 3.19322e-23 -1 -6.12325e-17

# Mesh 'defaultobject' with 120 faces
g defaultobject
usemtl DefaultMaterial
f  1//1 2//1 3//1
f  2//1 1//1 4//1
f  5//2 6//2 7//2
f  6//2 5//2 8//2
f  5//3 9//3 10//3
f  9//3 5//3 7//3
f  10//4 11//4 12//4
f  11//4 10//4 9//5
f  12//6 13//6 14//6
f  13//6 12//6 11//6
f  14//7 15//7 16//7
f  15//7 14//7 13//8
f  17//9 15//9 18//9
f  15//9 17//9 16//10
f  19//11 18//11 20//11
f  18//11 19//11 17//12
f  21//13 20//13 22//13
f  20//13 21//13 19//14
f  21//15 23//15 24//15
f  23//15 21//15 22//16
f  24//17 25//17 26//17
f  25//17 24//17 23//18
f  26//19 27//19 28//19
f  27//19 26//19 25//20
f  28//21 29//21 30//21
f  29//21 28//21 27//22
f  30//23 31//23 32//23
f  31//23 30//23 29//24
f  32//25 33//25 34//25
f  33//25 32//25 31//26
f  34//27 35//27 36//27
f  35//27 34//27 33//28
f  37//29 35//29 38//29
f  35//29 37//29 36//30
f  39//31 38//31 40//31
f  38//31 39//31 37//32
f  1//33 40//33 4//33
f  40//33 1//33 39//34
f  41//35 2//35 42//35
f  2//35 41//35 3//36
f  43//37 42//37 44//37
f  42//37 43//37 41//38
f  45//39 44//39 46//39
f  44//39 45//39 43//39
f  45//40 47//40 48//40
f  47//40 45//40 46//41
f  49//42 47//42 50//42
f  47//42 49//42 48//43
f  51//44 50//44 52//44
f  50//44 51//44 49//45
f  53//46 52//46 54//46
f  52//46 53//46 51//47
f  53//48 55//48 56//48
f  55//48 53//48 54//49
f  57//50 55//50 58//50
f  55//50 57//50 56//51
f  59//52 58//52 60//52
f  58//52 59//52 57//53
f  61//54 60//54 62//54
f  60//54 61//54 59//54
f  8//2 62//55 6//2
f  62//55 8//2 61//56
f  59//57 56//57 57//57
f  56//57 59//57 61//57
f  56//57 61//57 8//57
f  56//57 8//57 5//57
f  56//57 5//57 53//57
f  21//57 17//57 19//57
f  17//57 21//57 43//57
f  43//57 3//57 41//57
f  3//57 43//57 21//57
f  3//57 21//57 24//57
f  3//57 24//57 1//57
f  10//57 53//57 5//57
f  53//57 10//57 51//57
f  51//57 10//57 12//57
f  51//57 12//57 48//57
f  48//57 12//57 45//57
f  45//57 12//57 14//57
f  45//57 14//57 43//57
f  43//57 14//57 16//57
f  43//57 16//57 17//57
f  48//57 49//57 51//57
f  24//57 28//57 1//57
f  28//57 24//57 26//57
f  1//57 30//57 39//57
f  30//57 1//57 28//57
f  39//57 30//57 32//57
f  39//57 32//57 37//57
f  37//57 32//57 36//57
f  36//57 32//57 34//57
f  55//58 54//58 58//58
f  47//59 46//59 50//59
f  2//60 4//60 42//60
f  6//61 9//61 7//61
f  9//61 6//61 62//62
f  9//61 62//62 11//63
f  11//63 62//62 60//64
f  11//63 60//64 13//65
f  13//65 60//64 58//58
f  13//65 58//58 15//66
f  15//66 58//58 54//58
f  15//66 54//58 52//67
f  15//66 52//67 23//68
f  23//68 52//67 25//69
f  25//69 52//67 50//59
f  25//69 50//59 27//70
f  27//70 50//59 29//71
f  29//71 50//59 31//72
f  31//72 50//59 46//59
f  31//72 46//59 44//73
f  31//72 44//73 33//74
f  33//74 44//73 4//60
f  33//74 4//60 40//75
f  33//74 40//75 35//76
f  4//60 44//73 42//60
f  35//76 40//75 38//73
f  20//77 23//68 22//77
f  23//68 20//77 18//78
f  23//68 18//78 15//66

