# {"id":"BLDG_000300080028e1cb","idOriginal":"BLDG_000300080028e1cb","origin":[13.35757802619795,52.55125018308861],"elevation":36.9799995422363}
# Longitude: 13.35757802619795
# Latitude: 52.55125018308861
# Elevation: 36.9799995422363

# File produced by Open Asset Import Library (http://www.assimp.sf.net)
# (assimp v3.1.0)

mtllib BLDG_000300080028e1cb.obj.mtl

# 16 vertex positions
v  28.5857 21.7534 -0.935968
v  18.7196 -5.72393e-16 9.34789
v  28.5852 5.72693e-17 -0.935279
v  14.1339 -8.65062e-16 14.1275
v  14.1344 21.7534 14.1269
v  18.72 21.7534 9.3472
v  9.83067 -6.01682e-16 9.82622
v  0 0 0
v  9.83114 21.7534 9.82553
v  0.0004635 21.7534 -0.000689331
v  14.4167 20.0017 5.04593
v  24.2232 3.16897e-16 -5.17532
v  14.4163 -3.09013e-16 5.04657
v  24.2236 20.0017 -5.17595
v  4.57387 2.93388e-16 -4.79138
v  4.5743 20.0017 -4.79202

# 0 UV coordinates

# 27 vertex normals
vn 0.721603 6.56329e-06 0.692307
vn 0.721603 6.59227e-06 0.692307
vn 0.721603 6.56898e-06 0.692307
vn -0.706947 3.74804e-05 0.707267
vn -0.706946 3.74706e-05 0.707267
vn -0.706947 3.74681e-05 0.707267
vn -0.706947 3.74752e-05 0.707267
vn -0.721603 -6.58947e-06 -0.692307
vn -0.721603 -6.52066e-06 -0.692307
vn 0.697006 -3.75761e-05 -0.717066
vn 0.697006 -3.7622e-05 -0.717066
vn -0.723334 -6.46869e-06 -0.690498
vn -0.723334 -6.46085e-06 -0.690498
vn 0.706946 -3.74418e-05 -0.707267
vn 0.706947 -3.74966e-05 -0.707267
vn 1.97083e-24 -1 -6.12323e-17
vn 1.8321e-24 -1 -6.12323e-17
vn -2.10222e-23 -1 -6.12324e-17
vn 3.45084e-24 -1 -6.12323e-17
vn 2.29782e-24 -1 -6.12323e-17
vn -4.91489e-24 -1 -6.12323e-17
vn -0.199677 0.960953 -0.19157
vn -0.199677 0.960953 -0.19157
vn -0.199677 0.960953 -0.19157
vn 0.18078 0.966751 -0.180862
vn 0.18078 0.966751 -0.180862
vn 0.18078 0.966751 -0.180862

# Mesh 'defaultobject' with 28 faces
g defaultobject
usemtl DefaultMaterial
f  1//1 2//1 3//1
f  2//1 1//1 4//2
f  4//2 1//1 5//3
f  5//3 1//1 6//1
f  5//4 7//4 4//4
f  7//4 5//4 8//5
f  8//5 5//4 9//6
f  8//5 9//6 10//7
f  11//8 12//8 13//8
f  12//8 11//8 14//9
f  12//10 1//10 3//10
f  1//10 12//10 14//11
f  10//12 15//12 8//12
f  15//12 10//12 16//13
f  15//14 11//14 13//14
f  11//14 15//14 16//15
f  7//16 2//16 4//16
f  2//16 7//16 3//17
f  3//17 7//16 13//18
f  13//18 7//16 8//19
f  13//18 8//19 15//20
f  12//21 3//17 13//18
f  14//22 6//12 1//22
f  6//12 14//22 11//23
f  6//12 11//23 5//24
f  11//25 9//25 5//25
f  9//25 11//25 10//26
f  10//26 11//25 16//27

