# {"id":"BLDG_0003000800207b76","idOriginal":"BLDG_0003000800207b76","origin":[13.400471745042614,52.526360026257805],"elevation":36.1199989318848}
# Longitude: 13.400471745042614
# Latitude: 52.526360026257805
# Elevation: 36.1199989318848

# File produced by Open Asset Import Library (http://www.assimp.sf.net)
# (assimp v3.1.0)

mtllib BLDG_0003000800207b76.obj.mtl

# 10 vertex positions
v  10.4864 2.61198e-16 -4.26568
v  5.46357 5.40239 3.53586
v  5.46345 -2.16519e-16 3.53603
v  10.4865 5.40239 -4.26585
v  0.000115417 5.40239 -0.0001709
v  0 0 0
v  5.02291 4.77717e-16 -7.80171
v  2.51158 6.06247 -3.90105
v  5.02302 5.40239 -7.80188
v  4.0802 6.06247 -2.88581

# 0 UV coordinates

# 16 vertex normals
vn 0.840809 -8.37095e-07 0.541331
vn 0.84081 -6.84896e-07 0.541331
vn -0.543344 3.81923e-05 0.83951
vn -0.543344 3.8138e-05 0.83951
vn -0.840809 8.3851e-07 -0.541331
vn -0.840809 8.56173e-07 -0.541331
vn -0.840809 8.54339e-07 -0.541331
vn 0.543344 -3.81331e-05 -0.83951
vn 0.543344 -3.81113e-05 -0.83951
vn 0.118436 0.99003 0.0762513
vn -0.0765345 0.99003 0.118252
vn -0.0765345 0.99003 0.118252
vn 0.0765354 0.99003 -0.118253
vn 0.0765354 0.99003 -0.118253
vn 0 -1 -6.12323e-17
vn 3.50678e-24 -1 -6.12323e-17

# Mesh 'defaultobject' with 16 faces
g defaultobject
usemtl DefaultMaterial
f  1//1 2//1 3//1
f  2//1 1//1 4//2
f  3//3 5//3 6//3
f  5//3 3//3 2//4
f  5//5 7//5 6//5
f  7//5 5//5 8//6
f  7//5 8//6 9//7
f  9//8 1//8 7//8
f  1//8 9//8 4//9
f  10//10 2//10 4//10
f  5//11 10//11 8//11
f  10//11 5//11 2//12
f  8//13 4//13 9//13
f  4//13 8//13 10//14
f  6//15 1//15 3//15
f  1//15 6//15 7//16

