# {"id":"BLDG_0003000f00334dea","idOriginal":"BLDG_0003000f00334dea","origin":[13.36024042413121,52.551852769664535],"elevation":37.0499992370605}
# Longitude: 13.36024042413121
# Latitude: 52.551852769664535
# Elevation: 37.0499992370605

# File produced by Open Asset Import Library (http://www.assimp.sf.net)
# (assimp v3.1.0)

mtllib BLDG_0003000f00334dea.obj.mtl

# 26 vertex positions
v  14.2976 18.1698 -0.435719
v  4.63733 19.2195 2.07227
v  14.3209 19.2195 1.77711
v  4.5663 18.1698 -0.139542
v  0.0714166 19.2195 2.21124
v  0.000387213 18.1698 -0.00057579
v  4.95604 18.5563 12.0005
v  14.4257 18.5563 11.7125
v  0.390127 18.5563 12.1394
v  4.99964 18.1698 13.3587
v  14.44 18.1698 13.0714
v  0.433737 18.8719 13.4976
v  5.3454 18.1698 24.1293
v  0.780114 18.8719 24.2871
v  0.779712 -1.4872e-15 24.2877
v  4.99925 -8.18019e-16 13.3593
v  5.34502 -1.47753e-15 24.1299
v  0.433335 -8.26528e-16 13.4982
v  14.4253 -7.1722e-16 11.7131
v  14.4396 -8.00426e-16 13.0719
v  14.3205 -1.08854e-16 1.77772
v  0.389731 -7.43361e-16 12.14
v  0.071007 -1.35437e-16 2.21185
v  14.2972 2.66448e-17 -0.435143
v  4.56591 8.50924e-18 -0.138966
v  0 0 0

# 0 UV coordinates

# 42 vertex normals
vn -0.0130586 0.903483 -0.428424
vn -0.0130373 0.903516 -0.428356
vn -0.0130373 0.903516 -0.428356
vn -0.0130373 0.903516 -0.428356
vn 0.0020246 0.997779 0.0665823
vn 0.00202653 0.997779 0.066584
vn 0.00202964 0.997778 0.0665882
vn 0.00202663 0.997779 0.0665869
vn 0.0083225 0.961852 0.273445
vn 0.00831327 0.961866 0.273396
vn 0.00832097 0.961866 0.273396
vn 0.141172 0.963277 -0.228404
vn 0.151836 0.988394 -0.00487441
vn 0.151836 0.988394 -0.00487442
vn -1.47874e-23 -1 -6.12324e-17
vn -1.87873e-24 -1 -6.12323e-17
vn -6.70401e-24 -1 -6.12324e-17
vn -3.38548e-24 -1 -6.12323e-17
vn 4.37224e-23 -1 -6.12323e-17
vn 3.73842e-25 -1 -6.12323e-17
vn 2.09796e-25 -1 -6.12323e-17
vn 1.53572e-25 -1 -6.12323e-17
vn 1.63653e-25 -1 -6.12323e-17
vn -0.999485 2.22903e-05 0.0320865
vn -0.999485 2.22322e-05 0.0320866
vn -0.999485 2.23136e-05 0.0320866
vn -0.999485 2.23163e-05 0.0320866
vn -0.999512 0 0.0312348
vn 3.55271e-16 1 3.33067e-17
vn 0.999944 -2.13331e-05 -0.0105434
vn 0.999944 -2.1901e-05 -0.0105434
vn 0.999944 -2.16425e-05 -0.0105434
vn 0.999944 -2.16426e-05 -0.0105434
vn -0.0304215 -3.10259e-05 -0.999537
vn -0.0304216 -3.10273e-05 -0.999537
vn -0.0304216 -3.10273e-05 -0.999537
vn -0.0304216 -3.10264e-05 -0.999537
vn 0.0304216 3.09859e-05 0.999537
vn 0.999485 -2.23161e-05 -0.0320866
vn 0.999485 -2.23148e-05 -0.0320866
vn 0.0345642 3.0879e-05 0.999403
vn 0.0345644 3.09469e-05 0.999403

# Mesh 'defaultobject' with 48 faces
g defaultobject
usemtl DefaultMaterial
f  1//1 2//1 3//1
f  2//2 1//2 4//2
f  2//2 4//2 5//3
f  5//3 4//2 6//4
f  3//5 7//5 8//5
f  7//5 3//5 9//6
f  9//6 3//5 2//7
f  9//6 2//7 5//8
f  8//9 10//9 11//9
f  10//10 8//10 7//10
f  10//10 7//10 9//11
f  9//12 12//12 10//12
f  13//13 12//13 14//13
f  12//13 13//13 10//14
f  15//15 16//15 17//15
f  16//15 15//15 18//16
f  16//15 19//17 20//17
f  19//17 16//15 21//18
f  21//18 16//15 18//16
f  21//18 18//16 22//19
f  21//18 22//19 23//20
f  21//18 23//20 24//21
f  24//21 23//20 25//22
f  25//22 23//20 26//23
f  6//24 9//24 5//24
f  9//24 14//25 12//25
f  14//25 9//24 15//26
f  15//26 9//24 6//24
f  15//26 6//24 26//27
f  15//28 26//28 23//28
f  15//29 23//29 22//29
f  15//15 22//19 18//16
f  8//30 1//30 3//30
f  1//30 8//30 11//31
f  1//30 11//31 24//32
f  24//32 11//31 20//33
f  24//21 20//17 21//18
f  21//18 20//17 19//17
f  24//34 4//34 1//34
f  4//34 24//34 6//35
f  6//35 24//34 25//36
f  6//35 25//36 26//37
f  20//38 10//38 16//38
f  10//38 20//38 11//38
f  16//39 13//39 17//39
f  13//39 16//39 10//40
f  17//41 14//41 15//41
f  14//41 17//41 13//42

