# {"id":"BLDG_00030009007e9b45","idOriginal":"BLDG_00030009007e9b45","origin":[13.375677926885475,52.54816522599491],"elevation":36.0900001525879}
# Longitude: 13.375677926885475
# Latitude: 52.54816522599491
# Elevation: 36.0900001525879

# File produced by Open Asset Import Library (http://www.assimp.sf.net)
# (assimp v3.1.0)

mtllib BLDG_00030009007e9b45.obj.mtl

# 64 vertex positions
v  23.4237 -5.6318e-16 9.19742
v  32.3512 -7.11585e-16 11.6211
v  28.9324 -9.15122e-16 14.9451
v  26.8425 -3.59643e-16 5.87341
v  19.6914 -7.8538e-16 12.8262
v  25.223 -1.13596e-15 18.5516
v  4.41039 6.51557e-16 -10.6407
v  11.0589 6.48751e-16 -10.5949
v  7.6158 4.46767e-16 -7.29626
v  7.83844 8.54502e-16 -13.9551
v  0.385273 9.08717e-16 -14.8405
v  3.81333 1.11166e-15 -18.1548
v  19.7122 -3.26054e-16 5.32487
v  23.1553 -1.24071e-16 2.02623
v  3.79066 2.22372e-16 -3.63161
v  0.588672 4.25307e-16 -6.94578
v  15.9377 -5.47477e-16 8.94098
v  15.8802 -1.01228e-15 16.5317
v  21.3954 -1.36384e-15 22.2731
v  12.1106 -7.71985e-16 12.6075
v  0 0 0
v  12.3949 -1.21978e-15 19.9205
v  17.91 -1.57134e-15 25.6619
v  10.0775 -1.35774e-15 22.1736
v  15.6091 -1.70832e-15 27.899
v  8.60045 -9.77903e-16 15.9704
v  21.5577 6.73482 11.0116
v  17.8251 6.73482 7.13271
v  15.9378 6.57757 8.94077
v  22.4574 6.73482 15.6887
v  15.8804 6.57757 16.5315
v  18.6379 6.73482 19.4022
v  19.6916 6.57757 12.826
v  25.2232 6.57757 18.5514
v  21.3955 6.57757 22.2729
v  3.7908 6.57757 -3.63182
v  12.1108 6.57757 12.6073
v  0.00014031 6.57757 -0.00020839
v  12.395 6.57757 19.9203
v  15.1526 6.73482 22.791
v  17.9102 6.57757 25.6617
v  10.0777 6.57757 22.1734
v  12.8435 6.73482 25.0361
v  15.6093 6.57757 27.8988
v  8.60059 6.57757 15.9702
v  32.3513 6.57757 11.6209
v  23.4238 6.57757 9.19721
v  28.9325 6.57757 14.9449
v  26.8426 6.57757 5.8732
v  7.83858 6.57757 -13.9553
v  7.61594 6.57757 -7.29647
v  11.059 6.57757 -10.5951
v  4.41053 6.57757 -10.6409
v  0.385413 6.57757 -14.8407
v  7.83859 6.73482 -13.9553
v  3.81347 6.73482 -18.155
v  19.7123 6.57757 5.32467
v  23.1554 6.57757 2.02603
v  4.10152 6.73482 -7.12881
v  5.70338 6.73482 -5.46415
v  0.588812 6.57757 -6.94599
v  6.01324 6.73482 -8.96871
v  19.7123 6.73482 5.32466
v  19.6916 6.73482 12.826

# 0 UV coordinates

# 80 vertex normals
vn -2.78916e-24 -1 -6.12323e-17
vn 0 -1 -6.12323e-17
vn 1.28533e-24 -1 -6.12323e-17
vn 1.87239e-24 -1 -6.12323e-17
vn 1.97546e-24 -1 -6.12323e-17
vn 3.81718e-24 -1 -6.12323e-17
vn -7.62109e-24 -1 -6.12323e-17
vn -5.08073e-24 -1 -6.12323e-17
vn 1.29438e-23 -1 -6.12323e-17
vn 0 -1 -6.12323e-17
vn 0 -1 -6.12324e-17
vn 2.49123e-24 -1 -6.12324e-17
vn 0 -1 -6.12323e-17
vn -3.14627e-23 -1 -6.12323e-17
vn 3.31542e-23 -1 -6.12324e-17
vn 1.59062e-23 -1 -6.12323e-17
vn -0.0432765 0.998195 0.0416447
vn -0.027518 0.999221 -0.0283026
vn -0.027518 0.999221 -0.0283026
vn 0.0275179 0.999221 0.0283026
vn 0.0275179 0.999221 0.0283026
vn 0 1 0
vn -0.027518 0.999221 -0.0283026
vn 0.0275179 0.999221 0.0283026
vn -0.027518 0.999221 -0.0283026
vn 0.0275179 0.999221 0.0283026
vn -0.0237967 0.999457 0.0228073
vn 0.0427061 0.998242 -0.0410947
vn -0.0427059 0.998242 0.0410945
vn -0.042549 0.998248 0.0411087
vn -0.0470821 0.997703 -0.0486974
vn -0.0472163 0.997679 -0.0490592
vn 0.0469706 0.997703 0.048804
vn -0.0426234 0.998242 0.0411806
vn -0.0432768 0.998195 0.0416444
vn 0.0427058 0.998242 -0.0410949
vn -0.00622261 0.99996 -0.00649513
vn 0.0432767 0.998195 -0.0416449
vn 0.0435404 0.99818 -0.04173
vn -0.0202828 0.999577 -0.0208611
vn 0.721956 -3.74436e-05 -0.691938
vn 0.721956 -3.74072e-05 -0.691938
vn 0.697099 7.81448e-06 0.716975
vn 0.697099 7.90294e-06 0.716975
vn 0.721957 -3.73822e-05 -0.691938
vn 0.721957 -3.74134e-05 -0.691938
vn 0.721957 -3.73899e-05 -0.691938
vn 0.721957 -3.73412e-05 -0.691938
vn 0.695083 7.04619e-06 0.71893
vn -0.721957 3.72578e-05 0.691938
vn -0.721957 3.73712e-05 0.691938
vn -0.695083 -8.00072e-06 -0.71893
vn -0.695083 -7.96613e-06 -0.71893
vn 0.721956 -3.74211e-05 -0.691938
vn -0.719174 3.73403e-05 0.69483
vn -0.719174 3.73533e-05 0.69483
vn -0.695083 -7.9486e-06 -0.71893
vn -0.695083 -7.90908e-06 -0.71893
vn 0.721956 -4.05831e-05 -0.691938
vn 0.691796 1.3505e-05 0.722093
vn 0.721956 -2.97383e-05 -0.691938
vn 0.697098 4.95131e-06 0.716975
vn 0.697098 4.83034e-06 0.716975
vn -0.719174 3.85152e-05 0.69483
vn 0.719174 -4.72303e-05 -0.69483
vn 0.697098 7.71305e-06 0.716975
vn -0.721174 3.74719e-05 0.692753
vn -0.721174 3.73316e-05 0.692754
vn -0.691796 -8.12018e-06 -0.722093
vn -0.691796 -8.13147e-06 -0.722093
vn 0.697099 7.90383e-06 0.716975
vn -0.719173 3.72899e-05 0.694831
vn -0.719174 3.74914e-05 0.69483
vn -0.719174 3.42801e-05 0.69483
vn -0.697099 -8.01224e-06 -0.716975
vn 0.697098 7.81606e-06 0.716975
vn -0.721175 3.74678e-05 0.692753
vn -0.721174 3.73674e-05 0.692754
vn -0.691796 -8.18381e-06 -0.722093
vn -0.691796 -8.08351e-06 -0.722093

# Mesh 'defaultobject' with 123 faces
g defaultobject
usemtl DefaultMaterial
f  1//1 2//1 3//1
f  2//1 1//1 4//2
f  5//3 3//1 6//3
f  3//1 5//3 1//1
f  7//4 8//4 9//4
f  8//4 7//4 10//5
f  10//5 11//6 12//6
f  11//6 10//5 7//4
f  8//4 13//7 9//4
f  13//7 8//4 14//8
f  14//8 1//1 13//7
f  1//1 14//8 4//2
f  15//9 7//4 9//4
f  7//4 15//9 16//10
f  17//11 9//4 13//7
f  9//4 17//11 15//9
f  1//1 17//11 13//7
f  17//11 1//1 5//3
f  18//12 6//3 19//12
f  6//3 18//12 5//3
f  15//9 20//13 21//13
f  20//13 15//9 17//11
f  17//11 18//12 20//13
f  18//12 17//11 5//3
f  22//14 19//12 23//14
f  19//12 22//14 18//12
f  24//15 23//14 25//15
f  23//14 24//15 22//14
f  20//13 22//14 26//16
f  22//14 20//13 18//12
f  27//17 28//17 29//17
f  30//18 31//18 32//18
f  31//18 30//18 33//19
f  34//20 32//20 35//20
f  32//20 34//20 30//21
f  36//22 37//22 29//22
f  37//22 36//22 38//22
f  33//22 37//22 31//22
f  37//22 33//22 29//22
f  32//18 39//23 40//23
f  39//23 32//18 31//18
f  35//20 40//24 41//24
f  40//24 35//20 32//20
f  40//23 42//25 43//25
f  42//25 40//23 39//23
f  41//24 43//26 44//26
f  43//26 41//24 40//24
f  31//22 45//22 39//22
f  45//22 31//22 37//22
f  46//22 47//22 48//22
f  47//22 46//22 49//22
f  48//22 33//22 34//22
f  33//22 48//22 47//22
f  50//22 51//22 52//22
f  51//22 50//22 53//22
f  54//27 55//27 56//27
f  55//27 54//27 53//27
f  52//22 57//22 58//22
f  57//22 52//22 51//22
f  49//22 57//22 47//22
f  57//22 49//22 58//22
f  51//28 59//28 60//28
f  59//29 36//29 60//29
f  36//30 59//30 61//30
f  61//31 62//31 53//31
f  62//32 61//32 59//32
f  59//33 51//33 62//33
f  29//34 60//34 36//34
f  60//35 29//17 28//17
f  60//28 28//36 51//28
f  28//37 63//37 51//37
f  27//38 57//38 28//38
f  57//39 27//39 47//39
f  27//40 29//40 64//40
f  4//41 46//41 2//41
f  46//41 4//41 49//42
f  2//43 48//43 3//43
f  48//43 2//43 46//43
f  3//43 34//44 6//44
f  34//44 3//43 48//43
f  10//45 52//45 8//45
f  52//45 10//45 50//46
f  12//47 55//47 10//45
f  55//47 12//47 56//48
f  55//49 53//49 50//49
f  53//50 11//50 7//50
f  11//50 53//50 54//51
f  54//52 12//52 11//52
f  12//52 54//52 56//53
f  8//45 58//54 14//54
f  58//54 8//45 52//45
f  14//54 49//42 4//41
f  49//42 14//54 58//54
f  36//55 16//55 15//55
f  16//55 36//55 61//56
f  61//57 7//57 16//57
f  7//57 61//57 53//58
f  51//59 53//59 62//59
f  63//60 28//60 57//60
f  63//61 57//61 51//61
f  27//62 33//62 47//62
f  33//62 27//62 64//63
f  64//64 29//64 33//64
f  34//65 33//65 30//65
f  6//44 35//66 19//66
f  35//66 6//44 34//44
f  37//67 21//67 20//67
f  21//67 37//67 38//68
f  38//69 15//69 21//69
f  15//69 38//69 36//70
f  19//66 41//71 23//71
f  41//71 19//66 35//66
f  44//72 24//72 25//72
f  24//72 44//72 42//73
f  42//73 44//72 43//74
f  42//75 22//75 24//75
f  22//75 42//75 39//75
f  23//71 44//76 25//76
f  44//76 23//71 41//71
f  39//77 26//77 22//77
f  26//77 39//77 45//78
f  45//79 20//79 26//79
f  20//79 45//79 37//80

