# {"id":"BLDG_0003000f0014bcd2","idOriginal":"BLDG_0003000f0014bcd2","origin":[13.372660030603724,52.541368935992395],"elevation":35.9500007629395}
# Longitude: 13.372660030603724
# Latitude: 52.541368935992395
# Elevation: 35.9500007629395

# File produced by Open Asset Import Library (http://www.assimp.sf.net)
# (assimp v3.1.0)

mtllib BLDG_0003000f0014bcd2.obj.mtl

# 8 vertex positions
v  19.4491 16.2655 2.32963
v  1.16616 16.2655 -9.68961
v  0.000346894 16.2655 -0.00051508
v  20.6149 16.2655 -7.35946
v  1.16581 5.93286e-16 -9.6891
v  19.4487 -1.4268e-16 2.33015
v  0 0 0
v  20.6145 4.50606e-16 -7.35895

# 0 UV coordinates

# 10 vertex normals
vn 0 1 0
vn 0 -1 -6.12323e-17
vn 4.43108e-24 -1 -6.12323e-17
vn -0.118959 3.39678e-05 0.992899
vn -0.118959 3.39917e-05 0.992899
vn -0.992839 1.73913e-05 -0.11946
vn -0.992839 1.73924e-05 -0.11946
vn 0.118959 -3.39735e-05 -0.992899
vn 0.118959 -3.39752e-05 -0.992899
vn 0.992839 -1.74112e-05 0.11946

# Mesh 'defaultobject' with 12 faces
g defaultobject
usemtl DefaultMaterial
f  1//1 2//1 3//1
f  2//1 1//1 4//1
f  5//2 6//2 7//2
f  6//2 5//2 8//3
f  6//4 3//4 7//4
f  3//4 6//4 1//5
f  3//6 5//6 7//6
f  5//6 3//6 2//7
f  2//8 8//8 5//8
f  8//8 2//8 4//9
f  8//10 1//10 6//10
f  1//10 8//10 4//10

