# {"id":"BLDG_0003000a00444e2e","idOriginal":"BLDG_0003000a00444e2e","origin":[13.414481293878646,52.50608877192715],"elevation":35.0099983215332}
# Longitude: 13.414481293878646
# Latitude: 52.50608877192715
# Elevation: 35.0099983215332

# File produced by Open Asset Import Library (http://www.assimp.sf.net)
# (assimp v3.1.0)

mtllib BLDG_0003000a00444e2e.obj.mtl

# 26 vertex positions
v  23.0317 15.7384 -11.7577
v  8.40338 15.7384 -14.7613
v  20.7409 15.7384 -7.73357
v  10.6943 15.7384 -18.7855
v  23.438 19.9558 2.09731
v  33.2639 19.7497 -0.600307
v  20.7409 19.7497 -7.7337
v  27.0789 19.7497 10.2751
v  20.812 19.9558 6.7125
v  14.5451 19.7497 3.14992
v  2.20154 19.7497 -3.86712
v  8.40347 19.7497 -14.7614
v  2.20146 15.7982 -3.86699
v  12.3439 15.7982 7.01654
v  14.545 15.7982 3.15005
v  0.000337798 15.7982 -0.00049909
v  10.6939 1.15025e-15 -18.785
v  8.40305 9.03839e-16 -14.7608
v  23.0314 7.19923e-16 -11.7572
v  20.7405 4.73514e-16 -7.73307
v  33.2635 3.672e-17 -0.599684
v  27.0785 -6.29206e-16 10.2757
v  14.5447 -1.92915e-16 3.15055
v  2.20112 2.36754e-16 -3.86649
v  12.3436 -4.2967e-16 7.01704
v  0 0 0

# 0 UV coordinates

# 34 vertex normals
vn 0 1 0
vn 0.0141525 0.999591 -0.0248452
vn 0.0248473 0.999591 0.014138
vn 0.0248542 0.999591 0.0141349
vn -0.0248442 0.999591 -0.0141433
vn -0.0248565 0.999591 -0.0141433
vn -0.869046 2.9403e-06 -0.494731
vn -0.869046 2.9476e-06 -0.494731
vn 0.494958 -3.79364e-05 -0.868917
vn 0.494958 -3.7989e-05 -0.868917
vn 0.869046 -2.91817e-06 0.494731
vn 0.494958 -3.80048e-05 -0.868917
vn 0.494958 -3.79649e-05 -0.868917
vn 0.869258 -2.9333e-06 0.494358
vn 0.869258 -2.84067e-06 0.494358
vn -0.494204 3.80023e-05 0.869346
vn -0.494204 3.80128e-05 0.869346
vn -0.494204 3.97844e-05 0.869346
vn -0.494204 3.80752e-05 0.869346
vn -0.869046 2.95003e-06 -0.494731
vn -0.869046 2.94261e-06 -0.494731
vn 0.494958 -3.80667e-05 -0.868917
vn -0.494204 3.80256e-05 0.869346
vn -0.494204 3.80256e-05 0.869346
vn -0.869046 2.95265e-06 -0.494731
vn -0.869046 2.94431e-06 -0.494731
vn 0.869046 -2.94427e-06 0.494731
vn 0.869046 -2.94427e-06 0.494731
vn 3.22077e-24 -1 -6.12324e-17
vn -3.22077e-24 -1 -6.12323e-17
vn 5.86614e-25 -1 -6.12323e-17
vn -1.17396e-24 -1 -6.12323e-17
vn 0 -1 -6.12323e-17
vn -3.35211e-24 -1 -6.12323e-17

# Mesh 'defaultobject' with 44 faces
g defaultobject
usemtl DefaultMaterial
f  1//1 2//1 3//1
f  2//1 1//1 4//1
f  5//2 6//2 7//2
f  8//3 5//3 9//3
f  5//3 8//3 6//4
f  9//5 7//5 10//5
f  7//6 9//6 5//6
f  7//1 11//1 10//1
f  11//1 7//1 12//1
f  13//1 14//1 15//1
f  14//1 13//1 16//1
f  2//7 17//7 18//7
f  17//7 2//7 4//8
f  4//9 19//9 17//9
f  19//9 4//9 1//10
f  19//11 3//11 20//11
f  3//11 19//11 1//11
f  7//12 21//12 20//12
f  21//12 7//12 6//13
f  21//14 8//14 22//14
f  8//14 21//14 6//15
f  8//16 23//16 22//16
f  23//16 8//16 10//17
f  10//17 8//16 9//18
f  15//19 11//19 13//19
f  11//19 15//19 10//17
f  11//20 18//7 24//20
f  18//7 11//20 12//21
f  12//22 3//22 2//22
f  3//22 12//22 7//12
f  25//23 16//23 26//23
f  16//23 25//23 14//24
f  16//25 24//20 26//25
f  24//20 16//25 13//26
f  23//27 14//27 25//27
f  14//27 23//27 15//28
f  18//29 19//29 20//29
f  19//29 18//29 17//30
f  21//31 23//31 20//29
f  23//31 21//31 22//32
f  18//29 23//31 24//33
f  23//31 18//29 20//29
f  24//33 25//34 26//34
f  25//34 24//33 23//31

