# {"id":"BLDG_0003000a002ecdfa","idOriginal":"BLDG_0003000a002ecdfa","origin":[13.380401912765242,52.51203627428435],"elevation":34.5999984741211}
# Longitude: 13.380401912765242
# Latitude: 52.51203627428435
# Elevation: 34.5999984741211

# File produced by Open Asset Import Library (http://www.assimp.sf.net)
# (assimp v3.1.0)

mtllib BLDG_0003000a002ecdfa.obj.mtl

# 32 vertex positions
v  1.19214 22.9 -1.39823
v  13.3118 22.9 -6.22404
v  0.882761 22.9 -5.28259
v  19.4624 22.9 69.8487
v  0.000488594 22.9 -0.00072376
v  2.90197 22.9 20.1108
v  1.50446 22.9 18.9192
v  3.37727 22.9 26.0853
v  2.17713 22.9 27.3834
v  4.42893 22.9 39.3302
v  3.03142 22.9 38.1386
v  4.8891 22.9 45.1054
v  3.7047 22.9 46.6028
v  5.21653 22.9 65.623
v  6.60558 22.9 66.7144
v  6.9071 22.9 70.4988
v  13.3113 3.81068e-16 -6.22332
v  1.19165 8.55725e-17 -1.39751
v  0.882272 3.23421e-16 -5.28186
v  19.4619 -4.27705e-15 69.8495
v  0 0 0
v  2.90148 -1.23148e-15 20.1116
v  1.50397 -1.15851e-15 18.9199
v  3.37678 -1.59731e-15 26.086
v  2.17664 -1.6768e-15 27.3842
v  4.42844 -2.40833e-15 39.331
v  3.03093 -2.33536e-15 38.1393
v  4.88861 -2.76195e-15 45.1061
v  3.70421 -2.85365e-15 46.6036
v  5.21605 -4.01829e-15 65.6237
v  6.60509 -4.08512e-15 66.7151
v  6.90661 -4.31685e-15 70.4995

# 0 UV coordinates

# 41 vertex normals
vn 0 1 0
vn 0 -1 -6.12323e-17
vn 3.56024e-24 -1 -6.12323e-17
vn -3.835e-24 -1 -6.12323e-17
vn 0 -1 -6.12323e-17
vn 6.87288e-23 -1 -6.12324e-17
vn -4.49955e-23 -1 -6.12323e-17
vn 1.44242e-23 -1 -6.12323e-17
vn 0 -1 -6.12323e-17
vn -6.04488e-23 -1 -6.12323e-17
vn -6.98317e-23 -1 -6.12323e-17
vn 2.07084e-23 -1 -6.12324e-17
vn -1.28062e-23 -1 -6.12323e-17
vn 7.93144e-23 -1 -6.12326e-17
vn 7.76716e-24 -1 -6.12323e-17
vn -0.784316 -2.90303e-06 -0.620361
vn -0.784316 -2.91119e-06 -0.620361
vn -0.996856 2.37838e-05 0.079236
vn -0.996856 2.37735e-05 0.079236
vn -0.617825 3.80734e-05 0.786316
vn -0.996841 2.37894e-05 0.079422
vn 0.0517077 3.05047e-05 0.998662
vn 0.996747 -2.37994e-05 -0.0805888
vn -0.07553 -2.99069e-05 -0.997144
vn -0.07553 -2.99079e-05 -0.997144
vn -0.996843 2.37798e-05 0.0793969
vn -0.996843 2.37776e-05 0.0793969
vn -0.760924 -4.27169e-06 -0.648841
vn -0.760924 -4.26906e-06 -0.648841
vn -0.996855 2.37722e-05 0.0792416
vn -0.996855 2.37733e-05 0.0792416
vn -0.648838 3.78616e-05 0.760926
vn -0.648838 3.7865e-05 0.760926
vn -0.99685 2.37859e-05 0.0793045
vn -0.99685 2.37689e-05 0.0793045
vn -0.734288 -5.82109e-06 -0.678839
vn -0.734288 -5.81344e-06 -0.678839
vn -0.99686 2.37718e-05 0.0791818
vn -0.648838 3.79182e-05 0.760926
vn -0.648838 3.7925e-05 0.760926
vn -0.996841 2.37688e-05 0.0794283

# Mesh 'defaultobject' with 60 faces
g defaultobject
usemtl DefaultMaterial
f  1//1 2//1 3//1
f  2//1 1//1 4//1
f  4//1 1//1 5//1
f  4//1 5//1 6//1
f  6//1 5//1 7//1
f  4//1 6//1 8//1
f  4//1 8//1 9//1
f  4//1 9//1 10//1
f  10//1 9//1 11//1
f  4//1 10//1 12//1
f  4//1 12//1 13//1
f  4//1 13//1 14//1
f  4//1 14//1 15//1
f  4//1 15//1 16//1
f  17//2 18//2 19//2
f  18//2 17//2 20//3
f  18//2 20//3 21//4
f  21//4 20//3 22//5
f  21//4 22//5 23//6
f  22//5 20//3 24//7
f  24//7 20//3 25//8
f  25//8 20//3 26//9
f  25//8 26//9 27//10
f  26//9 20//3 28//11
f  28//11 20//3 29//12
f  29//12 20//3 30//13
f  30//13 20//3 31//14
f  31//14 20//3 32//15
f  13//16 28//16 29//16
f  28//16 13//16 12//17
f  14//18 29//18 30//18
f  29//18 14//18 13//19
f  15//20 30//20 31//20
f  30//20 15//20 14//20
f  16//21 31//21 32//21
f  31//21 16//21 15//21
f  20//22 16//22 32//22
f  16//22 20//22 4//22
f  17//23 4//23 20//23
f  4//23 17//23 2//23
f  3//24 17//24 19//24
f  17//24 3//24 2//25
f  1//26 19//26 18//26
f  19//26 1//26 3//27
f  5//28 18//28 21//28
f  18//28 5//28 1//29
f  7//30 21//30 23//30
f  21//30 7//30 5//31
f  6//32 23//32 22//32
f  23//32 6//32 7//33
f  8//34 22//34 24//34
f  22//34 8//34 6//35
f  9//36 24//36 25//36
f  24//36 9//36 8//37
f  11//38 25//38 27//38
f  25//38 11//38 9//38
f  10//39 27//39 26//39
f  27//39 10//39 11//40
f  12//41 26//41 28//41
f  26//41 12//41 10//41

