# {"id":"BLDG_00030009006dad55","idOriginal":"BLDG_00030009006dad55","origin":[13.385388863689935,52.54010052873852],"elevation":41.9099998474121}
# Longitude: 13.385388863689935
# Latitude: 52.54010052873852
# Elevation: 41.9099998474121

# File produced by Open Asset Import Library (http://www.assimp.sf.net)
# (assimp v3.1.0)

mtllib BLDG_00030009006dad55.obj.mtl

# 10 vertex positions
v  7.52035 22.9285 13.2389
v  0 0 0
v  7.51986 -8.10693e-16 13.2396
v  0.000489393 22.9285 -0.000725999
v  3.76044 23.8214 6.61906
v  16.0753 4.93573e-16 -8.06065
v  16.0758 22.9285 -8.06138
v  23.5951 -3.1712e-16 5.17897
v  23.5956 22.9285 5.17824
v  19.8357 23.8214 -1.4416

# 0 UV coordinates

# 15 vertex normals
vn -0.869531 3.4186e-05 0.493878
vn -0.869531 3.41974e-05 0.493878
vn -0.869531 3.42337e-05 0.493878
vn -0.448237 -1.87372e-05 -0.893915
vn -0.448237 -1.87491e-05 -0.893915
vn 0.869531 -3.41498e-05 -0.493878
vn 0.869531 -3.42222e-05 -0.493878
vn 0.869531 -3.50755e-05 -0.493878
vn 0.448237 1.86884e-05 0.893915
vn 0.448237 1.86514e-05 0.893915
vn 0 -1 -6.12323e-17
vn -0.0522796 0.993175 -0.104261
vn -0.0522796 0.993175 -0.104261
vn 0.0522794 0.993175 0.10426
vn 0.0522794 0.993175 0.10426

# Mesh 'defaultobject' with 16 faces
g defaultobject
usemtl DefaultMaterial
f  1//1 2//1 3//1
f  2//1 1//1 4//2
f  4//2 1//1 5//3
f  4//4 6//4 2//4
f  6//4 4//4 7//5
f  7//6 8//6 6//6
f  8//6 7//6 9//7
f  9//7 7//6 10//8
f  8//9 1//9 3//9
f  1//9 8//9 9//10
f  6//11 3//11 2//11
f  3//11 6//11 8//11
f  7//12 5//12 10//12
f  5//12 7//12 4//13
f  10//14 1//14 9//14
f  1//14 10//14 5//15

