# {"id":"BLDG_0003000a0018ebe1","idOriginal":"BLDG_0003000a0018ebe1","origin":[13.381450209474274,52.559414590450224],"elevation":39.5400009155273}
# Longitude: 13.381450209474274
# Latitude: 52.559414590450224
# Elevation: 39.5400009155273

# File produced by Open Asset Import Library (http://www.assimp.sf.net)
# (assimp v3.1.0)

mtllib BLDG_0003000a0018ebe1.obj.mtl

# 29 vertex positions
v  11.6585 7.33774e-16 -11.9834
v  17.5588 -3.07582e-16 5.0232
v  6.14943 2.02631e-17 -0.330922
v  23.1227 4.04304e-16 -6.60278
v  13.8834 1.79811e-15 -29.3654
v  6.7539 8.74729e-16 -14.2854
v  18.7881 1.65715e-15 -27.0634
v  1.24465 1.61201e-16 -2.63261
v  4.90478 -1.40937e-16 2.30168
v  0 0 0
v  11.659 19.3817 -11.9841
v  9.86528 21.2405 -8.19015
v  10.186 21.1114 -8.86851
v  23.1231 19.3817 -6.6034
v  17.5592 19.3817 5.02258
v  21.6355 21.1114 -3.49484
v  20.0696 21.7354 -0.22287
v  6.14985 19.3817 -0.331536
v  6.75438 22.2362 -14.2861
v  13.8839 22.2362 -29.3661
v  18.7885 19.3817 -27.064
v  6.75432 19.3817 -14.286
v  1.24513 22.2362 -2.63331
v  3.99975 22.2362 -8.45972
v  8.48114 21.7975 -5.26251
v  8.6354 21.7354 -5.58879
v  8.90446 22.2362 -6.15789
v  0.000474519 22.2362 -0.00070498
v  4.9052 19.3817 2.30107

# 0 UV coordinates

# 43 vertex normals
vn 0 -1 -6.12323e-17
vn -5.18954e-24 -1 -6.12323e-17
vn 0 -1 -6.12323e-17
vn -3.74902e-23 -1 -6.12323e-17
vn -3.35546e-24 -1 -6.12323e-17
vn -0.904053 6.14829e-06 -0.427421
vn 0.424876 -3.78033e-05 -0.905251
vn 0.424876 -3.77811e-05 -0.905251
vn 0.902025 -5.57285e-06 0.431685
vn 0.902025 -5.47549e-06 0.431685
vn 0.902025 -5.95725e-06 0.431684
vn -0.424822 3.7761e-05 0.905277
vn -0.424822 3.77923e-05 0.905277
vn -0.904053 5.74286e-06 -0.427421
vn -0.904053 5.74392e-06 -0.427421
vn 0.424876 -3.78051e-05 -0.905251
vn 0.424877 -3.77588e-05 -0.905251
vn 0.904053 -5.73454e-06 0.427421
vn 0.904053 -5.75814e-06 0.427421
vn -0.424876 3.77459e-05 0.905251
vn -0.904053 5.73828e-06 -0.427421
vn -0.904053 5.76189e-06 -0.427421
vn -0.904053 5.59875e-06 -0.427421
vn -0.904053 5.71202e-06 -0.427421
vn -0.904053 5.16796e-06 -0.427421
vn -0.904053 5.74143e-06 -0.427421
vn 0.904053 -5.75775e-06 0.427421
vn 0.904053 -5.75352e-06 0.427421
vn -0.424822 3.77669e-05 0.905277
vn -0.424822 3.77711e-05 0.905277
vn 0.190592 0.893738 -0.406087
vn 0.190598 0.893734 -0.406093
vn 0.0720171 0.985527 -0.153461
vn 0.0720337 0.985523 -0.153479
vn -0.159388 0.926949 0.339649
vn -0.159395 0.926946 0.339654
vn 0.421397 0.884722 0.199229
vn 0.421397 0.884722 0.199229
vn 0.172069 0.914323 -0.366613
vn 0.172054 0.914327 -0.36661
vn -0.172053 0.914328 0.366608
vn 0.421397 0.884722 0.199229
vn 0.421397 0.884722 0.199229

# Mesh 'defaultobject' with 49 faces
g defaultobject
usemtl DefaultMaterial
f  1//1 2//1 3//1
f  2//1 1//1 4//2
f  5//3 1//1 6//3
f  1//1 5//3 7//4
f  6//3 3//1 8//1
f  3//1 6//3 1//1
f  8//1 9//5 10//5
f  9//5 8//1 3//1
f  11//6 12//6 13//6
f  11//7 4//7 1//7
f  4//7 11//7 14//8
f  14//9 2//9 4//9
f  2//9 14//9 15//9
f  15//9 14//9 16//10
f  15//9 16//10 17//11
f  2//12 18//12 3//12
f  18//12 2//12 15//13
f  19//14 5//14 6//14
f  5//14 19//14 20//15
f  20//16 7//16 5//16
f  7//16 20//16 21//17
f  7//18 11//18 1//18
f  11//18 7//18 21//19
f  19//20 22//20 11//20
f  23//21 6//14 8//21
f  6//14 23//21 22//22
f  22//22 23//21 24//23
f  25//24 26//24 18//24
f  27//25 12//6 25//24
f  28//26 8//21 10//26
f  8//21 28//26 23//21
f  3//27 29//27 9//27
f  29//27 3//27 18//28
f  9//29 28//29 10//29
f  28//29 9//29 29//30
f  16//31 11//31 13//31
f  11//32 16//32 14//32
f  17//33 13//33 26//33
f  13//34 17//34 16//34
f  15//35 26//35 18//35
f  26//35 15//35 17//36
f  11//37 20//37 19//37
f  20//37 11//37 21//38
f  22//39 27//39 11//39
f  27//40 22//40 24//40
f  27//41 24//41 18//41
f  24//42 23//42 18//42
f  29//43 23//42 28//43
f  23//42 29//43 18//42

