# {"id":"BLDG_0003000e0055911b","idOriginal":"BLDG_0003000e0055911b","origin":[13.398859276026837,52.52565857013668],"elevation":35.2999992370605}
# Longitude: 13.398859276026837
# Latitude: 52.52565857013668
# Elevation: 35.2999992370605

# File produced by Open Asset Import Library (http://www.assimp.sf.net)
# (assimp v3.1.0)

mtllib BLDG_0003000e0055911b.obj.mtl

# 45 vertex positions
v  52.531 3.98597e-16 -6.50959
v  38.9423 5.18701e-16 -8.47103
v  51.5796 6.87026e-16 -11.22
v  39.8937 2.30272e-16 -3.76062
v  16.2574 2.16544e-16 -3.53644
v  17.2107 -7.18594e-17 1.17355
v  6.50771 -2.14421e-16 3.50176
v  5.46873 7.2842e-17 -1.1896
v  1.03898 -2.87263e-16 4.69136
v  0 0 0
v  53.9556 -3.32947e-17 0.543743
v  41.3399 -2.08161e-16 3.39952
v  18.6986 -5.21991e-16 8.52475
v  8.14901 -6.68218e-16 10.9128
v  53.956 17.4819 0.54319
v  41.3403 17.4819 3.39897
v  49.2129 21.6171 1.61676
v  45.3757 20.8795 2.48538
v  39.8941 17.4819 -3.76118
v  52.5314 17.4819 -6.51014
v  17.2111 17.4819 1.173
v  12.2719 21.1994 2.24731
v  14.0264 20.8059 1.86567
v  11.6367 21.3418 2.38548
v  6.50808 17.4819 3.5012
v  11.1769 21.4449 2.48549
v  18.699 17.4819 8.5242
v  8.14939 17.4819 10.9123
v  15.5202 20.8059 9.24367
v  12.8095 21.4449 9.85727
v  38.9428 21.5096 -8.47171
v  51.58 17.4819 -11.2205
v  42.9857 20.8795 -9.35114
v  46.828 21.6171 -10.187
v  16.2579 21.5096 -3.53712
v  16.2578 17.4819 -3.53699
v  11.8597 21.5096 2.33697
v  5.46899 11.9762 -1.18998
v  6.50796 11.9762 3.50138
v  5.4691 17.4819 -1.19015
v  10.8635 21.5096 -2.3637
v  1.03922 11.1555 4.691
v  0.000255835 11.9762 -0.00037885
v  47.7794 21.6171 -5.47656
v  43.9371 20.8795 -4.64073

# 0 UV coordinates

# 68 vertex normals
vn -5.96338e-24 -1 -6.12323e-17
vn -3.40764e-24 -1 -6.12324e-17
vn 5.93228e-25 -1 -6.12324e-17
vn 7.11933e-25 -1 -6.12323e-17
vn 0 -1 -6.12323e-17
vn 1.99576e-24 -1 -6.12323e-17
vn -1.96862e-24 -1 -6.12323e-17
vn -2.57916e-24 -1 -6.12323e-17
vn 0.220781 2.61316e-05 0.975323
vn 0.220781 2.61382e-05 0.975323
vn 0.220781 2.62089e-05 0.975323
vn 0.220781 2.63952e-05 0.975324
vn -0.980206 2.72254e-05 0.197981
vn 0.980206 -2.72239e-05 -0.197982
vn -0.212557 -2.62528e-05 -0.977149
vn -0.212557 -2.59941e-05 -0.977149
vn 0.980126 -2.72388e-05 -0.198378
vn 0.220781 2.61382e-05 0.975323
vn 0.220781 2.6206e-05 0.975323
vn 0.220781 2.6134e-05 0.975323
vn -0.976343 2.77201e-05 0.216227
vn -0.976343 2.76935e-05 0.216227
vn -0.212557 -2.64097e-05 -0.977149
vn -0.212557 -2.63719e-05 -0.977149
vn -0.212556 -2.53094e-05 -0.977149
vn -0.212557 -2.65715e-05 -0.977149
vn 0.980206 -2.7222e-05 -0.197981
vn -0.212557 -2.63692e-05 -0.977149
vn 0.212557 2.63767e-05 0.977149
vn -0.980126 2.71685e-05 0.198378
vn -0.212557 -2.62534e-05 -0.977149
vn -0.976343 2.76467e-05 0.216227
vn -0.976343 2.77312e-05 0.216227
vn -0.212557 -2.63652e-05 -0.977149
vn -0.212557 -2.63585e-05 -0.977149
vn -0.212557 -2.63559e-05 -0.977149
vn -0.976343 2.76957e-05 0.216227
vn -0.976343 2.76965e-05 0.216227
vn -0.212557 -2.637e-05 -0.977149
vn -0.212557 -2.6356e-05 -0.977149
vn 0.212557 2.63649e-05 0.977149
vn 0.212557 2.6358e-05 0.977149
vn 0.635017 0.761776 -0.12826
vn 0.635017 0.761776 -0.12826
vn -0.180739 0.982853 0.0365056
vn -0.180739 0.982853 0.0365056
vn -0.622102 0.772788 0.125652
vn 0.248992 0.760366 0.599872
vn 0.136546 0.766373 0.627717
vn 0.136546 0.766373 0.627717
vn -0.576596 0.807841 0.122189
vn -0.578448 0.805597 0.128107
vn 0.577736 0.807804 -0.116934
vn 0.579611 0.805583 -0.122828
vn 0.0357884 0.985724 0.164524
vn -0.141666 0.989417 0.0313742
vn -0.622114 0.772787 0.125595
vn -0.622162 0.772738 0.125664
vn -0.180735 0.982853 0.036525
vn -0.180679 0.982866 0.0364761
vn 0.635017 0.761776 -0.12826
vn 0.635061 0.761726 -0.128341
vn 0.699933 0.700008 -0.141717
vn 0.699889 0.700063 -0.141658
vn 0.218764 0.974574 -0.0484483
vn 0.209807 0.97682 -0.04248
vn -0.623308 0.769695 0.138042
vn -0.623307 0.769697 0.13804

# Mesh 'defaultobject' with 79 faces
g defaultobject
usemtl DefaultMaterial
f  1//1 2//1 3//1
f  2//1 1//1 4//2
f  4//2 5//3 2//1
f  5//3 4//2 6//4
f  7//5 5//3 6//4
f  5//3 7//5 8//6
f  8//6 9//7 10//7
f  9//7 8//6 7//5
f  4//2 11//5 12//5
f  11//5 4//2 1//1
f  13//5 7//5 6//4
f  7//5 13//5 14//8
f  15//9 12//9 11//9
f  12//9 15//9 16//10
f  16//10 15//9 17//11
f  16//10 17//11 18//12
f  16//13 4//13 12//13
f  4//13 16//13 19//13
f  1//14 15//14 11//14
f  15//14 1//14 20//14
f  21//15 22//15 23//15
f  24//16 25//16 26//16
f  6//17 27//17 13//17
f  27//17 6//17 21//17
f  27//18 14//18 13//18
f  14//18 27//18 28//18
f  28//18 27//18 29//19
f  28//18 29//19 30//20
f  28//21 7//21 14//21
f  7//21 28//21 25//22
f  31//23 3//23 2//23
f  3//23 31//23 32//24
f  32//24 31//23 33//25
f  32//24 33//25 34//26
f  3//27 20//14 1//14
f  20//14 3//27 32//27
f  35//28 2//23 5//28
f  2//23 35//28 31//23
f  4//29 21//29 6//29
f  21//29 4//29 19//29
f  35//30 36//30 21//30
f  37//31 22//15 24//16
f  25//22 38//32 39//32
f  38//32 25//22 40//33
f  40//34 5//28 8//34
f  5//28 40//34 36//35
f  36//35 40//34 41//36
f  42//37 10//37 9//37
f  10//37 42//37 43//38
f  43//39 8//34 10//39
f  8//34 43//39 38//40
f  7//41 42//41 9//41
f  42//41 7//41 39//42
f  20//43 34//43 44//43
f  34//43 20//43 32//44
f  44//45 33//45 45//45
f  33//45 44//45 34//46
f  33//47 19//47 45//47
f  33//48 31//48 19//48
f  19//49 35//49 21//49
f  35//49 19//49 31//50
f  40//51 37//51 41//51
f  37//52 40//52 25//52
f  41//53 21//53 36//53
f  21//54 41//54 37//54
f  43//55 42//55 38//55
f  38//56 42//56 39//56
f  19//57 18//57 45//57
f  18//58 19//58 16//58
f  45//59 17//59 44//59
f  17//60 45//60 18//60
f  44//43 15//61 20//43
f  15//62 44//62 17//62
f  27//63 23//63 29//63
f  23//64 27//64 21//64
f  29//65 26//65 30//65
f  26//66 29//66 23//66
f  30//67 25//67 28//67
f  25//67 30//67 26//68

