# {"id":"BLDG_0003000f001c3826","idOriginal":"BLDG_0003000f001c3826","origin":[13.344057095562958,52.54382400653144],"elevation":35.3199996948242}
# Longitude: 13.344057095562958
# Latitude: 52.54382400653144
# Elevation: 35.3199996948242

# File produced by Open Asset Import Library (http://www.assimp.sf.net)
# (assimp v3.1.0)

mtllib BLDG_0003000f001c3826.obj.mtl

# 44 vertex positions
v  3.36847 4.00782 29.9135
v  2.11311 -1.19634e-15 19.5377
v  3.36838 -1.83168e-15 29.9136
v  2.11319 4.00782 19.5375
v  10.2766 -1.12964e-15 18.4484
v  10.2767 4.00782 18.4483
v  11.5319 4.00782 28.8242
v  11.5319 -1.76498e-15 28.8244
v  -64.3077 4.08377 36.5973
v  -65.3158 -0.0299988 26.6224
v  -64.3078 -0.0299988 36.5974
v  -65.3157 4.08377 26.6223
v  -57.0903 -0.0299988 25.5901
v  -57.0902 4.08377 25.59
v  -56.0821 4.08377 35.5651
v  -56.0822 -0.0299988 35.5652
v  -61.072 -2.04 25.9312
v  -65.5932 7.57578 26.389
v  -65.5934 -2.04 26.3893
v  -56.5506 -2.04 25.4731
v  2.19344 -2.04 19.5215
v  -56.5504 7.57578 25.4728
v  2.19364 7.57578 19.5212
v  6.42423 -2.04 19.0928
v  10.655 -2.04 18.6642
v  10.6552 7.57578 18.6639
v  6.42458 14.5175 19.0923
v  -61.0716 14.5175 25.9307
v  8.46178 7.57578 -0.857588
v  0.000204703 7.57578 -0.00030456
v  4.23114 14.5175 -0.429166
v  -58.5683 7.57578 5.93356
v  -67.6112 7.57578 6.84973
v  -63.0896 14.5175 6.39142
v  -67.6114 -2.04 6.85004
v  -63.0899 -2.04 6.39195
v  -58.5685 -2.04 5.93386
v  0 -2.04 -1.24914e-16
v  4.23079 -2.04 -0.428642
v  8.46158 -2.04 -0.857284
v  -62.0806 14.5175 16.1611
v  -57.5592 14.5175 15.703
v  1.09707 14.5175 9.76022
v  5.32786 14.5175 9.33158

# 0 UV coordinates

# 60 vertex normals
vn -0.992761 2.49723e-05 0.120104
vn -0.132261 -2.87889e-05 -0.991215
vn -0.132261 -2.83329e-05 -0.991215
vn 0.992761 -2.50894e-05 -0.120103
vn 0.992761 -2.48162e-05 -0.120104
vn 0.132261 2.87769e-05 0.991215
vn -0.994933 2.53123e-05 0.100543
vn -0.994933 2.34672e-05 0.100543
vn -0.124515 -2.87426e-05 -0.992218
vn -0.124515 -2.86272e-05 -0.992218
vn 0.994933 -2.43944e-05 -0.100543
vn 0.124515 2.85234e-05 0.992218
vn 0.124515 2.86353e-05 0.992218
vn 0.100799 2.92161e-05 0.994907
vn 0.100799 2.91779e-05 0.994907
vn 0.100799 2.92606e-05 0.994907
vn 0.100799 3.04218e-05 0.994907
vn 0.100799 2.94017e-05 0.994907
vn 0.100799 2.9431e-05 0.994907
vn 0.100799 2.94273e-05 0.994907
vn 0.100799 2.929e-05 0.994907
vn 0.100799 2.9444e-05 0.994907
vn -0.100799 -2.93627e-05 -0.994907
vn -0.100799 -2.9376e-05 -0.994907
vn -0.100799 -2.93666e-05 -0.994907
vn -0.100799 -2.96798e-05 -0.994907
vn -0.100799 -2.91124e-05 -0.994907
vn -0.100799 -2.93819e-05 -0.994907
vn -0.100799 -2.93748e-05 -0.994907
vn -0.100799 -2.93748e-05 -0.994907
vn 0.993747 -2.47386e-05 -0.111658
vn 0.993747 -2.46376e-05 -0.111658
vn -0.994709 2.45491e-05 0.10273
vn -0.994709 2.45644e-05 0.10273
vn 4.92053e-24 -1 -6.12324e-17
vn -1.47616e-23 -1 -6.12323e-17
vn 0 -1 0
vn 2.84712e-07 -1 2.90754e-08
vn -2.7063e-08 -1 -6.68209e-08
vn 0.100774 -0.0221522 0.994663
vn -0.100799 0 -0.994907
vn 0 1 0
vn 0.832236 0.547719 -0.0859503
vn 0.0581779 0.816626 0.574228
vn 0.0581778 0.816626 0.574228
vn 0.0581779 0.816626 0.574228
vn 0.0581779 0.816626 0.574228
vn -0.0581794 0.816614 -0.574244
vn -0.0581797 0.816614 -0.574245
vn -0.0581795 0.816614 -0.574244
vn -0.0581794 0.816614 -0.574244
vn 0.847411 0.52233 -0.0952153
vn 0.847411 0.52233 -0.0952154
vn 0.847411 0.52233 -0.0952154
vn -0.847392 0.52236 0.0952133
vn -0.847392 0.52236 0.0952132
vn -0.832218 0.547747 0.0859484
vn -0.832218 0.547747 0.0859484
vn -0.832218 0.547747 0.0859484
vn 0.832236 0.547719 -0.0859503

# Mesh 'defaultobject' with 76 faces
g defaultobject
usemtl DefaultMaterial
f  1//1 2//1 3//1
f  2//1 1//1 4//1
f  4//2 5//2 2//2
f  5//2 4//2 6//3
f  5//4 7//4 8//4
f  7//4 5//4 6//5
f  8//6 1//6 3//6
f  1//6 8//6 7//6
f  9//7 10//7 11//7
f  10//7 9//7 12//8
f  12//9 13//9 10//9
f  13//9 12//9 14//10
f  13//11 15//11 16//11
f  15//11 13//11 14//11
f  16//12 9//12 11//12
f  9//12 16//12 15//13
f  17//14 18//14 19//14
f  18//14 17//14 20//15
f  18//14 20//15 21//16
f  18//14 21//16 22//17
f  22//17 21//16 23//18
f  23//18 21//16 24//19
f  23//18 24//19 25//20
f  23//18 25//20 26//20
f  23//18 26//20 27//21
f  28//22 18//14 22//17
f  29//23 30//23 31//23
f  32//24 33//24 34//24
f  33//24 32//24 35//25
f  35//25 32//24 30//23
f  35//25 30//23 36//26
f  36//26 30//23 37//27
f  37//27 30//23 38//28
f  38//28 30//23 29//23
f  38//28 29//23 39//29
f  39//29 29//23 40//30
f  40//31 26//31 25//31
f  26//31 40//31 29//32
f  18//33 35//33 19//33
f  35//33 18//33 33//34
f  2//35 8//35 3//35
f  8//35 2//35 5//36
f  10//37 16//37 11//37
f  16//37 10//37 13//37
f  24//37 40//37 25//37
f  40//37 24//37 21//38
f  40//37 21//38 20//39
f  40//37 20//39 17//37
f  40//37 17//37 19//37
f  40//37 19//37 35//37
f  40//37 35//37 39//37
f  39//40 35//40 38//40
f  38//41 35//41 37//41
f  37//42 35//42 36//42
f  22//43 41//43 28//43
f  7//42 4//42 1//42
f  4//42 7//42 6//42
f  15//42 12//42 9//42
f  12//42 15//42 14//42
f  22//44 42//44 41//44
f  42//44 22//44 43//45
f  43//45 22//44 44//46
f  44//46 22//44 23//47
f  41//48 30//48 32//48
f  30//48 41//48 42//49
f  30//48 42//49 43//50
f  30//48 43//50 44//51
f  44//52 29//52 31//52
f  29//52 44//52 26//53
f  26//53 44//52 27//54
f  44//55 23//55 27//55
f  30//56 44//55 31//56
f  41//57 18//57 28//57
f  18//57 41//57 33//58
f  33//58 41//57 34//59
f  41//43 32//60 34//60

