# {"id":"BLDG_0003000b001f2be6","idOriginal":"BLDG_0003000b001f2be6","origin":[13.367126506445873,52.50116924056537],"elevation":32.25}
# Longitude: 13.367126506445873
# Latitude: 52.50116924056537
# Elevation: 32.25

# File produced by Open Asset Import Library (http://www.assimp.sf.net)
# (assimp v3.1.0)

mtllib BLDG_0003000b001f2be6.obj.mtl

# 38 vertex positions
v  11.1141 -0.620001 4.56407
v  0.000533111 24.3884 -0.00078983
v  0 -0.620001 -3.79641e-17
v  11.1147 24.3884 4.56328
v  21.2763 -0.620001 -20.6536
v  21.2768 24.3884 -20.6543
v  14.8662 24.3884 -22.9484
v  14.8657 -0.620001 -22.9476
v  16.9432 -0.620001 -28.986
v  16.9437 24.3884 -28.9868
v  23.6796 -0.620001 -26.6193
v  23.6801 24.3884 -26.6201
v  16.9438 27.9073 -28.9869
v  23.6796 1.62997e-15 -26.6194
v  16.9432 1.77488e-15 -28.986
v  23.6802 27.9073 -26.6202
v  14.8663 27.9073 -22.9485
v  14.8657 1.40514e-15 -22.9476
v  21.2763 1.26467e-15 -20.6536
v  21.2769 27.9073 -20.6545
v  21.8317 1.25092e-15 -20.4291
v  21.8323 27.9073 -20.43
v  24.2362 1.61628e-15 -26.3958
v  24.2368 27.9073 -26.3967
v  25.9484 -0.620001 -32.2508
v  25.9489 24.3884 -32.2516
v  28.0974 -0.620001 -37.5824
v  28.0979 24.3884 -37.5832
v  28.8693 -0.620001 -39.4987
v  28.8698 24.3884 -39.4995
v  28.6602 24.3884 -39.5844
v  28.6597 -0.620001 -39.5836
v  17.8322 24.3884 -43.948
v  17.8317 -0.620001 -43.9472
v  17.0356 24.3884 -41.9855
v  17.0351 -0.620001 -41.9847
v  14.9155 24.3884 -36.761
v  14.915 -0.620001 -36.7602

# 0 UV coordinates

# 35 vertex normals
vn -0.379871 3.73001e-05 0.925039
vn 0.927521 -7.98921e-06 0.37377
vn 0.927521 -7.89944e-06 0.37377
vn 0.336929 -3.69112e-05 -0.94153
vn 0.336929 -3.69701e-05 -0.94153
vn 0.945599 -9.88912e-06 0.325334
vn 0.945599 -9.92494e-06 0.325334
vn -0.331467 3.68681e-05 0.943467
vn -0.331467 3.69428e-05 0.943467
vn 0.331467 -3.68589e-05 -0.943467
vn -0.945599 9.8912e-06 -0.325334
vn -0.336929 3.69098e-05 0.94153
vn -0.374729 3.7266e-05 0.927134
vn 0.927514 -7.97354e-06 0.373789
vn 0.372735 -3.72485e-05 -0.927938
vn 0.927552 -7.97692e-06 0.373694
vn 0.927552 -7.93924e-06 0.373694
vn 0.927494 -7.93408e-06 0.373838
vn 0.927494 -8.00705e-06 0.373838
vn 0.927583 -8.01102e-06 0.373618
vn 0.927583 -7.9395e-06 0.373617
vn 0.375312 -3.72817e-05 -0.926899
vn 0.375315 -3.72531e-05 -0.926897
vn 0.373783 -3.72686e-05 -0.927516
vn -0.926588 7.91266e-06 -0.376079
vn -0.926612 7.87972e-06 -0.37602
vn -0.926612 7.91506e-06 -0.37602
vn -0.926632 7.87918e-06 -0.37597
vn -0.926632 7.88173e-06 -0.37597
vn 0 1 -0
vn -1.62555e-23 -1 -6.12324e-17
vn -1.33082e-23 -1 -6.12323e-17
vn 7.90087e-23 -1 -6.12323e-17
vn 5.48769e-23 -1 -6.12323e-17
vn 0 -1 0

# Mesh 'defaultobject' with 68 faces
g defaultobject
usemtl DefaultMaterial
f  1//1 2//1 3//1
f  2//1 1//1 4//1
f  5//2 4//2 1//2
f  4//2 5//2 6//3
f  7//4 5//4 8//4
f  5//4 7//4 6//5
f  9//6 7//6 8//6
f  7//6 9//6 10//7
f  11//8 10//8 9//8
f  10//8 11//8 12//9
f  13//10 14//10 15//10
f  14//10 13//10 16//10
f  17//11 15//11 18//11
f  15//11 17//11 13//11
f  19//12 17//12 18//12
f  17//12 19//12 20//12
f  21//13 20//13 19//13
f  20//13 21//13 22//13
f  23//14 22//14 21//14
f  22//14 23//14 24//14
f  16//15 23//15 14//15
f  23//15 16//15 24//15
f  25//16 12//16 11//16
f  12//16 25//16 26//17
f  27//18 26//18 25//18
f  26//18 27//18 28//19
f  29//20 28//20 27//20
f  28//20 29//20 30//21
f  31//22 29//22 32//22
f  29//22 31//22 30//23
f  33//24 32//24 34//24
f  32//24 33//24 31//24
f  35//25 34//25 36//25
f  34//25 35//25 33//25
f  37//26 36//26 38//26
f  36//26 37//26 35//27
f  2//28 38//28 3//28
f  38//28 2//28 37//29
f  16//30 22//30 24//30
f  22//30 16//30 13//30
f  22//30 13//30 20//30
f  20//30 13//30 17//30
f  6//30 2//30 4//30
f  2//30 6//30 7//30
f  7//30 37//30 2//30
f  37//30 7//30 10//30
f  37//30 10//30 12//30
f  37//30 12//30 26//30
f  37//30 26//30 28//30
f  37//30 28//30 35//30
f  35//30 28//30 30//30
f  35//30 30//30 33//30
f  33//30 30//30 31//30
f  14//31 18//31 15//31
f  18//31 14//31 19//32
f  19//32 14//31 21//33
f  21//33 14//31 23//34
f  1//35 8//35 5//35
f  8//35 1//35 3//35
f  32//35 36//35 34//35
f  36//35 32//35 29//35
f  36//35 29//35 27//35
f  36//35 27//35 25//35
f  36//35 25//35 38//35
f  38//35 25//35 9//35
f  38//35 9//35 3//35
f  9//35 25//35 11//35
f  3//35 9//35 8//35

