# {"id":"BLDG_0003000a0037ea6c","idOriginal":"BLDG_0003000a0037ea6c","origin":[13.387765219716405,52.565813272948546],"elevation":38.7099990844727}
# Longitude: 13.387765219716405
# Latitude: 52.565813272948546
# Elevation: 38.7099990844727

# File produced by Open Asset Import Library (http://www.assimp.sf.net)
# (assimp v3.1.0)

mtllib BLDG_0003000a0037ea6c.obj.mtl

# 10 vertex positions
v  17.6642 7.13052e-16 -11.645
v  11.7234 16.0911 4.34508
v  11.723 -2.66091e-16 4.34559
v  17.6645 16.0911 -11.6455
v  0 0 0
v  0.000343529 16.0911 -0.000510369
v  5.8619 17.9171 2.17223
v  5.91856 9.95535e-16 -16.2583
v  5.91891 16.0911 -16.2588
v  9.62415 17.9171 -8.05807

# 0 UV coordinates

# 15 vertex normals
vn 0.937391 -9.00543e-06 0.348278
vn 0.937391 -8.94984e-06 0.348278
vn -0.347577 3.71953e-05 0.937652
vn -0.347576 3.71603e-05 0.937652
vn -0.347576 3.7096e-05 0.937652
vn -0.939674 9.21142e-06 -0.342072
vn -0.939674 9.18236e-06 -0.342072
vn 0.365579 -3.73683e-05 -0.93078
vn 0.102089 0.960217 -0.259923
vn 0.260961 0.960567 0.0959699
vn 0.262822 0.95989 0.0976491
vn -0.262083 0.960318 -0.0954067
vn -0.263146 0.95989 -0.0967732
vn 4.85087e-24 -1 -6.12323e-17
vn 0 -1 -6.12323e-17

# Mesh 'defaultobject' with 16 faces
g defaultobject
usemtl DefaultMaterial
f  1//1 2//1 3//1
f  2//1 1//1 4//2
f  2//3 5//3 3//3
f  5//3 2//3 6//4
f  6//4 2//3 7//5
f  6//6 8//6 5//6
f  8//6 6//6 9//7
f  9//8 1//8 8//8
f  1//8 9//8 4//8
f  10//9 4//9 9//9
f  7//10 4//10 10//10
f  4//11 7//11 2//11
f  6//12 10//12 9//12
f  10//13 6//13 7//13
f  1//14 5//14 8//14
f  5//14 1//14 3//15

