# {"id":"BLDG_0003000b002c5a5c","idOriginal":"BLDG_0003000b002c5a5c","origin":[13.393949048311049,52.531742531742026],"elevation":34.0800018310547}
# Longitude: 13.393949048311049
# Latitude: 52.531742531742026
# Elevation: 34.0800018310547

# File produced by Open Asset Import Library (http://www.assimp.sf.net)
# (assimp v3.1.0)

mtllib BLDG_0003000b002c5a5c.obj.mtl

# 10 vertex positions
v  14.3797 17.6777 7.40606
v  3.4366 -6.87149e-16 11.222
v  14.3794 -4.53525e-16 7.40662
v  3.43698 17.6777 11.2214
v  8.90848 23.5873 9.31356
v  0 0 0
v  0.000377516 17.6777 -0.000559419
v  10.9428 2.33625e-16 -3.81538
v  10.9431 17.6777 -3.81594
v  5.47188 23.5873 -1.90844

# 0 UV coordinates

# 14 vertex normals
vn 0.329229 2.2843e-05 0.94425
vn 0.329229 2.28685e-05 0.94425
vn 0.329229 2.28932e-05 0.94425
vn -0.956169 2.96997e-05 0.292815
vn -0.956169 2.96857e-05 0.292815
vn -0.329229 -2.28504e-05 -0.94425
vn -0.329229 -2.28558e-05 -0.94425
vn -0.329229 -2.28375e-05 -0.94425
vn 0.956169 -2.97126e-05 -0.292815
vn -0.682969 0.699864 0.209151
vn -0.682969 0.699864 0.209151
vn 0.682989 0.699842 -0.209157
vn 0.682989 0.699842 -0.209157
vn 0 -1 -6.12323e-17

# Mesh 'defaultobject' with 16 faces
g defaultobject
usemtl DefaultMaterial
f  1//1 2//1 3//1
f  2//1 1//1 4//2
f  4//2 1//1 5//3
f  4//4 6//4 2//4
f  6//4 4//4 7//5
f  7//6 8//6 6//6
f  8//6 7//6 9//7
f  9//7 7//6 10//8
f  8//9 1//9 3//9
f  1//9 8//9 9//9
f  7//10 5//10 10//10
f  5//10 7//10 4//11
f  10//12 1//12 9//12
f  1//12 10//12 5//13
f  6//14 3//14 2//14
f  3//14 6//14 8//14

