# {"id":"BLDG_0003000a0018f6bc","idOriginal":"BLDG_0003000a0018f6bc","origin":[13.405433041474993,52.537038838218955],"elevation":50.6100006103516}
# Longitude: 13.405433041474993
# Latitude: 52.537038838218955
# Elevation: 50.6100006103516

# File produced by Open Asset Import Library (http://www.assimp.sf.net)
# (assimp v3.1.0)

mtllib BLDG_0003000a0018f6bc.obj.mtl

# 9 vertex positions
v  0 0 0
v  4.13327 -1.2901e-16 2.10689
v  0.905437 -1.94816e-16 3.18159
v  3.22784 6.58062e-17 -1.0747
v  2.06671 3.61998 1.05333
v  3.4621e-05 1.61998 -5.12898e-05
v  0.905472 1.61998 3.18154
v  3.22787 1.61998 -1.07475
v  4.13331 1.61998 2.10684

# 0 UV coordinates

# 13 vertex normals
vn 0 -1 -6.12323e-17
vn -2.35439e-24 -1 -6.12323e-17
vn -0.732945 0.647521 0.208586
vn -0.243537 0.636911 -0.73146
vn 0.732966 0.647495 -0.208592
vn 0.243532 0.636932 0.731444
vn -0.96181 2.92217e-05 0.273718
vn -0.96181 2.92212e-05 0.273718
vn -0.315897 -2.32884e-05 -0.948793
vn -0.315897 -2.32808e-05 -0.948793
vn 0.96181 -2.93198e-05 -0.273718
vn 0.96181 -2.91863e-05 -0.273718
vn 0.315897 2.32308e-05 0.948793

# Mesh 'defaultobject' with 14 faces
g defaultobject
usemtl DefaultMaterial
f  1//1 2//1 3//1
f  2//1 1//1 4//2
f  5//3 6//3 7//3
f  5//4 8//4 6//4
f  5//5 9//5 8//5
f  5//6 7//6 9//6
f  7//7 1//7 3//7
f  1//7 7//7 6//8
f  6//9 4//9 1//9
f  4//9 6//9 8//10
f  4//11 9//11 2//11
f  9//11 4//11 8//12
f  2//13 7//13 3//13
f  7//13 2//13 9//13

