# {"id":"BLDG_0003000f001bfabf","idOriginal":"BLDG_0003000f001bfabf","origin":[13.362487735921745,52.54410699050799],"elevation":36.2400016784668}
# Longitude: 13.362487735921745
# Latitude: 52.54410699050799
# Elevation: 36.2400016784668

# File produced by Open Asset Import Library (http://www.assimp.sf.net)
# (assimp v3.1.0)

mtllib BLDG_0003000f001bfabf.obj.mtl

# 24 vertex positions
v  8.40327 -5.32308e-16 8.69324
v  20.1919 -5.13875e-17 0.839222
v  10.4866 -6.49108e-16 10.6007
v  15.7966 2.10339e-16 -3.43509
v  8.47765 -4.34369e-16 7.09379
v  7.74192 -4.27512e-16 6.98179
v  6.46532 -3.48449e-16 5.6906
v  4.73483 -2.41304e-16 3.9408
v  14.0176 3.16315e-16 -5.16582
v  4.15031 -2.40807e-16 3.93268
v  0 0 0
v  9.48391 5.86346e-16 -9.57576
v  4.15079 22.3599 3.93197
v  4.73531 22.3599 3.94009
v  6.46579 22.3599 5.68989
v  7.74239 22.3599 6.98108
v  8.47812 22.3599 7.09308
v  8.40374 22.3599 8.69254
v  10.487 22.3599 10.6
v  20.1924 22.3599 0.838513
v  15.7971 22.3599 -3.4358
v  14.018 22.3599 -5.16653
v  9.48439 22.3599 -9.57647
v  0.000476565 22.3599 -0.0007082

# 0 UV coordinates

# 33 vertex normals
vn -2.7254e-24 -1 -6.12323e-17
vn -4.9879e-24 -1 -6.12323e-17
vn -7.75439e-23 -1 -6.12323e-17
vn 9.88822e-23 -1 -6.12322e-17
vn 0 -1 -6.12323e-17
vn -1.31855e-23 -1 -6.12323e-17
vn 1.64066e-24 -1 -6.12323e-17
vn 7.84527e-23 -1 -6.12323e-17
vn -2.76568e-24 -1 -6.12323e-17
vn -2.48436e-24 -1 -6.12323e-17
vn -0.0138905 3.19613e-05 0.999904
vn -0.0138901 3.19719e-05 0.999904
vn -0.71102 3.7416e-05 0.703171
vn -0.71102 3.74235e-05 0.703171
vn -0.711113 3.7415e-05 0.703078
vn -0.150487 3.45138e-05 0.988612
vn -0.150486 3.45384e-05 0.988612
vn -0.99892 1.98324e-05 -0.0464536
vn -0.99892 1.98304e-05 -0.0464535
vn -0.675304 3.77422e-05 0.737539
vn 0.709145 7.18845e-06 0.705063
vn 0.709145 7.21324e-06 0.705062
vn 0.697175 -3.75663e-05 -0.716901
vn 0.697175 -3.75802e-05 -0.716901
vn 0.697303 -3.75769e-05 -0.716776
vn 0.697303 -3.75425e-05 -0.716777
vn 0.697258 -3.75348e-05 -0.71682
vn 0.697259 -3.75753e-05 -0.71682
vn -0.710506 -7.14455e-06 -0.703691
vn -0.710506 -7.14786e-06 -0.703691
vn -0.687819 3.7641e-05 0.725882
vn -0.687819 3.76504e-05 0.725882
vn 0 1 0

# Mesh 'defaultobject' with 44 faces
g defaultobject
usemtl DefaultMaterial
f  1//1 2//1 3//1
f  2//1 1//1 4//2
f  4//2 1//1 5//3
f  4//2 5//3 6//4
f  4//2 6//4 7//5
f  4//2 7//5 8//6
f  4//2 8//6 9//7
f  9//7 8//6 10//8
f  9//7 10//8 11//9
f  9//7 11//9 12//10
f  8//11 13//11 10//11
f  13//11 8//11 14//12
f  15//13 8//13 7//13
f  8//13 15//13 14//14
f  16//15 7//15 6//15
f  7//15 16//15 15//15
f  5//16 16//16 6//16
f  16//16 5//16 17//17
f  18//18 5//18 1//18
f  5//18 18//18 17//19
f  19//20 1//20 3//20
f  1//20 19//20 18//20
f  2//21 19//21 3//21
f  19//21 2//21 20//22
f  4//23 20//23 2//23
f  20//23 4//23 21//24
f  9//25 21//25 4//25
f  21//25 9//25 22//26
f  12//27 22//27 9//27
f  22//27 12//27 23//28
f  24//29 12//29 11//29
f  12//29 24//29 23//30
f  13//31 11//31 10//31
f  11//31 13//31 24//32
f  20//33 18//33 19//33
f  18//33 20//33 17//33
f  17//33 20//33 15//33
f  15//33 20//33 14//33
f  14//33 20//33 24//33
f  24//33 20//33 21//33
f  24//33 21//33 23//33
f  23//33 21//33 22//33
f  24//33 13//33 14//33
f  15//33 16//33 17//33

