# {"id":"BLDG_000300060008b71a","idOriginal":"BLDG_000300060008b71a","origin":[13.40701205444069,52.510434459231746],"elevation":34.1399993896484}
# Longitude: 13.40701205444069
# Latitude: 52.510434459231746
# Elevation: 34.1399993896484

# File produced by Open Asset Import Library (http://www.assimp.sf.net)
# (assimp v3.1.0)

mtllib BLDG_000300060008b71a.obj.mtl

# 10 vertex positions
v  5.03924 4.97355 10.4395
v  0 0 0
v  5.03914 -6.39244e-16 10.4396
v  2.51968 5.21527 5.21966
v  0.000106296 4.97355 -0.000157161
v  9.4661 2.70242e-16 -4.41339
v  9.46621 4.97355 -4.41354
v  12.0664 -5.96225e-17 0.973709
v  12.0665 4.97355 0.973552
v  10.7664 5.21527 -1.72

# 0 UV coordinates

# 16 vertex normals
vn -0.900575 3.30077e-05 0.434701
vn -0.900575 3.28652e-05 0.434701
vn -0.900575 3.29835e-05 0.4347
vn -0.422561 -1.96085e-05 -0.906335
vn -0.422561 -1.95134e-05 -0.906335
vn 0.900575 -3.30523e-05 -0.434701
vn 0.900575 -3.30784e-05 -0.434701
vn 0.900575 -3.3307e-05 -0.434701
vn 0.802929 1.69153e-06 0.596074
vn 0.802929 1.56142e-06 0.596074
vn -0.0276871 0.999075 -0.0329018
vn -0.0340433 0.996749 -0.0730181
vn 0.0377593 0.998894 0.0280316
vn 0.0535186 0.99654 0.0635984
vn 0 -1 -6.12323e-17
vn 0 -1 -6.12323e-17

# Mesh 'defaultobject' with 16 faces
g defaultobject
usemtl DefaultMaterial
f  1//1 2//1 3//1
f  2//1 1//1 4//2
f  2//1 4//2 5//3
f  5//4 6//4 2//4
f  6//4 5//4 7//5
f  7//6 8//6 6//6
f  8//6 7//6 9//7
f  9//7 7//6 10//8
f  8//9 1//9 3//9
f  1//9 8//9 9//10
f  10//11 5//11 4//11
f  5//12 10//12 7//12
f  9//13 4//13 1//13
f  4//14 9//14 10//14
f  6//15 3//15 2//15
f  3//15 6//15 8//16

