# {"id":"BLDG_0003000f001c336a","idOriginal":"BLDG_0003000f001c336a","origin":[13.324234831120798,52.54541004894371],"elevation":36.98}
# Longitude: 13.324234831120798
# Latitude: 52.54541004894371
# Elevation: 36.98

# File produced by Open Asset Import Library (http://www.assimp.sf.net)
# (assimp v3.1.0)

mtllib BLDG_0003000f001c336a.obj.mtl

# 36 vertex positions
v  -3.39194 3.37 2.41871
v  7.1651e-05 3.37 -0.00010675
v  -3.39202 -1.4811e-16 2.41882
v  9.07978 3.96462e-16 -6.47471
v  12.185 9.15 -8.68917
v  12.1848 5.3204e-16 -8.68888
v  6.27222 2.73872e-16 -4.47267
v  3.17625 -4.57764e-07 -2.26496
v  0 -4.57764e-07 -2.80299e-23
v  6.27236 6.58714 -4.47288
v  3.17639 6.58714 -2.26517
v  0.000140052 6.58714 -0.00020867
v  9.07997 9.15 -6.475
v  6.27242 9.15 -4.47296
v  3.76699 -7.77557e-16 12.6985
v  7.15908 3.37 10.2795
v  3.76706 3.37 12.6984
v  7.15901 -4.57764e-07 10.2797
v  10.3354 6.58714 8.01449
v  10.3353 -4.57764e-07 8.01469
v  7.15915 6.58714 10.2794
v  11.0578 -4.57764e-07 9.05214
v  14.1539 6.58714 6.84422
v  11.0579 6.58714 9.05193
v  16.9615 9.15 4.84209
v  14.1539 9.15 6.84414
v  16.9613 -2.9651e-16 4.84238
v  14.1537 -4.191e-16 6.84443
v  17.6442 5.20301e-17 -0.849716
v  16.6623 9.15 -0.149703
v  16.6621 9.14891e-18 -0.149413
v  17.6444 9.15 -0.850006
v  16.2388 -2.32985e-16 3.80494
v  16.239 9.15 3.80465
v  18.3619 9.15 2.29079
v  18.3617 -1.40288e-16 2.29108

# 0 UV coordinates

# 48 vertex normals
vn -0.580594 -1.34254e-05 -0.814193
vn -0.580594 -1.33644e-05 -0.814193
vn -0.580594 -1.34505e-05 -0.814193
vn -0.580594 -1.34857e-05 -0.814193
vn -0.580594 -1.34655e-05 -0.814193
vn -0.580594 -1.40193e-05 -0.814193
vn -0.580594 -1.34088e-05 -0.814193
vn -0.580594 -1.34498e-05 -0.814193
vn -0.580594 -1.32702e-05 -0.814193
vn -0.580594 -1.33273e-05 -0.814193
vn 0.580594 1.3483e-05 0.814193
vn 0.580594 1.3483e-05 0.814193
vn 0.580594 1.3483e-05 0.814193
vn 0.580594 1.34587e-05 0.814193
vn 0.580594 1.34498e-05 0.814193
vn 0.580594 1.33408e-05 0.814193
vn 0.580594 1.35894e-05 0.814193
vn 0.580594 1.34529e-05 0.814193
vn 0.580594 1.33935e-05 0.814193
vn -0.820608 3.55018e-05 0.571492
vn -0.820608 3.55845e-05 0.571492
vn 0.580594 1.35664e-05 0.814193
vn 0.580594 1.34476e-05 0.814193
vn 0.820608 -3.55584e-05 -0.571492
vn -0.820608 3.55301e-05 0.571492
vn -0.820608 3.54896e-05 0.571492
vn -0.820608 3.56415e-05 0.571492
vn -0.820608 3.55524e-05 0.571492
vn 0.820608 -3.55246e-05 -0.571492
vn 0.820608 -3.55246e-05 -0.571492
vn -0.820608 3.55878e-05 0.571492
vn -0.820608 3.56342e-05 0.571492
vn 0.820608 -3.55366e-05 -0.571492
vn 0.820607 -3.53789e-05 -0.571492
vn 0.580594 1.34608e-05 0.814193
vn 0.580594 1.34409e-05 0.814193
vn 0 1 0
vn 1.21444e-23 -1 -6.12323e-17
vn 2.89447e-07 -1 1.98557e-07
vn 0 -1 -6.12323e-17
vn 3.81071e-08 -1 -2.65387e-08
vn -8.93717e-08 -1 -1.2533e-07
vn 2.29737e-24 -1 -6.12323e-17
vn -1.87608e-07 -1 -7.38404e-08
vn -5.55112e-17 1 0
vn 0.447214 0 0.894427
vn 0.475179 -0.574597 0.666365
vn 0.512139 0.471072 0.718196

# Mesh 'defaultobject' with 68 faces
g defaultobject
usemtl DefaultMaterial
f  1//1 2//1 3//1
f  4//2 5//2 6//2
f  5//2 4//2 7//3
f  5//2 7//3 8//4
f  5//2 8//4 9//5
f  5//2 9//5 3//1
f  5//2 3//1 10//6
f  10//6 3//1 2//1
f  10//6 2//1 11//7
f  11//7 2//1 12//8
f  10//6 13//9 5//2
f  13//9 10//6 14//10
f  15//11 16//11 17//11
f  16//11 15//11 18//12
f  16//11 18//12 19//13
f  19//13 18//12 20//14
f  19//13 21//15 16//11
f  22//16 23//16 24//16
f  23//16 25//17 26//17
f  25//17 23//16 27//18
f  27//18 23//16 28//19
f  28//19 23//16 22//16
f  24//20 20//20 22//20
f  20//20 24//20 19//21
f  29//22 30//22 31//22
f  30//22 29//22 32//23
f  33//24 25//24 27//24
f  25//24 33//24 34//24
f  17//25 3//25 15//25
f  3//25 17//25 1//26
f  21//27 2//27 16//27
f  2//27 21//27 12//28
f  6//29 32//29 29//29
f  32//29 6//29 5//30
f  26//31 10//31 23//31
f  10//31 26//31 14//32
f  31//33 35//33 36//33
f  35//33 31//33 30//34
f  36//35 34//35 33//35
f  34//35 36//35 35//36
f  21//37 11//37 12//37
f  11//37 21//37 10//37
f  10//37 21//37 19//37
f  10//37 19//37 23//37
f  23//37 19//37 24//37
f  26//37 13//37 14//37
f  13//37 26//37 5//37
f  5//37 26//37 30//37
f  30//37 26//37 34//37
f  34//37 26//37 25//37
f  35//37 30//37 34//37
f  32//37 5//37 30//37
f  16//37 1//37 17//37
f  1//37 16//37 2//37
f  28//38 33//38 27//38
f  33//38 28//38 22//39
f  33//38 31//40 36//40
f  31//40 33//38 22//39
f  31//40 22//39 20//41
f  31//40 20//41 18//42
f  31//40 6//43 29//43
f  6//43 31//40 18//42
f  6//43 18//42 15//44
f  6//43 15//44 3//40
f  6//45 3//45 4//45
f  4//46 3//46 7//46
f  7//47 3//47 8//47
f  8//48 3//48 9//48

