# {"id":"BLDG_0003000b001d8866","idOriginal":"BLDG_0003000b001d8866","origin":[13.335667009519048,52.52303897956231],"elevation":33.7200012207031}
# Longitude: 13.335667009519048
# Latitude: 52.52303897956231
# Elevation: 33.7200012207031

# File produced by Open Asset Import Library (http://www.assimp.sf.net)
# (assimp v3.1.0)

mtllib BLDG_0003000b001d8866.obj.mtl

# 22 vertex positions
v  7.17227 24.9101 12.5316
v  15.6235 19.3103 -4.27213
v  8.81068 24.9101 -4.90743
v  7.51401 24.6295 12.5601
v  13.7379 19.3103 15.7985
v  7.3107 24.6046 15.0499
v  0.000385243 18.1072 -0.000572721
v  0.51339 18.0904 -5.6807
v  2.0634 19.8122 0.31326
v  1.12913 19.9443 11.9841
v  4.37097 22.6098 12.2983
v  8.81015 3.00445e-16 -4.90665
v  0 0 0
v  0.513005 3.47808e-16 -5.68013
v  15.6231 2.61555e-16 -4.27152
v  2.06298 -1.922e-17 0.313887
v  13.7375 -9.67419e-16 15.7992
v  7.51348 -7.6913e-16 12.5609
v  1.12871 -7.33851e-16 11.9847
v  7.17174 -7.67387e-16 12.5324
v  4.37049 -7.53099e-16 12.299
v  7.31018 -9.21589e-16 15.0507

# 0 UV coordinates

# 39 vertex normals
vn 0.630565 0.773873 0.0592418
vn 0.630565 0.773872 0.0592418
vn 0.630565 0.773873 0.0592418
vn 0.630565 0.773873 0.0592418
vn -0.630553 0.773882 -0.0592406
vn -0.630553 0.773882 -0.059241
vn -0.630553 0.773882 -0.0592408
vn -0.630553 0.773882 -0.0592407
vn -0.630555 0.773882 -0.0592217
vn -5.56958e-25 -1 -6.12323e-17
vn 2.71316e-24 -1 -6.12323e-17
vn 0 -1 -6.12323e-17
vn -1.60719e-24 -1 -6.12324e-17
vn 0 -1 -6.12323e-17
vn -1.12857e-23 -1 -6.12323e-17
vn -1.31085e-21 -1 -6.12186e-17
vn 3.33249e-23 -1 -6.12327e-17
vn -1.31078e-23 -1 -6.12323e-17
vn -0.995946 1.83444e-05 -0.0899497
vn -0.995946 1.83466e-05 -0.0899497
vn 0.0928203 -3.34688e-05 -0.995683
vn 0.0928203 -3.34623e-05 -0.995683
vn 0.0928204 -3.34623e-05 -0.995683
vn 0.0928203 -3.34715e-05 -0.995683
vn 0.995616 -1.81877e-05 0.0935385
vn 0.995616 -1.82367e-05 0.0935386
vn -0.115668 3.38739e-05 0.993288
vn -0.115668 3.38534e-05 0.993288
vn -0.996683 1.86154e-05 -0.0813824
vn -0.996683 1.86127e-05 -0.0813823
vn -0.0830097 3.32808e-05 0.996549
vn -0.083009 3.32903e-05 0.996549
vn -0.0830114 3.32924e-05 0.996549
vn -0.096513 3.35596e-05 0.995332
vn -0.0965131 3.35402e-05 0.995332
vn -0.996811 1.86847e-05 -0.0797965
vn -0.996811 1.86842e-05 -0.0797965
vn -0.150421 3.44696e-05 0.988622
vn -0.150421 3.44704e-05 0.988622

# Mesh 'defaultobject' with 40 faces
g defaultobject
usemtl DefaultMaterial
f  1//1 2//1 3//1
f  2//1 1//1 4//2
f  2//1 4//2 5//3
f  5//3 4//2 6//4
f  7//5 3//5 8//5
f  3//5 7//5 9//6
f  3//5 9//6 1//7
f  1//7 9//6 10//8
f  1//9 10//9 11//9
f  12//10 13//10 14//10
f  13//10 12//10 15//11
f  13//10 15//11 16//12
f  16//12 15//11 17//13
f  16//12 17//13 18//14
f  16//12 18//14 19//15
f  19//15 18//14 20//16
f  19//15 20//16 21//17
f  18//14 17//13 22//18
f  7//19 14//19 13//19
f  14//19 7//19 8//20
f  8//21 12//21 14//21
f  12//21 8//21 3//22
f  3//22 15//23 12//21
f  15//23 3//22 2//24
f  15//25 5//25 17//25
f  5//25 15//25 2//26
f  17//27 6//27 22//27
f  6//27 17//27 5//28
f  6//29 18//29 22//29
f  18//29 6//29 4//30
f  18//31 1//31 20//31
f  1//31 18//31 4//32
f  20//31 11//33 21//33
f  11//33 20//31 1//31
f  21//34 10//34 19//34
f  10//34 21//34 11//35
f  10//36 16//36 19//36
f  16//36 10//36 9//37
f  16//38 7//38 13//38
f  7//38 16//38 9//39

