# {"id":"BLDG_0003000a003b94d2","idOriginal":"BLDG_0003000a003b94d2","origin":[13.414352853050525,52.50661504354386],"elevation":35.0900001525879}
# Longitude: 13.414352853050525
# Latitude: 52.50661504354386
# Elevation: 35.0900001525879

# File produced by Open Asset Import Library (http://www.assimp.sf.net)
# (assimp v3.1.0)

mtllib BLDG_0003000a003b94d2.obj.mtl

# 24 vertex positions
v  0.000321526 15.0373 -0.00047506
v  10.4444 -3.66003e-16 5.97728
v  10.4447 15.0373 5.9768
v  0 0 0
v  13.6087 -2.62013e-17 0.4279
v  13.6091 15.0373 0.427425
v  14.2606 -4.89342e-17 0.799155
v  14.261 15.0373 0.79868
v  15.6871 1.04303e-16 -1.7034
v  15.6874 15.0373 -1.70388
v  15.0355 15.0373 -2.07513
v  15.0352 1.27036e-16 -2.07466
v  18.0226 4.47817e-16 -7.3134
v  18.0229 15.0373 -7.31388
v  7.58035 15.0373 -13.281
v  7.58003 8.132e-16 -13.2806
v  6.13837 15.0373 -10.7547
v  6.13805 6.58505e-16 -10.7542
v  4.38404 15.0373 -7.68132
v  4.38372 4.70316e-16 -7.68084
v  3.33823 15.0373 -5.84956
v  3.33791 3.58153e-16 -5.84909
v  1.58388 15.0373 -2.77498
v  1.58356 1.6989e-16 -2.77451

# 0 UV coordinates

# 27 vertex normals
vn -0.496707 3.80298e-05 0.867918
vn 0.868694 -2.97834e-06 0.495349
vn 0.868694 -2.91878e-06 0.495349
vn -0.494867 3.80285e-05 0.868969
vn -0.494867 3.80615e-05 0.868969
vn 0.868783 -2.92275e-06 0.495194
vn 0.494868 -3.80355e-05 -0.868968
vn 0.494868 -3.80286e-05 -0.868968
vn 0.868681 -2.95509e-06 0.495372
vn 0.868681 -2.90251e-06 0.495372
vn 0.496138 -3.80968e-05 -0.868243
vn 0.496138 -3.8085e-05 -0.868243
vn -0.868489 2.87435e-06 -0.495709
vn -0.868489 2.90189e-06 -0.495709
vn -0.868471 2.90445e-06 -0.495739
vn -0.868471 2.87302e-06 -0.495739
vn -0.86843 2.90125e-06 -0.495813
vn -0.868553 2.91664e-06 -0.495596
vn -0.868553 2.91072e-06 -0.495596
vn -0.868496 2.90998e-06 -0.495697
vn -0.868496 2.91223e-06 -0.495697
vn 0 1 0
vn 0 -1 -6.12323e-17
vn 0 -1 -6.12323e-17
vn 0 -1 -6.12323e-17
vn 2.48598e-24 -1 -6.12323e-17
vn -4.74465e-23 -1 -6.12322e-17

# Mesh 'defaultobject' with 44 faces
g defaultobject
usemtl DefaultMaterial
f  1//1 2//1 3//1
f  2//1 1//1 4//1
f  3//2 5//2 6//2
f  5//2 3//2 2//3
f  6//4 7//4 8//4
f  7//4 6//4 5//5
f  8//6 9//6 10//6
f  9//6 8//6 7//6
f  11//7 9//7 12//7
f  9//7 11//7 10//8
f  11//9 13//9 14//9
f  13//9 11//9 12//10
f  15//11 13//11 16//11
f  13//11 15//11 14//12
f  17//13 16//13 18//13
f  16//13 17//13 15//14
f  19//15 18//15 20//15
f  18//15 19//15 17//16
f  21//17 20//17 22//17
f  20//17 21//17 19//17
f  23//18 22//18 24//18
f  22//18 23//18 21//19
f  1//20 24//20 4//20
f  24//20 1//20 23//21
f  6//22 1//22 3//22
f  1//22 6//22 23//22
f  23//22 6//22 21//22
f  21//22 6//22 8//22
f  21//22 8//22 10//22
f  21//22 10//22 19//22
f  19//22 10//22 11//22
f  11//22 17//22 19//22
f  17//22 11//22 14//22
f  17//22 14//22 15//22
f  18//23 12//23 20//23
f  12//23 18//23 13//24
f  13//24 18//23 16//23
f  4//25 5//25 2//25
f  5//25 4//25 24//25
f  5//25 24//25 22//26
f  5//25 22//26 7//27
f  7//27 22//26 9//23
f  9//23 22//26 20//23
f  9//23 20//23 12//23

