# {"id":"BLDG_0003000a0010dbd7","idOriginal":"BLDG_0003000a0010dbd7","origin":[13.38652376891585,52.55751302527234],"elevation":40.7000007629395}
# Longitude: 13.38652376891585
# Latitude: 52.55751302527234
# Elevation: 40.7000007629395

# File produced by Open Asset Import Library (http://www.assimp.sf.net)
# (assimp v3.1.0)

mtllib BLDG_0003000a0010dbd7.obj.mtl

# 8 vertex positions
v  1.25153 1.53805e-16 -2.51183
v  3.9756 -1.14922e-16 1.87682
v  0 0 0
v  5.22713 3.8883e-17 -0.635007
v  3.97566 2.841 1.87673
v  1.25161 3.71952 -2.51194
v  7.94e-05 3.71952 -0.00011791
v  5.22719 2.841 -0.635097

# 0 UV coordinates

# 12 vertex normals
vn 4.29185e-24 -1 -6.12323e-17
vn 8.5837e-24 -1 -6.12323e-17
vn 0.175428 0.980604 0.0874077
vn 0.175428 0.980604 0.0874077
vn -0.895051 4.96931e-06 -0.445964
vn -0.895051 5.01215e-06 -0.445964
vn 0.426904 -3.77606e-05 -0.904297
vn 0.426904 -3.7767e-05 -0.904297
vn 0.895051 -5.05375e-06 0.445964
vn 0.895051 -4.93414e-06 0.445963
vn -0.426904 3.77917e-05 0.904297
vn -0.426904 3.77957e-05 0.904297

# Mesh 'defaultobject' with 12 faces
g defaultobject
usemtl DefaultMaterial
f  1//1 2//1 3//1
f  2//1 1//1 4//2
f  5//3 6//3 7//3
f  6//3 5//3 8//4
f  7//5 1//5 3//5
f  1//5 7//5 6//6
f  6//7 4//7 1//7
f  4//7 6//7 8//8
f  4//9 5//9 2//9
f  5//9 4//9 8//10
f  2//11 7//11 3//11
f  7//11 2//11 5//12

