# {"id":"BLDG_0003000a0010db93","idOriginal":"BLDG_0003000a0010db93","origin":[13.383913802897355,52.556509010879836],"elevation":40.310001373291}
# Longitude: 13.383913802897355
# Latitude: 52.556509010879836
# Elevation: 40.310001373291

# File produced by Open Asset Import Library (http://www.assimp.sf.net)
# (assimp v3.1.0)

mtllib BLDG_0003000a0010db93.obj.mtl

# 10 vertex positions
v  10.3788 11.7661 5.41964
v  0 0 0
v  10.3786 -3.3188e-16 5.42001
v  0.000251126 11.7661 -0.00037297
v  5.1896 15.0106 2.70953
v  6.33017 7.49046e-16 -12.2328
v  6.33042 11.7661 -12.2332
v  16.7087 4.17166e-16 -6.81284
v  16.709 11.7661 -6.81321
v  11.5198 15.0106 -9.52332

# 0 UV coordinates

# 16 vertex normals
vn -0.462909 3.79594e-05 0.886406
vn -0.462909 3.79779e-05 0.886406
vn -0.462909 3.79079e-05 0.886406
vn -0.888134 4.38732e-06 -0.459586
vn -0.888134 4.36722e-06 -0.459586
vn 0.462909 -3.79594e-05 -0.886406
vn 0.462909 -3.79578e-05 -0.886406
vn 0.462909 -3.80083e-05 -0.886406
vn 0.888134 -4.33108e-06 0.459586
vn 0.888134 -4.28401e-06 0.459585
vn -0.430514 0.874658 -0.22278
vn -0.430514 0.874658 -0.22278
vn 0.430516 0.874657 0.22278
vn 0.430516 0.874657 0.22278
vn -1.31308e-24 -1 -6.12323e-17
vn 0 -1 -6.12323e-17

# Mesh 'defaultobject' with 16 faces
g defaultobject
usemtl DefaultMaterial
f  1//1 2//1 3//1
f  2//1 1//1 4//2
f  4//2 1//1 5//3
f  4//4 6//4 2//4
f  6//4 4//4 7//5
f  7//6 8//6 6//6
f  8//6 7//6 9//7
f  9//7 7//6 10//8
f  8//9 1//9 3//9
f  1//9 8//9 9//10
f  10//11 4//11 5//11
f  4//11 10//11 7//12
f  9//13 5//13 1//13
f  5//13 9//13 10//14
f  2//15 8//15 3//15
f  8//15 2//15 6//16

