# {"id":"BLDG_0003000e00325573","idOriginal":"BLDG_0003000e00325573","origin":[13.343481434728266,52.51627971969694],"elevation":34.4099998474121}
# Longitude: 13.343481434728266
# Latitude: 52.51627971969694
# Elevation: 34.4099998474121

# File produced by Open Asset Import Library (http://www.assimp.sf.net)
# (assimp v3.1.0)

mtllib BLDG_0003000e00325573.obj.mtl

# 16 vertex positions
v  4.44785 3.25408 -0.425401
v  3.57501 3.25408 15.5407
v  5.82839 3.25408 15.3095
v  1.4693 3.25408 15.7566
v  0.764612 3.25408 8.17393
v  0.0254022 3.25408 0.24023
v  0.410695 3.25408 -0.0423356
v  6.9266e-05 3.25408 -0.00010288
v  5.82832 -9.37444e-16 15.3096
v  3.57494 -9.51599e-16 15.5408
v  4.44778 2.6042e-17 -0.425298
v  0.410626 2.58601e-18 -0.0422328
v  0 0 0
v  0.025333 -1.47161e-17 0.240333
v  0.764543 -5.00515e-16 8.17403
v  1.46923 -9.64823e-16 15.7568

# 0 UV coordinates

# 21 vertex normals
vn 0 1 -0
vn 0.102048 2.93124e-05 0.994779
vn 0.102048 2.93205e-05 0.99478
vn 0.996173 -2.39349e-05 -0.0874018
vn -0.0944607 -2.94631e-05 -0.995529
vn -0.0944607 -2.94666e-05 -0.995529
vn -0.10231 -2.92722e-05 -0.994753
vn -0.10231 -2.92715e-05 -0.994753
vn -0.99449 2.44828e-05 0.104827
vn -0.99449 2.44828e-05 0.104827
vn -0.995687 2.41199e-05 0.0927716
vn -0.995687 2.41272e-05 0.0927716
vn -0.995709 2.40853e-05 0.092535
vn -0.995709 2.41129e-05 0.092535
vn 0.102027 2.93174e-05 0.994782
vn 0.102027 2.93088e-05 0.994782
vn 1.40576e-23 -1 -6.12323e-17
vn -5.0673e-23 -1 -6.12323e-17
vn 2.49209e-23 -1 -6.12323e-17
vn 0 -1 -6.12323e-17
vn 0 -1 -6.12323e-17

# Mesh 'defaultobject' with 28 faces
g defaultobject
usemtl DefaultMaterial
f  1//1 2//1 3//1
f  2//1 1//1 4//1
f  4//1 1//1 5//1
f  5//1 1//1 6//1
f  6//1 1//1 7//1
f  6//1 7//1 8//1
f  9//2 2//2 10//2
f  2//2 9//2 3//3
f  11//4 3//4 9//4
f  3//4 11//4 1//4
f  7//5 11//5 12//5
f  11//5 7//5 1//6
f  8//7 12//7 13//7
f  12//7 8//7 7//8
f  6//9 13//9 14//9
f  13//9 6//9 8//10
f  5//11 14//11 15//11
f  14//11 5//11 6//12
f  4//13 15//13 16//13
f  15//13 4//13 5//14
f  10//15 4//15 16//15
f  4//15 10//15 2//16
f  10//17 11//17 9//17
f  11//17 10//17 16//18
f  11//17 16//18 15//19
f  11//17 15//19 14//20
f  11//17 14//20 12//21
f  12//21 14//20 13//20

