# {"id":"BLDG_0003000e0037d1f3","idOriginal":"BLDG_0003000e0037d1f3","origin":[13.338845776991773,52.54887184973449],"elevation":34.6199989318848}
# Longitude: 13.338845776991773
# Latitude: 52.54887184973449
# Elevation: 34.6199989318848

# File produced by Open Asset Import Library (http://www.assimp.sf.net)
# (assimp v3.1.0)

mtllib BLDG_0003000e0037d1f3.obj.mtl

# 16 vertex positions
v  6.2798 5.18997 6.46592
v  13.2445 10.0724 -6.58132
v  3.1403 10.0724 3.23297
v  10.804 5.19012 2.07131
v  16.3847 5.18997 -3.34903
v  4.54298 5.19026 -4.41136
v  0.000110434 5.18924 -0.00016441
v  10.1044 5.19034 -9.81307
v  4.54287 2.70108e-16 -4.41119
v  0 0 0
v  10.1043 6.00867e-16 -9.81291
v  13.2443 4.0297e-16 -6.58101
v  16.3846 2.05059e-16 -3.34887
v  10.8039 -1.26841e-16 2.07148
v  6.27969 -3.95934e-16 6.46609
v  3.14008 -1.97982e-16 3.23329

# 0 UV coordinates

# 27 vertex normals
vn 0.511985 0.678252 0.527111
vn 0.511985 0.678252 0.527111
vn 0.511985 0.678252 0.527111
vn -0.511989 0.678245 -0.527115
vn -0.511989 0.678245 -0.527115
vn -0.511989 0.678245 -0.527115
vn -0.696633 -7.90491e-06 -0.717428
vn -0.696633 -7.8912e-06 -0.717428
vn -0.696733 -7.88599e-06 -0.717331
vn -0.696733 -7.95177e-06 -0.717331
vn 0.717225 -3.73591e-05 -0.696842
vn 0.717225 -3.74729e-05 -0.696842
vn 0.717225 -3.73504e-05 -0.696842
vn 0.696727 7.93592e-06 0.717337
vn 0.696727 7.84168e-06 0.717337
vn 0.696755 7.86609e-06 0.717309
vn 0.696756 7.98239e-06 0.717309
vn -0.717371 3.73744e-05 0.696691
vn -0.717371 3.73305e-05 0.696691
vn -0.717371 3.73305e-05 0.696691
vn -0.717371 3.73398e-05 0.696691
vn 0 -1 -6.12323e-17
vn 7.42084e-24 -1 -6.12323e-17
vn 0 -1 -6.12323e-17
vn -7.45069e-24 -1 -6.12323e-17
vn -1.2081e-23 -1 -6.12323e-17
vn 1.20801e-23 -1 -6.12323e-17

# Mesh 'defaultobject' with 28 faces
g defaultobject
usemtl DefaultMaterial
f  1//1 2//1 3//1
f  2//1 1//1 4//2
f  2//1 4//2 5//3
f  3//4 6//4 7//4
f  6//4 3//4 2//5
f  6//4 2//5 8//6
f  7//7 9//7 10//7
f  9//7 7//7 6//8
f  6//9 11//9 9//9
f  11//9 6//9 8//10
f  11//11 2//11 12//11
f  2//11 11//11 8//12
f  12//11 5//13 13//13
f  5//13 12//11 2//11
f  13//14 4//14 14//14
f  4//14 13//14 5//15
f  14//16 1//16 15//16
f  1//16 14//16 4//17
f  1//18 16//18 15//18
f  16//18 1//18 3//19
f  3//19 10//20 16//18
f  10//20 3//19 7//21
f  9//22 16//22 10//22
f  16//22 9//22 15//23
f  15//23 9//22 11//24
f  15//23 11//24 14//25
f  14//25 11//24 12//26
f  14//25 12//26 13//27

