# {"id":"BLDG_000300000021092c","idOriginal":"BLDG_000300000021092c","origin":[13.39332004498247,52.55383666930468],"elevation":45.8400001525879}
# Longitude: 13.39332004498247
# Latitude: 52.55383666930468
# Elevation: 45.8400001525879

# File produced by Open Asset Import Library (http://www.assimp.sf.net)
# (assimp v3.1.0)

mtllib BLDG_000300000021092c.obj.mtl

# 21 vertex positions
v  18.0018 4.6384e-16 -7.57508
v  4.61077 -4.78305e-17 0.781132
v  6.2274 5.85984e-16 -9.56984
v  16.3852 -1.69974e-16 2.77589
v  3.44794 -5.03732e-16 8.22657
v  15.2234 -6.25462e-16 10.2146
v  0 0 0
v  1.91098 6.30761e-16 -10.3011
v  5.41957 22.8618 -4.39508
v  4.61114 17.3621 0.780581
v  11.3068 22.8618 -3.3977
v  6.22777 17.3621 -9.57039
v  18.0022 17.3621 -7.57563
v  10.4985 22.8618 1.77779
v  16.3856 17.3621 2.77534
v  3.44831 17.3621 8.22602
v  9.33616 22.8618 9.21985
v  15.2238 17.3621 10.214
v  0.955978 22.8618 -5.15128
v  0.00037078 17.3621 -0.00055024
v  1.91135 17.3621 -10.3017

# 0 UV coordinates

# 31 vertex normals
vn 2.53904e-24 -1 -6.12323e-17
vn 8.46346e-25 -1 -6.12323e-17
vn -4.12194e-24 -1 -6.12323e-17
vn 0 -1 -6.12323e-17
vn 9.8119e-24 -1 -6.12323e-17
vn -0.120955 0.689663 0.713958
vn 0.120959 0.689636 -0.713982
vn 0.120959 0.689636 -0.713982
vn 0.669402 0.735507 0.104548
vn 0.669402 0.735508 0.104548
vn -0.669391 0.735518 -0.104546
vn -0.669391 0.735518 -0.104546
vn 0.669402 0.735508 0.104548
vn -0.120955 0.689663 0.713958
vn 0.120959 0.689636 -0.713982
vn 0.120959 0.689636 -0.713982
vn 0.167034 -3.48176e-05 -0.985951
vn 0.167034 -3.48268e-05 -0.985951
vn 0.988023 -1.61696e-05 0.15431
vn 0.988022 -1.62849e-05 0.15431
vn -0.166469 3.47544e-05 0.986047
vn -0.166469 3.48086e-05 0.986047
vn -0.166469 3.49212e-05 0.986047
vn -0.988022 1.62206e-05 -0.15431
vn -0.988023 1.61935e-05 -0.15431
vn 0.988022 -1.62257e-05 0.15431
vn -0.167034 3.48144e-05 0.985951
vn -0.983224 1.52169e-05 -0.1824
vn -0.983224 1.52211e-05 -0.1824
vn -0.983224 1.52104e-05 -0.1824
vn 0.167035 -3.48165e-05 -0.985951

# Mesh 'defaultobject' with 38 faces
g defaultobject
usemtl DefaultMaterial
f  1//1 2//1 3//1
f  2//1 1//1 4//2
f  5//3 4//2 6//3
f  4//2 5//3 2//1
f  7//4 3//1 2//1
f  3//1 7//4 8//5
f  9//6 10//6 11//6
f  11//7 12//7 9//7
f  12//7 11//7 13//8
f  13//9 14//9 15//9
f  14//9 13//9 11//10
f  11//11 10//11 14//11
f  14//11 16//12 17//12
f  16//12 14//11 10//11
f  15//9 17//13 18//13
f  17//13 15//9 14//9
f  19//14 10//6 9//6
f  10//6 19//14 20//14
f  21//15 9//7 12//7
f  9//7 21//15 19//16
f  12//17 1//17 3//17
f  1//17 12//17 13//18
f  1//19 15//19 4//19
f  15//19 1//19 13//20
f  18//21 5//21 6//21
f  5//21 18//21 16//22
f  16//22 18//21 17//23
f  16//24 2//24 5//24
f  2//24 16//24 10//25
f  4//19 18//26 6//26
f  18//26 4//19 15//19
f  2//27 20//27 7//27
f  20//27 2//27 10//27
f  20//28 8//28 7//28
f  8//28 20//28 21//29
f  21//29 20//28 19//30
f  21//31 3//17 8//31
f  3//17 21//31 12//17

