# {"id":"BLDG_00030009007eefc3","idOriginal":"BLDG_00030009007eefc3","origin":[13.394262195860604,52.54104601121518],"elevation":45.8899993896484}
# Longitude: 13.394262195860604
# Latitude: 52.54104601121518
# Elevation: 45.8899993896484

# File produced by Open Asset Import Library (http://www.assimp.sf.net)
# (assimp v3.1.0)

mtllib BLDG_00030009007eefc3.obj.mtl

# 70 vertex positions
v  6.8948 -5.68881e-16 9.29053
v  4.33485 22.91 3.52157
v  4.33436 -2.15678e-16 3.52229
v  10.8865 -1.11953e-15 18.2832
v  10.8872 33.99 18.2822
v  6.89553 33.99 9.28945
v  1.89466 33.99 -1.9769
v  2.31487 6.29168e-17 -1.02751
v  1.89442 22.91 -1.97655
v  1.89393 1.20984e-16 -1.97582
v  2.31536 22.91 -1.02823
v  3.95023 22.91 2.65494
v  19.9914 5.43355e-16 -8.87366
v  20.6909 22.91 -7.29999
v  20.6904 4.46951e-16 -7.29926
v  18.3578 7.68663e-16 -12.5532
v  18.3583 22.91 -12.5539
v  20.6911 33.9933 -7.30034
v  18.3585 33.9933 -12.5543
v  20.6912 37.99 -7.30047
v  18.3586 37.99 -12.5544
v  10.4574 37.99 -2.75696
v  16.0782 33.99 -5.25126
v  17.8924 22.91 -6.0563
v  18.945 3.99501e-16 -6.52434
v  10.4573 33.99 -2.75632
v  16.0779 22.91 -5.25091
v  17.8919 3.70797e-16 -6.05558
v  16.6136 37.99 -11.7797
v  16.6135 33.9933 -11.7796
v  16.6128 7.21224e-16 -11.7785
v  11.9674 7.22643e-16 -11.8017
v  15.8403 33.9933 -13.5215
v  15.8396 8.27887e-16 -13.5204
v  0.544308 4.11796e-16 -6.72514
v  7.35369 33.9933 -9.74839
v  0.545034 33.9933 -6.72622
v  15.8404 37.99 -13.5216
v  7.35151 37.99 -9.75363
v  20.098 2.76293e-16 -4.51222
v  18.8273 2.41756e-16 -3.94818
v  20.0985 22.91 -4.51294
v  18.8278 22.91 -3.94891
v  20.0987 33.9933 -4.51329
v  17.0133 22.91 -3.14351
v  17.0136 33.99 -3.14386
v  20.4827 2.23224e-16 -3.64553
v  23.0436 22.91 2.1219
v  23.0431 -1.29974e-16 2.12263
v  23.0438 33.9933 2.12155
v  24.066 -9.4636e-16 15.4552
v  12.6414 33.9933 20.5255
v  12.6407 -1.25689e-15 20.5266
v  24.0667 33.9933 15.4542
v  2.5283 33.9933 -2.25815
v  2.52757 1.38206e-16 -2.25708
v  9.33695 33.9933 -5.28034
v  8.12501 37.99 -8.01101
v  19.9586 33.99 3.491
v  19.9579 -2.13828e-16 3.49208
v  23.9503 33.99 12.4838
v  23.9496 -7.64477e-16 12.4849
v  22.9461 33.9933 12.9295
v  22.9454 -7.9177e-16 12.9306
v  11.5201 -1.1023e-15 18.002
v  11.5208 33.9933 18.0009
v  2.02003 22.91 4.54905
v  2.01954 -2.78594e-16 4.54978
v  0 0 0
v  0.000489274 22.91 -0.00072545

# 0 UV coordinates

# 114 vertex normals
vn -0.914001 3.23598e-05 0.405713
vn -0.914004 2.98702e-05 0.405705
vn -0.914003 3.23838e-05 0.405708
vn -0.914004 3.74772e-05 0.405705
vn -0.914004 3.74763e-05 0.405705
vn -0.914004 3.23638e-05 0.405705
vn -0.914004 3.23663e-05 0.405705
vn -0.914004 3.23753e-05 0.405705
vn -0.914028 5.08367e-06 0.40565
vn 0.913972 -3.23997e-05 -0.405778
vn 0.913972 -3.24282e-05 -0.405778
vn 0.913972 -3.24124e-05 -0.405778
vn 0.913972 -3.23526e-05 -0.405778
vn 0.913972 -3.23469e-05 -0.405778
vn 0.913972 -3.20208e-05 -0.405778
vn 0.913972 -3.25016e-05 -0.405778
vn 0.405776 2.0458e-05 0.913973
vn 0.40595 0.000553031 0.913895
vn 0.40595 2.02758e-05 0.913895
vn 0.40611 0.000100141 0.913824
vn 0.40611 2.024e-05 0.913824
vn 0.405776 -2.86472e-05 0.913973
vn 0.405703 0.000137476 0.914005
vn 0.405702 2.02207e-05 0.914005
vn 0.406664 2.02203e-05 0.913578
vn -0.405776 -2.02914e-05 -0.913972
vn -0.405776 -2.00733e-05 -0.913973
vn -0.405776 -2.02861e-05 -0.913973
vn -0.405776 -2.02745e-05 -0.913973
vn -0.405776 -2.0271e-05 -0.913973
vn -0.405703 -2.02869e-05 -0.914005
vn -0.406111 3.53841e-05 -0.913824
vn -0.406253 0.000112007 -0.913761
vn -0.405701 -2.02919e-05 -0.914006
vn -0.406253 -2.02744e-05 -0.913761
vn -0.405702 -0.00141985 -0.914004
vn -0.405708 -2.02542e-05 -0.914003
vn -0.405707 -2.02976e-05 -0.914003
vn -0.405707 -2.02843e-05 -0.914003
vn -0.405708 -2.0231e-05 -0.914003
vn -0.405707 -2.02707e-05 -0.914003
vn 0.914002 -3.23999e-05 -0.405709
vn 0.914002 -3.23511e-05 -0.40571
vn 0.914002 -3.23558e-05 -0.40571
vn 0.914002 -3.23511e-05 -0.405709
vn 0.914002 -3.23999e-05 -0.40571
vn 0.405702 2.03157e-05 0.914006
vn 0.405701 2.02798e-05 0.914006
vn -0.914005 3.23582e-05 0.405704
vn -0.914005 3.23703e-05 0.405703
vn 0.914004 -3.25056e-05 -0.405705
vn 0.914004 -3.23961e-05 -0.405705
vn 0.914004 -3.2364e-05 -0.405705
vn 0.914004 -3.23888e-05 -0.405705
vn -0.914004 3.25575e-05 0.405705
vn -0.914004 3.2623e-05 0.405705
vn -0.914004 3.21381e-05 0.405705
vn -0.913988 8.81344e-05 0.40574
vn 0.405707 2.02735e-05 0.914003
vn 0.405707 2.02557e-05 0.914003
vn 0.405707 2.02787e-05 0.914003
vn 0.914004 -3.23953e-05 -0.405705
vn 0.914004 -3.23839e-05 -0.405705
vn 0.405703 2.02764e-05 0.914005
vn 0.405703 2.02784e-05 0.914005
vn -0.405703 -2.02753e-05 -0.914005
vn -0.405703 -2.02758e-05 -0.914005
vn -0.405703 -2.02763e-05 -0.914005
vn 0.405703 2.03161e-05 0.914005
vn 0.405701 2.02629e-05 0.914006
vn 0.914005 -3.23899e-05 -0.405703
vn -0.914005 3.23525e-05 0.405704
vn -0.914005 3.23753e-05 0.405703
vn 0.914004 -3.23282e-05 -0.405705
vn 0.914004 -3.24004e-05 -0.405705
vn 0.405703 2.02702e-05 0.914005
vn 0.405703 2.02784e-05 0.914005
vn -0.914004 3.23665e-05 0.405705
vn -0.914004 3.23618e-05 0.405705
vn -0.405703 -2.02808e-05 -0.914005
vn -0.405703 -2.02778e-05 -0.914005
vn 0.914004 -3.23513e-05 -0.405705
vn 0.914004 -3.25193e-05 -0.405704
vn 6.88735e-24 -1 -6.12323e-17
vn -3.32173e-24 -1 -6.12323e-17
vn -4.64626e-24 -1 -6.12323e-17
vn 6.59272e-24 -1 -6.12323e-17
vn 2.00759e-23 -1 -6.12323e-17
vn -3.30657e-23 -1 -6.12325e-17
vn 7.36665e-25 -1 -6.12323e-17
vn 4.70949e-24 -1 -6.12323e-17
vn -3.1503e-24 -1 -6.12323e-17
vn 3.06648e-24 -1 -6.12323e-17
vn -1.12946e-23 -1 -6.12324e-17
vn -1.805e-24 -1 -6.12323e-17
vn -4.74802e-25 -1 -6.12323e-17
vn 0 -1 -6.12323e-17
vn -7.35637e-25 -1 -6.12323e-17
vn 3.78596e-25 -1 -6.12323e-17
vn 3.48488e-25 -1 -6.12323e-17
vn 0 -1 -6.12323e-17
vn 1.95897e-23 -1 -6.12324e-17
vn 0 -1 -6.12324e-17
vn 2.09962e-24 -1 -6.12323e-17
vn -0.000887294 0.999999 0.000393854
vn 0 1 -0
vn 0.00272602 0.999996 -0.00121001
vn -0.000207503 1 -0.000281497
vn 0.00022024 1 -9.77589e-05
vn -0.00710595 0.999965 -0.0043581
vn 0.00018314 1 0.000412589
vn -0.00166275 0.999998 -0.00135313
vn 0.000113585 0.999999 0.00124784
vn 0.405703 0 0.914005

# Mesh 'defaultobject' with 136 faces
g defaultobject
usemtl DefaultMaterial
f  1//1 2//1 3//1
f  2//1 1//1 4//2
f  2//1 4//2 5//3
f  2//4 5//3 6//4
f  2//4 6//4 7//5
f  8//6 9//6 10//6
f  9//6 8//6 11//7
f  9//6 11//7 7//5
f  7//5 11//7 12//8
f  7//9 12//9 2//9
f  13//10 14//10 15//10
f  14//10 13//10 16//11
f  14//10 16//11 17//12
f  14//10 17//12 18//13
f  18//13 17//12 19//14
f  18//13 19//14 20//15
f  20//15 19//14 21//16
f  22//17 18//17 20//17
f  18//18 22//18 23//18
f  18//19 23//19 14//19
f  14//20 23//20 24//20
f  14//21 24//21 15//21
f  15//22 24//22 25//22
f  23//23 22//23 26//23
f  27//24 24//24 23//24
f  28//25 25//25 24//25
f  19//26 29//26 21//26
f  29//26 19//26 30//27
f  30//27 19//26 17//28
f  30//27 17//28 31//29
f  31//29 17//28 16//30
f  32//31 33//31 34//31
f  33//32 32//32 35//32
f  33//33 35//33 36//33
f  36//34 35//34 37//34
f  33//35 36//35 38//35
f  39//36 38//36 36//36
f  40//37 41//37 42//37
f  43//38 42//37 41//37
f  44//39 42//37 43//38
f  45//40 44//39 43//38
f  46//41 44//39 45//40
f  47//42 48//42 49//42
f  48//42 47//42 50//43
f  50//43 47//42 44//44
f  44//44 47//42 42//45
f  42//45 47//42 40//46
f  51//47 52//47 53//47
f  52//47 51//47 54//48
f  55//49 35//49 56//49
f  35//49 55//49 37//50
f  29//51 33//51 38//51
f  33//51 29//51 30//52
f  33//51 30//52 34//53
f  34//53 30//52 31//54
f  57//55 39//55 36//55
f  39//55 57//55 26//56
f  39//55 26//56 58//57
f  58//58 26//58 22//58
f  49//59 59//59 60//59
f  59//59 49//59 48//60
f  59//59 48//60 50//61
f  60//62 61//62 62//62
f  61//62 60//62 59//63
f  62//64 63//64 64//64
f  63//64 62//64 61//65
f  10//66 55//66 56//66
f  55//66 10//66 9//67
f  55//66 9//67 7//68
f  65//69 5//69 4//69
f  5//69 65//69 66//70
f  64//71 54//71 51//71
f  54//71 64//71 63//71
f  65//72 52//72 66//72
f  52//72 65//72 53//73
f  28//74 43//74 41//74
f  43//74 28//74 24//75
f  3//76 67//76 68//76
f  67//76 3//76 2//77
f  69//78 67//78 70//78
f  67//78 69//78 68//79
f  8//80 70//80 11//80
f  70//80 8//80 69//81
f  27//82 46//82 45//82
f  46//82 27//82 23//83
f  13//84 31//84 16//84
f  31//84 13//84 35//85
f  35//85 13//84 56//86
f  56//86 13//84 15//87
f  56//86 15//87 25//88
f  56//86 25//88 28//89
f  56//86 28//89 41//90
f  56//86 41//90 10//91
f  31//84 32//92 34//92
f  32//92 31//84 35//85
f  53//93 65//93 51//93
f  47//94 41//90 40//94
f  41//90 47//94 10//91
f  10//91 47//94 8//95
f  8//95 47//94 49//96
f  8//95 49//96 69//97
f  69//97 49//96 3//98
f  3//98 49//96 60//99
f  3//98 60//99 1//100
f  1//100 60//99 62//101
f  1//100 62//101 64//102
f  1//100 64//102 65//93
f  1//100 65//93 4//103
f  65//93 64//102 51//93
f  68//104 69//97 3//98
f  44//105 59//105 50//105
f  36//106 55//106 57//106
f  55//106 36//106 37//106
f  59//107 63//107 61//107
f  63//108 59//108 52//108
f  52//109 59//109 66//109
f  66//110 59//110 5//110
f  5//106 59//106 6//106
f  6//111 59//111 44//111
f  6//112 44//112 46//112
f  6//106 46//106 23//106
f  6//106 23//106 26//106
f  6//106 26//106 7//106
f  7//113 26//113 57//113
f  7//114 57//114 55//114
f  52//106 54//106 63//106
f  21//106 29//106 20//106
f  20//106 58//106 22//106
f  58//106 20//106 39//106
f  39//106 20//106 29//106
f  39//106 29//106 38//106
f  43//106 27//106 45//106
f  27//106 43//106 24//106
f  70//106 12//106 11//106
f  12//106 70//106 67//106
f  12//106 67//106 2//106

