# {"id":"BLDG_0003000e0096092f","idOriginal":"BLDG_0003000e0096092f","origin":[13.379866390901524,52.523222369785444],"elevation":32.0200004577637}
# Longitude: 13.379866390901524
# Latitude: 52.523222369785444
# Elevation: 32.0200004577637

# File produced by Open Asset Import Library (http://www.assimp.sf.net)
# (assimp v3.1.0)

mtllib BLDG_0003000e0096092f.obj.mtl

# 14 vertex positions
v  0.724878 4.98 6.38037
v  7.86593 4.98 -0.893615
v  0.000106253 4.98 -0.00015751
v  8.51407 4.98 4.81229
v  8.5907 4.98 5.48688
v  15.5692 4.98 -1.76866
v  16.2174 4.98 3.93724
v  15.5691 1.0829e-16 -1.76851
v  0.648147 -3.49389e-16 5.70596
v  0 0 0
v  0.724772 -3.90694e-16 6.38052
v  8.51396 -2.94677e-16 4.81245
v  16.2173 -2.41096e-16 3.9374
v  8.59059 -3.35984e-16 5.48704

# 0 UV coordinates

# 20 vertex normals
vn 0 1 0
vn -1.17666e-24 -1 -6.12323e-17
vn 4.23002e-23 -1 -6.12323e-17
vn -2.63399e-24 -1 -6.12323e-17
vn -2.37815e-24 -1 -6.12323e-17
vn -9.23416e-24 -1 -6.12324e-17
vn -0.112865 -2.90183e-05 -0.99361
vn -0.112862 -1.86992e-05 -0.993611
vn -0.112868 -2.90203e-05 -0.99361
vn 0.99361 -2.4698e-05 -0.112866
vn 0.99361 -2.48876e-05 -0.112865
vn 0.112865 2.89922e-05 0.99361
vn 0.112865 2.9101e-05 0.99361
vn -0.99361 2.47694e-05 0.112866
vn -0.99361 2.47571e-05 0.112866
vn -0.99361 2.47584e-05 0.112865
vn 0.99361 -2.48772e-05 -0.112869
vn 0.99361 -2.46854e-05 -0.112869
vn 0.112868 2.90727e-05 0.99361
vn 0.112868 2.89739e-05 0.99361

# Mesh 'defaultobject' with 24 faces
g defaultobject
usemtl DefaultMaterial
f  1//1 2//1 3//1
f  2//1 1//1 4//1
f  4//1 1//1 5//1
f  4//1 6//1 2//1
f  6//1 4//1 7//1
f  8//2 9//2 10//2
f  9//2 8//2 11//3
f  11//3 8//2 12//4
f  12//4 8//2 13//5
f  14//6 11//3 12//4
f  3//7 8//7 10//7
f  8//8 3//8 2//8
f  8//7 2//9 6//9
f  12//10 5//10 14//10
f  5//10 12//10 4//11
f  14//12 1//12 11//12
f  1//12 14//12 5//13
f  10//14 1//14 3//14
f  1//14 10//14 9//15
f  1//14 9//15 11//16
f  8//17 7//17 13//17
f  7//17 8//17 6//18
f  13//19 4//19 12//19
f  4//19 13//19 7//20

