# {"id":"BLDG_0003000800251dac","idOriginal":"BLDG_0003000800251dac","origin":[13.340798240150365,52.54676047795681],"elevation":35.7599983215332}
# Longitude: 13.340798240150365
# Latitude: 52.54676047795681
# Elevation: 35.7599983215332

# File produced by Open Asset Import Library (http://www.assimp.sf.net)
# (assimp v3.1.0)

mtllib BLDG_0003000800251dac.obj.mtl

# 12 vertex positions
v  0.000117416 5.51661 -0.000174761
v  6.72258 3.15266e-16 -5.14869
v  0 0 0
v  6.7227 5.51621 -5.14887
v  9.47917 8.63621 -1.54966
v  9.47899 9.48726e-17 -1.54939
v  12.2353 5.51641 2.04952
v  12.2352 -1.25507e-16 2.04969
v  5.51184 5.51641 7.19819
v  5.51172 -4.40773e-16 7.19837
v  2.75577 -2.20379e-16 3.59907
v  2.75596 8.63621 3.5988

# 0 UV coordinates

# 17 vertex normals
vn -0.608038 -1.22087e-05 -0.793908
vn -0.608038 -1.21878e-05 -0.793908
vn 0.793932 -3.60742e-05 -0.608006
vn 0.793932 -3.61139e-05 -0.608006
vn 0.793933 -3.6153e-05 -0.608006
vn 0.607985 1.21671e-05 0.793949
vn 0.607985 1.22488e-05 0.793949
vn -0.793981 3.61168e-05 0.607943
vn -0.793981 3.61671e-05 0.607943
vn -0.793981 3.61671e-05 0.607943
vn -0.793981 3.61582e-05 0.607943
vn 6.89523e-25 -1 -6.12323e-17
vn 0 -1 -6.12323e-17
vn 0 -1 -6.12324e-17
vn 0.344679 0.823773 0.450106
vn 0.344679 0.823773 0.450106
vn -0.344683 0.823768 -0.450111

# Mesh 'defaultobject' with 20 faces
g defaultobject
usemtl DefaultMaterial
f  1//1 2//1 3//1
f  2//1 1//1 4//2
f  2//3 5//3 6//3
f  5//3 2//3 4//4
f  6//3 7//5 8//5
f  7//5 6//3 5//3
f  8//6 9//6 10//6
f  9//6 8//6 7//7
f  9//8 11//8 10//8
f  11//8 9//8 12//9
f  12//9 3//10 11//8
f  3//10 12//9 1//11
f  6//12 3//12 2//12
f  3//12 6//12 11//13
f  11//13 6//12 10//13
f  10//13 6//12 8//14
f  12//15 7//15 5//15
f  7//15 12//15 9//16
f  1//17 5//17 4//17
f  5//17 1//17 12//17

