# {"id":"BLDG_0003000e00002da4","idOriginal":"BLDG_0003000e00002da4","origin":[13.42697653593876,52.51992841524917],"elevation":36.2200012207031}
# Longitude: 13.42697653593876
# Latitude: 52.51992841524917
# Elevation: 36.2200012207031

# File produced by Open Asset Import Library (http://www.assimp.sf.net)
# (assimp v3.1.0)

mtllib BLDG_0003000e00002da4.obj.mtl

# 10 vertex positions
v  17.0249 6.93703 -22.8666
v  23.28 6.44184 -24.8803
v  15.0224 6.44184 -29.0865
v  8.25772 6.44184 4.20599
v  4.12894 6.93703 2.10288
v  0.000137854 6.44184 -0.00020369
v  8.25758 -2.57555e-16 4.20619
v  15.0223 1.78102e-15 -29.0863
v  23.2798 1.52347e-15 -24.8801
v  0 0 0

# 0 UV coordinates

# 16 vertex normals
vn 0.0482334 0.994337 -0.0946916
vn 0.0944185 0.994338 0.0487645
vn 0.0944185 0.994338 0.0487645
vn -0.0944184 0.994338 -0.0487645
vn -0.0944185 0.994338 -0.0487645
vn 2.23367e-23 -1 -6.12323e-17
vn 0 -1 -6.12323e-17
vn 0.453883 -3.76422e-05 -0.891061
vn 0.453883 -3.79061e-05 -0.891061
vn 0.888496 -4.4861e-06 0.458883
vn 0.888497 -4.34139e-06 0.458883
vn -0.453883 3.79073e-05 0.891061
vn -0.453883 3.78882e-05 0.891061
vn -0.453883 3.78225e-05 0.891061
vn -0.888497 4.50385e-06 -0.458883
vn -0.888497 4.53906e-06 -0.458883

# Mesh 'defaultobject' with 16 faces
g defaultobject
usemtl DefaultMaterial
f  1//1 2//1 3//1
f  4//2 1//2 5//2
f  1//2 4//2 2//3
f  5//4 3//4 6//4
f  3//4 5//4 1//5
f  7//6 8//6 9//6
f  8//6 7//6 10//7
f  3//8 9//8 8//8
f  9//8 3//8 2//9
f  9//10 4//10 7//10
f  4//10 9//10 2//11
f  4//12 10//12 7//12
f  10//12 4//12 6//13
f  6//13 4//12 5//14
f  6//15 8//15 10//15
f  8//15 6//15 3//16

