# {"id":"BLDG_00030000001fd75e","idOriginal":"BLDG_00030000001fd75e","origin":[13.387501386355133,52.55622862303378],"elevation":40.8899993896484}
# Longitude: 13.387501386355133
# Latitude: 52.55622862303378
# Elevation: 40.8899993896484

# File produced by Open Asset Import Library (http://www.assimp.sf.net)
# (assimp v3.1.0)

mtllib BLDG_00030000001fd75e.obj.mtl

# 10 vertex positions
v  5.30931 5.21188 -11.3943
v  15.7477 3.88816e-16 -6.34984
v  5.3092 6.97692e-16 -11.3942
v  15.7478 5.21188 -6.35001
v  10.4386 5.21188 5.04416
v  10.4385 -3.08876e-16 5.04433
v  0 0 0
v  5.21935 5.60509 2.52199
v  0.000111264 5.21188 -0.0001652
v  8.08028 5.60509 -3.6179

# 0 UV coordinates

# 16 vertex normals
vn 0.435104 -3.77774e-05 -0.90038
vn 0.435104 -3.78199e-05 -0.90038
vn 0.906429 -6.0555e-06 0.422357
vn 0.906429 -5.88082e-06 0.422357
vn -0.435104 3.78995e-05 0.90038
vn -0.435104 3.77407e-05 0.90038
vn -0.435104 3.78278e-05 0.90038
vn -0.906429 5.96321e-06 -0.422357
vn -0.906429 5.95258e-06 -0.422357
vn 0.0294496 0.997707 -0.0609415
vn 0.0613506 0.997707 0.0285868
vn 0.0613506 0.997707 0.0285868
vn -0.0613506 0.997707 -0.0285868
vn -0.0613506 0.997707 -0.0285867
vn 1.4532e-24 -1 -6.12323e-17
vn 0 -1 -6.12323e-17

# Mesh 'defaultobject' with 16 faces
g defaultobject
usemtl DefaultMaterial
f  1//1 2//1 3//1
f  2//1 1//1 4//2
f  2//3 5//3 6//3
f  5//3 2//3 4//4
f  5//5 7//5 6//5
f  7//5 5//5 8//6
f  7//5 8//6 9//7
f  9//8 3//8 7//8
f  3//8 9//8 1//9
f  10//10 4//10 1//10
f  8//11 4//11 10//11
f  4//11 8//11 5//12
f  9//13 10//13 1//13
f  10//13 9//13 8//14
f  2//15 7//15 3//15
f  7//15 2//15 6//16

