# {"id":"BLDG_0003000b00039d0f","idOriginal":"BLDG_0003000b00039d0f","origin":[13.361342291253221,52.50262355385229],"elevation":34.25}
# Longitude: 13.361342291253221
# Latitude: 52.50262355385229
# Elevation: 34.25

# File produced by Open Asset Import Library (http://www.assimp.sf.net)
# (assimp v3.1.0)

mtllib BLDG_0003000b00039d0f.obj.mtl

# 30 vertex positions
v  14.3087 -2.74725e-16 4.48661
v  0.000511794 24.0172 -0.000758599
v  0 0 0
v  14.3093 24.0172 4.48585
v  16.1984 1.10885e-16 -1.81089
v  16.1989 24.0172 -1.81164
v  14.7209 24.0172 -2.30176
v  14.7204 1.40895e-16 -2.301
v  15.4849 3.05182e-16 -4.984
v  15.4854 24.0172 -4.98476
v  16.1546 4.49156e-16 -7.33528
v  16.1551 24.0172 -7.33604
v  16.7477 5.76664e-16 -9.41764
v  16.7482 24.0172 -9.4184
v  18.1749 5.48245e-16 -8.95352
v  18.1755 24.0172 -8.95428
v  18.3984 24.0172 -8.38825
v  18.3979 5.13586e-16 -8.38749
v  27.3685 3.39662e-16 -5.5471
v  27.369 24.0172 -5.54786
v  29.3166 7.26549e-16 -11.8654
v  29.3171 24.0172 -11.8662
v  19.6087 24.0172 -14.9037
v  19.6082 9.12544e-16 -14.903
v  5.64681 24.0172 -19.272
v  5.6463 1.18003e-15 -19.2713
v  3.28672 24.0172 -11.2164
v  3.28621 6.86758e-16 -11.2156
v  2.58186 24.0172 -8.81206
v  2.58135 5.39536e-16 -8.8113

# 0 UV coordinates

# 37 vertex normals
vn -0.299194 3.65207e-05 0.954192
vn -0.299194 3.65207e-05 0.954192
vn 0.957809 -1.13056e-05 0.287406
vn 0.314751 -3.66937e-05 -0.949174
vn 0.314752 -3.66812e-05 -0.949174
vn 0.961722 -1.18492e-05 0.274027
vn 0.961752 -1.18545e-05 0.27392
vn 0.961752 -1.1818e-05 0.27392
vn 0.961744 -1.1815e-05 0.273949
vn 0.961744 -1.18196e-05 0.273949
vn -0.309252 3.66029e-05 0.95098
vn -0.309252 3.66409e-05 0.95098
vn -0.930408 3.13872e-05 0.366525
vn -0.301864 3.65618e-05 0.953351
vn -0.301864 3.65449e-05 0.953351
vn 0.955612 -1.10322e-05 0.294629
vn 0.955612 -1.10382e-05 0.294629
vn 0.298603 -3.65066e-05 -0.954378
vn 0.298603 -3.64829e-05 -0.954378
vn 0.298601 -3.65267e-05 -0.954378
vn -0.959663 1.15574e-05 -0.281154
vn -0.959613 1.15605e-05 -0.281325
vn -0.959613 1.15509e-05 -0.281325
vn -0.959666 1.15699e-05 -0.281143
vn -0.959666 1.15673e-05 -0.281143
vn -1.7019e-24 -1 -6.12323e-17
vn 1.42705e-23 -1 -6.12323e-17
vn -1.70277e-23 -1 -6.12324e-17
vn 0 -1 -6.12323e-17
vn -1.87013e-24 -1 -6.12324e-17
vn -1.71095e-24 -1 -6.12323e-17
vn -2.81997e-24 -1 -6.12323e-17
vn 2.81569e-24 -1 -6.12323e-17
vn 0 -1 -6.12323e-17
vn 3.75841e-24 -1 -6.12324e-17
vn -2.64339e-18 -1 -5.22069e-17
vn 0 1 0

# Mesh 'defaultobject' with 56 faces
g defaultobject
usemtl DefaultMaterial
f  1//1 2//1 3//1
f  2//1 1//1 4//2
f  5//3 4//3 1//3
f  4//3 5//3 6//3
f  7//4 5//4 8//4
f  5//4 7//4 6//5
f  9//6 7//6 8//6
f  7//6 9//6 10//6
f  11//7 10//7 9//7
f  10//7 11//7 12//8
f  13//9 12//9 11//9
f  12//9 13//9 14//10
f  15//11 14//11 13//11
f  14//11 15//11 16//12
f  17//13 15//13 18//13
f  15//13 17//13 16//13
f  19//14 17//14 18//14
f  17//14 19//14 20//15
f  21//16 20//16 19//16
f  20//16 21//16 22//17
f  23//18 21//18 24//18
f  21//18 23//18 22//19
f  25//20 24//18 26//20
f  24//18 25//20 23//18
f  27//21 26//21 28//21
f  26//21 27//21 25//21
f  29//22 28//22 30//22
f  28//22 29//22 27//23
f  2//24 30//24 3//24
f  30//24 2//24 29//25
f  19//26 18//26 21//26
f  15//27 21//26 18//26
f  13//28 21//26 15//27
f  1//29 3//29 5//29
f  8//30 5//29 3//29
f  30//31 8//30 3//29
f  9//32 8//30 30//31
f  11//33 9//32 30//31
f  28//34 11//33 30//31
f  13//28 11//33 28//34
f  26//35 13//28 28//34
f  21//26 13//28 26//35
f  24//36 21//26 26//35
f  7//37 14//37 25//37
f  23//37 25//37 14//37
f  12//37 14//37 7//37
f  10//37 12//37 7//37
f  16//37 23//37 14//37
f  17//37 20//37 16//37
f  23//37 16//37 20//37
f  22//37 23//37 20//37
f  2//37 4//37 29//37
f  27//37 29//37 4//37
f  25//37 27//37 4//37
f  7//37 25//37 4//37
f  6//37 7//37 4//37

