# {"id":"BLDG_0003000b0051c5d3","idOriginal":"BLDG_0003000b0051c5d3","origin":[13.386634939256982,52.52938776956967],"elevation":33.9000015258789}
# Longitude: 13.386634939256982
# Latitude: 52.52938776956967
# Elevation: 33.9000015258789

# File produced by Open Asset Import Library (http://www.assimp.sf.net)
# (assimp v3.1.0)

mtllib BLDG_0003000b0051c5d3.obj.mtl

# 27 vertex positions
v  3.63832 -6.10954e-16 9.97764
v  28.3424 1.18906e-16 -1.94188
v  29.2788 -3.82729e-17 0.625044
v  26.9191 3.57986e-16 -5.84636
v  25.6413 5.72537e-16 -9.35025
v  5.26897 1.17683e-16 -1.92191
v  1.27891 -2.14689e-16 3.50614
v  0 0 0
v  3.63856 11 9.97729
v  6.54886 11 1.58361
v  1.27813 11 3.50615
v  29.279 11 0.624696
v  10.8786 11 0.00428541
v  9.59991 11 -3.5013
v  26.9186 11 -5.84644
v  5.27015 11 -1.92198
v  5.26918 10 -1.92222
v  1.27811 10 3.50619
v  6.54884 10 1.58364
v  0.000213454 10 -0.000316409
v  10.8785 6.7 0.00442147
v  25.6414 6.7 -9.35046
v  9.60006 6.7 -3.50052
v  26.9192 6.7 -5.84657
v  29.279 10 0.624727
v  26.9185 10 -5.84641
v  3.63854 10 9.97732

# 0 UV coordinates

# 40 vertex normals
vn -5.67913e-24 -1 -6.12324e-17
vn 1.86699e-24 -1 -6.12323e-17
vn -2.08028e-24 -1 -6.12323e-17
vn 0 -1 -6.12323e-17
vn 1.09638e-23 -1 -6.12323e-17
vn 0 1 0
vn 0.939478 -3.09134e-05 -0.34261
vn 0.939478 -3.08943e-05 -0.34261
vn 0.939453 -3.09153e-05 -0.342677
vn 0.939453 -3.05563e-05 -0.342678
vn 0.939453 -3.08556e-05 -0.342677
vn 0.939453 -3.06584e-05 -0.342676
vn 0.939517 4.68644e-05 -0.342501
vn 0.343462 2.24107e-05 0.939167
vn -0.342608 -2.23719e-05 -0.939478
vn -0.342567 8.901e-05 -0.939493
vn -0.342487 3.05475e-05 -0.939522
vn 0.276315 -3.63091e-05 -0.961067
vn -0.342675 -2.24023e-05 -0.939454
vn -0.342675 -2.24107e-05 -0.939454
vn -0.342675 -0.000183585 -0.939454
vn -0.939552 3.08892e-05 0.342407
vn -0.939453 3.09127e-05 0.342677
vn -0.939448 -8.24715e-05 0.342692
vn -0.939453 -6.65315e-05 0.342677
vn -0.939507 3.09395e-05 0.342531
vn -0.939507 3.08928e-05 0.342531
vn 0.342675 2.2363e-05 0.939454
vn 0.342675 2.24079e-05 0.939454
vn 0.342675 2.12449e-05 0.939454
vn 0.342675 2.25307e-05 0.939454
vn 0.939453 -3.08528e-05 -0.342677
vn 0.939453 -3.0847e-05 -0.342677
vn -0.342675 -2.23415e-05 -0.939454
vn -0.342675 -2.28242e-05 -0.939454
vn -0.342675 -2.23425e-05 -0.939454
vn -0.93938 0.000830481 0.342878
vn -0.939453 3.10521e-05 0.342677
vn -0.342675 -2.22128e-05 -0.939454
vn -0.342675 -2.24776e-05 -0.939454

# Mesh 'defaultobject' with 50 faces
g defaultobject
usemtl DefaultMaterial
f  1//1 2//1 3//1
f  2//1 1//1 4//2
f  4//2 1//1 5//3
f  5//3 1//1 6//4
f  6//4 1//1 7//5
f  6//4 7//5 8//4
f  9//6 10//6 11//6
f  10//6 9//6 12//6
f  10//6 12//6 13//6
f  10//6 13//6 14//6
f  13//6 12//6 15//6
f  14//6 16//6 10//6
f  17//6 18//6 19//6
f  18//6 17//6 20//6
f  21//6 22//6 23//6
f  22//6 21//6 24//6
f  5//7 24//7 4//7
f  24//7 5//7 22//8
f  2//9 25//9 3//9
f  25//9 2//9 12//10
f  12//10 2//9 15//11
f  15//11 2//9 26//12
f  26//13 2//13 4//13
f  26//14 4//14 24//14
f  5//15 23//15 22//15
f  23//16 5//16 6//16
f  23//17 6//17 16//17
f  16//18 6//18 17//18
f  17//19 6//19 20//19
f  20//19 6//19 8//20
f  16//21 14//21 23//21
f  8//22 18//22 20//22
f  18//23 9//23 11//23
f  9//24 18//24 8//24
f  9//25 8//25 7//25
f  9//26 7//26 27//26
f  27//26 7//26 1//27
f  9//28 25//28 12//28
f  25//28 9//28 3//29
f  3//29 9//28 27//30
f  3//29 27//30 1//31
f  23//32 13//32 21//32
f  13//32 23//32 14//33
f  21//34 26//34 24//34
f  26//34 21//34 15//35
f  15//35 21//34 13//36
f  19//37 16//37 17//37
f  16//38 19//38 10//38
f  19//39 11//39 10//39
f  11//39 19//39 18//40

