# {"id":"BLDG_0003000f00002798","idOriginal":"BLDG_0003000f00002798","origin":[13.368671814588833,52.5033861857443],"elevation":33.1300010681152}
# Longitude: 13.368671814588833
# Latitude: 52.5033861857443
# Elevation: 33.1300010681152

# File produced by Open Asset Import Library (http://www.assimp.sf.net)
# (assimp v3.1.0)

mtllib BLDG_0003000f00002798.obj.mtl

# 80 vertex positions
v  55.0213 -8.70293e-16 14.213
v  44.3768 -9.25968e-16 15.1222
v  48.3908 -5.5692e-16 9.0952
v  50.832 -1.22509e-15 20.0072
v  23.6275 0.0299988 -10.0182
v  25.3285 0.0299988 -0.568596
v  19.6058 0.0299988 -4.84442
v  29.2751 0.0299988 -5.65911
v  49.6751 -0.0600014 42.0114
v  79.3511 -0.0600014 23.845
v  58.6477 -0.0600014 49.3522
v  68.8059 -0.0600014 18.6299
v  70.517 -0.0600014 16.6185
v  4.37655 1.53 -5.88175
v  -11.6041 1.53 -9.42458
v  -7.09719 1.53 -15.0592
v  -0.196071 1.53 -0.159239
v  7.5019e-05 1.53 7.49798e-05
v  27.7174 -0.52 -15.2796
v  4.37656 -0.52 -5.88168
v  18.1859 -0.52 -23.1458
v  33.2159 -0.52 -10.7419
v  0 -0.52 -3.18408e-17
v  11.3663 -0.52 9.23208
v  51.5341 -0.52 4.37572
v  22.5405 -0.52 18.3089
v  58.1726 -0.52 9.85435
v  33.7154 -0.52 27.3856
v  68.806 -0.52 18.63
v  44.7345 -0.52 36.3355
v  49.6752 -0.52 42.0114
v  43.9377 -0.52 37.3174
v  55.0217 14.6543 14.2125
v  48.3911 14.6543 9.09474
v  44.3771 14.6543 15.1217
v  50.8323 14.6543 20.0068
v  29.2754 14.699 -5.65958
v  23.6278 14.699 -10.0187
v  19.6061 14.699 -4.84488
v  25.3288 14.699 -0.56906
v  58.6479 8.71122 49.3519
v  49.6753 8.71122 42.0111
v  79.3513 8.71122 23.8447
v  70.5172 8.71122 16.6182
v  68.8061 8.71122 18.6296
v  4.37678 12.6023 -5.8821
v  -7.09696 12.6023 -15.0596
v  -11.6038 12.6023 -9.42493
v  -0.195835 12.6023 -0.159589
v  0.000311075 12.6023 -0.00027477
v  48.391 -0.52 9.09517
v  44.3771 12.5407 15.1217
v  44.3768 -0.52 15.1221
v  48.3913 12.5407 9.09475
v  55.0216 12.5407 14.2125
v  55.0214 -0.52 14.2129
v  50.8323 12.5407 20.0067
v  50.832 -0.52 20.0071
v  23.6276 -0.52 -10.0182
v  19.6062 12.5407 -4.84487
v  19.6059 -0.52 -4.84446
v  23.6278 12.5407 -10.0186
v  29.2755 12.5407 -5.65948
v  29.2752 -0.52 -5.65906
v  25.3288 12.5407 -0.568996
v  25.3286 -0.52 -0.568583
v  33.2161 12.5407 -10.7423
v  27.7177 12.5407 -15.28
v  18.1862 12.5407 -23.1463
v  4.37684 12.5407 -5.88209
v  0.000278449 12.5407 -0.000412551
v  11.3666 12.5407 9.23167
v  22.5408 12.5407 18.3085
v  33.7157 12.5407 27.3851
v  44.7348 12.5407 36.3351
v  43.938 12.5407 37.317
v  49.6755 12.5407 42.011
v  68.8063 12.5407 18.6295
v  58.1729 12.5407 9.85394
v  51.5344 12.5407 4.37531

# 0 UV coordinates

# 72 vertex normals
vn 8.74958e-25 -1 -6.12323e-17
vn -4.57413e-25 -1 -6.12324e-17
vn 0 -1 0
vn 0.61101 -3.80092e-05 -0.791623
vn -0.832305 1.74386e-08 -0.554318
vn -0.832304 2.70153e-07 -0.554319
vn -0.603443 3.79441e-05 0.797406
vn 0.810374 1.45626e-06 0.585913
vn 0.810373 1.20142e-06 0.585914
vn 0.61101 -3.80368e-05 -0.791623
vn -0.789526 -2.53519e-06 -0.613717
vn -0.789526 -2.55513e-06 -0.613717
vn -0.598548 3.80685e-05 0.801087
vn -0.598548 3.8049e-05 0.801087
vn 0.790302 2.48294e-06 0.612718
vn 0.790302 2.50313e-06 0.612718
vn -0.633214 3.80668e-05 0.773977
vn 0.77643 3.38907e-06 0.630203
vn 0.77643 3.60088e-06 0.630203
vn 0.633166 -3.76485e-05 -0.774016
vn -0.761669 -4.53069e-06 -0.647967
vn -0.773949 -3.61134e-06 -0.633248
vn -0.773949 -3.81024e-06 -0.633248
vn 0.624632 -3.79873e-05 -0.780919
vn 0.624633 -3.80811e-05 -0.780919
vn -0.780927 -3.06341e-06 -0.624623
vn -0.780927 -3.09704e-06 -0.624622
vn -0.630443 3.79596e-05 0.776236
vn -0.630443 3.80037e-05 0.776236
vn -0.630462 3.79602e-05 0.77622
vn -0.630462 3.79595e-05 0.77622
vn 0.802279 1.73875e-06 0.59695
vn 0.832291 -2.62171e-07 0.554339
vn 0.832291 -2.21837e-07 0.554339
vn -0.611018 3.80563e-05 0.791617
vn -0.810375 -1.28919e-06 -0.585911
vn -0.810375 -1.24641e-06 -0.585911
vn 0.603442 -3.8136e-05 -0.797407
vn 0.603442 -3.80277e-05 -0.797407
vn 0.789522 2.54056e-06 0.613722
vn 0.789522 2.56285e-06 0.613722
vn -0.611007 3.80274e-05 0.791625
vn -0.611007 3.80563e-05 0.791625
vn -0.790297 -2.50267e-06 -0.612724
vn -0.790297 -2.49987e-06 -0.612724
vn 0.598553 -3.8044e-05 -0.801083
vn 0.636499 -3.78967e-05 -0.771277
vn 0.6365 -3.79582e-05 -0.771277
vn 0.636519 -3.79559e-05 -0.771261
vn 0.636519 -3.79086e-05 -0.771261
vn -0.780913 -3.0991e-06 -0.62464
vn -0.780913 -3.05349e-06 -0.62464
vn -0.802266 -1.7525e-06 -0.596967
vn -0.802266 -1.76887e-06 -0.596967
vn -0.630467 3.7984e-05 0.776216
vn -0.630467 3.79597e-05 0.776216
vn -0.630501 3.79272e-05 0.776188
vn -0.630501 3.79839e-05 0.776188
vn -0.630469 3.79273e-05 0.776214
vn -0.630461 3.79274e-05 0.776221
vn -0.77651 -3.50374e-06 -0.630104
vn -0.776509 -3.31978e-06 -0.630106
vn -0.63321 3.81413e-05 0.77398
vn 0.773948 3.63513e-06 0.633249
vn 0.773948 3.24842e-06 0.63325
vn 0.636514 -3.80478e-05 -0.771265
vn 0.636514 -3.78783e-05 -0.771265
vn 0.636511 -3.79035e-05 -0.771268
vn 0.636511 -3.79375e-05 -0.771268
vn 0.63651 -3.79744e-05 -0.771268
vn 0.63651 -3.7876e-05 -0.771268
vn -0 1 0

# Mesh 'defaultobject' with 128 faces
g defaultobject
usemtl DefaultMaterial
f  1//1 2//1 3//1
f  2//1 1//1 4//2
f  5//3 6//3 7//3
f  6//3 5//3 8//3
f  9//3 10//3 11//3
f  10//3 9//3 12//3
f  10//3 12//3 13//3
f  14//3 15//3 16//3
f  15//3 14//3 17//3
f  17//3 14//3 18//3
f  19//3 20//3 21//3
f  20//3 19//3 22//3
f  20//3 22//3 23//3
f  23//3 22//3 24//3
f  24//3 22//3 25//3
f  24//3 25//3 26//3
f  26//3 25//3 27//3
f  26//3 27//3 28//3
f  28//3 27//3 29//3
f  28//3 29//3 30//3
f  30//3 29//3 31//3
f  30//3 31//3 32//3
f  3//4 33//4 1//4
f  33//4 3//4 34//4
f  35//5 3//5 2//5
f  3//5 35//5 34//6
f  36//7 2//7 4//7
f  2//7 36//7 35//7
f  1//8 36//8 4//8
f  36//8 1//8 33//9
f  5//10 37//10 8//10
f  37//10 5//10 38//10
f  39//11 5//11 7//11
f  5//11 39//11 38//12
f  40//13 7//13 6//13
f  7//13 40//13 39//14
f  8//15 40//15 6//15
f  40//15 8//15 37//16
f  41//17 9//17 11//17
f  9//17 41//17 42//17
f  10//18 41//18 11//18
f  41//18 10//18 43//19
f  13//20 43//20 10//20
f  43//20 13//20 44//20
f  45//21 13//21 12//21
f  13//21 45//21 44//21
f  42//22 12//22 9//22
f  12//22 42//22 45//23
f  16//24 46//24 14//24
f  46//24 16//24 47//25
f  48//26 16//26 15//26
f  16//26 48//26 47//27
f  49//28 15//28 17//28
f  15//28 49//28 48//29
f  50//30 17//30 18//30
f  17//30 50//30 49//31
f  14//32 50//32 18//32
f  50//32 14//32 46//32
f  51//33 52//33 53//33
f  52//33 51//33 54//34
f  55//35 51//35 56//35
f  51//35 55//35 54//35
f  57//36 56//36 58//36
f  56//36 57//36 55//37
f  53//38 57//38 58//38
f  57//38 53//38 52//39
f  59//40 60//40 61//40
f  60//40 59//40 62//41
f  63//42 59//42 64//42
f  59//42 63//42 62//43
f  65//44 64//44 66//44
f  64//44 65//44 63//45
f  61//46 65//46 66//46
f  65//46 61//46 60//46
f  19//47 67//47 22//47
f  67//47 19//47 68//48
f  21//49 68//49 19//49
f  68//49 21//49 69//50
f  70//51 21//51 20//51
f  21//51 70//51 69//52
f  71//53 20//53 23//53
f  20//53 71//53 70//54
f  72//55 23//55 24//55
f  23//55 72//55 71//56
f  73//57 24//57 26//57
f  24//57 73//57 72//58
f  74//59 26//59 28//59
f  26//59 74//59 73//59
f  75//60 28//60 30//60
f  28//60 75//60 74//60
f  76//61 30//61 32//61
f  30//61 76//61 75//62
f  77//63 32//63 31//63
f  32//63 77//63 76//63
f  29//64 77//64 31//64
f  77//64 29//64 78//65
f  27//66 78//66 29//66
f  78//66 27//66 79//67
f  25//68 79//67 27//66
f  79//67 25//68 80//69
f  22//70 80//69 25//68
f  80//69 22//70 67//71
f  52//3 55//3 57//3
f  55//3 52//3 54//3
f  62//3 65//3 60//3
f  65//3 62//3 63//3
f  70//72 75//72 69//72
f  75//72 70//72 74//72
f  74//72 70//72 72//72
f  72//72 70//72 71//72
f  74//72 72//72 73//72
f  79//72 77//72 78//72
f  77//72 79//72 80//72
f  77//72 80//72 67//72
f  77//72 67//72 68//72
f  77//72 68//72 69//72
f  77//72 69//72 75//72
f  77//72 75//72 76//72
f  33//72 35//72 36//72
f  35//72 33//72 34//72
f  38//72 40//72 37//72
f  40//72 38//72 39//72
f  41//72 45//72 42//72
f  45//72 41//72 43//72
f  45//72 43//72 44//72
f  47//72 50//72 46//72
f  50//72 47//72 49//72
f  49//72 47//72 48//72

