# {"id":"BLDG_00030009007ea42b","idOriginal":"BLDG_00030009007ea42b","origin":[13.375302065575816,52.55976007099248],"elevation":40.8199996948242}
# Longitude: 13.375302065575816
# Latitude: 52.55976007099248
# Elevation: 40.8199996948242

# File produced by Open Asset Import Library (http://www.assimp.sf.net)
# (assimp v3.1.0)

mtllib BLDG_00030009007ea42b.obj.mtl

# 22 vertex positions
v  14.7676 1.27943e-16 -2.08946
v  25.0864 -3.40525e-16 5.56119
v  12.4567 -1.69088e-16 2.76142
v  26.4103 -3.00953e-17 0.491494
v  7.58142 9.74479e-16 -15.9144
v  20.0771 8.104e-16 -13.2348
v  2.3109 2.97031e-16 -4.85089
v  0 0 0
v  14.768 19.0681 -2.09007
v  25.0869 21.8998 5.5605
v  26.4107 19.0681 0.49089
v  12.4572 21.8998 2.76073
v  16.765 21.2059 -13.9459
v  11.4605 21.2059 -2.82337
v  20.0775 19.0681 -13.2354
v  10.5976 21.9123 -15.2685
v  5.32249 21.9123 -4.18407
v  7.58183 19.0681 -15.9151
v  2.3113 19.0681 -4.85149
v  3.01159 21.9123 0.666816
v  0.000406754 19.0681 -0.000604549
v  9.14958 21.2059 2.02752

# 0 UV coordinates

# 35 vertex normals
vn 0 -1 -6.12323e-17
vn -3.39131e-24 -1 -6.12323e-17
vn 0 -1 -6.12323e-17
vn 5.55906e-24 -1 -6.12323e-17
vn 0.102956 0.879604 -0.464432
vn 0.102956 0.879604 -0.464432
vn 0.490637 0.839358 0.233993
vn 0.491263 0.838982 0.234031
vn 0.103411 0.99342 0.0492133
vn 0.10322 0.99344 0.0492276
vn -0.620526 0.726335 -0.29561
vn -0.621141 0.725812 -0.295602
vn -0.620526 0.726335 -0.29561
vn -0.620526 0.726335 -0.29561
vn 0.103401 0.993419 0.0492586
vn 0.103401 0.993419 0.0492586
vn 0.490704 0.839383 0.233764
vn -0.0617168 0.848892 -0.52495
vn -0.216427 3.55614e-05 0.976299
vn 0.216427 -3.55795e-05 -0.976299
vn 0.216427 -3.55872e-05 -0.976299
vn 0.967556 -1.26369e-05 0.252657
vn 0.967556 -1.26999e-05 0.252658
vn 0.209676 -3.54767e-05 -0.977771
vn 0.209676 -3.54924e-05 -0.977771
vn 0.209676 -3.57354e-05 -0.977771
vn 0.209676 -3.52095e-05 -0.977771
vn 0.902792 -5.6393e-06 0.430077
vn 0.902792 -5.68791e-06 0.430078
vn -0.902792 5.62017e-06 -0.430078
vn -0.216427 3.55691e-05 0.976299
vn -0.216427 3.55701e-05 0.976299
vn -0.216427 3.60787e-05 0.976299
vn -0.216427 3.55611e-05 0.976299
vn -0.902792 5.62254e-06 -0.430078

# Mesh 'defaultobject' with 40 faces
g defaultobject
usemtl DefaultMaterial
f  1//1 2//1 3//1
f  2//1 1//1 4//2
f  1//1 5//3 6//3
f  5//3 1//1 7//4
f  7//4 3//1 8//1
f  3//1 7//4 1//1
f  9//5 10//5 11//5
f  10//5 9//5 12//6
f  9//7 13//7 14//7
f  13//8 9//8 15//8
f  14//9 16//9 17//9
f  16//10 14//10 13//10
f  17//11 18//11 19//11
f  18//12 17//12 16//12
f  19//11 20//13 17//11
f  20//13 19//11 21//14
f  17//15 22//15 14//15
f  22//15 17//15 20//16
f  22//17 9//17 14//17
f  22//18 12//18 9//18
f  2//19 12//19 3//19
f  12//19 2//19 10//19
f  9//20 4//20 1//20
f  4//20 9//20 11//21
f  4//22 10//22 2//22
f  10//22 4//22 11//23
f  18//24 6//24 5//24
f  6//24 18//24 15//25
f  15//25 18//24 16//26
f  15//25 16//26 13//27
f  6//28 9//28 1//28
f  9//28 6//28 15//29
f  19//30 5//30 7//30
f  5//30 19//30 18//30
f  12//19 8//31 3//19
f  8//31 12//19 21//32
f  21//32 12//19 22//33
f  20//34 21//32 22//33
f  21//35 7//30 8//35
f  7//30 21//35 19//30

