# {"id":"BLDG_00030000001ffe22","idOriginal":"BLDG_00030000001ffe22","origin":[13.380809639877622,52.561487716886695],"elevation":41.4099998474121}
# Longitude: 13.380809639877622
# Latitude: 52.561487716886695
# Elevation: 41.4099998474121

# File produced by Open Asset Import Library (http://www.assimp.sf.net)
# (assimp v3.1.0)

mtllib BLDG_00030000001ffe22.obj.mtl

# 19 vertex positions
v  6.54418 2.9794e-16 -4.86573
v  19.325 -2.343e-16 3.82641
v  5.26959 9.67609e-17 -1.58022
v  20.8894 -5.51146e-19 0.0090009
v  4.0333 -9.8375e-17 1.60659
v  17.9612 -4.38086e-16 7.15449
v  1.56653 1.83983e-16 -3.00467
v  0 0 0
v  6.54427 4.28538 -4.86587
v  19.3251 4.57232 3.82626
v  20.8894 4.28538 0.00886502
v  5.26969 4.57232 -1.58037
v  5.26968 4.28538 -1.58036
v  17.9613 4.57232 7.15434
v  19.3251 4.28538 3.82627
v  4.03339 4.57232 1.60644
v  1.56662 4.28538 -3.0048
v  4.03339 4.28538 1.60645
v  9.1446e-05 4.28538 -0.00013588

# 0 UV coordinates

# 25 vertex normals
vn -5.98521e-24 -1 -6.12323e-17
vn 0 -1 -6.12323e-17
vn 9.81827e-25 -1 -6.12323e-17
vn 3.61721e-24 -1 -6.12323e-17
vn 0.0223661 0.997581 -0.0658182
vn 0.0291358 0.996702 -0.0757432
vn 0.028558 0.996831 -0.0742411
vn 0.030956 0.996495 -0.0777144
vn 0 1 0
vn 0.925318 -7.65483e-06 0.379192
vn 0.925318 -7.73425e-06 0.379192
vn -0.370053 3.73679e-05 0.92901
vn -0.886721 4.26314e-06 -0.462305
vn -0.886721 4.25855e-06 -0.462305
vn 0.35902 -3.7258e-05 -0.93333
vn 0.35902 -3.7268e-05 -0.93333
vn -0.35902 3.88435e-05 0.93333
vn -0.932303 8.4558e-06 -0.361679
vn -0.932303 8.34435e-06 -0.361679
vn 0.321747 -3.68639e-05 -0.946826
vn 0.321747 -3.68956e-05 -0.946826
vn 0.925318 -7.65948e-06 0.379192
vn 0.925318 -7.74079e-06 0.379192
vn -0.370053 3.73963e-05 0.929011
vn -0.932303 8.7213e-06 -0.361679

# Mesh 'defaultobject' with 31 faces
g defaultobject
usemtl DefaultMaterial
f  1//1 2//1 3//1
f  2//1 1//1 4//2
f  5//3 2//1 6//3
f  2//1 5//3 3//1
f  7//4 5//3 8//4
f  5//3 7//4 3//1
f  9//5 10//5 11//5
f  10//6 9//6 12//6
f  13//7 14//7 15//7
f  14//8 13//8 16//8
f  17//9 18//9 13//9
f  18//9 17//9 19//9
f  2//10 14//10 6//10
f  14//10 2//10 15//11
f  5//12 19//12 8//12
f  19//12 5//12 18//12
f  19//13 7//13 8//13
f  7//13 19//13 17//14
f  17//15 3//15 7//15
f  3//15 17//15 13//16
f  15//17 12//17 13//17
f  12//17 15//17 10//17
f  12//18 1//18 3//18
f  1//18 12//18 9//19
f  9//20 4//20 1//20
f  4//20 9//20 11//21
f  4//22 10//22 2//10
f  10//22 4//22 11//23
f  6//24 16//24 5//12
f  16//24 6//24 14//24
f  16//25 13//25 18//25

