# {"id":"BLDG_00030009005b70be","idOriginal":"BLDG_00030009005b70be","origin":[13.370955520687778,52.551271325676126],"elevation":38.42}
# Longitude: 13.370955520687778
# Latitude: 52.551271325676126
# Elevation: 38.42

# File produced by Open Asset Import Library (http://www.assimp.sf.net)
# (assimp v3.1.0)

mtllib BLDG_00030009005b70be.obj.mtl

# 11 vertex positions
v  8.00816 16.24 6.28464
v  4.00391 -1.92427e-16 3.14258
v  8.00782 -3.84855e-16 6.28515
v  0 0 0
v  0.000346323 16.24 -0.000514611
v  4.00433 19.73 3.14195
v  18.9705 1.47978e-15 -24.1666
v  26.9786 16.24 -17.882
v  26.9783 1.09492e-15 -17.8815
v  18.9708 16.24 -24.1671
v  21.0667 19.73 -18.5939

# 0 UV coordinates

# 15 vertex normals
vn -0.617414 3.80831e-05 0.786638
vn -0.617414 3.80732e-05 0.786638
vn -0.617414 3.80934e-05 0.786638
vn -0.617414 3.81175e-05 0.786638
vn 0.617414 -3.80732e-05 -0.786638
vn 0.786596 2.81357e-06 0.617468
vn 0.786596 2.87474e-06 0.617468
vn -0.786596 -2.79183e-06 -0.617468
vn -0.786596 -2.85896e-06 -0.617468
vn 0.444823 0.824746 0.34918
vn 0.444823 0.824746 0.34918
vn -0.444824 0.824745 -0.349181
vn -0.444824 0.824745 -0.349181
vn 0.462261 0.662904 -0.588959
vn 0 -1 -6.12323e-17

# Mesh 'defaultobject' with 18 faces
g defaultobject
usemtl DefaultMaterial
f  1//1 2//1 3//1
f  2//1 1//1 4//2
f  4//2 1//1 5//3
f  5//3 1//1 6//4
f  7//5 8//5 9//5
f  8//5 7//5 10//5
f  9//6 1//6 3//6
f  1//6 9//6 8//7
f  5//8 7//8 4//8
f  7//8 5//8 10//9
f  1//10 11//10 6//10
f  11//10 1//10 8//11
f  6//12 10//12 5//12
f  10//12 6//12 11//13
f  8//14 10//14 11//14
f  3//15 7//15 9//15
f  7//15 3//15 4//15
f  4//2 3//1 2//1

