# {"id":"BLDG_0003000f0008b22a","idOriginal":"BLDG_0003000f0008b22a","origin":[13.35893122376592,52.52513438088603],"elevation":35.4000015258789}
# Longitude: 13.35893122376592
# Latitude: 52.52513438088603
# Elevation: 35.4000015258789

# File produced by Open Asset Import Library (http://www.assimp.sf.net)
# (assimp v3.1.0)

mtllib BLDG_0003000f0008b22a.obj.mtl

# 20 vertex positions
v  3.44806 -4.32911e-16 7.06997
v  0 0 0
v  6.75393 1.98624e-16 -3.24377
v  15.1626 9.53738e-16 -15.5757
v  3.4768 6.10076e-16 -9.96329
v  5.67906 -7.13019e-16 11.6445
v  10.2011 -2.34175e-16 3.82436
v  18.4025 5.41192e-16 -8.83834
v  21.809 1.07437e-16 -1.75458
v  12.4321 -5.14283e-16 8.39887
v  15.1629 15.0285 -15.5762
v  18.4028 15.0285 -8.83881
v  21.8093 15.0285 -1.75505
v  3.44838 15.0285 7.0695
v  0.000320218 15.0285 -0.0004754
v  5.67938 15.0285 11.644
v  6.75425 15.0285 -3.24425
v  3.47712 15.0285 -9.96377
v  10.2014 15.0285 3.82389
v  12.4324 15.0285 8.3984

# 0 UV coordinates

# 26 vertex normals
vn 0 -1 -6.12323e-17
vn -1.31099e-23 -1 -6.12323e-17
vn 4.06794e-24 -1 -6.12323e-17
vn 1.75947e-23 -1 -6.12323e-17
vn 0 -1 -6.12323e-17
vn -2.77659e-24 -1 -6.12323e-17
vn 0.90121 -3.29112e-05 -0.433384
vn 0.90121 -3.28257e-05 -0.433383
vn 0.90121 -3.30024e-05 -0.433384
vn 0.90121 -3.2925e-05 -0.433383
vn -0.898804 3.30177e-05 0.43835
vn -0.898804 3.29785e-05 0.43835
vn -0.898804 3.30447e-05 0.43835
vn -1 0 0
vn -0.898804 3.30308e-05 0.43835
vn -0.898804 3.30305e-05 0.43835
vn -0.432935 -1.93199e-05 -0.901425
vn -0.432935 -1.92558e-05 -0.901425
vn 0.433181 1.92753e-05 0.901307
vn 0.433181 1.93147e-05 0.901307
vn -0.432935 -1.92903e-05 -0.901425
vn -0.432935 -1.92844e-05 -0.901425
vn 0.898804 -3.30409e-05 -0.43835
vn 0.898804 -3.30159e-05 -0.438351
vn 0.433181 1.93105e-05 0.901307
vn 0 1 0

# Mesh 'defaultobject' with 36 faces
g defaultobject
usemtl DefaultMaterial
f  1//1 2//1 3//1
f  4//2 3//1 5//2
f  3//1 4//2 1//1
f  1//1 4//2 6//3
f  6//3 4//2 7//1
f  7//1 4//2 8//4
f  7//1 8//4 9//5
f  10//6 6//3 7//1
f  11//7 8//7 4//7
f  8//7 11//7 9//8
f  9//8 11//7 12//9
f  9//8 12//9 13//10
f  2//11 14//11 15//11
f  14//11 2//11 16//12
f  16//12 2//11 6//13
f  6//14 2//14 1//14
f  17//15 5//15 3//15
f  5//15 17//15 18//16
f  18//17 4//17 5//17
f  4//17 18//17 11//18
f  9//19 19//19 7//19
f  19//19 9//19 13//20
f  15//21 3//21 2//21
f  3//21 15//21 17//22
f  7//23 20//23 10//23
f  20//23 7//23 19//24
f  10//25 16//25 6//25
f  16//25 10//25 20//25
f  16//26 20//26 19//26
f  12//26 19//26 13//26
f  19//26 12//26 11//26
f  19//26 11//26 16//26
f  16//26 11//26 14//26
f  14//26 11//26 17//26
f  17//26 11//26 18//26
f  15//26 14//26 17//26

