# {"id":"BLDG_0003000b00498652","idOriginal":"BLDG_0003000b00498652","origin":[13.342856557193256,52.5273280120183],"elevation":32.7400016784668}
# Longitude: 13.342856557193256
# Latitude: 52.5273280120183
# Elevation: 32.7400016784668

# File produced by Open Asset Import Library (http://www.assimp.sf.net)
# (assimp v3.1.0)

mtllib BLDG_0003000b00498652.obj.mtl

# 26 vertex positions
v  12.3959 1.66521e-18 -0.0271949
v  1.20068 21.796 -0.00287625
v  1.20021 1.33894e-19 -0.00218666
v  12.3963 21.796 -0.0278845
v  13.3538 1.78247e-18 -0.0291099
v  13.3543 21.796 -0.0297995
v  13.4362 3.3163e-16 -5.41593
v  13.4366 21.796 -5.41662
v  14.103 3.30965e-16 -5.40508
v  14.1035 21.796 -5.40577
v  14.1828 6.52632e-16 -10.6583
v  14.1833 21.796 -10.659
v  13.5176 21.796 -10.6686
v  13.5172 6.53221e-16 -10.6679
v  13.5839 9.22958e-16 -15.073
v  13.5843 21.796 -15.0737
v  12.5806 21.796 -15.0843
v  12.5801 9.23604e-16 -15.0836
v  0.787001 21.796 -15.2135
v  0.786537 9.31514e-16 -15.2128
v  0.765178 21.796 -13.4409
v  0.764714 8.22978e-16 -13.4403
v  0.165392 21.796 -13.4487
v  0.164928 8.23453e-16 -13.448
v  0.000463943 21.796 -0.0006896
v  0 0 0

# 0 UV coordinates

# 35 vertex normals
vn 0.00223374 3.15908e-05 0.999997
vn 0.00223374 3.15907e-05 0.999997
vn 0.00199914 3.15957e-05 0.999998
vn 0.00199914 3.15958e-05 0.999998
vn 0.999883 -2.07788e-05 0.0152855
vn 0.999883 -2.08224e-05 0.0152857
vn -0.0162788 3.19773e-05 0.999867
vn -0.016278 3.19991e-05 0.999867
vn 0.999885 -2.08253e-05 0.0151907
vn 0.999885 -2.08256e-05 0.0151907
vn 0.0144398 -3.19383e-05 -0.999896
vn 0.0144398 -3.1939e-05 -0.999896
vn 0.999885 -2.07832e-05 0.0151451
vn 0.999885 -2.08269e-05 0.0151453
vn 0.0105133 -3.18568e-05 -0.999945
vn 0.0109527 -3.18658e-05 -0.99994
vn 0.0109527 -3.1866e-05 -0.99994
vn -0.999924 2.08955e-05 -0.0123111
vn -0.999924 2.08928e-05 -0.012311
vn 0.012921 -3.1907e-05 -0.999917
vn 0.012921 -3.1907e-05 -0.999916
vn -0.999925 2.08961e-05 -0.0122632
vn -0.999925 2.08957e-05 -0.0122632
vn 0.00182189 3.16e-05 0.999998
vn 0.00182188 3.15996e-05 0.999998
vn 0 1 0
vn 3.02164e-23 -1 -6.12323e-17
vn -1.3025e-25 -1 -6.12323e-17
vn 0 -1 -6.12323e-17
vn -9.11044e-24 -1 -6.12324e-17
vn 1.58187e-23 -1 -6.12323e-17
vn 0 -1 -6.12323e-17
vn 5.28061e-23 -1 -6.12323e-17
vn 2.45351e-23 -1 -6.12322e-17
vn -1.05241e-23 -1 -6.12324e-17

# Mesh 'defaultobject' with 48 faces
g defaultobject
usemtl DefaultMaterial
f  1//1 2//1 3//1
f  2//1 1//1 4//2
f  5//3 4//3 1//3
f  4//3 5//3 6//4
f  7//5 6//5 5//5
f  6//5 7//5 8//6
f  9//7 8//7 7//7
f  8//7 9//7 10//8
f  11//9 10//9 9//9
f  10//9 11//9 12//10
f  13//11 11//11 14//11
f  11//11 13//11 12//12
f  15//13 13//13 14//13
f  13//13 15//13 16//14
f  17//15 15//15 18//15
f  15//15 17//15 16//15
f  19//16 18//16 20//16
f  18//16 19//16 17//17
f  21//18 20//18 22//18
f  20//18 21//18 19//19
f  23//20 22//20 24//20
f  22//20 23//20 21//21
f  25//22 24//22 26//22
f  24//22 25//22 23//23
f  3//24 25//24 26//24
f  25//24 3//24 2//25
f  12//26 13//26 10//26
f  2//26 23//26 25//26
f  23//26 2//26 4//26
f  23//26 4//26 21//26
f  21//26 4//26 19//26
f  19//26 4//26 17//26
f  17//26 4//26 6//26
f  17//26 6//26 8//26
f  17//26 8//26 10//26
f  17//26 10//26 13//26
f  17//26 13//26 16//26
f  11//27 9//27 7//27
f  1//28 7//27 5//28
f  7//27 1//28 3//29
f  7//27 3//29 11//27
f  11//27 3//29 14//30
f  14//30 3//29 15//31
f  15//31 3//29 26//29
f  15//31 26//29 22//32
f  22//32 26//29 24//33
f  15//31 22//32 18//34
f  20//35 18//34 22//32

