# {"id":"BLDG_000300000017ced7","idOriginal":"BLDG_000300000017ced7","origin":[13.394194221232743,52.51348195589561],"elevation":34.0099983215332}
# Longitude: 13.394194221232743
# Latitude: 52.51348195589561
# Elevation: 34.0099983215332

# File produced by Open Asset Import Library (http://www.assimp.sf.net)
# (assimp v3.1.0)

mtllib BLDG_000300000017ced7.obj.mtl

# 75 vertex positions
v  32.9235 -0.119999 -6.99458
v  33.3286 24.73 -2.5586
v  33.3281 -0.119999 -2.55781
v  32.9241 24.73 -6.99537
v  34.0101 24.73 4.91609
v  34.0096 -0.119999 4.91687
v  33.3286 24.7295 -2.5586
v  34.2558 21.61 7.61153
v  34.2554 -0.119999 7.61221
v  17.6936 21.61 8.88262
v  17.6932 -0.119999 8.8833
v  10.5601 24.73 -0.811199
v  16.7659 -0.119999 -1.28672
v  10.5596 -0.119999 -0.810414
v  16.7664 24.73 -1.28751
v  11.4874 21.61 9.35892
v  11.4869 -0.119999 9.35961
v  0.00058612 27.3268 -0.00086752
v  0 -0.119999 -7.34782e-18
v  10.5602 27.3268 -0.811281
v  11.2417 26.3435 6.66343
v  11.2417 24.73 6.66349
v  0.538632 26.3435 7.48486
v  0.538598 24.73 7.48491
v  0.538067 -0.119999 7.4857
v  0.732556 21.61 10.1843
v  0.732092 -0.119999 10.185
v  28.993 2.01009 -6.64155
v  29.3194 4.08199e-16 -6.6664
v  28.9929 4.06674e-16 -6.64148
v  29.3194 2.01009 -6.66646
v  28.1293 1.03845e-15 -16.9592
v  28.1294 2.01009 -16.9592
v  26.6761 2.01009 -16.8889
v  26.6761 1.03415e-15 -16.8889
v  26.2956 1.31569e-15 -21.4868
v  26.2956 2.01009 -21.4869
v  15.1489 2.01009 -20.6647
v  15.1488 1.26535e-15 -20.6647
v  16.4192 2.01009 -5.33616
v  16.4192 3.26742e-16 -5.3361
v  16.7699 27.1781 -1.27526
v  1.89445 0.27 -0.419845
v  16.7693 0.27 -1.27441
v  1.89502 27.1781 -0.420696
v  9.33248 28.8518 -0.84803
v  0.783598 0.27 -13.5743
v  0.784173 27.1781 -13.5752
v  15.6584 0.27 -14.4289
v  15.659 27.1781 -14.4297
v  8.22163 28.8518 -14.0025
v  0.918497 24.99 -13.6451
v  -0.29968 0.0300026 -31.3272
v  0.917964 0.0300026 -13.6443
v  -0.299147 24.99 -31.328
v  14.353 0.0300026 -32.0452
v  14.3535 24.99 -32.046
v  15.5712 24.99 -14.3631
v  15.5707 0.0300026 -14.3623
v  14.2912 27.2891 -31.3302
v  -0.34882 0.310001 -32.0409
v  14.2906 0.310001 -31.3294
v  -0.348243 27.2891 -32.0417
v  6.97152 28.9899 -31.686
v  -0.954981 0.310001 -40.8436
v  -0.954404 27.2891 -40.8445
v  13.6845 0.310001 -40.1322
v  13.685 27.2891 -40.133
v  6.36536 28.9899 -40.4888
v  16.3943 -0.119999 -5.36153
v  16.3949 24.73 -5.36232
v  17.4479 24.73 6.18718
v  16.7664 24.7295 -1.28751
v  17.4474 -0.119999 6.18796
v  11.2411 -0.119999 6.66427

# 0 UV coordinates

# 82 vertex normals
vn 0.995869 -2.41216e-05 -0.0908017
vn 0.995869 -2.4121e-05 -0.0908023
vn 0.995869 -2.41215e-05 -0.0908023
vn 0.995869 -2.40232e-05 -0.0908022
vn 0.0765215 2.98714e-05 0.997068
vn 0.0765215 2.9882e-05 0.997068
vn -0.0765215 -2.98806e-05 -0.997068
vn -0.0765214 -2.98782e-05 -0.997068
vn 0.0765215 2.98705e-05 0.997068
vn -0.0765215 -2.98805e-05 -0.997068
vn -0.0765215 -2.98782e-05 -0.997068
vn 0.995869 -2.40577e-05 -0.0908021
vn 0.995869 -2.44649e-05 -0.0908021
vn 0.0765215 2.98985e-05 0.997068
vn -0.997427 2.35653e-05 0.0716944
vn -0.997427 2.35659e-05 0.0716944
vn 0.0765215 2.98688e-05 0.997068
vn -0.997427 2.35645e-05 0.0716944
vn -0.997427 2.35654e-05 0.0716944
vn -0.0760999 -2.98704e-05 -0.9971
vn -0.0761013 -3.01069e-05 -0.9971
vn 0.996515 -2.34615e-05 -0.0834126
vn 0.996515 -2.34157e-05 -0.0834126
vn -0.0483251 -3.02679e-05 -0.998832
vn 0.996593 -2.3395e-05 -0.082478
vn -0.0735542 -3.06044e-05 -0.997291
vn -0.0735541 -2.9693e-05 -0.997291
vn -0.996583 2.34296e-05 0.0825917
vn -0.996583 2.39416e-05 0.0825917
vn 0.102578 2.94867e-05 0.994725
vn 0.0573556 3.03295e-05 0.998354
vn 0.0573556 3.03307e-05 0.998354
vn 0.0573556 3.03077e-05 0.998354
vn -0.996453 2.39377e-05 0.084147
vn -0.996453 2.39382e-05 0.084147
vn -0.0573556 -3.03373e-05 -0.998354
vn -0.0573556 -3.03363e-05 -0.998354
vn -0.0573556 -3.06519e-05 -0.998354
vn 0.996453 -2.39182e-05 -0.0841471
vn 0.996453 -2.39558e-05 -0.084147
vn -0.997638 2.34762e-05 0.0686976
vn -0.997638 2.34776e-05 0.0686976
vn -0.0489425 -3.05532e-05 -0.998802
vn -0.0489425 -3.05531e-05 -0.998802
vn 0.997638 -2.34836e-05 -0.0686975
vn 0.0489427 3.05138e-05 0.998802
vn -0.0485439 3.26008e-05 0.998821
vn -0.0485437 3.25304e-05 0.998821
vn -0.0485437 3.29393e-05 0.998821
vn -0.997638 2.34706e-05 0.0686976
vn -0.997638 2.34803e-05 0.0686975
vn 0.0485439 -3.26716e-05 -0.998821
vn 0.0485439 -3.26714e-05 -0.998821
vn 0.0485439 -3.24037e-05 -0.998821
vn 0.997638 -2.34719e-05 -0.0686976
vn 0.997638 -2.34759e-05 -0.0686976
vn -0.995869 2.41193e-05 0.090802
vn -0.098319 -2.93526e-05 -0.995155
vn -0.098319 -2.93717e-05 -0.995155
vn -0 1 -0
vn -0.2185 0.975662 0.0184516
vn -0.2185 0.975662 0.0184516
vn 0.218502 0.975662 -0.0184517
vn 0.218502 0.975662 -0.0184518
vn -0.22702 0.973765 0.0156326
vn -0.22702 0.973765 0.0156326
vn 0.227022 0.973764 -0.0156328
vn 0.227022 0.973764 -0.0156328
vn -5.25087e-06 1 -6.84183e-05
vn -5.25087e-06 1 -6.84183e-05
vn 0.057805 0.655254 0.753194
vn 0.057805 0.655254 0.753194
vn 0.057805 0.655254 0.753194
vn 0.00994086 0.991526 0.129528
vn 0.00994085 0.991526 0.129528
vn 0.057805 0.655254 0.753194
vn 2.34521e-22 -1 -6.12307e-17
vn -2.81011e-24 -1 -6.12323e-17
vn 0 -1 -6.12323e-17
vn -1.28333e-24 -1 -6.12323e-17
vn -9.89022e-24 -1 -6.12323e-17
vn 0 -1 0

# Mesh 'defaultobject' with 124 faces
g defaultobject
usemtl DefaultMaterial
f  1//1 2//1 3//1
f  2//1 1//1 4//1
f  3//1 5//2 6//2
f  5//2 3//1 7//3
f  6//2 8//4 9//4
f  8//4 6//2 5//2
f  9//5 10//5 11//5
f  10//5 9//5 8//6
f  12//7 13//7 14//7
f  13//7 12//7 15//8
f  11//5 16//9 17//9
f  16//9 11//5 10//5
f  18//10 14//7 19//10
f  14//7 18//10 20//11
f  12//12 21//12 22//12
f  21//12 12//12 20//13
f  22//14 23//14 24//14
f  23//14 22//14 21//14
f  23//15 19//15 25//15
f  19//15 23//15 18//16
f  17//9 26//17 27//17
f  26//17 17//9 16//9
f  26//18 25//15 27//18
f  25//15 26//18 24//19
f  28//20 29//20 30//20
f  29//20 28//20 31//21
f  32//22 28//22 30//22
f  28//22 32//22 33//23
f  34//24 32//24 35//24
f  32//24 34//24 33//24
f  36//25 34//25 35//25
f  34//25 36//25 37//25
f  38//26 36//26 39//26
f  36//26 38//26 37//27
f  40//28 39//28 41//28
f  39//28 40//28 38//29
f  29//30 40//30 41//30
f  40//30 29//30 31//30
f  42//31 43//31 44//31
f  43//31 42//31 45//32
f  45//32 42//31 46//33
f  45//34 47//34 43//34
f  47//34 45//34 48//35
f  48//36 49//36 47//36
f  49//36 48//36 50//37
f  50//37 48//36 51//38
f  49//39 42//39 44//39
f  42//39 49//39 50//40
f  52//41 53//41 54//41
f  53//41 52//41 55//42
f  55//43 56//43 53//43
f  56//43 55//43 57//44
f  56//45 58//45 59//45
f  58//45 56//45 57//45
f  59//46 52//46 54//46
f  52//46 59//46 58//46
f  60//47 61//47 62//47
f  61//47 60//47 63//48
f  63//48 60//47 64//49
f  63//50 65//50 61//50
f  65//50 63//50 66//51
f  66//52 67//52 65//52
f  67//52 66//52 68//53
f  68//53 66//52 69//54
f  67//55 60//55 62//55
f  60//55 67//55 68//56
f  15//57 70//57 13//57
f  70//57 15//57 71//57
f  71//58 1//58 70//58
f  1//58 71//58 4//59
f  28//60 40//60 31//60
f  40//60 28//60 33//60
f  40//60 33//60 34//60
f  40//60 34//60 38//60
f  38//60 34//60 37//60
f  51//61 45//61 46//61
f  45//61 51//61 48//62
f  50//63 46//63 42//63
f  46//63 50//63 51//64
f  52//60 57//60 55//60
f  57//60 52//60 58//60
f  69//65 63//65 64//65
f  63//65 69//65 66//66
f  68//67 64//67 60//67
f  64//67 68//67 69//68
f  15//60 4//60 71//60
f  4//60 15//60 2//60
f  7//69 72//69 5//69
f  72//69 7//69 73//70
f  10//71 5//71 72//71
f  5//71 10//71 8//72
f  22//60 15//60 12//60
f  15//60 22//60 72//60
f  16//73 72//71 22//73
f  72//71 16//73 10//71
f  21//74 18//74 23//74
f  18//74 21//74 20//75
f  16//73 24//76 26//76
f  24//76 16//73 22//73
f  41//77 30//77 29//77
f  30//77 41//77 35//78
f  35//78 41//77 39//79
f  39//79 36//80 35//78
f  35//78 32//81 30//77
f  43//82 49//82 44//82
f  49//82 43//82 47//82
f  56//82 54//82 53//82
f  54//82 56//82 59//82
f  61//82 67//82 62//82
f  67//82 61//82 65//82
f  70//82 3//82 13//82
f  3//82 70//82 1//82
f  74//82 3//82 6//82
f  3//82 74//82 13//82
f  6//82 11//82 74//82
f  11//82 6//82 9//82
f  13//82 75//82 14//82
f  75//82 13//82 74//82
f  74//82 17//82 75//82
f  17//82 74//82 11//82
f  14//82 25//82 19//82
f  25//82 14//82 75//82
f  75//82 27//82 25//82
f  27//82 75//82 17//82

