# {"id":"BLDG_0003000f0035be62","idOriginal":"BLDG_0003000f0035be62","origin":[13.347061974475949,52.54842572806823],"elevation":33.9000015258789}
# Longitude: 13.347061974475949
# Latitude: 52.54842572806823
# Elevation: 33.9000015258789

# File produced by Open Asset Import Library (http://www.assimp.sf.net)
# (assimp v3.1.0)

mtllib BLDG_0003000f0035be62.obj.mtl

# 26 vertex positions
v  0 -1.52588e-06 -9.34331e-23
v  -1.42179 22.33 -1.74796
v  -1.42226 1.06988e-16 -1.74725
v  1.82397 -1.52588e-06 2.24075
v  6.19008 -1.52588e-06 7.60451
v  8.17815 -1.52588e-06 10.0469
v  8.17858 20.15 10.0462
v  0.000475465 22.33 -0.00070747
v  1.82445 22.33 2.24004
v  6.1906 24.11 7.60375
v  21.8419 20.15 -0.961949
v  15.4878 22.33 -8.76809
v  19.8539 24.11 -3.40445
v  13.6638 20.15 -11.0088
v  13.6634 6.74056e-16 -11.0082
v  21.8415 5.88633e-17 -0.96131
v  15.4874 5.36848e-16 -8.76739
v  19.8534 2.08415e-16 -3.40368
v  12.9693 -1.52588e-06 6.18674
v  12.9698 20.15 6.1861
v  3.36892 3.43352e-16 -5.60737
v  3.36935 20.15 -5.60801
v  4.79162 20.15 -3.86076
v  4.79119 -1.52588e-06 -3.86012
v  10.9818 24.11 3.74363
v  6.61564 22.33 -1.62008

# 0 UV coordinates

# 43 vertex normals
vn -0.775544 3.65106e-05 0.631294
vn -0.775544 3.65108e-05 0.631294
vn -0.775544 3.65322e-05 0.631294
vn -0.775544 3.63451e-05 0.631293
vn -0.775544 3.64998e-05 0.631294
vn -0.775544 3.68934e-05 0.631294
vn -0.775544 3.69442e-05 0.631294
vn -0.775544 3.65359e-05 0.631294
vn 0.775544 -3.66517e-05 -0.631294
vn 0.775544 -3.64369e-05 -0.631294
vn 0.775544 -3.65061e-05 -0.631294
vn 0.775544 -3.65051e-05 -0.631294
vn 1.11022e-16 -1 -5.55112e-17
vn -2.77556e-17 1 8.32667e-17
vn 0.627384 1.13104e-05 0.77871
vn 0.627384 1.12923e-05 0.77871
vn 0.627384 1.12943e-05 0.77871
vn 0 1 0
vn -0.627384 -1.13082e-05 -0.77871
vn -0.627384 -1.13201e-05 -0.77871
vn 0.775544 -3.65007e-05 -0.631294
vn 0.775544 -3.65112e-05 -0.631294
vn -0.627384 -1.13275e-05 -0.77871
vn -0.627384 -1.12943e-05 -0.77871
vn 1.03867e-07 -1 -8.45479e-08
vn 1.03867e-07 -1 -8.4548e-08
vn -4.24923e-07 -1 -5.27415e-07
vn 6.92154e-09 -1 -2.04877e-07
vn 6.81038e-07 -1 -1.42767e-06
vn 0 -1 0
vn 0.491037 0.622432 0.609476
vn 0.491042 0.622427 0.609478
vn 0.49104 0.622427 0.609479
vn 0.491039 0.622427 0.609479
vn 0.259015 0.942581 -0.210839
vn 0.259015 0.942581 -0.210839
vn -0.377877 0.798263 -0.469025
vn -0.377882 0.79826 -0.469028
vn -0.377882 0.79826 -0.469028
vn -0.156378 0.968438 -0.194095
vn -0.156375 0.968439 -0.194094
vn -0.156376 0.968439 -0.194094
vn -0.156376 0.968439 -0.194094

# Mesh 'defaultobject' with 48 faces
g defaultobject
usemtl DefaultMaterial
f  1//1 2//1 3//1
f  2//1 1//1 4//2
f  2//1 4//2 5//3
f  2//1 5//3 6//4
f  2//1 6//4 7//5
f  2//1 7//5 8//6
f  8//6 7//5 9//7
f  9//7 7//5 10//8
f  11//9 12//9 13//9
f  12//9 11//9 14//10
f  14//10 11//9 15//11
f  15//11 11//9 16//12
f  15//13 16//13 17//13
f  17//14 16//14 18//14
f  11//15 19//15 16//15
f  19//15 11//15 6//16
f  6//16 11//15 7//17
f  7//18 11//18 20//18
f  2//19 21//19 3//19
f  21//19 2//19 22//20
f  21//21 23//21 24//21
f  23//21 21//21 22//22
f  23//23 15//23 24//23
f  15//23 23//23 14//24
f  17//13 24//25 15//13
f  24//25 17//13 18//26
f  24//25 18//26 16//13
f  24//25 3//27 21//27
f  3//27 24//25 16//13
f  3//27 16//13 19//28
f  3//27 19//28 1//29
f  1//29 19//28 4//30
f  4//30 19//28 5//30
f  5//30 19//28 6//30
f  13//31 20//31 11//31
f  20//31 13//31 25//32
f  20//31 25//32 7//33
f  7//33 25//32 10//34
f  2//35 23//35 22//35
f  23//35 2//35 9//36
f  9//18 2//18 8//18
f  14//37 26//37 12//37
f  26//37 14//37 23//38
f  26//37 23//38 9//39
f  12//40 25//40 13//40
f  25//40 12//40 26//41
f  25//40 26//41 10//42
f  10//42 26//41 9//43

