# {"id":"BLDG_0003000a001ec018","idOriginal":"BLDG_0003000a001ec018","origin":[13.312572218050688,52.550313385367666],"elevation":34.9500007629395}
# Longitude: 13.312572218050688
# Latitude: 52.550313385367666
# Elevation: 34.9500007629395

# File produced by Open Asset Import Library (http://www.assimp.sf.net)
# (assimp v3.1.0)

mtllib BLDG_0003000a001ec018.obj.mtl

# 18 vertex positions
v  5.39798 3.49379 5.49928
v  5.21435 3.49379 -5.07049
v  7.4228e-05 3.49379 -0.00011071
v  10.897 3.49379 0.0753021
v  7.69051 3.49379 -3.36149
v  6.75777 3.49379 -4.36215
v  18.5029 3.49379 -24.6912
v  1.88568 3.49379 -8.59658
v  22.901 3.49379 -19.7818
v  0 0 0
v  5.39791 -3.3674e-16 5.49939
v  10.8969 -4.6177e-18 0.0754128
v  7.69043 2.05825e-16 -3.36138
v  6.7577 2.67098e-16 -4.36204
v  22.901 1.21128e-15 -19.7817
v  18.5028 1.51189e-15 -24.6911
v  1.88561 5.26382e-16 -8.59647
v  5.21427 3.10471e-16 -5.07038

# 0 UV coordinates

# 26 vertex normals
vn 0 1 0
vn -0.713661 3.74704e-05 0.700491
vn -0.713661 3.73592e-05 0.700492
vn 0.702234 7.70413e-06 0.711947
vn 0.702234 7.56277e-06 0.711947
vn 0.731183 -3.71669e-05 -0.682181
vn 0.731183 -3.71088e-05 -0.682181
vn 0.731495 -3.71145e-05 -0.681847
vn 0.731495 -3.70647e-05 -0.681847
vn 0.690714 8.21668e-06 0.723128
vn 0.690714 7.82541e-06 0.723128
vn 0.744825 -3.70225e-05 -0.66726
vn 0.744825 -3.66083e-05 -0.66726
vn -0.695722 -7.97918e-06 -0.718311
vn -0.695722 -8.31151e-06 -0.718311
vn -0.727171 3.71188e-05 0.686457
vn -0.727171 3.71684e-05 0.686457
vn -0.697146 -7.90648e-06 -0.71693
vn -0.697146 -7.95279e-06 -0.71693
vn -5.55908e-26 -1 -6.12323e-17
vn -4.44618e-26 -1 -6.12323e-17
vn -1.23309e-24 -1 -6.12323e-17
vn 2.99521e-23 -1 -6.12324e-17
vn 6.01005e-24 -1 -6.12323e-17
vn -7.60804e-24 -1 -6.12323e-17
vn -4.16936e-24 -1 -6.12323e-17

# Mesh 'defaultobject' with 32 faces
g defaultobject
usemtl DefaultMaterial
f  1//1 2//1 3//1
f  2//1 1//1 4//1
f  2//1 4//1 5//1
f  2//1 5//1 6//1
f  2//1 7//1 8//1
f  7//1 2//1 6//1
f  7//1 6//1 9//1
f  1//2 10//2 11//2
f  10//2 1//2 3//3
f  12//4 1//4 11//4
f  1//4 12//4 4//5
f  13//6 4//6 12//6
f  4//6 13//6 5//7
f  14//8 5//8 13//8
f  5//8 14//8 6//9
f  15//10 6//10 14//10
f  6//10 15//10 9//11
f  16//12 9//12 15//12
f  9//12 16//12 7//13
f  8//14 16//14 17//14
f  16//14 8//14 7//15
f  2//16 17//16 18//16
f  17//16 2//16 8//17
f  3//18 18//18 10//18
f  18//18 3//18 2//19
f  10//20 12//20 11//20
f  12//20 10//20 13//21
f  13//21 10//20 18//22
f  13//21 18//22 14//23
f  14//23 18//22 15//24
f  15//24 18//22 17//25
f  15//24 17//25 16//26

