# {"id":"BLDG_0003000a004a3bb8","idOriginal":"BLDG_0003000a004a3bb8","origin":[13.333536665656682,52.52427391620433],"elevation":33.21}
# Longitude: 13.333536665656682
# Latitude: 52.52427391620433
# Elevation: 33.21

# File produced by Open Asset Import Library (http://www.assimp.sf.net)
# (assimp v3.1.0)

mtllib BLDG_0003000a004a3bb8.obj.mtl

# 26 vertex positions
v  1.56578 -3.85741e-16 6.29963
v  13.1885 -6.03883e-16 9.86217
v  3.13155 -7.71482e-16 12.5993
v  0 0 0
v  14.4104 2.40149e-16 -3.92192
v  25.5016 -3.98686e-16 6.51104
v  26.04 -2.67857e-17 0.437444
v  19.2785 3.21275e-16 -5.24682
v  17.3669 -1.86768e-15 30.5015
v  11.4031 -1.83711e-15 30.0022
v  23.3307 -1.89825e-15 31.0007
v  23.3311 20.1 31.0001
v  11.4036 20.1 30.0016
v  17.3674 23.49 30.5007
v  26.0404 20.1 0.436808
v  25.502 20.1 6.51041
v  3.13198 20.1 12.5986
v  0.000427584 20.1 -0.00063581
v  1.56628 23.49 6.29888
v  14.4108 20.1 -3.92256
v  19.2789 20.1 -5.24746
v  13.1889 20.1 9.86153
v  19.3455 23.49 8.18586
v  19.6147 23.49 5.14906
v  13.7999 23.49 2.96938
v  16.234 23.49 2.30693

# 0 UV coordinates

# 43 vertex normals
vn -1.56532e-24 -1 -6.12323e-17
vn 3.13064e-24 -1 -6.12323e-17
vn 0 -1 -6.12323e-17
vn -1.2785e-24 -1 -6.12323e-17
vn 0 -1 -6.12323e-17
vn -2.89052e-24 -1 -6.12323e-17
vn -2.62506e-24 -1 -6.12323e-17
vn -0.0834215 3.32624e-05 0.996514
vn -0.0834215 3.32622e-05 0.996514
vn -0.0834215 3.32664e-05 0.996514
vn -0.0834215 3.31635e-05 0.996514
vn 0.996094 -1.83799e-05 0.0883002
vn 0.996094 -1.83856e-05 0.0883001
vn 0.996094 -1.83641e-05 0.0883001
vn 0.996094 -1.83828e-05 0.0883001
vn -0.970473 2.82735e-05 0.241212
vn -0.970473 2.82868e-05 0.241212
vn -0.970473 2.82748e-05 0.241212
vn -0.970473 2.82564e-05 0.241212
vn -0.262607 -2.49312e-05 -0.964903
vn -0.262607 -2.49201e-05 -0.964903
vn -0.262607 -2.50532e-05 -0.964903
vn -0.262607 -2.49357e-05 -0.964903
vn 0.643498 -3.78782e-05 -0.765448
vn -0.996094 1.843e-05 -0.0883001
vn -0.996094 1.83786e-05 -0.0883001
vn 0.262607 2.49461e-05 0.964903
vn -0.490946 0.870102 -0.0435206
vn -0.490946 0.870102 -0.0435206
vn -0.490946 0.870102 -0.0435206
vn 0.490954 0.870098 0.0435213
vn 0.490954 0.870098 0.0435213
vn 0.490954 0.870098 0.0435213
vn 0.490954 0.870098 0.0435213
vn -0.121589 0.886355 -0.446757
vn -0.121589 0.886355 -0.446757
vn -0.121589 0.886355 -0.446757
vn 0 -1 0
vn 0.121586 0.88636 0.446747
vn 0.121586 0.88636 0.446748
vn 0.121586 0.88636 0.446747
vn 0.258113 0.91603 -0.307028
vn -0.258105 0.916035 0.307019

# Mesh 'defaultobject' with 48 faces
g defaultobject
usemtl DefaultMaterial
f  1//1 2//1 3//1
f  2//1 1//1 4//2
f  2//1 4//2 5//3
f  2//1 5//3 6//4
f  6//4 5//3 7//5
f  7//5 5//3 8//6
f  2//1 9//5 10//5
f  9//5 2//1 11//7
f  11//7 2//1 6//4
f  12//8 9//8 11//8
f  9//8 12//8 10//9
f  10//9 12//8 13//10
f  13//10 12//8 14//11
f  15//12 6//12 7//12
f  6//12 15//12 11//13
f  11//13 15//12 16//14
f  11//13 16//14 12//15
f  17//16 1//16 3//16
f  1//16 17//16 4//17
f  4//17 17//16 18//18
f  18//18 17//16 19//19
f  8//20 20//20 21//20
f  20//20 8//20 18//21
f  18//21 8//20 5//22
f  18//21 5//22 4//23
f  8//24 15//24 7//24
f  15//24 8//24 21//24
f  13//25 2//25 10//25
f  2//25 13//25 22//26
f  2//27 17//27 3//27
f  17//27 2//27 22//27
f  22//28 23//28 24//28
f  23//28 22//28 14//29
f  14//29 22//28 13//30
f  24//31 16//31 15//31
f  16//31 24//31 12//32
f  12//32 24//31 23//33
f  12//32 23//33 14//34
f  21//35 25//35 26//35
f  25//35 21//35 19//36
f  19//36 21//35 18//37
f  18//38 21//38 20//38
f  25//39 22//39 26//39
f  22//39 25//39 19//40
f  22//39 19//40 17//41
f  21//42 24//42 15//42
f  24//42 21//42 26//42
f  26//43 22//43 24//43

