# {"id":"BLDG_00030000001f6de0","idOriginal":"BLDG_00030000001f6de0","origin":[13.37831856289674,52.560690219856085],"elevation":41.1100006103516}
# Longitude: 13.37831856289674
# Latitude: 52.560690219856085
# Elevation: 41.1100006103516

# File produced by Open Asset Import Library (http://www.assimp.sf.net)
# (assimp v3.1.0)

mtllib BLDG_00030000001f6de0.obj.mtl

# 10 vertex positions
v  14.3982 1.01822e-17 -0.166289
v  0.384316 -6.77801e-16 11.0693
v  0 0 0
v  14.7825 -6.67619e-16 10.903
v  0.38466 16.091 11.0688
v  0.000343314 16.091 -0.0005102
v  0.192616 21.4797 5.53399
v  14.3985 16.091 -0.166799
v  14.7829 16.091 10.9025
v  14.5908 21.4797 5.3677

# 0 UV coordinates

# 14 vertex normals
vn -8.30073e-26 -1 -6.12323e-17
vn 4.39939e-24 -1 -6.12323e-17
vn -0.999398 2.24237e-05 0.0346981
vn -0.999398 2.24231e-05 0.0346981
vn -0.999398 2.24177e-05 0.0346981
vn -0.0115485 -3.14587e-05 -0.999933
vn -0.0115485 -3.14597e-05 -0.999933
vn 0.999398 -2.24237e-05 -0.034698
vn 0.999398 -2.23258e-05 -0.034698
vn 0.0115485 3.146e-05 0.999933
vn -0.00805493 0.716598 -0.69744
vn -0.00805493 0.716598 -0.69744
vn 0.00805466 0.716619 0.697418
vn 0.00805468 0.716619 0.697418

# Mesh 'defaultobject' with 16 faces
g defaultobject
usemtl DefaultMaterial
f  1//1 2//1 3//1
f  2//1 1//1 4//2
f  5//3 3//3 2//3
f  3//3 5//3 6//4
f  6//4 5//3 7//5
f  6//6 1//6 3//6
f  1//6 6//6 8//7
f  8//8 4//8 1//8
f  4//8 8//8 9//8
f  9//8 8//8 10//9
f  4//10 5//10 2//10
f  5//10 4//10 9//10
f  8//11 7//11 10//11
f  7//11 8//11 6//12
f  10//13 5//13 9//13
f  5//13 10//13 7//14

