# {"id":"BLDG_0003000b0011ae64","idOriginal":"BLDG_0003000b0011ae64","origin":[13.336121276023208,52.531544909129636],"elevation":35.3699989318848}
# Longitude: 13.336121276023208
# Latitude: 52.531544909129636
# Elevation: 35.3699989318848

# File produced by Open Asset Import Library (http://www.assimp.sf.net)
# (assimp v3.1.0)

mtllib BLDG_0003000b0011ae64.obj.mtl

# 126 vertex positions
v  2.61325 10.0512 2.72621
v  0.836891 10.0512 1.22157
v  0.633829 10.0512 2.38339
v  3.19631 10.0512 2.8271
v  4.05657 10.0512 -1.48038
v  0.000213857 10.0512 -0.000318101
v  0.411905 10.0512 -2.24757
v  1.77998 10.0512 -2.98869
v  6.76411 10.0512 -1.08949
v  2.60143 10.0512 -2.85893
v  6.99505 10.0512 -4.30912
v  2.92475 10.0512 -4.59948
v  4.96924 10.0512 -4.85672
v  3.32738 10.0512 -18.7839
v  4.34398 10.0512 -17.5555
v  5.16403 10.0512 -17.4008
v  1.65404 10.0512 -6.34533
v  1.39801 10.0512 -4.88547
v  6.69919 10.0512 -15.514
v  0.744313 10.0512 -7.41664
v  1.72056 10.0512 -10.2104
v  1.18162 10.0512 -9.95147
v  1.90546 10.0512 -11.2676
v  1.47384 10.0512 -11.6456
v  1.80753 10.0512 -13.5782
v  3.06204 10.0512 -14.3972
v  4.8516 10.0512 -15.3823
v  3.28424 10.0512 -15.6667
v  9.06748 10.0512 -15.1295
v  9.63123 10.0512 -18.0035
v  6.59089 10.0512 -18.7401
v  3.65653 10.0512 -20.8307
v  7.16548 10.0512 -22.2708
v  4.7987 10.0512 -21.4229
v  7.04287 10.0512 -22.292
v  5.01296 10.0512 -22.6437
v  11.343 21.0813 4.23646
v  4.0568 21.0813 -1.48073
v  3.19654 21.0813 2.82675
v  6.76434 21.0813 -1.08984
v  11.3251 21.0813 0.235561
v  12.0149 21.0813 0.354881
v  6.99529 21.0813 -4.30947
v  6.69943 21.0813 -15.5143
v  4.96947 21.0813 -4.85707
v  11.5332 21.0813 -0.964614
v  12.2227 21.0813 -0.844081
v  12.2689 21.0813 -1.1093
v  13.0853 21.0813 -1.72482
v  13.1518 21.0813 -6.21297
v  13.737 21.0813 -5.48716
v  13.9122 21.0813 -10.6037
v  9.06772 21.0813 -15.1299
v  9.63146 21.0813 -18.0038
v  14.7505 21.0813 -11.3427
v  15.3614 21.0813 -14.8733
v  14.0743 21.0813 -15.6417
v  7.16571 21.0813 -22.2711
v  14.7638 21.0813 -15.5218
v  14.3294 21.0813 -17.1187
v  15.6771 21.0813 -20.797
v  15.0189 21.0813 -17
v  6.59113 21.0813 -18.7404
v  2.61304 -1.66951e-16 2.72652
v  4.05635 9.06277e-17 -1.48006
v  3.1961 -1.73129e-16 2.82742
v  0.633615 -1.4596e-16 2.38371
v  0.836677 -7.48189e-17 1.22189
v  0 0 0
v  0.411692 1.37604e-16 -2.24725
v  1.77976 1.82985e-16 -2.98837
v  2.60121 1.7504e-16 -2.85862
v  3.28403 9.59286e-16 -15.6663
v  4.85138 9.41877e-16 -15.382
v  3.06183 8.81553e-16 -14.3969
v  6.99484 2.63838e-16 -4.3088
v  6.76389 6.66928e-17 -1.08918
v  2.92453 2.81617e-16 -4.59916
v  4.96903 2.97369e-16 -4.8564
v  1.39779 2.99129e-16 -4.88515
v  1.65383 3.8852e-16 -6.34501
v  6.69898 9.49938e-16 -15.5137
v  0.744099 4.54119e-16 -7.41632
v  1.72035 6.25185e-16 -10.21
v  1.1814 6.09332e-16 -9.95115
v  1.90525 6.89919e-16 -11.2672
v  1.47363 7.13069e-16 -11.6453
v  1.80732 8.31406e-16 -13.5779
v  5.16382 1.06547e-15 -17.4005
v  9.63101 1.10238e-15 -18.0032
v  9.06727 9.26398e-16 -15.1292
v  4.34376 1.07495e-15 -17.5552
v  3.32717 1.15016e-15 -18.7836
v  6.59068 1.14748e-15 -18.7397
v  3.65631 1.27549e-15 -20.8304
v  7.16526 1.36367e-15 -22.2705
v  4.79849 1.31176e-15 -21.4226
v  7.04265 1.36497e-15 -22.2917
v  5.01274 1.38651e-15 -22.6434
v  11.5327 0.0699997 -0.963949
v  12.2685 0.0699997 -1.10863
v  12.2222 0.0699997 -0.843416
v  13.0849 0.0699997 -1.72415
v  3.1961 0.0699997 2.82742
v  12.0145 0.0699997 0.355546
v  11.3425 0.0699997 4.23713
v  11.3247 0.0699997 0.236226
v  4.05635 0.0699997 -1.48007
v  6.76389 0.0699997 -1.08918
v  13.7366 0.0699997 -5.4865
v  6.99484 0.0699997 -4.3088
v  13.1514 0.0699997 -6.2123
v  4.96903 0.0699997 -4.85641
v  13.9117 0.0699997 -10.603
v  6.69898 0.0699997 -15.5137
v  14.75 0.0699997 -11.342
v  9.06727 0.0699997 -15.1292
v  15.361 0.0699997 -14.8726
v  14.7633 0.0699997 -15.5212
v  14.0738 0.0699997 -15.6411
v  14.329 0.0699997 -17.118
v  9.63101 0.0699997 -18.0032
v  15.6766 0.0699997 -20.7964
v  15.0185 0.0699997 -16.9993
v  6.59068 0.0699997 -18.7397
v  7.16526 0.0699997 -22.2705

# 0 UV coordinates

# 138 vertex normals
vn 0 1 0
vn 2.99252e-23 -1 -6.12323e-17
vn -1.20025e-23 -1 -6.12323e-17
vn 1.65849e-23 -1 -6.12323e-17
vn 0 -1 -6.12323e-17
vn -7.77946e-25 -1 -6.12323e-17
vn 5.78585e-24 -1 -6.12323e-17
vn 1.12821e-23 -1 -6.12323e-17
vn 0 -1 -6.12324e-17
vn 2.99602e-24 -1 -6.12323e-17
vn -5.04166e-25 -1 -6.12323e-17
vn 1.74543e-24 -1 -6.12323e-17
vn 2.29734e-24 -1 -6.12323e-17
vn 2.79319e-24 -1 -6.12323e-17
vn 3.08104e-23 -1 -6.12323e-17
vn -7.2759e-23 -1 -6.12324e-17
vn 1.90138e-22 -1 -6.12323e-17
vn 2.47222e-23 -1 -6.12323e-17
vn 2.90466e-23 -1 -6.12323e-17
vn 0 -1 -6.12323e-17
vn 2.01853e-23 -1 -6.12323e-17
vn 1.1307e-23 -1 -6.12323e-17
vn -4.60492e-23 -1 -6.12327e-17
vn -1.71387e-23 -1 -6.12324e-17
vn 5.82874e-24 -1 -6.12326e-17
vn 2.78025e-24 -1 -6.12323e-17
vn -2.74732e-23 -1 -6.12323e-17
vn -6.10904e-23 -1 -6.12324e-17
vn -9.4538e-22 -1 -6.12348e-17
vn 3.10984e-23 -1 -6.12323e-17
vn 0 -1 0
vn -0.825103 3.54336e-05 0.564983
vn -0.825103 3.54361e-05 0.564983
vn -0.985067 1.55115e-05 -0.17217
vn -0.170649 3.48091e-05 0.985332
vn -0.170512 3.48074e-05 0.985356
vn -0.170512 3.48306e-05 0.985356
vn 0.980635 -1.4656e-05 0.195845
vn 0.980635 -1.46344e-05 0.195845
vn -0.142889 3.43544e-05 0.989739
vn 0.997437 -1.89354e-05 0.0715472
vn 0.260947 -3.60927e-05 -0.965353
vn 0.98708 -1.59062e-05 0.160229
vn 0.98708 -1.5959e-05 0.160229
vn -0.160228 3.4694e-05 0.98708
vn -0.160228 3.47014e-05 0.98708
vn 0.981299 -1.4846e-05 0.192489
vn 0.981299 -1.47894e-05 0.192489
vn 0.235461 -3.5815e-05 -0.971884
vn 0.235461 -3.56194e-05 -0.971884
vn 0.987015 -1.59344e-05 0.160625
vn 0.987015 -1.59211e-05 0.160625
vn 0.170647 -3.48525e-05 -0.985332
vn 0.170662 -3.46657e-05 -0.98533
vn 0.170721 -3.46667e-05 -0.985319
vn 0.17072 -3.48536e-05 -0.98532
vn -0.984946 1.55022e-05 -0.172861
vn -0.984946 1.54883e-05 -0.172861
vn -0.460317 -1.835e-05 -0.887754
vn -0.460317 -1.83282e-05 -0.887755
vn -0.987316 1.59758e-05 -0.15877
vn -0.987316 1.59524e-05 -0.15877
vn -0.770388 3.65785e-05 0.637576
vn -0.770388 3.65968e-05 0.637576
vn -0.185437 3.50819e-05 0.982656
vn -0.185439 3.49042e-05 0.982656
vn -0.988231 1.62171e-05 -0.152968
vn -0.988231 1.62316e-05 -0.152968
vn 0.178488 -3.4886e-05 -0.983942
vn 0.178488 -3.48902e-05 -0.983942
vn -0.985025 1.54948e-05 -0.172411
vn -0.985025 1.55112e-05 -0.172411
vn -0.546644 -1.49054e-05 -0.837365
vn -0.985419 1.5575e-05 -0.170145
vn -0.658892 3.78581e-05 0.752238
vn -0.985048 1.54994e-05 -0.17228
vn -0.432997 -1.93527e-05 -0.901395
vn -0.985443 1.55879e-05 -0.170007
vn -0.985443 1.55799e-05 -0.170007
vn -0.76225 3.67005e-05 0.647283
vn -0.984967 1.54912e-05 -0.172745
vn -0.184117 3.50203e-05 0.982904
vn -0.983181 1.5117e-05 -0.182633
vn -0.983181 1.51403e-05 -0.182634
vn 0.156027 -3.45753e-05 -0.987753
vn 0.156027 -3.45716e-05 -0.987753
vn -0.476325 -1.76879e-05 -0.879269
vn -0.98363 1.52255e-05 -0.180199
vn -0.98363 1.52269e-05 -0.180199
vn -0.170512 3.48066e-05 0.985356
vn -0.170512 3.47956e-05 0.985356
vn 0.985344 -1.55345e-05 0.170577
vn 0.985344 -1.55777e-05 0.170578
vn 0.170441 -3.48124e-05 -0.985368
vn 0.985303 -1.55688e-05 0.170814
vn -0.172203 3.48403e-05 0.985062
vn -0.172203 3.48323e-05 0.985061
vn 0.985139 -1.54904e-05 0.171761
vn 0.985138 -1.5535e-05 0.171765
vn 0.602013 1.24549e-05 0.798486
vn 0.985328 -1.55748e-05 0.170671
vn 0.985328 -1.55303e-05 0.170671
vn 0.778474 -3.63932e-05 -0.627677
vn 0.778475 -3.64434e-05 -0.627676
vn 0.985334 -1.55715e-05 0.170638
vn 0.985334 -1.55766e-05 0.170638
vn 0.661287 9.65385e-06 0.750133
vn 0.661288 9.71985e-06 0.750132
vn 0.985355 -1.55304e-05 0.170514
vn 0.985355 -1.55811e-05 0.170514
vn 0.735358 -3.70936e-05 -0.677679
vn 0.735357 -3.70598e-05 -0.67768
vn 0.171355 -3.48157e-05 -0.985209
vn 0.171355 -3.48079e-05 -0.985209
vn 0.985406 -1.55907e-05 0.170223
vn 0.985406 -1.55387e-05 0.170223
vn -0.169654 3.48259e-05 0.985504
vn 0.985308 -1.55207e-05 0.170786
vn 0.985308 -1.55796e-05 0.170786
vn 0.170654 -3.4756e-05 -0.985331
vn 0.170654 -3.47599e-05 -0.985331
vn -0.987016 1.58997e-05 -0.160625
vn -0.987015 1.59142e-05 -0.160625
vn -0.235461 3.57976e-05 0.971884
vn -0.235461 3.57033e-05 0.971884
vn -0.981299 1.47909e-05 -0.192489
vn -0.981299 1.47638e-05 -0.192489
vn 0.160228 -3.46828e-05 -0.98708
vn -0.98708 1.59433e-05 -0.160229
vn -0.98708 1.5936e-05 -0.160229
vn -0.260947 3.60959e-05 0.965353
vn -0.260947 3.60905e-05 0.965353
vn -0.997437 1.89685e-05 -0.0715472
vn -0.997437 1.89466e-05 -0.071547
vn 0.142889 -3.4361e-05 -0.989739
vn 0.142889 -3.43642e-05 -0.989739
vn -0.980635 1.4666e-05 -0.195845
vn -0.980635 1.46549e-05 -0.195845

# Mesh 'defaultobject' with 244 faces
g defaultobject
usemtl DefaultMaterial
f  1//1 2//1 3//1
f  2//1 1//1 4//1
f  2//1 4//1 5//1
f  2//1 5//1 6//1
f  6//1 5//1 7//1
f  7//1 5//1 8//1
f  8//1 5//1 9//1
f  8//1 9//1 10//1
f  10//1 9//1 11//1
f  10//1 11//1 12//1
f  12//1 11//1 13//1
f  14//1 15//1 16//1
f  12//1 17//1 18//1
f  17//1 12//1 13//1
f  17//1 13//1 19//1
f  17//1 19//1 20//1
f  20//1 19//1 21//1
f  20//1 21//1 22//1
f  21//1 19//1 23//1
f  23//1 19//1 24//1
f  24//1 19//1 25//1
f  25//1 19//1 26//1
f  26//1 19//1 27//1
f  26//1 27//1 28//1
f  27//1 19//1 16//1
f  16//1 19//1 29//1
f  16//1 29//1 30//1
f  16//1 30//1 14//1
f  14//1 30//1 31//1
f  31//1 32//1 14//1
f  32//1 31//1 33//1
f  32//1 33//1 34//1
f  34//1 33//1 35//1
f  34//1 35//1 36//1
f  37//1 38//1 39//1
f  38//1 37//1 40//1
f  40//1 37//1 41//1
f  41//1 37//1 42//1
f  40//1 41//1 43//1
f  43//1 44//1 45//1
f  44//1 43//1 41//1
f  44//1 41//1 46//1
f  44//1 46//1 47//1
f  44//1 47//1 48//1
f  44//1 48//1 49//1
f  44//1 49//1 50//1
f  50//1 49//1 51//1
f  44//1 50//1 52//1
f  44//1 52//1 53//1
f  53//1 52//1 54//1
f  54//1 52//1 55//1
f  54//1 55//1 56//1
f  54//1 56//1 57//1
f  54//1 57//1 58//1
f  57//1 56//1 59//1
f  58//1 60//1 61//1
f  60//1 58//1 57//1
f  61//1 60//1 62//1
f  58//1 63//1 54//1
f  64//2 65//2 66//2
f  65//2 64//2 67//3
f  65//2 67//3 68//4
f  65//2 68//4 69//5
f  65//2 69//5 70//6
f  71//7 72//7 70//6
f  73//8 74//8 75//8
f  65//2 76//9 77//9
f  76//9 65//2 72//7
f  72//7 65//2 70//6
f  76//9 72//7 78//10
f  76//9 78//10 79//11
f  79//11 78//10 80//12
f  79//11 80//12 81//13
f  79//11 81//13 82//14
f  82//14 81//13 83//15
f  82//14 83//15 84//16
f  84//16 83//15 85//17
f  82//14 84//16 86//18
f  82//14 86//18 87//19
f  82//14 87//19 88//20
f  82//14 88//20 75//8
f  82//14 75//8 74//8
f  82//14 74//8 89//21
f  82//14 90//22 91//22
f  90//22 82//14 89//21
f  90//22 89//21 92//23
f  90//22 92//23 93//24
f  90//22 93//24 94//25
f  94//25 93//24 95//26
f  94//25 95//26 96//27
f  96//27 95//26 97//28
f  96//27 97//28 98//29
f  98//29 97//28 99//30
f  100//31 101//31 102//31
f  101//31 100//31 103//31
f  104//31 105//31 106//31
f  105//31 104//31 107//31
f  107//31 104//31 108//31
f  107//31 108//31 109//31
f  107//31 109//31 100//31
f  100//31 109//31 103//31
f  109//31 110//31 103//31
f  110//31 109//31 111//31
f  110//31 111//31 112//31
f  112//31 111//31 113//31
f  112//31 113//31 114//31
f  114//31 113//31 115//31
f  114//31 115//31 116//31
f  116//31 115//31 117//31
f  116//31 117//31 118//31
f  118//31 117//31 119//31
f  119//31 117//31 120//31
f  117//31 121//31 120//31
f  121//31 117//31 122//31
f  121//31 123//31 124//31
f  123//31 121//31 122//31
f  123//31 122//31 125//31
f  123//31 125//31 126//31
f  2//32 69//32 68//32
f  69//32 2//32 6//33
f  3//34 68//34 67//34
f  68//34 3//34 2//34
f  64//35 3//35 67//35
f  3//35 64//35 1//35
f  66//36 1//36 64//36
f  1//36 66//36 4//37
f  65//38 4//38 66//38
f  4//38 65//38 5//39
f  77//40 5//40 65//40
f  5//40 77//40 9//40
f  76//41 9//41 77//41
f  9//41 76//41 11//41
f  13//42 76//42 79//42
f  76//42 13//42 11//42
f  82//43 13//43 79//43
f  13//43 82//43 19//44
f  91//45 19//45 82//45
f  19//45 91//45 29//46
f  90//47 29//47 91//47
f  29//47 90//47 30//48
f  31//49 90//49 94//49
f  90//49 31//49 30//50
f  96//51 31//51 94//51
f  31//51 96//51 33//52
f  35//53 96//53 98//53
f  96//54 35//54 33//54
f  36//55 98//55 99//55
f  98//55 36//55 35//56
f  34//57 99//57 97//57
f  99//57 34//57 36//58
f  32//59 97//59 95//59
f  97//59 32//59 34//60
f  14//61 95//61 93//61
f  95//61 14//61 32//62
f  15//63 93//63 92//63
f  93//63 15//63 14//64
f  89//65 15//65 92//65
f  15//65 89//65 16//66
f  27//67 89//67 74//67
f  89//67 27//67 16//68
f  28//69 74//69 73//69
f  74//69 28//69 27//70
f  26//71 73//71 75//71
f  73//71 26//71 28//72
f  25//73 75//73 88//73
f  75//73 25//73 26//73
f  24//74 88//74 87//74
f  88//74 24//74 25//74
f  23//75 87//75 86//75
f  87//75 23//75 24//75
f  21//76 86//76 84//76
f  86//76 21//76 23//76
f  22//77 84//77 85//77
f  84//77 22//77 21//77
f  20//78 85//78 83//78
f  85//78 20//78 22//79
f  17//80 83//80 81//80
f  83//80 17//80 20//80
f  18//81 81//81 80//81
f  81//81 18//81 17//81
f  78//82 18//82 80//82
f  18//82 78//82 12//82
f  10//83 78//83 72//83
f  78//83 10//83 12//84
f  8//85 72//85 71//85
f  72//85 8//85 10//86
f  7//87 71//87 70//87
f  71//87 7//87 8//87
f  6//88 70//88 69//88
f  70//88 6//88 7//89
f  106//90 39//90 104//90
f  39//90 106//90 37//91
f  105//92 37//92 106//92
f  37//92 105//92 42//93
f  41//94 105//94 107//94
f  105//94 41//94 42//94
f  100//95 41//95 107//95
f  41//95 100//95 46//95
f  102//96 46//96 100//96
f  46//96 102//96 47//97
f  101//98 47//98 102//98
f  47//98 101//98 48//99
f  103//100 48//100 101//100
f  48//100 103//100 49//100
f  110//101 49//101 103//101
f  49//101 110//101 51//102
f  112//103 51//103 110//103
f  51//103 112//103 50//104
f  114//105 50//105 112//105
f  50//105 114//105 52//106
f  116//107 52//107 114//107
f  52//107 116//107 55//108
f  118//109 55//109 116//109
f  55//109 118//109 56//110
f  119//111 56//111 118//111
f  56//111 119//111 59//112
f  57//113 119//113 120//113
f  119//113 57//113 59//114
f  121//115 57//115 120//115
f  57//115 121//115 60//116
f  124//117 60//117 121//117
f  60//117 124//117 62//117
f  123//118 62//118 124//118
f  62//118 123//118 61//119
f  58//120 123//120 126//120
f  123//120 58//120 61//121
f  63//122 126//122 125//122
f  126//122 63//122 58//123
f  122//124 63//124 125//124
f  63//124 122//124 54//125
f  53//126 122//126 117//126
f  122//126 53//126 54//127
f  44//128 117//128 115//128
f  117//128 44//128 53//128
f  45//129 115//129 113//129
f  115//129 45//129 44//130
f  111//131 45//131 113//131
f  45//131 111//131 43//132
f  40//133 111//133 109//133
f  111//133 40//133 43//134
f  38//135 109//135 108//135
f  109//135 38//135 40//136
f  39//137 108//137 104//137
f  108//137 39//137 38//138

