# {"id":"BLDG_0003000a00250dd6","idOriginal":"BLDG_0003000a00250dd6","origin":[13.39451261023962,52.54361859968219],"elevation":46.689998626709}
# Longitude: 13.39451261023962
# Latitude: 52.54361859968219
# Elevation: 46.689998626709

# File produced by Open Asset Import Library (http://www.assimp.sf.net)
# (assimp v3.1.0)

mtllib BLDG_0003000a00250dd6.obj.mtl

# 10 vertex positions
v  5.05226 17.2805 -2.12717
v  7.31613 16.7478 17.0608
v  12.368 17.2805 14.9342
v  0.00035768 16.7478 -0.00053042
v  10.1041 16.7478 -4.25378
v  17.4199 16.7478 12.8076
v  7.31578 -1.04471e-15 17.0614
v  10.1038 2.60436e-16 -4.25325
v  17.4196 -7.84271e-16 12.8081
v  0 0 0

# 0 UV coordinates

# 14 vertex normals
vn -0.0888933 0.995312 0.0381168
vn 0.0888939 0.995312 -0.038117
vn 0.0888939 0.995311 -0.038117
vn -2.08116e-24 -1 -6.12323e-17
vn 0.387981 2.08734e-05 0.921667
vn 0.387981 2.08955e-05 0.921667
vn 0.387981 2.09058e-05 0.921667
vn -0.919071 3.21026e-05 0.394091
vn -0.919071 3.21096e-05 0.394091
vn -0.387981 -2.09041e-05 -0.921667
vn -0.387981 -2.08955e-05 -0.921667
vn -0.387981 -2.09058e-05 -0.921667
vn 0.919072 -3.21714e-05 -0.394091
vn 0.919072 -3.21223e-05 -0.394091

# Mesh 'defaultobject' with 16 faces
g defaultobject
usemtl DefaultMaterial
f  1//1 2//1 3//1
f  2//1 1//1 4//1
f  5//2 3//2 6//2
f  3//2 5//2 1//3
f  7//4 8//4 9//4
f  8//4 7//4 10//4
f  6//5 7//5 9//5
f  7//5 6//5 2//6
f  2//6 6//5 3//7
f  2//8 10//8 7//8
f  10//8 2//8 4//9
f  4//10 8//10 10//10
f  8//10 4//10 5//11
f  5//11 4//10 1//12
f  8//13 6//13 9//13
f  6//13 8//13 5//14

