# {"id":"BLDG_00030000001c391c","idOriginal":"BLDG_00030000001c391c","origin":[13.354127401330906,52.54679308691621],"elevation":35.8699989318848}
# Longitude: 13.354127401330906
# Latitude: 52.54679308691621
# Elevation: 35.8699989318848

# File produced by Open Asset Import Library (http://www.assimp.sf.net)
# (assimp v3.1.0)

mtllib BLDG_00030000001c391c.obj.mtl

# 17 vertex positions
v  4.75354 2.51854e-16 -4.11309
v  2.03131 -1.35232e-16 2.2085
v  0 0 0
v  10.6501 -7.09015e-16 11.5791
v  15.3428 -4.53109e-16 7.39983
v  9.50708 5.03709e-16 -8.22619
v  11.5384 3.68477e-16 -6.01769
v  20.0354 -1.97203e-16 3.22057
v  9.50741 15.25 -8.22667
v  11.5387 15.25 -6.01817
v  20.0358 15.25 3.22009
v  0.000324859 15.25 -0.00048311
v  4.75399 21.0112 -4.11376
v  10.6504 15.25 11.5786
v  15.3432 21.0112 7.39917
v  2.03163 15.25 2.20802
v  6.7853 21.0112 -1.90526

# 0 UV coordinates

# 26 vertex normals
vn 0 -1 -6.12323e-17
vn 0 -1 -6.12323e-17
vn 0 -1 -6.12324e-17
vn -2.68512e-24 -1 -6.12323e-17
vn 0.736016 -3.7159e-05 -0.676964
vn 0.736016 -3.71777e-05 -0.676964
vn 0.736016 -3.71804e-05 -0.676964
vn 0.736016 -3.70918e-05 -0.676964
vn -0.654327 -1.00176e-05 -0.756212
vn -0.654327 -1.00081e-05 -0.756212
vn -0.654327 -1.00229e-05 -0.756212
vn -0.654327 -9.95429e-06 -0.756212
vn 0.665074 9.51281e-06 0.746777
vn 0.665074 9.45416e-06 0.746777
vn 0.665074 9.49457e-06 0.746777
vn 0.665074 9.43073e-06 0.746777
vn -0.736016 3.71245e-05 0.676964
vn -0.736016 3.7134e-05 0.676964
vn -0.736016 3.7159e-05 0.676964
vn 0 1 0
vn -0.497411 0.737071 0.457503
vn -0.497411 0.737071 0.457503
vn -0.497411 0.737071 0.457503
vn 0.49743 0.737048 -0.45752
vn 0.49743 0.737048 -0.45752
vn 0.49743 0.737048 -0.45752

# Mesh 'defaultobject' with 30 faces
g defaultobject
usemtl DefaultMaterial
f  1//1 2//1 3//1
f  2//1 1//1 4//1
f  4//1 1//1 5//2
f  5//2 1//1 6//2
f  5//2 6//2 7//3
f  5//2 7//3 8//4
f  9//5 7//5 6//5
f  7//5 9//5 8//6
f  8//6 9//5 10//7
f  8//6 10//7 11//8
f  12//9 1//9 3//9
f  1//9 12//9 6//10
f  6//10 12//9 9//11
f  9//11 12//9 13//12
f  11//13 5//13 8//13
f  5//13 11//13 4//14
f  4//14 11//13 14//15
f  14//15 11//13 15//16
f  3//17 16//17 12//17
f  16//17 3//17 14//18
f  14//18 3//17 4//19
f  4//20 3//20 2//20
f  12//21 17//21 13//21
f  17//21 12//21 15//22
f  15//22 12//21 14//23
f  14//20 12//20 16//20
f  13//24 10//24 9//24
f  10//24 13//24 11//25
f  11//25 13//24 15//26
f  15//26 13//21 17//21

