# {"id":"BLDG_00030000001adda8","idOriginal":"BLDG_00030000001adda8","origin":[13.343279709433318,52.5496389343538],"elevation":35.4199981689453}
# Longitude: 13.343279709433318
# Latitude: 52.5496389343538
# Elevation: 35.4199981689453

# File produced by Open Asset Import Library (http://www.assimp.sf.net)
# (assimp v3.1.0)

mtllib BLDG_00030000001adda8.obj.mtl

# 12 vertex positions
v  3.98172 -2.31493e-16 3.78056
v  18.2927 1.15811e-15 -18.9134
v  22.2467 9.24998e-16 -15.1064
v  0 0 0
v  18.269 1.15673e-15 -18.8908
v  0.0193119 1.26211e-18 -0.0206119
v  3.98178 2.74004 3.78048
v  0.0193703 2.74004 -0.0206987
v  5.8329e-05 2.74004 -8.68207e-05
v  18.2691 2.74004 -18.8909
v  22.2468 2.74004 -15.1065
v  18.2927 2.74004 -18.9135

# 0 UV coordinates

# 16 vertex normals
vn 0 -1 -6.12323e-17
vn 2.47623e-20 -1 -6.12084e-17
vn 1.44185e-19 -1 -6.11344e-17
vn 0 1 0
vn -0.688551 3.76473e-05 0.725187
vn -0.688551 3.76359e-05 0.725187
vn 0.718843 5.93464e-06 0.695172
vn 0.718843 6.78245e-06 0.695172
vn 0.693588 -3.72851e-05 -0.720372
vn 0.693588 -3.8046e-05 -0.720371
vn -0.691144 -8.70869e-06 -0.722717
vn -0.691115 -8.22911e-06 -0.722745
vn -0.718826 -6.72545e-06 -0.69519
vn -0.718826 -7.24918e-06 -0.69519
vn -0.729744 -6.12979e-06 -0.683721
vn -0.729744 -6.12964e-06 -0.683721

# Mesh 'defaultobject' with 20 faces
g defaultobject
usemtl DefaultMaterial
f  1//1 2//1 3//1
f  2//1 1//1 4//1
f  2//1 4//1 5//2
f  5//2 4//1 6//3
f  7//4 8//4 9//4
f  8//4 7//4 10//4
f  10//4 7//4 11//4
f  10//4 11//4 12//4
f  7//5 4//5 1//5
f  4//5 7//5 9//6
f  3//7 7//7 1//7
f  7//7 3//7 11//8
f  2//9 11//9 3//9
f  11//9 2//9 12//10
f  10//11 2//11 5//11
f  2//12 10//12 12//12
f  8//13 5//13 6//13
f  5//13 8//13 10//14
f  9//15 6//15 4//15
f  6//15 9//15 8//16

