# {"id":"BLDG_00030002002e7f53","idOriginal":"BLDG_00030002002e7f53","origin":[13.371841143559788,52.50811228415966],"elevation":34.4900016784668}
# Longitude: 13.371841143559788
# Latitude: 52.50811228415966
# Elevation: 34.4900016784668

# File produced by Open Asset Import Library (http://www.assimp.sf.net)
# (assimp v3.1.0)

mtllib BLDG_00030002002e7f53.obj.mtl

# 44 vertex positions
v  -4.501 24.7746 71.7835
v  -5.34417 -0.0500031 48.7591
v  -4.50153 -0.0500031 71.7843
v  -5.34365 24.7746 48.7583
v  2.75191 -0.0500031 71.5295
v  2.75244 24.7746 71.5288
v  3.765 -0.130001 -34.705
v  9.42495 9.99413 -1.02786
v  9.42474 -0.130001 -1.02754
v  3.76521 9.99413 -34.7053
v  -0.203521 9.99413 -34.5557
v  -0.203737 -0.130001 -34.5554
v  0.000221005 9.99413 -0.00032748
v  5.11803e-06 -0.130001 -7.58003e-06
v  0.371813 -0.210003 48.655
v  -5.34375 19.9947 48.7584
v  -5.34418 -0.210003 48.7591
v  0.372244 19.9947 48.6544
v  -0.0904368 -0.210003 -11.8351
v  -0.0900059 19.9947 -11.8357
v  -7.537 19.9947 -11.1133
v  -7.53743 -0.210003 -11.1126
v  -0.0904323 7.24692e-16 -11.8351
v  -7.53726 7.78328 -11.1129
v  -7.53743 6.80453e-16 -11.1126
v  -0.0902663 7.78328 -11.8354
v  -0.203734 2.11591e-15 -34.5554
v  -0.203568 7.78328 -34.5556
v  -8.38496 7.78328 -34.2473
v  -8.38513 2.09703e-15 -34.247
v  0.372266 21.0229 48.6543
v  0 -0.370003 -2.26561e-17
v  0.37181 -0.370003 48.655
v  0.000456183 21.0229 -0.00067595
v  3.33273 -0.370003 48.4425
v  3.33318 21.0229 48.4419
v  2.66678 21.0229 69.7714
v  2.66632 -0.370003 69.7721
v  18.4522 -0.370003 52.7178
v  18.4527 21.0229 52.7171
v  9.42473 -0.370003 -1.02754
v  9.42519 21.0229 -1.02821
v  3.33273 -0.0500031 48.4425
v  3.33326 24.7746 48.4417

# 0 UV coordinates

# 43 vertex normals
vn -0.999331 2.24645e-05 0.036572
vn 0.0351011 3.08869e-05 0.999384
vn 0.986171 -2.63481e-05 -0.165733
vn 0.986171 -2.6304e-05 -0.165733
vn -0.0376624 -3.0825e-05 -0.999291
vn -0.0376624 -3.08255e-05 -0.999291
vn -0.999983 2.15099e-05 0.005896
vn -0.999983 2.15104e-05 0.005896
vn 0.108383 2.90923e-05 0.994109
vn 0.108383 2.91023e-05 0.994109
vn 0.0181989 3.1137e-05 0.999834
vn 0.0181989 3.11365e-05 0.999834
vn 0.999971 -2.15654e-05 -0.00764152
vn -0.0965619 -2.93718e-05 -0.995327
vn -0.0965619 -2.93706e-05 -0.995327
vn -0.99933 2.24511e-05 0.036608
vn -0.99933 2.24528e-05 0.036608
vn 0.0965619 2.92812e-05 0.995327
vn 0.999988 -2.14797e-05 -0.00498676
vn 0.999988 -2.14824e-05 -0.00498676
vn -0.0376619 -3.10319e-05 -0.999291
vn -0.0376619 -3.10317e-05 -0.999291
vn -0.999971 2.15647e-05 0.00764154
vn -0.999971 2.15649e-05 0.00764154
vn 0.0715796 2.99546e-05 0.997435
vn 0.0715796 2.99556e-05 0.997435
vn -0.999512 2.03184e-05 -0.031228
vn -0.999512 2.03239e-05 -0.031228
vn 0.733871 5.89302e-06 0.679289
vn 0.73387 5.77025e-06 0.679289
vn 0.986185 -2.62281e-05 -0.165647
vn -0.108383 -2.90997e-05 -0.994109
vn -0.108383 -2.90998e-05 -0.994109
vn 0.999684 -2.05187e-05 0.02515
vn 0.999684 -2.05271e-05 0.02515
vn -0.0364551 -3.08568e-05 -0.999335
vn -0.0364551 -3.08565e-05 -0.999335
vn -0.999329 2.24588e-05 0.0366178
vn -0.999329 2.24722e-05 0.0366178
vn 1.82238e-23 -1 -6.12323e-17
vn 0 -1 -6.12323e-17
vn 0 -1 0
vn 0 1 0

# Mesh 'defaultobject' with 68 faces
g defaultobject
usemtl DefaultMaterial
f  1//1 2//1 3//1
f  2//1 1//1 4//1
f  5//2 1//2 3//2
f  1//2 5//2 6//2
f  7//3 8//3 9//3
f  8//3 7//3 10//4
f  11//5 7//5 12//5
f  7//5 11//5 10//6
f  13//7 12//7 14//7
f  12//7 13//7 11//8
f  9//9 13//9 14//9
f  13//9 9//9 8//10
f  15//11 16//11 17//11
f  16//11 15//11 18//12
f  19//13 18//13 15//13
f  18//13 19//13 20//13
f  21//14 19//14 22//14
f  19//14 21//14 20//15
f  16//16 22//16 17//16
f  22//16 16//16 21//17
f  23//18 24//18 25//18
f  24//18 23//18 26//18
f  27//19 26//19 23//19
f  26//19 27//19 28//20
f  29//21 27//21 30//21
f  27//21 29//21 28//22
f  31//23 32//23 33//23
f  32//23 31//23 34//24
f  35//25 31//25 33//25
f  31//25 35//25 36//26
f  37//27 35//27 38//27
f  35//27 37//27 36//28
f  39//29 37//29 38//29
f  37//29 39//29 40//30
f  41//31 40//31 39//31
f  40//31 41//31 42//31
f  34//32 41//32 32//32
f  41//32 34//32 42//33
f  43//34 6//34 5//34
f  6//34 43//34 44//35
f  4//36 43//36 2//36
f  43//36 4//36 44//37
f  24//38 30//38 25//38
f  30//38 24//38 29//39
f  23//40 30//40 27//40
f  30//40 23//40 25//41
f  32//42 35//42 33//42
f  35//42 39//42 38//42
f  39//42 35//42 41//42
f  41//42 35//42 32//42
f  5//42 2//42 43//42
f  2//42 5//42 3//42
f  7//42 14//42 12//42
f  14//42 7//42 9//42
f  15//42 22//42 19//42
f  22//42 15//42 17//42
f  6//43 4//43 1//43
f  4//43 6//43 44//43
f  10//43 13//43 8//43
f  13//43 10//43 11//43
f  16//43 20//43 21//43
f  20//43 16//43 18//43
f  26//43 29//43 24//43
f  29//43 26//43 28//43
f  31//43 36//43 34//43
f  34//43 40//43 42//43
f  40//43 34//43 36//43
f  40//43 36//43 37//43

