# {"id":"BLDG_0003000b00498589","idOriginal":"BLDG_0003000b00498589","origin":[13.339514998118965,52.525417176859],"elevation":32.69}
# Longitude: 13.339514998118965
# Latitude: 52.525417176859
# Elevation: 32.69

# File produced by Open Asset Import Library (http://www.assimp.sf.net)
# (assimp v3.1.0)

mtllib BLDG_0003000b00498589.obj.mtl

# 44 vertex positions
v  21.4847 19.897 -23.3392
v  11.7513 23.06 -16.472
v  21.6879 23.0557 -20.3066
v  11.4652 19.897 -19.4976
v  1.74684 23.06 -12.6362
v  -1.37702 19.9 -14.5738
v  0.000423492 19.9 -0.00062953
v  1.24818 19.9 13.2004
v  1.88334 19.9 19.9203
v  2.83829 23.06 -1.08877
v  4.91166 23.06 19.6621
v  4.2765 23.06 12.9421
v  12.5925 21.92 -7.57204
v  22.2931 21.9224 -11.2699
v  11.7513 23.0557 -16.4718
v  10.1094 21.92 -6.62001
v  11.7998 21.92 12.3009
v  12.4349 21.92 19.0208
v  10.3596 21.92 -3.97249
v  12.8427 19.9 -4.92446
v  22.4709 19.897 -8.616
v  12.5924 21.9224 -7.57255
v  14.4494 19.9 12.0751
v  24.2546 23.66 18.0132
v  23.8034 19.9 11.2777
v  15.0847 23.66 18.7949
v  24.2541 -1.37329e-06 18.014
v  14.449 -1.37329e-06 12.0757
v  23.8029 -1.37329e-06 11.2784
v  15.0842 -1.37329e-06 18.7956
v  21.6874 -1.37329e-06 -20.3059
v  11.4648 1.19385e-15 -19.497
v  21.4843 -1.37329e-06 -23.3386
v  22.2927 -1.37329e-06 -11.2693
v  22.4704 -1.37329e-06 -8.61537
v  12.8422 -1.37329e-06 -4.92383
v  -1.37745 8.92349e-16 -14.5732
v  0 -1.37329e-06 -8.40898e-23
v  12.4345 -1.37329e-06 19.0215
v  1.24775 -1.37329e-06 13.201
v  4.91117 -1.37329e-06 19.6628
v  1.88292 -1.37329e-06 19.9209
v  12.8427 19.897 -4.92446
v  11.4652 19.9 -19.4976

# 0 UV coordinates

# 66 vertex normals
vn -0.264839 0.676642 -0.687034
vn -0.262734 0.67926 -0.685256
vn -0.262733 0.67926 -0.685256
vn -0.262499 0.679551 -0.685058
vn -0.730304 0.679626 0.0690279
vn -0.730304 0.679626 0.0690279
vn -0.730304 0.679626 0.0690279
vn -0.730304 0.679626 0.0690279
vn -0.717201 0.693172 0.0716608
vn 0 1 0
vn 0.0459871 0.991553 0.121272
vn 0.0471063 0.991405 0.122058
vn 0.0468094 0.991415 0.122087
vn 0.0472635 0.991384 0.12216
vn 0.144715 0.989379 -0.0136784
vn 0.143914 0.98948 -0.0147516
vn 0.146779 0.989072 -0.0138735
vn 0.14937 0.988691 -0.0133446
vn 0.148634 0.988792 -0.0140488
vn 0.22333 0.782031 0.581852
vn 0.220587 0.785108 0.578746
vn 0.221223 0.785022 0.57862
vn 0.61646 0.785227 -0.0582674
vn 0.617437 0.78472 -0.0546412
vn 0.602215 0.796302 -0.056921
vn 0.602215 0.796302 -0.056921
vn -0.0413342 0.873591 -0.484902
vn -0.0413343 0.873591 -0.484902
vn -0.53097 0.759898 -0.375
vn 0 -1 0
vn -1.3363e-07 -1 8.95071e-09
vn -1.3363e-07 -1 8.95067e-09
vn -1.3363e-07 -1 8.95068e-09
vn -3.48667e-08 -1 -9.09387e-08
vn -3.48667e-08 -1 -9.09387e-08
vn 8.55107e-08 -1 -1.02317e-07
vn 0.995563 -2.41703e-05 -0.0941
vn 0.995563 -2.41627e-05 -0.0941001
vn 0.995563 0 -0.0941001
vn 0.0849347 2.97073e-05 0.996386
vn 0.0849343 2.96484e-05 0.996387
vn 0.0849349 2.99686e-05 0.996387
vn 0.0849344 2.96085e-05 0.996387
vn 0.0849345 2.9758e-05 0.996387
vn 0.0849345 2.99745e-05 0.996387
vn 0.0849346 2.92114e-05 0.996386
vn 0.0849345 2.96229e-05 0.996386
vn 0.997764 -2.34013e-05 -0.0668312
vn 0.997764 -2.38686e-05 -0.0668311
vn 0.997764 -2.33477e-05 -0.0668311
vn 0.997764 -2.33478e-05 -0.0668311
vn -0.995563 2.41599e-05 0.0941
vn -0.995563 2.41607e-05 0.0941
vn -0.995563 2.41939e-05 0.0941
vn -0.995563 2.41396e-05 0.0941
vn -0.995563 2.41426e-05 0.0941
vn -0.995563 2.41658e-05 0.0941
vn 0.357998 2.19209e-05 0.933722
vn -0.357998 -2.19189e-05 -0.933722
vn -0.357998 -2.19189e-05 -0.933722
vn -0.0849345 -2.97556e-05 -0.996387
vn -0.0849344 -2.97079e-05 -0.996387
vn 0.997764 -2.3352e-05 -0.0668312
vn 0.997764 -2.33434e-05 -0.0668312
vn -0.357998 -2.19135e-05 -0.933722
vn -0.357998 0 -0.933723

# Mesh 'defaultobject' with 78 faces
g defaultobject
usemtl DefaultMaterial
f  1//1 2//1 3//1
f  2//2 1//2 4//2
f  2//2 4//2 5//3
f  5//4 4//4 6//4
f  7//5 5//5 6//5
f  5//5 7//5 8//6
f  5//5 8//6 9//7
f  5//5 9//7 10//8
f  10//9 9//9 11//9
f  10//10 11//10 12//10
f  3//11 13//11 14//11
f  13//12 3//12 15//12
f  13//13 15//13 16//13
f  16//14 15//14 5//14
f  10//15 16//15 5//15
f  16//16 10//16 12//16
f  16//17 12//17 11//17
f  16//18 11//18 17//18
f  17//19 11//19 18//19
f  16//10 17//10 19//10
f  14//20 20//20 21//20
f  20//21 14//21 22//21
f  20//22 22//22 16//22
f  19//23 20//23 16//23
f  20//24 19//24 17//24
f  20//25 17//25 18//25
f  20//25 18//25 23//26
f  23//27 24//27 25//27
f  24//27 23//27 26//28
f  18//29 26//29 23//29
f  27//30 28//30 29//30
f  28//30 27//30 30//30
f  31//31 32//31 33//31
f  32//31 31//31 34//32
f  32//31 34//32 35//33
f  32//31 35//33 36//34
f  32//31 36//34 37//35
f  37//35 36//34 28//30
f  37//35 28//30 38//36
f  38//36 28//30 30//30
f  38//36 30//30 39//30
f  38//36 39//30 40//30
f  40//30 39//30 41//30
f  40//30 41//30 42//30
f  36//37 23//37 28//37
f  23//37 36//37 43//38
f  23//39 43//39 20//39
f  41//40 9//40 42//40
f  9//40 41//40 39//41
f  9//40 39//41 30//42
f  9//40 30//42 27//43
f  9//40 27//43 24//44
f  9//40 24//44 18//45
f  18//45 24//44 26//46
f  11//47 9//40 18//45
f  14//48 1//48 3//48
f  1//48 14//48 21//49
f  1//48 21//49 33//50
f  33//50 21//49 35//51
f  33//10 35//10 31//10
f  31//10 35//10 34//10
f  9//52 40//52 42//52
f  40//52 9//52 38//53
f  38//53 9//52 37//54
f  37//54 9//52 8//55
f  37//54 8//55 7//56
f  37//54 7//56 6//57
f  35//58 43//58 36//58
f  43//58 35//58 21//58
f  4//59 33//59 32//59
f  33//59 4//59 1//60
f  23//61 29//61 28//61
f  29//61 23//61 25//62
f  29//63 24//63 27//63
f  24//63 29//63 25//64
f  6//65 32//59 37//65
f  32//59 6//65 4//59
f  4//66 6//66 44//66

