# {"id":"BLDG_0003000b00498542","idOriginal":"BLDG_0003000b00498542","origin":[13.332232209426138,52.52485006315949],"elevation":32.6699981689453}
# Longitude: 13.332232209426138
# Latitude: 52.52485006315949
# Elevation: 32.6699981689453

# File produced by Open Asset Import Library (http://www.assimp.sf.net)
# (assimp v3.1.0)

mtllib BLDG_0003000b00498542.obj.mtl

# 30 vertex positions
v  2.17638 19.173 10.6544
v  -2.74075 16.5966 11.8247
v  1.65963 16.5966 12.8835
v  -2.224 19.173 9.59559
v  -13.4163 16.5966 9.25593
v  -12.8986 19.173 7.02703
v  3.4494 20.0657 5.16262
v  -0.950983 20.0657 4.1038
v  -11.6234 20.0657 1.53578
v  4.40074 16.5966 1.0583
v  0.000355581 16.5966 -0.000528799
v  -10.6705 16.5966 -2.56816
v  5.21408 16.17 -2.45053
v  0.000346506 16.17 -0.00051531
v  4.40073 16.17 1.05831
v  0.816759 16.17 -3.52256
v  2.552e-06 2.32043e-22 -3.78955e-06
v  -11.6239 -9.40783e-17 1.53641
v  -10.6708 1.57222e-16 -2.56764
v  4.40038 -6.48344e-17 1.05883
v  3.44897 -3.16158e-16 5.16326
v  -12.899 -4.30318e-16 7.02763
v  2.17597 -6.52432e-16 10.655
v  -13.4166 -5.66795e-16 9.25646
v  1.65928 -7.88921e-16 12.8841
v  -2.7411 -7.24086e-16 11.8252
v  0 -0.119998 -7.34777e-18
v  5.21373 -0.119998 -2.45002
v  4.40038 -0.119998 1.05883
v  0.816413 -0.119998 -3.52204

# 0 UV coordinates

# 51 vertex normals
vn -0.174919 0.664046 0.726944
vn -0.174919 0.664046 0.726943
vn -0.174919 0.664047 0.726942
vn -0.0365923 0.987692 0.152074
vn -0.0365924 0.987692 0.152074
vn -0.0365924 0.987691 0.152074
vn -0.0365923 0.987691 0.152074
vn 0.14871 0.771968 -0.618022
vn 0.148709 0.771968 -0.618022
vn 0.14871 0.771969 -0.618021
vn 0.14871 0.771969 -0.618021
vn 0 1 0
vn 0 -1 -6.12323e-17
vn -1.73518e-25 -1 -6.12323e-17
vn -3.03943e-25 -1 -6.12323e-17
vn 0 -1 -6.12323e-17
vn 3.02837e-25 -1 -6.12323e-17
vn 1.49222e-24 -1 -6.12323e-17
vn 1.49214e-24 -1 -6.12323e-17
vn -1.38778e-17 -1 0
vn 0 -1 0
vn 0.974171 -1.21355e-05 0.225814
vn 0.974171 -1.3588e-05 0.225814
vn 0.974171 -1.35689e-05 0.225814
vn 0.97417 -1.35673e-05 0.225814
vn 0.97417 -1.35695e-05 0.225814
vn 0.974171 -1.39955e-05 0.225814
vn 0.97417 -1.35547e-05 0.225814
vn 0.97417 -1.35784e-05 0.225814
vn -0.233945 3.57585e-05 0.97225
vn -0.233945 3.57743e-05 0.97225
vn -0.233945 3.57012e-05 0.97225
vn -0.233945 3.57009e-05 0.97225
vn -0.97408 1.3783e-05 -0.226204
vn -0.97408 1.36614e-05 -0.226204
vn -0.97408 1.35575e-05 -0.226204
vn -0.97408 1.35609e-05 -0.226204
vn 7.40149e-17 1 9.25186e-17
vn 0.233945 -3.56664e-05 -0.97225
vn 0.233945 -3.60498e-05 -0.97225
vn 0.233945 -3.57289e-05 -0.97225
vn 0.233945 -3.57337e-05 -0.97225
vn -0.242536 0 0.970143
vn -0.233945 3.59971e-05 0.97225
vn -0.233945 3.57323e-05 0.97225
vn -0.233945 3.5731e-05 0.97225
vn -0.97417 1.35864e-05 -0.225814
vn -0.974171 1.35748e-05 -0.225814
vn -0.974171 1.35805e-05 -0.225814
vn 0.236853 -3.57802e-05 -0.971545
vn 0.236853 -3.57686e-05 -0.971545

# Mesh 'defaultobject' with 58 faces
g defaultobject
usemtl DefaultMaterial
f  1//1 2//1 3//1
f  2//1 1//1 4//1
f  2//1 4//1 5//2
f  5//2 4//1 6//3
f  7//4 4//4 1//4
f  4//4 7//4 6//5
f  6//5 7//4 8//6
f  6//5 8//6 9//7
f  10//8 8//8 7//8
f  8//8 10//8 9//9
f  9//9 10//8 11//10
f  9//9 11//10 12//11
f  13//12 14//12 15//12
f  14//12 13//12 16//12
f  17//13 18//13 19//13
f  18//13 17//13 20//14
f  18//13 20//14 21//15
f  18//13 21//15 22//16
f  22//16 21//15 23//17
f  22//16 23//17 24//18
f  24//18 23//17 25//19
f  24//18 25//19 26//20
f  27//21 28//21 29//21
f  28//21 27//21 30//21
f  28//22 20//22 29//22
f  20//22 28//22 13//23
f  20//22 13//23 15//24
f  23//25 3//25 25//25
f  3//25 23//25 21//26
f  3//25 21//26 20//22
f  3//25 20//22 15//24
f  3//25 15//24 10//27
f  3//25 10//27 1//28
f  1//28 10//27 7//29
f  3//30 26//30 25//30
f  26//30 3//30 24//31
f  24//31 3//30 2//32
f  24//31 2//32 5//33
f  12//34 6//34 9//34
f  6//34 12//34 5//35
f  5//35 12//34 19//36
f  5//35 19//36 24//37
f  24//18 19//13 18//13
f  24//38 18//38 22//38
f  15//39 11//39 10//39
f  11//39 15//39 12//40
f  12//40 15//39 19//41
f  19//41 15//39 20//42
f  19//43 20//43 17//43
f  29//44 17//44 27//44
f  17//44 29//44 20//44
f  17//44 20//44 14//45
f  14//45 20//44 15//46
f  17//47 30//47 27//47
f  30//47 17//47 16//48
f  16//48 17//47 14//49
f  16//50 28//50 30//50
f  28//50 16//50 13//51

