# {"id":"BLDG_00030009007ea22a","idOriginal":"BLDG_00030009007ea22a","origin":[13.375896044211913,52.55420585428698],"elevation":38.8699989318848}
# Longitude: 13.375896044211913
# Latitude: 52.55420585428698
# Elevation: 38.8699989318848

# File produced by Open Asset Import Library (http://www.assimp.sf.net)
# (assimp v3.1.0)

mtllib BLDG_00030009007ea22a.obj.mtl

# 17 vertex positions
v  22.3343 9.11159e-16 -14.8804
v  13.78 1.32808e-16 -2.16892
v  10.5327 4.29698e-16 -7.0175
v  25.5815 6.14269e-16 -10.0318
v  24.4505 -8.42782e-16 13.7637
v  36.2437 -3.60565e-16 5.88847
v  3.27383 -2.95805e-16 4.83086
v  0 0 0
v  0.000447182 20.9628 -0.00066439
v  10.5332 20.9628 -7.01817
v  10.5332 20.4595 -7.01815
v  22.3347 20.4595 -14.881
v  25.5819 20.4595 -10.0324
v  24.4509 20.4595 13.763
v  13.7804 20.4595 -2.16957
v  36.2442 20.4595 5.88782
v  3.27427 20.4595 4.83021

# 0 UV coordinates

# 22 vertex normals
vn -1.02356e-23 -1 -6.12324e-17
vn 0 -1 -6.12323e-17
vn 3.11489e-24 -1 -6.12323e-17
vn 0 -1 -6.12323e-17
vn 0 -1 -6.12323e-17
vn -0.554464 -1.45478e-05 -0.832208
vn -0.554464 -1.45582e-05 -0.832208
vn -0.554464 -1.45412e-05 -0.832208
vn -0.554464 -1.45929e-05 -0.832208
vn 0.830874 -3.53779e-05 -0.55646
vn 0.830874 -3.5298e-05 -0.55646
vn -0.830874 3.5376e-05 0.55646
vn 0.830874 -3.54592e-05 -0.55646
vn 0.555336 1.45154e-05 0.831626
vn 0.555336 1.44628e-05 0.831626
vn 0.830874 -3.52393e-05 -0.55646
vn 0.554464 1.45623e-05 0.832208
vn -0.827814 3.54354e-05 0.561002
vn -0.827814 3.54393e-05 0.561002
vn 0 1 -0
vn 0.0476495 0.996301 0.0715181
vn 0.0476494 0.996301 0.0715181

# Mesh 'defaultobject' with 29 faces
g defaultobject
usemtl DefaultMaterial
f  1//1 2//1 3//1
f  2//1 1//1 4//2
f  4//2 5//3 2//1
f  5//3 4//2 6//4
f  3//1 7//5 8//5
f  7//5 3//1 2//1
f  9//6 3//6 8//6
f  3//6 9//6 10//7
f  11//8 1//8 3//6
f  1//8 11//8 12//9
f  1//10 13//10 4//10
f  13//10 1//10 12//11
f  14//12 2//12 5//12
f  2//12 14//12 15//12
f  4//10 16//13 6//13
f  16//13 4//10 13//10
f  6//14 14//14 5//14
f  14//14 6//14 16//15
f  10//16 15//16 11//16
f  2//17 17//17 7//17
f  17//17 2//17 15//17
f  17//18 8//18 7//18
f  8//18 17//18 9//19
f  12//20 15//20 13//20
f  15//20 12//20 11//20
f  13//20 14//20 16//20
f  14//20 13//20 15//20
f  17//21 10//21 9//21
f  10//21 17//21 15//22

