# {"id":"BLDG_000300090014bd95","idOriginal":"BLDG_000300090014bd95","origin":[13.36122041635931,52.55058718989877],"elevation":36.3300018310547}
# Longitude: 13.36122041635931
# Latitude: 52.55058718989877
# Elevation: 36.3300018310547

# File produced by Open Asset Import Library (http://www.assimp.sf.net)
# (assimp v3.1.0)

mtllib BLDG_000300090014bd95.obj.mtl

# 32 vertex positions
v  5.93136 -3.60011e-16 5.87942
v  5.54736 -3.80014e-16 6.2061
v  5.63258 1.39475e-17 -0.227781
v  5.15128 1.27334e-17 -0.207952
v  0.0938356 -2.18446e-16 3.56749
v  0 0 0
v  0.258416 -6.00025e-16 9.79916
v  8.80429 -1.09564e-15 17.8932
v  7.18225 -4.88392e-16 7.97605
v  7.54232 -4.58995e-16 7.49596
v  12.6806 -7.53183e-16 12.3004
v  13.3473 -1.35901e-15 22.1943
v  13.3102 -7.89367e-16 12.8913
v  13.3165 -7.4737e-16 12.2055
v  17.1065 -7.72911e-16 12.6226
v  17.3177 -1.10863e-15 18.1052
v  0.0942904 21.343 3.56681
v  5.15174 21.343 -0.208628
v  0.000454861 21.343 -0.000676289
v  0.258871 21.343 9.79848
v  5.63304 21.343 -0.228457
v  5.93181 21.343 5.87874
v  5.54782 21.343 6.20542
v  8.80475 21.343 17.8925
v  7.18271 21.343 7.97537
v  12.6811 21.343 12.2997
v  13.317 21.343 12.2048
v  13.3106 21.343 12.8907
v  17.107 21.343 12.6219
v  13.3478 21.343 22.1936
v  17.3181 21.343 18.1046
v  7.54277 21.343 7.49528

# 0 UV coordinates

# 41 vertex normals
vn -7.04343e-23 -1 -6.12323e-17
vn 1.79855e-25 -1 -6.12323e-17
vn 3.29455e-24 -1 -6.12323e-17
vn -8.64148e-24 -1 -6.12323e-17
vn 3.1742e-23 -1 -6.12324e-17
vn 0 -1 -6.12323e-17
vn 2.5161e-24 -1 -6.12323e-17
vn 0 -1 -6.12323e-17
vn -7.59669e-23 -1 -6.12322e-17
vn -1.19884e-23 -1 -6.12323e-17
vn 9.35675e-24 -1 -6.12323e-17
vn 0 1 0
vn -0.999654 2.21375e-05 0.0262939
vn -0.999654 2.21378e-05 0.0262939
vn -0.999651 2.21415e-05 0.0264012
vn -0.999651 2.21408e-05 0.0264012
vn -0.687651 3.76254e-05 0.726041
vn -0.687651 3.76569e-05 0.726041
vn -0.68751 3.76267e-05 0.726175
vn 0.717445 6.74228e-06 0.696615
vn 0.717445 6.71092e-06 0.696615
vn 0.999259 -2.25607e-05 -0.0384897
vn 0.999259 -2.24721e-05 -0.03849
vn -0.0706167 -3.00962e-05 -0.997504
vn -0.0706167 -3.00994e-05 -0.997504
vn 0.999957 -2.10202e-05 0.00924349
vn -0.147644 -2.82306e-05 -0.98904
vn -0.147643 -2.81864e-05 -0.989041
vn 0.682981 -3.77308e-05 -0.730436
vn 0.682981 -3.77054e-05 -0.730436
vn -0.800005 -1.9568e-06 -0.599993
vn 0.734577 -3.71545e-05 -0.678525
vn 0.734577 -3.71684e-05 -0.678525
vn 0.647975 1.03364e-05 0.761662
vn 0.647974 1.03184e-05 0.761662
vn 0.998806 -2.28367e-05 -0.0488637
vn 0.998806 -2.28376e-05 -0.0488637
vn -0.0411633 -3.07825e-05 -0.999152
vn -0.0411633 -3.07818e-05 -0.999152
vn -0.0403361 -3.08013e-05 -0.999186
vn -0.0403361 -3.08012e-05 -0.999186

# Mesh 'defaultobject' with 60 faces
g defaultobject
usemtl DefaultMaterial
f  1//1 2//1 3//1
f  4//2 5//2 6//2
f  5//2 4//2 7//3
f  7//3 4//2 2//1
f  7//3 2//1 8//4
f  2//1 4//2 3//1
f  8//4 2//1 9//5
f  8//4 9//5 10//6
f  8//4 10//6 11//6
f  8//4 11//6 12//7
f  12//7 11//6 13//8
f  13//8 11//6 14//9
f  12//7 13//8 15//10
f  12//7 15//10 16//11
f  17//12 18//12 19//12
f  18//12 17//12 20//12
f  18//12 20//12 21//12
f  21//12 20//12 22//12
f  22//12 20//12 23//12
f  24//12 23//12 20//12
f  23//12 24//12 25//12
f  25//12 24//12 26//12
f  26//12 24//12 27//12
f  27//12 24//12 28//12
f  28//12 24//12 29//12
f  29//12 24//12 30//12
f  29//12 30//12 31//12
f  26//12 32//12 25//12
f  17//13 6//13 5//13
f  6//13 17//13 19//14
f  20//15 5//15 7//15
f  5//15 20//15 17//16
f  24//17 7//17 8//17
f  7//17 24//17 20//18
f  30//19 8//19 12//19
f  8//19 30//19 24//19
f  16//20 30//20 12//20
f  30//20 16//20 31//21
f  15//22 31//22 16//22
f  31//22 15//22 29//23
f  28//24 15//24 13//24
f  15//24 28//24 29//25
f  14//26 28//26 13//26
f  28//26 14//26 27//26
f  26//27 14//27 11//27
f  14//27 26//27 27//28
f  10//29 26//29 11//29
f  26//29 10//29 32//30
f  25//31 10//31 9//31
f  10//31 25//31 32//31
f  2//32 25//32 9//32
f  25//32 2//32 23//33
f  1//34 23//34 2//34
f  23//34 1//34 22//35
f  3//36 22//36 1//36
f  22//36 3//36 21//37
f  18//38 3//38 4//38
f  3//38 18//38 21//39
f  19//40 4//40 6//40
f  4//40 19//40 18//41

