# {"id":"BLDG_0003000f001c164f","idOriginal":"BLDG_0003000f001c164f","origin":[13.374782362426357,52.5427469922817],"elevation":33.25}
# Longitude: 13.374782362426357
# Latitude: 52.5427469922817
# Elevation: 33.25

# File produced by Open Asset Import Library (http://www.assimp.sf.net)
# (assimp v3.1.0)

mtllib BLDG_0003000f001c164f.obj.mtl

# 54 vertex positions
v  32.9951 1.28667e-15 -21.013
v  36.0506 8.35465e-16 -13.6442
v  32.8699 8.39154e-16 -13.7044
v  36.176 1.28365e-15 -20.9636
v  19.1635 1.70891e-15 -27.9086
v  11.1214 1.30746e-15 -21.3524
v  11.2178 1.71646e-15 -28.032
v  19.0671 1.29991e-15 -21.2291
v  25.4473 1.29385e-15 -21.1301
v  25.3277 8.47902e-16 -13.8473
v  25.2135 4.22432e-16 -6.89884
v  32.7508 4.1369e-16 -6.75607
v  18.9622 8.55285e-16 -13.9679
v  18.8619 4.29799e-16 -7.01915
v  11.017 8.64501e-16 -14.1184
v  10.9167 4.39014e-16 -7.16965
v  25.0931 -2.6266e-17 0.428956
v  32.6254 -3.41504e-17 0.557718
v  18.756 -1.96326e-17 0.320625
v  10.8105 -1.13158e-17 0.184801
v  0 0 0
v  0.121161 4.51536e-16 -7.37414
v  24.9733 -4.72626e-16 7.71856
v  32.5005 -4.80505e-16 7.84723
v  32.8704 27.2251 -13.7053
v  25.2141 27.2251 -6.8997
v  32.7513 27.2251 -6.75693
v  25.3282 27.2251 -13.8482
v  25.448 32.8635 -21.1311
v  18.9629 32.8635 -13.9689
v  25.3284 32.8635 -13.8483
v  19.0678 32.8635 -21.2302
v  18.8626 32.8635 -7.02019
v  25.2142 32.8635 -6.89988
v  19.0677 27.2251 -21.23
v  11.0176 27.2251 -14.1192
v  18.9628 27.2251 -13.9687
v  11.122 27.2251 -21.3533
v  10.9172 27.2251 -7.17051
v  18.8625 27.2251 -7.02001
v  32.626 27.2251 0.556856
v  25.0937 27.2251 0.428094
v  18.7565 27.2251 0.319763
v  10.8111 27.2251 0.183938
v  0.000580711 27.2251 -0.00086221
v  0.121741 27.2251 -7.375
v  32.501 27.2251 7.84637
v  24.9739 27.2251 7.7177
v  36.1766 27.2251 -20.9645
v  36.0512 27.2251 -13.645
v  32.9957 27.2251 -21.0138
v  19.1641 27.2251 -27.9095
v  11.2184 27.2251 -28.0328
v  25.4479 27.2251 -21.131

# 0 UV coordinates

# 57 vertex normals
vn 0 -1 -6.12323e-17
vn 1.81856e-23 -1 -6.12323e-17
vn 6.35753e-24 -1 -6.12323e-17
vn 6.35753e-24 -1 -6.12323e-17
vn 3.85397e-24 -1 -6.12323e-17
vn 3.28203e-24 -1 -6.12323e-17
vn 5.81046e-24 -1 -6.12323e-17
vn -7.35446e-24 -1 -6.12323e-17
vn -4.41226e-24 -1 -6.12323e-17
vn 6.44568e-24 -1 -6.12323e-17
vn 3.95433e-24 -1 -6.12323e-17
vn 5.62945e-24 -1 -6.12323e-17
vn 0 -1 -6.12323e-17
vn -3.19293e-24 -1 -6.12323e-17
vn 2.26435e-25 -1 -6.12323e-17
vn 3.324e-24 -1 -6.12323e-17
vn -1.56739e-24 -1 -6.12323e-17
vn 0 1 0
vn 0.0155181 -3.19942e-05 -0.99988
vn 0.0155181 -3.19931e-05 -0.99988
vn 0.999853 -2.07519e-05 0.0171369
vn -0.999896 2.08526e-05 -0.0144359
vn -0.999896 2.0855e-05 -0.0144359
vn 0.0155179 -3.20166e-05 -0.99988
vn 0.0155182 -3.19586e-05 -0.99988
vn 0.999865 -2.07887e-05 0.0164284
vn 0.999865 -2.07916e-05 0.0164285
vn -0.999896 2.08526e-05 -0.0144358
vn 0.999865 -2.07881e-05 0.0164282
vn -0.0189387 3.20259e-05 0.999821
vn -0.0189386 3.21108e-05 0.999821
vn -0.999896 2.08735e-05 -0.0144358
vn -0.999896 2.08735e-05 -0.0144357
vn 0.999853 -2.07522e-05 0.017137
vn -0.0170921 3.20306e-05 0.999854
vn -0.0170921 3.20292e-05 0.999854
vn -0.0170921 3.20301e-05 0.999854
vn -0.999865 2.08068e-05 -0.0164283
vn -0.999865 2.08067e-05 -0.0164283
vn 0.0189387 -3.20647e-05 -0.999821
vn 0.0189387 -3.20648e-05 -0.999821
vn -0.0170921 3.20294e-05 0.999854
vn -0.999865 2.07747e-05 -0.0164283
vn -0.999865 2.07746e-05 -0.0164283
vn 0.999853 -2.08921e-05 0.0171375
vn -0.0170921 3.20258e-05 0.999854
vn -0.0170921 3.20284e-05 0.999854
vn 0.0155182 -3.19931e-05 -0.99988
vn 0.999853 -2.0892e-05 0.0171374
vn 0.999853 -2.07521e-05 0.0171369
vn -0.0189387 3.20641e-05 0.999821
vn -0.0189386 3.20668e-05 0.999821
vn -0.999896 2.08735e-05 -0.0144357
vn 0.0155183 -3.19937e-05 -0.99988
vn 0.0155183 -3.19931e-05 -0.99988
vn 0.999896 -2.09077e-05 0.014436
vn 0.999896 -2.08386e-05 0.0144357

# Mesh 'defaultobject' with 102 faces
g defaultobject
usemtl DefaultMaterial
f  1//1 2//1 3//1
f  2//1 1//1 4//2
f  5//3 6//3 7//3
f  6//3 5//3 8//4
f  9//5 3//1 10//5
f  3//1 9//5 1//1
f  3//1 11//6 10//5
f  11//6 3//1 12//7
f  9//5 13//8 8//4
f  13//8 9//5 10//5
f  10//5 14//9 13//8
f  14//9 10//5 11//6
f  8//4 15//10 6//3
f  15//10 8//4 13//8
f  13//8 16//11 15//10
f  16//11 13//8 14//9
f  12//7 17//12 11//6
f  17//12 12//7 18//13
f  11//6 19//14 14//9
f  19//14 11//6 17//12
f  14//9 20//15 16//11
f  20//15 14//9 19//14
f  16//11 21//16 22//16
f  21//16 16//11 20//15
f  18//13 23//13 17//12
f  23//13 18//13 24//17
f  25//18 26//18 27//18
f  26//18 25//18 28//18
f  29//18 30//18 31//18
f  30//18 29//18 32//18
f  31//18 33//18 34//18
f  33//18 31//18 30//18
f  35//18 36//18 37//18
f  36//18 35//18 38//18
f  37//18 39//18 40//18
f  39//18 37//18 36//18
f  41//18 26//18 42//18
f  26//18 41//18 27//18
f  26//18 43//18 42//18
f  43//18 26//18 40//18
f  40//18 44//18 43//18
f  44//18 40//18 39//18
f  39//18 45//18 44//18
f  45//18 39//18 46//18
f  47//18 42//18 48//18
f  42//18 47//18 41//18
f  49//18 25//18 50//18
f  25//18 49//18 51//18
f  52//18 38//18 35//18
f  38//18 52//18 53//18
f  51//18 28//18 25//18
f  28//18 51//18 54//18
f  54//19 1//19 9//19
f  1//19 54//19 51//20
f  3//21 27//21 12//21
f  27//21 3//21 25//21
f  30//22 35//22 37//22
f  35//22 30//22 32//23
f  32//24 9//19 8//24
f  9//19 32//24 29//25
f  54//26 31//26 28//26
f  31//26 54//26 29//27
f  33//28 37//22 40//28
f  37//22 33//28 30//22
f  28//26 34//29 26//29
f  34//29 28//26 31//26
f  26//30 33//30 40//30
f  33//30 26//30 34//31
f  36//32 6//32 15//32
f  6//32 36//32 38//32
f  39//33 15//32 16//33
f  15//32 39//33 36//32
f  12//21 41//34 18//34
f  41//34 12//21 27//21
f  17//35 43//35 19//35
f  43//35 17//35 42//36
f  19//35 44//37 20//37
f  44//37 19//35 43//35
f  45//38 22//38 21//38
f  22//38 45//38 46//39
f  46//40 16//40 22//40
f  16//40 46//40 39//41
f  20//37 45//42 21//42
f  45//42 20//37 44//37
f  48//43 17//43 23//43
f  17//43 48//43 42//44
f  18//34 47//45 24//45
f  47//45 18//34 41//34
f  24//46 48//46 23//46
f  48//46 24//46 47//47
f  51//20 4//48 1//19
f  4//48 51//20 49//48
f  4//49 50//49 2//49
f  50//49 4//49 49//50
f  2//51 25//51 3//51
f  25//51 2//51 50//52
f  38//32 7//53 6//32
f  7//53 38//32 53//53
f  53//54 5//54 7//54
f  5//54 53//54 52//55
f  5//56 35//56 8//56
f  35//56 5//56 52//57

