# {"id":"BLDG_0003000b002ea182","idOriginal":"BLDG_0003000b002ea182","origin":[13.327235439275727,52.53124864209061],"elevation":34.9900016784668}
# Longitude: 13.327235439275727
# Latitude: 52.53124864209061
# Elevation: 34.9900016784668

# File produced by Open Asset Import Library (http://www.assimp.sf.net)
# (assimp v3.1.0)

mtllib BLDG_0003000b002ea182.obj.mtl

# 31 vertex positions
v  14.8629 18.73 2.14248
v  5.7948 19.92 5.12393
v  14.8633 19.92 5.18174
v  5.79436 18.73 2.08474
v  0.00111425 19.92 5.08704
v  14.8643 20.55 11.8154
v  5.79588 20.55 12.985
v  5.79619 18.73 15.5958
v  14.8646 18.73 14.4263
v  5.79588 20.5351 13.0064
v  0.000708538 20.2433 2.0478
v  0.00230429 20.55 13.7536
v  5.79588 20.55 13.0064
v  0.00261717 18.73 16.343
v  5.79408 18.73 0.0362987
v  0.000430467 20.2433 -0.00064065
v  0.0018673 -8.42206e-16 13.7543
v  5.79579 -9.55005e-16 15.5964
v  0.00221888 -1.00076e-15 16.3436
v  14.8642 -8.83389e-16 14.4268
v  14.8638 -7.23527e-16 11.8161
v  0.000690659 -3.1153e-16 5.08767
v  14.8629 -3.17328e-16 5.18237
v  14.8625 -1.31225e-16 2.14307
v  5.79396 -1.2769e-16 2.08533
v  0.000278071 -1.25431e-16 2.04844
v  5.79368 -2.25895e-18 0.0368914
v  0 0 0
v  5.79544 -7.95143e-16 12.9857
v  5.79544 -7.96453e-16 13.0071
v  5.79437 -3.13789e-16 5.12456

# 0 UV coordinates

# 55 vertex normals
vn 0.00232413 0.931165 -0.364592
vn 0.00232159 0.931162 -0.364598
vn 0.00232159 0.931162 -0.364598
vn -0.0103023 0.996751 -0.0798799
vn 0.000602682 0.99552 -0.0945443
vn 0.073554 0.818129 0.570312
vn 0.0735541 0.818128 0.570312
vn 0.0735549 0.818124 0.570318
vn 0.250787 0.962614 0.102375
vn -0.0102745 0.996769 -0.0796645
vn 0.000461655 0.997368 -0.0725019
vn 0.0739594 0.815893 0.573454
vn 0.0739593 0.815892 0.573454
vn 0.252727 0.967538 -3.43567e-05
vn 0.252727 0.967538 -3.43071e-05
vn -1.76444e-24 -1 -6.12324e-17
vn -3.38177e-24 -1 -6.12324e-17
vn -4.60475e-24 -1 -6.12323e-17
vn -5.75408e-24 -1 -6.12323e-17
vn 0 -1 -6.12323e-17
vn -9.52242e-25 -1 -6.12323e-17
vn 1.02042e-24 -1 -6.12323e-17
vn 1.01e-24 -1 -6.12323e-17
vn 1.11518e-24 -1 -6.12323e-17
vn 6.96985e-26 -1 -6.12323e-17
vn 1 -2.12876e-05 -0.000135711
vn 1 -2.12621e-05 -0.000135944
vn -1 2.12523e-05 0.000135769
vn -1 2.1269e-05 0.00013578
vn -1 2.12708e-05 0.000135767
vn -1 2.12787e-05 0.000135754
vn -1 2.12835e-05 0.000135748
vn -1 2.12689e-05 0.000135765
vn -1 2.12115e-05 0.000135748
vn -1 2.12743e-05 0.00013369
vn -1 2.12722e-05 0.000135752
vn -1 2.12609e-05 0.000135782
vn -1 4.85016e-06 0.000137062
vn 1 -2.12304e-05 -0.000135708
vn 1 -2.12446e-05 -0.000135709
vn 1 -2.12876e-05 -0.000135709
vn 1 -2.12367e-05 -0.000135787
vn 0 1 6.12276e-17
vn 0.127912 2.86438e-05 0.991785
vn 0.127912 2.86985e-05 0.991786
vn 0.127912 2.86902e-05 0.991785
vn 1 -2.12743e-05 -0.00013369
vn 0.999802 -1.27347e-06 -0.0199222
vn 1 -2.12568e-05 -0.000135742
vn 1 -2.12609e-05 -0.000135752
vn 1 -7.73406e-09 -0.000120992
vn 0.0063674 -3.17798e-05 -0.99998
vn 0.00636737 -3.17925e-05 -0.99998
vn 0.0063674 -3.17822e-05 -0.99998
vn 0.0063674 -3.17818e-05 -0.99998

# Mesh 'defaultobject' with 116 faces
g defaultobject
usemtl DefaultMaterial
f  1//1 2//1 3//1
f  2//1 1//1 4//2
f  2//1 4//2 5//3
f  6//4 2//4 7//4
f  2//5 6//5 3//5
f  6//6 8//6 9//6
f  8//6 6//6 10//7
f  10//7 6//6 7//8
f  5//9 4//9 11//9
f  2//10 12//10 13//10
f  12//11 2//11 5//11
f  12//12 8//12 13//12
f  8//12 12//12 14//13
f  15//14 11//14 4//14
f  11//14 15//14 16//15
f  1//1 2//1 3//1
f  2//1 1//1 4//2
f  2//1 4//2 5//3
f  6//4 2//4 7//4
f  2//5 6//5 3//5
f  6//6 8//6 9//6
f  8//6 6//6 10//7
f  10//7 6//6 7//8
f  5//9 4//9 11//9
f  2//10 12//10 13//10
f  12//11 2//11 5//11
f  12//12 8//12 13//12
f  8//12 12//12 14//13
f  15//14 11//14 4//14
f  11//14 15//14 16//15
f  17//16 18//16 19//16
f  18//16 17//16 20//17
f  20//17 17//16 21//18
f  21//18 17//16 22//19
f  21//18 22//19 23//20
f  23//20 22//19 24//21
f  24//21 22//19 25//22
f  25//22 22//19 26//23
f  25//22 26//23 27//24
f  27//24 26//23 28//25
f  17//16 18//16 19//16
f  18//16 17//16 20//17
f  20//17 17//16 21//18
f  21//18 17//16 22//19
f  21//18 22//19 23//20
f  23//20 22//19 24//21
f  24//21 22//19 25//22
f  25//22 22//19 26//23
f  25//22 26//23 27//24
f  27//24 26//23 28//25
f  27//26 4//26 25//26
f  4//26 27//26 15//27
f  12//28 5//28 14//28
f  14//28 17//29 19//29
f  17//29 14//28 22//30
f  22//30 14//28 26//31
f  26//31 14//28 28//32
f  28//32 14//28 16//33
f  16//33 14//28 5//28
f  16//33 5//28 11//34
f  10//35 29//35 30//35
f  29//35 10//35 31//36
f  31//36 10//35 2//37
f  2//38 10//38 7//38
f  9//39 3//39 6//39
f  3//39 9//39 1//40
f  1//40 9//39 24//41
f  24//41 9//39 20//42
f  24//43 20//43 23//43
f  23//20 20//17 21//18
f  9//44 18//44 20//44
f  18//44 9//44 19//45
f  19//45 9//44 14//46
f  14//46 9//44 8//6
f  29//47 10//47 30//47
f  10//48 29//48 13//48
f  13//49 29//47 2//49
f  2//49 29//47 31//50
f  13//51 8//51 10//51
f  4//52 24//52 25//52
f  24//52 4//52 1//53
f  16//54 27//54 28//54
f  27//54 16//54 15//55
f  27//26 4//26 25//26
f  4//26 27//26 15//27
f  12//28 5//28 14//28
f  14//28 17//29 19//29
f  17//29 14//28 22//30
f  22//30 14//28 26//31
f  26//31 14//28 28//32
f  28//32 14//28 16//33
f  16//33 14//28 5//28
f  16//33 5//28 11//34
f  10//35 29//35 30//35
f  29//35 10//35 31//36
f  31//36 10//35 2//37
f  2//38 10//38 7//38
f  9//39 3//39 6//39
f  3//39 9//39 1//40
f  1//40 9//39 24//41
f  24//41 9//39 20//42
f  24//43 20//43 23//43
f  23//20 20//17 21//18
f  9//44 18//44 20//44
f  18//44 9//44 19//45
f  19//45 9//44 14//46
f  14//46 9//44 8//6
f  29//47 10//47 30//47
f  10//48 29//48 13//48
f  13//49 29//47 2//49
f  2//49 29//47 31//50
f  13//51 8//51 10//51
f  4//52 24//52 25//52
f  24//52 4//52 1//53
f  16//54 27//54 28//54
f  27//54 16//54 15//55

