# {"id":"BLDG_00030009007ea42d","idOriginal":"BLDG_00030009007ea42d","origin":[13.375689803780274,52.559713241910224],"elevation":40.7999992370605}
# Longitude: 13.375689803780274
# Latitude: 52.559713241910224
# Elevation: 40.7999992370605

# File produced by Open Asset Import Library (http://www.assimp.sf.net)
# (assimp v3.1.0)

mtllib BLDG_00030009007ea42d.obj.mtl

# 22 vertex positions
v  5.72685 21.5413 -4.80726
v  9.22347 20.694 2.04377
v  10.6315 20.694 -3.72004
v  4.31881 21.5413 0.956546
v  13.5375 17.8507 -3.07578
v  12.1295 21.6531 2.68791
v  13.3549 20.694 -14.8659
v  16.2653 17.8507 -14.2419
v  8.44066 21.5413 -15.9195
v  4.11568 17.8507 -16.8465
v  1.40842 17.8507 -5.76437
v  21.6209 21.6531 4.79181
v  22.9454 17.8507 -0.990372
v  0.000380795 17.8507 -0.00056596
v  13.5371 1.88303e-16 -3.07521
v  4.1153 1.03152e-15 -16.846
v  16.2649 8.7203e-16 -14.2413
v  1.40804 3.52931e-16 -5.76381
v  21.6204 -2.93456e-16 4.79249
v  12.1291 -1.64629e-16 2.68859
v  22.945 6.06081e-17 -0.989806
v  0 0 0

# 0 UV coordinates

# 37 vertex normals
vn 0.161604 0.986066 0.0394782
vn 0.161604 0.986066 0.0394782
vn 0.671082 0.72303 0.163939
vn -0.14125 0.810145 -0.568958
vn 0.671075 0.72303 0.163969
vn 0.671143 0.72297 0.163954
vn 0.161606 0.986066 0.0394673
vn 0.161562 0.986073 0.0394757
vn -0.622437 0.767757 -0.152055
vn -0.622511 0.767703 -0.152029
vn 0.116788 0.841887 -0.526865
vn 0.116788 0.841887 -0.526865
vn -0.622437 0.767757 -0.152055
vn 0 -1 -6.12323e-17
vn 5.97787e-24 -1 -6.12323e-17
vn -3.67198e-24 -1 -6.12323e-17
vn -3.70454e-24 -1 -6.12323e-17
vn 5.74687e-24 -1 -6.12323e-17
vn 0.209617 -3.55033e-05 -0.977784
vn 0.209617 -3.54566e-05 -0.977784
vn 0.209617 -3.52704e-05 -0.977784
vn 0.209617 -3.53341e-05 -0.977784
vn 0.971434 -1.31721e-05 0.237312
vn 0.971434 -1.32464e-05 0.237312
vn -0.971434 1.3196e-05 -0.237312
vn -0.971434 1.32026e-05 -0.237312
vn -0.216412 3.55818e-05 0.976302
vn -0.216412 3.55728e-05 0.976302
vn 0.216412 -3.55694e-05 -0.976302
vn 0.216412 -3.55546e-05 -0.976302
vn 0.974751 -1.36984e-05 0.223296
vn 0.974751 -1.36487e-05 0.223296
vn -0.216412 3.55826e-05 0.976302
vn -0.216412 3.5506e-05 0.976302
vn -0.216412 3.55703e-05 0.976302
vn -0.216412 3.55352e-05 0.976302
vn -0.971434 1.31988e-05 -0.237312

# Mesh 'defaultobject' with 40 faces
g defaultobject
usemtl DefaultMaterial
f  1//1 2//1 3//1
f  2//1 1//1 4//2
f  2//3 5//3 3//3
f  2//4 6//4 5//4
f  5//5 7//5 3//5
f  7//6 5//6 8//6
f  3//7 9//7 1//7
f  9//8 3//8 7//8
f  1//9 10//9 11//9
f  10//10 1//10 9//10
f  5//11 12//11 13//11
f  12//11 5//11 6//12
f  11//9 4//13 1//9
f  4//13 11//9 14//13
f  15//14 16//14 17//14
f  16//14 15//14 18//15
f  15//14 19//16 20//16
f  19//16 15//14 21//17
f  18//15 20//16 22//18
f  20//16 18//15 15//14
f  10//19 17//19 16//19
f  17//19 10//19 8//20
f  8//20 10//19 9//21
f  8//20 9//21 7//22
f  17//23 5//23 15//23
f  5//23 17//23 8//24
f  11//25 16//25 18//25
f  16//25 11//25 10//26
f  19//27 6//27 20//27
f  6//27 19//27 12//28
f  5//29 21//29 15//29
f  21//29 5//29 13//30
f  21//31 12//31 19//31
f  12//31 21//31 13//32
f  6//27 22//33 20//27
f  22//33 6//27 2//34
f  22//33 2//34 14//35
f  4//36 14//35 2//34
f  14//37 18//25 22//37
f  18//25 14//37 11//25

