# {"id":"BLDG_0003000a00446f9d","idOriginal":"BLDG_0003000a00446f9d","origin":[13.398157403235912,52.51236530103403],"elevation":32.1599998474121}
# Longitude: 13.398157403235912
# Latitude: 52.51236530103403
# Elevation: 32.1599998474121

# File produced by Open Asset Import Library (http://www.assimp.sf.net)
# (assimp v3.1.0)

mtllib BLDG_0003000a00446f9d.obj.mtl

# 34 vertex positions
v  20.5747 -6.31531e-16 10.3137
v  15.1534 21.0268 18.4241
v  15.153 -1.12819e-15 18.4248
v  31.4965 3.68981e-16 -6.02591
v  35.4619 7.32242e-16 -11.9584
v  39.4274 1.0955e-15 -17.8909
v  39.4277 14.8711 -17.8914
v  20.5751 21.0268 10.313
v  31.4969 21.0268 -6.02657
v  35.4624 21.0268 -11.9591
v  0.000449136 21.0268 -0.00066455
v  12.9221 1.16383e-15 -19.0069
v  0 0 0
v  16.9335 1.52513e-15 -24.9072
v  20.945 1.88642e-15 -30.8076
v  20.9453 14.8711 -30.8081
v  16.934 21.0268 -24.9079
v  12.9225 21.0268 -19.0075
v  27.2813 14.8711 -26.3801
v  33.8535 14.8711 -21.787
v  27.281 1.61528e-15 -26.3796
v  33.8531 1.33404e-15 -21.7866
v  25.6225 6.20344e-16 -10.131
v  13.6405 14.8711 6.8371
v  25.6229 14.8711 -10.1315
v  13.6402 -4.1868e-16 6.83757
v  7.99285 14.8711 14.8349
v  7.99253 -9.08406e-16 14.8354
v  19.2581 8.92696e-16 -14.5788
v  19.2584 14.8711 -14.5793
v  6.97115 14.8711 3.49387
v  6.97083 -2.13967e-16 3.49434
v  23.27 21.0268 -20.4799
v  29.7383 21.0268 -15.9594

# 0 UV coordinates

# 59 vertex normals
vn 0.831374 -2.04548e-07 0.555713
vn 0.831374 -2.2154e-07 0.555713
vn 0.831374 0 0.555713
vn 0.831374 -8.13568e-07 0.555713
vn 0.831374 -1.87918e-07 0.555713
vn 0.831374 1.01629e-06 0.555713
vn 0.831374 -2.52247e-07 0.555713
vn 0.831374 -8.68438e-08 0.555713
vn -0.826979 -1.04897e-07 -0.562233
vn -0.826979 -1.52564e-07 -0.562233
vn -0.826979 -1.52564e-07 -0.562233
vn -0.826979 -9.82468e-08 -0.562233
vn -0.826979 -1.64604e-07 -0.562233
vn 0.572836 -3.82287e-05 -0.81967
vn 0.572836 -3.82952e-05 -0.81967
vn 0.572836 -3.83233e-05 -0.81967
vn 0.572836 -3.80419e-05 -0.81967
vn -9.71445e-17 -1 8.32667e-17
vn -1.38778e-17 -1 -4.16334e-17
vn -0.816865 -8.45078e-07 -0.576829
vn -0.816865 -7.74199e-07 -0.576829
vn -0.816865 -7.74197e-07 -0.576829
vn -0.816865 -7.92692e-07 -0.576829
vn -0.572836 3.81107e-05 0.81967
vn -0.572836 3.81842e-05 0.81967
vn 0.826979 9.39002e-08 0.562233
vn -0.44813 3.78191e-05 0.893969
vn -0.448129 3.78478e-05 0.893969
vn -0.448129 3.78384e-05 0.893969
vn -0.448129 3.77915e-05 0.893969
vn 7.19967e-24 -1 -6.12323e-17
vn -7.87849e-24 -1 -6.12323e-17
vn 5.25233e-24 -1 -6.12324e-17
vn 2.61966e-24 -1 -6.12323e-17
vn 0 1 5.55112e-17
vn -1.85037e-17 1 7.40149e-17
vn -2.84505e-24 -1 -6.12323e-17
vn 1.39985e-24 -1 -6.12323e-17
vn 1.40998e-24 -1 -6.12323e-17
vn 1.36548e-24 -1 -6.12323e-17
vn 2.38402e-24 -1 -6.12323e-17
vn 0 -1 -6.12323e-17
vn -0.519265 0.780956 -0.347091
vn -0.501306 0.789543 -0.353997
vn 0.374226 0.757111 -0.535479
vn 0.374226 0.757111 -0.535479
vn 0.374226 0.757111 -0.535479
vn 0.374226 0.757111 -0.535479
vn 0.374226 0.757111 -0.535479
vn -0.374212 0.757132 0.535459
vn -0.374212 0.757132 0.535459
vn -0.374212 0.757132 0.535459
vn -0.374212 0.757132 0.535459
vn 0.515191 0.782238 0.35026
vn 0.515191 0.782238 0.35026
vn 0.515191 0.782238 0.35026
vn -0.54179 0.758494 -0.362147
vn -0.54179 0.758494 -0.362147
vn -0.511304 0.779875 -0.361058

# Mesh 'defaultobject' with 64 faces
g defaultobject
usemtl DefaultMaterial
f  1//1 2//1 3//1
f  2//1 1//1 4//2
f  2//1 4//2 5//3
f  2//1 5//3 6//4
f  2//1 6//4 7//5
f  2//1 7//5 8//6
f  8//6 7//5 9//7
f  9//7 7//5 10//8
f  11//9 12//9 13//9
f  12//9 11//9 14//10
f  14//10 11//9 15//11
f  15//11 11//9 16//12
f  16//12 11//9 17//13
f  17//13 11//9 18//10
f  19//14 15//14 16//14
f  15//14 19//14 20//15
f  15//14 20//15 7//16
f  15//14 7//16 6//17
f  15//18 6//18 21//18
f  21//18 6//18 22//19
f  23//20 24//20 25//20
f  24//20 23//20 26//21
f  24//20 26//21 27//22
f  27//22 26//21 28//23
f  25//24 29//24 23//24
f  29//24 25//24 30//25
f  29//26 31//26 32//26
f  31//26 29//26 30//26
f  32//27 11//27 13//27
f  11//27 32//27 31//28
f  3//29 27//29 28//29
f  27//29 3//29 2//30
f  21//18 14//31 15//18
f  14//31 21//18 22//19
f  14//31 22//19 6//18
f  14//31 6//18 5//32
f  14//31 5//32 12//33
f  12//33 5//32 4//34
f  12//35 4//35 29//35
f  29//35 4//35 23//36
f  23//37 4//34 26//37
f  26//37 4//34 1//38
f  26//37 1//38 28//39
f  28//39 1//38 3//40
f  29//41 13//41 12//33
f  13//41 29//41 32//42
f  24//43 2//43 8//43
f  2//44 24//44 27//44
f  33//45 16//45 17//45
f  16//45 33//45 34//46
f  16//45 34//46 10//45
f  16//45 10//45 19//47
f  19//47 10//45 20//48
f  20//48 10//45 7//49
f  25//50 17//50 30//50
f  17//50 25//50 33//51
f  33//51 25//50 34//52
f  34//52 25//50 10//53
f  18//10 30//54 17//54
f  30//54 18//10 11//55
f  30//54 11//55 31//56
f  10//57 25//57 9//57
f  25//57 8//58 9//57
f  8//59 25//59 24//59

