# {"id":"BLDG_0003000b00099ae4","idOriginal":"BLDG_0003000b00099ae4","origin":[13.358866663782702,52.53545584581083],"elevation":33.9599990844727}
# Longitude: 13.358866663782702
# Latitude: 52.53545584581083
# Elevation: 33.9599990844727

# File produced by Open Asset Import Library (http://www.assimp.sf.net)
# (assimp v3.1.0)

mtllib BLDG_0003000b00099ae4.obj.mtl

# 38 vertex positions
v  31.3992 20.2322 23.2666
v  25.1901 20.2322 33.5901
v  34.2202 20.2322 27.2384
v  19.5896 20.2322 25.7492
v  28.5511 20.2322 19.315
v  27.1099 20.2322 17.3059
v  18.2661 20.2322 23.9059
v  25.7534 20.2322 15.4992
v  14.6871 20.2322 19.0408
v  17.1093 20.2322 2.04292
v  26.6844 20.2322 14.809
v  11.0653 20.2322 14.2072
v  16.1971 20.2322 2.76952
v  7.40147 20.2322 9.40522
v  14.7208 20.2322 0.844604
v  5.96949 20.2322 7.58734
v  0.000431107 20.2322 -0.00064045
v  11.6906 20.2322 -3.03234
v  8.63367 20.2322 -6.88782
v  26.684 -9.06828e-16 14.8096
v  16.1967 -1.69624e-16 2.77016
v  17.1089 -1.25132e-16 2.04356
v  5.96906 -4.6463e-16 7.58798
v  7.40103 -5.75943e-16 9.40586
v  11.0649 -8.69981e-16 14.2079
v  25.753 -9.49093e-16 15.4999
v  14.6866 -1.16595e-15 19.0414
v  27.1095 -1.05972e-15 17.3065
v  28.5506 -1.18274e-15 19.3156
v  31.3988 -1.42471e-15 23.2672
v  18.2657 -1.46385e-15 23.9065
v  34.2197 -1.66791e-15 27.239
v  19.5891 -1.57672e-15 25.7498
v  25.1896 -2.05684e-15 33.5908
v  11.6901 1.85638e-16 -3.0317
v  0 0 0
v  8.63323 4.21718e-16 -6.88718
v  14.7204 -5.17563e-17 0.845245

# 0 UV coordinates

# 44 vertex normals
vn 0 1 -0
vn -4.55334e-23 -1 -6.12323e-17
vn -3.65813e-24 -1 -6.12323e-17
vn -1.74423e-23 -1 -6.12323e-17
vn -4.36324e-24 -1 -6.12323e-17
vn -4.08443e-24 -1 -6.12323e-17
vn -2.39486e-24 -1 -6.12324e-17
vn 5.33718e-24 -1 -6.12323e-17
vn 3.49444e-24 -1 -6.12323e-17
vn 3.18594e-24 -1 -6.12323e-17
vn -9.59888e-24 -1 -6.12323e-17
vn -9.56453e-24 -1 -6.12323e-17
vn 1.48246e-23 -1 -6.12324e-17
vn 1.04508e-23 -1 -6.12324e-17
vn -9.74251e-25 -1 -6.12323e-17
vn 0 -1 -6.12323e-17
vn 0.799681 -3.60577e-05 -0.600425
vn 0.799681 -3.60316e-05 -0.600425
vn 0.595551 1.27171e-05 0.803317
vn 0.799984 -3.60599e-05 -0.600022
vn -0.623045 -1.14834e-05 -0.782186
vn 0.793496 -3.61654e-05 -0.608575
vn 0.793496 -3.61703e-05 -0.608575
vn 0.787888 -3.62766e-05 -0.615819
vn 0.783586 -3.6356e-05 -0.621283
vn -0.623623 -1.14573e-05 -0.781725
vn -0.623623 -1.14565e-05 -0.781725
vn -0.785962 3.63297e-05 0.618275
vn -0.785962 3.63186e-05 0.618275
vn -0.785553 3.63374e-05 0.618794
vn -0.795019 3.61612e-05 0.606584
vn -0.795019 3.61523e-05 0.606584
vn -0.800272 3.59877e-05 0.599637
vn -0.800272 3.60536e-05 0.599637
vn -0.805512 3.59323e-05 0.592579
vn -0.805512 3.58764e-05 0.592579
vn -0.812305 3.57809e-05 0.583232
vn -0.813742 3.5748e-05 0.581226
vn 0.575323 1.36453e-05 0.817926
vn 0.815292 -3.57127e-05 -0.57905
vn 0.815292 -3.56546e-05 -0.57905
vn 0.81124 -3.57461e-05 -0.584714
vn 0.812565 -3.57214e-05 -0.58287
vn 0.812566 -3.57738e-05 -0.58287

# Mesh 'defaultobject' with 72 faces
g defaultobject
usemtl DefaultMaterial
f  1//1 2//1 3//1
f  2//1 1//1 4//1
f  4//1 1//1 5//1
f  4//1 5//1 6//1
f  4//1 6//1 7//1
f  7//1 6//1 8//1
f  7//1 8//1 9//1
f  10//1 8//1 11//1
f  8//1 10//1 9//1
f  9//1 10//1 12//1
f  12//1 10//1 13//1
f  13//1 14//1 12//1
f  14//1 13//1 15//1
f  14//1 15//1 16//1
f  16//1 15//1 17//1
f  17//1 15//1 18//1
f  17//1 18//1 19//1
f  20//2 21//2 22//2
f  21//2 20//2 23//3
f  23//3 20//2 24//4
f  24//4 20//2 25//5
f  25//5 20//2 26//6
f  25//5 26//6 27//7
f  27//7 26//6 28//8
f  27//7 28//8 29//9
f  27//7 29//9 30//10
f  27//7 30//10 31//11
f  31//11 30//10 32//12
f  31//11 32//12 33//13
f  33//13 32//12 34//14
f  35//15 36//15 37//15
f  36//15 35//15 38//16
f  36//15 38//16 21//2
f  36//15 21//2 23//3
f  26//17 6//17 28//17
f  6//17 26//17 8//18
f  20//19 8//19 26//19
f  8//19 20//19 11//19
f  22//20 11//20 20//20
f  11//20 22//20 10//20
f  13//21 22//21 21//21
f  22//21 13//21 10//21
f  38//22 13//22 21//22
f  13//22 38//22 15//23
f  35//24 15//24 38//24
f  15//24 35//24 18//24
f  37//25 18//25 35//25
f  18//25 37//25 19//25
f  17//26 37//26 36//26
f  37//26 17//26 19//27
f  16//28 36//28 23//28
f  36//28 16//28 17//29
f  14//30 23//30 24//30
f  23//30 14//30 16//30
f  12//31 24//31 25//31
f  24//31 12//31 14//32
f  9//33 25//33 27//33
f  25//33 9//33 12//34
f  7//35 27//35 31//35
f  27//35 7//35 9//36
f  4//37 31//37 33//37
f  31//37 4//37 7//37
f  2//38 33//38 34//38
f  33//38 2//38 4//38
f  32//39 2//39 34//39
f  2//39 32//39 3//39
f  30//40 3//40 32//40
f  3//40 30//40 1//41
f  29//42 1//42 30//42
f  1//42 29//42 5//42
f  28//43 5//43 29//43
f  5//43 28//43 6//44

