# {"id":"BLDG_0003000900a33d7d","idOriginal":"BLDG_0003000900a33d7d","origin":[13.38349591833668,52.53091135278188],"elevation":35.2400016784668}
# Longitude: 13.38349591833668
# Latitude: 52.53091135278188
# Elevation: 35.2400016784668

# File produced by Open Asset Import Library (http://www.assimp.sf.net)
# (assimp v3.1.0)

mtllib BLDG_0003000900a33d7d.obj.mtl

# 10 vertex positions
v  8.24439 -8.24864e-16 13.471
v  12.8298 3.29732e-16 -5.38493
v  21.0742 -4.95132e-16 8.08611
v  0 0 0
v  21.0747 23.3316 8.08537
v  12.8303 23.3316 -5.38567
v  8.24489 23.3316 13.4703
v  0.000497925 23.3316 -0.00073831
v  4.1227 23.8461 6.73477
v  9.67106 23.8461 4.40601

# 0 UV coordinates

# 16 vertex normals
vn 0 -1 -6.12323e-17
vn -3.8993e-24 -1 -6.12323e-17
vn 0.852941 -3.4742e-05 -0.522007
vn 0.852941 -3.47213e-05 -0.522007
vn 0.387013 2.09161e-05 0.922074
vn 0.387013 2.09396e-05 0.922074
vn -0.852941 3.47136e-05 0.522007
vn -0.852941 3.47213e-05 0.522007
vn -0.852941 3.42706e-05 0.522007
vn -0.387013 -2.09189e-05 -0.922074
vn -0.387013 -2.09142e-05 -0.922074
vn 0.0560956 0.997835 -0.0343309
vn 0.0254527 0.997835 0.0606421
vn 0.0254527 0.997835 0.0606421
vn -0.0254528 0.997835 -0.0606423
vn -0.0254528 0.997835 -0.0606423

# Mesh 'defaultobject' with 16 faces
g defaultobject
usemtl DefaultMaterial
f  1//1 2//1 3//1
f  2//1 1//1 4//2
f  2//3 5//3 3//3
f  5//3 2//3 6//4
f  3//5 7//5 1//5
f  7//5 3//5 5//6
f  7//7 4//7 1//7
f  4//7 7//7 8//8
f  8//8 7//7 9//9
f  8//10 2//10 4//10
f  2//10 8//10 6//11
f  10//12 5//12 6//12
f  7//13 10//13 9//13
f  10//13 7//13 5//14
f  9//15 6//15 8//15
f  6//15 9//15 10//16

