# {"id":"BLDG_00030000001763fc","idOriginal":"BLDG_00030000001763fc","origin":[13.381623460241869,52.52588168251697],"elevation":32.6199989318848}
# Longitude: 13.381623460241869
# Latitude: 52.52588168251697
# Elevation: 32.6199989318848

# File produced by Open Asset Import Library (http://www.assimp.sf.net)
# (assimp v3.1.0)

mtllib BLDG_00030000001763fc.obj.mtl

# 35 vertex positions
v  2.21361 6.4351e-16 -10.5093
v  1.69117 1.00083e-17 -0.163448
v  0.705343 6.34584e-16 -10.3635
v  4.85879 1.10731e-15 -18.0838
v  5.55959 6.63311e-16 -10.8327
v  1.51281 1.08751e-15 -17.7604
v  1.26533 -8.01654e-16 13.092
v  0 0 0
v  10.8882 -7.44706e-16 12.162
v  8.46825 5.01149e-17 -0.818439
v  7.48242 6.74691e-16 -11.0185
v  9.62291 5.69481e-17 -0.930034
v  5.6521 11.72 8.23003
v  9.73371 6.15 12.2734
v  10.8884 6.15 12.1618
v  4.46487 6.15 12.7826
v  1.26546 6.15 13.0918
v  5.48993 11.5141 8.40977
v  9.62304 6.15 -0.930228
v  5.04303 11.5141 3.78585
v  5.23663 11.72 3.93119
v  5.44155 10.89 3.25015
v  8.46838 6.15 -0.818633
v  0.000131231 6.15 -0.00019455
v  1.69131 6.15 -0.163643
v  7.48255 6.15 -11.0187
v  5.55972 6.15 -10.8329
v  5.59435 9.12046 -8.37941
v  4.0119 7.73 -9.3765
v  4.46952 10.89 -6.80713
v  2.21374 6.15 -10.5095
v  0.705474 6.15 -10.3637
v  3.29962 7.73 -16.7464
v  4.85892 6.15 -18.084
v  1.51294 6.15 -17.7606

# 0 UV coordinates

# 59 vertex normals
vn 1.40632e-23 -1 -6.12323e-17
vn -2.59415e-23 -1 -6.12323e-17
vn -5.92227e-25 -1 -6.12323e-17
vn 4.99587e-24 -1 -6.12323e-17
vn 0 -1 -6.12323e-17
vn 0 -1 -6.12323e-17
vn 0.0753748 0.621364 0.779888
vn 0.0753746 0.621364 0.779888
vn 0.0753745 0.621364 0.779888
vn 0.948683 0 0.316228
vn -0.0753785 0.621335 -0.779911
vn -0.0753749 0.621337 -0.77991
vn -0.0753766 0.621336 -0.77991
vn -0.075377 0.621336 -0.77991
vn -0.0753767 0.621336 -0.77991
vn -0.0742698 0.63558 -0.768454
vn -0.0742699 0.63558 -0.768454
vn -0.0742697 0.63558 -0.768455
vn -0.0742695 0.63558 -0.768455
vn -0.07427 0.63558 -0.768454
vn 0.751756 0.655426 -0.0726563
vn 0.751756 0.655426 -0.0726563
vn -0.751738 0.655447 0.0726545
vn -0.751739 0.655447 0.0726541
vn -0.751738 0.655447 0.0726545
vn -0.751737 0.655448 0.0726545
vn 0.808464 0.583335 -0.0781375
vn 0.808465 0.583335 -0.0781375
vn -0.784465 -0.588348 0.196116
vn 0.681756 0.728607 -0.0658901
vn 0.681756 0.728607 -0.0658901
vn -0.681739 0.728622 0.0658885
vn -0.681739 0.728622 0.0658885
vn -0.0770427 0.59884 -0.797154
vn -0.808446 0.583361 0.0781357
vn -0.808446 0.583361 0.0781357
vn 0.0961996 2.94325e-05 0.995362
vn 0.0961998 2.93351e-05 0.995362
vn 0.0961997 2.93639e-05 0.995362
vn 0.0962002 2.94423e-05 0.995362
vn 0.995362 -2.43477e-05 -0.0962009
vn 0.995362 -2.4272e-05 -0.0962009
vn -0.995362 2.42856e-05 0.0962009
vn -0.995362 2.43049e-05 0.0962009
vn 0.995362 -2.42665e-05 -0.0961994
vn -0.995362 2.42663e-05 0.0961995
vn -0.995362 2.42856e-05 0.0961994
vn -0.0961997 -2.94287e-05 -0.995362
vn 0.995362 -2.43574e-05 -0.0962004
vn 0.995362 -2.41923e-05 -0.0962005
vn -0.0961997 -2.94346e-05 -0.995362
vn -0.0961997 -2.94325e-05 -0.995362
vn -0.995362 2.43049e-05 0.0962005
vn -0.995362 2.42826e-05 0.0962005
vn -0.0962 -2.94362e-05 -0.995362
vn -0.0962003 -2.94362e-05 -0.995362
vn -0.0962003 -2.94343e-05 -0.995362
vn -0.0961989 -2.94362e-05 -0.995362
vn -0.0961989 -2.94343e-05 -0.995362

# Mesh 'defaultobject' with 66 faces
g defaultobject
usemtl DefaultMaterial
f  1//1 2//1 3//1
f  4//2 5//2 6//2
f  2//1 7//3 8//3
f  7//3 2//1 9//4
f  9//4 2//1 1//1
f  9//4 1//1 6//2
f  9//4 6//2 5//2
f  9//4 5//2 10//5
f  10//5 5//2 11//6
f  9//4 10//5 12//5
f  13//7 14//7 15//7
f  14//7 13//7 16//8
f  16//8 13//7 17//9
f  17//10 13//10 18//10
f  19//11 20//11 21//11
f  20//11 19//11 22//12
f  22//12 19//11 23//13
f  22//12 24//14 20//11
f  24//14 22//12 25//15
f  26//16 27//16 28//16
f  29//17 28//16 27//16
f  30//18 28//16 29//17
f  31//19 30//18 29//17
f  32//20 30//18 31//19
f  19//21 13//21 15//21
f  13//21 19//21 21//22
f  17//23 20//23 24//23
f  20//23 17//23 21//24
f  21//24 17//23 18//25
f  21//24 18//25 13//26
f  23//27 30//27 22//27
f  30//27 23//27 26//28
f  30//29 26//29 28//29
f  27//30 33//30 29//30
f  33//30 27//30 34//31
f  31//32 33//32 35//32
f  33//32 31//32 29//33
f  35//34 33//34 34//34
f  25//35 30//35 32//35
f  30//35 25//35 22//36
f  7//37 16//37 17//37
f  16//37 7//37 14//38
f  14//38 7//37 9//39
f  14//38 9//39 15//40
f  11//41 23//41 10//41
f  23//41 11//41 26//42
f  3//43 25//43 32//43
f  25//43 3//43 2//44
f  4//45 27//45 5//45
f  27//45 4//45 34//45
f  31//46 6//46 1//46
f  6//46 31//46 35//47
f  23//48 12//48 10//48
f  12//48 23//48 19//48
f  15//49 12//49 19//49
f  12//49 15//49 9//50
f  24//51 2//51 8//51
f  2//51 24//51 25//52
f  17//53 8//53 7//53
f  8//53 17//53 24//54
f  11//55 27//55 26//55
f  27//55 11//55 5//55
f  1//56 32//56 31//56
f  32//56 1//56 3//57
f  4//58 35//58 34//58
f  35//58 4//58 6//59

