# {"id":"BLDG_0003000b00566a81","idOriginal":"BLDG_0003000b00566a81","origin":[13.35351671254406,52.504248271828104],"elevation":33.5800018310547}
# Longitude: 13.35351671254406
# Latitude: 52.504248271828104
# Elevation: 33.5800018310547

# File produced by Open Asset Import Library (http://www.assimp.sf.net)
# (assimp v3.1.0)

mtllib BLDG_0003000b00566a81.obj.mtl

# 24 vertex positions
v  5.02523 -1.41601e-16 2.31251
v  5.8618e-05 2.75215 -8.69399e-05
v  0 0 0
v  5.02529 2.75215 2.31243
v  8.41192 3.10598e-16 -5.07245
v  8.41198 2.75215 -5.07254
v  6.78505 2.75215 -5.81846
v  6.78499 3.56272e-16 -5.81837
v  7.3845 4.35472e-16 -7.1118
v  7.38456 2.75215 -7.11189
v  6.61008 2.75215 -7.46473
v  6.61002 4.57077e-16 -7.46464
v  6.4775 4.64687e-16 -7.58891
v  6.47756 2.75215 -7.589
v  6.40869 4.75007e-16 -7.75745
v  6.40875 2.75215 -7.75753
v  6.40479 4.82093e-16 -7.87317
v  6.40485 2.75215 -7.87326
v  6.43196 4.89012e-16 -7.98617
v  6.43202 2.75215 -7.98626
v  6.51181 5.00467e-16 -8.17324
v  6.51187 2.75215 -8.17333
v  4.28178 2.75215 -9.19894
v  4.28172 5.63268e-16 -9.19886

# 0 UV coordinates

# 28 vertex normals
vn -0.418041 3.76475e-05 0.908428
vn -0.418041 3.75223e-05 0.908428
vn 0.908976 -6.22708e-06 0.416849
vn 0.908976 -5.88587e-06 0.416849
vn 0.416766 -3.75458e-05 -0.909014
vn 0.416766 -3.76311e-05 -0.909014
vn 0.907279 -6.07667e-06 0.420529
vn 0.414584 -3.75308e-05 -0.910011
vn 0.68407 -3.75779e-05 -0.729417
vn 0.925806 -3.16503e-05 -0.377998
vn 0.999432 -2.23615e-05 -0.0337018
vn 0.972284 -1.33479e-05 0.233802
vn 0.919722 -7.22237e-06 0.392571
vn 0.417831 -3.78679e-05 -0.908525
vn 0.417831 -3.75531e-05 -0.908525
vn -0.906601 5.97912e-06 -0.421989
vn -0.906601 5.86761e-06 -0.421989
vn 0 -1 -6.12323e-17
vn 9.11047e-24 -1 -6.12323e-17
vn -1.12933e-23 -1 -6.12324e-17
vn -3.74973e-23 -1 -6.12323e-17
vn 3.27253e-23 -1 -6.12323e-17
vn 5.69584e-22 -1 -6.12331e-17
vn 5.1045e-23 -1 -6.12324e-17
vn 8.5977e-23 -1 -6.12325e-17
vn -3.53743e-22 -1 -6.12318e-17
vn 1.32597e-22 -1 -6.12326e-17
vn 0 1 0

# Mesh 'defaultobject' with 44 faces
g defaultobject
usemtl DefaultMaterial
f  1//1 2//1 3//1
f  2//1 1//1 4//2
f  5//3 4//3 1//3
f  4//3 5//3 6//4
f  7//5 5//5 8//5
f  5//5 7//5 6//6
f  9//7 7//7 8//7
f  7//7 9//7 10//7
f  11//8 9//8 12//8
f  9//8 11//8 10//8
f  13//9 11//9 12//9
f  11//9 13//9 14//9
f  15//10 14//10 13//10
f  14//10 15//10 16//10
f  17//11 16//11 15//11
f  16//11 17//11 18//11
f  19//12 18//12 17//12
f  18//12 19//12 20//12
f  21//13 20//13 19//13
f  20//13 21//13 22//13
f  23//14 21//14 24//14
f  21//14 23//14 22//15
f  2//16 24//16 3//16
f  24//16 2//16 23//17
f  3//18 5//18 1//18
f  5//18 3//18 8//19
f  8//19 3//18 24//20
f  8//19 24//20 12//21
f  8//19 12//21 9//22
f  12//21 24//20 13//23
f  13//23 24//20 15//24
f  15//24 24//20 17//25
f  17//25 24//20 19//26
f  19//26 24//20 21//27
f  6//28 7//28 4//28
f  4//28 23//28 2//28
f  23//28 4//28 7//28
f  23//28 7//28 11//28
f  11//28 7//28 10//28
f  23//28 11//28 14//28
f  23//28 20//28 22//28
f  20//28 23//28 18//28
f  18//28 23//28 16//28
f  16//28 23//28 14//28

