# {"id":"BLDG_00030000001cdc90","idOriginal":"BLDG_00030000001cdc90","origin":[13.354536752439502,52.56120093230567],"elevation":39.8600006103516}
# Longitude: 13.354536752439502
# Latitude: 52.56120093230567
# Elevation: 39.8600006103516

# File produced by Open Asset Import Library (http://www.assimp.sf.net)
# (assimp v3.1.0)

mtllib BLDG_00030000001cdc90.obj.mtl

# 10 vertex positions
v  4.12119 -9.37176e-16 15.3052
v  10.9399 1.63282e-16 -2.6666
v  14.9692 -7.61174e-16 12.4309
v  0 0 0
v  14.9695 13.7149 12.4305
v  4.12148 13.7149 15.3048
v  9.54559 19.0595 13.8675
v  0.000292175 13.7149 -0.000434889
v  10.9402 13.7149 -2.66704
v  5.47034 19.0595 -1.33391

# 0 UV coordinates

# 15 vertex normals
vn -2.41513e-24 -1 -6.12323e-17
vn -1.18681e-24 -1 -6.12323e-17
vn 0.256126 2.52008e-05 0.966644
vn 0.256126 2.51919e-05 0.966644
vn 0.256126 2.52652e-05 0.966643
vn -0.965607 2.8824e-05 0.260006
vn -0.965607 2.88154e-05 0.260006
vn -0.236817 -2.57623e-05 -0.971554
vn -0.236817 -2.57673e-05 -0.971554
vn -0.236817 -2.57667e-05 -0.971554
vn 0.966182 -2.87293e-05 -0.257861
vn -0.666169 0.724103 0.17859
vn -0.664894 0.725164 0.179034
vn 0.666386 0.724085 -0.17785
vn 0.665101 0.725154 -0.178303

# Mesh 'defaultobject' with 16 faces
g defaultobject
usemtl DefaultMaterial
f  1//1 2//1 3//1
f  2//1 1//1 4//2
f  5//3 1//3 3//3
f  1//3 5//3 6//4
f  6//4 5//3 7//5
f  6//6 4//6 1//6
f  4//6 6//6 8//7
f  8//8 2//8 4//8
f  2//8 8//8 9//9
f  9//9 8//8 10//10
f  2//11 5//11 3//11
f  5//11 2//11 9//11
f  10//12 6//12 7//12
f  6//13 10//13 8//13
f  9//14 7//14 5//14
f  7//15 9//15 10//15

