# {"id":"BLDG_0003000900328403","idOriginal":"BLDG_0003000900328403","origin":[13.390050848764163,52.55405748338092],"elevation":41.1500015258789}
# Longitude: 13.390050848764163
# Latitude: 52.55405748338092
# Elevation: 41.1500015258789

# File produced by Open Asset Import Library (http://www.assimp.sf.net)
# (assimp v3.1.0)

mtllib BLDG_0003000900328403.obj.mtl

# 32 vertex positions
v  27.529 19.2836 6.38258
v  23.2314 20.6638 14.9352
v  29.5403 20.6638 8.2581
v  21.2179 19.2836 13.062
v  33.2106 21.2542 11.6807
v  26.9899 21.2542 18.432
v  36.2083 19.2836 14.4762
v  29.9908 19.2836 21.224
v  13.1489 19.2836 5.55481
v  10.4532 21.6207 -9.54094
v  3.62349 21.6207 -3.30742
v  19.9675 19.2836 -0.668597
v  34.5497 19.2836 25.4655
v  26.6781 21.6207 24.8193
v  31.237 21.6207 29.0608
v  17.8603 21.6207 16.6156
v  0.000461632 21.6207 -0.00068522
v  9.52588 21.6207 8.86148
v  29.9904 -1.29963e-15 21.2246
v  34.5493 -1.55935e-15 25.4661
v  31.2365 -1.7795e-15 29.0615
v  17.8598 -1.01745e-15 16.6163
v  26.6776 -1.51979e-15 24.82
v  0 0 0
v  9.52542 -5.42651e-16 8.86216
v  3.62303 2.02479e-16 -3.30674
v  13.1485 -3.40172e-16 5.55542
v  21.2175 -7.99855e-16 13.0626
v  27.5286 -3.90858e-16 6.38319
v  36.2079 -8.86447e-16 14.4768
v  10.4528 5.84172e-16 -9.54026
v  19.9671 4.09024e-17 -0.667986

# 0 UV coordinates

# 46 vertex normals
vn -0.32604 0.893754 -0.308061
vn -0.326043 0.893753 -0.308062
vn -0.0840295 0.993451 -0.0774254
vn -0.0849327 0.99315 -0.0802493
vn 0.318655 0.90125 0.29361
vn 0.318656 0.901249 0.293612
vn 0.119574 0.984143 0.131011
vn 0.119574 0.984143 0.131011
vn 0.293786 0.902206 -0.315774
vn 0.293786 0.902206 -0.315774
vn 0.293786 0.902206 -0.315774
vn 0.293786 0.902206 -0.315774
vn 0.293786 0.902206 -0.315774
vn 0.119574 0.984143 0.131011
vn 0.681157 -3.77889e-05 -0.732137
vn 0.735417 5.75626e-06 0.677615
vn 0.735417 5.80648e-06 0.677615
vn -0.681158 3.77291e-05 0.732137
vn -0.681158 3.77291e-05 0.732137
vn -0.681158 3.77471e-05 0.732137
vn -0.674131 -9.015e-06 -0.738612
vn -0.674131 -9.01652e-06 -0.738612
vn 0.681158 -3.77648e-05 -0.732137
vn 0.681158 -3.77289e-05 -0.732137
vn -0.681158 3.83682e-05 0.732137
vn -0.681158 3.80661e-05 0.732137
vn -0.726865 -6.24226e-06 -0.68678
vn -0.726865 -6.22528e-06 -0.686781
vn 0.681998 -3.7737e-05 -0.731354
vn 0.681998 -3.77551e-05 -0.731354
vn 0.681998 -3.77294e-05 -0.731354
vn 0.681998 -3.68776e-05 -0.731354
vn 0.735417 5.7995e-06 0.677615
vn 0.735417 5.75638e-06 0.677615
vn -0.674131 -9.0328e-06 -0.738612
vn 0.681998 -3.77722e-05 -0.731354
vn 0.681998 -3.77308e-05 -0.731354
vn 0.674131 9.04274e-06 0.738612
vn 0.674131 8.99989e-06 0.738612
vn -0.681158 3.77291e-05 0.732137
vn -1.1539e-23 -1 -6.12323e-17
vn 0 -1 -6.12323e-17
vn 1.30426e-24 -1 -6.12323e-17
vn -3.59641e-24 -1 -6.12323e-17
vn 6.65844e-24 -1 -6.12323e-17
vn 3.32922e-24 -1 -6.12323e-17

# Mesh 'defaultobject' with 60 faces
g defaultobject
usemtl DefaultMaterial
f  1//1 2//1 3//1
f  2//1 1//1 4//2
f  5//3 2//3 6//3
f  2//4 5//4 3//4
f  7//5 6//5 8//5
f  6//5 7//5 5//6
f  9//7 10//7 11//7
f  10//7 9//7 12//8
f  13//9 14//9 15//9
f  14//9 13//9 8//10
f  8//10 16//11 14//9
f  16//11 8//10 4//12
f  9//13 17//13 18//13
f  17//14 9//7 11//7
f  9//13 16//11 4//12
f  16//11 9//13 18//13
f  19//15 13//15 20//15
f  13//15 19//15 8//15
f  20//16 15//16 21//16
f  15//16 20//16 13//17
f  14//18 22//18 23//18
f  22//18 14//18 16//18
f  18//19 24//19 25//19
f  24//19 18//19 17//20
f  17//21 26//21 24//21
f  26//21 17//21 11//22
f  16//18 25//19 22//18
f  25//19 16//18 18//19
f  27//23 4//23 28//23
f  4//23 27//23 9//24
f  6//25 4//25 8//25
f  4//25 6//25 2//26
f  4//27 29//27 28//27
f  29//27 4//27 1//28
f  1//29 30//29 29//29
f  30//29 1//29 7//30
f  7//30 1//29 3//31
f  7//30 3//31 5//32
f  30//33 8//33 19//33
f  8//33 30//33 7//34
f  11//22 31//22 26//21
f  31//22 11//22 10//35
f  31//36 12//36 32//36
f  12//36 31//36 10//37
f  32//38 9//38 27//38
f  9//38 32//38 12//39
f  15//40 23//18 21//40
f  23//18 15//40 14//18
f  29//41 19//41 28//41
f  19//41 29//41 30//42
f  31//42 27//42 26//42
f  27//42 31//42 32//42
f  23//43 20//43 21//43
f  20//43 23//43 19//41
f  28//41 23//43 22//44
f  23//43 28//41 19//41
f  25//45 26//42 27//42
f  26//42 25//45 24//46
f  27//42 22//44 25//45
f  22//44 27//42 28//41

