# {"id":"BLDG_0003000a0010c1cf","idOriginal":"BLDG_0003000a0010c1cf","origin":[13.310700466467544,52.55734250958896],"elevation":34.439998626709}
# Longitude: 13.310700466467544
# Latitude: 52.55734250958896
# Elevation: 34.439998626709

# File produced by Open Asset Import Library (http://www.assimp.sf.net)
# (assimp v3.1.0)

mtllib BLDG_0003000a0010c1cf.obj.mtl

# 10 vertex positions
v  42.3925 -4.15373e-15 67.8355
v  26.8089 9.84588 73.5576
v  26.8087 -4.50412e-15 73.5579
v  42.3927 9.84588 67.8352
v  0 0 0
v  0.000209163 9.84588 -0.00031214
v  15.5838 3.50393e-16 -5.72236
v  15.584 9.84588 -5.72267
v  10.6346 17.928 4.93702
v  31.7587 17.928 62.8974

# 0 UV coordinates

# 14 vertex normals
vn 0.344695 2.24979e-05 0.938715
vn -0.939545 3.08999e-05 0.342424
vn -0.939545 3.08152e-05 0.342424
vn -0.344695 -2.24371e-05 -0.938715
vn -0.344695 -2.2387e-05 -0.938715
vn 0.939545 -3.08801e-05 -0.342424
vn -2.08545e-23 -1 -6.12323e-17
vn -2.08545e-23 -1 -6.12323e-17
vn -0.240469 0.716461 -0.654873
vn -0.655433 0.716481 0.238877
vn -0.655433 0.716481 0.238877
vn 0.655453 0.71646 -0.238885
vn 0.655454 0.71646 -0.238885
vn 0.240463 0.716476 0.654858

# Mesh 'defaultobject' with 16 faces
g defaultobject
usemtl DefaultMaterial
f  1//1 2//1 3//1
f  2//1 1//1 4//1
f  2//2 5//2 3//2
f  5//2 2//2 6//3
f  6//4 7//4 5//4
f  7//4 6//4 8//5
f  7//6 4//6 1//6
f  4//6 7//6 8//6
f  5//7 1//7 3//7
f  1//7 5//7 7//8
f  9//9 8//9 6//9
f  9//10 2//10 10//10
f  2//10 9//10 6//11
f  9//12 4//12 8//12
f  4//12 9//12 10//13
f  2//14 4//14 10//14

