# {"id":"BLDG_00030000001f1f97","idOriginal":"BLDG_00030000001f1f97","origin":[13.38342208834251,52.55048368170309],"elevation":39.2799987792969}
# Longitude: 13.38342208834251
# Latitude: 52.55048368170309
# Elevation: 39.2799987792969

# File produced by Open Asset Import Library (http://www.assimp.sf.net)
# (assimp v3.1.0)

mtllib BLDG_00030000001f1f97.obj.mtl

# 32 vertex positions
v  29.1712 1.47832e-15 -24.1428
v  27.8794 1.41419e-15 -23.0955
v  27.4644 1.57307e-15 -25.6902
v  43.8401 5.57998e-16 -9.1128
v  40.788 5.83781e-16 -9.53386
v  42.1563 6.68212e-16 -10.9127
v  43.3077 4.21778e-16 -6.88816
v  30.8979 -2.37629e-16 3.88078
v  42.4784 4.75095e-16 -7.7589
v  26.0913 1.56175e-15 -25.5053
v  26.8572 1.60672e-15 -26.2397
v  10.1838 6.09529e-16 -9.95436
v  0 0 0
v  16.5672 -1.08613e-15 17.7379
v  34.0178 1.01928e-15 -16.6462
v  19.0157 -9.41122e-16 15.3697
v  27.8795 2.77739 -23.0956
v  29.1713 2.77739 -24.1429
v  27.4644 2.77739 -25.6902
v  26.8573 2.77739 -26.2398
v  26.0914 2.77739 -25.5054
v  10.1838 2.77739 -9.95445
v  5.9276e-05 2.77739 -8.79997e-05
v  16.5673 2.77739 17.7378
v  19.0157 2.77739 15.3696
v  30.8979 2.77739 3.88069
v  43.3077 2.77739 -6.88825
v  42.4784 2.77739 -7.75899
v  43.8401 2.77739 -9.11289
v  42.1564 2.77739 -10.9128
v  40.7881 2.77739 -9.53395
v  34.0179 2.77739 -16.6463

# 0 UV coordinates

# 35 vertex normals
vn -1.22335e-23 -1 -6.12324e-17
vn 1.17563e-23 -1 -6.12324e-17
vn 1.87762e-23 -1 -6.12323e-17
vn 1.51265e-22 -1 -6.12324e-17
vn 1.93358e-22 -1 -6.12321e-17
vn 7.19827e-23 -1 -6.12323e-17
vn 0 -1 -6.12323e-17
vn 0 -1 -6.12323e-17
vn 1.98929e-21 -1 -6.12308e-17
vn 0.629774 1.11495e-05 0.776778
vn 0.671635 -3.81924e-05 -0.740882
vn 0.671635 -3.7708e-05 -0.740882
vn 0.671042 -3.7697e-05 -0.74142
vn 0.671043 -3.82079e-05 -0.741418
vn -0.692092 -8.06807e-06 -0.721809
vn -0.699048 -7.70729e-06 -0.715075
vn -0.699006 -7.73956e-06 -0.715116
vn -0.699006 -7.70948e-06 -0.715116
vn -0.730812 3.7121e-05 0.682579
vn -0.730812 3.72243e-05 0.682579
vn 0.695232 7.913e-06 0.718786
vn 0.69511 8.30994e-06 0.718903
vn 0.69511 7.97754e-06 0.718903
vn 0.655409 9.36226e-06 0.755274
vn 0.655409 9.69662e-06 0.755274
vn 0.724124 -3.78179e-05 -0.68967
vn 0.705067 7.89027e-06 0.709141
vn 0.705066 7.01853e-06 0.709141
vn 0.730285 -3.76499e-05 -0.683143
vn 0.730284 -3.66398e-05 -0.683144
vn -0.709823 -6.65259e-06 -0.704381
vn 0.724311 -3.76261e-05 -0.689474
vn 0.724353 -3.71772e-05 -0.689429
vn 0.724354 -3.764e-05 -0.689429
vn 0 1 0

# Mesh 'defaultobject' with 60 faces
g defaultobject
usemtl DefaultMaterial
f  1//1 2//1 3//1
f  4//2 5//2 6//2
f  7//3 8//3 9//3
f  3//1 10//4 11//4
f  10//4 3//1 12//5
f  12//5 3//1 13//6
f  13//6 3//1 14//7
f  14//7 3//1 2//1
f  14//7 2//1 15//8
f  14//7 15//8 5//2
f  14//7 5//2 4//2
f  14//7 4//2 9//3
f  14//7 9//3 16//9
f  16//9 9//3 8//3
f  17//10 1//10 18//10
f  1//10 17//10 2//10
f  18//11 3//11 19//11
f  3//11 18//11 1//12
f  19//13 11//13 20//13
f  11//13 19//13 3//14
f  21//15 11//15 10//15
f  11//15 21//15 20//15
f  22//16 10//16 12//16
f  10//16 22//16 21//16
f  23//17 12//17 13//17
f  12//17 23//17 22//18
f  24//19 13//19 14//19
f  13//19 24//19 23//20
f  24//21 16//21 25//21
f  16//21 24//21 14//21
f  25//22 8//22 26//22
f  8//22 25//22 16//23
f  26//24 7//24 27//24
f  7//24 26//24 8//25
f  27//26 9//26 28//26
f  9//26 27//26 7//26
f  28//27 4//27 29//27
f  4//27 28//27 9//28
f  29//29 6//29 30//29
f  6//29 29//29 4//30
f  31//31 6//31 5//31
f  6//31 31//31 30//31
f  31//32 15//32 32//32
f  15//32 31//32 5//32
f  32//33 2//33 17//33
f  2//33 32//33 15//34
f  30//35 28//35 29//35
f  28//35 30//35 31//35
f  19//35 17//35 18//35
f  17//35 19//35 20//35
f  17//35 20//35 21//35
f  17//35 21//35 22//35
f  17//35 22//35 26//35
f  26//35 22//35 25//35
f  25//35 22//35 23//35
f  25//35 23//35 24//35
f  28//35 26//35 27//35
f  26//35 28//35 31//35
f  26//35 31//35 32//35
f  26//35 32//35 17//35

