# {"id":"BLDG_00030000001d6086","idOriginal":"BLDG_00030000001d6086","origin":[13.362295014415396,52.543233566668775],"elevation":35.6100006103516}
# Longitude: 13.362295014415396
# Latitude: 52.543233566668775
# Elevation: 35.6100006103516

# File produced by Open Asset Import Library (http://www.assimp.sf.net)
# (assimp v3.1.0)

mtllib BLDG_00030000001d6086.obj.mtl

# 14 vertex positions
v  9.4086 21.7918 9.99158
v  9.45286 21.7918 -9.52405
v  0.000464448 21.7918 -0.00069017
v  15.6904 21.7918 -3.31483
v  18.5955 21.7918 0.757145
v  17.5449 21.7918 -4.9394
v  20.8386 21.7918 -1.49799
v  0 0 0
v  18.595 -4.6404e-17 0.757835
v  9.40813 -6.1185e-16 9.99227
v  20.8381 9.1683e-17 -1.4973
v  15.69 2.02932e-16 -3.31414
v  9.4524 5.83138e-16 -9.52336
v  17.5445 3.02409e-16 -4.93871

# 0 UV coordinates

# 18 vertex normals
vn 0 1 0
vn 0 -1 -6.12323e-17
vn 1.51657e-25 -1 -6.12323e-17
vn 0 -1 -6.12323e-17
vn 2.25603e-24 -1 -6.12323e-17
vn -0.728068 3.72069e-05 0.685505
vn -0.728068 3.7228e-05 0.685505
vn 0.708929 7.20318e-06 0.70528
vn 0.708929 7.20318e-06 0.70528
vn 0.709 7.19587e-06 0.705208
vn 0.709001 7.25779e-06 0.705208
vn 0.722448 -3.72719e-05 -0.691425
vn -0.658937 -9.78111e-06 -0.752199
vn -0.658937 -9.81816e-06 -0.752198
vn 0.705495 -3.74917e-05 -0.708715
vn 0.705495 -3.74917e-05 -0.708715
vn -0.709746 -7.18413e-06 -0.704457
vn -0.709746 -7.1938e-06 -0.704457

# Mesh 'defaultobject' with 24 faces
g defaultobject
usemtl DefaultMaterial
f  1//1 2//1 3//1
f  2//1 1//1 4//1
f  4//1 1//1 5//1
f  4//1 5//1 6//1
f  6//1 5//1 7//1
f  8//2 9//2 10//2
f  9//2 8//2 11//3
f  11//3 8//2 12//4
f  12//4 8//2 13//2
f  14//5 11//3 12//4
f  1//6 8//6 10//6
f  8//6 1//6 3//7
f  9//8 1//8 10//8
f  1//8 9//8 5//9
f  11//10 5//10 9//10
f  5//10 11//10 7//11
f  14//12 7//12 11//12
f  7//12 14//12 6//12
f  4//13 14//13 12//13
f  14//13 4//13 6//14
f  13//15 4//15 12//15
f  4//15 13//15 2//16
f  3//17 13//17 8//17
f  13//17 3//17 2//18

