# {"id":"BLDG_000300090014d47c","idOriginal":"BLDG_000300090014d47c","origin":[13.362897995089305,52.55193762409979],"elevation":37.0400009155273}
# Longitude: 13.362897995089305
# Latitude: 52.55193762409979
# Elevation: 37.0400009155273

# File produced by Open Asset Import Library (http://www.assimp.sf.net)
# (assimp v3.1.0)

mtllib BLDG_000300090014d47c.obj.mtl

# 21 vertex positions
v  13.1775 19.039 -0.387828
v  13.3802 -3.49825e-16 5.71308
v  13.1771 2.37107e-17 -0.387224
v  13.5833 -7.23362e-16 11.8134
v  13.5837 19.039 11.8128
v  13.3807 22.4683 5.71237
v  0.475282 22.4683 17.777
v  0.325914 -7.47217e-16 12.203
v  0.474803 -1.08857e-15 17.7777
v  0.162957 -3.73608e-16 6.10149
v  0 0 0
v  0.000405804 19.039 -0.00060334
v  0.326393 22.4683 12.2023
v  0.163436 22.4683 6.10078
v  5.72963 19.039 -0.168963
v  5.72922 1.03091e-17 -0.16836
v  6.05554 19.039 12.034
v  6.05514 -7.36908e-16 12.0346
v  6.20481 19.039 17.623
v  6.20441 -1.07914e-15 17.6236
v  5.89266 22.4683 5.93242

# 0 UV coordinates

# 36 vertex normals
vn 0.999446 -2.23812e-05 -0.0332723
vn 0.999446 -2.23312e-05 -0.0332722
vn 0.999446 -2.23317e-05 -0.0332722
vn 0.999446 -2.24504e-05 -0.0332722
vn -0.999644 2.21533e-05 0.0266983
vn -0.999644 2.21544e-05 0.0266983
vn -0.999644 2.21609e-05 0.0266983
vn -0.999644 2.21528e-05 0.0266983
vn -0.999644 2.2066e-05 0.0266983
vn -0.999644 2.21372e-05 0.0266983
vn -0.0293735 -3.10497e-05 -0.999568
vn -0.0293735 -3.10483e-05 -0.999568
vn -0.0293735 -3.10499e-05 -0.999568
vn -0.0293735 -3.105e-05 -0.999568
vn 0.0293735 3.10174e-05 0.999568
vn 0.0293736 3.10681e-05 0.999568
vn 0.999644 -2.21509e-05 -0.0266983
vn 0.0268791 3.1079e-05 0.999639
vn 0.0268791 3.1073e-05 0.999639
vn 4.33648e-24 -1 -6.12323e-17
vn 3.10543e-24 -1 -6.12323e-17
vn 3.02648e-24 -1 -6.12323e-17
vn 5.23163e-24 -1 -6.12323e-17
vn 0 -1 -6.12323e-17
vn 1.45506e-25 -1 -6.12323e-17
vn 4.60656e-24 -1 -6.12323e-17
vn -0.0143882 0.871813 -0.489627
vn -0.0143883 0.871813 -0.489628
vn -0.0143883 0.871813 -0.489628
vn -0.0143883 0.871813 -0.489628
vn 0.0143879 0.87182 0.489615
vn 0.0143878 0.87182 0.489614
vn 0.0143879 0.87182 0.489614
vn 0.513254 0.858127 -0.0137079
vn 0.513254 0.858127 -0.0137079
vn 0.513254 0.858127 -0.0137079

# Mesh 'defaultobject' with 38 faces
g defaultobject
usemtl DefaultMaterial
f  1//1 2//1 3//1
f  2//1 1//1 4//2
f  4//2 1//1 5//3
f  5//3 1//1 6//4
f  7//5 8//5 9//5
f  8//5 7//5 10//6
f  10//6 7//5 11//7
f  11//7 7//5 12//8
f  12//8 7//5 13//9
f  12//8 13//9 14//10
f  3//11 15//11 1//11
f  15//11 3//11 12//12
f  12//12 3//11 16//13
f  12//12 16//13 11//14
f  4//15 17//15 18//15
f  17//15 4//15 5//16
f  18//17 19//17 20//17
f  19//17 18//17 17//17
f  20//18 7//18 9//18
f  7//18 20//18 19//19
f  9//20 18//20 20//20
f  18//20 9//20 8//21
f  18//20 8//21 2//22
f  2//22 8//21 3//23
f  3//23 8//21 10//24
f  3//23 10//24 16//25
f  16//25 10//24 11//24
f  2//22 4//26 18//20
f  1//27 21//27 6//27
f  21//27 1//27 15//28
f  21//27 15//28 14//29
f  14//29 15//28 12//30
f  6//31 17//31 5//31
f  17//31 6//31 21//32
f  17//31 21//32 14//33
f  13//34 17//34 14//34
f  17//34 13//34 19//35
f  19//35 13//34 7//36

