# {"id":"BLDG_0003000e0049298c","idOriginal":"BLDG_0003000e0049298c","origin":[13.333288488862445,52.54399574840722],"elevation":35.7700004577637}
# Longitude: 13.333288488862445
# Latitude: 52.54399574840722
# Elevation: 35.7700004577637

# File produced by Open Asset Import Library (http://www.assimp.sf.net)
# (assimp v3.1.0)

mtllib BLDG_0003000e0049298c.obj.mtl

# 8 vertex positions
v  3.16437 3.23082 9.64582
v  0 0 0
v  3.1643 -5.90643e-16 9.64593
v  6.8732e-05 3.23082 -0.00010233
v  4.08458 1.69864e-16 -2.77409
v  4.08465 3.23082 -2.7742
v  7.24894 3.23082 6.87173
v  7.24887 -4.20778e-16 6.87183

# 0 UV coordinates

# 10 vertex normals
vn -0.95018 3.01092e-05 0.311702
vn -0.95018 3.00866e-05 0.311702
vn -0.561837 -1.42491e-05 -0.827248
vn -0.561837 -1.43095e-05 -0.827248
vn 0.95018 -3.00656e-05 -0.311702
vn 0.561836 1.41088e-05 0.827248
vn 0.561837 1.42881e-05 0.827248
vn 0 1 0
vn 8.79074e-24 -1 -6.12323e-17
vn 8.79074e-24 -1 -6.12323e-17

# Mesh 'defaultobject' with 12 faces
g defaultobject
usemtl DefaultMaterial
f  1//1 2//1 3//1
f  2//1 1//1 4//2
f  4//3 5//3 2//3
f  5//3 4//3 6//4
f  5//5 7//5 8//5
f  7//5 5//5 6//5
f  8//6 1//6 3//6
f  1//6 8//6 7//7
f  7//8 4//8 1//8
f  4//8 7//8 6//8
f  2//9 8//9 3//9
f  8//9 2//9 5//10

