# {"id":"BLDG_0003000f000e8562","idOriginal":"BLDG_0003000f000e8562","origin":[13.339231094979473,52.50841176970232],"elevation":33.1100006103516}
# Longitude: 13.339231094979473
# Latitude: 52.50841176970232
# Elevation: 33.1100006103516

# File produced by Open Asset Import Library (http://www.assimp.sf.net)
# (assimp v3.1.0)

mtllib BLDG_0003000f000e8562.obj.mtl

# 11 vertex positions
v  11.0056 1.1788e-16 -1.92513
v  0.805138 -2.81781e-16 4.60184
v  0 0 0
v  11.4082 -2.30105e-17 0.37579
v  11.8108 -1.63901e-16 2.67671
v  11.0057 5.16128 -1.92529
v  2.70365 6.37129 1.89823
v  11.4083 6.37129 0.375588
v  0.000109831 5.16128 -0.000163089
v  0.805247 5.16128 4.60167
v  11.8109 5.16128 2.67655

# 0 UV coordinates

# 18 vertex normals
vn 0 -1 -6.12323e-17
vn 0 -1 -6.12323e-17
vn 2.02849e-24 -1 -6.12323e-17
vn -0.0792558 0.887934 -0.453091
vn -0.0792557 0.887934 -0.453091
vn 0.079254 0.887939 0.453081
vn 0.079254 0.887939 0.453081
vn -0.453077 0.88794 0.0792703
vn 0.985037 -2.65586e-05 -0.172342
vn 0.985037 -2.65589e-05 -0.172342
vn 0.985037 -2.63845e-05 -0.172342
vn 0.985037 -2.60228e-05 -0.172342
vn -0.985037 2.64107e-05 0.172342
vn -0.985037 2.64072e-05 0.172342
vn -0.172306 -2.74594e-05 -0.985043
vn -0.172306 -2.74307e-05 -0.985043
vn 0.172306 2.74531e-05 0.985043
vn 0.172306 2.74862e-05 0.985043

# Mesh 'defaultobject' with 18 faces
g defaultobject
usemtl DefaultMaterial
f  1//1 2//1 3//1
f  2//1 1//1 4//2
f  2//1 4//2 5//3
f  6//4 7//4 8//4
f  7//4 6//4 9//5
f  8//6 10//6 11//6
f  10//6 8//6 7//7
f  9//8 10//8 7//8
f  6//9 4//9 1//9
f  4//9 6//9 5//10
f  5//10 6//9 11//11
f  11//11 6//9 8//12
f  10//13 3//13 2//13
f  3//13 10//13 9//14
f  9//15 1//15 3//15
f  1//15 9//15 6//16
f  5//17 10//17 2//17
f  10//17 5//17 11//18

