# {"id":"BLDG_0003000e002865c5","idOriginal":"BLDG_0003000e002865c5","origin":[13.416010380675205,52.52107987521843],"elevation":32.9700012207031}
# Longitude: 13.416010380675205
# Latitude: 52.52107987521843
# Elevation: 32.9700012207031

# File produced by Open Asset Import Library (http://www.assimp.sf.net)
# (assimp v3.1.0)

mtllib BLDG_0003000e002865c5.obj.mtl

# 66 vertex positions
v  23.3629 -7.4319e-16 12.1372
v  20.1544 4.95204 16.1673
v  20.1543 -9.89969e-16 16.1674
v  23.363 4.95204 12.1371
v  11.8529 4.95204 9.50793
v  0 0 0
v  11.8528 -5.82202e-16 9.50809
v  0.0001059 4.95204 -0.00015659
v  3.17218 2.48565e-16 -4.05938
v  3.17229 4.95204 -4.05954
v  15.0614 4.95204 5.47772
v  15.0613 -3.35423e-16 5.47788
v  59.058 4.12891 -9.65758
v  49.9143 1.04269e-15 -17.0284
v  59.0579 5.91348e-16 -9.65745
v  49.9144 4.12891 -17.0285
v  52.9187 1.27677e-15 -20.8512
v  62.0623 3.83021 -13.4804
v  62.0623 8.25426e-16 -13.4802
v  52.9188 3.83021 -20.8513
v  41.0273 9.32574 22.4268
v  36.6028 -1.1582e-15 18.9148
v  41.0271 -1.37326e-15 22.4271
v  36.603 9.32574 18.9145
v  36.603 9.02584 18.9145
v  37.2151 9.30206 18.1356
v  44.3519 -5.54442e-16 9.05472
v  48.7492 9.02584 12.5452
v  48.749 -7.6819e-16 12.5455
v  44.3521 9.02584 9.05444
v  42.6491 9.50608 11.2214
v  37.4022 9.38649 17.8976
v  27.4049 -7.11082e-16 11.6129
v  27.4051 9.02584 11.6126
v  35.1542 9.02584 1.75253
v  31.2797 9.32574 6.68254
v  33.4853 9.49647 3.87608
v  28.2043 9.38649 10.5956
v  33.4512 9.50608 3.91946
v  35.154 -1.07329e-16 1.75281
v  50.913 1.37577e-15 -22.468
v  50.9131 3.83021 -22.4682
v  39.5993 3.83021 -25.3439
v  42.6274 1.78476e-15 -29.1474
v  39.5992 1.55186e-15 -25.3438
v  42.6275 3.83021 -29.1475
v  35.1541 4.12891 1.75268
v  24.6597 3.83021 -6.57849
v  24.6596 4.02809e-16 -6.57837
v  25.184 -6.03121e-16 9.84971
v  25.1842 9.02584 9.84943
v  32.995 9.02584 0.0383998
v  32.9949 3.83021 0.0385641
v  16.8489 4.95204 3.2325
v  25.1841 4.95204 9.84956
v  16.849 9.02584 3.23237
v  16.8488 -1.97943e-16 3.23265
v  24.6598 9.02584 -6.57866
v  20.7544 9.32574 -1.67315
v  24.2735 4.95204 10.9933
v  47.8849 3.83021 -18.6646
v  29.0896 9.32574 4.9439
v  20.1144 4.95204 7.67421
v  21.0165 4.95204 6.54103
v  47.8848 1.14287e-15 -18.6644
v  32.9948 -2.36879e-18 0.0386852

# 0 UV coordinates

# 88 vertex normals
vn 0.782345 2.80381e-06 0.622845
vn 0.782345 3.21503e-06 0.622845
vn -0.625732 3.80123e-05 0.780038
vn -0.625732 3.80472e-05 0.780038
vn -0.78795 -2.62005e-06 -0.615739
vn -0.78795 -2.60349e-06 -0.615739
vn 0.625732 -3.80066e-05 -0.780038
vn -0.627603 3.79719e-05 0.778534
vn -0.627603 3.87316e-05 0.778534
vn 0.627603 -3.83298e-05 -0.778534
vn 0.627603 -3.81602e-05 -0.778534
vn 0.786244 2.80282e-06 0.617916
vn 0.786244 2.30445e-06 0.617916
vn -0.621763 3.78938e-05 0.783205
vn -0.621764 3.83083e-05 0.783205
vn 0.786244 -3.52292e-07 0.617916
vn 0.621763 -3.81479e-05 -0.783205
vn 0.621764 -3.82231e-05 -0.783205
vn 0.78795 2.67462e-06 0.615739
vn 0.78795 2.42648e-06 0.61574
vn 0.786245 6.57632e-06 0.617915
vn 0.786244 2.41662e-05 0.617916
vn -0.621763 3.82281e-05 0.783205
vn -0.621763 3.80967e-05 0.783205
vn -0.786245 -2.67263e-06 -0.617915
vn -0.786245 6.48758e-07 -0.617915
vn -0.786245 0.000102692 -0.617914
vn 0.621763 -3.82196e-05 -0.783205
vn 0.621763 -3.81476e-05 -0.783205
vn 0.627603 -3.8176e-05 -0.778533
vn 0.627602 -3.75478e-05 -0.778534
vn -0.782345 -2.39828e-06 -0.622845
vn 0.627603 -3.75261e-05 -0.778534
vn 0.627603 -3.81812e-05 -0.778534
vn 0.786245 2.47536e-06 0.617915
vn -0.782345 -2.94294e-06 -0.622845
vn 0.621763 -3.80058e-05 -0.783205
vn -0.621763 3.83263e-05 0.783205
vn -0.621763 3.81888e-05 0.783205
vn -0.782345 -2.99576e-06 -0.622845
vn -0.782345 -3.01221e-06 -0.622845
vn -0.782345 -3.04288e-06 -0.622845
vn 0.621763 -3.80132e-05 -0.783205
vn 0.782345 3.09838e-06 0.622845
vn -0.782345 -2.94773e-06 -0.622845
vn -0.782345 -3.09838e-06 -0.622845
vn -0.625732 3.81329e-05 0.780038
vn 0.0384865 0.998118 -0.0477421
vn 0.0384865 0.998118 -0.0477421
vn 0.0148651 0.999714 -0.0187248
vn 0.0148651 0.999714 -0.0187248
vn -0.167003 0.963253 0.210366
vn -0.167003 0.963253 0.210366
vn -0.00875617 0.999901 0.0110297
vn -0.00875617 0.999901 0.0110297
vn 0.106735 0.985155 -0.134449
vn 0.106735 0.985155 -0.134448
vn -0.0890631 0.993499 -0.0709054
vn 0.0384865 0.998118 -0.0477421
vn 0 1 0
vn -0.0890631 0.993499 -0.0709054
vn -0.0846915 0.994182 -0.0665596
vn -0.0297046 0.998858 0.0374174
vn -0.0297046 0.998858 0.0374174
vn 0.0297047 0.998858 -0.0374175
vn 0.0297047 0.998858 -0.0374175
vn -0.0297046 0.998858 0.0374174
vn -0.0297046 0.998858 0.0374174
vn 0.0297047 0.998858 -0.0374175
vn 0.0297047 0.998858 -0.0374175
vn -1.85431e-24 -1 -6.12323e-17
vn -3.70862e-24 -1 -6.12323e-17
vn -1.4946e-24 -1 -6.12323e-17
vn -4.51149e-24 -1 -6.12323e-17
vn 1.43785e-24 -1 -6.12323e-17
vn 2.8757e-24 -1 -6.12323e-17
vn -4.28164e-23 -1 -6.12324e-17
vn -3.27574e-23 -1 -6.12323e-17
vn -8.18529e-24 -1 -6.12323e-17
vn -1.43243e-23 -1 -6.12323e-17
vn 3.21559e-24 -1 -6.12323e-17
vn 0 -1 -6.12323e-17
vn -2.97737e-24 -1 -6.12323e-17
vn 0 -1 -6.12323e-17
vn 6.80515e-24 -1 -6.12323e-17
vn -2.70527e-24 -1 -6.12323e-17
vn -2.69699e-24 -1 -6.12323e-17
vn -1.93127e-24 -1 -6.12323e-17

# Mesh 'defaultobject' with 118 faces
g defaultobject
usemtl DefaultMaterial
f  1//1 2//1 3//1
f  2//1 1//1 4//2
f  5//3 6//3 7//3
f  6//3 5//3 8//4
f  8//5 9//5 6//5
f  9//5 8//5 10//6
f  9//7 11//7 12//7
f  11//7 9//7 10//7
f  13//8 14//8 15//8
f  14//8 13//8 16//9
f  17//10 18//10 19//10
f  18//10 17//10 20//11
f  19//12 13//12 15//12
f  13//12 19//12 18//13
f  21//14 22//14 23//14
f  22//14 21//14 24//15
f  25//16 26//16 24//16
f  27//17 28//17 29//17
f  28//17 27//17 30//18
f  29//19 21//19 23//19
f  21//19 29//19 28//20
f  31//21 26//16 30//21
f  26//22 31//22 32//22
f  25//23 33//23 22//14
f  33//23 25//23 34//24
f  35//25 36//25 37//25
f  38//26 37//25 34//26
f  37//27 38//27 39//27
f  40//28 30//18 27//17
f  30//18 40//28 35//29
f  41//30 20//11 17//10
f  20//11 41//30 42//31
f  43//32 44//32 45//32
f  44//32 43//32 46//32
f  44//33 42//31 41//30
f  42//31 44//33 46//34
f  14//35 47//35 40//35
f  47//35 14//35 16//35
f  48//36 45//32 49//36
f  45//32 48//36 43//32
f  34//24 50//24 33//23
f  50//24 34//24 51//24
f  52//37 47//37 53//37
f  47//37 52//37 35//29
f  51//24 54//38 55//38
f  54//38 51//24 56//39
f  56//40 49//36 57//40
f  49//36 56//40 58//41
f  58//41 56//40 59//42
f  48//43 52//37 53//37
f  52//37 48//43 58//43
f  55//44 1//1 50//44
f  1//1 55//44 4//2
f  4//2 55//38 60//5
f  11//45 57//40 12//45
f  57//40 11//45 54//46
f  2//47 7//3 3//47
f  7//3 2//47 5//3
f  18//48 16//48 13//48
f  16//48 18//48 20//49
f  28//50 24//50 21//50
f  24//50 28//50 30//51
f  34//52 32//52 38//52
f  32//52 34//52 25//53
f  38//54 31//54 39//54
f  31//54 38//54 32//55
f  39//56 30//56 35//56
f  30//56 39//56 31//57
f  16//58 42//58 61//58
f  42//59 16//48 20//49
f  42//60 43//60 61//60
f  43//60 42//60 46//60
f  53//61 16//58 61//58
f  16//62 53//62 47//62
f  61//60 48//60 53//60
f  48//60 61//60 43//60
f  62//63 34//63 36//63
f  34//63 62//63 51//64
f  52//65 36//65 35//65
f  36//65 52//65 62//66
f  59//67 51//64 62//63
f  51//64 59//67 56//68
f  58//69 62//66 52//65
f  62//66 58//69 59//70
f  60//5 55//60 63//60
f  63//60 4//60 60//5
f  4//60 63//60 11//60
f  54//60 63//60 64//60
f  63//60 54//60 11//60
f  63//60 55//60 64//60
f  4//60 5//60 2//60
f  5//60 4//60 11//60
f  5//60 11//60 8//60
f  8//60 11//60 10//60
f  14//71 19//71 15//71
f  19//71 14//71 17//72
f  22//73 29//73 23//73
f  29//73 22//73 27//74
f  33//75 27//74 22//73
f  27//74 33//75 40//76
f  65//77 17//72 14//71
f  17//72 65//77 41//78
f  45//79 41//78 65//77
f  41//78 45//79 44//80
f  66//81 14//71 40//76
f  14//71 66//81 65//77
f  45//79 66//81 49//82
f  66//81 45//79 65//77
f  50//83 40//76 33//75
f  40//76 50//83 66//81
f  50//83 49//82 66//81
f  49//82 50//83 57//84
f  12//85 50//83 1//85
f  50//83 12//85 57//84
f  6//86 12//85 7//86
f  12//85 6//86 9//87
f  7//86 1//85 3//88
f  1//85 7//86 12//85

