# {"id":"BLDG_0003000b00242164","idOriginal":"BLDG_0003000b00242164","origin":[13.398835089237082,52.53132691479069],"elevation":36.2099990844727}
# Longitude: 13.398835089237082
# Latitude: 52.53132691479069
# Elevation: 36.2099990844727

# File produced by Open Asset Import Library (http://www.assimp.sf.net)
# (assimp v3.1.0)

mtllib BLDG_0003000b00242164.obj.mtl

# 10 vertex positions
v  0.000450001 21.0654 -0.00066661
v  6.71017 22.0596 20.1487
v  6.37838 22.0596 -0.19281
v  0.332239 21.0654 20.3408
v  13.0881 21.0654 19.9566
v  12.7563 21.0654 -0.384891
v  0 0 0
v  13.0876 -1.22203e-15 19.9572
v  0.331789 -1.24556e-15 20.3415
v  12.7558 2.3527e-17 -0.384225

# 0 UV coordinates

# 15 vertex normals
vn -0.15394 0.988077 0.00251091
vn 0.153941 0.988077 -0.00251093
vn 0.153941 0.988077 -0.00251093
vn -1.30514e-23 -1 -6.12323e-17
vn 0 -1 -6.12323e-17
vn 0.0301079 3.09422e-05 0.999547
vn 0.0301078 3.10329e-05 0.999547
vn 0.0301078 3.19657e-05 0.999547
vn -0.999867 2.18767e-05 0.0163088
vn -0.999867 2.18753e-05 0.0163088
vn -0.0301079 -3.09872e-05 -0.999547
vn -0.0301079 -3.09875e-05 -0.999547
vn -0.0301079 -3.09885e-05 -0.999547
vn 0.999867 -2.18803e-05 -0.0163088
vn 0.999867 -2.18814e-05 -0.0163088

# Mesh 'defaultobject' with 16 faces
g defaultobject
usemtl DefaultMaterial
f  1//1 2//1 3//1
f  2//1 1//1 4//1
f  3//2 5//2 6//2
f  5//2 3//2 2//3
f  7//4 8//4 9//4
f  8//4 7//4 10//5
f  5//6 9//6 8//6
f  9//6 5//6 4//7
f  4//7 5//6 2//8
f  4//9 7//9 9//9
f  7//9 4//9 1//10
f  1//11 10//11 7//11
f  10//11 1//11 6//12
f  6//12 1//11 3//13
f  10//14 5//14 8//14
f  5//14 10//14 6//15

