# {"id":"BLDG_000300080025433d","idOriginal":"BLDG_000300080025433d","origin":[13.346205630247963,52.54830442429301],"elevation":33.5699996948242}
# Longitude: 13.346205630247963
# Latitude: 52.54830442429301
# Elevation: 33.5699996948242

# File produced by Open Asset Import Library (http://www.assimp.sf.net)
# (assimp v3.1.0)

mtllib BLDG_000300080025433d.obj.mtl

# 26 vertex positions
v  15.2666 21.26 -0.220237
v  16.6662 19.59 1.48941
v  19.604 21.26 -3.76654
v  7.4849 19.59 8.99611
v  6.07186 21.26 7.29747
v  15.8577 22.09 -8.34262
v  11.5203 22.09 -4.79631
v  2.28952 22.09 2.75086
v  13.5904 19.59 -11.1119
v  9.25299 19.59 -7.56562
v  0.000417099 19.59 -0.00062066
v  21.0036 21.68 -2.05696
v  24.6842 19.59 11.2832
v  29.0049 21.68 7.71648
v  6.07141 -4.46883e-16 7.29814
v  16.6657 -9.12379e-17 1.49003
v  7.48448 -5.50891e-16 8.99673
v  2.28905 -1.68484e-16 2.75156
v  0 0 0
v  9.25257 4.63223e-16 -7.565
v  21.0031 1.2591e-16 -2.05627
v  19.6035 2.30593e-16 -3.76587
v  15.8572 5.10795e-16 -8.34192
v  13.59 6.80371e-16 -11.1113
v  29.0045 -4.7254e-16 7.71716
v  24.6838 -6.90937e-16 11.2839

# 0 UV coordinates

# 43 vertex normals
vn 0.381669 0.797757 0.46681
vn 0.381669 0.797757 0.46681
vn 0.381669 0.797757 0.46681
vn 0.0879725 0.990295 0.107597
vn 0.0879725 0.990295 0.107597
vn 0.0879725 0.990295 0.107597
vn 0.0879725 0.990295 0.107597
vn -0.362466 0.819806 -0.443324
vn -0.362466 0.819806 -0.443324
vn -0.362466 0.819806 -0.443324
vn -0.362466 0.819806 -0.443324
vn -0.377252 0.922453 0.0822299
vn -0.270439 0.936933 0.221403
vn -0.270439 0.936933 0.221403
vn 1.21223e-23 -1 -6.12323e-17
vn -7.54808e-25 -1 -6.12323e-17
vn -3.11806e-25 -1 -6.12323e-17
vn 3.7851e-25 -1 -6.12323e-17
vn -3.22976e-24 -1 -6.12323e-17
vn 4.27669e-24 -1 -6.12323e-17
vn -6.39101e-24 -1 -6.12323e-17
vn -9.24028e-24 -1 -6.12323e-17
vn 5.97225e-24 -1 -6.12323e-17
vn 0.773768 -3.64699e-05 -0.633469
vn 0.773768 -3.65534e-05 -0.633469
vn 0.773768 -3.67927e-05 -0.633469
vn 0.773768 -3.65358e-05 -0.633469
vn 0.773768 -3.65764e-05 -0.633469
vn 0.773768 -3.45156e-05 -0.633469
vn -0.768759 3.68445e-05 0.639539
vn -0.768759 3.65974e-05 0.639539
vn -0.768759 3.66727e-05 0.639539
vn -0.768759 3.66413e-05 0.639539
vn -0.632973 -1.10315e-05 -0.774174
vn -0.632973 -1.10304e-05 -0.774174
vn -0.632973 -1.1122e-05 -0.774174
vn -0.632973 -1.10509e-05 -0.774174
vn 0.636606 1.087e-05 0.771189
vn 0.636606 1.08899e-05 0.771189
vn -0.773768 3.65745e-05 0.633469
vn -0.773768 3.64953e-05 0.633469
vn 0.632973 1.10668e-05 0.774174
vn 0.632973 1.10996e-05 0.774174

# Mesh 'defaultobject' with 48 faces
g defaultobject
usemtl DefaultMaterial
f  1//1 2//1 3//1
f  2//1 1//1 4//2
f  4//2 1//1 5//3
f  6//4 1//4 3//4
f  1//4 6//4 5//5
f  5//5 6//4 7//6
f  5//5 7//6 8//7
f  9//8 7//8 6//8
f  7//8 9//8 10//9
f  7//8 10//9 8//10
f  8//10 10//9 11//11
f  3//12 2//12 12//12
f  13//13 12//13 2//13
f  12//13 13//13 14//14
f  15//15 16//15 17//15
f  16//15 15//15 18//16
f  16//15 18//16 19//17
f  16//15 19//17 20//18
f  16//15 20//18 21//19
f  21//19 20//18 22//20
f  22//20 20//18 23//21
f  23//21 20//18 24//22
f  16//15 25//23 26//23
f  25//23 16//15 21//19
f  6//24 3//24 9//24
f  21//25 14//25 25//25
f  14//25 21//25 22//26
f  14//25 22//26 23//27
f  14//25 23//27 24//28
f  14//25 24//28 9//24
f  14//25 9//24 3//24
f  14//25 3//24 12//29
f  11//30 5//30 8//30
f  5//30 11//30 4//31
f  4//31 11//30 19//32
f  4//31 19//32 17//33
f  17//33 19//17 18//16
f  17//15 18//16 15//15
f  24//34 10//34 9//34
f  10//34 24//34 11//35
f  11//35 24//34 20//36
f  11//35 20//36 19//37
f  25//38 13//38 26//38
f  13//38 25//38 14//39
f  13//40 16//40 26//40
f  16//40 13//40 2//41
f  16//42 4//42 17//42
f  4//42 16//42 2//43

