# {"id":"BLDG_0003000b00373e2a","idOriginal":"BLDG_0003000b00373e2a","origin":[13.329185202892665,52.52700448357595],"elevation":33.5800018310547}
# Longitude: 13.329185202892665
# Latitude: 52.52700448357595
# Elevation: 33.5800018310547

# File produced by Open Asset Import Library (http://www.assimp.sf.net)
# (assimp v3.1.0)

mtllib BLDG_0003000b00373e2a.obj.mtl

# 30 vertex positions
v  20.52 20.0997 -8.04905
v  19.1677 18.6597 -0.93331
v  25.852 20.0997 -7.10487
v  7.63259 20.0997 -10.3311
v  2.13536 20.0997 -11.3046
v  6.28837 18.6597 -3.21396
v  21.8723 18.6597 -15.1647
v  27.2043 18.6597 -14.2205
v  8.97674 18.6597 -17.4482
v  3.47951 18.6597 -18.4217
v  24.4997 20.0997 0.0108282
v  23.6534 20.0997 4.46386
v  18.3328 18.6597 3.45965
v  0.791172 20.0997 -4.18744
v  5.48593 18.6597 1.0348
v  0.000427461 20.0997 -0.00063591
v  0.790745 2.56368e-16 -4.18681
v  0 0 0
v  2.13493 6.92166e-16 -11.3039
v  3.47911 1.12797e-15 -18.4211
v  19.1673 5.71126e-17 -0.932719
v  6.28797 1.96762e-16 -3.21336
v  23.653 -2.73372e-16 4.4645
v  18.3324 -2.11879e-16 3.46024
v  5.48553 -6.33995e-17 1.03539
v  8.97634 1.06836e-15 -17.4476
v  21.8719 9.28534e-16 -15.1641
v  27.2039 8.70719e-16 -14.2199
v  25.8516 4.35009e-16 -7.10423
v  24.4993 -7.01974e-19 0.0114641

# 0 UV coordinates

# 49 vertex normals
vn -0.0340008 0.980804 0.19201
vn -0.0340008 0.980804 0.19201
vn -0.0340008 0.980804 0.19201
vn -0.0340008 0.980804 0.19201
vn 0.0340012 0.980803 -0.192012
vn 0.0340013 0.980803 -0.192012
vn 0.0340012 0.980803 -0.192012
vn 0.0340012 0.980803 -0.192012
vn 0 -1 0
vn -0.252482 0.966411 -0.0479827
vn -0.252482 0.966411 -0.0479827
vn -0.252482 0.966411 -0.0479827
vn 0.245426 0.968307 0.0463525
vn 0.245426 0.968307 0.0463525
vn 0.245426 0.968307 0.0463525
vn -0.982628 1.50261e-05 -0.185585
vn -0.982628 1.50309e-05 -0.185585
vn -0.982628 1.49948e-05 -0.185585
vn -0.982628 1.50427e-05 -0.185585
vn -0.982628 1.49225e-05 -0.185585
vn -0.982628 1.48137e-05 -0.185585
vn -0.174366 3.48548e-05 0.984681
vn -0.185475 3.50287e-05 0.982649
vn -0.185475 3.5043e-05 0.982649
vn -0.982417 1.49808e-05 -0.186702
vn -0.982417 1.49802e-05 -0.186702
vn 0.982628 -1.50204e-05 0.185585
vn -0.185475 3.50305e-05 0.982649
vn -0.185475 3.50329e-05 0.982649
vn 0.174366 -3.48108e-05 -0.984681
vn 0.174366 -3.4889e-05 -0.984681
vn 0.174366 -3.49033e-05 -0.984681
vn 0.174366 -3.50077e-05 -0.984681
vn 0.174366 -3.48344e-05 -0.984681
vn 0.174366 -3.48588e-05 -0.984681
vn 0.982417 -1.49964e-05 0.186702
vn 0.982417 -1.51963e-05 0.186702
vn 0.982417 -1.49885e-05 0.186702
vn 0.982417 -1.49808e-05 0.186702
vn 0 1 5.55112e-17
vn -5.48312e-25 -1 -6.12323e-17
vn -5.56425e-25 -1 -6.12323e-17
vn -1.21435e-24 -1 -6.12323e-17
vn -3.64056e-24 -1 -6.12323e-17
vn -5.39955e-24 -1 -6.12324e-17
vn -5.02333e-24 -1 -6.12324e-17
vn 1.83304e-23 -1 -6.12323e-17
vn 4.85334e-24 -1 -6.12323e-17
vn 1.63991e-24 -1 -6.12323e-17

# Mesh 'defaultobject' with 112 faces
g defaultobject
usemtl DefaultMaterial
f  1//1 2//1 3//1
f  2//1 1//1 4//2
f  2//1 4//2 5//3
f  2//1 5//3 6//4
f  7//5 3//5 8//5
f  3//5 7//5 9//6
f  3//5 9//6 10//7
f  3//5 10//7 5//8
f  3//9 5//9 1//9
f  1//9 5//9 4//9
f  2//10 11//10 3//10
f  11//10 2//10 12//11
f  12//11 2//10 13//12
f  14//13 6//13 5//13
f  6//13 14//13 15//14
f  15//14 14//13 16//15
f  1//1 2//1 3//1
f  2//1 1//1 4//2
f  2//1 4//2 5//3
f  2//1 5//3 6//4
f  7//5 3//5 8//5
f  3//5 7//5 9//6
f  3//5 9//6 10//7
f  3//5 10//7 5//8
f  3//9 5//9 1//9
f  1//9 5//9 4//9
f  2//10 11//10 3//10
f  11//10 2//10 12//11
f  12//11 2//10 13//12
f  14//13 6//13 5//13
f  6//13 14//13 15//14
f  15//14 14//13 16//15
f  16//16 17//16 18//16
f  17//16 16//16 19//17
f  19//17 16//16 20//18
f  20//18 16//16 10//19
f  10//19 16//16 14//20
f  10//19 14//20 5//21
f  21//22 6//22 22//22
f  6//22 21//22 2//22
f  23//23 13//23 24//23
f  13//23 23//23 12//24
f  13//25 21//25 24//25
f  21//25 13//25 2//26
f  22//27 15//27 25//27
f  15//27 22//27 6//27
f  25//28 16//28 18//28
f  16//28 25//28 15//29
f  10//30 26//30 20//30
f  26//30 10//30 27//31
f  27//31 10//30 28//32
f  28//32 10//30 9//33
f  28//32 9//33 7//34
f  28//32 7//34 8//35
f  11//36 8//36 3//36
f  8//36 11//36 12//37
f  8//36 12//37 23//38
f  8//36 23//38 28//39
f  28//39 23//23 29//20
f  29//20 23//40 30//40
f  16//16 17//16 18//16
f  17//16 16//16 19//17
f  19//17 16//16 20//18
f  20//18 16//16 10//19
f  10//19 16//16 14//20
f  10//19 14//20 5//21
f  21//22 6//22 22//22
f  6//22 21//22 2//22
f  23//23 13//23 24//23
f  13//23 23//23 12//24
f  13//25 21//25 24//25
f  21//25 13//25 2//26
f  22//27 15//27 25//27
f  15//27 22//27 6//27
f  25//28 16//28 18//28
f  16//28 25//28 15//29
f  10//30 26//30 20//30
f  26//30 10//30 27//31
f  27//31 10//30 28//32
f  28//32 10//30 9//33
f  28//32 9//33 7//34
f  28//32 7//34 8//35
f  11//36 8//36 3//36
f  8//36 11//36 12//37
f  8//36 12//37 23//38
f  8//36 23//38 28//39
f  28//39 23//23 29//20
f  29//20 23//40 30//40
f  18//41 22//41 25//41
f  22//41 18//41 17//42
f  22//41 17//42 29//20
f  29//20 17//42 28//43
f  28//43 17//42 19//44
f  28//43 19//44 27//45
f  27//45 19//44 26//46
f  26//46 19//44 20//47
f  24//48 30//48 23//48
f  30//48 24//48 21//49
f  30//48 21//49 29//20
f  29//20 21//49 22//41
f  18//41 22//41 25//41
f  22//41 18//41 17//42
f  22//41 17//42 29//20
f  29//20 17//42 28//43
f  28//43 17//42 19//44
f  28//43 19//44 27//45
f  27//45 19//44 26//46
f  26//46 19//44 20//47
f  24//48 30//48 23//48
f  30//48 24//48 21//49
f  30//48 21//49 29//20
f  29//20 21//49 22//41

