# {"id":"BLDG_0003000b001d87e3","idOriginal":"BLDG_0003000b001d87e3","origin":[13.333021055844458,52.52183081701686],"elevation":34.1699981689453}
# Longitude: 13.333021055844458
# Latitude: 52.52183081701686
# Elevation: 34.1699981689453

# File produced by Open Asset Import Library (http://www.assimp.sf.net)
# (assimp v3.1.0)

mtllib BLDG_0003000b001d87e3.obj.mtl

# 8 vertex positions
v  20.7515 17.0136 0.832144
v  0.000361913 17.0136 -0.00053809
v  14.607 17.0136 9.90967
v  6.14486 17.0136 -9.07806
v  0 0 0
v  20.7512 -5.09871e-17 0.832682
v  14.6067 -6.06825e-16 9.9102
v  6.1445 5.55838e-16 -9.07752

# 0 UV coordinates

# 11 vertex normals
vn 0 1 0
vn 2.7361e-25 -1 -6.12323e-17
vn 0 -1 -6.12323e-17
vn -0.561445 3.81203e-05 0.827514
vn -0.561445 3.8115e-05 0.827514
vn -0.828122 -1.12711e-07 -0.560548
vn -0.828122 -1.0522e-07 -0.560548
vn 0.561445 -3.82091e-05 -0.827514
vn 0.561445 -3.81583e-05 -0.827514
vn 0.828122 8.18185e-08 0.560548
vn 0.828122 1.22728e-07 0.560548

# Mesh 'defaultobject' with 12 faces
g defaultobject
usemtl DefaultMaterial
f  1//1 2//1 3//1
f  2//1 1//1 4//1
f  5//2 6//2 7//2
f  6//2 5//2 8//3
f  3//4 5//4 7//4
f  5//4 3//4 2//5
f  2//6 8//6 5//6
f  8//6 2//6 4//7
f  8//8 1//8 6//8
f  1//8 8//8 4//9
f  6//10 3//10 7//10
f  3//10 6//10 1//11

