# {"id":"BLDG_0003000e00093e95","idOriginal":"BLDG_0003000e00093e95","origin":[13.338792546872133,52.52408593659898],"elevation":34.2400016784668}
# Longitude: 13.338792546872133
# Latitude: 52.52408593659898
# Elevation: 34.2400016784668

# File produced by Open Asset Import Library (http://www.assimp.sf.net)
# (assimp v3.1.0)

mtllib BLDG_0003000e00093e95.obj.mtl

# 21 vertex positions
v  20.5159 -2.30119e-16 3.75813
v  21.8653 18.7971 10.5929
v  21.8649 -6.48662e-16 10.5935
v  19.1669 1.88424e-16 -3.0772
v  17.8135 6.08324e-16 -9.93469
v  17.814 21.3893 -9.93536
v  19.1674 21.3893 -3.07788
v  20.5164 21.3893 3.75745
v  3.39853 18.7971 15.1715
v  1.69907 -4.64513e-16 7.58607
v  3.39813 -9.29026e-16 15.1721
v  0 0 0
v  0.000400002 18.7971 -0.00059459
v  1.69952 21.3893 7.58539
v  16.3985 -7.31654e-16 11.9488
v  16.3989 18.7971 11.9482
v  13.6091 1.33787e-16 -2.18491
v  13.6095 18.7971 -2.1855
v  12.1898 5.74119e-16 -9.37607
v  12.1902 18.7971 -9.37666
v  15.0042 21.3893 4.88128

# 0 UV coordinates

# 38 vertex normals
vn 0.981076 -2.69289e-05 -0.193624
vn 0.981076 -2.69289e-05 -0.193624
vn 0.981076 -2.70016e-05 -0.193624
vn 0.981076 -2.70365e-05 -0.193624
vn 0.981076 -2.73704e-05 -0.193624
vn 0.981076 -2.62974e-05 -0.193624
vn -0.975824 2.76881e-05 0.218557
vn -0.975824 2.77039e-05 0.218557
vn -0.975824 2.76789e-05 0.218557
vn -0.975824 2.76381e-05 0.218557
vn 0.240655 2.55754e-05 0.970611
vn 0.240655 2.55608e-05 0.970611
vn 0.240655 2.56064e-05 0.970611
vn 0 1 0
vn -0.158518 -2.78588e-05 -0.987356
vn -0.158518 -2.78636e-05 -0.987356
vn -0.981076 2.69807e-05 0.193624
vn -0.981076 2.70354e-05 0.193624
vn -0.0988465 -2.93974e-05 -0.995103
vn -0.0988465 -2.93948e-05 -0.995103
vn -0.0676457 0.940926 -0.331787
vn -0.0674424 0.940926 -0.331828
vn -0.0502267 0.948475 -0.312846
vn -0.410575 0.908219 0.0810304
vn -0.410575 0.908219 0.0810305
vn -0.410575 0.908219 0.0810305
vn 0.0696612 0.937234 0.341673
vn 0.0815699 0.940804 0.328988
vn 0.0761402 0.94863 0.307089
vn 0.0674412 0.940928 0.331822
vn 0 -1 -6.12324e-17
vn 1.34637e-24 -1 -6.12323e-17
vn 3.63611e-24 -1 -6.12323e-17
vn 0 -1 -6.12323e-17
vn -6.39737e-24 -1 -6.12323e-17
vn -2.27184e-24 -1 -6.12323e-17
vn 2.70146e-24 -1 -6.12323e-17
vn -7.91978e-24 -1 -6.12323e-17

# Mesh 'defaultobject' with 38 faces
g defaultobject
usemtl DefaultMaterial
f  1//1 2//1 3//1
f  2//1 1//1 4//2
f  2//1 4//2 5//3
f  2//1 5//3 6//4
f  2//1 6//4 7//5
f  2//1 7//5 8//6
f  9//7 10//7 11//7
f  10//7 9//7 12//8
f  12//8 9//7 13//9
f  13//9 9//7 14//10
f  2//11 15//11 3//11
f  15//11 2//11 11//12
f  11//12 2//11 9//13
f  9//14 2//14 16//14
f  13//15 17//15 12//15
f  17//15 13//15 18//16
f  18//17 19//17 17//17
f  19//17 18//17 20//18
f  20//19 5//19 19//19
f  5//19 20//19 6//20
f  18//21 21//21 8//21
f  21//22 18//22 14//22
f  14//23 18//23 13//23
f  7//24 18//24 8//24
f  18//24 7//24 6//25
f  18//24 6//25 20//26
f  21//27 2//27 8//27
f  2//28 21//28 16//28
f  16//29 14//29 9//29
f  14//30 16//30 21//30
f  5//31 17//31 19//31
f  17//31 5//31 4//32
f  17//31 4//32 10//33
f  10//33 4//32 11//34
f  11//34 4//32 1//35
f  11//34 1//35 15//36
f  15//36 1//35 3//37
f  10//33 12//38 17//31

