# {"id":"BLDG_0003000e00879f17","idOriginal":"BLDG_0003000e00879f17","origin":[13.35331137671897,52.5268813494147],"elevation":33.3899993896484}
# Longitude: 13.35331137671897
# Latitude: 52.5268813494147
# Elevation: 33.3899993896484

# File produced by Open Asset Import Library (http://www.assimp.sf.net)
# (assimp v3.1.0)

mtllib BLDG_0003000e00879f17.obj.mtl

# 56 vertex positions
v  15.7221 24.1835 12.091
v  12.2867 24.1835 21.9415
v  16.6942 24.1835 21.5033
v  15.2533 24.1835 7.55205
v  14.3259 24.1835 -1.42708
v  9.91987 24.1835 -0.98839
v  11.3151 24.1835 12.5291
v  10.8467 24.1835 7.99114
v  8.54351 24.1835 22.3136
v  7.57197 24.1835 12.9012
v  7.10365 24.1835 8.36411
v  6.17676 24.1835 -0.615705
v  2.78157 24.1835 22.8864
v  0.000515105 24.1835 -0.00076509
v  2.32439 24.1835 22.5131
v  1.39563 24.1835 13.5152
v  0.927458 24.1835 8.97952
v  16.6942 23.9269 21.5033
v  21.2208 23.9269 11.5444
v  15.7221 23.9269 12.091
v  24.7118 23.9269 6.60959
v  20.7518 23.9269 7.00417
v  25.2112 23.9269 11.1477
v  22.1929 23.9269 20.9567
v  26.2463 23.9269 20.5538
v  12.7662 21.4031 -16.5279
v  9.91981 21.4031 -0.988302
v  14.3259 21.4031 -1.42699
v  6.1767 21.4031 -0.615617
v  4.61798 21.4031 -15.7166
v  8.36109 21.4031 -16.0893
v  7.57204 27.41 12.9011
v  10.8468 27.41 7.99104
v  7.10372 27.41 8.36401
v  11.3152 27.41 12.529
v  25.2107 -6.82648e-16 11.1485
v  20.7513 -4.28928e-16 7.00493
v  24.7113 -4.04767e-16 6.61034
v  21.2202 -7.06938e-16 11.5452
v  26.2458 -1.2586e-15 20.5546
v  15.7216 -7.40408e-16 12.0918
v  22.1924 -1.28328e-15 20.9575
v  0 0 0
v  0.926942 -5.49884e-16 8.98029
v  16.6937 -1.31675e-15 21.5041
v  12.2862 -1.34358e-15 21.9422
v  1.39511 -8.27613e-16 13.516
v  8.543 -1.36636e-15 22.3144
v  2.32388 -1.37858e-15 22.5139
v  2.78105 -1.40143e-15 22.8871
v  14.3254 8.73366e-17 -1.42632
v  8.36064 9.85144e-16 -16.0886
v  12.7658 1.012e-15 -16.5272
v  4.61752 9.62324e-16 -15.7159
v  6.17624 3.76542e-17 -0.61494
v  15.2528 -4.62477e-16 7.55282

# 0 UV coordinates

# 67 vertex normals
vn 0 1 -0
vn 0 -1 0
vn -5.82775e-24 -1 -6.12323e-17
vn 5.78457e-24 -1 -6.12323e-17
vn 3.13911e-24 -1 -6.12323e-17
vn -2.53123e-24 -1 -6.12323e-17
vn 0 -1 -6.12323e-17
vn -1.38541e-23 -1 -6.12323e-17
vn 4.70921e-24 -1 -6.12323e-17
vn 0 -1 -6.12323e-17
vn -9.31763e-24 -1 -6.12323e-17
vn 1.18987e-23 -1 -6.12323e-17
vn 2.26299e-23 -1 -6.12324e-17
vn 2.60594e-23 -1 -6.12322e-17
vn -2.52072e-23 -1 -6.12323e-17
vn -1.39057e-24 -1 -6.12323e-17
vn 6.81304e-24 -1 -6.12323e-17
vn -1.07419e-24 -1 -6.12323e-17
vn 0.994709 -2.4436e-05 -0.102735
vn 0.994709 -2.44225e-05 -0.102735
vn 0.994709 -2.44285e-05 -0.102735
vn 0.994709 -2.4381e-05 -0.102735
vn 0.994709 -2.49054e-05 -0.102735
vn 0.994709 -2.52322e-05 -0.102735
vn 0.994709 -2.52322e-05 -0.102735
vn 0.994709 -1.78395e-05 -0.102735
vn 0.0989203 2.93633e-05 0.995095
vn 0.0989203 2.938e-05 0.995095
vn 0.0989206 2.94787e-05 0.995095
vn 0.0989206 2.95168e-05 0.995095
vn 0.0989203 2.92368e-05 0.995095
vn 0.0989204 2.934e-05 0.995095
vn 0.0989205 2.93853e-05 0.995095
vn 0.0989203 2.14989e-05 0.995095
vn 0.0989208 3.9515e-05 0.995095
vn 0.0989202 2.81119e-05 0.995095
vn 0.994 -2.46181e-05 -0.109383
vn 0.994 -2.46657e-05 -0.109383
vn 0.994 -2.475e-05 -0.109384
vn 0.994 -2.46181e-05 -0.109383
vn -0.0990756 -2.93702e-05 -0.99508
vn -0.0990753 -2.93069e-05 -0.99508
vn -0.0990756 -2.94231e-05 -0.99508
vn -0.0990755 -2.94145e-05 -0.99508
vn -0.0990755 -2.93724e-05 -0.99508
vn -0.0990755 -2.93707e-05 -0.99508
vn -0.0990755 -2.93791e-05 -0.99508
vn -0.0990755 -2.93784e-05 -0.99508
vn -0.994715 2.44295e-05 0.102674
vn -0.994715 2.44405e-05 0.102674
vn -0.994715 2.44481e-05 0.102674
vn -0.994715 2.44219e-05 0.102674
vn -0.994715 2.44319e-05 0.102674
vn -0.994715 2.44355e-05 0.102674
vn -0.994709 2.44228e-05 0.102735
vn -0.994709 2.45e-05 0.102735
vn -0.0991518 -2.93531e-05 -0.995072
vn -0.099152 -2.93808e-05 -0.995072
vn -0.0989205 -2.93865e-05 -0.995095
vn -0.994715 2.44345e-05 0.102674
vn -0.994715 2.44388e-05 0.102674
vn -0.994715 2.44164e-05 0.102674
vn -0.099152 -2.93608e-05 -0.995072
vn 0.994715 -2.44258e-05 -0.102674
vn 0.0989203 2.93682e-05 0.995095
vn -0.632404 3.79725e-05 0.774639
vn -0.632404 3.79663e-05 0.774639

# Mesh 'defaultobject' with 108 faces
g defaultobject
usemtl DefaultMaterial
f  1//1 2//1 3//1
f  2//1 1//1 4//1
f  2//1 4//1 5//1
f  2//1 5//1 6//1
f  2//2 6//2 7//2
f  7//1 6//1 8//1
f  7//1 9//1 2//1
f  9//1 7//1 10//1
f  6//1 11//1 8//1
f  11//1 6//1 12//1
f  10//1 13//1 9//1
f  13//1 10//1 11//1
f  13//1 11//1 12//1
f  13//1 12//1 14//1
f  13//1 14//1 15//1
f  15//1 14//1 16//1
f  16//1 14//1 17//1
f  18//1 19//1 20//1
f  19//1 21//1 22//1
f  21//1 19//1 23//1
f  23//1 19//1 18//1
f  23//1 18//1 24//1
f  23//1 24//1 25//1
f  26//1 27//1 28//1
f  27//1 26//1 29//1
f  29//1 26//1 30//1
f  30//2 26//2 31//2
f  32//1 33//1 34//1
f  33//1 32//1 35//1
f  36//3 37//3 38//3
f  37//3 36//3 39//4
f  39//4 36//3 40//5
f  39//4 40//5 41//6
f  41//6 40//5 42//7
f  41//6 42//7 43//8
f  43//8 42//7 44//9
f  44//9 42//7 45//10
f  44//9 45//10 46//10
f  44//9 46//10 47//11
f  47//11 46//10 48//12
f  47//11 48//12 49//13
f  49//13 48//12 50//14
f  51//15 52//15 53//15
f  52//15 51//15 54//16
f  54//16 51//15 55//17
f  55//17 51//15 56//18
f  55//17 56//18 43//8
f  43//8 56//18 41//6
f  26//19 28//19 53//19
f  56//20 20//20 41//20
f  20//20 56//20 51//21
f  20//20 51//21 53//19
f  20//20 53//19 28//19
f  20//20 28//19 5//22
f  20//20 5//22 4//23
f  20//20 4//23 1//24
f  20//20 1//24 3//25
f  3//25 18//26 20//20
f  48//27 13//27 50//27
f  13//27 48//27 46//28
f  13//27 46//28 45//29
f  13//27 45//29 42//30
f  13//27 42//30 40//31
f  13//27 40//31 18//32
f  18//32 40//31 25//33
f  13//27 18//32 9//34
f  9//35 18//35 2//35
f  18//2 25//2 24//2
f  3//36 2//36 18//32
f  21//37 36//37 38//37
f  36//37 21//37 40//38
f  40//38 21//37 23//39
f  40//38 23//39 25//40
f  53//41 31//41 26//41
f  31//41 53//41 30//42
f  30//42 53//41 52//43
f  30//42 52//43 54//44
f  43//45 29//45 55//45
f  29//45 43//45 14//46
f  29//45 14//46 12//47
f  27//48 5//48 28//48
f  5//48 27//48 6//48
f  6//48 27//48 29//45
f  6//48 29//45 12//47
f  15//49 47//49 49//49
f  47//49 15//49 44//50
f  44//50 15//49 43//51
f  43//51 15//49 16//52
f  43//51 16//52 17//53
f  43//51 17//53 14//54
f  19//55 37//55 39//55
f  37//55 19//55 22//56
f  22//57 38//57 37//57
f  38//57 22//57 21//58
f  20//59 39//59 41//59
f  39//59 20//59 19//59
f  29//60 54//60 55//60
f  54//60 29//60 30//61
f  32//62 11//62 10//62
f  11//62 32//62 34//62
f  34//63 8//63 11//63
f  8//63 34//63 33//63
f  8//64 35//64 7//64
f  35//64 8//64 33//64
f  7//65 32//65 10//65
f  32//65 7//65 35//65
f  13//66 49//66 50//66
f  49//66 13//66 15//67

