# {"id":"BLDG_0003000e003cea66","idOriginal":"BLDG_0003000e003cea66","origin":[13.343700877102526,52.55937555065203],"elevation":38.1500015258789}
# Longitude: 13.343700877102526
# Latitude: 52.55937555065203
# Elevation: 38.1500015258789

# File produced by Open Asset Import Library (http://www.assimp.sf.net)
# (assimp v3.1.0)

mtllib BLDG_0003000e003cea66.obj.mtl

# 50 vertex positions
v  16.739 3.89118 1.2674
v  18.9142 3.89118 3.3469
v  16.7389 -7.76132e-17 1.26752
v  23.0653 -4.47948e-16 7.31554
v  27.2989 6.68496 11.3626
v  27.2988 -6.95773e-16 11.3628
v  18.9141 -2.04946e-16 3.34702
v  23.0654 6.68496 7.31533
v  18.9143 6.68496 3.34681
v  25.5256 -8.09926e-16 13.2271
v  22.1965 -1.02426e-15 16.7274
v  22.1966 6.68496 16.7272
v  25.5258 6.68496 13.2269
v  17.9445 3.89118 12.6995
v  17.9444 -7.77625e-16 12.6996
v  13.7445 6.68496 8.72089
v  13.7445 3.89118 8.72098
v  17.9445 6.68496 12.6994
v  17.1306 6.68496 5.20099
v  17.1305 3.89118 5.20108
v  21.8603 9.4524e-16 -15.4369
v  11.0381 3.89118 -4.18277
v  21.8604 3.89118 -15.4371
v  11.038 2.56114e-16 -4.18265
v  9.25474 3.89118 -2.32826
v  9.25466 1.42557e-16 -2.32813
v  3.67152 -2.12958e-16 3.47787
v  1.98882 3.89118 5.22771
v  3.67161 3.89118 3.47775
v  0.266666 3.89118 7.0186
v  1.98873 -3.20112e-16 5.22783
v  0.266583 -4.29773e-16 7.01873
v  5.59924 3.56541e-16 -5.82275
v  2.16313 3.89118 -2.24951
v  5.59933 3.89118 -5.82287
v  2.16304 1.37735e-16 -2.24939
v  8.2838e-05 3.89118 -0.00012338
v  0 0 0
v  15.7939 3.89118 14.9606
v  11.5809 -6.71724e-16 10.9701
v  15.7938 -9.16081e-16 14.9607
v  11.581 3.89118 10.97
v  9.81733 3.89118 12.8034
v  7.65473 -6.55848e-16 10.7108
v  9.81724 -7.83987e-16 12.8035
v  7.65481 3.89118 10.7107
v  27.5577 3.89118 -9.97891
v  27.5576 6.11024e-16 -9.97878
v  5.93233 3.89118 12.5013
v  5.93224 -7.65489e-16 12.5014

# 0 UV coordinates

# 63 vertex normals
vn 0.69103 -3.7801e-05 -0.722826
vn 0.69103 -3.75106e-05 -0.722826
vn 0.69103 -3.75597e-05 -0.722826
vn 0.69103 -3.73011e-05 -0.722826
vn 0.69103 -3.7566e-05 -0.722826
vn 0.724595 6.52763e-06 0.689175
vn 0.724596 6.30511e-06 0.689174
vn 0.724595 6.72426e-06 0.689174
vn 0 -1 0
vn -0.687701 3.78285e-05 0.725994
vn -0.687701 3.74094e-05 0.725994
vn -0.687701 3.76455e-05 0.725994
vn -0.687701 3.77055e-05 0.725994
vn -0.720676 -6.75627e-06 -0.693272
vn -0.720676 -6.22026e-06 -0.693272
vn -0.720676 -6.10314e-06 -0.693272
vn -0.720676 -6.51964e-06 -0.693272
vn -0.720806 -6.72158e-06 -0.693137
vn -0.720806 -6.54493e-06 -0.693137
vn -0.720805 -6.54494e-06 -0.693138
vn -0.720806 -6.80652e-06 -0.693137
vn -0.720806 -6.67403e-06 -0.693137
vn -0.720806 -6.68307e-06 -0.693137
vn -0.720806 -6.61225e-06 -0.693137
vn -0.720806 -6.65747e-06 -0.693137
vn -0.720806 -6.71819e-06 -0.693137
vn -0.720806 -6.5874e-06 -0.693137
vn -0.720806 -6.5874e-06 -0.693137
vn -0.720806 -6.63269e-06 -0.693137
vn -0.687701 3.76166e-05 0.725994
vn -0.687702 3.77945e-05 0.725994
vn 0.724596 6.32236e-06 0.689174
vn 0.724595 6.12601e-06 0.689175
vn -0.695406 3.75476e-05 0.718617
vn 0.720676 6.55107e-06 0.693272
vn 0.720676 6.71966e-06 0.693272
vn 0.691787 -3.77728e-05 -0.722102
vn 0.691787 -3.74e-05 -0.722102
vn 0.720676 6.53344e-06 0.693272
vn 0.720676 6.40779e-06 0.693272
vn -0.695406 3.75476e-05 0.718617
vn -0.695406 3.76091e-05 0.718617
vn 0.720676 6.55976e-06 0.693272
vn 0.69103 -3.75108e-05 -0.722826
vn 0.69103 -3.76077e-05 -0.722826
vn -0.687701 3.76634e-05 0.725994
vn -0.687701 3.76597e-05 0.725994
vn 4.86587e-24 -1 -6.12323e-17
vn 2.19574e-25 -1 -6.12324e-17
vn -3.74228e-24 -1 -6.12323e-17
vn 3.48595e-24 -1 -6.12323e-17
vn 5.84699e-24 -1 -6.12324e-17
vn 0 -1 -6.12323e-17
vn 2.161e-24 -1 -6.12323e-17
vn -6.87588e-24 -1 -6.12323e-17
vn -5.21584e-24 -1 -6.12323e-17
vn -6.66406e-24 -1 -6.12323e-17
vn -1.1055e-23 -1 -6.12323e-17
vn -5.40114e-24 -1 -6.12323e-17
vn -5.40515e-24 -1 -6.12323e-17
vn 1.1878e-24 -1 -6.12323e-17
vn 1.15312e-24 -1 -6.12323e-17
vn 0 1 0

# Mesh 'defaultobject' with 96 faces
g defaultobject
usemtl DefaultMaterial
f  1//1 2//1 3//1
f  4//2 5//2 6//2
f  5//2 4//2 7//3
f  5//2 7//3 3//1
f  5//2 3//1 2//1
f  5//2 2//1 8//4
f  8//4 2//1 9//5
f  5//6 10//6 6//6
f  10//6 5//6 11//7
f  11//7 5//6 12//8
f  12//9 5//9 13//9
f  11//10 14//10 15//10
f  14//10 16//11 17//11
f  16//11 14//10 18//12
f  18//12 14//10 11//10
f  18//12 11//10 12//13
f  2//14 19//14 9//14
f  19//14 2//14 16//15
f  16//15 2//14 20//16
f  16//15 20//16 17//17
f  21//18 22//18 23//18
f  22//18 21//18 24//19
f  22//18 24//19 25//20
f  25//20 24//19 26//21
f  27//22 28//22 29//22
f  28//22 27//22 30//23
f  30//23 27//22 31//24
f  30//23 31//24 32//25
f  33//26 34//26 35//26
f  34//26 33//26 36//27
f  34//26 36//27 37//28
f  37//28 36//27 38//29
f  39//30 40//30 41//30
f  40//30 39//30 42//31
f  15//32 39//32 41//32
f  39//32 15//32 14//33
f  43//34 44//34 45//34
f  44//34 43//34 46//34
f  40//35 43//35 45//35
f  43//35 40//35 42//36
f  21//37 47//37 48//37
f  47//37 21//37 23//38
f  48//39 1//39 3//39
f  1//39 48//39 47//40
f  49//41 32//41 50//41
f  32//41 49//41 30//42
f  44//43 49//43 50//43
f  49//43 44//43 46//43
f  33//44 25//44 26//44
f  25//44 33//44 35//45
f  29//46 38//46 27//46
f  38//46 29//46 37//47
f  6//48 15//48 4//48
f  15//48 6//48 10//49
f  15//48 10//49 11//50
f  4//48 40//51 7//51
f  40//51 4//48 15//48
f  40//51 15//48 41//52
f  7//51 44//53 3//53
f  44//53 7//51 40//51
f  44//53 40//51 45//54
f  48//55 24//55 21//55
f  24//55 48//55 26//56
f  26//56 48//55 27//57
f  27//57 48//55 31//58
f  31//58 48//55 32//59
f  32//59 48//55 3//53
f  32//59 3//53 44//53
f  32//59 44//53 50//60
f  26//56 36//61 33//61
f  36//61 26//56 38//62
f  38//62 26//56 27//57
f  34//63 25//63 35//63
f  25//63 34//63 37//63
f  22//63 47//63 23//63
f  47//63 22//63 1//63
f  1//63 22//63 25//63
f  1//63 25//63 37//63
f  1//63 37//63 29//63
f  1//63 29//63 2//63
f  2//63 29//63 28//63
f  2//63 28//63 30//63
f  2//63 30//63 20//63
f  20//63 30//63 46//63
f  46//63 30//63 49//63
f  20//63 46//63 17//63
f  43//63 42//63 46//63
f  17//63 42//63 14//63
f  42//63 17//63 46//63
f  14//63 42//63 39//63
f  8//63 13//63 5//63
f  13//63 8//63 12//63
f  12//63 8//63 18//63
f  18//63 8//63 9//63
f  18//63 9//63 16//63
f  16//9 9//9 19//9

