# {"id":"BLDG_0003000b001e4aa2","idOriginal":"BLDG_0003000b001e4aa2","origin":[13.357571976162577,52.51970564493735],"elevation":33.7000007629395}
# Longitude: 13.357571976162577
# Latitude: 52.51970564493735
# Elevation: 33.7000007629395

# File produced by Open Asset Import Library (http://www.assimp.sf.net)
# (assimp v3.1.0)

mtllib BLDG_0003000b001e4aa2.obj.mtl

# 32 vertex positions
v  49.3681 6.2049e-16 -10.1334
v  38.2475 9.57481e-16 -15.6369
v  49.5938 1.34685e-15 -21.9958
v  29.9714 6.43085e-16 -10.5024
v  60.4716 -0.380001 1.41346
v  50.99 -0.380001 -29.4835
v  61.1848 -0.380001 -29.2426
v  48.7406 -0.380001 -28.1824
v  41.9026 -0.380001 -24.2308
v  50.17 -0.380001 1.17232
v  0 -0.380001 -2.32684e-17
v  46.6628 -0.380001 1.09095
v  29.9719 26.9927 -10.5032
v  49.3687 26.9927 -10.1342
v  49.5944 26.9927 -21.9967
v  38.2481 26.9927 -15.6377
v  49.5938 -0.380001 -21.9958
v  38.248 24.4417 -15.6376
v  38.2475 -0.380001 -15.6368
v  49.5943 24.4417 -21.9966
v  49.3687 24.4417 -10.1341
v  49.3681 -0.380001 -10.1334
v  29.9719 24.4417 -10.5032
v  29.9714 -0.380001 -10.5024
v  50.9905 24.4417 -29.4843
v  61.1853 24.4417 -29.2434
v  48.7412 24.4417 -28.1832
v  41.9032 24.4417 -24.2316
v  0.000528833 24.4417 -0.00078491
v  46.6634 24.4417 1.09017
v  50.1705 24.4417 1.17154
v  60.4721 24.4417 1.41268

# 0 UV coordinates

# 33 vertex normals
vn -3.18051e-24 -1 -6.12323e-17
vn -1.0315e-24 -1 -6.12323e-17
vn 0 -1 -0
vn -0.0190208 3.20203e-05 0.999819
vn -0.0190208 3.20185e-05 0.999819
vn 0.999819 -2.05932e-05 0.0190208
vn 0.999819 -2.0594e-05 0.0190208
vn -0.488898 -1.71514e-05 -0.872341
vn -0.488898 -1.71896e-05 -0.872341
vn -0.527182 -1.56574e-05 -0.849752
vn -0.527182 -1.56201e-05 -0.849752
vn 0.488897 1.71328e-05 0.872341
vn 0.488898 1.72274e-05 0.872341
vn -0.999819 2.06031e-05 -0.0190208
vn -0.999819 2.06024e-05 -0.0190208
vn 0.0190208 -3.19827e-05 -0.999819
vn 0.0190208 -3.20182e-05 -0.999819
vn 0.527182 1.55744e-05 0.849752
vn 0.527182 1.56059e-05 0.849752
vn 0.0236271 -3.21548e-05 -0.999721
vn 0.0236272 -3.2078e-05 -0.999721
vn -0.500708 -1.67083e-05 -0.865617
vn -0.500353 -1.66559e-05 -0.865822
vn -0.500353 -1.67224e-05 -0.865822
vn -0.500593 -1.67093e-05 -0.865683
vn -0.500593 -1.66463e-05 -0.865683
vn -0.0233731 3.21127e-05 0.999727
vn -0.0233731 3.21062e-05 0.999727
vn -0.0231943 3.21038e-05 0.999731
vn -0.0234018 3.21077e-05 0.999726
vn -0.0234018 3.21114e-05 0.999726
vn 0.99973 -2.06211e-05 0.0232584
vn 0 1 0

# Mesh 'defaultobject' with 48 faces
g defaultobject
usemtl DefaultMaterial
f  1//1 2//1 3//1
f  2//1 1//1 4//2
f  5//3 6//3 7//3
f  6//3 5//3 8//3
f  8//3 5//3 9//3
f  9//3 5//3 10//3
f  9//3 10//3 11//3
f  11//3 10//3 12//3
f  1//4 13//4 4//4
f  13//4 1//4 14//5
f  3//6 14//6 1//6
f  14//6 3//6 15//7
f  16//8 3//8 2//8
f  3//8 16//8 15//9
f  13//10 2//10 4//10
f  2//10 13//10 16//11
f  17//12 18//12 19//12
f  18//12 17//12 20//13
f  21//14 17//14 22//14
f  17//14 21//14 20//15
f  23//16 22//16 24//16
f  22//16 23//16 21//17
f  19//18 23//18 24//18
f  23//18 19//18 18//19
f  25//20 7//20 6//20
f  7//20 25//20 26//21
f  27//22 6//22 8//22
f  6//22 27//22 25//22
f  28//23 8//23 9//23
f  8//23 28//23 27//24
f  29//25 9//25 11//25
f  9//25 29//25 28//26
f  12//27 29//27 11//27
f  29//27 12//27 30//28
f  10//29 30//29 12//29
f  30//29 10//29 31//29
f  5//30 31//30 10//30
f  31//30 5//30 32//31
f  7//32 32//32 5//32
f  32//32 7//32 26//32
f  25//33 32//33 26//33
f  32//33 25//33 31//33
f  31//33 25//33 27//33
f  31//33 27//33 28//33
f  31//33 28//33 30//33
f  30//33 28//33 29//33
f  14//33 16//33 13//33
f  16//33 14//33 15//33

