# {"id":"BLDG_000300000020f8d4","idOriginal":"BLDG_000300000020f8d4","origin":[13.39147332551779,52.5530110931694],"elevation":44.810001373291}
# Longitude: 13.39147332551779
# Latitude: 52.5530110931694
# Elevation: 44.810001373291

# File produced by Open Asset Import Library (http://www.assimp.sf.net)
# (assimp v3.1.0)

mtllib BLDG_000300000020f8d4.obj.mtl

# 10 vertex positions
v  14.3584 16.6414 -10.6944
v  6.19375 21.8187 1.0042
v  12.3869 16.6414 2.00926
v  8.16523 21.8187 -11.6995
v  0.000355347 16.6414 -0.00052738
v  1.97184 16.6414 -12.7042
v  0 0 0
v  12.3866 -1.23064e-16 2.00979
v  1.97148 7.77878e-16 -12.7037
v  14.3581 6.54814e-16 -10.6939

# 0 UV coordinates

# 15 vertex normals
vn 0.628945 0.771298 0.0976056
vn 0.628945 0.771298 0.0976056
vn -0.628935 0.771307 -0.0976041
vn -0.160161 3.47054e-05 0.987091
vn -0.160161 3.47017e-05 0.987091
vn -0.160161 3.47161e-05 0.987091
vn -0.988171 1.62407e-05 -0.153354
vn -0.988171 1.62416e-05 -0.153354
vn 0.160161 -3.4702e-05 -0.987091
vn 0.160161 -3.46962e-05 -0.987091
vn 0.160161 -3.47015e-05 -0.987091
vn 0.988171 -1.62617e-05 0.153354
vn 0.988171 -1.62083e-05 0.153354
vn 0 -1 -6.12323e-17
vn -3.2817e-24 -1 -6.12323e-17

# Mesh 'defaultobject' with 16 faces
g defaultobject
usemtl DefaultMaterial
f  1//1 2//1 3//1
f  2//1 1//1 4//2
f  4//3 5//3 2//3
f  5//3 4//3 6//3
f  3//4 7//4 8//4
f  7//4 3//4 5//5
f  5//5 3//4 2//6
f  5//7 9//7 7//7
f  9//7 5//7 6//8
f  6//9 10//9 9//9
f  10//9 6//9 1//10
f  1//10 6//9 4//11
f  10//12 3//12 8//12
f  3//12 10//12 1//13
f  7//14 10//14 8//14
f  10//14 7//14 9//15

