# {"id":"BLDG_00030000001cf249","idOriginal":"BLDG_00030000001cf249","origin":[13.362599479789736,52.54237150669646],"elevation":35.4799995422363}
# Longitude: 13.362599479789736
# Latitude: 52.54237150669646
# Elevation: 35.4799995422363

# File produced by Open Asset Import Library (http://www.assimp.sf.net)
# (assimp v3.1.0)

mtllib BLDG_00030000001cf249.obj.mtl

# 26 vertex positions
v  13.6361 19.6429 -4.51426
v  15.7998 22.2835 -6.55788
v  11.6471 22.2835 -11.0006
v  23.2319 22.2835 1.39311
v  21.0536 19.6429 3.42123
v  20.3909 22.906 -10.894
v  16.2382 22.906 -15.3367
v  27.8538 22.906 -2.91003
v  23.028 19.6429 -13.3846
v  18.8753 19.6429 -17.8273
v  30.5085 19.6429 -5.3817
v  9.48343 22.638 -8.95703
v  0.000482493 22.638 -0.00071693
v  4.15175 19.6429 4.44336
v  0 0 0
v  9.48294 5.48416e-16 -8.95631
v  11.6466 6.73547e-16 -10.9999
v  16.2377 9.39058e-16 -15.336
v  18.8748 1.09157e-15 -17.8266
v  30.5081 3.29496e-16 -5.38108
v  27.8533 1.78144e-16 -2.90931
v  23.2315 -8.53468e-17 1.39382
v  21.0532 -2.09528e-16 3.42186
v  23.0276 8.19532e-16 -13.384
v  13.6357 2.7638e-16 -4.51364
v  4.15133 -2.72115e-16 4.44398

# 0 UV coordinates

# 45 vertex normals
vn -0.48484 0.748027 0.453195
vn -0.484838 0.748027 0.453197
vn -0.484837 0.748031 0.453193
vn -0.0716642 0.995177 0.0669869
vn -0.0716642 0.995177 0.0669864
vn -0.0716647 0.995177 0.0669873
vn -0.0716648 0.995177 0.0669879
vn 0.488593 0.743437 -0.456704
vn 0.488593 0.743437 -0.456704
vn 0.488592 0.743441 -0.456699
vn 0.379195 0.891802 0.24678
vn 0.303377 0.897097 0.321216
vn 0.303377 0.897097 0.321216
vn -0.686632 -8.67563e-06 -0.727006
vn -0.686632 -6.59945e-06 -0.727006
vn -0.686632 -8.38931e-06 -0.727005
vn -0.686632 -8.39708e-06 -0.727006
vn -0.686632 -8.22178e-06 -0.727005
vn -0.686632 -8.34924e-06 -0.727006
vn -0.686632 -8.34524e-06 -0.727006
vn 0.681422 8.59239e-06 0.73189
vn 0.681422 8.49886e-06 0.73189
vn 0.681423 8.61125e-06 0.73189
vn 0.681423 8.78024e-06 0.73189
vn 0.681422 8.65696e-06 0.73189
vn 0.681423 8.67854e-06 0.73189
vn 0.730545 -3.72222e-05 -0.682864
vn 0.730545 -3.72284e-05 -0.682864
vn 0.730545 -3.72354e-05 -0.682864
vn 0.730545 -3.72222e-05 -0.682864
vn 0.686632 8.33631e-06 0.727005
vn 0.686632 8.39586e-06 0.727005
vn -0.730759 3.7184e-05 0.682636
vn -0.730759 3.71936e-05 0.682636
vn -0.730545 3.71595e-05 0.682864
vn -0.730545 3.71512e-05 0.682864
vn 1.06783e-23 -1 -6.12323e-17
vn 0 -1 -6.12323e-17
vn -1.17001e-23 -1 -6.12323e-17
vn 2.20562e-23 -1 -6.12323e-17
vn -7.67974e-23 -1 -6.12324e-17
vn -3.0181e-24 -1 -6.12323e-17
vn 4.31273e-23 -1 -6.12323e-17
vn 6.12215e-24 -1 -6.12323e-17
vn -5.32905e-24 -1 -6.12323e-17

# Mesh 'defaultobject' with 48 faces
g defaultobject
usemtl DefaultMaterial
f  1//1 2//1 3//1
f  2//1 1//1 4//2
f  4//2 1//1 5//3
f  3//4 6//4 7//4
f  6//4 3//4 8//5
f  8//5 3//4 2//6
f  8//5 2//6 4//7
f  7//8 9//8 10//8
f  9//8 7//8 6//8
f  9//8 6//8 11//9
f  11//9 6//8 8//10
f  3//11 12//11 1//11
f  1//12 13//12 14//12
f  13//12 1//12 12//13
f  10//14 3//14 7//14
f  3//14 13//15 12//15
f  13//15 3//14 15//16
f  15//16 3//14 10//14
f  15//16 10//14 16//17
f  16//17 10//14 17//18
f  17//18 10//14 18//19
f  18//19 10//14 19//20
f  4//21 11//21 8//21
f  11//21 4//21 5//22
f  11//21 5//22 20//23
f  20//23 5//22 21//24
f  21//24 5//22 22//25
f  22//25 5//22 23//26
f  10//27 24//27 19//27
f  24//27 10//27 20//28
f  20//28 10//27 9//29
f  20//28 9//29 11//30
f  25//31 14//31 26//31
f  14//31 25//31 1//32
f  14//33 15//33 26//33
f  15//33 14//33 13//34
f  5//35 25//35 23//35
f  25//35 5//35 1//36
f  16//37 26//37 15//37
f  26//37 16//37 25//38
f  25//38 16//37 17//39
f  25//38 17//39 18//40
f  25//38 18//40 19//41
f  25//38 19//41 23//42
f  23//42 19//41 24//43
f  23//42 24//43 22//38
f  22//38 24//43 21//44
f  21//44 24//43 20//45

