# {"id":"BLDG_0003000b002c3b00","idOriginal":"BLDG_0003000b002c3b00","origin":[13.386156621183389,52.52825559919406],"elevation":33.5}
# Longitude: 13.386156621183389
# Latitude: 52.52825559919406
# Elevation: 33.5

# File produced by Open Asset Import Library (http://www.assimp.sf.net)
# (assimp v3.1.0)

mtllib BLDG_0003000b002c3b00.obj.mtl

# 20 vertex positions
v  0.218578 25.2505 0.311551
v  0 0 0
v  0.218039 -1.91259e-17 0.31235
v  0.000538964 25.2505 -0.0007989
v  7.45344 25.2505 10.6553
v  7.45291 -6.52497e-16 10.6561
v  19.4841 -1.19301e-16 1.94834
v  19.4846 25.2505 1.94754
v  19.83 -1.03972e-16 1.69798
v  19.8306 25.2505 1.69719
v  18.7932 3.77483e-17 -0.616477
v  18.7938 25.2505 -0.617276
v  17.3922 2.3677e-16 -3.86675
v  17.3927 25.2505 -3.86755
v  15.9374 4.43814e-16 -7.24803
v  15.938 25.2505 -7.24883
v  15.0262 5.73317e-16 -9.36298
v  15.0268 25.2505 -9.36378
v  14.7643 6.10432e-16 -9.96911
v  14.7649 25.2505 -9.96991

# 0 UV coordinates

# 27 vertex normals
vn -0.819979 3.56122e-05 0.572393
vn -0.819979 3.56121e-05 0.572393
vn -0.819446 3.56268e-05 0.573157
vn -0.819446 3.5625e-05 0.573157
vn 0.586311 1.30814e-05 0.810086
vn 0.586311 1.31424e-05 0.810086
vn 0.586295 1.31428e-05 0.810098
vn 0.586292 1.30944e-05 0.8101
vn 0.912613 -3.24433e-05 -0.408824
vn 0.912613 -3.23762e-05 -0.408825
vn 0.918316 -3.21515e-05 -0.395848
vn 0.918594 -3.21002e-05 -0.395202
vn 0.918594 -3.21361e-05 -0.395202
vn 0.918386 -3.21203e-05 -0.395687
vn 0.918386 -3.21121e-05 -0.395687
vn 0.917983 -3.21421e-05 -0.396621
vn -0.559595 -1.42769e-05 -0.828766
vn -0.559595 -1.42891e-05 -0.828766
vn -6.24168e-23 -1 -6.12323e-17
vn 1.88357e-24 -1 -6.12323e-17
vn -9.18294e-24 -1 -6.12323e-17
vn -1.68384e-22 -1 -6.12322e-17
vn 7.85524e-23 -1 -6.12324e-17
vn -2.49668e-23 -1 -6.12323e-17
vn 0 -1 -6.12288e-17
vn -1.71146e-20 -1 -6.12189e-17
vn 0 1 0

# Mesh 'defaultobject' with 36 faces
g defaultobject
usemtl DefaultMaterial
f  1//1 2//1 3//1
f  2//1 1//1 4//2
f  5//3 3//3 6//3
f  3//3 5//3 1//4
f  5//5 7//5 8//5
f  7//5 5//5 6//6
f  8//7 9//7 10//7
f  9//7 8//7 7//8
f  10//9 11//9 12//9
f  11//9 10//9 9//10
f  12//11 13//11 14//11
f  13//11 12//11 11//11
f  14//12 15//12 16//12
f  15//12 14//12 13//13
f  16//14 17//14 18//14
f  17//14 16//14 15//15
f  18//16 19//16 20//16
f  19//16 18//16 17//16
f  4//17 19//17 2//17
f  19//17 4//17 20//18
f  19//19 3//19 2//19
f  3//19 19//19 6//20
f  6//20 19//19 7//21
f  7//21 19//19 13//22
f  7//21 13//22 11//23
f  7//21 11//23 9//24
f  13//22 19//19 15//25
f  15//25 19//19 17//26
f  1//27 20//27 4//27
f  20//27 1//27 5//27
f  20//27 5//27 8//27
f  20//27 8//27 18//27
f  18//27 8//27 16//27
f  16//27 8//27 14//27
f  14//27 8//27 12//27
f  12//27 8//27 10//27

