# {"id":"BLDG_0003000e0011fb00","idOriginal":"BLDG_0003000e0011fb00","origin":[13.345507577103845,52.52640551563978],"elevation":33.5}
# Longitude: 13.345507577103845
# Latitude: 52.52640551563978
# Elevation: 33.5

# File produced by Open Asset Import Library (http://www.assimp.sf.net)
# (assimp v3.1.0)

mtllib BLDG_0003000e0011fb00.obj.mtl

# 10 vertex positions
v  8.48594 20.0555 -7.99564
v  0.366034 18.5475 -16.6136
v  0.000394862 18.5475 -0.000586781
v  36.4879 18.5475 1.36825
v  28.368 20.0555 -7.24976
v  36.8535 18.5475 -15.2447
v  36.8531 9.33434e-16 -15.2441
v  36.4875 -8.38172e-17 1.36884
v  0 0 0
v  0.365639 1.01725e-15 -16.613

# 0 UV coordinates

# 15 vertex normals
vn -0.17856 0.983921 -0.00392999
vn -0.00669568 0.983921 0.178478
vn -0.00669568 0.983921 0.178478
vn 0.00669576 0.983921 -0.178481
vn 0.00669576 0.983921 -0.178481
vn 0.178562 0.983921 0.00393
vn 0.999758 -2.04827e-05 0.0220039
vn -0.037489 3.24113e-05 0.999297
vn -0.037489 3.24113e-05 0.999297
vn -0.999758 2.0588e-05 -0.0220039
vn -0.999758 2.05904e-05 -0.0220039
vn 0.037489 -3.23466e-05 -0.999297
vn 0.037489 -3.2394e-05 -0.999297
vn 1.74526e-25 -1 -6.12323e-17
vn 1.22168e-24 -1 -6.12323e-17

# Mesh 'defaultobject' with 16 faces
g defaultobject
usemtl DefaultMaterial
f  1//1 2//1 3//1
f  1//2 4//2 5//2
f  4//2 1//2 3//3
f  1//4 6//4 2//4
f  6//4 1//4 5//5
f  4//6 6//6 5//6
f  7//7 4//7 8//7
f  4//7 7//7 6//7
f  8//8 3//8 9//8
f  3//8 8//8 4//9
f  3//10 10//10 9//10
f  10//10 3//10 2//11
f  2//12 7//12 10//12
f  7//12 2//12 6//13
f  9//14 7//14 8//14
f  7//14 9//14 10//15

