# {"id":"BLDG_00030000002030f9","idOriginal":"BLDG_00030000002030f9","origin":[13.389752224804045,52.535735563671395],"elevation":36.7599983215332}
# Longitude: 13.389752224804045
# Latitude: 52.535735563671395
# Elevation: 36.7599983215332

# File produced by Open Asset Import Library (http://www.assimp.sf.net)
# (assimp v3.1.0)

mtllib BLDG_00030000002030f9.obj.mtl

# 20 vertex positions
v  9.49284 26.5144 8.34896
v  1.36438 25.2325 1.19889
v  10.7609 25.22 9.46445
v  0 0 0
v  10.7603 -5.79579e-16 9.46525
v  0.000538446 25.22 -0.00079832
v  19.8601 25.22 -0.88763
v  25.8485 4.71506e-16 -7.70028
v  19.8596 5.43028e-17 -0.886831
v  25.849 25.22 -7.70108
v  9.0927 6.34235e-16 -10.3578
v  9.09324 25.22 -10.3586
v  10.4571 25.2325 -9.15895
v  18.5921 26.5144 -2.00312
v  33.9347 25.22 -0.516302
v  33.9342 3.15655e-17 -0.515503
v  27.9816 25.22 6.2564
v  27.9811 -3.83143e-16 6.2572
v  18.8824 25.22 16.6085
v  18.8819 -1.01702e-15 16.6093

# 0 UV coordinates

# 28 vertex normals
vn -0.660476 3.78449e-05 0.750847
vn -0.660476 3.78758e-05 0.750847
vn -0.660476 3.78687e-05 0.750847
vn -0.751094 -4.87988e-06 -0.660195
vn -0.751094 -4.87676e-06 -0.660195
vn -0.751512 -4.8382e-06 -0.65972
vn -0.751512 -4.8244e-06 -0.65972
vn 0.660476 -3.78758e-05 -0.750847
vn 0.660476 -3.78544e-05 -0.750847
vn 0.660476 -4.24576e-05 -0.750847
vn 0.660476 -3.7524e-05 -0.750847
vn 0.664235 -3.79379e-05 -0.747524
vn 0.664235 -3.7826e-05 -0.747524
vn 0.751094 4.88136e-06 0.660195
vn 0.751094 4.76394e-06 0.660195
vn -0.660476 3.79292e-05 0.750847
vn 0.751094 4.8507e-06 0.660195
vn 0 1 0
vn -0.00518452 0.999976 -0.00455127
vn -0.00518452 0.999976 -0.00455127
vn -0.0883224 0.993062 -0.0776335
vn -0.0883014 0.993073 -0.077516
vn 0.456911 0.793687 0.401614
vn 0.456911 0.793687 0.401615
vn 1.42043e-24 -1 -6.12323e-17
vn 7.10217e-25 -1 -6.12323e-17
vn 0 -1 -6.12323e-17
vn 0 -1 -6.12323e-17

# Mesh 'defaultobject' with 36 faces
g defaultobject
usemtl DefaultMaterial
f  1//1 2//1 3//1
f  3//1 4//2 5//2
f  4//2 3//1 6//3
f  6//3 3//1 2//1
f  7//4 8//4 9//4
f  8//4 7//4 10//5
f  6//6 11//6 4//6
f  11//6 6//6 12//7
f  12//8 9//8 11//8
f  9//8 12//8 7//9
f  7//9 12//8 13//10
f  7//9 13//10 14//11
f  8//12 15//12 16//12
f  15//12 8//12 10//13
f  16//14 17//14 18//14
f  17//14 16//14 15//15
f  19//16 5//2 20//16
f  5//2 19//16 3//1
f  18//14 19//17 20//17
f  19//17 18//14 17//14
f  15//18 7//18 17//18
f  7//18 15//18 10//18
f  17//18 3//18 19//18
f  3//18 17//18 7//18
f  13//19 6//19 2//19
f  6//19 13//19 12//20
f  14//21 2//21 1//21
f  2//22 14//22 13//22
f  7//23 1//23 3//23
f  1//23 7//23 14//24
f  5//25 18//25 20//25
f  18//25 5//25 9//26
f  4//27 9//26 5//25
f  9//26 4//27 11//28
f  9//26 16//27 18//25
f  16//27 9//26 8//27

