# {"id":"BLDG_00030000001ae7fe","idOriginal":"BLDG_00030000001ae7fe","origin":[13.345061311996043,52.548590868090876],"elevation":34.83}
# Longitude: 13.345061311996043
# Latitude: 52.548590868090876
# Elevation: 34.83

# File produced by Open Asset Import Library (http://www.assimp.sf.net)
# (assimp v3.1.0)

mtllib BLDG_00030000001ae7fe.obj.mtl

# 16 vertex positions
v  5.46422 21.96 -5.62064
v  0.000409618 19.24 -0.00060958
v  2.10511 22.41 -2.16551
v  8.27963 19.24 -8.51651
v  8.27922 5.21449e-16 -8.5159
v  5.46375 3.44123e-16 -5.61995
v  2.10463 1.32556e-16 -2.1648
v  0 0 0
v  12.8642 19.24 12.5712
v  18.328 21.96 6.95119
v  14.9689 22.41 10.4063
v  21.1434 19.24 4.05532
v  21.143 -2.48354e-16 4.05593
v  18.3275 -4.2568e-16 6.95189
v  14.9684 -6.37247e-16 10.407
v  12.8637 -7.69803e-16 12.5718

# 0 UV coordinates

# 27 vertex normals
vn -0.717 -6.76505e-06 -0.697073
vn -0.717 -6.73062e-06 -0.697073
vn -0.717 -6.81089e-06 -0.697073
vn -0.717 -6.82335e-06 -0.697073
vn -0.717 -6.82992e-06 -0.697073
vn -0.717 -6.82046e-06 -0.697073
vn 0.717 6.99437e-06 0.697073
vn 0.717 6.58302e-06 0.697073
vn 0.717 6.8139e-06 0.697073
vn 0.717001 6.94607e-06 0.697073
vn 0.717 6.82992e-06 0.697073
vn 0.717 6.79669e-06 0.697073
vn 0.698946 -3.75664e-05 -0.715175
vn 0.698946 -3.74782e-05 -0.715175
vn -0.698946 3.75494e-05 0.715175
vn -0.698946 3.75394e-05 0.715175
vn 0 -1 -6.12323e-17
vn 1.95447e-23 -1 -6.12323e-17
vn 0 -1 -6.12323e-17
vn 1.55973e-23 -1 -6.12324e-17
vn 4.88618e-24 -1 -6.12323e-17
vn 5.82967e-24 -1 -6.12323e-17
vn 0.390426 0.829442 -0.399491
vn 0.390426 0.829442 -0.399491
vn 0.0649871 0.995668 -0.066496
vn -0.506109 0.689692 0.51786
vn -0.506109 0.689692 0.51786

# Mesh 'defaultobject' with 28 faces
g defaultobject
usemtl DefaultMaterial
f  1//1 2//1 3//1
f  2//1 1//1 4//2
f  2//1 4//2 5//3
f  2//1 5//3 6//4
f  2//1 6//4 7//5
f  2//1 7//5 8//6
f  9//7 10//7 11//7
f  10//7 9//7 12//8
f  12//8 9//7 13//9
f  13//9 9//7 14//10
f  14//10 9//7 15//11
f  15//11 9//7 16//12
f  5//13 12//13 13//13
f  12//13 5//13 4//14
f  9//15 8//15 16//15
f  8//15 9//15 2//16
f  7//17 16//17 8//17
f  16//17 7//17 6//18
f  16//17 6//18 5//19
f  16//17 5//19 15//20
f  15//20 5//19 14//21
f  14//21 5//19 13//22
f  12//23 1//23 10//23
f  1//23 12//23 4//24
f  10//25 3//25 11//25
f  3//25 10//25 1//25
f  11//26 2//26 9//26
f  2//26 11//26 3//27

