# {"id":"BLDG_000300000019ef30","idOriginal":"BLDG_000300000019ef30","origin":[13.405628406409544,52.52711127579015],"elevation":36.4599990844727}
# Longitude: 13.405628406409544
# Latitude: 52.52711127579015
# Elevation: 36.4599990844727

# File produced by Open Asset Import Library (http://www.assimp.sf.net)
# (assimp v3.1.0)

mtllib BLDG_000300000019ef30.obj.mtl

# 17 vertex positions
v  2.22631 3.29465e-16 -5.38056
v  11.0337 7.41442e-16 -12.1087
v  7.36891 1.991e-16 -3.25155
v  5.71627 8.45934e-16 -13.8151
v  5.1426 -1.30364e-16 2.12901
v  18.3198 -7.85044e-17 1.28207
v  18.3095 -4.64144e-16 7.58004
v  0 0 0
v  7.36929 17.6187 -3.25211
v  11.0341 17.6174 -12.1092
v  2.22668 17.6187 -5.38112
v  5.71665 17.6187 -13.8157
v  18.3202 17.6174 1.28152
v  5.14298 17.6187 2.12845
v  18.3099 17.6187 7.57948
v  7.36929 17.6174 -3.25211
v  0.00037653 17.6187 -0.000557381

# 0 UV coordinates

# 22 vertex normals
vn -2.97686e-24 -1 -6.12323e-17
vn -5.20998e-24 -1 -6.12323e-17
vn 6.37972e-25 -1 -6.12323e-17
vn 8.16718e-25 -1 -6.12323e-17
vn 5.09965e-05 1 -0.000123181
vn 0.000212156 1 8.77833e-05
vn 8.39469e-05 1 -0.000202773
vn 8.39469e-05 1 -0.000202773
vn 0.000212156 1 8.77833e-05
vn 0.924025 -7.63476e-06 0.382332
vn 0.924025 -7.68049e-06 0.382332
vn -0.924025 7.6476e-06 -0.382332
vn -0.924025 7.64975e-06 -0.382332
vn 0.305572 -3.66841e-05 -0.952169
vn 0.305572 -3.66352e-05 -0.952169
vn -0.382511 3.73756e-05 0.923951
vn 0.382511 -3.74029e-05 -0.923951
vn 0.382511 -3.73926e-05 -0.923951
vn 0.999999 -2.12748e-05 0.00164024
vn 0.999999 -2.12763e-05 0.00164025
vn -0.382511 3.74124e-05 0.923951
vn -0.924025 7.65202e-06 -0.382332

# Mesh 'defaultobject' with 28 faces
g defaultobject
usemtl DefaultMaterial
f  1//1 2//1 3//1
f  2//1 1//1 4//2
f  5//3 6//3 7//3
f  6//3 5//3 3//1
f  8//4 3//1 5//3
f  3//1 8//4 1//1
f  9//5 10//5 11//5
f  11//6 10//6 12//6
f  13//7 14//7 15//7
f  14//7 13//7 16//8
f  14//7 16//8 17//8
f  17//9 16//9 11//6
f  2//10 9//10 3//10
f  9//10 2//10 10//11
f  11//12 4//12 1//12
f  4//12 11//12 12//13
f  12//14 2//14 4//14
f  2//14 12//14 10//15
f  7//16 14//16 5//16
f  14//16 7//16 15//16
f  16//17 6//17 3//17
f  6//17 16//17 13//18
f  6//19 15//19 7//19
f  15//19 6//19 13//20
f  5//16 17//21 8//21
f  17//21 5//16 14//16
f  17//22 1//12 8//22
f  1//12 17//22 11//12

