# {"id":"BLDG_0003000b0009a928","idOriginal":"BLDG_0003000b0009a928","origin":[13.38074904788421,52.5403379088438],"elevation":35.0099983215332}
# Longitude: 13.38074904788421
# Latitude: 52.5403379088438
# Elevation: 35.0099983215332

# File produced by Open Asset Import Library (http://www.assimp.sf.net)
# (assimp v3.1.0)

mtllib BLDG_0003000b0009a928.obj.mtl

# 28 vertex positions
v  63.1019 10.9253 6.45453
v  62.2907 10.9253 15.8548
v  67.2471 10.9253 10.0469
v  58.5771 10.9253 23.3556
v  45.9415 10.9253 39.1612
v  52.749 10.9253 18.3354
v  25.4713 10.9253 21.7119
v  38.7547 10.9253 6.27989
v  34.9832 10.9253 3.03028
v  12.7253 10.9253 -16.1436
v  21.7196 10.9253 18.5139
v  0.000233123 10.9253 -0.000345941
v  5.71454 10.9253 -7.25002
v  63.6229 10.9253 17.0465
v  58.5769 -1.43014e-15 23.3559
v  62.2905 -9.7085e-16 15.8552
v  63.6227 -1.04382e-15 17.0468
v  45.9412 -2.39795e-15 39.1615
v  63.1016 -3.95247e-16 6.45487
v  67.2468 -6.15217e-16 10.0473
v  52.7488 -1.12274e-15 18.3357
v  25.4711 -1.32949e-15 21.7122
v  38.7544 -3.84554e-16 6.28024
v  34.983 -1.85572e-16 3.03062
v  21.7193 -1.13367e-15 18.5143
v  12.7251 9.88489e-16 -16.1432
v  0 0 0
v  5.71431 4.43915e-16 -7.24968

# 0 UV coordinates

# 40 vertex normals
vn 0 1 -0
vn -4.40619e-23 -1 -6.12324e-17
vn 2.34762e-23 -1 -6.12323e-17
vn -5.05632e-24 -1 -6.12323e-17
vn 2.51481e-23 -1 -6.12323e-17
vn -6.21568e-24 -1 -6.12323e-17
vn -6.75647e-24 -1 -6.12323e-17
vn 2.08902e-24 -1 -6.12323e-17
vn 0 -1 -6.12323e-17
vn 0 -1 -6.12323e-17
vn 0 -1 -6.12323e-17
vn 1.66951e-19 -1 -6.1104e-17
vn 0.780957 3.1983e-06 0.624585
vn 0.780957 3.09025e-06 0.624585
vn 0.666692 -3.78121e-05 -0.745333
vn 0.666693 -3.78793e-05 -0.745333
vn 0.760671 4.09287e-06 0.649138
vn 0.760671 4.36725e-06 0.649138
vn 0.65492 -3.78589e-05 -0.755698
vn 0.654921 -3.81135e-05 -0.755698
vn -0.753924 -4.7017e-06 -0.656961
vn -0.753924 -4.73038e-06 -0.656961
vn 0.652673 -3.79579e-05 -0.75764
vn 0.652673 -3.78823e-05 -0.75764
vn 0.652748 -3.78911e-05 -0.757576
vn 0.652748 -3.79086e-05 -0.757576
vn 0.652667 -3.81281e-05 -0.757645
vn 0.652667 -3.8033e-05 -0.757645
vn -0.785333 -2.82824e-06 -0.619074
vn -0.785333 -2.87502e-06 -0.619074
vn -0.785363 -2.84326e-06 -0.619035
vn -0.785363 -2.8264e-06 -0.619035
vn -0.648722 3.7865e-05 0.761025
vn -0.648722 3.79398e-05 0.761025
vn -0.648709 3.79979e-05 0.761036
vn -0.648709 3.7865e-05 0.761037
vn -0.64872 3.82243e-05 0.761027
vn -0.64872 3.79978e-05 0.761028
vn 0.781083 3.10589e-06 0.624428
vn 0.781082 2.96785e-06 0.624428

# Mesh 'defaultobject' with 52 faces
g defaultobject
usemtl DefaultMaterial
f  1//1 2//1 3//1
f  2//1 1//1 4//1
f  4//1 1//1 5//1
f  5//1 1//1 6//1
f  5//1 6//1 7//1
f  7//1 6//1 8//1
f  7//1 8//1 9//1
f  7//1 9//1 10//1
f  7//1 10//1 11//1
f  11//1 10//1 12//1
f  12//1 10//1 13//1
f  4//1 14//1 2//1
f  15//2 16//2 17//2
f  16//2 15//2 18//3
f  16//2 19//4 20//4
f  19//4 16//2 18//3
f  19//4 18//3 21//5
f  21//5 18//3 22//6
f  21//5 22//6 23//7
f  23//7 22//6 24//8
f  24//8 22//6 25//9
f  24//8 25//9 26//10
f  26//10 25//9 27//11
f  26//10 27//11 28//12
f  4//13 17//13 14//13
f  17//13 4//13 15//14
f  14//15 16//15 2//15
f  16//15 14//15 17//16
f  2//17 20//17 3//17
f  20//17 2//17 16//18
f  3//19 19//19 1//19
f  19//19 3//19 20//20
f  6//21 19//21 21//21
f  19//21 6//21 1//22
f  6//23 23//23 8//23
f  23//23 6//23 21//24
f  8//25 24//25 9//25
f  24//25 8//25 23//26
f  9//27 26//27 10//27
f  26//27 9//27 24//28
f  13//29 26//29 28//29
f  26//29 13//29 10//30
f  12//31 28//31 27//31
f  28//31 12//31 13//32
f  11//33 27//33 25//33
f  27//33 11//33 12//34
f  7//35 25//35 22//35
f  25//35 7//35 11//36
f  5//37 22//37 18//37
f  22//37 5//37 7//38
f  5//39 15//39 4//39
f  15//39 5//39 18//40

