# {"id":"BLDG_0003000b00260875","idOriginal":"BLDG_0003000b00260875","origin":[13.34781295390793,52.539769529641596],"elevation":36.21}
# Longitude: 13.34781295390793
# Latitude: 52.539769529641596
# Elevation: 36.21

# File produced by Open Asset Import Library (http://www.assimp.sf.net)
# (assimp v3.1.0)

mtllib BLDG_0003000b00260875.obj.mtl

# 55 vertex positions
v  31.812 21.3059 -17.5242
v  28.2049 21.35 -22.1586
v  29.2727 18.46 -15.5292
v  31.8459 21.3439 -17.5509
v  31.8513 21.35 -17.5551
v  25.6263 21.2 -20.1328
v  12.9155 19.2202 -4.75086
v  13.9185 18.46 -3.4667
v  10.3036 21.2 -8.09503
v  7.72447 20.3476 -6.06879
v  10.3036 21.1963 -8.09503
v  13.9185 18.4614 -3.4667
v  45.3737 20.33 -11.6465
v  31.812 21.35 -17.5242
v  39.8847 21.35 -7.33265
v  37.491 20.33 -21.9857
v  31.8513 21.3429 -17.5551
v  37.3457 18.46 -5.33719
v  33.9301 20.33 -26.6564
v  39.6372 18.46 -23.6718
v  36.0763 18.46 -28.3424
v  47.5195 18.46 -13.3329
v  11.3394 20.3476 -1.44055
v  21.924 18.4614 6.78301
v  19.3453 20.3476 8.80964
v  2.14707 21.3284 -1.6871
v  5.76197 21.3284 2.94114
v  13.7687 21.3284 13.1924
v  0.000393102 18.4614 -0.00058457
v  3.61529 18.4614 4.62766
v  11.6223 18.4614 14.8793
v  44.4544 18.46 -27.4563
v  40.8935 18.46 -32.127
v  44.4541 1.68118e-15 -27.4557
v  39.6368 1.44944e-15 -23.6712
v  40.8931 1.96717e-15 -32.1264
v  2.14662 -9.15527e-07 -1.68642
v  3.6149 -9.15527e-07 4.62824
v  0 -9.15527e-07 -5.60599e-23
v  7.72404 -9.15527e-07 -6.06814
v  10.3032 -9.15527e-07 -8.09436
v  25.6259 1.23274e-15 -20.1322
v  13.9181 -9.15527e-07 -3.46612
v  29.2723 9.50856e-16 -15.5287
v  28.2045 1.35678e-15 -22.1579
v  33.9297 1.63219e-15 -26.6558
v  36.0759 1.73544e-15 -28.3419
v  37.3453 3.26773e-16 -5.3366
v  39.8843 4.48954e-16 -7.33198
v  45.3732 7.13103e-16 -11.6459
v  47.5191 8.16371e-16 -13.3323
v  11.6219 -9.15527e-07 14.8799
v  13.7683 -9.15527e-07 13.193
v  19.3449 -9.15527e-07 8.81029
v  21.9236 -9.15527e-07 6.7836

# 0 UV coordinates

# 89 vertex normals
vn -0.518285 0.75023 0.410531
vn -0.518303 0.75021 0.410545
vn -0.518245 0.750275 0.410499
vn 0.228496 0.905377 0.357887
vn 0.261203 0.906217 0.332481
vn 0.261203 0.906217 0.332481
vn 0.261203 0.906217 0.332481
vn 0.0739601 0.882807 0.463877
vn 0.0739601 0.882807 0.463877
vn 0.113327 0.989494 -0.0897659
vn 0.111219 0.990173 -0.0847847
vn 0.111225 0.990171 -0.0847982
vn -0.564828 -0.580842 -0.586167
vn -0.522756 0.745165 0.414072
vn -0.522755 0.745165 0.414072
vn 0.449523 0.824909 -0.342716
vn 0.449522 0.824909 -0.342716
vn 0.449523 0.824909 -0.342717
vn 0.392898 0.866868 -0.306874
vn 0.392898 0.866868 -0.306874
vn 0.392898 0.866868 -0.306874
vn 0.107953 0.990574 -0.0843173
vn 0.107953 0.990574 -0.0843173
vn 0.107953 0.990574 -0.0843173
vn 0.107953 0.990574 -0.0843172
vn -0.570748 0.689582 0.445784
vn -0.570748 0.689582 0.445784
vn -0.570748 0.689582 0.445784
vn -0.570748 0.689582 0.445784
vn 0 1 0
vn 0.108759 0.990328 -0.0861472
vn 0.111985 0.990035 -0.0853774
vn -1.17721e-23 -1 -6.12324e-17
vn 0 -1 0
vn 1.01788e-07 -1 5.35101e-08
vn -9.63094e-08 -1 -1.22591e-07
vn 3.67551e-08 -1 -2.91135e-08
vn -1.09962e-23 -1 -6.12323e-17
vn 1.98105e-23 -1 -6.12323e-17
vn 5.28463e-23 -1 -6.12323e-17
vn -7.41403e-24 -1 -6.12323e-17
vn 5.04454e-24 -1 -6.12323e-17
vn 9.33337e-24 -1 -6.12323e-17
vn 8.95268e-24 -1 -6.12323e-17
vn -0.7881 3.6272e-05 0.615547
vn -0.7881 3.62651e-05 0.615547
vn -0.7881 3.62651e-05 0.615547
vn 0.795241 -3.60992e-05 -0.606293
vn 0.795242 -3.62223e-05 -0.606292
vn 0.617774 1.17051e-05 0.786355
vn 0.617775 1.17263e-05 0.786355
vn 0.617775 1.17263e-05 0.786355
vn 0.795242 -3.60812e-05 -0.606293
vn -0.783883 3.63319e-05 0.620909
vn -0.783883 3.6348e-05 0.620909
vn 0.7881 -3.6256e-05 -0.615547
vn 0.7881 -3.62588e-05 -0.615547
vn 0.7881 0 -0.615547
vn -0.617775 0.000209682 -0.786355
vn -0.617775 -1.17605e-05 -0.786355
vn -0.617775 -1.14563e-05 -0.786355
vn -0.617775 -1.1786e-05 -0.786355
vn -0.617774 -1.1751e-05 -0.786355
vn -0.617775 -1.07944e-05 -0.786355
vn -0.617775 -1.19625e-05 -0.786355
vn -0.617775 -1.13432e-05 -0.786355
vn -0.617775 -1.19776e-05 -0.786355
vn -0.617774 -1.20953e-05 -0.786355
vn -0.617775 -1.18738e-05 -0.786355
vn -0.617775 -1.17605e-05 -0.786355
vn -0.617775 -1.17559e-05 -0.786355
vn -0.617775 -1.1718e-05 -0.786355
vn -0.617775 -1.17477e-05 -0.786355
vn -0.617775 -1.17451e-05 -0.786355
vn -0.617775 -1.17695e-05 -0.786355
vn -0.617798 0 -0.786337
vn -0.617783 -0 -0.786349
vn 0.61792 1.16214e-05 0.786241
vn 0.61792 1.26119e-05 0.786241
vn 0.61792 1.17063e-05 0.786241
vn 0.61792 1.16978e-05 0.786241
vn 0.61792 1.17512e-05 0.786241
vn 0.61792 1.17268e-05 0.786241
vn 0.61792 1.16451e-05 0.786241
vn 0.61792 1.19624e-05 0.786241
vn 0.61792 1.1746e-05 0.786241
vn 0.61792 1.1718e-05 0.786241
vn 0.61792 1.16822e-05 0.786241
vn 0.61792 1.17467e-05 0.786241

# Mesh 'defaultobject' with 102 faces
g defaultobject
usemtl DefaultMaterial
f  1//1 2//1 3//1
f  2//2 1//2 4//2
f  2//3 4//3 5//3
f  2//4 6//4 3//4
f  3//5 7//5 8//5
f  7//5 3//5 9//6
f  9//6 3//5 6//7
f  10//8 7//8 11//8
f  7//8 10//8 12//9
f  13//10 14//10 15//10
f  14//11 13//11 4//11
f  4//12 13//12 16//12
f  4//13 16//13 17//13
f  18//14 14//14 3//14
f  14//14 18//14 15//15
f  19//16 20//16 21//16
f  20//16 19//16 16//16
f  20//16 16//16 22//17
f  22//17 16//16 13//18
f  23//19 12//19 10//19
f  12//19 23//19 24//20
f  24//20 23//19 25//21
f  26//22 23//22 10//22
f  23//22 26//22 25//23
f  25//23 26//22 27//24
f  25//23 27//24 28//25
f  29//26 27//26 26//26
f  27//26 29//26 30//27
f  27//26 30//27 28//28
f  28//28 30//27 31//29
f  32//30 21//30 20//30
f  21//30 32//30 33//30
f  5//31 19//31 2//31
f  19//32 5//32 16//32
f  34//33 35//33 36//33
f  37//34 38//34 39//34
f  38//34 37//34 40//34
f  38//34 40//34 41//34
f  38//34 41//34 42//35
f  38//34 42//35 43//36
f  43//36 42//35 44//37
f  44//37 42//35 45//38
f  44//37 45//38 46//39
f  44//37 46//39 47//40
f  44//37 47//40 36//33
f  44//37 36//33 35//33
f  44//37 35//33 48//41
f  48//41 35//33 49//42
f  49//42 35//33 50//43
f  50//43 35//33 51//44
f  43//36 52//34 38//34
f  52//34 43//36 53//34
f  53//34 43//36 54//34
f  54//34 43//36 55//34
f  39//45 30//45 29//45
f  30//45 39//45 31//46
f  31//46 39//45 52//47
f  52//34 39//45 38//34
f  36//48 32//48 34//48
f  32//48 36//48 33//49
f  34//50 20//50 35//50
f  20//50 34//50 32//50
f  44//51 8//51 43//51
f  8//51 44//51 3//52
f  35//53 22//53 51//53
f  22//53 35//53 20//53
f  18//54 44//54 48//54
f  44//54 18//54 3//55
f  43//56 24//56 55//56
f  24//56 43//56 8//57
f  24//58 8//58 12//58
f  6//59 11//59 9//59
f  11//60 6//60 41//60
f  41//60 6//60 2//61
f  41//60 2//61 19//62
f  41//60 19//62 21//63
f  41//60 21//63 33//64
f  41//60 33//64 42//65
f  42//65 33//64 45//66
f  45//66 33//64 46//67
f  46//67 33//64 47//68
f  47//68 33//64 36//69
f  41//60 10//70 11//60
f  10//70 41//60 29//71
f  29//71 41//60 40//72
f  29//71 40//72 37//73
f  29//71 37//73 39//74
f  29//71 26//75 10//70
f  1//76 14//76 4//76
f  14//77 1//77 3//77
f  18//78 13//78 15//78
f  13//78 18//78 22//79
f  22//79 18//78 51//80
f  51//80 18//78 50//81
f  50//81 18//78 49//82
f  49//82 18//78 48//83
f  31//84 25//84 28//84
f  25//84 31//84 24//85
f  24//85 31//84 55//86
f  55//86 31//84 54//87
f  54//87 31//84 53//88
f  53//88 31//84 52//89

