# {"id":"BLDG_00030000001a1cbc","idOriginal":"BLDG_00030000001a1cbc","origin":[13.405547431896558,52.53538198984408],"elevation":51.8199996948242}
# Longitude: 13.405547431896558
# Latitude: 52.53538198984408
# Elevation: 51.8199996948242

# File produced by Open Asset Import Library (http://www.assimp.sf.net)
# (assimp v3.1.0)

mtllib BLDG_00030000001a1cbc.obj.mtl

# 8 vertex positions
v  0.000504412 23.6022 -0.00074707
v  6.64048 23.5523 3.93584
v  8.27109 23.6022 -13.8781
v  14.9111 23.6022 -9.94151
v  8.27058 8.49743e-16 -13.8773
v  6.63998 -2.41046e-16 3.93658
v  0 0 0
v  14.9106 6.08696e-16 -9.94077

# 0 UV coordinates

# 12 vertex normals
vn 0.00555504 0.999979 0.00331068
vn -0.00157582 0.999995 0.00265799
vn 1.35848e-23 -1 -6.12323e-17
vn -1.35848e-23 -1 -6.12324e-17
vn -0.509973 3.81176e-05 0.86019
vn -0.509973 3.81145e-05 0.86019
vn -0.859014 2.15372e-06 -0.511953
vn -0.859014 2.14344e-06 -0.511953
vn 0.509973 -3.815e-05 -0.86019
vn 0.509973 -3.80947e-05 -0.86019
vn 0.859014 -2.16558e-06 0.511953
vn 0.859014 -2.14099e-06 0.511953

# Mesh 'defaultobject' with 12 faces
g defaultobject
usemtl DefaultMaterial
f  1//1 2//1 3//1
f  3//2 2//2 4//2
f  5//3 6//3 7//3
f  6//3 5//3 8//4
f  6//5 1//5 7//5
f  1//5 6//5 2//6
f  1//7 5//7 7//7
f  5//7 1//7 3//8
f  3//9 8//9 5//9
f  8//9 3//9 4//10
f  8//11 2//11 6//11
f  2//11 8//11 4//12

