# {"id":"BLDG_0003000a0010cac1","idOriginal":"BLDG_0003000a0010cac1","origin":[13.321871487703536,52.55513429399904],"elevation":36.5099983215332}
# Longitude: 13.321871487703536
# Latitude: 52.55513429399904
# Elevation: 36.5099983215332

# File produced by Open Asset Import Library (http://www.assimp.sf.net)
# (assimp v3.1.0)

mtllib BLDG_0003000a0010cac1.obj.mtl

# 12 vertex positions
v  3.3479 3.31322e-16 -5.41091
v  31.1404 -1.13044e-15 18.4614
v  0 0 0
v  6.64503 6.5762e-16 -10.7397
v  34.3016 -7.92339e-16 12.9399
v  37.5108 -4.49113e-16 7.33457
v  9.7775e-05 4.59928 -0.00014578
v  3.34801 5.16458 -5.41107
v  6.64512 4.60785 -10.7399
v  37.5109 4.59071 7.33443
v  34.3017 5.16458 12.9397
v  31.1405 4.59928 18.4613

# 0 UV coordinates

# 18 vertex normals
vn 0 -1 -6.12323e-17
vn 1.49381e-23 -1 -6.12324e-17
vn 0 -1 -6.12323e-17
vn 3.66656e-24 -1 -6.12323e-17
vn -0.850385 1.40083e-06 -0.526161
vn -0.850385 1.39559e-06 -0.526161
vn -0.850385 1.39559e-06 -0.526161
vn -0.850385 1.2699e-06 -0.52616
vn 0.505316 -3.82241e-05 -0.862935
vn 0.505316 -3.82554e-05 -0.862935
vn 0.867832 -2.85892e-06 0.496857
vn 0.867832 -3.02332e-06 0.496857
vn 0.867832 -2.73756e-06 0.496857
vn -0.509964 3.81239e-05 0.860196
vn 0.0451375 0.996075 -0.0761368
vn 0.0451374 0.996075 -0.0761368
vn -0.0451371 0.996075 0.0761363
vn -0.0451372 0.996075 0.0761364

# Mesh 'defaultobject' with 20 faces
g defaultobject
usemtl DefaultMaterial
f  1//1 2//1 3//1
f  2//1 1//1 4//2
f  2//1 4//2 5//3
f  5//3 4//2 6//4
f  7//5 1//5 3//5
f  1//5 7//5 8//6
f  8//6 4//7 1//5
f  4//7 8//6 9//8
f  9//9 6//9 4//9
f  6//9 9//9 10//10
f  6//11 11//11 5//11
f  11//11 6//11 10//12
f  5//11 12//13 2//13
f  12//13 5//11 11//11
f  2//14 7//14 3//14
f  7//14 2//14 12//14
f  10//15 8//15 11//15
f  8//15 10//15 9//16
f  12//17 8//17 7//17
f  8//17 12//17 11//18

