# {"id":"BLDG_00030000001b907d","idOriginal":"BLDG_00030000001b907d","origin":[13.343075797579408,52.56097251358428],"elevation":38.2099990844727}
# Longitude: 13.343075797579408
# Latitude: 52.56097251358428
# Elevation: 38.2099990844727

# File produced by Open Asset Import Library (http://www.assimp.sf.net)
# (assimp v3.1.0)

mtllib BLDG_00030000001b907d.obj.mtl

# 8 vertex positions
v  5.1998e-05 2.44261 -7.746e-05
v  6.26375 2.44261 -2.36174
v  4.07376 2.44261 -4.40325
v  2.19147 2.44261 2.03047
v  4.07371 2.69616e-16 -4.40317
v  6.26369 1.4461e-16 -2.36167
v  0 0 0
v  2.19142 -1.24335e-16 2.03055

# 0 UV coordinates

# 11 vertex normals
vn 0 1 0
vn 0.681875 -3.76876e-05 -0.731469
vn 0.681875 -3.7818e-05 -0.731469
vn -0.734035 -5.9099e-06 -0.679112
vn -0.734035 -5.99028e-06 -0.679111
vn -0.679671 3.76599e-05 0.733517
vn -0.679671 3.773e-05 0.733517
vn 0.73331 5.73631e-06 0.679895
vn 0.73331 5.86669e-06 0.679895
vn 0 -1 -6.12323e-17
vn -5.90809e-24 -1 -6.12323e-17

# Mesh 'defaultobject' with 12 faces
g defaultobject
usemtl DefaultMaterial
f  1//1 2//1 3//1
f  2//1 1//1 4//1
f  5//2 2//2 6//2
f  2//2 5//2 3//3
f  1//4 5//4 7//4
f  5//4 1//4 3//5
f  4//6 7//6 8//6
f  7//6 4//6 1//7
f  6//8 4//8 8//8
f  4//8 6//8 2//9
f  8//10 5//10 6//10
f  5//10 8//10 7//11

