# {"id":"BLDG_000300020069eec4","idOriginal":"BLDG_000300020069eec4","origin":[13.397035017308232,52.535152980626535],"elevation":41.2099990844727}
# Longitude: 13.397035017308232
# Latitude: 52.535152980626535
# Elevation: 41.2099990844727

# File produced by Open Asset Import Library (http://www.assimp.sf.net)
# (assimp v3.1.0)

mtllib BLDG_000300020069eec4.obj.mtl

# 27 vertex positions
v  1.81461 21.5821 5.68978
v  0 0 0
v  1.81415 -3.4844e-16 5.69046
v  0.000460989 21.5821 -0.00068313
v  5.52249 1.21201e-16 -1.97937
v  5.52295 21.5821 -1.98005
v  5.28453 21.5821 16.5739
v  5.28407 -1.0149e-15 16.5746
v  7.33664 -2.27239e-16 3.7111
v  10.8712 17.7505 14.7964
v  10.8709 -9.0605e-16 14.7969
v  7.33702 17.7505 3.71053
v  14.8557 -1.67142e-15 27.2963
v  9.26932 17.7505 29.0734
v  9.26894 -1.78027e-15 29.074
v  14.8561 17.7505 27.2957
v  7.27697 21.5821 22.8236
v  14.1219 3.09931e-16 -5.06156
v  14.1224 21.5821 -5.06224
v  15.9063 17.7505 0.639149
v  15.9059 -3.9171e-17 0.639711
v  19.4788 -7.38338e-16 12.058
v  19.4792 17.7505 12.0574
v  23.3967 -1.50501e-15 24.5787
v  23.3971 17.7505 24.5781
v  21.4382 21.5821 18.3176
v  12.8638 21.5821 21.0459

# 0 UV coordinates

# 43 vertex normals
vn -0.952754 2.99551e-05 0.303743
vn -0.952754 2.99649e-05 0.303743
vn -0.337402 -2.25897e-05 -0.941361
vn -0.337402 -2.25905e-05 -0.941361
vn -0.952754 2.99715e-05 0.303743
vn 0.952754 -2.99396e-05 -0.303743
vn 0.952754 -2.9995e-05 -0.303743
vn 0.30321 2.36432e-05 0.952924
vn 0.30321 2.37256e-05 0.952924
vn -0.952754 2.99174e-05 0.303743
vn -0.952754 3.00514e-05 0.303743
vn -0.337402 -2.25905e-05 -0.941361
vn -0.337402 -2.25883e-05 -0.941361
vn 0.954368 -2.98139e-05 -0.298633
vn 0.954368 -2.98688e-05 -0.298633
vn 0.337402 2.25931e-05 0.941361
vn 0.337402 2.26049e-05 0.941361
vn -0.30321 -2.3688e-05 -0.952924
vn -0.30321 -2.37229e-05 -0.952924
vn 0.954368 -2.98738e-05 -0.298633
vn 0.954368 -2.98417e-05 -0.298633
vn 0.954368 -2.96716e-05 -0.298633
vn 0.30321 2.37257e-05 0.952924
vn 0.30321 2.36178e-05 0.952924
vn -1.9418e-24 -1 -6.12323e-17
vn 0 -1 -6.12323e-17
vn -3.57373e-24 -1 -6.12323e-17
vn -1.26062e-23 -1 -6.12323e-17
vn 3.0237e-24 -1 -6.12323e-17
vn 0 -1 -6.12323e-17
vn 0.182265 0.841535 0.508525
vn 0.182265 0.841535 0.508525
vn -0.152935 0.863478 -0.480641
vn -0.152935 0.863478 -0.480641
vn 0.152932 0.863484 0.480631
vn 0.152932 0.863485 0.480631
vn 0.521235 0.837078 -0.166173
vn 0.182265 0.841535 0.508525
vn 0.521236 0.837078 -0.166173
vn 0.152932 0.863484 0.480631
vn 0.152932 0.863484 0.480631
vn 0.521236 0.837078 -0.166173
vn -0.152935 0.863478 -0.480641

# Mesh 'defaultobject' with 50 faces
g defaultobject
usemtl DefaultMaterial
f  1//1 2//1 3//1
f  2//1 1//1 4//2
f  4//3 5//3 2//3
f  5//3 4//3 6//4
f  7//5 3//1 8//5
f  3//1 7//5 1//1
f  9//6 10//6 11//6
f  10//6 9//6 12//7
f  13//8 14//8 15//8
f  14//8 13//8 16//9
f  14//10 8//5 15//10
f  8//5 14//10 7//5
f  7//5 14//10 17//11
f  6//4 18//12 5//3
f  18//12 6//4 19//13
f  18//14 20//14 21//14
f  20//14 18//14 19//15
f  21//16 12//16 9//16
f  12//16 21//16 20//17
f  10//18 22//18 11//18
f  22//18 10//18 23//19
f  23//20 24//20 22//20
f  24//20 23//20 25//21
f  25//21 23//20 26//22
f  24//23 16//9 13//8
f  16//9 24//23 25//24
f  21//25 5//25 18//25
f  5//25 21//25 9//26
f  22//27 13//27 11//27
f  13//27 22//27 24//28
f  2//29 9//26 3//29
f  9//26 2//29 5//25
f  3//29 11//27 8//30
f  11//27 3//29 9//26
f  15//26 11//27 13//27
f  11//27 15//26 8//30
f  20//31 6//31 12//31
f  6//31 20//31 19//32
f  26//33 10//33 27//33
f  10//33 26//33 23//34
f  25//35 27//35 16//35
f  27//35 25//35 26//36
f  1//37 12//37 4//37
f  4//38 12//31 6//31
f  12//37 7//39 10//39
f  7//39 12//37 1//37
f  27//35 14//40 16//35
f  14//40 27//35 17//41
f  17//42 10//39 7//39
f  17//43 27//33 10//33

