# {"id":"BLDG_0003000b00099b1f","idOriginal":"BLDG_0003000b00099b1f","origin":[13.357041501549764,52.54060121562373],"elevation":35.810001373291}
# Longitude: 13.357041501549764
# Latitude: 52.54060121562373
# Elevation: 35.810001373291

# File produced by Open Asset Import Library (http://www.assimp.sf.net)
# (assimp v3.1.0)

mtllib BLDG_0003000b00099b1f.obj.mtl

# 43 vertex positions
v  -20.1949 2.52235e-16 -4.11931
v  -11.9402 -2.74971e-16 4.49062
v  -16.4455 -3.78725e-16 6.18505
v  -15.6691 3.52539e-16 -5.7574
v  -21.1887 4.19481e-16 -6.85065
v  -23.2809 7.7155e-16 -12.6004
v  -24.6519 1.00228e-15 -16.3685
v  -3.62486 6.19469e-16 -10.1167
v  -20.1261 1.10259e-15 -18.0066
v  -4.60525 7.87013e-16 -12.8529
v  -6.66908 1.13971e-15 -18.6129
v  -8.02162 1.37085e-15 -22.3877
v  -12.3712 -1.06437e-15 17.3825
v  -5.02682 -1.43838e-15 23.4906
v  -9.57299 -1.53527e-15 25.0729
v  -7.82504 -9.67487e-16 15.8003
v  4.16599 -1.37329e-06 11.6269
v  2.08299 -1.37329e-06 5.81347
v  0 -1.37329e-06 -8.40898e-23
v  -11.9398 17.95 4.49005
v  -7.82466 17.95 15.7997
v  -13.8972 20.56 11.5984
v  -24.6515 19.2029 -16.3691
v  -23.2804 21.6467 -12.6011
v  -21.1883 20.9905 -6.85131
v  -20.1945 21.2738 -4.11998
v  -16.4451 21.2738 6.18438
v  -12.3708 21.2738 17.3818
v  -9.57254 21.2738 25.0722
v  -4.6048 20.9905 -12.8536
v  -8.02121 19.2029 -22.3883
v  -6.66862 21.6467 -18.6136
v  -3.62445 19.2029 -10.1173
v  0.000382438 17.95 -0.0005684
v  4.16637 17.95 11.6264
v  2.08343 20.56 5.81282
v  -20.1257 19.2029 -18.0072
v  -5.02641 19.2029 23.49
v  -11.9398 19.2029 4.49001
v  -15.6687 19.2029 -5.75801
v  -7.82463 19.2029 15.7997
v  -18.7545 21.6467 -14.2392
v  -16.6624 20.9905 -8.48941

# 0 UV coordinates

# 78 vertex normals
vn 0 -1 -6.12323e-17
vn 8.06863e-24 -1 -6.12323e-17
vn 3.31118e-24 -1 -6.12323e-17
vn 5.39292e-24 -1 -6.12324e-17
vn -2.19438e-23 -1 -6.12323e-17
vn 0 -1 -6.12323e-17
vn -6.75043e-24 -1 -6.12323e-17
vn 1.13193e-23 -1 -6.12324e-17
vn 1.07541e-23 -1 -6.12323e-17
vn 9.74322e-24 -1 -6.12323e-17
vn 1.07521e-23 -1 -6.12323e-17
vn 2.15042e-23 -1 -6.12323e-17
vn -8.72894e-08 -1 7.82592e-08
vn -1.01356e-07 -1 3.63163e-08
vn -1.01356e-07 -1 3.63163e-08
vn -0.4901 -0.85323 0.178329
vn -0.939725 3.09014e-05 0.34193
vn -0.939725 3.0909e-05 0.341931
vn -0.939725 3.08929e-05 0.341931
vn -0.939725 3.08342e-05 0.34193
vn -0.939725 3.07786e-05 0.34193
vn -0.939725 3.07619e-05 0.34193
vn -0.939725 3.11311e-05 0.341931
vn -0.939725 3.07671e-05 0.34193
vn -0.939725 3.07761e-05 0.34193
vn -0.939725 3.08513e-05 0.341931
vn -0.939725 3.08496e-05 0.341931
vn -0.939725 3.08293e-05 0.34193
vn 0.941395 -3.05888e-05 -0.337306
vn 0.941395 -3.07781e-05 -0.337306
vn 0.941395 -3.07444e-05 -0.337306
vn 0.941395 -3.07391e-05 -0.337306
vn -4.44089e-16 1 2.22045e-16
vn 0 1 5.55112e-17
vn 0.941395 -3.07382e-05 -0.337306
vn 0.941395 -3.07573e-05 -0.337306
vn 0.941395 -3.07372e-05 -0.337306
vn 0.941395 -3.07088e-05 -0.337306
vn -0.340335 -2.25426e-05 -0.940304
vn -0.340335 -2.27412e-05 -0.940304
vn -0.340335 -2.24533e-05 -0.940304
vn -0.340335 -2.25257e-05 -0.940304
vn 0.939725 -3.03589e-05 -0.341931
vn 0.939725 -3.08528e-05 -0.34193
vn 0.939725 -3.08481e-05 -0.34193
vn 0.939725 -3.0858e-05 -0.34193
vn 0.939725 -3.09602e-05 -0.34193
vn 0.939725 -3.08487e-05 -0.34193
vn 0.340335 2.25346e-05 0.940304
vn 0.340335 2.25656e-05 0.940304
vn -0.35202 -2.21386e-05 -0.935993
vn -0.35202 -2.21389e-05 -0.935993
vn 0.328699 2.2898e-05 0.944435
vn 0.328699 2.2898e-05 0.944435
vn 0.328699 2.28955e-05 0.944435
vn 0.328699 2.29195e-05 0.944435
vn 0.127967 0.921105 0.367682
vn 0.135455 0.917423 0.374148
vn 0.339559 0.914862 -0.218464
vn -0.17712 0.853906 -0.48936
vn -0.177119 0.853907 -0.489358
vn -0.177119 0.853907 -0.489358
vn -0.177119 0.853907 -0.489359
vn 0.0362932 0.994298 0.100274
vn 0.0362936 0.994298 0.100274
vn 0.0362935 0.994298 0.100274
vn 0.0362934 0.994298 0.100274
vn 0.178292 0.851797 0.4926
vn 0.178291 0.851797 0.492598
vn 0.178292 0.851797 0.492598
vn 0.371416 0.918579 -0.135144
vn 0.371415 0.918579 -0.135144
vn 0.371416 0.918579 -0.135144
vn 0.371416 0.918579 -0.135144
vn 0.371416 0.918579 -0.135144
vn 0.371416 0.918579 -0.135144
vn -0.135457 0.91742 -0.374154
vn -0.137058 0.921091 -0.364426

# Mesh 'defaultobject' with 82 faces
g defaultobject
usemtl DefaultMaterial
f  1//1 2//1 3//1
f  2//1 1//1 4//2
f  4//2 1//1 5//3
f  4//2 5//3 6//4
f  4//2 6//4 7//5
f  4//2 7//5 8//6
f  8//6 7//5 9//7
f  8//6 9//7 10//8
f  10//8 9//7 11//9
f  11//9 9//7 12//10
f  13//11 14//11 15//11
f  14//11 13//11 3//1
f  14//11 3//1 16//12
f  16//12 3//1 17//13
f  17//13 3//1 2//1
f  17//13 2//1 18//14
f  18//14 2//1 19//15
f  20//16 21//16 22//16
f  6//17 23//17 7//17
f  23//17 6//17 5//18
f  23//17 5//18 1//19
f  23//17 1//19 3//20
f  23//17 3//20 24//21
f  24//21 3//20 13//22
f  24//21 13//22 25//23
f  25//23 13//22 26//24
f  26//24 13//22 27//25
f  27//25 13//22 15//26
f  27//25 15//26 28//27
f  28//27 15//26 29//28
f  30//29 31//29 32//29
f  31//29 30//29 33//30
f  31//29 33//30 12//31
f  12//31 33//30 8//32
f  12//33 8//33 11//33
f  11//33 8//33 10//34
f  34//35 18//35 19//35
f  18//35 34//35 17//36
f  17//36 34//35 35//37
f  35//37 34//35 36//38
f  12//39 37//39 31//39
f  37//39 12//39 23//40
f  23//40 12//39 9//41
f  23//40 9//41 7//42
f  38//43 21//43 20//43
f  21//43 38//43 14//44
f  21//43 14//44 16//45
f  39//46 4//46 40//46
f  4//46 39//46 20//43
f  20//43 39//46 41//47
f  20//43 41//47 38//43
f  4//46 20//43 2//48
f  8//49 40//49 4//49
f  40//49 8//49 33//50
f  20//51 19//51 2//51
f  19//51 20//51 34//52
f  17//53 21//53 16//53
f  21//53 17//53 35//54
f  14//55 29//55 15//55
f  29//55 14//55 38//56
f  36//57 21//57 35//57
f  21//58 36//58 22//58
f  25//59 26//59 40//59
f  31//60 42//60 32//60
f  42//60 31//60 37//61
f  42//60 37//61 24//62
f  24//62 37//61 23//63
f  32//64 43//64 30//64
f  43//64 32//64 42//65
f  43//64 42//65 25//66
f  25//66 42//65 24//67
f  30//68 40//68 33//68
f  40//68 30//68 43//69
f  40//68 43//69 25//70
f  27//71 40//71 26//71
f  40//71 27//71 28//72
f  40//71 28//72 29//73
f  40//71 29//73 39//74
f  39//74 29//73 41//75
f  41//75 29//73 38//76
f  36//77 20//77 22//77
f  20//78 36//78 34//78

