# {"id":"BLDG_0003000000203b12","idOriginal":"BLDG_0003000000203b12","origin":[13.392300238692098,52.541789215173395],"elevation":45.5200004577637}
# Longitude: 13.392300238692098
# Latitude: 52.541789215173395
# Elevation: 45.5200004577637

# File produced by Open Asset Import Library (http://www.assimp.sf.net)
# (assimp v3.1.0)

mtllib BLDG_0003000000203b12.obj.mtl

# 39 vertex positions
v  16.8246 4.57372e-16 -7.46945
v  3.71785 4.04392e-16 -6.60423
v  15.0424 7.20482e-16 -11.7664
v  5.38291 1.46333e-16 -2.3898
v  27.5988 3.88581e-16 -6.34601
v  18.8935 1.51928e-16 -2.48117
v  25.5299 6.94025e-16 -11.3343
v  7.36834 -1.6138e-16 2.63554
v  0 0 0
v  1.98544 -3.07713e-16 5.02534
v  16.8249 17.31 -7.47
v  12.6594 19.6386 -10.6806
v  14.431 19.6386 -6.40724
v  15.0428 17.31 -11.7669
v  7.31156 20.9046 -8.24283
v  8.99261 20.9046 -3.99284
v  3.71822 17.31 -6.60477
v  5.38328 17.31 -2.39035
v  16.8249 17.3053 -7.47
v  27.5993 20.56 -6.34666
v  25.5303 17.3053 -11.3348
v  18.8939 20.56 -2.48182
v  18.8938 17.85 -2.48174
v  14.431 19.7997 -6.40724
v  16.4999 19.7997 -1.41896
v  16.8249 17.85 -7.47002
v  8.99261 20.7623 -3.99283
v  10.978 20.7623 1.03251
v  5.38329 17.85 -2.39037
v  7.36872 17.85 2.63497
v  0.000243976 11.4255 -0.00036181
v  7.36861 12.589 2.63514
v  5.38315 11.4255 -2.39016
v  1.9857 12.589 5.02494
v  17.1712 17.85 -6.63515
v  14.7081 19.5741 -6.53026
v  11.543 20.3109 -5.12511
v  8.23969 20.1547 -3.65855
v  8.87126 20.7837 -3.93896

# 0 UV coordinates

# 55 vertex normals
vn -4.11729e-24 -1 -6.12323e-17
vn -4.20319e-24 -1 -6.12323e-17
vn 2.05907e-24 -1 -6.12323e-17
vn 2.05908e-24 -1 -6.12323e-17
vn -1.94412e-25 -1 -6.12323e-17
vn 0 -1 -6.12323e-17
vn 0.613875 0.747258 -0.254487
vn 0.613931 0.747162 -0.25463
vn 0.193679 0.978069 -0.0766085
vn 0.194639 0.977551 -0.0806893
vn -0.626342 0.739229 0.247458
vn -0.626394 0.739082 0.247766
vn -0.209503 0.856401 -0.471896
vn -0.209503 0.856401 -0.471896
vn 0.551666 0.802068 -0.228805
vn 0.551665 0.802068 -0.228805
vn 0.146448 0.987525 -0.0578594
vn 0.147545 0.98716 -0.0611947
vn -0.552308 0.804575 0.218208
vn -0.552308 0.804575 0.218208
vn -0.085488 0.977555 -0.192557
vn -0.085488 0.977555 -0.192557
vn 0.40577 2.0259e-05 0.913975
vn 0.40577 2.02785e-05 0.913975
vn 0.923703 -3.22875e-05 -0.383109
vn -0.40577 -2.02602e-05 -0.913975
vn -0.40577 -2.02854e-05 -0.913975
vn 0.923703 -3.18406e-05 -0.383109
vn 0.923703 -3.18899e-05 -0.383109
vn 0.40577 2.0422e-05 0.913975
vn 0.40577 2.04551e-05 0.913975
vn 0.40577 1.98094e-05 0.913975
vn 0.40577 2.04551e-05 0.913975
vn -0.923704 3.14786e-05 0.383108
vn 0.40577 2.0273e-05 0.913975
vn 0.40577 2.02838e-05 0.913975
vn 0.40577 2.00153e-05 0.913975
vn 0.40577 2.037e-05 0.913975
vn -0.930045 3.15383e-05 0.367447
vn -0.930045 3.1401e-05 0.367447
vn 0.40577 2.02714e-05 0.913975
vn -0.930045 3.1495e-05 0.367447
vn -0.930045 3.14959e-05 0.367447
vn -0.40577 -2.02782e-05 -0.913975
vn -0.40577 -2.02811e-05 -0.913975
vn -0.414776 -1.99704e-05 -0.909923
vn -0.414776 -1.99818e-05 -0.909923
vn -0.414776 -1.98678e-05 -0.909923
vn -0.414776 -2.0049e-05 -0.909923
vn 0.923703 -3.18708e-05 -0.383109
vn 0.923703 -3.18352e-05 -0.383109
vn -0.405769 -2.15516e-05 -0.913976
vn -0.40577 -1.97325e-05 -0.913975
vn -0.930045 3.15163e-05 0.367447
vn -0.930045 3.14957e-05 0.367447

# Mesh 'defaultobject' with 58 faces
g defaultobject
usemtl DefaultMaterial
f  1//1 2//1 3//1
f  2//1 1//1 4//2
f  1//1 5//3 6//3
f  5//3 1//1 7//4
f  6//3 4//2 1//1
f  4//2 6//3 8//5
f  9//6 8//5 10//6
f  8//5 9//6 4//2
f  11//7 12//7 13//7
f  12//8 11//8 14//8
f  13//9 15//9 16//9
f  15//10 13//10 12//10
f  16//11 17//11 18//11
f  17//12 16//12 15//12
f  19//13 20//13 21//13
f  20//13 19//13 22//14
f  23//15 24//15 25//15
f  24//15 23//15 26//16
f  25//17 27//17 28//17
f  27//18 25//18 24//18
f  28//19 29//19 30//19
f  29//19 28//19 27//20
f  31//21 32//21 33//21
f  32//21 31//21 34//22
f  5//23 22//23 6//23
f  22//23 5//23 20//24
f  23//25 35//25 22//25
f  19//26 7//26 1//26
f  7//26 19//26 21//27
f  7//28 20//28 5//28
f  20//28 7//28 21//29
f  13//30 11//30 36//30
f  26//31 36//30 11//30
f  24//32 37//32 36//30
f  29//33 18//33 38//33
f  19//34 35//34 26//34
f  23//35 8//35 6//23
f  8//35 23//35 30//36
f  30//36 23//35 25//37
f  30//36 25//37 28//38
f  32//39 29//39 33//39
f  29//39 32//39 30//40
f  8//35 34//41 10//41
f  34//41 8//35 32//41
f  34//42 9//42 10//42
f  9//42 34//42 31//43
f  31//44 4//44 9//44
f  4//44 31//44 33//45
f  17//46 3//46 2//46
f  3//46 17//46 14//47
f  14//47 17//46 15//48
f  14//47 15//48 12//49
f  3//50 11//50 1//50
f  11//50 3//50 14//51
f  39//52 27//52 38//52
f  16//53 37//53 39//52
f  18//54 2//54 4//54
f  2//54 18//54 17//55

