# {"id":"BLDG_0003000b00690279","idOriginal":"BLDG_0003000b00690279","origin":[13.348498668483172,52.54486958231133],"elevation":34.310001373291}
# Longitude: 13.348498668483172
# Latitude: 52.54486958231133
# Elevation: 34.310001373291

# File produced by Open Asset Import Library (http://www.assimp.sf.net)
# (assimp v3.1.0)

mtllib BLDG_0003000b00690279.obj.mtl

# 25 vertex positions
v  5.47294 -1.37329e-06 -4.46046
v  3.04838 15.43 -2.48466
v  5.47327 15.43 -4.46095
v  -3.04772 15.43 2.48368
v  -5.74244 15.43 4.67988
v  -3.04805 -1.52111e-16 2.48417
v  -5.74277 -2.8659e-16 4.68037
v  3.04805 -1.37329e-06 -2.48417
v  0 -1.37329e-06 -8.40898e-23
v  0.000446756 20.98 -0.00066455
v  8.93403 -1.37329e-06 -0.176427
v  12.3951 -1.37329e-06 4.1076
v  12.3954 15.43 4.10711
v  8.93447 20.98 -0.177091
v  9.97055 15.43 6.0834
v  3.87445 15.43 11.0517
v  1.21881 15.43 13.2161
v  3.87412 -6.76754e-16 11.0522
v  1.21849 -8.09282e-16 13.2166
v  9.97022 -1.37329e-06 6.08389
v  -2.26214 -5.47936e-16 8.94847
v  -2.26169 20.98 8.94781
v  6.50959 20.98 1.7992
v  3.46153 20.98 4.28337
v  0.41348 20.98 6.76754

# 0 UV coordinates

# 46 vertex normals
vn -0.63176 -1.11023e-05 -0.775164
vn -0.63176 -1.10735e-05 -0.775164
vn -0.63176 -1.10587e-05 -0.775164
vn -0.63176 -1.11103e-05 -0.775164
vn -0.63176 -1.11023e-05 -0.775164
vn -0.472398 -0.663981 -0.579628
vn -0.595693 0.333049 -0.730909
vn -0.63176 -1.11216e-05 -0.775164
vn 0.777861 -3.64687e-05 -0.628437
vn 0.777861 -3.64614e-05 -0.628437
vn 0.777861 -3.64447e-05 -0.628437
vn 0.777861 -3.65977e-05 -0.628437
vn 0.63176 1.11236e-05 0.775164
vn 0.63176 1.11128e-05 0.775164
vn 0.63176 1.09689e-05 0.775164
vn 0.63176 1.11103e-05 0.775164
vn 0.63176 1.11222e-05 0.775164
vn 0.379306 -0.799703 0.465405
vn -0.774976 3.65394e-05 0.63199
vn -0.774976 3.65403e-05 0.63199
vn -0.774976 3.65199e-05 0.631991
vn -0.774976 3.65357e-05 0.63199
vn 0.448437 0.704381 0.550228
vn 0.448437 0.704381 0.550228
vn 0.448437 0.704381 0.550228
vn 0.448437 0.704381 0.550228
vn 0.448437 0.704381 0.550228
vn 0.448437 0.704381 0.550228
vn 0.448437 0.704381 0.550228
vn -0.448442 0.704373 -0.550234
vn -0.448442 0.704373 -0.550234
vn -0.448442 0.704373 -0.550234
vn -0.448442 0.704373 -0.550234
vn -0.448442 0.704373 -0.550234
vn -0.448442 0.704373 -0.550234
vn -0.634696 0.578121 0.512774
vn 0.634718 0.578081 -0.512792
vn -1.12233e-23 -1 -6.12323e-17
vn -6.67041e-08 -1 1.94563e-07
vn -1.57532e-07 -1 -1.9329e-07
vn -7.39593e-08 -1 5.9752e-08
vn -7.36843e-08 -1 6.00893e-08
vn -7.38304e-08 -1 5.96479e-08
vn -0.335116 0.847718 -0.411184
vn 0.63176 0 0.775164
vn 0 1 0

# Mesh 'defaultobject' with 46 faces
g defaultobject
usemtl DefaultMaterial
f  1//1 2//1 3//1
f  2//1 1//1 4//2
f  4//2 1//1 5//3
f  5//3 1//1 6//4
f  5//3 6//4 7//5
f  6//6 1//6 8//6
f  6//7 8//7 9//7
f  4//2 10//8 2//1
f  3//9 11//9 1//9
f  11//9 3//9 12//10
f  12//10 3//9 13//11
f  13//11 3//9 14//12
f  15//13 12//13 13//13
f  12//13 15//13 16//14
f  12//13 16//14 17//15
f  12//13 17//15 18//16
f  18//16 17//15 19//17
f  12//18 18//18 20//18
f  17//19 21//19 19//19
f  21//19 17//19 7//20
f  7//20 17//19 5//21
f  5//21 17//19 22//22
f  23//23 13//23 14//23
f  13//23 23//23 24//24
f  13//23 24//24 25//25
f  13//23 25//25 15//26
f  15//26 25//25 22//27
f  15//26 22//27 16//28
f  16//28 22//27 17//29
f  3//30 23//30 14//30
f  23//30 3//30 24//31
f  24//31 3//30 2//32
f  4//33 25//33 24//31
f  25//33 4//33 22//34
f  22//34 4//33 5//35
f  24//36 10//36 4//36
f  24//37 2//37 10//37
f  21//38 18//38 19//38
f  18//38 21//38 20//39
f  20//39 21//38 12//40
f  12//40 21//38 11//41
f  11//41 21//38 7//42
f  11//41 7//42 1//43
f  1//44 7//44 6//44
f  1//45 6//45 9//45
f  1//46 9//46 8//46

