# {"id":"BLDG_00030000001c5a47","idOriginal":"BLDG_00030000001c5a47","origin":[13.357651332376095,52.54974124880308],"elevation":36.8400001525879}
# Longitude: 13.357651332376095
# Latitude: 52.54974124880308
# Elevation: 36.8400001525879

# File produced by Open Asset Import Library (http://www.assimp.sf.net)
# (assimp v3.1.0)

mtllib BLDG_00030000001c5a47.obj.mtl

# 30 vertex positions
v  7.16154 -1.52588e-07 6.71057
v  17.6764 -1.52588e-07 -0.363293
v  9.20421 -1.52588e-07 8.62461
v  2.06456 -1.52588e-07 1.93455
v  0 -1.52588e-07 -9.34331e-24
v  35.3874 5.50082e-17 -0.898352
v  26.472 -1.52588e-07 -9.69428
v  8.69502 -1.52588e-07 -9.2243
v  17.4906 -1.52588e-07 -18.5553
v  28.3124 -3.79508e-16 6.19783
v  26.336 -5.00893e-16 8.18021
v  33.3898 -6.76779e-17 1.10526
v  26.4724 20.21 -9.69492
v  35.3879 20.21 -0.898992
v  17.491 20.21 -18.5559
v  0.000430616 20.21 -0.000640349
v  7.162 21.53 6.70989
v  2.06503 22.19 1.93385
v  9.20464 20.21 8.62397
v  8.69545 20.21 -9.22494
v  26.3364 20.21 8.17957
v  17.6768 20.21 -0.363933
v  28.3129 21.53 6.19715
v  33.3903 22.19 1.10456
v  24.5318 22.19 -7.6362
v  17.5645 22.19 -14.5101
v  19.597 21.53 -2.40094
v  17.6043 21.53 -4.36693
v  15.6836 21.53 -2.33048
v  10.7101 22.19 -7.23743

# 0 UV coordinates

# 50 vertex normals
vn 0 -1 0
vn -1.83336e-08 -1 -8.92041e-07
vn 4.6331e-09 -1 1.26515e-08
vn 8.88297e-09 -1 8.85645e-09
vn 8.88298e-09 -1 8.85645e-09
vn 0.70232 -3.75344e-05 -0.711861
vn 0.70232 -3.75209e-05 -0.711861
vn 0.70232 -3.75533e-05 -0.711861
vn 0.70232 0 -0.711861
vn -0.683758 3.76669e-05 0.729709
vn -0.683758 3.7689e-05 0.729709
vn -0.683758 3.76801e-05 0.729709
vn -0.683758 3.76889e-05 0.729709
vn 0 1 0
vn -0.727675 -6.23029e-06 -0.685922
vn -0.727675 -6.25385e-06 -0.685922
vn -0.727675 -6.18234e-06 -0.685922
vn -0.727675 -6.22867e-06 -0.685922
vn -0.70232 3.75533e-05 0.711861
vn -0.70232 3.75355e-05 0.711861
vn 0.727675 6.20438e-06 0.685922
vn 0.727675 6.23495e-06 0.685922
vn 0.708163 7.81603e-06 0.706049
vn 0.708163 7.66445e-06 0.706049
vn 0.708163 7.26594e-06 0.706049
vn 0.708163 7.07161e-06 0.706049
vn 0.708163 7.29684e-06 0.706048
vn 0.708163 7.28645e-06 0.706049
vn 0.402718 0.819292 -0.408141
vn 0.402764 0.819222 -0.408236
vn 0.402764 0.819222 -0.408236
vn 0.402764 0.819222 -0.408236
vn -0.0641848 0.995815 0.0650645
vn -0.0641796 0.995816 0.0650439
vn -0.0641757 0.995816 0.0650476
vn -0.0641757 0.995816 0.0650476
vn -0.299542 0.904486 0.303611
vn -0.299587 0.904444 0.303693
vn -0.299605 0.904443 0.303676
vn 0.310282 0.904485 0.29263
vn 0.310359 0.904484 0.292551
vn 0.310359 0.904484 0.292551
vn 0.0684029 0.99557 0.0645117
vn 0.0684453 0.995567 0.064518
vn 0.0684661 0.995564 0.0645282
vn 0.0684524 0.995566 0.0645248
vn -0.417298 0.819228 -0.393355
vn -0.417255 0.819297 -0.393256
vn -0.417226 0.819298 -0.393286
vn -0.417226 0.819298 -0.393286

# Mesh 'defaultobject' with 56 faces
g defaultobject
usemtl DefaultMaterial
f  1//1 2//1 3//1
f  2//1 1//1 4//1
f  2//1 4//1 5//1
f  2//1 5//1 6//2
f  6//2 5//1 7//3
f  7//3 5//1 8//1
f  7//3 8//1 9//1
f  2//1 10//4 11//4
f  10//4 2//1 12//5
f  12//5 2//1 6//2
f  6//6 13//6 14//6
f  13//6 6//6 15//7
f  15//7 6//6 9//8
f  9//9 6//9 7//9
f  16//10 17//10 18//10
f  17//10 16//10 19//11
f  19//11 16//10 5//12
f  19//11 5//12 3//13
f  3//1 5//1 4//1
f  3//14 4//14 1//14
f  9//15 20//15 15//15
f  20//15 9//15 16//16
f  16//16 9//15 8//17
f  16//16 8//17 5//18
f  21//19 2//19 11//19
f  2//19 21//19 22//20
f  2//21 19//21 3//21
f  19//21 2//21 22//22
f  23//23 14//23 24//23
f  14//23 23//23 21//24
f  14//23 21//24 6//25
f  6//25 21//24 12//26
f  12//26 21//24 10//27
f  10//27 21//24 11//28
f  14//29 25//29 24//29
f  25//30 14//30 13//30
f  25//30 13//30 26//31
f  26//31 13//30 15//32
f  24//33 27//33 23//33
f  27//34 24//34 25//34
f  27//34 25//34 28//35
f  28//35 25//34 26//36
f  23//37 22//37 21//37
f  22//38 23//38 27//38
f  22//39 27//39 28//39
f  29//40 22//40 28//40
f  22//41 29//41 17//41
f  22//41 17//41 19//42
f  26//43 29//43 28//43
f  29//44 26//44 17//44
f  17//45 26//45 30//45
f  17//44 30//46 18//46
f  20//47 26//47 15//47
f  26//48 20//48 30//48
f  30//49 20//49 18//49
f  18//49 20//49 16//50

