# {"id":"BLDG_00030000001e4558","idOriginal":"BLDG_00030000001e4558","origin":[13.369587842487382,52.55833722313926],"elevation":40.2999992370605}
# Longitude: 13.369587842487382
# Latitude: 52.55833722313926
# Elevation: 40.2999992370605

# File produced by Open Asset Import Library (http://www.assimp.sf.net)
# (assimp v3.1.0)

mtllib BLDG_00030000001e4558.obj.mtl

# 16 vertex positions
v  18.766 -1.69486e-16 2.76792
v  0 0 0
v  18.6422 3.42235e-17 -0.558912
v  18.9519 -4.75487e-16 7.7653
v  19.0486 -6.3454e-16 10.3628
v  0.406374 -6.68764e-16 10.9217
v  0.123784 -2.0371e-16 3.32683
v  0.309726 -5.09711e-16 8.32421
v  18.9522 16.25 7.76478
v  18.6425 14 -0.559356
v  18.7663 17.03 2.76738
v  19.0488 14 10.3624
v  0.000298533 14 -0.00044383
v  0.310072 16.25 8.3237
v  0.124147 17.03 3.32629
v  0.406673 14 10.9213

# 0 UV coordinates

# 24 vertex normals
vn 0 -1 -6.12323e-17
vn 2.07777e-24 -1 -6.12323e-17
vn 0 -1 -5.55112e-17
vn 1 0 -0.0625
vn 0.999309 -2.19956e-05 -0.0371823
vn 0.999309 -2.28036e-05 -0.0371821
vn 0.999309 -2.24173e-05 -0.0371821
vn 0.999309 -2.24192e-05 -0.0371821
vn -0.999309 2.24658e-05 0.0371821
vn -0.999309 2.24933e-05 0.0371821
vn -0.999309 2.24878e-05 0.0371821
vn -0.999309 2.24866e-05 0.0371821
vn -1.77636e-15 1 1.11022e-16
vn -8.88178e-16 1 8.32667e-17
vn 0.0299676 3.102e-05 0.999551
vn 0.0299676 3.1093e-05 0.999551
vn -0.0299676 -3.10489e-05 -0.999551
vn -0.0299676 -3.105e-05 -0.999551
vn 0.019613 0.756085 0.65418
vn 0.019613 0.756085 0.65418
vn 0.00461855 0.988052 0.154049
vn 0.00461855 0.988052 0.154049
vn -0.0201719 0.739531 -0.672821
vn -0.0201719 0.739531 -0.672821

# Mesh 'defaultobject' with 28 faces
g defaultobject
usemtl DefaultMaterial
f  1//1 2//1 3//1
f  2//1 1//1 4//1
f  2//1 4//1 5//1
f  2//1 5//1 6//2
f  2//1 6//2 7//3
f  7//4 6//4 8//4
f  9//5 10//5 11//5
f  10//5 9//5 12//6
f  10//5 12//6 3//7
f  3//7 12//6 5//8
f  3//1 5//1 1//1
f  1//1 5//1 4//1
f  13//9 14//9 15//9
f  14//9 13//9 16//10
f  16//10 13//9 2//11
f  16//10 2//11 6//12
f  6//13 2//13 7//13
f  6//13 7//13 8//14
f  5//15 16//15 6//15
f  16//15 5//15 12//16
f  13//17 3//17 2//17
f  3//17 13//17 10//18
f  16//19 9//19 14//19
f  9//19 16//19 12//20
f  14//21 11//21 15//21
f  11//21 14//21 9//22
f  15//23 10//23 13//23
f  10//23 15//23 11//24

