# {"id":"BLDG_00030000004270cb","idOriginal":"BLDG_00030000004270cb","origin":[13.33235672452348,52.52284686050676],"elevation":34.3800010681152}
# Longitude: 13.33235672452348
# Latitude: 52.52284686050676
# Elevation: 34.3800010681152

# File produced by Open Asset Import Library (http://www.assimp.sf.net)
# (assimp v3.1.0)

mtllib BLDG_00030000004270cb.obj.mtl

# 16 vertex positions
v  -2.76291 18.1392 -3.91956
v  1.561 20.8503 -15.3059
v  -1.00392 18.1392 -15.7137
v  0.403894 20.8503 -3.41612
v  0.000453242 21.0878 -0.000673951
v  7.60604 21.9391 -14.6385
v  1.64913 21.0878 -15.7048
v  5.11625 21.9391 0.915037
v  -2.76329 2.39969e-16 -3.91899
v  1.56056 9.37179e-16 -15.3053
v  0.403451 2.09137e-16 -3.41546
v  -1.00431 9.6215e-16 -15.7131
v  0 -0.220001 -1.34712e-17
v  7.60557 -0.220001 -14.6378
v  5.11578 -0.220001 0.915738
v  1.64868 -0.220001 -15.7041

# 0 UV coordinates

# 22 vertex normals
vn -0.714241 0.691746 -0.106522
vn -0.6433 0.76305 -0.0626055
vn -0.13889 0.9902 -0.0145812
vn -0.159633 0.986846 -0.0255539
vn 3.46149e-24 -1 -6.12323e-17
vn 3.16259e-23 -1 -6.12323e-17
vn 0 -1 0
vn 0.995298 -1.81065e-05 0.0968616
vn 0.995298 -1.81142e-05 0.0968616
vn -0.157031 3.45718e-05 0.987594
vn -0.157031 3.45769e-05 0.987594
vn -0.989061 1.63693e-05 -0.147509
vn -0.989061 1.63732e-05 -0.147509
vn 0.157031 -3.45454e-05 -0.987594
vn 0.157031 -3.45996e-05 -0.987594
vn 0.987428 -1.60221e-05 0.158067
vn -0.176202 3.48826e-05 0.984354
vn -0.176202 3.48841e-05 0.984354
vn -0.994534 1.78525e-05 -0.10441
vn -0.994534 1.78506e-05 -0.10441
vn 0.176202 -3.48961e-05 -0.984354
vn 0.176202 -3.48877e-05 -0.984354

# Mesh 'defaultobject' with 24 faces
g defaultobject
usemtl DefaultMaterial
f  1//1 2//1 3//1
f  2//2 1//2 4//2
f  5//3 6//3 7//3
f  6//4 5//4 8//4
f  9//5 10//5 11//5
f  10//5 9//5 12//6
f  13//7 14//7 15//7
f  14//7 13//7 16//7
f  10//8 4//8 11//8
f  4//8 10//8 2//9
f  11//10 1//10 9//10
f  1//10 11//10 4//11
f  1//12 12//12 9//12
f  12//12 1//12 3//13
f  3//14 10//14 12//14
f  10//14 3//14 2//15
f  14//16 8//16 15//16
f  8//16 14//16 6//16
f  15//17 5//17 13//17
f  5//17 15//17 8//18
f  5//19 16//19 13//19
f  16//19 5//19 7//20
f  7//21 14//21 16//21
f  14//21 7//21 6//22

