# {"id":"BLDG_0003000b003be269","idOriginal":"BLDG_0003000b003be269","origin":[13.315561632104513,52.5304347664505],"elevation":35.6800003051758}
# Longitude: 13.315561632104513
# Latitude: 52.5304347664505
# Elevation: 35.6800003051758

# File produced by Open Asset Import Library (http://www.assimp.sf.net)
# (assimp v3.1.0)

mtllib BLDG_0003000b003be269.obj.mtl

# 21 vertex positions
v  1.72058 -3.75052e-16 6.12506
v  15.4048 -5.43684e-16 8.87903
v  3.44115 -7.50104e-16 12.2501
v  0 0 0
v  25.5202 -1.48448e-15 24.2434
v  20.1593 -1.5771e-15 25.756
v  20.7662 -4.51178e-16 7.3683
v  11.9545 2.06262e-16 -3.36851
v  19.0411 -7.62055e-17 1.24453
v  17.3159 2.98767e-16 -4.87924
v  15.4052 19.1633 8.87843
v  20.7667 20.1885 7.36766
v  19.0415 20.1885 1.24389
v  25.5206 20.1885 24.2427
v  20.1597 19.1633 25.7554
v  17.3163 19.1633 -4.87985
v  13.6801 20.1885 2.75462
v  1.72101 20.1885 6.12442
v  11.9549 19.1633 -3.36912
v  0.000407195 19.1633 -0.00060644
v  3.44156 19.1633 12.2495

# 0 UV coordinates

# 32 vertex normals
vn -2.67783e-24 -1 -6.12323e-17
vn -1.73452e-23 -1 -6.12323e-17
vn -1.73472e-23 -1 -6.12323e-17
vn 0 -1 -6.12323e-17
vn -0.174233 0.98348 0.049084
vn -0.174233 0.98348 0.0490841
vn -0.174233 0.98348 0.0490841
vn -0.0431489 0.987263 -0.153131
vn -0.0431488 0.987263 -0.153131
vn -0.0431488 0.987263 -0.153131
vn 0.0431485 0.987264 0.15313
vn 0.0431485 0.987264 0.15313
vn 0.0431485 0.987264 0.15313
vn 0.962534 -3.15813e-05 -0.271161
vn 0.962534 -2.71656e-05 -0.271161
vn 0.962534 -2.90773e-05 -0.271161
vn 0.962534 -2.89884e-05 -0.271161
vn 2.22045e-16 1 0
vn 0 1 1.11022e-16
vn -0.962737 2.90178e-05 0.27044
vn -0.962737 2.90281e-05 0.27044
vn -0.962737 2.90153e-05 0.27044
vn -0.962737 2.89495e-05 0.27044
vn -0.271216 -2.47148e-05 -0.962518
vn -0.271216 -2.47066e-05 -0.962518
vn -0.271216 -2.46586e-05 -0.962518
vn -0.271216 -2.46968e-05 -0.962518
vn 0.271554 2.46854e-05 0.962423
vn 0.271554 2.46869e-05 0.962423
vn -0.962534 2.90842e-05 0.271161
vn -0.962534 2.90363e-05 0.271161
vn 0.271216 2.46956e-05 0.962518

# Mesh 'defaultobject' with 38 faces
g defaultobject
usemtl DefaultMaterial
f  1//1 2//1 3//1
f  2//1 1//1 4//1
f  2//1 5//2 6//2
f  5//2 2//1 7//3
f  7//3 2//1 4//1
f  7//3 4//1 8//4
f  7//3 8//4 9//4
f  9//4 8//4 10//4
f  11//5 12//5 13//5
f  12//5 11//5 14//6
f  14//6 11//5 15//7
f  16//8 17//8 13//8
f  17//8 16//8 18//9
f  18//9 16//8 19//10
f  18//9 19//10 20//8
f  17//11 11//11 13//11
f  11//11 17//11 18//12
f  11//11 18//12 21//13
f  12//14 16//14 13//14
f  16//14 12//14 14//15
f  16//14 14//15 5//16
f  16//14 5//16 10//17
f  10//18 5//18 9//18
f  9//18 5//18 7//19
f  21//20 1//20 3//20
f  1//20 21//20 4//21
f  4//21 21//20 20//22
f  20//22 21//20 18//23
f  10//24 19//24 16//24
f  19//24 10//24 20//25
f  20//25 10//24 8//26
f  20//25 8//26 4//27
f  5//28 15//28 6//28
f  15//28 5//28 14//29
f  15//30 2//30 6//30
f  2//30 15//30 11//31
f  2//32 21//32 3//32
f  21//32 2//32 11//32

