# {"id":"BLDG_00030009007ea2ed","idOriginal":"BLDG_00030009007ea2ed","origin":[13.382457523951777,52.55731028621143],"elevation":39.25}
# Longitude: 13.382457523951777
# Latitude: 52.55731028621143
# Elevation: 39.25

# File produced by Open Asset Import Library (http://www.assimp.sf.net)
# (assimp v3.1.0)

mtllib BLDG_00030009007ea2ed.obj.mtl

# 16 vertex positions
v  5.44672 18.5142 -13.4018
v  4.1145 18.5142 -10.2315
v  14.3145 18.5142 -9.58742
v  0.000395117 18.5142 -0.0005869
v  8.74526 18.5142 3.79258
v  1.19538 18.5142 -2.85465
v  0.677825 18.5142 -3.1425
v  3.658 18.5142 -10.3922
v  8.74487 -2.32264e-16 3.79317
v  0 0 0
v  14.3141 5.87024e-16 -9.58683
v  5.44632 8.2059e-16 -13.4013
v  4.11411 6.26463e-16 -10.2309
v  3.6576 6.363e-16 -10.3916
v  0.67743 1.92387e-16 -3.14191
v  1.19498 1.74761e-16 -2.85407

# 0 UV coordinates

# 22 vertex normals
vn 0 1 -0
vn -0.397936 3.75678e-05 0.917413
vn 0.923219 -7.50649e-06 0.384274
vn 0.923219 -7.47806e-06 0.384274
vn 0.395141 -3.75746e-05 -0.918621
vn 0.395141 -3.75273e-05 -0.91862
vn -0.921912 7.39144e-06 -0.3874
vn -0.921912 7.3677e-06 -0.3874
vn 0.331967 -3.69659e-05 -0.943291
vn 0.331965 -3.70188e-05 -0.943292
vn -0.924902 7.68437e-06 -0.380206
vn -0.924902 7.69119e-06 -0.380206
vn -0.486049 3.80713e-05 0.873932
vn -0.486049 3.80808e-05 0.873932
vn -0.922412 7.44264e-06 -0.386208
vn -0.922412 7.44888e-06 -0.386209
vn -1.53302e-24 -1 -6.12323e-17
vn 0 -1 -6.12323e-17
vn 0 -1 -6.12323e-17
vn -1.77599e-24 -1 -6.12323e-17
vn -8.73416e-24 -1 -6.12323e-17
vn -1.19609e-24 -1 -6.12323e-17

# Mesh 'defaultobject' with 28 faces
g defaultobject
usemtl DefaultMaterial
f  1//1 2//1 3//1
f  3//1 4//1 5//1
f  4//1 3//1 6//1
f  6//1 3//1 7//1
f  7//1 3//1 2//1
f  7//1 2//1 8//1
f  4//2 9//2 5//2
f  9//2 4//2 10//2
f  5//3 11//3 3//3
f  11//3 5//3 9//4
f  1//5 11//5 12//5
f  11//5 1//5 3//6
f  2//7 12//7 13//7
f  12//7 2//7 1//8
f  8//9 13//9 14//9
f  13//9 8//9 2//10
f  7//11 14//11 15//11
f  14//11 7//11 8//12
f  7//13 16//13 6//13
f  16//13 7//13 15//14
f  4//15 16//15 10//15
f  16//15 4//15 6//16
f  10//17 11//17 9//17
f  11//17 10//17 16//18
f  11//17 16//18 15//19
f  11//17 15//19 13//20
f  13//20 15//19 14//21
f  11//17 13//20 12//22

