# {"id":"BLDG_00030000001c3fc5","idOriginal":"BLDG_00030000001c3fc5","origin":[13.35506289857273,52.55126731724224],"elevation":36.5699996948242}
# Longitude: 13.35506289857273
# Latitude: 52.55126731724224
# Elevation: 36.5699996948242

# File produced by Open Asset Import Library (http://www.assimp.sf.net)
# (assimp v3.1.0)

mtllib BLDG_00030000001c3fc5.obj.mtl

# 8 vertex positions
v  4.69713 4.42787 5.63784
v  0 0 0
v  4.69703 -3.45227e-16 5.63798
v  9.433e-05 4.42787 -0.00014031
v  7.93512 -1.75051e-16 2.85879
v  7.93522 4.42787 2.85865
v  3.41086 1.68382e-16 -2.74989
v  3.41095 4.42787 -2.75003

# 0 UV coordinates

# 10 vertex normals
vn -0.768307 3.66478e-05 0.640081
vn -0.768307 3.66506e-05 0.640081
vn 0.651289 1.01451e-05 0.75883
vn 0.651289 1.01956e-05 0.75883
vn 0.778336 -3.65244e-05 -0.627848
vn -0.627641 -1.12981e-05 -0.778503
vn -0.627641 -1.1307e-05 -0.778503
vn 0 1 0
vn 3.38162e-24 -1 -6.12323e-17
vn 0 -1 -6.12323e-17

# Mesh 'defaultobject' with 12 faces
g defaultobject
usemtl DefaultMaterial
f  1//1 2//1 3//1
f  2//1 1//1 4//2
f  5//3 1//3 3//3
f  1//3 5//3 6//4
f  7//5 6//5 5//5
f  6//5 7//5 8//5
f  4//6 7//6 2//6
f  7//6 4//6 8//7
f  1//8 8//8 4//8
f  8//8 1//8 6//8
f  2//9 5//9 3//9
f  5//9 2//9 7//10

