# {"id":"BLDG_0003000b000658ad","idOriginal":"BLDG_0003000b000658ad","origin":[13.357215131285944,52.505070882257954],"elevation":34.53}
# Longitude: 13.357215131285944
# Latitude: 52.505070882257954
# Elevation: 34.53

# File produced by Open Asset Import Library (http://www.assimp.sf.net)
# (assimp v3.1.0)

mtllib BLDG_0003000b000658ad.obj.mtl

# 16 vertex positions
v  2.06669 3.7924e-16 -6.19346
v  6.23113 -1.26799e-16 2.07079
v  0 0 0
v  8.29783 2.5244e-16 -4.12266
v  -3.62567 0.28 -8.08521
v  5.965e-06 0.28 -8.84943e-06
v  -5.69236 0.28 -1.89175
v  2.0667 0.28 -6.19346
v  6.23142 13.67 2.07036
v  0.000252452 11.85 -0.00037436
v  -5.69212 11.85 -1.89212
v  0.000291226 13.67 -0.00043186
v  2.06698 13.67 -6.19389
v  8.29812 13.67 -4.12309
v  2.06695 11.85 -6.19383
v  -3.62542 11.85 -8.08558

# 0 UV coordinates

# 28 vertex normals
vn -9.87864e-24 -1 -6.12323e-17
vn -9.87864e-24 -1 -6.12323e-17
vn 0 -1 0
vn -0.315371 3.68286e-05 0.948969
vn -0.315371 3.66871e-05 0.948968
vn -0.315371 3.66977e-05 0.948969
vn -0.315371 3.66977e-05 0.948968
vn -0.315371 3.66999e-05 0.948969
vn -0.315371 3.66975e-05 0.948968
vn 0.315371 -3.67008e-05 -0.948968
vn 0.315371 -3.65282e-05 -0.948968
vn 0.315371 -3.67211e-05 -0.948969
vn 0.315371 -3.66879e-05 -0.948969
vn 0.315371 -3.58029e-05 -0.948969
vn 0.315371 -3.6678e-05 -0.948968
vn -0.948582 1.02042e-05 -0.316532
vn -0.948582 1.04899e-05 -0.316532
vn -0.948582 1.02131e-05 -0.316532
vn -0.948582 1.02059e-05 -0.316532
vn -0.948582 1.01121e-05 -0.316532
vn -0.948582 1.0179e-05 -0.316532
vn 0.948582 -1.01935e-05 0.316532
vn 0.948582 -1.01828e-05 0.316532
vn -0.948582 1.02124e-05 -0.316532
vn -0.948582 1.0219e-05 -0.316532
vn 0.948582 -1.02131e-05 0.316532
vn 0.948582 -1.02005e-05 0.316532
vn 0 1 0

# Mesh 'defaultobject' with 32 faces
g defaultobject
usemtl DefaultMaterial
f  1//1 2//1 3//1
f  2//1 1//1 4//2
f  5//3 6//3 7//3
f  6//3 5//3 8//3
f  2//4 6//4 3//4
f  6//4 2//4 9//5
f  6//4 9//5 10//6
f  6//4 10//6 11//7
f  10//6 9//5 12//8
f  11//7 7//9 6//4
f  4//10 13//10 14//10
f  13//10 4//10 15//11
f  15//11 4//10 16//12
f  16//12 4//10 8//13
f  8//13 4//10 1//14
f  5//15 16//12 8//13
f  6//16 1//16 3//16
f  1//16 6//16 8//17
f  8//17 6//16 10//18
f  8//17 10//18 15//19
f  15//19 10//18 12//20
f  15//19 12//20 13//21
f  4//22 9//22 2//22
f  9//22 4//22 14//23
f  11//24 5//24 7//24
f  5//24 11//24 16//25
f  8//26 10//26 6//26
f  10//26 8//26 15//27
f  9//28 13//28 12//28
f  13//28 9//28 14//28
f  10//28 16//28 11//28
f  16//28 10//28 15//28

