# {"id":"BLDG_00030009007eefe1","idOriginal":"BLDG_00030009007eefe1","origin":[13.400144840317477,52.54193724853093],"elevation":45.9099998474121}
# Longitude: 13.400144840317477
# Latitude: 52.54193724853093
# Elevation: 45.9099998474121

# File produced by Open Asset Import Library (http://www.assimp.sf.net)
# (assimp v3.1.0)

mtllib BLDG_00030009007eefe1.obj.mtl

# 26 vertex positions
v  16.1613 17.9008 -7.04232
v  19.8993 17.9008 1.48594
v  22.2985 17.9008 -4.63796
v  28.2998 17.9008 -12.3314
v  25.9006 17.9008 -6.20752
v  32.0378 17.9008 -3.80316
v  14.9341 20.3571 -3.90517
v  16.1613 19.8356 -7.04238
v  11.7959 19.8356 -5.14024
v  17.7076 20.3571 2.44086
v  19.8993 19.8356 1.48588
v  15.5159 19.8356 3.39587
v  12.7089 18.3159 4.61899
v  8.98889 18.3159 -3.91712
v  4.70706 18.2858 8.10562
v  0.987027 18.2858 -0.430484
v  3.72045 19.8356 8.53548
v  0.000423775 19.8356 -0.000628131
v  28.2994 7.55047e-16 -12.3309
v  19.8989 -9.10225e-17 1.48651
v  16.1609 4.31183e-16 -7.04176
v  32.0374 2.32842e-16 -3.80259
v  15.5155 -2.07976e-16 3.3965
v  11.7954 3.1471e-16 -5.13961
v  3.72003 -5.22686e-16 8.53611
v  0 0 0

# 0 UV coordinates

# 34 vertex normals
vn 0 1 0
vn -0.085307 0.97693 -0.19578
vn 0.19607 0.976838 -0.0856933
vn 0.195212 0.977022 -0.0855635
vn -0.19596 0.976886 0.0853993
vn -0.195299 0.977022 0.0853563
vn -0.407558 0.89574 0.177613
vn -0.00316209 0.999994 0.00137804
vn -0.00316209 0.999994 0.00137804
vn 0.752989 0.570371 -0.328152
vn 0 -1 -6.12323e-17
vn -3.43508e-24 -1 -6.12323e-17
vn -2.38789e-24 -1 -6.12323e-17
vn -3.535e-24 -1 -6.12323e-17
vn -0.399455 -2.04807e-05 -0.916753
vn -0.399455 -2.05051e-05 -0.916753
vn 0.915885 -3.22234e-05 -0.401442
vn 0.915885 -3.23378e-05 -0.401442
vn 0.399455 2.04721e-05 0.916753
vn 0.399455 2.05364e-05 0.916753
vn -0.399455 -2.04972e-05 -0.916753
vn 0.915885 -3.25024e-05 -0.401442
vn 0.915885 -3.15495e-05 -0.401442
vn 0.399455 2.04588e-05 0.916753
vn 0.399455 2.0478e-05 0.916753
vn 0.399455 2.10334e-05 0.916753
vn -0.399455 -2.04966e-05 -0.916753
vn -0.399458 -2.16888e-05 -0.916751
vn -0.399455 -2.04972e-05 -0.916753
vn 0.399455 2.0478e-05 0.916753
vn 0.399455 2.04722e-05 0.916753
vn 0.399455 2.05145e-05 0.916753
vn -0.916729 3.22386e-05 0.39951
vn -0.916729 3.22366e-05 0.39951

# Mesh 'defaultobject' with 46 faces
g defaultobject
usemtl DefaultMaterial
f  1//1 2//1 3//1
f  3//1 4//1 1//1
f  4//1 3//1 5//1
f  5//1 6//1 4//1
f  5//1 2//1 6//1
f  2//1 5//1 3//1
f  7//2 8//2 9//2
f  10//3 8//3 7//3
f  8//4 10//4 11//4
f  12//5 7//5 9//5
f  7//6 12//6 10//6
f  13//7 9//7 14//7
f  9//7 13//7 12//7
f  15//8 14//8 16//8
f  14//8 15//8 13//9
f  17//10 16//10 18//10
f  16//10 17//10 15//10
f  19//11 20//11 21//11
f  20//11 19//11 22//12
f  21//11 23//13 24//13
f  23//13 21//11 20//11
f  24//13 25//14 26//14
f  25//14 24//13 23//13
f  1//15 19//15 21//15
f  19//15 1//15 4//16
f  19//17 6//17 22//17
f  6//17 19//17 4//18
f  22//19 2//19 20//19
f  2//19 22//19 6//20
f  9//21 21//15 24//21
f  21//15 9//21 8//21
f  1//22 11//22 2//22
f  11//22 1//22 8//23
f  11//24 23//24 20//19
f  23//24 11//24 12//25
f  12//25 11//24 10//26
f  18//27 24//21 26//27
f  24//21 18//27 16//28
f  24//21 14//29 9//21
f  14//29 24//21 16//28
f  12//25 25//30 23//24
f  25//30 12//25 13//31
f  25//30 15//32 17//32
f  15//32 25//30 13//31
f  17//33 26//33 25//33
f  26//33 17//33 18//34

