# {"id":"BLDG_0003000f000b5ba8","idOriginal":"BLDG_0003000f000b5ba8","origin":[13.413257704575386,52.51767819600856],"elevation":35.1399993896484}
# Longitude: 13.413257704575386
# Latitude: 52.51767819600856
# Elevation: 35.1399993896484

# File produced by Open Asset Import Library (http://www.assimp.sf.net)
# (assimp v3.1.0)

mtllib BLDG_0003000f000b5ba8.obj.mtl

# 30 vertex positions
v  -25.7753 16.0119 40.5666
v  -28.6099 -1.85328e-15 30.2663
v  -25.7756 -2.48402e-15 40.5671
v  -28.6096 16.0119 30.2658
v  -27.1924 18.7833 35.4161
v  5.05046 -1.26228e-15 20.6146
v  5.05081 16.0119 20.6141
v  7.88479 -1.89302e-15 30.9154
v  7.88514 16.0119 30.9149
v  6.46803 18.7833 25.7644
v  22.1665 -1.76 26.25
v  7.37112 16.2002 30.2797
v  7.37074 -1.76 30.2802
v  22.1669 16.2002 26.2494
v  0 -1.76 -1.07769e-16
v  0.000384008 16.2002 -0.00056783
v  14.7958 -1.76 -4.03023
v  14.7962 16.2002 -4.0308
v  -26.1029 -1.52 40.235
v  -43.6953 19.87 43.3953
v  -43.6958 -1.52 43.396
v  -26.1024 19.87 40.2343
v  -50.9552 -1.52 13.4206
v  -50.9548 19.87 13.4199
v  -33.3624 -1.52 10.2596
v  -33.3619 19.87 10.2589
v  9.21178 20.2045 5.43406
v  12.9557 20.2045 20.8146
v  -37.0025 26.55 33.128
v  -40.0545 26.55 20.5258

# 0 UV coordinates

# 42 vertex normals
vn -0.964167 2.89647e-05 0.265297
vn -0.964167 2.90479e-05 0.265297
vn -0.964167 2.92141e-05 0.265297
vn -0.27563 -2.44342e-05 -0.961264
vn -0.27563 -2.45651e-05 -0.961264
vn 0.964167 -2.90221e-05 -0.265297
vn 0.964167 -2.89905e-05 -0.265297
vn 0.964167 -2.8892e-05 -0.265297
vn 0.27563 2.45474e-05 0.961264
vn 0.27563 2.43841e-05 0.961264
vn 0.262815 2.47926e-05 0.964846
vn -0.971629 2.82516e-05 0.236511
vn -0.971629 2.82519e-05 0.236511
vn -0.262815 -2.48853e-05 -0.964846
vn -0.262815 -2.48594e-05 -0.964846
vn 0.971629 -2.83246e-05 -0.236511
vn 0.971629 -2.82701e-05 -0.236511
vn 0.176842 2.74575e-05 0.984239
vn 0.176842 2.73079e-05 0.984239
vn -0.971904 2.82715e-05 0.235377
vn -0.971904 2.824e-05 0.235377
vn -0.176842 -2.7328e-05 -0.984239
vn 0.971904 -2.81487e-05 -0.235377
vn 0.971904 -2.82643e-05 -0.235377
vn 0.449916 0.88633 -0.109517
vn 0.449916 0.88633 -0.109517
vn 0.105989 0.800492 0.589898
vn -0.582522 0.800478 0.141076
vn -0.582522 0.800478 0.141076
vn -0.105992 0.80048 -0.589913
vn 0.582538 0.800466 -0.14108
vn 0.582538 0.800466 -0.14108
vn -0.12694 0.887636 -0.442707
vn -0.12694 0.887635 -0.442707
vn 0.126938 0.88764 0.442698
vn 0.126938 0.88764 0.442698
vn 0.121695 0.886335 0.446766
vn -0.449906 0.886336 0.109515
vn -0.121697 0.88633 -0.446776
vn -1.06138e-24 -1 -6.12323e-17
vn -5.6607e-25 -1 -6.12323e-17
vn 0 -1 0

# Mesh 'defaultobject' with 48 faces
g defaultobject
usemtl DefaultMaterial
f  1//1 2//1 3//1
f  2//1 1//1 4//2
f  4//2 1//1 5//3
f  4//4 6//4 2//4
f  6//4 4//4 7//5
f  7//6 8//6 6//6
f  8//6 7//6 9//7
f  9//7 7//6 10//8
f  8//9 1//9 3//9
f  1//9 8//9 9//10
f  11//11 12//11 13//11
f  12//11 11//11 14//11
f  12//12 15//12 13//12
f  15//12 12//12 16//13
f  16//14 17//14 15//14
f  17//14 16//14 18//15
f  17//16 14//16 11//16
f  14//16 17//16 18//17
f  19//18 20//18 21//18
f  20//18 19//18 22//19
f  20//20 23//20 21//20
f  23//20 20//20 24//21
f  24//22 25//22 23//22
f  25//22 24//22 26//22
f  25//23 22//23 19//23
f  22//23 25//23 26//24
f  27//25 14//25 18//25
f  14//25 27//25 28//26
f  20//27 22//27 29//27
f  30//28 20//28 29//28
f  20//28 30//28 24//29
f  30//30 26//30 24//30
f  30//31 22//31 26//31
f  22//31 30//31 29//32
f  10//33 4//33 5//33
f  4//33 10//33 7//34
f  9//35 5//35 1//35
f  5//35 9//35 10//36
f  12//37 14//37 28//37
f  27//38 12//38 28//38
f  12//38 27//38 16//38
f  27//39 18//39 16//39
f  2//40 8//40 3//40
f  8//40 2//40 6//41
f  15//42 11//42 13//42
f  11//42 15//42 17//42
f  21//42 25//42 19//42
f  25//42 21//42 23//42

