# {"id":"BLDG_0003000a0010da3c","idOriginal":"BLDG_0003000a0010da3c","origin":[13.388189957438005,52.552773967347804],"elevation":40.4300003051758}
# Longitude: 13.388189957438005
# Latitude: 52.552773967347804
# Elevation: 40.4300003051758

# File produced by Open Asset Import Library (http://www.assimp.sf.net)
# (assimp v3.1.0)

mtllib BLDG_0003000a0010da3c.obj.mtl

# 24 vertex positions
v  0.000482604 22.6057 -0.000716381
v  5.28661 2.949e-16 -4.81608
v  0 0 0
v  5.28705 20.7357 -4.81674
v  13.2845 20.7357 3.72622
v  13.2841 -2.28206e-16 3.72688
v  29.9485 9.14459e-16 -14.9343
v  34.8136 22.6057 -10.558
v  34.8131 6.46447e-16 -10.5573
v  29.949 22.6057 -14.935
v  30.3782 22.6057 -5.59121
v  30.3777 3.42319e-16 -5.5905
v  17.7746 22.6057 8.5225
v  17.7741 -5.21897e-16 8.52322
v  25.5132 6.10331e-16 -9.96746
v  25.5136 20.7357 -9.96812
v  12.9926 22.6057 13.8775
v  12.9921 -8.49798e-16 13.8783
v  8.502 -5.56107e-16 9.08191
v  8.50248 22.6057 9.0812
v  23.1289 1.29019e-15 -21.0703
v  23.1294 22.6057 -21.071
v  18.182 1.01424e-15 -16.5638
v  18.1825 20.7357 -16.5644

# 0 UV coordinates

# 36 vertex normals
vn -0.673443 -9.04947e-06 -0.739239
vn -0.673444 -9.05384e-06 -0.739239
vn 0.73003 -3.72581e-05 -0.683415
vn 0.73003 -3.72267e-05 -0.683415
vn 0.668867 -3.78947e-05 -0.743382
vn 0.668867 -3.78302e-05 -0.743382
vn 0.745883 5.16972e-06 0.666077
vn 0.745883 5.11903e-06 0.666077
vn 0.745883 5.17249e-06 0.666077
vn -0.745883 -5.15527e-06 -0.666077
vn -0.745883 -5.18958e-06 -0.666077
vn 0.745883 5.18273e-06 0.666077
vn -0.73003 3.72362e-05 0.683415
vn 0.668867 -3.78194e-05 -0.743382
vn 0.668867 -3.7801e-05 -0.743382
vn -0.668867 3.78303e-05 0.743382
vn -0.668867 3.78645e-05 0.743382
vn -0.673444 -9.08783e-06 -0.739239
vn -0.673443 -9.01402e-06 -0.739239
vn -0.73003 3.72362e-05 0.683415
vn -0.73003 3.72428e-05 0.683415
vn -0.180837 0.962759 0.200983
vn -0.204943 0.961511 -0.183015
vn -0.204943 0.961511 -0.183015
vn -0.204943 0.961511 -0.183014
vn -0.204943 0.961511 -0.183014
vn 0.184699 0.967466 -0.172905
vn -0.180837 0.962758 0.200983
vn 0.184699 0.967466 -0.172905
vn -2.73355e-24 -1 -6.12323e-17
vn -2.73355e-24 -1 -6.12323e-17
vn 0 -1 -6.12323e-17
vn -1.40854e-24 -1 -6.12323e-17
vn -1.69025e-24 -1 -6.12323e-17
vn 8.66619e-25 -1 -6.12323e-17
vn 4.76081e-24 -1 -6.12323e-17

# Mesh 'defaultobject' with 44 faces
g defaultobject
usemtl DefaultMaterial
f  1//1 2//1 3//1
f  2//1 1//1 4//2
f  2//3 5//3 6//3
f  5//3 2//3 4//4
f  7//5 8//5 9//5
f  8//5 7//5 10//6
f  9//7 11//7 12//7
f  11//7 9//7 8//8
f  12//7 13//9 14//9
f  13//9 12//7 11//7
f  5//10 15//10 6//10
f  15//10 5//10 16//11
f  14//9 17//12 18//12
f  17//12 14//9 13//9
f  17//13 19//13 18//13
f  19//13 17//13 20//13
f  21//14 10//6 7//5
f  10//6 21//14 22//15
f  16//16 23//16 15//16
f  23//16 16//16 24//17
f  24//18 21//18 23//18
f  21//18 24//18 22//19
f  20//13 3//20 19//13
f  3//20 20//13 1//21
f  10//22 16//22 8//22
f  8//23 16//23 11//23
f  5//24 11//23 16//23
f  11//23 5//24 13//25
f  5//24 17//26 13//25
f  17//27 5//27 20//27
f  16//22 22//28 24//28
f  22//28 16//22 10//22
f  5//27 1//27 20//27
f  1//27 5//27 4//29
f  9//30 15//30 7//30
f  15//30 9//30 12//31
f  6//32 12//31 14//32
f  12//31 6//32 15//30
f  14//32 19//33 6//32
f  19//33 14//32 18//34
f  7//30 23//35 21//35
f  23//35 7//30 15//30
f  2//36 19//33 3//36
f  19//33 2//36 6//32

