# {"id":"BLDG_0003000f0030108e","idOriginal":"BLDG_0003000f0030108e","origin":[13.365161781051542,52.54694803328413],"elevation":35.83}
# Longitude: 13.365161781051542
# Latitude: 52.54694803328413
# Elevation: 35.83

# File produced by Open Asset Import Library (http://www.assimp.sf.net)
# (assimp v3.1.0)

mtllib BLDG_0003000f0030108e.obj.mtl

# 14 vertex positions
v  6.84009 22.17 6.53961
v  4.40085 -2.57682e-16 4.20826
v  6.83961 -4.00478e-16 6.54031
v  0 0 0
v  4.4012 16.67 4.20774
v  4.40132 22.17 4.20756
v  0.000355357 16.67 -0.000528091
v  10.8452 22.17 2.29897
v  8.55231 16.67 -0.187456
v  8.55243 22.17 -0.18763
v  10.8447 -1.40814e-16 2.29967
v  4.58928 2.74601e-16 -4.48457
v  8.55196 1.1446e-17 -0.186928
v  4.58963 16.67 -4.4851

# 0 UV coordinates

# 20 vertex normals
vn -0.691116 3.7613e-05 0.722744
vn -0.691116 3.76327e-05 0.722744
vn -0.691116 3.77952e-05 0.722744
vn -0.691116 3.76108e-05 0.722744
vn -0.691116 3.76285e-05 0.722744
vn 0.735177 -3.71417e-05 -0.677876
vn 0.735177 -3.71621e-05 -0.677876
vn 0.735177 -3.71658e-05 -0.677876
vn 0 1 0
vn 0.735177 -3.71513e-05 -0.677876
vn -0.727005 -6.22292e-06 -0.686632
vn -0.727005 -6.24524e-06 -0.686632
vn 0.727005 6.23895e-06 0.686632
vn 0.727005 6.23895e-06 0.686632
vn -0.698901 -7.7589e-06 -0.715218
vn -0.698901 -7.77416e-06 -0.715218
vn 1.07589e-23 -1 -6.12323e-17
vn 0 -1 -6.12323e-17
vn -6.97858e-24 -1 -6.12323e-17
vn -5.55112e-17 -1 -5.55112e-17

# Mesh 'defaultobject' with 24 faces
g defaultobject
usemtl DefaultMaterial
f  1//1 2//1 3//1
f  2//1 1//1 4//2
f  4//2 1//1 5//3
f  5//3 1//1 6//4
f  7//5 4//2 5//3
f  8//6 9//6 10//6
f  9//6 8//6 11//7
f  9//6 11//7 12//8
f  12//9 11//9 13//9
f  12//8 14//10 9//6
f  6//11 9//11 5//11
f  9//11 6//11 10//12
f  11//13 1//13 3//13
f  1//13 11//13 8//14
f  7//15 12//15 4//15
f  12//15 7//15 14//16
f  3//17 13//17 11//17
f  13//17 3//17 12//18
f  12//18 3//17 4//19
f  4//19 3//17 2//20
f  8//9 6//9 1//9
f  6//9 8//9 10//9
f  9//9 7//9 5//9
f  7//9 9//9 14//9

