# {"id":"BLDG_0003000b001d871a","idOriginal":"BLDG_0003000b001d871a","origin":[13.330884209616732,52.520003350693955],"elevation":33.3699989318848}
# Longitude: 13.330884209616732
# Latitude: 52.520003350693955
# Elevation: 33.3699989318848

# File produced by Open Asset Import Library (http://www.assimp.sf.net)
# (assimp v3.1.0)

mtllib BLDG_0003000b001d871a.obj.mtl

# 16 vertex positions
v  5.33139 17.1682 3.86708
v  0 0 0
v  5.33102 -2.36824e-16 3.86762
v  0.00036515 17.1682 -0.00054292
v  7.24395 17.1682 5.25408
v  7.24359 -3.21753e-16 5.25462
v  10.9219 17.1682 7.92273
v  10.9215 -4.85161e-16 7.92328
v  16.8793 1.18031e-17 -0.19276
v  16.8797 17.1682 -0.193302
v  5.95986 4.96588e-16 -8.10989
v  5.96022 17.1682 -8.11044
v  2.40029 17.1682 -3.26641
v  2.39992 1.99977e-16 -3.26587
v  0.721802 17.1682 -0.981619
v  0.721437 6.00736e-17 -0.981077

# 0 UV coordinates

# 21 vertex normals
vn -0.58723 3.80721e-05 0.80942
vn -0.58723 3.80866e-05 0.80942
vn -0.587074 3.80999e-05 0.809533
vn -0.587074 3.80723e-05 0.809534
vn -0.58728 3.80995e-05 0.809384
vn 0.806117 1.56693e-06 0.591756
vn 0.806117 1.50072e-06 0.591756
vn 0.586992 -3.8121e-05 -0.809593
vn 0.586992 -3.8088e-05 -0.809593
vn -0.805798 -1.59346e-06 -0.592191
vn -0.805798 -1.60694e-06 -0.592191
vn -0.805905 -1.58304e-06 -0.592045
vn -0.805905 -1.58658e-06 -0.592045
vn -0.805629 -1.59958e-06 -0.592421
vn -0.805629 -1.60078e-06 -0.592421
vn 0 -1 -6.12323e-17
vn 1.55972e-24 -1 -6.12323e-17
vn 0 -1 -6.12323e-17
vn -3.30031e-24 -1 -6.12323e-17
vn -6.87871e-20 -1 -6.12549e-17
vn 0 1 0

# Mesh 'defaultobject' with 28 faces
g defaultobject
usemtl DefaultMaterial
f  1//1 2//1 3//1
f  2//1 1//1 4//2
f  5//3 3//3 6//3
f  3//3 5//3 1//4
f  7//5 6//5 8//5
f  6//5 7//5 5//5
f  9//6 7//6 8//6
f  7//6 9//6 10//7
f  11//8 10//8 9//8
f  10//8 11//8 12//9
f  13//10 11//10 14//10
f  11//10 13//10 12//11
f  15//12 14//12 16//12
f  14//12 15//12 13//13
f  4//14 16//14 2//14
f  16//14 4//14 15//15
f  6//16 9//16 8//16
f  9//16 6//16 3//16
f  9//16 3//16 11//17
f  11//17 3//16 16//18
f  16//18 3//16 2//19
f  11//17 16//18 14//20
f  1//21 15//21 4//21
f  15//21 1//21 13//21
f  13//21 1//21 12//21
f  12//21 1//21 10//21
f  10//21 1//21 5//21
f  10//21 5//21 7//21

