# {"id":"BLDG_0003000a00295170","idOriginal":"BLDG_0003000a00295170","origin":[13.382135125055312,52.54969969650482],"elevation":41.5299987792969}
# Longitude: 13.382135125055312
# Latitude: 52.54969969650482
# Elevation: 41.5299987792969

# File produced by Open Asset Import Library (http://www.assimp.sf.net)
# (assimp v3.1.0)

mtllib BLDG_0003000a00295170.obj.mtl

# 10 vertex positions
v  0 0 0
v  38.2339 2.10265e-15 -34.3389
v  4.17102 -2.30508e-16 3.76447
v  34.0629 2.33316e-15 -38.1034
v  36.1485 3.70948 -36.2213
v  6.6942e-05 3.13687 -9.93898e-05
v  2.08559 3.70948 1.88212
v  34.0629 3.13687 -38.1035
v  38.234 3.13687 -34.339
v  4.17109 3.13687 3.76437

# 0 UV coordinates

# 14 vertex normals
vn 0 -1 -6.12323e-17
vn 2.35976e-23 -1 -6.12323e-17
vn -0.148898 0.979853 -0.133109
vn -0.148898 0.979853 -0.133109
vn 0.148898 0.979853 0.133109
vn -0.670002 3.77307e-05 0.742359
vn -0.670002 3.78547e-05 0.742359
vn -0.670002 3.78193e-05 0.742359
vn -0.745529 -5.20691e-06 -0.666473
vn -0.745529 -4.75338e-06 -0.666473
vn 0.670002 -3.81381e-05 -0.742359
vn 0.670003 -3.7498e-05 -0.742359
vn 0.670002 -3.81381e-05 -0.742359
vn 0.745529 4.56842e-06 0.666473

# Mesh 'defaultobject' with 16 faces
g defaultobject
usemtl DefaultMaterial
f  1//1 2//1 3//1
f  2//1 1//1 4//2
f  5//3 6//3 7//3
f  6//3 5//3 8//4
f  9//5 7//5 10//5
f  7//5 9//5 5//5
f  10//6 1//6 3//6
f  1//6 10//6 7//7
f  1//6 7//7 6//8
f  6//9 4//9 1//9
f  4//9 6//9 8//10
f  8//11 2//11 4//11
f  2//11 8//11 5//12
f  2//11 5//12 9//13
f  2//14 10//14 3//14
f  10//14 2//14 9//14

