# {"id":"BLDG_0003000f0007d557","idOriginal":"BLDG_0003000f0007d557","origin":[13.3169074115509,52.531016081217366],"elevation":35.560001373291}
# Longitude: 13.3169074115509
# Latitude: 52.531016081217366
# Elevation: 35.560001373291

# File produced by Open Asset Import Library (http://www.assimp.sf.net)
# (assimp v3.1.0)

mtllib BLDG_0003000f0007d557.obj.mtl

# 8 vertex positions
v  2.39269 7.35725 8.30591
v  0 0 0
v  2.39253 -5.08605e-16 8.30615
v  0.000156347 7.35725 -0.00023283
v  7.658 1.31102e-16 -2.14106
v  7.65816 7.35725 -2.14129
v  10.0507 7.35725 6.16486
v  10.0505 -3.77503e-16 6.16509

# 0 UV coordinates

# 10 vertex normals
vn -0.96093 2.9151e-05 0.27679
vn -0.96093 2.91799e-05 0.27679
vn -0.269259 -2.47556e-05 -0.963068
vn -0.269259 -2.47673e-05 -0.963068
vn 0.96093 -2.91823e-05 -0.27679
vn 0.269259 2.47456e-05 0.963068
vn 0.269259 2.47456e-05 0.963068
vn 0 1 0
vn 0 -1 -6.12323e-17
vn -1.54048e-24 -1 -6.12323e-17

# Mesh 'defaultobject' with 24 faces
g defaultobject
usemtl DefaultMaterial
f  1//1 2//1 3//1
f  2//1 1//1 4//2
f  4//3 5//3 2//3
f  5//3 4//3 6//4
f  5//5 7//5 8//5
f  7//5 5//5 6//5
f  8//6 1//6 3//6
f  1//6 8//6 7//7
f  1//1 2//1 3//1
f  2//1 1//1 4//2
f  4//3 5//3 2//3
f  5//3 4//3 6//4
f  5//5 7//5 8//5
f  7//5 5//5 6//5
f  8//6 1//6 3//6
f  1//6 8//6 7//7
f  1//8 6//8 4//8
f  6//8 1//8 7//8
f  1//8 6//8 4//8
f  6//8 1//8 7//8
f  5//9 3//9 2//9
f  3//9 5//9 8//10
f  5//9 3//9 2//9
f  3//9 5//9 8//10

