# {"id":"BLDG_0003000000288fc5","idOriginal":"BLDG_0003000000288fc5","origin":[13.351071030836685,52.5349606285677],"elevation":35.3699989318848}
# Longitude: 13.351071030836685
# Latitude: 52.5349606285677
# Elevation: 35.3699989318848

# File produced by Open Asset Import Library (http://www.assimp.sf.net)
# (assimp v3.1.0)

mtllib BLDG_0003000000288fc5.obj.mtl

# 8 vertex positions
v  5.84898 20.189 -0.942648
v  3.11725 21.254 18.7426
v  8.96577 20.189 17.8006
v  0.000452652 21.254 -0.00067277
v  5.84855 5.76814e-17 -0.942009
v  3.11679 -1.14769e-15 18.7432
v  0 0 0
v  8.96534 -1.09001e-15 17.8012

# 0 UV coordinates

# 11 vertex normals
vn 0.174539 0.984222 -0.029024
vn 0.174539 0.984222 -0.029024
vn 0 -1 -6.12323e-17
vn -1.22287e-23 -1 -6.12323e-17
vn -0.986454 2.62101e-05 0.164037
vn -0.986454 2.62012e-05 0.164037
vn -0.159018 -2.78644e-05 -0.987276
vn -0.159018 -2.78644e-05 -0.987276
vn 0.986454 -2.62034e-05 -0.164037
vn 0.159018 2.78891e-05 0.987276
vn 0.159018 2.78571e-05 0.987276

# Mesh 'defaultobject' with 12 faces
g defaultobject
usemtl DefaultMaterial
f  1//1 2//1 3//1
f  2//1 1//1 4//2
f  5//3 6//3 7//3
f  6//3 5//3 8//4
f  2//5 7//5 6//5
f  7//5 2//5 4//6
f  4//7 5//7 7//7
f  5//7 4//7 1//8
f  5//9 3//9 8//9
f  3//9 5//9 1//9
f  8//10 2//10 6//10
f  2//10 8//10 3//11

