# {"id":"BLDG_0003000f00001f1f","idOriginal":"BLDG_0003000f00001f1f","origin":[13.355751275780475,52.502986637944815],"elevation":34.7900009155273}
# Longitude: 13.355751275780475
# Latitude: 52.502986637944815
# Elevation: 34.7900009155273

# File produced by Open Asset Import Library (http://www.assimp.sf.net)
# (assimp v3.1.0)

mtllib BLDG_0003000f00001f1f.obj.mtl

# 10 vertex positions
v  0 0 0
v  21.4667 4.70632e-16 -7.686
v  15.8566 -4.06931e-16 6.64568
v  5.37656 8.83557e-16 -14.4296
v  9.7874 13.7478 -4.24002
v  5.37682 12.0993 -14.43
v  0.000257738 12.0993 -0.00038218
v  15.8569 12.0993 6.6453
v  11.5631 13.7478 -3.49579
v  21.467 12.0993 -7.68638

# 0 UV coordinates

# 14 vertex normals
vn -8.00492e-25 -1 -6.12323e-17
vn -7.88872e-25 -1 -6.12323e-17
vn -0.196396 0.97779 -0.0731785
vn -0.0809895 0.977803 0.193241
vn -0.0809894 0.977803 0.193241
vn 0.0809907 0.977802 -0.193244
vn 0.0809907 0.977802 -0.193244
vn 0.195069 0.977813 0.0763596
vn 0.931197 -8.31707e-06 0.364517
vn -0.386536 3.7336e-05 0.922274
vn -0.937064 8.93245e-06 -0.349157
vn -0.937064 8.97084e-06 -0.349157
vn 0.386536 -3.7319e-05 -0.922274
vn 0.386536 -3.73401e-05 -0.922274

# Mesh 'defaultobject' with 16 faces
g defaultobject
usemtl DefaultMaterial
f  1//1 2//1 3//1
f  2//1 1//1 4//2
f  5//3 6//3 7//3
f  5//4 8//4 9//4
f  8//4 5//4 7//5
f  5//6 10//6 6//6
f  10//6 5//6 9//7
f  8//8 10//8 9//8
f  2//9 8//9 3//9
f  8//9 2//9 10//9
f  3//10 7//10 1//10
f  7//10 3//10 8//10
f  7//11 4//11 1//11
f  4//11 7//11 6//12
f  6//13 2//13 4//13
f  2//13 6//13 10//14

