# {"id":"BLDG_00030009007ad184","idOriginal":"BLDG_00030009007ad184","origin":[13.327991359754963,52.5251504528163],"elevation":31.9}
# Longitude: 13.327991359754963
# Latitude: 52.5251504528163
# Elevation: 31.9

# File produced by Open Asset Import Library (http://www.assimp.sf.net)
# (assimp v3.1.0)

mtllib BLDG_00030009007ad184.obj.mtl

# 46 vertex positions
v  0.000476344 22.4 -0.00070862
v  0.930056 -3.8147e-07 -3.49477
v  0 -3.8147e-07 -2.33583e-23
v  2.78857 -3.8147e-07 -10.4783
v  4.38747 1.0095e-15 -16.4863
v  0.930532 22.4 -3.49548
v  2.78905 22.4 -10.479
v  4.38795 22.4 -16.487
v  15.2891 22.4 -7.04615
v  16.888 23.2179 -13.0542
v  16.888 23.91 -13.0542
v  15.2891 21.8326 -7.04613
v  13.4652 22.4 -0.192481
v  12.5351 22.4 3.30229
v  12.5346 -3.8147e-07 3.303
v  15.2886 -3.8147e-07 -7.04544
v  13.4647 -3.8147e-07 -0.191773
v  32.6207 -3.8147e-07 -2.28558
v  30.7744 21.8326 4.36869
v  32.6212 21.8326 -2.28627
v  29.8073 21.8326 7.85369
v  29.8068 -3.8147e-07 7.85438
v  30.7739 -3.8147e-07 4.36938
v  11.346 23.91 2.9889
v  4.23494 26.4 1.11496
v  11.3455 -3.8147e-07 2.98965
v  4.23438 -3.8147e-07 1.1158
v  35.7586 -3.8147e-07 9.42273
v  35.7591 23.2179 9.422
v  40.2178 -3.8147e-07 -6.64631
v  34.2836 23.2179 -8.27688
v  40.2183 23.2179 -6.64705
v  15.7023 23.91 -13.3799
v  8.6106 26.4 -15.3275
v  34.2831 -3.8147e-07 -8.27614
v  16.8875 7.99293e-16 -13.0534
v  15.7017 8.19234e-16 -13.3791
v  8.61004 9.38488e-16 -15.3267
v  38.5559 23.2179 -0.656482
v  36.7262 23.2179 5.93699
v  38.5554 -3.8147e-07 -0.655748
v  36.7257 -3.8147e-07 5.93773
v  14.1033 23.91 -7.37186
v  12.2761 23.91 -0.50587
v  5.165 26.4 -2.3798
v  7.01184 26.4 -9.31946

# 0 UV coordinates

# 66 vertex normals
vn -0.966364 1.24143e-05 -0.257177
vn -0.966364 1.24191e-05 -0.257177
vn -0.966364 1.23948e-05 -0.257177
vn -0.966364 1.24319e-05 -0.257177
vn -0.966364 1.24308e-05 -0.257177
vn -0.966364 1.24265e-05 -0.257177
vn 0.966364 -1.32988e-05 0.257177
vn 0.966364 -1.13538e-05 0.257177
vn 0.966364 -1.12773e-05 0.257177
vn 0.966364 -1.02242e-05 0.257177
vn 0.966364 -1.24361e-05 0.257177
vn 0.966364 -1.2424e-05 0.257177
vn 0 1 0
vn -0.963585 1.20836e-05 -0.267401
vn -0.963585 1.21924e-05 -0.267401
vn -0.963585 1.19994e-05 -0.267401
vn -0.254811 3.59765e-05 0.966991
vn -0.254811 3.59698e-05 0.966991
vn -0.254811 3.60234e-05 0.966991
vn -0.254812 3.59378e-05 0.966991
vn -0.254811 3.60111e-05 0.966991
vn -0.264822 3.61236e-05 0.964297
vn -0.264822 3.61431e-05 0.964297
vn -0.254812 3.59886e-05 0.966991
vn -0.254811 3.60301e-05 0.966991
vn 0.264822 -3.61311e-05 -0.964297
vn 0.264822 -3.60938e-05 -0.964297
vn 0.264822 -3.65896e-05 -0.964297
vn 0.264822 -3.61011e-05 -0.964297
vn 0.264822 -3.615e-05 -0.964297
vn 0.264822 -3.63043e-05 -0.964297
vn 0.264822 -3.61184e-05 -0.964297
vn 0.264822 -3.60943e-05 -0.964297
vn -4.16334e-17 -1 5.55112e-17
vn -1.00929e-17 -1 -2.01859e-17
vn 0.264822 -3.64199e-05 -0.964297
vn 0.963585 -1.19585e-05 0.267401
vn 0.963585 -1.20176e-05 0.267401
vn 0.963585 -1.19021e-05 0.267401
vn 0.963585 -1.21183e-05 0.267401
vn 0 -1 0
vn 1.62495e-08 -1 -5.91691e-08
vn 7.49037e-09 -1 -1.07125e-07
vn -0.211609 0.975589 -0.0587229
vn -0.211609 0.975589 -0.0587229
vn -0.211609 0.975589 -0.058723
vn -0.211609 0.975589 -0.0587229
vn -0.211609 0.975589 -0.0587228
vn -0.0575993 0.97606 0.209736
vn -0.0575993 0.97606 0.209736
vn -0.0575993 0.97606 0.209736
vn 0.749327 0.631458 0.199422
vn 0.749329 0.631458 0.199417
vn 0.749329 0.631458 0.199417
vn 0.749328 0.631458 0.199418
vn 0.749328 0.631458 0.199417
vn 0.309926 0.947177 0.0824799
vn 0.309926 0.947176 0.0824799
vn 0.309936 0.947173 0.0824755
vn 0.30992 0.947178 0.0824785
vn 0.30992 0.947178 0.0824785
vn 0.309918 0.947179 0.08248
vn -0.651752 0.738333 -0.173449
vn -0.651752 0.738333 -0.173449
vn -0.651764 0.738322 -0.173447
vn -0.0625036 0.971748 0.227594

# Mesh 'defaultobject' with 176 faces
g defaultobject
usemtl DefaultMaterial
f  1//1 2//1 3//1
f  2//1 1//1 4//2
f  4//2 1//1 5//3
f  5//3 1//1 6//4
f  5//3 6//4 7//5
f  5//3 7//5 8//6
f  9//7 10//7 11//7
f  10//7 9//7 12//8
f  12//8 9//7 13//9
f  12//8 13//9 14//10
f  12//8 14//10 15//11
f  12//8 15//11 16//12
f  16//13 15//13 17//13
f  18//14 19//14 20//14
f  19//14 18//14 21//15
f  21//15 18//14 22//16
f  22//13 18//13 23//13
f  1//17 24//17 25//17
f  24//17 1//17 14//18
f  14//18 1//17 15//19
f  15//19 1//17 26//20
f  26//20 1//17 3//21
f  26//20 3//1 27//3
f  18//22 12//22 16//22
f  12//22 18//22 20//23
f  28//24 21//24 22//24
f  21//24 28//24 29//25
f  30//26 31//26 32//26
f  31//26 30//26 10//27
f  10//27 30//26 33//28
f  33//28 30//26 34//29
f  34//29 30//26 8//30
f  8//30 30//26 35//31
f  8//30 35//31 36//32
f  8//30 36//32 5//33
f  5//34 36//34 37//34
f  5//34 37//34 38//35
f  33//28 11//36 10//27
f  39//37 30//37 32//37
f  30//37 39//37 40//38
f  30//37 40//38 29//39
f  30//37 29//39 28//40
f  30//41 28//41 41//41
f  41//41 28//41 42//41
f  1//1 2//1 3//1
f  2//1 1//1 4//2
f  4//2 1//1 5//3
f  5//3 1//1 6//4
f  5//3 6//4 7//5
f  5//3 7//5 8//6
f  9//7 10//7 11//7
f  10//7 9//7 12//8
f  12//8 9//7 13//9
f  12//8 13//9 14//10
f  12//8 14//10 15//11
f  12//8 15//11 16//12
f  16//13 15//13 17//13
f  18//14 19//14 20//14
f  19//14 18//14 21//15
f  21//15 18//14 22//16
f  22//13 18//13 23//13
f  1//17 24//17 25//17
f  24//17 1//17 14//18
f  14//18 1//17 15//19
f  15//19 1//17 26//20
f  26//20 1//17 3//21
f  26//20 3//1 27//3
f  18//22 12//22 16//22
f  12//22 18//22 20//23
f  28//24 21//24 22//24
f  21//24 28//24 29//25
f  30//26 31//26 32//26
f  31//26 30//26 10//27
f  10//27 30//26 33//28
f  33//28 30//26 34//29
f  34//29 30//26 8//30
f  8//30 30//26 35//31
f  8//30 35//31 36//32
f  8//30 36//32 5//33
f  5//34 36//34 37//34
f  5//34 37//34 38//35
f  33//28 11//36 10//27
f  39//37 30//37 32//37
f  30//37 39//37 40//38
f  30//37 40//38 29//39
f  30//37 29//39 28//40
f  30//41 28//41 41//41
f  41//41 28//41 42//41
f  38//35 4//42 5//34
f  4//42 38//35 37//34
f  4//42 37//34 36//34
f  4//42 36//34 35//43
f  4//42 35//43 30//41
f  4//42 30//41 41//41
f  4//13 41//13 16//13
f  16//13 41//41 18//13
f  18//41 41//41 23//41
f  23//41 41//41 42//41
f  23//41 42//41 28//41
f  23//41 28//41 22//41
f  16//41 2//41 4//42
f  2//41 16//41 17//41
f  2//41 17//41 15//41
f  2//41 15//41 26//41
f  2//41 26//41 3//41
f  3//13 26//13 27//3
f  38//35 4//42 5//34
f  4//42 38//35 37//34
f  4//42 37//34 36//34
f  4//42 36//34 35//43
f  4//42 35//43 30//41
f  4//42 30//41 41//41
f  4//13 41//13 16//13
f  16//13 41//41 18//13
f  18//41 41//41 23//41
f  23//41 41//41 42//41
f  23//41 42//41 28//41
f  23//41 28//41 22//41
f  16//41 2//41 4//42
f  2//41 16//41 17//41
f  2//41 17//41 15//41
f  2//41 15//41 26//41
f  2//41 26//41 3//41
f  3//13 26//13 27//3
f  19//44 32//44 20//44
f  32//44 19//44 39//45
f  39//45 19//44 21//46
f  39//45 21//46 40//47
f  40//47 21//46 29//48
f  31//49 20//49 32//49
f  20//49 31//49 10//50
f  20//49 10//50 12//51
f  43//52 9//52 33//52
f  9//52 43//52 44//53
f  9//52 44//53 13//54
f  13//54 44//53 24//55
f  13//54 24//55 14//56
f  24//57 45//57 25//57
f  45//57 24//57 46//58
f  46//59 24//59 34//59
f  34//60 24//57 44//60
f  34//60 44//60 43//61
f  34//60 43//61 33//62
f  25//63 6//63 1//63
f  6//63 25//63 7//63
f  7//63 25//63 8//64
f  8//65 25//65 34//65
f  34//13 25//13 45//13
f  34//13 45//13 46//13
f  33//66 9//66 11//66
f  19//44 32//44 20//44
f  32//44 19//44 39//45
f  39//45 19//44 21//46
f  39//45 21//46 40//47
f  40//47 21//46 29//48
f  31//49 20//49 32//49
f  20//49 31//49 10//50
f  20//49 10//50 12//51
f  43//52 9//52 33//52
f  9//52 43//52 44//53
f  9//52 44//53 13//54
f  13//54 44//53 24//55
f  13//54 24//55 14//56
f  24//57 45//57 25//57
f  45//57 24//57 46//58
f  46//59 24//59 34//59
f  34//60 24//57 44//60
f  34//60 44//60 43//61
f  34//60 43//61 33//62
f  25//63 6//63 1//63
f  6//63 25//63 7//63
f  7//63 25//63 8//64
f  8//65 25//65 34//65
f  34//13 25//13 45//13
f  34//13 45//13 46//13
f  33//66 9//66 11//66

