# {"id":"BLDG_00030008003e0603","idOriginal":"BLDG_00030008003e0603","origin":[13.312409484191305,52.558440785867056],"elevation":35.4300003051758}
# Longitude: 13.312409484191305
# Latitude: 52.558440785867056
# Elevation: 35.4300003051758

# File produced by Open Asset Import Library (http://www.assimp.sf.net)
# (assimp v3.1.0)

mtllib BLDG_00030008003e0603.obj.mtl

# 8 vertex positions
v  7.6186e-05 3.58583 -0.000113689
v  5.218 3.58583 4.61396
v  2.88919 3.58583 -1.16498
v  2.32891 3.58583 5.77776
v  0 0 0
v  2.32883 -3.53793e-16 5.77787
v  5.21792 -2.82531e-16 4.61408
v  2.88911 7.13272e-17 -1.16486

# 0 UV coordinates

# 10 vertex normals
vn -0 1 0
vn -0.927495 3.15036e-05 0.373836
vn -0.927495 3.15584e-05 0.373836
vn 0.373648 2.14323e-05 0.927571
vn 0.373647 2.1411e-05 0.927571
vn 0.92752 -3.15876e-05 -0.373774
vn 0.92752 -3.16303e-05 -0.373774
vn -0.37394 -2.14602e-05 -0.927453
vn -0.37394 -2.14583e-05 -0.927453
vn 0 -1 -6.12323e-17

# Mesh 'defaultobject' with 12 faces
g defaultobject
usemtl DefaultMaterial
f  1//1 2//1 3//1
f  2//1 1//1 4//1
f  4//2 5//2 6//2
f  5//2 4//2 1//3
f  7//4 4//4 6//4
f  4//4 7//4 2//5
f  8//6 2//6 7//6
f  2//6 8//6 3//7
f  1//8 8//8 5//8
f  8//8 1//8 3//9
f  6//10 8//10 7//10
f  8//10 6//10 5//10

