# {"id":"BLDG_0003000f000e84d8","idOriginal":"BLDG_0003000f000e84d8","origin":[13.416651509912132,52.5093323680153],"elevation":34.9900016784668}
# Longitude: 13.416651509912132
# Latitude: 52.5093323680153
# Elevation: 34.9900016784668

# File produced by Open Asset Import Library (http://www.assimp.sf.net)
# (assimp v3.1.0)

mtllib BLDG_0003000f000e84d8.obj.mtl

# 38 vertex positions
v  14.9679 5.75197 -19.3454
v  16.9286 5.75197 -5.02033
v  22.1507 5.75197 -15.9937
v  9.78755 5.75197 -8.35259
v  12.5806 5.75197 -20.4594
v  9.78755 6.00151 -8.35259
v  14.9679 6.00151 -19.3454
v  7.3853 5.75197 -9.47356
v  39.6825 6.00151 14.7005
v  43.2273 5.75197 7.25162
v  13.4296 6.00151 2.33216
v  6.32884 6.00151 -1.01317
v  6.32883 5.75197 -1.01316
v  3.92081 5.75197 -2.14763
v  5.00536 5.75197 -10.5841
v  3.92082 6.00151 -2.14764
v  1.545 6.00151 -3.26695
v  4.7884 6.00151 2.25568
v  2.37594 6.00151 1.11911
v  1.545 5.75197 -3.26694
v  2.37594 5.75197 1.11912
v  0.000123007 5.75197 -0.00018175
v  14.9678 1.18455e-15 -19.3452
v  12.5805 1.25277e-15 -20.4592
v  39.6824 -9.00159e-16 14.7007
v  13.4295 -1.42815e-16 2.33235
v  43.2272 -4.44045e-16 7.2518
v  16.9284 3.07396e-16 -5.02015
v  6.32871 6.2027e-17 -1.01298
v  5.00523 6.4808e-16 -10.5839
v  1.54488 2.00031e-16 -3.26676
v  7.38518 5.80077e-16 -9.47338
v  4.78827 -1.38132e-16 2.25587
v  2.37582 -6.85375e-17 1.1193
v  0 0 0
v  22.1505 9.7932e-16 -15.9935
v  9.78742 5.11437e-16 -8.3524
v  3.92069 1.31494e-16 -2.14745

# 0 UV coordinates

# 51 vertex normals
vn 0 1 0
vn -0.0853018 0.995544 -0.0401985
vn -0.0847228 0.995599 -0.0400661
vn 0.0127857 0.999543 -0.0273998
vn 0.013055 0.999531 -0.0277103
vn 0.0129532 0.999531 -0.0277587
vn 0.0131016 0.999527 -0.0278092
vn 0.013015 0.999526 -0.0278911
vn 0.013133 0.999525 -0.0278759
vn 0.0293606 0.997624 -0.0623204
vn 0.0293606 0.997624 -0.0623204
vn 0.422862 -3.78916e-05 -0.906194
vn 0.422863 -3.75161e-05 -0.906194
vn -0.426193 3.76724e-05 0.904632
vn -0.426193 3.78476e-05 0.904632
vn 0.422862 -3.75961e-05 -0.906194
vn 0.902966 -5.8944e-06 0.429712
vn 0.902966 -5.58736e-06 0.429711
vn -0.426194 3.76953e-05 0.904632
vn -0.904588 7.30212e-06 -0.426288
vn -0.426194 3.74717e-05 0.904632
vn -0.904009 5.8023e-06 -0.427513
vn -0.904009 5.79671e-06 -0.427513
vn 0.422862 -3.77413e-05 -0.906194
vn 0.904009 -5.52274e-06 0.427513
vn -0.426193 3.77038e-05 0.904632
vn -0.426194 3.7674e-05 0.904632
vn -0.904009 5.52274e-06 -0.427513
vn 0.904588 -5.87054e-06 0.426288
vn 0.904588 -5.87287e-06 0.426288
vn -0.426194 3.7705e-05 0.904632
vn -0.904009 5.82387e-06 -0.427513
vn -0.904009 5.81443e-06 -0.427513
vn 0.422862 -3.75911e-05 -0.906194
vn 0.422863 -3.7521e-05 -0.906194
vn 0.902966 -5.62099e-06 0.429712
vn 0.904588 -7.54778e-06 0.426288
vn 0.904588 -5.03186e-06 0.426288
vn -0.422862 3.74028e-05 0.906194
vn -0.904009 5.79671e-06 -0.427513
vn -0.904009 5.72583e-06 -0.427513
vn 0 -1 -6.12323e-17
vn -8.79379e-24 -1 -6.12323e-17
vn -2.64579e-23 -1 -6.12323e-17
vn -2.62935e-23 -1 -6.12323e-17
vn 3.58455e-24 -1 -6.12323e-17
vn 3.53815e-24 -1 -6.12323e-17
vn 6.65008e-24 -1 -6.12323e-17
vn -1.96333e-23 -1 -6.12323e-17
vn 1.0987e-23 -1 -6.12323e-17
vn 5.57823e-24 -1 -6.12323e-17

# Mesh 'defaultobject' with 68 faces
g defaultobject
usemtl DefaultMaterial
f  1//1 2//1 3//1
f  2//1 1//1 4//1
f  5//2 6//2 7//2
f  6//3 5//3 8//3
f  2//4 9//4 10//4
f  9//5 2//5 11//5
f  4//6 11//6 2//6
f  11//7 4//7 12//7
f  8//1 13//1 4//1
f  13//1 8//1 14//1
f  15//8 16//8 8//8
f  16//9 15//9 17//9
f  14//10 18//10 13//10
f  18//10 14//10 19//11
f  20//1 21//1 14//1
f  21//1 20//1 22//1
f  5//12 23//12 24//12
f  23//12 5//12 7//13
f  25//14 11//14 26//14
f  11//14 25//14 9//15
f  2//16 27//16 28//16
f  27//16 2//16 10//16
f  27//17 9//17 25//17
f  9//17 27//17 10//18
f  26//14 12//19 29//19
f  12//19 26//14 11//14
f  12//20 4//20 13//20
f  14//21 17//21 20//21
f  17//21 14//21 16//21
f  17//22 30//22 31//22
f  30//22 17//22 15//23
f  15//24 32//24 30//24
f  32//24 15//24 8//24
f  16//25 14//25 8//25
f  33//26 19//26 34//26
f  19//26 33//26 18//27
f  19//28 14//28 21//28
f  29//29 18//29 33//29
f  18//29 29//29 13//30
f  34//26 22//31 35//31
f  22//31 34//26 21//31
f  22//32 31//22 35//32
f  31//22 22//32 20//33
f  1//34 36//34 23//12
f  36//34 1//34 3//35
f  36//36 2//36 28//36
f  2//36 36//36 3//36
f  1//37 6//37 4//37
f  6//37 1//37 7//38
f  6//39 8//39 4//39
f  8//40 24//40 32//40
f  24//40 8//40 5//41
f  23//42 28//42 37//42
f  28//42 23//42 36//43
f  37//42 24//44 23//42
f  24//44 37//42 32//45
f  28//42 25//46 26//46
f  25//46 28//42 27//47
f  37//42 26//46 29//48
f  26//46 37//42 28//42
f  32//45 29//48 38//49
f  29//48 32//45 37//42
f  30//42 38//49 31//42
f  38//49 30//42 32//45
f  38//49 33//50 34//50
f  33//50 38//49 29//48
f  31//42 34//50 35//51
f  34//50 31//42 38//49

