# {"id":"BLDG_00030000001690e4","idOriginal":"BLDG_00030000001690e4","origin":[13.374083998307233,52.52582498600498],"elevation":33.0499992370605}
# Longitude: 13.374083998307233
# Latitude: 52.52582498600498
# Elevation: 33.0499992370605

# File produced by Open Asset Import Library (http://www.assimp.sf.net)
# (assimp v3.1.0)

mtllib BLDG_00030000001690e4.obj.mtl

# 10 vertex positions
v  13.4657 8.14192 -2.1248
v  21.352 4.36006 -0.514472
v  15.095 4.36006 -10.1049
v  9.2992e-05 4.36006 -0.000137931
v  7.88659 8.14192 1.60995
v  6.25714 4.36006 9.59029
v  0 0 0
v  21.3519 3.14939e-17 -0.514334
v  6.25705 -5.87244e-16 9.59043
v  15.0949 6.18738e-16 -10.1048

# 0 UV coordinates

# 16 vertex normals
vn 0.461624 0.834384 -0.301176
vn -0.30661 0.834387 -0.458026
vn -0.30661 0.834387 -0.458026
vn 0.306606 0.834392 0.45802
vn 0.306606 0.834392 0.45802
vn -0.461609 0.834396 0.301166
vn 0 -1 -6.12323e-17
vn -1.27263e-25 -1 -6.12323e-17
vn -0.837514 3.52826e-05 0.546416
vn -0.837514 3.51486e-05 0.546416
vn -0.556281 -1.44241e-05 -0.830994
vn -0.556281 -1.44315e-05 -0.830994
vn 0.837514 -3.51463e-05 -0.546416
vn 0.837514 -3.52227e-05 -0.546416
vn 0.556281 1.46423e-05 0.830994
vn 0.556281 1.44497e-05 0.830994

# Mesh 'defaultobject' with 16 faces
g defaultobject
usemtl DefaultMaterial
f  1//1 2//1 3//1
f  1//2 4//2 5//2
f  4//2 1//2 3//3
f  1//4 6//4 2//4
f  6//4 1//4 5//5
f  4//6 6//6 5//6
f  7//7 8//7 9//7
f  8//7 7//7 10//8
f  6//9 7//9 9//9
f  7//9 6//9 4//10
f  4//11 10//11 7//11
f  10//11 4//11 3//12
f  10//13 2//13 8//13
f  2//13 10//13 3//14
f  8//15 6//15 9//15
f  6//15 8//15 2//16

