# {"id":"BLDG_0003000e004566f8","idOriginal":"BLDG_0003000e004566f8","origin":[13.344020164943299,52.56127974229418],"elevation":38.4799995422363}
# Longitude: 13.344020164943299
# Latitude: 52.56127974229418
# Elevation: 38.4799995422363

# File produced by Open Asset Import Library (http://www.assimp.sf.net)
# (assimp v3.1.0)

mtllib BLDG_0003000e004566f8.obj.mtl

# 12 vertex positions
v  0.000138002 6.48227 -0.00020556
v  7.80096 8.87919 0.224018
v  2.98831 8.87919 -3.68763
v  4.81278 6.48227 3.91145
v  10.789 6.48227 -3.46326
v  5.97639 6.48227 -7.37491
v  7.80077 -1.37344e-17 0.224299
v  10.7889 2.12051e-16 -3.46305
v  4.81264 -2.3952e-16 3.91165
v  2.98812 2.25785e-16 -3.68735
v  0 0 0
v  5.97625 4.51571e-16 -7.37471

# 0 UV coordinates

# 19 vertex normals
vn -0.284328 0.892628 0.349818
vn 0.284337 0.892621 -0.349829
vn 0.284337 0.892621 -0.349829
vn 0.776923 3.52477e-06 0.629596
vn 0.776923 3.3788e-06 0.629596
vn 0.776923 3.44446e-06 0.629596
vn 0.776923 3.35329e-06 0.629596
vn -0.776923 -3.42512e-06 -0.629596
vn -0.776923 -3.4098e-06 -0.629596
vn -0.776923 -3.38732e-06 -0.629596
vn -0.776923 -3.43712e-06 -0.629596
vn -0.630727 3.80114e-05 0.776005
vn -0.630727 3.80356e-05 0.776005
vn 0.630727 -3.80029e-05 -0.776005
vn 0.630727 -3.80503e-05 -0.776005
vn -3.59712e-24 -1 -6.12323e-17
vn -1.43885e-23 -1 -6.12323e-17
vn 7.19424e-24 -1 -6.12323e-17
vn 0 -1 -6.12323e-17

# Mesh 'defaultobject' with 20 faces
g defaultobject
usemtl DefaultMaterial
f  1//1 2//1 3//1
f  2//1 1//1 4//1
f  3//2 5//2 6//2
f  5//2 3//2 2//3
f  5//4 7//4 8//4
f  7//4 5//4 9//5
f  9//5 5//4 4//6
f  4//6 5//4 2//7
f  1//8 10//8 11//8
f  10//8 1//8 12//9
f  12//9 1//8 6//10
f  6//10 1//8 3//11
f  4//12 11//12 9//12
f  11//12 4//12 1//13
f  12//14 5//14 8//14
f  5//14 12//14 6//15
f  7//16 12//16 8//16
f  12//16 7//16 9//17
f  12//16 9//17 10//18
f  10//18 9//17 11//19

