# {"id":"BLDG_00030000001767e0","idOriginal":"BLDG_00030000001767e0","origin":[13.382048005010267,52.53204138894202],"elevation":35.5499992370605}
# Longitude: 13.382048005010267
# Latitude: 52.53204138894202
# Elevation: 35.5499992370605

# File produced by Open Asset Import Library (http://www.assimp.sf.net)
# (assimp v3.1.0)

mtllib BLDG_00030000001767e0.obj.mtl

# 31 vertex positions
v  3.13825 20.65 -2.28913
v  9.76767 16.563 0.210089
v  6.27597 16.563 -4.57747
v  8.5475 20.65 5.12765
v  13.3152 16.563 5.07414
v  16.8323 16.563 9.89652
v  13.6945 20.65 12.1849
v  7.0392 16.563 9.65063
v  7.33689 17.56 8.45099
v  6.5714 16.563 9.00921
v  10.5566 16.563 14.4735
v  8.16792 20.3432 5.10204
v  4.72501 17.56 4.86977
v  3.95952 16.563 5.42799
v  3.49171 16.563 4.78657
v  0.000353443 16.563 -0.000524171
v  3.13759 20.3432 8.7702
v  4.44333 17.56 10.561
v  1.83172 17.56 6.97958
v  1.83135 -4.2741e-16 6.98014
v  6.57104 -5.51687e-16 9.00973
v  4.44296 -6.46708e-16 10.5616
v  12.847 -2.71458e-16 4.43325
v  10.2351 -5.21719e-17 0.852032
v  3.95916 -3.32401e-16 5.42851
v  0 0 0
v  6.27562 2.80257e-16 -4.57695
v  16.8319 -6.06019e-16 9.89705
v  10.5563 -8.86276e-16 14.474
v  4.44325 13.7914 10.5611
v  1.83164 13.7917 6.9797

# 0 UV coordinates

# 54 vertex normals
vn 0.585695 0.688835 -0.427163
vn 0.585695 0.688835 -0.427163
vn 0.585695 0.688835 -0.427163
vn 0.585695 0.688835 -0.427163
vn 0.585695 0.688835 -0.427163
vn -0.585674 0.688862 0.427148
vn -0.585674 0.688862 0.427148
vn -0.585674 0.688862 0.427148
vn -0.585675 0.688862 0.427147
vn -0.585675 0.68886 0.427149
vn -0.585673 0.688862 0.427148
vn -0.585674 0.688862 0.427148
vn -0.585673 0.688862 0.427148
vn -0.585674 0.688862 0.427148
vn 0.460909 0.622939 0.632068
vn 0.460909 0.622939 0.632068
vn -0.460915 0.622926 -0.632076
vn -0.460915 0.622926 -0.632076
vn 1.36041e-23 -1 -6.12323e-17
vn 1.53765e-24 -1 -6.12323e-17
vn -3.44497e-24 -1 -6.12323e-17
vn 1 0 0
vn 0 -1 -6.12323e-17
vn 1.01431e-24 -1 -6.12323e-17
vn 5.03881e-25 -1 -6.12323e-17
vn 0.589194 1.30224e-05 0.807991
vn 0.589194 1.30185e-05 0.807991
vn 0.589194 1.29595e-05 0.807991
vn 0.589194 1.28214e-05 0.807991
vn -0.589194 -1.29928e-05 -0.807991
vn -0.589194 -1.29909e-05 -0.807991
vn -0.589194 -1.29977e-05 -0.807991
vn -0.589194 -1.30898e-05 -0.807991
vn 0.807946 -3.58795e-05 -0.589257
vn 0.807946 -3.58656e-05 -0.589257
vn 0.807946 -3.576e-05 -0.589257
vn 0.807946 -3.59137e-05 -0.589257
vn 0.807946 -3.59227e-05 -0.589257
vn 0.807946 -3.59662e-05 -0.589257
vn -0.807989 3.58807e-05 0.589197
vn -0.807989 3.58972e-05 0.589197
vn -0.807989 3.58672e-05 0.589197
vn -0.807989 3.59104e-05 0.589197
vn -0.807989 3.59474e-05 0.589197
vn 0.589254 1.29874e-05 0.807948
vn 0.589254 1.29577e-05 0.807948
vn 0.589254 1.2948e-05 0.807948
vn -0.807946 3.58964e-05 0.589257
vn -0.807946 3.59018e-05 0.589257
vn -0.807946 3.59197e-05 0.589257
vn -0.589254 -1.29874e-05 -0.807948
vn -0.589254 -1.30081e-05 -0.807948
vn -0.807946 3.58724e-05 0.589257
vn 0 -1 0

# Mesh 'defaultobject' with 58 faces
g defaultobject
usemtl DefaultMaterial
f  1//1 2//1 3//1
f  2//1 1//1 4//2
f  2//1 4//2 5//3
f  5//3 4//2 6//4
f  6//4 4//2 7//5
f  8//6 9//6 10//6
f  11//7 7//7 8//6
f  4//8 8//6 7//7
f  9//6 8//6 4//8
f  12//9 9//6 4//8
f  1//10 12//9 4//8
f  13//11 12//9 1//10
f  14//12 13//11 1//10
f  15//13 14//12 1//10
f  16//14 15//13 1//10
f  9//15 17//15 18//15
f  17//15 9//15 12//16
f  13//17 17//17 12//17
f  17//17 13//17 19//18
f  20//19 21//19 22//19
f  21//19 20//19 23//20
f  23//20 20//19 24//21
f  24//22 20//22 25//22
f  24//21 25//23 26//23
f  24//21 26//23 27//24
f  21//19 28//25 29//25
f  28//25 21//19 23//20
f  21//26 30//26 22//26
f  30//26 21//26 10//27
f  30//26 10//27 18//28
f  18//28 10//27 9//29
f  20//30 14//30 25//30
f  14//30 20//30 31//31
f  14//30 31//31 19//32
f  14//30 19//32 13//33
f  3//34 24//34 27//34
f  24//34 3//34 23//35
f  23//35 3//34 28//36
f  28//36 3//34 2//37
f  28//36 2//37 5//38
f  28//36 5//38 6//39
f  22//40 31//40 20//40
f  31//40 22//40 30//41
f  31//40 30//41 19//42
f  19//42 30//41 18//43
f  19//42 18//43 17//44
f  28//45 11//45 29//45
f  11//45 28//45 6//46
f  11//45 6//46 7//47
f  21//48 8//48 10//48
f  8//48 21//48 11//49
f  11//49 21//48 29//50
f  26//51 3//51 27//51
f  3//51 26//51 16//51
f  3//51 16//51 1//52
f  25//53 16//53 26//53
f  16//53 25//53 14//53
f  16//54 14//54 15//54

