# {"id":"BLDG_0003000b001e4b15","idOriginal":"BLDG_0003000b001e4b15","origin":[13.356706859305671,52.52078052285142],"elevation":34.4799995422363}
# Longitude: 13.356706859305671
# Latitude: 52.52078052285142
# Elevation: 34.4799995422363

# File produced by Open Asset Import Library (http://www.assimp.sf.net)
# (assimp v3.1.0)

mtllib BLDG_0003000b001e4b15.obj.mtl

# 20 vertex positions
v  0.000490244 23.0117 -0.00072772
v  20.2231 23.0117 12.5692
v  19.8328 23.0117 -0.52422
v  15.4254 23.0117 12.6958
v  5.11121 23.0117 12.9681
v  0.4105 23.0117 13.0921
v  5.33097 23.0117 19.9859
v  0.629535 23.0117 20.0866
v  20.4346 23.0117 19.6624
v  15.6361 23.0117 19.7652
v  19.8323 3.20547e-17 -0.523492
v  0.41001 -8.01708e-16 13.0929
v  0 0 0
v  5.11071 -7.9411e-16 12.9688
v  15.4249 -7.77439e-16 12.6965
v  20.2226 -7.69685e-16 12.5699
v  15.6356 -1.21031e-15 19.7659
v  20.4341 -1.20402e-15 19.6631
v  0.629045 -1.22999e-15 20.0873
v  5.33048 -1.22383e-15 19.9866

# 0 UV coordinates

# 26 vertex normals
vn -0 1 0
vn -2.0371e-25 -1 -6.12323e-17
vn 2.07344e-23 -1 -6.12323e-17
vn -7.44226e-24 -1 -6.12323e-17
vn 1.05259e-23 -1 -6.12323e-17
vn 1.09174e-23 -1 -6.12323e-17
vn -1.3018e-23 -1 -6.12323e-17
vn 2.04118e-23 -1 -6.12323e-17
vn -8.21768e-24 -1 -6.12323e-17
vn 0.999556 -2.22345e-05 -0.0297952
vn 0.999556 -2.23557e-05 -0.0297954
vn 0.999556 -2.21686e-05 -0.0297952
vn 0.999556 -2.22357e-05 -0.0297954
vn -0.99951 2.22836e-05 0.0313001
vn -0.99951 2.2272e-05 0.0313002
vn -0.99951 2.22849e-05 0.0313002
vn -1.18424e-15 1 9.25186e-17
vn 0.0263868 3.10478e-05 0.999652
vn -0.0263867 -3.10508e-05 -0.999652
vn -0.0263867 -3.10506e-05 -0.999652
vn -0.999556 2.22357e-05 0.0297952
vn -0.999556 2.22345e-05 0.0297952
vn 0.021414 3.11992e-05 0.999771
vn 0.99951 -2.2282e-05 -0.0313002
vn 0.99951 -2.22805e-05 -0.0313002
vn 0.0214141 3.1199e-05 0.999771

# Mesh 'defaultobject' with 36 faces
g defaultobject
usemtl DefaultMaterial
f  1//1 2//1 3//1
f  2//1 1//1 4//1
f  4//1 1//1 5//1
f  5//1 1//1 6//1
f  5//1 6//1 7//1
f  7//1 6//1 8//1
f  4//1 9//1 2//1
f  9//1 4//1 10//1
f  11//2 12//2 13//2
f  12//2 11//2 14//3
f  14//3 11//2 15//4
f  15//4 11//2 16//5
f  15//4 16//5 17//6
f  17//6 16//5 18//7
f  14//3 19//8 12//2
f  19//8 14//3 20//9
f  3//10 16//10 11//10
f  16//10 3//10 18//11
f  18//11 3//10 2//12
f  18//11 2//12 9//13
f  13//14 6//14 1//14
f  6//14 13//14 8//15
f  8//15 13//14 19//16
f  19//17 13//17 12//17
f  15//18 5//18 14//18
f  5//18 15//18 4//18
f  1//19 11//19 13//19
f  11//19 1//19 3//20
f  10//21 15//21 17//21
f  15//21 10//21 4//22
f  18//23 10//23 17//23
f  10//23 18//23 9//23
f  14//24 7//24 20//24
f  7//24 14//24 5//25
f  20//26 8//26 19//26
f  8//26 20//26 7//26

