# {"id":"BLDG_0003000f0003e728","idOriginal":"BLDG_0003000f0003e728","origin":[13.357581657815654,52.54434551632825],"elevation":36.0999984741211}
# Longitude: 13.357581657815654
# Latitude: 52.54434551632825
# Elevation: 36.0999984741211

# File produced by Open Asset Import Library (http://www.assimp.sf.net)
# (assimp v3.1.0)

mtllib BLDG_0003000f0003e728.obj.mtl

# 8 vertex positions
v  9.65239 18.03 -8.39473
v  3.4394 21.066 4.38718
v  13.3114 21.066 -4.19827
v  0.00038416 18.03 -0.00057108
v  0 0 0
v  13.3109 2.57029e-16 -4.1976
v  3.43895 -2.68678e-16 4.38785
v  9.65201 5.13994e-16 -8.39416

# 0 UV coordinates

# 12 vertex normals
vn -0.314166 0.877954 -0.361243
vn -0.314166 0.877954 -0.361243
vn 1.45355e-24 -1 -6.12323e-17
vn 1.48668e-24 -1 -6.12323e-17
vn 0.656228 9.88252e-06 0.754562
vn 0.656228 9.9102e-06 0.754562
vn -0.787071 3.63076e-05 0.616862
vn -0.787071 3.63083e-05 0.616862
vn -0.656228 -9.91788e-06 -0.754563
vn -0.656228 -9.9188e-06 -0.754563
vn 0.75374 -3.68905e-05 -0.657173
vn 0.75374 -3.68893e-05 -0.657173

# Mesh 'defaultobject' with 12 faces
g defaultobject
usemtl DefaultMaterial
f  1//1 2//1 3//1
f  2//1 1//1 4//2
f  5//3 6//3 7//3
f  6//3 5//3 8//4
f  6//5 2//5 7//5
f  2//5 6//5 3//6
f  2//7 5//7 7//7
f  5//7 2//7 4//8
f  4//9 8//9 5//9
f  8//9 4//9 1//10
f  8//11 3//11 6//11
f  3//11 8//11 1//12

