# {"id":"BLDG_00030007000499ee","idOriginal":"BLDG_00030007000499ee","origin":[13.395628520029469,52.5147369378772],"elevation":33.8199996948242}
# Longitude: 13.395628520029469
# Latitude: 52.5147369378772
# Elevation: 33.8199996948242

# File produced by Open Asset Import Library (http://www.assimp.sf.net)
# (assimp v3.1.0)

mtllib BLDG_00030007000499ee.obj.mtl

# 12 vertex positions
v  0.835158 13.2946 10.7784
v  3.0478 13.2946 -0.251565
v  0.00028393 13.2946 -0.00042024
v  5.70673 13.2946 -0.469823
v  6.17491 13.2946 5.40743
v  6.44291 13.2946 10.3462
v  0 0 0
v  6.44262 -6.33548e-16 10.3466
v  0.834874 -6.60014e-16 10.7788
v  6.17463 -3.31135e-16 5.40785
v  5.70645 2.87426e-17 -0.469402
v  3.04752 1.53782e-17 -0.251145

# 0 UV coordinates

# 15 vertex normals
vn 0 1 0
vn 0 -1 -6.12323e-17
vn 7.2905e-24 -1 -6.12323e-17
vn 0 -1 -6.12323e-17
vn 0 -1 -6.12346e-17
vn -0.997014 2.37325e-05 0.0772236
vn -0.997014 2.37341e-05 0.0772236
vn 0.0768477 2.98255e-05 0.997043
vn 0.998531 -2.30567e-05 -0.0541843
vn 0.998531 -2.30223e-05 -0.0541844
vn 0.996842 -2.37831e-05 -0.0794076
vn -0.0818095 -2.97568e-05 -0.996648
vn -0.0818095 -2.9756e-05 -0.996648
vn -0.0821313 -2.9749e-05 -0.996622
vn -0.0821313 -2.97491e-05 -0.996622

# Mesh 'defaultobject' with 20 faces
g defaultobject
usemtl DefaultMaterial
f  1//1 2//1 3//1
f  2//1 1//1 4//1
f  4//1 1//1 5//1
f  5//1 1//1 6//1
f  7//2 8//2 9//2
f  8//2 7//2 10//3
f  10//3 7//2 11//4
f  11//4 7//2 12//5
f  1//6 7//6 9//6
f  7//6 1//6 3//7
f  8//8 1//8 9//8
f  1//8 8//8 6//8
f  10//9 6//9 8//9
f  6//9 10//9 5//10
f  11//11 5//11 10//11
f  5//11 11//11 4//11
f  2//12 11//12 12//12
f  11//12 2//12 4//13
f  3//14 12//14 7//14
f  12//14 3//14 2//15

