# {"id":"BLDG_00030009006665a8","idOriginal":"BLDG_00030009006665a8","origin":[13.378291706153613,52.522558855425274],"elevation":32.6500015258789}
# Longitude: 13.378291706153613
# Latitude: 52.522558855425274
# Elevation: 32.6500015258789

# File produced by Open Asset Import Library (http://www.assimp.sf.net)
# (assimp v3.1.0)

mtllib BLDG_00030009006665a8.obj.mtl

# 31 vertex positions
v  6.63239 18.43 -1.59968
v  1.65655 8.34892e-16 -13.6348
v  6.632 9.79162e-17 -1.59909
v  1.65695 18.43 -13.6354
v  6.57103 1.02296e-15 -16.7062
v  6.57142 18.43 -16.7067
v  3.40348 21.8779 -14.727
v  5.42699 22.5356 -15.9916
v  12.256 18.43 -2.95563
v  12.2556 1.80944e-16 -2.95504
v  16.5514 18.43 7.43501
v  16.551 -4.55299e-16 7.43559
v  10.9278 18.43 8.79096
v  10.9274 -5.38327e-16 8.79154
v  2.74031 18.4308 10.7651
v  0 0 0
v  2.73991 -6.59208e-16 10.7657
v  0.000393197 18.4308 -0.00058291
v  1.73691 22.5356 6.82209
v  0.507271 21.8779 1.99065
v  6.63239 18.4308 -1.59968
v  10.9278 18.4308 8.79096
v  8.63456 21.8779 -2.08253
v  10.944 22.5356 -2.6394
v  13.6842 22.5356 3.99111
v  10.9433 22.5356 -2.63922
v  9.37339 22.5356 5.03053
v  9.42183 21.8779 -0.184113
v  8.63682 21.8779 -2.08307
v  7.41748 21.8779 0.299172
v  9.37353 22.5356 5.03086

# 0 UV coordinates

# 45 vertex normals
vn -0.924148 3.17857e-05 0.382033
vn -0.924149 3.17987e-05 0.382033
vn -0.529972 -1.55025e-05 -0.848015
vn -0.529972 -1.55567e-05 -0.848015
vn -0.529972 -1.55592e-05 -0.848015
vn -0.529972 -1.52634e-05 -0.848015
vn 0.924148 -3.17713e-05 -0.382033
vn 0.924149 -3.17991e-05 -0.382033
vn 0.924149 -3.17742e-05 -0.382033
vn 0.2344 2.5789e-05 0.97214
vn 0.2344 2.57398e-05 0.97214
vn -0.969107 2.84827e-05 0.246642
vn -0.969107 2.84752e-05 0.246642
vn -0.969107 2.8443e-05 0.246642
vn -0.969107 2.84583e-05 0.246642
vn -0.2344 -2.57452e-05 -0.97214
vn -0.2344 -2.575e-05 -0.97214
vn 0.2344 2.57916e-05 0.97214
vn -0.796166 0.507573 0.329378
vn -0.795891 0.50824 0.329013
vn -0.248787 0.963088 0.102797
vn -0.249345 0.962905 0.103156
vn 0.879116 0.308356 -0.363417
vn 0.879022 0.30887 -0.363206
vn 0.878917 0.309019 -0.363335
vn 0.878917 0.309019 -0.363335
vn 0.167483 0.699619 0.69461
vn 0.167483 0.699619 0.69461
vn -0.249664 0.962817 0.103209
vn -0.249664 0.962817 0.103209
vn -0.0302249 0.991652 -0.125353
vn -0.0302249 0.991652 -0.125353
vn -0.795659 0.508666 0.328917
vn -0.201992 0.507351 -0.837731
vn -0.204846 0.50764 -0.836863
vn -0.201349 0.511982 -0.835065
vn -0.0294727 0.991636 -0.125652
vn -0.0310978 0.991409 -0.127045
vn 0.167474 0.699657 0.694574
vn 0.162202 0.703911 0.69152
vn 1.24507e-24 -1 -6.12323e-17
vn -5.69009e-24 -1 -6.12323e-17
vn 3.29548e-24 -1 -6.12323e-17
vn 1.64774e-24 -1 -6.12323e-17
vn 0 -1 -6.12323e-17

# Mesh 'defaultobject' with 48 faces
g defaultobject
usemtl DefaultMaterial
f  1//1 2//1 3//1
f  2//1 1//1 4//2
f  4//3 5//3 2//3
f  5//3 4//3 6//4
f  6//4 4//3 7//5
f  6//4 7//5 8//6
f  5//7 9//7 10//7
f  9//7 5//7 6//8
f  10//7 11//9 12//9
f  11//9 10//7 9//7
f  12//10 13//10 14//10
f  13//10 12//10 11//11
f  15//12 16//12 17//12
f  16//12 15//12 18//13
f  18//13 15//12 19//14
f  18//13 19//14 20//15
f  18//16 3//16 16//16
f  3//16 18//16 21//17
f  14//10 15//18 17//18
f  15//18 14//10 22//18
f  4//19 23//19 7//19
f  23//20 4//20 1//20
f  7//21 24//21 8//21
f  24//22 7//22 23//22
f  8//23 9//23 6//23
f  9//24 8//24 24//24
f  25//25 9//25 26//25
f  9//25 25//25 11//26
f  13//27 25//27 27//27
f  25//27 13//27 11//28
f  28//29 26//29 29//29
f  26//29 28//29 25//30
f  27//31 28//31 30//31
f  28//31 27//31 25//32
f  1//33 28//33 29//33
f  28//34 1//34 30//34
f  21//35 20//35 30//35
f  20//36 21//36 18//36
f  30//37 19//37 31//37
f  19//38 30//38 20//38
f  31//39 15//39 22//39
f  15//40 31//40 19//40
f  3//41 5//41 10//41
f  5//41 3//41 2//42
f  10//41 14//43 3//41
f  14//43 10//41 12//44
f  3//41 17//45 16//45
f  17//45 3//41 14//43

