# {"id":"BLDG_0003000f001c5300","idOriginal":"BLDG_0003000f001c5300","origin":[13.362612986996933,52.523579534504556],"elevation":35}
# Longitude: 13.362612986996933
# Latitude: 52.523579534504556
# Elevation: 35

# File produced by Open Asset Import Library (http://www.assimp.sf.net)
# (assimp v3.1.0)

mtllib BLDG_0003000f001c5300.obj.mtl

# 53 vertex positions
v  13.7127 15.46 -6.07143
v  15.5825 15.46 35.1944
v  29.2948 15.46 29.1235
v  0.00032949 15.46 -0.000489
v  49.883 4.6 20.0086
v  43.6303 4.6 29.3955
v  52.333 4.6 25.5425
v  47.1501 4.6 13.8359
v  38.155 4.6 -6.48089
v  37.0341 4.6 -9.01283
v  32.7647 4.6 -7.12271
v  29.4522 4.6 -2.62796
v  22.4074 4.6 -2.53729
v  41.1802 4.6 23.8616
v  38.4473 4.6 17.6889
v  23.5283 4.6 -0.0053329
v  17.5666 4.6 2.63407
v  19.6754 4.6 -8.70812
v  13.7125 4.6 -6.07109
v  29.2946 4.6 29.1238
v  26.5616 4.6 22.9509
v  22.4074 5.8 -2.53733
v  33.088 5.8 -17.9259
v  18.4614 5.8 -11.4504
v  37.034 5.8 -9.01283
v  34.3007 9.29883e-16 -15.1861
v  33.0878 1.09763e-15 -17.9257
v  37.034 5.51868e-16 -9.01268
v  38.155 3.96831e-16 -6.48074
v  47.15 -8.47216e-16 13.8361
v  49.8829 -1.22518e-15 20.0088
v  52.3329 -1.56404e-15 25.5426
v  41.1801 -1.46111e-15 23.8618
v  29.2935 -1.78318e-15 29.1216
v  22.3022 -1.97289e-15 32.2197
v  15.5823 4.6 35.1948
v  15.5822 -2.15507e-15 35.1949
v  9.8038e-05 4.6 -0.000145501
v  0 0 0
v  19.6753 5.3321e-16 -8.70797
v  13.7134 3.7159e-16 -6.06852
v  6.72051 1.82191e-16 -2.97541
v  18.4613 7.01122e-16 -11.4502
v  18.4614 4.6 -11.4503
v  17.5665 -1.61299e-16 2.63422
v  26.5615 -1.40535e-15 22.951
v  24.385 8.61708e-16 -14.0728
v  23.5282 3.17637e-19 -0.0051874
v  29.4521 1.60907e-16 -2.62782
v  38.4472 -1.08314e-15 17.689
v  43.6302 -1.79997e-15 29.3957
v  22.4073 1.55355e-16 -2.53714
v  33.8856 2.81094e-16 -4.59061

# 0 UV coordinates

# 76 vertex normals
vn 0 1 0
vn 0 -1 0
vn 0.914394 -3.21583e-05 -0.404825
vn 0.914394 -3.21769e-05 -0.404825
vn 0.914388 -1.48561e-05 -0.404838
vn -0.389429 -2.08193e-05 -0.921056
vn 0.914389 -3.25569e-05 -0.404836
vn 0.91439 -3.17566e-05 -0.404835
vn 0.914389 -3.17566e-05 -0.404836
vn 0.914389 -3.24729e-05 -0.404836
vn 0.914389 -3.24729e-05 -0.404836
vn 0.914389 -3.24729e-05 -0.404836
vn 0.91439 -3.18825e-05 -0.404836
vn 0.40465 -0.000545735 0.914472
vn 0.404833 2.04794e-05 0.914391
vn 0.404833 2.01418e-05 0.914391
vn 0.404833 2.03039e-05 0.914391
vn 0.404833 2.037e-05 0.914391
vn 0.405145 -0.00014813 0.914253
vn -0.914362 3.22316e-05 0.404898
vn -0.914389 3.24042e-05 0.404836
vn -0.914389 3.22927e-05 0.404836
vn -0.914389 3.20595e-05 0.404836
vn -0.914389 3.22696e-05 0.404836
vn -0.404451 -2.02675e-05 -0.91456
vn -0.404822 -0.00059601 -0.914395
vn -0.404833 -2.02683e-05 -0.914391
vn -0.405214 -0.000596019 -0.914222
vn -0.404516 0.000144341 -0.914531
vn -0.404833 -2.02941e-05 -0.914391
vn -0.404833 -2.02946e-05 -0.914391
vn -0.914394 3.16827e-05 0.404825
vn -0.914394 3.25311e-05 0.404825
vn -0.914394 3.20197e-05 0.404825
vn 0.496112 -3.78524e-05 -0.868258
vn -0.914394 3.20942e-05 0.404825
vn 0.914389 -3.22696e-05 -0.404836
vn 0.914389 -3.24689e-05 -0.404836
vn 0.914389 -3.21567e-05 -0.404836
vn 0.914389 -3.22965e-05 -0.404836
vn 0.914389 -3.22339e-05 -0.404836
vn 0.914389 -3.20938e-05 -0.404836
vn -0.404822 -2.06479e-05 -0.914395
vn -0.404822 -2.01094e-05 -0.914396
vn -0.404822 -2.0703e-05 -0.914395
vn -0.404822 -2.02544e-05 -0.914395
vn 0.404822 2.03492e-05 0.914395
vn 0.404822 2.01941e-05 0.914395
vn 0.404822 2.03966e-05 0.914395
vn 0.404822 2.04874e-05 0.914395
vn 0.404822 2.06682e-05 0.914395
vn 0.404822 2.17107e-05 0.914395
vn -0.404822 -2.08014e-05 -0.914395
vn -0.404822 -2.02544e-05 -0.914395
vn -0.914389 3.26408e-05 0.404836
vn -0.914389 3.24729e-05 0.404836
vn 0.404833 2.01274e-05 0.914391
vn 0.404833 2.08245e-05 0.914391
vn -0.914389 3.21358e-05 0.404836
vn -0.914389 3.18825e-05 0.404836
vn -4.39853e-24 -1 -6.12323e-17
vn 0 -1 -6.12323e-17
vn -3.26594e-23 -1 -6.12323e-17
vn -6.00815e-24 -1 -6.12323e-17
vn 4.17955e-24 -1 -6.12323e-17
vn 0 -1 -6.12466e-17
vn 0 -1 -6.12323e-17
vn 3.67634e-24 -1 -6.12323e-17
vn -1.4971e-24 -1 -6.12323e-17
vn -2.30225e-23 -1 -6.12323e-17
vn 0 -1 -6.12323e-17
vn -5.08423e-24 -1 -6.12323e-17
vn 7.18484e-20 -1 -6.10711e-17
vn 6.49796e-24 -1 -6.12323e-17
vn 3.29548e-24 -1 -6.12323e-17
vn 2.61153e-24 -1 -6.12323e-17

# Mesh 'defaultobject' with 106 faces
g defaultobject
usemtl DefaultMaterial
f  1//1 2//1 3//1
f  2//1 1//1 4//1
f  5//1 6//1 7//1
f  6//1 5//1 8//1
f  6//1 8//1 9//1
f  6//1 9//1 10//1
f  6//1 10//1 11//1
f  6//1 11//1 12//1
f  12//1 11//1 13//1
f  6//2 12//2 14//2
f  14//1 12//1 15//1
f  12//1 13//1 16//1
f  16//1 13//1 17//1
f  17//1 13//1 18//1
f  17//1 18//1 19//1
f  15//1 20//1 14//1
f  20//1 15//1 21//1
f  22//1 23//1 24//1
f  23//1 22//1 25//1
f  23//3 26//3 27//3
f  26//3 23//3 25//4
f  26//5 25//5 28//5
f  28//6 25//6 10//6
f  10//7 29//7 28//7
f  29//7 10//7 9//8
f  29//7 9//8 30//9
f  30//9 9//8 8//10
f  30//9 8//10 31//11
f  31//11 8//10 5//11
f  31//11 5//11 32//12
f  32//12 5//11 7//13
f  33//14 20//14 34//14
f  20//15 33//15 14//15
f  35//16 36//16 37//16
f  36//16 35//16 2//17
f  2//17 35//16 3//18
f  3//19 35//19 34//19
f  3//20 34//20 20//20
f  37//21 38//21 39//21
f  38//21 37//21 4//22
f  4//22 37//21 36//23
f  4//22 36//23 2//24
f  40//25 19//25 18//25
f  19//26 40//26 41//26
f  19//27 4//27 1//27
f  4//28 19//28 41//28
f  4//29 41//29 42//29
f  4//27 42//30 38//30
f  38//30 42//30 39//31
f  22//32 18//32 13//32
f  18//32 22//32 24//33
f  18//32 24//33 43//34
f  43//35 24//35 44//35
f  43//34 40//36 18//32
f  3//37 19//37 1//37
f  19//37 3//37 17//38
f  17//38 3//37 45//39
f  45//39 3//37 21//40
f  21//40 3//37 20//41
f  46//42 45//39 21//40
f  27//43 24//43 23//43
f  24//43 27//43 47//44
f  24//43 47//44 44//45
f  44//45 47//44 43//46
f  12//47 48//47 49//47
f  48//47 12//47 16//48
f  48//47 16//48 45//48
f  45//48 16//48 17//49
f  11//50 22//50 13//50
f  22//50 11//50 25//51
f  25//51 11//50 10//52
f  50//53 21//53 15//53
f  21//53 50//53 46//54
f  33//55 6//55 14//55
f  6//55 33//55 51//56
f  32//57 6//57 51//57
f  6//57 32//57 7//58
f  49//59 15//59 12//59
f  15//59 49//59 50//60
f  48//61 45//61 52//61
f  53//62 50//62 49//62
f  50//62 53//62 29//63
f  50//62 29//63 30//64
f  31//65 34//65 30//64
f  34//65 31//65 33//66
f  33//66 31//65 51//67
f  51//67 31//65 32//68
f  42//69 37//69 39//69
f  37//69 42//69 41//70
f  37//69 41//70 45//61
f  45//61 41//70 40//71
f  45//61 40//71 52//61
f  37//69 45//61 46//72
f  37//69 46//72 50//62
f  37//69 50//62 30//64
f  37//69 30//64 34//65
f  37//69 34//65 35//73
f  26//74 47//74 27//74
f  47//74 26//74 28//75
f  47//74 28//75 29//63
f  47//74 29//63 53//62
f  47//74 53//62 49//62
f  47//74 49//62 43//76
f  43//76 49//62 48//61
f  43//76 48//61 40//71
f  40//71 48//61 52//61

