# {"id":"BLDG_00030009007ed816","idOriginal":"BLDG_00030009007ed816","origin":[13.389102300052024,52.563234379818574],"elevation":40.7599983215332}
# Longitude: 13.389102300052024
# Latitude: 52.563234379818574
# Elevation: 40.7599983215332

# File produced by Open Asset Import Library (http://www.assimp.sf.net)
# (assimp v3.1.0)

mtllib BLDG_00030009007ed816.obj.mtl

# 26 vertex positions
v  15.5446 3.84716e-17 -0.628289
v  25.2732 -5.17171e-17 0.844604
v  22.7324 -2.72208e-16 4.44549
v  18.0985 2.60084e-16 -4.2475
v  5.45311 4.74659e-16 -7.75177
v  15.2403 3.84293e-16 -6.27599
v  12.6599 1.63159e-16 -2.66459
v  8.01988 6.98081e-16 -11.4005
v  10.0724 -4.36378e-16 7.1266
v  17.2546 -7.47547e-16 12.2084
v  7.1441 -3.09514e-16 5.05474
v  0 0 0
v  25.2735 14.1863 0.844154
v  15.5449 14.1863 -0.628739
v  22.7327 14.1863 4.44504
v  18.0988 14.1863 -4.24795
v  8.02015 12.7735 -11.4009
v  12.6601 12.7735 -2.66499
v  15.2406 12.7735 -6.27639
v  5.45338 12.7735 -7.75218
v  10.0726 12.7735 7.12619
v  22.7326 13.2214 4.44507
v  15.5449 12.7735 -0.628695
v  17.2549 13.2214 12.2079
v  7.14438 12.7735 5.05434
v  0.000272723 12.7735 -0.00040507

# 0 UV coordinates

# 31 vertex normals
vn -1.36533e-24 -1 -6.12323e-17
vn 0 -1 -6.12323e-17
vn -9.46463e-24 -1 -6.12323e-17
vn -1.07221e-23 -1 -6.12323e-17
vn 5.06649e-24 -1 -6.12323e-17
vn 0 -1 -6.12323e-17
vn -6.37607e-25 -1 -6.12323e-17
vn 0 1 0
vn -0.0415351 0.998707 -0.0293092
vn -0.0415349 0.998707 -0.0293082
vn -0.576688 3.8362e-05 0.816965
vn -0.576688 3.86419e-05 0.816965
vn -0.817057 -8.15449e-07 -0.576556
vn -0.817057 -8.27561e-07 -0.576556
vn 0.578773 -3.82653e-05 -0.815489
vn 0.817066 8.23705e-07 0.576545
vn 0.817066 8.23705e-07 0.576545
vn -0.817898 -7.92182e-07 -0.575363
vn 0.578773 -3.82148e-05 -0.815489
vn 0.578773 -3.82485e-05 -0.815489
vn 0.813636 1.0597e-06 0.581375
vn 0.813636 1.04288e-06 0.581375
vn 0.817066 8.50307e-07 0.576544
vn -0.577586 3.82404e-05 0.81633
vn -0.577586 3.82052e-05 0.81633
vn -0.577586 3.82052e-05 0.81633
vn -0.577586 3.82357e-05 0.81633
vn 0.576688 -3.82178e-05 -0.816965
vn -0.577586 3.82357e-05 0.81633
vn -0.577586 3.8219e-05 0.81633
vn -0.817898 -7.83101e-07 -0.575363

# Mesh 'defaultobject' with 46 faces
g defaultobject
usemtl DefaultMaterial
f  1//1 2//1 3//1
f  2//1 1//1 4//2
f  5//3 6//3 7//3
f  6//3 5//3 8//4
f  9//5 3//1 10//5
f  3//1 9//5 1//1
f  7//3 9//5 11//6
f  9//5 7//3 1//1
f  12//7 7//3 11//6
f  7//3 12//7 5//3
f  13//8 14//8 15//8
f  14//8 13//8 16//8
f  17//8 18//8 19//8
f  18//8 17//8 20//8
f  21//9 22//9 23//9
f  22//9 21//9 24//10
f  23//8 25//8 21//8
f  25//8 23//8 18//8
f  20//8 25//8 18//8
f  25//8 20//8 26//8
f  22//11 14//11 23//11
f  14//11 22//11 15//12
f  14//13 4//13 1//13
f  4//13 14//13 16//14
f  4//15 13//15 2//15
f  13//15 4//15 16//15
f  2//16 15//16 3//16
f  15//16 2//16 13//17
f  20//18 8//18 5//18
f  8//18 20//18 17//18
f  8//19 19//19 6//19
f  19//19 8//19 17//20
f  6//21 18//21 7//21
f  18//21 6//21 19//22
f  3//16 24//23 10//23
f  24//23 3//16 22//23
f  24//24 9//24 10//24
f  9//24 24//24 21//25
f  21//25 11//26 9//24
f  11//26 21//25 25//27
f  7//28 23//28 1//28
f  23//28 7//28 18//28
f  25//27 12//29 11//26
f  12//29 25//27 26//30
f  26//31 5//18 12//31
f  5//18 26//31 20//18

