# {"id":"BLDG_0003000e003a3001","idOriginal":"BLDG_0003000e003a3001","origin":[13.348910523150808,52.509201430991936],"elevation":32.7599983215332}
# Longitude: 13.348910523150808
# Latitude: 52.509201430991936
# Elevation: 32.7599983215332

# File produced by Open Asset Import Library (http://www.assimp.sf.net)
# (assimp v3.1.0)

mtllib BLDG_0003000e003a3001.obj.mtl

# 84 vertex positions
v  0.376723 8.38064e-18 -0.136866
v  0.312353 -5.54105e-17 0.904921
v  0 0 0
v  1.45657 3.26469e-17 -0.533164
v  14.1109 -2.16486e-17 0.353549
v  0.944704 1.11814e-16 -1.82607
v  0.36639 1.89266e-16 -3.09094
v  0.693097 -4.78379e-17 0.781253
v  1.09038 -1.30441e-16 2.13026
v  1.41344 -2.14265e-16 3.49922
v  1.66113 -2.9903e-16 4.88352
v  1.83354 -3.8451e-16 6.27952
v  1.92891 -4.70423e-16 7.6826
v  14.4417 -1.23831e-16 2.02231
v  1.94793 -5.56547e-16 9.0891
v  1.89007 -6.426e-16 10.4944
v  14.699 -2.26825e-16 3.70433
v  1.75603 -7.28321e-16 11.8944
v  14.8823 -3.30386e-16 5.39561
v  1.62685 -7.84637e-16 12.8141
v  1.46481 -8.40635e-16 13.7286
v  14.9916 -4.34347e-16 7.09342
v  1.3603 -8.70578e-16 14.2176
v  2.49147 -8.85442e-16 14.4604
v  4.61002 -9.12387e-16 14.9004
v  15.0257 -5.38501e-16 8.79438
v  5.39422 -9.22363e-16 15.0633
v  14.986 -6.42662e-16 10.4955
v  6.09697 -9.31272e-16 15.2088
v  7.44951 -9.48636e-16 15.4924
v  12.5812 -7.94817e-16 12.9804
v  14.872 -7.46606e-16 12.193
v  8.23246 -9.58685e-16 15.6565
v  12.3764 -8.8623e-16 14.4732
v  10.2871 -9.84958e-16 16.0856
v  12.1108 -9.7703e-16 15.9561
v  12.0081 -1.00703e-15 16.4461
v  3.96975 0.190002 -24.4784
v  19.5991 0.190002 1.74001
v  -1.31506 0.190002 -3.50716
v  24.8853 0.190002 -19.2366
v  0.312715 16.9711 0.904385
v  0.000361365 16.9711 -0.00053629
v  0.693458 16.9711 0.780716
v  1.09074 16.9711 2.12972
v  1.4138 16.9711 3.49868
v  1.66149 16.9711 4.88299
v  1.8339 16.9711 6.27898
v  1.92927 16.9711 7.68206
v  1.94829 16.9711 9.08856
v  1.89044 16.9711 10.4939
v  1.75639 16.9711 11.8938
v  1.62721 16.9711 12.8136
v  1.46517 16.9711 13.7281
v  1.36066 16.9711 14.2171
v  2.49183 16.9711 14.4598
v  4.61038 16.9711 14.8999
v  5.39458 16.9711 15.0628
v  6.09733 16.9711 15.2083
v  7.44987 16.9711 15.4919
v  8.23283 16.9711 15.656
v  10.2875 16.9711 16.0851
v  12.0084 16.9711 16.4455
v  12.1111 16.9711 15.9556
v  12.3767 16.9711 14.4727
v  12.5815 16.9711 12.9798
v  14.8723 16.9711 12.1925
v  14.9864 16.9711 10.4949
v  15.0261 16.9711 8.79385
v  14.9919 16.9711 7.09289
v  14.8826 16.9711 5.39507
v  14.6994 16.9711 3.70379
v  14.4421 16.9711 2.02178
v  14.1113 16.9711 0.353013
v  -1.31471 16.4262 -3.50767
v  19.5994 16.4262 1.7395
v  3.9701 16.4262 -24.4789
v  24.8856 16.4262 -19.2372
v  0.366751 16.9711 -3.09148
v  0.945065 16.9711 -1.8266
v  1.45693 16.9711 -0.533701
v  0.377084 16.9711 -0.137403
v  11.7934 18.5292 -11.4038
v  11.7769 18.5292 -11.3384

# 0 UV coordinates

# 105 vertex normals
vn 0 -1 -6.12323e-17
vn 1.20376e-23 -1 -6.12323e-17
vn 0 -1 -6.12323e-17
vn -3.82289e-25 -1 -6.12323e-17
vn 7.24379e-25 -1 -6.12323e-17
vn -2.87738e-24 -1 -6.12324e-17
vn 5.76797e-24 -1 -6.12323e-17
vn -1.45752e-23 -1 -6.12324e-17
vn 1.4878e-23 -1 -6.12323e-17
vn -5.97952e-24 -1 -6.12323e-17
vn -1.8522e-23 -1 -6.12324e-17
vn 1.81058e-23 -1 -6.12323e-17
vn 2.82775e-23 -1 -6.12323e-17
vn 1.69676e-23 -1 -6.12323e-17
vn 8.93831e-24 -1 -6.12323e-17
vn -8.4937e-23 -1 -6.12325e-17
vn 4.30776e-23 -1 -6.12323e-17
vn 2.19454e-23 -1 -6.12323e-17
vn 0 -1 -6.12323e-17
vn -3.6734e-23 -1 -6.12324e-17
vn -1.3124e-23 -1 -6.12324e-17
vn -1.04887e-22 -1 -6.12326e-17
vn 5.05842e-23 -1 -6.12323e-17
vn -2.4387e-23 -1 -6.12324e-17
vn -5.65393e-23 -1 -6.12325e-17
vn -1.5586e-23 -1 -6.12324e-17
vn 2.04373e-23 -1 -6.12323e-17
vn -3.99678e-23 -1 -6.12323e-17
vn -3.12475e-23 -1 -6.12322e-17
vn 0 -1 0
vn -0.945273 3.04381e-05 0.326282
vn -0.945273 3.04381e-05 0.326282
vn 0.308922 2.34787e-05 0.951088
vn 0.308921 2.34748e-05 0.951088
vn -0.959266 2.93529e-05 0.282504
vn -0.959266 2.93533e-05 0.282504
vn -0.973266 2.79812e-05 0.229679
vn -0.984366 2.6525e-05 0.176134
vn -0.99246 2.50008e-05 0.12257
vn -0.99246 2.50042e-05 0.12257
vn -0.997698 2.33921e-05 0.0678175
vn -0.997698 2.33832e-05 0.0678176
vn -0.999909 2.17155e-05 0.0135216
vn -0.999909 2.17229e-05 0.0135215
vn -0.999154 1.99734e-05 -0.0411348
vn -0.995447 1.81904e-05 -0.0953139
vn -0.995447 1.81834e-05 -0.0953138
vn -0.990279 1.66978e-05 -0.139092
vn -0.984663 1.54511e-05 -0.174469
vn -0.984663 1.54609e-05 -0.174469
vn -0.977916 1.42198e-05 -0.209
vn -0.977916 1.4215e-05 -0.209
vn -0.209826 3.53452e-05 0.977739
vn -0.209826 3.53467e-05 0.977739
vn -0.203371 3.52515e-05 0.979102
vn -0.203371 3.53067e-05 0.979102
vn -0.203404 3.53079e-05 0.979095
vn -0.203406 3.52476e-05 0.979095
vn -0.202742 3.52373e-05 0.979232
vn -0.202742 3.52428e-05 0.979232
vn -0.205204 3.52788e-05 0.978719
vn -0.205149 3.52784e-05 0.978731
vn -0.205148 3.53332e-05 0.978731
vn -0.204415 3.5322e-05 0.978884
vn -0.204416 3.52684e-05 0.978884
vn -0.205013 3.52755e-05 0.978759
vn 0.978731 -1.43658e-05 0.205147
vn 0.984334 -1.53951e-05 0.176317
vn 0.990723 -1.68082e-05 0.135897
vn 0.325038 2.29429e-05 0.945701
vn 0.99775 -1.91325e-05 0.067047
vn 0.99775 -1.91283e-05 0.0670469
vn 0.999728 -2.05538e-05 0.0233203
vn 0.999798 -2.19286e-05 -0.0200836
vn 0.999798 -2.19275e-05 -0.0200836
vn 0.997934 -2.32822e-05 -0.0642421
vn 0.997934 -2.32842e-05 -0.0642421
vn 0.99418 -2.4579e-05 -0.107729
vn 0.99418 -2.4577e-05 -0.107729
vn 0.988502 -2.58304e-05 -0.151208
vn 0.988502 -2.58324e-05 -0.151208
vn 0.980915 -2.70361e-05 -0.194436
vn 0.980915 -2.70341e-05 -0.194436
vn -0.243349 3.58052e-05 0.969939
vn -0.969684 1.29248e-05 -0.244363
vn 0.243098 -3.58289e-05 -0.970002
vn 0.243098 -3.58217e-05 -0.970002
vn 0.969684 -1.28811e-05 0.244363
vn 0.243091 -3.58373e-05 -0.970004
vn 0.243091 -3.58296e-05 -0.970004
vn -0.909451 3.25063e-05 0.415811
vn -0.909451 3.25092e-05 0.415811
vn -0.929784 3.14284e-05 0.368107
vn -0.929784 3.14317e-05 0.368107
vn -0.344526 -2.23299e-05 -0.938777
vn -0.344526 -2.23322e-05 -0.938777
vn -0.34147 -2.24298e-05 -0.939893
vn -0.34147 -2.24302e-05 -0.939893
vn -0 1 0
vn 0.0465426 0.981501 -0.185713
vn -0.185649 0.981502 -0.0467841
vn -0.18565 0.981502 -0.0467842
vn 0.18565 0.981501 0.0467844
vn 0.185649 0.981502 0.0467852
vn -0.04659 0.981502 0.185698

# Mesh 'defaultobject' with 160 faces
g defaultobject
usemtl DefaultMaterial
f  1//1 2//1 3//1
f  2//1 1//1 4//2
f  5//3 6//3 7//3
f  6//3 5//3 4//2
f  4//2 5//3 8//4
f  4//2 8//4 2//1
f  8//4 5//3 9//5
f  9//5 5//3 10//6
f  10//6 5//3 11//7
f  11//7 5//3 12//8
f  12//8 5//3 13//9
f  13//9 5//3 14//3
f  13//9 14//3 15//10
f  15//10 14//3 16//11
f  16//11 14//3 17//3
f  16//11 17//3 18//3
f  18//3 17//3 19//12
f  18//3 19//12 20//13
f  20//13 19//12 21//14
f  21//14 19//12 22//15
f  21//14 22//15 23//16
f  23//16 22//15 24//17
f  24//17 22//15 25//18
f  25//18 22//15 26//19
f  25//18 26//19 27//20
f  27//20 26//19 28//21
f  27//20 28//21 29//22
f  29//22 28//21 30//23
f  30//23 28//21 31//3
f  31//3 28//21 32//24
f  31//3 33//25 30//23
f  33//25 31//3 34//26
f  33//25 34//26 35//27
f  35//27 34//26 36//28
f  35//27 36//28 37//29
f  38//30 39//30 40//30
f  39//30 38//30 41//30
f  42//31 3//31 2//31
f  3//31 42//31 43//32
f  8//33 42//33 2//33
f  42//33 8//33 44//34
f  45//35 8//35 9//35
f  8//35 45//35 44//36
f  46//37 9//37 10//37
f  9//37 46//37 45//37
f  47//38 10//38 11//38
f  10//38 47//38 46//38
f  48//39 11//39 12//39
f  11//39 48//39 47//40
f  49//41 12//41 13//41
f  12//41 49//41 48//42
f  50//43 13//43 15//43
f  13//43 50//43 49//44
f  51//45 15//45 16//45
f  15//45 51//45 50//45
f  52//46 16//46 18//46
f  16//46 52//46 51//47
f  53//48 18//48 20//48
f  18//48 53//48 52//48
f  54//49 20//49 21//49
f  20//49 54//49 53//50
f  55//51 21//51 23//51
f  21//51 55//51 54//52
f  24//53 55//53 23//53
f  55//53 24//53 56//54
f  25//55 56//55 24//55
f  56//55 25//55 57//56
f  27//57 57//57 25//57
f  57//57 27//57 58//58
f  29//59 58//59 27//59
f  58//59 29//59 59//60
f  30//61 59//61 29//61
f  59//61 30//61 60//61
f  33//62 60//62 30//62
f  60//62 33//62 61//63
f  35//64 61//64 33//64
f  61//64 35//64 62//65
f  37//66 62//66 35//66
f  62//66 37//66 63//66
f  36//67 63//67 37//67
f  63//67 36//67 64//67
f  34//68 64//68 36//68
f  64//68 34//68 65//68
f  31//69 65//69 34//69
f  65//69 31//69 66//69
f  32//70 66//70 31//70
f  66//70 32//70 67//70
f  28//71 67//71 32//71
f  67//71 28//71 68//72
f  26//73 68//73 28//73
f  68//73 26//73 69//73
f  22//74 69//74 26//74
f  69//74 22//74 70//75
f  19//76 70//76 22//76
f  70//76 19//76 71//77
f  17//78 71//78 19//78
f  71//78 17//78 72//79
f  14//80 72//80 17//80
f  72//80 14//80 73//81
f  5//82 73//82 14//82
f  73//82 5//82 74//83
f  39//84 75//84 40//84
f  75//84 39//84 76//84
f  75//85 38//85 40//85
f  38//85 75//85 77//85
f  77//86 41//86 38//86
f  41//86 77//86 78//87
f  41//88 76//88 39//88
f  76//88 41//88 78//88
f  79//89 5//89 7//89
f  5//89 79//89 74//90
f  80//91 7//91 6//91
f  7//91 80//91 79//92
f  81//93 6//93 4//93
f  6//93 81//93 80//94
f  82//95 4//95 1//95
f  4//95 82//95 81//96
f  43//97 1//97 3//97
f  1//97 43//97 82//98
f  43//99 44//99 82//99
f  44//99 43//99 42//99
f  79//99 73//99 74//99
f  73//99 79//99 72//99
f  72//99 79//99 71//99
f  71//99 79//99 70//99
f  70//99 79//99 69//99
f  69//99 79//99 68//99
f  68//99 79//99 67//99
f  67//99 79//99 66//99
f  66//99 79//99 65//99
f  65//99 79//99 64//99
f  64//99 79//99 63//99
f  63//99 79//99 80//99
f  63//99 80//99 62//99
f  62//99 80//99 81//99
f  62//99 81//99 82//99
f  62//99 82//99 61//99
f  61//99 82//99 44//99
f  61//99 44//99 45//99
f  61//99 45//99 46//99
f  61//99 46//99 47//99
f  61//99 47//99 60//99
f  60//99 47//99 48//99
f  60//99 48//99 59//99
f  59//99 48//99 49//99
f  59//99 49//99 50//99
f  59//99 50//99 58//99
f  58//99 50//99 51//99
f  58//99 51//99 57//99
f  57//99 51//99 56//99
f  56//99 51//99 52//99
f  56//99 52//99 53//99
f  56//99 53//99 54//99
f  56//99 54//99 55//99
f  83//100 78//100 77//100
f  83//101 75//101 84//101
f  75//101 83//101 77//102
f  83//103 76//103 78//103
f  76//103 83//103 84//104
f  75//105 76//105 84//105

