# {"id":"BLDG_0003000b0006588c","idOriginal":"BLDG_0003000b0006588c","origin":[13.347543564696386,52.50493543847881],"elevation":33.14}
# Longitude: 13.347543564696386
# Latitude: 52.50493543847881
# Elevation: 33.14

# File produced by Open Asset Import Library (http://www.assimp.sf.net)
# (assimp v3.1.0)

mtllib BLDG_0003000b0006588c.obj.mtl

# 42 vertex positions
v  34.4494 2.33894e-16 -3.81977
v  33.2745 19.29 -1.49047
v  33.2741 9.12274e-17 -1.48986
v  35.3048 3.37742e-16 -5.51575
v  38.2121 6.90665e-16 -11.2794
v  40.3148 9.45913e-16 -15.4479
v  34.4498 19.29 -3.82038
v  40.3152 19.29 -15.4485
v  35.3053 23.36 -5.51648
v  38.2126 23.36 -11.2802
v  0.000497353 23.36 -0.000737971
v  8.59388 -6.10352e-07 -16.6787
v  0 -6.10352e-07 -3.73733e-23
v  9.46393 -6.10352e-07 -18.3672
v  12.4212 -6.10352e-07 -24.1066
v  14.5597 -6.10352e-07 -28.2569
v  14.5601 19.29 -28.2575
v  8.59438 23.36 -16.6794
v  9.46442 23.36 -18.368
v  12.4217 23.36 -24.1074
v  20.828 19.29 -25.1403
v  20.8276 -6.10352e-07 -25.1396
v  20.6865 6.53016e-16 -10.6646
v  14.8622 19.29 -13.562
v  14.8618 -6.10352e-07 -13.5614
v  20.6869 19.29 -10.6652
v  30.3871 1.79147e-16 -2.92568
v  29.1583 19.29 -0.489435
v  29.1579 2.99319e-17 -0.488825
v  30.3875 19.29 -2.92629
v  21.7345 19.29 -4.32501
v  22.8819 4.07704e-16 -6.65831
v  21.7341 2.64793e-16 -4.3244
v  22.8823 19.29 -6.65892
v  6.21903 19.29 3.2123
v  6.21862 -6.10352e-07 3.21291
v  19.5354 19.29 -8.32348
v  19.5349 5.09629e-16 -8.32287
v  24.0339 19.29 -9.00061
v  31.5627 19.29 -5.25621
v  18.6896 23.36 -20.9901
v  15.7323 23.36 -15.2507

# 0 UV coordinates

# 60 vertex normals
vn 0.892845 -4.84055e-06 0.450364
vn 0.892846 -4.52871e-06 0.450362
vn 0.892845 -4.90146e-06 0.450363
vn 0.892846 -4.57452e-06 0.450363
vn 0.892846 -4.50901e-06 0.450363
vn 0.892846 -4.67675e-06 0.450363
vn 0.892846 -5.34352e-06 0.450363
vn 0.892846 -4.93653e-06 0.450363
vn -0.888935 4.45629e-06 -0.458034
vn -0.888935 4.70683e-06 -0.458034
vn -0.888935 4.52733e-06 -0.458034
vn -0.888935 4.47704e-06 -0.458034
vn -0.888935 4.4503e-06 -0.458034
vn -0.888935 4.19617e-06 -0.458034
vn -0.888935 5.4277e-06 -0.458034
vn -0.888935 4.20984e-06 -0.458034
vn 0.445306 -3.77088e-05 -0.895378
vn 0.445306 -3.78412e-05 -0.895379
vn 0.445306 -3.78412e-05 -0.895379
vn 0.445306 -3.77086e-05 -0.895378
vn -0.445306 3.77707e-05 0.895379
vn -0.445306 3.77555e-05 0.895378
vn 0.892845 -4.84096e-06 0.450363
vn 0.892846 -4.75492e-06 0.450363
vn -0.897361 5.1355e-06 -0.441298
vn 0.888935 -4.44343e-06 0.458034
vn 0.888935 -4.48535e-06 0.458034
vn -0.459015 3.78413e-05 0.888428
vn -0.459015 3.783e-05 0.888428
vn -0.459015 3.78301e-05 0.888428
vn -0.459015 3.78774e-05 0.888428
vn -0.445306 3.77496e-05 0.895378
vn -0.445306 3.77956e-05 0.895379
vn -0.445306 3.77535e-05 0.895379
vn -0.897361 5.1355e-06 -0.441298
vn -0 1 0
vn 0.292635 0.753776 -0.588376
vn 0.292639 0.753748 -0.58841
vn 0.292639 0.753748 -0.58841
vn 0.292639 0.753748 -0.58841
vn -0.403523 0.422911 0.811366
vn -0.403523 0.422911 0.811366
vn -0.403515 0.42292 0.811365
vn -0.403517 0.422941 0.811354
vn -0.403517 0.422941 0.811354
vn -0.403517 0.422941 0.811354
vn 0.446837 0.864481 0.230238
vn 0.446837 0.864481 0.230238
vn 0.446837 0.864481 0.230238
vn 0 -1 0
vn 2.08694e-08 -1 -4.19623e-08
vn 1.82192e-08 -1 2.63432e-08
vn -2.32137e-24 -1 -6.12323e-17
vn -1.97264e-24 -1 -6.12323e-17
vn -1.95548e-24 -1 -6.12323e-17
vn 0 -1 -6.12323e-17
vn 1.76645e-24 -1 -6.12323e-17
vn 3.87508e-24 -1 -6.12323e-17
vn 6.56308e-25 -1 -6.12324e-17
vn -1.57297e-24 -1 -6.12323e-17

# Mesh 'defaultobject' with 80 faces
g defaultobject
usemtl DefaultMaterial
f  1//1 2//1 3//1
f  2//1 1//1 4//2
f  2//1 4//2 5//3
f  2//1 5//3 6//4
f  2//1 6//4 7//5
f  7//5 6//4 8//6
f  7//5 8//6 9//7
f  9//7 8//6 10//8
f  11//9 12//9 13//9
f  12//9 11//9 14//10
f  14//10 11//9 15//11
f  15//11 11//9 16//12
f  16//12 11//9 17//13
f  17//13 11//9 18//14
f  17//13 18//14 19//15
f  17//13 19//15 20//16
f  6//17 21//17 8//17
f  21//17 6//17 22//18
f  21//17 22//18 17//19
f  17//19 22//18 16//20
f  23//21 24//21 25//21
f  24//21 23//21 26//22
f  27//23 28//23 29//23
f  28//23 27//23 30//24
f  31//25 32//25 33//25
f  32//25 31//25 34//25
f  25//26 35//26 36//26
f  35//26 25//26 24//27
f  36//28 11//28 13//28
f  11//28 36//28 35//29
f  29//30 31//30 33//30
f  31//30 29//30 28//31
f  3//32 30//32 27//32
f  30//32 3//32 2//33
f  32//34 37//34 38//34
f  37//34 32//34 34//34
f  37//35 23//35 38//35
f  23//35 37//35 26//35
f  31//36 30//36 34//36
f  30//36 31//36 28//36
f  37//36 39//36 26//36
f  39//36 37//36 40//36
f  40//36 37//36 7//36
f  7//36 37//36 2//36
f  2//36 37//36 34//25
f  2//36 34//36 30//36
f  8//37 41//37 10//37
f  41//38 8//38 21//38
f  41//38 21//38 20//39
f  20//39 21//38 17//40
f  10//36 42//36 9//36
f  42//36 10//36 41//36
f  42//36 41//36 19//36
f  19//36 41//36 20//36
f  24//41 42//41 19//41
f  42//41 24//41 26//42
f  42//43 26//43 9//43
f  9//44 26//44 39//44
f  9//44 39//44 40//45
f  9//44 40//45 7//46
f  35//47 18//47 11//47
f  18//47 35//47 24//48
f  18//47 24//48 19//49
f  13//50 25//50 36//50
f  25//50 13//50 12//50
f  25//50 12//50 6//51
f  6//51 12//50 22//52
f  22//52 12//50 14//50
f  22//52 14//50 15//50
f  22//52 15//50 16//50
f  33//53 27//53 29//53
f  27//53 33//53 1//54
f  1//54 33//53 4//55
f  4//55 33//53 32//56
f  4//55 32//56 5//57
f  5//57 32//56 38//58
f  5//57 38//58 23//59
f  5//57 23//59 25//50
f  5//57 25//50 6//51
f  1//54 3//60 27//53

