# {"id":"BLDG_0003000200329927","idOriginal":"BLDG_0003000200329927","origin":[13.393136447537005,52.52863842240132],"elevation":36.560001373291}
# Longitude: 13.393136447537005
# Latitude: 52.52863842240132
# Elevation: 36.560001373291

# File produced by Open Asset Import Library (http://www.assimp.sf.net)
# (assimp v3.1.0)

mtllib BLDG_0003000200329927.obj.mtl

# 36 vertex positions
v  5.92132 24.8848 -5.1648
v  4.69215 4.16779e-16 -6.80652
v  5.92079 3.16205e-16 -5.16401
v  4.69268 24.8848 -6.80731
v  6.3426 24.8848 -4.60324
v  6.34207 2.81819e-16 -4.60245
v  7.27066 3.29019e-16 -5.3733
v  7.27119 24.8848 -5.37408
v  8.79264 24.8848 -3.72234
v  8.79211 2.2788e-16 -3.72156
v  8.92337 24.8848 -2.49987
v  8.92284 1.53024e-16 -2.49908
v  8.35209 24.8848 -1.79912
v  8.35156 1.10116e-16 -1.79834
v  5.77019 24.8848 -1.00542
v  5.76966 6.15161e-17 -1.00463
v  5.55471 1.09937e-16 -1.7954
v  5.55524 24.8848 -1.79619
v  0.000531394 24.8848 -0.000787331
v  0 0 0
v  3.97968 24.8848 12.7454
v  3.97914 -7.80478e-16 12.7462
v  24.1504 -3.94924e-16 6.4496
v  24.1509 24.8848 6.44881
v  26.2014 8.07801e-18 -0.131924
v  26.202 24.8848 -0.132711
v  16.906 7.73411e-16 -12.6308
v  16.9065 24.8848 -12.6315
v  15.6619 8.75797e-16 -14.3029
v  15.6624 24.8848 -14.3036
v  12.4289 1.14205e-15 -18.6511
v  12.4294 24.8848 -18.6519
v  4.0089 24.8848 -12.6499
v  4.00837 7.74536e-16 -12.6491
v  1.60448 24.8848 -10.9356
v  1.60395 6.69561e-16 -10.9348

# 0 UV coordinates

# 47 vertex normals
vn -0.800757 3.60582e-05 0.59899
vn -0.800757 3.60429e-05 0.59899
vn -0.799926 3.60602e-05 0.600099
vn -0.799926 3.60755e-05 0.600098
vn 0.638722 1.07074e-05 0.769437
vn 0.638722 1.06955e-05 0.769437
vn -0.73552 3.71342e-05 0.677503
vn -0.73552 3.71483e-05 0.677503
vn -0.994331 2.45891e-05 0.106331
vn -0.775068 -3.44539e-06 -0.631878
vn -0.293839 -2.39661e-05 -0.955855
vn -0.293839 -2.39672e-05 -0.955855
vn 0.964987 -2.89173e-05 -0.262299
vn 0.964987 -2.89158e-05 -0.262299
vn -0.307555 -2.35379e-05 -0.95153
vn -0.307555 -2.35317e-05 -0.95153
vn -0.954566 2.98074e-05 0.298
vn -0.954566 2.98124e-05 0.298
vn 0.297976 2.38236e-05 0.954573
vn 0.297976 2.38526e-05 0.954573
vn 0.954713 -1.10017e-05 0.297528
vn 0.954713 -1.09294e-05 0.297528
vn 0.802419 -3.59999e-05 -0.596762
vn 0.802419 -3.60196e-05 -0.596762
vn 0.802295 -3.60317e-05 -0.596928
vn 0.802295 -3.59995e-05 -0.596928
vn 0.802491 -3.59934e-05 -0.596665
vn 0.802491 -3.60146e-05 -0.596665
vn -0.580427 -1.33874e-05 -0.814312
vn -0.580546 -1.33482e-05 -0.814228
vn -0.580546 -1.33821e-05 -0.814228
vn -0.800743 3.60432e-05 0.599009
vn -0.800742 3.60355e-05 0.599009
vn 0 1 0
vn 2.76973e-24 -1 -6.12323e-17
vn 3.13039e-23 -1 -6.12323e-17
vn 3.49703e-23 -1 -6.12323e-17
vn 6.36484e-23 -1 -6.12324e-17
vn -1.99858e-23 -1 -6.12323e-17
vn 3.72724e-23 -1 -6.12324e-17
vn 1.50098e-24 -1 -6.12323e-17
vn -1.25171e-23 -1 -6.12323e-17
vn 2.68341e-23 -1 -6.12323e-17
vn -1.20269e-23 -1 -6.12323e-17
vn 0 -1 -6.12324e-17
vn 0 -1 -6.12323e-17
vn -1.25591e-19 -1 -6.11627e-17

# Mesh 'defaultobject' with 68 faces
g defaultobject
usemtl DefaultMaterial
f  1//1 2//1 3//1
f  2//1 1//1 4//2
f  5//3 3//3 6//3
f  3//3 5//3 1//4
f  7//5 5//5 6//5
f  5//5 7//5 8//6
f  9//7 7//7 10//7
f  7//7 9//7 8//8
f  11//9 10//9 12//9
f  10//9 11//9 9//9
f  13//10 12//10 14//10
f  12//10 13//10 11//10
f  15//11 14//11 16//11
f  14//11 15//11 13//12
f  17//13 15//13 16//13
f  15//13 17//13 18//14
f  19//15 17//15 20//15
f  17//15 19//15 18//16
f  21//17 20//17 22//17
f  20//17 21//17 19//18
f  23//19 21//19 22//19
f  21//19 23//19 24//20
f  25//21 24//21 23//21
f  24//21 25//21 26//22
f  27//23 26//23 25//23
f  26//23 27//23 28//24
f  29//25 28//25 27//25
f  28//25 29//25 30//26
f  31//27 30//27 29//27
f  30//27 31//27 32//28
f  33//29 31//29 34//29
f  31//29 33//29 32//29
f  35//30 34//30 36//30
f  34//30 35//30 33//31
f  4//32 36//32 2//32
f  36//32 4//32 35//33
f  4//34 33//34 35//34
f  33//34 4//34 32//34
f  32//34 4//34 30//34
f  30//34 4//34 1//34
f  30//34 1//34 28//34
f  28//34 1//34 8//34
f  8//34 1//34 5//34
f  21//34 18//34 19//34
f  18//34 21//34 15//34
f  15//34 21//34 13//34
f  8//34 26//34 28//34
f  26//34 8//34 9//34
f  26//34 9//34 11//34
f  26//34 11//34 13//34
f  26//34 13//34 21//34
f  26//34 21//34 24//34
f  17//35 16//35 20//35
f  34//36 2//36 36//36
f  2//36 34//36 3//37
f  3//37 34//36 6//38
f  6//38 34//36 7//39
f  7//39 34//36 10//40
f  20//35 23//41 22//41
f  23//41 20//35 16//35
f  23//41 16//35 14//42
f  23//41 14//42 12//43
f  23//41 12//43 10//40
f  23//41 10//40 34//36
f  23//41 34//36 31//44
f  23//41 31//44 29//45
f  23//41 29//45 25//46
f  25//46 29//45 27//47

