# {"id":"BLDG_0003000f004142b8","idOriginal":"BLDG_0003000f004142b8","origin":[13.383435826441637,52.55625064893078],"elevation":39.6300010681152}
# Longitude: 13.383435826441637
# Latitude: 52.55625064893078
# Elevation: 39.6300010681152

# File produced by Open Asset Import Library (http://www.assimp.sf.net)
# (assimp v3.1.0)

mtllib BLDG_0003000f004142b8.obj.mtl

# 18 vertex positions
v  13.3282 18.3549 2.05409
v  14.6751 4.35114e-16 -7.10595
v  14.6755 18.3549 -7.10653
v  13.3278 -1.25813e-16 2.05467
v  15.0852 6.05829e-16 -9.89393
v  15.0856 18.3549 -9.89452
v  14.7856 18.3549 -9.94234
v  14.7853 6.08757e-16 -9.94176
v  10.522 18.3549 -10.6124
v  10.5216 6.49788e-16 -10.6118
v  1.88337 18.3549 -11.9708
v  1.88298 7.32962e-16 -11.9702
v  0.000391739 18.3549 -0.00058181
v  0 0 0
v  8.76389 -8.27122e-17 1.35079
v  8.76428 18.3549 1.35021
v  12.9718 -1.22455e-16 1.99984
v  12.9722 18.3549 1.99926

# 0 UV coordinates

# 24 vertex normals
vn 0.989356 -1.65089e-05 0.145516
vn 0.989356 -1.64641e-05 0.145516
vn 0.989354 -1.65157e-05 0.145527
vn 0.989354 -1.65111e-05 0.145527
vn 0.157431 -3.46608e-05 -0.98753
vn 0.155258 -3.46172e-05 -0.987874
vn 0.155258 -3.46253e-05 -0.987874
vn 0.15533 -3.46244e-05 -0.987863
vn 0.15533 -3.46184e-05 -0.987863
vn -0.987852 1.61576e-05 -0.155395
vn -0.987852 1.61572e-05 -0.155395
vn -0.152333 3.45764e-05 0.988329
vn -0.152333 3.45822e-05 0.988329
vn -0.152442 3.45812e-05 0.988312
vn -0.152247 3.45679e-05 0.988342
vn -0.152247 3.45757e-05 0.988343
vn -4.96071e-24 -1 -6.12323e-17
vn 0 -1 -6.12323e-17
vn 1.76761e-22 -1 -6.12323e-17
vn 1.64709e-23 -1 -6.12323e-17
vn -1.11596e-23 -1 -6.12323e-17
vn -7.90043e-24 -1 -6.12323e-17
vn 3.49721e-24 -1 -6.12323e-17
vn 0 1 0

# Mesh 'defaultobject' with 32 faces
g defaultobject
usemtl DefaultMaterial
f  1//1 2//1 3//1
f  2//1 1//1 4//2
f  3//3 5//3 6//3
f  5//3 3//3 2//4
f  7//5 5//5 8//5
f  5//5 7//5 6//5
f  9//6 8//6 10//6
f  8//6 9//6 7//7
f  11//8 10//8 12//8
f  10//8 11//8 9//9
f  13//10 12//10 14//10
f  12//10 13//10 11//11
f  13//12 15//12 16//12
f  15//12 13//12 14//13
f  16//14 17//14 18//14
f  17//14 16//14 15//14
f  18//15 4//15 1//15
f  4//15 18//15 17//16
f  17//17 2//17 4//17
f  2//17 17//17 5//18
f  5//18 17//17 8//19
f  8//19 17//17 15//20
f  8//19 15//20 10//21
f  10//21 15//20 14//22
f  10//21 14//22 12//23
f  3//24 18//24 1//24
f  18//24 3//24 16//24
f  16//24 3//24 13//24
f  13//24 3//24 6//24
f  13//24 6//24 7//24
f  13//24 7//24 9//24
f  13//24 9//24 11//24

