# {"id":"BLDG_00030009000dcac8","idOriginal":"BLDG_00030009000dcac8","origin":[13.392154707855799,52.557820753710295],"elevation":40.9599990844727}
# Longitude: 13.392154707855799
# Latitude: 52.557820753710295
# Elevation: 40.9599990844727

# File produced by Open Asset Import Library (http://www.assimp.sf.net)
# (assimp v3.1.0)

mtllib BLDG_00030009000dcac8.obj.mtl

# 8 vertex positions
v  11.4358 7.29188 -0.662728
v  0.000156418 7.32484 -0.0002322
v  9.00561 7.32484 4.35857
v  2.43036 7.29188 -5.02153
v  9.00546 -2.669e-16 4.35881
v  0 0 0
v  2.4302 3.07466e-16 -5.0213
v  11.4357 4.05662e-17 -0.662497

# 0 UV coordinates

# 11 vertex normals
vn 0.00257395 0.999982 -0.00531789
vn 0.00257395 0.999982 -0.00531788
vn -0.435668 3.78429e-05 0.900107
vn -0.900122 5.4117e-06 -0.435639
vn -0.900122 5.43026e-06 -0.435639
vn 0.435668 -3.77904e-05 -0.900107
vn 0.435668 -3.78203e-05 -0.900107
vn 0.900122 -5.43804e-06 0.435639
vn 0.900122 -5.39228e-06 0.435639
vn 0 -1 -6.12323e-17
vn -2.37134e-25 -1 -6.12323e-17

# Mesh 'defaultobject' with 12 faces
g defaultobject
usemtl DefaultMaterial
f  1//1 2//1 3//1
f  2//1 1//1 4//2
f  5//3 2//3 6//3
f  2//3 5//3 3//3
f  2//4 7//4 6//4
f  7//4 2//4 4//5
f  4//6 8//6 7//6
f  8//6 4//6 1//7
f  8//8 3//8 5//8
f  3//8 8//8 1//9
f  6//10 8//10 5//10
f  8//10 6//10 7//11

