# {"id":"BLDG_0003000800240d2f","idOriginal":"BLDG_0003000800240d2f","origin":[13.33082942769464,52.558447560274146],"elevation":38.6500015258789}
# Longitude: 13.33082942769464
# Latitude: 52.558447560274146
# Elevation: 38.6500015258789

# File produced by Open Asset Import Library (http://www.assimp.sf.net)
# (assimp v3.1.0)

mtllib BLDG_0003000800240d2f.obj.mtl

# 8 vertex positions
v  3.21079 4.26704 2.8928
v  0 0 0
v  3.2107 -1.77141e-16 2.89294
v  9.0765e-05 4.26704 -0.00013528
v  9.39894 2.43997e-16 -3.98477
v  9.39903 4.26704 -3.9849
v  6.13716 4.20768e-16 -6.87166
v  6.13725 4.26704 -6.87179

# 0 UV coordinates

# 11 vertex normals
vn -0.669387 3.78276e-05 0.742914
vn -0.669387 3.77916e-05 0.742914
vn 0.743385 5.41117e-06 0.668863
vn 0.743385 5.21792e-06 0.668864
vn 0.662763 -3.80206e-05 -0.748829
vn 0.662763 -3.78667e-05 -0.748829
vn -0.745843 -5.25343e-06 -0.666122
vn -0.745843 -5.30454e-06 -0.666122
vn 1.324e-24 -1 -6.12323e-17
vn 0 -1 -6.12323e-17
vn 0 1 0

# Mesh 'defaultobject' with 12 faces
g defaultobject
usemtl DefaultMaterial
f  1//1 2//1 3//1
f  2//1 1//1 4//2
f  5//3 1//3 3//3
f  1//3 5//3 6//4
f  7//5 6//5 5//5
f  6//5 7//5 8//6
f  4//7 7//7 2//7
f  7//7 4//7 8//8
f  2//9 5//9 3//9
f  5//9 2//9 7//10
f  4//11 6//11 8//11
f  6//11 4//11 1//11

