# {"id":"BLDG_0003000a0010c1f3","idOriginal":"BLDG_0003000a0010c1f3","origin":[13.313449000152165,52.55438514051582],"elevation":33.85}
# Longitude: 13.313449000152165
# Latitude: 52.55438514051582
# Elevation: 33.85

# File produced by Open Asset Import Library (http://www.assimp.sf.net)
# (assimp v3.1.0)

mtllib BLDG_0003000a0010c1f3.obj.mtl

# 26 vertex positions
v  -48.4759 16.63 -20.0195
v  -45.1427 9.65 -29.2575
v  -58.1286 9.65 -21.2703
v  -27.3638 9.65 29.7961
v  -24.0322 16.63 20.5545
v  -20.0714 9.65 12.3584
v  -14.3817 9.65 21.8027
v  -11.0279 15.4417 13.2637
v  5.75644 9.51057 9.40298
v  -1.81578 15.4417 7.59154
v  -8.18321 9.51 17.9861
v  -13.8729 9.51 8.54179
v  0.000202074 9.51057 -0.00030145
v  -11.0279 15.44 13.2637
v  -20.0714 9.51 12.3584
v  -23.6444 15.44 21.0321
v  -14.3817 9.51 21.8027
v  5.75623 -1.52588e-06 9.40329
v  -13.8731 -5.23053e-16 8.5421
v  0 -1.52588e-06 -9.34331e-23
v  -20.0716 -7.56751e-16 12.3587
v  -58.1288 1.30241e-15 -21.27
v  -45.1429 1.79149e-15 -29.2572
v  -27.364 -1.82451e-15 29.7964
v  -14.3819 -1.33505e-15 21.803
v  -8.18342 -1.10135e-15 17.9864

# 0 UV coordinates

# 44 vertex normals
vn -0.393859 0.65942 -0.640344
vn -0.578466 0.737515 0.348495
vn -0.578466 0.737515 0.348495
vn 0.578486 0.737494 -0.348507
vn 0.578486 0.737494 -0.348507
vn 0.394159 0.659431 0.640148
vn 0.384044 0.680797 0.623719
vn 0.384041 0.680762 0.623759
vn -0.384076 0.680773 -0.623726
vn -0.384067 0.680749 -0.623757
vn 0.624726 0.680784 -0.382427
vn -0.384016 0.680854 -0.623674
vn -0.384016 0.680854 -0.623674
vn 0.38401 0.680867 0.623664
vn 0.38401 0.680867 0.623664
vn -7.988e-08 -1 4.88986e-08
vn -7.25643e-08 -1 -1.17851e-07
vn 0 -1 -6.12323e-17
vn 7.45573e-24 -1 -6.12323e-17
vn 1.00785e-23 -1 -6.12323e-17
vn 2.63856e-24 -1 -6.12323e-17
vn -0.529671 -0.785891 0.319099
vn 0.856567 -3.15657e-05 -0.516036
vn 0.856567 -2.9246e-05 -0.516036
vn 0.856567 -1.79467e-05 -0.516036
vn 0.856567 -3.45629e-05 -0.516036
vn 0.856567 -3.4706e-05 -0.516036
vn 0.524312 1.58703e-05 0.851526
vn 0.524312 1.58282e-05 0.851526
vn 0.524312 1.58167e-05 0.851526
vn 0.524312 1.54229e-05 0.851527
vn 0.524312 1.42981e-05 0.851526
vn -0.856586 0 0.516004
vn -0.856548 0 0.516068
vn -0.524312 -1.585e-05 -0.851526
vn -0.524312 -1.58898e-05 -0.851526
vn -0.524312 -1.58898e-05 -0.851526
vn -0.524312 -1.58372e-05 -0.851526
vn -0.856567 3.44347e-05 0.516036
vn -0.856567 3.4604e-05 0.516036
vn -0.523906 -1.57534e-05 -0.851776
vn -0.523906 -1.59217e-05 -0.851776
vn 0.852887 -3.4634e-05 -0.522096
vn 0.852887 -3.46703e-05 -0.522096

# Mesh 'defaultobject' with 48 faces
g defaultobject
usemtl DefaultMaterial
f  1//1 2//1 3//1
f  1//2 4//2 5//2
f  4//2 1//2 3//3
f  1//4 6//4 2//4
f  6//4 1//4 5//5
f  6//4 5//5 7//5
f  4//6 7//6 5//6
f  8//7 9//7 10//7
f  9//8 8//8 11//8
f  12//9 10//9 13//9
f  10//10 12//10 8//10
f  9//11 13//11 10//11
f  14//12 15//12 16//12
f  15//12 14//12 12//13
f  11//14 16//14 17//14
f  16//14 11//14 14//15
f  18//16 19//16 20//16
f  19//16 18//16 21//17
f  21//17 22//18 23//18
f  22//18 21//17 24//19
f  24//19 21//17 25//20
f  25//20 21//17 26//21
f  26//21 21//17 18//16
f  15//22 17//22 16//22
f  7//23 17//23 6//23
f  15//24 6//23 17//23
f  2//25 6//25 15//25
f  21//26 2//26 15//24
f  23//27 2//26 21//26
f  18//28 11//28 17//28
f  11//28 18//28 9//29
f  25//30 4//30 24//30
f  4//30 25//30 26//31
f  4//30 26//31 18//28
f  4//30 18//28 17//28
f  4//30 17//28 7//32
f  8//33 14//33 11//33
f  8//34 12//34 14//34
f  20//35 12//35 13//35
f  12//35 20//35 19//36
f  12//35 19//36 15//37
f  15//37 19//36 21//38
f  4//39 22//39 24//39
f  22//39 4//39 3//40
f  3//41 23//41 22//41
f  23//41 3//41 2//42
f  20//43 9//43 18//43
f  9//43 20//43 13//44

