# {"id":"BLDG_0003000800400250","idOriginal":"BLDG_0003000800400250","origin":[13.349228606724894,52.55039968244004],"elevation":36.2799987792969}
# Longitude: 13.349228606724894
# Latitude: 52.55039968244004
# Elevation: 36.2799987792969

# File produced by Open Asset Import Library (http://www.assimp.sf.net)
# (assimp v3.1.0)

mtllib BLDG_0003000800400250.obj.mtl

# 26 vertex positions
v  19.2524 -3.13778e-16 5.12438
v  12.6695 3.05525e-16 -4.9896
v  21.0889 -1.9685e-16 3.21481
v  15.0466 -5.81551e-16 9.49745
v  12.4825 -7.44808e-16 12.1636
v  15.155 9.61976e-16 -15.7103
v  19.1572 7.17342e-16 -11.7151
v  8.6199 5.47156e-16 -8.93574
v  4.04956 -2.41631e-16 3.94613
v  6.78054 4.30401e-16 -7.02899
v  2.56816 1.63016e-16 -2.66225
v  0 0 0
v  15.0471 21.44 9.49677
v  4.04997 18.9329 3.94553
v  12.4829 18.9329 12.163
v  6.61818 21.44 1.2832
v  0.000403189 18.9329 -0.00059992
v  2.56861 21.44 -2.66293
v  19.1576 18.9329 -11.7157
v  8.62036 21.5804 -8.93642
v  12.6699 18.9329 -4.9902
v  15.1554 21.5804 -15.7109
v  6.78099 20.98 -7.02965
v  21.0893 18.9329 3.21421
v  10.8306 20.98 -3.08352
v  19.2529 20.98 5.12371

# 0 UV coordinates

# 45 vertex normals
vn -1.01987e-23 -1 -6.12323e-17
vn 0 -1 -6.12323e-17
vn -3.8957e-23 -1 -6.12323e-17
vn 8.01557e-24 -1 -6.12323e-17
vn 1.59151e-23 -1 -6.12323e-17
vn -1.41362e-23 -1 -6.12323e-17
vn -6.17263e-24 -1 -6.12323e-17
vn -5.06229e-24 -1 -6.12323e-17
vn -0.391544 0.827796 0.401806
vn -0.391545 0.827792 0.401811
vn -0.391547 0.827792 0.40181
vn -0.391547 0.827792 0.40181
vn 0.305195 0.905638 0.294407
vn 0.305195 0.905638 0.294408
vn 0.158704 0.887519 0.432576
vn 0.42672 0.791297 -0.437903
vn 0.426722 0.791293 -0.437907
vn 0.426723 0.791293 -0.437907
vn 0.0527617 0.997138 -0.0541451
vn 0.0527614 0.997138 -0.054144
vn 0.0527613 0.997138 -0.0541442
vn 0.0527613 0.997138 -0.0541442
vn -0.719712 -6.66666e-06 -0.694273
vn -0.719712 -6.47197e-06 -0.694273
vn -0.719712 -6.75911e-06 -0.694273
vn -0.719712 -6.69016e-06 -0.694273
vn -0.719712 -6.64584e-06 -0.694273
vn -0.719712 -7.29397e-06 -0.694273
vn -0.719712 -6.74941e-06 -0.694273
vn -0.719712 -6.87933e-06 -0.694273
vn 0.72076 6.54101e-06 0.693185
vn 0.72076 6.56646e-06 0.693185
vn 0.72076 6.64158e-06 0.693185
vn 0.72076 6.61632e-06 0.693185
vn 0.72076 6.62505e-06 0.693185
vn 0.72076 6.60425e-06 0.693185
vn -0.697901 3.75617e-05 0.716194
vn -0.697901 3.75939e-05 0.716194
vn -0.697901 3.75433e-05 0.716194
vn -0.697901 3.7556e-05 0.716194
vn 0.706482 -3.75176e-05 -0.707731
vn 0.706481 -3.74708e-05 -0.707732
vn 0.719712 6.68405e-06 0.694273
vn 0.719712 6.61936e-06 0.694273
vn 0.697901 -3.75004e-05 -0.716194

# Mesh 'defaultobject' with 48 faces
g defaultobject
usemtl DefaultMaterial
f  1//1 2//1 3//1
f  2//1 1//1 4//2
f  2//1 4//2 5//3
f  2//1 6//4 7//4
f  6//4 2//1 8//5
f  8//5 2//1 5//3
f  8//5 5//3 9//2
f  8//5 9//2 10//6
f  10//6 9//2 11//7
f  11//7 9//2 12//8
f  13//9 14//9 15//9
f  14//9 13//9 16//10
f  14//9 16//10 17//11
f  17//11 16//10 18//12
f  19//13 20//13 21//13
f  20//13 19//13 22//14
f  23//15 21//15 20//15
f  24//16 25//16 26//16
f  25//16 24//16 21//17
f  25//16 21//17 23//18
f  26//19 16//19 13//19
f  16//19 26//19 25//20
f  16//19 25//20 18//21
f  18//21 25//20 23//22
f  8//23 22//23 6//23
f  22//23 8//23 10//24
f  22//23 10//24 11//25
f  22//23 11//25 12//26
f  22//23 12//26 17//27
f  22//23 17//27 23//28
f  22//23 23//28 20//29
f  23//28 17//27 18//30
f  15//31 26//31 13//31
f  26//31 15//31 24//32
f  24//32 15//31 3//33
f  3//33 15//31 1//34
f  1//34 15//31 4//35
f  4//35 15//31 5//36
f  15//37 9//37 5//37
f  9//37 15//37 12//38
f  12//38 15//37 14//39
f  12//38 14//39 17//40
f  6//41 19//41 7//41
f  19//41 6//41 22//42
f  7//43 21//43 2//43
f  21//43 7//43 19//44
f  2//45 24//45 3//45
f  24//45 2//45 21//45

