# {"id":"BLDG_0003000000184a9c","idOriginal":"BLDG_0003000000184a9c","origin":[13.404087137139626,52.524418028194425],"elevation":35.7700004577637}
# Longitude: 13.404087137139626
# Latitude: 52.524418028194425
# Elevation: 35.7700004577637

# File produced by Open Asset Import Library (http://www.assimp.sf.net)
# (assimp v3.1.0)

mtllib BLDG_0003000000184a9c.obj.mtl

# 8 vertex positions
v  4.68082 10.302 -0.465484
v  0.769809 10.302 7.74352
v  5.45041 10.302 7.27836
v  0.000220142 10.302 -0.00032585
v  0.769589 -4.74174e-16 7.74385
v  4.6806 2.84827e-17 -0.465158
v  5.45018 -4.45691e-16 7.27869
v  0 0 0

# 0 UV coordinates

# 11 vertex normals
vn 0 1 -0
vn -7.95457e-24 -1 -6.12323e-17
vn -7.23143e-25 -1 -6.12323e-17
vn 0.0988928 2.93442e-05 0.995098
vn 0.0988929 2.93885e-05 0.995098
vn -0.995098 2.43922e-05 0.0988935
vn -0.995098 2.43884e-05 0.0988935
vn -0.0988929 -2.93626e-05 -0.995098
vn -0.0988929 -2.93616e-05 -0.995098
vn 0.995098 -2.44099e-05 -0.0988935
vn 0.995098 -2.43564e-05 -0.0988936

# Mesh 'defaultobject' with 12 faces
g defaultobject
usemtl DefaultMaterial
f  1//1 2//1 3//1
f  2//1 1//1 4//1
f  5//2 6//2 7//2
f  6//2 5//2 8//3
f  7//4 2//4 5//4
f  2//4 7//4 3//5
f  8//6 2//6 4//6
f  2//6 8//6 5//7
f  6//8 4//8 1//8
f  4//8 6//8 8//9
f  6//10 3//10 7//10
f  3//10 6//10 1//11

