# {"id":"BLDG_0003000e006b28d3","idOriginal":"BLDG_0003000e006b28d3","origin":[13.420876999491247,52.50763645229758],"elevation":34.5099983215332}
# Longitude: 13.420876999491247
# Latitude: 52.50763645229758
# Elevation: 34.5099983215332

# File produced by Open Asset Import Library (http://www.assimp.sf.net)
# (assimp v3.1.0)

mtllib BLDG_0003000e006b28d3.obj.mtl

# 39 vertex positions
v  53.8407 21.0673 1.98323
v  45.9314 21.1622 -1.76239
v  45.9314 21.0673 -1.76239
v  53.8408 21.4551 1.98322
v  52.4042 9.49115e-16 -15.5002
v  45.9309 1.07875e-16 -1.76172
v  52.4047 21.1622 -15.5009
v  60.3136 7.19762e-16 -11.7546
v  60.3141 21.1622 -11.7553
v  53.8403 -1.21479e-16 1.9839
v  42.3616 22.0934 5.81378
v  44.9661 22.0934 7.0514
v  42.3616 20.4727 5.81383
v  42.3611 -3.56034e-16 5.81448
v  50.2661 22.0934 9.56986
v  50.2656 -5.86027e-16 9.57055
v  5.48042 22.39 -11.7116
v  9.00673 1.17858e-15 -19.2478
v  5.47994 7.17084e-16 -11.7109
v  9.0072 21.8872 -19.2484
v  13.9979 1.03385e-15 -16.8841
v  13.9984 21.8872 -16.8848
v  10.4685 21.8872 -9.34128
v  10.4681 5.71946e-16 -9.34059
v  10.4685 20.4727 -9.34124
v  5.48038 20.4727 -11.7115
v  50.2662 25.3912 9.56975
v  44.7546 -1.30221e-15 21.2667
v  44.7551 20.4727 21.266
v  47.5107 25.3912 15.4178
v  36.8506 20.4727 17.5099
v  36.8502 -1.07221e-15 17.5106
v  4.98857 20.4727 2.36963
v  4.98813 -1.45138e-16 2.37028
v  0.000437928 20.4727 -0.00064682
v  0 0 0
v  2.74052 25.3912 -5.85624
v  39.6062 25.3912 11.6617
v  7.72864 25.3912 -3.48596

# 0 UV coordinates

# 53 vertex normals
vn -0.427999 2.75695e-05 0.903779
vn -0.427999 3.70906e-05 0.903779
vn -0.904612 5.77431e-06 -0.426235
vn -0.904612 5.93976e-06 -0.426236
vn 0.427999 -3.77319e-05 -0.903779
vn 0.427999 -3.76548e-05 -0.903779
vn 0.904612 -5.83017e-06 0.426236
vn 0.904612 -5.76845e-06 0.426236
vn 0.429192 -3.75275e-05 -0.903213
vn -0.904612 5.90001e-06 -0.426236
vn -0.904612 5.86301e-06 -0.426236
vn 0.904612 -5.89841e-06 0.426236
vn 0.904612 -5.86182e-06 0.426235
vn -0.905742 6.00903e-06 -0.42383
vn -0.905742 6.00715e-06 -0.42383
vn 0.427999 -3.76675e-05 -0.903779
vn 0.427999 -3.77463e-05 -0.903779
vn 0.905742 -5.98506e-06 0.42383
vn 0.905742 -5.96413e-06 0.42383
vn -0.429192 3.74691e-05 0.903213
vn -0.429192 3.78468e-05 0.903213
vn 0.904612 -5.83502e-06 0.426236
vn 0.904612 -5.92224e-06 0.426235
vn 0.904612 -6.11853e-06 0.426235
vn -0.429192 3.77175e-05 0.903213
vn -0.429192 3.74046e-05 0.903213
vn -0.429192 3.77348e-05 0.903213
vn 0.429192 -3.7703e-05 -0.903213
vn -0.429192 3.77122e-05 0.903213
vn -0.905742 5.98396e-06 -0.42383
vn -0.905742 6.00132e-06 -0.42383
vn -0.905742 5.99849e-06 -0.42383
vn 0 -1 -6.12323e-17
vn 2.96562e-24 -1 -6.12323e-17
vn 0 -1 -6.12323e-17
vn -4.77974e-24 -1 -6.12323e-17
vn 7.21293e-25 -1 -6.12323e-17
vn 5.76001e-24 -1 -6.12323e-17
vn 9.35731e-24 -1 -6.12323e-17
vn -0.030265 0.99944 -0.0142603
vn 0.00825444 0.999814 -0.0174304
vn 0.0521212 0.992599 -0.109686
vn 0.0520468 0.992579 -0.109904
vn 0.0258135 0.998179 -0.0545088
vn 0.0821201 0.995881 0.038427
vn -0.259872 0.795853 0.546887
vn -0.259872 0.795853 0.546887
vn 0.259881 0.795836 -0.546907
vn -0.443209 0.871754 -0.208831
vn -0.259872 0.795853 0.546887
vn 0.259881 0.795836 -0.546907
vn -0.259872 0.795853 0.546887
vn 0.259881 0.795836 -0.546906

# Mesh 'defaultobject' with 66 faces
g defaultobject
usemtl DefaultMaterial
f  1//1 2//1 3//1
f  2//1 1//1 4//2
f  2//3 5//3 6//3
f  5//3 2//3 7//4
f  7//5 8//5 5//5
f  8//5 7//5 9//6
f  8//7 4//7 10//7
f  4//7 8//7 9//8
f  11//9 12//9 13//9
f  11//10 6//3 14//10
f  6//3 11//10 3//11
f  10//7 15//12 16//12
f  15//12 10//7 1//13
f  17//14 18//14 19//14
f  18//14 17//14 20//15
f  20//16 21//16 18//16
f  21//16 20//16 22//17
f  21//18 23//18 24//18
f  23//18 21//18 22//19
f  25//20 17//20 26//20
f  17//20 25//20 23//21
f  27//22 28//22 16//12
f  28//22 27//22 29//23
f  29//23 27//22 30//24
f  28//25 31//25 32//25
f  31//25 28//25 29//25
f  12//26 15//26 27//26
f  32//25 33//27 34//27
f  33//27 32//25 31//25
f  25//28 14//28 24//28
f  14//28 25//28 13//9
f  34//27 35//29 36//29
f  35//29 34//27 33//27
f  35//30 19//14 36//30
f  19//14 35//30 26//31
f  26//31 35//30 37//32
f  36//33 24//33 34//33
f  24//33 36//33 19//34
f  6//35 8//35 10//35
f  8//35 6//35 5//36
f  14//37 10//35 16//37
f  10//35 14//37 6//35
f  21//38 19//34 18//38
f  19//34 21//38 24//33
f  32//39 16//37 28//39
f  16//37 32//39 14//37
f  34//33 14//37 32//39
f  14//37 34//33 24//33
f  4//40 7//40 2//40
f  7//41 4//41 9//41
f  1//42 11//42 15//42
f  11//43 1//43 3//43
f  20//44 17//44 22//44
f  22//45 17//45 23//45
f  31//46 30//46 38//46
f  30//46 31//46 29//47
f  30//48 13//48 38//48
f  30//49 27//49 13//49
f  33//50 38//46 39//50
f  38//46 33//50 31//46
f  39//51 13//48 25//51
f  13//48 39//51 38//48
f  35//52 39//50 37//52
f  39//50 35//52 33//50
f  37//53 25//51 26//53
f  25//51 37//53 39//51

