# {"id":"BLDG_0003000b001f2b92","idOriginal":"BLDG_0003000b001f2b92","origin":[13.36283777216309,52.50062541174928],"elevation":33.9099998474121}
# Longitude: 13.36283777216309
# Latitude: 52.50062541174928
# Elevation: 33.9099998474121

# File produced by Open Asset Import Library (http://www.assimp.sf.net)
# (assimp v3.1.0)

mtllib BLDG_0003000b001f2b92.obj.mtl

# 29 vertex positions
v  4.54907 -1.54755e-16 2.52734
v  0.000437062 20.5084 -0.00064768
v  0 0 0
v  10.2272 -3.47921e-16 5.68198
v  15.3447 -5.22012e-16 8.52511
v  20.4622 -6.96104e-16 11.3682
v  20.4626 17.4129 11.3677
v  4.5495 20.5084 2.52669
v  10.2277 20.5084 5.68133
v  15.3451 20.5084 8.52446
v  15.1333 17.4129 -3.06493
v  20.2563 1.41846e-17 -0.231652
v  15.133 1.87639e-16 -3.06438
v  25.3796 -1.5927e-16 2.60107
v  25.38 17.4129 2.60052
v  20.2567 20.5084 -0.2323
v  22.7457 -4.46818e-16 7.29709
v  22.746 17.4129 7.29654
v  4.81689 5.369e-16 -8.76824
v  2.24793 20.5084 -4.09179
v  4.81732 20.5084 -8.76889
v  2.24749 2.5051e-16 -4.09114
v  12.5111 17.4129 1.61027
v  12.5107 -9.86345e-17 1.61082
v  9.37106 3.82714e-16 -6.2502
v  9.37143 17.4129 -6.25074
v  6.79693 17.4129 -1.56435
v  6.79656 9.57553e-17 -1.5638
v  17.6286 20.5084 4.45331

# 0 UV coordinates

# 49 vertex normals
vn -0.485655 3.79682e-05 0.874151
vn -0.485655 3.79708e-05 0.874151
vn -0.485655 3.80006e-05 0.874151
vn -0.485655 3.78735e-05 0.874151
vn -0.485655 3.7997e-05 0.874151
vn -0.485655 3.74155e-05 0.874151
vn -0.485655 3.81332e-05 0.874151
vn -0.485655 3.77855e-05 0.874151
vn 0.483872 -3.79524e-05 -0.875139
vn 0.483872 -3.79449e-05 -0.875139
vn 0.483872 -3.79789e-05 -0.875139
vn 0.483872 -3.78377e-05 -0.875139
vn 0.872175 -3.17688e-06 0.489194
vn 0.872175 -3.12102e-06 0.489194
vn 0.872175 -3.21433e-06 0.489194
vn 0.872175 -3.17018e-06 0.489194
vn -0.876454 3.46379e-06 -0.481486
vn -0.876454 3.47679e-06 -0.481486
vn -0.876454 3.47255e-06 -0.481486
vn 0 1 5.55112e-17
vn -0.872175 3.13246e-06 -0.489194
vn -0.872175 3.12911e-06 -0.489194
vn 0.483872 -3.79376e-05 -0.875139
vn 0.483872 -3.79669e-05 -0.875139
vn 0.876454 -3.45183e-06 0.481485
vn 0.876454 -3.52353e-06 0.481486
vn 0.485655 -3.79532e-05 -0.874151
vn 0.268415 0.833389 -0.483131
vn 0.268415 0.833389 -0.483131
vn 0 -1 0
vn -0.407691 0.884024 -0.22867
vn -0.407691 0.884024 -0.22867
vn -0.407691 0.884024 -0.22867
vn 0.407692 0.884023 0.22867
vn 0.407692 0.884023 0.22867
vn 0.407692 0.884023 0.22867
vn 0.407692 0.884023 0.22867
vn 0.448071 0.859443 0.24615
vn 0.448071 0.859443 0.24615
vn -4.84329e-24 -1 -6.12323e-17
vn -2.42165e-24 -1 -6.12323e-17
vn 1.74601e-24 -1 -6.12324e-17
vn 0 -1 -6.12323e-17
vn 0 -1 -6.12323e-17
vn 0 -1 -6.12323e-17
vn -1.08969e-24 -1 -6.12323e-17
vn -3.80513e-24 -1 -6.12323e-17
vn -1.90635e-24 -1 -6.12323e-17
vn -4.21753e-25 -1 -6.12323e-17

# Mesh 'defaultobject' with 54 faces
g defaultobject
usemtl DefaultMaterial
f  1//1 2//1 3//1
f  2//1 1//1 4//2
f  2//1 4//2 5//3
f  2//1 5//3 6//4
f  2//1 6//4 7//5
f  2//1 7//5 8//6
f  8//6 7//5 9//7
f  9//7 7//5 10//8
f  11//9 12//9 13//9
f  12//9 11//9 14//10
f  14//10 11//9 15//11
f  15//11 11//9 16//12
f  15//13 17//13 14//13
f  17//13 15//13 6//14
f  6//14 15//13 18//15
f  6//14 18//15 7//16
f  19//17 20//17 21//17
f  20//17 19//17 2//18
f  2//18 19//17 3//19
f  3//20 19//20 22//20
f  23//21 13//21 24//21
f  13//21 23//21 11//22
f  21//23 25//23 19//23
f  25//23 21//23 26//24
f  25//25 27//25 28//25
f  27//25 25//25 26//26
f  27//27 24//27 28//27
f  24//27 27//27 23//27
f  2//28 23//28 27//28
f  23//28 2//28 10//29
f  10//30 2//30 8//30
f  10//30 8//30 9//30
f  11//31 29//31 16//31
f  29//31 11//31 10//32
f  10//32 11//31 23//33
f  16//34 18//34 15//34
f  18//34 16//34 7//35
f  7//35 16//34 29//36
f  7//35 29//36 10//37
f  21//38 27//38 26//38
f  27//38 21//38 2//39
f  2//30 21//30 20//30
f  5//40 17//40 6//40
f  17//40 5//40 4//41
f  17//40 4//41 1//42
f  17//40 1//42 3//43
f  17//40 3//43 24//44
f  24//44 3//43 28//45
f  28//45 3//43 22//46
f  28//45 22//46 25//47
f  25//47 22//46 19//48
f  24//44 14//45 17//40
f  14//45 24//44 12//49
f  12//49 24//44 13//45

