# {"id":"BLDG_0003000f00240d4f","idOriginal":"BLDG_0003000f00240d4f","origin":[13.318581782089625,52.526075468206734],"elevation":33.7400016784668}
# Longitude: 13.318581782089625
# Latitude: 52.526075468206734
# Elevation: 33.7400016784668

# File produced by Open Asset Import Library (http://www.assimp.sf.net)
# (assimp v3.1.0)

mtllib BLDG_0003000f00240d4f.obj.mtl

# 118 vertex positions
v  78.0547 18.3659 -152.85
v  65.1908 18.3659 -149.077
v  75.9478 18.3659 -145.781
v  67.2468 18.3659 -156.683
v  126.368 12.1356 -7.40139
v  49.6926 12.1356 12.5258
v  120.231 12.1356 12.6293
v  49.9061 12.1356 1.30429
v  102.617 12.1356 -6.6121
v  126.482 12.1356 -18.7851
v  102.407 12.1356 -18.7348
v  40.6656 12.1356 1.44702
v  94.0254 12.1356 -7.09411
v  58.0489 12.1356 -85.7288
v  37.9228 12.1356 -55.3062
v  47.9252 12.1356 -51.7593
v  82.0173 12.1356 -166.147
v  67.2466 12.1356 -156.683
v  78.0546 12.1356 -152.85
v  66.0467 12.1356 -112.561
v  38.9077 12.1356 -90.3274
v  40.6634 12.1356 -98.8947
v  30.0065 12.1356 -101.833
v  35.6372 12.1356 -120.942
v  68.9018 12.1356 -122.141
v  75.8223 12.1356 -145.36
v  38.6475 12.1356 -131.159
v  65.1906 12.1356 -149.077
v  51.556 12.1356 -174.967
v  75.9477 12.1356 -145.781
v  82.2171 12.1356 -166.818
v  9.35262 12.1356 12.4667
v  40.9159 12.1356 12.513
v  0.00029702 12.1356 -0.00044214
v  93.5765 12.1356 -18.7163
v  42.4976 12.1356 -18.6095
v  38.9284 12.1356 -21.5739
v  27.5709 12.1356 -93.5672
v  40.3557 12.1356 -20.389
v  35.5605 12.1356 -48.3432
v  40.4334 12.1356 -26.6248
v  45.7918 12.1356 -44.6018
v  94.0255 18.5268 -7.09431
v  102.407 18.5268 -18.735
v  93.5766 18.5268 -18.7165
v  102.617 18.5268 -6.61231
v  49.6928 18.5268 12.5256
v  40.6657 18.5268 1.44682
v  40.916 18.5268 12.5128
v  49.9063 18.5268 1.30408
v  37.9229 18.4031 -55.3064
v  47.7224 18.4031 -51.0787
v  47.9253 18.4031 -51.7595
v  45.7919 18.4031 -44.602
v  35.5606 18.4031 -48.3434
v  38.9078 18.3419 -90.3276
v  30.0066 18.3419 -101.833
v  27.5711 18.3419 -93.5674
v  40.6635 18.3419 -98.8949
v  94.0251 4.34366e-16 -7.09373
v  102.407 1.14715e-15 -18.7344
v  102.617 4.04851e-16 -6.61172
v  93.5762 1.14602e-15 -18.7159
v  49.6924 -0.290001 12.5262
v  40.6653 -0.290001 1.44741
v  49.9059 -0.290001 1.30468
v  40.9156 -0.290001 12.5134
v  47.9249 0.0999985 -51.7589
v  35.5602 0.0999985 -48.3428
v  37.9225 0.0999985 -55.3058
v  45.7915 0.0999985 -44.6014
v  47.722 0.0999985 -51.0782
v  27.5707 -0.0600014 -93.5668
v  40.6631 -0.0600014 -98.8944
v  38.9074 -0.0600014 -90.327
v  30.0062 -0.0600014 -101.832
v  78.0543 -0.760002 -152.85
v  65.1904 -0.760002 -149.076
v  67.2464 -0.760002 -156.682
v  75.9474 -0.760002 -145.78
v  42.4973 -1.84 -18.609
v  93.5762 -1.84 -18.7159
v  94.0251 -1.84 -7.09367
v  82.017 -1.84 -166.146
v  51.5557 -1.84 -174.967
v  82.2168 -1.84 -166.817
v  78.0543 -1.84 -152.85
v  67.2463 -1.84 -156.682
v  65.1903 -1.84 -149.076
v  40.4331 -1.84 -26.6244
v  35.5602 -1.84 -48.3427
v  45.7915 -1.84 -44.6013
v  126.368 -1.84 -7.40095
v  102.407 -1.84 -18.7343
v  126.481 -1.84 -18.7847
v  120.231 -1.84 12.6298
v  102.617 -1.84 -6.61166
v  49.6923 -1.84 12.5263
v  49.9058 -1.84 1.30473
v  40.3554 -1.84 -20.3885
v  40.6653 -1.84 1.44746
v  38.9281 -1.84 -21.5734
v  75.822 -1.84 -145.36
v  75.9474 -1.84 -145.78
v  68.9015 -1.84 -122.141
v  38.6472 -1.84 -131.158
v  66.0464 -1.84 -112.56
v  58.0486 -1.84 -85.7284
v  35.6369 -1.84 -120.941
v  40.6631 -1.84 -98.8943
v  47.9249 -1.84 -51.7589
v  38.9074 -1.84 -90.327
v  27.5706 -1.84 -93.5667
v  37.9225 -1.84 -55.3058
v  0 -1.84 -1.12668e-16
v  40.9156 -1.84 12.5134
v  9.35232 -1.84 12.4671
v  30.0062 -1.84 -101.832

# 0 UV coordinates

# 89 vertex normals
vn 0 1 0
vn 1.78073e-24 -1 -6.12323e-17
vn -8.54279e-25 -1 -6.12323e-17
vn 0 -1 -0
vn 0.958362 -1.13614e-05 0.285557
vn 0.958335 -1.13497e-05 0.285648
vn 0.343439 -3.70486e-05 -0.939175
vn 0.946985 -1.00044e-05 0.321278
vn -0.334216 3.69592e-05 0.942497
vn 0.958346 -1.13352e-05 0.285609
vn 0.958334 -1.13866e-05 0.28565
vn 0.958349 -1.13583e-05 0.2856
vn 0.958337 -1.13561e-05 0.28564
vn 0.958341 -1.13603e-05 0.285625
vn 0.292962 -3.65106e-05 -0.956124
vn 0.965353 -1.22897e-05 0.260949
vn -0.334215 3.69655e-05 0.942497
vn 0.958344 -1.13515e-05 0.285615
vn 0.958426 -1.13699e-05 0.28534
vn 0.25687 -3.6069e-05 -0.966446
vn -0.959225 1.1473e-05 -0.282645
vn -0.959231 1.14738e-05 -0.282624
vn -0.959224 1.14729e-05 -0.282648
vn -0.265769 3.61856e-05 0.964037
vn -0.97964 1.45002e-05 -0.200762
vn 0.274774 -3.62939e-05 -0.961509
vn -0.959224 1.14441e-05 -0.282648
vn -0.959224 1.14729e-05 -0.282648
vn -0.799939 3.60311e-05 0.600082
vn -0.799939 3.59853e-05 0.600082
vn -0.00146722 3.16936e-05 0.999999
vn -0.00146725 3.16253e-05 0.999999
vn 0.999744 -2.17268e-05 -0.0226174
vn 0.999744 -2.20011e-05 -0.0226171
vn 0.0154446 3.13044e-05 0.999881
vn 0.0154446 3.12961e-05 0.999881
vn -0.999819 2.06855e-05 -0.0190225
vn -0.999819 2.06848e-05 -0.0190225
vn -0.00146723 3.16254e-05 0.999999
vn -0.00146723 3.16249e-05 0.999999
vn 0.956136 -1.05535e-05 0.292923
vn 0.956136 -1.10746e-05 0.292923
vn 0.99995 -2.09732e-05 0.00999153
vn -0.00209173 -3.1618e-05 -0.999998
vn -0.99985 2.18351e-05 0.0173234
vn -0.99985 2.18357e-05 0.0173234
vn 0.0560142 -3.27714e-05 -0.99843
vn 0.999255 -2.24941e-05 -0.0385955
vn 0.999255 -2.24912e-05 -0.0385955
vn -0.999255 2.26186e-05 0.0385955
vn -0.999255 2.26177e-05 0.0385955
vn -0.0560142 3.27811e-05 0.99843
vn -0.0560143 3.27602e-05 0.99843
vn 0.99985 -2.15463e-05 -0.0173234
vn 0.99985 -2.19602e-05 -0.0173228
vn -0.00209171 -3.1561e-05 -0.999998
vn -0.00209192 -3.1664e-05 -0.999998
vn 0.999819 -2.06817e-05 0.0190225
vn -0.0154446 -3.13057e-05 -0.999881
vn -0.0154446 -3.12994e-05 -0.999881
vn -0.999744 2.19963e-05 0.0226171
vn -0.999744 2.19966e-05 0.0226171
vn -0.00146723 3.16567e-05 0.999999
vn 0.334216 -3.69628e-05 -0.942497
vn -0.946985 9.95369e-06 -0.321278
vn -0.343439 3.70389e-05 0.939175
vn -0.343439 3.68475e-05 0.939175
vn 0.958335 -1.13871e-05 0.285648
vn 0.958335 -1.13255e-05 0.285648
vn 0.958346 -1.13257e-05 0.28561
vn -0.274774 3.61305e-05 0.961509
vn -0.274773 3.65173e-05 0.961509
vn 0.97964 -1.42993e-05 0.200762
vn 0.97964 -1.43882e-05 0.200762
vn 0.265769 -3.60233e-05 -0.964037
vn 0.265769 -3.59958e-05 -0.964037
vn -0.959224 1.14756e-05 -0.282648
vn 0.334216 -3.63912e-05 -0.942496
vn 0.334215 -3.71431e-05 -0.942497
vn -0.965353 1.2467e-05 -0.260948
vn -0.965353 1.22901e-05 -0.260948
vn -0.29296 3.6821e-05 0.956125
vn -0.292962 3.59346e-05 0.956124
vn 0.958344 -1.13763e-05 0.285616
vn 0.958344 -1.11464e-05 0.285615
vn -0.00209178 -3.1618e-05 -0.999998
vn -0.00209174 -3.14815e-05 -0.999998
vn 0.639039 -3.79642e-05 -0.769174
vn 0.638763 -3.79586e-05 -0.769404

# Mesh 'defaultobject' with 424 faces
g defaultobject
usemtl DefaultMaterial
f  1//1 2//1 3//1
f  2//1 1//1 4//1
f  5//1 6//1 7//1
f  6//1 5//1 8//1
f  8//1 5//1 9//1
f  9//1 5//1 10//1
f  9//1 10//1 11//1
f  9//1 12//1 8//1
f  12//1 9//1 13//1
f  14//1 15//1 16//1
f  17//1 18//1 19//1
f  20//1 21//1 14//1
f  21//1 20//1 22//1
f  22//1 20//1 23//1
f  23//1 20//1 24//1
f  24//1 20//1 25//1
f  24//1 25//1 26//1
f  24//1 26//1 27//1
f  27//1 26//1 28//1
f  27//1 28//1 29//1
f  28//1 26//1 30//1
f  29//1 28//1 18//1
f  29//1 18//1 17//1
f  29//1 17//1 31//1
f  12//1 32//1 33//1
f  32//1 12//1 34//1
f  34//1 12//1 13//1
f  34//1 13//1 35//1
f  34//1 35//1 36//1
f  34//1 36//1 37//1
f  34//1 37//1 38//1
f  37//1 36//1 39//1
f  38//1 37//1 40//1
f  40//1 37//1 41//1
f  40//1 41//1 42//1
f  38//1 40//1 15//1
f  38//1 15//1 21//1
f  21//1 15//1 14//1
f  43//1 44//1 45//1
f  44//1 43//1 46//1
f  47//1 48//1 49//1
f  48//1 47//1 50//1
f  51//1 52//1 53//1
f  52//1 51//1 54//1
f  54//1 51//1 55//1
f  56//1 57//1 58//1
f  57//1 56//1 59//1
f  1//1 2//1 3//1
f  2//1 1//1 4//1
f  5//1 6//1 7//1
f  6//1 5//1 8//1
f  8//1 5//1 9//1
f  9//1 5//1 10//1
f  9//1 10//1 11//1
f  9//1 12//1 8//1
f  12//1 9//1 13//1
f  14//1 15//1 16//1
f  17//1 18//1 19//1
f  20//1 21//1 14//1
f  21//1 20//1 22//1
f  22//1 20//1 23//1
f  23//1 20//1 24//1
f  24//1 20//1 25//1
f  24//1 25//1 26//1
f  24//1 26//1 27//1
f  27//1 26//1 28//1
f  27//1 28//1 29//1
f  28//1 26//1 30//1
f  29//1 28//1 18//1
f  29//1 18//1 17//1
f  29//1 17//1 31//1
f  12//1 32//1 33//1
f  32//1 12//1 34//1
f  34//1 12//1 13//1
f  34//1 13//1 35//1
f  34//1 35//1 36//1
f  34//1 36//1 37//1
f  34//1 37//1 38//1
f  37//1 36//1 39//1
f  38//1 37//1 40//1
f  40//1 37//1 41//1
f  40//1 41//1 42//1
f  38//1 40//1 15//1
f  38//1 15//1 21//1
f  21//1 15//1 14//1
f  43//1 44//1 45//1
f  44//1 43//1 46//1
f  47//1 48//1 49//1
f  48//1 47//1 50//1
f  51//1 52//1 53//1
f  52//1 51//1 54//1
f  54//1 51//1 55//1
f  56//1 57//1 58//1
f  57//1 56//1 59//1
f  60//2 61//2 62//2
f  61//2 60//2 63//3
f  64//4 65//4 66//4
f  65//4 64//4 67//4
f  68//4 69//4 70//4
f  69//4 68//4 71//4
f  71//4 68//4 72//4
f  73//4 74//4 75//4
f  74//4 73//4 76//4
f  77//4 78//4 79//4
f  78//4 77//4 80//4
f  81//4 82//4 83//4
f  84//4 85//4 86//4
f  85//4 84//4 87//4
f  85//4 87//4 88//4
f  85//4 88//4 89//4
f  90//4 91//4 92//4
f  93//4 94//4 95//4
f  94//4 93//4 96//4
f  94//4 96//4 97//4
f  97//4 96//4 98//4
f  97//4 98//4 83//4
f  83//4 98//4 99//4
f  83//4 99//4 81//4
f  99//4 100//4 81//4
f  100//4 99//4 101//4
f  100//4 101//4 102//4
f  103//4 89//4 104//4
f  89//4 103//4 105//4
f  89//4 105//4 85//4
f  85//4 105//4 106//4
f  106//4 105//4 107//4
f  106//4 107//4 108//4
f  106//4 108//4 109//4
f  109//4 108//4 110//4
f  110//4 108//4 111//4
f  110//4 111//4 112//4
f  112//4 111//4 113//4
f  113//4 111//4 114//4
f  113//4 114//4 115//4
f  115//4 114//4 91//4
f  115//4 91//4 90//4
f  115//4 90//4 102//4
f  115//4 102//4 101//4
f  115//4 101//4 116//4
f  115//4 116//4 117//4
f  118//4 109//4 110//4
f  60//2 61//2 62//2
f  61//2 60//2 63//3
f  64//4 65//4 66//4
f  65//4 64//4 67//4
f  68//4 69//4 70//4
f  69//4 68//4 71//4
f  71//4 68//4 72//4
f  73//4 74//4 75//4
f  74//4 73//4 76//4
f  77//4 78//4 79//4
f  78//4 77//4 80//4
f  81//4 82//4 83//4
f  84//4 85//4 86//4
f  85//4 84//4 87//4
f  85//4 87//4 88//4
f  85//4 88//4 89//4
f  90//4 91//4 92//4
f  93//4 94//4 95//4
f  94//4 93//4 96//4
f  94//4 96//4 97//4
f  97//4 96//4 98//4
f  97//4 98//4 83//4
f  83//4 98//4 99//4
f  83//4 99//4 81//4
f  99//4 100//4 81//4
f  100//4 99//4 101//4
f  100//4 101//4 102//4
f  103//4 89//4 104//4
f  89//4 103//4 105//4
f  89//4 105//4 85//4
f  85//4 105//4 106//4
f  106//4 105//4 107//4
f  106//4 107//4 108//4
f  106//4 108//4 109//4
f  109//4 108//4 110//4
f  110//4 108//4 111//4
f  110//4 111//4 112//4
f  112//4 111//4 113//4
f  113//4 111//4 114//4
f  113//4 114//4 115//4
f  115//4 114//4 91//4
f  115//4 91//4 90//4
f  115//4 90//4 102//4
f  115//4 102//4 101//4
f  115//4 101//4 116//4
f  115//4 116//4 117//4
f  118//4 109//4 110//4
f  90//5 37//5 102//5
f  37//5 90//5 41//5
f  92//6 41//6 90//6
f  41//6 92//6 42//6
f  40//7 92//7 91//7
f  92//7 40//7 42//7
f  114//8 40//8 91//8
f  40//8 114//8 15//8
f  111//9 15//9 114//9
f  15//9 111//9 16//9
f  108//10 16//10 111//10
f  16//10 108//10 14//10
f  107//11 14//11 108//11
f  14//11 107//11 20//11
f  105//12 20//12 107//12
f  20//12 105//12 25//12
f  103//13 25//13 105//13
f  25//13 103//13 26//13
f  104//14 26//14 103//14
f  26//14 104//14 30//14
f  28//15 104//15 89//15
f  104//15 28//15 30//15
f  88//16 28//16 89//16
f  28//16 88//16 18//16
f  87//17 18//17 88//17
f  18//17 87//17 19//17
f  84//18 19//18 87//18
f  19//18 84//18 17//18
f  86//19 17//19 84//19
f  17//19 86//19 31//19
f  29//20 86//20 85//20
f  86//20 29//20 31//20
f  27//21 85//21 106//21
f  85//21 27//21 29//21
f  24//22 106//22 109//22
f  106//22 24//22 27//22
f  23//23 109//23 118//23
f  109//23 23//23 24//23
f  110//24 23//24 118//24
f  23//24 110//24 22//24
f  21//25 110//25 112//25
f  110//25 21//25 22//25
f  38//26 112//26 113//26
f  112//26 38//26 21//26
f  34//27 113//27 115//27
f  113//27 34//27 38//28
f  32//29 115//29 117//29
f  115//29 32//29 34//30
f  116//31 32//31 117//31
f  32//31 116//31 33//32
f  101//33 33//33 116//33
f  33//33 101//33 12//34
f  99//35 12//35 101//35
f  12//35 99//35 8//36
f  6//37 99//37 98//37
f  99//37 6//37 8//38
f  96//39 6//39 98//39
f  6//39 96//39 7//40
f  93//41 7//41 96//41
f  7//41 93//41 5//42
f  95//43 5//43 93//43
f  5//43 95//43 10//43
f  11//44 95//44 94//44
f  95//44 11//44 10//44
f  9//45 94//45 97//45
f  94//45 9//45 11//46
f  13//47 97//47 83//47
f  97//47 13//47 9//47
f  82//48 13//48 83//48
f  13//48 82//48 35//49
f  43//50 63//50 60//50
f  63//50 43//50 45//51
f  62//52 43//52 60//52
f  43//52 62//52 46//53
f  61//54 46//54 62//54
f  46//54 61//54 44//55
f  45//56 61//56 63//56
f  61//56 45//56 44//57
f  66//58 47//58 64//58
f  47//58 66//58 50//58
f  48//59 66//59 65//59
f  66//59 48//59 50//60
f  49//61 65//61 67//61
f  65//61 49//61 48//62
f  64//63 49//63 67//63
f  49//63 64//63 47//63
f  51//64 68//64 70//64
f  68//64 51//64 53//64
f  55//65 70//65 69//65
f  70//65 55//65 51//65
f  71//66 55//66 69//66
f  55//66 71//66 54//67
f  72//68 54//68 71//68
f  54//68 72//68 52//69
f  68//70 52//70 72//70
f  52//70 68//70 53//70
f  75//71 58//71 73//71
f  58//71 75//71 56//72
f  74//73 56//73 75//73
f  56//73 74//73 59//74
f  57//75 74//75 76//75
f  74//75 57//75 59//76
f  58//77 76//77 73//77
f  76//77 58//77 57//77
f  4//78 77//78 79//78
f  77//78 4//78 1//79
f  2//80 79//80 78//80
f  79//80 2//80 4//81
f  80//82 2//82 78//82
f  2//82 80//82 3//83
f  77//84 3//84 80//84
f  3//84 77//84 1//85
f  36//86 82//86 81//86
f  82//86 36//86 35//87
f  100//88 36//88 81//88
f  36//88 100//88 39//88
f  102//89 39//89 100//89
f  39//89 102//89 37//89
f  90//5 37//5 102//5
f  37//5 90//5 41//5
f  92//6 41//6 90//6
f  41//6 92//6 42//6
f  40//7 92//7 91//7
f  92//7 40//7 42//7
f  114//8 40//8 91//8
f  40//8 114//8 15//8
f  111//9 15//9 114//9
f  15//9 111//9 16//9
f  108//10 16//10 111//10
f  16//10 108//10 14//10
f  107//11 14//11 108//11
f  14//11 107//11 20//11
f  105//12 20//12 107//12
f  20//12 105//12 25//12
f  103//13 25//13 105//13
f  25//13 103//13 26//13
f  104//14 26//14 103//14
f  26//14 104//14 30//14
f  28//15 104//15 89//15
f  104//15 28//15 30//15
f  88//16 28//16 89//16
f  28//16 88//16 18//16
f  87//17 18//17 88//17
f  18//17 87//17 19//17
f  84//18 19//18 87//18
f  19//18 84//18 17//18
f  86//19 17//19 84//19
f  17//19 86//19 31//19
f  29//20 86//20 85//20
f  86//20 29//20 31//20
f  27//21 85//21 106//21
f  85//21 27//21 29//21
f  24//22 106//22 109//22
f  106//22 24//22 27//22
f  23//23 109//23 118//23
f  109//23 23//23 24//23
f  110//24 23//24 118//24
f  23//24 110//24 22//24
f  21//25 110//25 112//25
f  110//25 21//25 22//25
f  38//26 112//26 113//26
f  112//26 38//26 21//26
f  34//27 113//27 115//27
f  113//27 34//27 38//28
f  32//29 115//29 117//29
f  115//29 32//29 34//30
f  116//31 32//31 117//31
f  32//31 116//31 33//32
f  101//33 33//33 116//33
f  33//33 101//33 12//34
f  99//35 12//35 101//35
f  12//35 99//35 8//36
f  6//37 99//37 98//37
f  99//37 6//37 8//38
f  96//39 6//39 98//39
f  6//39 96//39 7//40
f  93//41 7//41 96//41
f  7//41 93//41 5//42
f  95//43 5//43 93//43
f  5//43 95//43 10//43
f  11//44 95//44 94//44
f  95//44 11//44 10//44
f  9//45 94//45 97//45
f  94//45 9//45 11//46
f  13//47 97//47 83//47
f  97//47 13//47 9//47
f  82//48 13//48 83//48
f  13//48 82//48 35//49
f  43//50 63//50 60//50
f  63//50 43//50 45//51
f  62//52 43//52 60//52
f  43//52 62//52 46//53
f  61//54 46//54 62//54
f  46//54 61//54 44//55
f  45//56 61//56 63//56
f  61//56 45//56 44//57
f  66//58 47//58 64//58
f  47//58 66//58 50//58
f  48//59 66//59 65//59
f  66//59 48//59 50//60
f  49//61 65//61 67//61
f  65//61 49//61 48//62
f  64//63 49//63 67//63
f  49//63 64//63 47//63
f  51//64 68//64 70//64
f  68//64 51//64 53//64
f  55//65 70//65 69//65
f  70//65 55//65 51//65
f  71//66 55//66 69//66
f  55//66 71//66 54//67
f  72//68 54//68 71//68
f  54//68 72//68 52//69
f  68//70 52//70 72//70
f  52//70 68//70 53//70
f  75//71 58//71 73//71
f  58//71 75//71 56//72
f  74//73 56//73 75//73
f  56//73 74//73 59//74
f  57//75 74//75 76//75
f  74//75 57//75 59//76
f  58//77 76//77 73//77
f  76//77 58//77 57//77
f  4//78 77//78 79//78
f  77//78 4//78 1//79
f  2//80 79//80 78//80
f  79//80 2//80 4//81
f  80//82 2//82 78//82
f  2//82 80//82 3//83
f  77//84 3//84 80//84
f  3//84 77//84 1//85
f  36//86 82//86 81//86
f  82//86 36//86 35//87
f  100//88 36//88 81//88
f  36//88 100//88 39//88
f  102//89 39//89 100//89
f  39//89 102//89 37//89

