# {"id":"BLDG_00030009007ea1e3","idOriginal":"BLDG_00030009007ea1e3","origin":[13.377220040871268,52.55266285208873],"elevation":38.2400016784668}
# Longitude: 13.377220040871268
# Latitude: 52.55266285208873
# Elevation: 38.2400016784668

# File produced by Open Asset Import Library (http://www.assimp.sf.net)
# (assimp v3.1.0)

mtllib BLDG_00030009007ea1e3.obj.mtl

# 36 vertex positions
v  13.0155 7.29563e-16 -11.9147
v  17.6752 -1.25794e-16 2.05437
v  8.56258 4.79963e-16 -7.83839
v  22.128 1.23806e-16 -2.0219
v  30.4592 -4.30004e-16 7.0225
v  26.0742 -6.84116e-16 11.1725
v  38.8661 -9.88851e-16 16.1492
v  34.4811 -1.24296e-15 20.2991
v  9.05001 -6.09264e-16 9.95004
v  0 0 0
v  17.5228 -1.17967e-15 19.2655
v  25.8729 -1.74181e-15 28.4459
v  7.31654 21.1935 8.043
v  17.6756 18.6003 2.05378
v  15.9297 21.1935 0.158309
v  9.05041 18.6003 9.94944
v  2.74548 22.0852 3.0173
v  11.327 22.0852 -4.83847
v  0.000396817 18.6003 -0.00058945
v  8.56298 18.6003 -7.83898
v  28.0323 20.4626 13.2971
v  17.5232 18.6003 19.2649
v  19.4675 20.4626 21.4024
v  26.0746 18.6003 11.1719
v  31.4799 21.2727 17.0398
v  22.8923 21.2727 25.1677
v  34.4815 18.6003 20.2985
v  25.8733 18.6003 28.4453
v  22.1285 21.4189 -2.02258
v  20.3826 21.1935 -3.91796
v  15.7799 22.0852 -8.91474
v  13.0159 18.6003 -11.9153
v  30.4596 21.4189 7.02182
v  38.8664 18.6003 16.1486
v  35.8648 21.2727 12.8898
v  32.4173 20.4626 9.14713

# 0 UV coordinates

# 56 vertex normals
vn -5.21594e-24 -1 -6.12323e-17
vn 0 -1 -6.12323e-17
vn 5.65908e-24 -1 -6.12323e-17
vn 1.13075e-23 -1 -6.12323e-17
vn 8.48066e-24 -1 -6.12323e-17
vn -5.38563e-24 -1 -6.12323e-17
vn 0 -1 -6.12323e-17
vn 1.80001e-24 -1 -6.12323e-17
vn 0.47895 0.704889 0.5232
vn 0.47895 0.704889 0.5232
vn 0.0878758 0.991495 0.0959946
vn 0.0878758 0.991495 0.0959946
vn -0.438567 0.760353 -0.479086
vn -0.438567 0.760352 -0.479086
vn -0.372416 0.840501 -0.393528
vn -0.372399 0.840527 -0.39349
vn -0.108066 0.987565 -0.114177
vn -0.108074 0.987562 -0.114201
vn 0.355079 0.856243 0.375189
vn 0.355067 0.856267 0.375146
vn -0.363558 0.903372 0.227476
vn 0.47895 0.704889 0.5232
vn 0.0878758 0.991495 0.0959946
vn 0.0878758 0.991495 0.0959946
vn -0.438567 0.760353 -0.479086
vn -0.311154 0.90611 0.286615
vn -0.311154 0.90611 0.286615
vn 0.355052 0.856267 0.37516
vn 0.355052 0.856267 0.37516
vn -0.108077 0.987562 -0.114198
vn -0.372399 0.840526 -0.39349
vn -0.100754 0.869291 0.483922
vn -0.675227 -8.96996e-06 -0.73761
vn 0.735515 -3.71554e-05 -0.677509
vn 0.735515 -3.71246e-05 -0.677509
vn 0.735514 -3.60556e-05 -0.677509
vn 0.735515 -3.72916e-05 -0.677509
vn 0.735515 -3.71937e-05 -0.677509
vn -0.735515 3.71554e-05 0.677509
vn 0.735515 -3.71826e-05 -0.677509
vn 0.735515 -3.71368e-05 -0.677509
vn 0.735515 -3.71554e-05 -0.677509
vn 0.735515 -3.82298e-05 -0.677509
vn 0.687374 8.35648e-06 0.726304
vn 0.675227 9.01494e-06 0.73761
vn 0.675227 8.97986e-06 0.737611
vn -0.739773 3.71333e-05 0.672857
vn -0.739773 3.71052e-05 0.672857
vn -0.739772 3.67489e-05 0.672857
vn -0.739773 3.71519e-05 0.672857
vn -0.675227 -8.96989e-06 -0.73761
vn -0.739772 3.70988e-05 0.672857
vn -0.739772 3.68083e-05 0.672857
vn -0.739773 3.87451e-05 0.672857
vn -0.687374 -8.3526e-06 -0.726304
vn 0.687374 8.34051e-06 0.726304

# Mesh 'defaultobject' with 68 faces
g defaultobject
usemtl DefaultMaterial
f  1//1 2//1 3//1
f  2//1 1//1 4//2
f  5//2 2//1 4//2
f  2//1 5//2 6//3
f  7//4 6//3 5//2
f  6//3 7//4 8//5
f  9//6 3//1 2//1
f  3//1 9//6 10//7
f  11//8 8//5 12//8
f  8//5 11//8 6//3
f  13//9 14//9 15//9
f  14//9 13//9 16//10
f  17//11 15//11 18//11
f  15//11 17//11 13//12
f  19//13 18//13 20//13
f  18//13 19//13 17//14
f  21//15 22//15 23//15
f  22//16 21//16 24//16
f  25//17 23//17 26//17
f  23//18 25//18 21//18
f  27//19 26//19 28//19
f  26//20 27//20 25//20
f  29//21 30//21 14//21
f  30//22 15//9 14//9
f  15//11 31//23 18//11
f  31//23 15//11 30//24
f  18//13 32//25 20//13
f  32//25 18//13 31//25
f  24//26 29//26 14//26
f  29//26 24//26 33//27
f  25//28 34//28 35//28
f  34//28 25//28 27//29
f  21//18 35//30 36//30
f  35//30 21//18 25//18
f  21//16 36//31 24//16
f  36//32 33//32 24//32
f  20//33 1//33 3//33
f  1//33 20//33 32//33
f  32//34 4//34 1//34
f  4//34 32//34 29//35
f  29//35 32//34 30//36
f  30//36 32//34 31//37
f  4//34 33//38 5//38
f  33//38 4//34 29//35
f  24//39 2//39 6//39
f  2//39 24//39 14//39
f  33//38 7//40 5//38
f  7//40 33//38 36//41
f  7//40 36//41 34//42
f  35//43 34//42 36//41
f  7//44 27//44 8//44
f  27//44 7//44 34//44
f  2//45 16//45 9//45
f  16//45 2//45 14//46
f  16//47 10//47 9//47
f  10//47 16//47 19//48
f  19//48 16//47 13//49
f  19//48 13//49 17//50
f  19//51 3//33 10//51
f  3//33 19//51 20//33
f  28//52 11//52 12//52
f  11//52 28//52 22//52
f  22//52 28//52 26//53
f  22//52 26//53 23//54
f  22//55 6//55 11//55
f  6//55 22//55 24//55
f  8//44 28//56 12//56
f  28//56 8//44 27//44

