# {"id":"BLDG_0003000b0051c5dd","idOriginal":"BLDG_0003000b0051c5dd","origin":[13.388219156456602,52.529749614603965],"elevation":35.8899993896484}
# Longitude: 13.388219156456602
# Latitude: 52.529749614603965
# Elevation: 35.8899993896484

# File produced by Open Asset Import Library (http://www.assimp.sf.net)
# (assimp v3.1.0)

mtllib BLDG_0003000b0051c5dd.obj.mtl

# 27 vertex positions
v  8.85394 22.5797 -2.80154
v  14.3975 2.78896e-16 -4.55472
v  8.85346 1.71501e-16 -2.80083
v  14.398 22.5797 -4.55544
v  16.33 22.5797 0.650831
v  16.3295 -3.98957e-17 0.651546
v  0.000482021 22.5797 -0.000714459
v  0 0 0
v  10.7855 -1.4729e-16 2.40544
v  1.91853 20.5883 5.21002
v  1.91809 -3.19061e-16 5.21067
v  10.7859 20.5883 2.40478
v  18.358 22.5797 6.11577
v  18.3575 -3.74526e-16 6.11648
v  12.9058 20.5883 8.11747
v  12.9054 -4.97091e-16 8.11812
v  22.9326 -1.12945e-15 18.4453
v  22.9331 20.5883 18.4446
v  20.6456 22.5797 12.2802
v  17.4809 20.5883 20.4463
v  17.4805 -1.25201e-15 20.4469
v  8.71214 20.5883 23.6655
v  4.169 -6.93487e-16 11.3255
v  8.7117 -1.44914e-15 23.6662
v  4.16944 20.5883 11.3249
v  6.44083 22.5797 17.4951
v  15.1934 22.5797 14.2818

# 0 UV coordinates

# 41 vertex normals
vn -0.301621 -2.37254e-05 -0.953428
vn -0.301621 -2.37154e-05 -0.953428
vn 0.937528 -3.09629e-05 -0.347909
vn 0.937528 -3.10466e-05 -0.347909
vn -0.301621 -2.37292e-05 -0.953428
vn 0.301621 2.37271e-05 0.953428
vn 0.301621 2.3747e-05 0.953428
vn -0.938439 3.09576e-05 0.345446
vn -0.938439 3.09639e-05 0.345446
vn 0.937528 -3.09682e-05 -0.347909
vn -0.937528 3.10269e-05 0.347909
vn -0.937528 3.09876e-05 0.347909
vn 0.937528 -3.09705e-05 -0.347909
vn 0.937528 -3.09996e-05 -0.347909
vn 0.937528 -3.05911e-05 -0.347909
vn 0.344637 2.23951e-05 0.938736
vn -0.938439 3.09525e-05 0.345446
vn -0.938439 3.09467e-05 0.345446
vn -0.938439 3.10283e-05 0.345446
vn -0.344637 -2.23477e-05 -0.938736
vn -0.344637 -2.23397e-05 -0.938736
vn 0.344637 2.2295e-05 0.938736
vn -1.64141e-24 -1 -6.12323e-17
vn -3.28283e-24 -1 -6.12323e-17
vn -2.05572e-24 -1 -6.12323e-17
vn 0 -1 -6.12323e-17
vn -2.91121e-23 -1 -6.12323e-17
vn 5.19086e-24 -1 -6.12323e-17
vn 0.101919 0.94118 0.322169
vn -0.30407 0.945944 0.112838
vn 0.10192 0.94118 0.322169
vn -0.304069 0.945944 0.112838
vn -0.30407 0.945944 0.112838
vn 0.0998958 0.95707 0.2721
vn 0.0998958 0.95707 0.2721
vn -0.0998971 0.957069 -0.272103
vn -0.304069 0.945944 0.112838
vn -0.0998971 0.957069 -0.272103
vn -0.0998971 0.957069 -0.272103
vn 0.0998959 0.95707 0.2721
vn 0.0998958 0.95707 0.2721

# Mesh 'defaultobject' with 50 faces
g defaultobject
usemtl DefaultMaterial
f  1//1 2//1 3//1
f  2//1 1//1 4//2
f  2//3 5//3 6//3
f  5//3 2//3 4//4
f  7//5 3//1 8//5
f  3//1 7//5 1//1
f  9//6 10//6 11//6
f  10//6 9//6 12//7
f  10//8 8//8 11//8
f  8//8 10//8 7//9
f  6//3 13//10 14//10
f  13//10 6//3 5//3
f  15//11 9//11 16//11
f  9//11 15//11 12//12
f  13//10 17//13 14//10
f  17//13 13//10 18//14
f  18//14 13//10 19//15
f  17//16 20//16 21//16
f  20//16 17//16 18//16
f  22//17 23//17 24//17
f  23//17 22//17 25//18
f  25//18 22//17 26//19
f  25//20 16//20 23//20
f  16//20 25//20 15//21
f  21//16 22//22 24//22
f  22//22 21//16 20//16
f  2//23 9//23 3//23
f  9//23 2//23 6//24
f  3//23 11//25 8//25
f  11//25 3//23 9//23
f  16//26 6//24 14//26
f  6//24 16//26 9//23
f  21//27 14//26 17//27
f  14//26 21//27 16//26
f  16//26 24//28 23//28
f  24//28 16//26 21//27
f  1//29 12//29 4//29
f  4//30 12//30 5//30
f  10//31 1//29 7//31
f  1//29 10//31 12//29
f  15//32 5//30 12//30
f  5//30 15//32 13//33
f  20//34 19//34 27//34
f  19//34 20//34 18//35
f  19//36 15//36 27//36
f  19//37 13//33 15//32
f  15//36 26//38 27//36
f  26//38 15//36 25//39
f  27//34 22//40 20//34
f  22//40 27//34 26//41

