# {"id":"BLDG_0003000f00412075","idOriginal":"BLDG_0003000f00412075","origin":[13.348797845488317,52.55470796216786],"elevation":36.5800018310547}
# Longitude: 13.348797845488317
# Latitude: 52.55470796216786
# Elevation: 36.5800018310547

# File produced by Open Asset Import Library (http://www.assimp.sf.net)
# (assimp v3.1.0)

mtllib BLDG_0003000f00412075.obj.mtl

# 26 vertex positions
v  14.8871 19.58 -7.90579
v  9.59972 21.67 1.96231
v  17.0151 21.67 -5.87825
v  7.47045 19.58 -0.0638497
v  6.02979 21.67 5.73697
v  14.1654 22.4 6.30711
v  21.578 22.4 -1.53054
v  10.5955 22.4 10.0818
v  16.338 19.58 8.37478
v  23.7493 19.58 0.538537
v  12.7681 19.58 12.1494
v  3.90057 22.07 3.71073
v  0.000469987 22.07 -0.00069953
v  3.62342 19.58 -3.72478
v  0 0 0
v  7.47004 3.87166e-18 -0.0632291
v  3.9001 -2.2726e-16 3.71143
v  3.62301 2.28039e-16 -3.72416
v  10.595 -6.17374e-16 10.0825
v  16.3376 -5.12845e-16 8.3754
v  12.7677 -7.43977e-16 12.1501
v  23.7489 -3.30139e-17 0.539158
v  21.5775 9.36749e-17 -1.52983
v  6.02933 -3.5133e-16 5.73766
v  17.0146 3.59897e-16 -5.87757
v  14.8867 4.84052e-16 -7.90517

# 0 UV coordinates

# 42 vertex normals
vn -0.421027 0.814972 -0.398193
vn -0.421029 0.81497 -0.398194
vn -0.421029 0.81497 -0.398194
vn -0.0835928 0.993359 -0.0790588
vn -0.0835922 0.993359 -0.0790587
vn -0.0835923 0.993359 -0.0790586
vn -0.0835923 0.993359 -0.0790586
vn 0.497677 0.728543 0.470684
vn 0.497678 0.728541 0.470685
vn 0.497678 0.728541 0.470685
vn 0.497678 0.728541 0.470685
vn 0.384165 0.894918 -0.227024
vn 0.297946 0.901777 -0.313092
vn 0.297946 0.901777 -0.313092
vn 0 -1 -6.12323e-17
vn -1.19922e-25 -1 -6.12323e-17
vn 4.24678e-24 -1 -6.12323e-17
vn 0 -1 -6.12323e-17
vn 0 -1 -6.12323e-17
vn -2.25295e-24 -1 -6.12323e-17
vn -0.707107 0 -0.707107
vn 0.689368 -3.76588e-05 -0.724411
vn 0.689368 -3.76496e-05 -0.724411
vn -0.689368 3.7597e-05 0.724411
vn -0.689368 3.76426e-05 0.724411
vn -0.689368 3.76585e-05 0.724411
vn -0.689368 3.76495e-05 0.724411
vn -0.689368 3.76349e-05 0.724411
vn -0.689368 3.76412e-05 0.724411
vn -0.689368 3.71988e-05 0.724411
vn 0.689832 -3.79792e-05 -0.723969
vn 0.689832 -3.75745e-05 -0.723969
vn 0.689832 -3.76385e-05 -0.723969
vn 0.689832 -3.75929e-05 -0.723969
vn 0 1 5.55112e-17
vn 0.726535 6.35249e-06 0.68713
vn 0.726535 6.29992e-06 0.68713
vn 0.726535 6.32337e-06 0.68713
vn -0.726535 -6.29731e-06 -0.68713
vn -0.726535 -6.32337e-06 -0.68713
vn -0.716774 -6.83787e-06 -0.697305
vn -0.716774 -6.83655e-06 -0.697305

# Mesh 'defaultobject' with 48 faces
g defaultobject
usemtl DefaultMaterial
f  1//1 2//1 3//1
f  2//1 1//1 4//2
f  2//1 4//2 5//3
f  3//4 6//4 7//4
f  6//4 3//4 2//5
f  6//4 2//5 8//6
f  8//6 2//5 5//7
f  7//8 9//8 10//8
f  9//8 7//8 6//9
f  9//8 6//9 11//10
f  11//10 6//9 8//11
f  5//12 4//12 12//12
f  4//13 13//13 12//13
f  13//13 4//13 14//14
f  15//15 16//15 17//15
f  16//15 15//15 18//16
f  19//17 20//17 21//17
f  20//17 19//17 22//18
f  22//18 19//17 23//15
f  23//15 19//17 24//19
f  23//15 24//19 25//19
f  25//19 24//19 17//15
f  25//19 17//15 26//20
f  26//21 17//21 16//21
f  18//22 4//22 16//22
f  4//22 18//22 14//23
f  8//24 5//24 11//24
f  11//24 19//25 21//25
f  19//25 11//24 24//26
f  24//26 11//24 17//27
f  17//27 11//24 15//28
f  15//28 11//24 13//29
f  13//29 11//24 5//24
f  13//29 5//24 12//30
f  10//31 3//31 7//31
f  3//31 10//31 1//32
f  1//32 10//31 26//33
f  26//33 10//31 22//34
f  26//20 22//18 25//19
f  25//35 22//35 23//35
f  10//36 20//36 22//36
f  20//36 10//36 21//37
f  21//37 10//36 11//38
f  11//10 10//31 9//8
f  4//39 26//39 16//39
f  26//39 4//39 1//40
f  13//41 18//41 15//41
f  18//41 13//41 14//42

