# {"id":"BLDG_000300000016bb81","idOriginal":"BLDG_000300000016bb81","origin":[13.384275592628976,52.513904335432755],"elevation":33.3899993896484}
# Longitude: 13.384275592628976
# Latitude: 52.513904335432755
# Elevation: 33.3899993896484

# File produced by Open Asset Import Library (http://www.assimp.sf.net)
# (assimp v3.1.0)

mtllib BLDG_000300000016bb81.obj.mtl

# 8 vertex positions
v  12.652 2.54568e-16 -4.15741
v  2.50493 -4.66776e-16 7.62302
v  0 0 0
v  15.1569 -2.12208e-16 3.46561
v  2.50523 14.0065 7.62258
v  12.6523 14.0065 -4.15785
v  0.000298918 14.0065 -0.00044273
v  15.1572 14.0065 3.46517

# 0 UV coordinates

# 11 vertex normals
vn 0 -1 -6.12323e-17
vn 1.98164e-24 -1 -6.12323e-17
vn 0 1 0
vn -0.312176 -2.33933e-05 -0.950024
vn -0.312176 -2.33669e-05 -0.950024
vn 0.950024 -3.01744e-05 -0.312178
vn 0.950024 -3.01235e-05 -0.312178
vn 0.312176 2.33955e-05 0.950024
vn 0.312176 2.33546e-05 0.950024
vn -0.950024 3.01423e-05 0.312178
vn -0.950024 3.01519e-05 0.312178

# Mesh 'defaultobject' with 12 faces
g defaultobject
usemtl DefaultMaterial
f  1//1 2//1 3//1
f  2//1 1//1 4//2
f  5//3 6//3 7//3
f  6//3 5//3 8//3
f  1//4 7//4 6//4
f  7//4 1//4 3//5
f  1//6 8//6 4//6
f  8//6 1//6 6//7
f  4//8 5//8 2//8
f  5//8 4//8 8//9
f  3//10 5//10 7//10
f  5//10 3//10 2//11

