# {"id":"BLDG_0003000e0011f59c","idOriginal":"BLDG_0003000e0011f59c","origin":[13.345013661012903,52.52776603258541],"elevation":33.8300018310547}
# Longitude: 13.345013661012903
# Latitude: 52.52776603258541
# Elevation: 33.8300018310547

# File produced by Open Asset Import Library (http://www.assimp.sf.net)
# (assimp v3.1.0)

mtllib BLDG_0003000e0011f59c.obj.mtl

# 12 vertex positions
v  7.23588 22.9002 -12.8726
v  0.000419349 19.6982 -0.00062323
v  7.03774 22.9002 0.143153
v  0.198562 19.6982 -13.0164
v  14.2731 19.6982 -12.7286
v  14.0749 19.6982 0.287132
v  7.03725 -8.80995e-18 0.143877
v  14.2727 7.79366e-16 -12.728
v  14.0745 -1.76199e-17 0.287755
v  0 0 0
v  0.198143 7.96986e-16 -13.0158
v  7.2354 7.88176e-16 -12.8719

# 0 UV coordinates

# 20 vertex normals
vn -0.414028 0.910242 -0.00630286
vn -0.414028 0.910242 -0.00630287
vn 0.414035 0.910239 0.00630298
vn 0.414035 0.910239 0.00630296
vn 2.88897e-25 -1 -6.12323e-17
vn 0 -1 -6.12323e-17
vn -1.01114e-24 -1 -6.12323e-17
vn 1.23909e-19 1 5.55112e-17
vn -0.0204408 3.20681e-05 0.999791
vn -0.0204408 3.20673e-05 0.999791
vn -0.0204408 3.20674e-05 0.999791
vn -0.0204408 3.20692e-05 0.999791
vn 0.0204409 -3.20431e-05 -0.999791
vn 0.0204408 -3.20914e-05 -0.999791
vn 0.0204408 -3.20433e-05 -0.999791
vn 0.0204408 -3.21486e-05 -0.999791
vn -0.999884 2.08046e-05 -0.0152215
vn -0.999884 2.0805e-05 -0.0152215
vn 0.999884 -2.07691e-05 0.0152215
vn 0.999884 -2.08184e-05 0.0152216

# Mesh 'defaultobject' with 20 faces
g defaultobject
usemtl DefaultMaterial
f  1//1 2//1 3//1
f  2//1 1//1 4//2
f  5//3 3//3 6//3
f  3//3 5//3 1//4
f  7//5 8//5 9//5
f  8//5 7//5 10//6
f  8//5 10//6 11//7
f  8//8 11//8 12//8
f  6//9 7//9 9//9
f  7//9 6//9 10//10
f  10//10 6//9 2//11
f  2//11 6//9 3//12
f  4//13 12//13 11//13
f  12//13 4//13 8//14
f  8//14 4//13 5//15
f  5//15 4//13 1//16
f  2//17 11//17 10//17
f  11//17 2//17 4//18
f  8//19 6//19 9//19
f  6//19 8//19 5//20

