# {"id":"BLDG_00030009007eef89","idOriginal":"BLDG_00030009007eef89","origin":[13.400382361781585,52.53993858853544],"elevation":46.810001373291}
# Longitude: 13.400382361781585
# Latitude: 52.53993858853544
# Elevation: 46.810001373291

# File produced by Open Asset Import Library (http://www.assimp.sf.net)
# (assimp v3.1.0)

mtllib BLDG_00030009007eef89.obj.mtl

# 36 vertex positions
v  9.84611 2.63497e-16 -4.30323
v  3.52544 -4.9332e-16 8.05653
v  0 0 0
v  4.0122 -5.61415e-16 9.1686
v  4.81431 -6.73526e-16 10.9995
v  14.0029 -3.18603e-16 5.20318
v  5.16022 -7.22062e-16 11.7922
v  8.87824 -1.24229e-15 20.2881
v  14.503 -3.88657e-16 6.34725
v  16.0056 -5.9897e-16 9.78193
v  16.9494 -1.4357e-15 23.4468
v  18.7952 -6.6717e-16 10.8957
v  22.2204 -5.75419e-16 9.3973
v  23.3739 -5.44475e-16 8.89195
v  26.2027 -1.18792e-15 19.4002
v  32.963 -2.87555e-16 4.69613
v  28.0449 -1.13857e-15 18.5943
v  37.279 -8.91253e-16 14.5553
v  3.52579 16.3315 8.05601
v  9.84646 16.3315 -4.30374
v  0.000348916 16.3315 -0.00051709
v  4.01255 16.3315 9.16809
v  14.0032 16.3315 5.20267
v  4.81466 16.3315 10.999
v  5.16057 16.3315 11.7916
v  8.87859 16.3315 20.2876
v  14.5034 16.3315 6.34673
v  16.0059 16.3315 9.78141
v  16.9498 16.3315 23.4463
v  18.7955 16.3315 10.8952
v  22.2208 16.3315 9.39679
v  23.3742 16.3315 8.89144
v  32.9633 16.3315 4.69561
v  26.203 16.3315 19.3997
v  28.0452 16.3315 18.5938
v  37.2794 16.3315 14.5548

# 0 UV coordinates

# 44 vertex normals
vn 2.24092e-24 -1 -6.12323e-17
vn -4.86975e-23 -1 -6.12324e-17
vn 1.97101e-23 -1 -6.12323e-17
vn 0 -1 -6.12323e-17
vn -8.54939e-24 -1 -6.12324e-17
vn -2.12556e-24 -1 -6.12323e-17
vn -6.31726e-23 -1 -6.12324e-17
vn 0 -1 -6.12323e-17
vn 1.97333e-24 -1 -6.12323e-17
vn 6.25483e-23 -1 -6.12323e-17
vn 3.8968e-24 -1 -6.12323e-17
vn 9.78573e-24 -1 -6.12323e-17
vn -3.90434e-24 -1 -6.12323e-17
vn 0 1 0
vn -0.916128 3.22914e-05 0.400886
vn -0.916128 3.22657e-05 0.400886
vn -0.916088 3.22701e-05 0.400977
vn -0.916088 3.22935e-05 0.400977
vn -0.915957 3.23002e-05 0.401277
vn -0.915957 3.22767e-05 0.401277
vn -0.916528 3.22476e-05 0.399971
vn -0.916528 3.2271e-05 0.399971
vn -0.916116 3.22686e-05 0.400913
vn -0.364441 3.72579e-05 0.931226
vn 0.400676 2.04221e-05 0.91622
vn 0.400809 2.05392e-05 0.916162
vn 0.400808 2.04303e-05 0.916162
vn 0.400742 2.04869e-05 0.916191
vn 0.400742 2.05564e-05 0.916191
vn 0.916066 -3.23594e-05 -0.401026
vn 0.916066 -3.21641e-05 -0.401027
vn -0.400866 -2.04282e-05 -0.916137
vn -0.400866 -2.04082e-05 -0.916137
vn -0.401288 -2.04134e-05 -0.915952
vn -0.400791 -2.04844e-05 -0.91617
vn -0.40079 -2.04309e-05 -0.91617
vn 0.370798 -3.73187e-05 -0.928714
vn 0.370798 -3.73729e-05 -0.928714
vn 0.916173 -3.22665e-05 -0.400782
vn 0.916257 -3.22752e-05 -0.400591
vn 0.916257 -3.22635e-05 -0.400592
vn 0.916239 -3.22607e-05 -0.400632
vn -0.400472 -2.04564e-05 -0.916309
vn -0.400471 -2.04421e-05 -0.916309

# Mesh 'defaultobject' with 68 faces
g defaultobject
usemtl DefaultMaterial
f  1//1 2//1 3//1
f  2//1 1//1 4//2
f  4//2 1//1 5//3
f  5//3 1//1 6//4
f  5//3 6//4 7//5
f  7//5 6//4 8//6
f  8//6 6//4 9//7
f  8//6 9//7 10//8
f  8//6 10//8 11//9
f  11//9 10//8 12//4
f  11//9 12//4 13//8
f  11//9 13//8 14//10
f  11//9 14//10 15//11
f  15//11 14//10 16//4
f  15//11 16//4 17//12
f  17//12 16//4 18//13
f  19//14 20//14 21//14
f  20//14 19//14 22//14
f  20//14 22//14 23//14
f  23//14 22//14 24//14
f  23//14 24//14 25//14
f  23//14 25//14 26//14
f  23//14 26//14 27//14
f  27//14 26//14 28//14
f  28//14 26//14 29//14
f  28//14 29//14 30//14
f  30//14 29//14 31//14
f  31//14 29//14 32//14
f  32//14 29//14 33//14
f  33//14 29//14 34//14
f  33//14 34//14 35//14
f  33//14 35//14 36//14
f  19//15 3//15 2//15
f  3//15 19//15 21//16
f  22//17 2//17 4//17
f  2//17 22//17 19//18
f  24//19 4//19 5//19
f  4//19 24//19 22//20
f  25//21 5//21 7//21
f  5//21 25//21 24//22
f  26//23 7//23 8//23
f  7//23 26//23 25//23
f  26//24 11//24 29//24
f  11//24 26//24 8//24
f  29//25 15//25 34//25
f  15//25 29//25 11//25
f  34//26 17//26 35//26
f  17//26 34//26 15//27
f  35//28 18//28 36//28
f  18//28 35//28 17//29
f  36//30 16//30 33//30
f  16//30 36//30 18//31
f  32//32 16//32 14//32
f  16//32 32//32 33//33
f  31//34 14//34 13//34
f  14//34 31//34 32//34
f  30//35 13//35 12//35
f  13//35 30//35 31//36
f  28//37 12//37 10//37
f  12//37 28//37 30//38
f  28//39 9//39 27//39
f  9//39 28//39 10//39
f  27//40 6//40 23//40
f  6//40 27//40 9//41
f  23//42 1//42 20//42
f  1//42 23//42 6//42
f  21//43 1//43 3//43
f  1//43 21//43 20//44

