# {"id":"BLDG_00030000001913fe","idOriginal":"BLDG_00030000001913fe","origin":[13.39915477970616,52.53447741451479],"elevation":35.2099990844727}
# Longitude: 13.39915477970616
# Latitude: 52.53447741451479
# Elevation: 35.2099990844727

# File produced by Open Asset Import Library (http://www.assimp.sf.net)
# (assimp v3.1.0)

mtllib BLDG_00030000001913fe.obj.mtl

# 12 vertex positions
v  3.38365 26.7977 16.9011
v  0 0 0
v  3.38308 -1.03495e-15 16.902
v  0.000572471 26.7977 -0.00084819
v  15.9243 -8.76833e-16 14.3198
v  15.9248 26.7977 14.3189
v  17.8289 -7.10177e-16 11.5981
v  17.8294 26.7977 11.5972
v  14.5107 -5.70022e-16 9.30916
v  14.5113 26.7977 9.30832
v  12.0907 1.53443e-16 -2.50592
v  12.0913 26.7977 -2.50677

# 0 UV coordinates

# 15 vertex normals
vn -0.980551 2.71713e-05 0.196266
vn -0.980551 2.71593e-05 0.196266
vn 0.201666 2.67154e-05 0.979454
vn 0.819318 6.64209e-07 0.57334
vn 0.819318 6.3207e-07 0.57334
vn 0.567821 -3.81656e-05 -0.823152
vn 0.567822 -3.81965e-05 -0.823152
vn 0.979661 -2.72773e-05 -0.200658
vn -0.202947 -2.66574e-05 -0.97919
vn -0.202947 -2.66545e-05 -0.97919
vn 0 -1 -6.12323e-17
vn 0 -1 -6.12323e-17
vn 3.18486e-24 -1 -6.12323e-17
vn 0 -1 -6.12323e-17
vn 0 1 0

# Mesh 'defaultobject' with 20 faces
g defaultobject
usemtl DefaultMaterial
f  1//1 2//1 3//1
f  2//1 1//1 4//2
f  1//3 5//3 6//3
f  5//3 1//3 3//3
f  6//4 7//4 8//4
f  7//4 6//4 5//5
f  8//6 9//6 10//6
f  9//6 8//6 7//7
f  10//8 11//8 12//8
f  11//8 10//8 9//8
f  4//9 11//9 2//9
f  11//9 4//9 12//10
f  11//11 3//11 2//11
f  3//11 11//11 9//12
f  3//11 9//12 5//13
f  5//13 9//12 7//14
f  8//15 10//15 6//15
f  6//15 4//15 1//15
f  4//15 6//15 10//15
f  4//15 10//15 12//15

