# {"id":"BLDG_0003000f0035b2dc","idOriginal":"BLDG_0003000f0035b2dc","origin":[13.344833551899484,52.54728790445639],"elevation":34.5299987792969}
# Longitude: 13.344833551899484
# Latitude: 52.54728790445639
# Elevation: 34.5299987792969

# File produced by Open Asset Import Library (http://www.assimp.sf.net)
# (assimp v3.1.0)

mtllib BLDG_0003000f0035b2dc.obj.mtl

# 26 vertex positions
v  17.5178 4.30199e-16 -7.02569
v  5.76418 8.88303e-17 -1.45071
v  15.5195 5.8003e-16 -9.47261
v  21.7535 1.12611e-16 -1.83907
v  23.8846 -4.7177e-17 0.770459
v  0 0 0
v  4.10255 2.13293e-16 -3.48334
v  14.1343 -5.38124e-16 8.78824
v  1.60797 -1.20443e-16 1.96698
v  3.60746 -2.70213e-16 4.41291
v  7.84573 -5.87675e-16 9.59746
v  9.9781 -7.47398e-16 12.2059
v  0.000457075 21.4695 -0.00068016
v  9.9785 18.779 12.2053
v  1.60843 21.4695 1.9663
v  3.60791 20.91 4.41225
v  7.84618 21.49 9.59678
v  23.885 18.779 0.769864
v  17.5183 20.91 -7.02635
v  21.754 21.49 -1.83975
v  15.5199 18.779 -9.4732
v  14.1347 18.779 8.78764
v  4.10295 18.779 -3.48393
v  5.76458 18.779 -1.4513
v  7.76412 20.91 0.994554
v  12.0024 21.49 6.17909

# 0 UV coordinates

# 43 vertex normals
vn 3.98035e-24 -1 -6.12323e-17
vn 6.25944e-25 -1 -6.12323e-17
vn 5.44296e-25 -1 -6.12323e-17
vn -1.8737e-24 -1 -6.12323e-17
vn 0 -1 -6.12323e-17
vn 7.74494e-24 -1 -6.12323e-17
vn 6.22839e-24 -1 -6.12323e-17
vn 2.93838e-24 -1 -6.12323e-17
vn -7.30034e-25 -1 -6.12324e-17
vn -0.774224 3.65331e-05 0.632912
vn -0.774224 3.65363e-05 0.632912
vn -0.774224 3.65365e-05 0.632912
vn -0.774224 3.65998e-05 0.632912
vn -0.774224 3.65417e-05 0.632912
vn -0.774224 3.62752e-05 0.632912
vn -0.774224 3.81325e-05 0.632912
vn -0.774224 3.64244e-05 0.632912
vn 0.774534 -3.62348e-05 -0.632532
vn 0.774534 -3.67505e-05 -0.632532
vn 0.774534 -3.65254e-05 -0.632532
vn 0.774534 -3.6588e-05 -0.632532
vn 0.635145 1.0922e-05 0.772393
vn 0.635145 1.09855e-05 0.772393
vn 0.635145 1.09616e-05 0.772393
vn 0 -1 0
vn -0.647235 -1.03703e-05 -0.762291
vn -0.647235 -1.03745e-05 -0.762291
vn 0.774224 -3.65206e-05 -0.632912
vn -0.635145 -1.09518e-05 -0.772393
vn -0.635145 -1.09616e-05 -0.772393
vn 0.346249 0.894424 -0.283051
vn 0.346249 0.894424 -0.283051
vn 0.441269 0.883233 -0.158687
vn -0.355177 0.829028 -0.431928
vn -0.355179 0.829027 -0.431929
vn -0.0548073 0.99627 -0.0666503
vn -0.0548069 0.99627 -0.0666501
vn -0.0548069 0.99627 -0.0666501
vn -0.0548069 0.99627 -0.0666501
vn 0.39817 0.779102 0.48421
vn 0.398172 0.779101 0.484211
vn 0.398171 0.779101 0.484212
vn 0.398172 0.779101 0.484212

# Mesh 'defaultobject' with 48 faces
g defaultobject
usemtl DefaultMaterial
f  1//1 2//1 3//1
f  2//1 1//1 4//2
f  2//1 4//2 5//3
f  2//1 6//4 7//4
f  6//4 2//1 5//3
f  6//4 5//3 8//5
f  6//4 8//5 9//6
f  9//6 8//5 10//7
f  10//7 8//5 11//8
f  11//8 8//5 12//9
f  9//10 13//10 6//10
f  13//10 9//10 10//11
f  13//10 10//11 11//12
f  13//10 11//12 12//13
f  13//10 12//13 14//14
f  13//10 14//14 15//15
f  15//15 14//14 16//16
f  16//16 14//14 17//17
f  18//18 19//18 20//18
f  19//18 18//18 21//19
f  21//19 18//18 3//20
f  3//20 18//18 5//21
f  3//1 5//3 1//1
f  1//1 5//3 4//2
f  18//22 8//22 5//22
f  8//22 18//22 12//23
f  12//23 18//22 14//24
f  14//25 18//25 22//25
f  13//26 7//26 6//26
f  7//26 13//26 23//27
f  7//28 24//28 2//28
f  24//28 7//28 23//28
f  24//29 3//29 2//29
f  3//29 24//29 21//30
f  24//31 13//31 15//31
f  13//31 24//31 23//32
f  16//33 24//33 15//33
f  21//34 25//34 19//34
f  25//34 21//34 24//35
f  25//34 24//35 16//35
f  19//36 26//36 20//36
f  26//36 19//36 25//37
f  26//36 25//37 17//38
f  17//38 25//37 16//39
f  20//40 22//40 18//40
f  22//40 20//40 26//41
f  22//40 26//41 14//42
f  14//42 26//41 17//43

