# {"id":"BLDG_000300000028cd24","idOriginal":"BLDG_000300000028cd24","origin":[13.36099646597904,52.50422421239774],"elevation":33.7299995422363}
# Longitude: 13.36099646597904
# Latitude: 52.50422421239774
# Elevation: 33.7299995422363

# File produced by Open Asset Import Library (http://www.assimp.sf.net)
# (assimp v3.1.0)

mtllib BLDG_000300000028cd24.obj.mtl

# 50 vertex positions
v  21.3242 17.2275 -10.1525
v  19.9366 3.57184e-16 -5.83325
v  21.3238 6.21631e-16 -10.152
v  18.5493 9.27365e-17 -1.5145
v  18.5497 17.2275 -1.51505
v  19.937 19.1204 -5.83386
v  13.6359 17.2275 -12.6894
v  5.15062 17.2275 -15.4892
v  5.15026 9.48406e-16 -15.4886
v  13.6355 7.76967e-16 -12.6888
v  8.62214 17.2275 2.3888
v  4.31089 -7.31527e-17 1.19467
v  8.62178 -1.46305e-16 2.38935
v  0 0 0
v  0.000367102 17.2275 -0.0005442
v  4.3113 19.1204 1.19407
v  2.28815 17.2275 -6.88072
v  2.28778 4.21289e-16 -6.88018
v  10.7734 17.2275 -4.08091
v  10.7731 2.4985e-16 -4.08037
v  -2.45839 18.0856 -1.01189
v  3.21907 0.529999 0.835374
v  -2.45876 0.529999 -1.01134
v  8.8969 0.529999 2.68209
v  16.5379 0.529999 5.16732
v  8.89726 17.3811 2.68155
v  8.89727 18.0856 2.68153
v  3.21947 19.3278 0.834781
v  16.5383 17.3811 5.16678
v  12.7918 19.3278 16.3558
v  14.0326 17.3811 12.6499
v  14.0326 18.0856 12.6498
v  11.5508 18.0856 20.0617
v  11.5505 0.529999 20.0623
v  14.0323 0.529999 12.6504
v  12.7914 0.529999 16.3563
v  3.80523 0.529999 17.8883
v  -7.70532 0.529999 14.6575
v  3.80561 18.0856 17.8878
v  -7.70495 18.0856 14.657
v  -4.96402 18.0856 6.47118
v  -4.9644 0.529999 6.47173
v  6.39164 18.0856 10.1646
v  6.39162 17.3811 10.1646
v  12.2047 19.1204 -8.38521
v  7.96207 19.1204 -9.78511
v  6.53084 19.1204 -5.48088
v  0.713835 19.3278 8.31785
v  -0.617905 19.3278 12.2951
v  5.09865 19.3278 14.0262

# 0 UV coordinates

# 74 vertex normals
vn 0.952088 -1.0572e-05 0.305825
vn 0.952088 -1.06723e-05 0.305825
vn 0.952088 -1.05783e-05 0.305825
vn 0.952088 -1.09957e-05 0.305825
vn 0.313344 -3.66782e-05 -0.94964
vn 0.313344 -3.6714e-05 -0.94964
vn 0.313344 -3.66956e-05 -0.94964
vn 2.77556e-17 1 0
vn -0.267064 3.61263e-05 0.963679
vn -0.267064 3.61286e-05 0.963679
vn -0.267064 3.61325e-05 0.963679
vn -0.267064 3.60964e-05 0.963679
vn -0.948915 1.02502e-05 -0.315531
vn -0.948915 1.02614e-05 -0.315531
vn -0.948915 1.02532e-05 -0.315532
vn 1 0 0
vn -0.313344 3.66678e-05 0.94964
vn -0.313344 3.66678e-05 0.94964
vn 0.948915 -1.02709e-05 0.315531
vn 0.309301 -3.66306e-05 -0.950964
vn 0.309301 -3.66303e-05 -0.950964
vn 0.309301 -3.66572e-05 -0.950964
vn 0.309301 -3.65938e-05 -0.950964
vn 0.309301 -3.69534e-05 -0.950964
vn 0.309301 -3.66471e-05 -0.950964
vn 0.309301 -3.66127e-05 -0.950964
vn 0.948254 -1.07383e-05 0.317514
vn 0.948254 -1.04837e-05 0.317514
vn 0.948254 -1.01406e-05 0.317514
vn 0.948254 -1.01537e-05 0.317514
vn 0 -1 0
vn 0 1 0
vn -0.270241 3.61944e-05 0.962793
vn -0.270241 3.61234e-05 0.962793
vn -0.270241 3.63031e-05 0.962793
vn -0.270241 3.61944e-05 0.962793
vn -0.948254 1.01757e-05 -0.317514
vn -0.948254 1.01693e-05 -0.317514
vn -0.948254 1.01542e-05 -0.317514
vn 0.948254 -1.02931e-05 0.317514
vn 0.309301 -3.75971e-05 -0.950964
vn 0.309301 -3.63097e-05 -0.950964
vn -8.68993e-25 -1 -6.12323e-17
vn 0 -1 -6.12323e-17
vn 3.5632e-24 -1 -6.12323e-17
vn 5.70112e-24 -1 -6.12323e-17
vn 2.88318e-24 -1 -6.12323e-17
vn -6.5372e-24 -1 -6.12324e-17
vn 0.120678 0.922863 -0.365734
vn 0.120678 0.922863 -0.365734
vn 0.120678 0.922863 -0.365734
vn -0.120675 0.922867 0.365725
vn -0.120675 0.922867 0.365725
vn -0.120675 0.922867 0.365724
vn -0.370192 0.920763 -0.123096
vn -0.370192 0.920763 -0.123096
vn -0.370192 0.920763 -0.123096
vn -0.370192 0.920763 -0.123096
vn 0.370195 0.920762 0.123097
vn 0.370195 0.920762 0.123097
vn 0.370195 0.920762 0.123097
vn -0.193155 0.979034 -0.0646762
vn -0.193155 0.979034 -0.0646762
vn -0.193155 0.979034 -0.0646762
vn -0.0819488 0.952913 0.29196
vn -0.0845898 0.956458 0.279344
vn -0.0789331 0.956393 0.281217
vn -0.0801855 0.960964 0.264799
vn 0.193156 0.979034 0.0646765
vn 0.193156 0.979034 0.0646765
vn 0.193156 0.979034 0.0646764
vn 0.0878237 0.952981 -0.290023
vn 0.0902457 0.956487 -0.277466
vn 0.0845914 0.956456 -0.279349

# Mesh 'defaultobject' with 92 faces
g defaultobject
usemtl DefaultMaterial
f  1//1 2//1 3//1
f  2//1 1//1 4//2
f  4//2 1//1 5//3
f  5//3 1//1 6//4
f  3//5 7//5 1//5
f  7//5 3//5 8//6
f  8//6 3//5 9//7
f  9//8 3//8 10//8
f  11//9 12//9 13//9
f  12//9 11//9 14//10
f  14//10 11//9 15//11
f  15//11 11//9 16//12
f  9//13 17//13 8//13
f  17//13 9//13 15//14
f  15//14 9//13 14//15
f  14//16 9//16 18//16
f  4//17 19//17 20//17
f  19//17 4//17 5//18
f  20//19 11//19 13//19
f  11//19 20//19 19//19
f  21//20 22//20 23//20
f  22//20 21//20 24//21
f  24//21 21//20 25//22
f  25//22 21//20 26//23
f  26//23 21//20 27//24
f  27//24 21//20 28//25
f  29//26 25//22 26//23
f  30//27 31//27 32//27
f  31//27 30//27 33//28
f  31//27 25//29 29//29
f  25//29 31//27 33//28
f  25//29 33//28 34//30
f  25//31 34//31 35//31
f  35//32 34//32 36//32
f  33//33 37//33 34//33
f  37//33 33//33 38//34
f  38//34 33//33 39//35
f  38//34 39//35 40//36
f  23//37 41//37 21//37
f  41//37 23//37 40//38
f  40//38 23//37 38//39
f  38//31 23//31 42//31
f  26//40 43//40 44//40
f  43//40 26//40 27//40
f  43//41 31//41 44//41
f  31//41 43//41 32//42
f  12//43 20//43 13//43
f  20//43 12//43 14//44
f  20//43 2//45 4//45
f  2//45 20//43 3//46
f  3//46 20//43 10//47
f  10//47 20//43 14//44
f  10//47 14//44 18//48
f  10//47 18//48 9//44
f  42//31 37//31 38//31
f  37//31 42//31 23//31
f  37//31 23//31 22//31
f  37//31 22//31 24//31
f  37//31 24//31 34//31
f  34//31 24//31 36//31
f  36//31 24//31 35//31
f  35//31 24//31 25//31
f  1//49 45//49 6//49
f  45//49 1//49 7//50
f  45//49 7//50 46//51
f  46//51 7//50 8//51
f  6//52 19//52 5//52
f  19//52 6//52 45//53
f  19//52 45//53 46//54
f  8//55 47//55 46//55
f  47//55 8//55 17//56
f  47//55 17//56 16//57
f  16//57 17//56 15//58
f  47//59 19//59 46//59
f  19//59 47//59 11//60
f  11//60 47//59 16//61
f  21//62 48//62 28//62
f  48//62 21//62 41//62
f  48//62 41//62 49//63
f  49//63 41//62 40//64
f  30//65 39//65 33//65
f  39//66 30//66 50//66
f  39//67 50//67 40//67
f  40//68 50//68 49//68
f  28//69 43//69 27//69
f  43//69 28//69 48//70
f  43//69 48//70 49//71
f  32//72 50//72 30//72
f  50//73 32//73 43//73
f  50//74 43//74 49//74
f  31//32 26//32 44//32
f  26//32 31//32 29//32

