# {"id":"BLDG_00030002001fa5e2","idOriginal":"BLDG_00030002001fa5e2","origin":[13.347695577275351,52.53326402597146],"elevation":35.1100006103516}
# Longitude: 13.347695577275351
# Latitude: 52.53326402597146
# Elevation: 35.1100006103516

# File produced by Open Asset Import Library (http://www.assimp.sf.net)
# (assimp v3.1.0)

mtllib BLDG_00030002001fa5e2.obj.mtl

# 16 vertex positions
v  0.0849314 2.29049 -4.10825
v  0.095203 3.20116e-16 -5.2279
v  0.0848827 2.51554e-16 -4.10818
v  0.0952518 2.29049 -5.22797
v  0.0606713 2.29049 -2.7691
v  0.0606225 1.69554e-16 -2.76902
v  0.0121442 2.29049 -0.699862
v  0.0120955 4.28498e-17 -0.69979
v  4.877e-05 2.29049 -7.24997e-05
v  0 0 0
v  10.7097 -1.36365e-17 0.222701
v  10.7098 2.29049 0.222628
v  10.4018 3.05417e-16 -4.98784
v  10.7118 2.29049 0.209852
v  10.7118 -1.28541e-17 0.209924
v  10.4018 2.29049 -4.98792

# 0 UV coordinates

# 17 vertex normals
vn -0.999958 2.10005e-05 -0.00921655
vn -0.999836 2.07164e-05 -0.018113
vn -0.999725 2.05453e-05 -0.0234453
vn -0.999851 2.07422e-05 -0.0172818
vn -0.999851 2.0743e-05 -0.0172818
vn -0.0207898 3.20861e-05 0.999784
vn -0.0207898 3.20958e-05 0.999784
vn 0.998226 -2.3079e-05 -0.059536
vn 0.0232848 -3.21308e-05 -0.999729
vn 0.0232848 -3.21294e-05 -0.999729
vn 0 1 0
vn -2.86645e-25 -1 -6.12323e-17
vn -9.59423e-25 -1 -6.12323e-17
vn -2.48652e-24 -1 -6.12323e-17
vn 0 -1 -6.12323e-17
vn 0 -1 -6.12323e-17
vn 2.80643e-22 -1 -6.12324e-17

# Mesh 'defaultobject' with 26 faces
g defaultobject
usemtl DefaultMaterial
f  1//1 2//1 3//1
f  2//1 1//1 4//1
f  5//2 3//2 6//2
f  3//2 5//2 1//2
f  7//3 6//3 8//3
f  6//3 7//3 5//3
f  9//4 8//4 10//4
f  8//4 9//4 7//5
f  11//6 9//6 10//6
f  9//6 11//6 12//7
f  13//8 14//8 15//8
f  14//8 13//8 16//8
f  4//9 13//9 2//9
f  13//9 4//9 16//10
f  1//11 16//11 4//11
f  16//11 1//11 14//11
f  14//11 1//11 5//11
f  14//11 5//11 7//11
f  14//11 7//11 9//11
f  14//11 9//11 12//11
f  13//12 3//12 2//12
f  3//12 13//12 6//13
f  6//13 13//12 8//14
f  8//14 13//12 10//15
f  10//15 13//12 11//16
f  11//16 13//12 15//17

