# {"id":"BLDG_0003000e003a50aa","idOriginal":"BLDG_0003000e003a50aa","origin":[13.358667194434712,52.534076499268366],"elevation":35.4199981689453}
# Longitude: 13.358667194434712
# Latitude: 52.534076499268366
# Elevation: 35.4199981689453

# File produced by Open Asset Import Library (http://www.assimp.sf.net)
# (assimp v3.1.0)

mtllib BLDG_0003000e003a50aa.obj.mtl

# 52 vertex positions
v  9.80882 1.13837e-16 -1.8591
v  10.1018 3.51582e-16 -5.74178
v  11.3529 1.86592e-16 -3.04728
v  9.67048 3.42294e-16 -5.59008
v  6.96114 6.81485e-16 -11.1295
v  8.19784 3.15332e-17 -0.514977
v  -5.33916 3.29362e-16 -5.3789
v  3.64473 1.15085e-16 -1.87949
v  4.79139 3.55022e-17 -0.579794
v  -1.32913 1.69304e-16 -2.76495
v  3.41004e-06 3.09828e-22 -5.05988e-06
v  -0.473201 6.02319e-17 -0.983662
v  -4.06363 1.19163e-16 -1.94608
v  3.64473 -0.16 -1.87948
v  1.22465 -0.16 2.54569
v  0 -0.16 -9.79717e-18
v  15.3104 -0.16 8.38885
v  16.0621 -0.16 11.1892
v  14.8241 -0.16 8.60663
v  16.6439 -0.16 10.925
v  9.23967 -0.16 21.0598
v  0.448377 -0.16 2.96058
v  18.6478 -0.16 16.4919
v  4.79139 -0.16 -0.579789
v  8.19784 -0.16 -0.514972
v  9.80881 -0.16 -1.8591
v  9.67091 20.3666 -5.59073
v  6.96158 20.3666 -11.1301
v  -5.33872 20.3666 -5.37954
v  -4.0632 20.3666 -1.94672
v  -1.3287 20.3666 -2.76559
v  -0.472767 20.3666 -0.984307
v  0.000437372 20.3666 -0.00064971
v  3.64517 20.3666 -1.88013
v  4.79183 20.3666 -0.580439
v  8.19828 20.3666 -0.515621
v  9.80925 20.3666 -1.85975
v  1.22503 17.6274 2.54513
v  0.000379007 17.6274 -0.000562999
v  0.448756 17.6274 2.96001
v  9.24005 17.6274 21.0593
v  18.6482 17.6274 16.4913
v  16.0625 17.6274 11.1886
v  16.6443 17.6274 10.9244
v  15.3108 17.6274 8.38828
v  14.8245 17.6274 8.60606
v  9.80919 17.6274 -1.85966
v  8.19822 17.6274 -0.515535
v  4.79177 17.6274 -0.580352
v  3.64511 17.6274 -1.88005
v  11.3534 20.3666 -3.04792
v  10.1022 20.3666 -5.74242

# 0 UV coordinates

# 56 vertex normals
vn 1.40619e-23 -1 -6.12323e-17
vn 7.10357e-23 -1 -6.12323e-17
vn -3.40005e-23 -1 -6.12323e-17
vn -2.25731e-23 -1 -6.12323e-17
vn 0 -1 -6.12323e-17
vn 2.88141e-23 -1 -6.12324e-17
vn -5.60165e-24 -1 -6.12323e-17
vn -3.15729e-24 -1 -6.12323e-17
vn 2.73319e-20 -1 -6.12372e-17
vn 0 -1 -6.12323e-17
vn 0 -1 0
vn 0.898309 -3.30927e-05 -0.439364
vn 0.898309 -3.30471e-05 -0.439364
vn -0.423518 -1.96517e-05 -0.905888
vn -0.937383 3.09966e-05 0.348301
vn 0.286873 2.42126e-05 0.957969
vn -0.901342 3.29145e-05 0.433107
vn -0.901342 3.29132e-05 0.433107
vn -0.901148 3.29229e-05 0.433512
vn -0.901148 3.29232e-05 0.433512
vn 0.458322 1.83669e-05 0.888786
vn -0.749875 3.69182e-05 0.66158
vn -0.0190244 3.20536e-05 0.999819
vn -0.0190244 3.20506e-05 0.999819
vn 0.640647 1.0657e-05 0.767836
vn -0.901148 3.29302e-05 0.433512
vn -0.901148 3.29227e-05 0.433512
vn -0.47136 -1.78669e-05 -0.881941
vn -0.47136 -1.78764e-05 -0.881941
vn -0.899504 3.30152e-05 0.436913
vn -0.899504 3.29924e-05 0.436913
vn 0.43677 1.91321e-05 0.899573
vn 0.898836 -3.30442e-05 -0.438285
vn 0.898836 -3.29715e-05 -0.438285
vn 0.413465 2.00722e-05 0.91052
vn 0.413462 1.99791e-05 0.910521
vn 0.885112 -3.36105e-05 -0.465378
vn 0.885112 -3.3559e-05 -0.465379
vn -0.408727 -2.01972e-05 -0.912657
vn -0.408726 -2.01702e-05 -0.912657
vn 0.901799 -3.29303e-05 -0.432155
vn 0.901799 -3.29119e-05 -0.432155
vn -0.640647 -1.06655e-05 -0.767836
vn -0.640647 -1.06388e-05 -0.767836
vn 0.0190244 -3.20528e-05 -0.999819
vn 0.0190244 -3.20489e-05 -0.999819
vn 0.749875 -3.69274e-05 -0.66158
vn 0.749875 -3.69158e-05 -0.66158
vn -0.458322 -1.83658e-05 -0.888786
vn -0.458322 -1.83712e-05 -0.888786
vn 0.609841 1.20889e-05 0.792524
vn 0.609841 1.20919e-05 0.792524
vn 0.906995 -3.26548e-05 -0.421141
vn -0.331772 -2.2777e-05 -0.94336
vn -0.331772 -2.27925e-05 -0.943359
vn -0 1 0

# Mesh 'defaultobject' with 96 faces
g defaultobject
usemtl DefaultMaterial
f  1//1 2//1 3//1
f  2//1 1//1 4//2
f  4//2 1//1 5//3
f  5//3 1//1 6//4
f  5//3 6//4 7//5
f  7//5 6//4 8//6
f  8//6 6//4 9//5
f  7//5 8//6 10//7
f  10//7 8//6 11//8
f  10//7 11//8 12//9
f  7//5 10//7 13//10
f  14//11 15//11 16//11
f  17//11 18//11 19//11
f  18//11 17//11 20//11
f  15//11 21//11 22//11
f  21//11 15//11 23//11
f  23//11 15//11 14//11
f  23//11 14//11 24//11
f  23//11 24//11 25//11
f  23//11 25//11 18//11
f  18//11 25//11 19//11
f  19//11 25//11 26//11
f  5//12 27//12 4//12
f  27//12 5//12 28//13
f  29//14 5//14 7//14
f  5//14 29//14 28//14
f  30//15 7//15 13//15
f  7//15 30//15 29//15
f  10//16 30//16 13//16
f  30//16 10//16 31//16
f  32//17 10//17 12//17
f  10//17 32//17 31//18
f  33//19 12//19 11//19
f  12//19 33//19 32//20
f  8//21 33//21 11//21
f  33//21 8//21 34//21
f  35//22 8//22 9//22
f  8//22 35//22 34//22
f  6//23 35//23 9//23
f  35//23 6//23 36//24
f  1//25 36//25 6//25
f  36//25 1//25 37//25
f  38//26 16//26 15//26
f  16//26 38//26 39//27
f  40//28 15//28 22//28
f  15//28 40//28 38//29
f  41//30 22//30 21//30
f  22//30 41//30 40//31
f  23//32 41//32 21//32
f  41//32 23//32 42//32
f  18//33 42//33 23//33
f  42//33 18//33 43//34
f  20//35 43//35 18//35
f  43//35 20//35 44//36
f  17//37 44//37 20//37
f  44//37 17//37 45//38
f  46//39 17//39 19//39
f  17//39 46//39 45//40
f  26//41 46//41 19//41
f  46//41 26//41 47//42
f  48//43 26//43 25//43
f  26//43 48//43 47//44
f  49//45 25//45 24//45
f  25//45 49//45 48//46
f  14//47 49//47 24//47
f  49//47 14//47 50//48
f  39//49 14//49 16//49
f  14//49 39//49 50//50
f  3//51 37//51 1//51
f  37//51 3//51 51//52
f  2//53 51//53 3//53
f  51//53 2//53 52//53
f  27//54 2//54 4//54
f  2//54 27//54 52//55
f  32//56 33//56 34//56
f  37//56 35//56 36//56
f  35//56 37//56 51//56
f  35//56 51//56 34//56
f  34//56 51//56 52//56
f  34//56 52//56 32//56
f  32//56 52//56 27//56
f  27//56 31//56 32//56
f  31//56 27//56 28//56
f  31//56 28//56 30//56
f  30//56 28//56 29//56
f  38//56 50//56 39//56
f  50//56 38//56 49//56
f  41//56 38//56 40//56
f  38//56 41//56 49//56
f  49//56 41//56 48//56
f  48//56 41//56 47//56
f  47//56 41//56 46//56
f  46//56 41//56 45//56
f  45//56 41//56 43//56
f  43//56 41//56 42//56
f  44//56 45//56 43//56

