# {"id":"BLDG_0003000b00597390","idOriginal":"BLDG_0003000b00597390","origin":[13.39864073763371,52.52810329524974],"elevation":36.2999992370605}
# Longitude: 13.39864073763371
# Latitude: 52.52810329524974
# Elevation: 36.2999992370605

# File produced by Open Asset Import Library (http://www.assimp.sf.net)
# (assimp v3.1.0)

mtllib BLDG_0003000b00597390.obj.mtl

# 22 vertex positions
v  17.6571 1.34803e-18 -0.022015
v  5.03264 8.77447e-17 -1.43298
v  16.4026 2.85981e-16 -4.67043
v  6.28714 -1.96889e-16 3.21543
v  20.4293 -6.27645e-16 10.2502
v  9.08074 -8.30727e-16 13.5668
v  0 0 0
v  1.31959 -2.83499e-16 4.62988
v  5.03294 14.1787 -1.43343
v  16.4028 10.773 -4.67077
v  6.92651 13.6182 -1.97258
v  13.1382 14.5913 -3.74131
v  17.6573 10.773 -0.0223559
v  20.4296 10.773 10.2499
v  9.08097 10.773 13.5665
v  17.1715 14.5913 11.2019
v  10.9708 13.6182 13.0141
v  6.28737 10.773 3.21509
v  0.000302881 14.1787 -0.00044859
v  1.31982 10.773 4.62954
v  8.18101 13.6182 2.67583
v  14.3927 14.5913 0.907103

# 0 UV coordinates

# 33 vertex normals
vn 0 -1 -6.12323e-17
vn 3.34165e-24 -1 -6.12323e-17
vn -0.273852 -2.45802e-05 -0.961772
vn -0.273852 -2.46194e-05 -0.961772
vn -0.273851 0 -0.961772
vn -0.273852 -2.45201e-05 -0.961772
vn 0.965459 -2.89307e-05 -0.260555
vn 0.965459 -2.8756e-05 -0.260555
vn 0.280512 2.441e-05 0.95985
vn 0.280512 2.442e-05 0.95985
vn 0.280513 2.41551e-05 0.95985
vn -0.965459 2.89404e-05 0.260555
vn -0.965459 2.88804e-05 0.260555
vn 0.965459 -2.89542e-05 -0.260555
vn -0.273852 -2.45789e-05 -0.961772
vn 0.273852 2.45777e-05 0.961772
vn 0.273852 2.45606e-05 0.961772
vn -0.961701 2.92238e-05 0.2741
vn -0.961701 2.92156e-05 0.2741
vn 0.37199 0.793783 0.481177
vn -0.793927 0.569016 0.214244
vn -0.793953 0.56897 0.21427
vn -0.143862 0.988836 0.0388309
vn -0.143851 0.988838 0.0388186
vn 0.721598 0.664358 -0.194743
vn 0.721628 0.664314 -0.19478
vn 0.158154 0.81638 0.555438
vn 0.158154 0.81638 0.555438
vn 0.721598 0.664358 -0.194743
vn 0.721598 0.664358 -0.194743
vn -0.143864 0.988836 0.0388255
vn -0.143864 0.988836 0.0388255
vn -0.793922 0.569017 0.214261

# Mesh 'defaultobject' with 40 faces
g defaultobject
usemtl DefaultMaterial
f  1//1 2//1 3//1
f  2//1 1//1 4//1
f  4//1 5//2 6//2
f  5//2 4//1 1//1
f  4//1 7//1 2//1
f  7//1 4//1 8//1
f  9//3 3//3 2//3
f  3//3 9//3 10//4
f  10//5 9//5 11//5
f  12//6 10//4 11//6
f  3//7 13//7 1//7
f  13//7 3//7 10//8
f  14//9 6//9 5//9
f  6//9 14//9 15//9
f  15//9 14//9 16//10
f  15//9 16//10 17//11
f  15//12 4//12 6//12
f  4//12 15//12 18//13
f  1//7 14//14 5//14
f  14//14 1//7 13//7
f  19//15 2//3 7//15
f  2//3 19//15 9//3
f  4//16 20//16 8//16
f  20//16 4//16 18//17
f  20//18 7//18 8//18
f  7//18 20//18 19//19
f  11//20 9//20 18//20
f  18//21 17//21 21//21
f  17//22 18//22 15//22
f  21//23 16//23 22//23
f  16//24 21//24 17//24
f  22//25 14//25 13//25
f  14//26 22//26 16//26
f  20//27 9//27 19//27
f  9//27 20//27 18//28
f  13//25 12//29 22//25
f  12//29 13//25 10//30
f  22//23 11//31 21//23
f  11//31 22//23 12//32
f  11//33 18//33 21//33

