# {"id":"BLDG_000300090068f89c","idOriginal":"BLDG_000300090068f89c","origin":[13.395503207220525,52.541228223317],"elevation":46.3300018310547}
# Longitude: 13.395503207220525
# Latitude: 52.541228223317
# Elevation: 46.3300018310547

# File produced by Open Asset Import Library (http://www.assimp.sf.net)
# (assimp v3.1.0)

mtllib BLDG_000300090068f89c.obj.mtl

# 59 vertex positions
v  8.7559 2.28223e-16 -3.72717
v  20.1143 1.61251e-16 -2.63342
v  10.8449 -7.61228e-17 1.24318
v  17.9812 4.68681e-16 -7.65414
v  3.35279 2.7321e-16 -4.46185
v  4.43466 1.1559e-16 -1.88772
v  7.67403 3.85843e-16 -6.3013
v  6.51209 -1.87077e-16 3.0552
v  0 0 0
v  2.08472 -3.00453e-16 4.90678
v  3.50253 -5.04791e-16 8.24386
v  7.91691 -3.91747e-16 6.39771
v  2.56908 1.12959e-15 -18.4477
v  13.4992 1.11463e-15 -18.2033
v  4.30062 8.77322e-16 -14.3277
v  11.7517 1.36649e-15 -22.3165
v  19.1785 1.26115e-15 -20.5962
v  28.9959 9.416e-16 -15.3775
v  22.5218 7.72852e-16 -12.6216
v  25.6627 1.42843e-15 -23.3281
v  30.0755 7.83921e-16 -12.8024
v  23.6014 6.15173e-16 -10.0465
v  16.8893 6.26041e-16 -10.224
v  25.7255 3.04943e-16 -4.98009
v  0.000625446 29.2839 -0.00092729
v  4.43528 29.2839 -1.88865
v  2.08535 29.4337 4.90585
v  6.51272 29.2839 3.05427
v  2.08535 29.2839 4.90585
v  6.51272 29.4337 3.05426
v  7.91753 29.2839 6.39678
v  3.50316 29.2839 8.24293
v  4.30107 20.8422 -14.3284
v  2.56953 20.8422 -18.4483
v  11.7521 20.8422 -22.3172
v  13.4997 20.8422 -18.204
v  19.1791 29.2839 -20.5971
v  25.6633 29.2839 -23.329
v  28.9966 29.2839 -15.3784
v  30.0762 29.2839 -12.8033
v  23.602 29.2839 -10.0475
v  16.89 29.4337 -10.225
v  16.8898 20.8422 -10.2247
v  13.4998 29.2839 -18.2043
v  16.89 29.2839 -10.225
v  17.9818 29.2839 -7.65507
v  22.5224 29.4337 -12.6226
v  22.5224 29.2839 -12.6226
v  23.602 29.4337 -10.0475
v  7.67447 20.8422 -6.30196
v  13.3692 29.4337 -5.69159
v  8.75652 29.2839 -3.72809
v  8.75653 29.4337 -3.7281
v  7.67465 29.2839 -6.30222
v  12.2823 29.4337 -8.26359
v  25.7261 29.2839 -4.98102
v  20.115 29.2839 -2.63435
v  10.8455 29.2839 1.24225
v  3.35341 29.2839 -4.46278

# 0 UV coordinates

# 73 vertex normals
vn -4.88638e-25 -1 -6.12323e-17
vn 9.67915e-25 -1 -6.12323e-17
vn -4.03703e-24 -1 -6.12323e-17
vn -3.02778e-24 -1 -6.12323e-17
vn -4.20474e-24 -1 -6.12323e-17
vn 0 -1 -6.12323e-17
vn 3.04256e-24 -1 -6.12323e-17
vn -3.05151e-24 -1 -6.12323e-17
vn 3.70866e-24 -1 -6.12323e-17
vn 4.30955e-24 -1 -6.12323e-17
vn 3.48046e-24 -1 -6.12323e-17
vn 1.04728e-23 -1 -6.12323e-17
vn 3.36822e-25 -1 -6.12324e-17
vn -5.94505e-24 -1 -6.12323e-17
vn 1.59562e-24 -1 -6.12323e-17
vn -0.391667 -2.07704e-05 -0.920107
vn -0.391667 -2.07758e-05 -0.920107
vn -0.38583 -2.07738e-05 -0.92257
vn 0.921888 -3.19671e-05 -0.387457
vn 0.921888 -3.19519e-05 -0.387457
vn 0.38583 2.09969e-05 0.92257
vn 0.38583 2.09697e-05 0.92257
vn -0.920376 3.20459e-05 0.391036
vn -0.920376 3.20379e-05 0.391036
vn -0.921888 3.19465e-05 0.387457
vn -0.921888 3.19571e-05 0.387457
vn -0.38827 -2.08873e-05 -0.921546
vn -0.38827 -2.08828e-05 -0.921546
vn 0.920376 -3.20113e-05 -0.391036
vn 0.920376 -3.20523e-05 -0.391035
vn -0.38827 -2.08763e-05 -0.921546
vn 0.922229 -3.19354e-05 -0.386644
vn 0.922229 -3.19542e-05 -0.386643
vn 0.391667 2.07536e-05 0.920107
vn 0.391667 2.07814e-05 0.920107
vn -0.920376 3.19862e-05 0.391036
vn -0.920376 3.20208e-05 0.391036
vn -0.38827 -2.0889e-05 -0.921546
vn -0.920375 3.58919e-05 0.391036
vn -0.391667 -1.93183e-05 -0.920107
vn 0.922229 -2.39446e-05 -0.386644
vn 0.922229 -3.59169e-05 -0.386643
vn 0.391666 2.43063e-05 0.920107
vn -0.921888 3.19676e-05 0.387457
vn 0.391666 2.15929e-05 0.920107
vn 0.391667 1.93183e-05 0.920107
vn -0.391667 -2.07942e-05 -0.920107
vn -0.391667 -2.07864e-05 -0.920107
vn -0.391667 -2.16162e-05 -0.920107
vn 0.922229 -3.19459e-05 -0.386644
vn 0.38583 2.09948e-05 0.92257
vn 0.38583 2.09787e-05 0.92257
vn 0.38583 2.09775e-05 0.92257
vn 0.391667 1.93184e-05 0.920107
vn -0.921888 3.19494e-05 0.387457
vn -0.921888 3.19584e-05 0.387457
vn -0.391667 -2.07764e-05 -0.920107
vn 0.38583 2.09729e-05 0.92257
vn -0.920376 3.20331e-05 0.391036
vn -0.920376 3.20397e-05 0.391036
vn -0.0209784 0.998565 -0.0492827
vn 0 1 -0
vn 0.0159242 0.999148 0.0380769
vn 0.0159242 0.999148 0.0380769
vn -0.00670652 0.999851 -0.0159177
vn 0.022557 0.999701 -0.00945702
vn 0.0209784 0.998565 0.0492826
vn -0.0226061 0.999699 0.00947759
vn 0.0275142 0.999553 -0.0116898
vn 0.0275072 0.999554 -0.0116238
vn -0.0209784 0.998565 -0.0492827
vn -0.0275369 0.999553 0.0116364
vn -0.0293845 0.999492 0.0123499

# Mesh 'defaultobject' with 109 faces
g defaultobject
usemtl DefaultMaterial
f  1//1 2//1 3//1
f  2//1 1//1 4//2
f  5//3 1//1 6//3
f  1//1 5//3 7//4
f  6//3 3//1 8//5
f  3//1 6//3 1//1
f  9//6 8//5 10//6
f  8//5 9//6 6//3
f  8//5 11//7 10//6
f  11//7 8//5 12//8
f  13//9 14//9 15//9
f  14//9 13//9 16//10
f  17//11 18//11 19//11
f  18//11 17//11 20//12
f  19//11 21//13 22//13
f  21//13 19//11 18//11
f  17//11 23//14 14//9
f  23//14 17//11 19//11
f  23//14 22//13 4//2
f  22//13 23//14 19//11
f  15//9 23//14 7//4
f  23//14 15//9 14//9
f  4//2 7//4 23//14
f  7//4 4//2 1//1
f  4//2 24//15 2//1
f  24//15 4//2 22//13
f  25//16 6//16 9//16
f  6//16 25//16 26//17
f  27//18 28//18 29//18
f  28//18 27//18 30//18
f  8//19 31//19 12//19
f  31//19 8//19 30//20
f  12//21 32//21 11//21
f  32//21 12//21 31//22
f  32//23 10//23 11//23
f  10//23 32//23 27//24
f  33//25 13//25 15//25
f  13//25 33//25 34//26
f  34//27 16//27 13//27
f  16//27 34//27 35//28
f  16//29 36//29 14//29
f  36//29 16//29 35//30
f  37//31 20//31 17//31
f  20//31 37//31 38//31
f  20//32 39//32 18//32
f  39//32 20//32 38//32
f  18//32 40//33 21//33
f  40//33 18//32 39//32
f  21//34 41//34 22//34
f  41//34 21//34 40//35
f  42//36 36//36 43//36
f  36//36 42//36 44//37
f  44//38 17//31 14//38
f  17//31 44//38 37//31
f  42//36 45//39 46//39
f  47//40 48//40 42//40
f  48//41 49//41 41//41
f  49//42 48//42 47//42
f  49//43 46//43 41//34
f  50//44 15//25 7//44
f  15//25 50//44 33//25
f  51//45 52//45 46//43
f  52//45 51//45 53//46
f  54//47 43//47 50//47
f  43//47 54//47 45//48
f  45//48 54//47 55//49
f  22//50 56//50 24//50
f  56//50 22//50 41//41
f  24//51 57//51 2//51
f  57//51 24//51 56//52
f  2//51 58//53 3//53
f  58//53 2//51 57//51
f  53//46 26//54 52//45
f  26//55 5//55 6//55
f  5//55 26//55 59//56
f  59//57 7//57 5//57
f  7//57 59//57 54//47
f  3//53 28//58 8//58
f  28//58 3//53 58//53
f  29//59 9//59 10//23
f  9//59 29//59 25//60
f  59//61 53//61 54//61
f  52//62 28//62 58//62
f  28//62 52//62 26//62
f  26//62 29//62 28//62
f  29//62 26//62 25//62
f  32//63 30//63 27//63
f  30//63 32//63 31//64
f  35//62 33//62 36//62
f  33//62 35//62 34//62
f  39//62 37//62 48//62
f  37//62 39//62 38//62
f  40//62 48//62 41//62
f  48//62 40//62 39//62
f  44//65 42//65 37//65
f  37//66 42//66 48//66
f  46//67 47//67 42//67
f  47//68 46//68 49//68
f  43//62 33//62 50//62
f  33//62 43//62 36//62
f  55//69 46//69 45//69
f  46//70 55//70 51//70
f  51//71 54//61 53//61
f  51//72 55//72 54//72
f  41//62 57//62 56//62
f  57//62 41//62 46//62
f  46//62 58//62 57//62
f  58//62 46//62 52//62
f  26//73 53//73 59//73

