# {"id":"BLDG_00030002007e92d8","idOriginal":"BLDG_00030002007e92d8","origin":[13.344161388849558,52.52907001973845],"elevation":33.810001373291}
# Longitude: 13.344161388849558
# Latitude: 52.52907001973845
# Elevation: 33.810001373291

# File produced by Open Asset Import Library (http://www.assimp.sf.net)
# (assimp v3.1.0)

mtllib BLDG_00030002007e92d8.obj.mtl

# 18 vertex positions
v  5.94965 4.75358 5.93659
v  21.672 4.75358 -21.723
v  0.000101192 4.75358 -0.00015042
v  13.9772 4.75358 -2.10952
v  16.054 4.75358 -0.00168311
v  16.4707 4.75358 0.00746556
v  21.4857 4.75358 -14.7221
v  21.0915 4.75358 0.111252
v  21.119 4.75358 -0.919031
v  0 0 0
v  5.94954 -3.6352e-16 5.93674
v  13.9771 1.29162e-16 -2.10937
v  16.0539 9.38502e-20 -0.00153269
v  16.4706 -4.66344e-19 0.00761597
v  21.0914 -6.82141e-18 0.111402
v  21.1189 5.62652e-17 -0.918881
v  21.4856 9.01456e-16 -14.7219
v  21.6719 1.33014e-15 -21.7228

# 0 UV coordinates

# 25 vertex normals
vn 0 1 0
vn -0.706344 3.74592e-05 0.707868
vn -0.706344 3.74358e-05 0.707868
vn 0.707921 7.20175e-06 0.706292
vn 0.707921 7.34296e-06 0.706292
vn -0.712341 3.73571e-05 0.701834
vn -0.712341 3.73604e-05 0.701834
vn -0.0219514 3.21026e-05 0.999759
vn -0.0219514 3.21007e-05 0.999759
vn -0.022455 3.21098e-05 0.999748
vn -0.022455 3.21084e-05 0.999748
vn 0.999643 -2.04134e-05 0.0267193
vn 0.999643 -2.04126e-05 0.0267193
vn 0.999647 -2.04213e-05 0.0265558
vn 0.999647 -2.08208e-05 0.026556
vn 0.999646 -2.08223e-05 0.0266016
vn 0.999646 -2.04141e-05 0.0266014
vn -0.707936 -7.2788e-06 -0.706276
vn -0.707936 -7.33282e-06 -0.706276
vn 0 -1 -6.12323e-17
vn -8.21058e-25 -1 -6.12323e-17
vn -6.74707e-23 -1 -6.12324e-17
vn -9.95077e-25 -1 -6.12323e-17
vn 9.09786e-20 -1 -6.12286e-17
vn 3.0805e-23 -1 -6.12323e-17

# Mesh 'defaultobject' with 32 faces
g defaultobject
usemtl DefaultMaterial
f  1//1 2//1 3//1
f  2//1 1//1 4//1
f  2//1 4//1 5//1
f  2//1 5//1 6//1
f  2//1 6//1 7//1
f  7//1 6//1 8//1
f  7//1 8//1 9//1
f  1//2 10//2 11//2
f  10//2 1//2 3//3
f  12//4 1//4 11//4
f  1//4 12//4 4//5
f  5//6 12//6 13//6
f  12//6 5//6 4//7
f  14//8 5//8 13//8
f  5//8 14//8 6//9
f  15//10 6//10 14//10
f  6//10 15//10 8//11
f  16//12 8//12 15//12
f  8//12 16//12 9//13
f  17//14 9//14 16//14
f  9//14 17//14 7//15
f  18//16 7//16 17//16
f  7//16 18//16 2//17
f  3//18 18//18 10//18
f  18//18 3//18 2//19
f  10//20 12//20 11//20
f  12//20 10//20 18//21
f  12//20 18//21 17//22
f  12//20 17//22 15//23
f  15//23 17//22 16//24
f  12//20 14//25 13//25
f  14//25 12//20 15//23

