# {"id":"BLDG_0003000a0010daa1","idOriginal":"BLDG_0003000a0010daa1","origin":[13.385509575282104,52.55414316834969],"elevation":40.2000007629395}
# Longitude: 13.385509575282104
# Latitude: 52.55414316834969
# Elevation: 40.2000007629395

# File produced by Open Asset Import Library (http://www.assimp.sf.net)
# (assimp v3.1.0)

mtllib BLDG_0003000a0010daa1.obj.mtl

# 10 vertex positions
v  9.78789 21.7181 0.550383
v  10.3346 21.5377 -9.15962
v  0.000459726 21.5377 -0.0006826
v  16.6979 21.7181 8.22335
v  21.8649 21.5377 3.64389
v  11.5308 21.5377 12.8028
v  10.3341 5.60823e-16 -9.15893
v  11.5303 -7.83989e-16 12.8035
v  0 0 0
v  21.8645 -2.23166e-16 3.64458

# 0 UV coordinates

# 16 vertex normals
vn -0.0173191 0.999659 -0.0195414
vn 0.0194032 0.999659 -0.0174738
vn 0.0194032 0.999659 -0.0174738
vn -0.0194032 0.999659 0.0174737
vn -0.0194032 0.999659 0.0174737
vn 0 -1 -6.12323e-17
vn 3.56018e-24 -1 -6.12323e-17
vn -0.663272 -9.56088e-06 -0.748378
vn -0.663272 -9.5081e-06 -0.748378
vn 0.743087 -3.70884e-05 -0.669195
vn 0.743087 -3.70473e-05 -0.669195
vn 0.663272 9.56232e-06 0.748378
vn 0.663272 9.5706e-06 0.748378
vn 0.663272 3.06369e-06 0.748378
vn -0.743087 3.70755e-05 0.669195
vn -0.743087 3.70703e-05 0.669195

# Mesh 'defaultobject' with 16 faces
g defaultobject
usemtl DefaultMaterial
f  1//1 2//1 3//1
f  4//2 2//2 1//2
f  2//2 4//2 5//3
f  6//4 1//4 3//4
f  1//4 6//4 4//5
f  7//6 8//6 9//6
f  8//6 7//6 10//7
f  3//8 7//8 9//8
f  7//8 3//8 2//9
f  7//10 5//10 10//10
f  5//10 7//10 2//11
f  5//12 8//12 10//12
f  8//12 5//12 6//13
f  6//13 5//12 4//14
f  6//15 9//15 8//15
f  9//15 6//15 3//16

