# {"id":"BLDG_0003000f000858b4","idOriginal":"BLDG_0003000f000858b4","origin":[13.341840026673177,52.52772260311081],"elevation":33.2999992370605}
# Longitude: 13.341840026673177
# Latitude: 52.52772260311081
# Elevation: 33.2999992370605

# File produced by Open Asset Import Library (http://www.assimp.sf.net)
# (assimp v3.1.0)

mtllib BLDG_0003000f000858b4.obj.mtl

# 54 vertex positions
v  17.423 21.91 -23.3462
v  17.6256 20.4008 -33.3675
v  17.5847 22.2236 -31.3427
v  17.6252 2.04313e-15 -33.3669
v  17.3715 22.469 -20.8016
v  17.2891 22.469 -16.7238
v  17.0837 22.469 -6.56769
v  16.9497 22.469 0.056903
v  16.9492 -3.52783e-18 0.0576139
v  17.5842 1.91914e-15 -31.342
v  17.4225 1.4295e-15 -23.3455
v  17.3711 1.27369e-15 -20.8009
v  17.2886 1.02399e-15 -16.7231
v  17.0832 4.02111e-16 -6.56698
v  0.589376 20.4008 -33.5959
v  0.413722 21.91 -23.5742
v  0.553916 22.2236 -31.5709
v  0.588942 2.05711e-15 -33.5952
v  0.36908 20.4008 -21.0294
v  0.368761 5.438 -21.029
v  0.296484 5.438 -16.906
v  0.553443 1.93312e-15 -31.5702
v  0.296369 1.03519e-15 -16.9059
v  0.413256 1.44346e-15 -23.5735
v  0.368645 1.28764e-15 -21.0288
v  4.20507 2.05415e-15 -33.5468
v  12.0487 2.04771e-15 -33.4416
v  12.0491 20.4008 -33.4423
v  4.20551 20.4008 -33.5474
v  11.7946 1.27827e-15 -20.8757
v  11.7123 20.4008 -16.7837
v  11.795 20.4008 -20.8763
v  11.5061 20.4008 -6.58658
v  11.5056 4.03272e-16 -6.58594
v  11.7118 1.02767e-15 -16.7831
v  11.3721 22.469 0.0379436
v  3.61724 22.469 0.0115832
v  0.000478237 22.469 -0.0007109
v  11.3717 -2.36691e-18 0.0386545
v  0 0 0
v  3.61676 -7.52797e-19 0.0122941
v  3.98489 5.438 -20.9805
v  3.98477 1.28467e-15 -20.9803
v  3.98521 20.4008 -20.981
v  3.73333 20.4008 -6.61301
v  0.116568 20.4008 -6.6253
v  3.7329 4.0489e-16 -6.61236
v  0.116134 4.05643e-16 -6.62465
v  3.91278 5.438 -16.8671
v  3.91267 1.0328e-15 -16.867
v  11.8465 21.91 -23.421
v  4.02985 21.91 -23.5257
v  12.0082 22.2236 -31.4174
v  4.17004 22.2236 -31.5225

# 0 UV coordinates

# 92 vertex normals
vn 0.999796 -2.08971e-05 0.0202182
vn 0.999796 -2.06733e-05 0.0202182
vn 0.999796 -2.08753e-05 0.0202186
vn 0.999796 -2.04276e-05 0.0202178
vn 0.999796 -2.06869e-05 0.0202182
vn 0.999796 -2.06777e-05 0.0202182
vn 0.999796 -2.06638e-05 0.0202182
vn -2.35197e-16 1 5.66717e-17
vn 0 -1 -6.21196e-17
vn -8.63007e-17 1 5.95565e-17
vn 5.00382e-17 -1 -5.94204e-17
vn 2.36848e-15 -1 -3.70074e-17
vn -0.999846 2.0731e-05 -0.0175279
vn -0.999846 2.07273e-05 -0.0175279
vn -0.999846 2.07242e-05 -0.0175279
vn -0.999846 2.07243e-05 -0.0175279
vn -0.999846 2.06932e-05 -0.0175278
vn -0.999846 2.07384e-05 -0.0175278
vn -0.999846 2.07292e-05 -0.0175279
vn -2.53765e-15 1 1.58603e-17
vn 3.55271e-15 1 1.4803e-16
vn 0.0134015 -3.18833e-05 -0.99991
vn 0.0134009 -3.19725e-05 -0.99991
vn 0.0134004 -3.22556e-05 -0.99991
vn 0.0134011 -3.17019e-05 -0.99991
vn 0.0134004 -3.18837e-05 -0.99991
vn 0 1 0
vn -0.999796 2.06247e-05 -0.0202182
vn -0.999796 2.06232e-05 -0.0202182
vn -0.999796 2.06256e-05 -0.0202182
vn 3.55271e-15 1 5.55112e-17
vn -0.00339918 3.17115e-05 0.999994
vn -0.00339918 3.17113e-05 0.999994
vn -0.00339918 3.17117e-05 0.999994
vn -0.00339918 3.17109e-05 0.999994
vn -0.00339918 3.17114e-05 0.999994
vn 0 1 5.55112e-17
vn -0.0134009 3.22009e-05 0.99991
vn -0.013401 3.19762e-05 0.99991
vn -0.0134009 3.19069e-05 0.99991
vn 0 -1 0
vn -0.0134004 3.20231e-05 0.99991
vn 0.00339918 -3.17198e-05 -0.999994
vn 0.00339923 -3.17004e-05 -0.999994
vn 0.00339918 -3.17289e-05 -0.999994
vn 0.00339923 -3.17198e-05 -0.999994
vn 0.999846 -2.07067e-05 0.0175278
vn 0.999846 -2.07453e-05 0.0175279
vn -0.0107574 3.17934e-05 0.999942
vn -0.999846 2.07265e-05 -0.0175278
vn -0.999846 2.07261e-05 -0.0175278
vn -0.00683534 0.86014 0.510011
vn -0.00683755 0.86014 0.510011
vn -0.00683513 0.860143 0.510006
vn -0.00683516 0.860144 0.510006
vn -0.00683517 0.860144 0.510006
vn -0.000525002 0.999232 0.0391734
vn -0.000524858 0.999232 0.0391733
vn -0.000525008 0.999232 0.0391736
vn -0.000525119 0.999232 0.0391738
vn -0.000525012 0.999232 0.0391737
vn 0.00896478 0.74327 -0.668931
vn 0.00896512 0.74327 -0.668932
vn 0.0089655 0.743269 -0.668933
vn 0.008965 0.743271 -0.668931
vn 0.00896329 0.743275 -0.668926
vn -0.347635 0.937604 -0.00702998
vn -0.347635 0.937604 -0.00702998
vn -0.347635 0.937604 -0.00702999
vn -0.347635 0.937604 -0.00702998
vn -0.347635 0.937604 -0.00702988
vn 0.00101294 0.954568 -0.297993
vn 0.00101294 0.954567 -0.297993
vn 0.00101297 0.954568 -0.297993
vn 0.00101294 0.954568 -0.297993
vn 0.00101294 0.954568 -0.297993
vn -0.337633 0.917907 -0.208447
vn 0 -1 -6.12323e-17
vn 2.23281e-24 -1 -6.12323e-17
vn -5.16098e-24 -1 -6.12323e-17
vn 2.23854e-26 -1 -6.12323e-17
vn -2.38501e-24 -1 -6.12323e-17
vn 6.66719e-24 -1 -6.12323e-17
vn -3.77697e-24 -1 -6.12323e-17
vn 2.14343e-23 -1 -6.12323e-17
vn 2.44248e-23 -1 -6.12323e-17
vn 5.83927e-23 -1 -6.12322e-17
vn -6.98459e-23 -1 -6.12324e-17
vn 9.24084e-24 -1 -6.12324e-17
vn 4.06117e-24 -1 -6.12324e-17
vn 8.21605e-23 -1 -6.12322e-17
vn -2.32955e-23 -1 -6.12324e-17

# Mesh 'defaultobject' with 104 faces
g defaultobject
usemtl DefaultMaterial
f  1//1 2//1 3//1
f  2//1 1//1 4//2
f  4//2 1//1 5//3
f  4//2 5//3 6//4
f  4//2 6//4 7//5
f  4//2 7//5 8//6
f  4//2 8//6 9//7
f  4//8 9//8 10//8
f  10//9 9//9 11//9
f  11//10 9//8 12//10
f  12//11 9//9 13//11
f  13//11 9//9 14//12
f  15//13 16//13 17//13
f  16//13 15//13 18//14
f  16//13 18//14 19//15
f  19//15 18//14 20//16
f  20//16 18//14 21//17
f  21//17 18//14 22//18
f  21//17 22//18 23//19
f  23//20 22//20 24//20
f  23//20 24//20 25//21
f  15//22 26//22 18//22
f  26//22 15//22 27//23
f  27//23 15//22 4//24
f  4//24 15//22 28//25
f  4//24 28//25 2//26
f  28//27 15//27 29//27
f  30//28 31//28 32//28
f  31//28 30//28 33//29
f  33//29 30//28 34//30
f  34//31 30//31 35//31
f  36//32 9//32 8//32
f  9//32 36//32 37//33
f  9//32 37//33 38//34
f  9//32 38//34 39//35
f  39//35 38//34 40//36
f  39//37 40//37 41//37
f  30//38 42//38 43//38
f  42//38 30//38 32//39
f  42//38 32//39 19//40
f  19//41 32//41 44//41
f  19//40 20//42 42//38
f  34//43 45//43 33//43
f  45//43 34//43 46//44
f  46//44 34//43 47//45
f  46//44 47//45 48//46
f  43//47 49//47 50//47
f  49//47 43//47 42//48
f  50//49 21//49 23//49
f  21//49 50//49 49//49
f  38//50 48//50 40//50
f  48//50 38//50 46//51
f  51//52 32//52 1//52
f  32//52 51//52 52//53
f  32//52 52//53 44//54
f  44//54 52//53 16//55
f  44//54 16//55 19//56
f  53//57 1//57 3//57
f  1//57 53//57 54//58
f  1//57 54//58 17//59
f  1//57 17//59 52//60
f  52//60 17//59 16//61
f  1//27 52//27 51//27
f  28//62 3//62 2//62
f  3//62 28//62 29//63
f  3//62 29//63 15//64
f  3//62 15//64 53//65
f  53//65 15//64 17//66
f  53//27 17//27 54//27
f  8//67 31//67 33//67
f  31//67 8//67 32//68
f  32//68 8//67 7//69
f  32//68 7//69 6//70
f  32//68 6//70 5//71
f  45//72 8//72 33//72
f  8//72 45//72 36//73
f  36//73 45//72 46//74
f  36//73 46//74 37//75
f  37//75 46//74 38//76
f  1//77 32//77 5//77
f  49//27 20//27 21//27
f  20//27 49//27 42//27
f  41//78 40//78 34//78
f  47//79 34//78 40//78
f  48//80 47//79 40//78
f  9//9 39//81 14//12
f  41//78 14//12 39//81
f  34//78 14//12 41//78
f  13//11 14//12 34//78
f  35//82 13//11 34//78
f  12//11 13//11 35//82
f  30//83 12//11 35//82
f  11//9 12//11 30//83
f  10//9 11//9 30//83
f  43//84 10//9 30//83
f  25//85 10//9 43//84
f  24//86 10//9 25//85
f  4//87 10//9 24//86
f  27//88 4//87 24//86
f  22//89 27//88 24//86
f  26//90 27//88 22//89
f  18//91 26//90 22//89
f  50//92 23//92 43//84
f  25//85 43//84 23//92

