# {"id":"BLDG_0003000000178417","idOriginal":"BLDG_0003000000178417","origin":[13.386285201906134,52.530450332248925],"elevation":33.939998626709}
# Longitude: 13.386285201906134
# Latitude: 52.530450332248925
# Elevation: 33.939998626709

# File produced by Open Asset Import Library (http://www.assimp.sf.net)
# (assimp v3.1.0)

mtllib BLDG_0003000000178417.obj.mtl

# 14 vertex positions
v  13.476 23.5427 16.8035
v  9.14794 23.5427 17.2172
v  9.64639 23.5427 18.4074
v  5.47758 23.5427 -2.2945
v  0.000502519 23.5427 -0.00074497
v  1.64797 23.5427 -0.690711
v  7.50047 23.5427 17.9072
v  5.47707 1.40452e-16 -2.29375
v  0 0 0
v  13.4755 -1.02897e-15 16.8043
v  9.64589 -1.12717e-15 18.4081
v  9.14743 -1.0543e-15 17.2179
v  12.977 -9.56088e-16 15.6141
v  7.49996 -1.09654e-15 17.9079

# 0 UV coordinates

# 18 vertex normals
vn 0 1 0
vn -0.38628 -2.09351e-05 -0.922381
vn -0.386295 -2.36831e-05 -0.922375
vn -0.386285 -2.09419e-05 -0.92238
vn 0.386295 2.09719e-05 0.922375
vn -0.922374 3.18963e-05 0.386297
vn -0.922374 3.19276e-05 0.386297
vn 0.922375 -3.19272e-05 -0.386297
vn 0.922374 -3.18975e-05 -0.386297
vn 0.922374 -3.1912e-05 -0.386297
vn 0.386295 2.09729e-05 0.922375
vn 0.386294 2.08963e-05 0.922376
vn -0.922374 3.19118e-05 0.386297
vn -0.922374 3.19276e-05 0.386297
vn 4.8852e-23 -1 -6.12323e-17
vn 1.3135e-24 -1 -6.12323e-17
vn 0 -1 -6.12323e-17
vn -1.60578e-23 -1 -6.12323e-17

# Mesh 'defaultobject' with 24 faces
g defaultobject
usemtl DefaultMaterial
f  1//1 2//1 3//1
f  2//1 1//1 4//1
f  2//1 4//1 5//1
f  5//1 4//1 6//1
f  5//1 7//1 2//1
f  8//2 6//2 4//2
f  6//3 8//3 5//3
f  5//4 8//2 9//4
f  10//5 3//5 11//5
f  3//5 10//5 1//5
f  12//6 3//6 2//6
f  3//6 12//6 11//7
f  13//8 1//8 10//8
f  1//8 13//8 4//9
f  4//9 13//8 8//10
f  12//11 7//11 14//11
f  7//11 12//11 2//12
f  9//13 7//13 5//13
f  7//13 9//13 14//14
f  9//15 12//15 14//15
f  12//15 9//15 13//16
f  13//16 9//15 8//17
f  12//15 10//18 11//18
f  10//18 12//15 13//16

