# {"id":"BLDG_00030009007e0ff8","idOriginal":"BLDG_00030009007e0ff8","origin":[13.390184920602312,52.551117754403236],"elevation":45.5299987792969}
# Longitude: 13.390184920602312
# Latitude: 52.551117754403236
# Elevation: 45.5299987792969

# File produced by Open Asset Import Library (http://www.assimp.sf.net)
# (assimp v3.1.0)

mtllib BLDG_00030009007e0ff8.obj.mtl

# 58 vertex positions
v  24.9784 22.5872 7.20408
v  25.2201 -4.27552e-16 6.98245
v  25.2206 22.5872 6.98173
v  24.9779 -4.41166e-16 7.20479
v  22.6046 -2.46575e-16 4.02687
v  22.605 22.5872 4.02615
v  17.2604 1.15076e-16 -1.87934
v  17.2609 22.5872 -1.88006
v  17.0226 22.5872 -1.65359
v  17.0221 1.01209e-16 -1.65288
v  14.3368 2.82758e-16 -4.61779
v  14.3372 22.5872 -4.61851
v  14.5942 2.97275e-16 -4.85488
v  14.5947 22.5872 -4.85559
v  10.5064 5.76579e-16 -9.41625
v  10.5069 22.5872 -9.41697
v  0.000482266 22.5872 -0.00071572
v  0 0 0
v  15.9552 22.5872 17.7585
v  15.9547 -1.08744e-15 17.7592
v  14.8128 22.5872 18.7826
v  14.8123 -1.15015e-15 18.7833
v  20.9263 22.5872 25.5624
v  20.9258 -1.56529e-15 25.5631
v  22.054 -1.50305e-15 24.5467
v  22.0545 22.5872 24.546
v  22.836 -1.46351e-15 23.9009
v  22.8365 22.5872 23.9001
v  23.6616 -1.42743e-15 23.3118
v  23.6621 22.5872 23.311
v  24.5267 -1.39502e-15 22.7825
v  24.5272 22.5872 22.7817
v  25.427 -1.36644e-15 22.3156
v  25.4275 22.5872 22.3149
v  26.3581 -1.34181e-15 21.9135
v  26.3586 22.5872 21.9127
v  27.3073 -1.32143e-15 21.5805
v  27.3078 22.5872 21.5798
v  28.2775 -1.30516e-15 21.3149
v  28.278 22.5872 21.3142
v  29.264 -1.2931e-15 21.1179
v  29.2645 22.5872 21.1171
v  30.2618 -1.28529e-15 20.9904
v  30.2623 22.5872 20.9897
v  31.2661 -1.28178e-15 20.933
v  31.2666 22.5872 20.9323
v  32.7783 -1.28062e-15 20.9141
v  32.7788 22.5872 20.9134
v  32.6322 -7.21324e-16 11.7801
v  32.6327 22.5872 11.7794
v  31.1291 22.5872 11.7618
v  31.1287 -7.20244e-16 11.7625
v  29.5476 22.5872 11.7436
v  29.5471 -7.19135e-16 11.7444
v  27.8972 -6.10067e-16 9.96315
v  27.8976 22.5872 9.96243
v  27.6516 22.5872 10.1767
v  27.6511 -6.23187e-16 10.1774

# 0 UV coordinates

# 74 vertex normals
vn 0.67625 8.91131e-06 0.736672
vn 0.676249 8.89576e-06 0.736673
vn 0.748872 -3.69991e-05 -0.662714
vn 0.748872 -3.70151e-05 -0.662714
vn 0.741508 -3.71165e-05 -0.670944
vn -0.688889 -8.25161e-06 -0.724866
vn 0.741185 -3.71056e-05 -0.6713
vn 0.677353 8.82473e-06 0.735658
vn 0.677354 8.84027e-06 0.735657
vn 0.744704 -3.70444e-05 -0.667395
vn -0.667417 -9.34658e-06 -0.744685
vn -0.667417 -9.32262e-06 -0.744685
vn -0.743889 3.71119e-05 0.668304
vn -0.743888 3.70595e-05 0.668304
vn -0.667523 -9.34553e-06 -0.744589
vn -0.667523 -9.3802e-06 -0.744589
vn -0.742658 3.70097e-05 0.669671
vn -0.742658 3.70411e-05 0.669671
vn 0.669325 9.28987e-06 0.74297
vn 0.669325 9.28294e-06 0.74297
vn 0.636823 1.08634e-05 0.771011
vn 0.636823 1.08737e-05 0.77101
vn 0.580838 1.34374e-05 0.814019
vn 0.580838 1.34166e-05 0.814019
vn 0.521891 1.59773e-05 0.853012
vn 0.52189 1.59343e-05 0.853013
vn 0.460312 1.83155e-05 0.887757
vn 0.460314 1.8391e-05 0.887756
vn 0.396537 2.06319e-05 0.918019
vn 0.330971 2.28911e-05 0.943641
vn 0.33097 2.28386e-05 0.943641
vn 0.264063 2.49005e-05 0.964506
vn 0.264064 2.49818e-05 0.964505
vn 0.195881 2.68683e-05 0.980628
vn 0.126729 2.87041e-05 0.991937
vn 0.0569869 3.03975e-05 0.998375
vn 0.0124972 3.13959e-05 0.999922
vn 0.0124972 3.13969e-05 0.999922
vn 0.999872 -2.17836e-05 -0.0159967
vn 0.999872 -2.19522e-05 -0.0159963
vn 0.0117245 -3.19147e-05 -0.999931
vn 0.0117246 -3.19138e-05 -0.999931
vn 0.0114582 -3.19092e-05 -0.999934
vn 0.733617 -3.71313e-05 -0.679563
vn 0.733617 -3.71922e-05 -0.679563
vn -0.656697 -9.8515e-06 -0.754154
vn -0.6567 -9.90681e-06 -0.754152
vn 0.743562 -3.70753e-05 -0.668667
vn 0.743562 -3.70595e-05 -0.668667
vn 1.85217e-23 -1 -6.12324e-17
vn 5.02961e-24 -1 -6.12323e-17
vn 6.12759e-23 -1 -6.12323e-17
vn -3.86421e-22 -1 -6.12324e-17
vn -1.50366e-23 -1 -6.12323e-17
vn -4.59038e-23 -1 -6.12323e-17
vn 1.88983e-23 -1 -6.12324e-17
vn -2.77166e-23 -1 -6.12323e-17
vn -5.03071e-23 -1 -6.12324e-17
vn 1.11144e-22 -1 -6.12323e-17
vn -3.61195e-22 -1 -6.12323e-17
vn 4.34678e-23 -1 -6.12323e-17
vn 0 -1 -6.12323e-17
vn 7.29728e-23 -1 -6.12323e-17
vn -6.971e-23 -1 -6.12324e-17
vn -1.61687e-22 -1 -6.12324e-17
vn 2.62394e-23 -1 -6.12323e-17
vn 2.64784e-22 -1 -6.12322e-17
vn -4.35427e-23 -1 -6.12323e-17
vn -2.93848e-23 -1 -6.12323e-17
vn -1.5329e-22 -1 -6.12324e-17
vn 1.69753e-22 -1 -6.12323e-17
vn -6.13531e-23 -1 -6.12323e-17
vn -1.8082e-23 -1 -6.12323e-17
vn 0 1 0

# Mesh 'defaultobject' with 112 faces
g defaultobject
usemtl DefaultMaterial
f  1//1 2//1 3//1
f  2//1 1//1 4//2
f  3//3 5//3 6//3
f  5//3 3//3 2//4
f  6//5 7//5 8//5
f  7//5 6//5 5//5
f  9//6 7//6 10//6
f  7//6 9//6 8//6
f  9//7 11//7 12//7
f  11//7 9//7 10//7
f  12//8 13//8 14//8
f  13//8 12//8 11//9
f  14//10 15//10 16//10
f  15//10 14//10 13//10
f  17//11 15//11 18//11
f  15//11 17//11 16//12
f  19//13 18//13 20//13
f  18//13 19//13 17//14
f  21//15 20//15 22//15
f  20//15 21//15 19//16
f  23//17 22//17 24//17
f  22//17 23//17 21//18
f  23//19 25//19 26//19
f  25//19 23//19 24//20
f  26//21 27//21 28//21
f  27//21 26//21 25//22
f  28//23 29//23 30//23
f  29//23 28//23 27//24
f  30//25 31//25 32//25
f  31//25 30//25 29//26
f  32//27 33//27 34//27
f  33//27 32//27 31//28
f  34//29 35//29 36//29
f  35//29 34//29 33//29
f  36//30 37//30 38//30
f  37//30 36//30 35//31
f  38//32 39//32 40//32
f  39//32 38//32 37//33
f  40//34 41//34 42//34
f  41//34 40//34 39//34
f  42//35 43//35 44//35
f  43//35 42//35 41//35
f  44//36 45//36 46//36
f  45//36 44//36 43//36
f  46//37 47//37 48//37
f  47//37 46//37 45//38
f  48//39 49//39 50//39
f  49//39 48//39 47//40
f  51//41 49//41 52//41
f  49//41 51//41 50//42
f  53//43 52//43 54//43
f  52//43 53//43 51//43
f  53//44 55//44 56//44
f  55//44 53//44 54//45
f  57//46 55//46 58//46
f  55//46 57//46 56//47
f  57//48 4//48 1//48
f  4//48 57//48 58//49
f  13//50 11//50 15//50
f  15//50 20//51 18//51
f  20//51 15//50 11//50
f  20//51 11//50 10//52
f  20//51 10//52 7//53
f  20//51 7//53 5//54
f  2//55 4//55 5//54
f  20//51 24//56 22//56
f  24//56 20//51 5//54
f  24//56 5//54 4//55
f  24//56 4//55 58//57
f  24//56 58//57 25//58
f  25//58 58//57 27//59
f  27//59 58//57 55//60
f  27//59 55//60 29//61
f  29//61 55//60 54//62
f  29//61 54//62 31//63
f  31//63 54//62 33//64
f  33//64 54//62 35//65
f  35//65 54//62 52//66
f  35//65 52//66 37//67
f  37//67 52//66 39//68
f  39//68 52//66 49//69
f  39//68 49//69 41//70
f  41//70 49//69 43//71
f  43//71 49//69 45//72
f  45//72 49//69 47//73
f  19//74 16//74 17//74
f  16//74 19//74 12//74
f  12//74 19//74 9//74
f  9//74 19//74 8//74
f  8//74 19//74 6//74
f  23//74 19//74 21//74
f  19//74 23//74 6//74
f  6//74 23//74 1//74
f  1//74 23//74 57//74
f  57//74 23//74 26//74
f  57//74 26//74 28//74
f  57//74 28//74 30//74
f  57//74 30//74 32//74
f  57//74 32//74 56//74
f  56//74 32//74 53//74
f  53//74 32//74 34//74
f  53//74 34//74 36//74
f  53//74 36//74 38//74
f  53//74 38//74 51//74
f  51//74 38//74 40//74
f  51//74 40//74 42//74
f  51//74 42//74 50//74
f  50//74 42//74 44//74
f  50//74 44//74 46//74
f  50//74 46//74 48//74
f  3//74 6//74 1//74
f  14//74 16//74 12//74

