# {"id":"BLDG_000300000018dc01","idOriginal":"BLDG_000300000018dc01","origin":[13.402447083276584,52.52732140590033],"elevation":35.9099998474121}
# Longitude: 13.402447083276584
# Latitude: 52.52732140590033
# Elevation: 35.9099998474121

# File produced by Open Asset Import Library (http://www.assimp.sf.net)
# (assimp v3.1.0)

mtllib BLDG_000300000018dc01.obj.mtl

# 8 vertex positions
v  1.45196 -3.25032e-16 5.30817
v  7.33612 9.42353e-17 -1.53898
v  8.78808 -2.30797e-16 3.76919
v  0 0 0
v  8.78814 3.03152 3.7691
v  7.33619 3.30033 -1.53908
v  1.45202 3.03152 5.30808
v  6.4774e-05 3.03152 -9.59104e-05

# 0 UV coordinates

# 12 vertex normals
vn -3.85708e-24 -1 -6.12323e-17
vn 1.28569e-24 -1 -6.12323e-17
vn 0.964566 -2.8668e-05 -0.26384
vn 0.964566 -2.89847e-05 -0.26384
vn 0.205312 2.65659e-05 0.978697
vn 0.205312 2.66079e-05 0.978697
vn -0.964566 2.89375e-05 0.26384
vn -0.964566 2.8957e-05 0.26384
vn -0.205312 -2.65769e-05 -0.978697
vn -0.205312 -2.65772e-05 -0.978696
vn 0.0100349 0.998805 0.047835
vn -0.0346309 0.999355 0.00947268

# Mesh 'defaultobject' with 12 faces
g defaultobject
usemtl DefaultMaterial
f  1//1 2//1 3//1
f  2//1 1//1 4//2
f  2//3 5//3 3//3
f  5//3 2//3 6//4
f  3//5 7//5 1//5
f  7//5 3//5 5//6
f  7//7 4//7 1//7
f  4//7 7//7 8//8
f  8//9 2//9 4//9
f  2//9 8//9 6//10
f  5//11 6//11 7//11
f  7//12 6//12 8//12

