# {"id":"BLDG_00030009007e8362","idOriginal":"BLDG_00030009007e8362","origin":[13.367908576065565,52.54878488157803],"elevation":35.37}
# Longitude: 13.367908576065565
# Latitude: 52.54878488157803
# Elevation: 35.37

# File produced by Open Asset Import Library (http://www.assimp.sf.net)
# (assimp v3.1.0)

mtllib BLDG_00030009007e8362.obj.mtl

# 44 vertex positions
v  1.07238 23.38 3.27376
v  8.12771 23.38 -2.73744
v  0.000498485 23.38 -0.00074074
v  9.19959 23.38 0.537065
v  20.0349 23.38 -6.74697
v  12.7362 23.38 -0.653826
v  13.1128 23.38 -0.780634
v  16.7975 23.38 -2.02141
v  17.7531 23.38 -2.3432
v  21.1369 23.38 -3.48263
v  24.4416 23.38 -8.23088
v  21.9978 23.38 -0.932706
v  26.4047 23.38 -2.41623
v  13.9499 23.61 1.77653
v  13.1128 23.61 -0.780641
v  18.2014 23.61 14.7647
v  14.2881 21.22 16.0821
v  9.19955 21.22 0.537133
v  10.0365 21.22 3.09396
v  17.6583 23.99 0.528121
v  16.7975 23.99 -2.02143
v  22.0296 23.99 13.476
v  21.9978 21.22 -0.932637
v  26.3691 21.22 12.0152
v  21.1369 21.22 -3.48256
v  26.4047 24.38 -2.41626
v  37.9752 24.38 -12.7881
v  24.4417 24.38 -8.23091
v  39.9387 24.38 -6.97227
v  22.0291 -8.25211e-16 13.4767
v  21.9973 5.70664e-17 -0.931965
v  26.3686 -7.3576e-16 12.0159
v  18.2009 -9.04121e-16 14.7654
v  14.2876 -9.84787e-16 16.0828
v  10.0361 -1.89492e-16 3.09464
v  24.4411 5.0395e-16 -8.23013
v  20.0344 4.13087e-16 -6.74623
v  8.12721 1.67574e-16 -2.7367
v  9.19909 -3.29311e-17 0.537805
v  1.07189 -2.00505e-16 3.2745
v  0 0 0
v  26.4042 1.47906e-16 -2.41549
v  37.9747 7.82997e-16 -12.7873
v  39.9382 4.26881e-16 -6.9715

# 0 UV coordinates

# 64 vertex normals
vn 0 1 0
vn -0.476104 0.865469 0.155849
vn -0.476105 0.865468 0.15585
vn -0.476102 0.86547 0.155849
vn -0.476102 0.86547 0.155849
vn -0.0921608 0.995258 0.0311144
vn -0.0921608 0.995258 0.0311144
vn -0.0890176 0.995604 0.0291393
vn -0.0890178 0.995604 0.0291393
vn 0.490424 0.855611 -0.165572
vn 0.490424 0.855611 -0.165572
vn 0.490424 0.855611 -0.165572
vn 0.490424 0.855611 -0.165572
vn 0 -1 0
vn -3.38415e-24 -1 -6.12323e-17
vn -1.53448e-23 -1 -6.12323e-17
vn 0 -1 -6.12323e-17
vn -2.45554e-24 -1 -6.12323e-17
vn 0 -1 -6.12323e-17
vn -7.42233e-24 -1 -6.12323e-17
vn 0 1 5.55112e-17
vn 3.58354e-24 -1 -6.12323e-17
vn -3.58354e-24 -1 -6.12323e-17
vn 7.24732e-24 -1 -6.12323e-17
vn 0.319044 2.33094e-05 0.94774
vn 0.319044 2.30391e-05 0.94774
vn 0.319044 2.3232e-05 0.94774
vn 0.319044 2.32375e-05 0.94774
vn 0.319044 2.32598e-05 0.94774
vn 1.11022e-16 1 3.88578e-16
vn -0.950377 3.01016e-05 0.311099
vn -0.950377 3.00803e-05 0.311099
vn -0.950377 3.01592e-05 0.311099
vn 1.11022e-16 1 0
vn -0.947461 3.02125e-05 0.319872
vn 0.319126 2.32592e-05 0.947712
vn -0.947461 2.99453e-05 0.319872
vn 0.947461 -3.02954e-05 -0.319872
vn 0.947461 -3.04419e-05 -0.319872
vn -0.950377 3.01218e-05 0.311099
vn -0.950377 3.01195e-05 0.311099
vn 0.947461 -3.03214e-05 -0.319872
vn -0.319126 -2.31873e-05 -0.947712
vn -0.319126 -2.31302e-05 -0.947712
vn -0.319126 -2.31061e-05 -0.947712
vn -0.319126 -2.32454e-05 -0.947712
vn -0.319126 -2.32119e-05 -0.947712
vn -0.319126 -2.33083e-05 -0.947712
vn -0.319126 -2.32991e-05 -0.947712
vn -0.319126 -2.32194e-05 -0.947712
vn -0.319126 -2.3222e-05 -0.947712
vn 0.319044 2.32618e-05 0.94774
vn 0.319044 2.31328e-05 0.94774
vn 0.319044 2.32283e-05 0.94774
vn 0.319044 2.31511e-05 0.94774
vn 0.319044 2.32398e-05 0.94774
vn -0.319126 -2.37131e-05 -0.947712
vn -0.319125 -1.43924e-05 -0.947712
vn -0.319126 -2.3347e-05 -0.947712
vn -0.319126 -2.3347e-05 -0.947712
vn 0.319126 2.32854e-05 0.947712
vn 0.319126 2.32854e-05 0.947712
vn 0.319126 2.32267e-05 0.947712
vn 0.319126 2.32214e-05 0.947712

# Mesh 'defaultobject' with 84 faces
g defaultobject
usemtl DefaultMaterial
f  1//1 2//1 3//1
f  2//1 1//1 4//1
f  2//1 4//1 5//1
f  5//1 4//1 6//1
f  5//1 6//1 7//1
f  5//1 7//1 8//1
f  5//1 8//1 9//1
f  5//1 9//1 10//1
f  5//1 10//1 11//1
f  11//1 10//1 12//1
f  11//1 12//1 13//1
f  6//2 14//2 15//2
f  14//2 6//2 16//3
f  16//3 6//2 17//4
f  17//4 6//2 18//5
f  17//1 18//1 19//1
f  15//6 20//6 21//6
f  20//6 15//6 22//7
f  22//8 15//8 14//8
f  22//8 14//8 16//9
f  23//10 22//10 24//10
f  22//10 23//10 25//11
f  22//10 25//11 9//12
f  22//10 9//12 21//13
f  22//14 21//14 20//14
f  26//1 27//1 28//1
f  27//1 26//1 29//1
f  30//15 31//15 32//15
f  31//15 30//15 33//16
f  31//15 33//16 34//17
f  31//15 34//17 35//18
f  31//15 35//18 36//19
f  36//19 35//18 37//20
f  37//20 35//18 38//19
f  38//21 35//21 39//21
f  38//19 39//22 40//22
f  38//19 40//22 41//23
f  42//24 43//24 44//24
f  43//24 42//24 36//19
f  36//19 42//24 31//15
f  16//25 24//25 22//25
f  24//25 16//25 17//26
f  24//25 17//26 32//27
f  32//27 17//26 33//28
f  33//28 17//26 34//29
f  32//30 33//30 30//30
f  39//31 19//31 18//31
f  19//31 39//31 17//32
f  17//32 39//31 34//33
f  34//34 39//21 35//21
f  12//35 25//35 23//35
f  25//35 12//35 10//35
f  10//36 9//36 25//36
f  26//37 11//37 13//37
f  11//37 26//37 28//37
f  43//38 29//38 44//38
f  29//38 43//38 27//39
f  1//40 41//40 40//40
f  41//40 1//40 3//41
f  31//42 24//42 32//42
f  24//42 31//42 23//42
f  43//43 28//43 27//43
f  28//43 43//43 11//44
f  11//44 43//43 5//45
f  5//45 43//43 2//46
f  2//46 43//43 3//47
f  3//47 43//43 36//48
f  3//47 36//48 37//49
f  3//47 37//49 38//50
f  3//47 38//50 41//51
f  23//52 13//52 12//52
f  13//52 29//53 26//53
f  29//53 13//52 23//52
f  29//53 23//52 31//54
f  29//53 31//54 42//55
f  29//53 42//55 44//56
f  9//57 15//57 21//57
f  15//57 9//57 8//58
f  15//57 8//58 7//59
f  15//57 7//59 6//60
f  4//61 18//61 6//61
f  18//61 4//61 1//62
f  18//61 1//62 39//63
f  39//63 1//62 40//64

