# {"id":"BLDG_0003000a004a3b78","idOriginal":"BLDG_0003000a004a3b78","origin":[13.331138744890463,52.51937470849619],"elevation":34.5999984741211}
# Longitude: 13.331138744890463
# Latitude: 52.51937470849619
# Elevation: 34.5999984741211

# File produced by Open Asset Import Library (http://www.assimp.sf.net)
# (assimp v3.1.0)

mtllib BLDG_0003000a004a3b78.obj.mtl

# 22 vertex positions
v  12.5374 18.02 -17.5535
v  10.7335 20.58 -10.3664
v  14.731 20.58 -15.9632
v  8.5436 18.02 -11.9618
v  2.19028 20.58 1.59486
v  0.000383273 18.02 -0.00056983
v  16.6849 21.11 -6.03026
v  20.7501 21.11 -11.5993
v  8.01899 21.11 5.8416
v  19.4645 18.02 -4.00495
v  23.5344 18.02 -9.58056
v  10.7985 18.02 7.8669
v  12.537 1.0748e-15 -17.5529
v  23.534 5.86605e-16 -9.57999
v  14.7305 9.77424e-16 -15.9626
v  20.7496 7.10213e-16 -11.5987
v  0 0 0
v  10.7981 -4.81744e-16 7.86747
v  2.18985 -9.76968e-17 1.59551
v  8.01854 -3.57736e-16 5.84226
v  8.54321 7.32416e-16 -11.9613
v  19.4641 2.45198e-16 -4.00438

# 0 UV coordinates

# 38 vertex normals
vn -0.558879 0.726853 -0.399174
vn -0.558879 0.726852 -0.399174
vn -0.558879 0.726853 -0.399174
vn -0.558879 0.726853 -0.399174
vn -0.0574342 0.997469 -0.0419245
vn -0.0574343 0.997469 -0.0419245
vn -0.0596456 0.99731 -0.0426013
vn -0.0596456 0.99731 -0.0426013
vn 0.539821 0.743856 0.394045
vn 0.539821 0.743856 0.394045
vn 0.539821 0.743856 0.394045
vn 0.539821 0.743856 0.394045
vn 0.58697 -3.83075e-05 -0.809609
vn 0.58697 -3.82042e-05 -0.809609
vn 0.58697 -3.81103e-05 -0.809609
vn 0.58697 -3.80896e-05 -0.809609
vn -1.38778e-17 1 8.32667e-17
vn 1.11022e-16 1 -1.11022e-16
vn -0.58887 3.79779e-05 0.808227
vn -0.58887 3.79213e-05 0.808228
vn -0.58887 3.80912e-05 0.808228
vn -0.58887 3.80545e-05 0.808228
vn 0 1 0
vn -2.77556e-17 1 1.11022e-16
vn -0.813751 -1.08164e-06 -0.581214
vn -0.813751 -1.06574e-06 -0.581214
vn -0.813751 -9.85846e-07 -0.581214
vn -0.813751 -1.07126e-06 -0.581214
vn 0.807704 1.4753e-06 0.589588
vn 0.807704 1.55547e-06 0.589588
vn 0.807704 1.50246e-06 0.589588
vn 9.95272e-24 -1 -6.12323e-17
vn 3.1904e-23 -1 -6.12323e-17
vn 0 -1 -6.12323e-17
vn -5.28042e-24 -1 -6.12323e-17
vn 0 -1 -6.12323e-17
vn 0 -1 -6.12323e-17
vn 8.91972e-24 -1 -6.12323e-17

# Mesh 'defaultobject' with 40 faces
g defaultobject
usemtl DefaultMaterial
f  1//1 2//1 3//1
f  2//1 1//1 4//2
f  2//1 4//2 5//3
f  5//3 4//2 6//4
f  3//5 7//5 8//5
f  7//5 3//5 9//6
f  9//7 3//7 2//7
f  9//7 2//7 5//8
f  8//9 10//9 11//9
f  10//9 8//9 7//10
f  10//9 7//10 12//11
f  12//11 7//10 9//12
f  11//13 3//13 8//13
f  3//13 11//13 1//14
f  1//14 11//13 13//15
f  13//15 11//13 14//16
f  13//17 14//17 15//17
f  15//17 14//17 16//18
f  5//19 12//19 9//19
f  12//19 5//19 6//20
f  12//19 6//20 17//21
f  12//19 17//21 18//22
f  18//23 17//23 19//23
f  18//23 19//23 20//24
f  13//25 4//25 1//25
f  4//25 13//25 6//26
f  6//26 13//25 21//27
f  6//26 21//27 17//28
f  11//29 22//29 14//29
f  22//29 11//29 18//30
f  18//30 11//29 12//31
f  12//19 11//9 10//9
f  15//32 21//32 13//32
f  21//32 15//32 17//33
f  17//33 15//32 19//34
f  19//34 15//32 16//35
f  19//34 16//35 20//36
f  20//36 16//35 18//36
f  18//36 16//35 22//37
f  22//37 16//35 14//38

