# {"id":"BLDG_0003000e00123838","idOriginal":"BLDG_0003000e00123838","origin":[13.335294240182515,52.56013191251496],"elevation":37.6300010681152}
# Longitude: 13.335294240182515
# Latitude: 52.56013191251496
# Elevation: 37.6300010681152

# File produced by Open Asset Import Library (http://www.assimp.sf.net)
# (assimp v3.1.0)

mtllib BLDG_0003000e00123838.obj.mtl

# 12 vertex positions
v  4.70645 24.294 -4.68111
v  13.4172 21.2772 13.0029
v  18.1232 24.294 8.32249
v  0.00045272 21.2772 -0.00067465
v  9.41233 21.2772 -9.36135
v  22.829 21.2772 3.64225
v  18.1227 -5.09653e-16 8.32326
v  9.41187 5.73176e-16 -9.36067
v  22.8286 -2.23065e-16 3.64292
v  13.4167 -7.96241e-16 13.0036
v  0 0 0
v  4.70594 2.86588e-16 -4.68034

# 0 UV coordinates

# 19 vertex normals
vn -0.288021 0.910348 0.297172
vn -0.288021 0.910348 0.297172
vn 0.288029 0.910342 -0.29718
vn 0.288029 0.910342 -0.29718
vn 3.41576e-24 -1 -6.12323e-17
vn 2.73261e-23 -1 -6.12323e-17
vn 0 -1 -6.12323e-17
vn 0.705176 7.50254e-06 0.709033
vn 0.705176 7.5095e-06 0.709033
vn 0.705176 7.48683e-06 0.709033
vn 0.705176 7.33495e-06 0.709033
vn -0.705176 -7.47758e-06 -0.709033
vn -0.705176 -7.48249e-06 -0.709033
vn -0.705176 -7.48665e-06 -0.709033
vn -0.705176 -7.52547e-06 -0.709033
vn -0.695965 3.76043e-05 0.718076
vn -0.695965 3.75767e-05 0.718076
vn 0.695965 -3.75762e-05 -0.718076
vn 0.695965 -3.75378e-05 -0.718076

# Mesh 'defaultobject' with 20 faces
g defaultobject
usemtl DefaultMaterial
f  1//1 2//1 3//1
f  2//1 1//1 4//2
f  5//3 3//3 6//3
f  3//3 5//3 1//4
f  7//5 8//5 9//5
f  8//5 7//5 10//6
f  8//5 10//6 11//7
f  8//5 11//7 12//2
f  6//8 7//8 9//8
f  7//8 6//8 10//9
f  10//9 6//8 2//10
f  2//10 6//8 3//11
f  4//12 12//12 11//12
f  12//12 4//12 8//13
f  8//13 4//12 5//14
f  5//14 4//12 1//15
f  2//16 11//16 10//16
f  11//16 2//16 4//17
f  8//18 6//18 9//18
f  6//18 8//18 5//19

