# {"id":"BLDG_0003000f003e8844","idOriginal":"BLDG_0003000f003e8844","origin":[13.3885163531962,52.55631798720021],"elevation":40.9300003051758}
# Longitude: 13.3885163531962
# Latitude: 52.55631798720021
# Elevation: 40.9300003051758

# File produced by Open Asset Import Library (http://www.assimp.sf.net)
# (assimp v3.1.0)

mtllib BLDG_0003000f003e8844.obj.mtl

# 10 vertex positions
v  0 0 0
v  18.1953 6.23618e-16 -10.1845
v  10.8171 -3.23528e-16 5.28362
v  7.37825 9.47146e-16 -15.4681
v  12.7873 21.7067 -12.827
v  0.000402335 18.8453 -0.00059735
v  5.40901 21.7067 2.64112
v  7.37865 18.8453 -15.4687
v  18.1957 18.8453 -10.1851
v  10.8175 18.8453 5.28302

# 0 UV coordinates

# 15 vertex normals
vn 0 -1 -6.12323e-17
vn 5.1322e-24 -1 -6.12323e-17
vn -0.387521 0.903139 -0.184847
vn -0.387521 0.903139 -0.184847
vn 0.387522 0.903138 0.184848
vn -0.438892 3.78376e-05 0.89854
vn -0.438892 3.78516e-05 0.89854
vn -0.438892 3.79838e-05 0.89854
vn -0.902577 5.62275e-06 -0.430528
vn -0.902577 5.61344e-06 -0.430528
vn 0.438892 -3.78265e-05 -0.89854
vn 0.438892 -3.78831e-05 -0.89854
vn 0.438892 -3.78177e-05 -0.89854
vn 0.902577 -5.6459e-06 0.430528
vn 0.902577 -5.62228e-06 0.430528

# Mesh 'defaultobject' with 16 faces
g defaultobject
usemtl DefaultMaterial
f  1//1 2//1 3//1
f  2//1 1//1 4//2
f  5//3 6//3 7//3
f  6//3 5//3 8//4
f  9//5 7//5 10//5
f  7//5 9//5 5//5
f  10//6 1//6 3//6
f  1//6 10//6 6//7
f  6//7 10//6 7//8
f  6//9 4//9 1//9
f  4//9 6//9 8//10
f  8//11 2//11 4//11
f  2//11 8//11 9//12
f  9//12 8//11 5//13
f  2//14 10//14 3//14
f  10//14 2//14 9//15

