# {"id":"BLDG_0003000b006f8da5","idOriginal":"BLDG_0003000b006f8da5","origin":[13.393549654530807,52.52117798868822],"elevation":33.810001373291}
# Longitude: 13.393549654530807
# Latitude: 52.52117798868822
# Elevation: 33.810001373291

# File produced by Open Asset Import Library (http://www.assimp.sf.net)
# (assimp v3.1.0)

mtllib BLDG_0003000b006f8da5.obj.mtl

# 8 vertex positions
v  16.1497 -1.19455e-15 19.5085
v  3.50391 1.77612e-16 -2.90062
v  19.6536 -1.01694e-15 16.6078
v  0 0 0
v  3.50402 5.18161 -2.90079
v  16.1498 5.18161 19.5083
v  19.6537 5.18161 16.6077
v  0.000110651 5.18161 -0.00016386

# 0 UV coordinates

# 11 vertex normals
vn 7.35271e-24 -1 -6.12323e-17
vn 0 -1 -6.12323e-17
vn 0 1 0
vn 0.770302 -3.62784e-05 -0.637679
vn 0.770302 -3.65109e-05 -0.637679
vn 0.637677 1.08033e-05 0.770304
vn 0.637676 1.052e-05 0.770304
vn -0.770302 3.66149e-05 0.637679
vn -0.770302 3.66325e-05 0.637679
vn -0.637676 -1.07709e-05 -0.770304
vn -0.637676 -1.07423e-05 -0.770304

# Mesh 'defaultobject' with 12 faces
g defaultobject
usemtl DefaultMaterial
f  1//1 2//1 3//1
f  2//1 1//1 4//2
f  5//3 6//3 7//3
f  6//3 5//3 8//3
f  2//4 7//4 3//4
f  7//4 2//4 5//5
f  3//6 6//6 1//6
f  6//6 3//6 7//7
f  4//8 6//8 8//8
f  6//8 4//8 1//9
f  2//10 8//10 5//10
f  8//10 2//10 4//11

