# {"id":"BLDG_0003000a0010ca83","idOriginal":"BLDG_0003000a0010ca83","origin":[13.317446061809658,52.55196598494004],"elevation":35.0800018310547}
# Longitude: 13.317446061809658
# Latitude: 52.55196598494004
# Elevation: 35.0800018310547

# File produced by Open Asset Import Library (http://www.assimp.sf.net)
# (assimp v3.1.0)

mtllib BLDG_0003000a0010ca83.obj.mtl

# 12 vertex positions
v  6.37187 7.30969 4.01735
v  38.3576 4.81591 -34.0567
v  32.0355 7.30969 -37.9842
v  12.668 4.81591 7.98736
v  0.000101715 4.78598 -0.000151671
v  25.7891 4.84583 -41.8643
v  32.0353 2.32584e-15 -37.9839
v  0 0 0
v  25.789 2.56344e-15 -41.8642
v  6.37171 -2.46006e-16 4.01758
v  38.3575 2.08536e-15 -34.0565
v  12.6679 -4.89094e-16 7.98752

# 0 UV coordinates

# 18 vertex normals
vn 0.271109 0.948187 0.165652
vn 0.271109 0.948187 0.165652
vn -0.271109 0.948187 -0.165652
vn -0.271109 0.948187 -0.165652
vn -2.34269e-23 -1 -6.12324e-17
vn 0 -1 -6.12323e-17
vn 2.30986e-24 -1 -6.12323e-17
vn -0.851418 1.47361e-06 -0.524488
vn -0.851418 1.58133e-06 -0.524488
vn 0.527681 -3.79634e-05 -0.849442
vn 0.527681 -3.83317e-05 -0.849443
vn 0.527682 -3.83317e-05 -0.849442
vn 0.527682 -3.81993e-05 -0.849442
vn 0.853318 -1.54333e-06 0.521391
vn 0.853318 -1.54333e-06 0.521392
vn -0.533361 3.81414e-05 0.845888
vn -0.533361 3.8098e-05 0.845888
vn -0.53336 3.80933e-05 0.845888

# Mesh 'defaultobject' with 20 faces
g defaultobject
usemtl DefaultMaterial
f  1//1 2//1 3//1
f  2//1 1//1 4//2
f  5//3 3//3 6//3
f  3//3 5//3 1//4
f  7//5 8//5 9//5
f  8//5 7//5 10//6
f  10//6 7//5 11//6
f  10//6 11//6 12//7
f  5//8 9//8 8//8
f  9//8 5//8 6//9
f  6//10 7//10 9//10
f  7//10 6//10 3//11
f  3//11 11//12 7//10
f  11//12 3//11 2//13
f  11//14 4//14 12//14
f  4//14 11//14 2//15
f  12//16 1//16 10//16
f  1//16 12//16 4//17
f  10//16 5//18 8//18
f  5//18 10//16 1//16

