# {"id":"BLDG_0003000b00660e76","idOriginal":"BLDG_0003000b00660e76","origin":[13.33419043339475,52.523158327641326],"elevation":33.2999992370605}
# Longitude: 13.33419043339475
# Latitude: 52.523158327641326
# Elevation: 33.2999992370605

# File produced by Open Asset Import Library (http://www.assimp.sf.net)
# (assimp v3.1.0)

mtllib BLDG_0003000b00660e76.obj.mtl

# 18 vertex positions
v  1.5858 22.1474 -17.8874
v  14.3061 22.1474 -10.8361
v  14.835 22.1474 -16.804
v  13.245 22.1474 1.13591
v  0.000471156 22.1474 -0.00070052
v  1.05685 22.1474 -11.9194
v  32.5075 8.92604 -9.3474
v  14.8348 9.87256 -16.8036
v  14.3058 8.92604 -10.8357
v  32.9954 9.87256 -15.3187
v  32.9952 9.37981e-16 -15.3184
v  14.8346 1.02891e-15 -16.8033
v  1.58533 1.09524e-15 -17.8867
v  0 0 0
v  1.05638 7.29812e-16 -11.9187
v  13.2445 -6.95972e-17 1.13661
v  14.3056 6.63477e-16 -10.8354
v  32.5073 5.72346e-16 -9.34712

# 0 UV coordinates

# 25 vertex normals
vn 0 1 0
vn -0.0127171 0.987749 0.155531
vn -0.0127171 0.987749 0.155531
vn 0.0814941 -3.32145e-05 -0.996674
vn 0.0814941 -3.31183e-05 -0.996674
vn 0.081494 -3.33283e-05 -0.996674
vn 0.081494 -3.32347e-05 -0.996674
vn -0.996095 1.83984e-05 -0.088286
vn -0.996095 1.83967e-05 -0.088286
vn -0.996095 1.83981e-05 -0.088286
vn 0 1 2.77556e-17
vn 0.996095 -1.84063e-05 0.088286
vn 0.996095 -1.83864e-05 0.088286
vn 0.996095 -1.84393e-05 0.0882859
vn 0.996095 -1.84065e-05 0.0882859
vn 0.996679 -1.87249e-05 0.0814333
vn 0.996679 -1.86065e-05 0.0814331
vn -0.081494 3.32651e-05 0.996674
vn -0.085503 3.33321e-05 0.996338
vn -0.0855029 3.33354e-05 0.996338
vn 6.62699e-25 -1 -6.12323e-17
vn 2.32981e-24 -1 -6.12323e-17
vn 1.32942e-24 -1 -6.12323e-17
vn -5.65001e-24 -1 -6.12323e-17
vn -2.66117e-24 -1 -6.12323e-17

# Mesh 'defaultobject' with 32 faces
g defaultobject
usemtl DefaultMaterial
f  1//1 2//1 3//1
f  2//1 1//1 4//1
f  4//1 1//1 5//1
f  5//1 1//1 6//1
f  7//2 8//2 9//2
f  8//2 7//2 10//3
f  11//4 8//4 10//4
f  8//4 11//4 12//5
f  8//4 1//6 3//6
f  1//6 8//4 12//5
f  1//6 12//5 13//7
f  13//8 6//8 1//8
f  6//8 13//8 5//9
f  5//9 13//8 14//10
f  14//11 13//11 15//11
f  3//12 9//12 8//12
f  9//12 16//13 17//13
f  16//13 9//12 4//14
f  4//14 9//12 2//15
f  2//15 9//12 3//12
f  11//16 7//16 18//16
f  7//16 11//16 10//17
f  18//18 9//18 17//18
f  9//18 18//18 7//18
f  16//19 5//19 14//19
f  5//19 16//19 4//20
f  14//21 17//21 16//21
f  17//21 14//21 15//22
f  17//21 15//22 12//23
f  12//23 15//22 13//24
f  17//21 11//25 18//25
f  11//25 17//21 12//23

