# {"id":"BLDG_000300090026a891","idOriginal":"BLDG_000300090026a891","origin":[13.398583761338829,52.511474376129016],"elevation":33.9199981689453}
# Longitude: 13.398583761338829
# Latitude: 52.511474376129016
# Elevation: 33.9199981689453

# File produced by Open Asset Import Library (http://www.assimp.sf.net)
# (assimp v3.1.0)

mtllib BLDG_000300090026a891.obj.mtl

# 58 vertex positions
v  26.0738 -7.47035e-16 12.2
v  23.1828 43.529 12.4195
v  23.1819 -7.60558e-16 12.4209
v  26.0748 43.529 12.1986
v  33.7804 -7.10999e-16 11.6115
v  33.7813 43.529 11.6101
v  34.0347 -7.09838e-16 11.5925
v  34.0357 43.529 11.5912
v  33.0246 1.71237e-16 -2.79651
v  33.0255 43.529 -2.79789
v  32.9209 2.97986e-16 -4.86649
v  32.9219 43.529 -4.86786
v  21.9348 43.529 -4.23891
v  21.9339 2.59474e-16 -4.23754
v  22.1118 43.529 -1.87368
v  22.1109 1.14646e-16 -1.87231
v  34.1462 40.5529 13.293
v  34.0347 0.490002 11.5925
v  34.1454 0.490002 13.2943
v  34.0356 40.5529 11.5913
v  55.3446 0.490002 11.5109
v  55.3454 40.5529 11.5096
v  61.9947 0.490002 10.9514
v  61.9956 40.5529 10.9501
v  61.8764 0.490002 9.2351
v  61.8772 40.5529 9.23383
v  60.8781 0.490002 -5.15342
v  60.879 40.5529 -5.15469
v  33.0254 40.5529 -2.79779
v  33.0246 0.490002 -2.79653
v  26.0934 3.91 12.7511
v  26.0738 0.580002 12.2
v  26.0933 0.580002 12.7512
v  26.0739 3.91 12.1999
v  28.677 0.580002 13.2852
v  28.6771 3.91 13.2851
v  33.4558 0.580002 14.272
v  33.4559 3.91 14.2719
v  33.6726 0.580002 13.935
v  33.6726 3.91 13.9349
v  33.8365 0.580002 13.5695
v  33.8365 3.91 13.5694
v  33.9439 0.580002 13.1834
v  33.9439 3.91 13.1833
v  33.9924 0.580002 12.7858
v  33.9925 3.91 12.7857
v  33.9809 0.580002 12.3852
v  33.981 3.91 12.3851
v  33.9098 0.580002 11.9908
v  33.9098 3.91 11.9907
v  33.7804 0.580002 11.6115
v  33.7805 3.91 11.6114
v  23.1827 40.6152 12.4196
v  22.1117 40.6152 -1.87359
v  0.000867565 40.6152 -0.00128356
v  0 0 0
v  0.871095 40.6152 14.1251
v  0.870227 -8.64992e-16 14.1264

# 0 UV coordinates

# 58 vertex normals
vn 0.0761435 2.9873e-05 0.997097
vn 0.0761435 2.98763e-05 0.997097
vn 0.0761434 2.98757e-05 0.997097
vn 0.0761435 2.98941e-05 0.997097
vn 0.0743597 2.99371e-05 0.997232
vn 0.074356 2.99153e-05 0.997232
vn 0.997545 -2.35441e-05 -0.0700322
vn 0.998749 -2.29366e-05 -0.049999
vn -0.0571507 -3.03325e-05 -0.998366
vn -0.0571507 -3.033e-05 -0.998366
vn -0.997211 2.36383e-05 0.0746279
vn -0.997204 2.3684e-05 0.074722
vn -0.997204 2.36412e-05 0.0747222
vn -0.997894 2.33346e-05 0.064871
vn 0.0838324 2.97146e-05 0.99648
vn 0.0838346 2.97127e-05 0.99648
vn 0.997632 -2.34525e-05 -0.0687812
vn 0.997632 -2.35457e-05 -0.068779
vn 0.997602 -2.35567e-05 -0.0692118
vn 0.997602 -2.35584e-05 -0.0692118
vn -0.084316 -2.96895e-05 -0.996439
vn -0.0843159 -2.96815e-05 -0.996439
vn -0.997545 2.34903e-05 0.0700322
vn -0.997545 2.34895e-05 0.0700322
vn -0.999375 2.22933e-05 0.0353553
vn -0.999375 2.28757e-05 0.0353517
vn -0.202416 3.51435e-05 0.9793
vn -0.202233 3.51556e-05 0.979337
vn -0.202233 3.5273e-05 0.979338
vn 0.841098 -1.26749e-06 0.540883
vn 0.841099 -1.11114e-06 0.540882
vn 0.912443 -6.85338e-06 0.409204
vn 0.912446 -5.80613e-06 0.409196
vn 0.963426 -1.13471e-05 0.267974
vn 0.963423 -1.25251e-05 0.267984
vn 0.992633 -1.7788e-05 0.121159
vn 0.992634 -1.66513e-05 0.121149
vn 0.999592 -2.15118e-05 -0.0285766
vn 0.984096 -2.58879e-05 -0.177636
vn 0.984098 -2.70143e-05 -0.177627
vn 0.94649 -3.0767e-05 -0.322735
vn -0.0761435 -3.00395e-05 -0.997097
vn -0.0761434 -2.9754e-05 -0.997097
vn 0.997204 -2.36687e-05 -0.074722
vn -0.0843762 -2.96879e-05 -0.996434
vn -0.0843762 -2.96865e-05 -0.996434
vn -0.998108 2.32616e-05 0.0614863
vn -0.998108 2.32633e-05 0.0614863
vn 0.0762193 2.98641e-05 0.997091
vn 0.0762193 2.98851e-05 0.997091
vn 0 1 0
vn -8.8146e-23 -1 -6.12323e-17
vn 0 -1 -6.12323e-17
vn 0 -1 -6.12324e-17
vn -3.37235e-25 -1 -6.12323e-17
vn 0 -1 -6.12323e-17
vn 1.01423e-24 -1 -6.12323e-17
vn 0 -1 0

# Mesh 'defaultobject' with 104 faces
g defaultobject
usemtl DefaultMaterial
f  1//1 2//1 3//1
f  2//1 1//1 4//2
f  5//3 4//2 1//1
f  4//2 5//3 6//4
f  7//5 6//5 5//5
f  6//5 7//5 8//6
f  9//7 8//7 7//7
f  8//7 9//7 10//7
f  11//8 10//8 9//8
f  10//8 11//8 12//8
f  13//9 11//9 14//9
f  11//9 13//9 12//10
f  15//11 14//11 16//11
f  14//11 15//11 13//11
f  2//12 16//12 3//12
f  16//12 2//12 15//13
f  17//14 18//14 19//14
f  18//14 17//14 20//14
f  21//15 17//15 19//15
f  17//15 21//15 22//15
f  23//16 22//15 21//15
f  22//15 23//16 24//16
f  25//17 24//17 23//17
f  24//17 25//17 26//18
f  27//19 26//19 25//19
f  26//19 27//19 28//20
f  29//21 27//21 30//21
f  27//21 29//21 28//22
f  20//23 30//23 18//23
f  30//23 20//23 29//24
f  31//25 32//25 33//25
f  32//25 31//25 34//26
f  35//27 31//27 33//27
f  31//27 35//27 36//27
f  37//28 36//28 35//28
f  36//28 37//28 38//29
f  39//30 38//30 37//30
f  38//30 39//30 40//31
f  41//32 40//32 39//32
f  40//32 41//32 42//33
f  43//34 42//34 41//34
f  42//34 43//34 44//35
f  45//36 44//36 43//36
f  44//36 45//36 46//37
f  47//38 46//38 45//38
f  46//38 47//38 48//38
f  49//39 48//39 47//39
f  48//39 49//39 50//40
f  51//41 50//41 49//41
f  50//41 51//41 52//41
f  34//42 51//42 32//42
f  51//42 34//42 52//43
f  16//44 53//44 3//44
f  53//44 16//44 54//44
f  55//45 16//45 56//45
f  16//45 55//45 54//46
f  57//47 56//47 58//47
f  56//47 57//47 55//48
f  3//49 57//49 58//49
f  57//49 3//49 53//50
f  4//51 15//51 2//51
f  15//51 4//51 13//51
f  13//51 4//51 12//51
f  12//51 4//51 10//51
f  10//51 4//51 6//51
f  10//51 6//51 8//51
f  20//51 28//51 29//51
f  28//51 20//51 17//51
f  28//51 17//51 22//51
f  28//51 22//51 24//51
f  28//51 24//51 26//51
f  31//51 52//51 34//51
f  52//51 31//51 36//51
f  52//51 36//51 38//51
f  52//51 38//51 50//51
f  50//51 38//51 48//51
f  48//51 38//51 40//51
f  48//51 40//51 46//51
f  46//51 40//51 42//51
f  46//51 42//51 44//51
f  53//51 55//51 57//51
f  55//51 53//51 54//51
f  5//52 9//52 7//52
f  9//52 5//52 1//53
f  9//52 1//53 3//54
f  9//52 3//54 16//55
f  9//52 16//55 11//56
f  11//56 16//55 14//57
f  18//58 21//58 19//58
f  21//58 18//58 23//58
f  23//58 18//58 25//58
f  25//58 18//58 30//58
f  25//58 30//58 27//58
f  32//58 35//58 33//58
f  35//58 32//58 51//58
f  35//58 51//58 37//58
f  37//58 51//58 39//58
f  39//58 51//58 41//58
f  41//58 51//58 43//58
f  43//58 51//58 49//58
f  43//58 49//58 45//58
f  45//58 49//58 47//58
f  3//54 56//53 16//55
f  56//53 3//54 58//56

