# {"id":"BLDG_000300000036c6f2","idOriginal":"BLDG_000300000036c6f2","origin":[13.332686917980917,52.50918379044172],"elevation":33.3199996948242}
# Longitude: 13.332686917980917
# Latitude: 52.50918379044172
# Elevation: 33.3199996948242

# File produced by Open Asset Import Library (http://www.assimp.sf.net)
# (assimp v3.1.0)

mtllib BLDG_000300000036c6f2.obj.mtl

# 8 vertex positions
v  18.0791 -6.13873e-16 10.0253
v  0.00012239 5.75389 -0.00018182
v  0 0 0
v  18.0792 5.75389 10.0251
v  7.7323 8.55809e-16 -13.9764
v  7.73243 5.75389 -13.9766
v  25.8114 2.41936e-16 -3.95112
v  25.8115 5.75389 -3.9513

# 0 UV coordinates

# 9 vertex normals
vn -0.484954 3.79711e-05 0.87454
vn -0.875016 3.31521e-06 -0.484093
vn -0.875016 3.23869e-06 -0.484093
vn 0.484954 -3.79739e-05 -0.87454
vn 0.484954 -3.79014e-05 -0.87454
vn 0.875016 -3.32054e-06 0.484093
vn 0 -1 -6.12323e-17
vn 6.41304e-25 -1 -6.12323e-17
vn 0 1 0

# Mesh 'defaultobject' with 12 faces
g defaultobject
usemtl DefaultMaterial
f  1//1 2//1 3//1
f  2//1 1//1 4//1
f  2//2 5//2 3//2
f  5//2 2//2 6//3
f  6//4 7//4 5//4
f  7//4 6//4 8//5
f  7//6 4//6 1//6
f  4//6 7//6 8//6
f  3//7 7//7 1//7
f  7//7 3//7 5//8
f  8//9 2//9 4//9
f  2//9 8//9 6//9

