# {"id":"BLDG_00030000001ffcd4","idOriginal":"BLDG_00030000001ffcd4","origin":[13.380292929218536,52.56145597825844],"elevation":41.4599990844727}
# Longitude: 13.380292929218536
# Latitude: 52.56145597825844
# Elevation: 41.4599990844727

# File produced by Open Asset Import Library (http://www.assimp.sf.net)
# (assimp v3.1.0)

mtllib BLDG_00030000001ffcd4.obj.mtl

# 8 vertex positions
v  20.6037 -5.89506e-16 9.62736
v  0.000144049 6.75063 -0.00021406
v  0 0 0
v  20.6039 6.75063 9.62715
v  2.28559 3.09632e-16 -5.05667
v  2.28571 5.71105 -5.05685
v  23.0335 -2.85732e-16 4.66636
v  23.0336 5.71105 4.66617

# 0 UV coordinates

# 11 vertex normals
vn -0.423329 3.77685e-05 0.905976
vn -0.423329 3.78679e-05 0.905976
vn -0.91124 6.38416e-06 -0.411876
vn -0.91124 6.40937e-06 -0.411876
vn 0.424342 -3.77995e-05 -0.905502
vn 0.89807 -5.29378e-06 0.439852
vn 0.89807 -5.22963e-06 0.439852
vn -1.68587e-24 -1 -6.12323e-17
vn -3.33115e-24 -1 -6.12323e-17
vn 0.0784917 0.982744 -0.167493
vn 0.0779564 0.982898 -0.166836

# Mesh 'defaultobject' with 12 faces
g defaultobject
usemtl DefaultMaterial
f  1//1 2//1 3//1
f  2//1 1//1 4//2
f  2//3 5//3 3//3
f  5//3 2//3 6//4
f  6//5 7//5 5//5
f  7//5 6//5 8//5
f  7//6 4//6 1//6
f  4//6 7//6 8//7
f  3//8 7//8 1//8
f  7//8 3//8 5//9
f  6//10 4//10 8//10
f  4//11 6//11 2//11

