# {"id":"BLDG_0003000e0055911f","idOriginal":"BLDG_0003000e0055911f","origin":[13.401372492453413,52.52553384677321],"elevation":34.9700012207031}
# Longitude: 13.401372492453413
# Latitude: 52.52553384677321
# Elevation: 34.9700012207031

# File produced by Open Asset Import Library (http://www.assimp.sf.net)
# (assimp v3.1.0)

mtllib BLDG_0003000e0055911f.obj.mtl

# 10 vertex positions
v  0 0 0
v  14.5113 5.23888e-16 -8.55574
v  7.37548 -2.56093e-16 4.18232
v  7.13586 7.79981e-16 -12.7381
v  0.000364712 17.0704 -0.00053998
v  10.9438 17.7715 -2.18727
v  3.56831 17.7715 -6.36959
v  7.37584 17.0704 4.18178
v  14.5117 17.0704 -8.55628
v  7.13623 17.0704 -12.7386

# 0 UV coordinates

# 15 vertex normals
vn -3.42115e-24 -1 -6.12323e-17
vn -5.13172e-24 -1 -6.12323e-17
vn -0.0471568 0.99542 0.0831606
vn -0.0471568 0.99542 0.0831606
vn 0.0471572 0.99542 -0.0831612
vn 0.0471572 0.99542 -0.0831612
vn 0.872432 -3.2133e-06 0.488736
vn 0.872432 -3.18893e-06 0.488736
vn 0.872432 -3.72646e-06 0.488736
vn -0.49327 3.80454e-05 0.869876
vn -0.872432 3.1797e-06 -0.488736
vn -0.872432 3.18893e-06 -0.488736
vn -0.872432 2.98117e-06 -0.488736
vn 0.49327 -3.80471e-05 -0.869876
vn 0.49327 -3.80608e-05 -0.869876

# Mesh 'defaultobject' with 16 faces
g defaultobject
usemtl DefaultMaterial
f  1//1 2//1 3//1
f  2//1 1//1 4//2
f  5//3 6//3 7//3
f  6//3 5//3 8//4
f  7//5 9//5 10//5
f  9//5 7//5 6//6
f  9//7 3//7 2//7
f  3//7 9//7 8//8
f  8//8 9//7 6//9
f  3//10 5//10 1//10
f  5//10 3//10 8//10
f  5//11 4//11 1//11
f  4//11 5//11 10//12
f  10//12 5//11 7//13
f  10//14 2//14 4//14
f  2//14 10//14 9//15

