# {"id":"BLDG_0003000f0010a346","idOriginal":"BLDG_0003000f0010a346","origin":[13.34700191234934,52.50672775115767],"elevation":34.75}
# Longitude: 13.34700191234934
# Latitude: 52.50672775115767
# Elevation: 34.75

# File produced by Open Asset Import Library (http://www.assimp.sf.net)
# (assimp v3.1.0)

mtllib BLDG_0003000f0010a346.obj.mtl

# 20 vertex positions
v  9.58798 19.25 31.7136
v  4.94009 -1.0006e-15 16.341
v  9.58757 -1.94193e-15 31.7142
v  2.47004 -5.003e-16 8.17051
v  0 0 0
v  0.000338301 15.89 -0.00050204
v  4.9405 19.25 16.3404
v  2.47045 19.25 8.1699
v  15.5215 2.82538e-16 -4.6142
v  6.21819 15.89 -1.84893
v  15.5218 15.89 -4.6147
v  6.21785 1.13184e-16 -1.84843
v  20.4333 15.89 11.7348
v  20.433 -7.18582e-16 11.7353
v  11.1583 15.89 14.4921
v  11.1579 -8.87416e-16 14.4926
v  14.7689 15.89 26.4353
v  14.7685 -1.61873e-15 26.4358
v  8.68831 19.25 6.32147
v  9.79581 19.25 5.99224

# 0 UV coordinates

# 31 vertex normals
vn -0.957215 2.94905e-05 0.289378
vn -0.957215 2.94845e-05 0.289378
vn -0.957215 2.95541e-05 0.289377
vn -0.957215 2.95221e-05 0.289377
vn -0.957215 2.96904e-05 0.289377
vn -0.957215 2.9395e-05 0.289378
vn -0.284953 -2.42178e-05 -0.958541
vn -0.284953 -2.42223e-05 -0.958541
vn -0.284953 -2.42146e-05 -0.958541
vn -0.284953 -2.42181e-05 -0.958541
vn 0.95772 -2.95317e-05 -0.287703
vn 0.95772 -2.94755e-05 -0.287703
vn 0.284953 2.419e-05 0.958541
vn 0.284953 2.42272e-05 0.958541
vn 0.957215 -2.95154e-05 -0.289377
vn 0.713661 6.9796e-06 0.700492
vn 0.71366 6.91368e-06 0.700492
vn -8.13059e-24 -1 -6.12323e-17
vn -1.04656e-23 -1 -6.12323e-17
vn 1.28195e-24 -1 -6.12323e-17
vn 0 -1 -6.12323e-17
vn 0 -1 0
vn -0.104376 0.930501 -0.351104
vn -0.104375 0.930501 -0.351104
vn -0.104376 0.930501 -0.351104
vn 0.104374 0.930503 0.351098
vn 0.104374 0.930503 0.351098
vn 0.440268 0.887946 -0.133098
vn 0.440268 0.887946 -0.133098
vn 0.440268 0.887946 -0.133098
vn 0.350802 0.930501 -0.105382

# Mesh 'defaultobject' with 36 faces
g defaultobject
usemtl DefaultMaterial
f  1//1 2//1 3//1
f  2//1 1//1 4//2
f  4//2 1//1 5//3
f  5//3 1//1 6//4
f  6//4 1//1 7//5
f  6//4 7//5 8//6
f  9//7 10//7 11//7
f  10//7 9//7 6//8
f  6//8 9//7 12//9
f  6//8 12//9 5//10
f  9//11 13//11 14//11
f  13//11 9//11 11//12
f  14//13 15//13 16//13
f  15//13 14//13 13//14
f  16//15 17//15 18//15
f  17//15 16//15 15//15
f  18//16 1//16 3//16
f  1//16 18//16 17//17
f  2//18 18//18 3//18
f  18//18 2//18 16//19
f  16//19 9//20 14//20
f  9//20 16//19 2//18
f  9//20 2//18 4//21
f  9//20 4//21 5//21
f  9//20 5//21 12//22
f  11//23 19//23 20//23
f  19//23 11//23 8//24
f  8//24 11//23 6//25
f  6//22 11//22 10//22
f  20//26 15//26 13//26
f  15//26 20//26 8//27
f  8//22 20//22 19//22
f  7//28 15//28 8//28
f  15//28 7//28 1//29
f  15//28 1//29 17//30
f  13//31 11//31 20//31

