# {"id":"BLDG_0003000800251e02","idOriginal":"BLDG_0003000800251e02","origin":[13.343861341396737,52.54685787663372],"elevation":33.9700012207031}
# Longitude: 13.343861341396737
# Latitude: 52.54685787663372
# Elevation: 33.9700012207031

# File produced by Open Asset Import Library (http://www.assimp.sf.net)
# (assimp v3.1.0)

mtllib BLDG_0003000800251e02.obj.mtl

# 24 vertex positions
v  0 -1.2207e-06 -7.47465e-23
v  -5.18481 22.585 4.00876
v  0.000480794 22.585 -0.00071548
v  -10.7329 22.585 8.29877
v  -5.1853 -2.4551e-16 4.00947
v  -10.7334 -5.08197e-16 8.29949
v  13.7878 22.585 1.62075
v  17.9671 -4.09036e-16 6.68007
v  13.7873 -1.2207e-06 1.62146
v  21.9607 -7.04983e-16 11.5133
v  17.9676 22.585 6.67936
v  21.9612 22.585 11.5125
v  -4.74158 22.585 15.9484
v  -0.363863 22.585 21.5377
v  -0.364344 -1.31885e-15 21.5384
v  -4.74206 -9.76599e-16 15.9491
v  14.551 -1.07831e-15 17.6102
v  8.53016 -1.38167e-15 22.5644
v  8.53064 22.585 22.5637
v  14.5515 22.585 17.6095
v  4.20875 22.585 5.09229
v  4.20827 -3.11857e-16 5.09301
v  8.63701 -3.43137e-16 5.60386
v  8.63749 22.585 5.60314

# 0 UV coordinates

# 35 vertex normals
vn -0.611701 -1.20392e-05 -0.791089
vn -0.611701 -1.20177e-05 -0.791089
vn -0.611701 -1.20597e-05 -0.791089
vn -0.611701 -1.20352e-05 -0.791089
vn 0.770888 -3.65819e-05 -0.636971
vn 0.770887 -3.66519e-05 -0.636971
vn 0.770887 -3.65243e-05 -0.636971
vn 0.770887 -3.65785e-05 -0.636971
vn -0.78727 3.62823e-05 0.616609
vn -0.78727 3.62804e-05 0.616609
vn -0.78727 3.62865e-05 0.616609
vn -1.11022e-16 1 1.11022e-16
vn 0.635388 1.09327e-05 0.772193
vn 0.635388 1.09395e-05 0.772193
vn 0.635388 1.09327e-05 0.772193
vn 0.770887 -3.65972e-05 -0.636971
vn 0.770887 -3.65716e-05 -0.636971
vn 0.114589 -3.3902e-05 -0.993413
vn 0.114589 -3.38996e-05 -0.993413
vn -0.611701 -1.20352e-05 -0.791089
vn -0.611701 -1.20394e-05 -0.791089
vn -0.114589 3.39045e-05 0.993413
vn -0.114589 3.38997e-05 0.993413
vn 0 -1 -6.12323e-17
vn 0 -1 -6.12323e-17
vn -1.94132e-07 -1 5.33917e-08
vn -6.52471e-09 -1 5.65652e-08
vn 4.14021e-07 -1 -1.02416e-07
vn -2.25369e-23 -1 -6.12323e-17
vn -1.66759e-23 -1 -6.12323e-17
vn -1.71642e-07 -1 8.45465e-08
vn 2.11896e-07 -1 6.62259e-08
vn 7.03972e-24 -1 -6.12324e-17
vn -0 1 0
vn 0 -1 0

# Mesh 'defaultobject' with 44 faces
g defaultobject
usemtl DefaultMaterial
f  1//1 2//1 3//1
f  2//1 1//1 4//2
f  4//2 1//1 5//3
f  4//2 5//3 6//4
f  7//5 8//5 9//5
f  8//5 7//5 10//6
f  10//6 7//5 11//7
f  10//6 11//7 12//8
f  6//9 13//9 4//9
f  13//9 6//9 14//10
f  14//10 6//9 15//11
f  15//12 6//12 16//12
f  12//13 17//13 10//13
f  17//13 12//13 18//14
f  18//14 12//13 19//15
f  19//15 12//8 20//10
f  1//16 21//16 22//16
f  21//16 1//16 3//17
f  21//18 23//18 22//18
f  23//18 21//18 24//19
f  24//20 9//20 23//20
f  9//20 24//20 7//21
f  18//22 14//22 15//22
f  14//22 18//22 19//23
f  5//24 16//24 6//24
f  16//24 5//24 15//25
f  15//25 5//24 1//26
f  15//25 1//26 18//27
f  18//27 1//26 22//28
f  18//27 22//28 23//29
f  18//27 23//29 17//30
f  17//30 23//29 9//31
f  17//30 9//31 8//32
f  17//30 8//32 10//33
f  2//34 21//34 3//34
f  21//34 2//34 20//10
f  20//10 2//34 19//34
f  19//34 2//34 4//34
f  19//34 4//34 14//34
f  14//35 4//35 13//35
f  24//34 11//34 7//34
f  11//34 24//34 12//34
f  12//34 24//34 20//10
f  20//10 24//34 21//34

