# {"id":"BLDG_0003000b00567899","idOriginal":"BLDG_0003000b00567899","origin":[13.401309090563363,52.535990216613],"elevation":49.7999992370605}
# Longitude: 13.401309090563363
# Latitude: 52.535990216613
# Elevation: 49.7999992370605

# File produced by Open Asset Import Library (http://www.assimp.sf.net)
# (assimp v3.1.0)

mtllib BLDG_0003000b00567899.obj.mtl

# 10 vertex positions
v  0 0 0
v  20.298 -2.10609e-17 0.343951
v  13.7169 -5.92428e-16 9.67509
v  6.58106 5.71367e-16 -9.33113
v  20.2984 17.4654 0.343398
v  13.7173 17.4654 9.67453
v  17.0079 19.1689 5.00891
v  0.000373159 17.4654 -0.00055286
v  6.58143 17.4654 -9.33169
v  3.29094 19.1689 -4.66617

# 0 UV coordinates

# 15 vertex normals
vn 0 -1 -6.12323e-17
vn 0.8172 7.51503e-07 0.576354
vn 0.8172 8.05963e-07 0.576354
vn 0.8172 6.86389e-07 0.576354
vn -0.576386 3.8186e-05 0.817177
vn -0.576386 3.81823e-05 0.817177
vn -0.8172 -7.84279e-07 -0.576354
vn -0.8172 -8.05966e-07 -0.576354
vn -0.8172 -8.825e-07 -0.576354
vn 0.576386 -3.8203e-05 -0.817177
vn 0.576386 -3.8203e-05 -0.817177
vn -0.164803 0.958252 0.23365
vn -0.164803 0.958252 0.23365
vn 0.164806 0.958251 -0.233655
vn 0.164806 0.958251 -0.233655

# Mesh 'defaultobject' with 16 faces
g defaultobject
usemtl DefaultMaterial
f  1//1 2//1 3//1
f  2//1 1//1 4//1
f  5//2 3//2 2//2
f  3//2 5//2 6//3
f  6//3 5//2 7//4
f  6//5 1//5 3//5
f  1//5 6//5 8//6
f  8//7 4//7 1//7
f  4//7 8//7 9//8
f  9//8 8//7 10//9
f  4//10 5//10 2//10
f  5//10 4//10 9//11
f  8//12 7//12 10//12
f  7//12 8//12 6//13
f  10//14 5//14 9//14
f  5//14 10//14 7//15

