# {"id":"BLDG_0003000b002608a7","idOriginal":"BLDG_0003000b002608a7","origin":[13.347102300689894,52.54028929958254],"elevation":34.7599983215332}
# Longitude: 13.347102300689894
# Latitude: 52.54028929958254
# Elevation: 34.7599983215332

# File produced by Open Asset Import Library (http://www.assimp.sf.net)
# (assimp v3.1.0)

mtllib BLDG_0003000b002608a7.obj.mtl

# 44 vertex positions
v  15.3721 6.25345e-16 -10.2127
v  7.2148 1.08909e-15 -17.7862
v  15.5946 6.36148e-16 -10.3891
v  13.6958 5.00351e-16 -8.17136
v  13.5781 3.92749e-16 -6.41409
v  7.03014 1.07619e-15 -17.5755
v  3.91075 8.59821e-16 -14.0419
v  13.3881 2.19198e-16 -3.57978
v  13.308 1.42084e-16 -2.32041
v  2.61334 -2.04248e-16 3.33562
v  0.433374 2.07961e-17 -0.339627
v  3.38663 -2.10044e-16 3.43028
v  0 0 0
v  6.46825 -4.51012e-16 7.36558
v  15.1009 -1.36346e-17 0.22267
v  15.2862 -2.8126e-17 0.459332
v  3.12699 8.56474e-16 -13.9873
v  0.741917 6.40487e-16 -10.4599
v  0.367833 6.14091e-16 -10.0289
v  6.28416 -4.36559e-16 7.12955
v  0.147811 4.45602e-17 -0.727723
v  0.332852 6.62564e-16 -10.8205
v  15.2867 22.3334 0.458625
v  6.28464 22.3334 7.12885
v  6.46873 22.3334 7.36488
v  3.3871 22.3334 3.42957
v  15.1014 22.3334 0.221962
v  13.3085 22.3334 -2.32112
v  2.61381 22.3334 3.33491
v  0.000475527 22.3334 -0.0007072
v  13.3886 22.3334 -3.58049
v  13.5786 22.3334 -6.41479
v  0.433849 22.3334 -0.340334
v  0.148286 22.3334 -0.72843
v  0.368309 22.3334 -10.0296
v  13.6963 22.3334 -8.17206
v  15.3726 22.3334 -10.2134
v  15.595 22.3334 -10.3898
v  3.91123 22.3334 -14.0427
v  7.03062 22.3334 -17.5762
v  7.21528 22.3334 -17.7869
v  0.742392 22.3334 -10.4607
v  0.333328 22.3334 -10.8212
v  3.12747 22.3334 -13.988

# 0 UV coordinates

# 59 vertex normals
vn 5.93137e-23 -1 -6.12324e-17
vn -1.44313e-23 -1 -6.12323e-17
vn 3.38268e-23 -1 -6.12323e-17
vn -5.03892e-22 -1 -6.1232e-17
vn 7.3078e-24 -1 -6.12323e-17
vn 0 -1 -6.12323e-17
vn 0 -1 -6.12323e-17
vn -6.27684e-25 -1 -6.12323e-17
vn 2.8363e-24 -1 -6.12323e-17
vn 0 -1 -6.12323e-17
vn -8.05757e-23 -1 -6.12323e-17
vn 0 -1 -6.12323e-17
vn -1.15883e-23 -1 -6.12323e-17
vn -9.61257e-22 -1 -6.12321e-17
vn 2.88088e-23 -1 -6.12323e-17
vn 6.0346e-23 -1 -6.12323e-17
vn 0 1 0
vn -0.805455 3.59162e-05 0.592657
vn -0.805455 3.5917e-05 0.592657
vn -0.616832 -1.17901e-05 -0.787095
vn -0.616832 -1.17894e-05 -0.787095
vn -0.787178 3.62925e-05 0.616726
vn -0.787178 3.62898e-05 0.616726
vn -0.121512 3.40167e-05 0.99259
vn -0.787252 3.62995e-05 0.616632
vn -0.787252 3.62911e-05 0.616632
vn -0.788516 3.62584e-05 0.615014
vn -0.788517 3.62752e-05 0.615013
vn 0.616599 1.17882e-05 0.787277
vn 0.616599 1.17729e-05 0.787277
vn 0.787364 -3.6298e-05 -0.616489
vn 0.787362 -3.62652e-05 -0.616491
vn 0.817303 -3.56264e-05 -0.576209
vn 0.817303 -3.56608e-05 -0.576208
vn 0.997983 -1.92551e-05 0.0634865
vn 0.997983 -1.92123e-05 0.0634857
vn 0.99776 -1.90995e-05 0.0668976
vn 0.997766 -1.91026e-05 0.0668079
vn 0.997766 -1.91435e-05 0.0668084
vn 0.772817 3.64148e-06 0.634629
vn 0.772817 3.64553e-06 0.634629
vn 0.621367 1.15785e-05 0.78352
vn 0.621365 1.1552e-05 0.783521
vn 0.661781 -3.77907e-05 -0.749697
vn 0.661782 -3.78212e-05 -0.749697
vn -0.752056 -4.85842e-06 -0.659099
vn -0.752057 -4.87442e-06 -0.659098
vn -0.74967 -4.98294e-06 -0.661811
vn -0.74967 -4.99519e-06 -0.661811
vn -0.0695727 -3.01269e-05 -0.997577
vn -0.0695715 -3.00844e-05 -0.997577
vn -0.749849 -4.99696e-06 -0.661609
vn -0.749849 -5.00096e-06 -0.661609
vn -0.66121 3.78164e-05 0.750201
vn -0.661211 3.78485e-05 0.7502
vn -0.755274 -4.68505e-06 -0.65541
vn -0.755273 -4.65711e-06 -0.655411
vn -0.99972 2.05373e-05 -0.0236488
vn -0.99972 2.05369e-05 -0.0236488

# Mesh 'defaultobject' with 84 faces
g defaultobject
usemtl DefaultMaterial
f  1//1 2//1 3//1
f  2//1 1//1 4//2
f  2//1 4//2 5//3
f  2//1 5//3 6//4
f  6//4 5//3 7//5
f  7//5 5//3 8//6
f  7//5 8//6 9//7
f  10//8 11//8 12//8
f  11//8 10//8 13//9
f  14//10 15//10 16//10
f  15//10 14//10 9//7
f  9//7 14//10 7//5
f  7//5 14//10 17//11
f  17//11 14//10 18//12
f  18//12 14//10 19//13
f  19//13 14//10 20//14
f  19//13 20//14 21//15
f  21//15 20//14 12//8
f  21//15 12//8 11//8
f  22//16 17//11 18//12
f  23//17 24//17 25//17
f  24//17 23//17 26//17
f  26//17 23//17 27//17
f  26//17 27//17 28//17
f  26//17 28//17 29//17
f  29//17 28//17 30//17
f  30//17 28//17 31//17
f  30//17 31//17 32//17
f  30//17 32//17 33//17
f  33//17 32//17 34//17
f  34//17 32//17 35//17
f  35//17 32//17 36//17
f  35//17 36//17 37//17
f  35//17 37//17 38//17
f  35//17 38//17 39//17
f  39//17 38//17 40//17
f  40//17 38//17 41//17
f  35//17 39//17 42//17
f  42//17 39//17 43//17
f  44//17 43//17 39//17
f  33//18 21//18 11//18
f  21//18 33//18 34//19
f  30//20 11//20 13//20
f  11//20 30//20 33//21
f  29//22 13//22 10//22
f  13//22 29//22 30//23
f  12//24 29//24 10//24
f  29//24 12//24 26//24
f  24//25 12//25 20//25
f  12//25 24//25 26//26
f  25//27 20//27 14//27
f  20//27 25//27 24//28
f  16//29 25//29 14//29
f  25//29 16//29 23//30
f  15//31 23//31 16//31
f  23//31 15//31 27//32
f  9//33 27//33 15//33
f  27//33 9//33 28//34
f  8//35 28//35 9//35
f  28//35 8//35 31//36
f  5//37 31//37 8//37
f  31//37 5//37 32//37
f  4//38 32//38 5//38
f  32//38 4//38 36//39
f  1//40 36//40 4//40
f  36//40 1//40 37//41
f  3//42 37//42 1//42
f  37//42 3//42 38//43
f  2//44 38//44 3//44
f  38//44 2//44 41//45
f  40//46 2//46 6//46
f  2//46 40//46 41//47
f  39//48 6//48 7//48
f  6//48 39//48 40//49
f  44//50 7//50 17//50
f  7//50 44//50 39//51
f  43//52 17//52 22//52
f  17//52 43//52 44//53
f  42//54 22//54 18//54
f  22//54 42//54 43//55
f  35//56 18//56 19//56
f  18//56 35//56 42//57
f  34//58 19//58 21//58
f  19//58 34//58 35//59

