# {"id":"BLDG_00030000001e8997","idOriginal":"BLDG_00030000001e8997","origin":[13.375859710432195,52.5388589707201],"elevation":36.3800010681152}
# Longitude: 13.375859710432195
# Latitude: 52.5388589707201
# Elevation: 36.3800010681152

# File produced by Open Asset Import Library (http://www.assimp.sf.net)
# (assimp v3.1.0)

mtllib BLDG_00030000001e8997.obj.mtl

# 17 vertex positions
v  13.3056 -7.92883e-16 12.9488
v  11.7911 1.10888e-18 -0.0181094
v  13.4282 1.26284e-18 -0.0206237
v  11.8583 -7.93019e-16 12.951
v  0.0671705 -7.94128e-16 12.9691
v  0 0 0
v  11.8587 18.8291 12.9504
v  13.4287 22.2825 -0.0213292
v  11.7916 22.2825 -0.0188149
v  13.306 18.8291 12.9482
v  9.34818 21.5017 12.9542
v  11.7915 18.8291 -0.0187055
v  9.28101 21.5017 -0.0149343
v  2.53951 22.3173 12.9646
v  2.47234 22.3173 -0.00450301
v  0.0675722 18.8291 12.9685
v  0.000401649 18.8291 -0.00059616

# 0 UV coordinates

# 28 vertex normals
vn 0 -1 -6.12323e-17
vn 4.51237e-23 -1 -6.12323e-17
vn 1.08184e-26 -1 -6.12323e-17
vn 0.000395151 0.966329 0.257309
vn 0.000395106 0.966329 0.257309
vn 0.728855 0.684657 -0.00377492
vn 0.728855 0.684658 -0.00377497
vn 0.118934 0.992902 -0.000615992
vn 0.118934 0.992902 -0.000615987
vn -0.815886 0.578197 0.0042257
vn -0.815886 0.578198 0.0042257
vn -0.00153585 -3.16288e-05 -0.999999
vn -0.00153585 -3.16287e-05 -0.999999
vn 0.999955 -2.10733e-05 0.00944934
vn 0.999955 -2.10569e-05 0.00944932
vn 0.00153523 3.16228e-05 0.999999
vn 0.00153589 3.16733e-05 0.999999
vn -0.999987 2.17038e-05 0.00517925
vn -0.00153585 -3.16288e-05 -0.999999
vn -0.00153585 -3.16288e-05 -0.999999
vn -0.00153585 -3.16279e-05 -0.999999
vn -0.00153585 -3.16276e-05 -0.999999
vn 0.00153593 3.16227e-05 0.999999
vn 0.00153593 3.16227e-05 0.999999
vn 0.00153593 3.14829e-05 0.999999
vn 0.00153586 3.17235e-05 0.999999
vn -0.999987 2.14947e-05 0.00517921
vn -0.999987 2.14949e-05 0.00517921

# Mesh 'defaultobject' with 29 faces
g defaultobject
usemtl DefaultMaterial
f  1//1 2//1 3//1
f  2//1 1//1 4//2
f  2//1 5//3 6//3
f  5//3 2//1 4//2
f  7//4 8//4 9//4
f  8//4 7//4 10//5
f  11//6 12//6 13//6
f  12//6 11//6 7//7
f  14//8 13//8 15//8
f  13//8 14//8 11//9
f  16//10 15//10 17//10
f  15//10 16//10 14//11
f  9//12 3//12 2//12
f  3//12 9//12 8//13
f  3//14 10//14 1//14
f  10//14 3//14 8//15
f  1//16 7//16 4//16
f  7//16 1//16 10//17
f  9//18 12//18 7//18
f  17//19 2//12 6//19
f  2//12 17//19 12//20
f  12//20 17//19 15//21
f  12//20 15//21 13//22
f  7//16 5//23 4//16
f  5//23 7//16 16//24
f  16//24 7//16 11//25
f  16//24 11//25 14//26
f  16//27 6//27 5//27
f  6//27 16//27 17//28

