# {"id":"BLDG_0003000f001bd9f2","idOriginal":"BLDG_0003000f001bd9f2","origin":[13.359824834667752,52.541103215008285],"elevation":35.189998626709}
# Longitude: 13.359824834667752
# Latitude: 52.541103215008285
# Elevation: 35.189998626709

# File produced by Open Asset Import Library (http://www.assimp.sf.net)
# (assimp v3.1.0)

mtllib BLDG_0003000f001bd9f2.obj.mtl

# 49 vertex positions
v  28.2519 6.34798e-16 -10.367
v  18.7842 18.8631 -5.44886
v  18.7838 3.3361e-16 -5.44826
v  28.2523 18.8631 -10.3676
v  16.7181 5.77131e-16 -9.42526
v  16.7185 17.8747 -9.42583
v  26.1862 8.7832e-16 -14.344
v  26.1866 17.8747 -14.3446
v  14.0833 12.6022 -14.5763
v  9.95737 -2.38 -22.6046
v  9.95769 12.6022 -22.6051
v  17.0281 12.6022 -8.84555
v  18.7757 12.6022 -5.44456
v  18.7754 -2.38 -5.44408
v  14.083 -2.38 -14.5758
v  17.0278 -2.38 -8.84508
v  8.34251 13.4154 -0.0250415
v  13.6942 13.4154 -2.80496
v  1.70943 13.4154 3.42051
v  1.70909 -2.38 3.42101
v  8.34218 -2.38 -0.0245414
v  13.6939 -2.38 -2.80446
v  8.99066 13.4154 -11.9583
v  4.86467 -2.38 -19.9866
v  8.99033 -2.38 -11.9578
v  4.86501 13.4154 -19.9871
v  6.63341 12.6022 -3.44603
v  3.73113 -2.38 -9.25426
v  6.63309 -2.38 -3.44555
v  3.73145 12.6022 -9.25474
v  0 -2.38 -1.45733e-16
v  0.000319264 12.6022 -0.00047444
v  31.0929 23.66 -11.8385
v  40.0333 21.5 -16.4864
v  37.1948 23.66 -15.0108
v  28.2544 21.5 -10.3627
v  40.0328 -0.189999 -16.4857
v  37.1943 -0.189999 -15.01
v  31.0924 -0.189999 -11.8377
v  28.2539 -0.189999 -10.362
v  32.6773 21.5 -30.6541
v  23.181 23.66 -27.0315
v  29.6882 23.66 -29.5139
v  20.1918 21.5 -25.8912
v  32.6768 -0.189999 -30.6534
v  29.6877 -0.189999 -29.5131
v  23.1805 -0.189999 -27.0308
v  20.1914 -0.189999 -25.8905
v  11.9466 13.4154 -6.20596

# 0 UV coordinates

# 66 vertex normals
vn 0.461011 1.83285e-05 0.887394
vn 0.461011 1.82527e-05 0.887394
vn -0.887433 3.34439e-05 0.460937
vn -0.887433 3.35224e-05 0.460936
vn -0.461011 -1.82373e-05 -0.887394
vn -0.461011 -1.82846e-05 -0.887394
vn 0.887433 -3.35287e-05 -0.460937
vn 0.887433 -3.35493e-05 -0.460936
vn 0.889443 -3.33968e-05 -0.457047
vn 0.889443 -3.33926e-05 -0.457047
vn 0.889443 -3.36937e-05 -0.457046
vn 0.889443 -3.34146e-05 -0.457047
vn 0 -1 0
vn 0.460968 1.78889e-05 0.887417
vn 0.460968 1.75706e-05 0.887417
vn 0.460968 1.82842e-05 0.887417
vn 0.460968 1.82584e-05 0.887417
vn 0.460968 1.83026e-05 0.887417
vn 0.460968 1.83022e-05 0.887417
vn -0.889443 3.34439e-05 0.457046
vn -0.889443 3.34163e-05 0.457047
vn -0.457193 -1.83931e-05 -0.889368
vn -0.457192 -1.83302e-05 -0.889368
vn -0.894575 3.32289e-05 0.446918
vn -0.894575 3.32289e-05 0.446918
vn -0.457192 -1.84507e-05 -0.889368
vn -0.457192 -1.84468e-05 -0.889368
vn -0.894575 3.32188e-05 0.446918
vn -0.894575 3.32156e-05 0.446918
vn -0.460968 -1.82788e-05 -0.887417
vn -0.460968 -1.82729e-05 -0.887417
vn 0.461274 1.77191e-05 0.887258
vn 0.461274 1.82252e-05 0.887258
vn 0.461274 1.82719e-05 0.887258
vn 0.461274 1.81966e-05 0.887258
vn 0.461274 1.83105e-05 0.887258
vn 0.461274 1.82722e-05 0.887258
vn -0.356421 -2.2378e-05 -0.934325
vn -0.356421 -2.2269e-05 -0.934325
vn -0.356421 -2.19266e-05 -0.934325
vn -0.356421 -2.20998e-05 -0.934325
vn -0.356421 -2.19821e-05 -0.934325
vn -0.356421 -2.19933e-05 -0.934325
vn -0.887503 3.35727e-05 0.460802
vn -0.887503 3.34744e-05 0.460802
vn 0.887503 -3.34703e-05 -0.460802
vn 0.887503 -3.36246e-05 -0.460802
vn -0.0992935 0.97653 -0.191129
vn -0.0992935 0.97653 -0.191129
vn 0.125072 0.990064 -0.0642691
vn 0.125072 0.990064 -0.0642691
vn 0.125072 0.990064 -0.064269
vn 0.125072 0.990064 -0.0642691
vn 0.125072 0.990064 -0.0642691
vn -0.121186 0.990675 0.0622723
vn -0.120425 0.990898 0.0601628
vn -0.119721 0.9909 0.0615194
vn -0.0959012 0.97812 -0.184621
vn -0.0959012 0.97812 -0.184621
vn -0.496298 0.828788 0.258454
vn -0.498853 0.827079 0.25901
vn 0 1 0
vn 0.496629 0.828776 -0.257855
vn 0.49915 0.827105 -0.258353
vn 1.66075e-24 -1 -6.12323e-17
vn -1.10717e-24 -1 -6.12324e-17

# Mesh 'defaultobject' with 86 faces
g defaultobject
usemtl DefaultMaterial
f  1//1 2//1 3//1
f  2//1 1//1 4//2
f  2//3 5//3 3//3
f  5//3 2//3 6//4
f  6//5 7//5 5//5
f  7//5 6//5 8//6
f  7//7 4//7 1//7
f  4//7 7//7 8//8
f  9//9 10//9 11//9
f  10//9 9//9 12//10
f  10//9 12//10 13//11
f  10//9 13//11 14//12
f  10//13 14//13 15//13
f  15//13 14//13 16//13
f  17//14 13//14 18//14
f  13//14 17//14 19//15
f  13//14 19//15 20//16
f  13//14 20//16 21//17
f  13//14 21//17 22//18
f  13//14 22//18 14//19
f  23//20 24//20 25//20
f  24//20 23//20 26//21
f  26//22 10//22 24//22
f  10//22 26//22 11//23
f  27//24 28//24 29//24
f  28//24 27//24 30//25
f  30//26 25//26 28//26
f  25//26 30//26 23//27
f  19//28 31//28 20//28
f  31//28 19//28 32//29
f  32//30 29//30 31//30
f  29//30 32//30 27//31
f  33//32 34//32 35//32
f  34//32 33//32 36//33
f  34//32 36//33 37//34
f  37//34 36//33 38//35
f  38//35 36//33 39//36
f  39//36 36//33 40//37
f  41//38 42//38 43//38
f  42//38 41//38 44//39
f  44//39 41//38 45//40
f  44//39 45//40 46//41
f  44//39 46//41 47//42
f  44//39 47//42 48//43
f  36//44 48//44 40//44
f  48//44 36//44 44//45
f  45//46 34//46 37//46
f  34//46 45//46 41//47
f  6//48 4//48 8//48
f  4//48 6//48 2//49
f  13//50 49//50 18//50
f  49//50 13//50 23//51
f  23//51 13//50 26//50
f  26//50 13//50 12//52
f  26//50 12//52 9//53
f  26//50 9//53 11//54
f  30//55 49//55 23//55
f  49//56 30//56 27//56
f  49//57 27//57 18//57
f  27//58 17//58 18//58
f  17//58 27//58 19//58
f  19//58 27//58 32//59
f  42//60 36//60 33//60
f  36//61 42//61 44//61
f  43//62 33//62 35//62
f  33//62 43//62 42//62
f  41//63 35//63 34//63
f  35//64 41//64 43//64
f  5//65 1//65 3//65
f  1//65 5//65 7//66
f  31//13 21//13 20//13
f  21//13 31//13 29//13
f  21//13 29//13 22//13
f  22//13 29//13 28//13
f  22//13 28//13 25//13
f  22//13 25//13 14//13
f  14//13 25//13 24//13
f  14//13 24//13 16//13
f  16//13 24//13 15//13
f  15//13 24//13 10//13
f  38//13 45//13 37//13
f  45//13 38//13 39//13
f  45//13 39//13 40//13
f  45//13 40//13 48//13
f  45//62 48//62 46//62
f  46//13 48//13 47//13

