# {"id":"BLDG_0003000e001239c6","idOriginal":"BLDG_0003000e001239c6","origin":[13.341002774943906,52.55961861328106],"elevation":37.0200004577637}
# Longitude: 13.341002774943906
# Latitude: 52.55961861328106
# Elevation: 37.0200004577637

# File produced by Open Asset Import Library (http://www.assimp.sf.net)
# (assimp v3.1.0)

mtllib BLDG_0003000e001239c6.obj.mtl

# 26 vertex positions
v  11.5045 12.7367 -7.56496
v  11.2303 4.8874e-16 -7.98173
v  11.5043 4.63196e-16 -7.56456
v  11.2305 12.7367 -7.98214
v  0.000271101 12.7367 -0.00040383
v  0 0 0
v  0.966269 12.7367 1.48089
v  0.965998 -9.07029e-17 1.48129
v  6.21704 12.7367 9.24124
v  6.21677 -5.65888e-16 9.24164
v  27.9187 3.07709e-16 -5.02527
v  27.919 12.7367 -5.02567
v  31.4508 4.4986e-16 -7.34677
v  31.4511 12.7367 -7.34718
v  31.8516 4.65985e-16 -7.61012
v  31.8519 12.7367 -7.61052
v  25.7304 1.03599e-15 -16.9191
v  25.7307 12.7367 -16.9195
v  25.3135 12.7367 -16.6444
v  25.3132 1.01915e-15 -16.644
v  21.74 12.7367 -14.2956
v  21.7397 8.75328e-16 -14.2952
v  14.0178 12.7367 -9.21698
v  14.0175 5.64353e-16 -9.21658
v  13.7435 5.89953e-16 -9.63466
v  13.7438 12.7367 -9.63507

# 0 UV coordinates

# 33 vertex normals
vn -0.835816 3.51826e-05 0.54901
vn -0.835817 3.52451e-05 0.549009
vn -0.549412 -1.47978e-05 -0.835552
vn -0.549412 -1.48122e-05 -0.835552
vn -0.837626 3.5149e-05 0.546244
vn -0.837626 3.51481e-05 0.546244
vn -0.828228 3.54341e-05 0.560391
vn -0.828228 3.53976e-05 0.560391
vn 0.549329 1.4761e-05 0.835606
vn 0.549329 1.48533e-05 0.835606
vn 0.549246 1.48097e-05 0.835661
vn 0.549126 1.48251e-05 0.835739
vn 0.835545 -3.51894e-05 -0.549422
vn 0.835545 -3.51088e-05 -0.549422
vn -0.550481 -1.47984e-05 -0.834848
vn -0.550478 -1.46735e-05 -0.834849
vn -0.549257 -1.47678e-05 -0.835654
vn -0.549257 -1.485e-05 -0.835654
vn -0.549483 -1.48405e-05 -0.835505
vn -0.549483 -1.47582e-05 -0.835505
vn 0.836382 -3.51876e-05 -0.548148
vn 0.836382 -3.52088e-05 -0.548147
vn -0.54949 -1.47678e-05 -0.8355
vn -0.54949 -1.47365e-05 -0.8355
vn 0 1 0
vn -8.80164e-24 -1 -6.12324e-17
vn -1.88108e-22 -1 -6.12323e-17
vn 0 -1 -6.12323e-17
vn 4.11322e-24 -1 -6.12323e-17
vn -8.89005e-24 -1 -6.12323e-17
vn 4.49716e-24 -1 -6.12323e-17
vn -7.60746e-23 -1 -6.12323e-17
vn -8.42196e-23 -1 -6.12323e-17

# Mesh 'defaultobject' with 48 faces
g defaultobject
usemtl DefaultMaterial
f  1//1 2//1 3//1
f  2//1 1//1 4//2
f  5//3 3//3 6//3
f  3//3 5//3 1//4
f  7//5 6//5 8//5
f  6//5 7//5 5//6
f  9//7 8//7 10//7
f  8//7 9//7 7//8
f  11//9 9//9 10//9
f  9//9 11//9 12//10
f  13//11 12//11 11//11
f  12//11 13//11 14//11
f  15//12 14//12 13//12
f  14//12 15//12 16//12
f  17//13 16//13 15//13
f  16//13 17//13 18//14
f  19//15 17//15 20//15
f  17//15 19//15 18//16
f  21//17 20//17 22//17
f  20//17 21//17 19//18
f  23//19 22//19 24//19
f  22//19 23//19 21//20
f  25//21 23//21 24//21
f  23//21 25//21 26//22
f  4//23 25//23 2//23
f  25//23 4//23 26//24
f  4//25 23//25 26//25
f  23//25 4//25 12//25
f  12//25 4//25 1//25
f  12//25 1//25 9//25
f  9//25 1//25 5//25
f  9//25 5//25 7//25
f  19//25 16//25 18//25
f  16//25 19//25 21//25
f  16//25 21//25 23//25
f  16//25 23//25 14//25
f  14//25 23//25 12//25
f  25//26 24//26 2//26
f  6//27 10//27 8//27
f  10//27 6//27 3//28
f  10//27 3//28 11//28
f  11//28 3//28 2//26
f  11//28 2//26 24//26
f  11//28 24//26 22//29
f  11//28 22//29 20//30
f  11//28 20//30 13//31
f  13//31 20//30 17//32
f  13//31 17//32 15//33

