# {"id":"BLDG_0003000a00250cb6","idOriginal":"BLDG_0003000a00250cb6","origin":[13.398888504795186,52.542706259854235],"elevation":45.5099983215332}
# Longitude: 13.398888504795186
# Latitude: 52.542706259854235
# Elevation: 45.5099983215332

# File produced by Open Asset Import Library (http://www.assimp.sf.net)
# (assimp v3.1.0)

mtllib BLDG_0003000a00250cb6.obj.mtl

# 56 vertex positions
v  23.431 3.4367e-16 -5.61257
v  19.8534 7.30248e-16 -11.9259
v  20.539 7.48694e-16 -12.2271
v  25.1919 -1.97132e-17 0.321941
v  23.1927 5.31712e-17 -0.868351
v  24.4349 8.64405e-17 -1.41168
v  24.4353 -1.37482e-16 2.24525
v  18.6255 1.01678e-15 -16.6052
v  6.07556 8.97801e-16 -14.6622
v  17.3167 1.20018e-15 -19.6004
v  17.9379 9.98406e-16 -16.3052
v  19.0906 8.37081e-16 -13.6706
v  21.4889 2.91672e-16 -4.76337
v  9.2983 4.4736e-16 -7.30595
v  18.0881 -3.00456e-16 4.90682
v  11.2619 1.72868e-16 -2.82315
v  9.91621 1.38262e-16 -2.25799
v  6.57186 1.10619e-16 -1.80654
v  9.5757 1.8795e-16 -3.06946
v  18.38 -3.428e-16 5.59835
v  14.7428 -3.86396e-16 6.31032
v  15.0335 -4.28739e-16 7.00183
v  0.259031 6.61164e-18 -0.107976
v  6.23134 1.60307e-16 -2.61801
v  11.8106 -4.61643e-16 7.53921
v  4.72258 -6.43673e-16 10.512
v  0 0 0
v  4.46453 -6.50323e-16 10.6206
v  21.4894 21.3391 -4.76404
v  23.4314 21.3391 -5.61324
v  20.5395 21.3391 -12.2278
v  19.8538 21.3391 -11.9265
v  19.0911 21.3391 -13.6712
v  17.9383 21.3391 -16.3059
v  18.626 21.3391 -16.6059
v  17.3171 21.3391 -19.6011
v  6.07601 21.3391 -14.6629
v  9.29875 21.3391 -7.30663
v  11.2623 21.3391 -2.82383
v  9.91667 21.3391 -2.25867
v  9.57615 21.3391 -3.07013
v  6.57232 21.3391 -1.80722
v  6.2318 21.3391 -2.61868
v  0.259487 21.3391 -0.108652
v  0.000455862 21.3391 -0.00067578
v  4.46499 21.3391 10.6199
v  4.72304 21.3391 10.5113
v  11.8111 21.3391 7.53853
v  14.7432 21.3391 6.30965
v  15.034 21.3391 7.00116
v  18.3804 21.3391 5.59768
v  18.0886 21.3391 4.90615
v  24.4357 21.3391 2.24457
v  25.1923 21.3391 0.321265
v  24.4354 21.3391 -1.41236
v  23.1931 21.3391 -0.869027

# 0 UV coordinates

# 66 vertex normals
vn -7.83316e-23 -1 -6.12323e-17
vn 5.16011e-24 -1 -6.12323e-17
vn 0 -1 -6.12323e-17
vn 7.25502e-24 -1 -6.12323e-17
vn -3.8143e-23 -1 -6.12326e-17
vn 3.39388e-24 -1 -6.12323e-17
vn 0 -1 -6.12323e-17
vn 0 -1 -6.12323e-17
vn -1.37304e-23 -1 -6.12323e-17
vn -3.71252e-24 -1 -6.12323e-17
vn -4.61539e-24 -1 -6.12324e-17
vn 3.52657e-23 -1 -6.12324e-17
vn 1.1984e-23 -1 -6.12323e-17
vn 1.70164e-23 -1 -6.12323e-17
vn 3.48223e-24 -1 -6.12323e-17
vn -5.78285e-24 -1 -6.12323e-17
vn 4.78315e-24 -1 -6.12323e-17
vn 2.62603e-22 -1 -6.12324e-17
vn 0.400642 2.04523e-05 0.916235
vn 0.400642 2.04734e-05 0.916234
vn 0.916256 -3.22412e-05 -0.400593
vn 0.916256 -3.22536e-05 -0.400593
vn -0.402241 -2.04169e-05 -0.915534
vn -0.40224 -2.0376e-05 -0.915534
vn 0.916274 -3.22633e-05 -0.400552
vn 0.916142 -3.22583e-05 -0.400853
vn 0.916143 -3.22738e-05 -0.400853
vn 0.399873 2.05413e-05 0.916571
vn 0.399871 2.04594e-05 0.916571
vn 0.916332 -3.22464e-05 -0.400418
vn 0.916333 -3.22805e-05 -0.400418
vn -0.402203 -2.03773e-05 -0.91555
vn -0.915957 3.2273e-05 0.401276
vn -0.915957 3.22641e-05 0.401277
vn -0.915982 3.22718e-05 0.401219
vn -0.38723 -2.09316e-05 -0.921983
vn -0.387229 -2.09213e-05 -0.921983
vn 0.922103 -3.19547e-05 -0.386944
vn -0.387573 -2.09146e-05 -0.921839
vn -0.387573 -2.09197e-05 -0.921839
vn 0.922103 -3.19546e-05 -0.386944
vn 0.922103 -3.19531e-05 -0.386944
vn -0.38745 -2.09182e-05 -0.921891
vn -0.38745 -2.0924e-05 -0.921891
vn -0.384757 -2.10112e-05 -0.923018
vn -0.384757 -2.10114e-05 -0.923018
vn -0.921862 3.19549e-05 0.387519
vn -0.921862 3.19657e-05 0.387519
vn 0.387915 2.09183e-05 0.921695
vn 0.387913 2.08771e-05 0.921696
vn 0.386768 2.09322e-05 0.922177
vn 0.386768 2.09555e-05 0.922177
vn 0.386531 2.09451e-05 0.922276
vn -0.921822 3.19657e-05 0.387613
vn 0.386757 2.0955e-05 0.922181
vn 0.386757 2.09365e-05 0.922182
vn 0.921317 -3.19925e-05 -0.388813
vn 0.921317 -3.20008e-05 -0.388813
vn 0.386711 2.09347e-05 0.922201
vn 0.930584 -8.28729e-06 0.366079
vn 0.930584 -8.29e-06 0.366079
vn 0.916446 -3.22514e-05 -0.400158
vn -0.400727 -2.04549e-05 -0.916197
vn 0.916183 -3.22727e-05 -0.400759
vn 0.916183 -3.22622e-05 -0.400759
vn 0 1 0

# Mesh 'defaultobject' with 108 faces
g defaultobject
usemtl DefaultMaterial
f  1//1 2//1 3//1
f  4//2 5//2 6//2
f  5//2 4//2 7//3
f  8//4 9//4 10//4
f  9//4 8//4 11//5
f  9//4 11//5 12//6
f  9//4 12//6 2//1
f  9//4 2//1 1//1
f  9//4 1//1 13//7
f  9//4 13//7 5//2
f  9//4 5//2 14//8
f  14//8 5//2 7//3
f  14//8 7//3 15//3
f  14//8 15//3 16//9
f  16//9 15//3 17//10
f  17//10 18//11 19//11
f  18//11 17//10 15//3
f  18//11 15//3 20//12
f  18//11 20//12 21//13
f  21//13 20//12 22//14
f  18//11 23//15 24//15
f  23//15 18//11 21//13
f  23//15 21//13 25//16
f  23//15 25//16 26//17
f  23//15 26//17 27//8
f  27//8 26//17 28//18
f  29//19 1//19 30//19
f  1//19 29//19 13//20
f  30//21 3//21 31//21
f  3//21 30//21 1//22
f  32//23 3//23 2//23
f  3//23 32//23 31//24
f  32//25 12//25 33//25
f  12//25 32//25 2//25
f  33//26 11//26 34//26
f  11//26 33//26 12//27
f  34//28 8//28 35//28
f  8//28 34//28 11//29
f  35//30 10//30 36//30
f  10//30 35//30 8//31
f  37//32 10//32 9//32
f  10//32 37//32 36//32
f  38//33 9//33 14//33
f  9//33 38//33 37//34
f  39//35 14//35 16//35
f  14//35 39//35 38//35
f  40//36 16//36 17//36
f  16//36 40//36 39//37
f  40//38 19//38 41//38
f  19//38 40//38 17//38
f  42//39 19//39 18//39
f  19//39 42//39 41//40
f  42//41 24//41 43//41
f  24//41 42//41 18//42
f  44//43 24//43 23//43
f  24//43 44//43 43//44
f  45//45 23//45 27//45
f  23//45 45//45 44//46
f  46//47 27//47 28//47
f  27//47 46//47 45//48
f  46//49 26//49 47//49
f  26//49 46//49 28//50
f  47//51 25//51 48//51
f  25//51 47//51 26//52
f  48//53 21//53 49//53
f  21//53 48//53 25//53
f  50//54 21//54 22//54
f  21//54 50//54 49//54
f  50//55 20//55 51//55
f  20//55 50//55 22//56
f  51//57 15//57 52//57
f  15//57 51//57 20//58
f  52//59 7//59 53//59
f  7//59 52//59 15//59
f  53//60 4//60 54//60
f  4//60 53//60 7//61
f  54//62 6//62 55//62
f  6//62 54//62 4//62
f  56//63 6//63 5//63
f  6//63 56//63 55//63
f  56//64 13//64 29//64
f  13//64 56//64 5//65
f  31//66 29//66 30//66
f  29//66 31//66 32//66
f  29//66 32//66 33//66
f  50//66 51//66 52//66
f  55//66 53//66 54//66
f  53//66 55//66 56//66
f  53//66 56//66 52//66
f  52//66 56//66 29//66
f  52//66 29//66 33//66
f  52//66 33//66 34//66
f  36//66 34//66 35//66
f  34//66 36//66 37//66
f  34//66 37//66 52//66
f  52//66 37//66 38//66
f  52//66 38//66 39//66
f  52//66 39//66 50//66
f  50//66 39//66 49//66
f  39//66 48//66 49//66
f  48//66 39//66 40//66
f  48//66 40//66 41//66
f  48//66 41//66 42//66
f  48//66 42//66 47//66
f  47//66 42//66 43//66
f  47//66 43//66 44//66
f  47//66 44//66 46//66
f  46//66 44//66 45//66

