# {"id":"BLDG_0003000f003c08be","idOriginal":"BLDG_0003000f003c08be","origin":[13.404963457916727,52.527355573711695],"elevation":36.75}
# Longitude: 13.404963457916727
# Latitude: 52.527355573711695
# Elevation: 36.75

# File produced by Open Asset Import Library (http://www.assimp.sf.net)
# (assimp v3.1.0)

mtllib BLDG_0003000f003c08be.obj.mtl

# 10 vertex positions
v  11.277 -2.22196e-16 3.62873
v  4.62561 7.25979e-16 -11.8561
v  15.9026 5.03783e-16 -8.22741
v  0 0 0
v  2.31316 16.7007 -5.9286
v  11.2773 16.5433 3.6282
v  13.5901 16.7007 -2.29987
v  0.000353535 16.5433 -0.00052336
v  4.62596 16.5433 -11.8567
v  15.9029 16.5433 -8.22793

# 0 UV coordinates

# 15 vertex normals
vn -5.62863e-24 -1 -6.12323e-17
vn -1.12573e-23 -1 -6.12323e-17
vn -0.00758928 0.999693 0.0235852
vn -0.00758928 0.999693 0.0235852
vn 0.00758929 0.999693 -0.0235852
vn 0.00758929 0.999693 -0.0235852
vn 0.931609 -8.42144e-06 0.363462
vn 0.931609 -8.42668e-06 0.363462
vn 0.931609 -8.56872e-06 0.363462
vn -0.306314 3.66522e-05 0.951931
vn -0.931609 8.41032e-06 -0.363462
vn -0.931609 8.41554e-06 -0.363462
vn -0.931609 9.5208e-06 -0.363462
vn 0.306314 -3.66144e-05 -0.951931
vn 0.306314 -3.66781e-05 -0.951931

# Mesh 'defaultobject' with 16 faces
g defaultobject
usemtl DefaultMaterial
f  1//1 2//1 3//1
f  2//1 1//1 4//2
f  5//3 6//3 7//3
f  6//3 5//3 8//4
f  9//5 7//5 10//5
f  7//5 9//5 5//6
f  10//7 1//7 3//7
f  1//7 10//7 6//8
f  6//8 10//7 7//9
f  1//10 8//10 4//10
f  8//10 1//10 6//10
f  8//11 2//11 4//11
f  2//11 8//11 9//12
f  9//12 8//11 5//13
f  9//14 3//14 2//14
f  3//14 9//14 10//15

