# {"id":"BLDG_0003000a00112744","idOriginal":"BLDG_0003000a00112744","origin":[13.402449364347047,52.533317933986034],"elevation":47.7700004577637}
# Longitude: 13.402449364347047
# Latitude: 52.533317933986034
# Elevation: 47.7700004577637

# File produced by Open Asset Import Library (http://www.assimp.sf.net)
# (assimp v3.1.0)

mtllib BLDG_0003000a00112744.obj.mtl

# 10 vertex positions
v  25.3045 5.49152e-16 -8.96834
v  3.42844 -5.80172e-16 9.47493
v  0 0 0
v  15.9151 -3.0919e-16 5.04945
v  3.42885 19.193 9.47433
v  0.000410097 19.193 -0.00060744
v  1.71468 21.2518 4.73679
v  25.3049 19.193 -8.96895
v  15.9155 19.193 5.04884
v  20.6102 21.2518 -1.96012

# 0 UV coordinates

# 16 vertex normals
vn -3.1313e-24 -1 -6.12323e-17
vn 0 -1 -6.12323e-17
vn -0.940334 3.08609e-05 0.340254
vn -0.940334 3.08608e-05 0.340254
vn -0.940334 3.08013e-05 0.340254
vn -0.334057 -2.26931e-05 -0.942553
vn -0.334057 -2.26959e-05 -0.942553
vn 0.83084 -1.37292e-07 0.556512
vn 0.83084 -1.51119e-07 0.556512
vn 0.83084 -4.39285e-07 0.556512
vn 0.334057 2.26995e-05 0.942553
vn 0.334057 2.26695e-05 0.942553
vn -0.12637 0.925687 -0.356558
vn -0.12637 0.925687 -0.356558
vn 0.126368 0.92569 0.356553
vn 0.126368 0.92569 0.356553

# Mesh 'defaultobject' with 16 faces
g defaultobject
usemtl DefaultMaterial
f  1//1 2//1 3//1
f  2//1 1//1 4//2
f  5//3 3//3 2//3
f  3//3 5//3 6//4
f  6//4 5//3 7//5
f  6//6 1//6 3//6
f  1//6 6//6 8//7
f  8//8 4//8 1//8
f  4//8 8//8 9//9
f  9//9 8//8 10//10
f  4//11 5//11 2//11
f  5//11 4//11 9//12
f  10//13 6//13 7//13
f  6//13 10//13 8//14
f  9//15 7//15 5//15
f  7//15 9//15 10//16

