# {"id":"BLDG_0003000000285431","idOriginal":"BLDG_0003000000285431","origin":[13.35643129332743,52.520555185539905],"elevation":34.41}
# Longitude: 13.35643129332743
# Latitude: 52.520555185539905
# Elevation: 34.41

# File produced by Open Asset Import Library (http://www.assimp.sf.net)
# (assimp v3.1.0)

mtllib BLDG_0003000000285431.obj.mtl

# 36 vertex positions
v  20.3022 19.54 8.43801
v  14.3482 16.7867 11.7353
v  20.3998 16.79 11.5558
v  14.2506 19.54 8.6175
v  0.380844 16.7867 12.1495
v  0.28336 19.5355 9.03461
v  13.9677 16.79 -0.414788
v  19.9803 19.54 -1.84199
v  13.9286 16.79 -1.66242
v  20.0193 19.54 -0.594359
v  14.0502 19.0004 2.21798
v  20.1016 19 2.03369
v  14.05 19 2.21318
v  14.05 18.9964 2.21318
v  0.0828538 19.0004 2.63224
v  13.9677 16.7867 -0.414788
v  0.000357621 16.7867 -0.00053085
v  14.2506 19.5352 8.6175
v  14.2507 19.5355 8.62035
v  13.9282 1.01761e-16 -1.66189
v  13.9673 -1.52588e-07 -0.414257
v  19.9798 1.12752e-16 -1.84137
v  14.3478 -1.52588e-07 11.7358
v  20.3994 -7.07619e-16 11.5563
v  14.3482 16.79 11.7353
v  0 -1.52588e-07 -9.34331e-24
v  0.380486 -1.52588e-07 12.15
v  20.3018 -5.16717e-16 8.43863
v  20.1012 -1.24564e-16 2.03429
v  20.0189 3.63562e-17 -0.593741
v  0.0824491 -1.52588e-07 2.63284
v  0.282944 -1.52588e-07 9.03522
v  14.0496 -1.35555e-16 2.21378
v  14.0498 -1.52588e-07 2.21858
v  14.2502 -5.27707e-16 8.61811
v  14.2503 -1.52588e-07 8.62097

# 0 UV coordinates

# 54 vertex normals
vn 0.0191974 0.750112 0.661032
vn 0.0196184 0.74972 0.661465
vn 0.0196184 0.74972 0.661465
vn 0.0195027 0.749959 0.661197
vn -0.413356 0.910477 0.0129447
vn -0.413356 0.910477 0.0129444
vn -0.00262409 0.996075 -0.0884753
vn -0.00248592 0.996468 -0.0839391
vn -0.00248965 0.996467 -0.0839424
vn -0.0190753 0.7655 -0.643153
vn -0.400813 0.894856 0.196421
vn -0.0190764 0.765468 -0.643191
vn -0.0190736 0.765546 -0.643099
vn -0.0190737 0.765546 -0.643099
vn -0.00246814 0.996528 -0.0832172
vn -0.00246772 0.99653 -0.0832032
vn -0.00246773 0.99653 -0.0832032
vn -0.99951 2.22836e-05 0.0313008
vn -0.99951 2.22795e-05 0.0313009
vn -0.99951 9.0602e-07 0.0313008
vn -0.029646 -3.09781e-05 -0.99956
vn -0.029646 -3.09817e-05 -0.99956
vn 0.029646 3.09906e-05 0.99956
vn 0.0296461 3.09399e-05 0.99956
vn 0.029646 0.000289392 0.99956
vn -0.029646 -3.09778e-05 -0.99956
vn -0.029646 -3.09771e-05 -0.99956
vn 0.0296461 3.09986e-05 0.99956
vn 0.99951 -2.23367e-05 -0.0313002
vn 0.99951 -2.23234e-05 -0.0313003
vn 0.99951 -2.23695e-05 -0.0313002
vn 0.99951 -2.24562e-05 -0.0313001
vn 0.99951 -2.22599e-05 -0.0313003
vn 0.99951 -1.99088e-05 -0.0312998
vn 0.99951 -2.14878e-05 -0.0313001
vn 0.99951 -2.18906e-05 -0.0313003
vn -0.99951 2.22713e-05 0.0313003
vn -0.99951 2.22737e-05 0.0313003
vn -0.99951 2.22833e-05 0.0313003
vn -0.99951 2.22843e-05 0.0313003
vn 0 1 0
vn -3.62399e-09 -1 -1.22188e-07
vn 3.88708e-08 -1 5.68444e-08
vn 0 -1 -6.12323e-17
vn -1.47162e-05 -1 -3.12893e-05
vn 3.62615e-08 -1 2.27081e-08
vn 2.66052e-23 -1 -6.12323e-17
vn 5.11758e-25 -1 -6.12323e-17
vn -1.5851e-06 -1 -5.3444e-05
vn 2.51911e-08 -1 -7.88871e-10
vn 2.51911e-08 -1 -7.88875e-10
vn 0 -1 0
vn 0.431023 0.90224 -0.0134978
vn 0.638449 0.769404 -0.0199934

# Mesh 'defaultobject' with 61 faces
g defaultobject
usemtl DefaultMaterial
f  1//1 2//1 3//1
f  2//2 1//2 4//2
f  2//2 4//2 5//3
f  5//4 4//4 6//4
f  7//5 8//5 9//5
f  8//5 7//5 10//6
f  11//7 12//7 13//7
f  12//8 11//8 4//8
f  12//8 4//8 1//9
f  12//10 7//10 13//10
f  12//11 10//11 7//11
f  14//12 15//12 11//12
f  15//13 14//13 16//13
f  15//13 16//13 17//14
f  18//15 6//15 19//15
f  6//16 18//16 11//16
f  6//16 11//16 15//17
f  16//18 20//18 21//18
f  20//18 16//18 9//19
f  9//20 16//20 7//20
f  9//21 22//21 20//21
f  22//21 9//21 8//22
f  3//23 23//23 24//23
f  23//23 3//23 2//24
f  2//25 3//25 25//25
f  17//26 21//26 26//26
f  21//26 17//26 16//27
f  23//23 5//28 27//28
f  5//28 23//23 2//24
f  28//29 3//29 24//29
f  3//29 28//29 29//30
f  3//29 29//30 30//31
f  3//29 30//31 22//32
f  3//29 22//32 8//33
f  3//29 8//33 12//34
f  12//34 8//33 10//35
f  1//36 3//29 12//34
f  15//37 5//37 6//37
f  5//37 15//37 17//38
f  5//37 17//38 26//39
f  5//37 26//39 27//40
f  27//41 26//41 31//41
f  27//41 31//41 32//37
f  22//42 21//42 20//42
f  21//42 22//42 33//43
f  33//43 22//42 30//44
f  33//45 30//45 34//45
f  34//46 30//44 35//46
f  35//46 30//44 29//47
f  35//46 29//47 28//48
f  35//49 28//49 36//49
f  36//50 28//48 23//50
f  23//50 28//48 24//51
f  32//37 23//50 27//52
f  23//50 32//37 31//52
f  23//50 31//52 26//52
f  23//50 26//52 36//50
f  36//50 26//52 34//46
f  34//46 26//52 21//42
f  36//53 34//53 35//53
f  34//54 21//54 33//54

