# File produced by Open Asset Import Library (http://www.assimp.sf.net)
# (assimp v3.1.0)

mtllib BLDG_0003000e007404dc.obj.mtl

# 26 vertex positions
v  12.1853 6.87186e-17 -1.12226
v  13.3206 19.7946 11.2035
v  13.3201 -6.86054e-16 11.2041
v  12.1857 19.7946 -1.12289
v  30.447 -5.89527e-16 9.6277
v  30.4474 19.7946 9.62708
v  30.9644 22.4155 15.2406
v  30.964 -9.33263e-16 15.2413
v  5.22568 -1.07832e-15 17.6104
v  1.65209 19.7946 17.9387
v  1.65167 -1.09847e-15 17.9393
v  10.263 -1.04993e-15 17.1467
v  13.837 -1.02979e-15 16.8178
v  10.2634 21.72 17.146
v  13.8375 22.4155 16.817
v  5.22616 22.84 17.6096
v  8.61173 21.72 -0.793783
v  0.000420649 19.7946 -0.00062639
v  3.57447 22.84 -0.329887
v  3.57399 2.01555e-17 -0.329164
v  0 0 0
v  8.61127 4.85631e-17 -0.793096
v  1.13524 19.7946 12.3251
v  1.13482 -7.5473e-16 12.3257
v  4.70931 22.84 11.996
v  9.74659 21.72 11.5324

# 0 UV coordinates

# 44 vertex normals
vn 0.995788 -2.40571e-05 -0.0916819
vn -0.0916555 -2.95727e-05 -0.995791
vn -0.0916555 -2.95771e-05 -0.995791
vn 0.995786 -2.40824e-05 -0.0917098
vn 0.995786 -2.40128e-05 -0.09171
vn 0.091655 2.95233e-05 0.995791
vn 0.0916558 2.96723e-05 0.995791
vn 0.0916555 2.95451e-05 0.995791
vn 0.0916555 2.95132e-05 0.995791
vn 0.0916555 2.95312e-05 0.995791
vn 0.0916555 2.96097e-05 0.995791
vn 0.0916555 2.81834e-05 0.995791
vn 0.0916556 2.91745e-05 0.995791
vn -0.0917117 -2.95795e-05 -0.995786
vn -0.0917117 -2.95888e-05 -0.995786
vn -0.0917117 -2.95642e-05 -0.995786
vn -0.0917117 -2.9561e-05 -0.995786
vn -0.0917117 -2.95622e-05 -0.995786
vn -inf nan -inf
vn -0.995788 2.40624e-05 0.0916819
vn -0.995788 2.40491e-05 0.0916819
vn -0.995788 2.40668e-05 0.0916819
vn 4.44089e-16 1 5.55112e-17
vn -0.644256 0.762506 0.0593164
vn -0.644256 0.762506 0.0593165
vn -0.644256 0.762506 0.0593165
vn 0.215261 0.976355 -0.019819
vn 0.215261 0.976355 -0.019819
vn 0.215261 0.976355 -0.019819
vn 0.215261 0.976355 -0.019819
vn 0.470742 0.881205 -0.0433411
vn 0.470743 0.881205 -0.0433411
vn 0.470743 0.881205 -0.0433411
vn -0.0386403 0.906791 -0.419807
vn -0.0386402 0.906791 -0.419807
vn -0.210392 0.89311 -0.397605
vn -1.092e-24 -1 -6.12323e-17
vn 2.18398e-24 -1 -6.12324e-17
vn 5.80891e-25 -1 -6.12323e-17
vn 0 -1 -6.12323e-17
vn 0 -1 -6.12323e-17
vn 1.90664e-23 -1 -6.12323e-17
vn 1.04659e-23 -1 -6.12323e-17
vn 5.95792e-25 -1 -6.12323e-17

# Mesh 'defaultobject' with 96 faces
g defaultobject
usemtl DefaultMaterial
f  1//1 2//1 3//1
f  2//1 1//1 4//1
f  2//2 5//2 3//2
f  5//2 2//2 6//3
f  5//4 7//4 8//4
f  7//4 5//4 6//5
f  9//6 10//6 11//6
f  10//6 9//6 12//7
f  10//6 12//7 13//8
f  10//6 13//8 8//9
f  10//6 8//9 7//10
f  10//6 7//10 14//11
f  14//11 7//10 15//12
f  16//13 10//6 14//11
f  17//14 18//14 19//14
f  18//14 17//14 4//15
f  18//14 4//15 1//16
f  18//14 1//16 20//17
f  18//14 20//17 21//18
f  20//17 1//16 22//19
f  21//20 23//20 18//20
f  23//20 21//20 10//21
f  10//21 21//20 11//22
f  11//23 21//23 24//23
f  1//1 2//1 3//1
f  2//1 1//1 4//1
f  2//2 5//2 3//2
f  5//2 2//2 6//3
f  5//4 7//4 8//4
f  7//4 5//4 6//5
f  9//6 10//6 11//6
f  10//6 9//6 12//7
f  10//6 12//7 13//8
f  10//6 13//8 8//9
f  10//6 8//9 7//10
f  10//6 7//10 14//11
f  14//11 7//10 15//12
f  16//13 10//6 14//11
f  17//14 18//14 19//14
f  18//14 17//14 4//15
f  18//14 4//15 1//16
f  18//14 1//16 20//17
f  18//14 20//17 21//18
f  20//17 1//16 22//19
f  21//20 23//20 18//20
f  23//20 21//20 10//21
f  10//21 21//20 11//22
f  11//23 21//23 24//23
f  18//24 25//24 19//24
f  25//24 18//24 23//24
f  25//24 23//24 16//25
f  16//25 23//24 10//26
f  19//27 26//27 17//27
f  26//27 19//27 25//28
f  26//27 25//28 14//29
f  14//29 25//28 16//30
f  17//31 2//31 4//31
f  2//31 17//31 26//32
f  2//31 26//32 14//33
f  6//34 15//34 7//34
f  15//34 6//34 2//35
f  14//36 15//36 2//36
f  18//24 25//24 19//24
f  25//24 18//24 23//24
f  25//24 23//24 16//25
f  16//25 23//24 10//26
f  19//27 26//27 17//27
f  26//27 19//27 25//28
f  26//27 25//28 14//29
f  14//29 25//28 16//30
f  17//31 2//31 4//31
f  2//31 17//31 26//32
f  2//31 26//32 14//33
f  6//34 15//34 7//34
f  15//34 6//34 2//35
f  14//36 15//36 2//36
f  8//37 3//37 5//37
f  3//37 8//37 13//38
f  3//37 13//38 22//19
f  22//19 13//38 20//39
f  20//39 13//38 12//40
f  20//39 12//40 9//41
f  20//39 9//41 21//41
f  21//41 9//41 24//42
f  24//42 9//41 11//43
f  22//19 1//44 3//37
f  8//37 3//37 5//37
f  3//37 8//37 13//38
f  3//37 13//38 22//19
f  22//19 13//38 20//39
f  20//39 13//38 12//40
f  20//39 12//40 9//41
f  20//39 9//41 21//41
f  21//41 9//41 24//42
f  24//42 9//41 11//43
f  22//19 1//44 3//37

