# {"id":"BLDG_0003000b000394c7","idOriginal":"BLDG_0003000b000394c7","origin":[13.356000072749737,52.50235835657905],"elevation":34.55}
# Longitude: 13.356000072749737
# Latitude: 52.50235835657905
# Elevation: 34.55

# File produced by Open Asset Import Library (http://www.assimp.sf.net)
# (assimp v3.1.0)

mtllib BLDG_0003000b000394c7.obj.mtl

# 30 vertex positions
v  6.63449 20.66 -17.0469
v  13.3721 -7.6294e-07 -14.4093
v  6.63405 -7.6294e-07 -17.0462
v  20.1101 -7.6294e-07 -11.7724
v  41.8691 -7.6294e-07 -3.25721
v  41.8696 23.15 -3.25794
v  20.1106 23.15 -11.7732
v  13.3726 23.15 -14.4101
v  0.000440103 20.66 -0.00065256
v  2.06082 -7.6294e-07 -5.29529
v  0 -7.6294e-07 -4.67166e-23
v  4.22359 6.64526e-16 -10.8525
v  2.06126 20.66 -5.29594
v  4.22403 20.66 -10.8532
v  13.4889 23.15 5.24122
v  28.95 -7.6294e-07 11.2507
v  28.9505 23.15 11.25
v  6.74472 23.15 2.62024
v  13.4885 -7.6294e-07 5.24195
v  6.74423 -7.6294e-07 2.62098
v  39.4298 20.66 2.92435
v  39.4294 -7.6294e-07 2.925
v  17.7001 20.66 -5.57942
v  17.6997 3.41601e-16 -5.57876
v  15.5497 20.66 -0.0539857
v  15.5493 -7.6294e-07 -0.0533331
v  31.0359 -7.6294e-07 5.96516
v  31.0363 20.66 5.96451
v  8.80554 23.15 -2.67504
v  10.9621 23.15 -8.21638

# 0 UV coordinates

# 48 vertex normals
vn 0.36443 -3.72519e-05 -0.931231
vn 0.36443 -3.72314e-05 -0.931231
vn 0.36443 -3.71719e-05 -0.931231
vn 0.36443 -3.7161e-05 -0.931231
vn 0.36443 -3.56679e-05 -0.931231
vn 0.36443 -3.66295e-05 -0.931231
vn -0.931913 8.39622e-06 -0.362682
vn -0.931913 8.40651e-06 -0.362682
vn -0.931913 8.41781e-06 -0.362682
vn -0.931913 8.3187e-06 -0.362682
vn -0.931913 8.39103e-06 -0.362682
vn -0.931913 8.36786e-06 -0.362682
vn -0.362233 3.7172e-05 0.932088
vn -0.362233 3.70756e-05 0.932088
vn -0.362233 3.70663e-05 0.932088
vn -0.362233 3.71431e-05 0.932088
vn 0.930186 -8.15387e-06 0.367088
vn 0.930186 -8.1756e-06 0.367088
vn -0.36443 3.71904e-05 0.931231
vn -0.36443 3.71587e-05 0.931231
vn 0.931913 -8.41598e-06 0.362682
vn 0.931913 -8.40819e-06 0.362682
vn 0.362233 -3.71651e-05 -0.932088
vn 0.362233 -3.71211e-05 -0.932088
vn 0.930186 -8.25033e-06 0.367088
vn 0.930186 -8.15612e-06 0.367088
vn -0.127854 0.936438 0.326706
vn -0.127854 0.936438 0.326706
vn -0.127854 0.936438 0.326706
vn 0.303247 0.945576 0.118018
vn 0.303247 0.945575 0.118018
vn 0.303247 0.945575 0.118018
vn 0.303247 0.945575 0.118018
vn -0.303246 0.945576 -0.118017
vn -0.303246 0.945576 -0.118017
vn -0.303246 0.945576 -0.118017
vn -0.303246 0.945576 -0.118017
vn -0.303245 0.945576 -0.118017
vn -0.303246 0.945576 -0.118017
vn 0.14539 0.915915 -0.374114
vn 0.14539 0.915915 -0.374114
vn 0.14539 0.915915 -0.374114
vn -4.18342e-08 -1 1.06899e-07
vn -3.04134e-08 -1 -1.20023e-08
vn -4.18342e-08 -1 1.06899e-07
vn -1.61154e-07 -1 -2.00006e-07
vn 0 -1 0
vn -4.75593e-08 -1 -1.56587e-07

# Mesh 'defaultobject' with 56 faces
g defaultobject
usemtl DefaultMaterial
f  1//1 2//1 3//1
f  2//1 1//1 4//2
f  4//2 1//1 5//3
f  5//3 1//1 6//4
f  6//4 1//1 7//5
f  7//5 1//1 8//6
f  9//7 10//7 11//7
f  10//7 9//7 12//8
f  12//8 9//7 3//9
f  3//9 9//7 13//10
f  3//9 13//10 14//11
f  3//9 14//11 1//12
f  15//13 16//13 17//13
f  16//13 15//13 18//14
f  16//13 18//14 9//15
f  16//13 9//15 11//16
f  16//13 11//16 19//10
f  19//10 11//16 20//10
f  5//17 21//17 22//17
f  21//17 5//17 6//18
f  22//19 23//19 24//19
f  23//19 22//19 21//20
f  24//21 25//21 26//21
f  25//21 24//21 23//22
f  25//23 27//23 26//23
f  27//23 25//23 28//24
f  27//25 17//25 16//25
f  17//25 27//25 28//26
f  6//27 23//27 21//27
f  23//27 6//27 7//28
f  23//27 7//28 8//29
f  25//30 29//30 18//30
f  29//30 25//30 30//31
f  30//31 25//30 8//32
f  8//32 25//30 23//33
f  18//34 13//34 9//34
f  13//34 18//34 14//35
f  14//35 18//34 1//36
f  1//36 18//34 29//37
f  1//36 29//37 30//38
f  1//36 30//38 8//39
f  28//40 15//40 17//40
f  15//40 28//40 25//41
f  15//40 25//41 18//42
f  5//43 24//43 4//43
f  24//43 5//43 22//44
f  2//45 12//45 3//45
f  12//45 2//45 10//46
f  10//46 2//45 11//47
f  11//47 2//45 20//10
f  20//10 2//45 4//43
f  20//10 4//43 24//43
f  20//10 24//43 26//48
f  20//10 26//48 19//10
f  19//10 26//48 27//47
f  19//10 27//47 16//47

