# {"id":"BLDG_00030009003f46ac","idOriginal":"BLDG_00030009003f46ac","origin":[13.392397967056382,52.54720135406272],"elevation":47.1399993896484}
# Longitude: 13.392397967056382
# Latitude: 52.54720135406272
# Elevation: 47.1399993896484

# File produced by Open Asset Import Library (http://www.assimp.sf.net)
# (assimp v3.1.0)

mtllib BLDG_00030009003f46ac.obj.mtl

# 16 vertex positions
v  11.9781 21.0466 13.7373
v  17.2634 21.7021 -1.13201
v  11.0809 21.7021 -0.726842
v  18.1606 21.7021 13.3321
v  1.07935 21.0466 14.4515
v  0.000463431 21.7021 -0.00068748
v  12.1428 21.0466 16.3923
v  18.3262 21.0466 16.0018
v  17.2629 6.92736e-17 -1.13132
v  11.0804 4.44641e-17 -0.726154
v  18.1601 -8.16395e-16 13.3327
v  0 0 0
v  11.9776 -8.41205e-16 13.7379
v  1.0789 -8.8494e-16 14.4522
v  18.3257 -9.79871e-16 16.0025
v  12.1423 -1.00378e-15 16.393

# 0 UV coordinates

# 24 vertex normals
vn 0.00295533 0.998978 0.0450956
vn -0.105024 0.994448 0.0065147
vn 0.00295535 0.998978 0.0450956
vn 0.0150033 0.971255 0.23757
vn -0.105024 0.994448 0.00651468
vn -0.0653948 -3.02136e-05 -0.99786
vn 0.998082 -2.32729e-05 -0.0619118
vn 0.998082 -2.3276e-05 -0.0619118
vn -0.0653948 -3.02137e-05 -0.99786
vn 0.0653948 3.02088e-05 0.997859
vn 0.0653948 3.02068e-05 0.997859
vn -0.997225 2.36523e-05 0.074446
vn -0.997225 2.36532e-05 0.074446
vn 0.998082 -2.32142e-05 -0.061912
vn 0.0630275 3.02195e-05 0.998012
vn 0.0630275 3.02214e-05 0.998012
vn -0.998082 2.32595e-05 0.061912
vn -0.998082 2.33075e-05 0.0619116
vn 9.43374e-24 -1 -6.12323e-17
vn -9.43374e-24 -1 -6.12323e-17
vn 0 -1 -6.12323e-17
vn -1.07029e-23 -1 -6.12323e-17
vn 9.58307e-24 -1 -6.12323e-17
vn 4.81801e-24 -1 -6.12323e-17

# Mesh 'defaultobject' with 28 faces
g defaultobject
usemtl DefaultMaterial
f  1//1 2//1 3//1
f  2//2 1//2 4//2
f  5//3 3//1 6//3
f  3//1 5//3 1//1
f  4//4 7//4 8//4
f  7//5 4//2 1//2
f  3//6 9//6 10//6
f  9//6 3//6 2//6
f  9//7 4//7 11//7
f  4//7 9//7 2//8
f  6//9 10//6 12//9
f  10//6 6//9 3//6
f  13//10 5//10 14//10
f  5//10 13//10 1//11
f  5//12 12//12 14//12
f  12//12 5//12 6//13
f  11//7 8//14 15//14
f  8//14 11//7 4//7
f  15//15 7//15 16//15
f  7//15 15//15 8//16
f  7//17 13//17 16//17
f  13//17 7//17 1//18
f  10//19 11//19 13//19
f  11//19 10//19 9//20
f  13//19 12//21 10//19
f  12//21 13//19 14//22
f  15//23 13//19 11//19
f  13//19 15//23 16//24

