# {"id":"BLDG_00030000001d8182","idOriginal":"BLDG_00030000001d8182","origin":[13.365649100750964,52.55156380703302],"elevation":37.0699996948242}
# Longitude: 13.365649100750964
# Latitude: 52.55156380703302
# Elevation: 37.0699996948242

# File produced by Open Asset Import Library (http://www.assimp.sf.net)
# (assimp v3.1.0)

mtllib BLDG_00030000001d8182.obj.mtl

# 20 vertex positions
v  9.54394 -5.9701e-16 9.74991
v  17.4173 -1.51818e-16 2.47938
v  17.8952 -5.44413e-16 8.89094
v  11.3608 -1.71027e-16 2.79308
v  0 0 0
v  10.8842 -1.25711e-16 2.05301
v  9.67281 -5.67056e-17 0.926072
v  9.87899 -3.34959e-17 0.54703
v  4.1738 2.56943e-16 -4.1962
v  4.55619 2.81601e-16 -4.59889
v  9.54435 19.4342 9.74929
v  4.17421 19.4342 -4.19681
v  0.000414299 19.4342 -0.00061584
v  4.5566 19.4342 -4.59951
v  9.67323 19.4342 0.925456
v  10.8846 19.4342 2.0524
v  11.3612 19.4342 2.79246
v  17.8956 19.4342 8.89033
v  17.4177 19.4342 2.47876
v  9.8794 19.4342 0.546414

# 0 UV coordinates

# 28 vertex normals
vn 9.81173e-25 -1 -6.12323e-17
vn -9.55256e-25 -1 -6.12323e-17
vn 1.25882e-24 -1 -6.12323e-17
vn -3.74051e-24 -1 -6.12323e-17
vn 1.35342e-24 -1 -6.12324e-17
vn 0 -1 -6.12323e-17
vn 0 -1 -6.12323e-17
vn -5.15074e-23 -1 -6.12323e-17
vn 0 1 0
vn -0.714615 3.73944e-05 0.699518
vn -0.714615 3.74009e-05 0.699518
vn 0.102315 2.93572e-05 0.994752
vn 0.102315 2.93075e-05 0.994752
vn 0.997234 -2.35902e-05 -0.0743318
vn 0.997234 -2.36932e-05 -0.0743315
vn -0.0517255 -3.05417e-05 -0.998661
vn -0.0517255 -3.05514e-05 -0.998661
vn 0.840741 -3.51037e-05 -0.541438
vn 0.84074 -3.50619e-05 -0.541438
vn 0.681132 -3.77083e-05 -0.732161
vn 0.681132 -3.77417e-05 -0.732161
vn 0.878456 -3.60997e-06 0.477822
vn 0.878457 -3.56733e-06 0.477821
vn 0.695061 -3.75949e-05 -0.718951
vn 0.695061 -3.75817e-05 -0.718951
vn -0.72515 -6.35032e-06 -0.688591
vn -0.708997 -7.23266e-06 -0.705212
vn -0.708997 -7.2212e-06 -0.705212

# Mesh 'defaultobject' with 36 faces
g defaultobject
usemtl DefaultMaterial
f  1//1 2//1 3//1
f  2//1 1//1 4//2
f  4//2 1//1 5//3
f  4//2 5//3 6//4
f  6//4 5//3 7//5
f  7//5 5//3 8//6
f  8//6 5//3 9//7
f  8//6 9//7 10//8
f  11//9 12//9 13//9
f  12//9 11//9 14//9
f  14//9 11//9 15//9
f  15//9 11//9 16//9
f  16//9 11//9 17//9
f  17//9 11//9 18//9
f  17//9 18//9 19//9
f  20//9 14//9 15//9
f  11//10 5//10 1//10
f  5//10 11//10 13//11
f  3//12 11//12 1//12
f  11//12 3//12 18//13
f  2//14 18//14 3//14
f  18//14 2//14 19//15
f  17//16 2//16 4//16
f  2//16 17//16 19//17
f  6//18 17//18 4//18
f  17//18 6//18 16//19
f  7//20 16//20 6//20
f  16//20 7//20 15//21
f  8//22 15//22 7//22
f  15//22 8//22 20//23
f  10//24 20//24 8//24
f  20//24 10//24 14//25
f  12//26 10//26 9//26
f  10//26 12//26 14//26
f  13//27 9//27 5//27
f  9//27 13//27 12//28

