# {"id":"BLDG_0003000b006bc789","idOriginal":"BLDG_0003000b006bc789","origin":[13.389583933789742,52.51557969520124],"elevation":31.3999996185303}
# Longitude: 13.389583933789742
# Latitude: 52.51557969520124
# Elevation: 31.3999996185303

# File produced by Open Asset Import Library (http://www.assimp.sf.net)
# (assimp v3.1.0)

mtllib BLDG_0003000b006bc789.obj.mtl

# 8 vertex positions
v  44.2092 2.13467e-16 -3.48618
v  1.74186 -1.35035e-15 22.0529
v  0 0 0
v  45.9511 -1.13688e-15 18.5667
v  1.74255 32.0557 22.0519
v  44.2099 32.0557 -3.4872
v  0.000684344 32.0557 -0.00101334
v  45.9518 32.0557 18.5657

# 0 UV coordinates

# 11 vertex normals
vn -4.31713e-25 -1 -6.12323e-17
vn 1.29514e-24 -1 -6.12323e-17
vn 0 1 0
vn -0.996895 2.3775e-05 0.0787403
vn -0.996895 2.37715e-05 0.0787403
vn -0.0786124 -2.98358e-05 -0.996905
vn -0.0786124 -2.98376e-05 -0.996905
vn 0.996895 -2.38418e-05 -0.0787402
vn 0.996895 -2.37234e-05 -0.0787404
vn 0.0786125 2.98187e-05 0.996905
vn 0.0786125 2.9808e-05 0.996905

# Mesh 'defaultobject' with 12 faces
g defaultobject
usemtl DefaultMaterial
f  1//1 2//1 3//1
f  2//1 1//1 4//2
f  5//3 6//3 7//3
f  6//3 5//3 8//3
f  5//4 3//4 2//4
f  3//4 5//4 7//5
f  7//6 1//6 3//6
f  1//6 7//6 6//7
f  1//8 8//8 4//8
f  8//8 1//8 6//9
f  4//10 5//10 2//10
f  5//10 4//10 8//11

