# {"id":"BLDG_000300040001577e","idOriginal":"BLDG_000300040001577e","origin":[13.39432566993614,52.527799020963194],"elevation":35.4099998474121}
# Longitude: 13.39432566993614
# Latitude: 52.527799020963194
# Elevation: 35.4099998474121

# File produced by Open Asset Import Library (http://www.assimp.sf.net)
# (assimp v3.1.0)

mtllib BLDG_000300040001577e.obj.mtl

# 24 vertex positions
v  7.1105 17.3286 1.31571
v  7.25458 17.3215 1.61945
v  5.41806 14.9011 -2.25181
v  8.67336 17.2521 4.61029
v  9.6519 14.9011 6.67324
v  7.83711 17.293 2.84743
v  5.41774 1.37855e-16 -2.25134
v  14.8137 3.76936e-16 -6.15583
v  14.814 14.9011 -6.1563
v  18.469 -1.84289e-16 3.00966
v  18.4693 14.9011 3.00919
v  16.2768 17.3286 -2.48863
v  17.6235 17.2521 0.888325
v  9.65158 -4.08647e-16 6.67372
v  4.23384 -5.46502e-16 8.92505
v  0 0 0
v  4.23421 17.6912 8.92449
v  0.000318224 14.9011 -0.000471439
v  2.1173 17.6912 4.46197
v  7.53504 17.6912 2.21063
v  10.7013 -1.38132e-15 22.5587
v  10.7017 17.6912 22.5581
v  16.0928 -1.24008e-15 20.252
v  16.0931 14.9011 20.2516

# 0 UV coordinates

# 34 vertex normals
vn 0.903495 -3.21352e-05 -0.428598
vn 0.903496 -3.27354e-05 -0.428597
vn 0.383736 2.10348e-05 0.923443
vn 0.383736 2.10225e-05 0.923443
vn -0.928859 3.1579e-05 0.370433
vn -0.928859 3.17315e-05 0.370433
vn -0.928859 3.16081e-05 0.370433
vn -0.383736 -2.10225e-05 -0.923443
vn 0.903496 -3.28493e-05 -0.428597
vn 0.903496 -3.28548e-05 -0.428597
vn 0.903496 -3.29408e-05 -0.428597
vn 0.383736 2.10209e-05 0.923443
vn -0.903496 3.33752e-05 0.428597
vn 0.903496 -3.29211e-05 -0.428597
vn -0.903496 3.28639e-05 0.428597
vn -0.903496 3.28776e-05 0.428597
vn -0.393336 -2.07245e-05 -0.919395
vn -0.393336 -2.06598e-05 -0.919395
vn 0 1 6.12323e-17
vn -2.24776e-24 1 6.12323e-17
vn 0 1 6.12323e-17
vn -7.18444e-24 1 6.12323e-17
vn 1.20228e-23 1 6.12323e-17
vn -0.275441 -0.696262 -0.662836
vn -0.275466 -0.696656 -0.662411
vn 0.188911 -0.870428 0.454607
vn 0.188911 -0.870428 0.454607
vn -0.188908 -0.870433 -0.454598
vn -0.388414 -0.902876 0.184254
vn -0.388414 -0.902876 0.184255
vn 0.200938 -0.851602 0.484147
vn 0.200986 -0.851865 0.483664
vn -0.00806271 -0.99978 -0.0193884
vn -0.00806443 -0.999779 -0.0194307

# Mesh 'defaultobject' with 40 faces
g defaultobject
usemtl DefaultMaterial
f  1//1 2//1 3//1
f  4//2 5//2 6//2
f  7//3 8//3 3//3
f  9//4 3//3 8//3
f  8//5 10//5 9//5
f  11//5 9//5 10//5
f  12//6 9//5 11//5
f  13//7 12//6 11//5
f  14//8 5//8 10//8
f  11//8 10//8 5//8
f  15//9 16//9 17//9
f  18//10 17//9 16//9
f  19//11 17//9 18//10
f  16//12 7//3 18//12
f  3//3 18//12 7//3
f  20//13 2//13 6//13
f  21//14 15//9 22//14
f  17//9 22//14 15//9
f  23//15 24//15 14//15
f  5//16 14//15 24//15
f  21//17 22//17 23//17
f  24//18 23//17 22//17
f  7//19 14//19 8//19
f  10//20 8//19 14//19
f  16//21 15//21 7//19
f  14//19 7//19 15//21
f  15//21 21//22 14//19
f  23//23 14//19 21//22
f  5//24 4//24 11//24
f  13//25 11//25 4//25
f  20//26 19//26 3//26
f  18//27 3//26 19//26
f  20//28 5//28 19//28
f  5//29 17//29 19//29
f  24//30 22//30 5//29
f  17//29 5//29 22//30
f  1//31 3//31 12//31
f  9//32 12//32 3//32
f  4//33 1//33 13//33
f  12//34 13//34 1//34

