# {"id":"BLDG_0003000e005774d8","idOriginal":"BLDG_0003000e005774d8","origin":[13.343301925792284,52.516263652282696],"elevation":34.3699989318848}
# Longitude: 13.343301925792284
# Latitude: 52.516263652282696
# Elevation: 34.3699989318848

# File produced by Open Asset Import Library (http://www.assimp.sf.net)
# (assimp v3.1.0)

mtllib BLDG_0003000e005774d8.obj.mtl

# 12 vertex positions
v  0.801977 -4.82172e-16 7.87447
v  10.2324 6.46156e-17 -1.05525
v  11.0318 -4.20001e-16 6.85914
v  0.347998 -2.0882e-16 3.4103
v  0 0 0
v  2.28736 1.44887e-17 -0.236618
v  0.802046 3.21212 7.87437
v  0.348066 3.21212 3.41019
v  11.0318 3.21212 6.85904
v  10.2324 3.21212 -1.05535
v  2.28743 3.21212 -0.236719
v  6.8373e-05 3.21212 -0.00010155

# 0 UV coordinates

# 14 vertex normals
vn -2.58955e-24 -1 -6.12323e-17
vn 0 -1 -6.12323e-17
vn 0 -1 -6.12323e-17
vn -4.46174e-22 -1 -6.12436e-17
vn -0.994869 2.43738e-05 0.101172
vn 0.0987668 2.93721e-05 0.995111
vn 0.994938 -2.44658e-05 -0.100493
vn -0.102495 -2.92728e-05 -0.994734
vn -0.102495 -2.92622e-05 -0.994734
vn -0.102897 -2.92565e-05 -0.994692
vn -0.102897 -2.9263e-05 -0.994692
vn -0.994834 2.43839e-05 0.101516
vn -0.994834 2.43854e-05 0.101516
vn 0 1 0

# Mesh 'defaultobject' with 20 faces
g defaultobject
usemtl DefaultMaterial
f  1//1 2//1 3//1
f  2//1 1//1 4//2
f  2//1 4//2 5//3
f  2//1 5//3 6//4
f  7//5 4//5 1//5
f  4//5 7//5 8//5
f  3//6 7//6 1//6
f  7//6 3//6 9//6
f  2//7 9//7 3//7
f  9//7 2//7 10//7
f  11//8 2//8 6//8
f  2//8 11//8 10//9
f  12//10 6//10 5//10
f  6//10 12//10 11//11
f  8//12 5//12 4//12
f  5//12 8//12 12//13
f  8//14 11//14 12//14
f  11//14 8//14 7//14
f  11//14 7//14 10//14
f  10//14 7//14 9//14

