# {"id":"BLDG_0003000e005a6589","idOriginal":"BLDG_0003000e005a6589","origin":[13.327778225164097,52.53338222912642],"elevation":36.0400009155273}
# Longitude: 13.327778225164097
# Latitude: 52.53338222912642
# Elevation: 36.0400009155273

# File produced by Open Asset Import Library (http://www.assimp.sf.net)
# (assimp v3.1.0)

mtllib BLDG_0003000e005a6589.obj.mtl

# 16 vertex positions
v  9.23189 9.16924 -1.42622
v  0.0339118 9.16924 -18.3272
v  0.000194989 9.16924 -0.00029022
v  9.08854 9.16924 -19.7258
v  19.969 23.4723 -3.0855
v  9.09229 23.4723 -19.739
v  9.10343 23.4723 -1.40715
v  19.9579 23.4723 -21.4173
v  0.0337168 1.1222e-15 -18.3269
v  0 0 0
v  9.08834 1.20784e-15 -19.7255
v  9.2317 8.7313e-17 -1.42593
v  9.09186 2.94 -19.7383
v  9.10299 2.94 -1.4065
v  19.9575 2.94 -21.4167
v  19.9686 2.94 -3.08485

# 0 UV coordinates

# 17 vertex normals
vn 0 1 0
vn -0.999998 2.12073e-05 -0.00183974
vn -0.999998 2.12074e-05 -0.00183974
vn -0.15265 -2.80017e-05 -0.98828
vn -0.15265 -2.79931e-05 -0.98828
vn 0.999969 -2.1465e-05 -0.00783377
vn 0.999969 -2.15687e-05 -0.00783372
vn 0.15265 2.80475e-05 0.98828
vn -1 2.12922e-05 0.000607315
vn -1 2.12922e-05 0.000607315
vn -0.152654 -2.80586e-05 -0.98828
vn 1 -2.12922e-05 -0.000607315
vn 0.152654 2.80346e-05 0.98828
vn 0.152654 2.80346e-05 0.98828
vn -1.00157e-23 -1 -6.12323e-17
vn 0 -1 -6.12323e-17
vn 0 -1 0

# Mesh 'defaultobject' with 48 faces
g defaultobject
usemtl DefaultMaterial
f  1//1 2//1 3//1
f  2//1 1//1 4//1
f  5//1 6//1 7//1
f  6//1 5//1 8//1
f  1//1 2//1 3//1
f  2//1 1//1 4//1
f  5//1 6//1 7//1
f  6//1 5//1 8//1
f  3//2 9//2 10//2
f  9//2 3//2 2//3
f  2//4 11//4 9//4
f  11//4 2//4 4//5
f  11//6 1//6 12//6
f  1//6 11//6 4//7
f  12//8 3//8 10//8
f  3//8 12//8 1//8
f  7//9 13//9 14//9
f  13//9 7//9 6//10
f  6//11 15//11 13//11
f  15//11 6//11 8//11
f  15//12 5//12 16//12
f  5//12 15//12 8//12
f  16//13 7//13 14//13
f  7//13 16//13 5//14
f  3//2 9//2 10//2
f  9//2 3//2 2//3
f  2//4 11//4 9//4
f  11//4 2//4 4//5
f  11//6 1//6 12//6
f  1//6 11//6 4//7
f  12//8 3//8 10//8
f  3//8 12//8 1//8
f  7//9 13//9 14//9
f  13//9 7//9 6//10
f  6//11 15//11 13//11
f  15//11 6//11 8//11
f  15//12 5//12 16//12
f  5//12 15//12 8//12
f  16//13 7//13 14//13
f  7//13 16//13 5//14
f  9//15 12//15 10//15
f  12//15 9//15 11//16
f  13//17 16//17 14//17
f  16//17 13//17 15//17
f  9//15 12//15 10//15
f  12//15 9//15 11//16
f  13//17 16//17 14//17
f  16//17 13//17 15//17

