# {"id":"BLDG_00030000001d5cbb","idOriginal":"BLDG_00030000001d5cbb","origin":[13.361659450676745,52.54691594329195],"elevation":35.4000015258789}
# Longitude: 13.361659450676745
# Latitude: 52.54691594329195
# Elevation: 35.4000015258789

# File produced by Open Asset Import Library (http://www.assimp.sf.net)
# (assimp v3.1.0)

mtllib BLDG_00030000001d5cbb.obj.mtl

# 8 vertex positions
v  11.641 3.36835 11.6776
v  5.22285 3.36835 -3.32345
v  7.1787e-05 3.36835 -0.0001067
v  16.0148 3.36835 7.13413
v  0 0 0
v  16.0148 -4.36846e-16 7.13423
v  11.6409 -7.15051e-16 11.6777
v  5.22278 2.03496e-16 -3.32334

# 0 UV coordinates

# 11 vertex normals
vn 0 1 0
vn 0 -1 -6.12323e-17
vn 0 -1 -6.12323e-17
vn -0.708221 3.76265e-05 0.705991
vn -0.708221 3.74575e-05 0.705991
vn 0.720422 6.46469e-06 0.693535
vn 0.720423 6.91362e-06 0.693535
vn 0.695893 -3.73796e-05 -0.718146
vn 0.695893 -3.72289e-05 -0.718146
vn -0.536848 -1.52839e-05 -0.843679
vn -0.536848 -1.52939e-05 -0.843679

# Mesh 'defaultobject' with 12 faces
g defaultobject
usemtl DefaultMaterial
f  1//1 2//1 3//1
f  2//1 1//1 4//1
f  5//2 6//2 7//2
f  6//2 5//2 8//3
f  1//4 5//4 7//4
f  5//4 1//4 3//5
f  6//6 1//6 7//6
f  1//6 6//6 4//7
f  8//8 4//8 6//8
f  4//8 8//8 2//9
f  3//10 8//10 5//10
f  8//10 3//10 2//11

