# {"id":"BLDG_00030002001fa885","idOriginal":"BLDG_00030002001fa885","origin":[13.349635895139592,52.533486034438575],"elevation":34.0999984741211}
# Longitude: 13.349635895139592
# Latitude: 52.533486034438575
# Elevation: 34.0999984741211

# File produced by Open Asset Import Library (http://www.assimp.sf.net)
# (assimp v3.1.0)

mtllib BLDG_00030002001fa885.obj.mtl

# 16 vertex positions
v  0.214295 22.7028 1.27156
v  0 0 0
v  0.213811 -7.79049e-17 1.27228
v  0.000483461 22.7028 -0.00071857
v  1.00301 22.7028 5.97616
v  1.00253 -3.65978e-16 5.97688
v  10.9117 -2.63095e-16 4.29667
v  10.9122 22.7028 4.29595
v  10.1831 2.38243e-17 -0.38908
v  10.1835 22.7028 -0.389799
v  9.67296 2.245e-16 -3.66636
v  9.67344 22.7028 -3.66708
v  2.15763 22.7028 -2.32705
v  2.15715 1.42446e-16 -2.32633
v  2.46194 22.7028 -0.454333
v  2.46146 2.77759e-17 -0.453614

# 0 UV coordinates

# 21 vertex normals
vn -0.986171 2.62468e-05 0.165729
vn -0.986171 2.62463e-05 0.165729
vn -0.986237 2.62344e-05 0.165341
vn -0.986237 2.62359e-05 0.165341
vn 0.167174 2.76184e-05 0.985927
vn 0.167174 2.76435e-05 0.985927
vn 0.988124 -2.59085e-05 -0.153657
vn 0.988102 -2.59097e-05 -0.153798
vn 0.988102 -2.59113e-05 -0.153798
vn -0.175527 -2.74226e-05 -0.984475
vn -0.987053 2.60984e-05 0.160392
vn -0.987053 2.60986e-05 0.160392
vn -0.181235 -2.72677e-05 -0.98344
vn -0.181235 -2.7267e-05 -0.98344
vn 5.52099e-24 -1 -6.12323e-17
vn 4.08354e-24 -1 -6.12323e-17
vn 0 -1 -6.12323e-17
vn 0 -1 -6.12323e-17
vn -1.71843e-25 -1 -6.12323e-17
vn 0 -1 -6.12323e-17
vn 0 1 0

# Mesh 'defaultobject' with 28 faces
g defaultobject
usemtl DefaultMaterial
f  1//1 2//1 3//1
f  2//1 1//1 4//2
f  5//3 3//3 6//3
f  3//3 5//3 1//4
f  7//5 5//5 6//5
f  5//5 7//5 8//6
f  9//7 8//7 7//7
f  8//7 9//7 10//7
f  11//8 10//8 9//8
f  10//8 11//8 12//9
f  13//10 11//10 14//10
f  11//10 13//10 12//10
f  15//11 14//11 16//11
f  14//11 15//11 13//12
f  4//13 16//13 2//13
f  16//13 4//13 15//14
f  3//15 7//15 6//15
f  7//15 3//15 2//16
f  7//15 2//16 16//17
f  7//15 16//17 9//18
f  9//18 16//17 14//19
f  9//18 14//19 11//20
f  1//21 15//21 4//21
f  15//21 1//21 5//21
f  15//21 12//21 13//21
f  12//21 15//21 5//21
f  12//21 5//21 8//21
f  12//21 8//21 10//21

