# {"id":"BLDG_000300000017222d","idOriginal":"BLDG_000300000017222d","origin":[13.385947105936873,52.52176448123166],"elevation":32.9599990844727}
# Longitude: 13.385947105936873
# Latitude: 52.52176448123166
# Elevation: 32.9599990844727

# File produced by Open Asset Import Library (http://www.assimp.sf.net)
# (assimp v3.1.0)

mtllib BLDG_000300000017222d.obj.mtl

# 8 vertex positions
v  0 0 0
v  5.88771 6.04 6.13763
v  0.000128919 6.04 -0.000191011
v  5.88759 -3.75833e-16 6.13782
v  4.53492 2.66361e-16 -4.35001
v  4.53505 6.04 -4.3502
v  10.4226 6.04 1.78762
v  10.4225 -1.09472e-16 1.78781

# 0 UV coordinates

# 11 vertex normals
vn -0.721665 3.7295e-05 0.692243
vn -0.721665 3.73544e-05 0.692243
vn -0.69224 -8.09072e-06 -0.721667
vn -0.69224 -8.04687e-06 -0.721667
vn 0.721665 -3.72034e-05 -0.692243
vn 0.721665 -3.72776e-05 -0.692243
vn 0.69224 8.09069e-06 0.721667
vn 0.69224 8.0907e-06 0.721667
vn 0 -1 -6.12323e-17
vn -3.96213e-24 -1 -6.12323e-17
vn 0 1 0

# Mesh 'defaultobject' with 12 faces
g defaultobject
usemtl DefaultMaterial
f  1//1 2//1 3//1
f  2//1 1//1 4//2
f  5//3 3//3 6//3
f  3//3 5//3 1//4
f  5//5 7//5 8//5
f  7//5 5//5 6//6
f  8//7 2//7 4//7
f  2//7 8//7 7//8
f  5//9 4//9 1//9
f  4//9 5//9 8//10
f  2//11 6//11 3//11
f  6//11 2//11 7//11

