# {"id":"BLDG_0003000f003cfee6","idOriginal":"BLDG_0003000f003cfee6","origin":[13.356797371664003,52.54385085037876],"elevation":36.6300010681152}
# Longitude: 13.356797371664003
# Latitude: 52.54385085037876
# Elevation: 36.6300010681152

# File produced by Open Asset Import Library (http://www.assimp.sf.net)
# (assimp v3.1.0)

mtllib BLDG_0003000f003cfee6.obj.mtl

# 8 vertex positions
v  4.9378e-05 2.31764 -7.34096e-05
v  5.97994 2.31764 1.95059
v  3.57582 2.31764 -2.17985
v  2.41616 2.31764 4.0776
v  0 0 0
v  2.41611 -2.49685e-16 4.07767
v  5.9799 -1.19444e-16 1.95066
v  3.57577 1.33473e-16 -2.17978

# 0 UV coordinates

# 11 vertex normals
vn -0 1 0
vn -0.860318 3.44713e-05 0.509758
vn -0.860318 3.44756e-05 0.509758
vn 0.512499 1.62601e-05 0.858688
vn 0.512499 1.62105e-05 0.858688
vn 0.864261 -3.444e-05 -0.503043
vn 0.864261 -3.43539e-05 -0.503043
vn -0.520509 -1.59557e-05 -0.853856
vn -0.520509 -1.597e-05 -0.853856
vn -2.69125e-24 -1 -6.12323e-17
vn 0 -1 -6.12323e-17

# Mesh 'defaultobject' with 12 faces
g defaultobject
usemtl DefaultMaterial
f  1//1 2//1 3//1
f  2//1 1//1 4//1
f  4//2 5//2 6//2
f  5//2 4//2 1//3
f  7//4 4//4 6//4
f  4//4 7//4 2//5
f  8//6 2//6 7//6
f  2//6 8//6 3//7
f  1//8 8//8 5//8
f  8//8 1//8 3//9
f  5//10 7//10 6//10
f  7//10 5//10 8//11

