# {"id":"BLDG_00030009000dca12","idOriginal":"BLDG_00030009000dca12","origin":[13.391664324899779,52.55818360329908],"elevation":41.9300003051758}
# Longitude: 13.391664324899779
# Latitude: 52.55818360329908
# Elevation: 41.9300003051758

# File produced by Open Asset Import Library (http://www.assimp.sf.net)
# (assimp v3.1.0)

mtllib BLDG_00030009000dca12.obj.mtl

# 24 vertex positions
v  9.50596 -5.74951e-17 0.938967
v  19.6585 -5.833e-16 9.52602
v  8.0234 -2.38068e-16 3.88794
v  21.1411 -4.02728e-16 6.57704
v  14.4284 -1.22031e-15 19.9292
v  2.78268 -8.76373e-16 14.3123
v  1.49889 1.80088e-16 -2.94107
v  0 0 0
v  8.76478 4.55679 2.41331
v  9.50605 4.03788 0.938838
v  9.50607 5.0757 0.938806
v  8.0238 19.0187 3.88734
v  8.02348 4.03788 3.88781
v  9.50637 19.0187 0.938364
v  21.1415 19.0187 6.57644
v  15.324 21.5321 3.75732
v  19.6589 19.0187 9.52542
v  14.4288 19.0187 19.9286
v  2.78309 19.0187 14.3116
v  8.606 21.5321 17.12
v  8.6224e-05 4.03788 -0.000128
v  1.49897 4.03788 -2.94119
v  0.749541 4.55679 -1.47068
v  13.8414 21.5321 6.7063

# 0 UV coordinates

# 35 vertex normals
vn 0 -1 -6.12323e-17
vn -4.96265e-24 -1 -6.12323e-17
vn -1.68468e-23 -1 -6.12323e-17
vn 0 -1 -6.12323e-17
vn -3.59828e-24 -1 -6.12323e-17
vn 0.893446 -4.5937e-06 0.449171
vn -0.893446 4.87065e-06 -0.449171
vn -0.893446 4.82648e-06 -0.449171
vn 0.436075 -3.78455e-05 -0.899911
vn 0.436075 -3.77905e-05 -0.899911
vn 0.436075 -3.79162e-05 -0.89991
vn 0.893446 -4.84627e-06 0.449171
vn 0.893446 -4.76271e-06 0.449171
vn -0.434427 3.78243e-05 0.900707
vn -0.434427 3.78695e-05 0.900707
vn -0.434427 3.76804e-05 0.900707
vn -0.893446 4.82801e-06 -0.449171
vn 0.893446 -4.85771e-06 0.449171
vn -0.436075 3.78282e-05 0.89991
vn -0.890965 4.63146e-06 -0.454072
vn -0.890965 4.64694e-06 -0.454072
vn -0.890965 4.59326e-06 -0.454072
vn 0.436075 -3.77887e-05 -0.899911
vn 0.436075 -3.79062e-05 -0.899911
vn -0.323792 0.93202 -0.162783
vn 0.323793 0.932019 0.162783
vn 0.323793 0.932019 0.162783
vn -0.323792 0.93202 -0.162783
vn -0.323792 0.93202 -0.162783
vn 0.323793 0.932019 0.162783
vn 0.323793 0.932019 0.162784
vn -0.13081 0.953948 0.269949
vn -0.13081 0.953948 0.269949
vn 0.130813 0.953946 -0.269954
vn 0.130813 0.953946 -0.269954

# Mesh 'defaultobject' with 40 faces
g defaultobject
usemtl DefaultMaterial
f  1//1 2//1 3//1
f  2//1 1//1 4//2
f  3//1 5//3 6//3
f  5//3 3//1 2//1
f  3//1 7//4 1//1
f  7//4 3//1 8//5
f  9//6 10//6 11//6
f  12//7 11//7 13//7
f  11//7 12//7 14//8
f  14//9 4//9 1//9
f  4//9 14//9 15//10
f  15//10 14//9 16//11
f  4//12 17//12 2//12
f  17//12 4//12 15//13
f  18//14 6//14 5//14
f  6//14 18//14 19//15
f  19//15 18//14 20//16
f  19//17 3//17 6//17
f  3//17 19//17 12//7
f  2//12 18//18 5//18
f  18//18 2//12 17//12
f  3//19 21//19 8//19
f  21//19 3//19 13//19
f  21//20 7//20 8//20
f  7//20 21//20 22//21
f  22//21 21//20 23//22
f  22//23 1//9 7//23
f  1//9 22//23 10//24
f  14//25 24//25 16//25
f  24//25 14//25 12//25
f  16//26 17//26 15//26
f  17//26 16//26 24//27
f  12//25 20//28 24//25
f  20//28 12//25 19//29
f  24//27 18//30 17//26
f  18//30 24//27 20//31
f  23//32 13//32 9//32
f  13//32 23//32 21//33
f  22//34 9//34 10//34
f  9//34 22//34 23//35

