# {"id":"BLDG_0003000b00447cca","idOriginal":"BLDG_0003000b00447cca","origin":[13.340697595475485,52.524376528194196],"elevation":33.75}
# Longitude: 13.340697595475485
# Latitude: 52.524376528194196
# Elevation: 33.75

# File produced by Open Asset Import Library (http://www.assimp.sf.net)
# (assimp v3.1.0)

mtllib BLDG_0003000b00447cca.obj.mtl

# 76 vertex positions
v  28.375 18.9514 -6.34379
v  28.4063 19.1534 -6.09542
v  30.326 19.076 -6.57338
v  16.9133 18.7208 -4.36292
v  16.9675 18.9228 -4.11899
v  18.8797 18.698 -4.7814
v  34.8779 19.718 -6.66623
v  1.28932 24.1902 5.62868
v  35.1982 24.1902 -1.09187
v  32.3043 19.4266 -6.52355
v  32.28 19.2254 -6.7724
v  25.8958 19.0282 -5.75563
v  23.3925 18.945 -5.36445
v  20.8976 18.9033 -4.92245
v  20.8523 18.7014 -5.16804
v  15.2184 18.9632 -3.72139
v  13.4753 19.025 -3.29805
v  10.1903 19.1459 -2.49453
v  10.1308 18.9449 -2.73611
v  8.04237 19.0213 -2.22596
v  5.68935 19.1082 -1.65005
v  4.89272 19.2192 -1.35212
v  4.86862 19.1391 -1.4484
v  3.15778 19.2834 -0.927404
v  3.19315 19.4047 -0.781483
v  0.000415482 19.5222 -0.00061753
v  35.5915 18.6965 5.75612
v  32.6469 18.8727 6.11754
v  30.7995 18.9834 6.34421
v  26.1402 19.2633 6.91469
v  21.4945 19.2399 7.86505
v  19.3513 19.2301 8.30214
v  16.3436 19.2163 8.91564
v  11.9615 19.0477 9.99674
v  11.0714 19.0132 10.2166
v  8.75571 18.9242 10.7877
v  7.64157 18.8824 11.0613
v  2.80598 18.6965 12.254
v  32.6465 -3.74628e-16 6.11814
v  30.7991 -3.88508e-16 6.34481
v  26.1398 -4.2344e-16 6.9153
v  21.494 -4.81632e-16 7.86565
v  19.3509 -5.08397e-16 8.30275
v  16.3432 -5.45963e-16 8.91625
v  11.961 -6.12161e-16 9.99734
v  11.071 -6.25624e-16 10.2172
v  8.7553 -6.60595e-16 10.7883
v  7.64117 -6.77347e-16 11.0619
v  2.80558 -7.50379e-16 12.2546
v  1.28881 -3.44704e-16 5.62945
v  0 0 0
v  3.19274 4.78144e-17 -0.780869
v  3.15737 5.67498e-17 -0.926794
v  4.89232 8.27565e-17 -1.35152
v  4.86821 8.86517e-17 -1.44779
v  5.68894 1.00999e-16 -1.64945
v  8.04196 1.36264e-16 -2.22536
v  10.1304 1.67502e-16 -2.73551
v  10.1899 1.52709e-16 -2.49392
v  13.4749 2.0191e-16 -3.29745
v  15.218 2.27833e-16 -3.72079
v  16.9671 2.52179e-16 -4.11839
v  16.9129 2.67115e-16 -4.36232
v  18.8793 2.9274e-16 -4.78081
v  20.8519 3.16415e-16 -5.16744
v  20.8972 3.01376e-16 -4.92185
v  23.392 3.28441e-16 -5.36385
v  25.8953 3.52394e-16 -5.75503
v  28.4059 3.732e-16 -6.09481
v  28.3746 3.88408e-16 -6.34319
v  30.3256 4.02467e-16 -6.57278
v  32.2796 4.14653e-16 -6.77179
v  32.3039 3.99414e-16 -6.52293
v  34.8775 4.08151e-16 -6.66561
v  35.1977 6.6811e-17 -1.09111
v  35.5911 -3.52497e-16 5.75671

# 0 UV coordinates

# 136 vertex normals
vn -0.122246 0.77757 -0.616799
vn -0.122246 0.777571 -0.616798
vn -0.122246 0.777569 -0.6168
vn -0.122246 0.777569 -0.616799
vn -0.122246 0.77757 -0.616799
vn -0.122246 0.77757 -0.616799
vn -0.122246 0.777569 -0.6168
vn -0.122246 0.777569 -0.6168
vn -0.122247 0.777568 -0.616801
vn -0.122245 0.777571 -0.616798
vn -0.122246 0.777569 -0.6168
vn -0.122246 0.777569 -0.6168
vn -0.122247 0.777568 -0.616801
vn -0.122246 0.777569 -0.6168
vn -0.122246 0.77757 -0.616799
vn -0.122248 0.777569 -0.6168
vn -0.122247 0.777571 -0.616798
vn -0.122246 0.77757 -0.616799
vn -0.122246 0.777569 -0.6168
vn 0.122243 0.777583 0.616783
vn 0.122243 0.777582 0.616785
vn 0.122243 0.777584 0.616782
vn 0.122243 0.777583 0.616784
vn 0.122243 0.777583 0.616783
vn 0.122243 0.777582 0.616784
vn 0.122243 0.777582 0.616784
vn 0.122243 0.777583 0.616783
vn 0.122243 0.777583 0.616783
vn 0.122243 0.777583 0.616783
vn 0.122243 0.777583 0.616783
vn 0.122243 0.777583 0.616783
vn 0.121782 2.88199e-05 0.992557
vn 0.121782 2.88133e-05 0.992557
vn 0.121533 2.88138e-05 0.992587
vn 0.121533 2.8824e-05 0.992587
vn 0.200414 2.67126e-05 0.979711
vn 0.200414 2.6727e-05 0.979711
vn 0.199833 2.66919e-05 0.97983
vn 0.199834 2.67265e-05 0.97983
vn 0.199864 2.67777e-05 0.979824
vn 0.199863 2.66918e-05 0.979824
vn 0.239523 2.56244e-05 0.970891
vn 0.239523 2.56525e-05 0.970891
vn 0.239817 2.56139e-05 0.970818
vn 0.239817 2.56162e-05 0.970818
vn 0.239459 2.5574e-05 0.970906
vn 0.23946 2.56225e-05 0.970906
vn 0.23847 2.56276e-05 0.97115
vn 0.23847 2.56011e-05 0.97115
vn 0.239473 2.56551e-05 0.970903
vn 0.239473 2.55953e-05 0.970903
vn -0.97478 2.78155e-05 0.223167
vn -0.97478 2.7803e-05 0.223167
vn -0.97478 2.7803e-05 0.223167
vn -0.97478 2.78051e-05 0.223167
vn -0.237574 -2.56704e-05 -0.971369
vn -0.237574 -2.56736e-05 -0.971369
vn -0.971862 2.81333e-05 0.235551
vn -0.971862 2.81308e-05 0.235551
vn -0.237782 -2.56662e-05 -0.971319
vn -0.237782 -2.56642e-05 -0.971318
vn -0.970054 2.83333e-05 0.24289
vn -0.970053 2.8322e-05 0.242892
vn -0.238603 -2.56385e-05 -0.971117
vn -0.238603 -2.56435e-05 -0.971117
vn -0.237739 -2.56686e-05 -0.971329
vn -0.237738 -2.56638e-05 -0.971329
vn -0.2373 -2.56765e-05 -0.971437
vn -0.2373 -2.56816e-05 -0.971437
vn 0.971 -2.82144e-05 -0.239081
vn 0.971 -2.82401e-05 -0.23908
vn -0.237599 -2.56706e-05 -0.971363
vn -0.237598 -2.56628e-05 -0.971363
vn -0.236 -2.57092e-05 -0.971753
vn -0.236 -2.57189e-05 -0.971753
vn -0.221664 -2.61305e-05 -0.975123
vn -0.221664 -2.61238e-05 -0.975123
vn -0.976147 2.76268e-05 0.21711
vn -0.976148 2.76541e-05 0.217108
vn -0.208153 -2.65097e-05 -0.978096
vn -0.208153 -2.65171e-05 -0.978096
vn -0.192347 -2.69563e-05 -0.981327
vn -0.192347 -2.69514e-05 -0.981327
vn 0.983359 -2.66824e-05 -0.181676
vn 0.983359 -2.67097e-05 -0.181674
vn -0.174451 -2.74331e-05 -0.984666
vn -0.174451 -2.74296e-05 -0.984666
vn -0.154393 -2.79635e-05 -0.988009
vn -0.154394 -2.79897e-05 -0.988009
vn -0.134117 -2.85141e-05 -0.990965
vn -0.134117 -2.84738e-05 -0.990965
vn -0.992162 2.50946e-05 0.124959
vn -0.992161 2.50217e-05 0.124964
vn -0.116872 -2.89288e-05 -0.993147
vn -0.116872 -2.89398e-05 -0.993147
vn -0.101323 -2.9325e-05 -0.994854
vn -0.101323 -2.93092e-05 -0.994854
vn 0.995284 -2.43719e-05 -0.0970017
vn 0.995283 -2.41987e-05 -0.0970152
vn -0.0553509 -3.04061e-05 -0.998467
vn -0.0553509 -3.04047e-05 -0.998467
vn 0.998354 -2.30678e-05 -0.0573507
vn 0.998354 -2.30592e-05 -0.0573508
vn 0.998354 -2.32021e-05 -0.0573508
vn 0.121828 2.88136e-05 0.992551
vn 0.121828 2.87799e-05 0.992551
vn -1.04282e-23 -1 -6.12323e-17
vn -1.28102e-23 -1 -6.12323e-17
vn 0 -1 -6.12323e-17
vn -2.01124e-24 -1 -6.12323e-17
vn 1.43332e-23 -1 -6.12323e-17
vn -2.13478e-23 -1 -6.12324e-17
vn 5.70401e-24 -1 -6.12323e-17
vn 2.21579e-23 -1 -6.12323e-17
vn -9.25149e-24 -1 -6.12324e-17
vn -4.5412e-24 -1 -6.12323e-17
vn -2.34747e-23 -1 -6.12323e-17
vn 4.088e-24 -1 -6.12323e-17
vn -2.45779e-24 -1 -6.12323e-17
vn -4.36316e-23 -1 -6.12323e-17
vn 2.50094e-22 -1 -6.12323e-17
vn -3.0498e-24 -1 -6.12323e-17
vn 0 -1 -6.12323e-17
vn 4.47203e-24 -1 -6.12323e-17
vn -1.16611e-23 -1 -6.12323e-17
vn -7.04591e-24 -1 -6.12323e-17
vn 0 -1 -6.12323e-17
vn -5.87981e-23 -1 -6.12323e-17
vn 1.35502e-23 -1 -6.12323e-17
vn 6.46499e-23 -1 -6.12323e-17
vn -1.70465e-24 -1 -6.12323e-17
vn 1.05373e-23 -1 -6.12323e-17
vn 5.89837e-24 -1 -6.12323e-17
vn 1.07949e-23 -1 -6.12323e-17
vn 2.95849e-23 -1 -6.12323e-17
vn -3.45765e-23 -1 -6.12324e-17

# Mesh 'defaultobject' with 148 faces
g defaultobject
usemtl DefaultMaterial
f  1//1 2//1 3//1
f  4//2 5//2 6//2
f  7//3 8//3 9//3
f  8//3 7//3 10//4
f  8//3 10//4 11//5
f  8//3 11//5 3//1
f  8//3 3//1 2//1
f  8//3 2//1 12//6
f  8//3 12//6 13//7
f  8//3 13//7 14//8
f  8//3 14//8 15//9
f  8//3 15//9 6//2
f  8//3 6//2 5//2
f  8//3 5//2 16//10
f  8//3 16//10 17//11
f  8//3 17//11 18//12
f  8//3 18//12 19//13
f  8//3 19//13 20//14
f  8//3 20//14 21//15
f  8//3 21//15 22//16
f  22//16 21//15 23//17
f  24//18 25//18 22//16
f  8//3 25//18 26//19
f  25//18 8//3 22//16
f  9//20 8//20 27//20
f  28//21 27//20 8//20
f  29//22 28//21 8//20
f  30//23 29//22 8//20
f  31//24 30//23 8//20
f  32//25 31//24 8//20
f  33//26 32//25 8//20
f  34//27 33//26 8//20
f  35//28 34//27 8//20
f  36//29 35//28 8//20
f  37//30 36//29 8//20
f  38//31 37//30 8//20
f  39//32 29//32 40//32
f  29//32 39//32 28//33
f  40//34 30//34 41//34
f  30//34 40//34 29//35
f  41//36 31//36 42//36
f  31//36 41//36 30//37
f  42//38 32//38 43//38
f  32//38 42//38 31//39
f  43//40 33//40 44//40
f  33//40 43//40 32//41
f  44//42 34//42 45//42
f  34//42 44//42 33//43
f  45//44 35//44 46//44
f  35//44 45//44 34//45
f  46//46 36//46 47//46
f  36//46 46//46 35//47
f  47//48 37//48 48//48
f  37//48 47//48 36//49
f  48//50 38//50 49//50
f  38//50 48//50 37//51
f  38//52 50//52 49//52
f  50//52 38//52 8//53
f  8//53 51//54 50//52
f  51//54 8//53 26//55
f  26//56 52//56 51//56
f  52//56 26//56 25//57
f  25//58 53//58 52//58
f  53//58 25//58 24//59
f  24//60 54//60 53//60
f  54//60 24//60 22//61
f  22//62 55//62 54//62
f  55//62 22//62 23//63
f  23//64 56//64 55//64
f  56//64 23//64 21//65
f  21//66 57//66 56//66
f  57//66 21//66 20//67
f  20//68 58//68 57//68
f  58//68 20//68 19//69
f  58//70 18//70 59//70
f  18//70 58//70 19//71
f  18//72 60//72 59//72
f  60//72 18//72 17//73
f  17//74 61//74 60//74
f  61//74 17//74 16//75
f  16//76 62//76 61//76
f  62//76 16//76 5//77
f  5//78 63//78 62//78
f  63//78 5//78 4//79
f  4//80 64//80 63//80
f  64//80 4//80 6//81
f  6//82 65//82 64//82
f  65//82 6//82 15//83
f  65//84 14//84 66//84
f  14//84 65//84 15//85
f  14//86 67//86 66//86
f  67//86 14//86 13//87
f  13//88 68//88 67//88
f  68//88 13//88 12//89
f  12//90 69//90 68//90
f  69//90 12//90 2//91
f  2//92 70//92 69//92
f  70//92 2//92 1//93
f  1//94 71//94 70//94
f  71//94 1//94 3//95
f  3//96 72//96 71//96
f  72//96 3//96 11//97
f  72//98 10//98 73//98
f  10//99 72//99 11//99
f  10//100 74//100 73//100
f  74//100 10//100 7//101
f  74//102 9//102 75//102
f  9//102 74//102 7//103
f  75//102 27//104 76//104
f  27//104 75//102 9//102
f  76//105 28//105 39//105
f  28//105 76//105 27//106
f  39//107 75//107 76//107
f  75//107 39//107 74//108
f  74//108 39//107 40//109
f  74//108 40//109 73//110
f  73//110 40//109 41//111
f  73//110 41//111 72//112
f  72//112 41//111 71//113
f  71//113 41//111 69//114
f  71//113 69//114 70//115
f  42//116 69//114 41//111
f  69//114 42//116 68//117
f  68//117 42//116 67//118
f  67//118 42//116 43//109
f  67//118 43//109 66//119
f  66//119 43//109 44//120
f  66//119 44//120 65//121
f  65//121 44//120 64//122
f  64//122 44//120 45//123
f  64//122 45//123 62//124
f  62//124 45//123 61//125
f  61//125 45//123 46//123
f  61//125 46//123 60//126
f  60//126 46//123 47//127
f  60//126 47//127 59//109
f  59//109 47//127 48//128
f  59//109 48//128 49//129
f  59//109 49//129 58//130
f  58//130 49//129 57//123
f  57//123 49//129 56//131
f  56//131 49//129 50//132
f  56//131 50//132 54//133
f  54//133 50//132 52//127
f  52//127 50//132 51//123
f  53//134 54//133 52//127
f  55//135 56//131 54//133
f  63//136 64//122 62//124

