# {"id":"BLDG_00030000001cefe6","idOriginal":"BLDG_00030000001cefe6","origin":[13.361140606585433,52.54231115136808],"elevation":35.1500015258789}
# Longitude: 13.361140606585433
# Latitude: 52.54231115136808
# Elevation: 35.1500015258789

# File produced by Open Asset Import Library (http://www.assimp.sf.net)
# (assimp v3.1.0)

mtllib BLDG_00030000001cefe6.obj.mtl

# 8 vertex positions
v  0.000110642 5.19167 -0.00016442
v  7.80091 5.19167 0.552306
v  3.64949 5.19167 -3.70728
v  4.06297 5.19167 4.23088
v  0 0 0
v  4.06285 -2.59077e-16 4.23105
v  7.8008 -3.3829e-17 0.55247
v  3.64938 2.26995e-16 -3.70711

# 0 UV coordinates

# 9 vertex normals
vn -0 1 0
vn -0.721298 3.7317e-05 0.692625
vn -0.721298 3.73074e-05 0.692625
vn 0.701424 7.63573e-06 0.712744
vn 0.716141 -3.73689e-05 -0.697955
vn -0.712634 -7.03042e-06 -0.701536
vn -0.712634 -7.04454e-06 -0.701536
vn -8.605e-25 -1 -6.12323e-17
vn -4.27834e-25 -1 -6.12323e-17

# Mesh 'defaultobject' with 12 faces
g defaultobject
usemtl DefaultMaterial
f  1//1 2//1 3//1
f  2//1 1//1 4//1
f  4//2 5//2 6//2
f  5//2 4//2 1//3
f  7//4 4//4 6//4
f  4//4 7//4 2//4
f  8//5 2//5 7//5
f  2//5 8//5 3//5
f  1//6 8//6 5//6
f  8//6 1//6 3//7
f  5//8 7//8 6//8
f  7//8 5//8 8//9

