# {"id":"BLDG_00030009007adaf1","idOriginal":"BLDG_00030009007adaf1","origin":[13.36413637721692,52.505345168696365],"elevation":34.0800018310547}
# Longitude: 13.36413637721692
# Latitude: 52.505345168696365
# Elevation: 34.0800018310547

# File produced by Open Asset Import Library (http://www.assimp.sf.net)
# (assimp v3.1.0)

mtllib BLDG_00030009007adaf1.obj.mtl

# 44 vertex positions
v  14.0364 -2.9576e-16 4.83013
v  6.08276 -1.60599e-16 2.62278
v  6.23585 -1.31442e-16 2.14661
v  2.92034 -7.63194e-16 12.4639
v  13.9352 -3.1504e-16 5.145
v  10.7728 -9.17691e-16 14.987
v  0.83177 -0.0700035 -13.9716
v  19.7562 -0.0700035 -12.9667
v  2.20367 -0.0700035 -8.3858
v  -0.540126 -0.0700035 -19.5574
v  21.8377 -0.0700035 -19.4537
v  23.9191 -0.0700035 -25.9408
v  7.88422 -0.150002 -7.27898
v  0 -0.150002 -9.18494e-18
v  2.89008 -0.150002 -8.99768
v  16.9264 -0.150002 -4.16716
v  15.4814 -0.150002 0.331683
v  14.0363 -0.150002 4.83052
v  4.86639 -0.150002 1.67474
v  6.23597 5.7819 2.14642
v  13.9353 5.7819 5.14482
v  14.0366 5.7819 4.82995
v  10.7729 5.7819 14.9868
v  2.92046 5.7819 12.4637
v  6.08288 5.7819 2.6226
v  21.8382 27.1497 -19.4546
v  -0.539662 21.6942 -19.5581
v  0.83235 27.1497 -13.9725
v  23.9196 21.6942 -25.9415
v  19.7567 21.6942 -12.9674
v  2.20413 21.6942 -8.38649
v  4.98686 22.9024 1.31804
v  15.4819 26.5085 0.330841
v  6.37587 26.5085 -2.80296
v  14.0368 22.5908 4.82981
v  4.86687 22.5908 1.67402
v  7.76473 22.9024 -6.92373
v  16.9269 22.5908 -4.16788
v  7.8847 22.5908 -7.27969
v  0.000491324 22.9024 -0.00072826
v  4.86688 22.9024 1.67401
v  2.89057 22.9024 -8.99841
v  6.37579 22.9024 -2.80285
v  7.88471 22.9024 -7.2797

# 0 UV coordinates

# 58 vertex normals
vn 0 -1 -6.12323e-17
vn 1.24193e-24 -1 -6.12323e-17
vn 0 -1 -6.12325e-17
vn -1.24179e-24 -1 -6.12323e-17
vn 0 -1 0
vn 0 1 0
vn -0.17379 0.725505 -0.665913
vn -0.17379 0.725505 -0.665913
vn 0.173786 0.725521 0.665896
vn 0.173786 0.725521 0.665896
vn -0.207719 0.769769 0.603579
vn -0.207719 0.769769 0.603579
vn -0.207718 0.76977 0.603579
vn 0.207726 0.76975 -0.603601
vn 0.207726 0.76975 -0.603601
vn 0.207726 0.76975 -0.603601
vn -0.971139 2.82273e-05 0.238515
vn -0.971139 2.82369e-05 0.238515
vn -0.971139 2.82431e-05 0.238515
vn -0.971139 2.82342e-05 0.238515
vn 0.952185 -1.06118e-05 0.305521
vn 0.952185 -1.0651e-05 0.305521
vn 0.952186 -1.06252e-05 0.305521
vn 0.952185 -1.06997e-05 0.305521
vn -0.252523 -2.52299e-05 -0.967591
vn -0.252523 -2.5234e-05 -0.967591
vn 0.252523 2.51987e-05 0.967591
vn 0.952091 -1.06197e-05 0.305814
vn 0.952091 -1.06634e-05 0.305814
vn 0.952091 -1.0666e-05 0.305814
vn 0.952091 -1.04838e-05 0.305814
vn -0.947622 1.00802e-05 -0.319394
vn -0.947622 1.00802e-05 -0.319394
vn -0.325413 3.68057e-05 0.945572
vn -0.325413 3.68071e-05 0.945572
vn -0.325413 3.68089e-05 0.945572
vn -0.325413 3.68078e-05 0.945572
vn -0.325413 3.68821e-05 0.945572
vn 0.325413 -3.68119e-05 -0.945572
vn 0.325413 -3.67614e-05 -0.945572
vn 0.325413 -3.68228e-05 -0.945572
vn 0.325413 -3.70979e-05 -0.945572
vn 0.947622 -1.02853e-05 0.319395
vn 0.947622 -1.00409e-05 0.319394
vn -0.952091 1.06312e-05 -0.305814
vn -0.952091 1.06289e-05 -0.305814
vn 0.325305 -3.67899e-05 -0.945609
vn 0.325305 -3.68679e-05 -0.945609
vn -0.952009 1.06673e-05 -0.306068
vn -0.95201 1.05888e-05 -0.306068
vn -0.952051 1.06582e-05 -0.30594
vn -0.952051 1.06722e-05 -0.30594
vn -0.305915 3.65566e-05 0.952059
vn -0.305915 3.65166e-05 0.952059
vn 0.952059 -1.06263e-05 0.305916
vn 0.952059 -1.05944e-05 0.305916
vn 0.95201 -1.05877e-05 0.306068
vn 0.95201 -1.05624e-05 0.306068

# Mesh 'defaultobject' with 76 faces
g defaultobject
usemtl DefaultMaterial
f  1//1 2//1 3//1
f  2//1 1//1 4//2
f  4//2 1//1 5//3
f  4//2 5//3 6//4
f  7//5 8//5 9//5
f  8//5 7//5 10//5
f  8//5 10//5 11//5
f  11//5 10//5 12//5
f  13//5 14//5 15//5
f  14//5 13//5 16//5
f  14//5 16//5 17//5
f  14//5 17//5 18//5
f  14//5 18//5 19//4
f  20//6 21//6 22//6
f  21//6 20//6 23//6
f  23//6 20//6 24//6
f  24//6 20//6 25//6
f  26//7 27//7 28//7
f  27//7 26//7 29//8
f  30//9 28//9 31//9
f  28//9 30//9 26//10
f  32//11 33//11 34//11
f  33//11 32//11 35//12
f  35//12 32//11 36//13
f  37//14 38//14 39//14
f  38//14 37//14 33//15
f  33//15 37//14 34//16
f  32//6 40//6 41//6
f  40//6 32//6 42//6
f  42//6 32//6 43//6
f  42//6 43//6 37//6
f  42//6 37//6 44//6
f  31//17 7//17 9//17
f  7//17 31//17 10//18
f  10//18 31//17 27//19
f  27//19 31//17 28//20
f  29//21 11//21 12//21
f  11//21 29//21 8//22
f  8//22 29//21 30//23
f  30//23 29//21 26//24
f  27//25 12//25 10//25
f  12//25 27//25 29//26
f  8//27 31//27 9//27
f  31//27 8//27 30//27
f  38//28 17//28 16//28
f  17//28 38//28 18//29
f  18//29 38//28 35//30
f  35//30 38//28 33//31
f  34//32 43//32 32//32
f  43//32 34//32 37//33
f  35//34 19//20 18//34
f  19//20 35//34 14//35
f  14//35 35//34 36//36
f  14//35 36//36 40//37
f  40//37 36//36 41//38
f  16//39 39//39 38//39
f  39//39 16//39 42//40
f  42//40 16//39 15//41
f  15//6 16//6 13//6
f  42//40 44//42 39//39
f  36//43 32//43 41//43
f  44//44 37//44 39//44
f  40//45 15//45 14//45
f  15//45 40//45 42//46
f  20//47 1//47 3//47
f  1//47 20//47 22//48
f  25//49 3//49 2//49
f  3//49 25//49 20//50
f  24//51 2//51 4//51
f  2//51 24//51 25//52
f  6//53 24//53 4//53
f  24//53 6//53 23//54
f  5//55 23//55 6//55
f  23//55 5//55 21//56
f  1//57 21//57 5//57
f  21//57 1//57 22//58

