# {"id":"BLDG_0003000e006131c1","idOriginal":"BLDG_0003000e006131c1","origin":[13.365833040607392,52.552301349805795],"elevation":37.2799987792969}
# Longitude: 13.365833040607392
# Latitude: 52.552301349805795
# Elevation: 37.2799987792969

# File produced by Open Asset Import Library (http://www.assimp.sf.net)
# (assimp v3.1.0)

mtllib BLDG_0003000e006131c1.obj.mtl

# 36 vertex positions
v  13.13 4.75544e-16 -7.76623
v  8.05171 7.67679e-16 -12.5371
v  12.9736 7.76515e-16 -12.6815
v  13.3681 1.72842e-17 -0.282272
v  5.42906 7.6297e-16 -12.4602
v  8.20683 4.69179e-16 -7.66227
v  8.44498 1.09188e-17 -0.178318
v  13.5457 -3.2436e-16 5.29721
v  13.7232 -6.66005e-16 10.8767
v  5.89542 7.62242e-18 -0.124484
v  0 0 0
v  8.80136 -6.74842e-16 11.021
v  0.212968 -3.4494e-16 5.63329
v  6.31953 -6.79298e-16 11.0938
v  0.425936 -6.89879e-16 11.2666
v  5.61252 4.65825e-16 -7.60749
v  5.89564 10.3855 -0.124813
v  8.44521 10.3855 -0.178647
v  0.000221402 10.3855 -0.00032912
v  8.05193 10.3855 -12.5375
v  12.9739 14.0751 -12.6819
v  8.20706 10.3855 -7.6626
v  5.6127 8.42 -7.60776
v  8.20706 10.39 -7.6626
v  5.42924 8.42 -12.4605
v  8.05193 10.39 -12.5375
v  13.7234 10.3855 10.8764
v  13.1303 14.0751 -7.76667
v  13.3684 14.0751 -0.282718
v  13.546 14.0751 5.29676
v  8.80158 10.3855 11.0207
v  6.31975 10.3855 11.0934
v  0.426157 10.3855 11.2663
v  0.213268 14.0751 5.63285
v  6.10777 14.0751 5.4842
v  8.62347 14.0751 5.4209

# 0 UV coordinates

# 60 vertex normals
vn 4.37253e-24 -1 -6.12323e-17
vn 1.1487e-23 -1 -6.12323e-17
vn -1.50447e-23 -1 -6.12323e-17
vn 9.93308e-23 -1 -6.12324e-17
vn 0 -1 -6.12323e-17
vn -2.32439e-25 -1 -6.12323e-17
vn -1.00522e-25 -1 -6.12323e-17
vn 0 -1 -6.12323e-17
vn 0 -1 -6.12323e-17
vn -1.51295e-23 -1 -6.12323e-17
vn -1.10294e-23 -1 -6.12323e-17
vn -0.0211106 -3.12304e-05 -0.999777
vn -0.0211106 -3.12309e-05 -0.999777
vn -0.0211106 -3.12332e-05 -0.999777
vn -0.0293093 -3.10425e-05 -0.99957
vn -0.0293093 -3.10707e-05 -0.99957
vn -0.999494 2.23929e-05 0.0318053
vn -0.999494 2.23008e-05 0.0318054
vn 0.0211105 3.12571e-05 0.999777
vn 0.0211104 3.12237e-05 0.999777
vn 0.0210539 0.000105818 0.999778
vn -0.999286 2.24763e-05 0.0377783
vn -0.999286 2.25329e-05 0.0377782
vn -0.0293095 -3.10742e-05 -0.99957
vn -0.0293326 0 -0.99957
vn 0.999494 -2.23007e-05 -0.0318054
vn 0.999494 -2.22997e-05 -0.0318054
vn 0.999494 -2.23383e-05 -0.0318054
vn 0.999494 -2.26314e-05 -0.0318052
vn 0.999494 -2.23362e-05 -0.0318054
vn 0.999494 -2.1497e-05 -0.0318052
vn 0.999494 -2.23516e-05 -0.0318054
vn 0.999494 -2.24452e-05 -0.0318054
vn 0.0293094 3.10415e-05 0.99957
vn 0.0293093 3.09509e-05 0.99957
vn 0.0293093 3.10122e-05 0.99957
vn 0.0293094 3.1151e-05 0.99957
vn 0.0293093 3.10447e-05 0.99957
vn -0.999286 2.24999e-05 0.0377782
vn -0.999286 2.25056e-05 0.0377782
vn -0.999286 2.25004e-05 0.0377782
vn -0.999286 2.24898e-05 0.0377782
vn -0.599342 0.800266 0.0190719
vn -0.599342 0.800266 0.019072
vn -0.599238 0.800345 0.0190026
vn -0.593236 0.804924 0.0129634
vn -0.604287 0.79644 0.0228451
vn -0.598873 0.800617 0.0190571
vn -0.599679 0.800001 0.0195642
vn 0.0138063 0.836705 0.54748
vn 0.0137759 0.836719 0.547459
vn 0.0138066 0.836699 0.547489
vn 0.0161608 0.83425 0.55115
vn 0.0161608 0.83425 0.55115
vn 0 -1 0
vn -0.0116409 0.834226 -0.5513
vn -0.0116409 0.834226 -0.5513
vn -0.0138065 0.836701 -0.547486
vn -0.0137774 0.83668 -0.547519
vn -0.0138068 0.836695 -0.547496

# Mesh 'defaultobject' with 66 faces
g defaultobject
usemtl DefaultMaterial
f  1//1 2//1 3//1
f  2//1 1//1 4//2
f  2//1 4//2 5//3
f  5//3 4//2 6//4
f  6//4 4//2 7//5
f  7//5 4//2 8//5
f  7//5 8//5 9//5
f  7//5 9//5 10//6
f  10//6 9//5 11//7
f  11//7 9//5 12//8
f  11//7 12//8 13//9
f  13//9 12//8 14//10
f  13//9 14//10 15//5
f  16//11 5//3 6//4
f  7//12 17//12 18//12
f  17//12 7//12 19//13
f  19//13 7//12 11//14
f  11//14 7//12 10//6
f  20//15 3//15 2//15
f  3//15 20//15 21//16
f  18//17 6//17 7//17
f  6//17 18//17 22//18
f  6//19 23//19 16//19
f  23//19 6//19 22//20
f  23//21 22//21 24//21
f  23//22 5//22 16//22
f  5//22 23//22 25//23
f  25//24 2//15 5//24
f  2//15 25//24 20//15
f  20//25 25//25 26//25
f  8//26 27//26 9//26
f  27//26 8//26 4//27
f  27//26 4//27 1//28
f  27//26 1//28 3//29
f  27//26 3//29 21//30
f  27//26 21//30 28//31
f  27//26 28//31 29//32
f  27//26 29//32 30//33
f  31//34 9//34 27//34
f  9//34 31//34 32//35
f  9//34 32//35 33//36
f  9//34 33//36 12//37
f  12//37 33//36 15//38
f  12//8 15//5 14//10
f  33//39 13//39 15//39
f  13//39 33//39 11//40
f  11//40 33//39 19//41
f  19//41 33//39 34//42
f  20//43 28//43 21//43
f  28//43 20//43 29//44
f  29//45 20//45 25//45
f  29//46 25//46 24//46
f  24//47 25//47 23//47
f  24//48 30//48 29//48
f  30//49 24//49 18//49
f  33//50 35//50 34//50
f  35//51 33//51 36//51
f  36//52 33//52 30//52
f  30//53 33//53 31//53
f  30//53 31//53 27//54
f  31//55 33//55 32//55
f  17//56 30//56 18//56
f  30//56 17//56 19//57
f  30//58 19//58 36//58
f  36//59 19//59 35//59
f  35//60 19//60 34//60

