# {"id":"BLDG_00030008002ac6c8","idOriginal":"BLDG_00030008002ac6c8","origin":[13.341938715023169,52.54988802863107],"elevation":34.9799995422363}
# Longitude: 13.341938715023169
# Latitude: 52.54988802863107
# Elevation: 34.9799995422363

# File produced by Open Asset Import Library (http://www.assimp.sf.net)
# (assimp v3.1.0)

mtllib BLDG_00030008002ac6c8.obj.mtl

# 46 vertex positions
v  3.38865 20.1141 -15.205
v  0.000438147 20.1141 -0.00065223
v  10.0495 20.1141 -8.70674
v  -5.86939 20.1141 -5.71497
v  -4.04722 20.1141 -3.94039
v  -0.208717 20.1141 0.214315
v  -0.653337 20.1141 -0.218082
v  -5.5749 20.1141 -5.42741
v  -4.25544 20.1141 -3.7264
v  1.52694 23.0396 1.48717
v  10.0495 23.0396 -8.70684
v  0.000500419 23.0396 -0.00074493
v  12.0172 23.0396 -7.11853
v  10.2095 23.0396 -8.87079
v  11.0676 23.0396 -6.14668
v  5.57366 23.0396 5.42788
v  12.5116 23.0396 -4.73731
v  19.5764 23.0396 0.612741
v  13.2869 23.0396 -5.53045
v  7.11038 23.0396 6.92102
v  6.90031 23.0396 7.13604
v  8.97746 23.0396 9.15839
v  10.2156 23.0396 10.1959
v  10.049 5.33095e-16 -8.70611
v  -5.86982 3.49902e-16 -5.71434
v  3.38822 9.31001e-16 -15.2044
v  1.0004e-05 9.11749e-22 -1.489e-05
v  -5.57533 3.32294e-16 -5.42677
v  -4.04764 2.4124e-16 -3.93975
v  -4.25587 2.28137e-16 -3.72576
v  -0.653765 1.33146e-17 -0.217444
v  -0.209145 -1.3162e-17 0.214952
v  8.97696 -0.470001 9.15913
v  6.89981 -0.470001 7.13679
v  7.10988 -0.470001 6.92176
v  10.049 -0.470001 -8.70609
v  1.52644 -0.470001 1.48791
v  0 -0.470001 -2.87793e-17
v  5.57316 -0.470001 5.42862
v  10.2151 -0.470001 10.1966
v  11.0671 -0.470001 -6.14594
v  12.0167 -0.470001 -7.11778
v  10.209 -0.470001 -8.87004
v  12.5111 -0.470001 -4.73657
v  19.5759 -0.470001 0.613486
v  13.2864 -0.470001 -5.52971

# 0 UV coordinates

# 47 vertex normals
vn 0 1 -0
vn 8.58204e-25 -1 -6.12323e-17
vn 9.75604e-25 -1 -6.12323e-17
vn -1.67528e-20 -1 -6.12148e-17
vn 1.92747e-19 -1 -6.14863e-17
vn -1.96188e-24 -1 -6.12323e-17
vn -3.5049e-23 -1 -6.12323e-17
vn 0 -1 -6.12323e-17
vn 0 -1 0
vn -0.715803 -6.89484e-06 -0.698303
vn -0.715803 -6.87829e-06 -0.698303
vn -0.698642 3.75505e-05 0.715471
vn -0.697506 3.75364e-05 0.716579
vn -0.697506 3.75615e-05 0.716579
vn -0.716706 -6.83798e-06 -0.697376
vn -0.716706 -6.85493e-06 -0.697375
vn -0.697719 3.75504e-05 0.716371
vn -0.697719 3.75509e-05 0.716371
vn -0.697184 3.75561e-05 0.716893
vn -0.697184 3.75556e-05 0.716893
vn 0.71673 6.83954e-06 0.697351
vn 0.654799 9.98488e-06 0.755803
vn -0.698011 3.75486e-05 0.716087
vn -0.698011 3.75477e-05 0.716087
vn -0.697661 3.75412e-05 0.716428
vn -0.697661 3.75519e-05 0.716428
vn -0.696864 3.75488e-05 0.717203
vn -0.715298 -6.90611e-06 -0.69882
vn -0.715298 -6.92058e-06 -0.698819
vn -0.697591 3.75278e-05 0.716496
vn -0.697591 3.75561e-05 0.716496
vn -0.642286 3.79613e-05 0.766465
vn -0.642286 3.79353e-05 0.766465
vn 0.715356 6.90403e-06 0.69876
vn 0.715357 6.92826e-06 0.69876
vn 0.698737 -3.75023e-05 -0.715378
vn 0.698737 -3.75576e-05 -0.715378
vn -0.715132 -6.94403e-06 -0.69899
vn -0.715132 -6.92921e-06 -0.69899
vn 0.698468 -3.75185e-05 -0.715642
vn 0.698468 -3.75487e-05 -0.715642
vn 0.715273 6.90789e-06 0.698845
vn 0.696021 -3.75716e-05 -0.718021
vn -0.715742 -6.88221e-06 -0.698364
vn -0.654799 -1.00106e-05 -0.755803
vn -0.654799 -9.99986e-06 -0.755803
vn 0.69832 -3.75206e-05 -0.715786

# Mesh 'defaultobject' with 84 faces
g defaultobject
usemtl DefaultMaterial
f  1//1 2//1 3//1
f  2//1 1//1 4//1
f  2//1 4//1 5//1
f  2//1 5//1 6//1
f  6//1 5//1 7//1
f  5//1 4//1 8//1
f  9//1 7//1 5//1
f  10//1 11//1 12//1
f  11//1 13//1 14//1
f  13//1 11//1 10//1
f  13//1 10//1 15//1
f  15//1 10//1 16//1
f  15//1 16//1 17//1
f  17//1 18//1 19//1
f  18//1 17//1 16//1
f  18//1 16//1 20//1
f  18//1 20//1 21//1
f  18//1 21//1 22//1
f  18//1 22//1 23//1
f  24//2 25//2 26//2
f  25//2 24//2 27//3
f  25//2 27//3 28//4
f  28//4 27//3 29//5
f  29//5 27//3 30//6
f  30//6 27//3 31//7
f  31//7 27//3 32//8
f  33//9 34//9 35//9
f  36//9 37//9 38//9
f  37//9 36//9 39//9
f  39//9 36//9 35//9
f  35//9 36//9 33//9
f  33//9 36//9 40//9
f  40//9 36//9 41//9
f  41//9 36//9 42//9
f  42//9 36//9 43//9
f  40//9 44//9 45//9
f  44//9 40//9 41//9
f  45//9 44//9 46//9
f  4//10 26//10 25//10
f  26//10 4//10 1//11
f  8//12 25//12 28//12
f  25//12 8//12 4//12
f  5//13 28//13 29//13
f  28//13 5//13 8//14
f  9//15 29//15 30//15
f  29//15 9//15 5//16
f  7//17 30//17 31//17
f  30//17 7//17 9//18
f  6//19 31//19 32//19
f  31//19 6//19 7//20
f  27//21 6//21 32//21
f  6//21 27//21 2//21
f  24//22 2//22 27//22
f  2//22 24//22 3//22
f  10//23 38//23 37//23
f  38//23 10//23 12//24
f  16//25 37//25 39//25
f  37//25 16//25 10//26
f  20//27 39//27 35//27
f  39//27 20//27 16//27
f  21//28 35//28 34//28
f  35//28 21//28 20//29
f  22//30 34//30 33//30
f  34//30 22//30 21//31
f  23//32 33//32 40//32
f  33//32 23//32 22//33
f  45//34 23//34 40//34
f  23//34 45//34 18//35
f  46//36 18//36 45//36
f  18//36 46//36 19//37
f  17//38 46//38 44//38
f  46//38 17//38 19//39
f  41//40 17//40 44//40
f  17//40 41//40 15//41
f  42//42 15//42 41//42
f  15//42 42//42 13//42
f  43//43 13//43 42//43
f  13//43 43//43 14//43
f  11//44 43//44 36//44
f  43//44 11//44 14//44
f  12//45 36//45 38//45
f  36//45 12//45 11//46
f  26//47 3//47 24//47
f  3//47 26//47 1//47

