# {"id":"BLDG_00030009000dca0e","idOriginal":"BLDG_00030009000dca0e","origin":[13.391547495851086,52.55840222908979],"elevation":42.1199989318848}
# Longitude: 13.391547495851086
# Latitude: 52.55840222908979
# Elevation: 42.1199989318848

# File produced by Open Asset Import Library (http://www.assimp.sf.net)
# (assimp v3.1.0)

mtllib BLDG_00030009000dca0e.obj.mtl

# 24 vertex positions
v  17.828 18.6641 -6.20942
v  15.045 20.0961 -7.58279
v  17.8281 20.5412 -6.20948
v  6.09026 4.79217 -12.001
v  7.72946 18.6641 -15.2309
v  7.72916 4.48399 -15.2304
v  6.09056 18.6641 -12.0014
v  19.4665 5.7793e-16 -9.43832
v  7.72906 9.32586e-16 -15.2303
v  19.4669 18.6641 -9.43891
v  17.8276 3.80181e-16 -6.20883
v  11.7699 18.6641 5.72827
v  0 0 0
v  11.7695 -3.50791e-16 5.72886
v  0.000398546 18.6641 -0.00059169
v  8.36088 20.4136 4.06884
v  1.92511 19.5643 0.936233
v  6.09016 7.34837e-16 -12.0008
v  8.01018 19.5643 -11.0542
v  14.428 20.4136 -7.88726
v  3.62931 4.48399 -13.2153
v  3.62921 8.09196e-16 -13.2152
v  5.32426 1.00525e-15 -16.417
v  5.32435 4.48399 -16.4171

# 0 UV coordinates

# 35 vertex normals
vn 0.442515 -3.76904e-05 -0.896761
vn -0.891743 4.67979e-06 -0.452541
vn -0.891743 4.66037e-06 -0.452542
vn 0.442515 -3.78953e-05 -0.896761
vn 0.442515 -3.79066e-05 -0.896761
vn 0.891743 -4.70486e-06 0.452542
vn 0.891743 -4.69127e-06 0.452542
vn -0.437661 3.78554e-05 0.89914
vn -0.437661 3.78502e-05 0.89914
vn -0.437661 3.78136e-05 0.89914
vn -0.437661 3.80446e-05 0.89914
vn -0.891743 4.69546e-06 -0.452542
vn 0.442515 -3.76774e-05 -0.896761
vn 0.442515 -3.71441e-05 -0.896761
vn 0.891743 -4.70244e-06 0.452541
vn -0.442515 3.78595e-05 0.896761
vn -0.442516 3.77997e-05 0.896761
vn -0.88379 4.0166e-06 -0.467884
vn -0.88379 4.06912e-06 -0.467884
vn 0.442516 -3.76392e-05 -0.896761
vn 0.442515 -3.78299e-05 -0.896761
vn -4.46761e-24 -1 -6.12323e-17
vn 1.78705e-23 -1 -6.12323e-17
vn 4.80905e-24 -1 -6.12323e-17
vn 2.13083e-23 -1 -6.12323e-17
vn -0.126599 0.989871 -0.0642466
vn 0.203646 0.887815 -0.41269
vn -0.345687 0.921804 -0.175434
vn -0.345711 0.921794 -0.175441
vn -0.105098 0.993031 -0.0533325
vn -0.10509 0.993032 -0.0533328
vn 0.373636 0.907988 0.189613
vn 0.373663 0.907977 0.189617
vn -0.0986684 0.993748 -0.0522357
vn 0.0375231 0.996398 -0.0760408

# Mesh 'defaultobject' with 39 faces
g defaultobject
usemtl DefaultMaterial
f  1//1 2//1 3//1
f  4//2 5//2 6//2
f  5//2 4//2 7//3
f  5//4 8//4 9//4
f  8//4 5//4 10//5
f  8//6 3//6 11//6
f  3//6 8//6 10//7
f  12//8 13//8 14//8
f  13//8 12//8 15//9
f  15//9 12//8 16//10
f  15//9 16//10 17//11
f  15//12 18//12 13//12
f  18//12 15//12 7//3
f  19//13 2//1 7//13
f  2//1 19//13 20//14
f  11//6 12//15 14//15
f  12//15 11//6 1//15
f  18//16 21//16 22//16
f  21//16 18//16 4//17
f  21//18 23//18 22//18
f  23//18 21//18 24//19
f  24//20 9//4 23//20
f  9//4 24//20 6//21
f  9//22 11//22 18//22
f  11//22 9//22 8//23
f  18//22 14//24 13//24
f  14//24 18//22 11//22
f  23//25 18//22 22//25
f  18//22 23//25 9//22
f  7//26 3//26 5//26
f  5//27 3//27 10//27
f  7//28 17//28 19//28
f  17//29 7//29 15//29
f  19//30 16//30 20//30
f  16//30 19//30 17//31
f  20//32 12//32 1//32
f  12//33 20//33 16//33
f  21//34 4//34 24//34
f  24//35 4//35 6//35

