# {"id":"BLDG_00030009005bf678","idOriginal":"BLDG_00030009005bf678","origin":[13.39054965574088,52.51117052315487],"elevation":34.2700004577637}
# Longitude: 13.39054965574088
# Latitude: 52.51117052315487
# Elevation: 34.2700004577637

# File produced by Open Asset Import Library (http://www.assimp.sf.net)
# (assimp v3.1.0)

mtllib BLDG_00030009005bf678.obj.mtl

# 208 vertex positions
v  31.6321 25.73 71.6551
v  -23.6296 25.73 76.399
v  31.6523 25.73 71.9203
v  31.473 25.73 69.5621
v  -23.4378 25.73 73.8098
v  -23.7098 25.73 70.9809
v  -23.8861 25.73 73.8284
v  -29.2463 25.73 71.3083
v  -29.0073 25.73 74.193
v  29.6513 22.73 74.2281
v  29.5707 22.73 72.9989
v  -23.7905 22.73 78.4332
v  -28.8033 22.73 76.6571
v  -23.8862 22.73 73.8285
v  -29.0074 22.73 74.1931
v  -23.9783 22.73 76.3729
v  -23.6297 22.73 76.3991
v  -23.9236 22.73 76.9687
v  31.6522 22.73 71.9204
v  31.7254 22.73 72.8977
v  31.7032 22.73 72.5924
v  -29.6923 25.73 65.7628
v  -31.57 25.73 71.462
v  -32.0565 25.73 66.5866
v  -34.5039 25.73 66.7844
v  -32.0869 25.73 66.043
v  -37.1206 25.73 35.5866
v  -34.618 25.73 35.3611
v  -32.0566 22.73 66.5867
v  -33.8209 22.73 71.6109
v  -31.5701 22.73 71.4621
v  -34.179 22.73 67.3576
v  -34.8059 22.73 67.4107
v  -36.8751 22.73 67.5843
v  -34.5039 22.73 66.7845
v  -38.0946 22.73 52.6371
v  -37.1207 22.73 35.5867
v  -38.1473 22.73 36.8504
v  -38.1901 22.73 36.1016
v  -39.436 22.73 36.207
v  -39.4692 22.73 35.7984
v  -39.3752 22.73 36.9543
v  -26.8147 30.2252 68.641
v  23.5914 30.2252 45.0556
v  -28.2824 30.2252 48.7388
v  24.9443 30.2252 65.2815
v  3.26373 4.87522 11.7631
v  22.599 4.87522 34.3945
v  21.0971 4.87522 10.5819
v  4.5547 4.87522 35.2459
v  -20.1471 4.9304 37.8169
v  -13.427 4.9304 33.4515
v  -20.3152 4.9304 34.0724
v  -5.56858 4.9304 36.4652
v  -7.2938 4.9304 12.9741
v  -14.3499 4.9304 21.469
v  -15.067 4.9304 13.4861
v  31.4731 30.14 69.5619
v  -23.7097 30.14 70.9808
v  -23.4377 30.14 73.8096
v  -29.6922 30.14 65.7626
v  -15.7437 30.14 5.25013
v  -15.0665 30.14 13.4853
v  -7.29327 30.14 12.9734
v  -34.6179 30.14 35.3609
v  -32.0868 30.14 66.0429
v  31.3732 30.14 68.2412
v  31.0494 30.14 63.9714
v  -20.1466 30.14 37.8161
v  -24.5657 30.14 34.4549
v  -20.3147 30.14 34.0716
v  -22.2138 30.14 34.2427
v  -29.2462 30.14 71.3082
v  28.9498 30.14 36.2607
v  -5.56805 30.14 36.4644
v  26.5503 30.14 2.25351
v  0.322343 30.14 4.24051
v  -7.64726 30.14 4.52332
v  -8.02415 30.14 0.49053
v  -0.0306035 30.14 -0.126314
v  -6.4847 30.14 0.371716
v  -7.22171 30.14 0.427576
v  -35.9148 31.7432 79.3459
v  -32.7126 32.4522 75.3344
v  -36.223 32.4522 75.5711
v  -28.6256 31.7432 78.8545
v  -29.2421 31.7432 71.3049
v  -36.5313 31.7432 71.7963
v  -16.0795 21.2503 1.16825
v  -7.66978 27.9671 4.52541
v  -8.00559 21.2503 0.443455
v  -15.7437 27.9671 5.2502
v  0.000444844 20.2761 -0.00065848
v  26.5491 29.7813 2.23757
v  26.2484 20.2761 -2.02128
v  0.301168 29.7813 4.25819
v  31.6316 0.169998 71.6559
v  31.6517 0.169998 71.9212
v  31.4724 0.169998 69.5629
v  -23.4383 0.169998 73.8106
v  -23.7103 0.169998 70.9817
v  -29.2468 0.169998 71.3091
v  -29.0079 0.169998 74.1938
v  -23.8867 0.169998 73.8292
v  -23.6301 0.169998 76.3998
v  -29.0079 -4.54306e-15 74.1938
v  -28.8038 -4.69394e-15 76.6578
v  -23.9788 -4.67654e-15 76.3737
v  -23.9241 -4.71302e-15 76.9694
v  -23.791 -4.80269e-15 78.434
v  29.6508 -4.5452e-15 74.2288
v  29.5702 -4.46994e-15 72.9996
v  31.7249 -4.46374e-15 72.8984
v  31.7028 -4.44505e-15 72.5931
v  31.6517 -4.4039e-15 71.9212
v  -23.6301 -4.67814e-15 76.3998
v  -23.8867 -4.52073e-15 73.8292
v  -29.2469 0.0400009 71.3091
v  -31.5706 0.0400009 71.4628
v  -29.6929 0.0400009 65.7636
v  -32.0875 0.0400009 66.0438
v  -34.6186 0.0400009 35.3619
v  -37.1212 0.0400009 35.5874
v  -34.5044 0.0400009 66.7852
v  -32.0571 0.0400009 66.5874
v  -32.0571 0.00999832 66.5874
v  -31.5706 0.00999832 71.4628
v  -34.5044 0.00999832 66.7852
v  -37.1212 0.00999832 35.5874
v  -39.4697 0.00999832 35.7991
v  -39.4364 0.00999832 36.2077
v  -38.1905 0.00999832 36.1023
v  -38.1478 0.00999832 36.8511
v  -39.3757 0.00999832 36.955
v  -38.0951 0.00999832 52.6378
v  -36.8755 0.00999832 67.585
v  -34.8064 0.00999832 67.4114
v  -34.1795 0.00999832 67.3583
v  -33.8214 0.00999832 71.6116
v  -28.283 0.0400009 48.7398
v  -26.8153 0.0400009 68.642
v  24.9436 0.0400009 65.2824
v  23.5907 0.0400009 45.0566
v  3.26371 3.86 11.7632
v  4.55467 3.86 35.2459
v  22.599 3.86 34.3945
v  21.0971 3.86 10.582
v  -20.3153 0.149998 34.0726
v  -20.1472 0.149998 37.817
v  -5.56869 0.149998 36.4653
v  -7.29391 0.149998 12.9743
v  -15.0671 0.149998 13.4862
v  -14.35 0.149998 21.4692
v  -13.4271 0.149998 33.4517
v  4.55524 30.14 35.2451
v  22.5989 -0.260002 34.3947
v  4.55459 -0.260002 35.2461
v  22.5995 30.14 34.3937
v  3.26362 -0.260002 11.7633
v  3.26427 30.14 11.7623
v  21.097 -0.260002 10.5821
v  21.0976 30.14 10.5811
v  -26.8147 30.14 68.641
v  24.9436 -0.260002 65.2824
v  -26.8153 -0.260002 68.642
v  24.9443 30.14 65.2815
v  -28.283 -0.260002 48.7398
v  -28.2824 30.14 48.7388
v  23.5907 -0.260002 45.0566
v  23.5914 30.14 45.0556
v  -23.7104 -0.260002 70.9817
v  -29.2469 -0.260002 71.3091
v  -23.4384 -0.260002 73.8106
v  31.4724 -0.260002 69.5629
v  31.3725 -0.260002 68.2421
v  31.0488 -0.260002 63.9724
v  28.9491 -0.260002 36.2617
v  26.5496 -0.260002 2.25447
v  0.321694 -0.260002 4.24147
v  -0.0312525 -0.260002 -0.125353
v  -6.48535 -0.260002 0.372677
v  -7.22236 -0.260002 0.428536
v  -8.02479 -0.260002 0.491491
v  -7.64791 -0.260002 4.52428
v  -15.7443 -0.260002 5.2511
v  -15.0671 -0.260002 13.4862
v  -7.29391 -0.260002 12.9743
v  -5.56869 -0.260002 36.4653
v  -20.1472 -0.260002 37.8171
v  -20.3153 -0.260002 34.0726
v  -22.2145 -0.260002 34.2436
v  -24.5663 -0.260002 34.4558
v  -34.6186 -0.260002 35.3619
v  -32.0875 -0.260002 66.0439
v  -29.6929 -0.260002 65.7636
v  -36.2237 0.130001 75.5721
v  -35.9154 0.130001 79.3469
v  -36.532 0.130001 71.7973
v  -29.2428 0.130001 71.3059
v  -28.6263 0.130001 78.8555
v  -7.67038 -0.290001 4.5263
v  -15.7443 -0.290001 5.2511
v  -16.08 -0.290001 1.16893
v  -8.00605 -0.290001 0.444135
v  26.5485 -0.560001 2.23853
v  0.30052 -0.560001 4.25915
v  0 -0.560001 -3.42902e-17
v  26.248 -0.560001 -2.02062

# 0 UV coordinates

# 188 vertex normals
vn 0 1 -0
vn 0.012377 0.982924 0.183597
vn 0.0123771 0.982924 0.183598
vn -0.012377 0.982923 -0.183599
vn -0.0123771 0.982923 -0.183599
vn 0.183405 0.982923 -0.0149781
vn -0.0763384 0.520607 -0.850377
vn -0.0763384 0.520607 -0.850377
vn -0.0700163 0.409728 -0.909517
vn -0.0700164 0.409728 -0.909517
vn 0.99713 -2.36762e-05 -0.0757096
vn 0.99713 -2.37504e-05 -0.0757025
vn 0.997121 -2.37545e-05 -0.0758316
vn 0.997121 -2.368e-05 -0.0758325
vn -0.0771258 -2.98996e-05 -0.997021
vn 0.995409 -2.42722e-05 -0.0957105
vn -0.0590317 -3.03249e-05 -0.998256
vn -0.996587 2.38812e-05 0.0825542
vn 0.0710177 3.00437e-05 0.997475
vn 0.0710162 2.97466e-05 0.997475
vn -0.995057 2.43786e-05 0.0993065
vn -0.995057 2.43489e-05 0.0993068
vn 0.0807503 2.98151e-05 0.996734
vn -0.996587 2.39295e-05 0.0825541
vn -0.996587 2.38459e-05 0.0825549
vn 0.058792 3.02388e-05 0.99827
vn -0.995818 2.4191e-05 0.091363
vn -0.995894 2.41664e-05 0.0905304
vn 0.0784448 2.97666e-05 0.996918
vn 0.0784448 2.97791e-05 0.996918
vn 0.997856 -2.33331e-05 -0.0654412
vn 0.997856 -2.34166e-05 -0.0654397
vn 0.0469196 3.05129e-05 0.998899
vn 0.997368 -2.3629e-05 -0.0724994
vn 0.997368 -2.35455e-05 -0.0725056
vn 0.99713 -2.36415e-05 -0.07571
vn 0.99713 -2.37252e-05 -0.0757071
vn -0.0807501 -2.97205e-05 -0.996734
vn 0.995057 -2.44254e-05 -0.0993068
vn 0.995057 -2.43421e-05 -0.0993075
vn -0.0710162 -2.99581e-05 -0.997475
vn 0.0659813 3.00049e-05 0.997821
vn 0.0659845 3.02968e-05 0.997821
vn 0.996781 -2.38611e-05 -0.0801688
vn 0.996781 -2.38378e-05 -0.0801689
vn -0.116244 -2.87808e-05 -0.993221
vn 0.996615 -2.38944e-05 -0.0822153
vn 0.996615 -2.3904e-05 -0.0822153
vn -0.089767 -2.94333e-05 -0.995963
vn -0.0897685 -2.95811e-05 -0.995963
vn -0.996501 2.39389e-05 0.0835831
vn 0.0805598 2.96549e-05 0.99675
vn -0.995058 2.43289e-05 0.0992991
vn -0.995058 2.44027e-05 0.0992987
vn 0.995058 -2.43521e-05 -0.0992991
vn -0.0805629 -3.00795e-05 -0.99675
vn -0.0805598 -2.97449e-05 -0.99675
vn 0.996501 -2.39188e-05 -0.0835831
vn 0.996501 -2.38974e-05 -0.0835831
vn -0.0897679 -2.96758e-05 -0.995963
vn -0.089768 -2.96909e-05 -0.995963
vn -0.99671 2.3825e-05 0.0810455
vn -0.996711 2.39921e-05 0.0810362
vn 0.0842808 2.98232e-05 0.996442
vn 0.0842778 2.96559e-05 0.996442
vn -0.998374 2.30881e-05 0.057005
vn -0.0843107 -2.98224e-05 -0.99644
vn -0.0843077 -2.96552e-05 -0.99644
vn -0.996683 2.38215e-05 0.0813826
vn -0.996683 2.38351e-05 0.0813826
vn -0.996688 2.38196e-05 0.0813209
vn 0.08362 2.96721e-05 0.996498
vn 0.0836237 3.00063e-05 0.996497
vn 0.0843575 2.99886e-05 0.996436
vn 0.0843449 2.96403e-05 0.996437
vn -0.996475 2.38961e-05 0.0838882
vn -0.996475 2.40634e-05 0.0838873
vn 0.0659834 3.00893e-05 0.997821
vn -0.997292 2.36233e-05 0.0735446
vn 0.0647716 3.01444e-05 0.9979
vn 0.99777 -2.34161e-05 -0.0667413
vn 0.99777 -2.33538e-05 -0.0667414
vn -0.0708246 -3.00021e-05 -0.997489
vn -0.0708246 -3.00066e-05 -0.997489
vn -0.998492 2.27543e-05 0.0548921
vn -0.998492 2.30919e-05 0.0548921
vn 0.0471311 2.9069e-05 0.998889
vn 0.998017 -2.25201e-05 -0.0629466
vn 0.998017 -2.26775e-05 -0.0629466
vn -0.0660913 -3.04567e-05 -0.997814
vn -0.0660913 -3.05033e-05 -0.997814
vn -0.998994 2.29557e-05 0.0448537
vn 0.0923249 2.98133e-05 0.995729
vn 0.0923246 2.9023e-05 0.995729
vn 0.997314 -2.35795e-05 -0.0732444
vn 0.997314 -2.36134e-05 -0.0732444
vn -0.0657147 -3.00496e-05 -0.997838
vn -0.0657149 -3.02486e-05 -0.997838
vn -0.99599 2.40806e-05 0.0894662
vn -0.997047 2.37345e-05 0.0767995
vn -0.997047 2.37039e-05 0.0767995
vn -0.0897698 -2.98564e-05 -0.995963
vn -0.0897698 -2.98744e-05 -0.995963
vn -0.0471311 -3.05805e-05 -0.998889
vn -0.0471311 -3.05783e-05 -0.998889
vn 0.998492 -2.30497e-05 -0.0548921
vn 0.0660913 3.01133e-05 0.997814
vn -0.998017 2.3343e-05 0.0629465
vn -0.998017 2.32784e-05 0.0629466
vn -0.0647716 -3.01737e-05 -0.9979
vn 0.997292 -2.36017e-05 -0.0735447
vn 0.997292 -2.36646e-05 -0.0735446
vn 0.0708247 3.00267e-05 0.997489
vn -0.99777 2.33951e-05 0.0667414
vn -0.99777 2.34577e-05 0.0667413
vn 0.0590317 3.03072e-05 0.998256
vn -0.995409 2.43233e-05 0.0957108
vn -0.995409 2.42608e-05 0.0957114
vn 0.0771256 2.98746e-05 0.997021
vn 0.997154 -2.37182e-05 -0.0753964
vn 0.997138 -2.37251e-05 -0.075607
vn 0.997142 -2.37239e-05 -0.0755551
vn 0.997142 -2.36607e-05 -0.0755552
vn 0.99752 -2.35053e-05 -0.0703838
vn -0.0755422 -2.98874e-05 -0.997143
vn -0.0755423 -2.99044e-05 -0.997143
vn 0.99675 -2.3825e-05 -0.080562
vn 0.99675 -2.38268e-05 -0.080562
vn -0.0769362 -2.98671e-05 -0.997036
vn -0.0769362 -2.98665e-05 -0.997036
vn -0.0755762 -2.98984e-05 -0.99714
vn -0.0755762 -2.98994e-05 -0.99714
vn -0.078214 -2.98379e-05 -0.996937
vn -0.078214 -2.98357e-05 -0.996937
vn -0.995661 2.41962e-05 0.0930487
vn -0.995661 2.41803e-05 0.0930488
vn -0.0894106 -2.95722e-05 -0.995995
vn -0.0894106 -2.95708e-05 -0.995995
vn -0.996636 2.38832e-05 0.0819519
vn -0.996636 2.38506e-05 0.081952
vn 0.0657148 3.01494e-05 0.997838
vn 0.0657147 3.01182e-05 0.997838
vn -0.997314 2.36067e-05 0.0732444
vn -0.997314 2.362e-05 0.0732444
vn -0.0923246 -2.95173e-05 -0.995729
vn -0.0923246 -2.95158e-05 -0.995729
vn 0.998994 -2.27293e-05 -0.0448537
vn -0.0897181 -2.95804e-05 -0.995967
vn -0.0898619 -2.95769e-05 -0.995954
vn -0.0897679 -2.95792e-05 -0.995963
vn -0.996615 2.38598e-05 0.0822154
vn 0.116247 2.89278e-05 0.99322
vn 0.116244 2.8679e-05 0.993221
vn -0.996781 2.37986e-05 0.0801688
vn -0.996781 2.37785e-05 0.0801689
vn -0.996682 2.38607e-05 0.0813961
vn -0.996682 2.39612e-05 0.0813953
vn -0.996682 2.38607e-05 0.0813957
vn -0.996682 2.0955e-05 0.0813957
vn 0.996682 -2.38597e-05 -0.0813958
vn 0.0672614 3.01071e-05 0.997735
vn -0.0672604 -3.01068e-05 -0.997736
vn 0.0894106 2.95682e-05 0.995995
vn -0.996636 2.3882e-05 0.0819517
vn -0.996636 2.38584e-05 0.0819519
vn -0.0894106 -2.95715e-05 -0.995995
vn -0.0894106 -2.95673e-05 -0.995995
vn 0.996636 -2.38821e-05 -0.0819518
vn 0.996636 -2.38573e-05 -0.081952
vn 0.0767548 2.98679e-05 0.99705
vn 0.0767548 2.98727e-05 0.99705
vn -0.99752 2.35204e-05 0.0703837
vn -0.99752 2.35211e-05 0.0703837
vn -0.0767548 -2.9871e-05 -0.99705
vn -0.0767548 -2.98741e-05 -0.99705
vn 0.99752 -2.34813e-05 -0.0703837
vn 0.99752 -2.34989e-05 -0.0703836
vn 6.09963e-23 -1 -6.12322e-17
vn -6.48186e-23 -1 -6.12324e-17
vn 7.23397e-21 -1 -6.12321e-17
vn -2.18326e-21 -1 -6.12322e-17
vn -1.07547e-21 -1 -6.12322e-17
vn 6.86049e-24 -1 -6.12322e-17
vn 5.44184e-24 -1 -6.12322e-17
vn -4.47334e-23 -1 -6.1233e-17
vn 1.34659e-22 -1 -6.12326e-17
vn 2.49132e-21 -1 -6.12329e-17
vn 0 -1 0

# Mesh 'defaultobject' with 358 faces
g defaultobject
usemtl DefaultMaterial
f  1//1 2//1 3//1
f  2//1 1//1 4//1
f  2//1 4//1 5//1
f  2//1 5//1 6//1
f  2//1 6//1 7//1
f  7//1 6//1 8//1
f  7//1 8//1 9//1
f  10//1 11//1 12//1
f  13//1 14//1 15//1
f  14//1 13//1 16//1
f  14//1 16//1 17//1
f  17//1 16//1 18//1
f  17//1 18//1 19//1
f  19//1 18//1 12//1
f  19//1 12//1 11//1
f  19//1 11//1 20//1
f  19//1 20//1 21//1
f  22//1 23//1 8//1
f  23//1 22//1 24//1
f  24//1 22//1 25//1
f  25//1 22//1 26//1
f  26//1 27//1 25//1
f  27//1 26//1 28//1
f  29//1 30//1 31//1
f  30//1 29//1 32//1
f  32//1 29//1 33//1
f  33//1 29//1 34//1
f  34//1 29//1 35//1
f  34//1 35//1 36//1
f  36//1 35//1 37//1
f  36//1 37//1 38//1
f  38//1 37//1 39//1
f  39//1 37//1 40//1
f  40//1 37//1 41//1
f  42//1 36//1 38//1
f  43//1 44//1 45//1
f  44//1 43//1 46//1
f  47//1 48//1 49//1
f  48//1 47//1 50//1
f  51//1 52//1 53//1
f  52//1 51//1 54//1
f  52//1 54//1 55//1
f  56//1 55//1 57//1
f  55//1 56//1 52//1
f  58//1 59//1 60//1
f  59//1 58//1 61//1
f  62//1 63//1 64//1
f  61//1 65//1 66//1
f  65//1 61//1 58//1
f  65//1 58//1 67//1
f  65//1 67//1 68//1
f  65//1 68//1 69//1
f  65//1 69//1 70//1
f  70//1 69//1 71//1
f  70//1 71//1 72//1
f  61//1 73//1 59//1
f  74//1 69//1 68//1
f  69//1 74//1 75//1
f  75//1 74//1 64//1
f  64//1 74//1 76//1
f  64//1 76//1 77//1
f  64//1 77//1 62//1
f  62//1 77//1 78//1
f  77//1 79//1 78//1
f  79//1 77//1 80//1
f  79//1 80//1 81//1
f  79//1 81//1 82//1
f  83//2 84//2 85//2
f  84//2 83//2 86//3
f  85//4 87//4 88//4
f  87//4 85//4 84//5
f  86//6 87//6 84//6
f  89//7 90//7 91//7
f  90//7 89//7 92//8
f  93//9 94//9 95//9
f  94//9 93//9 96//10
f  97//11 3//11 98//11
f  3//11 97//11 1//12
f  99//13 1//13 97//13
f  1//13 99//13 4//14
f  5//15 99//15 100//15
f  99//15 5//15 4//15
f  101//16 5//16 100//16
f  5//16 101//16 6//16
f  8//17 101//17 102//17
f  101//17 8//17 6//17
f  9//18 102//18 103//18
f  102//18 9//18 8//18
f  104//19 9//19 103//19
f  9//19 104//19 7//20
f  2//21 104//21 105//21
f  104//21 2//21 7//22
f  98//23 2//23 105//23
f  2//23 98//23 3//23
f  13//24 106//24 107//24
f  106//24 13//24 15//25
f  108//26 13//26 107//26
f  13//26 108//26 16//26
f  18//27 108//27 109//27
f  108//27 18//27 16//27
f  12//28 109//28 110//28
f  109//28 12//28 18//28
f  111//29 12//29 110//29
f  12//29 111//29 10//30
f  112//31 10//31 111//31
f  10//31 112//31 11//32
f  113//33 11//33 112//33
f  11//33 113//33 20//33
f  114//34 20//34 113//34
f  20//34 114//34 21//35
f  115//36 21//36 114//36
f  21//36 115//36 19//37
f  17//38 115//38 116//38
f  115//38 17//38 19//38
f  117//39 17//39 116//39
f  17//39 117//39 14//40
f  15//41 117//41 106//41
f  117//41 15//41 14//41
f  118//42 23//42 119//42
f  23//42 118//42 8//43
f  120//44 8//44 118//44
f  8//44 120//44 22//45
f  26//46 120//46 121//46
f  120//46 26//46 22//46
f  122//47 26//47 121//47
f  26//47 122//47 28//48
f  27//49 122//49 123//49
f  122//49 27//49 28//50
f  25//51 123//51 124//51
f  123//51 25//51 27//51
f  125//52 25//52 124//52
f  25//52 125//52 24//52
f  23//53 125//53 119//53
f  125//53 23//53 24//54
f  126//55 31//55 127//55
f  31//55 126//55 29//55
f  35//56 126//56 128//56
f  126//56 35//56 29//57
f  129//58 35//58 128//58
f  35//58 129//58 37//59
f  41//60 129//60 130//60
f  129//60 41//60 37//61
f  40//62 130//62 131//62
f  130//62 40//62 41//63
f  132//64 40//64 131//64
f  40//64 132//64 39//65
f  38//66 132//66 133//66
f  132//66 38//66 39//66
f  42//67 133//67 134//67
f  133//67 42//67 38//68
f  36//69 134//69 135//69
f  134//69 36//69 42//70
f  34//71 135//71 136//71
f  135//71 34//71 36//71
f  137//72 34//72 136//72
f  34//72 137//72 33//73
f  138//74 33//74 137//74
f  33//75 138//75 32//75
f  30//76 138//76 139//76
f  138//76 30//76 32//77
f  127//78 30//78 139//78
f  30//78 127//78 31//78
f  43//79 140//79 141//79
f  140//79 43//79 45//79
f  142//80 43//80 141//80
f  43//80 142//80 46//80
f  143//81 46//81 142//81
f  46//81 143//81 44//82
f  45//83 143//83 140//83
f  143//83 45//83 44//84
f  50//85 144//85 145//85
f  144//85 50//85 47//86
f  146//87 50//87 145//87
f  50//87 146//87 48//87
f  147//88 48//88 146//88
f  48//88 147//88 49//89
f  47//90 147//90 144//90
f  147//90 47//90 49//91
f  51//92 148//92 149//92
f  148//92 51//92 53//92
f  150//93 51//93 149//93
f  51//93 150//93 54//94
f  151//95 54//95 150//95
f  54//95 151//95 55//96
f  57//97 151//97 152//97
f  151//97 57//97 55//98
f  56//99 152//99 153//99
f  152//99 56//99 57//99
f  52//100 153//100 154//100
f  153//100 52//100 56//101
f  53//102 154//102 148//102
f  154//102 53//102 52//103
f  155//104 156//104 157//104
f  156//104 155//104 158//105
f  159//106 155//106 157//106
f  155//106 159//106 160//106
f  161//107 160//107 159//107
f  160//107 161//107 162//107
f  158//108 161//108 156//108
f  161//108 158//108 162//109
f  163//110 164//110 165//110
f  164//110 163//110 166//110
f  167//111 163//111 165//111
f  163//111 167//111 168//112
f  169//113 168//113 167//113
f  168//113 169//113 170//113
f  166//114 169//114 164//114
f  169//114 166//114 170//115
f  171//116 73//116 172//116
f  73//116 171//116 59//116
f  60//117 171//117 173//117
f  171//117 60//117 59//118
f  174//119 60//119 173//119
f  60//119 174//119 58//119
f  175//120 58//120 174//120
f  58//120 175//120 67//120
f  176//121 67//121 175//121
f  67//121 176//121 68//121
f  177//122 68//122 176//122
f  68//122 177//122 74//123
f  178//124 74//124 177//124
f  74//124 178//124 76//124
f  77//125 178//125 179//125
f  178//125 77//125 76//126
f  180//127 77//127 179//127
f  77//127 180//127 80//128
f  81//129 180//129 181//129
f  180//129 81//129 80//130
f  82//131 181//131 182//131
f  181//131 82//131 81//132
f  79//133 182//133 183//133
f  182//133 79//133 82//134
f  78//135 183//135 184//135
f  183//135 78//135 79//136
f  62//137 184//137 185//137
f  184//137 62//137 78//138
f  63//139 185//139 186//139
f  185//139 63//139 62//140
f  187//141 63//141 186//141
f  63//141 187//141 64//142
f  75//143 187//143 188//143
f  187//143 75//143 64//144
f  69//145 188//145 189//145
f  188//145 69//145 75//146
f  190//147 69//147 189//147
f  69//147 190//147 71//147
f  72//148 190//148 191//148
f  190//148 72//148 71//148
f  70//149 191//149 192//149
f  191//149 70//149 72//149
f  65//150 192//150 193//150
f  192//150 65//150 70//150
f  66//151 193//151 194//151
f  193//151 66//151 65//151
f  195//152 66//152 194//152
f  66//152 195//152 61//153
f  73//154 195//154 172//154
f  195//154 73//154 61//155
f  83//156 196//156 197//156
f  196//156 83//156 198//157
f  198//157 83//156 88//158
f  88//158 83//156 85//159
f  199//160 86//160 200//160
f  86//160 199//160 87//160
f  200//161 83//161 197//161
f  83//161 200//161 86//161
f  88//162 199//162 198//162
f  199//162 88//162 87//162
f  201//163 92//163 202//163
f  92//163 201//163 90//163
f  92//164 203//164 202//164
f  203//164 92//164 89//165
f  89//166 204//166 203//166
f  204//166 89//166 91//167
f  204//168 90//168 201//168
f  90//168 204//168 91//169
f  205//170 96//170 206//170
f  96//170 205//170 94//171
f  96//172 207//172 206//172
f  207//172 96//172 93//173
f  93//174 208//174 207//174
f  208//174 93//174 95//175
f  208//176 94//176 205//176
f  94//176 208//176 95//177
f  117//178 107//178 106//178
f  107//178 117//178 108//179
f  108//179 117//178 109//180
f  109//180 117//178 110//181
f  110//181 117//178 116//182
f  110//181 116//182 111//183
f  111//183 116//182 112//184
f  112//184 116//182 115//185
f  112//184 115//185 113//186
f  113//186 115//185 114//187
f  119//188 120//188 118//188
f  120//188 119//188 125//188
f  120//188 125//188 121//188
f  121//188 125//188 124//188
f  121//188 124//188 122//188
f  122//188 124//188 123//188
f  139//188 138//188 127//188
f  127//188 128//188 126//188
f  128//188 127//188 138//188
f  128//188 138//188 137//188
f  128//188 132//188 129//188
f  132//188 128//188 133//188
f  133//188 128//188 134//188
f  134//188 128//188 135//188
f  135//188 128//188 137//188
f  135//188 137//188 136//188
f  132//188 130//188 129//188
f  130//188 132//188 131//188
f  141//188 143//188 142//188
f  143//188 141//188 140//188
f  145//188 147//188 146//188
f  147//188 145//188 144//188
f  149//188 148//188 150//188
f  154//188 150//188 148//188
f  153//188 150//188 154//188
f  151//188 150//188 153//188
f  152//188 151//188 153//188
f  195//188 171//188 172//188
f  171//188 174//188 173//188
f  174//188 171//188 195//188
f  193//188 195//188 194//188
f  195//188 193//188 174//188
f  174//188 193//188 175//188
f  175//188 193//188 176//188
f  176//188 193//188 189//188
f  189//188 193//188 192//188
f  189//188 192//188 190//188
f  190//188 192//188 191//188
f  185//188 187//188 186//188
f  183//188 179//188 184//188
f  179//188 183//188 180//188
f  180//188 183//188 181//188
f  181//188 183//188 182//188
f  189//188 177//188 176//188
f  177//188 189//188 188//188
f  177//188 188//188 187//188
f  177//188 187//188 178//188
f  178//188 187//188 179//188
f  179//188 187//188 185//188
f  179//188 185//188 184//188
f  197//188 199//188 200//188
f  199//188 197//188 198//188
f  198//188 197//188 196//188
f  203//188 201//188 202//188
f  201//188 203//188 204//188
f  207//188 205//188 206//188
f  205//188 207//188 208//188
f  105//188 97//188 98//188
f  97//188 105//188 99//188
f  99//188 105//188 100//188
f  100//188 105//188 101//188
f  101//188 105//188 104//188
f  101//188 104//188 102//188
f  102//188 104//188 103//188

