# {"id":"BLDG_0003000800271fce","idOriginal":"BLDG_0003000800271fce","origin":[13.358237436273226,52.560498908783394],"elevation":40.4700012207031}
# Longitude: 13.358237436273226
# Latitude: 52.560498908783394
# Elevation: 40.4700012207031

# File produced by Open Asset Import Library (http://www.assimp.sf.net)
# (assimp v3.1.0)

mtllib BLDG_0003000800271fce.obj.mtl

# 17 vertex positions
v  30.8172 14.0732 -3.42272
v  3.59741 15.42 5.21601
v  31.4334 15.42 2.12477
v  2.98121 14.0732 -0.331482
v  0.616493 15.42 5.54705
v  0.000299878 14.0732 -0.00044623
v  4.21354 14.0732 10.7636
v  32.0495 14.0732 7.67235
v  1.23263 14.0732 11.0946
v  30.8169 2.09554e-16 -3.42227
v  2.98091 2.02701e-17 -0.331036
v  0 0 0
v  4.21324 -6.59107e-16 10.764
v  32.0492 -4.69823e-16 7.6728
v  1.23233 -6.79377e-16 11.0951
v  31.4331 -1.30135e-16 2.12526
v  0.616165 -3.39689e-16 5.54754

# 0 UV coordinates

# 28 vertex normals
vn -0.0258905 0.972099 -0.233139
vn -0.0258905 0.972099 -0.233139
vn -0.0258906 0.972099 -0.233139
vn -0.0258905 0.972099 -0.233139
vn 0.0258902 0.972099 0.233136
vn 0.0258902 0.972099 0.233136
vn 0.0258902 0.972099 0.233136
vn 0.0258902 0.972099 0.233136
vn -0.110373 -2.91569e-05 -0.99389
vn -0.110373 -2.91637e-05 -0.99389
vn -0.110373 -2.91637e-05 -0.99389
vn -0.110373 -2.91623e-05 -0.99389
vn 0.110373 2.91233e-05 0.99389
vn 0.110373 2.91681e-05 0.99389
vn 0.110373 2.91682e-05 0.99389
vn 0.993888 -2.4784e-05 -0.110391
vn 0.993888 -2.46488e-05 -0.110391
vn 0.993888 -2.47802e-05 -0.110391
vn 0.993888 -2.38807e-05 -0.110391
vn -0.993888 2.46829e-05 0.110391
vn -0.993888 2.46822e-05 0.110391
vn -0.993888 2.46785e-05 0.110391
vn -0.993888 2.46101e-05 0.110391
vn 0 -1 -6.12323e-17
vn -1.3546e-24 -1 -6.12323e-17
vn 1.3546e-24 -1 -6.12323e-17
vn 2.52986e-23 -1 -6.12323e-17
vn 1.8974e-23 -1 -6.12323e-17

# Mesh 'defaultobject' with 30 faces
g defaultobject
usemtl DefaultMaterial
f  1//1 2//1 3//1
f  2//1 1//1 4//2
f  2//1 4//2 5//3
f  5//3 4//2 6//4
f  3//5 7//5 8//5
f  7//5 3//5 2//6
f  7//5 2//6 9//7
f  9//7 2//6 5//8
f  10//9 4//9 1//9
f  4//9 10//9 11//10
f  4//9 11//10 6//11
f  6//11 11//10 12//12
f  8//13 13//13 14//13
f  13//13 8//13 7//14
f  13//13 7//14 15//15
f  15//15 7//14 9//15
f  1//16 16//16 10//16
f  16//16 1//16 14//17
f  14//17 1//16 8//18
f  8//18 1//16 3//19
f  9//20 17//20 15//20
f  17//20 9//20 12//21
f  12//21 9//20 6//22
f  6//22 9//20 5//23
f  16//24 11//24 10//24
f  11//24 16//24 14//25
f  11//24 14//25 13//26
f  11//24 13//26 12//24
f  12//24 13//26 17//27
f  17//27 13//26 15//28

