# {"id":"BLDG_0003000b0006588a","idOriginal":"BLDG_0003000b0006588a","origin":[13.34805557040929,52.50498449325609],"elevation":32.6399993896484}
# Longitude: 13.34805557040929
# Latitude: 52.50498449325609
# Elevation: 32.6399993896484

# File produced by Open Asset Import Library (http://www.assimp.sf.net)
# (assimp v3.1.0)

mtllib BLDG_0003000b0006588a.obj.mtl

# 24 vertex positions
v  6.41234 -2.00954e-16 3.28182
v  0.000436227 20.4883 -0.000647251
v  0 0 0
v  6.41277 20.4883 3.28117
v  7.0859 -1.21093e-16 1.97759
v  7.08634 20.4883 1.97695
v  10.319 -2.20377e-16 3.59903
v  10.3194 20.4883 3.59838
v  12.4337 -2.8523e-16 4.65816
v  12.4341 20.4883 4.65751
v  13.0443 -3.0401e-16 4.96485
v  13.0447 20.4883 4.96421
v  13.8117 -2.10674e-16 3.44057
v  13.8122 20.4883 3.43992
v  17.4082 2.27211e-16 -3.71063
v  17.4086 20.4883 -3.71128
v  17.8623 2.82383e-16 -4.61166
v  17.8628 20.4883 -4.6123
v  17.2001 20.4883 -4.94196
v  17.1997 3.02568e-16 -4.94131
v  15.1741 20.4883 -5.94844
v  15.1737 3.64197e-16 -5.94779
v  5.44146 20.4883 -10.7884
v  5.44102 6.60557e-16 -10.7877

# 0 UV coordinates

# 31 vertex normals
vn -0.455596 3.78278e-05 0.890187
vn 0.888505 -4.42359e-06 0.458866
vn -0.448295 3.77846e-05 0.893885
vn -0.448295 3.77717e-05 0.893885
vn -0.447813 3.77723e-05 0.894127
vn -0.447813 3.77624e-05 0.894127
vn -0.448861 3.77702e-05 0.893602
vn -0.44886 3.77915e-05 0.893602
vn 0.893177 -4.78335e-06 0.449706
vn 0.893177 -4.79016e-06 0.449706
vn 0.893382 -4.80322e-06 0.449298
vn 0.893382 -4.84974e-06 0.449298
vn 0.892992 -4.81651e-06 0.450072
vn 0.892993 -4.81218e-06 0.450072
vn 0.445423 -3.77929e-05 -0.89532
vn 0.444907 -3.779e-05 -0.895577
vn 0.445268 -3.77817e-05 -0.895397
vn 0.445268 -3.7792e-05 -0.895397
vn -0.89286 4.78375e-06 -0.450334
vn -0.89286 4.78073e-06 -0.450334
vn 0 1 0
vn 9.73255e-24 -1 -6.12323e-17
vn 0 -1 -6.12323e-17
vn 0 -1 -6.12323e-17
vn 4.192e-24 -1 -6.12323e-17
vn 2.54298e-23 -1 -6.12324e-17
vn -8.94283e-24 -1 -6.12323e-17
vn -3.81436e-24 -1 -6.12323e-17
vn 1.93232e-23 -1 -6.12324e-17
vn -5.79588e-24 -1 -6.12323e-17
vn 1.77234e-23 -1 -6.12323e-17

# Mesh 'defaultobject' with 44 faces
g defaultobject
usemtl DefaultMaterial
f  1//1 2//1 3//1
f  2//1 1//1 4//1
f  5//2 4//2 1//2
f  4//2 5//2 6//2
f  7//3 6//3 5//3
f  6//3 7//3 8//4
f  9//5 8//5 7//5
f  8//5 9//5 10//6
f  11//7 10//7 9//7
f  10//7 11//7 12//8
f  13//9 12//9 11//9
f  12//9 13//9 14//10
f  15//11 14//11 13//11
f  14//11 15//11 16//12
f  17//13 16//13 15//13
f  16//13 17//13 18//14
f  19//15 17//15 20//15
f  17//15 19//15 18//15
f  21//16 20//16 22//16
f  20//16 21//16 19//16
f  23//17 22//17 24//17
f  22//17 23//17 21//18
f  2//19 24//19 3//19
f  24//19 2//19 23//20
f  4//21 23//21 2//21
f  23//21 4//21 6//21
f  23//21 6//21 21//21
f  21//21 6//21 8//21
f  21//21 8//21 10//21
f  21//21 10//21 19//21
f  19//21 10//21 12//21
f  19//21 12//21 14//21
f  19//21 14//21 16//21
f  19//21 16//21 18//21
f  24//22 1//22 3//22
f  1//22 24//22 5//23
f  5//23 24//22 7//24
f  7//24 24//22 9//25
f  9//25 24//22 11//26
f  11//26 24//22 13//27
f  13//27 24//22 15//28
f  15//28 24//22 22//29
f  15//28 22//29 20//30
f  15//28 20//30 17//31

