# {"id":"BLDG_0003000b00065900","idOriginal":"BLDG_0003000b00065900","origin":[13.357356435152564,52.50553339023205],"elevation":34.4199981689453}
# Longitude: 13.357356435152564
# Latitude: 52.50553339023205
# Elevation: 34.4199981689453

# File produced by Open Asset Import Library (http://www.assimp.sf.net)
# (assimp v3.1.0)

mtllib BLDG_0003000b00065900.obj.mtl

# 10 vertex positions
v  11.9281 11.9657 3.97804
v  0.267545 11.9657 -0.801202
v  0.000254919 11.9657 -0.00037802
v  2.08497 11.9657 -6.25236
v  14.0192 11.9657 -2.28755
v  11.9278 -2.43608e-16 3.97842
v  0 0 0
v  14.0189 1.40049e-16 -2.28717
v  2.08472 3.82823e-16 -6.25198
v  0.26729 4.90363e-17 -0.800824

# 0 UV coordinates

# 13 vertex normals
vn 0 1 0
vn -0.316404 3.67134e-05 0.948624
vn 0.948568 -1.01718e-05 0.316575
vn 0.948568 -1.02563e-05 0.316575
vn 0.315278 -3.67052e-05 -0.948999
vn 0.315278 -3.67051e-05 -0.948999
vn -0.948664 1.02194e-05 -0.316287
vn -0.948664 1.02115e-05 -0.316287
vn -0.948559 1.02063e-05 -0.316599
vn -0.948559 1.02073e-05 -0.316599
vn 0 -1 -6.12323e-17
vn 0 -1 -6.12324e-17
vn -1.83154e-24 -1 -6.12323e-17

# Mesh 'defaultobject' with 16 faces
g defaultobject
usemtl DefaultMaterial
f  1//1 2//1 3//1
f  2//1 1//1 4//1
f  4//1 1//1 5//1
f  6//2 3//2 7//2
f  3//2 6//2 1//2
f  8//3 1//3 6//3
f  1//3 8//3 5//4
f  4//5 8//5 9//5
f  8//5 4//5 5//6
f  2//7 9//7 10//7
f  9//7 2//7 4//8
f  3//9 10//9 7//9
f  10//9 3//9 2//10
f  7//11 8//11 6//11
f  8//11 7//11 10//12
f  8//11 10//12 9//13

