# {"id":"BLDG_0003000a001c9860","idOriginal":"BLDG_0003000a001c9860","origin":[13.402501663333455,52.53794407845128],"elevation":48.2400016784668}
# Longitude: 13.402501663333455
# Latitude: 52.53794407845128
# Elevation: 48.2400016784668

# File produced by Open Asset Import Library (http://www.assimp.sf.net)
# (assimp v3.1.0)

mtllib BLDG_0003000a001c9860.obj.mtl

# 28 vertex positions
v  15.142 8.06463e-16 -13.1705
v  7.07928 1.86702e-16 -3.04908
v  4.6514 5.28292e-16 -8.62767
v  17.5789 4.63609e-16 -7.57131
v  11.6669 -4.58746e-16 7.49189
v  22.1664 -1.8184e-16 2.96967
v  4.55133 -6.46404e-16 10.5566
v  0 0 0
v  15.4544 19.8784 -6.65673
v  15.1424 18.9857 -13.1711
v  13.0193 19.8784 -12.2518
v  17.5793 18.9857 -7.57191
v  12.2283 21.8165 -5.26728
v  9.79604 21.8165 -10.856
v  7.07968 18.9857 -3.04968
v  4.6518 18.9857 -8.62827
v  14.6233 21.7238 -0.0403952
v  12.3295 21.7238 -5.31088
v  22.1668 18.9857 2.96906
v  11.6673 18.9857 7.49129
v  9.37353 21.7238 2.22072
v  2.27613 21.7238 5.2776
v  0.000405675 18.9857 -0.00060106
v  4.55173 18.9857 10.556
v  11.7637 21.4287 -5.06718
v  12.7318 21.514 -5.48414
v  17.5793 18.6018 -7.57189
v  12.1911 21.796 -5.25125

# 0 UV coordinates

# 43 vertex normals
vn 3.04459e-24 -1 -6.12323e-17
vn 3.03336e-24 -1 -6.12323e-17
vn 3.22257e-24 -1 -6.12323e-17
vn 0 -1 -6.12323e-17
vn 2.38977e-24 -1 -6.12323e-17
vn 0.330047 0.932972 -0.143642
vn 0.330049 0.932971 -0.143642
vn 0.442979 0.875559 -0.192788
vn 0.442973 0.875561 -0.192789
vn -0.413304 0.89265 0.179876
vn -0.413306 0.892649 0.179874
vn -0.396115 0.901872 0.172395
vn 0.396125 0.901867 -0.172399
vn 0.170116 0.902806 0.39497
vn 0.170116 0.902806 0.39497
vn -0.170118 0.902803 -0.394977
vn -0.170118 0.902803 -0.394977
vn -0.170118 0.902803 -0.394977
vn 0.170116 0.902806 0.39497
vn 0.170116 0.902806 0.39497
vn -0.397382 -2.05463e-05 -0.917653
vn -0.397382 -2.05563e-05 -0.917653
vn -0.397382 -2.06544e-05 -0.917653
vn -0.397382 -2.06246e-05 -0.917653
vn 0.395574 2.10197e-05 0.918434
vn 0.395573 1.92474e-05 0.918434
vn 0.395573 1.86904e-05 0.918434
vn 0.916925 -3.22465e-05 -0.399059
vn 0.395574 2.06337e-05 0.918434
vn 0.395574 2.05985e-05 0.918434
vn -0.91829 3.21556e-05 0.395908
vn -0.91829 3.21553e-05 0.395908
vn -0.91829 3.20555e-05 0.395908
vn -0.395574 -2.06238e-05 -0.918434
vn -0.395574 -2.06212e-05 -0.918434
vn 0.395574 2.06047e-05 0.918434
vn 0.916925 -3.22533e-05 -0.399059
vn 0.916925 -3.2204e-05 -0.399059
vn -0.395574 -2.03233e-05 -0.918434
vn -0.406138 0 -0.913812
vn 0.395572 1.63813e-05 0.918435
vn -0.916925 3.22312e-05 0.399059
vn -0.916925 3.22262e-05 0.399059

# Mesh 'defaultobject' with 47 faces
g defaultobject
usemtl DefaultMaterial
f  1//1 2//1 3//1
f  2//1 1//1 4//2
f  4//2 5//3 2//1
f  5//3 4//2 6//4
f  2//1 7//5 8//5
f  7//5 2//1 5//3
f  9//6 10//6 11//6
f  10//6 9//6 12//7
f  13//8 11//8 14//8
f  11//8 13//8 9//9
f  15//10 14//10 16//10
f  14//10 15//10 13//11
f  15//12 17//12 18//12
f  17//13 12//13 18//13
f  12//13 17//13 19//13
f  20//14 17//14 21//14
f  17//14 20//14 19//15
f  17//16 15//16 21//16
f  15//16 22//17 21//16
f  22//17 15//16 23//18
f  21//14 24//19 20//14
f  24//19 21//14 22//20
f  16//21 1//21 3//21
f  1//21 16//21 10//22
f  10//22 16//21 11//23
f  11//23 16//21 14//24
f  25//25 9//25 18//25
f  26//26 18//25 9//25
f  12//27 26//26 27//27
f  4//28 19//28 6//28
f  19//28 4//28 12//28
f  6//29 20//29 5//29
f  20//29 6//29 19//30
f  24//31 8//31 7//31
f  8//31 24//31 23//32
f  23//32 24//31 22//33
f  23//34 2//34 8//34
f  2//34 23//34 15//35
f  5//29 24//36 7//36
f  24//36 5//29 20//29
f  1//37 12//28 4//28
f  12//28 1//37 10//38
f  28//39 18//39 15//35
f  12//40 26//40 28//40
f  13//41 28//41 26//26
f  15//42 3//42 2//42
f  3//42 15//42 16//43

