# {"id":"BLDG_00030000001b46ff","idOriginal":"BLDG_00030000001b46ff","origin":[13.339856104583951,52.55329939455994],"elevation":35.2599983215332}
# Longitude: 13.339856104583951
# Latitude: 52.55329939455994
# Elevation: 35.2599983215332

# File produced by Open Asset Import Library (http://www.assimp.sf.net)
# (assimp v3.1.0)

mtllib BLDG_00030000001b46ff.obj.mtl

# 12 vertex positions
v  12.9395 -2.50423e-16 4.08972
v  8.50586 5.33202e-16 -8.70784
v  17.1924 1.61779e-17 -0.264205
v  8.68653 -5.17024e-16 8.44364
v  0 0 0
v  4.25293 2.66601e-16 -4.35392
v  4.25338 21.0206 -4.35459
v  8.68687 15.9219 8.44313
v  12.9399 21.0206 4.08905
v  0.000338867 15.9219 -0.00050462
v  8.5062 15.9219 -8.70835
v  17.1927 15.9219 -0.26471

# 0 UV coordinates

# 17 vertex normals
vn 5.7441e-24 -1 -6.12323e-17
vn 1.14882e-23 -1 -6.12323e-17
vn 0 -1 -6.12323e-17
vn -0.447594 0.766569 0.46047
vn 0.44761 0.766549 -0.460487
vn 0.715355 6.89213e-06 0.698762
vn 0.715355 6.88882e-06 0.698762
vn 0.715354 6.92975e-06 0.698762
vn 0.715354 7.06811e-06 0.698762
vn -0.715354 -6.92126e-06 -0.698762
vn -0.715354 -6.9085e-06 -0.698762
vn -0.715354 -6.92975e-06 -0.698762
vn -0.715354 -6.88372e-06 -0.698762
vn -0.69701 3.75414e-05 0.717061
vn -0.69701 3.75608e-05 0.717061
vn 0.69701 -3.76172e-05 -0.717061
vn 0.69701 -3.75776e-05 -0.717061

# Mesh 'defaultobject' with 20 faces
g defaultobject
usemtl DefaultMaterial
f  1//1 2//1 3//1
f  2//1 1//1 4//2
f  2//1 4//2 5//3
f  2//1 5//3 6//3
f  7//4 8//4 9//4
f  8//4 7//4 10//4
f  11//5 9//5 12//5
f  9//5 11//5 7//5
f  12//6 1//6 3//6
f  1//6 12//6 4//7
f  4//7 12//6 8//8
f  8//8 12//6 9//9
f  10//10 6//10 5//10
f  6//10 10//10 2//11
f  2//11 10//10 11//12
f  11//12 10//10 7//13
f  8//14 5//14 4//14
f  5//14 8//14 10//15
f  2//16 12//16 3//16
f  12//16 2//16 11//17

