# {"id":"BLDG_0003000e0012386c","idOriginal":"BLDG_0003000e0012386c","origin":[13.34314514153456,52.56050113632303],"elevation":38.2099990844727}
# Longitude: 13.34314514153456
# Latitude: 52.56050113632303
# Elevation: 38.2099990844727

# File produced by Open Asset Import Library (http://www.assimp.sf.net)
# (assimp v3.1.0)

mtllib BLDG_0003000e0012386c.obj.mtl

# 12 vertex positions
v  11.0652 6.31981 -2.38773
v  7.73206 -6.13879e-17 1.00254
v  11.0651 1.46194e-16 -2.38753
v  4.39902 -2.6897e-16 4.39261
v  4.39916 6.31981 4.39241
v  7.73225 8.63612 1.00227
v  0.000134536 6.31981 -0.00020039
v  3.33304 2.07582e-16 -3.39007
v  0 0 0
v  6.66608 4.15164e-16 -6.78014
v  6.66621 6.31981 -6.78035
v  3.33322 8.63612 -3.39035

# 0 UV coordinates

# 20 vertex normals
vn 0.71308 7.07106e-06 0.701083
vn 0.71308 6.98309e-06 0.701083
vn 0.71308 7.04461e-06 0.701083
vn 0.71308 7.10145e-06 0.701083
vn -0.71308 -7.05007e-06 -0.701083
vn -0.71308 -7.04657e-06 -0.701083
vn -0.71308 -7.04371e-06 -0.701083
vn -0.71308 -7.01485e-06 -0.701083
vn -0.706591 3.74585e-05 0.707622
vn -0.706591 3.74793e-05 0.707622
vn 0.706591 -3.7479e-05 -0.707622
vn 0.706591 -3.75276e-05 -0.707622
vn 0 -1 -6.12323e-17
vn -1.43304e-23 -1 -6.12323e-17
vn 7.16519e-24 -1 -6.12323e-17
vn 3.58259e-24 -1 -6.12323e-17
vn -0.309489 0.898974 0.30994
vn -0.309489 0.898974 0.30994
vn 0.309498 0.898967 -0.30995
vn 0.309498 0.898967 -0.30995

# Mesh 'defaultobject' with 20 faces
g defaultobject
usemtl DefaultMaterial
f  1//1 2//1 3//1
f  2//1 1//1 4//2
f  4//2 1//1 5//3
f  5//3 1//1 6//4
f  7//5 8//5 9//5
f  8//5 7//5 10//6
f  10//6 7//5 11//7
f  11//7 7//5 12//8
f  5//9 9//9 4//9
f  9//9 5//9 7//10
f  10//11 1//11 3//11
f  1//11 10//11 11//12
f  2//13 10//13 3//13
f  10//13 2//13 4//14
f  10//13 4//14 8//15
f  8//15 4//14 9//16
f  7//17 6//17 12//17
f  6//17 7//17 5//18
f  12//19 1//19 11//19
f  1//19 12//19 6//20

