# {"id":"BLDG_00030000001bdc0e","idOriginal":"BLDG_00030000001bdc0e","origin":[13.346342815324872,52.54804883375294],"elevation":34.9900016784668}
# Longitude: 13.346342815324872
# Latitude: 52.54804883375294
# Elevation: 34.9900016784668

# File produced by Open Asset Import Library (http://www.assimp.sf.net)
# (assimp v3.1.0)

mtllib BLDG_00030000001bdc0e.obj.mtl

# 77 vertex positions
v  17.3297 19.76 2.58689
v  10.9624 21.47 -5.0669
v  15.6801 22.36 0.603881
v  8.97384 19.76 -7.45705
v  8.97339 -1.48 -7.45638
v  17.3293 -1.48 2.58756
v  10.9619 -1.48 -5.06617
v  15.6796 -1.48 0.604636
v  9.34358 19.76 9.13141
v  7.1197 19.76 10.9538
v  -2.50025 19.76 18.8372
v  7.11925 -1.48 10.9545
v  -2.50071 -1.48 18.8379
v  9.34312 -1.48 9.13208
v  0.000452234 19.76 -0.000672921
v  -2.20933 19.76 1.83553
v  -2.20978 -1.48 1.83621
v  0 -1.48 -9.06241e-17
v  5.27517 22.3442 9.15084
v  5.27517 22.36 9.15084
v  0.0142169 21.47 4.00877
v  5.27466 -1.48 9.15159
v  0.0142167 21.4608 4.00877
v  0.0137283 -1.48 4.00949
v  0.0256887 -1.48 4.02118
v  5.26338 -1.48 9.14057
v  -22.0191 -1.34 -0.236132
v  -18.1742 19.76 3.52014
v  -22.0186 19.76 -0.236801
v  -11.7692 19.76 9.77927
v  -18.1746 -1.34 3.5208
v  -18.1746 -1.48 3.52081
v  -11.7697 -1.48 9.77994
v  -4.60067 21.4608 3.82257
v  -4.60067 21.47 3.82257
v  -9.78534 22.3461 8.13073
v  -9.78534 22.36 8.13073
v  -9.78585 -1.48 8.13149
v  -4.60115 -1.48 3.8233
v  -4.61402 -1.48 3.83399
v  -9.77516 -1.48 8.1226
v  -13.3662 -1.34 -9.06817
v  -11.3657 22.12 -11.1102
v  -11.3662 -1.34 -11.1095
v  -15.5421 -1.34 -6.84722
v  -20.214 -1.34 -2.07859
v  -15.5416 21.47 -6.84795
v  -13.3657 22.12 -9.06891
v  -20.2135 22.36 -2.07934
v  -11.6975 21.47 -3.09066
v  -16.369 22.36 1.6776
v  -9.52159 19.76 -5.31155
v  -9.52204 -1.34 -5.31089
v  -16.3695 -1.48 1.67835
v  -11.6979 -1.48 -3.08993
v  -9.52204 -1.48 -5.31088
v  -7.52166 19.76 -7.35288
v  -7.52211 -1.34 -7.35221
v  -2.51924 22.5598 18.8574
v  -6.49018 -9.12378e-16 14.9003
v  -2.51972 -1.15473e-15 18.8581
v  -6.4897 22.5598 14.8996
v  -1.94579 -6.17935e-16 10.0916
v  -1.94531 22.5598 10.0909
v  2.61623 22.5598 14.638
v  2.61574 -8.96363e-16 14.6387
v  -16.3695 -1.34 1.67835
v  -11.6979 -1.34 -3.08994
v  0.0261774 21.47 4.02046
v  5.26389 22.36 9.13981
v  -4.61353 21.47 3.83326
v  -9.77465 22.36 8.12185
v  2.23596 21.47 2.18425
v  7.48777 22.36 7.31738
v  -2.34992 22.36 15.3995
v  -2.37715 21.47 5.99586
v  -2.08446 24.6598 14.6214

# 0 UV coordinates

# 133 vertex normals
vn 0.768751 -3.67703e-05 -0.639548
vn 0.768751 -3.66673e-05 -0.639548
vn 0.768751 -3.66544e-05 -0.639548
vn 0.768751 -3.65927e-05 -0.639548
vn 0 1 0
vn 0.633841 1.10106e-05 0.773463
vn 0.633841 1.08689e-05 0.773464
vn 0.633841 1.10323e-05 0.773463
vn 0.633841 1.09934e-05 0.773463
vn 0.633841 1.09457e-05 0.773464
vn 0.579576 0.404841 0.707245
vn -0.639099 -1.07331e-05 -0.769125
vn -0.639099 -1.07518e-05 -0.769125
vn -0.639099 -1.0759e-05 -0.769125
vn -0.636055 0.0974896 -0.765461
vn 0.698965 -6.43442e-05 -0.715156
vn 0.698986 -6.42504e-05 -0.715135
vn 0.698984 -3.75237e-05 -0.715137
vn 0.699034 -1.49454e-05 -0.715088
vn 0.698984 -3.75509e-05 -0.715137
vn 0.696819 0.0786457 -0.712922
vn 0.698984 0 -0.715137
vn 0.69898 -3.3531e-05 -0.715142
vn -0.698919 3.75058e-05 0.715201
vn -0.698919 3.7509e-05 0.715201
vn -0.698919 3.75255e-05 0.715201
vn -0.698919 3.76694e-05 0.715201
vn -0.698919 3.74898e-05 0.715201
vn -0.698919 2.98396e-05 0.715201
vn -0.639118 -3.35306e-05 -0.769108
vn -0.639097 0 -0.769126
vn -0.639099 -1.0773e-05 -0.769124
vn -0.639028 -3.09307e-05 -0.769184
vn -0.639099 -1.07427e-05 -0.769124
vn 0 -1 0
vn -0.63911 0 -0.769115
vn -0.714312 -6.94886e-06 -0.699827
vn -0.714313 -6.92944e-06 -0.699827
vn -0.714313 -6.89307e-06 -0.699827
vn -0.714312 -7.06059e-06 -0.699827
vn -0.714312 -7.00735e-06 -0.699827
vn -0.714312 -6.37665e-06 -0.699827
vn -0.714312 -7.70111e-06 -0.699827
vn -0.714312 -7.18187e-06 -0.699827
vn -0.714313 -7.08527e-06 -0.699827
vn -0.714313 -7.2172e-06 -0.699827
vn -0.714313 -6.93439e-06 -0.699827
vn -0.714313 -6.93107e-06 -0.699827
vn -0.714312 -1.17206e-05 -0.699827
vn -0.714312 -1.32048e-05 -0.699827
vn -0.714313 -4.08186e-06 -0.699827
vn -0.714312 -7.66814e-06 -0.699827
vn 0.698984 -3.75349e-05 -0.715137
vn 0.698984 -3.75327e-05 -0.715137
vn 0.698984 -3.75711e-05 -0.715137
vn 0.698981 -3.46431e-05 -0.71514
vn 0.698984 -3.75375e-05 -0.715137
vn -0.705984 3.74882e-05 0.708228
vn -0.705984 3.74658e-05 0.708228
vn -0.726793 -6.26283e-06 -0.686856
vn -0.726793 -6.29954e-06 -0.686856
vn 0.705984 -3.749e-05 -0.708228
vn 0.63483 1.09776e-05 0.772652
vn 0.714313 6.93473e-06 0.699827
vn 0.714312 6.91305e-06 0.699827
vn 0.714313 6.86135e-06 0.699827
vn 0.714313 7.08552e-06 0.699827
vn 0.714313 7.00758e-06 0.699827
vn 0.714313 7.23871e-06 0.699827
vn 0.714313 7.49914e-06 0.699827
vn -0.698985 4.40921e-05 0.715137
vn -0.698984 3.75291e-05 0.715137
vn -0.699 3.38351e-05 0.715122
vn -0.698984 3.75559e-05 0.715137
vn -0.698984 0 0.715137
vn -0.697676 -0.0611441 0.713799
vn 0.639102 4.56338e-05 0.769122
vn 0.639099 1.0774e-05 0.769124
vn 0.639095 1.2238e-05 0.769128
vn 0.639099 1.07475e-05 0.769124
vn -0.307986 0.876222 -0.370646
vn -0.307986 0.876222 -0.370646
vn 0.718068 -0.0522684 -0.694008
vn -0.0759251 0.9928 -0.0926499
vn -0.0772986 0.992659 -0.0930251
vn -0.076718 0.992648 -0.0936174
vn -0.0775035 0.99262 -0.0932718
vn 0.449975 0.704285 0.549095
vn 0.449975 0.704285 0.549095
vn 0.449975 0.704285 0.549095
vn 0.449975 0.704285 0.549095
vn 0.449976 0.704283 0.549097
vn 0.336849 0.876219 -0.344634
vn 0.336849 0.876219 -0.344633
vn 0.336802 0.876245 -0.344613
vn 0.336849 0.876219 -0.344634
vn 0.0923799 0.991226 -0.094532
vn 0.0923762 0.991229 -0.094511
vn 0.0923676 0.991229 -0.0945194
vn 0.0923696 0.99123 -0.0945042
vn -0.496168 0.704294 0.507727
vn -0.496168 0.704294 0.507727
vn -0.496168 0.704294 0.507727
vn -0.496217 0.704223 0.507777
vn -0.496172 0.704289 0.507731
vn -0.497489 0.702384 0.509078
vn -0.4978 0.702066 0.509213
vn 0.451335 0.702118 0.550752
vn 0.451335 0.702114 0.550756
vn 0.0919828 0.991305 -0.0940917
vn 0.0919627 0.991307 -0.0940879
vn -0.0771662 0.992684 -0.0928658
vn -0.0768061 0.992631 -0.0937244
vn 0.338237 0.875124 -0.346054
vn -0.309256 0.875127 -0.372174
vn 0.287155 0.915639 0.281332
vn 0.287155 0.915639 0.281332
vn 0.150607 0.899234 0.410727
vn -0.415797 0.820186 -0.392949
vn 0.378465 0.844166 -0.379668
vn 0.364299 0.818958 0.443388
vn -0.378452 0.844178 0.379655
vn -5.35411e-25 -1 -6.12323e-17
vn -1.55345e-25 -1 -6.12323e-17
vn -7.66139e-07 -1 -1.31096e-08
vn 8.27441e-08 -1 9.95784e-08
vn -5.00442e-08 -1 4.16333e-08
vn -5.00441e-08 -1 4.16333e-08
vn 4.10118e-07 -1 5.00459e-07
vn -1.91901e-06 -1 -1.42596e-06
vn 3.79051e-07 -1 -3.87811e-07
vn 2.05937e-07 -1 2.01761e-07
vn 1.54992e-07 -1 -6.07325e-07

# Mesh 'defaultobject' with 154 faces
g defaultobject
usemtl DefaultMaterial
f  1//1 2//1 3//1
f  2//1 1//1 4//2
f  4//2 1//1 5//3
f  5//3 1//1 6//4
f  5//5 6//5 7//5
f  7//5 6//5 8//5
f  9//6 6//6 1//6
f  6//6 9//6 10//7
f  6//6 10//7 11//8
f  6//6 11//8 12//9
f  12//9 11//8 13//10
f  6//11 12//11 14//11
f  5//12 15//12 4//12
f  15//12 5//12 16//13
f  16//13 5//12 17//14
f  17//15 5//15 18//15
f  10//16 19//16 20//16
f  19//17 21//17 20//17
f  21//18 19//18 22//18
f  21//19 22//19 23//19
f  23//20 22//18 24//20
f  24//21 22//21 25//21
f  25//22 22//22 26//22
f  16//23 21//18 23//20
f  27//24 28//24 29//24
f  28//24 27//24 30//25
f  30//25 27//24 11//26
f  11//26 27//24 31//27
f  11//26 31//27 13//28
f  13//28 31//27 32//29
f  13//5 32//5 33//5
f  16//30 34//30 35//30
f  35//31 36//31 37//31
f  36//32 35//32 38//32
f  38//33 35//33 34//33
f  38//32 34//34 39//34
f  38//35 39//35 40//35
f  38//5 40//5 41//5
f  30//36 37//36 36//36
f  42//37 43//37 44//37
f  43//37 42//37 45//38
f  43//37 45//38 46//39
f  43//37 46//39 27//40
f  43//37 27//40 29//41
f  43//37 29//41 47//42
f  43//37 47//42 48//43
f  47//42 29//41 49//44
f  50//45 28//45 51//45
f  28//45 50//45 52//46
f  28//45 52//46 31//47
f  31//47 52//46 53//48
f  31//47 53//48 32//49
f  32//49 53//48 54//50
f  54//50 53//48 55//51
f  55//51 53//48 56//52
f  44//53 57//53 58//53
f  57//53 44//53 43//54
f  56//55 16//23 17//55
f  16//23 56//55 53//56
f  16//23 53//56 52//57
f  59//58 60//58 61//58
f  60//58 59//58 62//59
f  62//60 63//60 60//60
f  63//60 62//60 64//61
f  63//62 65//62 66//62
f  65//62 63//62 64//62
f  66//63 59//63 61//63
f  59//63 66//63 65//63
f  67//64 28//64 31//64
f  28//64 67//64 68//65
f  28//64 68//65 53//66
f  28//64 53//66 58//67
f  28//64 58//67 57//68
f  28//35 57//35 52//35
f  52//69 51//69 28//64
f  51//69 52//69 50//70
f  69//71 19//71 70//71
f  19//71 69//71 22//72
f  22//73 69//73 23//73
f  22//72 23//74 24//74
f  22//75 24//75 25//75
f  22//76 25//76 26//76
f  36//77 71//77 72//77
f  71//78 36//78 38//78
f  71//78 38//78 34//79
f  34//79 38//78 39//80
f  39//5 38//5 40//5
f  40//35 38//35 41//35
f  4//81 73//81 2//81
f  73//81 4//81 15//82
f  73//81 15//82 69//82
f  69//82 15//82 16//82
f  69//83 16//83 23//83
f  2//84 74//84 3//84
f  74//85 2//85 73//85
f  74//86 73//86 70//86
f  70//87 73//87 69//87
f  3//88 9//88 1//88
f  9//88 3//88 74//89
f  9//88 74//89 10//90
f  10//90 74//89 19//91
f  19//91 74//89 70//92
f  50//93 52//93 47//93
f  52//93 50//93 71//94
f  52//95 71//95 34//95
f  52//93 34//96 16//96
f  71//97 51//97 72//97
f  51//98 71//98 50//98
f  51//99 50//99 49//99
f  49//100 50//98 47//100
f  28//101 49//101 29//101
f  49//101 28//101 30//102
f  49//101 30//102 36//103
f  49//104 36//104 51//104
f  51//105 36//103 72//105
f  11//106 37//106 30//106
f  37//107 11//107 75//107
f  75//108 10//108 20//108
f  10//108 75//108 11//109
f  75//110 35//110 37//110
f  35//111 75//111 76//111
f  76//112 20//112 21//112
f  20//113 76//113 75//113
f  76//114 16//114 35//114
f  21//115 16//115 76//115
f  52//116 43//116 48//116
f  43//116 52//116 57//117
f  47//118 52//118 48//118
f  62//119 77//119 64//119
f  77//120 65//120 64//120
f  77//121 59//121 65//121
f  62//122 59//122 77//122
f  60//123 66//123 61//123
f  66//123 60//123 63//124
f  54//35 33//35 32//35
f  33//35 54//35 55//35
f  33//35 55//35 56//35
f  33//35 56//35 17//35
f  33//35 17//35 13//35
f  13//35 17//35 18//125
f  13//35 18//125 5//126
f  13//35 5//126 7//127
f  13//35 7//127 8//128
f  13//35 8//128 12//129
f  12//129 8//128 14//130
f  14//130 8//128 6//35
f  58//131 42//131 44//131
f  42//131 58//131 45//132
f  45//132 58//131 53//133
f  45//132 53//133 46//35
f  46//35 53//133 68//35
f  46//35 68//35 67//35
f  46//35 67//35 27//35
f  27//35 67//35 31//35

