# {"id":"BLDG_0003000e00528a19","idOriginal":"BLDG_0003000e00528a19","origin":[13.372497740241368,52.5342395481353],"elevation":35.5299987792969}
# Longitude: 13.372497740241368
# Latitude: 52.5342395481353
# Elevation: 35.5299987792969

# File produced by Open Asset Import Library (http://www.assimp.sf.net)
# (assimp v3.1.0)

mtllib BLDG_0003000e00528a19.obj.mtl

# 12 vertex positions
v  3.56601 3.30939 6.54673
v  0 0 0
v  3.56594 -4.00878e-16 6.54683
v  7.0578e-05 3.30939 -0.000104751
v  4.72302 3.30939 8.67062
v  4.72295 -5.30929e-16 8.67073
v  19.2503 -5.47916e-17 0.894815
v  19.2504 3.30939 0.89471
v  17.5923 1.36309e-16 -2.22609
v  17.5924 3.30939 -2.22619
v  14.6235 4.71429e-16 -7.69902
v  14.6236 3.30939 -7.69912

# 0 UV coordinates

# 15 vertex normals
vn -0.87818 3.38206e-05 0.47833
vn -0.87818 3.38689e-05 0.47833
vn -0.878154 3.38905e-05 0.478379
vn -0.878154 3.38216e-05 0.478379
vn 0.47191 1.79085e-05 0.881647
vn 0.883111 -3.36365e-05 -0.469163
vn 0.879006 -3.37868e-05 -0.47681
vn 0.879006 -3.38794e-05 -0.47681
vn -0.465861 -1.80728e-05 -0.884858
vn -0.465861 -1.81147e-05 -0.884858
vn 1.06274e-23 -1 -6.12323e-17
vn 2.15486e-25 -1 -6.12323e-17
vn -3.28218e-25 -1 -6.12323e-17
vn 5.54427e-22 -1 -6.12326e-17
vn 0 1 0

# Mesh 'defaultobject' with 20 faces
g defaultobject
usemtl DefaultMaterial
f  1//1 2//1 3//1
f  2//1 1//1 4//2
f  5//3 3//3 6//3
f  3//3 5//3 1//4
f  7//5 5//5 6//5
f  5//5 7//5 8//5
f  9//6 8//6 7//6
f  8//6 9//6 10//6
f  11//7 10//7 9//7
f  10//7 11//7 12//8
f  4//9 11//9 2//9
f  11//9 4//9 12//10
f  3//11 7//11 6//11
f  7//11 3//11 2//12
f  7//11 2//12 11//13
f  7//11 11//13 9//14
f  1//15 12//15 4//15
f  12//15 1//15 10//15
f  10//15 1//15 8//15
f  8//15 1//15 5//15

