# {"id":"BLDG_0003000000375ee4","idOriginal":"BLDG_0003000000375ee4","origin":[13.348905537707312,52.528720839109845],"elevation":34.3699989318848}
# Longitude: 13.348905537707312
# Latitude: 52.528720839109845
# Elevation: 34.3699989318848

# File produced by Open Asset Import Library (http://www.assimp.sf.net)
# (assimp v3.1.0)

mtllib BLDG_0003000000375ee4.obj.mtl

# 34 vertex positions
v  -0.0675412 7.71811 -29.5515
v  0.165096 -0.439999 -44.605
v  -0.067715 -0.439999 -29.5512
v  0.165269 7.71811 -44.6052
v  21.7856 -0.439999 -44.2481
v  21.7858 7.71811 -44.2484
v  21.5529 7.71811 -29.1946
v  21.5528 -0.439999 -29.1944
v  15.0227 -0.899998 0.695634
v  0.000129132 5.16424 -0.000191879
v  0 -0.899998 -5.5109e-17
v  15.0228 5.16424 0.695442
v  0.345187 -0.899998 -29.7738
v  0.345316 5.16424 -29.774
v  15.3679 -0.899998 -29.0782
v  15.368 5.16424 -29.0784
v  21.8363 2.91156e-15 -47.5493
v  21.7859 4.18944 -44.2548
v  21.7858 2.70982e-15 -44.2546
v  21.8364 4.18944 -47.5495
v  8.72434 4.18944 -47.7629
v  8.72425 2.92463e-15 -47.7628
v  8.63169 4.18944 -44.4654
v  8.63161 2.72271e-15 -44.4653
v  21.7857 2.70942e-15 -44.2481
v  21.7858 4.18944 -44.2483
v  14.8065 -0.189999 10.7585
v  4.06542 4.33582 10.5436
v  4.06532 -0.189999 10.5438
v  14.8066 4.33582 10.7584
v  4.24991 -0.189999 0.338346
v  4.25001 4.33582 0.338203
v  14.9911 -0.189999 0.553085
v  14.9912 4.33582 0.552942

# 0 UV coordinates

# 31 vertex normals
vn -0.99988 2.07997e-05 -0.0154634
vn 0.0165033 -3.21436e-05 -0.999864
vn 0.0165033 -3.21433e-05 -0.999864
vn 0.99988 -2.07856e-05 0.0154635
vn 0.99988 -2.07817e-05 0.0154635
vn -0.0165032 3.21448e-05 0.999864
vn -0.0165033 3.19097e-05 0.999864
vn -0.0462561 3.25844e-05 0.99893
vn -0.999933 2.09258e-05 -0.0115929
vn -0.999933 2.09246e-05 -0.0115929
vn 0.0462561 -3.27179e-05 -0.99893
vn 0.0462561 -3.2715e-05 -0.99893
vn 0.999933 -2.08568e-05 0.0115928
vn 0.999883 -2.09077e-05 0.0153198
vn 0.0162783 -3.22097e-05 -0.999867
vn 0.0162783 -3.22134e-05 -0.999867
vn -0.999606 2.04945e-05 -0.0280845
vn -0.999606 2.02669e-05 -0.0280842
vn -0.0165034 3.22183e-05 0.999864
vn -0.0199881 3.20295e-05 0.9998
vn -0.0199881 3.20246e-05 0.9998
vn -0.999836 2.08129e-05 -0.0180843
vn -0.999836 2.08123e-05 -0.0180843
vn 0.0199881 -3.20619e-05 -0.9998
vn 0.0199881 -3.20532e-05 -0.9998
vn 0.999836 -2.07063e-05 0.0180843
vn 1.64321e-22 -1 -6.12414e-17
vn 1.96922e-23 -1 -6.12323e-17
vn 2.27173e-23 -1 -6.12323e-17
vn 0 -1 0
vn 0 1 0

# Mesh 'defaultobject' with 50 faces
g defaultobject
usemtl DefaultMaterial
f  1//1 2//1 3//1
f  2//1 1//1 4//1
f  4//2 5//2 2//2
f  5//2 4//2 6//3
f  5//4 7//4 8//4
f  7//4 5//4 6//5
f  8//6 1//6 3//6
f  1//6 8//6 7//7
f  9//8 10//8 11//8
f  10//8 9//8 12//8
f  10//9 13//9 11//9
f  13//9 10//9 14//10
f  14//11 15//11 13//11
f  15//11 14//11 16//12
f  15//13 12//13 9//13
f  12//13 15//13 16//13
f  17//14 18//14 19//14
f  18//14 17//14 20//14
f  21//15 17//15 22//15
f  17//15 21//15 20//16
f  23//17 22//17 24//17
f  22//17 23//17 21//18
f  25//19 23//19 24//19
f  23//19 25//19 26//19
f  27//20 28//20 29//20
f  28//20 27//20 30//21
f  28//22 31//22 29//22
f  31//22 28//22 32//23
f  32//24 33//24 31//24
f  33//24 32//24 34//25
f  33//26 30//26 27//26
f  30//26 33//26 34//26
f  24//27 19//27 25//27
f  19//27 24//27 17//28
f  17//28 24//27 22//29
f  29//30 33//30 27//30
f  33//30 29//30 31//30
f  5//30 3//30 2//30
f  3//30 5//30 8//30
f  11//30 15//30 9//30
f  15//30 11//30 13//30
f  18//31 23//31 26//31
f  23//31 18//31 20//31
f  23//31 20//31 21//31
f  34//31 28//31 30//31
f  28//31 34//31 32//31
f  1//31 6//31 4//31
f  6//31 1//31 7//31
f  16//31 10//31 12//31
f  10//31 16//31 14//31

