# {"id":"BLDG_0003000b006f7b5a","idOriginal":"BLDG_0003000b006f7b5a","origin":[13.338324612844186,52.53242758854254],"elevation":34.6399993896484}
# Longitude: 13.338324612844186
# Latitude: 52.53242758854254
# Elevation: 34.6399993896484

# File produced by Open Asset Import Library (http://www.assimp.sf.net)
# (assimp v3.1.0)

mtllib BLDG_0003000b006f7b5a.obj.mtl

# 62 vertex positions
v  -29.2993 3.24455e-16 -5.29875
v  -18.8616 1.90795e-15 -31.1592
v  -23.5691 2.62385e-16 -4.28506
v  -24.5947 1.96901e-15 -32.1564
v  -15.9432 1.99861e-15 -32.6398
v  -16.3029 1.8807e-15 -30.7142
v  -24.2567 2.08716e-15 -34.086
v  -14.4495 2.48821e-15 -40.6356
v  -22.8534 2.57771e-15 -42.0971
v  -13.9028 2.66739e-15 -43.5619
v  -16.6067 2.69619e-15 -44.0322
v  -22.3398 2.75725e-15 -45.0293
v  -16.323 0.16 -30.7474
v  -12.6505 0.16 -36.1485
v  -12.9319 0.16 -30.1771
v  -12.8548 0.16 -36.189
v  -14.4786 0.16 -40.3388
v  -12.3128 0.16 -39.9565
v  -27.0913 0.440001 -9.89817
v  4.28931 0.440001 -1.69135
v  -27.5459 0.440001 -7.60336
v  -25.9424 0.440001 -15.6979
v  -25.2508 0.440001 -19.1892
v  4.7439 0.440001 -3.98616
v  5.89281 0.440001 -9.78593
v  6.58441 0.440001 -13.2772
v  5.95311 -0.41 1.03522
v  4.43842 -0.41 -25.2439
v  10.3915 -0.41 -24.2087
v  0 -0.41 -2.51052e-17
v  -13.9024 19.5896 -43.5625
v  -17.1199 22.954 -41.1007
v  -14.449 22.954 -40.6364
v  -22.8529 22.954 -42.0979
v  -16.6063 19.5896 -44.0328
v  -22.3394 19.5896 -45.03
v  -18.5232 21.6711 -33.0895
v  -15.9427 21.6711 -32.6405
v  -24.2563 21.6711 -34.0867
v  -18.8612 19.5896 -31.1598
v  -16.3025 19.5896 -30.7148
v  -24.5942 22.3328 -32.1571
v  -29.2988 22.3328 -5.29946
v  -23.5687 19.5896 -4.28568
v  -12.6501 19.0256 -36.1491
v  -12.8544 19.0256 -36.1896
v  -12.9315 19.0256 -30.1777
v  -14.4782 19.0256 -40.3394
v  -16.3226 19.0256 -30.748
v  -12.3124 19.0256 -39.9571
v  5.89325 21.36 -9.78659
v  -25.2504 17.62 -19.1897
v  -25.9419 21.36 -15.6986
v  6.58478 17.62 -13.2777
v  4.74435 21.36 -3.98682
v  -27.0908 21.36 -9.89883
v  4.28968 17.62 -1.69189
v  -27.5455 17.62 -7.6039
v  4.43888 21.2476 -25.2446
v  5.95359 22.4355 1.0345
v  10.392 22.4355 -24.2094
v  0.000460871 21.2476 -0.00068545

# 0 UV coordinates

# 81 vertex normals
vn 0 -1 -6.12323e-17
vn -2.20208e-23 -1 -6.12323e-17
vn 1.43087e-23 -1 -6.12324e-17
vn 5.60445e-24 -1 -6.12322e-17
vn 1.77407e-23 -1 -6.12323e-17
vn -1.14462e-23 -1 -6.12324e-17
vn -9.38244e-24 -1 -6.12324e-17
vn 1.90342e-23 -1 -6.12322e-17
vn 1.52804e-24 -1 -6.12323e-17
vn 0 -1 0
vn 0.128281 0.662615 -0.737892
vn 0.128339 0.662644 -0.737856
vn 0.128339 0.662644 -0.737856
vn 0.128339 0.662644 -0.737856
vn -0.0267075 0.987788 0.153498
vn -0.0266994 0.987788 0.153502
vn -0.0266887 0.987785 0.153517
vn -0.0267 0.987787 0.153506
vn -0.124789 0.68534 0.717452
vn -0.124801 0.685349 0.717441
vn 0 1 0
vn 0.451822 0.865172 -0.217565
vn 0.420012 0.904532 0.0735723
vn 0.420012 0.904531 0.0735724
vn 0.132273 0.68933 -0.712269
vn -0.154797 0.530303 0.833556
vn -0.154797 0.530303 0.833556
vn -0.189977 0.98122 -0.0334021
vn -0.189977 0.98122 -0.0334021
vn -0.985002 1.53074e-05 -0.17254
vn -0.985002 1.63321e-05 -0.17254
vn -0.985002 1.54874e-05 -0.17254
vn -0.985002 1.54102e-05 -0.17254
vn 2.22045e-16 1 1.11022e-16
vn -4.44089e-16 1 -5.55112e-17
vn 4.44089e-16 1 1.11022e-16
vn 0.982994 -1.53516e-05 0.183639
vn 0.982994 -1.46533e-05 0.183638
vn 0.982994 -1.50836e-05 0.183639
vn 0.982994 -1.51524e-05 0.183639
vn -2.22045e-16 1 1.85037e-17
vn 0.171362 -3.49172e-05 -0.985208
vn 0.171362 -3.49215e-05 -0.985208
vn 0.171362 -3.49089e-05 -0.985208
vn 3.81639e-17 1 -1.66533e-16
vn -0.171362 3.48117e-05 0.985208
vn -0.171362 3.48304e-05 0.985208
vn 0.985003 -1.55452e-05 0.17254
vn 0.985003 -1.54452e-05 0.17254
vn -0.174199 3.48607e-05 0.984711
vn -0.174198 3.48775e-05 0.984711
vn -0.165839 3.47447e-05 0.986153
vn -0.165839 3.47355e-05 0.986153
vn 0.998891 -1.97684e-05 0.0470819
vn 0.998891 -1.97737e-05 0.047082
vn 0.194481 -3.52689e-05 -0.980906
vn 0.194498 -3.50807e-05 -0.980903
vn 0.989812 -1.6495e-05 0.142378
vn 0.989812 -1.65747e-05 0.142378
vn 0.173866 -3.47636e-05 -0.984769
vn -0.982007 1.49728e-05 -0.188843
vn -0.982007 1.49422e-05 -0.188843
vn -0.980938 1.48576e-05 -0.194319
vn -0.980938 1.4519e-05 -0.194319
vn -0.980938 1.4645e-05 -0.194319
vn -0.980938 1.47613e-05 -0.194319
vn 0.980938 -1.47929e-05 0.194319
vn 0.980938 -1.46809e-05 0.194319
vn 0.980938 -1.47341e-05 0.194319
vn 0.980938 -1.47296e-05 0.194319
vn 0.182585 -3.4981e-05 -0.98319
vn 0.182585 -3.49962e-05 -0.98319
vn -0.182585 3.50008e-05 0.98319
vn -0.182585 3.49734e-05 0.98319
vn 0.984893 -1.54919e-05 0.173165
vn -0.171325 3.48304e-05 0.985214
vn -0.171325 3.48329e-05 0.985215
vn -0.984893 1.54778e-05 -0.173165
vn -0.984893 1.54723e-05 -0.173165
vn 0.171325 -3.47928e-05 -0.985214
vn 0.171325 -3.4822e-05 -0.985215

# Mesh 'defaultobject' with 108 faces
g defaultobject
usemtl DefaultMaterial
f  1//1 2//1 3//1
f  2//1 1//1 4//2
f  2//1 5//3 6//3
f  5//3 2//1 4//2
f  5//3 4//2 7//4
f  5//3 7//4 8//5
f  8//5 7//4 9//6
f  8//5 9//6 10//7
f  10//7 9//6 11//8
f  11//8 9//6 12//9
f  13//10 14//10 15//10
f  14//10 13//10 16//10
f  16//10 13//10 17//10
f  16//10 17//10 18//10
f  19//10 20//10 21//10
f  20//10 19//10 22//10
f  20//10 22//10 23//10
f  20//10 23//10 24//10
f  24//10 23//10 25//10
f  25//10 23//10 26//10
f  27//10 28//10 29//10
f  28//10 27//10 30//10
f  31//11 32//11 33//11
f  32//12 31//12 34//12
f  34//12 31//12 35//13
f  34//12 35//13 36//14
f  33//15 37//15 38//15
f  37//15 33//15 39//16
f  39//17 33//17 32//17
f  39//16 32//18 34//18
f  38//19 40//19 41//19
f  40//20 38//20 39//20
f  39//21 38//21 37//21
f  39//22 42//22 40//22
f  40//23 43//23 44//23
f  43//23 40//23 42//24
f  45//21 46//21 47//21
f  47//21 48//21 49//21
f  48//21 47//21 46//21
f  48//21 46//21 50//21
f  51//25 52//25 53//25
f  52//25 51//25 54//25
f  55//21 53//21 56//21
f  53//21 55//21 51//21
f  57//26 56//26 58//26
f  56//26 57//26 55//27
f  59//28 60//28 61//28
f  60//28 59//28 62//29
f  36//30 39//30 34//30
f  39//30 43//31 42//31
f  43//31 39//30 1//32
f  1//32 39//30 36//30
f  1//32 36//30 12//33
f  1//34 12//34 9//34
f  1//34 9//34 7//35
f  1//34 7//35 4//36
f  38//37 31//37 33//37
f  31//37 38//37 41//38
f  31//37 41//38 10//39
f  10//39 41//38 6//40
f  10//7 6//3 8//5
f  8//41 6//41 5//41
f  10//42 35//42 31//42
f  35//42 10//42 36//43
f  36//43 10//42 12//44
f  12//34 10//45 11//45
f  6//46 40//46 2//46
f  40//46 6//46 41//47
f  2//48 44//48 3//48
f  44//48 2//48 40//49
f  3//50 43//50 1//50
f  43//50 3//50 44//51
f  15//52 49//52 13//52
f  49//52 15//52 47//53
f  14//54 47//54 15//54
f  47//54 14//54 45//55
f  46//56 14//56 16//56
f  14//57 46//57 45//57
f  18//58 46//58 16//58
f  46//58 18//58 50//59
f  48//60 18//60 17//60
f  18//60 48//60 50//60
f  49//61 17//61 13//61
f  17//61 49//61 48//62
f  52//63 56//63 53//63
f  56//63 52//63 58//64
f  58//64 52//63 23//65
f  58//64 23//65 21//66
f  21//10 23//10 22//10
f  21//10 22//10 19//10
f  55//67 54//67 51//67
f  54//67 55//67 57//68
f  54//67 57//68 26//69
f  26//69 57//68 20//70
f  26//21 20//21 25//21
f  25//21 20//70 24//10
f  52//71 26//71 23//71
f  26//71 52//71 54//72
f  20//73 58//73 21//73
f  58//73 20//73 57//74
f  29//75 60//75 27//75
f  60//75 29//75 61//75
f  27//76 62//76 30//76
f  62//76 27//76 60//77
f  62//78 28//78 30//78
f  28//78 62//78 59//79
f  59//80 29//80 28//80
f  29//80 59//80 61//81

