# {"id":"BLDG_0003000f0010a958","idOriginal":"BLDG_0003000f0010a958","origin":[13.34723119809267,52.508352586996004],"elevation":32.0299987792969}
# Longitude: 13.34723119809267
# Latitude: 52.508352586996004
# Elevation: 32.0299987792969

# File produced by Open Asset Import Library (http://www.assimp.sf.net)
# (assimp v3.1.0)

mtllib BLDG_0003000f0010a958.obj.mtl

# 8 vertex positions
v  11.7614 -1.28314e-16 2.09552
v  7.2351e-05 3.39829 -0.00010738
v  0 0 0
v  11.7614 3.39829 2.09542
v  12.3142 6.18931e-17 -1.01079
v  12.3143 3.39829 -1.0109
v  0.553186 3.39829 -3.1055
v  0.553114 1.90151e-16 -3.10539

# 0 UV coordinates

# 10 vertex normals
vn -0.175408 3.48132e-05 0.984496
vn -0.175408 3.49072e-05 0.984496
vn 0.98453 -1.54542e-05 0.175215
vn 0.175337 -3.48156e-05 -0.984508
vn 0.175337 -3.48563e-05 -0.984508
vn -0.984505 1.54197e-05 -0.175354
vn -0.984505 1.5427e-05 -0.175354
vn 0 1 0
vn 3.51124e-25 -1 -6.12323e-17
vn 7.02464e-25 -1 -6.12323e-17

# Mesh 'defaultobject' with 12 faces
g defaultobject
usemtl DefaultMaterial
f  1//1 2//1 3//1
f  2//1 1//1 4//2
f  5//3 4//3 1//3
f  4//3 5//3 6//3
f  7//4 5//4 8//4
f  5//4 7//4 6//5
f  2//6 8//6 3//6
f  8//6 2//6 7//7
f  2//8 6//8 7//8
f  6//8 2//8 4//8
f  3//9 5//9 1//9
f  5//9 3//9 8//10

