# {"id":"BLDG_0003000f000909d5","idOriginal":"BLDG_0003000f000909d5","origin":[13.392917657832589,52.543954780748976],"elevation":46.1599998474121}
# Longitude: 13.392917657832589
# Latitude: 52.543954780748976
# Elevation: 46.1599998474121

# File produced by Open Asset Import Library (http://www.assimp.sf.net)
# (assimp v3.1.0)

mtllib BLDG_0003000f000909d5.obj.mtl

# 26 vertex positions
v  25.7528 15.7542 -3.76007
v  20.9537 15.7542 5.40983
v  21.2322 15.7542 5.53913
v  18.7701 15.7542 4.39837
v  25.4605 15.7542 -3.90062
v  23.3283 15.7542 -4.93111
v  17.1634 15.7542 3.65384
v  19.2561 15.7542 -6.89845
v  13.7748 15.7542 5.16923
v  11.6318 15.7542 6.12836
v  4.13956 15.7542 9.48049
v  18.6531 15.7542 -8.26382
v  0.000336426 15.7542 -0.00049896
v  21.2319 -3.39204e-16 5.53963
v  25.4602 2.38813e-16 -3.90012
v  25.7525 2.30208e-16 -3.75957
v  23.328 3.01913e-16 -4.93061
v  19.2557 4.22378e-16 -6.89795
v  20.9534 -3.31287e-16 5.41033
v  18.7698 -2.69353e-16 4.39887
v  17.1631 -2.23764e-16 3.65434
v  18.6528 5.05983e-16 -8.26332
v  0 0 0
v  13.7745 -3.16554e-16 5.16973
v  11.6314 -3.75285e-16 6.12886
v  4.13922 -5.80543e-16 9.48099

# 0 UV coordinates

# 37 vertex normals
vn 0 1 0
vn 2.52586e-22 -1 -6.12322e-17
vn -6.4864e-24 -1 -6.12323e-17
vn 4.52853e-24 -1 -6.12323e-17
vn -2.63981e-22 -1 -6.12323e-17
vn 3.36674e-23 -1 -6.12323e-17
vn -4.57548e-23 -1 -6.12323e-17
vn -8.03855e-23 -1 -6.12323e-17
vn 2.01686e-24 -1 -6.12323e-17
vn -2.75787e-24 -1 -6.12323e-17
vn 8.71763e-24 -1 -6.12323e-17
vn 0 -1 -6.12323e-17
vn 0.899362 -5.31592e-06 0.437205
vn 0.899362 -5.33934e-06 0.437205
vn 0.433341 -3.78324e-05 -0.90123
vn 0.433343 -3.778e-05 -0.901229
vn 0.435141 -3.78044e-05 -0.900362
vn 0.435141 -3.78435e-05 -0.900362
vn 0.435007 -3.7829e-05 -0.900427
vn 0.435007 -3.78036e-05 -0.900427
vn 0.914769 -3.23923e-05 -0.403978
vn -0.405041 -2.03077e-05 -0.914298
vn -0.405041 -2.02666e-05 -0.914298
vn -0.916466 3.22234e-05 0.400112
vn -0.916466 3.2243e-05 0.400112
vn 0.408402 2.01784e-05 0.912802
vn 0.408402 2.01932e-05 0.912802
vn 0.408505 2.01939e-05 0.912756
vn 0.408505 2.01681e-05 0.912756
vn 0.408241 2.01565e-05 0.912874
vn 0.408241 2.02055e-05 0.912874
vn -0.42044 3.77098e-05 0.90732
vn -0.42044 3.77354e-05 0.90732
vn -0.420313 3.77578e-05 0.907379
vn -0.420314 3.77076e-05 0.907379
vn -0.421062 3.76889e-05 0.907032
vn -0.421058 3.77665e-05 0.907034

# Mesh 'defaultobject' with 48 faces
g defaultobject
usemtl DefaultMaterial
f  1//1 2//1 3//1
f  2//1 1//1 4//1
f  4//1 1//1 5//1
f  4//1 5//1 6//1
f  4//1 6//1 7//1
f  7//1 6//1 8//1
f  7//1 8//1 9//1
f  9//1 8//1 10//1
f  10//1 8//1 11//1
f  11//1 8//1 12//1
f  11//1 12//1 13//1
f  14//2 15//2 16//2
f  15//2 14//2 17//3
f  17//3 14//2 18//4
f  18//4 14//2 19//5
f  18//4 19//5 20//6
f  18//4 20//6 21//7
f  18//4 21//7 22//8
f  22//8 21//7 23//9
f  23//9 21//7 24//10
f  23//9 24//10 25//11
f  23//9 25//11 26//12
f  3//13 16//13 1//13
f  16//13 3//13 14//14
f  5//15 16//15 15//15
f  16//15 5//15 1//16
f  6//17 15//17 17//17
f  15//17 6//17 5//18
f  8//19 17//19 18//19
f  17//19 8//19 6//20
f  8//21 22//21 12//21
f  22//21 8//21 18//21
f  13//22 22//22 23//22
f  22//22 13//22 12//23
f  11//24 23//24 26//24
f  23//24 11//24 13//25
f  11//26 25//26 10//26
f  25//26 11//26 26//27
f  10//28 24//28 9//28
f  24//28 10//28 25//29
f  9//30 21//30 7//30
f  21//30 9//30 24//31
f  7//32 20//32 4//32
f  20//32 7//32 21//33
f  4//34 19//34 2//34
f  19//34 4//34 20//35
f  2//36 14//36 3//36
f  14//36 2//36 19//37

