# {"id":"BLDG_00030000001e20bd","idOriginal":"BLDG_00030000001e20bd","origin":[13.364936570808638,52.553562097004516],"elevation":37.9099998474121}
# Longitude: 13.364936570808638
# Latitude: 52.553562097004516
# Elevation: 37.9099998474121

# File produced by Open Asset Import Library (http://www.assimp.sf.net)
# (assimp v3.1.0)

mtllib BLDG_00030000001e20bd.obj.mtl

# 34 vertex positions
v  13.2541 21.9753 -31.206
v  13.083 19.5248 -25.0285
v  18.5808 21.9753 -31.0693
v  0.98579 21.9753 -31.5208
v  0.792648 19.5248 -25.3438
v  18.4098 21.9753 -24.8919
v  18.0643 21.9753 -12.4118
v  12.7376 19.5248 -12.5514
v  12.658 21.1709 -9.67384
v  17.9846 21.1709 -9.53416
v  0.312956 21.1709 -9.99759
v  0.402867 19.5248 -12.8749
v  12.4906 21.7526 -3.62758
v  17.8173 21.7526 -3.48791
v  0.123976 21.7526 -3.95182
v  12.3811 19.5248 0.324032
v  17.7078 19.5248 0.463709
v  0.000416213 19.5248 -0.00061879
v  17.8168 2.13531e-16 -3.48722
v  17.7074 -2.84319e-17 0.464328
v  17.9842 5.83758e-16 -9.53349
v  18.0638 7.59963e-16 -12.4111
v  18.4093 1.52415e-15 -24.8912
v  18.5804 1.90241e-15 -31.0686
v  0.985322 1.93005e-15 -31.5201
v  13.2536 1.91077e-15 -31.2053
v  0.402451 7.88321e-16 -12.8743
v  0 0 0
v  0.312505 6.12135e-16 -9.99692
v  0.123513 2.41937e-16 -3.95113
v  12.3807 -1.98791e-17 0.324651
v  13.0826 1.53251e-15 -25.0279
v  0.792232 1.55182e-15 -25.3432
v  12.7372 7.68516e-16 -12.5508

# 0 UV coordinates

# 59 vertex normals
vn -0.00945467 0.929582 0.368495
vn -0.00945477 0.929582 0.368495
vn -0.00945472 0.929582 0.368495
vn -0.417667 0.908527 -0.0115628
vn -0.417667 0.908527 -0.0115628
vn -0.417667 0.908527 -0.0115628
vn 0.0130124 0.86809 -0.496236
vn 0.0130138 0.86809 -0.496236
vn 0.0130125 0.868088 -0.49624
vn 0.00250947 0.995407 -0.0957
vn 0.00250912 0.995407 -0.0957003
vn 0.00250945 0.995407 -0.0956993
vn 0.0025097 0.995407 -0.0956988
vn -0.0128699 0.871177 0.490801
vn -0.0128699 0.871177 0.490801
vn -0.0128699 0.871177 0.490801
vn -0.0128682 0.871174 0.490805
vn -0.411332 0.880722 0.234806
vn 0.999617 -2.04111e-05 0.0276737
vn 0.999617 -2.03438e-05 0.0276734
vn 0.999617 -2.05515e-05 0.0276738
vn 0.999617 -2.04457e-05 0.0276737
vn 0.999617 -2.05975e-05 0.0276738
vn 0.999617 -2.04681e-05 0.0276737
vn 0.999617 -2.00001e-05 0.0276737
vn 0.999617 -2.07813e-05 0.0276736
vn 0.999617 -1.89922e-05 0.0276738
vn 0.999617 -2.10452e-05 0.0276737
vn 0.0256491 -3.22174e-05 -0.999671
vn 0.0256494 -3.21472e-05 -0.999671
vn 0.0256493 -3.22165e-05 -0.999671
vn 8.00642e-19 -1 -9.25186e-17
vn -0.999512 2.02973e-05 -0.0312449
vn -0.999512 2.02624e-05 -0.0312448
vn -0.999512 2.03181e-05 -0.0312449
vn -0.999512 2.03166e-05 -0.0312448
vn 0 0 1
vn -8.88178e-16 1 2.77556e-17
vn -0.0262132 3.22397e-05 0.999656
vn -0.0262132 3.22409e-05 0.999656
vn -0.0262132 3.22405e-05 0.999656
vn 0 1 0
vn -0.0256494 3.21884e-05 0.999671
vn -0.0256492 3.22847e-05 0.999671
vn -0.999512 2.03182e-05 -0.0312449
vn -0.999512 2.03161e-05 -0.0312449
vn -0.999617 2.04107e-05 -0.0276737
vn -0.999617 2.04094e-05 -0.0276737
vn 0.0262133 -3.21991e-05 -0.999656
vn 0.0262132 -3.22473e-05 -0.999656
vn -5.57428e-24 -1 -6.12323e-17
vn 0 -1 -6.12323e-17
vn 2.82674e-24 -1 -6.12323e-17
vn 0 -1 -6.12323e-17
vn 5.32957e-24 -1 -6.12323e-17
vn -2.89253e-25 -1 -6.12323e-17
vn -4.02126e-23 -1 -6.12323e-17
vn -2.6281e-23 -1 -6.12323e-17
vn -2.76097e-23 -1 -6.12323e-17

# Mesh 'defaultobject' with 64 faces
g defaultobject
usemtl DefaultMaterial
f  1//1 2//1 3//1
f  2//1 1//1 4//2
f  2//1 4//2 5//3
f  2//4 6//4 3//4
f  6//4 2//4 7//5
f  7//5 2//4 8//6
f  8//7 9//7 10//7
f  9//7 8//7 11//8
f  11//8 8//7 12//9
f  10//10 13//10 14//10
f  13//10 10//10 15//11
f  15//11 10//10 9//12
f  15//11 9//12 11//13
f  14//14 16//14 17//14
f  16//14 14//14 13//15
f  16//14 13//15 18//16
f  18//16 13//15 15//17
f  10//18 7//18 8//18
f  19//19 17//19 20//19
f  17//19 19//19 21//20
f  17//19 21//20 22//21
f  17//19 22//21 23//22
f  17//19 23//22 24//23
f  17//19 24//23 3//24
f  17//19 3//24 10//25
f  17//19 10//25 14//26
f  10//25 3//24 6//27
f  10//25 6//27 7//28
f  24//29 1//29 3//29
f  1//29 24//29 4//30
f  4//30 24//29 25//31
f  25//32 24//32 26//32
f  11//33 18//33 15//33
f  18//33 11//33 12//34
f  18//33 12//34 27//35
f  18//33 27//35 28//36
f  28//37 27//37 29//37
f  28//38 29//38 30//38
f  17//39 31//39 20//39
f  31//39 17//39 28//40
f  28//40 17//39 18//41
f  18//42 17//42 16//42
f  32//43 5//43 33//43
f  5//43 32//43 2//44
f  5//45 25//45 33//45
f  25//45 5//45 4//46
f  8//47 32//47 34//47
f  32//47 8//47 2//48
f  12//49 34//49 27//49
f  34//49 12//49 8//50
f  25//32 32//51 33//51
f  32//51 25//32 26//32
f  30//52 31//52 28//52
f  31//52 30//52 29//53
f  31//52 29//53 27//54
f  31//52 27//54 34//55
f  31//52 34//55 20//56
f  20//56 34//55 32//51
f  20//56 32//51 26//32
f  20//56 26//32 19//57
f  19//57 26//32 21//58
f  21//58 26//32 22//59
f  22//59 26//32 23//52
f  23//52 26//32 24//32

