# {"id":"BLDG_0003000e00559104","idOriginal":"BLDG_0003000e00559104","origin":[13.39320259318186,52.52532838127774],"elevation":31.8500003814697}
# Longitude: 13.39320259318186
# Latitude: 52.52532838127774
# Elevation: 31.8500003814697

# File produced by Open Asset Import Library (http://www.assimp.sf.net)
# (assimp v3.1.0)

mtllib BLDG_0003000e00559104.obj.mtl

# 32 vertex positions
v  15.0278 7.68994 1.02397
v  12.053 5.68994 4.40149
v  15.0327 5.68994 5.48967
v  15.0191 5.68994 -3.43154
v  18.0064 5.68994 -2.36349
v  15.0193 18.8028 -3.43196
v  7.8447 19.1714 2.8641
v  12.0533 19.1714 4.40107
v  10.6435 19.1714 -4.99645
v  8.47939 19.1714 -11.3663
v  2.78021 18.8028 -7.80779
v  6.71186 19.1714 -6.40213
v  4.54774 18.8028 -12.772
v  12.411 18.8028 -9.96062
v  10.6435 18.8028 -4.99644
v  0.000401517 18.8028 -0.00059477
v  3.92256 19.1714 1.43175
v  7.8447 18.8028 2.86411
v  6.18991 18.8028 7.51165
v  10.3062 19.1714 9.0149
v  12.0529 -2.69525e-16 4.40167
v  10.3058 -5.52041e-16 9.01551
v  6.18951 -4.59992e-16 7.51224
v  15.0326 -3.36156e-16 5.48985
v  18.0063 1.44711e-16 -2.36331
v  15.0189 2.1011e-16 -3.43136
v  10.6431 3.05907e-16 -4.99585
v  4.54733 7.82021e-16 -12.7714
v  2.7798 4.78053e-16 -7.80719
v  12.4106 6.09876e-16 -9.96002
v  0 0 0
v  7.84429 -1.75413e-16 2.86471

# 0 UV coordinates

# 45 vertex normals
vn -0.147682 0.902584 0.404391
vn -0.732764 0.621344 -0.277467
vn 0.144952 0.902561 -0.405429
vn 0.73277 0.621336 0.27747
vn 0.0150805 0.999033 -0.0412944
vn 0.074478 0.99687 0.0265184
vn -0.0828307 0.996127 -0.0294925
vn 0.0828309 0.996127 0.0294925
vn 0.0828309 0.996127 0.0294925
vn -0.0828307 0.996127 -0.0294925
vn 0.0828309 0.996127 0.0294925
vn -0.0255561 0.997221 0.0699791
vn -0.0783789 0.996482 -0.0296788
vn 0.9352 -8.80245e-06 0.354121
vn -0.343037 3.70309e-05 0.939322
vn -0.343037 3.70569e-05 0.939322
vn -0.343037 3.71177e-05 0.939322
vn 0.336658 -3.69722e-05 -0.941627
vn 0.336658 -3.70117e-05 -0.941627
vn 0.9352 -8.82215e-06 0.354121
vn 0.9352 -8.86207e-06 0.354121
vn 0.9352 -8.7836e-06 0.354121
vn 0.9352 -8.73524e-06 0.354121
vn -0.942066 1.00882e-05 -0.335429
vn -0.942066 9.08629e-06 -0.335429
vn 0.336658 -3.69519e-05 -0.941627
vn 0.336658 -3.69665e-05 -0.941627
vn -0.942065 9.50842e-06 -0.335429
vn -0.942065 9.49991e-06 -0.335429
vn 0.336658 -3.69904e-05 -0.941627
vn 0.336658 -3.69426e-05 -0.941627
vn 0.336658 -3.6565e-05 -0.941627
vn 0.942065 -9.50973e-06 0.335429
vn 0.942065 -9.50973e-06 0.335429
vn -0.343037 3.70298e-05 0.939322
vn -0.343037 3.70378e-05 0.939322
vn -0.343037 3.71835e-05 0.939322
vn -0.942065 9.50669e-06 -0.335429
vn -0.942066 9.50842e-06 -0.335429
vn -4.21073e-24 -1 -6.12323e-17
vn -6.61686e-24 -1 -6.12323e-17
vn -1.51954e-24 -1 -6.12323e-17
vn 4.79026e-24 -1 -6.12323e-17
vn 7.34647e-24 -1 -6.12323e-17
vn 0 -1 -6.12323e-17

# Mesh 'defaultobject' with 56 faces
g defaultobject
usemtl DefaultMaterial
f  1//1 2//1 3//1
f  4//2 2//2 1//2
f  1//3 5//3 4//3
f  3//4 5//4 1//4
f  6//5 7//5 8//5
f  7//6 6//6 9//6
f  10//7 11//7 12//7
f  11//7 10//7 13//7
f  14//8 12//8 15//8
f  12//8 14//8 10//9
f  12//7 16//10 17//10
f  16//10 12//7 11//7
f  15//8 17//11 18//11
f  17//11 15//8 12//8
f  7//12 19//12 8//12
f  8//13 19//13 20//13
f  21//14 20//14 22//14
f  20//14 21//14 8//14
f  22//15 19//15 23//15
f  19//15 22//15 20//16
f  24//17 2//17 21//17
f  2//17 24//17 3//17
f  4//18 25//18 26//18
f  25//18 4//18 5//19
f  25//20 3//20 24//20
f  3//20 25//20 5//21
f  4//22 8//14 2//22
f  8//14 4//22 6//23
f  7//24 15//24 18//24
f  15//24 7//24 9//25
f  9//26 26//18 27//26
f  26//18 9//26 6//27
f  11//28 28//28 29//28
f  28//28 11//28 13//29
f  13//30 30//30 28//30
f  30//30 13//30 14//31
f  14//31 13//30 10//32
f  30//33 15//33 27//33
f  15//33 30//33 14//34
f  18//35 31//35 32//35
f  31//35 18//35 16//36
f  16//36 18//35 17//37
f  16//38 29//28 31//38
f  29//28 16//38 11//28
f  19//39 32//39 23//39
f  32//39 19//39 7//24
f  29//40 30//40 27//40
f  30//40 29//40 28//41
f  31//42 27//40 32//42
f  27//40 31//42 29//40
f  21//43 23//43 32//42
f  23//43 21//43 22//44
f  26//45 24//45 21//43
f  24//45 26//45 25//45
f  21//43 27//40 26//45
f  27//40 21//43 32//42

