# {"id":"BLDG_0003000800382c30","idOriginal":"BLDG_0003000800382c30","origin":[13.353049618803164,52.54198093538301],"elevation":35.8300018310547}
# Longitude: 13.353049618803164
# Latitude: 52.54198093538301
# Elevation: 35.8300018310547

# File produced by Open Asset Import Library (http://www.assimp.sf.net)
# (assimp v3.1.0)

mtllib BLDG_0003000800382c30.obj.mtl

# 8 vertex positions
v  3.02608 3.26727 9.77598
v  0 0 0
v  3.02601 -5.98612e-16 9.77608
v  6.9594e-05 3.26727 -0.00010347
v  9.04984 -4.84402e-16 7.91088
v  9.04991 3.26727 7.91078
v  5.89426 1.21462e-16 -1.98362
v  5.89433 3.26727 -1.98372

# 0 UV coordinates

# 10 vertex normals
vn -0.955284 2.96763e-05 0.295691
vn -0.955284 2.9712e-05 0.295691
vn 0.295782 2.37917e-05 0.955256
vn 0.295782 2.39305e-05 0.955256
vn 0.952722 -2.99602e-05 -0.303845
vn -0.318957 -2.32206e-05 -0.947769
vn -0.318957 -2.32194e-05 -0.947769
vn -0 1 0
vn 6.56273e-24 -1 -6.12323e-17
vn -6.55799e-24 -1 -6.12323e-17

# Mesh 'defaultobject' with 12 faces
g defaultobject
usemtl DefaultMaterial
f  1//1 2//1 3//1
f  2//1 1//1 4//2
f  5//3 1//3 3//3
f  1//3 5//3 6//4
f  7//5 6//5 5//5
f  6//5 7//5 8//5
f  4//6 7//6 2//6
f  7//6 4//6 8//7
f  4//8 6//8 8//8
f  6//8 4//8 1//8
f  2//9 5//9 3//9
f  5//9 2//9 7//10

