# {"id":"BLDG_0003000b001f2c14","idOriginal":"BLDG_0003000b001f2c14","origin":[13.367538622928295,52.50183168055936],"elevation":34.3300018310547}
# Longitude: 13.367538622928295
# Latitude: 52.50183168055936
# Elevation: 34.3300018310547

# File produced by Open Asset Import Library (http://www.assimp.sf.net)
# (assimp v3.1.0)

mtllib BLDG_0003000b001f2c14.obj.mtl

# 18 vertex positions
v  11.5166 18.6249 3.48113
v  10.9359 18.6249 4.45786
v  11.0927 18.6249 4.52187
v  0.000397043 18.6249 -0.00058824
v  12.799 18.6249 0.324617
v  17.2692 18.6249 -10.6634
v  0.450579 18.6249 -1.11193
v  1.78109 18.6249 -4.38745
v  6.16406 18.6249 -15.1882
v  12.7986 -1.99131e-17 0.325206
v  6.16367 9.29976e-16 -15.1877
v  17.2688 6.52909e-16 -10.6628
v  1.7807 2.68618e-16 -4.38687
v  11.5162 -2.13194e-16 3.48172
v  0.450182 6.80502e-17 -1.11134
v  11.0923 -2.76921e-16 4.52246
v  10.9355 -2.73001e-16 4.45845
v  0 0 0

# 0 UV coordinates

# 20 vertex normals
vn 0 1 0
vn 0 -1 -6.12323e-17
vn 2.49963e-24 -1 -6.12323e-17
vn -7.86416e-24 -1 -6.12323e-17
vn 1.04616e-21 -1 -6.12336e-17
vn -1.86931e-24 -1 -6.12323e-17
vn 0.926452 -7.84498e-06 0.376414
vn 0.926283 -7.82147e-06 0.37683
vn 0.377335 -3.72952e-05 -0.926077
vn -0.926612 7.87591e-06 -0.37602
vn -0.926612 7.85812e-06 -0.37602
vn -0.926483 7.86408e-06 -0.376337
vn -0.926483 7.86315e-06 -0.376337
vn -0.926845 7.90046e-06 -0.375445
vn -0.926845 7.89996e-06 -0.375445
vn -0.377533 3.72885e-05 0.925996
vn -0.377865 3.72997e-05 0.925861
vn -0.377863 3.7319e-05 0.925861
vn 0.926152 -7.86017e-06 0.377152
vn 0.926152 -7.81746e-06 0.377151

# Mesh 'defaultobject' with 32 faces
g defaultobject
usemtl DefaultMaterial
f  1//1 2//1 3//1
f  2//1 1//1 4//1
f  4//1 1//1 5//1
f  4//1 5//1 6//1
f  4//1 6//1 7//1
f  7//1 6//1 8//1
f  8//1 6//1 9//1
f  10//2 11//2 12//2
f  11//2 10//2 13//2
f  13//2 10//2 14//2
f  13//2 14//2 15//3
f  15//3 14//2 16//4
f  15//3 16//4 17//5
f  15//3 17//5 18//6
f  10//7 1//7 14//7
f  1//7 10//7 5//7
f  12//8 5//8 10//8
f  5//8 12//8 6//8
f  9//9 12//9 11//9
f  12//9 9//9 6//9
f  8//10 11//10 13//10
f  11//10 8//10 9//11
f  7//12 13//12 15//12
f  13//12 7//12 8//13
f  4//14 15//14 18//14
f  15//14 4//14 7//15
f  17//16 4//16 18//16
f  4//16 17//16 2//16
f  16//17 2//17 17//17
f  2//17 16//17 3//18
f  14//19 3//19 16//19
f  3//19 14//19 1//20

