# {"id":"BLDG_0003000f003e6b43","idOriginal":"BLDG_0003000f003e6b43","origin":[13.354324541120233,52.552257361927396],"elevation":36.1}
# Longitude: 13.354324541120233
# Latitude: 52.552257361927396
# Elevation: 36.1

# File produced by Open Asset Import Library (http://www.assimp.sf.net)
# (assimp v3.1.0)

mtllib BLDG_0003000f003e6b43.obj.mtl

# 18 vertex positions
v  13.574 5.01 -7.23004
v  8.2228e-05 3.86 -0.00012232
v  2.71527 5.01 3.05014
v  10.8258 3.86 -10.249
v  8.63455 3.86 3.06708
v  16.3222 3.86 -4.21097
v  5.43042 3.86 6.10048
v  11.212 3.86 5.96268
v  7.95419 3.86 8.93577
v  5.43033 -3.73554e-16 6.10061
v  7.95411 -5.47166e-16 8.93589
v  2.71517 -1.86777e-16 3.0503
v  0 0 0
v  13.5739 4.42702e-16 -7.22988
v  10.8257 6.27565e-16 -10.2489
v  16.3221 2.5784e-16 -4.21085
v  8.63447 -1.87812e-16 3.0672
v  11.2119 -3.65116e-16 5.9628

# 0 UV coordinates

# 30 vertex normals
vn -0.186438 0.962527 -0.196931
vn -0.186438 0.962527 -0.196931
vn 0.186437 0.962528 0.19693
vn 0.186437 0.962528 0.19693
vn 0 1 0
vn -0.746949 3.70617e-05 0.664882
vn -0.746949 3.69962e-05 0.664882
vn -0.746949 3.69659e-05 0.664882
vn -0.746949 3.69705e-05 0.664882
vn -0.746949 3.69814e-05 0.664882
vn -0.746949 3.71622e-05 0.664882
vn 0.739498 -3.71672e-05 -0.673159
vn 0.739498 -3.71578e-05 -0.673159
vn 0.739498 -3.70875e-05 -0.673159
vn 0.739498 -3.70009e-05 -0.673159
vn 0.687495 8.40175e-06 0.726189
vn 0.687495 8.3084e-06 0.726189
vn -0.687495 -8.36684e-06 -0.726189
vn -0.687495 -8.53707e-06 -0.726189
vn 0.746949 -3.70927e-05 -0.664882
vn 0.746949 -3.69334e-05 -0.664882
vn 0.674092 9.18686e-06 0.738647
vn 0.674092 8.85075e-06 0.738647
vn 4.34831e-24 -1 -6.12323e-17
vn 3.76622e-24 -1 -6.12323e-17
vn 5.87898e-24 -1 -6.12323e-17
vn -6.19308e-24 -1 -6.12323e-17
vn -1.74002e-24 -1 -6.12323e-17
vn 1.96023e-23 -1 -6.12323e-17
vn -1.96023e-23 -1 -6.12323e-17

# Mesh 'defaultobject' with 32 faces
g defaultobject
usemtl DefaultMaterial
f  1//1 2//1 3//1
f  2//1 1//1 4//2
f  1//3 5//3 6//3
f  5//3 1//3 3//4
f  5//3 3//4 7//4
f  8//5 7//5 9//5
f  7//5 8//5 5//5
f  9//6 10//6 11//6
f  10//6 9//6 12//7
f  12//7 9//6 13//8
f  13//8 9//6 7//9
f  13//8 7//9 2//10
f  2//10 7//9 3//11
f  4//12 14//12 15//12
f  14//12 4//12 16//13
f  16//13 4//12 1//14
f  16//13 1//14 6//15
f  16//16 5//16 17//16
f  5//16 16//16 6//17
f  2//18 15//18 13//18
f  15//18 2//18 4//19
f  17//20 8//20 18//20
f  8//20 17//20 5//21
f  18//22 9//22 11//22
f  9//22 18//22 8//23
f  10//24 18//24 11//24
f  18//24 10//24 12//25
f  18//24 12//25 13//26
f  18//24 13//26 17//27
f  17//27 13//26 15//28
f  17//27 15//28 14//29
f  17//27 14//29 16//30

