# {"id":"BLDG_0003000e0011fb1f","idOriginal":"BLDG_0003000e0011fb1f","origin":[13.351147293259835,52.52663581857445],"elevation":33.2200012207031}
# Longitude: 13.351147293259835
# Latitude: 52.52663581857445
# Elevation: 33.2200012207031

# File produced by Open Asset Import Library (http://www.assimp.sf.net)
# (assimp v3.1.0)

mtllib BLDG_0003000e0011fb1f.obj.mtl

# 23 vertex positions
v  12.5308 20.162 -6.68581
v  19.2009 4.48177e-16 -7.31928
v  12.5303 4.09349e-16 -6.68517
v  25.8715 4.87004e-16 -7.95339
v  25.8719 20.162 -7.95402
v  19.2014 23.4911 -7.32002
v  26.3814 1.59978e-16 -2.61264
v  27.709 -6.91529e-16 11.2935
v  26.3818 20.162 -2.61327
v  27.7094 20.162 11.2929
v  1.28218 20.162 13.9101
v  0.640875 -4.25893e-16 6.95535
v  1.28175 -8.51785e-16 13.9107
v  0 0 0
v  0.000429388 20.162 -0.00063786
v  0.641375 23.4911 6.95461
v  14.3728 -7.724e-16 12.6143
v  14.3732 20.162 12.6136
v  13.0457 20.162 -1.29255
v  13.0452 7.91068e-17 -1.29191
v  19.7138 23.4911 -1.95302
v  20.3776 23.4911 5.00006
v  13.7095 23.4911 5.66043

# 0 UV coordinates

# 41 vertex normals
vn -0.0946338 -2.94878e-05 -0.995512
vn -0.0946338 -2.94718e-05 -0.995512
vn -0.0946338 -2.94878e-05 -0.995512
vn -0.0946338 -2.9434e-05 -0.995512
vn 0.995474 -2.41963e-05 -0.0950355
vn 0.995474 -2.42456e-05 -0.0950357
vn 0.995474 -2.4069e-05 -0.0950355
vn 0.995474 -2.41963e-05 -0.0950357
vn -0.995782 2.41107e-05 0.0917526
vn -0.995782 2.41182e-05 0.0917526
vn -0.995782 2.41099e-05 0.0917526
vn -0.995782 2.40739e-05 0.0917526
vn 0.0985514 2.93924e-05 0.995132
vn 0.0985513 2.94409e-05 0.995132
vn 0.0985513 2.93912e-05 0.995132
vn 0 -1 0
vn -0.995474 2.41957e-05 0.0950356
vn -0.995474 2.41963e-05 0.0950356
vn -0.0985513 -2.9384e-05 -0.995132
vn -0.0985513 -2.93865e-05 -0.995132
vn 0.442942 0.895553 -0.0422866
vn 0.442942 0.895553 -0.0422867
vn 0.442942 0.895553 -0.0422865
vn 0.442942 0.895553 -0.0422867
vn -0.442933 0.895557 0.0422858
vn -0.442933 0.895557 0.0422859
vn -0.442933 0.895557 0.0422858
vn -0.0424038 0.9027 -0.428176
vn -0.0424038 0.9027 -0.428176
vn -0.0424037 0.9027 -0.428176
vn 0.0424028 0.902705 0.428167
vn 0.0424028 0.902705 0.428166
vn 0.0424028 0.902705 0.428166
vn 0.0424028 0.902705 0.428167
vn 4.60926e-24 -1 -6.12323e-17
vn 0 -1 -6.12323e-17
vn 0 -1 -5.55112e-17
vn -3.39342e-24 -1 -6.12323e-17
vn 0 -1 -6.12323e-17
vn -8.1504e-25 -1 -6.12323e-17
vn -4.89024e-24 -1 -6.12323e-17

# Mesh 'defaultobject' with 42 faces
g defaultobject
usemtl DefaultMaterial
f  1//1 2//1 3//1
f  2//1 1//1 4//2
f  4//2 1//1 5//3
f  5//3 1//1 6//4
f  5//5 7//5 4//5
f  7//5 5//5 8//6
f  8//6 5//5 9//7
f  8//6 9//7 10//8
f  11//9 12//9 13//9
f  12//9 11//9 14//10
f  14//10 11//9 15//11
f  15//11 11//9 16//12
f  10//13 17//13 8//13
f  17//13 10//13 13//14
f  13//14 10//13 11//15
f  11//16 10//16 18//16
f  19//17 3//17 20//17
f  3//17 19//17 1//18
f  15//19 20//19 14//19
f  20//19 15//19 19//20
f  6//21 9//21 5//21
f  9//21 6//21 10//22
f  10//22 6//21 21//23
f  10//22 21//23 22//24
f  1//25 21//25 6//25
f  21//25 1//25 22//26
f  22//26 1//25 19//27
f  19//28 23//28 22//28
f  23//28 19//28 16//29
f  16//29 19//28 15//30
f  22//31 18//31 10//31
f  18//31 22//31 23//32
f  18//31 23//32 11//33
f  11//33 23//32 16//34
f  13//35 20//35 17//35
f  20//35 13//35 14//36
f  14//36 13//35 12//37
f  17//35 7//38 8//38
f  7//38 17//35 4//39
f  4//39 17//35 2//40
f  2//40 17//35 3//41
f  3//41 17//35 20//35

