# {"id":"BLDG_0003000b001f2b9e","idOriginal":"BLDG_0003000b001f2b9e","origin":[13.36484143386223,52.50077066367199],"elevation":35.060001373291}
# Longitude: 13.36484143386223
# Latitude: 52.50077066367199
# Elevation: 35.060001373291

# File produced by Open Asset Import Library (http://www.assimp.sf.net)
# (assimp v3.1.0)

mtllib BLDG_0003000b001f2b9e.obj.mtl

# 28 vertex positions
v  0.000430764 19.8703 -0.00063827
v  1.3311 -0.34 -6.38859
v  0 -0.34 -2.0819e-17
v  2.6622 -0.34 -12.7772
v  2.66263 19.8703 -12.7778
v  1.33157 21.8399 -6.3893
v  13.1588 -0.34 2.80809
v  13.1592 19.8703 2.80745
v  15.821 -0.34 -9.9691
v  15.8214 19.8703 -9.96974
v  27.1456 1.96093e-15 -32.0243
v  16.3892 22.6216 -12.6941
v  16.3887 7.77248e-16 -12.6934
v  27.146 22.6216 -32.0251
v  9.98698 17.1256 -14.9109
v  9.98662 9.12998e-16 -14.9104
v  21.0666 2.16197e-15 -35.3076
v  21.067 17.1256 -35.3081
v  16.4035 7.76932e-16 -12.6883
v  15.7713 22.6216 -9.80437
v  15.7708 6.00301e-16 -9.80365
v  16.404 22.6216 -12.689
v  9.62325 17.1256 -11.2135
v  9.62289 6.86596e-16 -11.213
v  10.4023 9.04183e-16 -14.7664
v  10.4027 17.1256 -14.767
v  14.4899 -0.34 -3.58051
v  14.4903 21.8399 -3.58121

# 0 UV coordinates

# 38 vertex normals
vn -0.978976 1.44242e-05 -0.203975
vn -0.978976 1.44257e-05 -0.203975
vn -0.978976 1.44296e-05 -0.203975
vn -0.978976 1.43941e-05 -0.203975
vn -0.208701 3.53231e-05 0.977979
vn 0.208701 -3.53222e-05 -0.977979
vn 0.208701 -3.53149e-05 -0.977979
vn 0.873821 -3.17103e-06 0.486247
vn 0.873821 -3.32348e-06 0.486247
vn -0.327227 3.68148e-05 0.944946
vn -0.327227 3.67874e-05 0.944946
vn -0.878723 3.66997e-06 -0.477332
vn -0.878723 3.59446e-06 -0.477332
vn 0.475215 -3.79394e-05 -0.87987
vn 0.475215 -3.7883e-05 -0.87987
vn 0.976778 -1.4029e-05 0.214253
vn 0.976778 -1.40701e-05 0.214253
vn -0.223438 3.55273e-05 0.974718
vn -0.223438 3.55381e-05 0.974718
vn -0.976778 1.40135e-05 -0.214253
vn -0.976778 1.40679e-05 -0.214253
vn 0.327227 -3.68153e-05 -0.944946
vn 0.327227 -3.68181e-05 -0.944946
vn 0.978976 -1.4395e-05 0.203975
vn 0.978976 -1.43968e-05 0.203975
vn 0.978976 -1.43926e-05 0.203975
vn 0.978976 -1.44683e-05 0.203975
vn -0.544012 0.782567 -0.302721
vn -0.558101 0.772407 -0.303167
vn -0.641702 0.753927 -0.140755
vn -0.641702 0.753927 -0.140755
vn -0.0603038 0.957345 0.282585
vn 0.060305 0.957343 -0.282591
vn 0 -1 -6.12323e-17
vn 0 -1 -6.12323e-17
vn 2.84223e-24 -1 -6.12323e-17
vn -2.88405e-24 -1 -6.12324e-17
vn 0 -1 -0

# Mesh 'defaultobject' with 44 faces
g defaultobject
usemtl DefaultMaterial
f  1//1 2//1 3//1
f  2//1 1//1 4//2
f  4//2 1//1 5//3
f  5//3 1//1 6//4
f  7//5 1//5 3//5
f  1//5 7//5 8//5
f  5//6 9//6 4//6
f  9//6 5//6 10//7
f  11//8 12//8 13//8
f  12//8 11//8 14//9
f  13//10 15//10 16//10
f  15//10 13//10 12//11
f  15//12 17//12 16//12
f  17//12 15//12 18//13
f  18//14 11//14 17//14
f  11//14 18//14 14//15
f  19//16 20//16 21//16
f  20//16 19//16 22//17
f  21//18 23//18 24//18
f  23//18 21//18 20//19
f  23//20 25//20 24//20
f  25//20 23//20 26//21
f  26//22 19//22 25//22
f  19//22 26//22 22//23
f  10//24 27//24 9//24
f  27//24 10//24 7//25
f  7//25 10//24 8//26
f  8//26 10//24 28//27
f  18//28 12//28 14//28
f  12//29 18//29 15//29
f  23//30 22//30 26//30
f  22//30 23//30 20//31
f  1//32 28//32 6//32
f  28//32 1//32 8//32
f  6//33 10//33 5//33
f  10//33 6//33 28//33
f  13//34 17//34 11//34
f  17//34 13//34 16//35
f  24//36 19//36 21//36
f  19//36 24//36 25//37
f  27//38 4//38 9//38
f  4//38 27//38 7//38
f  4//38 7//38 3//38
f  4//38 3//5 2//1

