# {"id":"BLDG_0003000e000d0f1a","idOriginal":"BLDG_0003000e000d0f1a","origin":[13.342694514481778,52.518673396223],"elevation":34.5099983215332}
# Longitude: 13.342694514481778
# Latitude: 52.518673396223
# Elevation: 34.5099983215332

# File produced by Open Asset Import Library (http://www.assimp.sf.net)
# (assimp v3.1.0)

mtllib BLDG_0003000e000d0f1a.obj.mtl

# 12 vertex positions
v  6.10381 -6.34149e-16 10.3564
v  1.13338 3.6236 10.7012
v  1.1333 -6.55266e-16 10.7013
v  6.10388 3.6236 10.3563
v  5.37332 -2.58771e-16 4.22606
v  5.3734 3.6236 4.22594
v  12.0739 -2.26404e-16 3.69745
v  12.074 3.6236 3.69734
v  11.6077 6.86186e-17 -1.12063
v  11.6078 3.6236 -1.12074
v  7.7129e-05 3.6236 -0.00011458
v  0 0 0

# 0 UV coordinates

# 15 vertex normals
vn 0.0692151 3.00295e-05 0.997602
vn 0.992975 -2.4917e-05 -0.118321
vn 0.992975 -2.47891e-05 -0.118321
vn 0.0786457 2.98175e-05 0.996903
vn 0.0786457 2.98763e-05 0.996903
vn 0.995352 -2.42764e-05 -0.0963031
vn 0.995352 -2.42628e-05 -0.0963031
vn -0.0960948 -2.94287e-05 -0.995372
vn -0.0960948 -2.94202e-05 -0.995372
vn -0.994439 2.44927e-05 0.105314
vn -0.994439 2.44969e-05 0.105314
vn -2.1539e-24 -1 -6.12323e-17
vn 0 -1 -6.12323e-17
vn 0 -1 -6.12323e-17
vn 0 1 0

# Mesh 'defaultobject' with 20 faces
g defaultobject
usemtl DefaultMaterial
f  1//1 2//1 3//1
f  2//1 1//1 4//1
f  5//2 4//2 1//2
f  4//2 5//2 6//3
f  7//4 6//4 5//4
f  6//4 7//4 8//5
f  9//6 8//6 7//6
f  8//6 9//6 10//7
f  11//8 9//8 12//8
f  9//8 11//8 10//9
f  2//10 12//10 3//10
f  12//10 2//10 11//11
f  3//12 5//12 1//12
f  5//12 3//12 12//13
f  5//12 12//13 9//14
f  9//14 7//14 5//12
f  2//15 4//15 11//15
f  6//15 11//15 4//15
f  8//15 11//15 6//15
f  10//15 11//15 8//15

