# {"id":"BLDG_00030000001ebe1f","idOriginal":"BLDG_00030000001ebe1f","origin":[13.387354592204238,52.54072734757196],"elevation":44.0800018310547}
# Longitude: 13.387354592204238
# Latitude: 52.54072734757196
# Elevation: 44.0800018310547

# File produced by Open Asset Import Library (http://www.assimp.sf.net)
# (assimp v3.1.0)

mtllib BLDG_00030000001ebe1f.obj.mtl

# 64 vertex positions
v  5.97332 1.77649e-16 -2.90122
v  2.76467 -3.49568e-16 5.70889
v  0 0 0
v  5.80744 -2.6776e-16 4.37286
v  6.05747 -3.11588e-16 5.08862
v  6.43327 -6.9892e-16 11.4142
v  9.95273 -5.93414e-16 9.69118
v  6.83572 2.03289e-16 -3.31996
v  11.3153 3.36563e-16 -5.49649
v  13.9718 -4.72981e-16 7.72437
v  12.2793 3.65186e-16 -5.96395
v  14.1739 -3.86182e-16 6.30683
v  16.7607 4.98459e-16 -8.14045
v  16.0331 -3.30574e-16 5.39868
v  16.5524 -3.95642e-16 6.46133
v  18.3549 -3.41613e-16 5.57896
v  17.7758 5.28629e-16 -8.63317
v  18.6186 -2.53203e-16 4.13512
v  22.6564 6.73806e-16 -11.0041
v  21.5146 -1.66478e-16 2.71879
v  22.0321 -2.31432e-16 3.77958
v  23.8247 -1.7769e-16 2.9019
v  23.6407 7.03078e-16 -11.4821
v  24.0465 -9.06892e-17 1.48107
v  26.9849 -2.78037e-18 0.045407
v  27.2942 8.11716e-16 -13.2563
v  27.5019 -6.75473e-17 1.10313
v  29.1713 -1.75107e-17 0.285971
v  29.3727 6.86546e-17 -1.12121
v  32.4565 1.60916e-16 -2.62795
v  4.88598 -5.07014e-16 8.28018
v  3.80823 -3.73319e-16 6.09676
v  18.3553 18.6789 5.57837
v  18.619 18.6789 4.13453
v  21.515 18.6789 2.7182
v  22.0324 18.6789 3.77899
v  23.8251 18.6789 2.90131
v  24.0469 18.6789 1.48048
v  26.9853 18.6789 0.0448155
v  27.5023 18.6789 1.10254
v  29.1717 18.6789 0.285379
v  29.3731 18.6789 -1.12181
v  32.4569 18.6789 -2.62855
v  27.2946 18.6789 -13.2569
v  23.6411 18.6789 -11.4827
v  22.6568 18.6789 -11.0047
v  17.7762 18.6789 -8.63376
v  16.7611 18.6789 -8.14104
v  12.2797 18.6789 -5.96454
v  11.3157 18.6789 -5.49708
v  6.83611 18.6789 -3.32055
v  5.97372 18.6789 -2.90181
v  0.000398737 18.6789 -0.00059146
v  2.76507 18.6789 5.70829
v  5.80784 18.6789 4.37227
v  6.05787 18.6789 5.08803
v  3.80863 18.6789 6.09617
v  4.88638 18.6789 8.27958
v  6.43367 18.6789 11.4136
v  9.95312 18.6789 9.69059
v  13.9722 18.6789 7.72378
v  14.1743 18.6789 6.30623
v  16.0335 18.6789 5.39809
v  16.5528 18.6789 6.46074

# 0 UV coordinates

# 78 vertex normals
vn 0 -1 -6.12323e-17
vn -4.83208e-24 -1 -6.12323e-17
vn 2.7324e-23 -1 -6.12323e-17
vn -8.57203e-23 -1 -6.12323e-17
vn -8.27584e-24 -1 -6.12323e-17
vn 0 -1 -6.12323e-17
vn 1.81424e-23 -1 -6.12323e-17
vn 0 -1 -6.12323e-17
vn -6.14859e-23 -1 -6.12323e-17
vn 1.2959e-23 -1 -6.12323e-17
vn -6.78377e-24 -1 -6.12323e-17
vn -2.0255e-24 -1 -6.12323e-17
vn 5.75708e-23 -1 -6.12323e-17
vn 1.27371e-23 -1 -6.12323e-17
vn -4.07941e-24 -1 -6.12323e-17
vn -5.94532e-23 -1 -6.12323e-17
vn 1.76286e-23 -1 -6.12323e-17
vn 7.34933e-24 -1 -6.12323e-17
vn -4.3856e-24 -1 -6.12323e-17
vn 1.97247e-23 -1 -6.12323e-17
vn 2.61078e-24 -1 -6.12323e-17
vn 1.76538e-23 -1 -6.12323e-17
vn 0.983732 -1.53081e-05 0.179641
vn 0.439338 1.90683e-05 0.898322
vn 0.439338 1.90604e-05 0.898322
vn -0.898757 3.30599e-05 0.438447
vn -0.898757 3.30655e-05 0.438446
vn 0.439716 1.90565e-05 0.898137
vn 0.439716 1.90438e-05 0.898137
vn 0.988042 -1.62044e-05 0.154187
vn 0.438982 1.90773e-05 0.898496
vn 0.438982 1.90851e-05 0.898496
vn -0.898442 3.30792e-05 0.439093
vn -0.898442 3.30779e-05 0.439093
vn 0.439633 1.90562e-05 0.898178
vn 0.439633 1.90596e-05 0.898178
vn 0.98992 -1.67429e-05 0.141627
vn 0.98992 -1.66419e-05 0.141625
vn 0.438994 1.91298e-05 0.89849
vn 0.438993 1.90331e-05 0.89849
vn 0.899509 -3.303e-05 -0.436901
vn 0.899509 -3.29436e-05 -0.436901
vn -0.436835 -1.91522e-05 -0.899542
vn -0.436856 -1.91514e-05 -0.899531
vn -0.436958 -1.91936e-05 -0.899482
vn -0.436957 -1.91477e-05 -0.899482
vn -0.436651 -1.91589e-05 -0.899631
vn -0.436652 -1.92048e-05 -0.89963
vn -0.436877 -1.91507e-05 -0.899521
vn -0.436312 -1.91491e-05 -0.899795
vn -0.436312 -1.91714e-05 -0.899795
vn -0.437027 -1.91566e-05 -0.899449
vn -0.437027 -1.91228e-05 -0.899449
vn -0.436784 -1.91655e-05 -0.899566
vn -0.436891 -1.91565e-05 -0.899515
vn -0.436891 -1.91616e-05 -0.899515
vn -0.900017 3.30274e-05 0.435856
vn -0.900016 3.30138e-05 0.435856
vn 0.402035 2.04031e-05 0.915624
vn 0.402035 2.04185e-05 0.915624
vn -0.944058 3.06109e-05 0.32978
vn -0.944057 3.05868e-05 0.329781
vn -0.409009 -2.01753e-05 -0.91253
vn -0.409009 -2.01468e-05 -0.91253
vn -0.896709 3.31709e-05 0.442621
vn -0.896709 3.3171e-05 0.442621
vn -0.896674 3.31727e-05 0.442691
vn -0.896674 3.31724e-05 0.442691
vn 0.439708 1.90422e-05 0.898141
vn 0.439708 1.90292e-05 0.898141
vn 0.43956 1.90727e-05 0.898213
vn 0.43956 1.90499e-05 0.898213
vn 0.989986 -1.6655e-05 0.141164
vn 0.438904 1.90987e-05 0.898534
vn -0.898462 3.30839e-05 0.439052
vn 0.439664 1.90483e-05 0.898162
vn 0.439665 1.90706e-05 0.898162
vn 0 1 0

# Mesh 'defaultobject' with 124 faces
g defaultobject
usemtl DefaultMaterial
f  1//1 2//1 3//1
f  2//1 1//1 4//2
f  4//2 1//1 5//3
f  5//3 1//1 6//4
f  6//4 1//1 7//5
f  7//5 1//1 8//6
f  7//5 8//6 9//1
f  7//5 9//1 10//7
f  10//7 9//1 11//8
f  10//7 11//8 12//9
f  12//9 11//8 13//1
f  12//9 13//1 14//10
f  14//10 13//1 15//11
f  15//11 13//1 16//12
f  16//12 13//1 17//13
f  16//12 17//13 18//6
f  18//6 17//13 19//1
f  18//6 19//1 20//1
f  20//1 19//1 21//14
f  21//14 19//1 22//15
f  22//15 19//1 23//16
f  22//15 23//16 24//1
f  24//1 23//16 25//8
f  25//8 23//16 26//17
f  25//8 26//17 27//18
f  27//18 26//17 28//19
f  28//19 26//17 29//20
f  29//20 26//17 30//21
f  5//3 31//22 32//22
f  31//22 5//3 6//4
f  33//23 18//23 34//23
f  18//23 33//23 16//23
f  34//24 20//24 35//24
f  20//24 34//24 18//25
f  36//26 20//26 21//26
f  20//26 36//26 35//27
f  36//28 22//28 37//28
f  22//28 36//28 21//29
f  37//30 24//30 38//30
f  24//30 37//30 22//30
f  38//31 25//31 39//31
f  25//31 38//31 24//32
f  40//33 25//33 27//33
f  25//33 40//33 39//34
f  40//35 28//35 41//35
f  28//35 40//35 27//36
f  41//37 29//37 42//37
f  29//37 41//37 28//38
f  42//39 30//39 43//39
f  30//39 42//39 29//40
f  43//41 26//41 44//41
f  26//41 43//41 30//42
f  45//43 26//43 23//43
f  26//43 45//43 44//43
f  46//44 23//44 19//44
f  23//44 46//44 45//44
f  47//45 19//45 17//45
f  19//45 47//45 46//46
f  48//47 17//47 13//47
f  17//47 48//47 47//48
f  49//49 13//49 11//49
f  13//49 49//49 48//49
f  50//50 11//50 9//50
f  11//50 50//50 49//51
f  51//52 9//52 8//52
f  9//52 51//52 50//53
f  52//54 8//54 1//54
f  8//54 52//54 51//54
f  53//55 1//55 3//55
f  1//55 53//55 52//56
f  54//57 3//57 2//57
f  3//57 54//57 53//58
f  54//59 4//59 55//59
f  4//59 54//59 2//60
f  56//61 4//61 5//61
f  4//61 56//61 55//62
f  57//63 5//63 32//63
f  5//63 57//63 56//64
f  58//65 32//65 31//65
f  32//65 58//65 57//66
f  59//67 31//67 6//67
f  31//67 59//67 58//68
f  59//69 7//69 60//69
f  7//69 59//69 6//70
f  60//71 10//71 61//71
f  10//71 60//71 7//72
f  61//73 12//73 62//73
f  12//73 61//73 10//73
f  62//74 14//74 63//74
f  14//74 62//74 12//74
f  64//75 14//75 15//75
f  14//75 64//75 63//75
f  64//76 16//76 33//76
f  16//76 64//76 15//77
f  58//78 56//78 57//78
f  56//78 58//78 59//78
f  54//78 52//78 53//78
f  52//78 54//78 55//78
f  52//78 55//78 56//78
f  52//78 56//78 51//78
f  51//78 56//78 59//78
f  51//78 59//78 60//78
f  51//78 60//78 50//78
f  50//78 60//78 61//78
f  50//78 61//78 49//78
f  49//78 61//78 62//78
f  49//78 62//78 48//78
f  48//78 62//78 63//78
f  48//78 63//78 64//78
f  48//78 64//78 33//78
f  48//78 33//78 47//78
f  47//78 33//78 34//78
f  47//78 34//78 46//78
f  46//78 34//78 35//78
f  46//78 35//78 36//78
f  46//78 36//78 37//78
f  46//78 37//78 45//78
f  45//78 37//78 38//78
f  45//78 38//78 44//78
f  44//78 38//78 39//78
f  44//78 39//78 40//78
f  44//78 40//78 42//78
f  44//78 42//78 43//78
f  42//78 40//78 41//78

