# {"id":"BLDG_0003000e00123664","idOriginal":"BLDG_0003000e00123664","origin":[13.341659788005542,52.55409572918576],"elevation":34.4700012207031}
# Longitude: 13.341659788005542
# Latitude: 52.55409572918576
# Elevation: 34.4700012207031

# File produced by Open Asset Import Library (http://www.assimp.sf.net)
# (assimp v3.1.0)

mtllib BLDG_0003000e00123664.obj.mtl

# 23 vertex positions
v  8.85119 16.3894 8.69763
v  4.42542 -2.66304e-16 4.34908
v  8.85085 -5.32608e-16 8.69815
v  0 0 0
v  0.000348858 16.3894 -0.00051946
v  4.42586 20.649 4.34842
v  24.7499 16.3894 -7.70798
v  16.2897 -6.2585e-17 1.02209
v  24.7496 4.71946e-16 -7.70746
v  16.2901 16.3894 1.02157
v  5.33674 16.3894 -9.66187
v  9.47126 8.64529e-16 -14.1188
v  5.33639 5.91587e-16 -9.66135
v  13.6061 1.13747e-15 -18.5763
v  13.6065 16.3894 -18.5768
v  9.4717 20.649 -14.1195
v  15.8665 16.3894 -16.3725
v  15.8662 1.0025e-15 -16.372
v  7.40631 4.67964e-16 -7.64244
v  7.40666 16.3894 -7.64296
v  11.8485 20.649 -3.31083
v  16.0784 20.649 -7.6756
v  11.6367 20.649 -12.0079

# 0 UV coordinates

# 38 vertex normals
vn -0.700928 3.75463e-05 0.713232
vn -0.700928 3.75499e-05 0.713232
vn -0.700928 3.75256e-05 0.713232
vn -0.700928 3.75268e-05 0.713232
vn 0.718113 6.83941e-06 0.695926
vn 0.718113 6.88081e-06 0.695926
vn 0.718113 6.66313e-06 0.695926
vn 0.718113 6.77608e-06 0.695926
vn -0.733139 -5.97484e-06 -0.680079
vn -0.733139 -5.972e-06 -0.680079
vn -0.733139 -5.91394e-06 -0.680079
vn -0.733139 -5.96546e-06 -0.680079
vn 0.698232 -3.74705e-05 -0.715872
vn 0.698232 -3.72686e-05 -0.715872
vn 0.698232 -3.75309e-05 -0.715872
vn -7.93016e-18 -1 -4.7581e-17
vn -0.718113 -6.77185e-06 -0.695926
vn -0.718113 -6.77673e-06 -0.695926
vn -0.698232 3.75314e-05 0.715872
vn -0.698232 3.75523e-05 0.715872
vn -6.02455e-24 -1 -6.12323e-17
vn -2.80755e-24 -1 -6.12323e-17
vn -6.41384e-24 -1 -6.12323e-17
vn 0 -1 -6.12323e-17
vn -0.40644 0.824417 -0.393883
vn -0.40644 0.824417 -0.393883
vn -0.40644 0.824417 -0.393883
vn 0.406438 0.824419 0.39388
vn 0.406438 0.824419 0.39388
vn 0.406438 0.824419 0.39388
vn 0.406438 0.824419 0.39388
vn -0.400714 0.818927 0.410838
vn -0.400714 0.818927 0.410838
vn -0.400714 0.818927 0.410838
vn 0.400728 0.818912 -0.410852
vn 0.400728 0.818912 -0.410852
vn 0.400728 0.818912 -0.410852
vn 0.400728 0.818912 -0.410852

# Mesh 'defaultobject' with 42 faces
g defaultobject
usemtl DefaultMaterial
f  1//1 2//1 3//1
f  2//1 1//1 4//2
f  4//2 1//1 5//3
f  5//3 1//1 6//4
f  7//5 8//5 9//5
f  8//5 7//5 3//6
f  3//6 7//5 10//7
f  3//6 10//7 1//8
f  11//9 12//9 13//9
f  12//9 11//9 14//10
f  14//10 11//9 15//11
f  15//11 11//9 16//12
f  9//13 17//13 7//13
f  17//13 9//13 15//14
f  15//14 9//13 14//15
f  14//16 9//16 18//16
f  5//17 19//17 4//17
f  19//17 5//17 20//18
f  20//19 13//19 19//19
f  13//19 20//19 11//20
f  12//21 19//21 13//21
f  19//21 12//21 8//22
f  8//22 12//21 9//16
f  9//16 12//21 18//16
f  18//16 12//21 14//16
f  19//21 2//23 4//23
f  2//23 19//21 3//24
f  3//24 19//21 8//22
f  20//25 21//25 22//25
f  21//25 20//25 6//26
f  6//26 20//25 5//27
f  22//28 10//28 7//28
f  10//28 22//28 21//29
f  10//28 21//29 1//30
f  1//30 21//29 6//31
f  23//32 20//32 22//32
f  20//32 23//32 11//33
f  11//33 23//32 16//34
f  7//35 23//35 22//35
f  23//35 7//35 17//36
f  23//35 17//36 16//37
f  16//37 17//36 15//38

