# {"id":"BLDG_0003000f0035dfe1","idOriginal":"BLDG_0003000f0035dfe1","origin":[13.379069537173562,52.55160226234489],"elevation":39.2000007629395}
# Longitude: 13.379069537173562
# Latitude: 52.55160226234489
# Elevation: 39.2000007629395

# File produced by Open Asset Import Library (http://www.assimp.sf.net)
# (assimp v3.1.0)

mtllib BLDG_0003000f0035dfe1.obj.mtl

# 40 vertex positions
v  44.8342 23.1972 17.6952
v  35.3817 24.5763 16.9595
v  40.3808 23.1972 22.0689
v  39.835 24.5763 12.5858
v  30.3825 23.1972 11.8503
v  34.8358 24.5763 7.4765
v  18.4233 23.1972 -0.37236
v  22.8731 24.5763 -4.74974
v  18.448 24.5763 -9.27227
v  9.57313 23.1972 -9.41743
v  13.9982 24.5763 -4.89494
v  14.023 23.1972 -13.7948
v  25.2739 23.1972 16.8676
v  30.2535 24.5763 21.9961
v  35.233 23.1972 27.1247
v  4.55023 23.1972 -4.47636
v  8.95796 24.5763 0.063218
v  13.3656 23.1972 4.60288
v  25.7002 24.5763 26.468
v  30.6797 23.1972 31.5967
v  20.7206 24.5763 21.3395
v  8.81592 24.5763 9.07846
v  0.000494942 23.1972 -0.00073508
v  4.40822 24.5763 4.53884
v  44.8337 -1.08356e-15 17.6959
v  34.8353 -4.57852e-16 7.47728
v  40.3804 -1.35137e-15 22.0696
v  22.8726 2.9079e-16 -4.74896
v  18.4228 2.27555e-17 -0.371625
v  30.382 -7.25666e-16 11.851
v  14.0225 8.44641e-16 -13.794
v  9.57264 5.76606e-16 -9.4167
v  25.2734 -1.03289e-15 16.8683
v  35.2325 -1.66096e-15 27.1255
v  4.54974 2.74053e-16 -4.47562
v  13.3651 -2.8189e-16 4.60362
v  30.6792 -1.93478e-15 31.5974
v  20.7201 -1.30671e-15 21.3402
v  8.8154 -5.55943e-16 9.07924
v  0 0 0

# 0 UV coordinates

# 60 vertex normals
vn 0.132736 0.981894 0.135151
vn 0.132736 0.981894 0.135151
vn -0.132736 0.981894 -0.135152
vn -0.154198 0.976453 0.150875
vn -0.154198 0.976453 0.150875
vn -0.149342 0.977061 -0.151815
vn -0.149342 0.977061 -0.151815
vn -0.154198 0.976452 0.150875
vn 0.149342 0.977062 0.151815
vn -0.132736 0.981894 -0.135152
vn 0.132736 0.981894 0.135151
vn -0.149342 0.977061 -0.151815
vn 0.149342 0.977062 0.151815
vn 0.132736 0.981894 0.135151
vn 0.132736 0.981894 0.135151
vn 0.151537 0.97744 -0.147134
vn -0.132736 0.981894 -0.135152
vn 0.151537 0.97744 -0.147134
vn 0.151537 0.97744 -0.147134
vn -0.149342 0.977061 -0.151815
vn -0.149342 0.977061 -0.151815
vn 0.149342 0.977062 0.151815
vn 0.151537 0.97744 -0.147134
vn 0.714767 -3.73581e-05 -0.699362
vn 0.714767 -3.74193e-05 -0.699362
vn 0.714767 -3.7536e-05 -0.699362
vn 0.700703 7.61383e-06 0.713453
vn 0.714767 -3.73864e-05 -0.699362
vn 0.714767 -3.74227e-05 -0.699362
vn -0.714767 3.74481e-05 0.699362
vn -0.714767 3.7383e-05 0.699362
vn -0.701277 -7.63341e-06 -0.712889
vn -0.701276 -7.60411e-06 -0.712889
vn 0.714767 -3.73899e-05 -0.699362
vn 0.714767 -3.716e-05 -0.699362
vn -0.700702 -7.6054e-06 -0.713454
vn -0.700703 -7.63473e-06 -0.713453
vn 0.700703 7.6578e-06 0.713453
vn -0.701276 -7.61876e-06 -0.712889
vn 0.701276 7.62598e-06 0.712889
vn 0.701277 7.64916e-06 0.712889
vn 0.700702 7.60124e-06 0.713454
vn -0.717455 3.73895e-05 0.696605
vn -0.717454 3.73701e-05 0.696605
vn -0.717455 3.71485e-05 0.696605
vn -0.717455 3.73701e-05 0.696605
vn 0.717455 -3.74015e-05 -0.696605
vn 0.717455 -3.7363e-05 -0.696605
vn -0.717454 3.73701e-05 0.696605
vn -0.717455 3.73821e-05 0.696605
vn -0.717454 3.75965e-05 0.696605
vn -0.701276 -7.62763e-06 -0.712889
vn -2.62199e-24 -1 -6.12323e-17
vn 0 -1 -6.12324e-17
vn 4.74597e-24 -1 -6.12323e-17
vn 4.74597e-24 -1 -6.12323e-17
vn 3.96664e-24 -1 -6.12323e-17
vn -2.68086e-24 -1 -6.12323e-17
vn -1.02642e-23 -1 -6.12323e-17
vn 1.8567e-23 -1 -6.12324e-17

# Mesh 'defaultobject' with 80 faces
g defaultobject
usemtl DefaultMaterial
f  1//1 2//1 3//1
f  2//1 1//1 4//2
f  2//3 4//3 5//3
f  4//4 6//4 5//4
f  7//5 6//4 8//5
f  6//4 7//5 5//4
f  9//6 10//6 11//6
f  10//6 9//6 12//7
f  9//8 7//5 8//5
f  9//9 11//9 7//9
f  2//3 13//10 14//10
f  13//10 2//3 5//3
f  3//1 14//11 15//11
f  14//11 3//1 2//1
f  11//6 16//12 17//12
f  16//12 11//6 10//6
f  7//9 17//13 18//13
f  17//13 7//9 11//9
f  19//14 15//11 14//11
f  15//11 19//14 20//15
f  19//16 13//16 21//16
f  19//17 14//10 13//10
f  13//16 22//18 21//16
f  22//18 13//16 18//19
f  23//20 17//12 16//12
f  17//12 23//20 24//21
f  17//13 24//22 18//13
f  24//23 22//18 18//19
f  6//24 25//24 26//24
f  25//24 6//24 1//25
f  1//25 6//24 4//26
f  25//27 3//27 27//27
f  3//27 25//27 1//27
f  28//28 6//24 26//24
f  6//24 28//28 8//29
f  5//30 29//30 30//30
f  29//30 5//30 7//31
f  10//32 31//32 32//32
f  31//32 10//32 12//33
f  12//34 28//28 31//34
f  28//28 12//34 8//29
f  8//29 12//34 9//35
f  13//36 30//36 33//36
f  30//36 13//36 5//37
f  27//27 15//38 34//38
f  15//38 27//27 3//27
f  16//39 32//32 35//39
f  32//32 16//39 10//32
f  29//40 18//40 36//40
f  18//40 29//40 7//41
f  34//38 20//42 37//42
f  20//42 34//38 15//38
f  20//43 38//43 37//43
f  38//43 20//43 21//44
f  21//44 20//43 19//45
f  21//44 39//46 38//43
f  39//46 21//44 22//46
f  36//47 13//47 33//47
f  13//47 36//47 18//48
f  22//46 40//49 39//46
f  40//49 22//46 23//50
f  23//50 22//46 24//51
f  23//52 35//39 40//52
f  35//39 23//52 16//39
f  40//53 36//53 39//53
f  36//53 40//53 35//54
f  25//55 30//55 26//55
f  30//55 25//55 27//56
f  26//55 29//57 28//57
f  29//57 26//55 30//55
f  28//57 32//58 31//58
f  32//58 28//57 29//57
f  33//59 27//56 34//59
f  27//56 33//59 30//55
f  35//54 29//57 36//53
f  29//57 35//54 32//58
f  38//60 34//59 37//60
f  34//59 38//60 33//59
f  39//53 33//59 38//60
f  33//59 39//53 36//53

