# {"id":"BLDG_0003000b001e8ea1","idOriginal":"BLDG_0003000b001e8ea1","origin":[13.364344778445018,52.50939104605808],"elevation":33.5299987792969}
# Longitude: 13.364344778445018
# Latitude: 52.50939104605808
# Elevation: 33.5299987792969

# File produced by Open Asset Import Library (http://www.assimp.sf.net)
# (assimp v3.1.0)

mtllib BLDG_0003000b001e8ea1.obj.mtl

# 26 vertex positions
v  0 0 0
v  8.95639 3.17177e-16 -5.1799
v  6.79602 -1.24604e-16 2.03494
v  2.16037 4.41781e-16 -7.21484
v  28.5868 7.46969e-16 -12.1989
v  22.33 8.61136e-16 -14.0634
v  5.70053 1.16572e-15 -19.0377
v  16.8077 -2.68147e-16 4.37917
v  25.0428 2.22354e-17 -0.363131
v  23.062 -3.82818e-16 6.25189
v  18.7885 1.36907e-16 -2.23586
v  5.70078 11.97 -19.0381
v  22.3303 11.97 -14.0638
v  28.5876 11.97 -12.1902
v  16.808 11.97 4.37879
v  23.0623 11.97 6.25152
v  18.7885 1.84281 -2.23592
v  18.7887 11.97 -2.23624
v  25.046 11.97 -0.362606
v  6.79628 11.97 2.03457
v  8.95664 11.97 -5.18027
v  0.000255128 11.97 -0.00037825
v  2.16062 11.97 -7.21522
v  7.33797 15.47 -12.1091
v  23.4087 15.47 -7.29701
v  5.16746 15.47 -4.89122

# 0 UV coordinates

# 43 vertex normals
vn 0 -1 -6.12323e-17
vn 9.9085e-25 -1 -6.12323e-17
vn -6.04e-25 -1 -6.12323e-17
vn -3.28998e-24 -1 -6.12323e-17
vn 2.34861e-24 -1 -6.12323e-17
vn -1.1743e-24 -1 -6.12323e-17
vn 0.286577 -3.63344e-05 -0.958057
vn 0.286577 -3.64222e-05 -0.958057
vn 0.285584 -3.64104e-05 -0.958354
vn 0.286848 0.000683502 -0.957976
vn -0.286847 3.63907e-05 0.957976
vn -0.957976 1.13185e-05 -0.286849
vn -0.957976 1.17663e-05 -0.286849
vn -0.957976 1.13933e-05 -0.286849
vn 0.957976 -1.13995e-05 0.286849
vn 0.957845 -0.000274338 0.287285
vn 0.957976 -0.000274362 0.286849
vn 0.957976 -0.000275675 0.28685
vn 0.957975 -1.1351e-05 0.28685
vn 0.957975 -1.14039e-05 0.28685
vn -0.286848 3.63762e-05 0.957976
vn -0.286848 3.63874e-05 0.957976
vn -0.957975 1.13665e-05 -0.28685
vn -0.957975 1.13627e-05 -0.28685
vn -0.957975 1.13627e-05 -0.28685
vn -0.957975 1.13538e-05 -0.28685
vn -0.286848 3.63917e-05 0.957976
vn -0.286848 3.65062e-05 0.957976
vn -0.286848 3.63892e-05 0.957976
vn 0.141413 0.869772 -0.472757
vn 0.141479 0.869906 -0.472491
vn 0.141479 0.869906 -0.472491
vn 0 1 0
vn 0.672855 0.71181 0.201476
vn 0.672772 0.711651 0.202312
vn -0.141575 0.869715 0.472813
vn -0.671997 0.712693 -0.201219
vn -0.672457 0.711976 -0.202217
vn -0.672847 0.711818 -0.201473
vn -0.141474 0.869914 0.472476
vn -0.141474 0.869914 0.472476
vn -0.141474 0.869914 0.472476
vn 0.671835 0.712859 0.20117

# Mesh 'defaultobject' with 48 faces
g defaultobject
usemtl DefaultMaterial
f  1//1 2//1 3//1
f  2//1 1//1 4//2
f  2//1 4//2 5//3
f  5//3 4//2 6//4
f  6//4 4//2 7//1
f  8//5 9//5 10//5
f  9//5 8//5 11//6
f  9//5 11//6 5//3
f  5//3 11//6 2//1
f  12//7 6//7 7//7
f  6//7 12//7 13//8
f  6//9 13//9 5//9
f  5//10 13//10 14//10
f  10//11 15//11 8//11
f  15//11 10//11 16//11
f  17//12 15//12 18//12
f  15//12 17//12 11//13
f  15//12 11//13 8//14
f  9//15 16//15 10//15
f  16//16 9//16 19//16
f  19//17 9//17 5//17
f  19//17 5//17 14//18
f  2//19 20//19 3//19
f  20//19 2//19 21//20
f  3//21 22//21 1//21
f  22//21 3//21 20//22
f  7//23 23//23 12//23
f  23//23 7//23 4//24
f  23//23 4//24 22//25
f  22//25 4//24 1//26
f  11//27 21//27 2//27
f  21//27 11//27 17//28
f  21//27 17//28 18//29
f  24//30 13//30 12//30
f  13//31 24//31 25//31
f  13//31 25//31 14//32
f  16//33 18//33 15//33
f  18//33 16//33 19//33
f  21//34 26//34 20//34
f  26//35 21//35 24//35
f  20//36 26//36 22//36
f  23//37 24//37 12//37
f  24//38 23//38 26//38
f  26//39 23//39 22//39
f  21//40 25//40 24//40
f  25//40 21//40 18//41
f  25//40 18//41 19//42
f  14//43 25//43 19//43

