# {"id":"BLDG_0003000b00620448","idOriginal":"BLDG_0003000b00620448","origin":[13.404485801228262,52.53897185905429],"elevation":48.7299995422363}
# Longitude: 13.404485801228262
# Latitude: 52.53897185905429
# Elevation: 48.7299995422363

# File produced by Open Asset Import Library (http://www.assimp.sf.net)
# (assimp v3.1.0)

mtllib BLDG_0003000b00620448.obj.mtl

# 42 vertex positions
v  3.67947 22.7355 13.0681
v  4.75513 22.7355 12.7675
v  3.18025 22.7355 11.296
v  0.000485859 22.7355 -0.00071982
v  23.1124 22.7355 -10.0819
v  9.63296 22.7355 10.5467
v  9.18132 22.7355 11.5298
v  15.941 22.7355 6.5771
v  14.8456 22.7355 9.17567
v  17.0407 22.7355 6.2172
v  18.3298 22.7355 14.8775
v  19.7084 22.7355 14.4722
v  17.3101 22.7355 11.6674
v  17.2887 22.7355 11.3881
v  17.3443 22.7355 11.1127
v  17.4726 22.7355 10.8631
v  17.6639 22.7355 10.658
v  17.9039 22.7355 10.5131
v  18.1743 22.7355 10.4382
v  31.1363 22.7355 11.1158
v  25.4842 22.7355 -9.03098
v  17.4721 -6.65217e-16 10.8638
v  17.6635 -6.52659e-16 10.6587
v  17.3438 -6.80501e-16 11.1134
v  17.2883 -6.97365e-16 11.3888
v  17.9034 -6.43783e-16 10.5138
v  17.3096 -7.14468e-16 11.6681
v  18.1738 -6.39203e-16 10.439
v  18.3293 -9.11027e-16 14.8782
v  31.1358 -6.80689e-16 11.1165
v  17.0402 -3.80738e-16 6.21792
v  25.4837 5.52944e-16 -9.03026
v  15.9405 -4.02776e-16 6.57782
v  19.7079 -8.86213e-16 14.473
v  23.1119 6.17293e-16 -10.0812
v  9.63248 -6.45843e-16 10.5474
v  14.8451 -5.61892e-16 9.17639
v  0 0 0
v  3.17976 -6.91726e-16 11.2967
v  3.67899 -8.00232e-16 13.0688
v  4.75464 -7.81829e-16 12.7682
v  9.18084 -7.06043e-16 11.5306

# 0 UV coordinates

# 51 vertex normals
vn 0 1 0
vn 2.70043e-22 -1 -6.1232e-17
vn 2.63434e-23 -1 -6.12322e-17
vn 5.40991e-22 -1 -6.1232e-17
vn -1.21562e-22 -1 -6.12324e-17
vn -9.26828e-24 -1 -6.12324e-17
vn 2.629e-23 -1 -6.12323e-17
vn 0 -1 -6.12323e-17
vn 3.85567e-24 -1 -6.12323e-17
vn -4.13193e-24 -1 -6.12323e-17
vn -5.03451e-24 -1 -6.12323e-17
vn 7.69235e-24 -1 -6.12323e-17
vn 9.20825e-24 -1 -6.12323e-17
vn -9.30431e-23 -1 -6.12324e-17
vn 2.61725e-23 -1 -6.12323e-17
vn -0.962594 2.91531e-05 0.270947
vn -0.962594 2.91491e-05 0.270947
vn -0.962532 2.91588e-05 0.271167
vn 0.269104 2.47494e-05 0.963111
vn 0.269297 2.47518e-05 0.963057
vn 0.269297 2.47473e-05 0.963057
vn 0.908702 -6.19843e-06 0.417444
vn 0.908703 -6.18146e-06 0.417444
vn 0.254366 2.51876e-05 0.967108
vn 0.254366 2.51565e-05 0.967108
vn 0.921481 -7.42249e-06 0.388424
vn 0.921481 -7.41505e-06 0.388424
vn 0.311026 2.34448e-05 0.950401
vn 0.311026 2.34245e-05 0.950402
vn -0.96578 2.87936e-05 0.259362
vn -0.96578 2.88746e-05 0.259362
vn -0.266612 -2.48198e-05 -0.963804
vn -0.266614 -2.48421e-05 -0.963803
vn -0.517104 -1.60445e-05 -0.855922
vn -0.731175 -5.93424e-06 -0.68219
vn -0.731177 -5.96277e-06 -0.682188
vn -0.889341 4.54462e-06 -0.457246
vn -0.88934 4.56374e-06 -0.457247
vn -0.980283 1.4713e-05 -0.197599
vn -0.997081 2.37482e-05 0.0763466
vn -0.953071 2.9964e-05 0.302746
vn -0.953071 2.99767e-05 0.302746
vn 0.282024 2.43514e-05 0.959407
vn 0.282023 2.43113e-05 0.959408
vn 0.281803 2.43566e-05 0.959472
vn 0.962827 -2.91396e-05 -0.270119
vn 0.962827 -2.91717e-05 -0.270119
vn 0.405103 -3.75869e-05 -0.914271
vn 0.405103 -3.75825e-05 -0.914271
vn -0.39981 -2.04761e-05 -0.916598
vn -0.39981 -2.05088e-05 -0.916598

# Mesh 'defaultobject' with 80 faces
g defaultobject
usemtl DefaultMaterial
f  1//1 2//1 3//1
f  4//1 3//1 2//1
f  5//1 4//1 2//1
f  6//1 5//1 2//1
f  7//1 6//1 2//1
f  8//1 5//1 6//1
f  9//1 8//1 6//1
f  10//1 5//1 8//1
f  11//1 12//1 13//1
f  14//1 13//1 12//1
f  15//1 14//1 12//1
f  16//1 15//1 12//1
f  17//1 16//1 12//1
f  18//1 17//1 12//1
f  19//1 18//1 12//1
f  10//1 19//1 12//1
f  20//1 10//1 12//1
f  5//1 10//1 20//1
f  21//1 5//1 20//1
f  22//2 23//2 24//2
f  25//3 24//2 23//2
f  26//4 25//3 23//2
f  27//5 25//3 26//4
f  28//6 27//5 26//4
f  29//7 27//5 28//6
f  30//8 31//8 32//8
f  33//9 32//8 31//8
f  28//6 31//8 30//8
f  34//10 28//6 30//8
f  29//7 28//6 34//10
f  35//11 32//8 36//11
f  33//9 36//11 32//8
f  37//12 36//11 33//9
f  38//8 35//11 39//8
f  40//13 39//8 35//11
f  41//14 40//13 35//11
f  36//11 41//14 35//11
f  42//15 41//14 36//11
f  3//16 38//16 39//16
f  38//16 3//16 4//17
f  1//18 39//18 40//18
f  39//18 1//18 3//18
f  1//19 41//19 2//19
f  41//19 1//19 40//19
f  2//20 42//20 7//20
f  42//20 2//20 41//21
f  7//22 36//22 6//22
f  36//22 7//22 42//23
f  6//24 37//24 9//24
f  37//24 6//24 36//25
f  9//26 33//26 8//26
f  33//26 9//26 37//27
f  8//28 31//28 10//28
f  31//28 8//28 33//29
f  19//30 31//30 28//30
f  31//30 19//30 10//31
f  18//32 28//32 26//32
f  28//32 18//32 19//33
f  17//34 26//34 23//34
f  26//34 17//34 18//34
f  16//35 23//35 22//35
f  23//35 16//35 17//36
f  15//37 22//37 24//37
f  22//37 15//37 16//38
f  14//39 24//39 25//39
f  24//39 14//39 15//39
f  13//40 25//40 27//40
f  25//40 13//40 14//40
f  11//41 27//41 29//41
f  27//41 11//41 13//42
f  11//43 34//43 12//43
f  34//43 11//43 29//44
f  12//45 30//45 20//45
f  30//45 12//45 34//45
f  20//46 32//46 21//46
f  32//46 20//46 30//47
f  5//48 32//48 35//48
f  32//48 5//48 21//49
f  4//50 35//50 38//50
f  35//50 4//50 5//51

