# {"id":"BLDG_0003000a0022366c","idOriginal":"BLDG_0003000a0022366c","origin":[13.393094419658716,52.537992658307175],"elevation":43.6699981689453}
# Longitude: 13.393094419658716
# Latitude: 52.537992658307175
# Elevation: 43.6699981689453

# File produced by Open Asset Import Library (http://www.assimp.sf.net)
# (assimp v3.1.0)

mtllib BLDG_0003000a0022366c.obj.mtl

# 42 vertex positions
v  34.1145 2.78268e-15 -45.4446
v  21.8721 1.54417e-15 -25.2182
v  16.0719 2.34207e-15 -38.2488
v  39.9147 1.98478e-15 -32.414
v  25.4373 1.05372e-15 -17.2085
v  43.1486 1.53992e-15 -25.1489
v  45.3024 1.24363e-15 -20.3101
v  27.5912 7.57428e-16 -12.3697
v  15.8114 1.39617e-15 -22.8011
v  19.5129 8.91083e-16 -14.5525
v  59.2618 -6.76675e-16 11.0509
v  41.5348 -1.16071e-15 18.9558
v  35.714 -1.31964e-15 21.5514
v  21.6813 5.95192e-16 -9.72022
v  14.0132 -1.91218e-15 31.2282
v  0 0 0
v  38.8993 -1.75429e-15 28.6497
v  44.6986 -1.59594e-15 26.0637
v  17.1985 -2.34682e-15 38.3266
v  21.8724 18.102 -25.2188
v  16.0723 18.102 -38.2494
v  34.1149 18.102 -45.4452
v  39.9151 18.102 -32.4146
v  43.1489 18.102 -25.1494
v  27.5916 18.102 -12.3703
v  25.4377 18.102 -17.2091
v  45.3028 18.102 -20.3106
v  25.4378 22.2258 -17.2092
v  21.8725 22.2258 -25.2189
v  19.5134 22.2258 -14.5532
v  15.8119 22.2258 -22.8018
v  17.6627 22.7868 -18.6775
v  59.2622 18.102 11.0504
v  41.5352 18.102 18.9552
v  21.6817 18.102 -9.72079
v  14.0136 18.102 31.2276
v  0.000386562 18.102 -0.00057309
v  44.699 18.102 26.0631
v  38.8997 18.102 28.6492
v  17.1989 18.102 38.326
v  19.5553 22.7868 -19.4786
v  35.7144 18.102 21.5508

# 0 UV coordinates

# 46 vertex normals
vn -1.5298e-23 -1 -6.12323e-17
vn 0 -1 -6.12323e-17
vn 0 -1 -6.12323e-17
vn 1.6463e-23 -1 -6.12323e-17
vn 3.70459e-24 -1 -6.12323e-17
vn -5.09087e-24 -1 -6.12323e-17
vn 1.90782e-24 -1 -6.12323e-17
vn 4.16601e-24 -1 -6.12323e-17
vn 1.28118e-23 -1 -6.12323e-17
vn -2.57182e-23 -1 -6.12323e-17
vn -4.58194e-24 -1 -6.12323e-17
vn -0.913583 3.23419e-05 0.406653
vn -0.913583 3.23953e-05 0.406653
vn -0.370446 -2.14374e-05 -0.928854
vn -0.370446 -2.13984e-05 -0.928854
vn 0.913582 -3.22972e-05 -0.406654
vn 0.913583 -3.24745e-05 -0.406653
vn 0.913583 -3.23427e-05 -0.406653
vn -0.913583 3.24167e-05 0.406653
vn -0.913583 3.24381e-05 0.406653
vn 0.913582 -3.22972e-05 -0.406654
vn 0.913583 -3.22339e-05 -0.406654
vn 0.913583 -3.26559e-05 -0.406653
vn 0.409091 2.01571e-05 0.912494
vn -0.912352 3.246e-05 0.409406
vn -0.912352 3.13966e-05 0.409406
vn -0.370446 -2.14977e-05 -0.928854
vn 0.913583 -3.24625e-05 -0.406653
vn 0.407264 2.01074e-05 0.913311
vn 0.407264 2.01508e-05 0.913311
vn -0.409091 -2.01848e-05 -0.912494
vn -0.409091 -2.01417e-05 -0.912494
vn -0.912352 3.24079e-05 0.409406
vn -0.912352 3.24443e-05 0.409406
vn -0.409091 -2.01525e-05 -0.912494
vn 0.913582 -3.24892e-05 -0.406654
vn 0.407264 2.03025e-05 0.91331
vn 0.407264 2.01199e-05 0.913311
vn -0.912352 3.23599e-05 0.409406
vn 0.407264 2.01859e-05 0.913311
vn 0 1 -0
vn 0.114249 0.99215 -0.0508542
vn 0.0480233 0.992382 0.113453
vn 0.0508669 0.99224 0.113461
vn -0.0456684 0.992372 -0.114509
vn -0.0494961 0.991906 -0.116932

# Mesh 'defaultobject' with 78 faces
g defaultobject
usemtl DefaultMaterial
f  1//1 2//1 3//1
f  2//1 1//1 4//2
f  4//2 5//3 2//1
f  5//3 4//2 6//4
f  5//3 7//2 8//2
f  7//2 5//3 6//4
f  5//3 9//5 2//1
f  9//5 5//3 10//3
f  8//2 11//6 12//6
f  11//6 8//2 7//2
f  8//2 13//7 14//7
f  13//7 8//2 12//6
f  14//7 15//8 16//8
f  15//8 14//7 13//7
f  12//6 17//9 13//7
f  17//9 12//6 18//10
f  13//7 19//11 15//8
f  19//11 13//7 17//9
f  20//12 3//12 2//12
f  3//12 20//12 21//13
f  21//14 1//14 3//14
f  1//14 21//14 22//15
f  1//16 23//16 4//16
f  23//16 1//16 22//17
f  4//16 24//18 6//18
f  24//18 4//16 23//16
f  25//19 5//19 8//19
f  5//19 25//19 26//20
f  6//18 27//21 7//21
f  27//21 6//18 24//18
f  20//22 28//22 26//22
f  28//22 20//22 29//23
f  5//24 30//24 10//24
f  30//24 5//24 28//24
f  30//25 9//25 10//25
f  9//25 30//25 31//25
f  31//25 30//25 32//26
f  31//27 2//27 9//27
f  2//27 31//27 29//27
f  7//21 33//28 11//28
f  33//28 7//21 27//21
f  11//29 34//29 12//29
f  34//29 11//29 33//30
f  35//31 8//31 14//31
f  8//31 35//31 25//32
f  36//33 16//33 15//33
f  16//33 36//33 37//34
f  37//35 14//31 16//35
f  14//31 37//35 35//31
f  12//36 38//36 18//36
f  38//36 12//36 34//36
f  18//37 39//37 17//37
f  39//37 18//37 38//38
f  40//39 15//33 19//39
f  15//33 40//39 36//33
f  17//37 40//40 19//40
f  40//40 17//37 39//37
f  22//41 20//41 23//41
f  20//41 22//41 21//41
f  24//41 20//41 26//41
f  20//41 24//41 23//41
f  27//41 26//41 25//41
f  26//41 27//41 24//41
f  41//42 28//42 29//42
f  30//43 41//43 32//43
f  41//44 30//44 28//44
f  32//45 29//45 31//45
f  29//46 32//46 41//46
f  33//41 25//41 34//41
f  25//41 33//41 27//41
f  34//41 35//41 42//41
f  35//41 34//41 25//41
f  35//41 36//41 42//41
f  36//41 35//41 37//41
f  38//41 42//41 39//41
f  42//41 38//41 34//41
f  42//41 40//41 39//41
f  40//41 42//41 36//41

