# {"id":"BLDG_0003000800251de2","idOriginal":"BLDG_0003000800251de2","origin":[13.340928134804527,52.54712637993359],"elevation":34.6800003051758}
# Longitude: 13.340928134804527
# Latitude: 52.54712637993359
# Elevation: 34.6800003051758

# File produced by Open Asset Import Library (http://www.assimp.sf.net)
# (assimp v3.1.0)

mtllib BLDG_0003000800251de2.obj.mtl

# 14 vertex positions
v  2.68047 -2.13598e-16 3.48831
v  13.0113 -6.72055e-17 1.09755
v  5.36092 -4.27188e-16 6.97651
v  10.3304 1.46361e-16 -2.39026
v  0.103625 -8.26283e-18 0.134942
v  7.64948 3.59923e-16 -5.87799
v  0 0 0
v  10.3306 9.53806 -2.39056
v  7.64961 5.722 -5.87817
v  13.0115 5.72192 1.09737
v  5.36105 5.72192 6.97633
v  2.68067 9.53806 3.48801
v  0.10375 5.86942 0.134756
v  0.000121785 5.72183 -0.000181261

# 0 UV coordinates

# 20 vertex normals
vn 0 -1 -6.12323e-17
vn -1.24746e-24 -1 -6.12323e-17
vn 0 -1 -6.12324e-17
vn 0.79284 -3.61848e-05 -0.609429
vn 0.79284 -3.62204e-05 -0.609429
vn 0.79284 -3.62201e-05 -0.609429
vn 0.609322 1.20921e-05 0.792923
vn -0.792929 3.62116e-05 0.609314
vn -0.792929 3.61798e-05 0.609314
vn -0.792929 3.61798e-05 0.609314
vn -0.792929 3.6179e-05 0.609314
vn -0.793124 3.61751e-05 0.60906
vn -0.793124 3.61754e-05 0.60906
vn -0.609305 -1.21506e-05 -0.792936
vn -0.609305 -1.21112e-05 -0.792936
vn -0.399279 0.755383 -0.51959
vn -0.399279 0.755383 -0.51959
vn -0.399797 0.755866 -0.518487
vn 0.399274 0.75539 0.519583
vn 0.399274 0.75539 0.519583

# Mesh 'defaultobject' with 24 faces
g defaultobject
usemtl DefaultMaterial
f  1//1 2//1 3//1
f  2//1 1//1 4//1
f  4//1 1//1 5//1
f  4//1 5//1 6//2
f  6//2 5//1 7//3
f  6//4 8//4 4//4
f  8//4 6//4 9//5
f  4//4 10//6 2//6
f  10//6 4//4 8//4
f  2//7 11//7 3//7
f  11//7 2//7 10//7
f  11//8 1//8 3//8
f  1//8 11//8 12//9
f  12//9 5//10 1//8
f  5//10 12//9 13//11
f  13//12 7//12 5//12
f  7//12 13//12 14//13
f  14//14 6//14 7//14
f  6//14 14//14 9//15
f  9//16 12//16 8//16
f  12//16 9//16 14//17
f  12//18 14//18 13//18
f  8//19 11//19 10//19
f  11//19 8//19 12//20

