# {"id":"BLDG_00030009003eef62","idOriginal":"BLDG_00030009003eef62","origin":[13.363502954478053,52.54322908473322],"elevation":35.85}
# Longitude: 13.363502954478053
# Latitude: 52.54322908473322
# Elevation: 35.85

# File produced by Open Asset Import Library (http://www.assimp.sf.net)
# (assimp v3.1.0)

mtllib BLDG_00030009003eef62.obj.mtl

# 48 vertex positions
v  26.4119 18.9 -6.65235
v  25.0333 0.54 -8.00056
v  26.4115 0.54 -6.65177
v  25.0336 18.9 -8.00114
v  35.4238 0.54 -18.4455
v  35.4241 18.9 -18.4461
v  36.6819 0.54 -17.2143
v  36.6823 18.9 -17.2149
v  42.008 16.37 -12.0885
v  34.8041 0.54 -4.77442
v  42.0077 0.54 -12.088
v  31.5903 0.54 -1.51155
v  31.5906 16.37 -1.51206
v  34.8044 16.37 -4.77492
v  29.4637 0.54 -3.6266
v  26.45 0.54 -6.62406
v  29.4641 16.37 -3.6271
v  26.4504 18.9 -6.62464
v  29.4641 18.9 -3.62718
v  36.5824 0.54 -17.3683
v  29.5936 16.37 -9.9576
v  36.5827 16.37 -17.3688
v  29.5932 0.54 -9.9571
v  29.5936 18.9 -9.95768
v  32.6779 18.9 -6.89005
v  32.6779 16.37 -6.88997
v  33.8517 1.22366e-15 -19.9839
v  35.4237 1.12946e-15 -18.4455
v  28.344 1.55371e-15 -25.374
v  26.772 1.64791e-15 -26.9124
v  26.7724 19.72 -26.913
v  35.4242 19.72 -18.4462
v  33.8522 22.72 -19.9846
v  28.3445 22.72 -25.3747
v  25.0332 4.89892e-16 -8.00054
v  8.65218 19.72 8.46622
v  8.65176 -5.18445e-16 8.46684
v  25.0337 19.72 -8.00117
v  0.000420325 19.72 -0.000624551
v  7.08025 22.72 6.92773
v  1.57248 22.72 1.53768
v  0 0 0
v  1.572 -9.41997e-17 1.5384
v  7.07976 -4.24245e-16 6.92845
v  16.3819 19.72 -16.468
v  16.3815 1.00834e-15 -16.4674
v  23.4617 22.72 -9.53966
v  17.954 22.72 -14.9297

# 0 UV coordinates

# 66 vertex normals
vn -0.699428 3.7541e-05 0.714703
vn -0.699428 3.75766e-05 0.714703
vn -0.708953 -7.13758e-06 -0.705255
vn -0.708954 -7.32151e-06 -0.705255
vn 0.716953 6.79762e-06 0.697122
vn 0.716953 6.7412e-06 0.697122
vn 0.712442 6.91485e-06 0.701731
vn 0.712442 6.73504e-06 0.701731
vn 0.712442 7.0324e-06 0.701731
vn 0 1 0
vn -0.705188 3.74966e-05 0.70902
vn -0.705188 3.74884e-05 0.70902
vn -0.705188 3.74814e-05 0.70902
vn -0.705188 3.74836e-05 0.70902
vn -0.705188 3.73348e-05 0.70902
vn -0.727518 -6.31345e-06 -0.686089
vn -0.727517 -6.20137e-06 -0.686089
vn -0.727517 -6.22073e-06 -0.686089
vn -0.727518 -6.24522e-06 -0.686089
vn -0.727518 -6.33538e-06 -0.686089
vn 0.697473 -3.76236e-05 -0.716611
vn 0.697473 -3.74963e-05 -0.716611
vn 0.705188 -3.85603e-05 -0.70902
vn 0.705188 -3.72605e-05 -0.70902
vn 0.712442 7.16061e-06 0.701731
vn 0.712442 6.25524e-06 0.701731
vn 0.699427 -3.75372e-05 -0.714704
vn 0.699428 -3.76145e-05 -0.714703
vn 0.699428 -3.76231e-05 -0.714703
vn 0.699427 -3.72562e-05 -0.714704
vn 0.699427 -3.70342e-05 -0.714704
vn 0.699428 -3.76167e-05 -0.714703
vn 0.699428 -3.95429e-05 -0.714703
vn 0.699428 -3.70008e-05 -0.714703
vn 0.699428 -3.72904e-05 -0.714703
vn 0.708954 7.26211e-06 0.705255
vn 0.708953 7.03765e-06 0.705255
vn 0.708956 8.93248e-06 0.705252
vn 0.708954 7.18104e-06 0.705255
vn 0.708954 7.84318e-06 0.705255
vn -0.699428 3.74967e-05 0.714703
vn -0.699428 3.75785e-05 0.714703
vn -0.699428 3.75528e-05 0.714703
vn -0.699428 3.75221e-05 0.714703
vn -2.77556e-17 1 8.32667e-17
vn -0.708954 -7.21978e-06 -0.705255
vn -0.708954 -7.26211e-06 -0.705255
vn -0.708953 -7.14269e-06 -0.705255
vn -0.708954 -7.22498e-06 -0.705255
vn 0.571753 0.591269 0.56877
vn 0.571753 0.591269 0.56877
vn 0.571753 0.591269 0.56877
vn 0.571753 0.591269 0.56877
vn -0.571757 0.591261 -0.568774
vn -0.571757 0.591261 -0.568774
vn -0.571757 0.591261 -0.568774
vn -0.571757 0.591261 -0.568774
vn -3.31598e-23 -1 -6.12324e-17
vn -1.04558e-22 -1 -6.12324e-17
vn 0 -1 -6.12324e-17
vn 2.89555e-24 -1 -6.12323e-17
vn 1.15822e-23 -1 -6.12323e-17
vn 7.6088e-24 -1 -6.12323e-17
vn 0 -1 -6.12324e-17
vn 2.61396e-23 -1 -6.12323e-17
vn 0 -1 0

# Mesh 'defaultobject' with 88 faces
g defaultobject
usemtl DefaultMaterial
f  1//1 2//1 3//1
f  2//1 1//1 4//2
f  4//3 5//3 2//3
f  5//3 4//3 6//4
f  7//5 1//5 3//5
f  1//5 7//5 8//6
f  9//7 10//7 11//7
f  10//7 9//7 12//8
f  12//8 9//7 13//9
f  13//10 9//10 14//10
f  13//11 15//11 12//11
f  15//11 13//11 16//12
f  16//12 13//11 17//13
f  16//12 17//13 18//14
f  18//14 17//13 19//15
f  20//16 21//16 22//16
f  21//16 20//16 18//17
f  18//17 20//16 23//18
f  18//17 23//18 16//19
f  18//17 24//20 21//16
f  20//21 9//21 11//21
f  9//21 20//21 22//22
f  21//23 25//23 26//23
f  25//23 21//23 24//24
f  26//25 19//25 17//25
f  19//25 26//25 25//26
f  27//27 5//27 28//27
f  5//27 8//28 7//28
f  8//28 5//27 27//27
f  8//28 27//27 29//29
f  8//28 29//29 30//30
f  8//28 30//30 6//31
f  6//31 30//30 31//32
f  6//31 31//32 32//33
f  32//33 31//32 33//34
f  33//34 31//32 34//35
f  35//36 36//36 37//36
f  36//36 35//36 28//37
f  36//36 28//37 5//38
f  36//36 5//38 6//39
f  36//36 6//39 32//40
f  36//10 32//10 38//10
f  39//41 40//41 41//41
f  40//41 39//41 36//42
f  36//42 39//41 42//43
f  36//42 42//43 37//44
f  37//44 42//43 43//16
f  37//45 43//16 44//45
f  30//46 45//46 31//46
f  45//46 30//46 39//47
f  39//47 30//46 46//48
f  39//47 46//48 42//49
f  22//10 14//10 9//10
f  14//10 22//10 21//10
f  14//10 21//10 26//10
f  26//10 13//10 14//10
f  13//10 26//10 17//10
f  25//10 18//10 19//10
f  18//10 25//10 24//10
f  33//50 38//50 32//50
f  38//50 33//50 47//51
f  38//50 47//51 36//52
f  36//52 47//51 40//53
f  34//10 47//10 33//10
f  47//10 34//10 48//10
f  47//10 48//10 40//10
f  40//10 48//10 41//10
f  31//54 48//54 34//54
f  48//54 31//54 45//55
f  48//54 45//55 41//56
f  41//56 45//55 39//57
f  8//10 4//10 1//10
f  4//10 8//10 6//10
f  46//58 43//16 42//58
f  43//16 46//58 30//59
f  43//16 30//59 29//60
f  43//16 29//60 44//61
f  44//61 29//60 27//62
f  44//61 27//62 37//63
f  37//63 27//62 35//64
f  35//64 27//62 28//65
f  5//66 3//66 2//66
f  3//66 5//66 7//66
f  15//66 10//66 12//66
f  10//66 15//66 11//66
f  11//66 15//66 20//66
f  20//66 15//66 16//66
f  20//16 16//66 23//18

