# {"id":"BLDG_0003000e00559195","idOriginal":"BLDG_0003000e00559195","origin":[13.397507936064416,52.52707460230295],"elevation":34.7099990844727}
# Longitude: 13.397507936064416
# Latitude: 52.52707460230295
# Elevation: 34.7099990844727

# File produced by Open Asset Import Library (http://www.assimp.sf.net)
# (assimp v3.1.0)

mtllib BLDG_0003000e00559195.obj.mtl

# 19 vertex positions
v  4.98927 8.99196e-17 -1.4685
v  14.1908 -4.30209e-16 7.02584
v  7.53942 -5.50084e-16 8.98356
v  11.5071 2.07388e-16 -3.3869
v  0 0 0
v  2.55015 -6.40004e-16 10.4521
v  10.4099 -1.27048e-15 20.7484
v  5.33392 -1.33864e-15 21.8616
v  12.8494 18.692 1.81888
v  4.98959 15.0709 -1.46898
v  6.26474 18.692 3.75694
v  11.5074 15.0709 -3.38737
v  14.1912 15.0709 7.02536
v  7.53974 15.0709 8.98308
v  0.000321916 15.0709 -0.00047678
v  1.27548 18.692 5.22544
v  2.55055 18.692 10.4515
v  5.33432 18.692 21.861
v  10.4102 15.0709 20.748

# 0 UV coordinates

# 27 vertex normals
vn 0 -1 -6.12323e-17
vn -7.57727e-24 -1 -6.12323e-17
vn 1.38827e-23 -1 -6.12324e-17
vn -0.157793 0.829271 -0.536108
vn -0.157793 0.829271 -0.536108
vn 0.15779 0.829279 0.536096
vn 0.15779 0.829279 0.536096
vn -0.157793 0.82927 -0.536108
vn 0.15779 0.829279 0.536096
vn 0.555528 0.820377 -0.135541
vn 0.555528 0.820377 -0.135541
vn -0.282355 -2.4322e-05 -0.95931
vn -0.282355 -2.4331e-05 -0.95931
vn 0.968354 -2.85469e-05 -0.249581
vn 0.968354 -2.86082e-05 -0.249581
vn 0.968354 -2.8656e-05 -0.249581
vn 0.282355 2.43222e-05 0.95931
vn 0.282355 2.43131e-05 0.95931
vn -0.971502 2.82537e-05 0.237033
vn -0.971502 2.82501e-05 0.237033
vn -0.971502 2.82493e-05 0.237033
vn -0.282355 -2.43174e-05 -0.95931
vn -0.971502 2.82664e-05 0.237032
vn 0.971502 -2.8217e-05 -0.237033
vn 0.971502 -2.82379e-05 -0.237032
vn 0.214213 2.63223e-05 0.976787
vn 0.214213 2.6339e-05 0.976787

# Mesh 'defaultobject' with 34 faces
g defaultobject
usemtl DefaultMaterial
f  1//1 2//1 3//1
f  2//1 1//1 4//1
f  5//2 3//1 6//2
f  3//1 5//2 1//1
f  6//2 7//3 8//3
f  7//3 6//2 3//1
f  9//4 10//4 11//4
f  10//4 9//4 12//5
f  13//6 11//6 14//6
f  11//6 13//6 9//7
f  15//8 11//4 10//4
f  11//4 15//8 16//8
f  11//6 16//9 14//6
f  16//10 17//10 14//10
f  14//10 18//11 19//11
f  18//11 14//10 17//10
f  10//12 4//12 1//12
f  4//12 10//12 12//13
f  12//14 2//14 4//14
f  2//14 12//14 13//15
f  13//15 12//14 9//16
f  2//17 14//17 3//17
f  14//17 2//17 13//18
f  17//19 5//19 6//19
f  5//19 17//19 15//20
f  15//20 17//19 16//21
f  15//22 1//12 5//22
f  1//12 15//22 10//12
f  18//23 6//19 8//23
f  6//19 18//23 17//19
f  3//24 19//24 7//24
f  19//24 3//24 14//25
f  7//26 18//26 8//26
f  18//26 7//26 19//27

