# {"id":"BLDG_0003000a00419f57","idOriginal":"BLDG_0003000a00419f57","origin":[13.39861967537572,52.54887124316469],"elevation":44.6100006103516}
# Longitude: 13.39861967537572
# Latitude: 52.54887124316469
# Elevation: 44.6100006103516

# File produced by Open Asset Import Library (http://www.assimp.sf.net)
# (assimp v3.1.0)

mtllib BLDG_0003000a00419f57.obj.mtl

# 8 vertex positions
v  35.6961 10.8289 7.94837
v  0.000231336 10.8289 -0.00034308
v  1.59466 10.8289 12.369
v  34.101 10.8289 -4.39099
v  34.1008 2.6885e-16 -4.39065
v  1.59443 -7.57403e-16 12.3693
v  0 0 0
v  35.6959 -4.86718e-16 7.94871

# 0 UV coordinates

# 10 vertex normals
vn 0 1 0
vn 9.87668e-25 -1 -6.12323e-17
vn 9.89892e-25 -1 -6.12323e-17
vn -0.991794 2.52452e-05 0.127844
vn -0.991794 2.52379e-05 0.127844
vn 0.128556 2.86432e-05 0.991702
vn 0.991748 -2.50286e-05 -0.128201
vn 0.991748 -2.53825e-05 -0.128201
vn -0.127701 -2.86944e-05 -0.991813
vn -0.127701 -2.87456e-05 -0.991813

# Mesh 'defaultobject' with 12 faces
g defaultobject
usemtl DefaultMaterial
f  1//1 2//1 3//1
f  2//1 1//1 4//1
f  5//2 6//2 7//2
f  6//2 5//2 8//3
f  3//4 7//4 6//4
f  7//4 3//4 2//5
f  3//6 8//6 1//6
f  8//6 3//6 6//6
f  1//7 5//7 4//7
f  5//7 1//7 8//8
f  2//9 5//9 7//9
f  5//9 2//9 4//10

