# {"id":"BLDG_000300080019bef6","idOriginal":"BLDG_000300080019bef6","origin":[13.392397462845027,52.53069838984172],"elevation":35.4799995422363}
# Longitude: 13.392397462845027
# Latitude: 52.53069838984172
# Elevation: 35.4799995422363

# File produced by Open Asset Import Library (http://www.assimp.sf.net)
# (assimp v3.1.0)

mtllib BLDG_000300080019bef6.obj.mtl

# 59 vertex positions
v  24.4814 7.01677e-16 -11.4593
v  19.861 1.6593e-16 -2.70984
v  17.2752 4.95136e-16 -8.08619
v  27.0672 3.72471e-16 -6.08291
v  35.8736 -7.48712e-16 12.2274
v  34.5558 -1.70492e-15 27.8435
v  28.6833 -9.57276e-16 15.6335
v  41.7461 -1.49636e-15 24.4374
v  9.06698 -1.43444e-16 2.34262
v  6.59532 1.89033e-16 -3.08714
v  17.5235 -1.28098e-15 20.92
v  23.1374 -2.03613e-15 33.2525
v  0 0 0
v  2.47166 -3.32477e-16 5.42976
v  10.9421 -1.47188e-15 24.0377
v  16.556 -2.22703e-15 36.3702
v  25.9755 22.9475 24.4117
v  34.5562 19.9266 27.8429
v  31.62 22.9475 21.7378
v  20.3309 22.9475 27.0855
v  23.1378 19.9266 33.2519
v  17.5239 19.9266 20.9194
v  23.1039 22.9475 18.276
v  28.6837 19.9266 15.6329
v  9.06741 19.9266 2.34199
v  0.000490005 22.9475 -0.00072615
v  2.47209 19.9266 5.42913
v  6.59581 22.9475 -3.08787
v  19.0283 22.0744 24.2241
v  10.9425 19.9266 24.037
v  12.4469 22.0744 27.3417
v  21.2512 22.5829 29.1071
v  14.6698 22.5829 32.2248
v  16.5564 19.9266 36.3696
v  19.8614 19.9266 -2.71047
v  24.4819 22.9475 -11.46
v  17.2757 22.9475 -8.08692
v  27.0676 19.9266 -6.08355
v  35.874 19.9266 12.2268
v  30.4316 22.3412 19.2669
v  37.6219 22.3412 15.8608
v  32.614 22.6027 23.8044
v  39.8043 22.6027 20.3983
v  41.7465 19.9266 24.4368
v  17.2756 19.9266 -8.08682
v  14.4645 22.9475 -0.184337
v  11.9357 22.9475 -5.58739
v  20.5767 21.6796 19.4732
v  12.1268 21.6796 0.909899
v  15.9156 22.246 -0.863581
v  24.7465 22.246 17.4979
v  31.1097 22.4225 20.6768
v  32.0239 22.532 22.5775
v  15.7595 22.2226 -0.790479
v  12.2256 21.6943 0.863655
v  20.8239 21.7131 19.3561
v  24.4692 22.2083 17.6293
v  20.7716 22.4732 28.0537
v  19.6523 22.2172 25.5948

# 0 UV coordinates

# 87 vertex normals
vn 4.46136e-24 -1 -6.12323e-17
vn -4.46136e-24 -1 -6.12323e-17
vn -1.17866e-23 -1 -6.12324e-17
vn 1.17866e-23 -1 -6.12324e-17
vn 3.01027e-24 -1 -6.12323e-17
vn 6.72182e-24 -1 -6.12324e-17
vn -4.9481e-24 -1 -6.12323e-17
vn 2.43729e-24 -1 -6.12323e-17
vn 2.43728e-24 -1 -6.12323e-17
vn -4.29235e-24 -1 -6.12324e-17
vn 0.174357 0.913304 0.368069
vn 0.174357 0.913304 0.368069
vn 0.174357 0.913304 0.368069
vn -0.17436 0.913302 -0.368074
vn -0.398052 0.898248 0.186295
vn 0.398062 0.898242 -0.1863
vn 0.191523 0.892133 0.409167
vn 0.191523 0.892133 0.409167
vn -0.217979 0.860664 -0.460154
vn -0.217979 0.860665 -0.460154
vn -0.0403935 0.995539 -0.0852708
vn -0.0403935 0.995539 -0.0852708
vn 0.21572 0.863765 0.455385
vn 0.21572 0.863765 0.455385
vn 0.191523 0.892133 0.409167
vn 0.191523 0.892133 0.409167
vn -0.219936 0.857944 -0.464285
vn -0.219936 0.857944 -0.464285
vn -0.0222027 0.998654 -0.04687
vn -0.0222027 0.998654 -0.04687
vn 0.2195 0.858552 0.463366
vn 0.407514 0.891918 -0.195996
vn 0.413013 0.889976 -0.193297
vn -0.409532 0.891934 0.191668
vn 0.191523 0.892133 0.409167
vn -0.419246 0.887589 0.190838
vn -0.419264 0.887577 0.190851
vn -0.109809 0.992549 0.0528123
vn -0.122125 0.990957 0.0555907
vn 0.42351 0.882695 -0.203689
vn 0.423524 0.882688 -0.203692
vn -0.17436 0.913302 -0.368074
vn -0.423937 -1.96231e-05 -0.905692
vn -0.423937 -1.95879e-05 -0.905692
vn 0.901187 -3.29473e-05 -0.433431
vn 0.901187 -3.29568e-05 -0.433431
vn 0.423937 1.95732e-05 0.905692
vn 0.423937 1.95972e-05 0.905692
vn -0.901187 3.24594e-05 0.433431
vn -0.901187 3.26181e-05 0.433431
vn -0.901187 3.3412e-05 0.433431
vn -0.428104 -1.94516e-05 -0.903729
vn -0.428104 -1.94925e-05 -0.903729
vn 0.901187 -3.28615e-05 -0.433431
vn 0.901187 -3.30133e-05 -0.433431
vn 0.901187 -3.33477e-05 -0.433431
vn 0.901187 -3.34685e-05 -0.433431
vn 0.428104 1.94536e-05 0.903729
vn 0.428104 1.93694e-05 0.90373
vn -0.423937 -1.95973e-05 -0.905692
vn -0.423937 -1.96026e-05 -0.905692
vn -0.423937 -1.99179e-05 -0.905692
vn -0.423937 -1.98588e-05 -0.905692
vn 0.428108 1.17236e-05 0.903728
vn 0.428107 2.66117e-05 0.903728
vn -0.91014 3.25138e-05 0.414301
vn -0.91014 3.25386e-05 0.414301
vn -0.423938 -2.18616e-05 -0.905691
vn -0.423935 -2.31955e-05 -0.905693
vn 0.901187 -3.29555e-05 -0.433431
vn 0.901187 -3.30684e-05 -0.433431
vn -0.901187 3.43903e-05 0.433431
vn 0.428104 1.94093e-05 0.903729
vn 0.91014 -3.4026e-05 -0.414302
vn 0.428104 2.08713e-05 0.90373
vn -0.423937 -1.96072e-05 -0.905692
vn 0.423937 1.95984e-05 0.905692
vn 0.423937 1.96115e-05 0.905692
vn -0.91014 3.25446e-05 0.414301
vn -0.91014 3.25446e-05 0.414301
vn -0.91014 3.25139e-05 0.414302
vn -0.91014 3.21128e-05 0.414302
vn -0.91014 3.23224e-05 0.414302
vn -0.428104 -1.94083e-05 -0.903729
vn 0.91014 -3.20197e-05 -0.414301
vn 0.91014 -3.44909e-05 -0.414301
vn 0.428104 1.94132e-05 0.903729

# Mesh 'defaultobject' with 97 faces
g defaultobject
usemtl DefaultMaterial
f  1//1 2//1 3//1
f  2//1 1//1 4//2
f  5//3 6//3 7//3
f  6//3 5//3 8//4
f  3//1 9//5 10//5
f  9//5 3//1 2//1
f  9//5 7//3 11//6
f  7//3 9//5 2//1
f  12//7 7//3 6//3
f  7//3 12//7 11//6
f  9//5 13//8 10//5
f  13//8 9//5 14//9
f  15//10 12//7 16//10
f  12//7 15//10 11//6
f  17//11 18//11 19//11
f  18//11 17//11 20//12
f  18//11 20//12 21//13
f  17//14 22//14 20//14
f  17//15 23//15 22//15
f  17//16 24//16 23//16
f  25//17 26//17 27//17
f  26//17 25//17 28//18
f  29//19 30//19 31//19
f  30//19 29//19 22//20
f  32//21 31//21 33//21
f  31//21 32//21 29//22
f  21//23 33//23 34//23
f  33//23 21//23 32//24
f  35//25 36//25 37//25
f  36//25 35//25 38//26
f  39//27 40//27 41//27
f  40//27 39//27 24//28
f  41//29 42//29 43//29
f  42//29 41//29 40//30
f  43//31 18//31 44//31
f  18//31 43//31 42//31
f  45//32 46//32 35//32
f  46//33 45//33 47//33
f  47//34 25//34 46//34
f  47//35 28//18 25//17
f  25//36 48//36 49//36
f  48//37 25//37 22//37
f  50//38 48//38 51//38
f  48//39 50//39 49//39
f  35//40 51//40 24//40
f  51//41 35//41 50//41
f  19//42 24//42 17//14
f  37//43 1//43 3//43
f  1//43 37//43 36//44
f  1//45 38//45 4//45
f  38//45 1//45 36//46
f  4//47 35//47 2//47
f  35//47 4//47 38//48
f  37//49 45//49 35//49
f  24//50 52//50 40//50
f  53//51 18//51 42//51
f  24//52 5//52 7//52
f  5//52 24//52 39//53
f  39//54 8//54 5//54
f  8//54 39//54 44//55
f  44//55 39//54 41//56
f  44//55 41//56 43//57
f  8//58 18//58 6//58
f  18//58 8//58 44//59
f  28//60 3//43 10//60
f  3//43 28//60 45//61
f  45//61 28//60 47//62
f  46//63 54//63 55//63
f  22//64 56//64 48//64
f  57//65 24//65 51//65
f  22//66 9//66 11//66
f  9//66 22//66 25//67
f  35//68 54//63 50//68
f  55//63 25//69 49//69
f  2//70 24//70 7//70
f  24//70 2//70 35//71
f  19//72 52//50 53//51
f  6//58 21//73 12//73
f  21//73 6//58 18//58
f  20//74 58//74 59//74
f  23//75 56//75 57//65
f  26//76 10//60 13//76
f  10//60 26//76 28//60
f  9//77 27//77 14//77
f  27//77 9//77 25//78
f  27//79 13//79 14//79
f  13//79 27//79 26//80
f  34//81 15//81 16//81
f  15//81 34//81 30//81
f  30//81 34//81 33//82
f  30//81 33//82 31//83
f  30//84 11//84 15//84
f  11//84 30//84 22//84
f  21//85 58//74 32//85
f  59//74 22//86 29//86
f  12//73 34//87 16//87
f  34//87 12//73 21//73

