# {"id":"BLDG_00030000001f3c5e","idOriginal":"BLDG_00030000001f3c5e","origin":[13.38883575333215,52.551056291203615],"elevation":44.32}
# Longitude: 13.38883575333215
# Latitude: 52.551056291203615
# Elevation: 44.32

# File produced by Open Asset Import Library (http://www.assimp.sf.net)
# (assimp v3.1.0)

mtllib BLDG_00030000001f3c5e.obj.mtl

# 31 vertex positions
v  9.30469 0.59 5.56855
v  0.368848 0.59 -1.37638
v  9.30507 18.3266 5.56799
v  0.369227 18.3266 -1.37694
v  4.83726 23.6349 2.09536
v  8.30149 0.59 -14.4908
v  8.30187 18.3266 -14.4913
v  17.2373 0.59 -7.54583
v  17.2377 18.3266 -7.5464
v  12.7699 23.6349 -11.019
v  10.2903 18.17 5.12761
v  13.4537 18.17 -1.21983
v  10.2899 -3.14011e-16 5.12819
v  13.9236 18.17 -2.16271
v  13.9232 1.32392e-16 -2.16213
v  13.4533 7.46576e-17 -1.21925
v  16.1365 3.13044e-16 -5.11239
v  17.8133 18.17 -7.34768
v  17.8133 17.0804 -7.34765
v  17.8129 4.4988e-16 -7.3471
v  4.10256 5.0406e-16 -8.23192
v  5.67513 6.32286e-16 -10.326
v  4.10295 18.17 -8.2325
v  8.61616 8.7234e-16 -14.2464
v  8.61654 18.17 -14.247
v  13.2151 23.53 -10.7975
v  0.000387921 18.17 -0.00057574
v  0 0 0
v  5.14547 23.53 2.56335
v  9.01181 23.53 -5.19458
v  9.89364 22.5677 -4.65027

# 0 UV coordinates

# 45 vertex normals
vn 0.613656 -3.81048e-05 -0.789573
vn 0.613656 -3.81228e-05 -0.789573
vn 0.613656 -3.81467e-05 -0.789573
vn 0.855645 -1.86607e-06 0.517563
vn 0.855645 -1.87363e-06 0.517563
vn -0.613656 3.81048e-05 0.789573
vn -0.613656 3.81378e-05 0.789573
vn -0.613656 3.80356e-05 0.789573
vn -0.855645 1.87363e-06 -0.517563
vn -0.855645 1.91964e-06 -0.517563
vn -0.895009 4.97863e-06 -0.446048
vn -0.895009 5.04441e-06 -0.446048
vn -0.895009 4.98448e-06 -0.446048
vn -5.55112e-17 -1 -1.11022e-16
vn -0.799927 -1.92824e-06 -0.600097
vn -0.799927 -1.9272e-06 -0.600097
vn -0.799927 -2.10522e-06 -0.600098
vn -0.799927 -1.95325e-06 -0.600097
vn 0.799633 1.95484e-06 0.600489
vn 0.799927 7.2653e-05 0.600097
vn 0.799825 1.91113e-06 0.600233
vn -0.600094 3.81459e-05 0.799929
vn -0.600094 3.81363e-05 0.799929
vn -0.600094 3.78105e-05 0.799929
vn -0.600094 3.8225e-05 0.799929
vn 0.895009 -4.97862e-06 0.446048
vn 0.895009 -4.97443e-06 0.446048
vn 0.446046 -3.78824e-05 -0.89501
vn 0.446046 -3.79017e-05 -0.89501
vn 0.446046 -3.78845e-05 -0.89501
vn 0 1 6.12323e-17
vn 0 1 6.12323e-17
vn 0 1 6.12323e-17
vn -7.29508e-23 1 6.12323e-17
vn -0.610362 -0.731388 -0.304187
vn -0.610362 -0.731388 -0.304188
vn -0.610362 -0.731388 -0.304187
vn -0.610362 -0.731388 -0.304187
vn 0.545519 -0.731389 0.409243
vn 0.545388 -0.73146 0.40929
vn 0.610359 -0.731391 0.304186
vn 0.610359 -0.731391 0.304186
vn -0.545518 -0.73139 -0.409242
vn -0.545518 -0.73139 -0.409242
vn -0.545518 -0.73139 -0.409242

# Mesh 'defaultobject' with 48 faces
g defaultobject
usemtl DefaultMaterial
f  1//1 2//1 3//1
f  4//2 3//1 2//1
f  5//3 3//1 4//2
f  2//4 6//4 4//4
f  7//5 4//4 6//4
f  6//6 8//6 7//6
f  9//7 7//6 8//6
f  10//8 7//6 9//7
f  1//9 3//9 8//9
f  9//10 8//9 3//9
f  11//11 12//11 13//11
f  14//12 13//11 12//11
f  15//13 13//11 14//12
f  16//14 13//14 15//14
f  15//15 14//15 17//15
f  18//16 17//15 14//15
f  19//17 17//15 18//16
f  20//18 17//15 19//17
f  21//19 22//19 23//19
f  24//20 23//20 22//20
f  25//21 23//21 24//21
f  20//22 19//22 24//22
f  25//23 24//22 19//22
f  18//24 25//23 19//22
f  26//25 25//23 18//24
f  23//26 27//26 21//26
f  28//27 21//26 27//26
f  28//28 27//28 13//28
f  11//29 13//28 27//28
f  29//30 11//29 27//28
f  13//31 16//31 28//31
f  15//31 28//31 16//31
f  20//32 24//32 17//32
f  15//31 17//32 24//32
f  28//31 15//31 24//32
f  22//33 28//31 24//32
f  21//34 28//31 22//33
f  29//35 30//35 11//35
f  31//36 11//35 30//35
f  12//37 11//35 31//36
f  14//38 12//37 31//36
f  26//39 30//39 25//39
f  23//40 25//40 30//40
f  29//41 27//41 30//41
f  23//42 30//41 27//41
f  14//43 31//43 18//43
f  26//44 18//43 31//43
f  30//45 26//44 31//43

