# {"id":"BLDG_00030009007ea43b","idOriginal":"BLDG_00030009007ea43b","origin":[13.379026048215682,52.55980042381507],"elevation":40.4799995422363}
# Longitude: 13.379026048215682
# Latitude: 52.55980042381507
# Elevation: 40.4799995422363

# File produced by Open Asset Import Library (http://www.assimp.sf.net)
# (assimp v3.1.0)

mtllib BLDG_00030009007ea43b.obj.mtl

# 22 vertex positions
v  15.2544 21.2066 8.28614
v  14.9466 19.4983 1.11627
v  12.6167 21.4965 6.8532
v  17.5843 21.2066 2.54915
v  23.5233 21.6783 5.77555
v  21.1934 21.6783 11.5125
v  26.728 19.4983 7.5166
v  24.3981 19.4983 13.2536
v  0.000458665 21.4965 -0.00068155
v  2.93403 19.4983 -5.40965
v  22.1594 21.2066 -8.71409
v  19.5184 19.4983 -10.1408
v  28.1029 21.6783 -5.5032
v  31.3116 19.4983 -3.76962
v  14.9462 -6.83895e-17 1.11689
v  31.3112 2.30785e-16 -3.769
v  26.7276 -4.60297e-16 7.51722
v  19.518 6.20908e-16 -10.1402
v  12.6163 -4.19679e-16 6.85388
v  24.3977 -8.11586e-16 13.2542
v  0 0 0
v  2.93362 3.31208e-16 -5.40904

# 0 UV coordinates

# 36 vertex normals
vn 0.231364 0.94409 -0.234871
vn -0.460433 0.867776 -0.186993
vn -0.064911 0.997543 -0.0263619
vn -0.064911 0.997543 -0.0263619
vn 0.477565 0.856922 0.19395
vn 0.477564 0.856922 0.19395
vn 0.14744 0.951107 -0.271399
vn 0.14744 0.951107 -0.271399
vn -0.460419 0.867778 -0.187021
vn -0.460343 0.867832 -0.186956
vn -0.0649136 0.997543 -0.0263571
vn -0.0649254 0.997542 -0.0263725
vn 0.477565 0.856922 0.19395
vn 0.477492 0.856979 0.193878
vn 0 -1 -6.12323e-17
vn 0 -1 -6.12323e-17
vn 6.41675e-25 -1 -6.12323e-17
vn 5.99213e-25 -1 -6.12323e-17
vn -0.926507 7.82745e-06 -0.376277
vn -0.926507 7.83205e-06 -0.376277
vn 0.475314 -3.8021e-05 -0.879816
vn 0.475314 -3.80318e-05 -0.879816
vn 0.475314 -3.7983e-05 -0.879816
vn 0.475314 -3.79794e-05 -0.879816
vn 0.926507 -7.82154e-06 0.376277
vn 0.926507 -7.8376e-06 0.376277
vn 0.926507 -7.81993e-06 0.376276
vn -0.477364 3.80725e-05 0.878706
vn -0.477364 3.80399e-05 0.878706
vn -0.477364 3.70424e-05 0.878706
vn -0.477364 3.77881e-05 0.878706
vn -0.477364 3.80429e-05 0.878706
vn -0.879039 3.64035e-06 -0.476751
vn -0.879039 3.64519e-06 -0.476751
vn 0.477364 -3.80627e-05 -0.878706
vn 0.477364 -3.80403e-05 -0.878706

# Mesh 'defaultobject' with 40 faces
g defaultobject
usemtl DefaultMaterial
f  1//1 2//1 3//1
f  1//2 4//2 2//2
f  1//3 5//3 4//3
f  5//3 1//3 6//4
f  6//5 7//5 5//5
f  7//5 6//5 8//6
f  2//7 9//7 3//7
f  9//7 2//7 10//8
f  11//9 2//9 4//9
f  2//10 11//10 12//10
f  13//11 4//3 5//3
f  4//12 13//12 11//12
f  14//13 5//5 7//5
f  5//14 14//14 13//14
f  15//15 16//15 17//15
f  16//15 15//15 18//16
f  19//17 17//15 20//17
f  17//15 19//17 15//15
f  21//18 15//15 19//17
f  15//15 21//18 22//15
f  2//19 18//19 15//19
f  18//19 2//19 12//20
f  12//21 16//21 18//21
f  16//21 12//21 14//22
f  14//22 12//21 11//23
f  14//22 11//23 13//24
f  16//25 7//25 17//25
f  7//25 16//25 14//26
f  17//25 8//27 20//27
f  8//27 17//25 7//25
f  8//28 19//28 20//28
f  19//28 8//28 3//29
f  3//29 8//28 1//30
f  1//30 8//28 6//31
f  19//28 9//32 21//32
f  9//32 19//28 3//29
f  9//33 22//33 21//33
f  22//33 9//33 10//34
f  10//35 15//35 22//35
f  15//35 10//35 2//36

