# {"id":"BLDG_0003000b000fd664","idOriginal":"BLDG_0003000b000fd664","origin":[13.385035459218095,52.535682479362634],"elevation":35.7299995422363}
# Longitude: 13.385035459218095
# Latitude: 52.535682479362634
# Elevation: 35.7299995422363

# File produced by Open Asset Import Library (http://www.assimp.sf.net)
# (assimp v3.1.0)

mtllib BLDG_0003000b000fd664.obj.mtl

# 14 vertex positions
v  22.2168 15.9263 3.19667
v  0.000339924 15.9263 -0.00050414
v  15.9325 15.9263 11.7605
v  16.2489 15.9263 -1.21159
v  2.69631 15.9263 -3.63848
v  13.2506 15.9263 -3.42728
v  6.32933 15.9263 -8.53965
v  2.69597 2.22762e-16 -3.63798
v  15.9322 -7.20152e-16 11.761
v  0 0 0
v  22.2165 -1.9577e-16 3.19717
v  16.2486 7.41574e-17 -1.21108
v  6.32899 5.22872e-16 -8.53914
v  13.2502 2.09829e-16 -3.42677

# 0 UV coordinates

# 19 vertex normals
vn 0 1 0
vn -2.36158e-24 -1 -6.12323e-17
vn 0 -1 -6.12323e-17
vn 0 -1 -6.12323e-17
vn 0 -1 -6.12323e-17
vn 1.63605e-20 -1 -6.12537e-17
vn 0.594147 -3.81262e-05 -0.804356
vn 0.594305 -3.81621e-05 -0.80424
vn 0.594305 -3.8122e-05 -0.80424
vn 0.594142 -3.81638e-05 -0.80436
vn 0.594142 -3.81638e-05 -0.80436
vn -0.803359 -1.70483e-06 -0.595495
vn -0.803359 -1.71374e-06 -0.595495
vn -0.803433 -1.69884e-06 -0.595395
vn -0.803433 -1.70009e-06 -0.595395
vn -0.593901 3.80975e-05 0.804538
vn -0.593902 3.81433e-05 0.804538
vn 0.806217 1.5559e-06 0.59162
vn 0.806217 1.53335e-06 0.59162

# Mesh 'defaultobject' with 24 faces
g defaultobject
usemtl DefaultMaterial
f  1//1 2//1 3//1
f  2//1 1//1 4//1
f  2//1 4//1 5//1
f  5//1 4//1 6//1
f  5//1 6//1 7//1
f  8//2 9//2 10//2
f  9//2 8//2 11//3
f  11//3 8//2 12//4
f  12//4 8//2 13//5
f  12//4 13//5 14//6
f  1//7 12//7 4//7
f  12//7 1//7 11//7
f  4//8 14//8 6//8
f  14//8 4//8 12//9
f  6//10 13//10 7//10
f  13//10 6//10 14//11
f  5//12 13//12 8//12
f  13//12 5//12 7//13
f  2//14 8//14 10//14
f  8//14 2//14 5//15
f  3//16 10//16 9//16
f  10//16 3//16 2//17
f  3//18 11//18 1//18
f  11//18 3//18 9//19

