# {"id":"BLDG_00030009007ed8d6","idOriginal":"BLDG_00030009007ed8d6","origin":[13.384651190356,52.567394650337384],"elevation":41.310001373291}
# Longitude: 13.384651190356
# Latitude: 52.567394650337384
# Elevation: 41.310001373291

# File produced by Open Asset Import Library (http://www.assimp.sf.net)
# (assimp v3.1.0)

mtllib BLDG_00030009007ed8d6.obj.mtl

# 64 vertex positions
v  20.5023 -1.39416e-16 2.27684
v  20.4068 -8.21642e-17 1.34184
v  24.5743 -1.13941e-16 1.8608
v  19.4381 4.98381e-16 -8.13917
v  23.5101 5.23855e-16 -8.5552
v  10.3263 4.99939e-16 -8.16463
v  6.73839 4.77494e-16 -7.79806
v  5.6315 3.99057e-16 -6.5171
v  4.71639 3.34211e-16 -5.45808
v  0.765809 3.09498e-16 -5.05448
v  16.668 -1.05553e-16 1.72382
v  1.14663 8.1252e-17 -1.32695
v  14.5336 -2.56804e-16 4.19392
v  0 0 0
v  15.1583 -6.31277e-16 10.3095
v  1.40635 -7.44114e-17 1.21523
v  8.6768 -6.71823e-16 10.9717
v  2.46791 -7.10664e-16 11.606
v  8.45353 5.99031e-16 -9.78292
v  19.3414 5.56337e-16 -9.08567
v  6.73885 21.44 -7.79874
v  13.9407 21.44 0.661881
v  8.45399 21.44 -9.7836
v  10.1585 21.44 -2.60638
v  6.99206 21.44 -5.3425
v  10.3268 21.44 -8.16531
v  19.6614 21.44 -5.95847
v  19.3419 21.44 -9.08635
v  20.0468 21.44 -2.1865
v  20.4072 21.44 1.34116
v  16.6685 21.44 1.72314
v  10.3959 21.44 8.98209
v  12.6708 21.44 2.13157
v  11.9798 21.44 2.93122
v  8.30924 21.44 7.17898
v  2.46831 18.69 11.6054
v  10.3959 18.69 8.98218
v  1.40674 18.69 1.21464
v  8.6772 18.69 10.9711
v  15.1587 18.69 10.3089
v  14.534 18.69 4.19333
v  19.4385 18.69 -8.13977
v  24.5747 18.69 1.86021
v  23.5105 18.69 -8.5558
v  19.6614 18.69 -5.95838
v  20.0468 18.69 -2.18641
v  20.5027 18.69 2.27625
v  20.4072 18.69 1.34125
v  11.9798 24.99 2.93111
v  10.1586 24.99 -2.6065
v  8.19759 24.99 -0.337152
v  13.9408 24.99 0.661768
v  0.766208 18.69 -5.05507
v  1.14703 18.69 -1.32754
v  4.71679 18.69 -5.45868
v  3.5468 21.44 3.06373
v  0.000457631 21.44 -0.0006801
v  11.2253 21.44 2.27925
v  8.19752 21.44 -0.337039
v  5.63195 21.44 -6.51778
v  0.000398933 18.69 -0.00059287
v  19.3418 18.69 -9.08626
v  10.3267 18.69 -8.16522
v  16.6684 18.69 1.72323

# 0 UV coordinates

# 82 vertex normals
vn -4.30034e-25 -1 -6.12323e-17
vn 0 -1 -6.12323e-17
vn 4.72742e-25 -1 -6.12323e-17
vn 9.6386e-24 -1 -6.12323e-17
vn -7.89235e-24 -1 -6.12323e-17
vn -1.90928e-24 -1 -6.12323e-17
vn 7.16784e-25 -1 -6.12323e-17
vn 6.74029e-24 -1 -6.12323e-17
vn 1.86753e-24 -1 -6.12323e-17
vn -2.36068e-24 -1 -6.12323e-17
vn 2.45485e-24 -1 -6.12323e-17
vn 0 -1 -6.12324e-17
vn 6.22348e-24 -1 -6.12323e-17
vn -6.49678e-24 -1 -6.12323e-17
vn 7.64394e-24 -1 -6.12324e-17
vn 4.91695e-25 -1 -6.12323e-17
vn -0 1 0
vn -0.756645 -4.57685e-06 -0.653826
vn -0.756646 -4.61466e-06 -0.653825
vn -0.756645 -4.58102e-06 -0.653826
vn -0.756645 -4.58101e-06 -0.653826
vn -0.756645 -4.6705e-06 -0.653826
vn -0.756645 -4.54147e-06 -0.653826
vn -0.756645 -4.58986e-06 -0.653825
vn -0.756645 -4.58907e-06 -0.653826
vn -0.756645 -4.58976e-06 -0.653826
vn 0.994821 -2.39068e-05 -0.101638
vn 0.994822 -2.61868e-05 -0.101636
vn 0.994821 -2.46176e-05 -0.101638
vn 0.994821 -2.46148e-05 -0.101638
vn 0.994821 -2.4615e-05 -0.101638
vn 0.994821 -2.46148e-05 -0.101638
vn 0.994821 -2.46204e-05 -0.101638
vn 0.994822 -2.45459e-05 -0.101636
vn 0.994821 -2.44445e-05 -0.101638
vn -0.101637 -2.93981e-05 -0.994822
vn -0.101637 -2.94037e-05 -0.994822
vn -0.101637 -2.92797e-05 -0.994821
vn -0.101637 -2.95816e-05 -0.994821
vn -0.653823 3.77094e-05 0.756647
vn -0.653823 3.82278e-05 0.756647
vn -0.653823 3.78519e-05 0.756648
vn -0.653823 3.79206e-05 0.756647
vn -0.653823 3.79694e-05 0.756648
vn -0.653823 3.79627e-05 0.756647
vn 0.756645 4.61095e-06 0.653826
vn 0.756645 4.60313e-06 0.653826
vn 0.756645 4.71224e-06 0.653826
vn 0.756645 4.91615e-06 0.653825
vn 0.994821 -2.44451e-05 -0.101642
vn 0.101637 2.93876e-05 0.994822
vn 0.101637 2.94091e-05 0.994822
vn 0.101637 2.93895e-05 0.994822
vn 0.653823 -3.79583e-05 -0.756647
vn 0.653823 -3.79283e-05 -0.756648
vn 0.653823 -3.79718e-05 -0.756648
vn 0.101634 2.94009e-05 0.994822
vn 0.101634 2.93955e-05 0.994822
vn 0.101634 2.94047e-05 0.994822
vn 0 -1 0
vn -0.994822 2.44618e-05 0.101635
vn -0.994822 2.44568e-05 0.101635
vn -0.653823 3.8056e-05 0.756647
vn -0.653823 3.79646e-05 0.756647
vn -0.653823 3.80369e-05 0.756647
vn -0.756645 -4.46475e-06 -0.653826
vn -0.756645 -4.48122e-06 -0.653826
vn 0.653823 -3.80494e-05 -0.756647
vn 0.756645 4.46424e-06 0.653826
vn 0.756645 4.45612e-06 0.653826
vn 0.756645 4.47573e-06 0.653825
vn -0.101641 -2.94059e-05 -0.994821
vn -0.994821 2.44423e-05 0.101642
vn -0.994821 2.4443e-05 0.101642
vn 0.101641 2.93934e-05 0.994821
vn 0.101641 2.93871e-05 0.994821
vn -0.994822 2.44574e-05 0.101635
vn -0.994822 2.44548e-05 0.101635
vn -0.101634 -2.93781e-05 -0.994822
vn -0.101634 -2.9379e-05 -0.994822
vn 0.994822 -2.44964e-05 -0.101635
vn 0.994822 -2.44445e-05 -0.101635

# Mesh 'defaultobject' with 124 faces
g defaultobject
usemtl DefaultMaterial
f  1//1 2//1 3//1
f  3//1 4//2 5//2
f  4//2 3//1 6//3
f  6//3 3//1 7//4
f  7//4 3//1 8//5
f  8//5 3//1 9//6
f  9//6 3//1 10//7
f  10//7 3//1 2//1
f  10//7 2//1 11//8
f  10//7 11//8 12//9
f  12//9 11//8 13//10
f  12//9 13//10 14//2
f  14//2 13//10 15//11
f  14//2 15//11 16//12
f  16//12 15//11 17//13
f  16//12 17//13 18//14
f  7//4 19//15 6//3
f  6//3 20//16 4//2
f  21//17 22//17 23//17
f  22//17 21//17 24//17
f  24//17 21//17 25//17
f  26//17 27//17 28//17
f  27//17 26//17 29//17
f  29//17 26//17 30//17
f  30//17 26//17 31//17
f  31//17 26//17 23//17
f  31//17 23//17 22//17
f  31//17 22//17 32//17
f  32//17 22//17 33//17
f  32//17 33//17 34//17
f  32//17 34//17 35//17
f  36//17 37//17 38//17
f  37//17 36//17 39//17
f  37//17 40//17 41//17
f  40//17 37//17 39//17
f  42//17 43//17 44//17
f  43//17 42//17 45//17
f  43//17 45//17 46//17
f  43//17 46//17 47//17
f  47//17 46//17 48//17
f  49//17 50//17 51//17
f  50//17 49//17 52//17
f  53//17 54//17 55//17
f  34//17 56//17 35//17
f  56//17 34//17 57//17
f  57//17 34//17 58//17
f  57//17 58//17 59//17
f  57//17 59//17 60//17
f  60//17 59//17 25//17
f  25//17 59//17 24//17
f  60//17 25//17 21//17
f  9//18 55//18 8//18
f  19//19 21//19 23//19
f  21//19 19//19 7//20
f  21//19 7//20 60//21
f  60//21 7//20 8//18
f  60//21 8//18 55//18
f  60//21 55//18 57//22
f  57//22 55//18 54//23
f  57//22 54//23 12//24
f  57//22 12//24 61//25
f  61//25 12//24 14//26
f  27//27 62//27 28//27
f  62//27 27//27 42//28
f  42//28 27//27 45//29
f  45//29 27//27 29//30
f  45//29 29//30 46//31
f  46//31 29//30 30//32
f  46//31 30//32 48//33
f  42//28 20//34 62//27
f  20//34 42//28 4//35
f  6//36 62//36 20//36
f  62//36 6//36 63//37
f  62//36 63//37 28//38
f  28//38 63//37 26//39
f  32//40 38//40 37//40
f  38//40 32//40 35//41
f  38//40 35//41 56//42
f  38//40 56//42 57//43
f  38//40 57//43 61//44
f  38//40 14//45 16//45
f  14//45 38//40 61//44
f  11//46 41//46 13//46
f  41//46 11//46 64//47
f  41//46 32//48 37//48
f  32//48 41//46 64//47
f  32//48 64//47 31//49
f  5//50 43//50 3//50
f  43//50 5//50 44//50
f  2//51 64//51 11//51
f  64//51 2//51 48//51
f  64//51 48//51 31//52
f  31//52 48//51 30//53
f  19//54 63//54 6//54
f  63//54 19//54 23//55
f  63//54 23//55 26//56
f  40//57 17//57 15//57
f  17//57 40//57 18//58
f  18//58 40//57 36//59
f  36//60 40//60 39//60
f  16//61 36//61 38//61
f  36//61 16//61 18//62
f  59//63 49//63 51//63
f  49//63 59//63 58//64
f  49//63 58//64 34//65
f  24//66 51//66 50//66
f  51//66 24//66 59//67
f  24//68 52//68 22//68
f  52//68 24//68 50//68
f  33//69 49//69 34//69
f  49//69 33//69 52//70
f  52//70 33//69 22//71
f  5//72 42//72 44//72
f  42//72 5//72 4//72
f  2//73 47//73 48//73
f  47//73 2//73 1//74
f  3//75 47//75 1//75
f  47//75 3//75 43//76
f  10//77 54//77 53//77
f  54//77 10//77 12//78
f  9//79 53//79 55//79
f  53//79 9//79 10//80
f  13//81 40//81 15//81
f  40//81 13//81 41//82

