# {"id":"BLDG_0003000b001de404","idOriginal":"BLDG_0003000b001de404","origin":[13.356748450382776,52.50354189667703],"elevation":34.7299995422363}
# Longitude: 13.356748450382776
# Latitude: 52.50354189667703
# Elevation: 34.7299995422363

# File produced by Open Asset Import Library (http://www.assimp.sf.net)
# (assimp v3.1.0)

mtllib BLDG_0003000b001de404.obj.mtl

# 16 vertex positions
v  0 0 0
v  12.6923 3.64528e-17 -0.595319
v  10.5603 -2.98052e-16 4.86755
v  4.59379 7.21111e-16 -11.7766
v  12.2152 1.84453e-16 -3.01235
v  13.9206 1.43714e-16 -2.34703
v  13.9905 4.63243e-16 -7.56533
v  13.166 2.51944e-17 -0.411456
v  0.00038506 18.0752 -0.000570959
v  10.5607 18.0752 4.86698
v  12.6927 18.0752 -0.59589
v  13.1664 18.0752 -0.412027
v  13.921 18.0752 -2.3476
v  12.2156 18.0752 -3.01292
v  13.9909 18.0752 -7.5659
v  4.59418 18.0752 -11.7772

# 0 UV coordinates

# 22 vertex normals
vn 0 -1 -6.12323e-17
vn 3.60777e-25 -1 -6.12323e-17
vn 7.43527e-24 -1 -6.12323e-17
vn -6.95748e-24 -1 -6.12323e-17
vn 4.21329e-24 -1 -6.12323e-17
vn -2.50724e-23 -1 -6.12324e-17
vn -0.418601 3.7606e-05 0.90817
vn 0.931572 -8.37649e-06 0.363558
vn 0.931572 -8.3675e-06 0.363558
vn -0.3618 3.71627e-05 0.932256
vn -0.3618 3.71603e-05 0.932256
vn 0.93171 -8.38748e-06 0.363204
vn 0.93171 -8.3843e-06 0.363204
vn 0.363455 -3.71586e-05 -0.931612
vn 0.363455 -3.71778e-05 -0.931612
vn 0.931678 -8.34579e-06 0.363284
vn 0.931678 -8.37818e-06 0.363284
vn 0.408973 -3.74988e-05 -0.912546
vn 0.408973 -3.75578e-05 -0.912546
vn -0.93163 8.36743e-06 -0.363407
vn -0.93163 8.36773e-06 -0.363407
vn 0 1 0

# Mesh 'defaultobject' with 28 faces
g defaultobject
usemtl DefaultMaterial
f  1//1 2//1 3//1
f  2//1 1//1 4//2
f  2//1 4//2 5//3
f  2//1 5//3 6//4
f  5//3 4//2 7//5
f  6//4 8//6 2//1
f  3//7 9//7 1//7
f  9//7 3//7 10//7
f  2//8 10//8 3//8
f  10//8 2//8 11//9
f  8//10 11//10 2//10
f  11//10 8//10 12//11
f  6//12 12//12 8//12
f  12//12 6//12 13//13
f  14//14 6//14 5//14
f  6//14 14//14 13//15
f  7//16 14//16 5//16
f  14//16 7//16 15//17
f  16//18 7//18 4//18
f  7//18 16//18 15//19
f  9//20 4//20 1//20
f  4//20 9//20 16//21
f  11//22 14//22 10//22
f  14//22 11//22 13//22
f  13//22 11//22 12//22
f  10//22 16//22 9//22
f  16//22 10//22 14//22
f  16//22 14//22 15//22

