# {"id":"BLDG_000300000028e3d8","idOriginal":"BLDG_000300000028e3d8","origin":[13.364017997998033,52.505101277973615],"elevation":33.3800010681152}
# Longitude: 13.364017997998033
# Latitude: 52.505101277973615
# Elevation: 33.3800010681152

# File produced by Open Asset Import Library (http://www.assimp.sf.net)
# (assimp v3.1.0)

mtllib BLDG_000300000028e3d8.obj.mtl

# 8 vertex positions
v  19.7272 3.11002 5.73267
v  1.82489 3.11002 -5.67997
v  6.6285e-05 3.11002 -9.82406e-05
v  21.9089 3.11002 0.124588
v  19.7271 -3.51031e-16 5.73277
v  1.82483 3.47792e-16 -5.67987
v  21.9088 -7.6348e-18 0.124686
v  0 0 0

# 0 UV coordinates

# 9 vertex normals
vn 0 1 0
vn 0 -1 -6.12323e-17
vn 3.45703e-24 -1 -6.12323e-17
vn -0.279059 3.63021e-05 0.960274
vn 0.931961 -8.51013e-06 0.36256
vn 0.27765 -3.62599e-05 -0.960682
vn 0.27765 -3.63094e-05 -0.960682
vn -0.95207 1.06295e-05 -0.30588
vn -0.95207 1.06293e-05 -0.30588

# Mesh 'defaultobject' with 12 faces
g defaultobject
usemtl DefaultMaterial
f  1//1 2//1 3//1
f  2//1 1//1 4//1
f  5//2 6//2 7//2
f  6//2 5//2 8//3
f  5//4 3//4 8//4
f  3//4 5//4 1//4
f  7//5 1//5 5//5
f  1//5 7//5 4//5
f  2//6 7//6 6//6
f  7//6 2//6 4//7
f  3//8 6//8 8//8
f  6//8 3//8 2//9

