# {"id":"BLDG_0003000e00125d92","idOriginal":"BLDG_0003000e00125d92","origin":[13.332858375676045,52.56151756011422],"elevation":37.8600006103516}
# Longitude: 13.332858375676045
# Latitude: 52.56151756011422
# Elevation: 37.8600006103516

# File produced by Open Asset Import Library (http://www.assimp.sf.net)
# (assimp v3.1.0)

mtllib BLDG_0003000e00125d92.obj.mtl

# 52 vertex positions
v  9.93387 5.38368e-16 -8.79222
v  6.7609 3.38239e-16 -5.52386
v  9.89187 5.35783e-16 -8.75
v  11.9908 4.16152e-16 -6.79628
v  6.24986 3.06005e-16 -4.99744
v  10.0104 7.77743e-17 -1.27015
v  13.6632 3.1264e-16 -5.1058
v  9.15774 -0.130001 8.90088
v  16.9724 -0.130001 6.79763
v  12.125 -0.130001 11.7849
v  14.1404 -0.130001 3.98788
v  16.0539 -1.23 -10.9825
v  13.6631 -1.23 -5.10577
v  11.9907 -1.23 -6.79624
v  19.4497 -1.23 -18.5993
v  13.9961 -1.23 -12.9795
v  23.3322 -1.23 -6.91022
v  27.2873 -1.23 -10.9817
v  4.9109 -1.23 -5.05202
v  9.15771 -1.23 8.90091
v  0 -1.23 -7.53158e-17
v  14.1403 -1.23 3.98791
v  5.62665 -1.23 -4.35546
v  6.24984 -1.23 -4.9974
v  10.0104 -1.23 -1.27011
v  24.0488 -1.23 -6.21365
v  13.6635 15.5497 -5.1063
v  11.9911 15.5497 -6.79677
v  10.0107 15.5497 -1.27064
v  11.9912 18.6766 -6.79687
v  9.93426 18.6766 -8.79282
v  9.89226 18.6766 -8.75059
v  6.7613 18.6766 -5.52445
v  6.25026 18.6766 -4.99803
v  10.0108 18.6766 -1.27074
v  12.1251 3.86146 11.7848
v  9.15782 3.86146 8.90075
v  16.9725 3.86146 6.7975
v  14.1404 3.86146 3.98775
v  5.62701 15.5497 -4.35599
v  6.2502 15.5497 -4.99793
v  4.91125 15.5497 -5.05255
v  0.000356972 15.5497 -0.00053209
v  9.15807 15.5497 8.90038
v  14.1407 15.5497 3.98738
v  24.0492 15.5497 -6.21418
v  23.3325 15.5497 -6.91076
v  27.2876 15.5497 -10.9822
v  19.4501 15.5497 -18.5999
v  13.9965 15.5497 -12.9801
v  16.0543 15.5497 -10.983
v  13.6636 18.6766 -5.1064

# 0 UV coordinates

# 51 vertex normals
vn 8.05319e-20 -1 -6.11542e-17
vn -6.08232e-24 -1 -6.12324e-17
vn -1.41611e-23 -1 -6.12324e-17
vn 4.69946e-24 -1 -6.12323e-17
vn 8.40996e-24 -1 -6.12323e-17
vn 0 -1 0
vn -0.710893 3.74558e-05 0.7033
vn -0.710893 3.74154e-05 0.7033
vn -0.724159 -6.47805e-06 -0.689633
vn -0.724159 -6.4369e-06 -0.689633
vn 0.696395 -3.75827e-05 -0.717659
vn -0.70901 -7.26473e-06 -0.705199
vn -0.717613 -6.82217e-06 -0.696442
vn -0.717613 -6.80385e-06 -0.696442
vn -0.717509 -6.82778e-06 -0.696549
vn -0.70396 3.74751e-05 0.710239
vn -0.703961 3.7493e-05 0.710239
vn -0.696981 3.76084e-05 0.71709
vn -0.696981 3.77749e-05 0.71709
vn 0.717093 6.8708e-06 0.696978
vn 0.717093 7.00822e-06 0.696978
vn 0.704305 -3.72822e-05 -0.709898
vn 0.704305 -3.74918e-05 -0.709898
vn -0.702114 -7.52969e-06 -0.712065
vn -0.702114 -7.6549e-06 -0.712065
vn -0.71751 -6.8387e-06 -0.696548
vn -0.71751 -6.81832e-06 -0.696549
vn 0.69743 -3.75528e-05 -0.716653
vn 0.69743 -3.75724e-05 -0.716653
vn -0.717051 -6.8482e-06 -0.697021
vn -0.717051 -6.84307e-06 -0.697021
vn -0.696981 3.7557e-05 0.71709
vn -0.696981 3.75668e-05 0.71709
vn 0.702114 7.66742e-06 0.712065
vn 0.717336 6.84188e-06 0.696728
vn 0.696981 -3.75561e-05 -0.717089
vn 0.717281 6.84878e-06 0.696784
vn 0.696976 -3.75656e-05 -0.717094
vn 0.696976 -3.76488e-05 -0.717094
vn -0.717639 -6.8317e-06 -0.696415
vn -0.717639 -6.75014e-06 -0.696415
vn -0.696433 3.75214e-05 0.717621
vn -0.696434 3.75622e-05 0.717621
vn -0.717577 -6.83507e-06 -0.696479
vn -0.717577 -6.79549e-06 -0.696479
vn 0.70396 -3.7484e-05 -0.710239
vn 0.703961 -3.75055e-05 -0.710239
vn 0.724159 6.48801e-06 0.689633
vn 0.710893 -3.74011e-05 -0.7033
vn 0.710893 -3.74387e-05 -0.7033
vn 0 1 -0

# Mesh 'defaultobject' with 92 faces
g defaultobject
usemtl DefaultMaterial
f  1//1 2//1 3//1
f  2//1 1//1 4//2
f  2//1 4//2 5//3
f  5//3 4//2 6//4
f  6//4 4//2 7//5
f  8//6 9//6 10//6
f  9//6 8//6 11//6
f  12//6 13//6 14//6
f  15//6 12//6 16//6
f  12//6 15//6 17//6
f  17//6 15//6 18//6
f  19//6 20//6 21//6
f  20//6 19//6 22//6
f  22//6 19//6 23//6
f  22//6 23//6 24//6
f  22//6 24//6 25//6
f  22//6 25//6 13//6
f  22//6 13//6 26//6
f  26//6 13//6 12//6
f  26//6 12//6 17//6
f  27//7 14//7 13//7
f  14//7 27//7 28//8
f  29//9 13//9 25//9
f  13//9 29//9 27//10
f  1//11 30//11 4//11
f  30//11 1//11 31//11
f  32//12 1//12 3//12
f  1//12 32//12 31//12
f  33//13 3//13 2//13
f  3//13 33//13 32//14
f  34//15 2//15 5//15
f  2//15 34//15 33//15
f  35//16 5//16 6//16
f  5//16 35//16 34//17
f  36//18 8//18 10//18
f  8//18 36//18 37//19
f  9//20 36//20 10//20
f  36//20 9//20 38//21
f  11//22 38//22 9//22
f  38//22 11//22 39//23
f  37//24 11//24 8//24
f  11//24 37//24 39//25
f  40//26 24//26 23//26
f  24//26 40//26 41//27
f  19//28 40//28 23//28
f  40//28 19//28 42//29
f  43//30 19//30 21//30
f  19//30 43//30 42//31
f  44//32 21//32 20//32
f  21//32 44//32 43//33
f  22//34 44//34 20//34
f  44//34 22//34 45//34
f  26//35 45//35 22//35
f  45//35 26//35 46//35
f  17//36 46//36 26//36
f  46//36 17//36 47//36
f  18//37 47//37 17//37
f  47//37 18//37 48//37
f  15//38 48//38 18//38
f  48//38 15//38 49//39
f  50//40 15//40 16//40
f  15//40 50//40 49//41
f  51//42 16//42 12//42
f  16//42 51//42 50//43
f  28//44 12//44 14//44
f  12//44 28//44 51//45
f  24//46 29//46 25//46
f  29//46 24//46 41//47
f  7//48 35//48 6//48
f  35//48 7//48 52//48
f  4//49 52//49 7//49
f  52//49 4//49 30//50
f  30//51 35//51 52//51
f  35//51 30//51 34//51
f  34//51 30//51 31//51
f  34//51 31//51 33//51
f  33//51 31//51 32//51
f  36//51 39//51 37//51
f  39//51 36//51 38//51
f  43//51 40//51 42//51
f  40//51 43//51 44//51
f  40//51 44//51 29//51
f  29//51 44//51 47//51
f  29//51 47//51 48//51
f  47//51 44//51 46//51
f  46//51 44//51 45//51
f  50//51 48//51 49//51
f  48//51 50//51 51//51
f  48//51 51//51 28//51
f  48//51 28//51 27//51
f  48//51 27//51 29//51
f  29//51 41//51 40//51

