# {"id":"BLDG_0003000000212b70","idOriginal":"BLDG_0003000000212b70","origin":[13.395186161159673,52.56091650378489],"elevation":42.3300018310547}
# Longitude: 13.395186161159673
# Latitude: 52.56091650378489
# Elevation: 42.3300018310547

# File produced by Open Asset Import Library (http://www.assimp.sf.net)
# (assimp v3.1.0)

mtllib BLDG_0003000000212b70.obj.mtl

# 10 vertex positions
v  0 0 0
v  16.3628 -3.05269e-16 4.98542
v  4.30516 -6.22819e-16 10.1714
v  12.0576 3.1755e-16 -5.18598
v  4.30553 17.6142 10.1708
v  0.000376217 17.6142 -0.0005585
v  2.15307 22.8401 5.08498
v  12.058 17.6142 -5.18654
v  16.3631 17.6142 4.98486
v  14.2107 22.8401 -0.101005

# 0 UV coordinates

# 15 vertex normals
vn 1.46071e-24 -1 -6.12323e-17
vn -1.46071e-24 -1 -6.12323e-17
vn -0.920906 3.20155e-05 0.389784
vn -0.920906 3.20284e-05 0.389784
vn -0.920906 3.20204e-05 0.389784
vn -0.395105 -2.06886e-05 -0.918636
vn -0.395105 -2.06927e-05 -0.918636
vn 0.920906 -3.20012e-05 -0.389784
vn 0.920906 -3.20117e-05 -0.389784
vn 0.920906 -3.21856e-05 -0.389784
vn 0.395105 2.06413e-05 0.918636
vn 0.395105 2.07073e-05 0.918636
vn -0.271574 0.72633 -0.631421
vn 0.271569 0.726343 0.631408
vn 0.271569 0.726343 0.631408

# Mesh 'defaultobject' with 16 faces
g defaultobject
usemtl DefaultMaterial
f  1//1 2//1 3//1
f  2//1 1//1 4//2
f  5//3 1//3 3//3
f  1//3 5//3 6//4
f  6//4 5//3 7//5
f  6//6 4//6 1//6
f  4//6 6//6 8//7
f  8//8 2//8 4//8
f  2//8 8//8 9//9
f  9//9 8//8 10//10
f  2//11 5//11 3//11
f  5//11 2//11 9//12
f  10//13 6//13 7//13
f  6//13 10//13 8//13
f  9//14 7//14 5//14
f  7//14 9//14 10//15

