# {"id":"BLDG_00030009007acd06","idOriginal":"BLDG_00030009007acd06","origin":[13.328224186629182,52.52435837371166],"elevation":32.86}
# Longitude: 13.328224186629182
# Latitude: 52.52435837371166
# Elevation: 32.86

# File produced by Open Asset Import Library (http://www.assimp.sf.net)
# (assimp v3.1.0)

mtllib BLDG_00030009007acd06.obj.mtl

# 8 vertex positions
v  26.1559 19.98 -68.2491
v  0.000493149 23.19 -0.00073357
v  6.52511 19.98 2.01951
v  19.577 23.19 -70.0751
v  19.5765 4.29082e-15 -70.0743
v  6.52469 -1.23698e-16 2.02014
v  0 0 0
v  26.1554 4.17902e-15 -68.2485

# 0 UV coordinates

# 12 vertex normals
vn 0.409783 0.904971 0.11448
vn 0.409783 0.904971 0.11448
vn 5.45636e-23 -1 -6.12323e-17
vn -5.44128e-23 -1 -6.12323e-17
vn -0.963122 1.197e-05 -0.269065
vn -0.963122 1.19303e-05 -0.269065
vn 0.26742 -3.6447e-05 -0.96358
vn 0.267421 -3.62068e-05 -0.96358
vn 0.963122 -1.19749e-05 0.269065
vn 0.963122 -1.18911e-05 0.269065
vn -0.295763 3.65108e-05 0.955261
vn -0.295763 3.65065e-05 0.955261

# Mesh 'defaultobject' with 12 faces
g defaultobject
usemtl DefaultMaterial
f  1//1 2//1 3//1
f  2//1 1//1 4//2
f  5//3 6//3 7//3
f  6//3 5//3 8//4
f  2//5 5//5 7//5
f  5//5 2//5 4//6
f  4//7 8//7 5//7
f  8//7 4//7 1//8
f  8//9 3//9 6//9
f  3//9 8//9 1//10
f  6//11 2//11 7//11
f  2//11 6//11 3//12

