# {"id":"BLDG_0003000800251e66","idOriginal":"BLDG_0003000800251e66","origin":[13.338222996442465,52.54839264573959],"elevation":35.4099998474121}
# Longitude: 13.338222996442465
# Latitude: 52.54839264573959
# Elevation: 35.4099998474121

# File produced by Open Asset Import Library (http://www.assimp.sf.net)
# (assimp v3.1.0)

mtllib BLDG_0003000800251e66.obj.mtl

# 22 vertex positions
v  3.30516 0.209999 -8.38449
v  5.78882 3.65688 -5.7067
v  5.78875 0.209999 -5.70659
v  3.30528 5.84851 -8.38467
v  3.11763 3.60016 -3.00372
v  3.11756 0.209999 -3.00361
v  4.87867 3.67819 5.03136
v  0 0 0
v  4.87859 -3.08089e-16 5.03147
v  7.8274e-05 3.67819 -0.00011653
v  3.11755 1.83918e-16 -3.00361
v  3.11762 3.17217 -3.00371
v  7.99621 3.17217 2.02776
v  7.99614 -1.24171e-16 2.02787
v  0.0266817 3.59928 -0.0257468
v  0.0266096 0.209999 -0.0256394
v  -2.55349 0.209999 -2.74384
v  -2.55337 5.84851 -2.74402
v  -5.11757 0.209999 -5.44518
v  -5.1175 3.61324 -5.44528
v  0.772116 0.209999 -11.1157
v  0.772188 3.61324 -11.1158

# 0 UV coordinates

# 30 vertex normals
vn 0.733206 -3.71574e-05 -0.680006
vn 0.733206 -3.72095e-05 -0.680006
vn 0.711276 7.18037e-06 0.702912
vn 0.711277 7.31704e-06 0.702912
vn -0.71793 3.73734e-05 0.696115
vn -0.71793 3.73318e-05 0.696115
vn -0.693824 -8.05014e-06 -0.720145
vn -0.693824 -8.0833e-06 -0.720145
vn 0.71793 -3.73206e-05 -0.696115
vn 0.693824 8.14536e-06 0.720145
vn 0.693824 8.05577e-06 0.720145
vn 0.693824 8.06354e-06 0.720145
vn 0.693824 8.06144e-06 0.720145
vn -0.725292 3.72477e-05 0.688441
vn -0.725292 3.72586e-05 0.688441
vn -0.725292 3.72586e-05 0.688441
vn -0.725292 3.71448e-05 0.688441
vn -0.693577 -8.13723e-06 -0.720383
vn -0.693577 -8.0522e-06 -0.720383
vn 0.733206 -3.72323e-05 -0.680006
vn 0.733206 -3.71625e-05 -0.680007
vn 0 -1 -6.12323e-17
vn -3.48984e-24 -1 -6.12323e-17
vn 0 -1 0
vn 0.0833515 0.993238 -0.0808188
vn -0.356919 0.857427 -0.370713
vn -0.356919 0.857427 -0.370714
vn 0.356916 0.857429 0.370711
vn 0.356916 0.857429 0.370711
vn 0.356916 0.857429 0.370711

# Mesh 'defaultobject' with 36 faces
g defaultobject
usemtl DefaultMaterial
f  1//1 2//1 3//1
f  2//1 1//1 4//2
f  3//3 5//3 6//3
f  5//3 3//3 2//4
f  7//5 8//5 9//5
f  8//5 7//5 10//6
f  10//7 11//7 8//7
f  11//7 10//7 12//8
f  11//9 13//9 14//9
f  13//9 11//9 12//9
f  14//10 7//10 9//10
f  7//10 14//10 13//11
f  6//12 15//12 16//12
f  15//12 6//12 5//13
f  15//14 17//14 16//14
f  17//14 15//14 18//15
f  18//15 19//16 17//14
f  19//16 18//15 20//17
f  20//18 21//18 19//18
f  21//18 20//18 22//19
f  21//20 4//2 1//1
f  4//2 21//20 22//21
f  11//22 9//22 8//22
f  9//22 11//22 14//23
f  17//24 6//24 16//24
f  6//24 17//24 3//24
f  3//24 17//24 1//24
f  1//24 17//24 19//24
f  1//24 19//24 21//24
f  12//25 7//25 13//25
f  7//25 12//25 10//25
f  4//26 20//26 18//26
f  20//26 4//26 22//27
f  5//28 18//28 15//28
f  18//28 5//28 2//29
f  18//28 2//29 4//30

