# {"id":"BLDG_00030000001abddd","idOriginal":"BLDG_00030000001abddd","origin":[13.339650137794925,52.54877385502505],"elevation":35.0499992370605}
# Longitude: 13.339650137794925
# Latitude: 52.54877385502505
# Elevation: 35.0499992370605

# File produced by Open Asset Import Library (http://www.assimp.sf.net)
# (assimp v3.1.0)

mtllib BLDG_00030000001abddd.obj.mtl

# 8 vertex positions
v  0 0 0
v  7.61314 -2.97008e-16 4.8505
v  4.25092 -4.23751e-16 6.92037
v  3.40205 1.30186e-16 -2.1261
v  4.25098 2.82304 6.92028
v  6.0081e-05 2.82304 -8.94396e-05
v  7.6132 2.82304 4.85041
v  3.40211 2.82304 -2.12619

# 0 UV coordinates

# 11 vertex normals
vn -6.60368e-24 -1 -6.12323e-17
vn 0 -1 -6.12323e-17
vn -0.852085 3.47552e-05 0.523403
vn -0.852085 3.47169e-05 0.523403
vn 0.524247 1.58716e-05 0.851566
vn 0.524247 1.57432e-05 0.851566
vn 0.856129 -3.44907e-05 -0.516762
vn 0.856129 -3.45736e-05 -0.516762
vn -0.529967 -1.5588e-05 -0.848018
vn -0.529967 -1.55781e-05 -0.848018
vn -0 1 0

# Mesh 'defaultobject' with 12 faces
g defaultobject
usemtl DefaultMaterial
f  1//1 2//1 3//1
f  2//1 1//1 4//2
f  5//3 1//3 3//3
f  1//3 5//3 6//4
f  2//5 5//5 3//5
f  5//5 2//5 7//6
f  4//7 7//7 2//7
f  7//7 4//7 8//8
f  6//9 4//9 1//9
f  4//9 6//9 8//10
f  6//11 7//11 8//11
f  7//11 6//11 5//11

