# {"id":"BLDG_0003000f00082149","idOriginal":"BLDG_0003000f00082149","origin":[13.340393917711454,52.52333114061615],"elevation":34.75}
# Longitude: 13.340393917711454
# Latitude: 52.52333114061615
# Elevation: 34.75

# File produced by Open Asset Import Library (http://www.assimp.sf.net)
# (assimp v3.1.0)

mtllib BLDG_0003000f00082149.obj.mtl

# 34 vertex positions
v  32.0426 27.3281 1.08762
v  30.766 3.38771e-16 -5.53256
v  30.7666 27.3281 -5.53342
v  33.2948 27.3281 7.58497
v  34.5468 21.0812 14.0825
v  34.5464 -8.62347e-16 14.0832
v  32.042 -6.66503e-17 1.08848
v  33.2942 -4.64498e-16 7.58584
v  5.20412 27.33 15.8948
v  3.15441 27.3281 9.63341
v  7.25369 21.08 22.1565
v  3.15441 27.33 9.63341
v  5.20353 -9.73331e-16 15.8957
v  7.25324 -1.35673e-15 22.1571
v  3.15383 -5.89929e-16 9.63428
v  0 0 0
v  0.000581599 27.3281 -0.000864389
v  29.2079 21.0812 15.6619
v  12.8667 21.0812 20.496
v  12.8667 21.08 20.496
v  29.2074 -9.59055e-16 15.6626
v  12.8662 -1.25506e-15 20.4967
v  10.8171 27.33 14.2344
v  10.8171 27.3281 14.2344
v  8.76726 21.0812 7.97316
v  26.7036 21.0812 2.66719
v  25.3118 2.78713e-16 -4.55173
v  26.7031 -1.63359e-16 2.66785
v  25.3122 21.0812 -4.5524
v  5.81427 6.40222e-17 -1.04556
v  5.81472 21.0812 -1.04623
v  8.76681 -4.88256e-16 7.97383
v  8.76726 21.08 7.97316
v  27.9559 27.3281 9.16434

# 0 UV coordinates

# 60 vertex normals
vn 0.981931 -2.68863e-05 -0.189238
vn 0.981931 -2.68127e-05 -0.189238
vn 0.981931 -2.68617e-05 -0.189238
vn 0.981931 -2.69391e-05 -0.189238
vn 0 1 6.66134e-17
vn -3.17207e-17 -1 -5.15461e-17
vn -0.950374 3.00064e-05 0.311109
vn -0.950374 0 0.311109
vn -0.950374 3.00603e-05 0.31111
vn -0.950374 3.00626e-05 0.31111
vn -0.950374 3.00791e-05 0.311109
vn -0.950374 3.00664e-05 0.31111
vn 0.283671 2.4262e-05 0.958922
vn 0.283671 2.43164e-05 0.958922
vn 0.283591 0 0.958945
vn 0.283671 2.41142e-05 0.958922
vn 0.283671 2.42471e-05 0.958922
vn 0.283671 2.42753e-05 0.958922
vn 0.283671 2.43384e-05 0.958922
vn 0.950365 0 -0.311137
vn 0.950383 0 -0.311082
vn -0.981931 2.68639e-05 0.189238
vn -0.981931 2.68661e-05 0.189238
vn -0.176988 -2.73815e-05 -0.984213
vn -0.176988 -2.73673e-05 -0.984213
vn -0.176988 -2.7364e-05 -0.984213
vn -0.176988 -2.73608e-05 -0.984213
vn 0.950374 -3.00678e-05 -0.31111
vn 0.950374 -3.00533e-05 -0.31111
vn 0.950374 0 -0.31111
vn -0.283671 -2.43142e-05 -0.958922
vn -0.283671 -2.4302e-05 -0.958922
vn -0.283671 0 -0.958922
vn 5.77527e-24 -1 -6.12323e-17
vn 0 -1 -6.12323e-17
vn -6.59193e-23 -1 -6.12325e-17
vn 0 -1 -6.12323e-17
vn 4.26937e-24 -1 -6.12323e-17
vn -4.16334e-17 1 -1.11022e-16
vn -0.242536 0 -0.970143
vn 7.62705e-24 -1 -6.12323e-17
vn 0 -1 -6.12323e-17
vn -2.59876e-24 -1 -6.12323e-17
vn -0.734567 0.663604 0.141566
vn -0.734567 0.663604 0.141566
vn -0.734567 0.663604 0.141566
vn -0.195226 0.72551 -0.659941
vn -0.195226 0.72551 -0.659941
vn -0.195226 0.72551 -0.659941
vn 0.195221 0.725526 0.659925
vn 0.195221 0.725526 0.659925
vn 0.195221 0.725526 0.659925
vn 0.195221 0.725526 0.659925
vn 0.693648 0.683588 -0.227069
vn 0.693648 0.683588 -0.227069
vn 0.693747 0.683477 -0.227101
vn -0.195257 0.725405 -0.660047
vn 0.195252 0.725421 0.660031
vn 0.195135 0.725356 0.660137
vn 0.283671 0 0.958922

# Mesh 'defaultobject' with 63 faces
g defaultobject
usemtl DefaultMaterial
f  1//1 2//1 3//1
f  2//1 1//1 4//2
f  2//1 4//2 5//3
f  2//1 5//3 6//4
f  2//5 6//5 7//5
f  7//6 6//6 8//6
f  9//7 10//7 11//7
f  10//8 9//8 12//8
f  11//7 13//9 14//9
f  13//9 11//7 15//10
f  15//10 11//7 16//11
f  16//11 11//7 17//12
f  17//12 11//7 10//7
f  18//13 6//13 5//13
f  6//13 18//13 19//14
f  6//15 19//15 20//15
f  6//13 20//16 11//16
f  6//13 11//16 21//17
f  21//17 11//16 22//18
f  22//18 11//16 14//19
f  23//20 24//20 25//20
f  24//21 23//21 19//21
f  26//22 27//22 28//22
f  27//22 26//22 29//23
f  29//24 2//24 27//24
f  2//24 29//24 3//25
f  17//26 30//26 16//26
f  30//26 17//26 31//27
f  31//28 32//28 30//28
f  32//28 31//28 33//29
f  33//30 31//30 25//30
f  33//31 28//31 32//31
f  28//31 33//31 26//32
f  26//33 33//33 25//33
f  21//34 8//6 6//6
f  8//6 21//34 22//35
f  8//6 22//35 14//36
f  8//6 14//36 13//37
f  8//6 13//37 7//6
f  7//6 13//37 15//38
f  7//5 15//39 28//39
f  28//40 15//40 32//40
f  32//41 15//38 30//41
f  30//41 15//38 16//37
f  28//42 2//42 7//6
f  2//42 28//42 27//43
f  29//44 1//44 3//44
f  1//44 29//44 4//45
f  4//45 29//44 26//46
f  26//47 34//47 4//47
f  34//47 26//47 24//48
f  24//48 26//47 25//49
f  4//50 18//50 5//50
f  18//50 4//50 19//51
f  19//51 4//50 34//52
f  19//51 34//52 24//53
f  31//54 10//54 25//54
f  10//54 31//54 17//55
f  9//56 25//56 12//56
f  9//57 23//57 25//57
f  9//58 19//58 23//58
f  19//59 9//59 11//59
f  19//60 11//60 20//60

