# {"id":"BLDG_0003000800251de4","idOriginal":"BLDG_0003000800251de4","origin":[13.34082738314919,52.54707587504302],"elevation":34.1300010681152}
# Longitude: 13.34082738314919
# Latitude: 52.54707587504302
# Elevation: 34.1300010681152

# File produced by Open Asset Import Library (http://www.assimp.sf.net)
# (assimp v3.1.0)

mtllib BLDG_0003000800251de4.obj.mtl

# 12 vertex positions
v  5.26432 6.30634 6.86446
v  9.68948 10.1081 -1.90918
v  2.63574 10.1081 3.43649
v  12.3215 6.30634 1.5162
v  7.06419 6.31627 -5.32537
v  0.000134013 6.29642 -0.00019947
v  7.06405 3.26073e-16 -5.32517
v  2.63552 -2.10444e-16 3.43681
v  0 0 0
v  9.68927 1.16884e-16 -1.90886
v  5.26418 -4.20339e-16 6.86466
v  12.3214 -9.28527e-17 1.5164

# 0 UV coordinates

# 19 vertex normals
vn 0.399044 0.750674 0.526548
vn 0.399044 0.750673 0.526548
vn -0.399049 0.750666 -0.526555
vn -0.399049 0.750666 -0.526555
vn -5.52715e-24 -1 -6.12324e-17
vn -5.5534e-24 -1 -6.12323e-17
vn 0 -1 -6.12323e-17
vn -5.5362e-24 -1 -6.12323e-17
vn -0.601961 -1.2485e-05 -0.798526
vn -0.601961 -1.24435e-05 -0.798526
vn 0.792929 -3.61975e-05 -0.609314
vn 0.792929 -3.61656e-05 -0.609314
vn 0.792929 -3.60929e-05 -0.609314
vn 0.603996 1.23647e-05 0.796988
vn 0.603996 1.2433e-05 0.796988
vn -0.793535 3.61533e-05 0.608524
vn -0.793535 3.61776e-05 0.608524
vn -0.793535 3.61776e-05 0.608524
vn -0.793535 3.61676e-05 0.608524

# Mesh 'defaultobject' with 20 faces
g defaultobject
usemtl DefaultMaterial
f  1//1 2//1 3//1
f  2//1 1//1 4//2
f  3//3 5//3 6//3
f  5//3 3//3 2//4
f  7//5 8//5 9//5
f  8//5 7//5 10//6
f  8//5 10//6 11//7
f  11//7 10//6 12//8
f  6//9 7//9 9//9
f  7//9 6//9 5//10
f  7//11 2//11 10//11
f  2//11 7//11 5//12
f  10//11 4//13 12//13
f  4//13 10//11 2//11
f  12//14 1//14 11//14
f  1//14 12//14 4//15
f  1//16 8//16 11//16
f  8//16 1//16 3//17
f  3//17 9//18 8//16
f  9//18 3//17 6//19

