# {"id":"BLDG_0003000f0003f315","idOriginal":"BLDG_0003000f0003f315","origin":[13.372311161831353,52.53057173144321],"elevation":35.0699996948242}
# Longitude: 13.372311161831353
# Latitude: 52.53057173144321
# Elevation: 35.0699996948242

# File produced by Open Asset Import Library (http://www.assimp.sf.net)
# (assimp v3.1.0)

mtllib BLDG_0003000f0003f315.obj.mtl

# 10 vertex positions
v  0 0 0
v  81.9934 1.73065e-15 -28.2636
v  7.83029 -8.47436e-16 13.8397
v  74.1632 2.57808e-15 -42.1033
v  7.83051 10.4258 13.8394
v  0.000222341 10.4258 -0.00032991
v  74.1634 10.4258 -42.1036
v  81.9937 10.4258 -28.2639
v  71.1645 17.4967 -31.2588
v  10.8297 17.4967 2.99405

# 0 UV coordinates

# 15 vertex normals
vn 0 -1 -6.12323e-17
vn 0 -1 -6.12323e-17
vn -0.870351 3.41749e-05 0.492432
vn -0.870351 3.41434e-05 0.492432
vn -0.4937 -1.69896e-05 -0.869632
vn -0.4937 -1.72054e-05 -0.869632
vn 0.870351 -3.4055e-05 -0.492432
vn 0.870351 -3.4147e-05 -0.492432
vn 0.4937 1.70243e-05 0.869632
vn 0.578409 0.747226 -0.327255
vn -0.328096 0.747231 -0.577927
vn -0.328096 0.747231 -0.577927
vn 0.32809 0.747241 0.577917
vn 0.32809 0.747241 0.577917
vn -0.578389 0.747247 0.327244

# Mesh 'defaultobject' with 16 faces
g defaultobject
usemtl DefaultMaterial
f  1//1 2//1 3//1
f  2//1 1//1 4//2
f  5//3 1//3 3//3
f  1//3 5//3 6//4
f  6//5 4//5 1//5
f  4//5 6//5 7//6
f  4//7 8//7 2//7
f  8//7 4//7 7//8
f  2//9 5//9 3//9
f  5//9 2//9 8//9
f  9//10 8//10 7//10
f  9//11 6//11 10//11
f  6//11 9//11 7//12
f  9//13 5//13 8//13
f  5//13 9//13 10//14
f  6//15 5//15 10//15

