# {"id":"BLDG_0003000f0024a2ba","idOriginal":"BLDG_0003000f0024a2ba","origin":[13.390026390294034,52.54641713831225],"elevation":48.4300003051758}
# Longitude: 13.390026390294034
# Latitude: 52.54641713831225
# Elevation: 48.4300003051758

# File produced by Open Asset Import Library (http://www.assimp.sf.net)
# (assimp v3.1.0)

mtllib BLDG_0003000f0024a2ba.obj.mtl

# 26 vertex positions
v  14.8234 1.00073e-16 -1.63432
v  16.9244 -5.59855e-16 9.14312
v  12.3183 3.13496e-17 -0.511977
v  19.161 -4.99855e-16 8.16325
v  1.96797 -2.52592e-16 4.12515
v  10.3503 2.83942e-16 -4.63712
v  0 0 0
v  6.53363 -8.38601e-16 13.6954
v  8.07796 -1.03682e-15 16.9325
v  18.4687 -7.58071e-16 12.3802
v  12.3187 20.7827 -0.512636
v  6.53408 20.7827 13.6947
v  16.9249 20.7827 9.14246
v  1.96842 20.7827 4.12449
v  11.7295 20.9263 11.4186
v  8.0784 20.7827 16.9319
v  13.2738 20.9263 14.6557
v  18.4692 20.7827 12.3796
v  14.8239 20.7827 -1.63498
v  16.9249 20.9263 9.14246
v  19.1615 20.7827 8.16259
v  12.3187 20.9263 -0.51264
v  5.17561 20.9263 -2.31922
v  7.14358 20.9263 1.80592
v  0.000443728 20.7827 -0.00065833
v  10.3508 20.7827 -4.63778

# 0 UV coordinates

# 37 vertex normals
vn 3.60662e-24 -1 -6.12323e-17
vn 1.82106e-23 -1 -6.12323e-17
vn 0 -1 -6.12323e-17
vn 4.08624e-24 -1 -6.12323e-17
vn 0 -1 -6.12323e-17
vn -5.20721e-24 -1 -6.12323e-17
vn 0 1 -0
vn -0.0228641 0.999679 0.0109077
vn 0.0228641 0.999679 -0.0109077
vn 0.0228641 0.999679 -0.0109077
vn 0.0537045 0.998274 -0.0237763
vn 0.0471839 0.998633 -0.0225099
vn -0.0228641 0.999679 0.0109077
vn 0.0228641 0.999679 -0.0109077
vn -0.902553 3.82575e-05 0.430579
vn -0.902553 3.17301e-05 0.430579
vn -0.40886 -2.01712e-05 -0.912597
vn -0.40886 -2.01815e-05 -0.912597
vn 0.914394 -3.23941e-05 -0.404824
vn 0.914394 -3.23256e-05 -0.404824
vn 0.401286 2.04504e-05 0.915953
vn 0.401286 2.04649e-05 0.915953
vn 0.40886 2.22417e-05 0.912597
vn -0.902553 3.29121e-05 0.430579
vn -0.902553 3.29097e-05 0.430579
vn -0.40886 -2.01787e-05 -0.912597
vn -0.40886 -2.01733e-05 -0.912597
vn -0.40886 -2.10711e-05 -0.912597
vn 0.902553 -3.29411e-05 -0.430579
vn 0.902553 -3.29511e-05 -0.430579
vn -0.902553 3.28919e-05 0.430579
vn 0.401286 2.04573e-05 0.915953
vn 0.401286 2.04389e-05 0.915953
vn 0.401286 2.10662e-05 0.915953
vn -0.902553 3.28919e-05 0.430579
vn -0.401286 -2.34069e-05 -0.915953
vn 0.902553 -3.28491e-05 -0.430579

# Mesh 'defaultobject' with 46 faces
g defaultobject
usemtl DefaultMaterial
f  1//1 2//1 3//1
f  2//1 1//1 4//2
f  5//3 6//3 3//1
f  6//3 5//3 7//4
f  3//1 8//5 5//3
f  8//5 3//1 2//1
f  9//6 2//1 10//6
f  2//1 9//6 8//5
f  11//7 12//7 13//7
f  12//7 11//7 14//7
f  15//8 16//8 17//8
f  16//8 15//8 12//8
f  13//9 17//9 18//9
f  17//9 13//9 15//10
f  19//11 20//11 21//11
f  20//12 19//12 22//12
f  23//13 14//13 24//13
f  14//13 23//13 25//13
f  26//14 24//14 11//14
f  24//14 26//14 23//14
f  20//15 11//15 13//15
f  11//15 20//15 22//16
f  22//17 1//17 3//17
f  1//17 22//17 19//18
f  1//19 21//19 4//19
f  21//19 1//19 19//20
f  4//21 20//21 2//21
f  20//21 4//21 21//22
f  14//23 11//23 24//23
f  14//24 7//24 5//24
f  7//24 14//24 25//25
f  25//26 6//26 7//26
f  6//26 25//26 26//27
f  26//27 25//26 23//28
f  6//29 11//29 3//29
f  11//29 6//29 26//30
f  12//31 5//24 8//31
f  5//24 12//31 14//24
f  18//32 9//32 10//32
f  9//32 18//32 16//33
f  16//33 18//32 17//34
f  16//35 8//31 9//35
f  8//31 16//35 12//31
f  13//36 12//36 15//36
f  2//37 18//37 10//37
f  18//37 2//37 13//37

