# {"id":"BLDG_00030009006100ce","idOriginal":"BLDG_00030009006100ce","origin":[13.377356187206031,52.54418463205777],"elevation":40.9799995422363}
# Longitude: 13.377356187206031
# Latitude: 52.54418463205777
# Elevation: 40.9799995422363

# File produced by Open Asset Import Library (http://www.assimp.sf.net)
# (assimp v3.1.0)

mtllib BLDG_00030009006100ce.obj.mtl

# 26 vertex positions
v  0 0 0
v  1.72053 -8.22126e-17 1.34263
v  1.51168 -9.43983e-17 1.54164
v  5.75582 3.63413e-16 -5.93499
v  20.9719 3.84745e-16 -6.28336
v  7.37067 -4.33935e-16 7.0867
v  6.88588 4.31405e-16 -7.04538
v  8.61085 5.67708e-16 -9.27138
v  11.1578 5.73986e-16 -9.37391
v  9.79214 6.43478e-16 -10.5088
v  20.3841 4.19962e-16 -6.8585
v  14.4406 7.76313e-16 -12.6781
v  19.8011 4.54929e-16 -7.42955
v  1.51208 18.6142 1.54105
v  5.75622 18.6142 -5.93558
v  0.000397108 18.6142 -0.00058956
v  1.72093 18.6142 1.34204
v  7.37106 18.6142 7.08611
v  20.9723 18.6142 -6.28395
v  6.88627 18.6142 -7.04597
v  8.61125 18.6142 -9.27197
v  11.1582 18.6142 -9.3745
v  9.79254 18.6142 -10.5094
v  20.3845 18.6142 -6.85909
v  14.441 18.6142 -12.6787
v  19.8015 18.6142 -7.43014

# 0 UV coordinates

# 34 vertex normals
vn 0 -1 -6.12323e-17
vn -2.95104e-24 -1 -6.12323e-17
vn 0 -1 -6.12323e-17
vn -5.01256e-25 -1 -6.12323e-17
vn -8.10221e-25 -1 -6.12323e-17
vn 4.0943e-24 -1 -6.12324e-17
vn 2.76592e-23 -1 -6.12324e-17
vn -3.82638e-20 -1 -6.11933e-17
vn 0 1 0
vn -0.714011 3.74085e-05 0.700135
vn -0.714011 3.74075e-05 0.700135
vn 0.689844 8.21108e-06 0.723958
vn 0.689844 8.21524e-06 0.723958
vn -0.712912 3.74161e-05 0.701254
vn -0.712912 3.7425e-05 0.701254
vn 0.701021 7.5646e-06 0.71314
vn 0.701021 7.60758e-06 0.71314
vn 0.699391 -3.75562e-05 -0.714739
vn 0.699392 -3.76069e-05 -0.714738
vn 0.699771 -3.76029e-05 -0.714367
vn 0.69977 -3.75518e-05 -0.714368
vn 0.699609 -3.7574e-05 -0.714526
vn 0.699609 -3.76013e-05 -0.714526
vn -0.7094 -7.2324e-06 -0.704807
vn -0.709399 -7.15995e-06 -0.704807
vn 0.639143 -3.80038e-05 -0.769088
vn 0.639143 -3.8011e-05 -0.769088
vn -0.723318 -6.44713e-06 -0.690515
vn -0.723318 -6.41009e-06 -0.690515
vn -0.790445 -2.54277e-06 -0.612533
vn -0.790445 -2.54733e-06 -0.612533
vn -0.700876 -7.64668e-06 -0.713283
vn -0.717859 -6.73556e-06 -0.696188
vn -0.717859 -6.74257e-06 -0.696188

# Mesh 'defaultobject' with 48 faces
g defaultobject
usemtl DefaultMaterial
f  1//1 2//1 3//1
f  2//1 1//1 4//2
f  2//1 5//3 6//3
f  5//3 2//1 4//2
f  5//3 4//2 7//4
f  5//3 7//4 8//5
f  5//3 8//5 9//1
f  9//1 8//5 10//6
f  5//3 9//1 11//7
f  11//7 9//1 12//1
f  11//7 12//1 13//8
f  14//9 15//9 16//9
f  15//9 14//9 17//9
f  15//9 17//9 18//9
f  15//9 18//9 19//9
f  15//9 19//9 20//9
f  20//9 19//9 21//9
f  21//9 19//9 22//9
f  21//9 22//9 23//9
f  22//9 19//9 24//9
f  22//9 24//9 25//9
f  25//9 24//9 26//9
f  14//10 1//10 3//10
f  1//10 14//10 16//11
f  14//12 2//12 17//12
f  2//12 14//12 3//13
f  18//14 2//14 6//14
f  2//14 18//14 17//15
f  18//16 5//16 19//16
f  5//16 18//16 6//17
f  19//18 11//18 24//18
f  11//18 19//18 5//19
f  24//20 13//20 26//20
f  13//20 24//20 11//21
f  26//22 12//22 25//22
f  12//22 26//22 13//23
f  22//24 12//24 9//24
f  12//24 22//24 25//25
f  22//26 10//26 23//26
f  10//26 22//26 9//27
f  21//28 10//28 8//28
f  10//28 21//28 23//29
f  20//30 8//30 7//30
f  8//30 20//30 21//31
f  15//32 7//32 4//32
f  7//32 15//32 20//32
f  16//33 4//33 1//33
f  4//33 16//33 15//34

