# {"id":"BLDG_0003000f00302409","idOriginal":"BLDG_0003000f00302409","origin":[13.37928448900627,52.550731461093676],"elevation":39.7700004577637}
# Longitude: 13.37928448900627
# Latitude: 52.550731461093676
# Elevation: 39.7700004577637

# File produced by Open Asset Import Library (http://www.assimp.sf.net)
# (assimp v3.1.0)

mtllib BLDG_0003000f00302409.obj.mtl

# 10 vertex positions
v  0 0 0
v  18.226 -2.09476e-17 0.3421
v  9.03907 -5.73231e-16 9.36157
v  9.18694 5.52283e-16 -9.01947
v  9.03948 19.4734 9.36095
v  0.000415494 19.4734 -0.00061703
v  4.52 21.6482 4.6801
v  9.18735 19.4734 -9.02009
v  18.2264 19.4734 0.341483
v  13.7069 21.6482 -4.33937

# 0 UV coordinates

# 12 vertex normals
vn -7.89993e-26 -1 -6.12323e-17
vn -0.719389 3.73345e-05 0.694607
vn -0.71939 3.73584e-05 0.694607
vn -0.71939 3.74709e-05 0.694607
vn -0.700573 -7.6626e-06 -0.713581
vn -0.700573 -7.65142e-06 -0.713581
vn 0.71939 -3.73697e-05 -0.694607
vn 0.71939 -3.70665e-05 -0.694607
vn 0.700573 7.66869e-06 0.713581
vn 0.700573 7.63826e-06 0.713581
vn -0.222096 0.948418 -0.22622
vn 0.222095 0.948419 0.226219

# Mesh 'defaultobject' with 16 faces
g defaultobject
usemtl DefaultMaterial
f  1//1 2//1 3//1
f  2//1 1//1 4//1
f  5//2 1//2 3//2
f  1//2 5//2 6//3
f  6//3 5//2 7//4
f  6//5 4//5 1//5
f  4//5 6//5 8//6
f  8//7 2//7 4//7
f  2//7 8//7 9//7
f  9//7 8//7 10//8
f  2//9 5//9 3//9
f  5//9 2//9 9//10
f  10//11 6//11 7//11
f  6//11 10//11 8//11
f  9//12 7//12 5//12
f  7//12 9//12 10//12

