# {"id":"BLDG_0003000e00958561","idOriginal":"BLDG_0003000e00958561","origin":[13.336791277845036,52.527255047517706],"elevation":33.9700012207031}
# Longitude: 13.336791277845036
# Latitude: 52.527255047517706
# Elevation: 33.9700012207031

# File produced by Open Asset Import Library (http://www.assimp.sf.net)
# (assimp v3.1.0)

mtllib BLDG_0003000e00958561.obj.mtl

# 28 vertex positions
v  2.02353 -9.54774e-16 15.5926
v  1.38347 18.5633 19.2853
v  1.38308 -1.18092e-15 19.2859
v  2.77441 -6.89631e-16 11.2625
v  3.71095 -3.58932e-16 5.8618
v  4.57762 -1.2207e-06 0.863983
v  3.71134 18.5633 5.86121
v  4.57801 18.62 0.863394
v  3.71134 18.62 5.86121
v  2.024 22.5015 15.5919
v  2.7749 23.1786 11.2618
v  -3.19358 -1.12768e-15 18.4164
v  -16.0354 -9.78281e-16 15.9765
v  -3.19318 18.5633 18.4158
v  -16.0351 18.5633 15.9759
v  -13.6322 18.5633 2.56607
v  -15.3738 22.5015 12.2862
v  -14.5989 23.1786 7.96132
v  -13.6326 -1.57162e-16 2.56666
v  -14.5994 -4.87535e-16 7.96205
v  -15.3743 -7.52356e-16 12.2869
v  -0.865312 18.62 4.99168
v  -0.865313 18.5633 4.99168
v  0 -1.2207e-06 -7.47465e-23
v  -0.865708 -3.05688e-16 4.99227
v  0.000396186 18.62 -0.00058911
v  -2.55265 22.5015 14.7224
v  -1.80175 23.1786 10.3923

# 0 UV coordinates

# 47 vertex normals
vn 0.985295 -1.55559e-05 0.17086
vn 0.985295 -1.55592e-05 0.17086
vn 0.985295 -1.55772e-05 0.17086
vn 0.985295 -1.55973e-05 0.17086
vn 0.985295 -1.55354e-05 0.17086
vn 0.985295 -1.556e-05 0.17086
vn 0.985295 -1.4981e-05 0.17086
vn 0.985295 -1.55702e-05 0.17086
vn 0.985295 -1.55405e-05 0.17086
vn -0.186653 3.50614e-05 0.982426
vn -0.186653 3.50574e-05 0.982426
vn -0.186653 3.50689e-05 0.982426
vn -0.186653 3.50602e-05 0.982426
vn -0.984323 1.53845e-05 -0.176375
vn -0.984323 1.55092e-05 -0.176375
vn -0.984323 1.53555e-05 -0.176375
vn -0.984323 1.53538e-05 -0.176375
vn -1.11022e-16 -1 -8.32667e-17
vn -6.34413e-17 -1 -5.55112e-17
vn -0.186653 3.79437e-05 0.982426
vn -0.985295 1.55553e-05 -0.17086
vn -0.985295 1.55588e-05 -0.17086
vn -0.985295 1.49513e-05 -0.17086
vn 0.185466 -3.50359e-05 -0.982651
vn 0.185466 -3.50377e-05 -0.982651
vn 0.186653 -3.50475e-05 -0.982426
vn 0.186653 -3.50614e-05 -0.982426
vn -0.135207 0.689409 0.711642
vn -0.135207 0.689409 0.711642
vn -0.135207 0.689409 0.711642
vn -0.135217 0.689436 0.711614
vn -0.0284274 0.988334 0.149624
vn -0.0284306 0.988334 0.149623
vn -0.0284271 0.988331 0.149648
vn 0.120232 0.764901 -0.632827
vn 0.120214 0.764893 -0.632841
vn 0.120227 0.764925 -0.6328
vn 0.120227 0.764925 -0.6328
vn 0 1 0
vn -4.46384e-08 -1 2.36506e-07
vn 2.58217e-07 -1 4.47772e-08
vn -3.24318e-07 -1 1.88279e-07
vn -2.06892e-23 -1 -6.12323e-17
vn -4.85136e-23 -1 -6.12323e-17
vn 2.66943e-23 -1 -6.12323e-17
vn 8.88178e-17 1 7.77156e-17
vn 0 1 6.34413e-17

# Mesh 'defaultobject' with 52 faces
g defaultobject
usemtl DefaultMaterial
f  1//1 2//1 3//1
f  2//1 1//1 4//2
f  2//1 4//2 5//3
f  2//1 5//3 6//4
f  2//1 6//4 7//5
f  7//5 6//4 8//6
f  7//5 8//6 9//7
f  7//5 10//8 2//1
f  10//8 7//5 11//9
f  2//10 12//10 3//10
f  12//10 2//10 13//11
f  13//11 2//10 14//12
f  13//11 14//12 15//13
f  16//14 17//14 18//14
f  17//14 16//14 15//15
f  15//15 16//14 19//16
f  15//15 19//16 13//17
f  13//18 19//18 20//18
f  13//18 20//18 21//19
f  7//20 22//20 23//20
f  22//20 7//20 9//20
f  23//21 24//21 25//21
f  24//21 23//21 26//22
f  26//22 23//21 22//23
f  26//24 6//24 24//24
f  6//24 26//24 8//25
f  16//26 25//26 19//26
f  25//26 16//26 23//27
f  10//28 14//28 2//28
f  14//28 10//28 15//29
f  15//29 10//28 27//30
f  15//31 27//31 17//31
f  11//32 27//32 10//32
f  27//32 11//32 28//32
f  27//32 28//32 17//33
f  17//34 28//34 18//34
f  7//35 28//35 11//35
f  28//36 7//36 18//36
f  18//37 7//37 23//37
f  18//37 23//37 16//38
f  8//39 22//39 9//39
f  22//39 8//39 26//39
f  5//40 24//40 6//40
f  24//40 5//40 4//41
f  24//40 4//41 25//42
f  25//42 4//41 1//43
f  25//42 1//43 3//44
f  25//42 3//44 19//18
f  19//18 3//44 12//45
f  19//18 12//45 13//18
f  19//46 13//46 20//46
f  20//46 13//46 21//47

