# {"id":"BLDG_0003000b002c59a1","idOriginal":"BLDG_0003000b002c59a1","origin":[13.398156184253278,52.52971220983441],"elevation":35.9900016784668}
# Longitude: 13.398156184253278
# Latitude: 52.52971220983441
# Elevation: 35.9900016784668

# File produced by Open Asset Import Library (http://www.assimp.sf.net)
# (assimp v3.1.0)

mtllib BLDG_0003000b002c59a1.obj.mtl

# 10 vertex positions
v  18.4275 20.1233 -1.22615
v  0.745354 23.6537 6.62459
v  19.1724 23.6537 5.39907
v  0.000429855 20.1233 -0.000636719
v  1.49013 20.1233 13.25
v  19.9172 20.1233 12.0245
v  18.427 7.50411e-17 -1.22551
v  1.4897 -8.1137e-16 13.2507
v  0 0 0
v  19.9167 -7.36328e-16 12.0252

# 0 UV coordinates

# 14 vertex normals
vn -0.03108 0.883539 -0.467325
vn 0.0310793 0.883546 0.467313
vn -4.3041e-25 -1 -6.12323e-17
vn -2.15205e-24 -1 -6.12323e-17
vn -0.99374 2.47648e-05 0.111721
vn -0.99374 2.47623e-05 0.111721
vn -0.99374 2.47558e-05 0.111721
vn -0.0663597 -3.01537e-05 -0.997796
vn -0.0663597 -3.01549e-05 -0.997796
vn 0.99374 -2.47275e-05 -0.111721
vn 0.99374 -2.47242e-05 -0.111721
vn 0.99374 -2.47356e-05 -0.111721
vn 0.0663598 3.01732e-05 0.997796
vn 0.0663597 3.01219e-05 0.997796

# Mesh 'defaultobject' with 16 faces
g defaultobject
usemtl DefaultMaterial
f  1//1 2//1 3//1
f  2//1 1//1 4//1
f  3//2 5//2 6//2
f  5//2 3//2 2//2
f  7//3 8//3 9//3
f  8//3 7//3 10//4
f  5//5 9//5 8//5
f  9//5 5//5 4//6
f  4//6 5//5 2//7
f  4//8 7//8 9//8
f  7//8 4//8 1//9
f  1//10 10//10 7//10
f  10//10 1//10 6//11
f  6//11 1//10 3//12
f  10//13 5//13 8//13
f  5//13 10//13 6//14

