# {"id":"BLDG_00030002001a63e4","idOriginal":"BLDG_00030002001a63e4","origin":[13.351084127555508,52.52850699892863],"elevation":33.6300010681152}
# Longitude: 13.351084127555508
# Latitude: 52.52850699892863
# Elevation: 33.6300010681152

# File produced by Open Asset Import Library (http://www.assimp.sf.net)
# (assimp v3.1.0)

mtllib BLDG_00030002001a63e4.obj.mtl

# 8 vertex positions
v  0.915991 4.57169 8.06049
v  0 0 0
v  0.915894 -4.93572e-16 8.06064
v  9.7363e-05 4.57169 -0.00014466
v  7.06569 -4.6303e-16 7.56185
v  7.06579 4.57169 7.5617
v  6.28692 3.58009e-17 -0.584674
v  6.28702 4.57169 -0.584818

# 0 UV coordinates

# 11 vertex normals
vn -0.993607 2.47108e-05 0.112899
vn -0.993607 2.47332e-05 0.112899
vn 0.0808411 2.96763e-05 0.996727
vn 0.0808413 2.98792e-05 0.996727
vn 0.995462 -2.42031e-05 -0.0951617
vn 0.995462 -2.42796e-05 -0.0951616
vn -0.0925989 -2.95345e-05 -0.995703
vn -0.0925988 -2.95138e-05 -0.995703
vn 0 1 0
vn 7.33992e-24 -1 -6.12323e-17
vn 0 -1 -6.12323e-17

# Mesh 'defaultobject' with 12 faces
g defaultobject
usemtl DefaultMaterial
f  1//1 2//1 3//1
f  2//1 1//1 4//2
f  5//3 1//3 3//3
f  1//3 5//3 6//4
f  7//5 6//5 5//5
f  6//5 7//5 8//6
f  4//7 7//7 2//7
f  7//7 4//7 8//8
f  1//9 8//9 4//9
f  8//9 1//9 6//9
f  3//10 7//10 5//10
f  7//10 3//10 2//11

