# {"id":"BLDG_0003000e006105d1","idOriginal":"BLDG_0003000e006105d1","origin":[13.330440704488481,52.53061268455854],"elevation":34.2999992370605}
# Longitude: 13.330440704488481
# Latitude: 52.53061268455854
# Elevation: 34.2999992370605

# File produced by Open Asset Import Library (http://www.assimp.sf.net)
# (assimp v3.1.0)

mtllib BLDG_0003000e006105d1.obj.mtl

# 54 vertex positions
v  33.3337 -1.79666e-17 0.293416
v  20.727 -2.4292e-16 3.96719
v  21.6908 1.18489e-16 -1.93507
v  32.3054 -3.78619e-16 6.18332
v  35.3812 -4.1963e-17 0.685308
v  43.0497 -1.31838e-16 2.15307
v  29.5502 -1.3449e-15 21.9638
v  46.6866 -1.74463e-16 2.84919
v  45.6583 -5.35115e-16 8.7391
v  42.9157 -1.49696e-15 24.4472
v  31.5997 -1.36822e-15 22.3447
v  39.2751 -1.45554e-15 23.7708
v  8.58311 2.72111e-16 -4.44391
v  0 0 0
v  1.13355 3.5942e-16 -5.86977
v  7.61934 -8.92987e-17 1.45836
v  11.53 2.37574e-16 -3.87987
v  18.9616 1.50475e-16 -2.45744
v  5.01542 -1.06576e-15 17.4051
v  7.96491 -1.09931e-15 17.9531
v  18.1347 -1.21502e-15 19.8428
v  15.4031 -1.18394e-15 19.3352
v  32.3058 18.8513 6.18272
v  34.3533 21.2231 6.57454
v  35.3817 21.2231 0.684636
v  31.6002 21.2231 22.344
v  29.5506 18.8513 21.9632
v  42.0218 21.8678 8.04229
v  43.0502 21.8678 2.15238
v  39.2755 21.8678 23.7701
v  45.6587 18.8513 8.7385
v  46.687 18.8513 2.84859
v  42.9161 18.8513 24.4466
v  33.3342 20.785 0.292758
v  20.7274 18.8513 3.9666
v  21.6912 20.785 -1.93573
v  18.962 20.785 -2.4581
v  17.9983 20.785 3.44417
v  15.4036 20.785 19.3346
v  18.1351 18.8513 19.8422
v  7.61974 18.8513 1.45776
v  10.5667 20.785 2.02174
v  11.5304 20.785 -3.88053
v  7.96535 20.785 17.9525
v  5.01582 18.8513 17.4045
v  8.58356 20.785 -4.44457
v  0.000400949 18.8513 -0.000596561
v  1.13399 20.785 -5.87043
v  17.9983 20.78 3.44417
v  7.96535 20.78 17.9525
v  15.4036 20.78 19.3346
v  10.5667 20.78 2.02174
v  18.962 20.78 -2.4581
v  11.5304 20.78 -3.88053

# 0 UV coordinates

# 83 vertex normals
vn 7.4702e-25 -1 -6.12323e-17
vn 2.25356e-24 -1 -6.12323e-17
vn 0 -1 -6.12323e-17
vn -2.67293e-24 -1 -6.12323e-17
vn 0 -1 -6.12323e-17
vn 0 -1 -6.12324e-17
vn 9.76931e-25 -1 -6.12323e-17
vn -1.4803e-16 -1 7.21645e-16
vn 1.52656e-17 -1 -1.33227e-16
vn -1.16752e-24 -1 -6.12323e-17
vn 0 -1 -6.12323e-17
vn 0 -1 -6.12323e-17
vn -3.07243e-23 -1 -6.12324e-17
vn 5.09188e-24 -1 -6.12323e-17
vn 3.96508e-18 -1 -7.93016e-17
vn -0.739944 0.660146 -0.129191
vn -0.739945 0.660146 -0.129184
vn -0.739921 0.660173 -0.129187
vn -0.0810782 0.996607 -0.0141559
vn -0.0810769 0.996607 -0.0141571
vn -0.0810811 0.996607 -0.0141564
vn -0.0810827 0.996607 -0.0141559
vn 0.622214 0.775273 0.108636
vn 0.622214 0.775273 0.108636
vn 0.622214 0.775273 0.108636
vn 0.622185 0.775296 0.108642
vn -0.0578529 0.951469 0.302258
vn -0.0578529 0.951469 0.302258
vn -0.0578529 0.951469 0.302258
vn 0.563867 0.820717 0.092073
vn 0.563867 0.820717 0.0920731
vn 0.563867 0.820717 0.0920731
vn -0.534769 0.840474 -0.0873216
vn -0.534769 0.840474 -0.0873216
vn -0.534769 0.840474 -0.0873216
vn -0.0578529 0.951469 0.302258
vn -0.0578529 0.951469 0.302258
vn 0 1 0
vn -0.249659 0.932101 0.26241
vn 0.18799 -3.50732e-05 -0.982171
vn 0.18799 -3.5099e-05 -0.982171
vn 0.18799 -3.51879e-05 -0.982171
vn 0.18799 -3.50453e-05 -0.982171
vn 0.18799 -3.49556e-05 -0.982171
vn 0.18799 -3.50193e-05 -0.982171
vn 0.18799 -3.51182e-05 -0.982171
vn 0.18799 -3.50641e-05 -0.982171
vn 0.18799 -3.30684e-05 -0.982171
vn 0.18799 0 -0.982171
vn 0.18799 -5.17466e-05 -0.982171
vn -0.18268 3.51529e-05 0.983172
vn -0.18268 3.47255e-05 0.983172
vn -0.18268 3.49549e-05 0.983172
vn -0.18268 3.50403e-05 0.983172
vn 1.11022e-16 1 -5.55112e-16
vn -1.53386e-17 1 1.40239e-16
vn 0.985098 -1.54883e-05 0.171994
vn 0.985098 -1.5552e-05 0.171994
vn 0.985098 -1.52639e-05 0.171994
vn 0.985098 -1.57007e-05 0.171994
vn 0.18799 -4.70749e-05 -0.982171
vn 0.18799 5.05532e-05 -0.982171
vn 0.18799 -3.50937e-05 -0.982171
vn 0.18799 -3.50756e-05 -0.982171
vn -0.18268 3.49291e-05 0.983172
vn -0.18268 3.50201e-05 0.983172
vn -0.985098 1.55836e-05 -0.171994
vn -0.985098 1.5484e-05 -0.171994
vn -0.18799 3.50691e-05 0.982171
vn -0.18799 3.50949e-05 0.982171
vn -0.986929 -0 -0.161154
vn -0.986929 -7.72404e-06 -0.161154
vn 0.986929 -1.58757e-05 0.161154
vn -0.18268 3.50174e-05 0.983172
vn -0.182704 0 0.983168
vn 0.986929 0 0.161154
vn -0.182679 3.50228e-05 0.983173
vn -0.182662 0 0.983176
vn -0.986929 1.58911e-05 -0.161154
vn -0.986929 1.58952e-05 -0.161154
vn -0.18799 3.50775e-05 0.982171
vn -0.981859 1.48827e-05 -0.189614
vn -0.981859 1.48835e-05 -0.189614

# Mesh 'defaultobject' with 100 faces
g defaultobject
usemtl DefaultMaterial
f  1//1 2//1 3//1
f  2//1 1//1 4//2
f  4//2 1//1 5//3
f  4//2 5//3 6//3
f  4//2 6//3 7//4
f  7//4 6//3 8//5
f  7//4 8//5 9//6
f  7//4 9//6 10//7
f  7//4 10//7 11//8
f  11//8 10//7 12//9
f  13//10 14//10 15//10
f  14//10 13//10 16//11
f  16//11 13//10 17//12
f  16//11 17//12 18//11
f  16//11 18//11 19//3
f  19//3 18//11 3//1
f  19//3 3//1 2//1
f  19//3 2//1 20//13
f  20//13 2//1 21//14
f  20//13 21//14 22//15
f  23//16 24//16 25//16
f  24//16 23//16 26//17
f  26//18 23//18 27//18
f  25//19 28//19 29//19
f  28//19 25//19 30//20
f  30//20 25//19 24//21
f  30//20 24//21 26//22
f  29//23 31//23 32//23
f  31//23 29//23 28//24
f  31//23 28//24 33//25
f  33//26 28//26 30//26
f  34//27 35//27 23//27
f  35//27 34//27 36//28
f  35//27 36//28 37//29
f  38//30 35//30 37//30
f  35//30 38//30 39//31
f  35//30 39//31 40//32
f  41//33 42//33 43//33
f  42//33 41//33 44//34
f  44//34 41//33 45//35
f  46//36 41//36 43//36
f  41//36 46//36 47//27
f  47//27 46//36 48//37
f  49//38 50//38 51//38
f  50//38 49//38 52//38
f  52//38 49//38 53//38
f  52//38 53//38 54//38
f  25//39 34//39 23//39
f  6//40 32//40 8//40
f  32//40 6//40 5//41
f  32//40 5//41 1//42
f  32//40 1//42 3//43
f  32//40 3//43 18//44
f  32//40 18//44 29//45
f  29//45 18//44 34//46
f  34//46 18//44 53//47
f  29//45 34//46 25//48
f  34//49 53//49 36//49
f  36//50 53//50 37//50
f  26//51 33//51 30//51
f  33//51 26//51 27//52
f  33//51 27//52 10//53
f  10//53 27//52 7//54
f  10//55 7//55 11//55
f  10//55 11//55 12//56
f  32//57 9//57 8//57
f  9//57 32//57 10//58
f  10//58 32//57 31//59
f  10//58 31//59 33//60
f  54//61 46//61 43//61
f  46//62 54//62 48//62
f  48//63 54//63 15//63
f  15//63 54//63 17//64
f  15//10 17//64 13//10
f  22//65 50//65 20//65
f  50//65 22//65 51//66
f  54//63 18//44 17//64
f  18//44 54//63 53//47
f  27//67 4//67 7//67
f  4//67 27//67 23//68
f  4//69 35//69 2//69
f  35//69 4//69 23//70
f  39//71 49//71 51//71
f  49//71 39//71 38//72
f  2//73 40//73 21//73
f  40//73 2//73 35//73
f  40//74 22//65 21//74
f  22//65 40//74 51//66
f  51//75 40//75 39//75
f  52//76 44//76 50//76
f  44//76 52//76 42//76
f  20//65 45//77 19//77
f  45//77 20//65 50//65
f  45//78 50//78 44//78
f  45//79 16//79 19//79
f  16//79 45//79 41//80
f  16//81 47//81 14//81
f  47//81 16//81 41//81
f  47//82 15//82 14//82
f  15//82 47//82 48//83

