# {"id":"BLDG_0003000f001278d3","idOriginal":"BLDG_0003000f001278d3","origin":[13.358995836828973,52.508310876334576],"elevation":32.6199989318848}
# Longitude: 13.358995836828973
# Latitude: 52.508310876334576
# Elevation: 32.6199989318848

# File produced by Open Asset Import Library (http://www.assimp.sf.net)
# (assimp v3.1.0)

mtllib BLDG_0003000f001278d3.obj.mtl

# 24 vertex positions
v  22.0545 1.08486e-15 -17.717
v  11.4151 1.89679e-15 -30.9769
v  25.1712 1.60515e-15 -26.214
v  16.1458 9.84499e-17 -1.60781
v  6.70828 3.15446e-16 -5.15162
v  8.38282 1.39293e-15 -22.7483
v  2.48305 4.12596e-16 -6.7382
v  4.22524 -9.71502e-17 1.58658
v  0 0 0
v  2.48337 15.0871 -6.73868
v  2.4833 11.8446 -6.73858
v  6.70861 15.0871 -5.1521
v  6.70854 11.8446 -5.15199
v  16.1461 15.0871 -1.60829
v  22.0549 15.0871 -17.7175
v  25.1715 17.4827 -26.2146
v  22.0549 17.4827 -17.7176
v  0.000252368 11.8446 -0.000374271
v  8.38314 15.0871 -22.7488
v  11.4155 17.4827 -30.9775
v  8.38319 17.4827 -22.7489
v  4.22549 11.8446 1.58621
v  14.0949 18.6959 -25.365
v  19.4177 18.6959 -23.4643

# 0 UV coordinates

# 38 vertex normals
vn 6.43011e-24 -1 -6.12323e-17
vn 6.78326e-24 -1 -6.12323e-17
vn -1.30109e-23 -1 -6.12323e-17
vn -4.28023e-23 -1 -6.12323e-17
vn -2.19989e-23 -1 -6.12323e-17
vn -3.26686e-24 -1 -6.12323e-17
vn 6.53372e-24 -1 -6.12323e-17
vn -0.351535 3.70956e-05 0.936175
vn -0.351535 3.69579e-05 0.936175
vn -0.351535 3.69946e-05 0.936175
vn -0.351535 3.70717e-05 0.936175
vn -0.351535 3.70546e-05 0.936175
vn 0.938839 -9.05636e-06 0.344357
vn 0.938839 -9.17505e-06 0.344357
vn 0.938839 -9.17505e-06 0.344357
vn 0.938839 -9.07812e-06 0.344357
vn 0.938839 -9.14888e-06 0.344357
vn -0.938318 9.06648e-06 -0.345773
vn -0.938318 9.07905e-06 -0.345773
vn -0.938318 9.10781e-06 -0.345773
vn -0.938318 9.32844e-06 -0.345773
vn -0.938318 9.04767e-06 -0.345773
vn -0.938318 9.07343e-06 -0.345773
vn -0.938318 8.96354e-06 -0.345773
vn -0.938318 8.80649e-06 -0.345773
vn -0.345362 3.71633e-05 0.938469
vn -0.345362 3.73819e-05 0.938469
vn 0.327185 -3.68758e-05 -0.94496
vn 0.327185 -3.68579e-05 -0.94496
vn -0.351535 3.70707e-05 0.936175
vn 0.938318 -9.05935e-06 0.345773
vn 0 1 0
vn -0.246541 0.964865 -0.0908512
vn -0.0870798 0.965893 0.243859
vn -0.0912584 0.964457 0.247981
vn 0.0864717 0.964443 -0.249744
vn 0.0870814 0.965892 -0.243864
vn 0.246676 0.964865 0.0904784

# Mesh 'defaultobject' with 44 faces
g defaultobject
usemtl DefaultMaterial
f  1//1 2//1 3//1
f  2//1 1//1 4//2
f  2//1 4//2 5//3
f  2//1 5//3 6//4
f  6//4 5//3 7//5
f  7//5 5//3 8//6
f  7//5 8//6 9//7
f  10//8 11//8 12//8
f  13//9 12//8 11//8
f  14//10 12//8 13//9
f  5//11 14//10 13//9
f  4//12 14//10 5//11
f  4//13 15//13 14//13
f  15//13 4//13 1//14
f  15//13 1//14 16//15
f  16//15 1//14 3//16
f  16//15 17//17 15//13
f  18//18 7//18 9//18
f  7//18 18//18 6//19
f  6//19 18//18 2//20
f  2//20 18//18 11//21
f  2//20 11//21 19//22
f  2//20 19//22 20//23
f  19//22 11//21 10//24
f  20//23 19//22 21//25
f  15//26 21//26 19//26
f  21//26 15//26 17//27
f  20//28 3//28 2//28
f  3//28 20//28 16//29
f  8//30 18//30 9//30
f  18//30 8//30 22//30
f  5//31 22//31 8//31
f  22//31 5//31 13//31
f  15//32 12//32 14//32
f  12//32 15//32 10//32
f  10//32 15//32 19//32
f  23//33 20//33 21//33
f  23//34 17//34 24//34
f  17//35 23//35 21//35
f  23//36 16//36 20//36
f  16//37 23//37 24//37
f  17//38 16//38 24//38
f  13//32 18//32 22//32
f  18//32 13//32 11//32

