# {"id":"BLDG_0003000000191262","idOriginal":"BLDG_0003000000191262","origin":[13.39899264143435,52.53607655456896],"elevation":47}
# Longitude: 13.39899264143435
# Latitude: 52.53607655456896
# Elevation: 47

# File produced by Open Asset Import Library (http://www.assimp.sf.net)
# (assimp v3.1.0)

mtllib BLDG_0003000000191262.obj.mtl

# 8 vertex positions
v  1.78298 1.51663e-16 -2.47685
v  2.29678 -9.6662e-17 1.57861
v  0 0 0
v  4.07976 5.50013e-17 -0.89824
v  8.0095e-05 3.74932 -0.000118691
v  1.78305 3.21158 -2.47695
v  4.07983 3.21158 -0.898342
v  2.29685 3.21158 1.57851

# 0 UV coordinates

# 11 vertex normals
vn 0 -1 -6.12323e-17
vn -0.811589 -1.15708e-06 -0.584229
vn -0.811589 -1.16762e-06 -0.584229
vn 0.566425 -3.81978e-05 -0.824113
vn 0.566425 -3.82244e-05 -0.824113
vn 0.811589 1.21626e-06 0.584229
vn 0.811589 1.16761e-06 0.584229
vn -0.566425 3.8192e-05 0.824113
vn -0.566425 3.81889e-05 0.824113
vn 0.0983131 0.984822 -0.143039
vn 0.153792 0.981882 0.110709

# Mesh 'defaultobject' with 12 faces
g defaultobject
usemtl DefaultMaterial
f  1//1 2//1 3//1
f  2//1 1//1 4//1
f  5//2 1//2 3//2
f  1//2 5//2 6//3
f  1//4 7//4 4//4
f  7//4 1//4 6//5
f  4//6 8//6 2//6
f  8//6 4//6 7//7
f  8//8 3//8 2//8
f  3//8 8//8 5//9
f  5//10 7//10 6//10
f  7//11 5//11 8//11

