# {"id":"BLDG_00030002001afd31","idOriginal":"BLDG_00030002001afd31","origin":[13.372381150780647,52.5304544748747],"elevation":35.2000007629395}
# Longitude: 13.372381150780647
# Latitude: 52.5304544748747
# Elevation: 35.2000007629395

# File produced by Open Asset Import Library (http://www.assimp.sf.net)
# (assimp v3.1.0)

mtllib BLDG_00030002001afd31.obj.mtl

# 18 vertex positions
v  21.0048 0.609999 36.4441
v  1.81561 0.609999 -0.991394
v  1.3009e-05 0.609999 -1.92998e-05
v  21.2211 0.609999 36.3652
v  48.6742 0.609999 78.9424
v  26.8879 0.609999 46.2379
v  26.7285 0.609999 46.374
v  47.6813 0.609999 82.7269
v  50.0499 0.609999 81.411
v  1.8156 6.07042e-17 -0.991374
v  21.0048 -2.23156e-15 36.4442
v  0 0 0
v  21.2211 -2.22673e-15 36.3653
v  48.6742 -4.83383e-15 78.9424
v  26.8879 -2.83126e-15 46.2379
v  26.7285 -2.83959e-15 46.3741
v  47.6813 -5.06556e-15 82.7269
v  50.0499 -4.98498e-15 81.411

# 0 UV coordinates

# 20 vertex normals
vn 0 1 0
vn 2.43424e-24 -1 -6.12323e-17
vn -2.09288e-22 -1 -6.12322e-17
vn 0 -1 -6.12323e-17
vn 2.27703e-22 -1 -6.12325e-17
vn -4.33621e-22 -1 -6.1232e-17
vn 0 -1 -6.12323e-17
vn -2.6617e-22 -1 -6.12324e-17
vn -0.866399 3.45772e-05 0.499353
vn -0.866399 3.42761e-05 0.499353
vn 0.342582 2.18806e-05 0.939488
vn -0.867285 3.45484e-05 0.497813
vn -0.649289 -9.56928e-06 -0.760542
vn -0.866392 3.49912e-05 0.499365
vn -0.866392 3.45774e-05 0.499365
vn 0.485647 2.36564e-05 0.874155
vn 0.873525 -3.47143e-05 -0.48678
vn 0.862694 -3.45563e-05 -0.505727
vn -0.479242 -1.75486e-05 -0.877683
vn -0.479242 -1.7578e-05 -0.877683

# Mesh 'defaultobject' with 32 faces
g defaultobject
usemtl DefaultMaterial
f  1//1 2//1 3//1
f  2//1 1//1 4//1
f  2//1 4//1 5//1
f  5//1 4//1 6//1
f  5//1 6//1 7//1
f  5//1 7//1 8//1
f  5//1 8//1 9//1
f  10//2 11//2 12//2
f  11//2 10//2 13//3
f  13//3 10//2 14//4
f  13//3 14//4 15//5
f  15//5 14//4 16//6
f  16//6 14//4 17//7
f  17//7 14//4 18//8
f  1//9 12//9 11//9
f  12//9 1//9 3//10
f  13//11 1//11 11//11
f  1//11 13//11 4//11
f  6//12 13//12 15//12
f  13//12 6//12 4//12
f  7//13 15//13 16//13
f  15//13 7//13 6//13
f  8//14 16//14 17//14
f  16//14 8//14 7//15
f  18//16 8//16 17//16
f  8//16 18//16 9//16
f  14//17 9//17 18//17
f  9//17 14//17 5//17
f  10//18 5//18 14//18
f  5//18 10//18 2//18
f  3//19 10//19 12//19
f  10//19 3//19 2//20

