# {"id":"BLDG_000300000020055b","idOriginal":"BLDG_000300000020055b","origin":[13.382586724709844,52.5617164217275],"elevation":40.4099998474121}
# Longitude: 13.382586724709844
# Latitude: 52.5617164217275
# Elevation: 40.4099998474121

# File produced by Open Asset Import Library (http://www.assimp.sf.net)
# (assimp v3.1.0)

mtllib BLDG_000300000020055b.obj.mtl

# 20 vertex positions
v  14.5307 3.64406 -1.59639
v  13.7911 3.64406 -1.95651
v  11.162 3.64406 5.31692
v  5.83296 3.64406 2.77869
v  7.59613 3.64406 -16.0423
v  7.7771e-05 3.64406 -0.00011555
v  14.9359 3.64406 -4.25753
v  13.5512 3.64406 -13.1432
v  15.6561 3.64406 -3.90678
v  18.8914 3.64406 -10.5446
v  5.83288 -1.70153e-16 2.77881
v  0 0 0
v  11.162 -3.25574e-16 5.31703
v  14.5306 9.77439e-17 -1.59628
v  13.7911 1.19795e-16 -1.9564
v  14.9358 2.60691e-16 -4.25742
v  15.656 2.39214e-16 -3.90667
v  18.8913 6.45666e-16 -10.5445
v  13.5511 8.04781e-16 -13.1431
v  7.59605 9.82298e-16 -16.0421

# 0 UV coordinates

# 24 vertex normals
vn 0 1 0
vn -0.430091 3.78323e-05 0.902785
vn -0.430012 3.77751e-05 0.902823
vn -0.430012 3.78194e-05 0.902823
vn 0.898958 -5.44488e-06 0.438035
vn 0.437798 -3.77805e-05 -0.899073
vn 0.437798 -3.7895e-05 -0.899073
vn 0.895316 -4.88778e-06 0.445432
vn -0.437852 3.79276e-05 0.899047
vn -0.437852 3.7754e-05 0.899047
vn 0.898915 -5.4579e-06 0.438124
vn 0.437553 -3.78641e-05 -0.899192
vn 0.43771 -3.81004e-05 -0.899116
vn 0.437711 -3.78651e-05 -0.899116
vn -0.9038 5.71869e-06 -0.427955
vn -0.9038 5.73167e-06 -0.427955
vn 0 -1 -6.12323e-17
vn 4.04221e-24 -1 -6.12323e-17
vn -2.06363e-23 -1 -6.12323e-17
vn -1.39406e-23 -1 -6.12323e-17
vn -8.66077e-24 -1 -6.12323e-17
vn 4.25219e-23 -1 -6.12324e-17
vn -9.65743e-24 -1 -6.12323e-17
vn 0 -1 -6.12323e-17

# Mesh 'defaultobject' with 36 faces
g defaultobject
usemtl DefaultMaterial
f  1//1 2//1 3//1
f  4//1 5//1 6//1
f  5//1 4//1 3//1
f  5//1 3//1 2//1
f  5//1 2//1 7//1
f  5//1 7//1 8//1
f  8//1 7//1 9//1
f  8//1 9//1 10//1
f  6//2 11//2 4//2
f  11//2 6//2 12//2
f  4//3 13//3 3//3
f  13//3 4//3 11//4
f  3//5 14//5 1//5
f  14//5 3//5 13//5
f  2//6 14//6 15//6
f  14//6 2//6 1//7
f  2//8 16//8 7//8
f  16//8 2//8 15//8
f  7//9 17//9 9//9
f  17//9 7//9 16//10
f  9//11 18//11 10//11
f  18//11 9//11 17//11
f  8//12 18//12 19//12
f  18//12 8//12 10//12
f  5//13 19//13 20//13
f  19//13 5//13 8//14
f  6//15 20//15 12//15
f  20//15 6//15 5//16
f  20//17 11//17 12//17
f  11//17 20//17 13//18
f  13//18 20//17 15//19
f  15//19 20//17 16//20
f  16//20 20//17 19//21
f  16//20 19//21 17//22
f  17//22 19//21 18//23
f  14//24 13//18 15//19

