# {"id":"BLDG_0003000e005340d8","idOriginal":"BLDG_0003000e005340d8","origin":[13.404840288827781,52.53871308658096],"elevation":49.189998626709}
# Longitude: 13.404840288827781
# Latitude: 52.53871308658096
# Elevation: 49.189998626709

# File produced by Open Asset Import Library (http://www.assimp.sf.net)
# (assimp v3.1.0)

mtllib BLDG_0003000e005340d8.obj.mtl

# 10 vertex positions
v  0.000412669 19.3102 -0.00061135
v  10.0733 23.3448 13.0253
v  5.9385 23.3448 -1.71358
v  4.13523 19.3102 14.7382
v  16.0112 19.3102 11.3126
v  11.8764 19.3102 -3.42629
v  4.13482 -9.02494e-16 14.7388
v  16.0108 -6.92732e-16 11.3132
v  0 0 0
v  11.876 2.09762e-16 -3.42568

# 0 UV coordinates

# 15 vertex normals
vn -0.526344 0.837352 0.14766
vn 0.526358 0.837343 -0.147664
vn 0.526358 0.837343 -0.147664
vn 0.277154 2.45039e-05 0.960826
vn 0.277154 2.44902e-05 0.960826
vn 0.277154 2.43635e-05 0.960826
vn -0.962829 2.91407e-05 0.270111
vn -0.962829 2.91278e-05 0.270111
vn -0.277154 -2.44963e-05 -0.960826
vn -0.277154 -2.44902e-05 -0.960826
vn -0.277154 -2.45547e-05 -0.960826
vn 0.962829 -2.9088e-05 -0.270111
vn 0.962829 -2.91396e-05 -0.270111
vn -4.47684e-24 -1 -6.12323e-17
vn 0 -1 -6.12323e-17

# Mesh 'defaultobject' with 16 faces
g defaultobject
usemtl DefaultMaterial
f  1//1 2//1 3//1
f  2//1 1//1 4//1
f  3//2 5//2 6//2
f  5//2 3//2 2//3
f  5//4 7//4 8//4
f  7//4 5//4 4//5
f  4//5 5//4 2//6
f  4//7 9//7 7//7
f  9//7 4//7 1//8
f  1//9 10//9 9//9
f  10//9 1//9 6//10
f  6//10 1//9 3//11
f  10//12 5//12 8//12
f  5//12 10//12 6//13
f  9//14 8//14 7//14
f  8//14 9//14 10//15

