# {"id":"BLDG_0003000e008110a3","idOriginal":"BLDG_0003000e008110a3","origin":[13.424820750416208,52.515251277561866],"elevation":34.8800010681152}
# Longitude: 13.424820750416208
# Latitude: 52.515251277561866
# Elevation: 34.8800010681152

# File produced by Open Asset Import Library (http://www.assimp.sf.net)
# (assimp v3.1.0)

mtllib BLDG_0003000e008110a3.obj.mtl

# 8 vertex positions
v  9.98988 -3.62891e-16 5.92646
v  0.000659454 30.8206 -0.00097424
v  0 0 0
v  9.99053 30.8206 5.92548
v  42.6729 4.51116e-15 -73.6728
v  42.6736 30.8206 -73.6738
v  52.6628 4.14827e-15 -67.7464
v  52.6634 30.8206 -67.7474

# 0 UV coordinates

# 10 vertex normals
vn -0.510218 3.8094e-05 0.860045
vn -0.865323 2.67154e-06 -0.501214
vn -0.865323 2.64748e-06 -0.501214
vn 0.510219 -3.81759e-05 -0.860045
vn 0.510219 -3.81127e-05 -0.860045
vn 0.865323 -2.69816e-06 0.501214
vn 0.865323 -2.60512e-06 0.501214
vn 0 1 0
vn 3.42623e-24 -1 -6.12323e-17
vn 8.56556e-24 -1 -6.12323e-17

# Mesh 'defaultobject' with 12 faces
g defaultobject
usemtl DefaultMaterial
f  1//1 2//1 3//1
f  2//1 1//1 4//1
f  2//2 5//2 3//2
f  5//2 2//2 6//3
f  6//4 7//4 5//4
f  7//4 6//4 8//5
f  7//6 4//6 1//6
f  4//6 7//6 8//7
f  8//8 2//8 4//8
f  2//8 8//8 6//8
f  3//9 7//9 1//9
f  7//9 3//9 5//10

