# {"id":"BLDG_0003000f000e4d57","idOriginal":"BLDG_0003000f000e4d57","origin":[13.340719452668745,52.51789409865948],"elevation":34.5099983215332}
# Longitude: 13.340719452668745
# Latitude: 52.51789409865948
# Elevation: 34.5099983215332

# File produced by Open Asset Import Library (http://www.assimp.sf.net)
# (assimp v3.1.0)

mtllib BLDG_0003000f000e4d57.obj.mtl

# 106 vertex positions
v  2.80416 10.9352 4.57841
v  1.76189 10.9352 3.88176
v  2.26151 10.9352 4.26233
v  1.31282 10.9352 3.44234
v  3.38171 10.9352 4.82498
v  0.921486 10.9352 2.95153
v  3.98504 10.9352 4.9988
v  0.593255 10.9352 2.41615
v  4.60538 10.9352 5.09726
v  0.333769 10.9352 1.84424
v  6.28229 10.9352 5.15724
v  0.146829 10.9352 1.24442
v  0.0349967 10.9352 0.626489
v  8.5281 10.9352 5.19569
v  0.000232725 10.9352 -0.00034575
v  0.0426687 10.9352 -0.626934
v  0.148895 10.9352 -1.41465
v  10.7745 10.9352 5.18655
v  0.320497 10.9352 -2.19013
v  0.556772 10.9352 -2.94852
v  10.9921 10.9352 3.88769
v  0.855785 10.9352 -3.68436
v  16.3721 10.9352 3.81488
v  1.21561 10.9352 -4.39279
v  1.63339 10.9352 -5.06777
v  2.10663 10.9352 -5.70631
v  2.63185 10.9352 -6.30235
v  18.5045 10.9352 3.78587
v  3.20501 10.9352 -6.85232
v  3.82239 10.9352 -7.35201
v  18.7248 10.9352 2.86911
v  6.41712 10.9352 -9.51745
v  24.0018 10.9352 2.53557
v  9.05717 10.9352 -11.6271
v  24.3216 10.9352 1.28564
v  27.4137 10.9352 0.695709
v  11.7413 10.9352 -13.6804
v  27.2979 10.9352 -1.15938
v  29.1968 10.9352 -1.68718
v  14.4686 10.9352 -15.6761
v  27.428 10.9352 -7.2618
v  17.2375 10.9352 -17.613
v  29.1473 10.9352 -8.06765
v  26.896 10.9352 -13.5105
v  20.0471 10.9352 -19.4912
v  28.3605 10.9352 -14.4914
v  21.0446 10.9352 -23.4532
v  28.0804 10.9352 -14.9576
v  23.8865 10.9352 -21.9448
v  21.2533 10.9352 -24.2829
v  24.8908 10.9352 -22.5866
v  23.4401 10.9352 -24.9114
v  23.1229 10.9352 -25.4204
v  18.7246 -1.75703e-16 2.86945
v  24.3214 -7.8744e-17 1.28599
v  24.0016 -1.5528e-16 2.53591
v  27.2977 7.09705e-17 -1.15904
v  16.3719 -2.33615e-16 3.81522
v  18.5042 -2.31839e-16 3.78621
v  8.52787 -3.18165e-16 5.19604
v  10.9919 -2.38073e-16 3.88803
v  10.7743 -3.17606e-16 5.1869
v  27.4278 4.44636e-16 -7.26145
v  29.1966 1.03289e-16 -1.68683
v  6.28205 -3.15811e-16 5.15759
v  26.8958 8.27256e-16 -13.5101
v  29.1471 4.9398e-16 -8.06731
v  4.60515 -3.12139e-16 5.09761
v  3.98481 -3.06109e-16 4.99915
v  3.38147 -2.95466e-16 4.82533
v  2.80393 -2.80368e-16 4.57876
v  2.26127 -2.61013e-16 4.26267
v  1.76165 -2.3771e-16 3.8821
v  1.31258 -2.10804e-16 3.44268
v  0.921254 -1.8075e-16 2.95188
v  0.593022 -1.47968e-16 2.4165
v  28.3603 8.87324e-16 -14.4911
v  28.0801 9.15865e-16 -14.9572
v  0.333536 -1.12948e-16 1.84459
v  23.8863 1.34371e-15 -21.9444
v  0.146596 -7.62196e-17 1.24476
v  0.034764 -3.83826e-17 0.626835
v  0 0 0
v  0.0424359 3.83674e-17 -0.626588
v  0.148662 8.66011e-17 -1.4143
v  0.320265 1.34086e-16 -2.18979
v  0.55654 1.80524e-16 -2.94818
v  0.855552 2.25581e-16 -3.68401
v  1.21538 2.6896e-16 -4.39244
v  1.63316 3.1029e-16 -5.06743
v  2.1064 3.49389e-16 -5.70596
v  2.63161 3.85886e-16 -6.302
v  3.20478 4.19562e-16 -6.85197
v  3.82215 4.50159e-16 -7.35166
v  6.41688 5.82754e-16 -9.5171
v  9.05693 7.11933e-16 -11.6268
v  11.7411 8.3766e-16 -13.68
v  14.4684 9.59861e-16 -15.6757
v  17.2373 1.07846e-15 -17.6126
v  20.0468 1.19347e-15 -19.4908
v  21.0444 1.43607e-15 -23.4529
v  24.8906 1.38301e-15 -22.5863
v  23.4398 1.52536e-15 -24.9111
v  23.1227 1.55653e-15 -25.42
v  21.253 1.48688e-15 -24.2826
v  27.4134 -4.2621e-17 0.696054

# 0 UV coordinates

# 126 vertex normals
vn 0 1 0
vn 1.01977e-24 -1 -6.12323e-17
vn -2.95049e-24 -1 -6.12323e-17
vn -1.37972e-24 -1 -6.12324e-17
vn 1.49469e-23 -1 -6.12323e-17
vn 5.74457e-24 -1 -6.12323e-17
vn -2.95093e-23 -1 -6.12324e-17
vn 2.36927e-24 -1 -6.12323e-17
vn 5.20606e-23 -1 -6.12323e-17
vn -1.23313e-22 -1 -6.12324e-17
vn 0 -1 -6.12323e-17
vn 1.03376e-22 -1 -6.12323e-17
vn -9.71865e-23 -1 -6.12324e-17
vn 0 -1 -6.12323e-17
vn 8.98483e-23 -1 -6.12323e-17
vn 0 -1 -6.12323e-17
vn -6.40894e-22 -1 -6.12334e-17
vn -2.6951e-23 -1 -6.12324e-17
vn 8.37467e-23 -1 -6.12323e-17
vn 0 -1 -6.12323e-17
vn 1.82406e-22 -1 -6.12323e-17
vn 0 -1 -6.12324e-17
vn 2.41395e-22 -1 -6.12321e-17
vn -1.02561e-22 -1 -6.12324e-17
vn -1.13809e-22 -1 -6.12324e-17
vn 1.28293e-22 -1 -6.12322e-17
vn 0 -1 -6.12324e-17
vn 0 -1 -6.12323e-17
vn -2.12565e-22 -1 -6.12323e-17
vn 0 -1 -6.12322e-17
vn -3.80432e-22 -1 -6.12325e-17
vn 0 -1 -6.12321e-17
vn 0 -1 -6.12351e-17
vn 0 -1 -6.12323e-17
vn 0 -1 -6.12321e-17
vn -1.5375e-22 -1 -6.12323e-17
vn 2.49322e-22 -1 -6.12319e-17
vn -2.39447e-22 -1 -6.1233e-17
vn 1.6676e-21 -1 -6.123e-17
vn 1.03686e-23 -1 -6.12324e-17
vn 3.96379e-24 -1 -6.12324e-17
vn 8.61158e-24 -1 -6.12324e-17
vn 1.06253e-22 -1 -6.12322e-17
vn 2.21597e-22 -1 -6.12321e-17
vn -4.56034e-24 -1 -6.12323e-17
vn 0.424401 1.95949e-05 0.905474
vn 0.424402 1.9635e-05 0.905474
vn 0.924069 -3.17601e-05 -0.382226
vn 0.924069 -3.17305e-05 -0.382226
vn 0.556526 1.43854e-05 0.83083
vn 0.556527 1.44596e-05 0.83083
vn 0.85713 -3.45455e-05 -0.515101
vn 0.85741 -3.45241e-05 -0.514633
vn 0.85741 -3.44813e-05 -0.514634
vn 0.538533 1.51376e-05 0.842605
vn 0.84837 -3.47615e-05 -0.529404
vn 0.84837 -3.48569e-05 -0.529403
vn 0.848702 -3.48481e-05 -0.528871
vn 0.848701 -3.47573e-05 -0.528872
vn -0.519743 -1.59115e-05 -0.854322
vn -0.969808 1.28955e-05 -0.24387
vn -0.969808 1.2938e-05 -0.243871
vn -0.969736 1.29274e-05 -0.244157
vn -0.969736 1.28849e-05 -0.244157
vn -0.555747 -1.44202e-05 -0.831351
vn -0.573203 -1.36718e-05 -0.819413
vn -0.590532 -1.29116e-05 -0.807014
vn -0.60758 -1.21462e-05 -0.794259
vn -0.624264 -1.14474e-05 -0.781214
vn -0.624263 -1.13793e-05 -0.781214
vn -0.640737 -1.0657e-05 -0.76776
vn -0.640737 -1.0671e-05 -0.76776
vn -0.629132 -1.12199e-05 -0.777299
vn -0.629132 -1.12062e-05 -0.777299
vn -0.692354 -8.07847e-06 -0.721558
vn -0.692354 -8.10992e-06 -0.721558
vn -0.750275 -4.93539e-06 -0.661126
vn -0.803408 -1.7278e-06 -0.595429
vn -0.850302 1.43279e-06 -0.526294
vn -0.850302 1.45573e-06 -0.526295
vn -0.891585 4.656e-06 -0.452853
vn -0.891585 4.63627e-06 -0.452853
vn -0.926431 7.81252e-06 -0.376464
vn -0.954738 1.09155e-05 -0.297447
vn -0.954738 1.09129e-05 -0.297447
vn -0.976381 1.39492e-05 -0.216058
vn -0.99103 1.68664e-05 -0.133644
vn -0.997715 1.90971e-05 -0.0675706
vn -0.997714 1.90975e-05 -0.0675707
vn -0.998466 2.30003e-05 0.0553745
vn -0.998466 2.30004e-05 0.0553744
vn -0.984015 2.65722e-05 0.178087
vn -0.984015 2.65729e-05 0.178087
vn -0.954709 2.9725e-05 0.297542
vn -0.91065 3.24406e-05 0.413179
vn -0.91065 3.24431e-05 0.413179
vn -0.852534 3.46655e-05 0.522672
vn -0.781889 3.63557e-05 0.623417
vn -0.781889 3.63472e-05 0.623418
vn -0.699387 3.74787e-05 0.714743
vn -0.699387 3.74864e-05 0.714743
vn -0.605948 3.80436e-05 0.795504
vn -0.503322 3.80292e-05 0.864099
vn -0.392636 3.74319e-05 0.919694
vn -0.392636 3.74384e-05 0.919694
vn -0.276837 3.62764e-05 0.960917
vn -0.276837 3.62699e-05 0.960917
vn -0.156765 3.45594e-05 0.987636
vn -0.0357426 3.23544e-05 0.999361
vn -0.0171188 3.19739e-05 0.999853
vn 0.0040691 3.15274e-05 0.999992
vn 0.986259 -1.5765e-05 0.165204
vn 0.013532 3.13234e-05 0.999908
vn 0.013532 3.13214e-05 0.999908
vn 0.0136031 3.13194e-05 0.999907
vn 0.0136031 3.13218e-05 0.999907
vn 0.972304 -1.33006e-05 0.233719
vn 0.972304 -1.32962e-05 0.233719
vn 0.0630808 3.02313e-05 0.998008
vn 0.968797 -1.27736e-05 0.247855
vn 0.968797 -1.27799e-05 0.247855
vn 0.187409 2.70646e-05 0.982282
vn 0.187409 2.70715e-05 0.982282
vn 0.998059 -2.32067e-05 -0.0622805
vn 0.267791 2.47628e-05 0.963477
vn 0.953169 -2.98384e-05 -0.302439

# Mesh 'defaultobject' with 208 faces
g defaultobject
usemtl DefaultMaterial
f  1//1 2//1 3//1
f  2//1 1//1 4//1
f  4//1 1//1 5//1
f  4//1 5//1 6//1
f  6//1 5//1 7//1
f  6//1 7//1 8//1
f  8//1 7//1 9//1
f  8//1 9//1 10//1
f  10//1 9//1 11//1
f  10//1 11//1 12//1
f  12//1 11//1 13//1
f  13//1 11//1 14//1
f  13//1 14//1 15//1
f  15//1 14//1 16//1
f  16//1 14//1 17//1
f  17//1 14//1 18//1
f  17//1 18//1 19//1
f  19//1 18//1 20//1
f  20//1 18//1 21//1
f  20//1 21//1 22//1
f  22//1 21//1 23//1
f  22//1 23//1 24//1
f  24//1 23//1 25//1
f  25//1 23//1 26//1
f  26//1 23//1 27//1
f  27//1 23//1 28//1
f  27//1 28//1 29//1
f  29//1 28//1 30//1
f  30//1 28//1 31//1
f  30//1 31//1 32//1
f  32//1 31//1 33//1
f  32//1 33//1 34//1
f  34//1 33//1 35//1
f  34//1 35//1 36//1
f  34//1 36//1 37//1
f  37//1 36//1 38//1
f  37//1 38//1 39//1
f  37//1 39//1 40//1
f  40//1 39//1 41//1
f  40//1 41//1 42//1
f  42//1 41//1 43//1
f  42//1 43//1 44//1
f  42//1 44//1 45//1
f  45//1 44//1 46//1
f  45//1 46//1 47//1
f  47//1 46//1 48//1
f  47//1 48//1 49//1
f  47//1 49//1 50//1
f  50//1 49//1 51//1
f  50//1 51//1 52//1
f  50//1 52//1 53//1
f  54//2 55//2 56//2
f  55//2 54//2 57//3
f  58//4 54//2 59//4
f  60//5 61//5 62//5
f  57//3 63//6 64//6
f  63//6 57//3 54//2
f  63//6 54//2 58//4
f  63//6 58//4 61//5
f  63//6 61//5 60//5
f  63//6 60//5 65//7
f  63//6 66//8 67//8
f  66//8 63//6 65//7
f  66//8 65//7 68//9
f  66//8 68//9 69//10
f  66//8 69//10 70//11
f  66//8 70//11 71//12
f  66//8 71//12 72//13
f  66//8 72//13 73//14
f  66//8 73//14 74//15
f  66//8 74//15 75//16
f  66//8 75//16 76//14
f  66//8 76//14 77//17
f  77//17 76//14 78//18
f  78//18 76//14 79//19
f  78//18 79//19 80//20
f  80//20 79//19 81//21
f  80//20 81//21 82//22
f  80//20 82//22 83//16
f  80//20 83//16 84//23
f  80//20 84//23 85//24
f  80//20 85//24 86//25
f  80//20 86//25 87//26
f  80//20 87//26 88//27
f  80//20 88//27 89//28
f  80//20 89//28 90//29
f  80//20 90//29 91//30
f  80//20 91//30 92//31
f  80//20 92//31 93//32
f  80//20 93//32 94//33
f  80//20 94//33 95//34
f  80//20 95//34 96//35
f  80//20 96//35 97//36
f  80//20 97//36 98//37
f  80//20 98//37 99//38
f  80//20 99//38 100//39
f  80//20 100//39 101//40
f  80//20 101//40 102//41
f  102//41 101//40 103//42
f  103//42 101//40 104//43
f  104//43 101//40 105//44
f  57//3 106//45 55//2
f  67//46 41//46 63//46
f  41//46 67//46 43//47
f  66//48 43//48 67//48
f  43//48 66//48 44//49
f  77//50 44//50 66//50
f  44//50 77//50 46//51
f  78//52 46//52 77//52
f  46//52 78//52 48//52
f  80//53 48//53 78//53
f  48//53 80//53 49//54
f  102//55 49//55 80//55
f  49//55 102//55 51//55
f  103//56 51//56 102//56
f  51//56 103//56 52//57
f  104//58 52//58 103//58
f  52//58 104//58 53//59
f  50//60 104//60 105//60
f  104//60 50//60 53//60
f  47//61 105//61 101//61
f  105//61 47//61 50//62
f  45//63 101//63 100//63
f  101//63 45//63 47//64
f  42//65 100//65 99//65
f  100//65 42//65 45//65
f  40//66 99//66 98//66
f  99//66 40//66 42//66
f  37//67 98//67 97//67
f  98//67 37//67 40//67
f  34//68 97//68 96//68
f  97//68 34//68 37//68
f  32//69 96//69 95//69
f  96//69 32//69 34//70
f  30//71 95//71 94//71
f  95//71 30//71 32//72
f  29//73 94//73 93//73
f  94//73 29//73 30//74
f  27//75 93//75 92//75
f  93//75 27//75 29//76
f  26//77 92//77 91//77
f  92//77 26//77 27//77
f  25//78 91//78 90//78
f  91//78 25//78 26//78
f  24//79 90//79 89//79
f  90//79 24//79 25//80
f  22//81 89//81 88//81
f  89//81 22//81 24//82
f  20//83 88//83 87//83
f  88//83 20//83 22//83
f  19//84 87//84 86//84
f  87//84 19//84 20//85
f  17//86 86//86 85//86
f  86//86 17//86 19//86
f  16//87 85//87 84//87
f  85//87 16//87 17//87
f  15//88 84//88 83//88
f  84//88 15//88 16//89
f  13//90 83//90 82//90
f  83//90 13//90 15//91
f  12//92 82//92 81//92
f  82//92 12//92 13//93
f  10//94 81//94 79//94
f  81//94 10//94 12//94
f  8//95 79//95 76//95
f  79//95 8//95 10//96
f  6//97 76//97 75//97
f  76//97 6//97 8//97
f  4//98 75//98 74//98
f  75//98 4//98 6//99
f  2//100 74//100 73//100
f  74//100 2//100 4//101
f  3//102 73//102 72//102
f  73//102 3//102 2//102
f  71//103 3//103 72//103
f  3//103 71//103 1//103
f  70//104 1//104 71//104
f  1//104 70//104 5//105
f  69//106 5//106 70//106
f  5//106 69//106 7//107
f  68//108 7//108 69//108
f  7//108 68//108 9//108
f  65//109 9//109 68//109
f  9//109 65//109 11//109
f  60//110 11//110 65//110
f  11//110 60//110 14//110
f  62//111 14//111 60//111
f  14//111 62//111 18//111
f  61//112 18//112 62//112
f  18//112 61//112 21//112
f  58//113 21//113 61//113
f  21//113 58//113 23//114
f  59//115 23//115 58//115
f  23//115 59//115 28//116
f  54//117 28//117 59//117
f  28//117 54//117 31//118
f  56//119 31//119 54//119
f  31//119 56//119 33//119
f  55//120 33//120 56//120
f  33//120 55//120 35//121
f  106//122 35//122 55//122
f  35//122 106//122 36//123
f  57//124 36//124 106//124
f  36//124 57//124 38//124
f  64//125 38//125 57//125
f  38//125 64//125 39//125
f  63//126 39//126 64//126
f  39//126 63//126 41//126

