# {"id":"BLDG_0003000b000658fe","idOriginal":"BLDG_0003000b000658fe","origin":[13.356915961827294,52.505554959971825],"elevation":34.3300018310547}
# Longitude: 13.356915961827294
# Latitude: 52.505554959971825
# Elevation: 34.3300018310547

# File produced by Open Asset Import Library (http://www.assimp.sf.net)
# (assimp v3.1.0)

mtllib BLDG_0003000b000658fe.obj.mtl

# 12 vertex positions
v  10.191 -2.0797e-16 3.39641
v  13.7764 9.40481e-17 -1.53592
v  11.9413 -2.43679e-16 3.97959
v  0 0 0
v  13.9906 1.33486e-16 -2.17999
v  2.05 3.77165e-16 -6.15957
v  0.000259411 12.1769 -0.00038469
v  13.9909 12.1769 -2.18038
v  2.05026 12.1769 -6.15995
v  10.1913 12.1769 3.39603
v  11.9415 12.1769 3.9792
v  13.7766 12.1769 -1.53631

# 0 UV coordinates

# 13 vertex normals
vn -1.60442e-23 -1 -6.12323e-17
vn 8.47808e-25 -1 -6.12323e-17
vn 0 -1 -6.12323e-17
vn 0 -1 -6.12323e-17
vn 0 1 0
vn -0.316178 3.67165e-05 0.9487
vn -0.316109 3.67106e-05 0.948723
vn 0.948857 -1.02263e-05 0.315705
vn 0.948872 -1.0242e-05 0.315661
vn 0.948872 -1.02384e-05 0.315661
vn 0.316182 -3.67157e-05 -0.948698
vn -0.948831 1.02372e-05 -0.315786
vn -0.948831 1.02333e-05 -0.315786

# Mesh 'defaultobject' with 20 faces
g defaultobject
usemtl DefaultMaterial
f  1//1 2//1 3//1
f  2//1 1//1 4//2
f  2//1 4//2 5//3
f  5//3 4//2 6//4
f  7//5 8//5 9//5
f  8//5 7//5 10//5
f  8//5 10//5 11//5
f  8//5 11//5 12//5
f  1//6 7//6 4//6
f  7//6 1//6 10//6
f  3//7 10//7 1//7
f  10//7 3//7 11//7
f  2//8 11//8 3//8
f  11//8 2//8 12//8
f  5//9 12//9 2//9
f  12//9 5//9 8//10
f  9//11 5//11 6//11
f  5//11 9//11 8//11
f  7//12 6//12 4//12
f  6//12 7//12 9//13

