# {"id":"BLDG_0003000f00294f0a","idOriginal":"BLDG_0003000f00294f0a","origin":[13.396292063045683,52.51932754763165],"elevation":33.9199981689453}
# Longitude: 13.396292063045683
# Latitude: 52.51932754763165
# Elevation: 33.9199981689453

# File produced by Open Asset Import Library (http://www.assimp.sf.net)
# (assimp v3.1.0)

mtllib BLDG_0003000f00294f0a.obj.mtl

# 10 vertex positions
v  10.0775 -6.99244e-17 1.14195
v  0 0 0
v  8.55996 1.95116e-16 -3.18649
v  3.70892 -6.49479e-16 10.6068
v  11.5315 -3.20541e-16 5.23483
v  10.0776 6.94817 1.14173
v  8.56011 6.94817 -3.18671
v  0.000148399 6.94817 -0.0002197
v  3.70907 6.94817 10.6066
v  11.5316 6.94817 5.23461

# 0 UV coordinates

# 12 vertex normals
vn 0 -1 -6.12323e-17
vn -5.31687e-24 -1 -6.12323e-17
vn 0.943683 -3.06725e-05 -0.33085
vn -0.348867 -2.21821e-05 -0.937172
vn -0.348867 -2.21798e-05 -0.937172
vn -0.943954 3.06124e-05 0.330076
vn -0.943954 3.05979e-05 0.330076
vn 0.566096 1.40011e-05 0.824339
vn 0.566096 1.38854e-05 0.824339
vn 0.942305 -3.07472e-05 -0.334755
vn 0.942305 -3.0763e-05 -0.334755
vn 0 1 -0

# Mesh 'defaultobject' with 16 faces
g defaultobject
usemtl DefaultMaterial
f  1//1 2//1 3//1
f  2//1 1//1 4//1
f  4//1 1//1 5//2
f  3//3 6//3 1//3
f  6//3 3//3 7//3
f  8//4 3//4 2//4
f  3//4 8//4 7//5
f  9//6 2//6 4//6
f  2//6 9//6 8//7
f  5//8 9//8 4//8
f  9//8 5//8 10//9
f  1//10 10//10 5//10
f  10//10 1//10 6//11
f  6//12 9//12 10//12
f  9//12 6//12 7//12
f  9//12 7//12 8//12

