# {"id":"BLDG_0003000e0011fbcb","idOriginal":"BLDG_0003000e0011fbcb","origin":[13.350878156952554,52.52831081102701],"elevation":33.939998626709}
# Longitude: 13.350878156952554
# Latitude: 52.52831081102701
# Elevation: 33.939998626709

# File produced by Open Asset Import Library (http://www.assimp.sf.net)
# (assimp v3.1.0)

mtllib BLDG_0003000e0011fbcb.obj.mtl

# 16 vertex positions
v  16.1865 -1.78861e-17 0.292102
v  0.000356833 16.7553 -0.00053014
v  0 0 0
v  16.1869 16.7553 0.291572
v  16.2136 6.33075e-16 -10.3389
v  16.214 16.7553 -10.3394
v  9.9024 16.7553 -10.4473
v  9.90205 6.39681e-16 -10.4468
v  9.91033 6.70277e-16 -10.9465
v  9.91069 16.7553 -10.947
v  6.7119 16.7553 -11.0024
v  6.71154 6.73668e-16 -11.0018
v  6.7036 16.7553 -10.5021
v  6.70325 6.43034e-16 -10.5015
v  0.280387 16.7553 -10.6127
v  0.280031 6.49807e-16 -10.6122

# 0 UV coordinates

# 20 vertex normals
vn -0.0180431 3.20201e-05 0.999837
vn -0.0180431 3.20183e-05 0.999837
vn 0.999997 -2.12064e-05 0.00255018
vn 0.01709 -3.20054e-05 -0.999854
vn 0.999863 -2.07596e-05 0.0165812
vn 0.0173066 -3.20104e-05 -0.99985
vn 0.0173066 -3.20099e-05 -0.99985
vn -0.999862 2.07595e-05 -0.0165829
vn -0.999862 2.07879e-05 -0.0165838
vn 0.0172187 -3.20083e-05 -0.999852
vn 0.0172187 -3.20081e-05 -0.999852
vn -0.999652 2.04547e-05 -0.0263786
vn -0.999652 2.04539e-05 -0.0263785
vn 0 1 0
vn -7.69082e-26 -1 -6.12323e-17
vn -2.66658e-24 -1 -6.12323e-17
vn -4.57929e-24 -1 -6.12323e-17
vn 2.13481e-24 -1 -6.12323e-17
vn -6.14369e-24 -1 -6.12323e-17
vn -2.13798e-23 -1 -6.12324e-17

# Mesh 'defaultobject' with 28 faces
g defaultobject
usemtl DefaultMaterial
f  1//1 2//1 3//1
f  2//1 1//1 4//2
f  5//3 4//3 1//3
f  4//3 5//3 6//3
f  7//4 5//4 8//4
f  5//4 7//4 6//4
f  9//5 7//5 8//5
f  7//5 9//5 10//5
f  11//6 9//6 12//6
f  9//6 11//6 10//7
f  13//8 12//8 14//8
f  12//8 13//8 11//9
f  15//10 14//10 16//10
f  14//10 15//10 13//11
f  2//12 16//12 3//12
f  16//12 2//12 15//13
f  4//14 15//14 2//14
f  15//14 4//14 13//14
f  13//14 4//14 7//14
f  7//14 4//14 6//14
f  13//14 7//14 11//14
f  10//14 11//14 7//14
f  3//15 5//15 1//15
f  5//15 3//15 8//16
f  8//16 3//15 14//17
f  14//17 3//15 16//18
f  8//16 14//17 9//19
f  12//20 9//19 14//17

