# {"id":"BLDG_0003000f003346b3","idOriginal":"BLDG_0003000f003346b3","origin":[13.364828130721863,52.54817197518378],"elevation":35.9199981689453}
# Longitude: 13.364828130721863
# Latitude: 52.54817197518378
# Elevation: 35.9199981689453

# File produced by Open Asset Import Library (http://www.assimp.sf.net)
# (assimp v3.1.0)

mtllib BLDG_0003000f003346b3.obj.mtl

# 62 vertex positions
v  18.2819 -7.61034e-17 1.24286
v  19.5286 4.92459e-17 -0.804246
v  19.9433 2.27411e-17 -0.371391
v  15.7748 -2.2527e-16 3.67893
v  17.0227 -9.99219e-17 1.63185
v  17.4362 -1.26427e-16 2.06472
v  25.6161 4.11476e-16 -6.71991
v  16.7635 9.9421e-16 -16.2367
v  25.7892 4.22418e-16 -6.8986
v  21.9282 1.91988e-16 -3.13541
v  17.8672 -4.95988e-17 0.810009
v  15.3607 -1.98766e-16 3.24609
v  15.6605 5.16513e-16 -8.43529
v  9.12124 -5.72698e-16 9.35286
v  15.5904 5.2088e-16 -8.50662
v  15.547 7.18818e-16 -11.7392
v  13.3231 8.62294e-16 -14.0823
v  15.9011 1.04903e-15 -17.132
v  15.7431 1.03973e-15 -16.98
v  13.3339 8.97241e-16 -14.6531
v  13.0454 8.80188e-16 -14.3746
v  12.8628 3.4956e-16 -5.70875
v  10.6497 2.17559e-16 -3.55302
v  7.90184 5.3672e-17 -0.87653
v  0 0 0
v  4.47102 5.66914e-17 -0.92584
v  2.75478 1.64491e-16 -2.68635
v  10.9778 4.68028e-16 -7.64347
v  8.79282 3.3428e-16 -5.4592
v  10.2609 4.66719e-16 -7.6221
v  8.82844 3.80159e-16 -6.20847
v  17.0232 21.386 1.63117
v  17.8676 21.386 0.809332
v  18.2823 21.386 1.24219
v  19.9438 21.386 -0.372068
v  19.5291 21.386 -0.804923
v  21.9286 21.386 -3.13608
v  25.6166 21.386 -6.72059
v  25.7896 21.386 -6.89928
v  16.7639 21.386 -16.2374
v  15.9015 21.386 -17.1327
v  15.7436 21.386 -16.9807
v  13.3344 21.386 -14.6537
v  13.0459 21.386 -14.3752
v  13.3235 21.386 -14.083
v  15.5474 21.386 -11.7399
v  15.5909 21.386 -8.5073
v  15.6609 21.386 -8.43597
v  12.8633 21.386 -5.70943
v  10.9782 21.386 -7.64415
v  10.2613 21.386 -7.62278
v  8.8289 21.386 -6.20915
v  8.79328 21.386 -5.45988
v  10.6502 21.386 -3.55369
v  7.90229 21.386 -0.877207
v  4.47148 21.386 -0.926518
v  2.75524 21.386 -2.68703
v  0.00045588 21.386 -0.00067754
v  9.12169 21.386 9.35219
v  15.3611 21.386 3.24541
v  15.7752 21.386 3.67826
v  17.4367 21.386 2.06404

# 0 UV coordinates

# 76 vertex normals
vn -9.53105e-24 -1 -6.12324e-17
vn 0 -1 -6.12323e-17
vn 1.27065e-22 -1 -6.12325e-17
vn 0 -1 -6.12323e-17
vn -2.57005e-22 -1 -6.12323e-17
vn 0 -1 -6.12323e-17
vn 0 -1 -6.12323e-17
vn 1.02601e-22 -1 -6.12323e-17
vn 2.05952e-23 -1 -6.12324e-17
vn 1.87606e-23 -1 -6.12324e-17
vn 1.47396e-22 -1 -6.12322e-17
vn -5.88328e-23 -1 -6.12324e-17
vn 0 -1 -6.12324e-17
vn 5.30462e-23 -1 -6.12323e-17
vn -8.3808e-24 -1 -6.12323e-17
vn 6.74973e-24 -1 -6.12323e-17
vn 0 -1 -6.12323e-17
vn -1.03493e-24 -1 -6.12323e-17
vn -6.34358e-24 -1 -6.12323e-17
vn 1.28792e-23 -1 -6.12323e-17
vn 1.78316e-23 -1 -6.12323e-17
vn 5.17527e-23 -1 -6.12323e-17
vn 0.697453 7.83611e-06 0.716631
vn 0.697453 7.84084e-06 0.716631
vn -0.722084 3.73067e-05 0.691805
vn -0.722084 3.73106e-05 0.691805
vn 0.696845 7.86369e-06 0.717222
vn 0.696845 7.86851e-06 0.717222
vn 0.722085 -3.73091e-05 -0.691804
vn 0.722085 -3.73114e-05 -0.691804
vn 0.696814 7.87109e-06 0.717252
vn 0.696814 7.8511e-06 0.717252
vn 0.696979 7.85578e-06 0.717092
vn 0.696979 7.86445e-06 0.717092
vn 0.718324 6.73108e-06 0.695709
vn 0.719031 -3.73311e-05 -0.694978
vn 0.719031 -3.7386e-05 -0.694978
vn 0.720222 -3.73786e-05 -0.693744
vn 0.720221 -3.73181e-05 -0.693744
vn -0.693431 -8.03178e-06 -0.720523
vn -0.694722 -7.99691e-06 -0.719278
vn -0.694722 -7.96484e-06 -0.719278
vn -0.694539 -7.97435e-06 -0.719455
vn -0.69454 -8.00637e-06 -0.719454
vn -0.72501 3.72604e-05 0.688738
vn -0.725318 3.72567e-05 0.688414
vn -0.99991 2.17399e-05 0.0134405
vn -0.99991 2.17393e-05 0.0134405
vn -0.713474 3.73927e-05 0.700682
vn -0.713479 3.74239e-05 0.700677
vn -0.697946 -7.81307e-06 -0.716151
vn -0.697946 -7.79711e-06 -0.716151
vn 0.716244 -3.73799e-05 -0.69785
vn 0.716244 -3.73634e-05 -0.69785
vn -0.0297993 -3.10343e-05 -0.999556
vn -0.0297986 -3.10121e-05 -0.999556
vn -0.702418 -7.57879e-06 -0.711765
vn -0.998872 1.97871e-05 -0.0474855
vn -0.716308 3.73691e-05 0.697784
vn -0.716308 3.73769e-05 0.697784
vn -0.69774 -7.82184e-06 -0.716352
vn -0.697739 -7.81585e-06 -0.716352
vn 0.0143713 -3.19839e-05 -0.999897
vn 0.716052 -3.73768e-05 -0.698047
vn -0.698158 -7.79967e-06 -0.715943
vn -0.698158 -7.80197e-06 -0.715943
vn -0.715916 3.73968e-05 0.698186
vn -0.715916 3.73806e-05 0.698186
vn 0.699469 7.74331e-06 0.714663
vn 0.699469 7.72288e-06 0.714663
vn -0.722584 3.73047e-05 0.691283
vn -0.722584 3.7297e-05 0.691284
vn 0.696836 7.8686e-06 0.71723
vn 0.723114 -3.72993e-05 -0.690729
vn 0.723114 -3.72947e-05 -0.690729
vn 0 1 0

# Mesh 'defaultobject' with 120 faces
g defaultobject
usemtl DefaultMaterial
f  1//1 2//1 3//1
f  4//2 5//2 6//2
f  7//3 8//3 9//3
f  8//3 7//3 10//4
f  8//3 10//4 2//1
f  8//3 2//1 1//1
f  8//3 1//1 11//5
f  8//3 11//5 5//2
f  8//3 5//2 4//2
f  8//3 4//2 12//6
f  8//3 12//6 13//4
f  13//4 12//6 14//2
f  8//3 13//4 15//7
f  8//3 15//7 16//8
f  8//3 16//8 17//9
f  8//3 17//9 18//10
f  18//10 17//9 19//11
f  19//11 17//9 20//12
f  20//12 17//9 21//13
f  14//2 22//14 13//4
f  22//14 14//2 23//15
f  23//15 14//2 24//16
f  24//16 14//2 25//17
f  24//16 25//17 26//18
f  26//18 25//17 27//2
f  23//15 28//19 22//14
f  28//19 23//15 29//20
f  28//19 29//20 30//21
f  30//21 29//20 31//22
f  11//23 32//23 5//23
f  32//23 11//23 33//24
f  34//25 11//25 1//25
f  11//25 34//25 33//26
f  3//27 34//27 1//27
f  34//27 3//27 35//28
f  2//29 35//29 3//29
f  35//29 2//29 36//30
f  10//31 36//31 2//31
f  36//31 10//31 37//32
f  7//33 37//33 10//33
f  37//33 7//33 38//34
f  9//35 38//35 7//35
f  38//35 9//35 39//35
f  8//36 39//36 9//36
f  39//36 8//36 40//37
f  18//38 40//38 8//38
f  40//38 18//38 41//39
f  42//40 18//40 19//40
f  18//40 42//40 41//40
f  43//41 19//41 20//41
f  19//41 43//41 42//42
f  44//43 20//43 21//43
f  20//43 44//43 43//44
f  45//45 21//45 17//45
f  21//45 45//45 44//45
f  46//46 17//46 16//46
f  17//46 46//46 45//46
f  47//47 16//47 15//47
f  16//47 47//47 46//48
f  48//49 15//49 13//49
f  15//49 48//49 47//50
f  49//51 13//51 22//51
f  13//51 49//51 48//52
f  28//53 49//53 22//53
f  49//53 28//53 50//54
f  51//55 28//55 30//55
f  28//55 51//55 50//56
f  52//57 30//57 31//57
f  30//57 52//57 51//57
f  53//58 31//58 29//58
f  31//58 53//58 52//58
f  54//59 29//59 23//59
f  29//59 54//59 53//60
f  55//61 23//61 24//61
f  23//61 55//61 54//62
f  56//63 24//63 26//63
f  24//63 56//63 55//63
f  27//64 56//64 26//64
f  56//64 27//64 57//64
f  58//65 27//65 25//65
f  27//65 58//65 57//66
f  59//67 25//67 14//67
f  25//67 59//67 58//68
f  12//69 59//69 14//69
f  59//69 12//69 60//70
f  61//71 12//71 4//71
f  12//71 61//71 60//72
f  6//73 61//73 4//73
f  61//73 6//73 62//73
f  5//74 62//74 6//74
f  62//74 5//74 32//75
f  62//76 60//76 61//76
f  35//76 33//76 34//76
f  60//76 58//76 59//76
f  58//76 60//76 62//76
f  58//76 62//76 32//76
f  58//76 32//76 33//76
f  58//76 33//76 35//76
f  58//76 35//76 36//76
f  58//76 36//76 55//76
f  55//76 36//76 37//76
f  55//76 37//76 54//76
f  54//76 37//76 38//76
f  54//76 38//76 49//76
f  49//76 38//76 48//76
f  48//76 38//76 39//76
f  48//76 39//76 40//76
f  48//76 40//76 47//76
f  47//76 40//76 46//76
f  46//76 40//76 45//76
f  45//76 40//76 44//76
f  44//76 40//76 43//76
f  43//76 40//76 42//76
f  42//76 40//76 41//76
f  49//76 53//76 54//76
f  53//76 49//76 50//76
f  53//76 50//76 52//76
f  52//76 50//76 51//76
f  58//76 56//76 57//76
f  56//76 58//76 55//76

