# {"id":"BLDG_0003000a0018eb4b","idOriginal":"BLDG_0003000a0018eb4b","origin":[13.387605030540248,52.55743825423152],"elevation":40.7799987792969}
# Longitude: 13.387605030540248
# Latitude: 52.55743825423152
# Elevation: 40.7799987792969

# File produced by Open Asset Import Library (http://www.assimp.sf.net)
# (assimp v3.1.0)

mtllib BLDG_0003000a0018eb4b.obj.mtl

# 8 vertex positions
v  8.76058 3.00308e-16 -4.9044
v  5.04238 3.87591 2.5198
v  5.04229 -1.54301e-16 2.51993
v  8.76066 3.87591 -4.90453
v  7.1277e-05 3.33875 -0.00010584
v  0 0 0
v  3.71828 4.54609e-16 -7.42433
v  3.71835 3.33875 -7.42444

# 0 UV coordinates

# 10 vertex normals
vn 0.894132 -4.97829e-06 0.447803
vn -0.44704 3.78526e-05 0.894514
vn -0.44704 3.78883e-05 0.894514
vn -0.894132 4.89272e-06 -0.447803
vn -0.894132 4.89307e-06 -0.447803
vn 0.44704 -3.79062e-05 -0.894514
vn 0.44704 -3.7852e-05 -0.894514
vn 9.04844e-24 -1 -6.12323e-17
vn 0 -1 -6.12323e-17
vn -0.0848204 0.99549 -0.04248

# Mesh 'defaultobject' with 12 faces
g defaultobject
usemtl DefaultMaterial
f  1//1 2//1 3//1
f  2//1 1//1 4//1
f  3//2 5//2 6//2
f  5//2 3//2 2//3
f  5//4 7//4 6//4
f  7//4 5//4 8//5
f  8//6 1//6 7//6
f  1//6 8//6 4//7
f  3//8 7//8 1//8
f  7//8 3//8 6//9
f  8//10 2//10 4//10
f  2//10 8//10 5//10

