# {"id":"BLDG_00030009007e0f1a","idOriginal":"BLDG_00030009007e0f1a","origin":[13.391969453297778,52.54433492875965],"elevation":46.5800018310547}
# Longitude: 13.391969453297778
# Latitude: 52.54433492875965
# Elevation: 46.5800018310547

# File produced by Open Asset Import Library (http://www.assimp.sf.net)
# (assimp v3.1.0)

mtllib BLDG_00030009007e0f1a.obj.mtl

# 44 vertex positions
v  9.97435 26.6693 9.53218
v  9.29376 26.6693 7.99036
v  5.2419 26.6693 11.6249
v  4.45649 26.6693 10.1261
v  5.75967 26.6693 -2.55203
v  0.00056948 26.6693 -0.00084468
v  9.20877 26.6693 -6.0391
v  12.1217 26.6693 -7.30755
v  12.7487 26.6693 -5.89475
v  12.835 26.6693 -5.69912
v  22.2878 26.6693 -9.92887
v  11.3469 26.6693 7.0835
v  16.9969 26.6693 4.58925
v  24.5777 26.6693 -4.73471
v  17.6775 26.6693 6.13107
v  26.158 26.6693 -5.43757
v  22.4784 26.6693 4.01162
v  28.2813 26.6693 -0.420578
v  25.6415 26.6693 2.62692
v  28.8346 26.6693 1.19281
v  28.9717 26.6693 1.13144
v  5.06266 26.6693 -4.12417
v  5.7591 1.56215e-16 -2.55118
v  4.45592 -6.20098e-16 10.127
v  0 0 0
v  5.24133 -7.11874e-16 11.6258
v  9.29319 -4.8932e-16 7.99121
v  9.97378 -5.8373e-16 9.53303
v  9.2082 3.69737e-16 -6.03826
v  5.06209 2.52481e-16 -4.12333
v  11.3463 -4.33791e-16 7.08435
v  12.1211 4.47407e-16 -7.3067
v  16.9963 -2.81062e-16 4.5901
v  12.7482 3.60897e-16 -5.8939
v  12.8344 3.48919e-16 -5.69828
v  22.2872 6.07916e-16 -9.92803
v  17.6769 -3.75471e-16 6.13191
v  22.4778 -2.45692e-16 4.01246
v  25.641 -1.60904e-16 2.62777
v  24.5771 2.89866e-16 -4.73387
v  26.1574 3.32904e-16 -5.43673
v  28.834 -7.30904e-17 1.19366
v  28.2808 2.57012e-17 -0.419733
v  28.9712 -6.93322e-17 1.13228

# 0 UV coordinates

# 59 vertex normals
vn 0 1 0
vn 0 -1 -6.12323e-17
vn -2.6668e-23 -1 -6.12323e-17
vn -7.62253e-24 -1 -6.12323e-17
vn 1.21408e-23 -1 -6.12323e-17
vn -3.37065e-24 -1 -6.12323e-17
vn 3.66606e-24 -1 -6.12323e-17
vn -2.06911e-23 -1 -6.12323e-17
vn 8.00323e-24 -1 -6.12323e-17
vn 0 -1 -6.12326e-17
vn 0 -1 -6.12325e-17
vn 7.37467e-24 -1 -6.12323e-17
vn -1.17392e-23 -1 -6.12323e-17
vn -6.29001e-24 -1 -6.12323e-17
vn 2.38685e-24 -1 -6.12323e-17
vn -3.7373e-23 -1 -6.12323e-17
vn 0 -1 -6.12323e-17
vn 2.11677e-24 -1 -6.12323e-17
vn 0 -1 -6.12323e-17
vn -3.24051e-23 -1 -6.12323e-17
vn 0.914018 -3.2358e-05 -0.405674
vn 0.914018 -3.23652e-05 -0.405674
vn -0.399245 -2.04942e-05 -0.916844
vn -0.399245 -2.05085e-05 -0.916844
vn -0.419301 -1.9788e-05 -0.907847
vn -0.419301 -1.97805e-05 -0.907847
vn -0.914183 3.23536e-05 0.405302
vn -0.914183 3.23664e-05 0.405302
vn -0.405022 -2.03096e-05 -0.914307
vn -0.405022 -2.0313e-05 -0.914307
vn -0.915313 3.23003e-05 0.402743
vn -0.915313 3.23008e-05 0.402743
vn -0.885755 3.36149e-05 0.464154
vn 0.404435 2.03449e-05 0.914567
vn 0.914835 -3.23171e-05 -0.403827
vn 0.914835 -3.2325e-05 -0.403827
vn 0.404043 2.03395e-05 0.91474
vn 0.403856 2.03748e-05 0.914823
vn 0.403856 2.03459e-05 0.914823
vn -0.914834 3.23572e-05 0.40383
vn -0.914834 3.22918e-05 0.403831
vn 0.403862 2.03259e-05 0.91482
vn 0.403862 2.03464e-05 0.91482
vn 0.40102 2.04691e-05 0.916069
vn 0.40102 2.04328e-05 0.916069
vn 0.409711 2.01614e-05 0.912216
vn 0.408418 2.01739e-05 0.912795
vn 0.408423 2.02071e-05 0.912793
vn 0.913674 -3.24115e-05 -0.406447
vn 0.913674 -3.24088e-05 -0.406447
vn 0.920916 -3.19664e-05 -0.389762
vn 0.920916 -3.2032e-05 -0.389762
vn -0.406392 -2.02708e-05 -0.913699
vn 0.915021 -3.22848e-05 -0.403406
vn 0.915021 -3.22785e-05 -0.403406
vn -0.408437 -2.01855e-05 -0.912786
vn -0.408437 -2.02147e-05 -0.912786
vn 0.914962 -3.23182e-05 -0.403541
vn 0.914963 -3.23509e-05 -0.403537

# Mesh 'defaultobject' with 84 faces
g defaultobject
usemtl DefaultMaterial
f  1//1 2//1 3//1
f  4//1 5//1 6//1
f  5//1 4//1 7//1
f  7//1 4//1 8//1
f  8//1 4//1 9//1
f  9//1 4//1 10//1
f  10//1 4//1 11//1
f  11//1 4//1 3//1
f  11//1 3//1 2//1
f  11//1 2//1 12//1
f  11//1 12//1 13//1
f  11//1 13//1 14//1
f  14//1 13//1 15//1
f  14//1 15//1 16//1
f  16//1 15//1 17//1
f  16//1 17//1 18//1
f  18//1 17//1 19//1
f  18//1 19//1 20//1
f  18//1 20//1 21//1
f  7//1 22//1 5//1
f  23//2 24//2 25//2
f  24//2 23//2 26//3
f  26//3 23//2 27//4
f  26//3 27//4 28//5
f  29//6 23//2 30//6
f  23//2 29//6 27//4
f  27//4 29//6 31//7
f  31//7 29//6 32//8
f  31//7 32//8 33//9
f  33//9 32//8 34//10
f  33//9 34//10 35//11
f  33//9 35//11 36//12
f  33//9 36//12 37//13
f  37//13 36//12 38//14
f  38//14 36//12 39//15
f  39//15 36//12 40//16
f  39//15 40//16 41//17
f  39//15 41//17 42//18
f  42//18 41//17 43//19
f  42//18 43//19 44//20
f  9//21 32//21 8//21
f  32//21 9//21 34//22
f  7//23 32//23 29//23
f  32//23 7//23 8//24
f  22//25 29//25 30//25
f  29//25 22//25 7//26
f  5//27 30//27 23//27
f  30//27 5//27 22//28
f  6//29 23//29 25//29
f  23//29 6//29 5//30
f  4//31 25//31 24//31
f  25//31 4//31 6//32
f  3//33 24//33 26//33
f  24//33 3//33 4//33
f  3//34 28//34 1//34
f  28//34 3//34 26//34
f  1//35 27//35 2//35
f  27//35 1//35 28//36
f  2//37 31//37 12//37
f  31//37 2//37 27//37
f  12//38 33//38 13//38
f  33//38 12//38 31//39
f  15//40 33//40 37//40
f  33//40 15//40 13//41
f  15//42 38//42 17//42
f  38//42 15//42 37//43
f  17//44 39//44 19//44
f  39//44 17//44 38//45
f  19//46 42//46 20//46
f  42//46 19//46 39//46
f  20//47 44//47 21//47
f  44//47 20//47 42//48
f  21//49 43//49 18//49
f  43//49 21//49 44//50
f  18//51 41//51 16//51
f  41//51 18//51 43//52
f  14//53 41//53 40//53
f  41//53 14//53 16//53
f  14//54 36//54 11//54
f  36//54 14//54 40//55
f  10//56 36//56 35//56
f  36//56 10//56 11//57
f  10//58 34//58 9//58
f  34//58 10//58 35//59

