# {"id":"BLDG_0003000e003f2391","idOriginal":"BLDG_0003000e003f2391","origin":[13.36569337768559,52.54045097123404],"elevation":34.3899993896484}
# Longitude: 13.36569337768559
# Latitude: 52.54045097123404
# Elevation: 34.3899993896484

# File produced by Open Asset Import Library (http://www.assimp.sf.net)
# (assimp v3.1.0)

mtllib BLDG_0003000e003f2391.obj.mtl

# 46 vertex positions
v  -27.5707 2.28909e-15 -37.3837
v  -32.3559 2.68642e-15 -43.8726
v  -20.7073 2.60452e-15 -42.535
v  -29.1672 3.30466e-15 -53.9692
v  -33.9477 3.36154e-15 -54.8981
v  -29.1832 3.32964e-15 -54.3772
v  -39.082 3.03425e-15 -49.5531
v  -32.7537 2.66117e-15 -43.4603
v  2.30614 -0.369999 3.12677
v  13.8657 -0.369999 2.30434
v  6.02581 -0.369999 8.1697
v  1.28936 -0.369999 1.74827
v  0 -0.369999 -2.26559e-17
v  7.00181 -0.369999 -5.08217
v  7.95592 -0.369999 -5.67005
v  -20.7073 -0.259998 -42.535
v  -26.7794 -0.259998 -36.311
v  -27.5707 -0.259998 -37.3837
v  -19.944 -0.259998 -27.0422
v  -14.3187 -0.259998 -19.415
v  2.34501e-06 -0.259998 -3.4906e-06
v  7.00181 -0.259998 -5.08218
v  -19.7887 -0.259998 -41.2935
v  -20.7069 16.6312 -42.5355
v  -29.1668 16.6312 -53.9697
v  -29.1829 16.6312 -54.3777
v  -33.9474 16.6312 -54.8986
v  -39.0817 16.6312 -49.5537
v  -32.7534 16.6312 -43.4608
v  -32.3556 16.6312 -43.8731
v  -27.5703 16.6312 -37.3842
v  1.28976 18.1261 1.74769
v  0.00039429 18.1261 -0.00058569
v  2.30654 18.1261 3.12618
v  6.02621 18.1261 8.16911
v  13.8661 18.1261 2.30376
v  7.95631 18.1261 -5.67064
v  7.0022 18.1261 -5.08276
v  -26.779 17.0365 -36.3115
v  -27.5703 17.0365 -37.3843
v  -19.9436 17.0365 -27.0428
v  -14.3183 17.0365 -19.4156
v  0.000371065 17.0365 -0.00055119
v  7.00218 17.0365 -5.08273
v  -19.7884 17.0365 -41.2941
v  -20.7069 17.0365 -42.5355

# 0 UV coordinates

# 46 vertex normals
vn 3.36678e-23 -1 -6.12323e-17
vn 1.9659e-23 -1 -6.12324e-17
vn 6.30955e-24 -1 -6.12323e-17
vn -2.10361e-22 -1 -6.12321e-17
vn 0 -1 0
vn 0.803889 -3.59609e-05 -0.594779
vn 0.999228 -2.25583e-05 -0.0392817
vn 0.108688 -3.37839e-05 -0.994076
vn -0.721178 -6.70933e-06 -0.69275
vn -0.721177 -6.54393e-06 -0.69275
vn -0.69358 3.75972e-05 0.720379
vn -0.69358 3.74381e-05 0.72038
vn 0.719637 6.6273e-06 0.69435
vn -0.804823 3.58622e-05 0.593515
vn -0.804823 3.59545e-05 0.593515
vn 0.600275 1.2589e-05 0.799794
vn 0.600275 1.25356e-05 0.799794
vn -0.804801 3.59481e-05 0.593545
vn -0.804801 3.59514e-05 0.593545
vn -0.804764 3.59475e-05 0.593596
vn -0.804764 3.59489e-05 0.593596
vn -0.804764 3.59502e-05 0.593595
vn 0.599046 1.25754e-05 0.800714
vn 0.599046 1.25543e-05 0.800714
vn 0.80342 -3.59893e-05 -0.595413
vn 0.80342 -3.59893e-05 -0.595413
vn -0.52457 -1.57908e-05 -0.851367
vn -0.587412 -1.31045e-05 -0.809288
vn -0.587412 -1.31178e-05 -0.809288
vn -0.804743 3.59799e-05 0.593623
vn -0.804742 3.5849e-05 0.593624
vn -0.804815 3.59129e-05 0.593526
vn -0.804815 3.59783e-05 0.593526
vn -0.804791 3.59578e-05 0.593558
vn -0.804791 3.59134e-05 0.593558
vn -0.804801 3.59511e-05 0.593545
vn -0.804801 3.59576e-05 0.593545
vn 0.587412 1.31281e-05 0.809288
vn 0.587412 1.31026e-05 0.809288
vn 0.803904 -3.59578e-05 -0.594759
vn 0.803904 -3.58794e-05 -0.594759
vn 0.803888 -3.58686e-05 -0.594781
vn 0.80389 -3.60873e-05 -0.594779
vn -0.600275 -1.24486e-05 -0.799794
vn -0.600275 -1.25587e-05 -0.799794
vn 0 1 0

# Mesh 'defaultobject' with 80 faces
g defaultobject
usemtl DefaultMaterial
f  1//1 2//1 3//1
f  4//2 5//2 6//2
f  5//2 4//2 3//1
f  5//2 3//1 7//3
f  7//3 3//1 2//1
f  7//3 2//1 8//4
f  9//5 10//5 11//5
f  10//5 9//5 12//5
f  10//5 12//5 13//5
f  10//5 13//5 14//5
f  10//5 14//5 15//5
f  16//5 17//5 18//5
f  17//5 16//5 19//5
f  19//5 16//5 20//5
f  20//5 16//5 21//5
f  21//5 16//5 22//5
f  22//5 16//5 23//5
f  4//6 24//6 3//6
f  24//6 4//6 25//6
f  6//7 25//7 4//7
f  25//7 6//7 26//7
f  27//8 6//8 5//8
f  6//8 27//8 26//8
f  28//9 5//9 7//9
f  5//9 28//9 27//10
f  29//11 7//11 8//11
f  7//11 29//11 28//12
f  2//13 29//13 8//13
f  29//13 2//13 30//13
f  31//14 2//14 1//14
f  2//14 31//14 30//15
f  3//16 31//16 1//16
f  31//16 3//16 24//17
f  32//18 13//18 12//18
f  13//18 32//18 33//19
f  34//20 12//20 9//20
f  12//20 34//20 32//21
f  35//22 9//20 11//22
f  9//20 35//22 34//20
f  10//23 35//23 11//23
f  35//23 10//23 36//24
f  15//25 36//25 10//25
f  36//25 15//25 37//26
f  38//27 15//27 14//27
f  15//27 38//27 37//27
f  33//28 14//28 13//28
f  14//28 33//28 38//29
f  39//30 18//30 17//30
f  18//30 39//30 40//31
f  41//32 17//32 19//32
f  17//32 41//32 39//33
f  42//34 19//34 20//34
f  19//34 42//34 41//35
f  43//36 20//36 21//36
f  20//36 43//36 42//37
f  22//38 43//38 21//38
f  43//38 22//38 44//39
f  23//40 44//40 22//40
f  44//40 23//40 45//41
f  16//42 45//42 23//42
f  45//42 16//42 46//43
f  40//44 16//44 18//44
f  16//44 40//44 46//45
f  25//46 31//46 24//46
f  31//46 25//46 30//46
f  30//46 25//46 29//46
f  29//46 25//46 28//46
f  28//46 25//46 26//46
f  28//46 26//46 27//46
f  32//46 38//46 33//46
f  38//46 32//46 37//46
f  37//46 32//46 36//46
f  36//46 32//46 34//46
f  36//46 34//46 35//46
f  40//46 45//46 46//46
f  45//46 40//46 39//46
f  45//46 39//46 41//46
f  45//46 41//46 44//46
f  44//46 41//46 42//46
f  44//46 42//46 43//46

