# {"id":"BLDG_0003000f001278cc","idOriginal":"BLDG_0003000f001278cc","origin":[13.357175479475298,52.50828555064293],"elevation":29.7299995422363}
# Longitude: 13.357175479475298
# Latitude: 52.50828555064293
# Elevation: 29.7299995422363

# File produced by Open Asset Import Library (http://www.assimp.sf.net)
# (assimp v3.1.0)

mtllib BLDG_0003000f001278cc.obj.mtl

# 46 vertex positions
v  25.1816 1.12 -16.214
v  20.4167 19.373 -3.23681
v  20.4163 1.12 -3.23623
v  25.182 19.373 -16.2146
v  49.1952 1.12 -7.61526
v  49.1956 19.373 -7.61583
v  17.0495 1.12 5.93223
v  12.8278 19.373 4.46259
v  12.8274 1.12 4.46317
v  17.0499 19.373 5.93166
v  21.9946 1.12 7.65276
v  21.995 19.373 7.65218
v  41.1526 1.12 14.3191
v  41.153 19.373 14.3185
v  53.9887 1.12 18.7855
v  53.9891 19.373 18.785
v  58.0184 1.12 7.21324
v  58.0187 19.373 7.21267
v  66.5437 1.12 -17.2629
v  66.5441 19.373 -17.2635
v  35.2113 19.373 -28.1925
v  35.2109 1.12 -28.1919
v  12.6059 19.373 -36.078
v  12.6056 1.12 -36.0775
v  7.68672 19.373 -21.9991
v  7.68633 1.12 -21.9985
v  20.6376 1.12 -17.5621
v  20.638 19.373 -17.5627
v  20.6376 1.07537e-15 -17.5621
v  12.8278 20.0314 4.46257
v  12.8273 -2.73292e-16 4.4632
v  20.638 20.0314 -17.5627
v  7.68674 20.0314 -21.9991
v  7.68631 1.34702e-15 -21.9985
v  0.000426753 20.0314 -0.00063295
v  0 0 0
v  49.1952 3.71 -7.6152
v  44.5182 20.4206 5.14054
v  44.5178 3.71 5.14106
v  49.1955 20.4206 -7.61573
v  25.182 20.4206 -16.2146
v  25.1816 3.71 -16.2141
v  20.4165 20.4206 -3.23681
v  20.4162 3.71 -3.23629
v  44.5183 19.373 5.14046
v  44.5179 1.12 5.14104

# 0 UV coordinates

# 45 vertex normals
vn 0.938717 -9.11547e-06 0.344689
vn 0.938717 -9.13059e-06 0.344689
vn -0.337116 3.6871e-05 0.941463
vn -0.32862 3.68621e-05 0.944462
vn -0.32862 3.68271e-05 0.944462
vn -0.328603 3.68316e-05 0.944468
vn -0.328603 3.68316e-05 0.944468
vn -0.32864 3.6843e-05 0.944455
vn -0.32864 3.68637e-05 0.944455
vn -0.328632 3.6859e-05 0.944458
vn -0.328632 3.68129e-05 0.944458
vn 0.944383 -9.75553e-06 0.328849
vn 0.944383 -9.73848e-06 0.328849
vn 0.944354 -9.77285e-06 0.32893
vn 0.944354 -9.70834e-06 0.32893
vn 0.329344 -3.69163e-05 -0.94421
vn 0.329372 -3.70152e-05 -0.9442
vn 0.329372 -3.69165e-05 -0.9442
vn -0.944034 9.69015e-06 -0.329848
vn -0.944034 9.64588e-06 -0.329848
vn -0.324058 3.67449e-05 0.946037
vn -0.324058 3.68518e-05 0.946037
vn -0.942497 9.52681e-06 -0.334214
vn -0.942497 9.50935e-06 -0.334214
vn 0.942497 -9.51809e-06 0.334214
vn 0.942497 -9.55068e-06 0.334214
vn 0.324058 -3.68105e-05 -0.946037
vn 0.324058 -3.68182e-05 -0.946037
vn -0.944034 9.68939e-06 -0.329848
vn -0.944034 9.68538e-06 -0.329848
vn -0.32862 3.68346e-05 0.944462
vn 0.938876 -9.03931e-06 0.344256
vn 0.337122 -3.69231e-05 -0.941461
vn -0.938714 9.14283e-06 -0.344696
vn -0.938714 9.03077e-06 -0.344696
vn -0.328316 3.68597e-05 0.944568
vn -0.328317 3.68239e-05 0.944568
vn -0.938876 9.13221e-06 -0.344255
vn -0.938876 9.1412e-06 -0.344255
vn 0.328314 -3.6844e-05 -0.944569
vn 0.328314 -3.68563e-05 -0.944569
vn 0 1 0
vn 0 -1 -6.12323e-17
vn 0 -1 -6.12323e-17
vn 0 -1 -0

# Mesh 'defaultobject' with 72 faces
g defaultobject
usemtl DefaultMaterial
f  1//1 2//1 3//1
f  2//1 1//1 4//2
f  5//3 4//3 1//3
f  4//3 5//3 6//3
f  7//4 8//4 9//4
f  8//4 7//4 10//5
f  11//6 10//6 7//6
f  10//6 11//6 12//7
f  13//8 12//8 11//8
f  12//8 13//8 14//9
f  15//10 14//9 13//8
f  14//9 15//10 16//11
f  17//12 16//12 15//12
f  16//12 17//12 18//13
f  19//14 18//14 17//14
f  18//14 19//14 20//15
f  21//16 19//16 22//16
f  19//16 21//16 20//16
f  23//17 22//17 24//17
f  22//17 23//17 21//18
f  25//19 24//19 26//19
f  24//19 25//19 23//20
f  27//21 25//21 26//21
f  25//21 27//21 28//22
f  8//23 27//23 9//23
f  27//23 8//23 28//24
f  29//25 30//25 31//25
f  30//25 29//25 32//26
f  33//27 29//27 34//27
f  29//27 33//27 32//28
f  35//29 34//29 36//29
f  34//29 35//29 33//30
f  31//31 35//31 36//31
f  35//31 31//31 30//31
f  37//32 38//32 39//32
f  38//32 37//32 40//32
f  41//33 37//33 42//33
f  37//33 41//33 40//33
f  43//34 42//34 44//34
f  42//34 43//34 41//35
f  39//36 43//36 44//36
f  43//36 39//36 38//37
f  45//38 5//38 46//38
f  5//38 45//38 6//39
f  2//40 46//40 3//40
f  46//40 2//40 45//41
f  30//42 33//42 35//42
f  33//42 30//42 32//42
f  38//42 41//42 43//42
f  41//42 38//42 40//42
f  10//42 28//42 8//42
f  28//42 23//42 25//42
f  23//42 28//42 21//42
f  21//42 28//42 10//42
f  21//42 10//42 12//42
f  21//42 12//42 14//42
f  21//42 14//42 20//42
f  20//42 14//42 18//42
f  18//42 14//42 16//42
f  31//43 34//43 29//43
f  34//43 31//43 36//44
f  39//45 42//45 37//45
f  42//45 39//45 44//45
f  13//45 17//45 15//45
f  17//45 13//45 11//45
f  17//45 11//45 19//45
f  19//45 11//45 7//45
f  19//45 7//45 9//45
f  19//45 9//45 27//45
f  19//45 27//45 22//45
f  22//45 27//45 26//45
f  22//45 26//45 24//45

