# {"id":"BLDG_0003000e0011fc13","idOriginal":"BLDG_0003000e0011fc13","origin":[13.352855818845223,52.5290437064843],"elevation":34.810001373291}
# Longitude: 13.352855818845223
# Latitude: 52.5290437064843
# Elevation: 34.810001373291

# File produced by Open Asset Import Library (http://www.assimp.sf.net)
# (assimp v3.1.0)

mtllib BLDG_0003000e0011fc13.obj.mtl

# 32 vertex positions
v  24.0339 -6.7984e-16 11.1026
v  11.4659 -1.37329e-06 -3.77886
v  15.8131 -1.37329e-06 -5.87784
v  1.7099 -1.37329e-06 -3.74789
v  0 -1.37329e-06 -8.40898e-23
v  1.85986 -1.37329e-06 0.859173
v  7.82934 -1.37329e-06 3.61681
v  15.3548 -1.17327e-15 19.161
v  20.4533 -1.02254e-15 16.6993
v  25.5517 -8.71805e-16 14.2377
v  3.4198 -1.37329e-06 -7.49579
v  15.932 18.5732 7.35913
v  15.3552 16.8092 19.1605
v  20.4537 18.5732 16.6987
v  10.7151 18.57 -3.41675
v  8.20944 17.7051 -2.20695
v  6.66322 17.1713 -1.46039
v  7.82969 16.81 3.61628
v  5.61657 16.81 -0.955027
v  24.0343 16.8092 11.1021
v  25.5521 16.8092 14.2371
v  15.8135 16.81 -5.87837
v  11.4662 18.3107 -3.77944
v  15.932 18.57 7.35913
v  0.000358043 16.81 -0.000531901
v  6.66324 18.13 -1.46042
v  1.71029 18.13 -3.74847
v  5.61659 17.8424 -0.95506
v  1.86022 16.81 0.858641
v  11.4662 16.81 -3.7794
v  3.42016 16.81 -7.49632
v  10.715 17.0164 -3.41671

# 0 UV coordinates

# 57 vertex normals
vn 3.16502e-08 -1 6.55518e-08
vn 2.92159e-10 -1 9.2035e-08
vn 4.71933e-08 -1 2.1531e-08
vn 0.347123 -0.561138 -0.751419
vn 0.386316 -0.389137 -0.836261
vn 5.65907e-08 -1 6.095e-08
vn 1.07382e-23 -1 -6.12323e-17
vn -1.87919e-23 -1 -6.12323e-17
vn 0 -1 0
vn -0.267745 0.95473 0.129625
vn -0.268246 0.954596 0.12958
vn -0.267168 0.954924 0.129384
vn -0.267169 0.954924 0.129384
vn -0.267003 0.95498 0.129315
vn -0.267184 0.954924 0.129353
vn 0.26775 0.954729 -0.129627
vn 0.267788 0.954722 -0.1296
vn 0.267129 0.954922 -0.12948
vn 0.263538 0.95613 -0.12792
vn 0.267188 0.954923 -0.129355
vn -0.127968 0.952307 0.277013
vn -0.127967 0.952306 0.277015
vn -0.127968 0.952307 0.277013
vn 0.127971 0.952304 -0.277019
vn 0.127971 0.952304 -0.277019
vn 0.127971 0.952304 -0.277019
vn -0.447214 0 -0.894427
vn -0 1 0
vn 0.434799 1.93094e-05 0.900527
vn 0.434799 1.95035e-05 0.900527
vn 0.434799 1.90612e-05 0.900527
vn 0.434799 1.91418e-05 0.900527
vn -0.434799 -1.90832e-05 -0.900527
vn -0.434799 -1.89572e-05 -0.900527
vn -0.434799 -1.92213e-05 -0.900527
vn -0.434799 -1.90185e-05 -0.900527
vn -0.434799 -1.92616e-05 -0.900527
vn -0.434799 -1.92448e-05 -0.900527
vn -0.909789 6.24427e-06 -0.415072
vn -0.909789 6.23855e-06 -0.415072
vn -0.909789 6.24145e-06 -0.415072
vn -0.909789 6.31367e-06 -0.415072
vn 0.4348 1.91827e-05 0.900527
vn 0.434799 1.92604e-05 0.900527
vn 0.434799 1.92338e-05 0.900527
vn 0.434799 1.9193e-05 0.900527
vn 0.900066 -3.29432e-05 -0.435753
vn 0.900066 -3.29711e-05 -0.435753
vn 0.900066 -3.29711e-05 -0.435753
vn 0.900066 -3.29711e-05 -0.435753
vn -0.419371 3.76574e-05 0.907815
vn -0.419371 3.76598e-05 0.907815
vn -0.419371 3.76595e-05 0.907815
vn 0.419371 -3.76724e-05 -0.907815
vn 0.419371 -3.76476e-05 -0.907815
vn -0.900066 3.29958e-05 0.435753
vn -0.900066 3.29625e-05 0.435753

# Mesh 'defaultobject' with 58 faces
g defaultobject
usemtl DefaultMaterial
f  1//1 2//1 3//1
f  2//1 1//1 4//2
f  4//2 1//1 5//3
f  5//4 1//4 6//4
f  6//5 1//5 7//5
f  7//6 1//1 8//6
f  8//6 1//1 9//7
f  9//7 1//1 10//8
f  4//2 11//9 2//1
f  12//10 13//10 14//10
f  13//11 12//11 15//11
f  13//12 15//12 16//12
f  13//12 16//12 17//13
f  13//14 17//14 18//14
f  18//15 17//15 19//15
f  20//16 14//16 21//16
f  14//17 20//17 22//17
f  14//18 22//18 23//18
f  14//19 23//19 24//19
f  24//20 23//20 15//20
f  25//21 26//21 27//21
f  26//21 25//21 28//22
f  28//22 25//21 29//23
f  27//24 30//24 31//24
f  30//24 27//24 32//25
f  32//25 27//24 26//26
f  32//27 26//27 16//27
f  29//28 18//28 19//28
f  28//29 16//29 26//29
f  16//29 28//29 29//30
f  16//29 29//30 17//31
f  17//31 29//30 19//32
f  23//33 16//33 15//33
f  16//33 23//33 22//34
f  16//33 22//34 32//35
f  32//35 22//34 30//36
f  30//36 22//34 3//37
f  30//36 3//37 2//38
f  25//39 4//39 5//39
f  4//39 25//39 11//40
f  11//40 25//39 31//41
f  31//41 25//39 27//42
f  21//43 9//43 10//43
f  9//43 21//43 8//44
f  8//44 21//43 13//45
f  13//45 21//43 14//46
f  22//47 1//47 3//47
f  1//47 22//47 20//48
f  1//47 20//48 10//49
f  10//49 20//48 21//50
f  5//51 29//51 25//51
f  29//51 5//51 18//52
f  18//52 5//51 7//53
f  7//5 5//4 6//5
f  31//54 2//54 11//54
f  2//54 31//54 30//55
f  13//56 7//56 8//56
f  7//56 13//56 18//57

