# {"id":"BLDG_000300090014bc85","idOriginal":"BLDG_000300090014bc85","origin":[13.360298946409111,52.55120340835764],"elevation":37.3199996948242}
# Longitude: 13.360298946409111
# Latitude: 52.55120340835764
# Elevation: 37.3199996948242

# File produced by Open Asset Import Library (http://www.assimp.sf.net)
# (assimp v3.1.0)

mtllib BLDG_000300090014bc85.obj.mtl

# 14 vertex positions
v  8.66177 4.31319 -0.588173
v  13.9746 4.31319 4.4725
v  13.8347 4.31319 -0.939743
v  9.1918e-05 4.31319 -0.00013668
v  0.00602921 4.31319 0.200996
v  0.180088 4.31319 5.58185
v  6.88664 4.31319 5.04258
v  0 0 0
v  0.00593729 -1.23158e-17 0.201132
v  0.179997 -3.41798e-16 5.58199
v  6.88654 -3.08777e-16 5.04272
v  13.9745 -2.7387e-16 4.47264
v  13.8346 5.75343e-17 -0.939607
v  8.66168 3.60068e-17 -0.588036

# 0 UV coordinates

# 16 vertex normals
vn -0 1 0
vn -0.999565 2.22368e-05 0.0295065
vn -0.999565 2.22366e-05 0.0295065
vn -0.999477 2.23238e-05 0.032331
vn -0.999477 2.23244e-05 0.032331
vn 0.0801508 2.99132e-05 0.996783
vn 0.0801508 2.99215e-05 0.996783
vn 0.0801701 2.99126e-05 0.996781
vn 0.999666 -2.20379e-05 -0.0258393
vn -0.0678071 -3.01751e-05 -0.997698
vn -0.0677335 -3.01726e-05 -0.997703
vn -0.0677335 -3.01768e-05 -0.997703
vn 0 -1 -6.12323e-17
vn 0 -1 -6.12323e-17
vn -2.21839e-24 -1 -6.12323e-17
vn 6.80481e-25 -1 -6.12323e-17

# Mesh 'defaultobject' with 24 faces
g defaultobject
usemtl DefaultMaterial
f  1//1 2//1 3//1
f  2//1 1//1 4//1
f  2//1 4//1 5//1
f  2//1 5//1 6//1
f  2//1 6//1 7//1
f  5//2 8//2 9//2
f  8//2 5//2 4//3
f  6//4 9//4 10//4
f  9//4 6//4 5//5
f  11//6 6//6 10//6
f  6//6 11//6 7//7
f  12//8 7//8 11//8
f  7//8 12//8 2//8
f  13//9 2//9 12//9
f  2//9 13//9 3//9
f  1//10 13//10 14//10
f  13//10 1//10 3//10
f  4//11 14//11 8//11
f  14//11 4//11 1//12
f  9//13 11//13 10//13
f  11//13 9//13 8//14
f  11//13 8//14 14//15
f  11//13 14//15 12//16
f  12//16 14//15 13//13

