# {"id":"BLDG_000300000026dbd6","idOriginal":"BLDG_000300000026dbd6","origin":[13.325240410533423,52.527366778139715],"elevation":32.9599990844727}
# Longitude: 13.325240410533423
# Latitude: 52.527366778139715
# Elevation: 32.9599990844727

# File produced by Open Asset Import Library (http://www.assimp.sf.net)
# (assimp v3.1.0)

mtllib BLDG_000300000026dbd6.obj.mtl

# 8 vertex positions
v  3.83367 8.67162e-16 -14.1618
v  4.87738 -8.00297e-17 1.30698
v  0 0 0
v  8.79227 8.05506e-16 -13.1549
v  5.6865e-05 2.67451 -8.462e-05
v  4.87743 2.67451 1.3069
v  3.83372 2.67451 -14.1619
v  8.79233 2.67451 -13.155

# 0 UV coordinates

# 10 vertex normals
vn -1.14335e-23 -1 -6.12323e-17
vn 1.11963e-23 -1 -6.12323e-17
vn -0.258836 3.60501e-05 0.965921
vn -0.965258 1.22558e-05 -0.261299
vn -0.965258 1.23661e-05 -0.261299
vn 0.199005 -3.49913e-05 -0.979998
vn 0.199005 -3.52875e-05 -0.979998
vn 0.965258 -1.22807e-05 0.261299
vn 0.965258 -1.20903e-05 0.261299
vn 0 1 0

# Mesh 'defaultobject' with 24 faces
g defaultobject
usemtl DefaultMaterial
f  1//1 2//1 3//1
f  2//1 1//1 4//2
f  1//1 2//1 3//1
f  2//1 1//1 4//2
f  2//3 5//3 3//3
f  5//3 2//3 6//3
f  5//4 1//4 3//4
f  1//4 5//4 7//5
f  7//6 4//6 1//6
f  4//6 7//6 8//7
f  4//8 6//8 2//8
f  6//8 4//8 8//9
f  2//3 5//3 3//3
f  5//3 2//3 6//3
f  5//4 1//4 3//4
f  1//4 5//4 7//5
f  7//6 4//6 1//6
f  4//6 7//6 8//7
f  4//8 6//8 2//8
f  6//8 4//8 8//9
f  6//10 7//10 5//10
f  7//10 6//10 8//10
f  6//10 7//10 5//10
f  7//10 6//10 8//10

