# {"id":"BLDG_0003000f003e7523","idOriginal":"BLDG_0003000f003e7523","origin":[13.371624452655153,52.55458878971194],"elevation":38.2799987792969}
# Longitude: 13.371624452655153
# Latitude: 52.55458878971194
# Elevation: 38.2799987792969

# File produced by Open Asset Import Library (http://www.assimp.sf.net)
# (assimp v3.1.0)

mtllib BLDG_0003000f003e7523.obj.mtl

# 14 vertex positions
v  0 0 0
v  10.4302 8.93765e-16 -14.5963
v  10.4295 4.49499e-16 -7.34088
v  16.7467 2.34018e-15 -38.2181
v  13.8376 5.95345e-16 -9.72271
v  24.4198 1.50094e-15 -24.5122
v  28.1243 2.02704e-15 -33.104
v  0.000457995 21.4755 -0.00068066
v  10.4307 21.4755 -14.597
v  16.7472 21.4755 -38.2188
v  10.4299 21.4755 -7.34156
v  13.838 21.4755 -9.72339
v  24.4203 21.4755 -24.5129
v  28.1248 21.4755 -33.1047

# 0 UV coordinates

# 17 vertex normals
vn 0 -1 -6.12323e-17
vn 0 -1 -6.12323e-17
vn 4.28219e-24 -1 -6.12323e-17
vn -6.32527e-24 -1 -6.12323e-17
vn 2.90329e-23 -1 -6.12324e-17
vn 0 1 0
vn 0.575578 1.36489e-05 0.817747
vn 0.572842 1.37667e-05 0.819666
vn 0.572842 1.37454e-05 0.819666
vn 0.819561 -3.56808e-05 -0.572992
vn 0.819561 -3.56509e-05 -0.572992
vn 0.578274 1.34667e-05 0.815843
vn 0.918279 -7.05284e-06 0.395933
vn 0.918279 -6.98639e-06 0.395933
vn 0.409975 -3.77396e-05 -0.912097
vn -0.915926 6.81278e-06 -0.401348
vn -0.915926 6.76235e-06 -0.401348

# Mesh 'defaultobject' with 24 faces
g defaultobject
usemtl DefaultMaterial
f  1//1 2//1 3//1
f  2//1 1//1 4//2
f  3//1 2//1 5//3
f  2//1 4//2 6//4
f  6//4 4//2 7//5
f  8//6 9//6 10//6
f  9//6 8//6 11//6
f  9//6 11//6 12//6
f  10//6 9//6 13//6
f  10//6 13//6 14//6
f  3//7 8//7 1//7
f  8//7 3//7 11//7
f  5//8 11//8 3//8
f  11//8 5//8 12//9
f  2//10 12//10 5//10
f  12//10 2//10 9//11
f  6//12 9//12 2//12
f  9//12 6//12 13//12
f  7//13 13//13 6//13
f  13//13 7//13 14//14
f  10//15 7//15 4//15
f  7//15 10//15 14//15
f  8//16 4//16 1//16
f  4//16 8//16 10//17

