# {"id":"BLDG_0003000f001c1e91","idOriginal":"BLDG_0003000f001c1e91","origin":[13.389853350638731,52.511582764802974],"elevation":34.3300018310547}
# Longitude: 13.389853350638731
# Latitude: 52.511582764802974
# Elevation: 34.3300018310547

# File produced by Open Asset Import Library (http://www.assimp.sf.net)
# (assimp v3.1.0)

mtllib BLDG_0003000f001c1e91.obj.mtl

# 40 vertex positions
v  28.3869 -1.20285e-15 19.644
v  25.9216 -9.02439e-16 14.7379
v  28.0864 -8.96085e-16 14.6342
v  24.5208 -9.02153e-16 14.7333
v  23.3503 -1.0247e-15 16.7347
v  23.4715 -1.21212e-15 19.7955
v  15.117 -0.0800018 10.9159
v  10.0715 -0.0800018 16.2825
v  9.95144 -0.0800018 11.1759
v  15.4506 -0.0800018 15.9898
v  14.3747 -0.350002 -0.97052
v  1.51357 -0.350002 18.4777
v  0 -0.350002 -2.14315e-17
v  1.76228 -0.350002 21.5139
v  2.26077 -0.350002 27.5995
v  15.5287 -0.350002 17.5497
v  23.4398 -0.350002 17.026
v  23.619 -0.350002 19.9023
v  28.7469 -0.350002 25.6465
v  28.3813 -0.350002 19.5512
v  24.5214 27.7158 14.7324
v  25.9222 27.7158 14.7371
v  23.3509 27.7158 16.7338
v  23.4721 27.7158 19.7946
v  28.3875 27.7158 19.6431
v  15.4512 27.6424 15.9889
v  15.1176 27.6424 10.9151
v  9.95203 27.6424 11.175
v  10.0721 27.6424 16.2816
v  1.51412 25.67 18.4768
v  0.000555494 25.67 -0.00082232
v  1.76284 25.67 21.5131
v  2.26132 25.67 27.5987
v  15.5293 25.67 17.5489
v  23.4403 25.67 17.0251
v  23.6195 25.67 19.9015
v  28.3818 25.67 19.5504
v  28.7474 25.67 25.6457
v  14.3752 25.67 -0.971343
v  28.087 27.7158 14.6333

# 0 UV coordinates

# 41 vertex normals
vn -2.9204e-23 -1 -6.12323e-17
vn 8.79066e-23 -1 -6.12324e-17
vn 7.85137e-24 -1 -6.12323e-17
vn -3.51439e-24 -1 -6.12323e-17
vn 0 -1 0
vn 0.00333798 -3.16929e-05 -0.999994
vn -0.863212 2.46872e-06 -0.504842
vn -0.863212 2.45135e-06 -0.504842
vn -0.999218 2.26377e-05 0.0395493
vn -0.999218 2.25662e-05 0.03955
vn 0.0308027 3.09819e-05 0.999525
vn 0.0308024 3.09155e-05 0.999525
vn 0.997845 -2.33543e-05 -0.065608
vn 0.997845 -2.33569e-05 -0.065608
vn -0.0502657 -3.05006e-05 -0.998736
vn -0.0502657 -3.05023e-05 -0.998736
vn -0.999724 2.20994e-05 0.0235059
vn -0.999724 2.21002e-05 0.0235059
vn 0.0543447 3.03725e-05 0.998522
vn 0.0543447 3.03749e-05 0.998522
vn -0.996662 2.38576e-05 0.08164
vn -0.996662 2.38333e-05 0.08164
vn -0.996662 2.38304e-05 0.08164
vn -0.996662 2.38576e-05 0.08164
vn 0 1 0
vn -0.0660645 -3.0113e-05 -0.997815
vn -0.0660645 -3.01106e-05 -0.997815
vn -0.0735358 -3.00072e-05 -0.997293
vn -0.0735354 -2.99395e-05 -0.997293
vn 0.998064 -2.3332e-05 -0.0621914
vn 0.998064 -2.3328e-05 -0.0621914
vn 0.0735354 2.99418e-05 0.997293
vn 0.0735354 2.99473e-05 0.997293
vn 0.998206 -2.31852e-05 -0.0598661
vn -0.0673627 -3.00935e-05 -0.997729
vn -0.0673627 -3.00941e-05 -0.997729
vn 0.998064 -2.32912e-05 -0.0621914
vn 0.998064 -2.32517e-05 -0.0621915
vn 0.998206 -2.31869e-05 -0.0598662
vn 0.998206 -2.31886e-05 -0.0598662
vn -0.0478793 -3.05642e-05 -0.998853

# Mesh 'defaultobject' with 68 faces
g defaultobject
usemtl DefaultMaterial
f  1//1 2//1 3//1
f  2//1 1//1 4//2
f  4//2 1//1 5//3
f  5//3 1//1 6//4
f  7//5 8//5 9//5
f  8//5 7//5 10//5
f  11//5 12//5 13//5
f  12//5 11//5 14//5
f  14//5 11//5 15//5
f  15//5 11//5 16//5
f  17//5 18//5 16//5
f  16//5 19//5 15//5
f  19//5 16//5 18//5
f  19//5 18//5 20//5
f  21//6 2//6 4//6
f  2//6 21//6 22//6
f  23//7 4//7 5//7
f  4//7 23//7 21//8
f  24//9 5//9 6//9
f  5//9 24//9 23//10
f  1//11 24//11 6//11
f  24//11 1//11 25//12
f  7//13 26//13 10//13
f  26//13 7//13 27//14
f  28//15 7//15 9//15
f  7//15 28//15 27//16
f  29//17 9//17 8//17
f  9//17 29//17 28//18
f  10//19 29//19 8//19
f  29//19 10//19 26//20
f  13//21 30//21 31//21
f  30//21 13//21 32//22
f  32//22 13//21 33//23
f  33//23 13//21 15//24
f  15//25 13//25 12//25
f  15//25 12//25 14//25
f  34//26 17//26 16//26
f  17//26 34//26 35//27
f  36//28 20//28 18//28
f  20//28 36//28 37//29
f  17//30 36//30 18//30
f  36//30 17//30 35//31
f  19//32 33//32 15//32
f  33//32 19//32 38//33
f  20//34 38//34 19//34
f  38//34 20//34 37//34
f  31//35 11//35 13//35
f  11//35 31//35 39//36
f  11//37 34//37 16//37
f  34//37 11//37 39//38
f  3//39 25//39 1//39
f  25//39 3//39 40//40
f  22//41 3//41 2//41
f  3//41 22//41 40//41
f  40//25 24//25 25//25
f  24//25 40//25 23//25
f  23//25 40//25 22//25
f  23//25 22//25 21//25
f  27//25 29//25 26//25
f  29//25 27//25 28//25
f  37//25 33//25 38//25
f  33//25 37//25 36//25
f  33//25 36//25 35//25
f  33//25 35//25 34//25
f  33//25 34//25 39//25
f  33//25 39//25 32//25
f  32//25 39//25 30//25
f  30//25 39//25 31//25

