# {"id":"BLDG_0003000e00002d41","idOriginal":"BLDG_0003000e00002d41","origin":[13.428059171615931,52.51980160202396],"elevation":36.5499992370605}
# Longitude: 13.428059171615931
# Latitude: 52.51980160202396
# Elevation: 36.5499992370605

# File produced by Open Asset Import Library (http://www.assimp.sf.net)
# (assimp v3.1.0)

mtllib BLDG_0003000e00002d41.obj.mtl

# 75 vertex positions
v  16.6436 3.01145e-15 -49.1806
v  6.52549 3.93096e-15 -64.1974
v  18.0715 3.87163e-15 -63.2285
v  5.09757 3.07078e-15 -50.1496
v  16.1554 2.71732e-15 -44.3773
v  4.60668 2.77507e-15 -45.3203
v  14.6835 1.83064e-15 -29.8967
v  3.13477 1.88839e-15 -30.8397
v  14.2327 1.55911e-15 -25.4622
v  2.67219 1.60973e-15 -26.2889
v  12.7558 6.69452e-16 -10.933
v  1.19534 7.20072e-16 -11.7597
v  12.2898 3.88712e-16 -6.34814
v  0.749563 4.51537e-16 -7.37416
v  11.5403 -6.28252e-17 1.02601
v  0 0 0
v  21.5415 3.8538e-15 -62.9373
v  18.5524 4.16128e-15 -67.9589
v  22.0024 4.14164e-15 -67.6381
v  19.6933 2.69963e-15 -44.0884
v  20.1637 2.99336e-15 -48.8852
v  17.8417 1.54331e-15 -25.2041
v  18.2731 1.81269e-15 -29.6035
v  15.9609 3.68726e-16 -6.02176
v  16.4168 6.53422e-16 -10.6712
v  7.78331 4.68867e-15 -76.5718
v  7.01684 4.22695e-15 -69.0313
v  19.3188 4.623e-15 -75.4994
v  7.01751 31.1939 -69.0323
v  18.0722 31.1939 -63.2295
v  18.553 31.1939 -67.9598
v  6.52616 31.1939 -64.1984
v  16.6443 31.1939 -49.1816
v  14.4458 31.2295 -63.5338
v  13.0178 31.2295 -49.486
v  7.53489 31.297 -64.1138
v  6.10697 31.297 -50.0659
v  5.09824 31.1939 -50.1506
v  4.60735 31.2403 -45.3213
v  16.156 31.2403 -44.3782
v  5.09824 31.2403 -50.1506
v  4.60735 31.1939 -45.3213
v  14.6841 31.1939 -29.8976
v  16.156 31.1939 -44.3782
v  3.13544 31.1939 -30.8407
v  14.2334 31.1939 -25.4632
v  2.67286 31.1939 -26.2899
v  12.7565 31.1939 -10.934
v  1.19601 31.1939 -11.7607
v  12.2905 31.1939 -6.34913
v  0.75023 31.1939 -7.37514
v  11.5409 31.1939 1.02503
v  0.000667587 31.1939 -0.00098633
v  19.4117 3.52729 -65.4966
v  21.5415 3.36981 -62.9374
v  22.0025 3.36981 -67.6382
v  18.312 3.52729 -65.5938
v  18.0716 3.36981 -63.2286
v  18.5524 3.36981 -67.959
v  16.1555 3.89287 -44.3774
v  20.1637 3.54863 -48.8854
v  16.6437 3.54863 -49.1808
v  19.6934 3.54863 -44.0885
v  14.6835 3.38432 -29.8968
v  17.8418 3.38432 -25.2042
v  18.2732 3.38432 -29.6036
v  14.2328 3.38432 -25.4623
v  12.2899 3.47175 -6.34825
v  16.4168 3.38394 -10.6713
v  12.7559 3.38394 -10.9331
v  15.961 3.38394 -6.02186
v  7.78398 31.1939 -76.5728
v  19.3195 31.1939 -75.5004
v  18.0716 3.68476 -63.2286
v  5.53466 31.2385 -50.1139

# 0 UV coordinates

# 90 vertex normals
vn 4.66026e-23 -1 -6.12323e-17
vn 5.17807e-24 -1 -6.12323e-17
vn 1.32507e-23 -1 -6.12324e-17
vn -7.5312e-24 -1 -6.12324e-17
vn 0 -1 -6.12323e-17
vn 3.99603e-24 -1 -6.12323e-17
vn -5.00652e-24 -1 -6.12323e-17
vn -4.14665e-24 -1 -6.12323e-17
vn 0 -1 -6.12323e-17
vn 9.0574e-23 -1 -6.12324e-17
vn 3.08952e-23 -1 -6.12324e-17
vn 0 -1 -6.12324e-17
vn -1.97041e-23 -1 -6.12323e-17
vn -6.65122e-24 -1 -6.12324e-17
vn 6.23427e-24 -1 -6.12323e-17
vn 0 -1 -6.12323e-17
vn -4.82334e-24 -1 -6.12323e-17
vn 4.82334e-24 -1 -6.12323e-17
vn 0 1 0
vn 0.00973919 0.999952 0.000989963
vn 0.00973919 0.999952 0.000989962
vn 0.0096884 0.999953 0.0009848
vn 0.0096884 0.999953 0.0009848
vn -0.100871 0.994847 -0.0102533
vn 0.000781948 0.999954 -0.00957597
vn 0.00398304 0.999992 0.000404865
vn 0.0659984 0.997799 0.00647115
vn -0.00586043 0.997784 0.0662751
vn -0.00552795 0.997813 0.0658726
vn 0.0061311 0.997804 -0.0659501
vn 0.00582222 0.997813 -0.0658429
vn 0.00594813 0.997467 -0.0708794
vn 0.0960747 0.99533 0.00942013
vn 0.00135942 0.999818 -0.0190102
vn 0.0237055 0.999716 0.00232431
vn -0.994874 1.80927e-05 -0.101126
vn -0.994874 1.80911e-05 -0.101126
vn 0.994874 -1.80915e-05 0.101126
vn 0.994874 -1.80908e-05 0.101126
vn -0.0885581 3.33913e-05 0.996071
vn -0.0885581 3.3394e-05 0.996071
vn -0.994874 1.8094e-05 -0.101126
vn 0.994874 -1.81237e-05 0.101126
vn 0.995227 -1.83193e-05 0.0975825
vn 0.995227 -1.77501e-05 0.0975821
vn -0.0836248 3.33833e-05 0.996497
vn 0.0925666 -3.35514e-05 -0.995706
vn 0.0925666 -3.3499e-05 -0.995706
vn 0.0836252 -3.39343e-05 -0.996497
vn 0.995228 -1.82466e-05 0.097582
vn -0.0813871 3.30144e-05 0.996683
vn -0.0813861 3.3889e-05 0.996683
vn -0.0713275 3.3007e-05 0.997453
vn 0.0813864 -3.3199e-05 -0.996683
vn 0.995228 -1.82314e-05 0.0975821
vn 0.0713278 -3.30116e-05 -0.997453
vn 0.0713278 -3.29714e-05 -0.997453
vn 0.995227 -1.82484e-05 0.0975822
vn 0.995227 -1.76753e-05 0.0975818
vn -0.0885582 3.33628e-05 0.996071
vn -0.0885582 3.33396e-05 0.996071
vn -0.994874 1.80757e-05 -0.101126
vn -0.994874 1.81004e-05 -0.101126
vn 0.0925673 -3.33964e-05 -0.995706
vn 0.0925667 -3.36399e-05 -0.995706
vn 0.994874 -1.8101e-05 0.101126
vn 0.994874 -1.80768e-05 0.101126
vn -0.994874 1.81004e-05 -0.101126
vn -0.994874 1.44086e-05 -0.101126
vn 0.994874 -1.80892e-05 0.101126
vn 0.994874 -1.81174e-05 0.101126
vn 0.0836254 -3.94479e-05 -0.996497
vn 0.0837285 0.0111017 -0.996427
vn 0.994874 -1.81483e-05 0.101126
vn -0.0836259 -5.485e-05 0.996497
vn -0.0836258 1.42761e-05 0.996497
vn -0.994874 1.81004e-05 -0.101126
vn 0.994874 -1.81516e-05 0.101126
vn 0.994874 -1.80999e-05 0.101126
vn -0.0813868 0 0.996683
vn -0.0813865 8.51776e-05 0.996683
vn -0.994874 1.80916e-05 -0.101126
vn -0.994874 1.81067e-05 -0.101126
vn -0.994874 1.80942e-05 -0.101126
vn -0.994874 1.8088e-05 -0.101126
vn 0.994874 -1.80933e-05 0.101126
vn 0.994874 -1.80975e-05 0.101126
vn -0.994874 1.80942e-05 -0.101126
vn 0.994874 -1.80916e-05 0.101126
vn 0.994874 -1.80913e-05 0.101126

# Mesh 'defaultobject' with 130 faces
g defaultobject
usemtl DefaultMaterial
f  1//1 2//1 3//1
f  2//1 1//1 4//2
f  5//3 4//2 1//1
f  4//2 5//3 6//4
f  6//4 7//5 8//5
f  7//5 6//4 5//3
f  8//5 9//6 10//6
f  9//6 8//5 7//5
f  10//6 11//7 12//7
f  11//7 10//6 9//6
f  12//7 13//8 14//8
f  13//8 12//7 11//7
f  14//8 15//9 16//9
f  15//9 14//8 13//8
f  17//10 18//10 19//10
f  18//10 17//10 3//1
f  1//1 20//11 5//3
f  20//11 1//1 21//12
f  7//5 22//13 9//6
f  22//13 7//5 23//14
f  11//7 24//15 13//8
f  24//15 11//7 25//16
f  26//17 18//10 27//17
f  18//10 26//17 28//18
f  27//17 3//1 2//1
f  3//1 27//17 18//10
f  29//19 30//19 31//19
f  30//19 29//19 32//19
f  33//20 34//20 35//20
f  34//20 33//20 30//21
f  35//22 36//22 37//22
f  36//22 35//22 34//23
f  37//24 32//24 38//24
f  32//24 37//24 36//24
f  33//25 39//25 40//25
f  39//26 33//26 41//26
f  42//19 43//19 44//19
f  43//19 42//19 45//19
f  45//19 46//19 43//19
f  46//19 45//19 47//19
f  47//19 48//19 46//19
f  48//19 47//19 49//19
f  49//19 50//19 48//19
f  50//19 49//19 51//19
f  51//19 52//19 50//19
f  52//19 51//19 53//19
f  54//27 55//27 56//27
f  57//28 55//28 54//28
f  55//29 57//29 58//29
f  59//30 54//30 56//30
f  54//31 59//31 57//31
f  60//32 61//32 62//32
f  61//33 60//33 63//33
f  64//19 65//19 66//19
f  65//19 64//19 67//19
f  68//34 69//34 70//34
f  69//35 68//35 71//35
f  72//19 31//19 73//19
f  31//19 72//19 29//19
f  51//36 12//36 14//36
f  12//36 51//36 49//37
f  48//38 68//38 70//38
f  68//38 48//38 50//39
f  15//40 53//40 16//40
f  53//40 15//40 52//41
f  53//42 14//36 16//42
f  14//36 53//42 51//36
f  13//43 52//43 15//43
f  52//43 13//43 50//39
f  19//44 55//44 17//44
f  55//44 19//44 56//45
f  17//46 58//46 3//46
f  58//46 17//46 55//46
f  59//47 19//47 18//47
f  19//47 59//47 56//48
f  62//49 21//49 1//49
f  21//49 62//49 61//49
f  21//50 63//50 20//50
f  63//50 21//50 61//50
f  20//51 60//51 5//51
f  60//51 20//51 63//52
f  22//53 67//53 9//53
f  67//53 22//53 65//53
f  64//54 23//54 7//54
f  23//54 64//54 66//54
f  23//55 65//55 22//55
f  65//55 23//55 66//55
f  70//56 25//56 11//56
f  25//56 70//56 69//57
f  25//58 71//58 24//58
f  71//58 25//58 69//59
f  24//60 68//60 13//60
f  68//60 24//60 71//61
f  29//62 26//62 27//62
f  26//62 29//62 72//63
f  72//64 28//64 26//64
f  28//64 72//64 73//65
f  28//66 31//66 18//66
f  31//66 28//66 73//67
f  32//68 27//62 2//68
f  27//62 32//68 29//62
f  57//69 58//69 74//69
f  31//66 74//70 59//70
f  74//70 31//66 30//71
f  36//72 30//72 32//72
f  30//73 36//73 34//73
f  3//74 33//74 1//74
f  33//74 3//74 30//71
f  35//75 75//75 33//75
f  75//76 35//76 37//76
f  38//77 2//68 4//77
f  2//68 38//77 32//68
f  33//74 60//78 62//78
f  60//78 33//74 40//79
f  44//80 39//80 42//80
f  39//81 44//81 40//81
f  39//82 4//77 6//82
f  4//77 39//82 41//83
f  45//84 6//82 8//84
f  6//82 45//84 42//85
f  5//86 43//86 7//86
f  43//86 5//86 44//87
f  47//88 8//84 10//88
f  8//84 47//88 45//84
f  64//89 46//89 67//89
f  46//89 64//89 43//86
f  49//37 10//88 12//36
f  10//88 49//37 47//88
f  9//90 48//38 11//90
f  48//38 9//90 46//89

