# {"id":"BLDG_0003000800206662","idOriginal":"BLDG_0003000800206662","origin":[13.33705134719281,52.559515524578565],"elevation":37.9300003051758}
# Longitude: 13.33705134719281
# Latitude: 52.559515524578565
# Elevation: 37.9300003051758

# File produced by Open Asset Import Library (http://www.assimp.sf.net)
# (assimp v3.1.0)

mtllib BLDG_0003000800206662.obj.mtl

# 30 vertex positions
v  12.7088 8.77025 12.2067
v  6.65543 8.77025 -6.80409
v  0.000186628 8.77025 -0.00027807
v  21.8749 8.77025 10.2924
v  21.6752 8.77025 10.1055
v  19.439 8.77025 12.8648
v  17.2937 8.77025 14.7768
v  20.3744 8.77025 5.6441
v  14.3579 8.77025 11.9952
v  23.2799 8.77025 8.39528
v  19.2522 8.77025 12.6892
v  4.63393 8.77025 -11.8143
v  3.14599 8.77025 -10.2907
v  21.4469 8.77025 4.51256
v  13.467 8.77025 12.935
v  0 0 0
v  12.7086 -7.47461e-16 12.207
v  13.4668 -7.92058e-16 12.9353
v  14.3578 -7.34509e-16 11.9954
v  17.2935 -9.04837e-16 14.7771
v  19.252 -7.77005e-16 12.6895
v  19.4388 -7.87761e-16 12.8651
v  21.8747 -6.30243e-16 10.2927
v  21.675 -6.18799e-16 10.1058
v  23.2797 -5.1408e-16 8.39556
v  20.3742 -3.45619e-16 5.64438
v  21.4467 -2.76332e-16 4.51284
v  4.63375 7.23399e-16 -11.814
v  3.1458 6.30109e-16 -10.2905
v  6.65524 4.16613e-16 -6.80381

# 0 UV coordinates

# 38 vertex normals
vn 0 1 0
vn -0.692729 3.76636e-05 0.721198
vn -0.692729 3.76074e-05 0.721198
vn -0.692772 3.75095e-05 0.721156
vn -0.692773 3.76632e-05 0.721156
vn 0.72574 6.38152e-06 0.68797
vn 0.725739 6.3028e-06 0.68797
vn -0.687802 3.76289e-05 0.725899
vn 0.729298 6.1159e-06 0.684196
vn -0.685118 3.77311e-05 0.728432
vn -0.685116 3.76519e-05 0.728434
vn 0.726119 6.35357e-06 0.687569
vn 0.726119 6.27684e-06 0.687569
vn 0.683352 -3.76659e-05 -0.730089
vn 0.683351 -3.75973e-05 -0.73009
vn 0.72924 6.34072e-06 0.684258
vn 0.72924 6.27118e-06 0.684258
vn 0.687561 -3.74888e-05 -0.726127
vn 0.687561 -3.76655e-05 -0.726127
vn 0.725791 6.33833e-06 0.687916
vn 0.696659 -3.77129e-05 -0.717402
vn -0.715413 -6.95702e-06 -0.698701
vn -0.715414 -6.97646e-06 -0.698701
vn -0.7048 3.75079e-05 0.709406
vn -0.7048 3.75273e-05 0.709406
vn -0.714869 -6.95854e-06 -0.699259
vn -0.714869 -6.92886e-06 -0.699259
vn -5.05066e-24 -1 -6.12323e-17
vn 5.82065e-23 -1 -6.12324e-17
vn -3.53105e-23 -1 -6.12323e-17
vn 5.01739e-23 -1 -6.12324e-17
vn -1.97057e-23 -1 -6.12323e-17
vn 5.9319e-22 -1 -6.12327e-17
vn 5.3435e-24 -1 -6.12323e-17
vn -8.19579e-23 -1 -6.12324e-17
vn -1.15921e-23 -1 -6.12323e-17
vn 5.02526e-24 -1 -6.12323e-17
vn -1.69247e-23 -1 -6.12323e-17

# Mesh 'defaultobject' with 56 faces
g defaultobject
usemtl DefaultMaterial
f  1//1 2//1 3//1
f  4//1 5//1 6//1
f  7//1 8//1 9//1
f  8//1 7//1 5//1
f  8//1 5//1 10//1
f  5//1 7//1 11//1
f  5//1 11//1 6//1
f  2//1 12//1 13//1
f  12//1 2//1 14//1
f  14//1 2//1 1//1
f  14//1 1//1 8//1
f  8//1 1//1 15//1
f  8//1 15//1 9//1
f  1//2 16//2 17//2
f  16//2 1//2 3//3
f  15//4 17//4 18//4
f  17//4 15//4 1//5
f  19//6 15//6 18//6
f  15//6 19//6 9//7
f  7//8 19//8 20//8
f  19//8 7//8 9//8
f  21//9 7//9 20//9
f  7//9 21//9 11//9
f  6//10 21//10 22//10
f  21//10 6//10 11//11
f  23//12 6//12 22//12
f  6//12 23//12 4//13
f  24//14 4//14 23//14
f  4//14 24//14 5//15
f  25//16 5//16 24//16
f  5//16 25//16 10//17
f  26//18 10//18 25//18
f  10//18 26//18 8//19
f  27//20 8//20 26//20
f  8//20 27//20 14//20
f  28//21 14//21 27//21
f  14//21 28//21 12//21
f  13//22 28//22 29//22
f  28//22 13//22 12//23
f  2//24 29//24 30//24
f  29//24 2//24 13//25
f  3//26 30//26 16//26
f  30//26 3//26 2//27
f  30//28 17//28 16//28
f  17//28 30//28 18//29
f  18//29 30//28 19//30
f  19//30 30//28 20//31
f  20//31 30//28 21//32
f  21//32 30//28 22//33
f  22//33 30//28 24//34
f  22//33 24//34 23//35
f  27//36 26//36 28//36
f  28//36 30//28 29//37
f  30//28 28//36 24//34
f  24//34 28//36 26//36
f  24//34 26//36 25//38

