# {"id":"BLDG_00030000001ff2ac","idOriginal":"BLDG_00030000001ff2ac","origin":[13.377672509928676,52.56262073846522],"elevation":41.0999984741211}
# Longitude: 13.377672509928676
# Latitude: 52.56262073846522
# Elevation: 41.0999984741211

# File produced by Open Asset Import Library (http://www.assimp.sf.net)
# (assimp v3.1.0)

mtllib BLDG_00030000001ff2ac.obj.mtl

# 8 vertex positions
v  0.993963 3.44545 -5.30684
v  14.2703 1.71274e-16 -2.79712
v  0.993889 3.24944e-16 -5.30673
v  14.2704 3.44545 -2.79723
v  13.3018 2.84055 2.20592
v  13.3017 -1.35079e-16 2.20601
v  6.0604e-05 2.84055 -9.00803e-05
v  0 0 0

# 0 UV coordinates

# 11 vertex normals
vn 0.185739 -3.51031e-05 -0.982599
vn 0.185739 -3.50999e-05 -0.982599
vn 0.981771 -1.50869e-05 0.190066
vn 0.981771 -1.49096e-05 0.190066
vn -0.16361 3.48101e-05 0.986525
vn -0.98291 1.51328e-05 -0.184088
vn -0.98291 1.51315e-05 -0.184088
vn -0.0182203 0.99378 0.109864
vn -0.0218935 0.993029 0.115821
vn 0 -1 -6.12323e-17
vn 2.90952e-24 -1 -6.12323e-17

# Mesh 'defaultobject' with 12 faces
g defaultobject
usemtl DefaultMaterial
f  1//1 2//1 3//1
f  2//1 1//1 4//2
f  2//3 5//3 6//3
f  5//3 2//3 4//4
f  6//5 7//5 8//5
f  7//5 6//5 5//5
f  7//6 3//6 8//6
f  3//6 7//6 1//7
f  5//8 1//8 7//8
f  1//9 5//9 4//9
f  6//10 3//10 2//10
f  3//10 6//10 8//11

