# {"id":"BLDG_0003000200328e4e","idOriginal":"BLDG_0003000200328e4e","origin":[13.380183580515988,52.524619123647255],"elevation":33.2400016784668}
# Longitude: 13.380183580515988
# Latitude: 52.524619123647255
# Elevation: 33.2400016784668

# File produced by Open Asset Import Library (http://www.assimp.sf.net)
# (assimp v3.1.0)

mtllib BLDG_0003000200328e4e.obj.mtl

# 29 vertex positions
v  11.1005 9.18 -13.977
v  10.2771 9.18 -0.765392
v  17.9803 9.18 -1.33888
v  9.03032 9.18 -13.8229
v  17.9803 9.1824 -1.33888
v  10.6935 9.1824 3.59617
v  20.2767 9.1824 2.87963
v  10.2771 9.1824 -0.765392
v  11.0838 9.1824 7.68354
v  22.43 9.1824 6.83518
v  5.97063 9.1824 3.9493
v  5.55403 9.1824 -0.413766
v  0.302578 9.45241 4.3731
v  5.97063 9.45241 3.9493
v  0.000195919 9.1824 -0.00029045
v  6.3609 9.1824 8.03667
v  11.1003 8.55826e-16 -13.9767
v  10.2769 4.6849e-17 -0.765102
v  9.03013 8.46389e-16 -13.8226
v  17.9801 8.19652e-17 -1.33859
v  10.6934 -2.2022e-16 3.59646
v  20.2765 -1.76344e-16 2.87992
v  11.0836 -4.70499e-16 7.68383
v  22.4298 -4.18552e-16 6.83547
v  5.97043 -2.41843e-16 3.94959
v  5.55383 2.53181e-17 -0.413476
v  0 0 0
v  0.302377 -2.67793e-16 4.3734
v  6.36071 -4.92122e-16 8.03696

# 0 UV coordinates

# 31 vertex normals
vn 0 1 -0
vn -0.00458583 0.998107 -0.0613319
vn -0.00456433 0.998108 -0.0613084
vn 1.94463e-24 -1 -6.12323e-17
vn 0 -1 -6.12323e-17
vn 3.35489e-25 -1 -6.12323e-17
vn 1.13344e-24 -1 -6.12323e-17
vn 6.37717e-25 -1 -6.12323e-17
vn 3.40366e-25 -1 -6.12323e-17
vn -0.995472 2.4207e-05 0.0950508
vn -0.995472 2.43055e-05 0.0950508
vn -0.0742429 -2.99054e-05 -0.99724
vn -0.0742434 -3.00167e-05 -0.99724
vn 0.878297 -3.39035e-05 -0.478116
vn 0.878297 -3.38458e-05 -0.478116
vn 0.878296 -3.36894e-05 -0.478116
vn 0.878297 -3.39273e-05 -0.478116
vn 0.878297 -3.38997e-05 -0.478116
vn 0.0745625 2.99496e-05 0.997216
vn 0.0745625 2.99496e-05 0.997216
vn -0.0742432 -2.99597e-05 -0.99724
vn -0.0742432 -2.99635e-05 -0.99724
vn 0.0745625 2.99497e-05 0.997216
vn 0.0745625 2.99452e-05 0.997216
vn -0.997618 2.34695e-05 0.0689753
vn -0.997618 2.34673e-05 0.0689753
vn -0.0742432 -2.99598e-05 -0.99724
vn 0.995472 -2.57909e-05 -0.0950507
vn -0.995472 2.42474e-05 0.0950509
vn -0.995472 2.42548e-05 0.0950509
vn 0.0745625 2.9895e-05 0.997216

# Mesh 'defaultobject' with 49 faces
g defaultobject
usemtl DefaultMaterial
f  1//1 2//1 3//1
f  2//1 1//1 4//1
f  5//1 6//1 7//1
f  6//1 5//1 8//1
f  7//1 9//1 10//1
f  9//1 7//1 6//1
f  8//1 11//1 6//1
f  11//1 8//1 12//1
f  12//2 13//2 14//2
f  13//3 12//3 15//3
f  6//1 16//1 9//1
f  16//1 6//1 11//1
f  17//4 18//4 19//4
f  18//4 17//4 20//5
f  20//5 21//5 18//4
f  21//5 20//5 22//5
f  22//5 23//6 21//5
f  23//6 22//5 24//7
f  18//4 25//8 26//8
f  25//8 18//4 21//5
f  27//5 25//8 28//5
f  25//8 27//5 26//8
f  21//5 29//9 25//8
f  29//9 21//5 23//6
f  2//10 19//10 18//10
f  19//10 2//10 4//11
f  4//12 17//12 19//12
f  17//12 4//12 1//13
f  17//14 3//14 20//14
f  3//14 17//14 1//15
f  20//14 7//16 22//16
f  7//16 20//14 5//17
f  22//16 10//18 24//18
f  10//18 22//16 7//16
f  24//19 9//19 23//19
f  9//19 24//19 10//20
f  12//21 18//21 26//21
f  18//21 12//21 8//22
f  25//23 13//23 28//23
f  13//23 25//23 14//24
f  13//25 27//25 28//25
f  27//25 13//25 15//26
f  15//27 26//21 27//27
f  26//21 15//27 12//21
f  14//28 11//28 12//28
f  16//29 25//29 29//29
f  25//29 16//29 11//30
f  23//19 16//31 29//31
f  16//31 23//19 9//19

