# {"id":"BLDG_00030009001eb08a","idOriginal":"BLDG_00030009001eb08a","origin":[13.35483761997292,52.54755854260051],"elevation":36.3800010681152}
# Longitude: 13.35483761997292
# Latitude: 52.54755854260051
# Elevation: 36.3800010681152

# File produced by Open Asset Import Library (http://www.assimp.sf.net)
# (assimp v3.1.0)

mtllib BLDG_00030009001eb08a.obj.mtl

# 16 vertex positions
v  23.5555 3.56646 21.3256
v  23.2329 -1.28506e-15 20.9866
v  23.5554 -1.30582e-15 21.3257
v  23.233 3.56646 20.9865
v  29.0949 -9.23787e-16 15.0866
v  29.095 3.56646 15.0865
v  5.51303 3.77411e-16 -6.1636
v  5.5131 3.56646 -6.16371
v  7.5976e-05 3.56646 -0.00011298
v  0 0 0
v  5.57093 3.56646 5.06852
v  5.57085 -3.10365e-16 5.06864
v  6.66777 -2.37068e-16 3.87161
v  6.66785 3.56646 3.8715
v  24.2832 3.56646 19.5845
v  24.2831 -1.19921e-15 19.5847

# 0 UV coordinates

# 22 vertex normals
vn -0.724618 3.76146e-05 0.68915
vn -0.724614 3.68586e-05 0.689155
vn 0.747788 5.25611e-06 0.663938
vn 0.747788 5.51251e-06 0.663938
vn 0.669426 -3.80077e-05 -0.742879
vn 0.669426 -3.82772e-05 -0.742879
vn -0.745347 -5.24114e-06 -0.666676
vn -0.745347 -5.19096e-06 -0.666676
vn -0.67298 3.7834e-05 0.739661
vn -0.67298 3.77677e-05 0.739661
vn 0.737262 5.64081e-06 0.675607
vn -0.665664 3.81857e-05 0.746251
vn -0.665664 3.78864e-05 0.746251
vn -0.800347 -2.22429e-06 -0.599536
vn -0.800347 -2.11691e-06 -0.599537
vn 0 1 0
vn 0 -1 -6.12323e-17
vn 1.70909e-23 -1 -6.12323e-17
vn 1.99668e-24 -1 -6.12323e-17
vn -5.47026e-24 -1 -6.12323e-17
vn -5.18574e-23 -1 -6.12324e-17
vn 6.55011e-23 -1 -6.12323e-17

# Mesh 'defaultobject' with 28 faces
g defaultobject
usemtl DefaultMaterial
f  1//1 2//1 3//1
f  2//1 1//1 4//2
f  5//3 1//3 3//3
f  1//3 5//3 6//4
f  7//5 6//5 5//5
f  6//5 7//5 8//6
f  9//7 7//7 10//7
f  7//7 9//7 8//8
f  11//9 10//9 12//9
f  10//9 11//9 9//10
f  13//11 11//11 12//11
f  11//11 13//11 14//11
f  15//12 13//12 16//12
f  13//12 15//12 14//13
f  4//14 16//14 2//14
f  16//14 4//14 15//15
f  11//16 8//16 9//16
f  8//16 11//16 14//16
f  8//16 14//16 6//16
f  6//16 14//16 15//16
f  6//16 15//16 4//16
f  6//16 4//16 1//16
f  7//17 12//17 10//17
f  12//17 7//17 13//18
f  13//18 7//17 5//19
f  13//18 5//19 16//20
f  16//20 5//19 3//21
f  3//21 2//22 16//20

