# {"id":"BLDG_0003000f00412950","idOriginal":"BLDG_0003000f00412950","origin":[13.370812307398753,52.551638865795866],"elevation":38.6300010681152}
# Longitude: 13.370812307398753
# Latitude: 52.551638865795866
# Elevation: 38.6300010681152

# File produced by Open Asset Import Library (http://www.assimp.sf.net)
# (assimp v3.1.0)

mtllib BLDG_0003000f00412950.obj.mtl

# 106 vertex positions
v  -1.31299 17.3 -2.64121
v  -9.9821 -0.139999 -20.07
v  -1.31337 -0.139999 -2.64065
v  -9.98173 17.3 -20.0706
v  -13.0045 -5.62388e-16 9.1845
v  -11.297 20.3041 10.6074
v  -11.2975 -6.49558e-16 10.6081
v  -13.0041 20.3041 9.18385
v  -12.5939 -5.31396e-16 8.67836
v  -12.5935 20.3041 8.67772
v  -15.5556 -3.9159e-16 6.39515
v  -15.5552 20.3041 6.3945
v  -15.1443 -3.62126e-16 5.91397
v  -15.1438 20.3041 5.91333
v  -18.5617 -2.00301e-16 3.27116
v  -18.5613 20.3041 3.27052
v  -19.7356 20.3041 4.64988
v  -19.736 -2.84763e-16 4.65053
v  -24.5466 -1.25239e-17 0.204531
v  -24.5462 20.3041 0.203888
v  -27.737 20.3041 3.93085
v  -27.7374 -2.40735e-16 3.9315
v  -15.3833 20.3041 13.5582
v  -15.3837 -8.30242e-16 13.5589
v  -14.2838 20.3041 14.415
v  -14.2843 -8.82707e-16 14.4157
v  -14.9896 0.129997 -1.41047
v  -18.5613 19.9924 3.27053
v  -18.5617 0.129997 3.27116
v  -14.9892 19.9924 -1.4111
v  -19.3168 0.129997 -4.89854
v  -19.3164 19.9924 -4.89917
v  -24.5462 19.9924 0.203898
v  -24.5466 0.129997 0.204527
v  -19.7356 19.9924 4.64989
v  -19.736 0.129997 4.65052
v  -17.2827 0.0699997 -7.01044
v  -19.3164 20.2818 -4.89918
v  -19.3168 0.0699997 -4.89854
v  -17.2823 20.2818 -7.01108
v  -13.5477 0.0699997 -10.8883
v  -13.5473 20.2818 -10.8889
v  -13.874 0.0699997 -11.4754
v  -13.8736 20.2818 -11.476
v  -17.8229 0.0699997 -16.1153
v  -17.8225 20.2818 -16.1159
v  -28.943 20.2818 -4.78945
v  -28.9434 0.0699997 -4.78881
v  -24.7882 20.2818 -1.47661
v  -24.7886 0.0699997 -1.47597
v  -24.5462 20.2818 0.203889
v  -24.5466 0.0699997 0.204529
v  -10.1196 0.0900002 -20.0007
v  -7.7062 20.1582 -15.4021
v  -7.70663 0.0900002 -15.4015
v  -10.1192 20.1582 -20.0014
v  -10.2787 20.1582 -19.921
v  -10.2791 0.0900002 -19.9203
v  -17.8225 20.1582 -16.1159
v  -17.8229 0.0900002 -16.1153
v  -13.8736 20.1582 -11.476
v  -13.874 0.0900002 -11.4754
v  -8.89183 0.0900002 -14.0874
v  -8.8914 20.1582 -14.0881
v  -9.26929 0.0900002 -14.6495
v  -9.26886 20.1582 -14.6502
v  4.7514 21.16 -10.3804
v  4.7514 21.1569 -10.3804
v  4.75315 21.1571 -10.3826
v  0.536967 20.6044 -5.00208
v  0.536967 20.6 -5.00208
v  0.503947 20.6 -4.95994
v  0.503946 20.5411 -4.95994
v  4.77501 21.16 -10.4105
v  4.77501 21.121 -10.4105
v  7.08729 17.3 -13.3614
v  5.06813 17.3 10.1887
v  3.38486 -0.140001 6.8056
v  5.06775 -0.139999 10.1892
v  3.38117 -0.139999 6.79818
v  0 -0.140001 -8.57259e-18
v  0.000442282 20.6 -0.000657219
v  3.38532 21.16 6.80493
v  3.38162 21.16 6.7975
v  -12.4311 20.6 15.8589
v  -4.32514 17.3 22.1761
v  -7.02196 21.16 20.0742
v  -14.5288 17.3 14.2243
v  -14.5291 -0.139999 14.2249
v  -4.32551 -0.139999 22.1766
v  -12.4315 -0.139999 15.8595
v  -7.02242 -0.139999 20.0749
v  -0.00113741 20.596 -0.00383305
v  -0.0015796 -0.139999 -0.00317596
v  -0.00113732 20.6 -0.00383317
v  13.4684 17.3 -0.531509
v  13.468 -0.140001 -0.530956
v  0.996871 17.3 -25.6068
v  -7.60713 20.6 -21.2681
v  -2.05601 21.16 -24.0674
v  0.996499 -0.139999 -25.6062
v  -2.05646 -0.139999 -24.0667
v  -7.60757 -0.139999 -21.2674
v  7.08692 -0.139999 -13.3608
v  9.47324 21.16 -0.964284
v  1.85033 20.6 -2.36143

# 0 UV coordinates

# 135 vertex normals
vn -0.895369 3.32069e-05 0.445325
vn -0.895369 3.32191e-05 0.445325
vn 0.640463 -3.80044e-05 -0.767989
vn 0.640463 -3.79992e-05 -0.767989
vn 0.776588 3.34776e-06 0.630009
vn 0.776589 3.41419e-06 0.630007
vn 0.610549 -3.81259e-05 -0.791979
vn 0.610548 -3.81071e-05 -0.791979
vn 0.760105 4.37761e-06 0.6498
vn 0.611744 -3.80964e-05 -0.791056
vn 0.611744 -3.81073e-05 -0.791056
vn -0.761437 -4.2998e-06 -0.648239
vn -0.761437 -4.30741e-06 -0.648239
vn 0.67873 -3.77307e-05 -0.734388
vn -0.759632 -4.41291e-06 -0.650353
vn -0.759632 -4.41005e-06 -0.650353
vn -0.614695 3.80782e-05 0.788765
vn -0.614695 3.81059e-05 0.788765
vn -0.614691 3.81152e-05 0.788768
vn 0.786807 2.78557e-06 0.617199
vn 0.795009 2.28297e-06 0.606598
vn 0.627578 -3.80362e-05 -0.778554
vn 0.627578 -3.80449e-05 -0.778554
vn -0.698382 -7.79196e-06 -0.715725
vn -0.698382 -7.7925e-06 -0.715725
vn -0.67873 3.77415e-05 0.734388
vn -0.67873 3.77409e-05 0.734388
vn 0.761437 4.31032e-06 0.648239
vn 0.720248 6.62176e-06 0.693717
vn 0.720248 6.6166e-06 0.693717
vn 0.720248 6.59907e-06 0.693717
vn 0.874073 -3.40214e-05 -0.485795
vn 0.761535 -3.67543e-05 -0.648124
vn 0.761534 -3.67233e-05 -0.648124
vn -0.713564 -6.97923e-06 -0.70059
vn -0.713564 -6.92965e-06 -0.70059
vn -0.623435 3.80736e-05 0.781875
vn -0.623435 3.8069e-05 0.781875
vn -0.989786 2.56268e-05 0.142559
vn -0.989786 2.5627e-05 0.142559
vn 0.698382 7.78759e-06 0.715725
vn 0.885523 -3.35977e-05 -0.464595
vn 0.885523 -3.35977e-05 -0.464595
vn -0.450129 -1.86787e-05 -0.892964
vn -0.450127 -1.86574e-05 -0.892965
vn -0.450354 -1.86703e-05 -0.89285
vn -0.761534 3.67926e-05 0.648124
vn -0.761534 3.67257e-05 0.648125
vn 0.464328 1.81626e-05 0.885663
vn 0.464328 1.81879e-05 0.885663
vn 0.830191 -3.53456e-05 -0.55748
vn 0.433612 1.93329e-05 0.9011
vn 0.433612 1.93226e-05 0.9011
vn 0.787146 0 0.616766
vn 0.787128 -0 0.61679
vn 0.787126 0 0.616792
vn 0.787127 -2.15486e-05 0.616791
vn 0.787127 3.24883e-06 0.616791
vn 0.787127 3.24584e-06 0.61679
vn -0.787124 -5.45588e-06 -0.616795
vn -0.787129 -5.45564e-06 -0.616788
vn -0.895369 3.31946e-05 0.445325
vn -0.895368 3.26975e-05 0.445327
vn -0.895369 3.31948e-05 0.445325
vn -0.895369 3.32055e-05 0.445325
vn -0.895369 3.32285e-05 0.445325
vn -0.89538 0.000410678 0.445303
vn -0.614691 3.85698e-05 0.788768
vn -0.614691 3.78885e-05 0.788768
vn -0.614691 3.81121e-05 0.788768
vn -0.614691 3.81259e-05 0.788768
vn 0 -1 0
vn 0.895369 0 -0.445326
vn 0.895369 -3.32054e-05 -0.445325
vn 0.895369 -3.31906e-05 -0.445325
vn 0.895369 -3.31842e-05 -0.445325
vn 0.895366 -0.00247563 -0.445323
vn 0.895313 0.0112443 -0.445296
vn 0.895369 -3.26497e-05 -0.445325
vn 0.895369 -3.26497e-05 -0.445325
vn 0.787128 2.75666e-06 0.61679
vn 0.787128 2.78635e-06 0.61679
vn 0.787128 2.76239e-06 0.61679
vn 0.787128 2.77563e-06 0.61679
vn -0.450265 -1.88068e-05 -0.892895
vn -0.450265 -1.838e-05 -0.892895
vn -0.450265 -1.87147e-05 -0.892895
vn -0.450265 -1.86799e-05 -0.892895
vn -0.450265 -1.8691e-05 -0.892895
vn -0.450265 -1.87167e-05 -0.892895
vn 0.895369 -3.32054e-05 -0.445325
vn 0.895369 -3.31705e-05 -0.445325
vn 0.895369 -3.32774e-05 -0.445325
vn 0.895369 -3.32191e-05 -0.445325
vn -0.787128 -2.77563e-06 -0.61679
vn -0.787128 -2.75877e-06 -0.61679
vn 0 1 -0
vn -0.0640244 0.996687 -0.0501693
vn -0.0640641 0.996682 -0.0502004
vn -0.0640811 0.99668 -0.0502301
vn -0.0640328 0.996682 -0.0502543
vn 0.589781 0.66225 0.46215
vn 0.589781 0.66225 0.46215
vn 0.673235 0.659269 -0.334843
vn 0.673235 0.659269 -0.334843
vn -0.080504 0.99595 0.0400398
vn -0.080504 0.99595 0.0400398
vn -0.0805158 0.995949 0.0400457
vn 0.768221 0 0.640184
vn -0.61262 0.627894 -0.480047
vn -0.6126 0.627926 -0.480031
vn -0.69218 0.634325 0.344265
vn -0.69218 0.634325 0.344265
vn -0.612891 0.627469 -0.480258
vn -0.612891 0.627469 -0.480258
vn 0.589214 0.663065 0.461706
vn 0.589214 0.663065 0.461706
vn -0.69716 0.627486 0.346742
vn -0.69716 0.627486 0.346742
vn -0.0803272 0.995968 0.0399519
vn -0.0803271 0.995968 0.0399517
vn -0.0803468 0.995966 0.0399616
vn 0.670251 0.66305 -0.333359
vn 0.670251 0.66305 -0.333359
vn 0.707107 0.707107 0
vn -0.204362 -0.67811 0.705977
vn 0 -1 -6.12323e-17
vn 1.54613e-23 -1 -6.12323e-17
vn 4.6171e-23 -1 -6.12324e-17
vn -1.21919e-24 -1 -6.12323e-17
vn -9.66618e-24 -1 -6.12323e-17
vn 1.69352e-23 -1 -6.12324e-17
vn -7.00581e-24 -1 -6.12323e-17
vn 0 -1 -6.12324e-17
vn -2.25077e-07 -1 -1.92979e-08

# Mesh 'defaultobject' with 196 faces
g defaultobject
usemtl DefaultMaterial
f  1//1 2//1 3//1
f  2//1 1//1 4//2
f  5//3 6//3 7//3
f  6//3 5//3 8//4
f  9//5 8//5 5//5
f  8//5 9//5 10//6
f  11//7 10//7 9//7
f  10//7 11//7 12//8
f  13//9 12//9 11//9
f  12//9 13//9 14//9
f  15//10 14//10 13//10
f  14//10 15//10 16//11
f  17//12 15//12 18//12
f  15//12 17//12 16//13
f  19//14 17//14 18//14
f  17//14 19//14 20//14
f  21//15 19//15 22//15
f  19//15 21//15 20//16
f  23//17 22//17 24//17
f  22//17 23//17 21//18
f  25//19 24//17 26//19
f  24//17 25//19 23//17
f  7//20 25//20 26//20
f  25//20 7//20 6//20
f  27//21 28//21 29//21
f  28//21 27//21 30//21
f  31//22 30//22 27//22
f  30//22 31//22 32//23
f  33//24 31//24 34//24
f  31//24 33//24 32//25
f  35//26 34//26 36//26
f  34//26 35//26 33//27
f  29//28 35//28 36//28
f  35//28 29//28 28//28
f  37//29 38//29 39//29
f  38//29 37//29 40//29
f  41//30 40//29 37//29
f  40//29 41//30 42//31
f  43//32 42//32 41//32
f  42//32 43//32 44//32
f  45//33 44//33 43//33
f  44//33 45//33 46//34
f  47//35 45//35 48//35
f  45//35 47//35 46//36
f  49//37 48//37 50//37
f  48//37 49//37 47//38
f  51//39 50//39 52//39
f  50//39 51//39 49//40
f  39//41 51//41 52//41
f  51//41 39//41 38//41
f  53//42 54//42 55//42
f  54//42 53//42 56//43
f  57//44 53//44 58//44
f  53//44 57//44 56//45
f  59//46 58//46 60//46
f  58//46 59//46 57//46
f  61//47 60//47 62//47
f  60//47 61//47 59//48
f  63//49 61//49 62//49
f  61//49 63//49 64//50
f  65//51 64//51 63//51
f  64//51 65//51 66//51
f  55//52 66//52 65//52
f  66//52 55//52 54//53
f  67//54 68//54 69//54
f  68//55 67//55 70//55
f  68//55 70//55 71//56
f  71//57 70//57 72//57
f  71//56 72//58 73//58
f  73//58 72//58 1//59
f  74//60 75//60 69//60
f  75//60 74//60 76//61
f  77//62 78//62 79//62
f  78//62 77//62 80//63
f  80//63 77//62 81//64
f  81//64 77//62 82//65
f  82//65 77//62 83//66
f  82//67 83//67 84//67
f  85//68 86//68 87//68
f  86//68 85//68 88//69
f  86//68 88//69 89//70
f  86//68 89//70 90//71
f  90//71 89//70 91//39
f  90//72 91//39 92//72
f  84//73 93//73 82//73
f  93//74 84//74 94//74
f  94//74 84//74 77//75
f  94//74 77//75 79//76
f  94//72 79//72 80//72
f  94//77 80//77 81//77
f  80//78 79//78 78//78
f  95//79 93//74 1//79
f  93//74 95//79 82//80
f  96//81 79//81 97//81
f  79//81 96//81 90//82
f  90//82 96//81 77//83
f  90//82 77//83 86//84
f  98//85 99//85 100//85
f  99//85 98//85 4//86
f  4//86 98//85 101//87
f  4//86 101//87 102//88
f  4//86 102//88 103//89
f  4//86 103//89 2//90
f  97//91 76//91 96//91
f  76//91 97//91 98//92
f  98//92 97//91 104//93
f  98//92 104//93 101//94
f  88//95 3//95 89//95
f  3//95 88//95 1//96
f  16//97 17//97 14//97
f  6//97 23//97 25//97
f  23//97 6//97 8//97
f  23//97 8//97 21//97
f  21//97 8//97 10//97
f  21//97 10//97 12//97
f  21//97 12//97 14//97
f  21//97 14//97 17//97
f  21//97 17//97 20//97
f  28//97 33//97 35//97
f  33//97 28//97 30//97
f  33//97 30//97 32//97
f  38//97 49//97 51//97
f  49//97 46//97 47//97
f  46//97 49//97 38//97
f  46//97 38//97 40//97
f  46//97 40//97 42//97
f  46//97 42//97 44//97
f  56//97 66//97 54//97
f  66//97 61//97 64//97
f  61//97 66//97 59//97
f  59//97 66//97 56//97
f  59//97 56//97 57//97
f  105//97 84//97 83//97
f  106//98 82//98 105//98
f  84//99 85//99 87//99
f  85//100 84//100 82//100
f  85//97 82//97 95//97
f  82//101 84//101 105//101
f  96//102 83//102 77//102
f  83//102 96//102 105//103
f  105//104 76//104 74//104
f  76//104 105//104 96//105
f  105//106 71//106 106//106
f  71//106 105//106 69//107
f  69//108 105//108 74//108
f  71//109 69//109 68//109
f  106//110 93//110 82//110
f  93//111 106//111 1//111
f  106//112 73//112 1//112
f  73//112 106//112 71//113
f  95//114 88//114 85//114
f  88//114 95//114 1//115
f  77//116 87//116 86//116
f  87//116 77//116 84//117
f  4//118 72//118 99//118
f  72//118 4//118 1//119
f  99//120 67//120 100//120
f  67//120 99//120 70//121
f  70//122 99//122 72//122
f  100//123 76//123 98//123
f  76//123 100//123 67//124
f  76//125 67//125 75//125
f  75//126 67//126 69//126
f  26//127 5//127 7//127
f  5//127 26//127 24//128
f  5//127 11//129 9//129
f  11//129 5//127 24//128
f  11//129 24//128 22//130
f  11//129 22//130 18//131
f  11//129 18//131 15//132
f  18//131 22//130 19//133
f  15//132 13//134 11//129
f  27//72 34//72 31//72
f  34//72 27//72 29//72
f  34//72 29//72 36//72
f  52//72 50//72 39//72
f  41//72 45//72 43//72
f  45//72 41//72 37//72
f  45//72 37//72 48//72
f  48//72 37//72 39//72
f  48//72 39//72 50//72
f  55//72 58//72 53//72
f  58//72 55//72 60//72
f  60//72 55//72 65//72
f  60//72 65//72 62//72
f  62//72 65//72 63//72
f  103//72 3//72 2//72
f  3//72 103//72 102//72
f  3//72 102//72 101//72
f  3//72 101//72 104//72
f  3//72 104//72 92//72
f  92//72 104//72 90//72
f  90//72 104//72 79//72
f  79//72 104//72 97//135
f  3//72 91//39 89//72
f  91//39 3//72 92//72

