# {"id":"BLDG_00030000001e7459","idOriginal":"BLDG_00030000001e7459","origin":[13.36306387606743,52.56079956489385],"elevation":40}
# Longitude: 13.36306387606743
# Latitude: 52.56079956489385
# Elevation: 40

# File produced by Open Asset Import Library (http://www.assimp.sf.net)
# (assimp v3.1.0)

mtllib BLDG_00030000001e7459.obj.mtl

# 8 vertex positions
v  1.27179 -3.28065e-16 5.35772
v  19.5848 2.16147e-16 -3.52995
v  20.8491 -1.18347e-16 1.93275
v  0 0 0
v  1.27197 8.35682 5.35745
v  20.8493 8.35682 1.93248
v  0.000163293 7.66092 -0.00024291
v  19.5849 7.66092 -3.53019

# 0 UV coordinates

# 12 vertex normals
vn 1.90302e-24 -1 -6.12323e-17
vn 1.93529e-24 -1 -6.12323e-17
vn 0.172329 2.75614e-05 0.985039
vn 0.172329 2.76073e-05 0.985039
vn -0.972964 2.80628e-05 0.230958
vn -0.972964 2.8062e-05 0.230958
vn -0.177381 -2.7424e-05 -0.984142
vn -0.177381 -2.7456e-05 -0.984142
vn 0.974247 -2.78323e-05 -0.225483
vn 0.974247 -2.77851e-05 -0.225483
vn -0.0212559 0.992364 -0.1215
vn -0.0222728 0.992086 -0.123573

# Mesh 'defaultobject' with 12 faces
g defaultobject
usemtl DefaultMaterial
f  1//1 2//1 3//1
f  2//1 1//1 4//2
f  3//3 5//3 1//3
f  5//3 3//3 6//4
f  5//5 4//5 1//5
f  4//5 5//5 7//6
f  7//7 2//7 4//7
f  2//7 7//7 8//8
f  2//9 6//9 3//9
f  6//9 2//9 8//10
f  8//11 5//11 6//11
f  5//12 8//12 7//12

