# {"id":"BLDG_0003000000288310","idOriginal":"BLDG_0003000000288310","origin":[13.34642678676258,52.53735595737244],"elevation":34.8400001525879}
# Longitude: 13.34642678676258
# Latitude: 52.53735595737244
# Elevation: 34.8400001525879

# File produced by Open Asset Import Library (http://www.assimp.sf.net)
# (assimp v3.1.0)

mtllib BLDG_0003000000288310.obj.mtl

# 22 vertex positions
v  9.94794 -1.54247e-15 25.1904
v  4.18455 18.377 23.8443
v  4.18416 -1.46008e-15 23.8449
v  9.94833 18.377 25.1898
v  16.1949 1.53859e-16 -2.51271
v  16.1953 18.377 -2.51329
v  1.30331 18.377 -5.8726
v  1.30291 3.59558e-16 -5.87202
v  0.000391267 18.377 -0.0005818
v  0 0 0
v  8.72082 -1.14418e-16 1.8686
v  8.72121 18.377 1.86801
v  8.72086 1.58 1.86855
v  4.18465 23.3107 23.8441
v  4.18419 1.58 23.8448
v  8.72132 23.3107 1.86786
v  0.00049631 23.3107 -0.000738
v  3.364e-05 1.58 -5.00204e-05
v  -5.4506 23.3107 24.5665
v  -5.45107 1.58 24.5672
v  3.57616 1.58 26.6278
v  3.57662 23.3107 26.6272

# 0 UV coordinates

# 28 vertex normals
vn -0.227336 3.56678e-05 0.973816
vn -0.227336 3.56766e-05 0.973816
vn 0.975506 -1.38296e-05 0.219973
vn 0.975506 -1.3888e-05 0.219973
vn 0.220049 -3.55663e-05 -0.975489
vn 0.220049 -3.55849e-05 -0.975489
vn -0.976257 1.39277e-05 -0.216617
vn -0.976257 1.39336e-05 -0.216617
vn -0.209513 3.54122e-05 0.977806
vn -0.209513 3.54122e-05 0.977806
vn -0.97935 1.44631e-05 -0.202172
vn -0.97935 1.44363e-05 -0.202172
vn 0.97935 -1.44568e-05 0.202172
vn 0.97935 -1.44412e-05 0.202172
vn 0.209513 -3.54175e-05 -0.977806
vn 0.209513 -3.54205e-05 -0.977806
vn -0.976257 1.39561e-05 -0.216617
vn -0.976257 1.39276e-05 -0.216617
vn -0.222548 3.55471e-05 0.974922
vn -0.222548 3.56229e-05 0.974922
vn 0.976955 -1.40309e-05 0.213445
vn 0.976955 -1.40501e-05 0.213445
vn 0 1 0
vn -3.77959e-24 -1 -6.12323e-17
vn 2.93343e-24 -1 -6.12323e-17
vn 0 -1 -6.12323e-17
vn -1.15308e-24 -1 -6.12323e-17
vn -0 -1 0

# Mesh 'defaultobject' with 36 faces
g defaultobject
usemtl DefaultMaterial
f  1//1 2//1 3//1
f  2//1 1//1 4//2
f  5//3 4//3 1//3
f  4//3 5//3 6//4
f  7//5 5//5 8//5
f  5//5 7//5 6//6
f  9//7 8//7 10//7
f  8//7 9//7 7//8
f  11//9 9//9 10//9
f  9//9 11//9 12//10
f  2//11 11//11 3//11
f  11//11 2//11 12//12
f  13//13 14//13 15//13
f  14//13 13//13 16//14
f  17//15 13//15 18//15
f  13//15 17//15 16//16
f  19//17 18//17 20//17
f  18//17 19//17 17//18
f  21//19 19//19 20//19
f  19//19 21//19 22//20
f  15//21 22//21 21//21
f  22//21 15//21 14//22
f  4//23 12//23 2//23
f  12//23 4//23 6//23
f  12//23 6//23 7//23
f  7//23 9//23 12//23
f  14//23 19//23 22//23
f  19//23 14//23 16//23
f  19//23 16//23 17//23
f  1//24 3//24 5//24
f  11//25 5//24 3//24
f  10//26 5//24 11//25
f  8//27 5//24 10//26
f  13//28 20//28 18//28
f  20//28 13//28 15//28
f  20//28 15//28 21//28

