# {"id":"BLDG_0003000800154fc1","idOriginal":"BLDG_0003000800154fc1","origin":[13.393446374489704,52.52735213679149],"elevation":34.939998626709}
# Longitude: 13.393446374489704
# Latitude: 52.52735213679149
# Elevation: 34.939998626709

# File produced by Open Asset Import Library (http://www.assimp.sf.net)
# (assimp v3.1.0)

mtllib BLDG_0003000800154fc1.obj.mtl

# 8 vertex positions
v  4.48301 8.07676e-17 -1.31904
v  10.4907 9.45654 13.33
v  10.4905 -8.16247e-16 13.3303
v  4.48321 9.45654 -1.31933
v  6.00764 8.26073 14.6491
v  6.00746 -8.97014e-16 14.6494
v  0 0 0
v  0.000176405 8.26073 -0.000261339

# 0 UV coordinates

# 11 vertex normals
vn 0.925225 -3.17959e-05 -0.37942
vn 0.925225 -3.17449e-05 -0.37942
vn 0.282266 2.43096e-05 0.959336
vn 0.282266 2.43432e-05 0.959336
vn -0.925225 3.17626e-05 0.37942
vn -0.925225 3.17613e-05 0.37942
vn -0.282266 -2.43222e-05 -0.959336
vn -0.282266 -2.43339e-05 -0.959336
vn 5.75452e-24 -1 -6.12323e-17
vn 0 -1 -6.12323e-17
vn -0.230515 0.968466 0.0945304

# Mesh 'defaultobject' with 12 faces
g defaultobject
usemtl DefaultMaterial
f  1//1 2//1 3//1
f  2//1 1//1 4//2
f  3//3 5//3 6//3
f  5//3 3//3 2//4
f  5//5 7//5 6//5
f  7//5 5//5 8//6
f  8//7 1//7 7//7
f  1//7 8//7 4//8
f  6//9 1//9 3//9
f  1//9 6//9 7//10
f  5//11 4//11 8//11
f  4//11 5//11 2//11

