# {"id":"BLDG_0003000a001c9879","idOriginal":"BLDG_0003000a001c9879","origin":[13.402497258932634,52.53802069201232],"elevation":48.3300018310547}
# Longitude: 13.402497258932634
# Latitude: 52.53802069201232
# Elevation: 48.3300018310547

# File produced by Open Asset Import Library (http://www.assimp.sf.net)
# (assimp v3.1.0)

mtllib BLDG_0003000a001c9879.obj.mtl

# 8 vertex positions
v  0.714575 2.86905 1.65155
v  0 0 0
v  0.714514 -1.01134e-16 1.65164
v  6.1304e-05 2.86905 -9.083e-05
v  4.29266 -6.30961e-18 0.103044
v  4.29272 2.86905 0.102953
v  3.56707 9.45382e-17 -1.54393
v  3.56713 2.86905 -1.54402

# 0 UV coordinates

# 11 vertex normals
vn -0.917798 3.21913e-05 0.397047
vn -0.917798 3.21809e-05 0.397047
vn 0.39719 2.05466e-05 0.917736
vn 0.39719 2.05892e-05 0.917736
vn 0.915127 -3.22295e-05 -0.403167
vn 0.915127 -3.2368e-05 -0.403167
vn -0.397217 -2.05664e-05 -0.917725
vn -0.397217 -2.0606e-05 -0.917725
vn -1.17894e-25 -1 -6.12323e-17
vn 0 -1 -6.12323e-17
vn 0 1 0

# Mesh 'defaultobject' with 12 faces
g defaultobject
usemtl DefaultMaterial
f  1//1 2//1 3//1
f  2//1 1//1 4//2
f  1//3 5//3 6//3
f  5//3 1//3 3//4
f  6//5 7//5 8//5
f  7//5 6//5 5//6
f  4//7 7//7 2//7
f  7//7 4//7 8//8
f  2//9 5//9 3//9
f  5//9 2//9 7//10
f  6//11 4//11 1//11
f  4//11 6//11 8//11

