# {"id":"BLDG_0003000b001de4c8","idOriginal":"BLDG_0003000b001de4c8","origin":[13.345941327876979,52.50547036607327],"elevation":34.6300010681152}
# Longitude: 13.345941327876979
# Latitude: 52.50547036607327
# Elevation: 34.6300010681152

# File produced by Open Asset Import Library (http://www.assimp.sf.net)
# (assimp v3.1.0)

mtllib BLDG_0003000b001de4c8.obj.mtl

# 60 vertex positions
v  9.64711 25.6751 -8.2628
v  5.64872 25.6751 -5.78412
v  10.0755 25.6751 -7.59661
v  8.7531 25.6751 -10.2087
v  4.34223 25.6751 -8.09791
v  6.90829 25.6751 -10.9548
v  3.65169 25.6751 -9.38292
v  6.88856 2.71949 -2.76503
v  29.4612 2.71949 10.7673
v  30.6492 2.71949 8.4723
v  27.7276 2.71949 14.1172
v  8.62795 2.71949 4.70464
v  3.34547 2.71949 7.22085
v  1.67031 2.71949 3.60435
v  9.6853e-05 2.71949 -0.00014373
v  0.756025 2.71949 1.63307
v  0.000453994 19.4956 -0.00067373
v  0.841304 19.4956 -11.672
v  -4.29585 19.4956 -9.27176
v  2.75082 19.4956 -7.28484
v  5.64859 19.4956 -5.78393
v  10.0754 19.4956 -7.59642
v  9.64698 19.4956 -8.2626
v  35.1521 19.4956 -0.22525
v  14.405 19.4956 -10.5419
v  6.88892 19.4956 -2.76556
v  30.9438 19.4956 7.90332
v  30.6495 19.4956 8.47177
v  33.8671 19.4956 2.25836
v  4.3421 19.4956 -8.09771
v  6.90774 6.70736e-16 -10.954
v  4.34168 4.95804e-16 -8.0971
v  3.65115 5.74489e-16 -9.38211
v  8.75255 6.25051e-16 -10.2079
v  5.64817 3.54126e-16 -5.78331
v  9.64657 5.05901e-16 -8.26198
v  10.075 4.65109e-16 -7.5958
v  6.88846 -1.83 -2.76489
v  0.755929 -1.83 1.63321
v  0 -1.83 -1.12055e-16
v  1.67021 -1.83 3.6045
v  3.34538 -1.83 7.22099
v  8.62785 -1.83 4.70478
v  30.6491 -1.83 8.47244
v  29.4611 -1.83 10.7674
v  27.7275 -1.83 14.1174
v  14.4045 -1.3 -10.5413
v  10.075 -1.3 -7.59576
v  9.64654 -1.3 -8.26194
v  0.840861 -1.3 -11.6714
v  1.1283e-05 -1.3 -1.67498e-05
v  -4.29629 -1.3 -9.27111
v  2.75038 -1.3 -7.28419
v  6.88847 -1.3 -2.76491
v  4.34165 -1.3 -8.09706
v  5.64814 -1.3 -5.78327
v  30.6491 -1.3 8.47242
v  30.9434 -1.3 7.90397
v  35.1516 -1.3 -0.224593
v  33.8667 -1.3 2.25902

# 0 UV coordinates

# 62 vertex normals
vn 0 1 -0
vn -2.00902e-23 -1 -6.12324e-17
vn 1.47364e-23 -1 -6.12323e-17
vn 6.12561e-24 -1 -6.12323e-17
vn 1.05918e-23 -1 -6.12323e-17
vn -2.13144e-23 -1 -6.12324e-17
vn 0 -1 0
vn -0.44205 3.76458e-05 0.896991
vn 0.888132 -4.52933e-06 0.459588
vn 0.888132 -4.44596e-06 0.459588
vn 0.888066 -4.44106e-06 0.459715
vn -0.454912 -1.8438e-05 -0.890536
vn -0.454912 -1.84584e-05 -0.890536
vn 0.916914 -3.21081e-05 -0.399085
vn 0.916914 -3.21273e-05 -0.399085
vn -0.42331 -1.9619e-05 -0.905985
vn -0.42331 -1.96141e-05 -0.905985
vn -0.907313 3.25986e-05 0.420456
vn -0.907313 3.25917e-05 0.420456
vn 0.372494 2.14017e-05 0.928035
vn 0.372494 2.1377e-05 0.928035
vn -0.427536 3.76312e-05 0.903998
vn -0.427536 3.76312e-05 0.903998
vn 0.888066 -4.39267e-06 0.459715
vn 0.888067 -4.3714e-06 0.459715
vn 0.887991 -4.37168e-06 0.459861
vn 0.888171 -4.38697e-06 0.459513
vn 0.888171 -4.38287e-06 0.459513
vn 0.445248 -3.77666e-05 -0.895407
vn 0.445248 -3.77627e-05 -0.895407
vn -0.432035 -1.93029e-05 -0.901857
vn -0.84108 3.50269e-05 0.540911
vn -0.841079 3.49883e-05 0.540912
vn -0.378904 -2.11486e-05 -0.925436
vn -0.378904 -2.11611e-05 -0.925436
vn 0.870773 -3.40731e-05 -0.491686
vn 0.870773 -3.40644e-05 -0.491686
vn 0.908683 -3.25378e-05 -0.417486
vn 0.374928 -3.72559e-05 -0.927054
vn 0.374928 -3.72834e-05 -0.927054
vn -0.434681 -1.92155e-05 -0.900585
vn -0.434681 -1.9174e-05 -0.900585
vn -0.88087 3.3693e-05 0.473359
vn -0.88087 3.37105e-05 0.473359
vn -0.870773 3.4082e-05 0.491686
vn -0.870772 3.40567e-05 0.491686
vn 0.378904 2.11674e-05 0.925436
vn 0.378904 2.11596e-05 0.925436
vn 0.84108 -3.50206e-05 -0.540911
vn 0.841079 -3.49985e-05 -0.540912
vn 0.427536 -3.76633e-05 -0.903998
vn 0.427536 -3.77555e-05 -0.903998
vn -0.372494 -2.1389e-05 -0.928034
vn -0.372494 -2.14009e-05 -0.928034
vn -0.907507 3.2594e-05 0.420037
vn -0.907507 3.25897e-05 0.420037
vn -0.907177 3.26213e-05 0.420749
vn -0.907177 3.26094e-05 0.420749
vn -0.907384 3.25658e-05 0.420303
vn -0.907384 3.26116e-05 0.420303
vn 0.430037 1.93818e-05 0.902811
vn 0.430037 1.92743e-05 0.902811

# Mesh 'defaultobject' with 108 faces
g defaultobject
usemtl DefaultMaterial
f  1//1 2//1 3//1
f  2//1 1//1 4//1
f  2//1 4//1 5//1
f  5//1 4//1 6//1
f  5//1 6//1 7//1
f  8//1 9//1 10//1
f  9//1 8//1 11//1
f  11//1 8//1 12//1
f  12//1 8//1 13//1
f  13//1 8//1 14//1
f  14//1 8//1 15//1
f  14//1 15//1 16//1
f  17//1 18//1 19//1
f  18//1 17//1 20//1
f  20//1 17//1 21//1
f  21//1 17//1 22//1
f  23//1 24//1 25//1
f  24//1 23//1 22//1
f  24//1 22//1 26//1
f  26//1 22//1 17//1
f  24//1 26//1 27//1
f  27//1 26//1 28//1
f  24//1 27//1 29//1
f  21//1 30//1 20//1
f  31//2 32//2 33//2
f  32//2 31//2 34//3
f  32//2 34//3 35//4
f  35//4 34//3 36//5
f  35//4 36//5 37//6
f  38//7 39//7 40//7
f  39//7 38//7 41//7
f  41//7 38//7 42//7
f  42//7 38//7 43//7
f  43//7 38//7 44//7
f  43//7 44//7 45//7
f  43//7 45//7 46//7
f  47//7 48//7 49//7
f  50//7 51//7 52//7
f  51//7 50//7 53//7
f  51//7 53//7 54//7
f  54//7 53//7 55//7
f  54//7 55//7 56//7
f  54//7 56//7 48//7
f  54//7 48//7 57//7
f  57//7 48//7 47//7
f  57//7 47//7 58//7
f  58//7 47//7 59//7
f  58//7 59//7 60//7
f  46//8 12//8 43//8
f  12//8 46//8 11//8
f  45//9 11//9 46//9
f  11//9 45//9 9//10
f  44//11 9//11 45//11
f  9//11 44//11 10//11
f  20//12 55//12 53//12
f  55//12 20//12 30//13
f  50//14 20//14 53//14
f  20//14 50//14 18//15
f  19//16 50//16 52//16
f  50//16 19//16 18//17
f  17//18 52//18 51//18
f  52//18 17//18 19//19
f  54//20 17//20 51//20
f  17//20 54//20 26//21
f  57//22 26//22 54//22
f  26//22 57//22 28//23
f  58//24 28//24 57//24
f  28//24 58//24 27//25
f  60//26 27//26 58//26
f  27//26 60//26 29//26
f  59//27 29//27 60//27
f  29//27 59//27 24//28
f  25//29 59//29 47//29
f  59//29 25//29 24//30
f  23//31 47//31 49//31
f  47//31 23//31 25//31
f  22//32 49//32 48//32
f  49//32 22//32 23//33
f  21//34 48//34 56//34
f  48//34 21//34 22//35
f  55//36 21//36 56//36
f  21//36 55//36 30//37
f  34//38 1//38 36//38
f  1//38 34//38 4//38
f  6//39 34//39 31//39
f  34//39 6//39 4//40
f  7//41 31//41 33//41
f  31//41 7//41 6//42
f  5//43 33//43 32//43
f  33//43 5//43 7//44
f  2//45 32//45 35//45
f  32//45 2//45 5//46
f  37//47 2//47 35//47
f  2//47 37//47 3//48
f  36//49 3//49 37//49
f  3//49 36//49 1//50
f  8//51 44//51 38//51
f  44//51 8//51 10//52
f  15//53 38//53 40//53
f  38//53 15//53 8//54
f  16//55 40//55 39//55
f  40//55 16//55 15//56
f  14//57 39//57 41//57
f  39//57 14//57 16//58
f  13//59 41//59 42//59
f  41//59 13//59 14//60
f  43//61 13//61 42//61
f  13//61 43//61 12//62

