# {"id":"BLDG_0003000e003c9ece","idOriginal":"BLDG_0003000e003c9ece","origin":[13.3479496754132,52.51713733948307],"elevation":33.3400001525879}
# Longitude: 13.3479496754132
# Latitude: 52.51713733948307
# Elevation: 33.3400001525879

# File produced by Open Asset Import Library (http://www.assimp.sf.net)
# (assimp v3.1.0)

mtllib BLDG_0003000e003c9ece.obj.mtl

# 12 vertex positions
v  35.3446 4.87447 -0.564255
v  33.1262 -3.3409e-16 5.45611
v  35.3445 3.45412e-17 -0.564101
v  30.9079 -7.02721e-16 11.4763
v  33.1264 9.97637 5.45579
v  30.908 4.87447 11.4762
v  0.000103788 4.87447 -0.00015411
v  2.21831 3.68631e-16 -6.02021
v  0 0 0
v  4.43662 7.37263e-16 -12.0404
v  2.21852 9.97637 -6.02052
v  4.43672 4.87447 -12.0406

# 0 UV coordinates

# 18 vertex normals
vn 0.938326 -8.89352e-06 0.345752
vn 0.938326 -9.2397e-06 0.345752
vn 0.938326 -9.12856e-06 0.345752
vn 0.938326 -9.30298e-06 0.345752
vn -0.938326 9.04781e-06 -0.345752
vn -0.938326 9.05673e-06 -0.345752
vn -0.938326 9.04969e-06 -0.345752
vn -0.938326 9.05174e-06 -0.345752
vn -0.348086 3.7029e-05 0.937462
vn -0.348086 3.7029e-05 0.937462
vn 0.348086 -3.71358e-05 -0.937462
vn 0.348086 -3.69989e-05 -0.937462
vn 0 -1 -6.12323e-17
vn 1.60173e-23 -1 -6.12324e-17
vn -4.00432e-24 -1 -6.12323e-17
vn -0.216645 0.782708 0.583467
vn 0.216653 0.78269 -0.583488
vn 0.216653 0.78269 -0.583488

# Mesh 'defaultobject' with 20 faces
g defaultobject
usemtl DefaultMaterial
f  1//1 2//1 3//1
f  2//1 1//1 4//2
f  4//2 1//1 5//3
f  4//2 5//3 6//4
f  7//5 8//5 9//5
f  8//5 7//5 10//6
f  10//6 7//5 11//7
f  10//6 11//7 12//8
f  4//9 7//9 9//9
f  7//9 4//9 6//10
f  12//11 3//11 10//11
f  3//11 12//11 1//12
f  2//13 10//13 3//13
f  10//13 2//13 4//14
f  10//13 4//14 9//15
f  10//13 9//15 8//5
f  7//16 5//16 11//16
f  5//16 7//16 6//16
f  11//17 1//17 12//17
f  1//17 11//17 5//18

