# {"id":"BLDG_0003000b001e4b4a","idOriginal":"BLDG_0003000b001e4b4a","origin":[13.35791039741778,52.52111921530112],"elevation":33.2299995422363}
# Longitude: 13.35791039741778
# Latitude: 52.52111921530112
# Elevation: 33.2299995422363

# File produced by Open Asset Import Library (http://www.assimp.sf.net)
# (assimp v3.1.0)

mtllib BLDG_0003000b001e4b4a.obj.mtl

# 34 vertex positions
v  1.84142 23.8613 -1.55252
v  3.12168 23.8613 -5.48965
v  1.74156 23.8613 -5.34991
v  1.88058 23.8613 -0.0498196
v  0.206375 23.8613 7.78454
v  0.000508385 23.8613 -0.00075462
v  6.38072 23.8613 -8.02389
v  3.07318 23.8613 -7.33553
v  6.76817 23.8613 6.67351
v  6.79367 23.8613 7.61081
v  6.43899 23.8613 -5.82568
v  6.48267 23.8613 -4.17581
v  9.39103 23.8613 -4.25291
v  14.638 23.8613 -4.39172
v  13.9523 23.8613 3.74158
v  14.0247 23.8613 6.48139
v  14.8518 23.8613 3.7178
v  1.74105 3.27541e-16 -5.34915
v  6.48216 2.55648e-16 -4.17505
v  1.84091 9.50184e-17 -1.55177
v  3.12117 3.36098e-16 -5.4889
v  6.43848 3.56674e-16 -5.82493
v  3.07268 4.49125e-16 -7.33477
v  6.38021 4.91275e-16 -8.02313
v  0 0 0
v  6.79316 -4.66074e-16 7.61157
v  0.205866 -4.76712e-16 7.7853
v  6.76766 -4.08681e-16 6.67427
v  14.0242 -3.96917e-16 6.48214
v  13.9518 -2.29152e-16 3.74233
v  14.8513 -2.27696e-16 3.71855
v  1.88007 3.00436e-18 -0.049065
v  14.6375 2.68869e-16 -4.39097
v  9.39052 2.6037e-16 -4.25216

# 0 UV coordinates

# 47 vertex normals
vn 0 1 0
vn 1.47987e-24 -1 -6.12323e-17
vn 5.79728e-24 -1 -6.12324e-17
vn -4.82337e-24 -1 -6.12323e-17
vn -2.69456e-24 -1 -6.12323e-17
vn 9.05167e-24 -1 -6.12324e-17
vn 1.6505e-23 -1 -6.12323e-17
vn -6.00304e-23 -1 -6.12323e-17
vn 2.3951e-24 -1 -6.12323e-17
vn 0 -1 -6.12323e-17
vn -3.31073e-23 -1 -6.12322e-17
vn 0 -1 -6.12323e-17
vn -2.02863e-24 -1 -6.12323e-17
vn 4.98893e-21 -1 -6.10455e-17
vn -0.999651 2.21339e-05 0.0264337
vn -0.999651 2.21343e-05 0.0264337
vn 0.0263641 3.10418e-05 0.999652
vn 0.0263642 3.10615e-05 0.999652
vn 0.99963 -2.2155e-05 -0.027196
vn 0.99963 -2.21545e-05 -0.027196
vn 0.0264664 3.10392e-05 0.99965
vn 0.0264665 3.10591e-05 0.99965
vn 0.999651 -2.21304e-05 -0.0264083
vn 0.999651 -2.21301e-05 -0.0264083
vn 0.0264292 3.10501e-05 0.999651
vn 0.999653 -2.2129e-05 -0.026347
vn 0.999653 -2.21278e-05 -0.026347
vn -0.0264454 -3.10587e-05 -0.99965
vn -0.0264453 -3.10398e-05 -0.99965
vn -0.0265024 -3.10579e-05 -0.999649
vn -0.0265024 -3.10574e-05 -0.999649
vn 0.99965 -2.21523e-05 -0.0264656
vn 0.99965 -2.21325e-05 -0.0264659
vn 0.999649 -2.21331e-05 -0.0264987
vn 0.999649 -2.21539e-05 -0.0264985
vn -0.203753 -2.6628e-05 -0.979022
vn -0.203753 -2.66456e-05 -0.979022
vn -0.999655 2.21261e-05 0.0262631
vn -0.999655 2.2136e-05 0.026263
vn -0.100741 -2.93068e-05 -0.994913
vn -0.100741 -2.93272e-05 -0.994913
vn -0.999654 2.21266e-05 0.0262887
vn -0.999654 2.21313e-05 0.0262887
vn -0.999661 2.21241e-05 0.026048
vn -0.999661 2.21191e-05 0.0260481
vn -0.0260886 -3.10586e-05 -0.99966
vn -0.0260886 -3.10581e-05 -0.99966

# Mesh 'defaultobject' with 64 faces
g defaultobject
usemtl DefaultMaterial
f  1//1 2//1 3//1
f  2//1 1//1 4//1
f  5//1 4//1 6//1
f  2//1 7//1 8//1
f  7//1 2//1 4//1
f  7//1 4//1 5//1
f  7//1 5//1 9//1
f  9//1 5//1 10//1
f  7//1 9//1 11//1
f  11//1 9//1 12//1
f  12//1 9//1 13//1
f  9//1 14//1 13//1
f  14//1 9//1 15//1
f  15//1 9//1 16//1
f  17//1 14//1 15//1
f  18//2 19//2 20//2
f  19//2 18//2 21//3
f  19//2 21//3 22//4
f  22//4 21//3 23//5
f  22//4 23//5 24//6
f  25//7 26//7 27//7
f  26//7 25//7 28//8
f  28//8 25//7 29//9
f  29//9 25//7 30//10
f  30//10 25//7 31//11
f  31//11 25//7 32//12
f  31//11 32//12 33//13
f  33//13 32//12 20//2
f  33//13 20//2 19//2
f  33//13 19//2 34//14
f  5//15 25//15 27//15
f  25//15 5//15 6//16
f  26//17 5//17 27//17
f  5//17 26//17 10//18
f  28//19 10//19 26//19
f  10//19 28//19 9//20
f  29//21 9//21 28//21
f  9//21 29//21 16//22
f  30//23 16//23 29//23
f  16//23 30//23 15//24
f  31//25 15//25 30//25
f  15//25 31//25 17//25
f  33//26 17//26 31//26
f  17//26 33//26 14//27
f  13//28 33//28 34//28
f  33//28 13//28 14//29
f  12//30 34//30 19//30
f  34//30 12//30 13//31
f  22//32 12//32 19//32
f  12//32 22//32 11//33
f  24//34 11//34 22//34
f  11//34 24//34 7//35
f  8//36 24//36 23//36
f  24//36 8//36 7//37
f  2//38 23//38 21//38
f  23//38 2//38 8//39
f  3//40 21//40 18//40
f  21//40 3//40 2//41
f  1//42 18//42 20//42
f  18//42 1//42 3//43
f  4//44 20//44 32//44
f  20//44 4//44 1//45
f  6//46 32//46 25//46
f  32//46 6//46 4//47

