# {"id":"BLDG_0003000000429054","idOriginal":"BLDG_0003000000429054","origin":[13.334677849264018,52.52411574336537],"elevation":31.7199993133545}
# Longitude: 13.334677849264018
# Latitude: 52.52411574336537
# Elevation: 31.7199993133545

# File produced by Open Asset Import Library (http://www.assimp.sf.net)
# (assimp v3.1.0)

mtllib BLDG_0003000000429054.obj.mtl

# 16 vertex positions
v  0 0 0
v  5.61233 3.32827e-16 -5.43547
v  5.06497 -2.30565e-17 0.37654
v  0.377142 3.56658e-16 -5.82467
v  11.9334 3.04052e-16 -4.96555
v  11.386 -5.18307e-17 0.84646
v  13.9615 1.62273e-15 -26.5011
v  7.42182 1.50932e-15 -24.6491
v  13.9621 26.8779 -26.502
v  11.9339 26.8779 -4.9664
v  11.3866 26.8779 0.84561
v  0.00057181 26.8779 -0.000850201
v  5.06554 26.8779 0.37569
v  5.61288 25.7362 -5.43628
v  7.42237 25.7362 -24.6499
v  0.37769 25.7362 -5.82548

# 0 UV coordinates

# 27 vertex normals
vn 4.46465e-25 -1 -6.12323e-17
vn -1.29584e-24 -1 -6.12323e-17
vn -3.57747e-25 -1 -6.12323e-17
vn -1.23582e-23 -1 -6.12323e-17
vn -3.46293e-24 -1 -6.12323e-17
vn 0.995595 -1.82277e-05 0.0937629
vn 0.995595 -1.82583e-05 0.0937629
vn 0.995595 -1.82224e-05 0.0937629
vn 0.995595 -1.8194e-05 0.0937631
vn -0.0741376 3.31206e-05 0.997248
vn -0.0741375 3.31191e-05 0.997248
vn -0.0741376 3.31222e-05 0.997248
vn 0 1 0
vn -0.995595 1.82293e-05 -0.093763
vn -0.995595 1.82091e-05 -0.0937629
vn -0.272485 -2.46524e-05 -0.96216
vn -0.272485 -2.46511e-05 -0.96216
vn -0.99791 1.9186e-05 -0.0646138
vn -0.99791 1.91854e-05 -0.0646138
vn 0.0741376 -3.31357e-05 -0.997248
vn 0.0741376 -3.31183e-05 -0.997248
vn -0.176513 0.984158 -0.0166236
vn -0.176513 0.984158 -0.0166236
vn -0.176513 0.984158 -0.0166237
vn 0.0142318 0.981402 -0.191437
vn 0.0142318 0.981402 -0.191437
vn 0.0142318 0.981402 -0.191437

# Mesh 'defaultobject' with 28 faces
g defaultobject
usemtl DefaultMaterial
f  1//1 2//1 3//1
f  2//1 1//1 4//2
f  3//1 5//3 6//3
f  5//3 3//1 7//4
f  7//4 3//1 2//1
f  7//4 2//1 8//5
f  9//6 5//6 7//6
f  5//6 9//6 6//7
f  6//7 9//6 10//8
f  6//7 10//8 11//9
f  11//10 3//10 6//10
f  3//10 11//10 1//11
f  1//11 11//10 12//12
f  12//13 11//13 13//13
f  14//14 8//14 2//14
f  8//14 14//14 15//15
f  15//16 7//16 8//16
f  7//16 15//16 9//17
f  12//18 4//18 1//18
f  4//18 12//18 16//19
f  16//20 2//20 4//20
f  2//20 16//20 14//21
f  15//22 10//22 9//22
f  10//22 15//22 14//23
f  10//22 14//23 11//24
f  14//25 13//25 11//25
f  13//25 14//25 12//26
f  12//26 14//25 16//27

