# {"id":"BLDG_0003000e006b140b","idOriginal":"BLDG_0003000e006b140b","origin":[13.414069585667821,52.511602783613384],"elevation":34.3800010681152}
# Longitude: 13.414069585667821
# Latitude: 52.511602783613384
# Elevation: 34.3800010681152

# File produced by Open Asset Import Library (http://www.assimp.sf.net)
# (assimp v3.1.0)

mtllib BLDG_0003000e006b140b.obj.mtl

# 30 vertex positions
v  26.096 27.1712 -7.12589
v  25.7819 27.1712 -6.59694
v  31.8289 27.1712 -4.99187
v  48.4995 27.1712 1.68456
v  7.07222 27.1712 2.56143
v  43.4704 27.1712 15.7487
v  48.0686 27.1712 1.52531
v  33.7911 27.1712 -3.74676
v  33.8992 27.1712 -4.17771
v  23.2531 27.1712 -7.48573
v  1.67683 27.1712 0.605928
v  12.1602 27.1712 -11.3875
v  0.000580967 27.1712 -0.00085868
v  6.75183 27.1712 -13.2893
v  4.9669 27.1712 -13.9173
v  43.4698 -9.64385e-16 15.7496
v  7.07164 -1.56895e-16 2.56229
v  48.4989 -1.03202e-16 1.68542
v  48.068 -9.3451e-17 1.52617
v  33.7905 2.2937e-16 -3.7459
v  33.8987 2.55758e-16 -4.17685
v  31.8283 3.05611e-16 -4.99101
v  26.0954 4.36282e-16 -7.12503
v  25.7813 4.03893e-16 -6.59608
v  23.2525 4.58316e-16 -7.48487
v  12.1596 6.97232e-16 -11.3867
v  6.75125 8.13679e-16 -13.2884
v  4.96632 8.52138e-16 -13.9165
v  0 0 0
v  1.67625 -3.7155e-17 0.606787

# 0 UV coordinates

# 41 vertex normals
vn 0 1 -0
vn -0.340639 3.69904e-05 0.940194
vn -0.340639 3.69614e-05 0.940194
vn 0.941611 -9.47477e-06 0.336703
vn 0.941611 -9.45597e-06 0.336703
vn 0.346652 -3.70928e-05 -0.937994
vn 0.346655 -3.70442e-05 -0.937993
vn 0.346396 -3.70417e-05 -0.938088
vn 0.346396 -3.70903e-05 -0.938088
vn 0.969931 -1.30106e-05 0.243378
vn 0.969931 -1.30063e-05 0.243378
vn 0.365963 -3.72492e-05 -0.930629
vn 0.365964 -3.72072e-05 -0.930629
vn 0.348858 -3.70899e-05 -0.937175
vn -0.859798 2.26916e-06 -0.510634
vn 0.331582 -3.69175e-05 -0.943426
vn 0.33181 -3.68917e-05 -0.943346
vn 0.33181 -3.69199e-05 -0.943346
vn 0.331721 -3.68966e-05 -0.943377
vn 0.331721 -3.68908e-05 -0.943377
vn 0.331928 -3.6926e-05 -0.943305
vn 0.331929 -3.68987e-05 -0.943304
vn -0.941824 9.51602e-06 -0.336106
vn -0.941824 9.50262e-06 -0.336105
vn -0.340377 3.69924e-05 0.940289
vn -0.340377 3.69949e-05 0.940289
vn -0.340748 3.69957e-05 0.940155
vn -0.340748 3.69896e-05 0.940155
vn -3.21565e-23 -1 -6.12324e-17
vn 2.49737e-24 -1 -6.12323e-17
vn 0 -1 -6.12323e-17
vn 2.45263e-24 -1 -6.12323e-17
vn 0 -1 -6.12382e-17
vn -5.32655e-22 -1 -6.12319e-17
vn -2.63148e-22 -1 -6.1232e-17
vn 5.63817e-22 -1 -6.12339e-17
vn 1.34096e-22 -1 -6.1233e-17
vn 1.03159e-23 -1 -6.12323e-17
vn -1.21491e-20 -1 -6.119e-17
vn -1.97718e-23 -1 -6.12323e-17
vn -2.12413e-22 -1 -6.12318e-17

# Mesh 'defaultobject' with 56 faces
g defaultobject
usemtl DefaultMaterial
f  1//1 2//1 3//1
f  4//1 5//1 6//1
f  5//1 4//1 7//1
f  5//1 7//1 8//1
f  5//1 8//1 9//1
f  5//1 9//1 3//1
f  5//1 3//1 2//1
f  5//1 2//1 10//1
f  5//1 10//1 11//1
f  11//1 10//1 12//1
f  11//1 12//1 13//1
f  13//1 12//1 14//1
f  13//1 14//1 15//1
f  5//2 16//2 6//2
f  16//2 5//2 17//3
f  6//4 18//4 4//4
f  18//4 6//4 16//5
f  7//6 18//6 19//6
f  18//6 7//6 4//7
f  8//8 19//8 20//8
f  19//8 8//8 7//9
f  8//10 21//10 9//10
f  21//10 8//10 20//11
f  3//12 21//12 22//12
f  21//12 3//12 9//13
f  1//14 22//14 23//14
f  22//14 1//14 3//14
f  2//15 23//15 24//15
f  23//15 2//15 1//15
f  10//16 24//16 25//16
f  24//16 10//16 2//16
f  12//17 25//17 26//17
f  25//17 12//17 10//18
f  14//19 26//19 27//19
f  26//19 14//19 12//20
f  15//21 27//21 28//21
f  27//21 15//21 14//22
f  13//23 28//23 29//23
f  28//23 13//23 15//24
f  13//25 30//25 11//25
f  30//25 13//25 29//26
f  11//27 17//27 5//27
f  17//27 11//27 30//28
f  28//29 30//29 29//29
f  30//29 28//29 17//30
f  17//30 28//29 16//31
f  16//31 28//29 18//32
f  18//32 28//29 27//33
f  18//32 27//33 26//34
f  18//32 26//34 25//35
f  18//32 25//35 24//36
f  18//32 24//36 20//37
f  20//37 24//36 23//38
f  18//32 20//37 19//39
f  20//37 23//38 21//40
f  21//40 23//38 22//41

