# {"id":"BLDG_0003000b003ebdc2","idOriginal":"BLDG_0003000b003ebdc2","origin":[13.34711108550707,52.5082792163301],"elevation":32.5900001525879}
# Longitude: 13.34711108550707
# Latitude: 52.5082792163301
# Elevation: 32.5900001525879

# File produced by Open Asset Import Library (http://www.assimp.sf.net)
# (assimp v3.1.0)

mtllib BLDG_0003000b003ebdc2.obj.mtl

# 14 vertex positions
v  0.000145108 6.81563 -0.00021536
v  4.34453 6.81563 -8.19302
v  4.23509 6.81563 -8.21493
v  26.0283 6.81563 -4.41259
v  1.25537 6.81563 0.24978
v  1.14353 6.81563 0.755426
v  24.4473 6.81563 4.26243
v  4.23494 5.03006e-16 -8.21472
v  1.25523 -1.53078e-17 0.249995
v  0 0 0
v  24.4472 -2.61012e-16 4.26264
v  4.34438 5.01664e-16 -8.1928
v  26.0281 2.7018e-16 -4.41238
v  1.14338 -4.62697e-17 0.755641

# 0 UV coordinates

# 17 vertex normals
vn 0 1 0
vn 0 -1 -6.12323e-17
vn 1.01675e-24 -1 -6.12323e-17
vn 0 -1 -6.12312e-17
vn 0 -1 -6.12323e-17
vn -0.195327 3.5145e-05 0.980738
vn -0.195327 3.5145e-05 0.980738
vn -0.9764 1.39597e-05 -0.215972
vn -0.9764 1.39767e-05 -0.215972
vn -0.148815 3.439e-05 0.988865
vn -0.148815 3.4485e-05 0.988865
vn 0.983797 -1.5535e-05 0.179286
vn 0.983797 -1.52494e-05 0.179286
vn 0.171753 -3.4806e-05 -0.98514
vn 0.196363 -3.51836e-05 -0.980531
vn -0.888837 4.44484e-06 -0.458223
vn -0.888837 4.41389e-06 -0.458223

# Mesh 'defaultobject' with 24 faces
g defaultobject
usemtl DefaultMaterial
f  1//1 2//1 3//1
f  2//1 1//1 4//1
f  4//1 1//1 5//1
f  4//1 5//1 6//1
f  4//1 6//1 7//1
f  8//2 9//2 10//2
f  9//2 8//2 11//3
f  11//3 8//2 12//4
f  11//3 12//4 13//5
f  11//3 14//5 9//2
f  9//6 1//6 10//6
f  1//6 9//6 5//7
f  6//8 9//8 14//8
f  9//8 6//8 5//9
f  11//10 6//10 14//10
f  6//10 11//10 7//11
f  13//12 7//12 11//12
f  7//12 13//12 4//13
f  2//14 13//14 12//14
f  13//14 2//14 4//14
f  3//15 12//15 8//15
f  12//15 3//15 2//15
f  1//16 8//16 10//16
f  8//16 1//16 3//17

