# {"id":"BLDG_0003000f0000425e","idOriginal":"BLDG_0003000f0000425e","origin":[13.386859157947695,52.52577204400675],"elevation":34.5499992370605}
# Longitude: 13.386859157947695
# Latitude: 52.52577204400675
# Elevation: 34.5499992370605

# File produced by Open Asset Import Library (http://www.assimp.sf.net)
# (assimp v3.1.0)

mtllib BLDG_0003000f0000425e.obj.mtl

# 20 vertex positions
v  0.933514 18.8543 -0.0701539
v  0.520631 18.85 6.9782
v  1.45375 18.8543 6.90864
v  0.000402363 18.85 -0.00059629
v  0.343678 18.8543 -7.98263
v  10.2901 24.7021 14.53
v  8.56615 24.7021 -8.59574
v  2.06759 18.8543 15.1431
v  17.8985 18.8543 5.6828
v  18.5123 18.8543 13.9173
v  17.3782 18.8543 -1.296
v  16.7884 18.8543 -9.20849
v  0.933112 4.25917e-18 -0.0695575
v  0 0 0
v  1.45335 -4.23069e-16 6.90924
v  0.520229 -4.27328e-16 6.9788
v  18.5119 -8.52223e-16 13.9179
v  16.788 5.63821e-16 -9.20789
v  0.343276 4.88758e-16 -7.98203
v  2.06719 -9.27285e-16 15.1437

# 0 UV coordinates

# 33 vertex normals
vn -0.0045818 0.999989 0.000341551
vn -0.00458183 0.999989 0.000341549
vn -0.576902 0.81568 0.0430053
vn -0.576902 0.81568 0.0430053
vn -0.576902 0.81568 0.0430052
vn -0.576902 0.81568 0.0430053
vn 0.576915 0.815671 -0.0430062
vn 0.576915 0.815671 -0.0430062
vn 0.576915 0.815671 -0.0430062
vn 0.576915 0.815671 -0.0430063
vn -0.0743373 -2.99596e-05 -0.997233
vn -0.0743373 -2.99592e-05 -0.997233
vn 0.0743375 2.99462e-05 0.997233
vn 0.0743373 2.9939e-05 0.997233
vn -0.997233 2.3638e-05 0.0743379
vn -0.997233 2.36354e-05 0.0743379
vn 0.997233 -2.36363e-05 -0.0743388
vn 0.997233 -2.3653e-05 -0.0743388
vn 0.997233 -2.37529e-05 -0.0743389
vn 0.997233 -2.36363e-05 -0.0743389
vn -0.0743382 -2.99371e-05 -0.997233
vn -0.0743382 -2.99617e-05 -0.997233
vn -0.0743382 -2.98666e-05 -0.997233
vn 0.0743383 2.9931e-05 0.997233
vn 0.0743383 2.99655e-05 0.997233
vn -0.997233 2.36398e-05 0.0743388
vn -0.997233 2.36379e-05 0.0743388
vn -0.997233 2.36363e-05 0.0743389
vn 1.21383e-24 -1 -6.12323e-17
vn 2.21499e-24 -1 -6.12323e-17
vn 3.66992e-24 -1 -6.12323e-17
vn 0 -1 -6.12323e-17
vn 1.55515e-24 -1 -6.12323e-17

# Mesh 'defaultobject' with 36 faces
g defaultobject
usemtl DefaultMaterial
f  1//1 2//1 3//1
f  2//1 1//1 4//2
f  5//3 6//3 7//3
f  6//3 5//3 1//4
f  6//3 1//4 3//5
f  6//3 3//5 8//6
f  9//7 6//7 10//7
f  6//7 9//7 7//8
f  7//8 9//7 11//9
f  7//8 11//9 12//10
f  13//11 4//11 1//11
f  4//11 13//11 14//12
f  15//13 2//13 16//13
f  2//13 15//13 3//14
f  14//15 2//15 4//15
f  2//15 14//15 16//16
f  17//17 9//17 10//17
f  9//17 17//17 11//18
f  11//18 17//17 12//19
f  12//19 17//17 18//20
f  19//21 12//21 18//21
f  12//21 19//21 5//22
f  12//21 5//22 7//23
f  17//24 8//24 20//24
f  8//24 17//24 10//24
f  8//24 10//24 6//25
f  19//26 1//26 5//26
f  1//26 19//26 13//27
f  15//28 8//28 3//28
f  8//28 15//28 20//28
f  18//29 13//29 19//29
f  13//29 18//29 17//30
f  13//29 17//30 15//31
f  13//29 15//31 16//32
f  15//31 17//30 20//33
f  16//32 14//32 13//29

