# {"id":"BLDG_00030000001c2686","idOriginal":"BLDG_00030000001c2686","origin":[13.352027987927361,52.549264055264956],"elevation":35.3800010681152}
# Longitude: 13.352027987927361
# Latitude: 52.549264055264956
# Elevation: 35.3800010681152

# File produced by Open Asset Import Library (http://www.assimp.sf.net)
# (assimp v3.1.0)

mtllib BLDG_00030000001c2686.obj.mtl

# 16 vertex positions
v  10.857 7.14678 10.7317
v  14.9467 7.14678 1.84723
v  8.19369 7.14678 8.09922
v  17.6257 7.14678 5.25894
v  14.9606 15.788 1.8464
v  0.000380792 17.878 -0.00056645
v  8.18081 17.878 8.08554
v  8.27698 15.788 -6.65544
v  8.27665 4.07498e-16 -6.65494
v  8.18043 -4.95131e-16 8.08611
v  0 0 0
v  14.9602 -1.1309e-16 1.8469
v  10.8569 0.849998 10.7319
v  14.9466 0.849998 1.84743
v  17.6256 0.849998 5.25914
v  8.19356 0.849998 8.09942

# 0 UV coordinates

# 21 vertex normals
vn 0 1 0
vn 0.155685 0.975169 -0.157501
vn 0.151814 0.981177 -0.119346
vn 3.48958e-24 -1 -6.12323e-17
vn 4.26326e-24 -1 -6.12323e-17
vn 0 -1 0
vn -0.702995 3.74974e-05 0.711195
vn -0.702995 3.7507e-05 0.711195
vn -0.626624 -1.13454e-05 -0.779322
vn -0.626624 -1.13672e-05 -0.779322
vn 0.786158 -3.63288e-05 -0.618025
vn 0.786158 -3.62841e-05 -0.618025
vn 0.677162 8.91587e-06 0.735834
vn 0.677162 8.86367e-06 0.735834
vn -0.70298 3.75248e-05 0.71121
vn 0.628737 1.12054e-05 0.777618
vn 0.628737 1.1275e-05 0.777618
vn 0.786499 -3.62065e-05 -0.617592
vn 0.786499 -3.63811e-05 -0.617591
vn -0.67936 -8.72005e-06 -0.733805
vn -0.67936 -8.73394e-06 -0.733805

# Mesh 'defaultobject' with 24 faces
g defaultobject
usemtl DefaultMaterial
f  1//1 2//1 3//1
f  2//1 1//1 4//1
f  5//2 6//2 7//2
f  6//3 5//3 8//3
f  9//4 10//4 11//4
f  10//4 9//4 12//5
f  13//6 14//6 15//6
f  14//6 13//6 16//6
f  7//7 11//7 10//7
f  11//7 7//7 6//8
f  6//9 9//9 11//9
f  9//9 6//9 8//10
f  9//11 5//11 12//11
f  5//11 9//11 8//12
f  12//13 7//13 10//13
f  7//13 12//13 5//14
f  1//15 16//15 13//15
f  16//15 1//15 3//15
f  15//16 1//16 13//16
f  1//16 15//16 4//17
f  14//18 4//18 15//18
f  4//18 14//18 2//19
f  3//20 14//20 16//20
f  14//20 3//20 2//21

