# {"id":"BLDG_0003000f000eacf6","idOriginal":"BLDG_0003000f000eacf6","origin":[13.367336314605941,52.50048156378289],"elevation":34.810001373291}
# Longitude: 13.367336314605941
# Latitude: 52.50048156378289
# Elevation: 34.810001373291

# File produced by Open Asset Import Library (http://www.assimp.sf.net)
# (assimp v3.1.0)

mtllib BLDG_0003000f000eacf6.obj.mtl

# 48 vertex positions
v  6.8503 23.0061 -14.3624
v  7.55246 9.11448e-16 -14.8851
v  6.8498 8.794e-16 -14.3617
v  7.55295 23.0061 -14.8858
v  6.39288 23.0061 -12.7743
v  6.39239 7.82153e-16 -12.7735
v  3.75905 23.0061 -13.3333
v  3.75856 8.16387e-16 -13.3326
v  3.0746 23.0061 -13.4782
v  3.07411 8.25256e-16 -13.4775
v  0.000490433 23.0061 -0.00072656
v  0 0 0
v  0.684392 -9.0559e-18 0.147894
v  0.684882 23.0061 0.147167
v  3.21837 -4.25011e-17 0.694096
v  3.21886 23.0061 0.69337
v  15.6536 -2.06689e-16 3.37548
v  15.6541 23.0061 3.37475
v  21.6377 7.58157e-16 -12.3816
v  21.6382 23.0061 -12.3824
v  23.3293 1.03078e-15 -16.834
v  23.3298 23.0061 -16.8347
v  28.4473 1.85592e-15 -30.3095
v  28.4478 23.0061 -30.3102
v  28.4865 1.86225e-15 -30.4128
v  28.487 23.0061 -30.4135
v  30.3549 2.16357e-15 -35.3338
v  30.3554 23.0061 -35.3346
v  23.4024 23.0061 -38.1427
v  23.402 2.33552e-15 -38.142
v  21.1115 23.0061 -32.4076
v  21.111 1.98435e-15 -32.4069
v  20.6509 23.0061 -32.5424
v  20.6504 1.9926e-15 -32.5417
v  14.4236 23.0061 -15.6154
v  14.4231 9.5612e-16 -15.6146
v  15.7957 23.0061 -13.2774
v  15.7952 8.12964e-16 -13.2767
v  17.4815 7.81664e-16 -12.7655
v  17.482 23.0061 -12.7663
v  16.9293 23.0061 -10.5361
v  16.9289 6.45103e-16 -10.5353
v  10.4892 23.0061 -11.9033
v  10.4887 7.2882e-16 -11.9025
v  10.7912 8.30301e-16 -13.5599
v  10.7917 23.0061 -13.5606
v  10.2144 8.79218e-16 -14.3587
v  10.2149 23.0061 -14.3595

# 0 UV coordinates

# 57 vertex normals
vn -0.597374 -1.25704e-05 -0.801963
vn -0.597374 -1.25912e-05 -0.801963
vn -0.960937 1.17322e-05 -0.276768
vn -0.960937 1.17437e-05 -0.276768
vn 0.207645 -3.53252e-05 -0.978204
vn 0.207645 -3.53231e-05 -0.978204
vn 0.207035 -3.53163e-05 -0.978334
vn -0.97496 1.37606e-05 -0.222382
vn -0.97496 1.3759e-05 -0.222382
vn -0.21122 3.53713e-05 0.977439
vn -0.21122 3.53708e-05 0.977439
vn -0.210712 3.53655e-05 0.977548
vn -0.210783 3.53625e-05 0.977533
vn -0.210783 3.53495e-05 0.977533
vn 0.934855 -8.69634e-06 0.35503
vn 0.934803 -8.69905e-06 0.355168
vn 0.934846 -8.69628e-06 0.355054
vn 0.934982 -8.71779e-06 0.354694
vn 0.934977 -8.79467e-06 0.354709
vn 0.934886 -8.78866e-06 0.354947
vn 0.934887 -8.67841e-06 0.354947
vn 0.374488 -3.73448e-05 -0.927232
vn -0.928651 8.03842e-06 -0.370956
vn 0.280825 -3.63792e-05 -0.959759
vn -0.938505 9.09065e-06 -0.345265
vn -0.938505 9.06202e-06 -0.345265
vn -0.862449 3.43996e-05 0.506144
vn -0.862449 3.43638e-05 0.506144
vn -0.290088 3.64211e-05 0.957
vn -0.290088 3.64093e-05 0.957
vn -0.970644 1.30841e-05 -0.240519
vn 0.207664 -3.53233e-05 -0.9782
vn 0.983748 -1.52893e-05 0.179556
vn 0.810757 -3.57659e-05 -0.585383
vn 0.193982 -3.51244e-05 -0.981005
vn 0.193982 -3.51204e-05 -0.981005
vn -0 1 0
vn -2.55042e-23 -1 -6.12323e-17
vn 2.52378e-23 -1 -6.12324e-17
vn 5.2637e-23 -1 -6.12324e-17
vn 2.7349e-24 -1 -6.12323e-17
vn 0 -1 -6.12323e-17
vn 1.20427e-24 -1 -6.12323e-17
vn -1.15928e-24 -1 -6.12323e-17
vn 6.70659e-24 -1 -6.12323e-17
vn 7.01159e-21 -1 -6.12648e-17
vn -1.5378e-20 -1 -6.116e-17
vn -3.14073e-24 -1 -6.12324e-17
vn -4.96279e-24 -1 -6.12323e-17
vn 1.19087e-23 -1 -6.12324e-17
vn -2.20015e-23 -1 -6.12323e-17
vn -1.61711e-22 -1 -6.12323e-17
vn -6.76271e-24 -1 -6.12324e-17
vn -1.80685e-23 -1 -6.12323e-17
vn -1.43421e-21 -1 -6.12314e-17
vn 1.87814e-23 -1 -6.12324e-17
vn 1.63336e-23 -1 -6.12324e-17

# Mesh 'defaultobject' with 92 faces
g defaultobject
usemtl DefaultMaterial
f  1//1 2//1 3//1
f  2//1 1//1 4//2
f  5//3 3//3 6//3
f  3//3 5//3 1//4
f  7//5 6//5 8//5
f  6//5 7//5 5//6
f  9//7 8//7 10//7
f  8//7 9//7 7//7
f  11//8 10//8 12//8
f  10//8 11//8 9//9
f  13//10 11//10 12//10
f  11//10 13//10 14//11
f  15//12 14//12 13//12
f  14//12 15//12 16//12
f  17//13 16//13 15//13
f  16//13 17//13 18//14
f  19//15 18//15 17//15
f  18//15 19//15 20//15
f  21//16 20//16 19//16
f  20//16 21//16 22//16
f  23//17 22//17 21//17
f  22//17 23//17 24//17
f  25//18 24//18 23//18
f  24//19 25//19 26//19
f  27//20 26//20 25//20
f  26//20 27//20 28//21
f  29//22 27//22 30//22
f  27//22 29//22 28//22
f  31//23 30//23 32//23
f  30//23 31//23 29//23
f  33//24 32//24 34//24
f  32//24 33//24 31//24
f  35//25 34//25 36//25
f  34//25 35//25 33//26
f  37//27 36//27 38//27
f  36//27 37//27 35//28
f  39//29 37//29 38//29
f  37//29 39//29 40//30
f  41//31 39//31 42//31
f  39//31 41//31 40//31
f  43//32 42//32 44//32
f  42//32 43//32 41//32
f  45//33 43//33 44//33
f  43//33 45//33 46//33
f  47//34 46//34 45//34
f  46//34 47//34 48//34
f  4//35 47//35 2//35
f  47//35 4//35 48//36
f  1//37 43//37 4//37
f  46//37 4//37 43//37
f  48//37 4//37 46//37
f  37//37 40//37 35//37
f  11//37 14//37 9//37
f  16//37 9//37 14//37
f  18//37 9//37 16//37
f  43//37 9//37 18//37
f  41//37 43//37 18//37
f  20//37 41//37 18//37
f  7//37 9//37 43//37
f  5//37 7//37 43//37
f  1//37 5//37 43//37
f  40//37 41//37 20//37
f  35//37 40//37 20//37
f  33//37 35//37 20//37
f  22//37 33//37 20//37
f  31//37 33//37 22//37
f  24//37 31//37 22//37
f  29//37 31//37 24//37
f  26//37 29//37 24//37
f  28//37 29//37 26//37
f  3//38 2//38 44//38
f  45//39 44//38 2//38
f  47//40 45//39 2//38
f  12//41 10//41 13//41
f  15//42 13//41 10//41
f  17//43 15//42 10//41
f  44//38 17//43 10//41
f  42//44 17//43 44//38
f  19//45 17//43 42//44
f  8//46 44//38 10//41
f  6//47 44//38 8//46
f  3//38 44//38 6//47
f  39//48 19//45 42//44
f  36//49 19//45 39//48
f  34//50 19//45 36//49
f  21//51 19//45 34//50
f  32//52 21//51 34//50
f  23//53 21//51 32//52
f  30//54 23//53 32//52
f  25//55 23//53 30//54
f  27//56 25//55 30//54
f  39//48 38//57 36//49

