# {"id":"BLDG_0003000e002261c4","idOriginal":"BLDG_0003000e002261c4","origin":[13.41756937910803,52.50693207769841],"elevation":34.5400009155273}
# Longitude: 13.41756937910803
# Latitude: 52.50693207769841
# Elevation: 34.5400009155273

# File produced by Open Asset Import Library (http://www.assimp.sf.net)
# (assimp v3.1.0)

mtllib BLDG_0003000e002261c4.obj.mtl

# 8 vertex positions
v  32.5344 34.2376 -37.7853
v  0.000732213 34.2376 -0.00108165
v  11.0018 34.2376 5.68386
v  21.5333 34.2376 -43.4702
v  21.5326 2.66172e-15 -43.4691
v  0 0 0
v  32.5337 2.31361e-15 -37.7842
v  11.0011 -3.48102e-16 5.68494

# 0 UV coordinates

# 10 vertex normals
vn 0 1 0
vn -0.896086 5.14064e-06 -0.44388
vn -0.896086 5.17321e-06 -0.44388
vn 0.459088 -3.78332e-05 -0.888391
vn 0.896086 -5.07136e-06 0.44388
vn 0.896086 -5.18161e-06 0.44388
vn -0.459088 3.78799e-05 0.888391
vn -0.459088 3.78709e-05 0.888391
vn -1.12822e-23 -1 -6.12324e-17
vn 0 -1 -6.12323e-17

# Mesh 'defaultobject' with 12 faces
g defaultobject
usemtl DefaultMaterial
f  1//1 2//1 3//1
f  2//1 1//1 4//1
f  2//2 5//2 6//2
f  5//2 2//2 4//3
f  4//4 7//4 5//4
f  7//4 4//4 1//4
f  7//5 3//5 8//5
f  3//5 7//5 1//6
f  8//7 2//7 6//7
f  2//7 8//7 3//8
f  7//9 6//9 5//9
f  6//9 7//9 8//10

