# {"id":"BLDG_0003000e008bf24a","idOriginal":"BLDG_0003000e008bf24a","origin":[13.347814956133117,52.50395470418788],"elevation":34.98}
# Longitude: 13.347814956133117
# Latitude: 52.50395470418788
# Elevation: 34.98

# File produced by Open Asset Import Library (http://www.assimp.sf.net)
# (assimp v3.1.0)

mtllib BLDG_0003000e008bf24a.obj.mtl

# 102 vertex positions
v  -39.2647 15.1741 1.3786
v  -36.8664 0.0400005 -3.37693
v  -39.265 0.0400005 1.37908
v  -34.4836 0.0400005 -8.10127
v  -36.866 15.1741 -3.37741
v  -34.4833 15.1741 -8.10175
v  -25.6738 18.02 -3.64603
v  -29.095 15.1741 -5.37634
v  -29.0949 18.02 -5.37643
v  -25.6742 0.04 -3.64546
v  -29.0953 0.0400005 -5.37586
v  -30.0484 0.0400005 5.8595
v  -30.0481 15.1741 5.85902
v  -27.8874 15.1741 1.16397
v  -31.4776 18.02 -0.652087
v  -31.4777 15.1741 -0.651997
v  -27.8873 18.02 1.16388
v  13.0278 -0.189999 0.695756
v  10.6928 15.1736 5.39659
v  10.6925 -0.189999 5.39707
v  13.0282 15.1736 0.695271
v  13.9679 -0.189999 1.16465
v  13.9683 15.1736 1.16417
v  16.0358 -0.189999 -2.97966
v  16.0361 15.1736 -2.98015
v  18.2362 -0.189999 -7.38968
v  18.2365 15.1736 -7.39017
v  18.549 -0.189999 -8.0157
v  18.5493 15.1736 -8.01619
v  6.90291 15.1736 -13.8302
v  6.90259 -0.189999 -13.8298
v  6.59011 15.1736 -13.2033
v  6.58978 -0.189999 -13.2028
v  4.71013 15.1736 -9.43716
v  4.70981 -0.189999 -9.43668
v  0.000327108 15.1736 -0.000485321
v  0 -0.189999 -1.16341e-17
v  -29.6407 15.22 4.91099
v  -26.8117 7.95155e-17 -1.29859
v  -29.641 -4.57764e-07 4.91147
v  -25.1059 3.08761e-16 -5.04245
v  -26.8114 15.22 -1.29907
v  -25.1056 15.22 -5.04293
v  -17.7021 18.2653 3.24502
v  -22.3369 20.27 0.932868
v  -22.3369 18.2653 0.932931
v  -17.7021 20.27 3.24496
v  -19.9635 20.27 -4.17102
v  -15.3292 1.13787e-16 -1.85828
v  -19.9639 2.55362e-16 -4.17038
v  -15.3288 20.27 -1.85892
v  -19.4828 15.22 7.07419
v  -24.1174 18.2653 4.762
v  -24.1175 15.22 4.7621
v  -19.4827 18.2653 7.07409
v  -20.603 1.71212e-16 -2.79611
v  -20.6027 15.22 -2.79659
v  -27.8877 0.04 1.16445
v  -15.6461 -4.57764e-07 10.5686
v  -20.1234 20.6193 8.47883
v  -20.1238 -4.57764e-07 8.47948
v  -15.6456 20.6193 10.5679
v  -15.3687 -4.57764e-07 10.0697
v  -15.3682 20.6193 10.0691
v  -10.8837 -4.57764e-07 12.1651
v  -10.8833 20.6193 12.1644
v  -10.5588 -4.57764e-07 11.5454
v  -10.5584 20.6193 11.5448
v  -6.07387 -4.57764e-07 13.8983
v  -6.07343 20.6193 13.8976
v  -3.59739 -4.57764e-07 8.96501
v  -3.59695 20.6193 8.96435
v  -0.587362 -4.57764e-07 10.2169
v  -0.586923 20.6193 10.2163
v  -2.50022 20.6193 14.0657
v  -2.50066 -4.57764e-07 14.0664
v  4.62693 -4.57764e-07 17.6065
v  4.62737 20.6193 17.6059
v  9.43849 -4.57764e-07 7.92185
v  9.43893 20.6193 7.9212
v  10.6925 -4.57764e-07 5.39707
v  10.6929 20.6193 5.39641
v  0.000443053 20.6193 -0.000657351
v  4.04497e-06 -4.57764e-07 -6.00051e-06
v  -2.39789 20.6193 -1.19731
v  -2.39833 -4.57764e-07 -1.19666
v  -5.72712 20.6193 5.47683
v  -5.72756 -4.57764e-07 5.47749
v  -11.5697 20.6193 2.56196
v  -11.5701 -4.57764e-07 2.56262
v  -10.5619 -4.57764e-07 0.54093
v  -10.5615 20.6193 0.540279
v  -15.3466 20.6193 -1.84732
v  -15.3471 -4.57764e-07 -1.84666
v  -22.337 15.22 0.933028
v  -20.6026 20.27 -2.79675
v  -20.5789 15.22 9.43154
v  -20.5793 -5.77545e-16 9.43202
v  -19.4831 -4.33199e-16 7.07467
v  -17.7025 -4.57764e-07 3.2456
v  -25.2137 15.22 7.11945
v  -25.214 -4.3597e-16 7.11993

# 0 UV coordinates

# 109 vertex normals
vn -0.892869 4.90599e-06 -0.450316
vn -0.892869 4.99003e-06 -0.450316
vn -0.892869 4.82667e-06 -0.450316
vn -0.892869 4.68804e-06 -0.450316
vn 0.451349 -3.79353e-05 -0.892348
vn 0.451349 -3.78039e-05 -0.892348
vn 0.451349 -3.77563e-05 -0.892348
vn 0.451349 -3.77563e-05 -0.892348
vn 0.451349 -3.77282e-05 -0.892348
vn -0.437202 3.77549e-05 0.899363
vn -0.437202 3.77304e-05 0.899363
vn -0.451349 3.78968e-05 0.892348
vn -0.892869 4.92657e-06 -0.450316
vn -0.892869 4.88884e-06 -0.450316
vn 0.89559 -5.07287e-06 0.44488
vn 0.89559 -5.01375e-06 0.44488
vn -0.446331 3.77728e-05 0.894868
vn -0.446331 3.77691e-05 0.894868
vn 0.894801 -4.94547e-06 0.446465
vn 0.894801 -4.89186e-06 0.446464
vn 0.894799 -4.89938e-06 0.44647
vn 0.894799 -4.91198e-06 0.44647
vn 0.894553 -4.88127e-06 0.446961
vn 0.894553 -4.86741e-06 0.446961
vn 0.446652 -3.77785e-05 -0.894708
vn 0.446652 -3.77507e-05 -0.894708
vn -0.894805 4.94551e-06 -0.446457
vn -0.894721 4.93838e-06 -0.446626
vn -0.894751 4.94365e-06 -0.446566
vn -0.894751 4.94088e-06 -0.446566
vn -0.910002 6.29349e-06 -0.414605
vn -0.910001 6.4424e-06 -0.414605
vn -0.910002 6.18859e-06 -0.414605
vn -0.910002 6.29347e-06 -0.414605
vn -0.446397 3.76568e-05 0.894835
vn -0.446397 3.75649e-05 0.894835
vn 0.446397 -3.78057e-05 -0.894835
vn 0.446397 -3.77584e-05 -0.894835
vn -0.446397 3.77896e-05 0.894835
vn 0.446397 -3.77693e-05 -0.894835
vn 0.446397 -3.77273e-05 -0.894835
vn 0.908421 -6.13702e-06 0.418058
vn 0.908421 -6.27895e-06 0.418058
vn 0.908421 -6.16503e-06 0.418058
vn 0.487509 -0.843802 0.224353
vn -0.450606 3.7812e-05 0.892723
vn -0.450606 3.77913e-05 0.892723
vn -0.422799 3.76199e-05 0.906223
vn 0.873947 -3.24126e-06 0.486021
vn 0.873946 -3.28051e-06 0.486022
vn -0.423277 3.76531e-05 0.906
vn -0.423277 3.76063e-05 0.906
vn 0.885669 -4.23785e-06 0.464318
vn 0.885669 -4.17485e-06 0.464316
vn -0.46457 3.7862e-05 0.885537
vn -0.46457 3.78255e-05 0.885536
vn 0.893714 -4.88491e-06 0.448637
vn 0.893714 -4.85139e-06 0.448637
vn -0.384026 3.73488e-05 0.923322
vn -0.895487 5.01259e-06 -0.445088
vn -0.895487 5.00483e-06 -0.445088
vn -0.444836 3.77645e-05 0.895612
vn -0.444836 3.7718e-05 0.895612
vn 0.895562 -5.02974e-06 0.444936
vn 0.895562 -5.01263e-06 0.444936
vn 0.895616 -5.00407e-06 0.444828
vn 0.450606 -3.77945e-05 -0.892723
vn 0.450606 -3.77879e-05 -0.892723
vn 0.446463 -3.77654e-05 -0.894802
vn 0.446463 -3.77719e-05 -0.894802
vn -0.894847 4.95839e-06 -0.446372
vn -0.894847 4.95063e-06 -0.446372
vn 0.446427 -3.77653e-05 -0.89482
vn 0.446427 -3.77756e-05 -0.89482
vn 0.894889 -4.93912e-06 0.446289
vn 0.446466 -3.77861e-05 -0.8948
vn 0.446466 -3.77655e-05 -0.8948
vn -0.907596 6.04694e-06 -0.419845
vn -0.907596 6.08892e-06 -0.419845
vn -0.906759 5.97303e-06 -0.421649
vn -0.906759 5.52003e-06 -0.421649
vn -0.906759 5.88172e-06 -0.421649
vn -0.906759 6.04716e-06 -0.42165
vn -0.906759 6.32048e-06 -0.421649
vn -0.906759 5.33595e-06 -0.42165
vn -0.906759 5.60934e-06 -0.42165
vn 0.906759 -5.95973e-06 0.42165
vn 0.906759 -5.6625e-06 0.421648
vn 0.906759 -6.03382e-06 0.42165
vn 0.906759 -5.97626e-06 0.421649
vn 0.906759 -5.59166e-06 0.421649
vn 0.906759 -5.99857e-06 0.421649
vn 0 1 0
vn 0.4614 -0.860858 0.214554
vn -0.446397 3.77693e-05 0.894835
vn -0.446397 3.76843e-05 0.894835
vn -0.446397 3.77427e-05 0.894835
vn -0.446397 3.77693e-05 0.894835
vn 1.14215e-07 -1 -2.16757e-08
vn -2.99739e-24 -1 -6.12323e-17
vn 8.00455e-24 -1 -6.12323e-17
vn -2.03029e-23 -1 -6.12323e-17
vn -1.28679e-07 -1 5.97127e-08
vn 4.96998e-08 -1 -9.96267e-08
vn 1.4731e-08 -1 -8.28392e-08
vn 1.68663e-24 -1 -6.12324e-17
vn -0 -1 0
vn -2.59993e-07 -1 -2.20552e-08
vn -1.08646e-07 -1 -4.99994e-08

# Mesh 'defaultobject' with 188 faces
g defaultobject
usemtl DefaultMaterial
f  1//1 2//1 3//1
f  2//1 1//1 4//2
f  4//2 1//1 5//3
f  4//2 5//3 6//4
f  7//5 8//5 9//5
f  8//5 7//5 10//6
f  8//5 10//6 11//7
f  8//5 11//7 4//8
f  4//8 6//9 8//5
f  12//10 1//10 3//10
f  1//10 12//10 13//11
f  14//12 15//12 16//12
f  15//12 14//12 17//12
f  15//13 8//13 16//13
f  8//13 15//13 9//14
f  18//15 19//15 20//15
f  19//15 18//15 21//16
f  22//17 21//17 18//17
f  21//17 22//17 23//18
f  24//19 23//19 22//19
f  23//19 24//19 25//20
f  26//21 25//20 24//19
f  25//20 26//21 27//22
f  28//23 27//23 26//23
f  27//23 28//23 29//24
f  30//25 28//25 31//25
f  28//25 30//25 29//26
f  32//27 31//27 33//27
f  31//27 32//27 30//27
f  34//28 33//28 35//28
f  33//28 34//28 32//28
f  36//29 35//29 37//29
f  35//29 36//29 34//30
f  38//31 39//31 40//31
f  39//31 38//31 41//32
f  41//32 38//31 42//33
f  41//32 42//33 43//34
f  44//35 45//35 46//35
f  45//35 44//35 47//36
f  48//37 49//37 50//37
f  49//37 48//37 51//38
f  52//39 53//39 54//39
f  53//39 52//39 55//39
f  43//40 56//40 41//40
f  56//40 43//40 57//41
f  12//42 14//42 13//42
f  14//42 7//43 17//43
f  7//43 14//42 10//44
f  10//44 14//42 12//42
f  10//45 12//45 58//45
f  20//46 36//46 37//46
f  36//46 20//46 19//47
f  59//48 60//48 61//48
f  60//48 59//48 62//48
f  63//49 62//49 59//49
f  62//49 63//49 64//50
f  65//51 64//51 63//51
f  64//51 65//51 66//52
f  67//53 66//53 65//53
f  66//53 67//53 68//54
f  69//55 68//55 67//55
f  68//55 69//55 70//56
f  71//57 70//57 69//57
f  70//57 71//57 72//58
f  73//59 72//59 71//59
f  72//59 73//59 74//59
f  75//60 73//60 76//60
f  73//60 75//60 74//61
f  77//62 75//62 76//62
f  75//62 77//62 78//63
f  79//64 78//64 77//64
f  78//64 79//64 80//65
f  81//66 80//66 79//66
f  80//66 81//66 82//66
f  83//67 81//67 84//67
f  81//67 83//67 82//68
f  85//69 84//69 86//69
f  84//69 85//69 83//70
f  87//71 86//71 88//71
f  86//71 87//71 85//72
f  89//73 88//73 90//73
f  88//73 89//73 87//74
f  91//75 89//75 90//75
f  89//75 91//75 92//75
f  93//76 91//76 94//76
f  91//76 93//76 92//77
f  60//78 94//78 61//78
f  94//78 60//78 93//79
f  53//80 95//80 54//80
f  95//80 53//80 57//81
f  57//81 50//82 56//82
f  50//82 57//81 48//83
f  48//83 57//81 46//84
f  46//84 57//81 53//80
f  48//83 46//84 96//85
f  96//85 46//84 45//86
f  47//87 49//87 51//87
f  49//87 47//87 44//88
f  49//87 44//88 55//89
f  49//87 55//89 52//90
f  49//87 52//90 97//91
f  49//87 97//91 98//92
f  49//93 98//93 99//93
f  49//94 99//94 100//94
f  40//95 101//95 38//95
f  101//95 40//95 97//96
f  97//96 40//95 102//97
f  97//96 102//97 98//98
f  39//99 102//99 40//99
f  102//99 39//99 98//100
f  98//100 39//99 99//101
f  99//101 39//99 41//102
f  99//101 41//102 100//103
f  100//103 41//102 56//104
f  100//103 56//104 49//105
f  49//105 56//104 50//106
f  11//107 2//107 4//107
f  2//107 11//107 3//107
f  3//107 11//107 12//107
f  12//107 11//107 58//108
f  58//108 11//107 10//109
f  37//107 18//107 20//107
f  18//107 37//107 24//107
f  24//107 37//107 26//107
f  26//107 37//107 28//107
f  28//107 37//107 33//107
f  28//107 33//107 31//107
f  33//107 37//107 35//107
f  24//107 22//107 18//107
f  94//107 59//107 61//107
f  59//107 94//107 63//107
f  63//107 94//107 65//107
f  65//107 94//107 67//107
f  67//107 94//107 69//107
f  69//107 94//107 90//107
f  90//107 94//107 91//107
f  90//107 71//107 69//107
f  71//107 90//107 88//107
f  71//107 88//107 73//107
f  73//107 88//107 86//107
f  73//107 77//107 76//107
f  77//107 73//107 79//107
f  79//107 73//107 86//107
f  79//107 86//107 84//107
f  79//107 84//107 81//107
f  52//93 101//93 97//93
f  101//93 52//93 54//93
f  101//93 54//93 38//93
f  38//93 54//93 95//93
f  38//93 95//93 57//93
f  38//93 57//93 43//93
f  38//93 43//93 42//93
f  51//93 45//93 47//93
f  45//93 51//93 96//93
f  96//93 51//93 48//93
f  44//93 53//93 55//93
f  53//93 44//93 46//93
f  13//93 5//93 1//93
f  5//93 13//93 6//93
f  6//93 13//93 16//93
f  16//93 13//93 14//93
f  8//93 6//93 16//93
f  7//93 15//93 17//93
f  15//93 7//93 9//93
f  19//93 34//93 36//93
f  34//93 19//93 21//93
f  34//93 21//93 23//93
f  34//93 23//93 25//93
f  34//93 25//93 32//93
f  32//93 25//93 27//93
f  32//93 27//93 30//93
f  30//93 27//93 29//93
f  78//93 74//93 75//93
f  74//93 78//93 83//93
f  83//93 78//93 82//93
f  82//93 78//93 80//93
f  66//93 89//93 64//93
f  89//93 66//93 68//93
f  89//93 68//93 87//93
f  87//93 68//93 70//93
f  87//93 70//93 72//93
f  87//93 72//93 85//93
f  85//93 72//93 74//93
f  85//93 74//93 83//93
f  62//93 93//93 60//93
f  93//93 62//93 92//93
f  92//93 62//93 64//93
f  92//93 64//93 89//93

