# {"id":"BLDG_0003000800251c6b","idOriginal":"BLDG_0003000800251c6b","origin":[13.329955313662971,52.555333111333496],"elevation":44.4599990844727}
# Longitude: 13.329955313662971
# Latitude: 52.555333111333496
# Elevation: 44.4599990844727

# File produced by Open Asset Import Library (http://www.assimp.sf.net)
# (assimp v3.1.0)

mtllib BLDG_0003000800251c6b.obj.mtl

# 12 vertex positions
v  0 0 0
v  7.19128 9.32574e-17 -1.52301
v  5.53918 -1.39383e-16 2.27629
v  8.61039 2.92984e-16 -4.78479
v  3.35841 4.81623e-16 -7.86549
v  8.94806 3.40649e-16 -5.56322
v  5.53926 3.72938 2.27617
v  3.35849 3.72938 -7.86561
v  7.9323e-05 3.72938 -0.00011822
v  8.94814 3.72938 -5.56334
v  7.19136 3.72938 -1.52313
v  8.61047 3.72938 -4.78491

# 0 UV coordinates

# 13 vertex normals
vn -5.33543e-25 -1 -6.12323e-17
vn -1.243e-24 -1 -6.12323e-17
vn -4.09942e-24 -1 -6.12323e-17
vn 1.80644e-23 -1 -6.12324e-17
vn 0 1 0
vn -0.3801 3.74058e-05 0.924945
vn 0.91705 -6.82049e-06 0.398773
vn 0.916973 -6.79356e-06 0.398949
vn 0.917404 -6.84685e-06 0.397956
vn 0.380842 -3.74272e-05 -0.92464
vn 0.380842 -3.74029e-05 -0.92464
vn -0.919674 7.11333e-06 -0.392683
vn -0.919674 7.12695e-06 -0.392683

# Mesh 'defaultobject' with 20 faces
g defaultobject
usemtl DefaultMaterial
f  1//1 2//1 3//1
f  2//1 1//1 4//2
f  4//2 1//1 5//3
f  4//2 5//3 6//4
f  7//5 8//5 9//5
f  8//5 7//5 10//5
f  10//5 7//5 11//5
f  10//5 11//5 12//5
f  3//6 9//6 1//6
f  9//6 3//6 7//6
f  2//7 7//7 3//7
f  7//7 2//7 11//7
f  4//8 11//8 2//8
f  11//8 4//8 12//8
f  6//9 12//9 4//9
f  12//9 6//9 10//9
f  8//10 6//10 5//10
f  6//10 8//10 10//11
f  9//12 5//12 1//12
f  5//12 9//12 8//13

