# {"id":"BLDG_0003000a001c9862","idOriginal":"BLDG_0003000a001c9862","origin":[13.402487068673484,52.53811705877696],"elevation":48.1300010681152}
# Longitude: 13.402487068673484
# Latitude: 52.53811705877696
# Elevation: 48.1300010681152

# File produced by Open Asset Import Library (http://www.assimp.sf.net)
# (assimp v3.1.0)

mtllib BLDG_0003000a001c9862.obj.mtl

# 10 vertex positions
v  4.72584 -6.64757e-16 10.8563
v  10.9761 2.9238e-16 -4.77493
v  15.702 -3.72377e-16 6.08138
v  0 0 0
v  15.7024 19.5756 6.08076
v  4.72626 19.5756 10.8557
v  10.2144 23.0951 8.46811
v  0.000418279 19.5756 -0.00061974
v  10.9765 19.5756 -4.77555
v  5.48855 23.0951 -2.3882

# 0 UV coordinates

# 16 vertex normals
vn 2.98828e-24 -1 -6.12323e-17
vn -2.98828e-24 -1 -6.12323e-17
vn 0.398916 2.0506e-05 0.916987
vn 0.398916 2.04711e-05 0.916987
vn 0.398916 2.05098e-05 0.916987
vn -0.916894 3.22068e-05 0.399131
vn -0.916894 3.22276e-05 0.399131
vn -0.398916 -2.05069e-05 -0.916987
vn -0.398916 -2.05255e-05 -0.916987
vn -0.398916 -2.04645e-05 -0.916987
vn 0.916894 -3.22415e-05 -0.399131
vn 0.916894 -3.21922e-05 -0.399131
vn -0.464779 0.862002 0.202322
vn -0.464779 0.862002 0.202322
vn 0.464792 0.861993 -0.202328
vn 0.464792 0.861993 -0.202328

# Mesh 'defaultobject' with 16 faces
g defaultobject
usemtl DefaultMaterial
f  1//1 2//1 3//1
f  2//1 1//1 4//2
f  5//3 1//3 3//3
f  1//3 5//3 6//4
f  6//4 5//3 7//5
f  6//6 4//6 1//6
f  4//6 6//6 8//7
f  8//8 2//8 4//8
f  2//8 8//8 9//9
f  9//9 8//8 10//10
f  2//11 5//11 3//11
f  5//11 2//11 9//12
f  10//13 6//13 7//13
f  6//13 10//13 8//14
f  9//15 7//15 5//15
f  7//15 9//15 10//16

