# {"id":"BLDG_00030009007e0fb8","idOriginal":"BLDG_00030009007e0fb8","origin":[13.395519061196852,52.54736852313036],"elevation":45.7000007629395}
# Longitude: 13.395519061196852
# Latitude: 52.54736852313036
# Elevation: 45.7000007629395

# File produced by Open Asset Import Library (http://www.assimp.sf.net)
# (assimp v3.1.0)

mtllib BLDG_00030009007e0fb8.obj.mtl

# 26 vertex positions
v  14.0227 -7.67661e-16 12.5369
v  17.9855 7.18597e-17 -1.17356
v  19.0823 -7.47446e-16 12.2067
v  12.9259 5.16445e-17 -0.843419
v  0.950984 -8.19888e-16 13.3898
v  0 0 0
v  14.2623 -9.46682e-16 15.4605
v  19.3278 -9.30837e-16 15.2017
v  17.986 19.35 -1.17417
v  19.0827 19.35 12.2061
v  18.1861 21.9396 1.26691
v  18.8916 20.1935 9.87452
v  12.9264 19.35 -0.844032
v  13.9657 19.8625 11.8361
v  13.832 20.1935 10.2047
v  14.0231 19.35 12.5362
v  13.1265 21.9522 1.59705
v  13.1257 21.9416 1.58705
v  13.832 21.0568 10.2046
v  0.951397 19.35 13.3892
v  0.000413285 19.35 -0.00061298
v  0.785701 21.0568 11.0556
v  0.173992 21.9522 2.4425
v  19.3282 19.3506 15.2011
v  14.2627 19.3506 15.4599
v  13.1265 21.9396 1.59705

# 0 UV coordinates

# 39 vertex normals
vn -2.33348e-24 -1 -6.12323e-17
vn 7.77827e-25 -1 -6.12323e-17
vn -1.20428e-24 -1 -6.12323e-17
vn -3.04464e-25 -1 -6.12323e-17
vn -1.33492e-24 -1 -6.12323e-17
vn -9.55615e-24 -1 -6.12323e-17
vn 0.996657 -2.39063e-05 -0.0816931
vn 0.996657 -2.39033e-05 -0.0816931
vn 0.996658 -2.34817e-05 -0.0816931
vn 0.996657 -2.45897e-05 -0.0816934
vn -0.0651116 -3.02215e-05 -0.997878
vn -0.0651116 -3.02183e-05 -0.997878
vn -0.996657 2.29859e-05 0.0816928
vn 0.996657 -3.8499e-05 -0.081696
vn 0.996658 -2.46805e-05 -0.0816932
vn 0.0651116 3.02346e-05 0.997878
vn -0.997487 2.35475e-05 0.0708446
vn -0.997487 2.3549e-05 0.0708446
vn -0.997487 2.35178e-05 0.0708446
vn -0.997487 2.35343e-05 0.0708446
vn -0.0651116 -3.02206e-05 -0.997878
vn 0.996657 -2.38083e-05 -0.0816934
vn 0.0510181 3.05593e-05 0.998698
vn 0.0510181 3.05618e-05 0.998698
vn -0.996657 2.38575e-05 0.0816932
vn 0.0220867 0.94071 0.338493
vn 0.0220867 0.94071 0.338493
vn 0.0129048 0.980163 0.197774
vn 0.0129048 0.980163 0.197774
vn -0.0473074 0.687104 -0.725017
vn -0.0473074 0.687104 -0.725017
vn 0.0383638 0.807843 0.588148
vn 0.0383797 0.807809 0.588194
vn 0.00671861 0.994666 0.102931
vn 0.00671355 0.994667 0.102924
vn -0.0474137 0.685373 -0.726647
vn -0.0474331 0.685329 -0.726687
vn -1.23215e-05 1 -0.000188835
vn -9.42758e-06 1 -0.000184549

# Mesh 'defaultobject' with 43 faces
g defaultobject
usemtl DefaultMaterial
f  1//1 2//1 3//1
f  2//1 1//1 4//2
f  5//3 4//2 1//1
f  4//2 5//3 6//4
f  3//1 7//5 1//1
f  7//5 3//1 8//6
f  9//7 3//7 2//7
f  3//7 9//7 10//8
f  10//8 9//7 11//9
f  10//8 11//9 12//10
f  13//11 2//11 4//11
f  2//11 13//11 9//12
f  14//13 15//13 16//13
f  17//14 14//14 18//14
f  14//15 17//15 19//15
f  1//16 20//16 5//16
f  20//16 1//16 16//16
f  20//17 6//17 5//17
f  6//17 20//17 21//18
f  21//18 20//17 22//19
f  21//18 22//19 23//20
f  21//21 4//11 6//21
f  4//11 21//21 13//11
f  3//7 24//22 8//22
f  24//22 3//7 10//8
f  8//23 25//23 7//23
f  25//23 8//23 24//24
f  25//25 1//25 7//25
f  1//25 25//25 16//13
f  16//26 12//26 15//26
f  12//26 16//26 10//27
f  15//28 11//28 26//28
f  11//28 15//28 12//29
f  26//30 9//30 13//30
f  9//30 26//30 11//31
f  20//32 19//32 22//32
f  19//33 20//33 16//33
f  22//34 17//34 23//34
f  17//34 22//34 19//35
f  23//36 13//36 21//36
f  13//37 23//37 17//37
f  25//38 10//38 16//38
f  10//38 25//38 24//39

