# {"id":"BLDG_0003000a00223f64","idOriginal":"BLDG_0003000a00223f64","origin":[13.390518497314954,52.54351065515973],"elevation":45.9199981689453}
# Longitude: 13.390518497314954
# Latitude: 52.54351065515973
# Elevation: 45.9199981689453

# File produced by Open Asset Import Library (http://www.assimp.sf.net)
# (assimp v3.1.0)

mtllib BLDG_0003000a00223f64.obj.mtl

# 46 vertex positions
v  20.6214 21.6711 -12.0735
v  63.0803 21.3609 -30.9392
v  20.6214 21.3609 -12.0735
v  63.0803 21.6711 -30.9392
v  63.0798 1.89444e-15 -30.9385
v  64.1431 21.3609 -28.5482
v  64.1427 1.74803e-15 -28.5475
v  21.6958 21.3609 -9.65646
v  21.6958 21.6711 -9.65647
v  64.1431 21.6711 -28.5482
v  66.6658 21.3609 -22.8732
v  66.6654 1.40054e-15 -22.8725
v  24.2185 21.3609 -3.98148
v  24.2185 21.6711 -3.98149
v  66.6658 21.6711 -22.8732
v  67.786 21.3609 -20.3533
v  67.7855 1.24624e-15 -20.3526
v  25.3081 21.3609 -1.53014
v  25.3082 21.6711 -1.53015
v  67.786 21.6711 -20.3533
v  75.3367 21.3609 -3.36729
v  75.3363 2.06145e-16 -3.36661
v  32.8589 21.3609 15.4558
v  32.8584 -9.46438e-16 15.4565
v  25.3077 9.36529e-17 -1.52947
v  4.7653 21.3609 -2.12133
v  3.67229 2.7812e-16 -4.54205
v  4.76484 1.29853e-16 -2.12065
v  3.67275 21.3609 -4.54273
v  20.6209 7.39245e-16 -12.0728
v  8.41057 21.3609 5.95764
v  7.31908 -2.1678e-16 3.54028
v  8.41011 -3.64842e-16 5.95832
v  7.31954 21.3609 3.53961
v  2.5547 21.3609 5.66026
v  0 0 0
v  2.55424 -3.46632e-16 5.66094
v  0.000456085 21.3609 -0.00067651
v  6.04242 21.6711 0.709129
v  17.9532 21.6711 -18.0758
v  60.4117 2.26197e-15 -36.9408
v  17.9527 1.10678e-15 -18.0751
v  60.4121 21.6711 -36.9415
v  4.11455 21.6711 1.56715
v  21.6953 5.91246e-16 -9.65579
v  24.218 2.43754e-16 -3.9808

# 0 UV coordinates

# 68 vertex normals
vn -0.40605 -1.81121e-05 -0.913851
vn 0.913784 -3.24194e-05 -0.406201
vn 0.913784 -3.24936e-05 -0.4062
vn -0.913784 3.49697e-05 0.406201
vn -0.40661 -2.34006e-05 -0.913602
vn -0.40661 -1.80906e-05 -0.913602
vn 0.913784 -3.24576e-05 -0.406201
vn 0.913784 -3.24608e-05 -0.406201
vn -0.913784 3.0599e-05 0.406201
vn -0.40661 -1.87929e-05 -0.913602
vn 0.913784 -3.24192e-05 -0.4062
vn 0.913784 -3.24938e-05 -0.4062
vn -0.913784 3.5282e-05 0.406201
vn -0.405133 -2.13415e-05 -0.914258
vn -0.405133 -2.37698e-05 -0.914258
vn 0.913784 -3.24336e-05 -0.406201
vn 0.913784 -3.24997e-05 -0.406201
vn 0.405133 2.02946e-05 0.914258
vn -0.913784 3.24401e-05 0.406201
vn -0.913784 3.23289e-05 0.406201
vn -0.91151 3.24753e-05 0.411278
vn -0.91151 3.24901e-05 0.411278
vn -0.40605 -2.02774e-05 -0.913851
vn -0.91151 3.25206e-05 0.411278
vn -0.91151 3.24753e-05 0.411278
vn 0.405133 2.02717e-05 0.914258
vn -0.91151 3.24901e-05 0.411278
vn -0.91151 3.24873e-05 0.411278
vn -0.40661 -2.02525e-05 -0.913602
vn -0.40661 -2.02518e-05 -0.913602
vn 0.91151 -3.31736e-05 -0.411278
vn 0.40661 2.02622e-05 0.913602
vn 0.40661 2.02536e-05 0.913602
vn -0.40605 -2.03067e-05 -0.913851
vn -0.40605 -2.02352e-05 -0.913851
vn 0.913784 -3.24616e-05 -0.406201
vn 0.913784 -3.24928e-05 -0.406201
vn -0.913784 3.23585e-05 0.406201
vn -0.913784 3.23334e-05 0.406201
vn 0.0191504 0.998887 0.0430996
vn 0.0191504 0.998887 0.0430996
vn 0.0473515 0.993196 0.106393
vn 0.0477943 0.993049 0.107565
vn 0.0202802 0.998755 0.045567
vn 0.0202802 0.998755 0.045567
vn 0.0466972 0.993383 0.104923
vn 0.0452766 0.993736 0.102175
vn 0.00675844 0.999861 0.0152517
vn 0.00675844 0.999861 0.0152517
vn 0 1 0
vn -0.0905876 0.995049 0.0408736
vn -0.04041 0.995049 -0.0907961
vn -0.04041 0.995049 -0.0907961
vn 0.0404098 0.995049 0.0907958
vn 0.0404098 0.995049 0.0907957
vn 1.11018e-23 -1 -6.12323e-17
vn -2.22036e-23 -1 -6.12324e-17
vn -1.37849e-23 -1 -6.12323e-17
vn -1.3935e-23 -1 -6.12323e-17
vn 1.46776e-24 -1 -6.12323e-17
vn 0 -1 -6.12323e-17
vn -1.1569e-23 -1 -6.12324e-17
vn -3.39795e-24 -1 -6.12323e-17
vn 3.92301e-24 -1 -6.12323e-17
vn -8.59635e-24 -1 -6.12324e-17
vn 3.6799e-24 -1 -6.12323e-17
vn -8.63123e-24 -1 -6.12323e-17
vn 0 -1 -6.12323e-17

# Mesh 'defaultobject' with 83 faces
g defaultobject
usemtl DefaultMaterial
f  1//1 2//1 3//1
f  2//1 1//1 4//1
f  5//2 6//2 7//2
f  6//2 5//2 4//3
f  1//4 3//4 8//4
f  9//5 6//5 8//5
f  6//5 9//5 10//6
f  7//2 11//7 12//7
f  11//7 7//2 10//8
f  9//9 8//4 13//9
f  14//10 11//10 13//10
f  11//10 14//10 15//6
f  12//7 16//11 17//11
f  16//11 12//7 15//12
f  14//13 13//9 18//13
f  19//14 16//14 18//14
f  16//14 19//14 20//15
f  17//11 21//16 22//16
f  21//16 17//11 20//17
f  22//18 23//18 24//18
f  23//18 22//18 21//18
f  23//19 25//19 24//19
f  25//19 23//19 19//20
f  26//21 27//21 28//21
f  27//21 26//21 29//22
f  29//23 30//23 27//23
f  30//23 29//23 3//1
f  31//24 32//24 33//24
f  32//24 31//24 34//25
f  25//26 31//26 33//26
f  31//26 25//26 18//26
f  35//27 36//27 37//27
f  36//27 35//27 38//28
f  38//29 28//29 36//29
f  28//29 38//29 26//30
f  34//31 26//31 39//31
f  32//32 35//32 37//32
f  35//32 32//32 34//33
f  40//34 41//34 42//34
f  41//34 40//34 43//35
f  41//36 2//36 5//2
f  2//36 41//36 43//37
f  3//4 42//38 30//38
f  42//38 3//4 40//39
f  3//40 43//40 40//40
f  43//40 3//40 2//41
f  6//42 1//42 8//42
f  1//43 6//43 4//43
f  11//44 9//44 13//44
f  9//44 11//44 10//45
f  18//46 15//46 14//46
f  15//47 18//47 16//47
f  23//48 20//48 19//48
f  20//48 23//48 21//49
f  8//50 29//50 26//50
f  29//50 8//50 3//50
f  13//50 26//50 34//50
f  26//50 13//50 8//50
f  13//50 31//50 18//50
f  31//50 13//50 34//50
f  44//51 38//51 35//51
f  26//52 44//52 39//52
f  44//52 26//52 38//53
f  39//54 35//54 34//54
f  35//54 39//54 44//55
f  41//56 30//56 42//56
f  30//56 41//56 5//57
f  5//57 45//58 30//56
f  45//58 5//57 7//59
f  12//60 45//58 7//59
f  45//58 12//60 46//61
f  17//62 46//61 12//60
f  46//61 17//62 25//63
f  17//62 24//61 25//63
f  24//61 17//62 22//64
f  30//56 28//65 27//65
f  28//65 30//56 45//58
f  45//58 32//66 28//65
f  32//66 45//58 46//61
f  46//61 33//67 32//66
f  33//67 46//61 25//63
f  28//65 37//68 36//68
f  37//68 28//65 32//66

