# {"id":"BLDG_0003000b00065919","idOriginal":"BLDG_0003000b00065919","origin":[13.355958777462021,52.50567313267936],"elevation":34.4300003051758}
# Longitude: 13.355958777462021
# Latitude: 52.50567313267936
# Elevation: 34.4300003051758

# File produced by Open Asset Import Library (http://www.assimp.sf.net)
# (assimp v3.1.0)

mtllib BLDG_0003000b00065919.obj.mtl

# 12 vertex positions
v  11.9267 -2.43252e-16 3.9726
v  0.000256236 12.0286 -0.00038001
v  0 0 0
v  11.927 12.0286 3.97222
v  12.1363 -2.03098e-16 3.31685
v  12.1366 12.0286 3.31647
v  13.9752 1.34831e-16 -2.20195
v  13.9755 12.0286 -2.20233
v  12.2354 12.0286 -2.77829
v  12.2352 1.70098e-16 -2.77791
v  2.0453 12.0286 -6.15577
v  2.04504 3.76909e-16 -6.15539

# 0 UV coordinates

# 14 vertex normals
vn -0.316014 3.67063e-05 0.948754
vn 0.952525 -1.06942e-05 0.30446
vn 0.948722 -1.02494e-05 0.316113
vn 0.314242 -3.66774e-05 -0.949343
vn 0.314242 -3.66962e-05 -0.949343
vn 0.314615 -3.6694e-05 -0.94922
vn 0.314615 -3.66814e-05 -0.94922
vn -0.948995 1.0255e-05 -0.31529
vn -0.948995 1.02593e-05 -0.31529
vn 0 1 0
vn 0 -1 -6.12323e-17
vn 0 -1 -6.12323e-17
vn -1.11399e-24 -1 -6.12323e-17
vn -7.60283e-25 -1 -6.12323e-17

# Mesh 'defaultobject' with 20 faces
g defaultobject
usemtl DefaultMaterial
f  1//1 2//1 3//1
f  2//1 1//1 4//1
f  5//2 4//2 1//2
f  4//2 5//2 6//2
f  7//3 6//3 5//3
f  6//3 7//3 8//3
f  9//4 7//4 10//4
f  7//4 9//4 8//5
f  11//6 10//6 12//6
f  10//6 11//6 9//7
f  2//8 12//8 3//8
f  12//8 2//8 11//9
f  4//10 11//10 2//10
f  11//10 4//10 9//10
f  9//10 4//10 6//10
f  9//10 6//10 8//10
f  3//11 5//11 1//11
f  5//11 3//11 7//12
f  7//12 3//11 10//13
f  10//13 3//11 12//14

