# {"id":"BLDG_00030009007afa5e","idOriginal":"BLDG_00030009007afa5e","origin":[13.403868511308447,52.52995746683983],"elevation":37.4599990844727}
# Longitude: 13.403868511308447
# Latitude: 52.52995746683983
# Elevation: 37.4599990844727

# File produced by Open Asset Import Library (http://www.assimp.sf.net)
# (assimp v3.1.0)

mtllib BLDG_00030009007afa5e.obj.mtl

# 40 vertex positions
v  18.3146 1.16314e-15 -18.9956
v  22.9362 8.99571e-16 -14.6911
v  17.4858 9.97591e-16 -16.2919
v  23.76 1.06413e-15 -17.3785
v  20.2359 3.6014e-16 -5.88154
v  14.8027 4.61595e-16 -7.53842
v  16.8574 -3.1478e-16 5.14076
v  11.4242 -2.13325e-16 3.48387
v  7.55086 1.54559e-15 -25.2414
v  19.1713 1.33429e-15 -21.7907
v  6.71304 1.37409e-15 -22.4407
v  5.89226 1.20609e-15 -19.6969
v  0 0 0
v  3.30407 6.76312e-16 -11.045
v  17.4862 19.4068 -16.2925
v  18.3149 18.3541 -18.9961
v  17.4862 16.9872 -16.2924
v  18.315 21.6213 -18.9962
v  23.7604 21.6213 -17.3792
v  22.9367 21.6213 -14.6918
v  20.2364 21.6213 -5.88222
v  14.8031 19.4068 -7.53904
v  19.1393 20.8511 -2.3033
v  16.8578 19.4068 5.14014
v  17.6191 22.0867 2.65657
v  11.4246 19.4068 3.48325
v  18.3149 16.9872 -18.9961
v  19.1717 16.9872 -21.7912
v  6.7134 16.9872 -22.4412
v  7.55123 16.9872 -25.2419
v  7.13234 18.3541 -23.8416
v  6.71343 18.3541 -22.4412
v  5.89263 16.9872 -19.6975
v  0.000414702 19.4068 -0.00061406
v  3.30449 19.4068 -11.0456
v  0.744918 22.0867 -2.48927
v  2.23171 20.8511 -7.45944
v  17.3421 18.3541 -20.8098
v  13.7062 20.8511 -3.96018
v  12.1859 22.0867 0.999686

# 0 UV coordinates

# 60 vertex normals
vn -1.31833e-23 -1 -6.12323e-17
vn 1.65788e-23 -1 -6.12324e-17
vn -8.09192e-24 -1 -6.12323e-17
vn 0 -1 -6.12323e-17
vn 1.29349e-23 -1 -6.12323e-17
vn 0 -1 -6.12323e-17
vn 5.98542e-24 -1 -6.12324e-17
vn -6.11942e-24 -1 -6.12323e-17
vn -0.956093 1.11084e-05 -0.293062
vn -0.956093 1.14133e-05 -0.293062
vn 0.284667 -3.64366e-05 -0.958626
vn 0.956093 -1.11454e-05 0.293062
vn 0.956093 -1.11297e-05 0.293062
vn 0.956093 -1.12303e-05 0.293062
vn -0.956093 1.11633e-05 -0.293062
vn 0.956094 -1.12207e-05 0.293062
vn 0.956093 -1.1197e-05 0.293062
vn 0.956093 -1.11163e-05 0.293062
vn 0.956093 -1.13417e-05 0.293062
vn -0.291694 3.64738e-05 0.956512
vn -0.291694 3.64911e-05 0.956512
vn 0.956094 -1.11188e-05 0.293062
vn -0.958051 1.1423e-05 -0.286597
vn -0.958051 1.13908e-05 -0.286597
vn -0.958051 1.15748e-05 -0.286597
vn 0.284667 -3.64343e-05 -0.958626
vn 0.284667 -3.64263e-05 -0.958626
vn 0.284667 -3.69221e-05 -0.958626
vn 0.284667 -3.67235e-05 -0.958626
vn -0.281799 3.63888e-05 0.959474
vn -0.958051 1.13908e-05 -0.286597
vn -0.958051 1.14304e-05 -0.286598
vn -0.958051 1.14041e-05 -0.286597
vn -0.958051 1.1398e-05 -0.286597
vn -0.958051 1.14831e-05 -0.286597
vn -0.958051 1.16393e-05 -0.286598
vn 0.291694 -3.65024e-05 -0.956512
vn 0.291694 -3.6506e-05 -0.956512
vn -0.291694 3.65033e-05 0.956512
vn -0.396012 0.915133 0.0755354
vn 0.65306 0.730371 0.200176
vn -0.194435 0.730394 0.654767
vn -0.194435 0.730394 0.654767
vn 0.194442 0.730371 -0.65479
vn 0.194442 0.730371 -0.65479
vn -0.121385 0.902471 0.413293
vn -0.123891 0.900327 0.417208
vn 0.105006 0.93296 -0.344325
vn 0.105003 0.932961 -0.344322
vn 0.0675811 0.97279 -0.221611
vn 0.0675837 0.97279 -0.221614
vn -0.209448 0.696003 0.686812
vn -0.209444 0.696008 0.686808
vn -0.17551 0.787321 0.591035
vn -0.347272 0.931703 -0.106446
vn -0.347272 0.931703 -0.106446
vn -0.347272 0.931703 -0.106446
vn -0.209446 0.696008 0.686808
vn 0.0675828 0.97279 -0.221615
vn 0.105003 0.932961 -0.344322

# Mesh 'defaultobject' with 72 faces
g defaultobject
usemtl DefaultMaterial
f  1//1 2//1 3//1
f  2//1 1//1 4//2
f  5//3 3//1 2//1
f  3//1 5//3 6//4
f  7//4 6//4 5//3
f  6//4 7//4 8//5
f  1//1 9//6 10//6
f  9//6 1//1 11//7
f  3//1 11//7 1//1
f  11//7 3//1 12//8
f  6//4 13//4 14//4
f  13//4 6//4 8//5
f  15//9 16//9 17//9
f  16//9 15//9 18//10
f  18//11 4//11 1//11
f  4//11 18//11 19//11
f  4//12 20//12 2//12
f  20//12 4//12 19//13
f  2//12 21//14 5//14
f  21//14 2//12 20//12
f  22//15 3//15 6//15
f  3//15 22//15 15//9
f  21//14 7//16 5//14
f  7//16 21//14 23//17
f  7//16 23//17 24//18
f  25//19 24//18 23//17
f  7//20 26//20 8//20
f  26//20 7//20 24//21
f  10//22 27//22 1//22
f  27//22 10//22 28//22
f  29//23 9//23 11//23
f  9//23 29//23 30//24
f  30//24 29//23 31//25
f  30//26 10//26 9//26
f  10//26 30//26 28//27
f  32//28 27//28 29//28
f  27//28 32//28 16//29
f  3//30 33//30 12//30
f  33//30 3//30 17//30
f  33//31 11//23 12//31
f  11//23 33//31 32//32
f  34//33 14//33 13//33
f  14//33 34//33 35//34
f  35//34 34//33 36//35
f  35//34 36//35 37//36
f  35//37 6//37 14//37
f  6//37 35//37 22//38
f  8//20 34//39 13//39
f  34//39 8//20 26//20
f  23//40 21//40 22//40
f  38//41 27//41 28//41
f  31//42 27//42 38//42
f  27//42 31//42 29//43
f  30//44 38//44 28//44
f  38//44 30//44 31//45
f  17//46 32//46 33//46
f  32//47 17//47 16//47
f  39//48 35//48 37//48
f  35//48 39//48 22//49
f  40//50 37//50 36//50
f  37//50 40//50 39//51
f  26//52 36//52 34//52
f  36//52 26//52 40//53
f  15//54 19//54 18//54
f  19//55 15//55 20//55
f  15//55 21//56 20//55
f  21//56 15//55 22//57
f  40//53 24//58 25//58
f  24//58 40//53 26//52
f  39//51 25//59 23//59
f  25//59 39//51 40//50
f  39//48 23//60 22//49

