# {"id":"BLDG_0003000a0010db32","idOriginal":"BLDG_0003000a0010db32","origin":[13.385994588990377,52.55507086522875],"elevation":40.3699989318848}
# Longitude: 13.385994588990377
# Latitude: 52.55507086522875
# Elevation: 40.3699989318848

# File produced by Open Asset Import Library (http://www.assimp.sf.net)
# (assimp v3.1.0)

mtllib BLDG_0003000a0010db32.obj.mtl

# 8 vertex positions
v  14.4595 7.87635e-16 -12.8631
v  3.74258 -2.5317e-16 4.13457
v  0 0 0
v  18.2021 5.34466e-16 -8.72849
v  3.74296 17.7073 4.13401
v  14.46 20.2793 -12.8637
v  0.00043288 20.2793 -0.00064275
v  18.2025 17.7073 -8.72905

# 0 UV coordinates

# 11 vertex normals
vn -7.84834e-24 -1 -6.12323e-17
vn 0.278367 0.908072 0.312916
vn 0.278367 0.908072 0.312916
vn -0.664656 -9.49313e-06 -0.747149
vn -0.664656 -9.49121e-06 -0.747149
vn 0.741377 -3.70938e-05 -0.671089
vn 0.741377 -3.70945e-05 -0.671089
vn 0.664656 9.43968e-06 0.747149
vn 0.664656 9.48421e-06 0.747149
vn -0.741377 3.71022e-05 0.671089
vn -0.741377 3.70955e-05 0.671089

# Mesh 'defaultobject' with 12 faces
g defaultobject
usemtl DefaultMaterial
f  1//1 2//1 3//1
f  2//1 1//1 4//1
f  5//2 6//2 7//2
f  6//2 5//2 8//3
f  7//4 1//4 3//4
f  1//4 7//4 6//5
f  1//6 8//6 4//6
f  8//6 1//6 6//7
f  4//8 5//8 2//8
f  5//8 4//8 8//9
f  5//10 3//10 2//10
f  3//10 5//10 7//11

