# {"id":"BLDG_00030000004291f5","idOriginal":"BLDG_00030000004291f5","origin":[13.335064020586735,52.52327800936915],"elevation":31.75}
# Longitude: 13.335064020586735
# Latitude: 52.52327800936915
# Elevation: 31.75

# File produced by Open Asset Import Library (http://www.assimp.sf.net)
# (assimp v3.1.0)

mtllib BLDG_00030000004291f5.obj.mtl

# 8 vertex positions
v  0.000502611 23.6247 -0.00074725
v  1.18679 8.18064e-16 -13.36
v  0 0 0
v  1.18729 23.6247 -13.3608
v  6.65331 7.87568e-16 -12.862
v  6.65377 21.2713 -12.8626
v  5.46698 21.2713 0.497372
v  5.46653 -3.04965e-17 0.498045

# 0 UV coordinates

# 11 vertex normals
vn -0.996078 1.83927e-05 -0.0884829
vn -0.996078 1.83936e-05 -0.0884829
vn 0.0907325 -3.34078e-05 -0.995875
vn 0.0907323 -3.34524e-05 -0.995875
vn 0.996078 -1.83914e-05 0.0884829
vn -0.0907323 3.34298e-05 0.995875
vn -0.0907323 3.34304e-05 0.995875
vn 0.392505 0.919089 0.0348668
vn 0.392505 0.919089 0.0348668
vn 8.62864e-24 -1 -6.12323e-17
vn 3.59527e-25 -1 -6.12323e-17

# Mesh 'defaultobject' with 12 faces
g defaultobject
usemtl DefaultMaterial
f  1//1 2//1 3//1
f  2//1 1//1 4//2
f  4//3 5//3 2//3
f  5//3 4//3 6//4
f  5//5 7//5 8//5
f  7//5 5//5 6//5
f  8//6 1//6 3//6
f  1//6 8//6 7//7
f  6//8 1//8 7//8
f  1//8 6//8 4//9
f  5//10 3//10 2//10
f  3//10 5//10 8//11

