# {"id":"BLDG_00030000001a39ce","idOriginal":"BLDG_00030000001a39ce","origin":[13.4211078392001,52.508683450401854],"elevation":34.7000007629395}
# Longitude: 13.4211078392001
# Latitude: 52.508683450401854
# Elevation: 34.7000007629395

# File produced by Open Asset Import Library (http://www.assimp.sf.net)
# (assimp v3.1.0)

mtllib BLDG_00030000001a39ce.obj.mtl

# 24 vertex positions
v  7.29731 19.9886 -15.0725
v  13.2561 1.6766e-15 -27.3809
v  7.29688 9.22888e-16 -15.0719
v  13.2566 19.9886 -27.3816
v  16.2935 1.59021e-15 -25.9702
v  16.2939 17.9982 -25.9707
v  10.3269 17.9982 -13.6457
v  10.3265 8.35522e-16 -13.6451
v  10.327 22.6492 -13.6458
v  36.7932 7.22876e-17 -1.18055
v  36.7937 22.6492 -1.18126
v  29.6423 -8.54811e-16 13.9601
v  29.6428 22.6492 13.9594
v  35.3549 23.572 1.86505
v  33.1997 24.1087 6.42835
v  3.0301 22.6492 1.42609
v  3.02962 -8.73667e-17 1.42681
v  0.000484494 22.6492 -0.00071563
v  0 0 0
v  5.82932 23.572 -12.0403
v  7.29739 23.9971 -15.0727
v  3.6298 24.1087 -7.49715
v  8.85894 23.572 -10.6135
v  6.65942 24.1087 -6.07034

# 0 UV coordinates

# 38 vertex normals
vn -0.900065 5.47596e-06 -0.435755
vn -0.900065 5.47527e-06 -0.435755
vn 0.421241 -3.76495e-05 -0.906949
vn 0.421241 -3.76146e-05 -0.906949
vn 0.900065 -5.44827e-06 0.435755
vn 0.900065 -5.41731e-06 0.435755
vn 0.426067 -3.76834e-05 -0.904692
vn 0.426067 -3.76977e-05 -0.904692
vn 0.904223 -5.84813e-06 0.42706
vn 0.904223 -5.85487e-06 0.42706
vn 0.904223 -5.92512e-06 0.42706
vn 0.904223 -4.83483e-06 0.42706
vn -0.426067 3.76971e-05 0.904692
vn -0.426067 3.76956e-05 0.904692
vn -0.900065 5.48524e-06 -0.435755
vn -0.900065 5.49892e-06 -0.435755
vn -0.900065 5.49462e-06 -0.435755
vn -0.900065 4.83426e-06 -0.435755
vn 0.426067 -3.77481e-05 -0.904692
vn 0.426067 -3.75115e-05 -0.904692
vn 0 -1 -6.12323e-17
vn 3.69447e-23 -1 -6.12323e-17
vn 0 -1 -6.12323e-17
vn 0 -1 -6.12323e-17
vn 0.459888 0.85961 0.222649
vn 0.459889 0.85961 0.222649
vn 0.112565 0.96447 -0.239012
vn 0.112558 0.964474 -0.239
vn 0.0450462 0.994395 -0.0956532
vn 0.0450542 0.994394 -0.0956647
vn -0.0735433 0.98499 0.156159
vn -0.0735367 0.984992 0.156151
vn 0.28414 0.920956 0.266655
vn 0.112564 0.96447 -0.239013
vn 0.0450477 0.994395 -0.0956525
vn 0.0450477 0.994395 -0.0956525
vn -0.0735433 0.98499 0.156159
vn -0.0735433 0.98499 0.156159

# Mesh 'defaultobject' with 42 faces
g defaultobject
usemtl DefaultMaterial
f  1//1 2//1 3//1
f  2//1 1//1 4//2
f  4//3 5//3 2//3
f  5//3 4//3 6//4
f  5//5 7//5 8//5
f  7//5 5//5 6//6
f  9//7 10//7 8//7
f  10//7 9//7 11//8
f  11//9 12//9 10//9
f  12//9 11//9 13//10
f  13//10 11//9 14//11
f  13//10 14//11 15//12
f  12//13 16//13 17//13
f  16//13 12//13 13//13
f  17//13 18//14 19//14
f  18//14 17//13 16//13
f  18//15 3//1 19//15
f  3//1 18//15 20//16
f  3//1 20//16 21//17
f  20//16 18//15 22//18
f  1//19 9//7 7//19
f  9//7 1//19 21//20
f  2//21 8//21 3//21
f  8//21 2//21 5//22
f  8//21 12//23 17//23
f  12//23 8//21 10//21
f  3//21 17//23 19//24
f  17//23 3//21 8//21
f  7//25 4//25 1//25
f  4//25 7//25 6//26
f  14//27 9//27 23//27
f  9//28 14//28 11//28
f  15//29 23//29 24//29
f  23//30 15//30 14//30
f  13//31 24//31 16//31
f  24//32 13//32 15//32
f  21//33 20//33 9//33
f  20//34 23//27 9//27
f  20//35 24//29 23//29
f  24//29 20//35 22//36
f  22//37 16//31 24//31
f  16//31 22//37 18//38

