# {"id":"BLDG_0003000b002ea268","idOriginal":"BLDG_0003000b002ea268","origin":[13.321194702298927,52.530653897599926],"elevation":34.810001373291}
# Longitude: 13.321194702298927
# Latitude: 52.530653897599926
# Elevation: 34.810001373291

# File produced by Open Asset Import Library (http://www.assimp.sf.net)
# (assimp v3.1.0)

mtllib BLDG_0003000b002ea268.obj.mtl

# 8 vertex positions
v  10.9484 4.20442 -11.8518
v  0.000109315 5.14267 -0.00016275
v  10.2505 4.20442 0.601833
v  0.698048 5.14267 -12.4538
v  0.697939 7.62564e-16 -12.4536
v  0 0 0
v  10.9483 7.25705e-16 -11.8517
v  10.2504 -3.68598e-17 0.601966

# 0 UV coordinates

# 12 vertex normals
vn 0.0908548 0.995851 0.00509178
vn 0.0908548 0.995851 0.00509178
vn -0.998433 1.94523e-05 -0.0559552
vn -0.998433 1.94487e-05 -0.0559552
vn 0.0586254 -3.29024e-05 -0.99828
vn 0.0586254 -3.29511e-05 -0.99828
vn 0.998433 -1.95127e-05 0.0559552
vn 0.998433 -1.95127e-05 0.0559552
vn -0.0586253 3.28426e-05 0.99828
vn -0.0586253 3.28376e-05 0.99828
vn 8.47368e-24 -1 -6.12323e-17
vn 2.06675e-25 -1 -6.12323e-17

# Mesh 'defaultobject' with 24 faces
g defaultobject
usemtl DefaultMaterial
f  1//1 2//1 3//1
f  2//1 1//1 4//2
f  1//1 2//1 3//1
f  2//1 1//1 4//2
f  2//3 5//3 6//3
f  5//3 2//3 4//4
f  4//5 7//5 5//5
f  7//5 4//5 1//6
f  7//7 3//7 8//7
f  3//7 7//7 1//8
f  8//9 2//9 6//9
f  2//9 8//9 3//10
f  2//3 5//3 6//3
f  5//3 2//3 4//4
f  4//5 7//5 5//5
f  7//5 4//5 1//6
f  7//7 3//7 8//7
f  3//7 7//7 1//8
f  8//9 2//9 6//9
f  2//9 8//9 3//10
f  7//11 6//11 5//11
f  6//11 7//11 8//12
f  7//11 6//11 5//11
f  6//11 7//11 8//12

