# {"id":"BLDG_0003000e00125e0f","idOriginal":"BLDG_0003000e00125e0f","origin":[13.341634309588287,52.56117070860538],"elevation":38.9099998474121}
# Longitude: 13.341634309588287
# Latitude: 52.56117070860538
# Elevation: 38.9099998474121

# File produced by Open Asset Import Library (http://www.assimp.sf.net)
# (assimp v3.1.0)

mtllib BLDG_0003000e00125e0f.obj.mtl

# 34 vertex positions
v  1.0856e-05 9.90731e-22 -1.61799e-05
v  1.48985 12.8265 1.75487
v  1.48958 -1.0748e-16 1.75528
v  0.00028388 12.8265 -0.000422901
v  -0.123851 12.8265 0.122254
v  -0.124124 -7.5108e-18 0.122661
v  -4.29909 12.8265 4.2484
v  -4.29936 -2.60164e-16 4.2488
v  -2.96192 12.8265 5.59577
v  -2.96219 -3.42667e-16 5.59618
v  -2.67928 12.8265 5.88113
v  -2.67956 -3.6014e-16 5.88154
v  8.96331 13.5 9.32651
v  1.48957 -0.509998 1.75529
v  8.96301 -0.509998 9.32696
v  1.48987 13.5 1.75485
v  9.94545 -0.509998 8.35772
v  9.94574 13.5 8.35728
v  11.8067 13.5 10.2425
v  11.8064 -0.509998 10.243
v  18.7269 -0.509998 3.40121
v  18.7272 13.5 3.40076
v  13.5034 -0.509998 -2.32875
v  13.2807 13.5 -2.10839
v  13.2804 -0.509998 -2.10795
v  13.5037 13.5 -2.3292
v  11.4188 -0.509998 -4.43829
v  11.4191 13.5 -4.43873
v  11.1958 13.5 -4.21793
v  11.1955 -0.509998 -4.21748
v  7.77165 -0.509998 -7.68038
v  7.77195 13.5 -7.68083
v  0.000298216 13.5 -0.00044425
v  0 -0.509998 -3.12284e-17

# 0 UV coordinates

# 34 vertex normals
vn 0.76246 -3.67457e-05 -0.647036
vn -0.702918 -7.59196e-06 -0.711271
vn -0.702918 -7.59174e-06 -0.711271
vn -0.702913 -7.60817e-06 -0.711276
vn -0.709789 3.74444e-05 0.704414
vn -0.709789 3.74312e-05 0.704414
vn -0.71049 3.74501e-05 0.703708
vn -0.710489 3.74369e-05 0.703708
vn 0.703443 7.5546e-06 0.710752
vn -0.711708 3.74471e-05 0.702476
vn -0.711708 3.7429e-05 0.702476
vn 0.702308 7.61755e-06 0.711873
vn -0.711679 3.7399e-05 0.702504
vn -0.71168 3.74474e-05 0.702504
vn 0.703049 7.61041e-06 0.711141
vn 0.703604 7.5368e-06 0.710593
vn 0.711292 -3.7435e-05 -0.702897
vn 0.711292 -3.74235e-05 -0.702897
vn -0.703112 -7.62341e-06 -0.711079
vn -0.70311 -7.55147e-06 -0.711081
vn 0.711107 -3.74062e-05 -0.703084
vn 0.711107 -3.74062e-05 -0.703084
vn -0.702918 -7.5918e-06 -0.711271
vn -0.702918 -7.58549e-06 -0.711271
vn -0.76246 3.67504e-05 0.647036
vn -0.76246 3.67469e-05 0.647036
vn 0.711139 -3.73967e-05 -0.703052
vn 0.711139 -3.74495e-05 -0.703052
vn 0 -1 -6.12324e-17
vn 0 -1 -6.12323e-17
vn -2.37735e-24 -1 -6.12323e-17
vn 1.9662e-23 -1 -6.12323e-17
vn 0 -1 0
vn 0 1 0

# Mesh 'defaultobject' with 60 faces
g defaultobject
usemtl DefaultMaterial
f  1//1 2//1 3//1
f  2//1 1//1 4//1
f  5//2 1//2 6//2
f  1//2 5//2 4//3
f  7//4 6//2 8//4
f  6//2 7//4 5//2
f  9//5 8//5 10//5
f  8//5 9//5 7//6
f  11//7 10//7 12//7
f  10//7 11//7 9//8
f  3//9 11//9 12//9
f  11//9 3//9 2//9
f  13//10 14//10 15//10
f  14//10 13//10 16//11
f  17//12 13//12 15//12
f  13//12 17//12 18//12
f  19//13 17//13 20//13
f  17//13 19//13 18//14
f  21//15 19//15 20//15
f  19//15 21//15 22//15
f  23//16 24//16 25//16
f  24//16 23//16 26//16
f  27//17 26//17 23//17
f  26//17 27//17 28//18
f  29//19 27//19 30//19
f  27//19 29//19 28//20
f  31//21 29//21 30//21
f  29//21 31//21 32//22
f  33//23 31//23 34//23
f  31//23 33//23 32//24
f  16//25 34//25 14//25
f  34//25 16//25 33//26
f  25//27 22//27 21//27
f  22//27 25//27 24//28
f  3//29 6//29 1//29
f  6//29 3//29 8//30
f  8//30 3//29 10//31
f  10//31 3//29 12//32
f  14//33 17//33 15//33
f  17//33 21//33 20//33
f  21//33 17//33 14//33
f  21//33 14//33 34//33
f  21//33 34//33 25//33
f  25//33 34//33 31//33
f  25//33 31//33 30//33
f  25//33 30//33 23//33
f  27//33 23//33 30//33
f  2//34 9//34 11//34
f  9//34 2//34 4//34
f  9//34 4//34 5//34
f  9//34 5//34 7//34
f  22//34 24//34 19//34
f  16//34 32//34 33//34
f  32//34 16//34 13//34
f  32//34 13//34 29//34
f  29//34 13//34 18//34
f  29//34 18//34 19//34
f  29//34 19//34 28//34
f  28//34 19//34 24//34
f  28//34 24//34 26//34

