# {"id":"BLDG_000300000017acf0","idOriginal":"BLDG_000300000017acf0","origin":[13.379038778857597,52.53635864689992],"elevation":36.2700004577637}
# Longitude: 13.379038778857597
# Latitude: 52.53635864689992
# Elevation: 36.2700004577637

# File produced by Open Asset Import Library (http://www.assimp.sf.net)
# (assimp v3.1.0)

mtllib BLDG_000300000017acf0.obj.mtl

# 8 vertex positions
v  23.6719 3.70964e-16 -6.05831
v  0 0 0
v  20.9847 6.93447e-16 -11.3248
v  2.68718 -3.22482e-16 5.26653
v  0.000424167 19.8808 -0.00062935
v  20.9851 19.8808 -11.3255
v  23.6723 17.4893 -6.05886
v  2.68756 17.4893 5.26598

# 0 UV coordinates

# 12 vertex normals
vn 0 -1 -6.12323e-17
vn 1.50238e-24 -1 -6.12323e-17
vn -0.474925 -1.77255e-05 -0.880026
vn -0.474925 -1.77464e-05 -0.880026
vn 0.89075 -3.34416e-05 -0.454494
vn 0.89075 -3.33618e-05 -0.454494
vn 0.474925 1.78184e-05 0.880026
vn 0.474925 1.77819e-05 0.880026
vn -0.89075 3.34027e-05 0.454494
vn -0.89075 3.33921e-05 0.454494
vn 0.178126 0.927 0.330064
vn 0.178126 0.927 0.330064

# Mesh 'defaultobject' with 12 faces
g defaultobject
usemtl DefaultMaterial
f  1//1 2//1 3//1
f  2//1 1//1 4//2
f  5//3 3//3 2//3
f  3//3 5//3 6//4
f  3//5 7//5 1//5
f  7//5 3//5 6//6
f  1//7 8//7 4//7
f  8//7 1//7 7//8
f  8//9 2//9 4//9
f  2//9 8//9 5//10
f  7//11 5//11 8//11
f  5//11 7//11 6//12

