# {"id":"BLDG_0003000b00283979","idOriginal":"BLDG_0003000b00283979","origin":[13.345039530836855,52.53296984038608],"elevation":32.7099990844727}
# Longitude: 13.345039530836855
# Latitude: 52.53296984038608
# Elevation: 32.7099990844727

# File produced by Open Asset Import Library (http://www.assimp.sf.net)
# (assimp v3.1.0)

mtllib BLDG_0003000b00283979.obj.mtl

# 136 vertex positions
v  27.7413 5.13623e-16 -8.38811
v  27.2357 25.3612 -7.68814
v  27.2351 4.70714e-16 -7.68734
v  27.7418 25.3612 -8.38891
v  28.1832 5.59074e-16 -9.13037
v  28.1838 25.3612 -9.13117
v  28.5569 6.06772e-16 -9.90934
v  28.5574 25.3612 -9.91014
v  28.8601 6.56345e-16 -10.7189
v  28.8606 25.3612 -10.7197
v  29.0898 7.0735e-16 -11.5519
v  29.0904 25.3612 -11.5527
v  29.2445 7.59376e-16 -12.4016
v  29.2451 25.3612 -12.4024
v  29.3232 8.12089e-16 -13.2624
v  29.3237 25.3612 -13.2632
v  29.3247 8.65004e-16 -14.1266
v  29.3252 25.3612 -14.1274
v  29.2492 9.17709e-16 -14.9873
v  29.2497 25.3612 -14.9881
v  29.0975 9.69794e-16 -15.8379
v  29.0981 25.3612 -15.8387
v  28.8708 1.02084e-15 -16.6717
v  28.8713 25.3612 -16.6725
v  28.5704 1.07045e-15 -17.4818
v  28.5709 25.3612 -17.4826
v  28.1995 1.11823e-15 -18.2621
v  28.2001 25.3612 -18.2629
v  27.7602 1.16381e-15 -19.0065
v  27.7608 25.3612 -19.0073
v  28.3402 1.16254e-15 -18.9857
v  28.3408 25.3612 -18.9865
v  28.4325 1.16975e-15 -19.1035
v  28.433 25.3612 -19.1043
v  29.6285 1.25349e-15 -20.471
v  29.629 25.3612 -20.4718
v  15.9732 2.0001e-15 -32.6642
v  15.9738 25.3612 -32.665
v  12.8544 2.17063e-15 -35.4491
v  12.855 25.3612 -35.4499
v  11.5617 25.3612 -34.0037
v  11.5611 2.08208e-15 -34.0029
v  5.32658 25.3612 -27.0337
v  5.32604 1.65528e-15 -27.0328
v  4.1025 25.3612 -25.6648
v  4.10196 1.57147e-15 -25.664
v  6.15431 25.3612 -23.8181
v  6.15377 1.45839e-15 -23.8173
v  6.42929 25.3612 -23.5632
v  6.42875 1.44278e-15 -23.5624
v  7.19605 25.3612 -22.8688
v  7.19551 1.40026e-15 -22.8679
v  9.29006 25.3612 -20.9785
v  9.28952 1.28451e-15 -20.9777
v  10.3556 1.27228e-15 -20.7779
v  10.3561 25.3612 -20.7787
v  11.0455 1.26139e-15 -20.6
v  11.0461 25.3612 -20.6008
v  11.7137 1.24622e-15 -20.3524
v  11.7142 25.3612 -20.3532
v  12.3525 1.22694e-15 -20.0375
v  12.353 25.3612 -20.0383
v  12.9552 1.20367e-15 -19.6574
v  12.9558 25.3612 -19.6582
v  13.5162 25.3612 -19.2185
v  13.5157 1.17674e-15 -19.2177
v  14.025 25.3612 -18.7267
v  14.0245 1.14663e-15 -18.7259
v  14.4804 25.3612 -18.1852
v  14.4798 1.11347e-15 -18.1844
v  14.8778 25.3612 -17.5997
v  14.8773 1.07762e-15 -17.5989
v  15.2132 25.3612 -16.9763
v  15.2127 1.03945e-15 -16.9755
v  15.476 25.3612 -16.3189
v  15.4754 9.99193e-16 -16.3181
v  15.6678 25.3612 -15.6378
v  15.6672 9.57488e-16 -15.637
v  15.7851 25.3612 -14.9575
v  15.7846 9.15833e-16 -14.9567
v  15.8318 25.3612 -14.2682
v  15.8313 8.73625e-16 -14.2674
v  15.8077 25.3612 -13.5784
v  15.8072 8.31387e-16 -13.5776
v  15.7129 25.3612 -12.8942
v  15.7124 7.89493e-16 -12.8934
v  15.5485 25.3612 -12.2236
v  15.548 7.48428e-16 -12.2227
v  15.3164 25.3612 -11.5737
v  15.3159 7.08637e-16 -11.5729
v  15.0186 25.3612 -10.9508
v  15.0181 6.70492e-16 -10.95
v  14.6893 25.3612 -10.3718
v  14.6888 6.35038e-16 -10.371
v  14.3001 25.3612 -9.83111
v  14.2995 6.01932e-16 -9.8303
v  13.8555 25.3612 -9.33545
v  13.8549 5.71582e-16 -9.33465
v  13.3603 25.3612 -8.8902
v  13.3597 5.44318e-16 -8.8894
v  12.8201 25.3612 -8.50073
v  12.8195 5.2047e-16 -8.49992
v  12.2416 25.3612 -8.17118
v  12.2411 5.00291e-16 -8.17038
v  11.6311 25.3612 -7.90511
v  11.6306 4.83999e-16 -7.90431
v  11.1748 25.3612 -7.75511
v  11.1743 4.74815e-16 -7.75431
v  10.7085 25.3612 -7.64009
v  10.708 4.67772e-16 -7.63929
v  10.2346 25.3612 -7.56184
v  10.2341 4.6298e-16 -7.56103
v  8.75401 25.3612 -6.4701
v  8.75347 3.9613e-16 -6.4693
v  5.43773 25.3612 -4.02362
v  5.43719 2.46327e-16 -4.02282
v  0.000539914 25.3612 -0.00080269
v  0 0 0
v  5.63205 25.3612 7.46237
v  5.63151 -4.56987e-16 7.46317
v  5.52748 25.3612 7.53727
v  5.52694 -4.61574e-16 7.53808
v  6.34692 25.3612 8.62273
v  6.34638 -5.28039e-16 8.62354
v  7.45829 25.3612 10.1141
v  7.45775 -6.19359e-16 10.1149
v  9.73044 -5.13633e-16 8.38826
v  9.73098 25.3612 8.38746
v  25.9436 2.3955e-16 -3.91215
v  25.9441 25.3612 -3.91295
v  28.9363 3.78108e-16 -6.17498
v  28.9368 25.3612 -6.17578
v  27.8726 4.62011e-16 -7.54521
v  27.8732 25.3612 -7.54602
v  27.7849 4.69475e-16 -7.66711
v  27.7855 25.3612 -7.66792

# 0 UV coordinates

# 167 vertex normals
vn 0.810651 1.28598e-06 0.585529
vn 0.810651 1.26423e-06 0.58553
vn 0.859229 -2.10844e-06 0.511591
vn 0.85923 -2.08939e-06 0.51159
vn 0.901623 -5.49637e-06 0.432523
vn 0.901622 -5.51134e-06 0.432524
vn 0.936494 -8.84155e-06 0.350683
vn 0.936494 -8.82863e-06 0.350682
vn 0.963999 -1.20983e-05 0.265907
vn 0.983824 -1.52675e-05 0.179137
vn 0.995854 -1.83152e-05 0.0909624
vn 0.999999 -2.12291e-05 0.00172379
vn 0.999999 -2.12291e-05 0.00172379
vn 0.996178 -2.39647e-05 -0.087349
vn 0.984476 -2.65036e-05 -0.175518
vn 0.984476 -2.65104e-05 -0.175518
vn 0.964953 -2.88467e-05 -0.262423
vn 0.937604 -3.09647e-05 -0.347705
vn 0.90318 -3.28148e-05 -0.429263
vn 0.861216 -3.44209e-05 -0.508239
vn -0.0358412 3.24047e-05 0.999358
vn 0.787439 2.75685e-06 0.616393
vn 0.75274 4.82278e-06 0.658318
vn 0.666044 -3.77951e-05 -0.745912
vn 0.666044 -3.77622e-05 -0.745912
vn 0.666061 -3.77363e-05 -0.745897
vn -0.74542 -5.19054e-06 -0.666596
vn -0.745309 -5.23293e-06 -0.666719
vn -0.745309 -5.1968e-06 -0.666719
vn -0.745417 -5.22679e-06 -0.666598
vn -0.668992 3.77848e-05 0.743269
vn -0.67975 3.76901e-05 0.733444
vn -0.67975 3.77028e-05 0.733443
vn -0.671304 3.77553e-05 0.741183
vn -0.670077 3.77643e-05 0.742292
vn -0.184134 3.50395e-05 0.982901
vn -0.184134 3.50465e-05 0.982901
vn -0.2497 3.59834e-05 0.968323
vn -0.2497 3.5974e-05 0.968323
vn -0.347582 3.70856e-05 0.937649
vn -0.347584 3.70155e-05 0.937649
vn -0.442115 3.77424e-05 0.896959
vn -0.442112 3.78093e-05 0.89696
vn -0.533386 3.8135e-05 0.845872
vn -0.533388 3.80706e-05 0.845871
vn -0.617269 3.80481e-05 0.786752
vn -0.617268 3.79889e-05 0.786753
vn -0.695013 3.75575e-05 0.718997
vn -0.765333 3.6668e-05 0.643635
vn -0.827382 3.53925e-05 0.561639
vn -0.880633 3.37778e-05 0.473799
vn -0.880632 3.37447e-05 0.4738
vn -0.928587 3.15141e-05 0.371115
vn -0.928587 3.1549e-05 0.371114
vn -0.962562 2.90953e-05 0.271062
vn -0.962562 2.90693e-05 0.271063
vn -0.985444 2.63565e-05 0.170001
vn -0.985444 2.63871e-05 0.17
vn -0.997714 2.33749e-05 0.067586
vn -0.99939 2.0166e-05 -0.0349322
vn -0.99939 2.01646e-05 -0.0349322
vn -0.990537 1.67367e-05 -0.137249
vn -0.990537 1.67418e-05 -0.137249
vn -0.971236 1.31322e-05 -0.238117
vn -0.941745 9.39485e-06 -0.336329
vn -0.902219 5.54726e-06 -0.431279
vn -0.869259 2.84852e-06 -0.494358
vn -0.811519 -1.229e-06 -0.584326
vn -0.744418 -5.2723e-06 -0.667714
vn -0.744418 -5.29737e-06 -0.667714
vn -0.668617 -9.26055e-06 -0.743607
vn -0.668618 -9.28566e-06 -0.743606
vn -0.584819 -1.32057e-05 -0.811164
vn -0.584818 -1.31837e-05 -0.811164
vn -0.495019 -1.6975e-05 -0.868882
vn -0.495018 -1.69423e-05 -0.868883
vn -0.399537 -2.05045e-05 -0.916717
vn -0.399538 -2.05217e-05 -0.916717
vn -0.312278 -2.34146e-05 -0.949991
vn -0.23947 -2.5626e-05 -0.970904
vn -0.162939 -2.77712e-05 -0.986636
vn -0.162938 -2.77527e-05 -0.986636
vn -0.593462 -1.28376e-05 -0.804862
vn -0.593462 -1.28527e-05 -0.804862
vn -0.593656 -1.28289e-05 -0.804719
vn -0.594776 -1.27812e-05 -0.803891
vn -0.594776 -1.27789e-05 -0.803891
vn -0.798244 3.60758e-05 0.602334
vn -0.798244 3.60578e-05 0.602334
vn -0.582359 -1.33293e-05 -0.812932
vn -0.582359 -1.33336e-05 -0.812931
vn -0.79811 3.60636e-05 0.602511
vn -0.79811 3.60523e-05 0.602511
vn -0.801843 3.60005e-05 0.597535
vn -0.801843 3.59855e-05 0.597535
vn 0.60495 1.23251e-05 0.796263
vn 0.60495 1.23054e-05 0.796263
vn 0.604411 1.23873e-05 0.796672
vn 0.60312 1.2403e-05 0.79765
vn 0.78994 -3.62166e-05 -0.613184
vn 0.78994 -3.62275e-05 -0.613184
vn 0.811741 -3.57679e-05 -0.584017
vn 0.81174 -3.5757e-05 -0.584019
vn 0.0367634 -3.24233e-05 -0.999324
vn 0.0367642 -3.24046e-05 -0.999324
vn 0 1 -0
vn 9.94495e-23 -1 -6.12325e-17
vn -1.50441e-22 -1 -6.12321e-17
vn 3.22876e-23 -1 -6.12324e-17
vn -1.35636e-23 -1 -6.12323e-17
vn -1.50948e-22 -1 -6.12318e-17
vn -2.77849e-23 -1 -6.12322e-17
vn 2.76846e-22 -1 -6.12332e-17
vn -1.55182e-23 -1 -6.12323e-17
vn 9.14659e-24 -1 -6.12324e-17
vn -1.978e-23 -1 -6.12323e-17
vn -1.00728e-23 -1 -6.12323e-17
vn -1.40649e-23 -1 -6.12323e-17
vn 3.35714e-24 -1 -6.12324e-17
vn 4.02217e-23 -1 -6.12325e-17
vn -3.86591e-24 -1 -6.12323e-17
vn -6.04152e-24 -1 -6.12323e-17
vn 2.38492e-23 -1 -6.12324e-17
vn 3.26293e-24 -1 -6.12323e-17
vn 1.53053e-23 -1 -6.12324e-17
vn -7.57319e-24 -1 -6.12323e-17
vn 0 -1 -6.12323e-17
vn 3.63604e-24 -1 -6.12323e-17
vn -1.19112e-23 -1 -6.12323e-17
vn -1.40518e-23 -1 -6.12323e-17
vn 2.38382e-23 -1 -6.12324e-17
vn 4.55439e-24 -1 -6.12324e-17
vn -1.26081e-23 -1 -6.12323e-17
vn 2.18412e-24 -1 -6.12323e-17
vn 2.53345e-23 -1 -6.12323e-17
vn 1.50581e-23 -1 -6.12324e-17
vn -2.63939e-23 -1 -6.12323e-17
vn 4.40345e-23 -1 -6.12324e-17
vn 4.14337e-24 -1 -6.12323e-17
vn 3.14424e-23 -1 -6.12324e-17
vn 1.82682e-23 -1 -6.12324e-17
vn -3.40158e-23 -1 -6.12322e-17
vn -8.16829e-23 -1 -6.12321e-17
vn 2.58361e-23 -1 -6.12324e-17
vn -6.26831e-23 -1 -6.12322e-17
vn 5.05586e-23 -1 -6.12326e-17
vn -1.09078e-23 -1 -6.12323e-17
vn -8.77238e-24 -1 -6.12323e-17
vn 6.55545e-23 -1 -6.12326e-17
vn -1.04289e-23 -1 -6.12323e-17
vn -1.65638e-24 -1 -6.12323e-17
vn -2.98638e-25 -1 -6.12323e-17
vn -3.27367e-25 -1 -6.12323e-17
vn -2.34731e-24 -1 -6.12323e-17
vn 1.78943e-23 -1 -6.12325e-17
vn 3.0334e-23 -1 -6.12324e-17
vn -8.00379e-23 -1 -6.12321e-17
vn 5.0859e-23 -1 -6.12325e-17
vn -3.03436e-23 -1 -6.12322e-17
vn 0 -1 -6.12323e-17
vn -3.51386e-24 -1 -6.12323e-17
vn 6.39391e-24 -1 -6.12323e-17
vn 1.78853e-23 -1 -6.12324e-17
vn 1.13406e-23 -1 -6.12323e-17
vn -1.09933e-23 -1 -6.12323e-17
vn 1.83215e-23 -1 -6.12323e-17
vn -1.42623e-23 -1 -6.12323e-17

# Mesh 'defaultobject' with 268 faces
g defaultobject
usemtl DefaultMaterial
f  1//1 2//1 3//1
f  2//1 1//1 4//2
f  5//3 4//3 1//3
f  4//3 5//3 6//4
f  7//5 6//5 5//5
f  6//5 7//5 8//6
f  9//7 8//7 7//7
f  8//7 9//7 10//8
f  11//9 10//9 9//9
f  10//9 11//9 12//9
f  13//10 12//10 11//10
f  12//10 13//10 14//10
f  15//11 14//11 13//11
f  14//11 15//11 16//11
f  17//12 16//12 15//12
f  16//12 17//12 18//13
f  19//14 18//14 17//14
f  18//14 19//14 20//14
f  21//15 20//15 19//15
f  20//15 21//15 22//16
f  23//17 22//17 21//17
f  22//17 23//17 24//17
f  25//18 24//18 23//18
f  24//18 25//18 26//18
f  27//19 26//19 25//19
f  26//19 27//19 28//19
f  29//20 28//20 27//20
f  28//20 29//20 30//20
f  31//21 30//21 29//21
f  30//21 31//21 32//21
f  33//22 32//22 31//22
f  32//22 33//22 34//22
f  35//23 34//23 33//23
f  34//23 35//23 36//23
f  37//24 36//24 35//24
f  36//24 37//24 38//25
f  39//26 38//26 37//26
f  38//26 39//26 40//26
f  41//27 39//27 42//27
f  39//27 41//27 40//27
f  43//28 42//28 44//28
f  42//28 43//28 41//29
f  45//30 44//30 46//30
f  44//30 45//30 43//30
f  47//31 46//31 48//31
f  46//31 47//31 45//31
f  49//32 48//32 50//32
f  48//32 49//32 47//33
f  51//34 50//34 52//34
f  50//34 51//34 49//34
f  53//35 52//35 54//35
f  52//35 53//35 51//35
f  55//36 53//36 54//36
f  53//36 55//36 56//37
f  57//38 56//38 55//38
f  56//38 57//38 58//39
f  59//40 58//40 57//40
f  58//40 59//40 60//41
f  61//42 60//42 59//42
f  60//42 61//42 62//43
f  63//44 62//44 61//44
f  62//44 63//44 64//45
f  65//46 63//46 66//46
f  63//46 65//46 64//47
f  67//48 66//48 68//48
f  66//48 67//48 65//48
f  69//49 68//49 70//49
f  68//49 69//49 67//49
f  71//50 70//50 72//50
f  70//50 71//50 69//50
f  73//51 72//51 74//51
f  72//51 73//51 71//52
f  75//53 74//53 76//53
f  74//53 75//53 73//54
f  77//55 76//55 78//55
f  76//55 77//55 75//56
f  79//57 78//57 80//57
f  78//57 79//57 77//58
f  81//59 80//59 82//59
f  80//59 81//59 79//59
f  83//60 82//60 84//60
f  82//60 83//60 81//61
f  85//62 84//62 86//62
f  84//62 85//62 83//63
f  87//64 86//64 88//64
f  86//64 87//64 85//64
f  89//65 88//65 90//65
f  88//65 89//65 87//65
f  91//66 90//66 92//66
f  90//66 91//66 89//66
f  93//67 92//67 94//67
f  92//67 93//67 91//67
f  95//68 94//68 96//68
f  94//68 95//68 93//68
f  97//69 96//69 98//69
f  96//69 97//69 95//70
f  99//71 98//71 100//71
f  98//71 99//71 97//72
f  101//73 100//73 102//73
f  100//73 101//73 99//74
f  103//75 102//75 104//75
f  102//75 103//75 101//76
f  105//77 104//77 106//77
f  104//77 105//77 103//78
f  107//79 106//79 108//79
f  106//79 107//79 105//79
f  109//80 108//80 110//80
f  108//80 109//80 107//80
f  111//81 110//81 112//81
f  110//81 111//81 109//82
f  113//83 112//83 114//83
f  112//83 113//83 111//84
f  115//85 114//85 116//85
f  114//85 115//85 113//85
f  117//86 116//86 118//86
f  116//86 117//86 115//87
f  119//88 118//88 120//88
f  118//88 119//88 117//89
f  121//90 120//90 122//90
f  120//90 121//90 119//91
f  123//92 122//92 124//92
f  122//92 123//92 121//93
f  125//94 124//94 126//94
f  124//94 125//94 123//95
f  127//96 125//96 126//96
f  125//96 127//96 128//97
f  129//98 128//98 127//98
f  128//98 129//98 130//98
f  131//99 130//99 129//99
f  130//99 131//99 132//99
f  133//100 132//100 131//100
f  132//100 133//100 134//101
f  135//102 134//102 133//102
f  134//102 135//102 136//103
f  2//104 135//104 3//104
f  135//104 2//104 136//105
f  134//106 2//106 132//106
f  2//106 134//106 136//106
f  128//106 123//106 125//106
f  123//106 128//106 121//106
f  121//106 128//106 119//106
f  119//106 128//106 117//106
f  117//106 128//106 130//106
f  117//106 130//106 115//106
f  115//106 130//106 113//106
f  113//106 130//106 111//106
f  111//106 130//106 109//106
f  109//106 130//106 107//106
f  107//106 130//106 105//106
f  105//106 130//106 103//106
f  103//106 130//106 101//106
f  101//106 130//106 99//106
f  99//106 130//106 97//106
f  97//106 130//106 95//106
f  95//106 130//106 93//106
f  93//106 130//106 91//106
f  91//106 130//106 89//106
f  89//106 130//106 87//106
f  87//106 130//106 132//106
f  87//106 132//106 85//106
f  85//106 132//106 83//106
f  83//106 132//106 81//106
f  81//106 132//106 79//106
f  79//106 132//106 77//106
f  77//106 132//106 75//106
f  75//106 132//106 73//106
f  73//106 132//106 71//106
f  71//106 132//106 2//106
f  71//106 2//106 4//106
f  71//106 4//106 69//106
f  69//106 4//106 67//106
f  67//106 4//106 65//106
f  56//106 51//106 53//106
f  51//106 56//106 49//106
f  49//106 56//106 47//106
f  47//106 56//106 45//106
f  45//106 56//106 43//106
f  43//106 56//106 58//106
f  43//106 58//106 60//106
f  43//106 60//106 62//106
f  43//106 62//106 64//106
f  43//106 64//106 65//106
f  43//106 65//106 4//106
f  43//106 4//106 6//106
f  43//106 6//106 41//106
f  41//106 6//106 8//106
f  41//106 8//106 10//106
f  41//106 10//106 12//106
f  41//106 12//106 14//106
f  41//106 14//106 16//106
f  41//106 16//106 18//106
f  41//106 18//106 20//106
f  41//106 20//106 22//106
f  41//106 22//106 24//106
f  41//106 24//106 26//106
f  41//106 26//106 28//106
f  41//106 28//106 30//106
f  41//106 30//106 32//106
f  41//106 32//106 34//106
f  41//106 34//106 36//106
f  41//106 36//106 38//106
f  41//106 38//106 40//106
f  52//107 55//107 54//107
f  55//107 52//107 57//108
f  57//108 52//107 19//109
f  19//109 52//107 21//110
f  21//110 52//107 50//111
f  21//110 50//111 23//112
f  23//112 50//111 48//113
f  23//112 48//113 46//114
f  23//112 46//114 25//115
f  25//115 46//114 27//116
f  27//116 46//114 44//117
f  27//116 44//117 29//118
f  29//118 44//117 31//119
f  31//119 44//117 33//120
f  33//120 44//117 35//121
f  35//121 44//117 42//122
f  35//121 42//122 37//123
f  37//123 42//122 39//124
f  88//125 3//125 90//125
f  3//125 88//125 1//126
f  1//126 88//125 86//127
f  1//126 86//127 5//128
f  5//128 86//127 84//129
f  5//128 84//129 7//130
f  7//130 84//129 82//131
f  7//130 82//131 9//132
f  9//132 82//131 80//127
f  9//132 80//127 78//133
f  9//132 78//133 11//134
f  11//134 78//133 76//135
f  11//134 76//135 13//136
f  13//136 76//135 74//137
f  13//136 74//137 72//138
f  13//136 72//138 15//139
f  15//139 72//138 70//140
f  15//139 70//140 68//141
f  15//139 68//141 17//142
f  17//142 68//141 66//143
f  17//142 66//143 63//144
f  17//142 63//144 19//109
f  19//109 63//144 61//145
f  19//109 61//145 59//146
f  19//109 59//146 57//108
f  124//147 127//147 126//147
f  127//147 124//147 122//148
f  127//147 122//148 120//149
f  127//147 120//149 118//150
f  127//147 118//150 129//151
f  129//151 118//150 116//152
f  129//151 116//152 114//153
f  129//151 114//153 112//154
f  129//151 112//154 110//155
f  129//151 110//155 108//156
f  129//151 108//156 106//157
f  129//151 106//157 104//158
f  129//151 104//158 102//159
f  129//151 102//159 131//160
f  131//160 102//159 100//161
f  131//160 100//161 98//162
f  131//160 98//162 96//163
f  131//160 96//163 94//164
f  131//160 94//164 92//165
f  131//160 92//165 3//125
f  131//160 3//125 133//166
f  3//125 92//165 90//125
f  133//166 3//125 135//167

