# {"id":"BLDG_0003000e000d0ea8","idOriginal":"BLDG_0003000e000d0ea8","origin":[13.338472656503145,52.51617415579769],"elevation":34.3499984741211}
# Longitude: 13.338472656503145
# Latitude: 52.51617415579769
# Elevation: 34.3499984741211

# File produced by Open Asset Import Library (http://www.assimp.sf.net)
# (assimp v3.1.0)

mtllib BLDG_0003000e000d0ea8.obj.mtl

# 32 vertex positions
v  0 0 0
v  57.0952 6.45138e-17 -1.05359
v  3.12172 -7.63229e-16 12.4645
v  7.57647 1.16198e-16 -1.89765
v  8.32828 1.27691e-16 -2.08536
v  9.92759 1.52231e-16 -2.48612
v  10.6791 1.63781e-16 -2.67475
v  24.5633 3.76708e-16 -6.15211
v  25.2578 3.87353e-16 -6.32595
v  26.8583 4.11891e-16 -6.72669
v  27.5525 4.22518e-16 -6.90023
v  41.2036 6.31885e-16 -10.3195
v  41.8686 6.4206e-16 -10.4856
v  44.1333 6.76774e-16 -11.0526
v  53.9744 8.27685e-16 -13.5171
v  43.4682 6.66599e-16 -10.8864
v  3.12199 12.7883 12.4641
v  0.000272123 12.7883 -0.000404309
v  57.0955 12.7883 -1.05399
v  53.9747 12.7883 -13.5175
v  44.1336 12.7883 -11.053
v  43.4685 12.7883 -10.8868
v  41.8689 12.7883 -10.486
v  41.2039 12.7883 -10.3199
v  27.5527 12.7883 -6.90064
v  26.8586 12.7883 -6.72709
v  25.258 12.7883 -6.32636
v  24.5635 12.7883 -6.15251
v  10.6794 12.7883 -2.67515
v  9.92786 12.7883 -2.48652
v  8.32855 12.7883 -2.08576
v  7.57674 12.7883 -1.89805

# 0 UV coordinates

# 43 vertex normals
vn 0 -1 -6.12323e-17
vn -6.59343e-26 -1 -6.12323e-17
vn 6.6643e-25 -1 -6.12324e-17
vn 0 -1 -6.12323e-17
vn -2.65394e-24 -1 -6.12323e-17
vn 2.8785e-25 -1 -6.12323e-17
vn -1.15131e-23 -1 -6.12322e-17
vn 0 -1 -6.12323e-17
vn 0 -1 -6.12324e-17
vn 0 -1 -6.12323e-17
vn -9.62218e-23 -1 -6.12322e-17
vn 0 -1 -6.12323e-17
vn -3.84652e-20 -1 -6.13858e-17
vn -0.97004 2.83348e-05 0.242946
vn -0.97004 2.83224e-05 0.242946
vn 0.242953 2.55618e-05 0.970038
vn 0.242953 2.5476e-05 0.970038
vn 0.970052 -2.85102e-05 -0.242897
vn 0.970052 -2.82316e-05 -0.242897
vn -0.242933 -2.55271e-05 -0.970043
vn -0.24241 -2.547e-05 -0.970174
vn -0.242411 -2.55423e-05 -0.970174
vn -0.243019 -2.55246e-05 -0.970021
vn -0.243018 -2.54521e-05 -0.970022
vn -0.24241 -2.55423e-05 -0.970174
vn -0.242967 -2.54899e-05 -0.970035
vn -0.242967 -2.55261e-05 -0.970035
vn -0.242543 -2.55384e-05 -0.970141
vn -0.242542 -2.55023e-05 -0.970141
vn -0.242879 -2.54924e-05 -0.970057
vn -0.242879 -2.55286e-05 -0.970057
vn -0.242833 -2.54938e-05 -0.970068
vn -0.242951 -2.55084e-05 -0.970039
vn -0.242951 -2.54903e-05 -0.970039
vn -0.243445 -2.54759e-05 -0.969915
vn -0.243445 -2.5494e-05 -0.969915
vn -0.243067 -2.55051e-05 -0.97001
vn -0.243066 -2.54869e-05 -0.97001
vn -0.24224 -2.55111e-05 -0.970216
vn -0.24224 -2.55292e-05 -0.970216
vn -0.242961 -2.54983e-05 -0.970036
vn -0.242961 -2.549e-05 -0.970036
vn 0 1 0

# Mesh 'defaultobject' with 60 faces
g defaultobject
usemtl DefaultMaterial
f  1//1 2//1 3//1
f  2//1 1//1 4//2
f  2//1 4//2 5//3
f  2//1 5//3 6//4
f  2//1 6//4 7//5
f  2//1 7//5 8//6
f  2//1 8//6 9//7
f  2//1 9//7 10//8
f  2//1 10//8 11//9
f  2//1 11//9 12//10
f  2//1 12//10 13//11
f  2//1 13//11 14//8
f  2//1 14//8 15//12
f  14//8 13//11 16//13
f  17//14 1//14 3//14
f  1//14 17//14 18//15
f  2//16 17//16 3//16
f  17//16 2//16 19//17
f  15//18 19//18 2//18
f  19//18 15//18 20//19
f  21//20 15//20 14//20
f  15//20 21//20 20//20
f  22//21 14//21 16//21
f  14//21 22//21 21//22
f  23//23 16//23 13//23
f  16//23 23//23 22//24
f  24//25 13//25 12//25
f  13//25 24//25 23//25
f  25//26 12//26 11//26
f  12//26 25//26 24//27
f  26//28 11//28 10//28
f  11//28 26//28 25//29
f  27//30 10//30 9//30
f  10//30 27//30 26//31
f  28//32 9//32 8//32
f  9//32 28//32 27//32
f  29//33 8//33 7//33
f  8//33 29//33 28//34
f  30//35 7//35 6//35
f  7//35 30//35 29//36
f  31//37 6//37 5//37
f  6//37 31//37 30//38
f  32//39 5//39 4//39
f  5//39 32//39 31//40
f  18//41 4//41 1//41
f  4//41 18//41 32//42
f  29//43 27//43 28//43
f  27//43 29//43 30//43
f  27//43 30//43 26//43
f  26//43 30//43 25//43
f  25//43 30//43 31//43
f  25//43 31//43 23//43
f  18//43 31//43 32//43
f  31//43 18//43 17//43
f  31//43 17//43 21//43
f  21//43 17//43 20//43
f  20//43 17//43 19//43
f  23//43 21//43 22//43
f  21//43 23//43 31//43
f  23//43 24//43 25//43

