# {"id":"BLDG_000300080032a2cc","idOriginal":"BLDG_000300080032a2cc","origin":[13.330998475048538,52.541593986730476],"elevation":34.5299987792969}
# Longitude: 13.330998475048538
# Latitude: 52.541593986730476
# Elevation: 34.5299987792969

# File produced by Open Asset Import Library (http://www.assimp.sf.net)
# (assimp v3.1.0)

mtllib BLDG_000300080032a2cc.obj.mtl

# 12 vertex positions
v  0.000153389 7.21138 -0.00022838
v  5.58352 9.49785 14.751
v  3.99 9.49785 -0.424983
v  1.59367 7.21138 15.1758
v  9.57327 7.21138 14.3264
v  7.97976 7.21138 -0.849592
v  5.58332 -9.03258e-16 14.7513
v  7.9796 5.20085e-17 -0.849364
v  9.57312 -8.77254e-16 14.3266
v  1.59352 -9.29262e-16 15.176
v  0 0 0
v  3.9898 2.60043e-17 -0.424682

# 0 UV coordinates

# 19 vertex normals
vn -0.4924 0.868832 0.0517031
vn -0.4924 0.868832 0.0517031
vn 0.49241 0.868826 -0.0517042
vn 0.49241 0.868826 -0.0517042
vn -6.91727e-24 -1 -6.12323e-17
vn -2.76691e-23 -1 -6.12323e-17
vn 4.32329e-25 -1 -6.12323e-17
vn 0 1 5.55112e-17
vn 0.105844 2.91756e-05 0.994383
vn 0.105844 2.93136e-05 0.994383
vn 0.105844 2.91791e-05 0.994383
vn 0.105844 2.94706e-05 0.994383
vn -0.105844 -2.92401e-05 -0.994383
vn -0.105844 -2.92477e-05 -0.994383
vn -0.105844 -2.92414e-05 -0.994383
vn -0.105844 -2.92367e-05 -0.994383
vn -0.994532 2.44429e-05 0.104428
vn -0.994532 2.44613e-05 0.104428
vn 0.994532 -2.44742e-05 -0.104428

# Mesh 'defaultobject' with 20 faces
g defaultobject
usemtl DefaultMaterial
f  1//1 2//1 3//1
f  2//1 1//1 4//2
f  3//3 5//3 6//3
f  5//3 3//3 2//4
f  7//5 8//5 9//5
f  8//5 7//5 10//6
f  8//5 10//6 11//7
f  8//8 11//8 12//8
f  5//9 7//9 9//9
f  7//9 5//9 10//10
f  10//10 5//9 4//11
f  4//11 5//9 2//12
f  1//13 12//13 11//13
f  12//13 1//13 8//14
f  8//14 1//13 6//15
f  6//15 1//13 3//16
f  4//17 11//17 10//17
f  11//17 4//17 1//18
f  8//19 5//19 9//19
f  5//19 8//19 6//19

