# {"id":"BLDG_0003000f000ede09","idOriginal":"BLDG_0003000f000ede09","origin":[13.390329526938112,52.556888718565126],"elevation":41.6300010681152}
# Longitude: 13.390329526938112
# Latitude: 52.556888718565126
# Elevation: 41.6300010681152

# File produced by Open Asset Import Library (http://www.assimp.sf.net)
# (assimp v3.1.0)

mtllib BLDG_0003000f000ede09.obj.mtl

# 8 vertex positions
v  0.000299262 14.0157 -0.00044428
v  25.2568 15.3687 5.67141
v  2.69941 15.3687 -5.52884
v  22.5577 14.0157 11.1998
v  25.2565 -3.47304e-16 5.6719
v  2.69908 3.38514e-16 -5.52836
v  22.5574 -6.85818e-16 11.2003
v  0 0 0

# 0 UV coordinates

# 9 vertex normals
vn -0.0955225 0.97666 0.192383
vn 0.44472 -3.78732e-05 -0.895669
vn 0.44472 -3.78663e-05 -0.895669
vn 0.898619 -5.28681e-06 0.438729
vn 0.898619 -5.28537e-06 0.438729
vn -0.44472 3.79109e-05 0.895669
vn -0.898619 5.2801e-06 -0.438729
vn -0.898619 5.29801e-06 -0.438729
vn 0 -1 -6.12323e-17

# Mesh 'defaultobject' with 12 faces
g defaultobject
usemtl DefaultMaterial
f  1//1 2//1 3//1
f  2//1 1//1 4//1
f  3//2 5//2 6//2
f  5//2 3//2 2//3
f  5//4 4//4 7//4
f  4//4 5//4 2//5
f  7//6 1//6 8//6
f  1//6 7//6 4//6
f  1//7 6//7 8//7
f  6//7 1//7 3//8
f  5//9 8//9 6//9
f  8//9 5//9 7//9

