# {"id":"BLDG_00030000001ae791","idOriginal":"BLDG_00030000001ae791","origin":[13.345043047874862,52.54888646238734],"elevation":34.9000015258789}
# Longitude: 13.345043047874862
# Latitude: 52.54888646238734
# Elevation: 34.9000015258789

# File produced by Open Asset Import Library (http://www.assimp.sf.net)
# (assimp v3.1.0)

mtllib BLDG_00030000001ae791.obj.mtl

# 14 vertex positions
v  3.56056 2.72242 3.48142
v  15.7366 2.72242 -16.3723
v  5.796e-05 2.72242 -8.626e-05
v  4.82432 2.72242 2.17653
v  16.2551 2.72242 -9.62399
v  22.8414 2.72242 -9.45965
v  19.8043 2.72242 -6.22165
v  0 0 0
v  4.82426 -1.33279e-16 2.17662
v  3.5605 -2.13181e-16 3.48151
v  15.7365 1.00251e-15 -16.3722
v  16.255 5.89294e-16 -9.6239
v  22.8414 5.79231e-16 -9.45957
v  19.8042 3.80961e-16 -6.22157

# 0 UV coordinates

# 19 vertex normals
vn 0 1 0
vn 0 -1 -6.12323e-17
vn 3.74011e-24 -1 -6.12323e-17
vn 4.02759e-24 -1 -6.12324e-17
vn 3.33513e-24 -1 -6.12323e-17
vn -0.699131 3.75453e-05 0.714994
vn -0.699131 3.7539e-05 0.714994
vn 0.718337 6.77354e-06 0.695696
vn 0.718337 6.72533e-06 0.695696
vn 0.71827 6.48194e-06 0.695764
vn 0.71827 7.16425e-06 0.695764
vn -0.692014 3.74304e-05 0.721884
vn -0.692014 3.75569e-05 0.721884
vn 0.729362 6.3914e-06 0.684128
vn 0.729362 5.68125e-06 0.684128
vn 0.697346 -3.77415e-05 -0.716735
vn 0.697346 -3.80242e-05 -0.716735
vn -0.720965 -6.60758e-06 -0.692971
vn -0.720965 -6.92708e-06 -0.692971

# Mesh 'defaultobject' with 24 faces
g defaultobject
usemtl DefaultMaterial
f  1//1 2//1 3//1
f  2//1 1//1 4//1
f  2//1 4//1 5//1
f  2//1 5//1 6//1
f  6//1 5//1 7//1
f  8//2 9//2 10//2
f  9//2 8//2 11//3
f  9//2 11//3 12//2
f  12//2 11//3 13//4
f  13//4 14//5 12//2
f  1//6 8//6 10//6
f  8//6 1//6 3//7
f  9//8 1//8 10//8
f  1//8 9//8 4//9
f  12//10 4//10 9//10
f  4//10 12//10 5//11
f  7//12 12//12 14//12
f  12//12 7//12 5//13
f  13//14 7//14 14//14
f  7//14 13//14 6//15
f  11//16 6//16 13//16
f  6//16 11//16 2//17
f  3//18 11//18 8//18
f  11//18 3//18 2//19

