# {"id":"BLDG_00030000001c683a","idOriginal":"BLDG_00030000001c683a","origin":[13.359510184152805,52.54827633855329],"elevation":36.1500015258789}
# Longitude: 13.359510184152805
# Latitude: 52.54827633855329
# Elevation: 36.1500015258789

# File produced by Open Asset Import Library (http://www.assimp.sf.net)
# (assimp v3.1.0)

mtllib BLDG_00030000001c683a.obj.mtl

# 26 vertex positions
v  12.0275 22.75 11.4731
v  7.99906 22.1 7.63001
v  15.42 19.11 14.7098
v  12.027 -7.02569e-16 11.4738
v  15.4196 -9.0075e-16 14.7104
v  7.99859 -4.67246e-16 7.63071
v  5.64042 -3.29491e-16 5.381
v  0 0 0
v  0.000478469 22.4533 -0.00071136
v  5.6409 22.4533 5.38029
v  27.2811 19.11 2.56937
v  19.8804 22.1 -4.5308
v  23.8975 22.75 -0.676924
v  17.5284 19.11 -6.78711
v  17.528 4.15554e-16 -6.78651
v  27.2807 -1.57366e-16 2.56998
v  19.88 2.77389e-16 -4.5301
v  23.8971 4.14055e-17 -0.676204
v  19.6331 -6.36673e-16 10.3977
v  19.6335 19.11 10.3971
v  9.85433 19.11 1.06768
v  9.85393 -6.54138e-17 1.06829
v  4.1745 2.66356e-16 -4.34992
v  4.17491 19.11 -4.35053
v  12.2126 22.1 3.3173
v  16.241 22.75 7.16039

# 0 UV coordinates

# 42 vertex normals
vn -0.690272 3.74294e-05 0.72355
vn -0.690272 3.7638e-05 0.72355
vn -0.690272 3.76017e-05 0.72355
vn -0.690272 3.76064e-05 0.72355
vn -0.690272 3.76933e-05 0.72355
vn -0.690272 3.76326e-05 0.72355
vn -0.690272 3.73936e-05 0.72355
vn 0.692298 -3.78016e-05 -0.721611
vn 0.692299 -3.76654e-05 -0.721611
vn 0.692298 -3.75852e-05 -0.721611
vn 0.692298 -3.75453e-05 -0.721611
vn 3.70074e-17 -1 -1.11022e-16
vn 2.77556e-17 1 0
vn 0.715286 6.93031e-06 0.698832
vn 0.715286 6.82018e-06 0.698832
vn 0.715286 6.90333e-06 0.698832
vn 0 1 0
vn -0.715286 -6.89898e-06 -0.698832
vn -0.715286 -6.93903e-06 -0.698832
vn -0.721505 -6.5618e-06 -0.692409
vn -0.721505 -6.56728e-06 -0.692409
vn 0.690272 -3.76379e-05 -0.72355
vn -0.483542 0.736878 -0.472438
vn -0.483571 0.736854 -0.472446
vn -0.48357 0.736854 -0.472446
vn -0.0829615 0.993252 -0.0810481
vn -0.0829491 0.993253 -0.0810443
vn -0.0829508 0.993253 -0.0810426
vn -0.0829508 0.993253 -0.0810426
vn 0.438628 0.789912 0.428538
vn 0.43866 0.789891 0.428543
vn 0.438647 0.789891 0.428556
vn 0.438647 0.789891 0.428557
vn 0.401008 0.871094 -0.283527
vn 0.334766 0.874527 -0.350906
vn 8.25383e-24 -1 -6.12323e-17
vn 2.99618e-23 -1 -6.12323e-17
vn -1.0636e-23 -1 -6.12323e-17
vn -8.9491e-24 -1 -6.12324e-17
vn 0 -1 -6.12324e-17
vn 0 -1 -6.12323e-17
vn 4.50565e-24 -1 -6.12323e-17

# Mesh 'defaultobject' with 48 faces
g defaultobject
usemtl DefaultMaterial
f  1//1 2//1 3//1
f  3//1 4//2 5//2
f  4//2 3//1 6//3
f  6//3 3//1 7//4
f  7//4 3//1 8//5
f  8//5 3//1 9//6
f  9//6 3//1 2//1
f  9//6 2//1 10//7
f  11//8 12//8 13//8
f  12//8 11//8 14//9
f  14//9 11//8 15//10
f  15//10 11//8 16//11
f  15//12 16//12 17//12
f  17//13 16//13 18//13
f  11//14 19//14 16//14
f  19//14 11//14 5//15
f  5//15 11//14 3//16
f  3//17 11//17 20//17
f  21//18 15//18 22//18
f  15//18 21//18 14//19
f  9//20 23//20 8//20
f  23//20 9//20 24//21
f  23//22 21//22 22//22
f  21//22 23//22 24//22
f  14//23 25//23 12//23
f  25//24 14//24 21//24
f  25//24 21//24 2//25
f  12//26 26//26 13//26
f  26//27 12//27 25//27
f  26//27 25//27 1//28
f  1//28 25//27 2//29
f  13//30 20//30 11//30
f  20//31 13//31 26//31
f  20//32 26//32 3//32
f  3//32 26//32 1//33
f  2//34 21//34 10//34
f  24//35 10//35 21//35
f  10//35 24//35 9//35
f  19//36 18//36 16//12
f  18//36 19//36 5//37
f  18//36 5//37 4//38
f  18//36 4//38 17//12
f  17//12 4//38 6//39
f  17//12 6//39 15//12
f  15//12 6//39 7//40
f  15//10 7//40 22//18
f  22//41 7//40 23//41
f  23//41 7//40 8//42

