# {"id":"BLDG_0003000a0024f553","idOriginal":"BLDG_0003000a0024f553","origin":[13.314817649053628,52.55430042053361],"elevation":34.7000007629395}
# Longitude: 13.314817649053628
# Latitude: 52.55430042053361
# Elevation: 34.7000007629395

# File produced by Open Asset Import Library (http://www.assimp.sf.net)
# (assimp v3.1.0)

mtllib BLDG_0003000a0024f553.obj.mtl

# 12 vertex positions
v  6.22018 3.27029 6.48685
v  0 0 0
v  6.22011 -3.97212e-16 6.48696
v  6.9491e-05 3.27029 -0.00010366
v  9.83687 -1.84985e-16 3.02104
v  9.83694 3.27029 3.02094
v  5.69203 8.13554e-17 -1.32863
v  5.6921 3.27029 -1.32874
v  9.27779 2.91039e-16 -4.75303
v  9.27786 3.27029 -4.75313
v  7.20902 4.23192e-16 -6.91124
v  7.20909 3.27029 -6.91135

# 0 UV coordinates

# 15 vertex normals
vn -0.721797 3.72643e-05 0.692105
vn -0.721797 3.72756e-05 0.692105
vn 0.69189 8.09185e-06 0.722003
vn 0.723947 -3.73727e-05 -0.689855
vn 0.690647 8.23407e-06 0.723192
vn 0.690647 8.29288e-06 0.723192
vn 0.721908 -3.73594e-05 -0.691989
vn 0.721908 -3.72619e-05 -0.691989
vn -0.692041 -8.17579e-06 -0.721858
vn -0.692041 -8.10775e-06 -0.721858
vn 0 1 0
vn -2.35182e-24 -1 -6.12323e-17
vn 8.74587e-25 -1 -6.12323e-17
vn 0 -1 -6.12323e-17
vn 1.07143e-23 -1 -6.12323e-17

# Mesh 'defaultobject' with 20 faces
g defaultobject
usemtl DefaultMaterial
f  1//1 2//1 3//1
f  2//1 1//1 4//2
f  5//3 1//3 3//3
f  1//3 5//3 6//3
f  7//4 6//4 5//4
f  6//4 7//4 8//4
f  9//5 8//5 7//5
f  8//5 9//5 10//6
f  11//7 10//7 9//7
f  10//7 11//7 12//8
f  4//9 11//9 2//9
f  11//9 4//9 12//10
f  4//11 8//11 12//11
f  8//11 4//11 1//11
f  8//11 1//11 6//11
f  10//11 12//11 8//11
f  3//12 2//12 5//12
f  7//13 5//12 2//12
f  11//14 7//13 2//12
f  9//15 7//13 11//14

