# {"id":"BLDG_0003000e003a5dc1","idOriginal":"BLDG_0003000e003a5dc1","origin":[13.361040951131166,52.53261235573302],"elevation":34.4199981689453}
# Longitude: 13.361040951131166
# Latitude: 52.53261235573302
# Elevation: 34.4199981689453

# File produced by Open Asset Import Library (http://www.assimp.sf.net)
# (assimp v3.1.0)

mtllib BLDG_0003000e003a5dc1.obj.mtl

# 8 vertex positions
v  6.2948e-05 2.95382 -9.34796e-05
v  12.5619 2.95382 -0.284104
v  2.58946 2.95382 -5.28549
v  9.89862 2.95382 5.0359
v  9.89856 -3.08365e-16 5.03599
v  0 0 0
v  12.5619 1.73906e-17 -0.28401
v  2.5894 3.23637e-16 -5.2854

# 0 UV coordinates

# 9 vertex normals
vn 0 1 0
vn -0.453449 3.79085e-05 0.891282
vn 0.894206 -4.93836e-06 0.447656
vn 0.448301 -3.78355e-05 -0.893883
vn 0.4483 -3.78446e-05 -0.893883
vn -0.89802 5.21421e-06 -0.439954
vn -0.89802 5.21545e-06 -0.439954
vn 0 -1 -6.12323e-17
vn 0 -1 -6.12323e-17

# Mesh 'defaultobject' with 12 faces
g defaultobject
usemtl DefaultMaterial
f  1//1 2//1 3//1
f  2//1 1//1 4//1
f  5//2 1//2 6//2
f  1//2 5//2 4//2
f  7//3 4//3 5//3
f  4//3 7//3 2//3
f  3//4 7//4 8//4
f  7//4 3//4 2//5
f  1//6 8//6 6//6
f  8//6 1//6 3//7
f  6//8 7//8 5//8
f  7//8 6//8 8//9

