# {"id":"BLDG_0003000b00285db1","idOriginal":"BLDG_0003000b00285db1","origin":[13.35160121551799,52.53590728625029],"elevation":35.7999992370605}
# Longitude: 13.35160121551799
# Latitude: 52.53590728625029
# Elevation: 35.7999992370605

# File produced by Open Asset Import Library (http://www.assimp.sf.net)
# (assimp v3.1.0)

mtllib BLDG_0003000b00285db1.obj.mtl

# 40 vertex positions
v  39.7124 4.56332 6.11457
v  29.3368 4.56332 18.0728
v  41.2596 4.56332 16.2381
v  27.6968 4.56332 7.58503
v  28.3378 4.56332 11.7467
v  29.73 5.6227 20.5628
v  41.2596 5.6227 16.238
v  29.3368 5.6227 18.0727
v  41.6082 5.6227 18.5191
v  22.3506 3.92576 8.51107
v  0.000102567 3.92576 -0.00015245
v  1.82851 3.92576 11.9032
v  27.6968 3.92576 7.58505
v  39.7124 3.92576 6.11459
v  38.4251 3.92576 -2.02086
v  43.192 3.92576 -2.81326
v  28.5908 3.92576 -4.69681
v  38.7921 3.92576 -6.39281
v  42.5267 3.92576 -7.01383
v  37.7598 3.92576 -6.22143
v  22.3505 -0.889999 8.51122
v  1.8284 -0.889999 11.9034
v  27.6967 -0.889999 7.5852
v  39.7123 -0.889999 6.11475
v  39.7123 -3.74419e-16 6.11472
v  41.2595 -9.94303e-16 16.2382
v  27.6967 -4.64458e-16 7.58517
v  28.3377 -7.19286e-16 11.7468
v  29.3367 -1.10665e-15 18.0729
v  29.3367 -0.0400009 18.0729
v  29.7299 -0.0400009 20.5629
v  41.6081 -0.0400009 18.5192
v  41.2595 -0.0400009 16.2382
v  38.425 -0.889999 -2.0207
v  43.1919 -0.889999 -2.81311
v  42.5266 -0.889999 -7.01368
v  38.792 -0.889999 -6.39266
v  37.7597 -0.889999 -6.22127
v  28.5907 -0.889999 -4.69666
v  0 -0.889999 -5.44967e-17

# 0 UV coordinates

# 40 vertex normals
vn 0 1 -0
vn 0.163081 2.77999e-05 0.986613
vn 0.163081 2.76476e-05 0.986613
vn 0.17067 2.74465e-05 0.985328
vn 0.17067 2.7556e-05 0.985328
vn 0.121472 2.88575e-05 0.992595
vn 0.121472 2.87593e-05 0.992595
vn 0.988522 -2.62024e-05 -0.151075
vn 0.988522 -2.54677e-05 -0.151075
vn -0.121472 -2.8734e-05 -0.992595
vn -0.121472 -2.88885e-05 -0.992595
vn -0.988346 2.5872e-05 0.152223
vn -0.98776 2.60107e-05 0.155982
vn -0.98776 2.59781e-05 0.155982
vn 0.152092 2.81348e-05 0.988366
vn 0.152092 2.76497e-05 0.988366
vn -0.98776 2.5899e-05 0.155982
vn 0.169563 2.76106e-05 0.985519
vn 0.169563 2.76665e-05 0.985519
vn 0.988522 -2.5426e-05 -0.151075
vn 0.988522 -2.6092e-05 -0.151074
vn -0.152092 -2.8066e-05 -0.988366
vn -0.152092 -2.80147e-05 -0.988366
vn 0.98771 -2.60623e-05 -0.156295
vn 0.163979 2.77028e-05 0.986464
vn 0.98769 -2.6064e-05 -0.156423
vn 0.98769 -2.60873e-05 -0.156423
vn -0.164032 -2.77477e-05 -0.986455
vn -0.163788 -2.76565e-05 -0.986496
vn -0.163789 -2.77542e-05 -0.986495
vn -0.164028 -2.77478e-05 -0.986456
vn -0.164028 -2.76501e-05 -0.986456
vn -0.162099 -2.77854e-05 -0.986774
vn -0.162099 -2.77991e-05 -0.986774
vn -0.988408 2.58522e-05 0.151823
vn -0.988408 2.58575e-05 0.151823
vn 3.4178e-24 -1 -6.12323e-17
vn 0 -1 -6.12323e-17
vn 2.06431e-21 -1 -6.12326e-17
vn 0 -1 0

# Mesh 'defaultobject' with 68 faces
g defaultobject
usemtl DefaultMaterial
f  1//1 2//1 3//1
f  2//1 1//1 4//1
f  2//1 4//1 5//1
f  6//1 7//1 8//1
f  7//1 6//1 9//1
f  10//1 11//1 12//1
f  11//1 10//1 13//1
f  11//1 13//1 14//1
f  11//1 14//1 15//1
f  11//1 15//1 16//1
f  11//1 16//1 17//1
f  17//1 16//1 18//1
f  18//1 16//1 19//1
f  17//1 18//1 20//1
f  21//2 12//2 22//2
f  12//2 21//2 10//3
f  23//4 10//4 21//4
f  10//4 23//4 13//5
f  24//6 13//6 23//6
f  13//6 24//6 14//7
f  25//8 3//8 26//8
f  3//8 25//8 1//9
f  4//10 25//10 27//10
f  25//10 4//10 1//11
f  5//12 27//12 28//12
f  27//12 5//12 4//12
f  2//13 28//13 29//13
f  28//13 2//13 5//14
f  26//15 2//15 29//15
f  2//15 26//15 3//16
f  6//17 30//17 31//17
f  30//17 6//17 8//17
f  32//18 6//18 31//18
f  6//18 32//18 9//19
f  33//20 9//20 32//20
f  9//20 33//20 7//21
f  8//22 33//22 30//22
f  33//22 8//22 7//23
f  34//24 14//24 24//24
f  14//24 34//24 15//24
f  35//25 15//25 34//25
f  15//25 35//25 16//25
f  36//26 16//26 35//26
f  16//26 36//26 19//27
f  18//28 36//28 37//28
f  36//28 18//28 19//28
f  20//29 37//29 38//29
f  37//29 20//29 18//30
f  17//31 38//31 39//31
f  38//31 17//31 20//32
f  11//33 39//33 40//33
f  39//33 11//33 17//34
f  12//35 40//35 22//35
f  40//35 12//35 11//36
f  26//37 27//37 25//37
f  27//37 26//37 29//38
f  27//37 29//38 28//39
f  30//40 32//40 31//40
f  32//40 30//40 33//40
f  35//40 37//40 36//40
f  37//40 35//40 34//40
f  37//40 34//40 38//40
f  38//40 34//40 39//40
f  39//40 34//40 24//40
f  39//40 24//40 23//40
f  39//40 23//40 40//40
f  40//40 23//40 21//40
f  40//40 21//40 22//40

