# {"id":"BLDG_0003000b0011ad7e","idOriginal":"BLDG_0003000b0011ad7e","origin":[13.33138403665572,52.52958442728187],"elevation":34.1399993896484}
# Longitude: 13.33138403665572
# Latitude: 52.52958442728187
# Elevation: 34.1399993896484

# File produced by Open Asset Import Library (http://www.assimp.sf.net)
# (assimp v3.1.0)

mtllib BLDG_0003000b0011ad7e.obj.mtl

# 22 vertex positions
v  11.7264 -0.00999832 -5.68771
v  10.4124 16.4579 1.85335
v  10.412 -0.00999832 1.85387
v  11.7267 16.4579 -5.68823
v  1.27343 16.4579 -7.28699
v  1.27308 -0.00999832 -7.28647
v  0.000350277 16.4579 -0.0005211
v  0 -0.00999832 -6.12221e-19
v  11.7264 3.48272e-16 -5.68771
v  1.2735 19.7427 -7.28709
v  1.27308 4.46167e-16 -7.28647
v  11.7268 19.7427 -5.68833
v  12.5135 3.39881e-16 -5.55067
v  12.5139 19.7427 -5.55129
v  12.9986 5.10286e-16 -8.3336
v  12.999 19.7427 -8.33422
v  12.2115 19.7427 -8.47065
v  12.2111 5.1864e-16 -8.47003
v  13.5032 9.72494e-16 -15.882
v  13.5036 19.7427 -15.8827
v  3.09717 19.7427 -17.7248
v  3.09675 1.08529e-15 -17.7242

# 0 UV coordinates

# 28 vertex normals
vn 0.98515 -1.55609e-05 0.171695
vn 0.98515 -1.5508e-05 0.171695
vn 0.151185 -3.45e-05 -0.988505
vn 0.151185 -3.44978e-05 -0.988505
vn -0.985077 1.55067e-05 -0.172112
vn -0.985077 1.55034e-05 -0.172112
vn -0.151185 3.44878e-05 0.988505
vn -0.171518 3.48164e-05 0.985181
vn -0.171517 3.48249e-05 0.985181
vn 0.985148 -1.55524e-05 0.171706
vn 0.985148 -1.55053e-05 0.171706
vn 0.170716 -3.48121e-05 -0.98532
vn 0.170717 -3.48039e-05 -0.98532
vn 0.985144 -1.55565e-05 0.171732
vn 0.985144 -1.55051e-05 0.171732
vn 0.174312 -3.491e-05 -0.98469
vn 0.174312 -3.48604e-05 -0.98469
vn -0.985077 1.55034e-05 -0.172112
vn -0.985077 1.54951e-05 -0.172112
vn -0.175294 3.4881e-05 0.984516
vn -0.175294 3.48919e-05 0.984516
vn 0 1 0
vn 1.24608e-23 -1 -6.12323e-17
vn 4.45737e-25 -1 -6.12323e-17
vn 9.21246e-24 -1 -6.12322e-17
vn -1.33108e-24 -1 -6.12323e-17
vn -1.60739e-23 -1 -6.12324e-17
vn 0 -1 0

# Mesh 'defaultobject' with 36 faces
g defaultobject
usemtl DefaultMaterial
f  1//1 2//1 3//1
f  2//1 1//1 4//2
f  5//3 1//3 6//3
f  1//3 5//3 4//4
f  7//5 6//5 8//5
f  6//5 7//5 5//6
f  9//7 10//7 11//7
f  10//7 9//7 12//7
f  13//8 12//8 9//8
f  12//8 13//8 14//9
f  15//10 14//10 13//10
f  14//10 15//10 16//11
f  17//12 15//12 18//12
f  15//12 17//12 16//13
f  19//14 17//14 18//14
f  17//14 19//14 20//15
f  21//16 19//16 22//16
f  19//16 21//16 20//17
f  10//18 22//18 11//18
f  22//18 10//18 21//19
f  3//20 7//20 8//20
f  7//20 3//20 2//21
f  14//22 17//22 12//22
f  17//22 14//22 16//22
f  12//22 21//22 10//22
f  21//22 12//22 17//22
f  21//22 17//22 20//22
f  7//22 4//22 5//22
f  4//22 7//22 2//22
f  9//23 15//23 13//23
f  15//23 9//23 11//24
f  15//23 11//24 18//25
f  18//25 11//24 19//26
f  19//26 11//24 22//27
f  8//28 1//28 3//28
f  1//28 8//28 6//28

