# {"id":"BLDG_0003000f0033266f","idOriginal":"BLDG_0003000f0033266f","origin":[13.358102706367367,52.54635803403371],"elevation":36.84}
# Longitude: 13.358102706367367
# Latitude: 52.54635803403371
# Elevation: 36.84

# File produced by Open Asset Import Library (http://www.assimp.sf.net)
# (assimp v3.1.0)

mtllib BLDG_0003000f0033266f.obj.mtl

# 73 vertex positions
v  38.9069 5.25684e-17 -0.858507
v  45.6449 5.99003e-17 -0.978246
v  42.3784 -1.57129e-16 2.5661
v  42.1734 2.69597e-16 -4.40286
v  36.197 -0.02 -10.1751
v  18.0407 -0.0200003 -10.9169
v  26.7443 -0.02 -19.3421
v  27.4426 -0.0200003 -1.80912
v  45.7888 -0.02 -0.873173
v  29.1947 -0.02 -0.111844
v  29.196 -0.0200003 -0.110581
v  34.6828 -0.0200003 5.20454
v  34.6842 -0.02 5.20592
v  37.0753 -0.0200003 7.52228
v  20.9738 -0.02 -20.303
v  23.3658 -0.02 -22.6185
v  16.4131 -0.02 -15.8882
v  14.6604 -0.0200003 -14.1915
v  4.444 -0.0200003 -4.30188
v  0 -0.0200003 -1.22467e-18
v  7.75246 -0.0200003 -0.957701
v  3.30846 -0.0200003 3.34418
v  12.4164 -0.02 12.5505
v  16.8884 -0.02 8.27689
v  14.132 -0.02 14.2846
v  19.5623 -0.02 19.7736
v  21.9037 -0.02 22.1402
v  26.3579 -0.02 17.8486
v  42.3789 24.72 2.56532
v  42.2765 30.46 -0.919341
v  38.9074 24.72 -0.85929
v  42.1739 24.72 -4.40364
v  45.6454 24.72 -0.979029
v  30.9588 22.89 -1.79791
v  29.208 22.89 -3.49644
v  29.2067 22.89 -3.49519
v  19.7939 22.89 -12.6143
v  20.9743 24.17 -20.3038
v  16.4136 22.89 -15.8889
v  24.3516 24.17 -17.0263
v  33.7889 24.17 -7.87415
v  41.002 24.17 -0.881702
v  33.7906 24.17 -7.87581
v  24.3528 24.17 -17.0274
v  27.4431 20.57 -1.80977
v  18.0412 20.57 -10.9176
v  29.2067 22.8883 -3.49519
v  7.7529 20.57 -0.958353
v  4.44449 22.89 -4.30261
v  0.000488155 22.89 -0.000725741
v  14.6609 22.89 -14.1923
v  3.30895 22.89 3.34345
v  12.4169 22.89 12.5498
v  14.1325 22.89 14.2839
v  16.8888 20.57 8.27624
v  19.5629 24.17 19.7728
v  18.6045 22.89 10.0103
v  29.1965 22.89 -0.111307
v  34.6833 24.17 5.20377
v  24.017 24.17 15.4812
v  34.6847 24.17 5.20515
v  29.1952 22.89 -0.112569
v  29.1952 22.8883 -0.112569
v  34.6847 24.1679 5.20515
v  26.3583 20.57 17.848
v  37.0758 20.57 7.52163
v  21.9042 20.57 22.1396
v  26.7447 20.57 -19.3428
v  33.7906 24.1674 -7.87581
v  36.1974 20.57 -10.1758
v  24.3528 24.1682 -17.0274
v  23.3662 20.57 -22.6192
v  45.7892 20.57 -0.873825

# 0 UV coordinates

# 107 vertex normals
vn -2.81704e-25 -1 -6.12323e-17
vn -1.40852e-25 -1 -6.12323e-17
vn 1.75647e-08 -1 -1.81121e-08
vn 1.75656e-08 -1 -1.81328e-08
vn 1.75751e-08 -1 -1.81228e-08
vn 7.88395e-09 -1 1.7184e-07
vn -1.0597e-05 -1 -0.000230974
vn 1.75762e-08 -1 -1.81437e-08
vn 7.76548e-05 -1 0.000141851
vn -4.61271e-08 -1 -8.42598e-08
vn 0 -1 0
vn -9.19507e-08 -1 -2.75034e-07
vn 4.51676e-08 -1 4.66598e-08
vn 4.51676e-08 -1 4.66598e-08
vn 1.64071e-08 -1 1.69491e-08
vn 1.62493e-08 -1 1.70036e-08
vn -0.000159558 -1 -7.72887e-05
vn -1.03432e-08 -1 1.02327e-08
vn 0.000124228 -1 9.37554e-05
vn -0.647571 0.386963 0.656439
vn -0.676873 0.390769 -0.623813
vn 0.647588 0.386905 -0.656456
vn 0.67687 0.390778 0.62381
vn 0 1 0
vn -0.137606 0.980248 0.142049
vn -0.137583 0.980251 0.142053
vn -0.138012 0.980161 0.142256
vn -0.138099 0.980142 0.142302
vn -0.137936 0.980175 0.142234
vn -0.1379 0.980178 0.142251
vn -0.479624 0.724449 0.495111
vn -0.479459 0.724626 0.495011
vn -0.662294 0.30651 0.68368
vn -0.479399 0.724692 0.494974
vn 0.307652 0.896852 0.317816
vn 0.307652 0.896852 0.317816
vn 0.307652 0.896852 0.317816
vn 0.307652 0.896852 0.317816
vn 0.249683 0.936291 -0.247016
vn 0.249683 0.936291 -0.247016
vn 0.249683 0.936291 -0.247016
vn -0.113009 0.986532 -0.118255
vn -0.113004 0.986532 -0.118255
vn -0.113322 0.986478 -0.118406
vn -0.114851 0.986205 -0.119197
vn -0.114816 0.986207 -0.119216
vn -0.476121 0.72461 -0.498247
vn -0.476119 0.724612 -0.498246
vn -0.476169 0.724561 -0.498272
vn -0.476169 0.72456 -0.498272
vn 0.509409 0.678951 0.528703
vn 0.509409 0.678951 0.528703
vn 0.509437 0.678919 0.528718
vn 0.544662 0.619508 0.565291
vn 0.50965 0.678592 0.528933
vn 0.511133 0.678933 -0.527061
vn 0.511133 0.678933 -0.527061
vn 0.511213 0.678809 -0.527143
vn 0.510956 0.679208 -0.526878
vn 0.51125 0.678751 -0.527182
vn 0.511251 0.67875 -0.527182
vn 0.509552 0.678734 0.528845
vn 0.509544 0.678741 0.528844
vn 0.511328 0.678669 -0.527211
vn 0.511268 0.678723 -0.5272
vn -0.476317 0.724356 -0.498428
vn -0.479681 0.724371 0.49517
vn 0.735341 5.80286e-06 0.677697
vn 0.735341 5.81086e-06 0.677697
vn -0.702282 3.75038e-05 0.711899
vn -0.702282 3.75072e-05 0.711899
vn -0.735341 -5.80869e-06 -0.677697
vn -0.735341 -5.80542e-06 -0.677697
vn 0.702282 -3.75078e-05 -0.711899
vn 0.702282 -3.74999e-05 -0.711899
vn -0.695524 -7.94414e-06 -0.718503
vn -0.695525 -7.89526e-06 -0.718502
vn -0.695524 -7.9747e-06 -0.718502
vn -0.695524 -7.92207e-06 -0.718502
vn -0.695524 -7.90791e-06 -0.718502
vn -0.695524 -7.86455e-06 -0.718502
vn -0.695524 -8.06173e-06 -0.718502
vn -0.695524 -7.87917e-06 -0.718503
vn -0.710893 3.74264e-05 0.7033
vn -0.710893 3.74151e-05 0.7033
vn -0.710894 3.7508e-05 0.7033
vn -0.710893 3.72961e-05 0.7033
vn -0.710893 3.76051e-05 0.7033
vn -0.710893 3.74012e-05 0.7033
vn -0.710893 3.74276e-05 0.7033
vn -0.131584 0.98272 0.130179
vn 0.696177 -3.75754e-05 -0.71787
vn 0.696176 -3.74825e-05 -0.717871
vn 0.696177 -3.76044e-05 -0.717871
vn 0.696177 -3.75813e-05 -0.717871
vn 0.693845 8.0233e-06 0.720125
vn 0.693845 8.06668e-06 0.720125
vn 0.693845 8.14732e-06 0.720124
vn 0.693845 8.01976e-06 0.720125
vn 0.693845 8.0275e-06 0.720124
vn 0.329765 -0.879839 0.342255
vn -0.695784 3.75752e-05 0.718251
vn -0.695784 3.75793e-05 0.718251
vn 0.710893 -3.74244e-05 -0.7033
vn 0.695524 7.94436e-06 0.718502
vn -0.690889 -8.18408e-06 -0.722961
vn -0.690889 -8.1799e-06 -0.722961

# Mesh 'defaultobject' with 132 faces
g defaultobject
usemtl DefaultMaterial
f  1//1 2//1 3//1
f  2//1 1//1 4//2
f  5//3 6//3 7//3
f  6//3 5//3 8//4
f  8//4 5//3 9//5
f  8//4 9//5 10//6
f  10//7 9//7 11//7
f  11//8 9//5 12//8
f  12//9 9//9 13//9
f  13//10 9//5 14//10
f  7//3 15//11 16//11
f  15//11 7//3 17//11
f  17//11 7//3 18//12
f  18//12 7//3 19//13
f  19//13 7//3 20//14
f  20//14 7//3 6//3
f  20//14 6//3 21//11
f  20//14 21//11 22//11
f  21//11 23//15 22//11
f  23//15 21//11 24//16
f  23//15 24//16 25//11
f  25//11 24//16 8//4
f  25//11 8//4 10//6
f  25//11 10//6 26//11
f  26//17 10//17 11//17
f  26//11 11//8 12//8
f  26//11 12//8 27//18
f  27//19 12//19 13//19
f  27//18 13//10 28//11
f  28//11 13//10 14//10
f  29//20 30//20 31//20
f  30//21 32//21 31//21
f  30//22 33//22 32//22
f  29//23 33//23 30//23
f  34//24 35//24 36//24
f  37//25 38//25 39//25
f  38//26 37//26 35//26
f  38//27 35//27 34//27
f  38//28 34//28 40//28
f  40//29 34//29 41//29
f  41//30 34//30 42//30
f  41//24 42//24 43//24
f  44//24 38//24 40//24
f  45//31 39//31 46//31
f  39//32 45//32 47//32
f  39//33 47//33 37//33
f  37//34 47//34 35//34
f  48//35 49//35 50//35
f  49//35 48//35 51//36
f  51//36 48//35 39//37
f  39//37 48//35 46//38
f  52//39 48//39 50//39
f  48//39 52//39 53//40
f  48//39 53//40 54//41
f  48//39 54//41 55//39
f  56//42 57//42 54//42
f  57//42 56//42 58//43
f  58//44 56//44 34//44
f  34//45 56//45 59//45
f  34//46 59//46 42//46
f  59//24 56//24 60//24
f  42//24 59//24 61//24
f  34//24 62//24 58//24
f  63//47 57//47 58//47
f  57//47 63//47 45//48
f  57//49 45//49 54//49
f  54//49 45//49 55//50
f  64//51 65//51 66//51
f  65//51 64//51 67//52
f  67//53 64//53 56//53
f  56//54 64//54 60//54
f  60//55 64//55 59//55
f  68//56 69//56 70//56
f  69//56 68//56 71//57
f  69//58 71//58 41//58
f  41//59 71//59 40//59
f  44//60 72//60 38//60
f  72//60 44//60 68//61
f  66//62 42//62 61//62
f  42//63 66//63 73//63
f  42//64 70//64 43//64
f  70//65 42//65 73//65
f  34//66 45//66 62//66
f  45//67 34//67 36//67
f  2//68 29//68 3//68
f  29//68 2//68 33//69
f  29//70 1//70 3//70
f  1//70 29//70 31//71
f  31//72 4//72 1//72
f  4//72 31//72 32//73
f  4//74 33//74 2//74
f  33//74 4//74 32//75
f  15//76 72//76 16//76
f  72//76 15//76 17//77
f  72//76 17//77 18//78
f  72//76 18//78 19//79
f  72//76 19//79 20//80
f  72//76 20//80 50//81
f  72//76 50//81 39//82
f  72//76 39//82 38//83
f  39//11 50//11 51//11
f  51//11 50//81 49//35
f  20//84 52//84 50//84
f  52//84 20//84 53//85
f  53//85 20//84 54//86
f  54//86 20//84 56//87
f  56//87 20//84 67//88
f  67//88 20//84 23//89
f  67//88 23//89 27//90
f  23//91 20//91 22//91
f  27//18 23//15 25//11
f  27//18 25//11 26//11
f  68//92 16//92 72//92
f  16//92 68//92 70//93
f  16//92 70//93 73//94
f  16//92 73//94 9//95
f  16//92 9//7 7//3
f  7//3 9//7 5//3
f  66//96 9//96 73//96
f  9//96 66//96 65//97
f  9//96 65//97 67//98
f  9//96 67//98 28//99
f  28//99 67//98 27//100
f  9//101 28//101 14//101
f  45//102 6//102 8//102
f  6//102 45//102 46//103
f  21//104 55//104 24//104
f  55//104 21//104 48//104
f  6//105 48//105 21//105
f  48//105 6//105 46//105
f  55//106 8//106 24//106
f  8//106 55//106 45//107

