# {"id":"BLDG_0003000e001a1717","idOriginal":"BLDG_0003000e001a1717","origin":[13.338705636664262,52.523692107741994],"elevation":34.1399993896484}
# Longitude: 13.338705636664262
# Latitude: 52.523692107741994
# Elevation: 34.1399993896484

# File produced by Open Asset Import Library (http://www.assimp.sf.net)
# (assimp v3.1.0)

mtllib BLDG_0003000e001a1717.obj.mtl

# 29 vertex positions
v  2.47276 -6.35776e-16 10.383
v  8.39089 -7.3577e-16 12.016
v  3.16996 -8.15032e-16 13.3105
v  14.973 -1.14555e-15 18.7083
v  9.9195 -1.16483e-15 19.0231
v  13.2502 -6.61997e-16 10.8112
v  1.20677 -3.10275e-16 5.06718
v  12.6088 -4.81969e-16 7.87114
v  11.443 -1.5474e-16 2.5271
v  0 0 0
v  10.3328 1.5687e-16 -2.56188
v  5.47352 8.30974e-17 -1.35708
v  2.47321 20.91 10.3823
v  7.74995 20.91 9.07528
v  7.74969 20.91 9.07411
v  8.39126 17.3 12.0155
v  3.17033 17.3 13.3099
v  12.6093 20.91 7.87048
v  1.20723 21.62 5.06649
v  6.58459 21.62 3.73325
v  11.4435 21.62 2.52642
v  6.58415 21.62 3.73122
v  13.2507 21.3133 10.8106
v  5.47388 17.3 -1.35763
v  10.3332 17.3 -2.56243
v  14.9734 21.3133 18.7076
v  9.91987 17.3 19.0226
v  0.000368141 17.3 -0.00054721
v  6.58415 21.6183 3.73122

# 0 UV coordinates

# 41 vertex normals
vn -1.63528e-24 -1 -6.12323e-17
vn 0 -1 -6.12323e-17
vn 0 -1 -6.12323e-17
vn 2.33219e-24 -1 -6.12323e-17
vn -1.83614e-24 -1 -6.12323e-17
vn -2.89108e-24 -1 -6.12323e-17
vn -0.25 0 -1
vn 0 1 0
vn 0.184713 0.640161 0.745705
vn 0.184848 0.640309 0.745544
vn 0.184878 0.640158 0.745666
vn 0.0310082 0.991664 0.125065
vn 0.0309854 0.99166 0.125102
vn 0.0310015 0.991667 0.125038
vn 0.0310421 0.991674 0.12498
vn -0.631806 0.774482 0.0315853
vn -0.153667 0.769582 -0.619783
vn -0.153667 0.769582 -0.619783
vn -0.61124 0.780131 0.133344
vn -0.15363 0.769707 -0.619636
vn -0.15363 0.769707 -0.619636
vn -0.153654 0.769624 -0.619733
vn -0.972793 2.80462e-05 0.231675
vn -0.972793 2.79472e-05 0.231675
vn -0.972793 2.80408e-05 0.231675
vn -0.972793 2.80437e-05 0.231675
vn 2.22045e-16 1 0
vn -0.24065 -2.55782e-05 -0.970612
vn -0.24065 -2.55821e-05 -0.970612
vn -0.24065 -2.55784e-05 -0.970612
vn -0.24065 -2.55801e-05 -0.970612
vn 0.062173 3.02588e-05 0.998065
vn 0.0621728 3.02047e-05 0.998065
vn -0.977022 2.75338e-05 0.21314
vn 0.24065 2.55951e-05 0.970612
vn 0.977022 -2.74997e-05 -0.21314
vn 0.977022 -2.7541e-05 -0.21314
vn 0.977022 -2.75381e-05 -0.21314
vn 0.977022 -2.75521e-05 -0.21314
vn 0.977022 -2.74898e-05 -0.21314
vn 0.977022 -2.7498e-05 -0.21314

# Mesh 'defaultobject' with 52 faces
g defaultobject
usemtl DefaultMaterial
f  1//1 2//1 3//1
f  2//1 4//2 5//2
f  4//2 2//1 6//3
f  6//3 2//1 1//1
f  6//3 1//1 7//4
f  6//3 7//4 8//3
f  8//3 7//4 9//5
f  9//5 7//4 10//6
f  9//5 10//6 11//3
f  11//7 10//7 12//7
f  13//8 14//8 15//8
f  14//9 13//9 16//9
f  16//10 13//10 17//10
f  16//11 18//11 14//11
f  18//8 15//8 14//8
f  15//12 19//12 13//12
f  19//13 15//13 18//13
f  19//14 18//14 20//14
f  20//15 18//15 21//15
f  20//8 21//8 22//8
f  18//16 16//16 23//16
f  21//17 24//17 22//17
f  24//17 21//17 25//18
f  16//19 26//19 23//19
f  26//19 16//19 27//19
f  19//20 24//20 28//20
f  24//20 19//20 29//21
f  29//22 19//22 20//22
f  28//23 13//23 19//23
f  13//23 28//23 17//24
f  17//24 28//23 10//25
f  17//24 10//25 3//26
f  3//27 10//27 7//27
f  3//1 7//4 1//1
f  11//28 24//28 25//28
f  24//28 11//28 28//29
f  28//29 11//28 12//30
f  28//29 12//30 10//31
f  4//32 27//32 5//32
f  27//32 4//32 26//33
f  27//34 2//34 5//34
f  2//34 27//34 16//34
f  2//35 17//35 3//35
f  17//35 2//35 16//35
f  21//36 18//36 25//36
f  6//37 26//37 4//37
f  26//37 6//37 8//38
f  26//37 8//38 9//39
f  26//37 9//39 11//40
f  26//37 11//40 25//36
f  26//37 25//36 18//36
f  26//37 18//36 23//41

