# {"id":"BLDG_0003000e00123862","idOriginal":"BLDG_0003000e00123862","origin":[13.34258746302703,52.56048357045898],"elevation":38.1599998474121}
# Longitude: 13.34258746302703
# Latitude: 52.56048357045898
# Elevation: 38.1599998474121

# File produced by Open Asset Import Library (http://www.assimp.sf.net)
# (assimp v3.1.0)

mtllib BLDG_0003000e00123862.obj.mtl

# 12 vertex positions
v  3.44156 8.58095 -3.28234
v  4.6779 6.39904 4.87353
v  8.11933 8.58095 1.59139
v  0.000136217 6.39904 -0.0002029
v  6.8829 6.39904 -6.56434
v  11.5607 6.39904 -1.69061
v  8.11914 -9.74611e-17 1.59166
v  6.88276 4.01938e-16 -6.56414
v  11.5605 1.03508e-16 -1.69041
v  4.67776 -2.9843e-16 4.87373
v  0 0 0
v  3.44138 2.00969e-16 -3.28207

# 0 UV coordinates

# 18 vertex normals
vn -0.300859 0.908901 0.288761
vn 0.300867 0.908896 -0.28877
vn 0.300867 0.908896 -0.28877
vn 0 -1 -6.12323e-17
vn -1.31833e-23 -1 -6.12323e-17
vn 6.59167e-24 -1 -6.12323e-17
vn 0.690158 8.23646e-06 0.723658
vn 0.690158 8.27351e-06 0.723658
vn 0.690158 8.26342e-06 0.723658
vn 0.690158 8.36384e-06 0.723658
vn -0.690158 -8.25418e-06 -0.723658
vn -0.690158 -8.27351e-06 -0.723658
vn -0.690158 -8.26093e-06 -0.723658
vn -0.690158 -8.27193e-06 -0.723658
vn -0.721463 3.73571e-05 0.692453
vn -0.721463 3.7314e-05 0.692453
vn 0.721463 -3.72841e-05 -0.692453
vn 0.721463 -3.71959e-05 -0.692453

# Mesh 'defaultobject' with 20 faces
g defaultobject
usemtl DefaultMaterial
f  1//1 2//1 3//1
f  2//1 1//1 4//1
f  5//2 3//2 6//2
f  3//2 5//2 1//3
f  7//4 8//4 9//4
f  8//4 7//4 10//5
f  8//4 10//5 11//6
f  8//4 11//6 12//1
f  6//7 7//7 9//7
f  7//7 6//7 10//8
f  10//8 6//7 2//9
f  2//9 6//7 3//10
f  4//11 12//11 11//11
f  12//11 4//11 8//12
f  8//12 4//11 5//13
f  5//13 4//11 1//14
f  2//15 11//15 10//15
f  11//15 2//15 4//16
f  8//17 6//17 9//17
f  6//17 8//17 5//18

