# {"id":"BLDG_0003000f000858e3","idOriginal":"BLDG_0003000f000858e3","origin":[13.337127575133534,52.53068657583795],"elevation":34.8800010681152}
# Longitude: 13.337127575133534
# Latitude: 52.53068657583795
# Elevation: 34.8800010681152

# File produced by Open Asset Import Library (http://www.assimp.sf.net)
# (assimp v3.1.0)

mtllib BLDG_0003000f000858e3.obj.mtl

# 23 vertex positions
v  17.863 6.12881e-16 -10.0091
v  1.11676 3.9341e-16 -6.42487
v  2.23353 7.8682e-16 -12.8497
v  23.3723 5.51569e-16 -9.0078
v  22.2457 1.58269e-16 -2.58472
v  0 0 0
v  21.119 -2.35031e-16 3.83835
v  15.6097 -1.73719e-16 2.83704
v  14.2616 -6.44312e-16 10.5224
v  19.7855 -7.00549e-16 11.4408
v  22.2462 22.4433 -2.58543
v  23.3728 21.081 -9.00846
v  21.1195 21.081 3.83768
v  21.1194 18.8578 3.83775
v  19.7859 18.8578 11.4402
v  15.6101 18.8578 2.83644
v  15.6102 21.081 2.83637
v  0.000448563 21.081 -0.00066713
v  2.23397 21.081 -12.8504
v  1.11724 22.4433 -6.42558
v  17.8635 21.081 -10.0098
v  14.262 18.8578 10.5218
v  16.7368 22.4433 -3.58674

# 0 UV coordinates

# 38 vertex normals
vn -3.57735e-24 -1 -6.12323e-17
vn 2.89961e-24 -1 -6.12323e-17
vn -3.78034e-25 -1 -6.12323e-17
vn -7.56069e-25 -1 -6.12323e-17
vn -7.56423e-25 -1 -6.12323e-17
vn -4.16334e-17 -1 1.11022e-16
vn -6.0584e-24 -1 -6.12323e-17
vn 3.06223e-24 -1 -6.12323e-17
vn 0.984962 -1.547e-05 0.172769
vn 0.984962 -1.54441e-05 0.172769
vn 0.984962 -1.56556e-05 0.172769
vn 0.984962 -1.54365e-05 0.172769
vn 0.984962 -1.54535e-05 0.172769
vn -0.178819 3.50666e-05 0.983882
vn -0.178819 3.48844e-05 0.983882
vn -0.178819 3.49549e-05 0.983882
vn -0.178819 3.49408e-05 0.983882
vn -0.985227 1.55443e-05 -0.171251
vn -0.985227 1.55565e-05 -0.171251
vn -0.985227 1.55362e-05 -0.171251
vn -0.985227 1.55656e-05 -0.171251
vn 0.178819 -3.49586e-05 -0.983882
vn 0.178819 -3.49651e-05 -0.983882
vn 0.178819 -3.49606e-05 -0.983882
vn 5.55112e-17 1 -2.22045e-16
vn -0.16401 3.46708e-05 0.986459
vn -0.16401 3.47114e-05 0.986459
vn -0.984962 1.55098e-05 -0.172769
vn -0.984962 1.55011e-05 -0.172769
vn -0.0365673 0.978868 0.201197
vn -0.0365673 0.978868 0.201197
vn -0.0365673 0.978868 0.201197
vn -0.0365673 0.978868 0.201197
vn 0.0365678 0.978867 -0.2012
vn 0.0365678 0.978867 -0.2012
vn 0.0365678 0.978867 -0.2012
vn 0.0365678 0.978867 -0.2012
vn 0 1 0

# Mesh 'defaultobject' with 42 faces
g defaultobject
usemtl DefaultMaterial
f  1//1 2//1 3//1
f  2//1 1//1 4//2
f  2//1 4//2 5//3
f  2//1 5//3 6//4
f  6//4 5//3 7//5
f  6//4 7//5 8//6
f  8//6 7//5 9//7
f  9//7 7//5 10//8
f  11//9 4//9 12//9
f  4//9 11//9 13//10
f  4//9 13//10 14//11
f  4//9 14//11 15//12
f  4//9 15//12 10//13
f  4//2 10//8 5//3
f  5//3 10//8 7//5
f  13//14 16//14 14//14
f  16//14 13//14 17//15
f  16//14 6//16 8//16
f  6//16 16//14 17//15
f  6//16 17//15 18//17
f  18//18 2//18 6//18
f  2//18 18//18 3//19
f  3//19 18//18 19//20
f  19//20 18//18 20//21
f  4//22 21//22 12//22
f  21//22 4//22 19//23
f  19//23 4//22 3//24
f  3//25 4//25 1//25
f  10//26 22//26 9//26
f  22//26 10//26 15//27
f  22//28 8//28 9//28
f  8//28 22//28 16//29
f  11//30 17//30 13//30
f  17//30 11//30 18//31
f  18//31 11//30 23//32
f  18//31 23//32 20//33
f  12//34 23//34 11//34
f  23//34 12//34 20//35
f  20//35 12//34 21//36
f  20//35 21//36 19//37
f  15//38 16//38 22//38
f  16//38 15//38 14//38

