# {"id":"BLDG_0003000a000850f8","idOriginal":"BLDG_0003000a000850f8","origin":[13.401772220300371,52.520048134338076],"elevation":32.5699996948242}
# Longitude: 13.401772220300371
# Latitude: 52.520048134338076
# Elevation: 32.5699996948242

# File produced by Open Asset Import Library (http://www.assimp.sf.net)
# (assimp v3.1.0)

mtllib BLDG_0003000a000850f8.obj.mtl

# 80 vertex positions
v  44.2661 32.2135 -24.3677
v  52.1066 32.8561 -10.2157
v  58.4167 32.2135 -32.1572
v  66.2572 32.2135 -18.0051
v  21.9511 32.8561 6.38397
v  14.0679 32.2135 -7.74457
v  21.9511 32.86 6.38397
v  0.000699719 32.21 -0.00103559
v  7.88387 32.21 14.1275
v  14.0679 32.21 -7.74457
v  70.9456 32.2135 -9.54245
v  58.1883 32.8561 0.761986
v  18.3712 32.21 32.9234
v  31.0465 32.86 22.6852
v  73.1936 32.43 4.05106
v  74.8394 24.43 -2.33046
v  71.2548 24.43 0.572575
v  76.7781 24.43 1.14828
v  105.707 24.43 53.0594
v  102.123 32.43 55.9622
v  107.513 24.43 56.2993
v  103.928 24.43 59.2024
v  25.5038 24.43 37.6248
v  27.4426 32.43 41.1033
v  56.3719 34.296 93.0143
v  102.123 34.296 55.9621
v  64.9179 36.9865 48.7749
v  64.6478 36.9865 48.2902
v  27.4426 34.296 41.1032
v  73.1937 34.296 4.051
v  56.3718 32.43 93.0144
v  58.1772 24.43 96.2546
v  24.3359 24.43 43.6194
v  22.3973 24.43 40.1406
v  53.2652 24.43 95.5305
v  55.0708 24.43 98.7704
v  19.1238 8.29589 32.3159
v  74.0469 8.29589 -1.56126
v  70.0818 8.29589 -8.84434
v  22.9922 8.29589 39.5306
v  58.3305 8.95999 0.64747
v  22.1308 8.95999 6.67162
v  31.0978 8.95999 22.6442
v  51.7831 8.95999 -10.5137
v  19.1237 -1.97879e-15 32.3161
v  74.0467 9.55836e-17 -1.561
v  22.992 -2.42057e-15 39.5308
v  70.0816 5.41544e-16 -8.84408
v  51.7829 0.599998 -10.5135
v  31.0976 0.599998 22.6444
v  22.1306 0.599998 6.67188
v  58.3304 0.599998 0.647734
v  58.416 -0.540001 -32.1562
v  52.1058 -0.540001 -10.2146
v  44.2654 -0.540001 -24.3667
v  66.2565 -0.540001 -18.0041
v  21.9504 -0.540001 6.38503
v  14.0672 -0.540001 -7.74353
v  7.88317 -0.540001 14.1286
v  0 -0.540001 -3.30655e-17
v  58.1876 -0.540001 0.763042
v  70.9449 -0.540001 -9.54141
v  31.0458 -0.540001 22.6863
v  18.3705 -0.540001 32.9245
v  71.2543 -0.00999832 0.573347
v  76.7775 -0.00999832 1.14906
v  73.193 -0.00999832 4.05209
v  74.8389 -0.00999832 -2.32968
v  105.707 -0.00999832 53.0602
v  102.122 -0.00999832 55.9632
v  107.512 -0.00999832 56.3001
v  103.928 -0.00999832 59.2031
v  25.5032 -0.00999832 37.6256
v  27.4419 -0.00999832 41.1043
v  56.3712 -0.00999832 93.0154
v  58.1767 -0.00999832 96.2554
v  22.3967 -0.00999832 40.1414
v  24.3354 -0.00999832 43.6202
v  53.2647 -0.00999832 95.5313
v  55.0702 -0.00999832 98.7712

# 0 UV coordinates

# 87 vertex normals
vn -0.0191378 0.999212 -0.0347663
vn 0.0347698 0.99921 -0.019263
vn -0.0191378 0.999212 -0.0347663
vn -0.0353207 0.999182 0.0197075
vn -0.0193587 0.999194 -0.0351678
vn 0.0347698 0.99921 -0.019263
vn -0.0353207 0.999182 0.0197075
vn -0.0353207 0.999182 0.0197075
vn -0.565063 0.440323 -0.697724
vn 0.759539 0.493898 -0.42328
vn 0.759539 0.493898 -0.423279
vn 0.759539 0.493898 -0.423279
vn 0.572464 0.415488 0.706863
vn -0.565063 0.440323 -0.697724
vn 0.0581398 0.995724 0.0717893
vn -0.0806933 0.995724 0.04497
vn -0.0806945 0.995724 0.0449698
vn -0.0581399 0.995724 -0.0717895
vn 0.080695 0.995724 -0.0449701
vn 0.0806953 0.995724 -0.0449715
vn 0.572464 0.415488 0.706863
vn -0.783689 0.44169 0.436738
vn -0.565063 0.440323 -0.697724
vn -0.78369 0.44169 0.436738
vn -0.78369 0.44169 0.436738
vn 0.572464 0.415488 0.706862
vn -0.783689 0.44169 0.436738
vn 0 1 0
vn 1.92762e-23 -1 -6.12323e-17
vn 0 -1 -6.12323e-17
vn 0 -1 0
vn 0.874729 -3.40807e-05 -0.484612
vn 0.874729 -3.40686e-05 -0.484612
vn 0.628354 1.12003e-05 0.777927
vn 0.628354 1.11644e-05 0.777927
vn 0.873264 -3.40918e-05 -0.487247
vn 0.873264 -3.40673e-05 -0.487247
vn 0.628354 1.12092e-05 0.777927
vn 0.628354 1.11033e-05 0.777927
vn -0.873264 3.41022e-05 0.487247
vn -0.873264 3.4047e-05 0.487247
vn -0.629358 -1.10157e-05 -0.777115
vn -0.629359 -1.12178e-05 -0.777115
vn 0.873516 -3.42105e-05 -0.486796
vn 0.873515 -3.39361e-05 -0.486797
vn 0.873515 -3.42069e-05 -0.486797
vn 0.873515 -3.4165e-05 -0.486797
vn 0.629359 1.11412e-05 0.777115
vn 0.629358 1.09466e-05 0.777115
vn -0.629359 -1.12142e-05 -0.777115
vn 0.629359 1.1112e-05 0.777115
vn 0.629359 1.1112e-05 0.777115
vn -0.873515 3.55668e-05 0.486797
vn -0.873515 3.36787e-05 0.486797
vn -0.629359 -1.03209e-05 -0.777115
vn -0.629359 -1.17586e-05 -0.777115
vn 0.873515 -3.30249e-05 -0.486797
vn 0.873515 -3.30249e-05 -0.486797
vn 0.629359 1.12835e-05 0.777115
vn -0.873515 3.4103e-05 0.486797
vn -0.629359 -1.1165e-05 -0.777115
vn -0.873515 3.40271e-05 0.486797
vn 0.629358 1.10451e-05 0.777115
vn -0.873515 3.40271e-05 0.486797
vn -0.482233 -1.74231e-05 -0.876043
vn -0.482233 -1.74179e-05 -0.876043
vn 0.874729 -3.40643e-05 -0.484613
vn 0.874729 -3.40931e-05 -0.484613
vn 0.482233 1.74147e-05 0.876043
vn -0.482233 -1.74077e-05 -0.876043
vn -0.873264 3.4047e-05 0.487247
vn -0.873264 3.4065e-05 0.487247
vn -0.482233 -1.73983e-05 -0.876043
vn -0.482233 -1.73969e-05 -0.876043
vn -0.874729 3.40083e-05 0.484612
vn -0.874729 3.4004e-05 0.484613
vn -0.881309 3.38371e-05 0.47254
vn 0.627001 1.16752e-05 0.779019
vn 0.878274 -3.36867e-05 -0.478158
vn -0.628354 -1.12467e-05 -0.777927
vn -0.628354 -1.13018e-05 -0.777927
vn 0.862539 -3.44874e-05 -0.50599
vn -0.501436 -1.67492e-05 -0.865195
vn -0.501436 -1.65854e-05 -0.865195
vn -0.871986 3.41137e-05 0.489531
vn -0.871986 3.39986e-05 0.489531
vn 0.628354 1.10534e-05 0.777927

# Mesh 'defaultobject' with 140 faces
g defaultobject
usemtl DefaultMaterial
f  1//1 2//1 3//1
f  3//2 2//2 4//2
f  1//1 5//3 2//1
f  5//3 1//1 6//3
f  7//4 8//4 9//4
f  8//5 7//5 10//5
f  11//6 2//2 12//6
f  2//2 11//6 4//2
f  13//7 7//4 9//4
f  7//4 13//7 14//8
f  15//9 16//9 17//9
f  16//10 15//10 18//10
f  19//11 15//10 20//11
f  15//10 19//11 18//10
f  19//11 20//11 21//12
f  21//13 20//13 22//13
f  23//14 15//9 17//9
f  15//9 23//14 24//14
f  25//15 26//15 27//15
f  28//16 25//16 27//16
f  25//16 28//16 29//17
f  28//18 30//18 29//18
f  28//19 26//19 30//19
f  26//19 28//19 27//20
f  22//13 31//21 32//21
f  31//21 22//13 20//13
f  33//22 24//22 34//22
f  34//23 24//14 23//14
f  33//22 31//24 24//22
f  31//24 33//22 35//25
f  31//21 36//26 32//21
f  36//27 31//24 35//25
f  37//28 38//28 39//28
f  38//28 37//28 40//28
f  41//28 42//28 43//28
f  42//28 41//28 44//28
f  45//29 46//29 47//29
f  46//29 45//29 48//30
f  49//31 50//31 51//31
f  50//31 49//31 52//31
f  53//31 54//31 55//31
f  54//31 53//31 56//31
f  57//31 55//31 54//31
f  55//31 57//31 58//31
f  59//31 58//31 57//31
f  58//31 59//31 60//31
f  56//31 61//31 54//31
f  61//31 56//31 62//31
f  63//31 59//31 57//31
f  59//31 63//31 64//31
f  65//31 66//31 67//31
f  66//31 65//31 68//31
f  67//31 69//31 70//31
f  69//31 67//31 66//31
f  71//31 70//31 69//31
f  70//31 71//31 72//31
f  73//31 67//31 74//31
f  67//31 73//31 65//31
f  74//31 70//31 75//31
f  70//31 74//31 67//31
f  72//31 75//31 70//31
f  75//31 72//31 76//31
f  77//31 74//31 78//31
f  74//31 77//31 73//31
f  75//31 78//31 74//31
f  78//31 75//31 79//31
f  76//31 79//31 75//31
f  79//31 76//31 80//31
f  56//32 11//32 62//32
f  11//32 56//32 4//33
f  62//34 12//34 61//34
f  12//34 62//34 11//35
f  57//36 14//36 63//36
f  14//36 57//36 7//37
f  63//38 13//38 64//38
f  13//38 63//38 14//39
f  13//40 59//40 64//40
f  59//40 13//40 9//41
f  17//42 68//42 65//42
f  68//42 17//42 16//43
f  68//44 18//44 66//44
f  18//44 68//44 16//45
f  66//44 19//46 69//46
f  19//46 66//44 18//44
f  69//46 21//47 71//47
f  21//47 69//46 19//46
f  71//48 22//48 72//48
f  22//48 71//48 21//49
f  23//50 65//42 73//50
f  65//42 23//50 17//42
f  20//51 25//51 31//51
f  25//51 20//51 26//52
f  25//53 24//53 31//53
f  24//53 25//53 29//54
f  29//55 15//55 24//55
f  15//55 29//55 30//56
f  15//57 26//57 20//57
f  26//57 15//57 30//58
f  72//48 32//59 76//59
f  32//59 72//48 22//48
f  33//60 77//60 78//60
f  77//60 33//60 34//60
f  34//61 73//50 77//61
f  73//50 34//61 23//50
f  35//62 78//60 79//62
f  78//60 35//62 33//60
f  76//59 36//63 80//63
f  36//63 76//59 32//59
f  36//64 79//62 80//64
f  79//62 36//64 35//62
f  1//65 53//65 55//65
f  53//65 1//65 3//66
f  53//67 4//33 56//32
f  4//33 53//67 3//68
f  54//69 5//69 57//69
f  5//69 54//69 2//69
f  6//70 55//65 58//70
f  55//65 6//70 1//65
f  9//41 60//71 59//40
f  60//71 9//41 8//72
f  8//73 58//70 60//73
f  58//70 8//73 10//74
f  12//75 54//75 61//75
f  54//75 12//75 2//76
f  40//77 45//77 47//77
f  45//77 40//77 37//77
f  46//78 40//78 47//78
f  40//78 46//78 38//78
f  48//79 38//79 46//79
f  38//79 48//79 39//79
f  37//80 48//80 45//80
f  48//80 37//80 39//81
f  49//82 41//82 52//82
f  41//82 49//82 44//82
f  42//83 49//83 51//83
f  49//83 42//83 44//84
f  43//85 51//85 50//85
f  51//85 43//85 42//86
f  52//87 43//87 50//87
f  43//87 52//87 41//87

