# {"id":"BLDG_0003000f0003e9d2","idOriginal":"BLDG_0003000f0003e9d2","origin":[13.360837752426578,52.524630010654526],"elevation":34.5}
# Longitude: 13.360837752426578
# Latitude: 52.524630010654526
# Elevation: 34.5

# File produced by Open Asset Import Library (http://www.assimp.sf.net)
# (assimp v3.1.0)

mtllib BLDG_0003000f0003e9d2.obj.mtl

# 64 vertex positions
v  41.1333 -1.11421e-15 18.1964
v  41.3779 -8.61196e-16 14.0644
v  42.9441 -1.06097e-15 17.327
v  40.9534 -1.11953e-15 18.2833
v  36.2126 -1.25893e-15 20.5599
v  29.2027 -1.43922e-15 23.5043
v  34.8169 -1.50238e-15 24.5357
v  35.3581 -1.57136e-15 25.6622
v  41.1437 -8.31363e-16 13.5772
v  33.1933 -8.68254e-16 14.1797
v  23.903 -1.594e-15 26.032
v  22.4247 -1.40561e-15 22.9554
v  28.3598 -7.5978e-16 12.4081
v  18.4035 -1.24614e-15 20.351
v  23.9687 -5.88702e-16 9.61424
v  16.6136 -1.17511e-15 19.191
v  11.7782 -9.21485e-16 15.049
v  20.0333 -3.81159e-16 6.2248
v  16.4848 -1.47983e-16 2.41674
v  7.43204 -6.39245e-16 10.4397
v  13.2946 1.03238e-16 -1.686
v  3.55036 -3.33257e-16 5.4425
v  10.4573 3.70228e-16 -6.04629
v  2.64899 -2.48609e-16 4.0601
v  0 0 0
v  1.9736 7.22546e-17 -1.18001
v  10.3798 3.8011e-16 -6.20766
v  8.57844 3.14194e-16 -5.13118
v  8.07506 3.65642e-16 -5.97138
v  7.04595 3.27901e-16 -5.35502
v  1.16738 4.27744e-17 -0.698559
v  1.46018 1.24798e-16 -2.0381
v  23.9032 10.4483 26.0317
v  29.203 10.4483 23.5039
v  35.3583 10.4483 25.6619
v  34.8171 10.4483 24.5353
v  36.2128 10.4483 20.5595
v  40.9537 10.4483 18.283
v  41.1335 10.4483 18.1961
v  42.9444 10.4483 17.3266
v  41.3781 10.4483 14.0641
v  41.1439 10.4483 13.5769
v  33.1936 10.4483 14.1793
v  28.3601 10.4483 12.4078
v  23.969 10.4483 9.61391
v  20.0335 10.4483 6.22447
v  16.485 10.4483 2.41641
v  13.2949 10.4483 -1.68633
v  10.4575 10.4483 -6.04662
v  10.38 10.4483 -6.20799
v  8.57867 10.4483 -5.13151
v  8.07528 10.4483 -5.97171
v  7.04617 10.4483 -5.35535
v  1.4604 10.4483 -2.03843
v  1.97382 10.4483 -1.18034
v  1.1676 10.4483 -0.69889
v  0.000222653 10.4483 -0.0003305
v  2.64922 10.4483 4.05977
v  3.55058 10.4483 5.44217
v  7.43227 10.4483 10.4393
v  11.7785 10.4483 15.0487
v  16.6138 10.4483 19.1906
v  18.4038 10.4483 20.3507
v  22.425 10.4483 22.9551

# 0 UV coordinates

# 81 vertex normals
vn 3.277e-23 -1 -6.12323e-17
vn 1.4666e-22 -1 -6.12323e-17
vn -5.56241e-24 -1 -6.12323e-17
vn 4.13141e-23 -1 -6.12325e-17
vn 3.57566e-23 -1 -6.12323e-17
vn 2.21414e-24 -1 -6.12323e-17
vn 3.2304e-23 -1 -6.12323e-17
vn 0 -1 -6.12323e-17
vn -1.46368e-23 -1 -6.12323e-17
vn -6.7552e-24 -1 -6.12323e-17
vn 1.64959e-23 -1 -6.12323e-17
vn 1.10331e-23 -1 -6.12323e-17
vn 1.68847e-24 -1 -6.12323e-17
vn 3.37472e-24 -1 -6.12323e-17
vn -2.21169e-23 -1 -6.12323e-17
vn -6.75085e-24 -1 -6.12323e-17
vn 0 -1 -6.12323e-17
vn 0 -1 -6.12323e-17
vn 0 -1 -6.12324e-17
vn 0 -1 -6.12319e-17
vn 4.92667e-23 -1 -6.12323e-17
vn -3.54387e-21 -1 -6.1238e-17
vn -8.77836e-24 -1 -6.12324e-17
vn 1.13103e-23 -1 -6.12323e-17
vn 0 -1 -6.12289e-17
vn 0.430495 1.94779e-05 0.902593
vn 0.430495 1.93069e-05 0.902593
vn -0.330839 3.68731e-05 0.943687
vn -0.330839 3.68171e-05 0.943687
vn 0.901357 -3.27634e-05 -0.433076
vn 0.901358 -3.28409e-05 -0.433075
vn 0.943547 -9.46617e-06 0.331238
vn 0.943547 -9.52033e-06 0.331238
vn 0.432879 1.92996e-05 0.901452
vn 0.435042 1.92238e-05 0.90041
vn 0.432814 1.93061e-05 0.901483
vn 0.432814 1.94708e-05 0.901483
vn 0.901503 -3.28377e-05 -0.432773
vn 0.901503 -3.31278e-05 -0.432773
vn 0.901247 -3.31383e-05 -0.433305
vn 0.901244 -3.28097e-05 -0.433311
vn -0.0755623 -2.99821e-05 -0.997141
vn 0.344124 -3.70883e-05 -0.938924
vn 0.344124 -3.70254e-05 -0.938924
vn 0.536816 -3.80899e-05 -0.843699
vn 0.536816 -3.81879e-05 -0.843699
vn 0.652586 -3.78188e-05 -0.757715
vn 0.652586 -3.79067e-05 -0.757715
vn 0.731601 -3.71934e-05 -0.681733
vn 0.731601 -3.70531e-05 -0.681733
vn 0.789435 -3.61446e-05 -0.613835
vn 0.789435 -3.62149e-05 -0.613835
vn 0.838165 -3.50914e-05 -0.545417
vn 0.901458 -3.28621e-05 -0.432867
vn -0.512977 -1.62391e-05 -0.858402
vn 0.857824 -3.44979e-05 -0.513944
vn -0.513817 -1.62211e-05 -0.8579
vn -0.513817 -1.62054e-05 -0.8579
vn -0.510581 -1.63119e-05 -0.859829
vn -0.510581 -1.63512e-05 -0.859829
vn -0.858125 3.45278e-05 0.513442
vn -0.512706 -1.62315e-05 -0.858564
vn -0.512706 -1.62266e-05 -0.858564
vn -0.513485 -1.6201e-05 -0.858098
vn -0.513485 -1.62002e-05 -0.858098
vn -0.837506 3.51316e-05 0.546428
vn -0.837506 3.51319e-05 0.546428
vn -0.837666 3.51273e-05 0.546183
vn -0.789735 3.62251e-05 0.613447
vn -0.789735 3.62331e-05 0.613447
vn -0.727569 3.72684e-05 0.686035
vn -0.727569 3.7202e-05 0.686035
vn -0.650552 3.78797e-05 0.759462
vn -0.650552 3.79491e-05 0.759462
vn -0.543871 3.81175e-05 0.839169
vn -0.543871 3.81711e-05 0.839169
vn -0.543609 3.81609e-05 0.839338
vn -0.543609 3.81037e-05 0.839338
vn -0.901357 3.30079e-05 0.433077
vn -0.901357 3.29289e-05 0.433077
vn 0 1 0

# Mesh 'defaultobject' with 124 faces
g defaultobject
usemtl DefaultMaterial
f  1//1 2//1 3//1
f  2//1 1//1 4//2
f  2//1 4//2 5//3
f  6//4 7//4 8//4
f  7//4 6//4 5//3
f  5//3 6//4 2//1
f  2//1 6//4 9//5
f  9//5 6//4 10//6
f  10//6 6//4 11//7
f  10//6 11//7 12//8
f  10//6 12//8 13//8
f  13//8 12//8 14//9
f  13//8 14//9 15//10
f  15//10 14//9 16//11
f  15//10 16//11 17//12
f  15//10 17//12 18//13
f  18//13 17//12 19//14
f  19//14 17//12 20//15
f  19//14 20//15 21//16
f  21//16 20//15 22//17
f  21//16 22//17 23//18
f  23//18 22//17 24//19
f  23//18 24//19 25//17
f  23//18 25//17 26//20
f  23//18 26//20 27//21
f  27//21 26//20 28//22
f  28//22 26//20 29//23
f  29//23 26//20 30//24
f  26//20 25//17 31//25
f  32//8 30//24 26//20
f  6//26 33//26 11//26
f  33//26 6//26 34//27
f  8//28 34//28 6//28
f  34//28 8//28 35//29
f  7//30 35//30 8//30
f  35//30 7//30 36//31
f  5//32 36//32 7//32
f  36//32 5//32 37//33
f  4//34 37//34 5//34
f  37//34 4//34 38//34
f  1//35 38//35 4//35
f  38//35 1//35 39//35
f  3//36 39//36 1//36
f  39//36 3//36 40//37
f  2//38 40//38 3//38
f  40//38 2//38 41//39
f  9//40 41//40 2//40
f  41//40 9//40 42//41
f  43//42 9//42 10//42
f  9//42 43//42 42//42
f  44//43 10//43 13//43
f  10//43 44//43 43//44
f  45//45 13//45 15//45
f  13//45 45//45 44//46
f  18//47 45//47 15//47
f  45//47 18//47 46//48
f  19//49 46//49 18//49
f  46//49 19//49 47//50
f  21//51 47//51 19//51
f  47//51 21//51 48//52
f  23//53 48//53 21//53
f  48//53 23//53 49//53
f  27//54 49//54 23//54
f  49//54 27//54 50//54
f  51//55 27//55 28//55
f  27//55 51//55 50//55
f  29//56 51//56 28//56
f  51//56 29//56 52//56
f  53//57 29//57 30//57
f  29//57 53//57 52//58
f  54//59 30//59 32//59
f  30//59 54//59 53//60
f  55//61 32//61 26//61
f  32//61 55//61 54//61
f  56//62 26//62 31//62
f  26//62 56//62 55//63
f  57//64 31//64 25//64
f  31//64 57//64 56//65
f  58//66 25//66 24//66
f  25//66 58//66 57//67
f  59//68 24//68 22//68
f  24//68 59//68 58//68
f  60//69 22//69 20//69
f  22//69 60//69 59//70
f  61//71 20//71 17//71
f  20//71 61//71 60//72
f  62//73 17//73 16//73
f  17//73 62//73 61//74
f  14//75 62//75 16//75
f  62//75 14//75 63//76
f  12//77 63//77 14//77
f  63//77 12//77 64//78
f  33//79 12//79 11//79
f  12//79 33//79 64//80
f  34//81 64//81 33//81
f  64//81 34//81 63//81
f  63//81 34//81 62//81
f  36//81 34//81 35//81
f  34//81 36//81 62//81
f  62//81 36//81 61//81
f  61//81 36//81 37//81
f  61//81 37//81 60//81
f  60//81 37//81 38//81
f  60//81 38//81 59//81
f  59//81 38//81 39//81
f  59//81 39//81 40//81
f  59//81 40//81 43//81
f  43//81 40//81 42//81
f  42//81 40//81 41//81
f  43//81 58//81 59//81
f  58//81 43//81 44//81
f  58//81 44//81 57//81
f  57//81 44//81 45//81
f  57//81 45//81 46//81
f  57//81 46//81 56//81
f  56//81 46//81 47//81
f  56//81 47//81 55//81
f  55//81 47//81 54//81
f  54//81 47//81 53//81
f  53//81 47//81 48//81
f  53//81 48//81 51//81
f  51//81 48//81 49//81
f  51//81 49//81 50//81
f  52//81 53//81 51//81

