# {"id":"BLDG_0003000b006f7b52","idOriginal":"BLDG_0003000b006f7b52","origin":[13.333140359494369,52.53246874893673],"elevation":33.94}
# Longitude: 13.333140359494369
# Latitude: 52.53246874893673
# Elevation: 33.94

# File produced by Open Asset Import Library (http://www.assimp.sf.net)
# (assimp v3.1.0)

mtllib BLDG_0003000b006f7b52.obj.mtl

# 31 vertex positions
v  17.755 -1.37329e-06 -0.0763009
v  15.2359 -1.37329e-06 -17.3536
v  20.4995 -1.37329e-06 -16.4748
v  17.2599 -1.37329e-06 2.88179
v  16.2779 -5.35759e-16 8.74961
v  15.7828 -1.37329e-06 11.7078
v  14.4612 -1.37329e-06 19.6042
v  12.4914 -1.37329e-06 -0.955143
v  9.20299 -1.37329e-06 18.6928
v  10.5246 -1.37329e-06 10.7964
v  0.498571 -1.37329e-06 -2.95751
v  -1.46957 -5.33789e-16 8.71744
v  0 -1.37329e-06 -8.40898e-23
v  -0.970991 -3.52692e-16 5.7599
v  0.498973 18.9322 -2.95811
v  12.4918 18.9322 -0.955742
v  17.7555 21.1497 -0.0769702
v  20.5 21.1497 -16.4754
v  17.2604 21.1497 2.88112
v  16.2783 21.15 8.74894
v  15.7832 18.93 11.7072
v  15.7832 17.838 11.7072
v  14.4616 17.838 19.6036
v  10.525 18.93 10.7958
v  -1.46916 18.93 8.71684
v  10.525 17.838 10.7958
v  0.000449913 21.1497 -0.00066938
v  -0.970541 21.15 5.75923
v  15.2363 18.9322 -17.3542
v  9.20337 17.838 18.6922
v  11.9967 21.1497 2.00228

# 0 UV coordinates

# 47 vertex normals
vn 0 -1 -0
vn -8.75267e-07 -1 8.75485e-08
vn 2.49347e-06 -1 -4.69228e-08
vn -1.31056e-07 -1 9.55341e-08
vn 0.960672 -0.225572 0.161948
vn -0.986087 0 -0.166232
vn 0.164685 -3.47305e-05 -0.986346
vn 0.164685 -3.47269e-05 -0.986346
vn 0.986282 -1.57623e-05 0.165069
vn 0.986282 -1.55756e-05 0.165069
vn 0.986282 -1.60079e-05 0.165069
vn 0.986282 -1.56127e-05 0.165069
vn 0.986282 -1.51593e-05 0.165069
vn 0.986282 -1.58127e-05 0.165069
vn 0.986282 -1.57947e-05 0.165069
vn 0.986282 -1.588e-05 0.165069
vn 0.986282 -1.57588e-05 0.165069
vn 0.545827 0.832903 0.0913523
vn 0.79385 0.593422 0.132863
vn -0.170782 3.48558e-05 0.985309
vn -0.170781 3.45575e-05 0.985309
vn -0.170782 3.48191e-05 0.985309
vn -0.170782 3.45575e-05 0.985309
vn -0.986087 1.57373e-05 -0.166232
vn -0.986087 1.56883e-05 -0.166232
vn -0.986087 1.5708e-05 -0.166232
vn -0.986087 1.57114e-05 -0.166232
vn -0.986087 1.57089e-05 -0.166232
vn -0.960672 0.225572 -0.161948
vn -0.986282 1.5791e-05 -0.165069
vn -0.986282 1.5744e-05 -0.165069
vn 0.164685 -3.47031e-05 -0.986346
vn 0.164684 -3.47271e-05 -0.986346
vn -0.170782 3.48182e-05 0.985309
vn -0.986282 1.5762e-05 -0.165069
vn -0.378451 0.923451 -0.0633395
vn -0.378451 0.923451 -0.0633395
vn 0.0979067 0.804088 -0.586393
vn 0.0979067 0.804088 -0.586393
vn 0.0979067 0.804088 -0.586393
vn -0.101603 0.803777 0.586191
vn -0.101603 0.803777 0.58619
vn -0.101603 0.803777 0.586191
vn 8.54137e-06 1 -4.92786e-05
vn 8.38896e-06 1 -5.0244e-05
vn 8.38896e-06 1 -5.0244e-05
vn 0 1 0

# Mesh 'defaultobject' with 58 faces
g defaultobject
usemtl DefaultMaterial
f  1//1 2//1 3//1
f  2//1 1//1 4//1
f  2//1 4//1 5//2
f  2//1 5//2 6//3
f  2//1 6//3 7//1
f  2//1 7//1 8//1
f  8//1 7//1 9//1
f  8//1 9//1 10//1
f  10//1 11//1 8//1
f  11//1 10//1 12//4
f  11//5 12//5 13//5
f  13//6 12//6 14//6
f  15//7 8//7 11//7
f  8//7 15//7 16//8
f  17//9 3//9 18//9
f  3//9 17//9 19//10
f  3//9 19//10 20//11
f  3//9 20//11 21//12
f  3//9 21//12 22//13
f  3//9 22//13 23//14
f  3//9 23//14 1//15
f  1//15 23//14 5//16
f  5//16 23//14 7//17
f  1//18 5//18 4//18
f  5//19 7//19 6//19
f  12//20 24//20 25//20
f  24//20 12//20 26//21
f  26//21 12//20 10//22
f  26//21 21//23 24//20
f  21//23 26//21 22//23
f  27//24 25//24 28//24
f  25//24 27//24 15//25
f  25//24 15//25 11//26
f  25//24 11//26 14//27
f  25//24 14//27 12//28
f  14//29 11//29 13//29
f  16//30 2//30 8//30
f  2//30 16//30 29//31
f  29//32 3//32 2//32
f  3//32 29//32 18//33
f  7//34 30//34 9//34
f  30//34 7//34 23//34
f  30//35 10//35 9//35
f  10//35 30//35 26//35
f  29//36 17//36 18//36
f  17//36 29//36 16//36
f  17//36 16//36 19//37
f  16//38 31//38 19//38
f  31//38 16//38 27//39
f  27//39 16//38 15//40
f  25//41 20//41 28//41
f  20//41 25//41 24//42
f  20//41 24//42 21//43
f  19//44 28//44 20//44
f  28//44 19//44 31//45
f  28//44 31//45 27//46
f  22//47 30//47 23//47
f  30//47 22//47 26//47

