# {"id":"BLDG_0003000b00242180","idOriginal":"BLDG_0003000b00242180","origin":[13.39877666931496,52.53177594656935],"elevation":36.0699996948242}
# Longitude: 13.39877666931496
# Latitude: 52.53177594656935
# Elevation: 36.0699996948242

# File produced by Open Asset Import Library (http://www.assimp.sf.net)
# (assimp v3.1.0)

mtllib BLDG_0003000b00242180.obj.mtl

# 40 vertex positions
v  45.6862 22.3581 15.1685
v  39.3139 -1.31643e-16 2.14989
v  39.3144 22.3581 2.14918
v  45.6857 -9.28847e-16 15.1692
v  36.4601 2.2539e-16 -3.6809
v  36.4606 22.3581 -3.68161
v  36.079 2.73108e-16 -4.46019
v  36.0794 22.3581 -4.46089
v  28.692 22.3581 -0.56859
v  28.6915 3.47728e-17 -0.567883
v  26.9665 22.3581 -0.533679
v  26.966 3.26351e-17 -0.532971
v  26.9972 22.3581 0.320107
v  26.9967 -1.96442e-17 0.320815
v  27.1011 22.3581 3.26739
v  27.1006 -2.00113e-16 3.2681
v  27.3882 22.3581 11.3532
v  27.3877 -6.95229e-16 11.3539
v  13.6314 22.3581 11.8238
v  13.6309 -7.24045e-16 11.8246
v  13.3822 -2.21052e-16 3.61006
v  13.3827 22.3581 3.60935
v  13.2888 -3.26353e-17 0.532975
v  13.2893 22.3581 0.532268
v  13.2649 1.60111e-17 -0.26148
v  13.2654 22.3581 -0.262188
v  5.25902 22.3581 -0.104494
v  5.25855 6.35506e-18 -0.103786
v  0.000477615 22.3581 -0.00070754
v  0 0 0
v  0.018207 22.3581 0.801565
v  0.0177294 -4.9125e-17 0.802272
v  0.0886004 22.3581 3.88187
v  0.0881227 -2.37739e-16 3.88258
v  0.38113 22.3581 16.78
v  0.380652 -1.02752e-15 16.7807
v  0.453727 22.3581 19.955
v  0.453249 -1.22193e-15 19.9557
v  37.7992 -1.16088e-15 18.9587
v  37.7997 22.3581 18.9579

# 0 UV coordinates

# 53 vertex normals
vn 0.8982 -3.32174e-05 -0.439587
vn 0.8982 -3.30762e-05 -0.439587
vn 0.898189 -3.32209e-05 -0.43961
vn 0.898189 -3.32078e-05 -0.43961
vn 0.898327 -3.30534e-05 -0.439327
vn 0.898329 -3.32163e-05 -0.439323
vn -0.466137 -1.80149e-05 -0.884713
vn -0.466137 -1.80405e-05 -0.884713
vn -0.0202282 -3.12047e-05 -0.999795
vn -0.999352 2.24524e-05 0.0359908
vn -0.999352 2.25375e-05 0.0359886
vn -0.999379 2.2429e-05 0.0352299
vn -0.999379 2.24289e-05 0.0352299
vn -0.99937 2.25206e-05 0.0354832
vn -0.99937 2.24368e-05 0.0354834
vn -0.0341892 -3.09005e-05 -0.999415
vn -0.0341891 -3.08564e-05 -0.999415
vn 0.999542 -2.23179e-05 -0.0302589
vn 0.999539 -2.23201e-05 -0.030345
vn 0.999539 -2.23205e-05 -0.030345
vn 0.999548 -2.23121e-05 -0.0300759
vn 0.999548 -2.23121e-05 -0.0300759
vn -0.0196923 -3.1219e-05 -0.999806
vn -0.0196923 -3.12187e-05 -0.999806
vn -0.0197328 -3.12181e-05 -0.999805
vn -0.0197328 -3.12181e-05 -0.999805
vn -0.999756 2.2056e-05 0.0220936
vn -0.999756 2.2056e-05 0.0220936
vn -0.999739 2.20795e-05 0.0228467
vn -0.999739 2.20795e-05 0.0228467
vn -0.999743 2.20721e-05 0.0226741
vn -0.999743 2.20741e-05 0.0226741
vn -0.999739 2.20798e-05 0.0228597
vn -0.999739 2.20779e-05 0.0228598
vn 0.0266878 3.10644e-05 0.999644
vn 0.0266879 3.1069e-05 0.999644
vn 0.433095 1.92855e-05 0.901348
vn 0.433095 1.92172e-05 0.901348
vn 1.82795e-24 -1 -6.12323e-17
vn -9.77088e-25 -1 -6.12323e-17
vn 0 -1 -6.12323e-17
vn -8.98667e-24 -1 -6.12323e-17
vn 1.45923e-24 -1 -6.12323e-17
vn -1.22405e-23 -1 -6.12323e-17
vn 0 -1 -6.12323e-17
vn -2.87729e-24 -1 -6.12323e-17
vn -7.51577e-24 -1 -6.12323e-17
vn 3.45561e-19 -1 -6.12399e-17
vn -7.1056e-21 -1 -6.12323e-17
vn 3.33964e-19 -1 -6.12407e-17
vn -5.19875e-25 -1 -6.12323e-17
vn -5.36906e-25 -1 -6.12323e-17
vn 0 1 0

# Mesh 'defaultobject' with 76 faces
g defaultobject
usemtl DefaultMaterial
f  1//1 2//1 3//1
f  2//1 1//1 4//2
f  3//3 5//3 6//3
f  5//3 3//3 2//4
f  6//5 7//5 8//5
f  7//5 6//5 5//6
f  9//7 7//7 10//7
f  7//7 9//7 8//8
f  11//9 10//9 12//9
f  10//9 11//9 9//9
f  13//10 12//10 14//10
f  12//10 13//10 11//11
f  15//12 14//12 16//12
f  14//12 15//12 13//13
f  17//14 16//14 18//14
f  16//14 17//14 15//15
f  19//16 18//16 20//16
f  18//16 19//16 17//17
f  19//18 21//18 22//18
f  21//18 19//18 20//18
f  22//19 23//19 24//19
f  23//19 22//19 21//20
f  24//21 25//21 26//21
f  25//21 24//21 23//22
f  27//23 25//23 28//23
f  25//23 27//23 26//24
f  29//25 28//25 30//25
f  28//25 29//25 27//26
f  31//27 30//27 32//27
f  30//27 31//27 29//28
f  33//29 32//29 34//29
f  32//29 33//29 31//30
f  35//31 34//31 36//31
f  34//31 35//31 33//32
f  37//33 36//33 38//33
f  36//33 37//33 35//34
f  37//35 39//35 40//35
f  39//35 37//35 38//36
f  40//37 4//37 1//37
f  4//37 40//37 39//38
f  5//39 10//39 7//39
f  10//39 5//39 2//40
f  10//39 2//40 4//41
f  10//39 4//41 39//42
f  10//39 39//42 12//43
f  12//43 39//42 14//44
f  14//44 39//42 16//45
f  16//45 39//42 18//41
f  18//41 39//42 38//46
f  18//41 38//46 20//47
f  20//47 38//46 30//41
f  30//41 38//46 34//48
f  30//41 34//48 32//49
f  34//48 38//46 36//50
f  23//51 28//51 25//51
f  28//51 23//51 21//52
f  28//51 21//52 20//47
f  28//51 20//47 30//41
f  9//53 13//53 17//53
f  13//53 9//53 11//53
f  17//53 13//53 15//53
f  3//53 40//53 1//53
f  40//53 3//53 6//53
f  40//53 6//53 17//53
f  40//53 17//53 37//53
f  17//53 6//53 8//53
f  17//53 8//53 9//53
f  37//53 17//53 19//53
f  37//53 19//53 22//53
f  37//53 22//53 24//53
f  37//53 24//53 26//53
f  37//53 26//53 27//53
f  37//53 27//53 29//53
f  37//53 29//53 33//53
f  37//53 33//53 35//53
f  33//53 29//53 31//53

