# {"id":"BLDG_0003000f002d9170","idOriginal":"BLDG_0003000f002d9170","origin":[13.393246829031417,52.536122072151656],"elevation":42.8199996948242}
# Longitude: 13.393246829031417
# Latitude: 52.536122072151656
# Elevation: 42.8199996948242

# File produced by Open Asset Import Library (http://www.assimp.sf.net)
# (assimp v3.1.0)

mtllib BLDG_0003000f002d9170.obj.mtl

# 8 vertex positions
v  9.95805 -5.34673e-16 8.73187
v  0 0 0
v  4.94611 1.39943e-16 -2.28545
v  5.05027 -6.73577e-16 11.0003
v  5.05049 10.2146 11
v  9.95827 10.2146 8.73155
v  4.94633 10.2146 -2.28577
v  0.00021813 10.2146 -0.00032334

# 0 UV coordinates

# 11 vertex normals
vn 0 -1 -6.12323e-17
vn 1.29429e-23 -1 -6.12323e-17
vn 0.419569 1.97548e-05 0.907723
vn 0.419569 1.97721e-05 0.907723
vn 0.91024 -3.24898e-05 -0.414082
vn 0.91024 -3.25206e-05 -0.414082
vn -0.419456 -1.9778e-05 -0.907776
vn -0.419456 -1.97829e-05 -0.907776
vn -0.9088 3.25935e-05 0.417231
vn -0.9088 3.26145e-05 0.417231
vn -0 1 0

# Mesh 'defaultobject' with 12 faces
g defaultobject
usemtl DefaultMaterial
f  1//1 2//1 3//1
f  2//1 1//1 4//2
f  5//3 1//3 6//3
f  1//3 5//3 4//4
f  6//5 3//5 7//5
f  3//5 6//5 1//6
f  8//7 3//7 2//7
f  3//7 8//7 7//8
f  5//9 2//9 4//9
f  2//9 5//9 8//10
f  8//11 6//11 7//11
f  6//11 8//11 5//11

