# {"id":"BLDG_00030009003f46a0","idOriginal":"BLDG_00030009003f46a0","origin":[13.391937170902652,52.54697847432151],"elevation":47.2599983215332}
# Longitude: 13.391937170902652
# Latitude: 52.54697847432151
# Elevation: 47.2599983215332

# File produced by Open Asset Import Library (http://www.assimp.sf.net)
# (assimp v3.1.0)

mtllib BLDG_00030009003f46a0.obj.mtl

# 42 vertex positions
v  18.2824 21.2811 9.01254
v  6.02762 21.2811 13.7309
v  6.28063 21.2811 14.3077
v  5.09801 21.2811 11.6134
v  0.000454425 21.2811 -0.00067413
v  3.70411 21.2811 -6.72364
v  18.0266 21.2811 8.48071
v  17.0234 21.2811 6.39579
v  15.0371 21.2811 2.26733
v  32.9406 21.2811 -8.76202
v  27.7588 21.2811 -10.5895
v  27.915 21.2811 -8.39272
v  12.5791 21.2811 -22.8354
v  31.7965 21.2811 -24.0935
v  32.8761 21.2811 -9.6312
v  5.73596 21.2811 -17.1801
v  0.709279 21.2811 -8.40152
v  15.8645 21.2811 -1.91061
v  19.8042 21.2811 -8.63607
v  8.58433 21.2811 -15.582
v  21.2058 21.2811 -10.1953
v  5.7355 1.05194e-15 -17.1794
v  3.70365 4.11663e-16 -6.72297
v  0.708825 5.14404e-16 -8.40085
v  12.5786 1.39822e-15 -22.8347
v  15.0366 -1.38875e-16 2.268
v  8.58387 9.54082e-16 -15.5813
v  15.8641 1.1695e-16 -1.90994
v  19.8038 5.28765e-16 -8.6354
v  31.796 1.47526e-15 -24.0929
v  21.2053 6.24239e-16 -10.1946
v  27.7583 6.48379e-16 -10.5888
v  32.9401 5.36477e-16 -8.76134
v  32.8757 5.897e-16 -9.63053
v  27.9145 5.13865e-16 -8.39205
v  5.09756 -7.11155e-16 11.614
v  0 0 0
v  6.02716 -8.40815e-16 13.7316
v  6.28018 -8.76133e-16 14.3083
v  18.282 -5.519e-16 9.01321
v  17.0229 -3.9167e-16 6.39646
v  18.0261 -5.19335e-16 8.48138

# 0 UV coordinates

# 54 vertex normals
vn 0 1 0
vn 1.21965e-23 -1 -6.12323e-17
vn 0 -1 -6.12323e-17
vn 2.72877e-23 -1 -6.12323e-17
vn -1.62059e-23 -1 -6.12323e-17
vn 0 -1 -6.12323e-17
vn 1.42775e-22 -1 -6.12322e-17
vn -2.74141e-24 -1 -6.12323e-17
vn 6.84379e-24 -1 -6.12323e-17
vn 7.64594e-20 -1 -6.12376e-17
vn -2.38513e-24 -1 -6.12323e-17
vn -3.00481e-23 -1 -6.12323e-17
vn 2.62269e-22 -1 -6.12324e-17
vn -3.18365e-24 -1 -6.12323e-17
vn 4.61986e-23 -1 -6.12324e-17
vn 3.70692e-19 -1 -6.13804e-17
vn -0.915682 3.22866e-05 0.401905
vn -0.915682 3.22843e-05 0.401905
vn -0.915649 3.22702e-05 0.401979
vn -0.915649 3.22882e-05 0.401978
vn -0.915763 3.22824e-05 0.401718
vn -0.915763 3.22644e-05 0.401719
vn 0.403653 2.0374e-05 0.914912
vn 0.403653 2.03603e-05 0.914912
vn 0.90114 -3.29383e-05 -0.433529
vn 0.90114 -3.29584e-05 -0.433528
vn 0.901106 -3.296e-05 -0.433599
vn 0.901106 -3.29407e-05 -0.433599
vn 0.90113 -3.30028e-05 -0.43355
vn 0.90113 -3.29637e-05 -0.43355
vn 0.980946 -1.477e-05 0.19428
vn 0.980946 -1.48147e-05 0.19428
vn 0.862855 -2.41475e-06 0.505451
vn 0.862855 -2.39175e-06 0.505451
vn 0.743701 5.31702e-06 0.668512
vn 0.743701 5.28495e-06 0.668512
vn 0.0600529 3.03461e-05 0.998195
vn -0.997482 2.35242e-05 0.0709158
vn 0.0732841 3.00349e-05 0.997311
vn 0.997262 -2.36158e-05 -0.0739545
vn 0.997225 -2.36356e-05 -0.0744461
vn 0.997225 -2.36325e-05 -0.0744461
vn -0.0653285 -3.01741e-05 -0.997864
vn -0.0653286 -3.02665e-05 -0.997864
vn -0.875942 3.40042e-06 -0.482417
vn -0.875942 3.46129e-06 -0.482417
vn 0.489301 -3.80404e-05 -0.872115
vn 0.489301 -3.80685e-05 -0.872115
vn -0.867802 2.78703e-06 -0.49691
vn -0.867802 2.8093e-06 -0.49691
vn -0.488775 3.806e-05 0.87241
vn -0.488775 3.80795e-05 0.87241
vn -0.875885 3.41815e-06 -0.482521
vn -0.875885 3.42633e-06 -0.482521

# Mesh 'defaultobject' with 80 faces
g defaultobject
usemtl DefaultMaterial
f  1//1 2//1 3//1
f  2//1 1//1 4//1
f  4//1 1//1 5//1
f  5//1 1//1 6//1
f  6//1 1//1 7//1
f  6//1 7//1 8//1
f  6//1 8//1 9//1
f  10//1 11//1 12//1
f  11//1 10//1 13//1
f  13//1 10//1 14//1
f  14//1 10//1 15//1
f  6//1 16//1 17//1
f  16//1 6//1 9//1
f  16//1 9//1 18//1
f  16//1 18//1 19//1
f  16//1 19//1 20//1
f  20//1 19//1 13//1
f  13//1 19//1 21//1
f  13//1 21//1 11//1
f  22//2 23//2 24//2
f  25//3 26//3 27//3
f  26//3 25//3 28//4
f  28//4 25//3 29//5
f  29//5 25//3 30//6
f  29//5 30//6 31//7
f  31//7 30//6 32//8
f  32//8 30//6 33//9
f  33//9 30//6 34//10
f  33//9 35//11 32//8
f  23//2 36//6 37//6
f  36//6 23//2 38//12
f  38//12 23//2 39//13
f  39//13 23//2 40//14
f  40//14 23//2 41//15
f  41//15 23//2 26//3
f  26//3 23//2 22//2
f  26//3 22//2 27//3
f  40//14 41//15 42//16
f  4//17 37//17 36//17
f  37//17 4//17 5//18
f  2//19 36//19 38//19
f  36//19 2//19 4//20
f  3//21 38//21 39//21
f  38//21 3//21 2//22
f  3//23 40//23 1//23
f  40//23 3//23 39//24
f  1//25 42//25 7//25
f  42//25 1//25 40//26
f  7//27 41//27 8//27
f  41//27 7//27 42//28
f  8//29 26//29 9//29
f  26//29 8//29 41//30
f  9//31 28//31 18//31
f  28//31 9//31 26//32
f  18//33 29//33 19//33
f  29//33 18//33 28//34
f  19//35 31//35 21//35
f  31//35 19//35 29//36
f  21//37 32//37 11//37
f  32//37 21//37 31//37
f  12//38 32//38 35//38
f  32//38 12//38 11//38
f  12//39 33//39 10//39
f  33//39 12//39 35//39
f  10//40 34//40 15//40
f  34//40 10//40 33//40
f  15//41 30//41 14//41
f  30//41 15//41 34//42
f  13//43 30//43 25//43
f  30//43 13//43 14//44
f  20//45 25//45 27//45
f  25//45 20//45 13//46
f  16//47 27//47 22//47
f  27//47 16//47 20//48
f  17//49 22//49 24//49
f  22//49 17//49 16//50
f  17//51 23//51 6//51
f  23//51 17//51 24//52
f  5//53 23//53 37//53
f  23//53 5//53 6//54

