# {"id":"BLDG_0003000f00082066","idOriginal":"BLDG_0003000f00082066","origin":[13.33224015104006,52.5211592027264],"elevation":34.1399993896484}
# Longitude: 13.33224015104006
# Latitude: 52.5211592027264
# Elevation: 34.1399993896484

# File produced by Open Asset Import Library (http://www.assimp.sf.net)
# (assimp v3.1.0)

mtllib BLDG_0003000f00082066.obj.mtl

# 8 vertex positions
v  7.34841 -1.06172e-16 1.73392
v  5.59426 2.23621 4.11607
v  5.59422 -2.52041e-16 4.11614
v  7.34845 2.23621 1.73385
v  1.75419 1.45869e-16 -2.38222
v  1.75424 2.23621 -2.38229
v  4.7566e-05 2.23621 -7.072e-05
v  0 0 0

# 0 UV coordinates

# 11 vertex normals
vn 0.805239 1.65779e-06 0.592951
vn 0.805239 1.58571e-06 0.592951
vn 0.592647 -3.8193e-05 -0.805462
vn 0.592647 -3.80702e-05 -0.805462
vn -0.805239 -1.62395e-06 -0.592951
vn -0.805239 -1.62815e-06 -0.592951
vn -0.592647 3.82284e-05 0.805462
vn -0.592647 3.80788e-05 0.805462
vn 0 1 0
vn 0 -1 -6.12323e-17
vn 5.15298e-24 -1 -6.12323e-17

# Mesh 'defaultobject' with 12 faces
g defaultobject
usemtl DefaultMaterial
f  1//1 2//1 3//1
f  2//1 1//1 4//2
f  5//3 4//3 1//3
f  4//3 5//3 6//4
f  7//5 5//5 8//5
f  5//5 7//5 6//6
f  2//7 8//7 3//7
f  8//7 2//7 7//8
f  2//9 6//9 7//9
f  6//9 2//9 4//9
f  3//10 5//10 1//10
f  5//10 3//10 8//11

