# {"id":"BLDG_0003000e00533dae","idOriginal":"BLDG_0003000e00533dae","origin":[13.404806953874523,52.53307136951419],"elevation":48.3300018310547}
# Longitude: 13.404806953874523
# Latitude: 52.53307136951419
# Elevation: 48.3300018310547

# File produced by Open Asset Import Library (http://www.assimp.sf.net)
# (assimp v3.1.0)

mtllib BLDG_0003000e00533dae.obj.mtl

# 10 vertex positions
v  0 0 0
v  37.2239 -9.40861e-16 15.3654
v  30.8825 -1.44989e-15 23.6786
v  6.34138 5.09033e-16 -8.31313
v  37.2243 16.8345 15.3649
v  30.8829 16.8345 23.678
v  34.0537 20.4899 19.5213
v  0.000359757 16.8345 -0.00053278
v  6.34174 16.8345 -8.31367
v  3.17113 20.4899 -4.15721

# 0 UV coordinates

# 15 vertex normals
vn -4.1635e-24 -1 -6.12323e-17
vn 0 -1 -6.12323e-17
vn 0.795083 2.05616e-06 0.606501
vn 0.795083 2.30505e-06 0.606501
vn 0.795083 2.34549e-06 0.606501
vn -0.608463 3.81361e-05 0.793582
vn -0.608463 3.81184e-05 0.793582
vn -0.795083 -2.2035e-06 -0.606501
vn -0.795083 -2.22565e-06 -0.606501
vn -0.795083 -2.14587e-06 -0.606501
vn 0.608463 -3.8105e-05 -0.793582
vn 0.608463 -3.8105e-05 -0.793582
vn -0.348667 0.819535 0.454746
vn -0.348667 0.819535 0.454746
vn 0.34868 0.81952 -0.454762

# Mesh 'defaultobject' with 16 faces
g defaultobject
usemtl DefaultMaterial
f  1//1 2//1 3//1
f  2//1 1//1 4//2
f  5//3 3//3 2//3
f  3//3 5//3 6//4
f  6//4 5//3 7//5
f  6//6 1//6 3//6
f  1//6 6//6 8//7
f  8//8 4//8 1//8
f  4//8 8//8 9//9
f  9//9 8//8 10//10
f  4//11 5//11 2//11
f  5//11 4//11 9//12
f  8//13 7//13 10//13
f  7//13 8//13 6//14
f  10//15 5//15 9//15
f  5//15 10//15 7//15

