# {"id":"BLDG_0003000b002ea12c","idOriginal":"BLDG_0003000b002ea12c","origin":[13.32762678742758,52.53005897174264],"elevation":34.3300018310547}
# Longitude: 13.32762678742758
# Latitude: 52.53005897174264
# Elevation: 34.3300018310547

# File produced by Open Asset Import Library (http://www.assimp.sf.net)
# (assimp v3.1.0)

mtllib BLDG_0003000b002ea12c.obj.mtl

# 10 vertex positions
v  5.3504e-05 2.51602 -7.96197e-05
v  4.76851 2.51602 -15.1774
v  0.172861 2.51602 -15.1928
v  5.37238 2.51602 -15.1757
v  5.46967 2.51602 -0.00098291
v  0.172808 9.30288e-16 -15.1928
v  0 0 0
v  5.46962 5.53105e-20 -0.00090329
v  5.37233 9.29238e-16 -15.1756
v  4.76846 9.29343e-16 -15.1773

# 0 UV coordinates

# 13 vertex normals
vn 0 1 0
vn -0.999935 2.0904e-05 -0.0113736
vn -0.999935 2.09026e-05 -0.0113736
vn 0.000165147 3.16415e-05 1
vn 0.000165147 3.16419e-05 1
vn 0.999979 -2.14279e-05 -0.00641139
vn 0.999979 -2.16184e-05 -0.00641136
vn 0.00285531 -3.15214e-05 -0.999996
vn 0.00335656 -3.15315e-05 -0.999994
vn 0.00335656 -3.1532e-05 -0.999994
vn 0 -1 -6.12323e-17
vn 1.21465e-23 -1 -6.12323e-17
vn -9.24368e-23 -1 -6.12323e-17

# Mesh 'defaultobject' with 16 faces
g defaultobject
usemtl DefaultMaterial
f  1//1 2//1 3//1
f  2//1 1//1 4//1
f  4//1 1//1 5//1
f  1//2 6//2 7//2
f  6//2 1//2 3//3
f  8//4 1//4 7//4
f  1//4 8//4 5//5
f  9//6 5//6 8//6
f  5//6 9//6 4//7
f  2//8 9//8 10//8
f  9//8 2//8 4//8
f  3//9 10//9 6//9
f  10//9 3//9 2//10
f  6//11 8//11 7//11
f  8//11 6//11 10//12
f  8//11 10//12 9//13

