# {"id":"BLDG_0003000e00074a4c","idOriginal":"BLDG_0003000e00074a4c","origin":[13.399393436193451,52.52767548004258],"elevation":35.8199996948242}
# Longitude: 13.399393436193451
# Latitude: 52.52767548004258
# Elevation: 35.8199996948242

# File produced by Open Asset Import Library (http://www.assimp.sf.net)
# (assimp v3.1.0)

mtllib BLDG_0003000e00074a4c.obj.mtl

# 10 vertex positions
v  15.6913 18.6318 2.29039
v  0.00030864 14.4476 -0.00045708
v  1.58282 18.6318 6.20912
v  14.1088 14.4476 -3.9192
v  17.2737 14.4476 8.50023
v  3.16516 14.4476 12.419
v  0 0 0
v  17.2734 -5.20517e-16 8.50069
v  3.16485 -7.60471e-16 12.4194
v  14.1085 2.39954e-16 -3.91874

# 0 UV coordinates

# 16 vertex normals
vn -0.146342 0.837251 -0.526872
vn -0.146342 0.837251 -0.526872
vn 0.146339 0.837259 0.52686
vn 0.146339 0.837259 0.52686
vn 4.51457e-24 -1 -6.12323e-17
vn -2.25729e-24 -1 -6.12323e-17
vn -0.969031 2.85164e-05 0.246938
vn -0.969031 2.85135e-05 0.246938
vn -0.969031 2.8525e-05 0.246939
vn -0.267625 -2.47658e-05 -0.963523
vn -0.267625 -2.47572e-05 -0.963523
vn 0.969031 -2.85365e-05 -0.246939
vn 0.969031 -2.84208e-05 -0.246938
vn 0.969031 -2.86673e-05 -0.246938
vn 0.267625 2.47399e-05 0.963523
vn 0.267625 2.48301e-05 0.963523

# Mesh 'defaultobject' with 16 faces
g defaultobject
usemtl DefaultMaterial
f  1//1 2//1 3//1
f  2//1 1//1 4//2
f  5//3 3//3 6//3
f  3//3 5//3 1//4
f  7//5 8//5 9//5
f  8//5 7//5 10//6
f  6//7 7//7 9//7
f  7//7 6//7 2//8
f  2//8 6//7 3//9
f  2//10 10//10 7//10
f  10//10 2//10 4//11
f  4//12 8//12 10//12
f  8//12 4//12 5//13
f  5//13 4//12 1//14
f  8//15 6//15 9//15
f  6//15 8//15 5//16

