# {"id":"BLDG_0003000e0052eaab","idOriginal":"BLDG_0003000e0052eaab","origin":[13.35148731595987,52.54185992740806],"elevation":34.7200012207031}
# Longitude: 13.35148731595987
# Latitude: 52.54185992740806
# Elevation: 34.7200012207031

# File produced by Open Asset Import Library (http://www.assimp.sf.net)
# (assimp v3.1.0)

mtllib BLDG_0003000e0052eaab.obj.mtl

# 43 vertex positions
v  9.03934 23.7474 -29.8306
v  7.81943 2.06904e-15 -33.79
v  7.81985 19.9973 -33.7906
v  10.7605 22.3365 -24.241
v  11.713 22.9798 -21.1476
v  16.6198 22.9798 -5.21258
v  9.03884 1.82655e-15 -29.8299
v  10.76 1.48429e-15 -24.2402
v  11.7125 1.29487e-15 -21.1468
v  20.1046 22.9798 6.10465
v  16.6193 3.19134e-16 -5.21185
v  22.769 22.9798 14.7574
v  20.1041 -3.73847e-16 6.10538
v  22.7685 -9.03673e-16 14.7581
v  17.2486 -1.00857e-15 16.4711
v  14.5897 18.2 7.83425
v  14.5893 -1.2207e-06 7.83483
v  14.5897 19.9973 7.8342
v  17.2491 19.9973 16.4705
v  11.1045 -1.2207e-06 -3.4824
v  6.19456 19.9973 -19.4298
v  6.19414 1.18969e-15 -19.4291
v  11.1049 19.9973 -3.48303
v  11.1049 18.2 -3.48298
v  -8.90946 19.9973 -28.5833
v  -5.93575 22.3365 -19.0439
v  -7.67624 23.7474 -24.6275
v  -4.97255 19.9973 -15.9538
v  -8.90989 1.75018e-15 -28.5827
v  -4.97297 9.76849e-16 -15.9532
v  -7.67675 1.50796e-15 -24.6268
v  -5.93622 1.16606e-15 -19.0432
v  2.30146 19.9973 -32.0729
v  2.30103 1.96386e-15 -32.0723
v  3.5244 18.2 11.3044
v  1.76201 -1.2207e-06 5.65247
v  3.52402 -1.2207e-06 11.3049
v  0 -1.2207e-06 -7.47465e-23
v  0.000387629 18.2 -0.00057637
v  1.76248 21.97 5.65177
v  17.0255 21.97 0.865252
v  5.24209 22.3365 -22.5232
v  3.52095 23.7474 -28.1129

# 0 UV coordinates

# 76 vertex normals
vn 0.955717 -2.96711e-05 -0.294287
vn 0.955717 -2.97035e-05 -0.294287
vn 0.955717 -2.95357e-05 -0.294287
vn 0.955717 -2.96892e-05 -0.294287
vn 0.955717 -2.97662e-05 -0.294287
vn 0.955717 -2.98023e-05 -0.294287
vn 0.955717 -2.97721e-05 -0.294287
vn 0.955717 -2.96633e-05 -0.294287
vn 0.955717 -2.9749e-05 -0.294287
vn 0.955717 -2.98134e-05 -0.294287
vn 0.955717 -2.96633e-05 -0.294287
vn 0.955717 -2.96117e-05 -0.294287
vn -0.955717 2.96429e-05 0.294287
vn -0.955717 2.96544e-05 0.294287
vn -0.955717 2.97441e-05 0.294287
vn -0.955717 2.96792e-05 0.294287
vn -0.955717 2.9702e-05 0.294287
vn 0.713181 6.99388e-06 0.700979
vn -0.955717 2.95763e-05 0.294287
vn -0.954691 2.98673e-05 0.297599
vn -0.954691 2.96467e-05 0.297599
vn -0.954691 2.97773e-05 0.297599
vn -0.954691 2.97528e-05 0.2976
vn -5.55112e-16 -1 5.55112e-17
vn 6.10623e-16 1 -1.38778e-16
vn -0.297204 -2.39069e-05 -0.954814
vn -0.297205 -2.3964e-05 -0.954814
vn -0.297204 -2.37314e-05 -0.954814
vn -0.297205 -2.38998e-05 -0.954814
vn -0.954691 2.97698e-05 0.2976
vn -0.954691 2.97632e-05 0.2976
vn -0.954691 2.97579e-05 0.2976
vn -0.954691 2.96939e-05 0.2976
vn 0.296398 2.3913e-05 0.955064
vn 0.296398 2.39473e-05 0.955064
vn 0.297205 2.38949e-05 0.954814
vn 0.299233 2.38758e-05 0.95418
vn 0.299233 2.38577e-05 0.95418
vn -0.299233 -2.38445e-05 -0.95418
vn -0.299233 -2.38426e-05 -0.95418
vn 0 -1 0
vn -1.43343e-23 -1 -6.12323e-17
vn 1.91558e-23 -1 -6.12324e-17
vn 7.47417e-24 -1 -6.12323e-17
vn -4.13294e-24 -1 -6.12323e-17
vn -5.16862e-24 -1 -6.12323e-17
vn -6.63178e-24 -1 -6.12323e-17
vn 4.00395e-08 -1 1.29016e-07
vn 2.01859e-07 -1 -6.21568e-08
vn 6.70682e-08 -1 -2.09068e-08
vn 6.69828e-08 -1 -2.06255e-08
vn 0.288996 0.259336 0.921535
vn 1.79967e-07 -1 -1.31965e-07
vn 0.623568 -0.757823 -0.19201
vn -0.438275 0.888652 0.134955
vn -0.438275 0.888652 0.134955
vn -0.438275 0.888652 0.134955
vn -0.438275 0.888652 0.134955
vn -0.438275 0.888652 0.134955
vn -0.438275 0.888652 0.134955
vn 0.174088 0.810492 0.559282
vn 0.174087 0.810492 0.559283
vn 0.174087 0.810493 0.559281
vn 0.0696982 0.972113 0.223916
vn 0.0696979 0.972113 0.223916
vn 0.0696983 0.972113 0.223916
vn 0.069699 0.972113 0.223917
vn -0.199436 0.741421 -0.640718
vn -0.199436 0.741421 -0.640718
vn -0.199437 0.741421 -0.640718
vn -0.199436 0.741423 -0.640716
vn -0.483172 0.874898 -0.033157
vn 0.160718 0.843519 0.51249
vn 0.160718 0.843519 0.512489
vn -0.160722 0.843512 -0.512501
vn -0.160722 0.843512 -0.512501

# Mesh 'defaultobject' with 82 faces
g defaultobject
usemtl DefaultMaterial
f  1//1 2//1 3//1
f  2//1 1//1 4//2
f  2//1 4//2 5//3
f  2//1 5//3 6//4
f  2//1 6//4 7//5
f  7//5 6//4 8//6
f  8//6 6//4 9//7
f  9//7 6//4 10//8
f  9//7 10//8 11//9
f  11//9 10//8 12//10
f  11//9 12//10 13//11
f  13//11 12//10 14//12
f  15//13 16//13 17//13
f  16//13 15//13 18//14
f  18//14 15//13 19//15
f  20//16 21//16 22//16
f  21//16 20//16 23//17
f  23//18 20//18 24//18
f  23//17 24//19 16//13
f  23//17 16//13 18//14
f  25//20 26//20 27//20
f  26//20 25//20 28//21
f  28//21 25//20 29//22
f  28//21 29//22 30//23
f  30//24 29//24 31//24
f  30//25 31//25 32//25
f  2//26 33//26 3//26
f  33//26 2//26 25//27
f  25//27 2//26 34//28
f  25//27 34//28 29//29
f  35//30 36//30 37//30
f  36//30 35//30 38//31
f  38//31 35//30 39//32
f  39//32 35//30 40//33
f  14//34 19//34 15//34
f  19//34 14//34 12//35
f  22//36 28//36 30//36
f  28//36 22//36 21//36
f  17//37 35//37 37//37
f  35//37 17//37 16//38
f  39//39 20//39 38//39
f  20//39 39//39 24//40
f  36//41 17//41 37//41
f  32//42 22//42 30//24
f  22//42 32//42 31//24
f  22//42 31//24 9//43
f  9//43 31//24 8//44
f  8//44 31//24 29//24
f  8//44 29//24 7//45
f  7//45 29//24 34//46
f  7//45 34//46 2//47
f  17//41 14//48 15//48
f  14//48 17//41 13//49
f  13//49 17//41 36//41
f  13//49 36//41 38//50
f  13//49 38//50 11//51
f  11//52 38//52 20//52
f  11//51 20//53 22//42
f  11//51 22//42 9//43
f  16//54 24//54 41//54
f  12//55 18//55 19//55
f  18//55 12//55 23//56
f  23//56 12//55 21//57
f  21//57 12//55 10//58
f  21//57 10//58 6//59
f  21//57 6//59 5//60
f  42//61 21//61 4//61
f  21//61 42//61 26//62
f  21//61 26//62 28//63
f  1//64 42//64 4//64
f  42//64 1//64 26//65
f  26//65 1//64 43//66
f  26//65 43//66 27//67
f  3//68 43//68 1//68
f  43//68 3//68 33//69
f  43//68 33//69 27//70
f  27//70 33//69 25//71
f  4//72 21//72 5//72
f  40//73 16//73 41//73
f  16//73 40//73 35//74
f  39//75 41//75 24//75
f  41//75 39//75 40//76

