# {"id":"BLDG_00030000001c7781","idOriginal":"BLDG_00030000001c7781","origin":[13.345457681947327,52.555592503003105],"elevation":36.3699989318848}
# Longitude: 13.345457681947327
# Latitude: 52.555592503003105
# Elevation: 36.3699989318848

# File produced by Open Asset Import Library (http://www.assimp.sf.net)
# (assimp v3.1.0)

mtllib BLDG_00030000001c7781.obj.mtl

# 26 vertex positions
v  0 0 0
v  8.84216 1.52503e-16 -2.49057
v  3.31234 -1.96807e-16 3.2141
v  5.52983 3.4931e-16 -5.70466
v  3.90287 0.23 -14.3056
v  -3.93635 0.23 -14.8639
v  -0.355663 0.23 -18.4271
v  -4.50062 0.23 -14.3024
v  0.385884 0.23 -10.6807
v  -0.160056 0.23 -10.118
v  8.85885 0.220001 -2.48025
v  3.90287 0.220001 -14.3056
v  12.3758 0.220001 -6.10508
v  0.385884 0.220001 -10.6807
v  3.31265 14.4989 3.21364
v  8.84247 14.4989 -2.49103
v  0.000294571 13.8356 -0.00043855
v  5.53012 13.8356 -5.7051
v  -0.355227 20.71 -18.4278
v  3.90331 20.71 -14.3062
v  12.3763 20.71 -6.10573
v  -3.93591 20.71 -14.8646
v  -4.50018 20.71 -14.3031
v  0.386283 18.95 -10.6813
v  -0.159658 18.95 -10.1186
v  8.85925 18.95 -2.48084

# 0 UV coordinates

# 41 vertex normals
vn 0 -1 -6.12323e-17
vn 0 -1 0
vn 0.718024 6.77216e-06 0.696018
vn -0.696384 3.75823e-05 0.717669
vn -0.696384 3.75748e-05 0.717669
vn -0.718024 -6.77457e-06 -0.696018
vn -0.718024 -6.80041e-06 -0.696018
vn 0.696384 -3.75807e-05 -0.717669
vn 0.696384 -3.75754e-05 -0.71767
vn 0.695458 -3.75603e-05 -0.718567
vn 0.695458 -3.75418e-05 -0.718567
vn 0.695458 -3.76342e-05 -0.718567
vn 0.695458 -3.76007e-05 -0.718567
vn 0.695458 0 -0.718567
vn -0.705373 -7.42726e-06 -0.708836
vn -0.705373 -7.51679e-06 -0.708836
vn -0.705373 -7.41802e-06 -0.708836
vn 0 1 0
vn 0.717703 6.80072e-06 0.696349
vn 0.717703 6.80076e-06 0.696349
vn 0.717703 6.78399e-06 0.696349
vn 0.717703 6.78502e-06 0.696349
vn 0.717703 6.79483e-06 0.696349
vn 0.717703 6.77333e-06 0.696349
vn -0.695458 3.75772e-05 0.718567
vn -0.695431 1.45103e-05 0.718593
vn -0.695458 3.75767e-05 0.718567
vn -0.717703 1.4975e-05 -0.696349
vn -0.717703 1.71142e-05 -0.696349
vn -0.717703 -6.79846e-06 -0.696349
vn -0.717703 -6.80071e-06 -0.696349
vn -0.694037 3.75894e-05 0.719939
vn -0.694037 3.75826e-05 0.719939
vn -0.102144 0.98983 -0.0990139
vn -0.102144 0.98983 -0.0990139
vn -0.228849 0.944308 0.236453
vn -0.228849 0.944308 0.236453
vn -0.228849 0.944308 0.236453
vn 0.198118 0.959746 0.19909
vn 0.201548 0.959759 0.195551
vn 0.197701 0.959919 0.198672

# Mesh 'defaultobject' with 48 faces
g defaultobject
usemtl DefaultMaterial
f  1//1 2//1 3//1
f  2//1 1//1 4//1
f  5//2 6//2 7//2
f  6//2 5//2 8//2
f  8//2 5//2 9//2
f  8//2 9//2 10//2
f  11//2 12//2 13//2
f  12//2 11//2 14//2
f  2//3 15//3 3//3
f  15//3 2//3 16//3
f  15//4 1//4 3//4
f  1//4 15//4 17//5
f  17//6 4//6 1//6
f  4//6 17//6 18//7
f  4//8 16//8 2//8
f  16//8 4//8 18//9
f  19//10 5//10 7//10
f  5//10 19//10 13//11
f  13//11 19//10 20//12
f  13//11 20//12 21//13
f  13//14 12//14 5//14
f  7//15 22//15 19//15
f  22//15 7//15 23//16
f  23//16 7//15 8//17
f  8//18 7//18 6//18
f  20//19 9//19 5//19
f  9//19 20//19 10//20
f  10//20 20//19 24//21
f  25//22 10//20 24//21
f  13//23 26//23 11//23
f  26//23 13//23 21//24
f  26//25 14//25 11//25
f  14//26 26//26 9//26
f  9//27 26//25 24//27
f  9//28 12//28 14//28
f  12//28 9//28 5//29
f  5//30 9//30 24//30
f  5//30 24//30 20//31
f  25//32 8//32 10//32
f  8//32 25//32 23//33
f  17//34 16//34 18//34
f  16//34 17//34 15//35
f  24//36 20//36 19//36
f  20//36 24//36 21//37
f  21//37 24//36 26//38
f  22//39 24//39 19//39
f  24//40 22//40 25//40
f  25//41 22//41 23//41

