# {"id":"BLDG_00030009007e10ae","idOriginal":"BLDG_00030009007e10ae","origin":[13.398680456978123,52.547952700192376],"elevation":48.2999992370605}
# Longitude: 13.398680456978123
# Latitude: 52.547952700192376
# Elevation: 48.2999992370605

# File produced by Open Asset Import Library (http://www.assimp.sf.net)
# (assimp v3.1.0)

mtllib BLDG_00030009007e10ae.obj.mtl

# 8 vertex positions
v  2.18451 3.49694e-16 -5.71093
v  3.74479 -8.64707e-17 1.41217
v  0 0 0
v  6.02237 2.53748e-16 -4.14403
v  3.74486 3.11138 1.41208
v  2.18458 3.11138 -5.71103
v  6.6468e-05 3.11138 -9.85702e-05
v  6.02244 3.11138 -4.14412

# 0 UV coordinates

# 9 vertex normals
vn 0 -1 -6.12323e-17
vn 0 1 0
vn -0.352848 3.71823e-05 0.935681
vn 0.925279 -7.70759e-06 0.379287
vn 0.925279 -7.80968e-06 0.379287
vn 0.377986 -3.74514e-05 -0.925811
vn 0.377986 -3.72806e-05 -0.925811
vn -0.934001 8.63446e-06 -0.357269
vn -0.934001 8.6342e-06 -0.357269

# Mesh 'defaultobject' with 12 faces
g defaultobject
usemtl DefaultMaterial
f  1//1 2//1 3//1
f  2//1 1//1 4//1
f  5//2 6//2 7//2
f  6//2 5//2 8//2
f  7//3 2//3 5//3
f  2//3 7//3 3//3
f  5//4 4//4 8//4
f  4//4 5//4 2//5
f  6//6 4//6 1//6
f  4//6 6//6 8//7
f  7//8 1//8 3//8
f  1//8 7//8 6//9

