# {"id":"BLDG_000300080002fb3a","idOriginal":"BLDG_000300080002fb3a","origin":[13.410132261574786,52.524448357580646],"elevation":36.2200012207031}
# Longitude: 13.410132261574786
# Latitude: 52.524448357580646
# Elevation: 36.2200012207031

# File produced by Open Asset Import Library (http://www.assimp.sf.net)
# (assimp v3.1.0)

mtllib BLDG_000300080002fb3a.obj.mtl

# 41 vertex positions
v  10.2411 1.2702e-15 -20.744
v  18.1256 2.32415e-16 -3.79562
v  5.03419 6.24388e-16 -10.197
v  23.3326 8.78231e-16 -14.3426
v  32.3883 -1.94627e-16 3.1785
v  47.0667 -8.6293e-16 14.0927
v  30.9009 -3.79891e-16 6.20409
v  48.5477 -6.78461e-16 11.0801
v  16.6275 4.66026e-17 -0.761078
v  3.53087 4.37932e-16 -7.15198
v  43.5479 -1.30122e-15 21.2506
v  27.3821 -8.18185e-16 13.362
v  13.0966 -3.9133e-16 6.3909
v  0 0 0
v  43.5484 21.1528 21.2499
v  47.0671 21.1528 14.092
v  27.3826 22.5047 13.3613
v  13.0972 26.4268 6.39007
v  27.3827 26.4268 13.3611
v  16.6279 20.4905 -0.761726
v  30.9013 20.4905 6.20345
v  30.393 21.3481 7.23743
v  13.0972 26.43 6.39007
v  0.000438017 20.49 -0.0006481
v  6.54886 26.43 3.19461
v  3.53131 20.49 -7.15263
v  5.03463 20.4905 -10.1977
v  10.2416 20.4905 -20.7447
v  23.333 20.4905 -14.3432
v  16.7874 26.4268 -17.5441
v  18.126 20.4905 -3.79627
v  30.9014 22.5047 6.20338
v  30.9013 21.1528 6.20343
v  47.0672 22.5047 14.092
v  32.3887 21.1528 3.17783
v  48.5481 21.1528 11.0794
v  3.53131 20.4905 -7.15263
v  10.0797 26.43 -3.95736
v  16.6279 20.49 -0.761726
v  11.5805 26.4268 -6.99716
v  10.0797 26.4268 -3.95736

# 0 UV coordinates

# 55 vertex normals
vn -4.94166e-24 -1 -6.12323e-17
vn 4.94166e-24 -1 -6.12323e-17
vn 3.4918e-24 -1 -6.12323e-17
vn 1.05205e-23 -1 -6.12324e-17
vn 2.13952e-24 -1 -6.12323e-17
vn -5.90385e-24 -1 -6.12323e-17
vn 0 -1 -6.12323e-17
vn -3.64372e-24 -1 -6.12323e-17
vn 0.897423 -5.13254e-06 0.441171
vn 0.897423 -5.29081e-06 0.441171
vn -0.438552 3.78254e-05 0.898706
vn -0.438552 3.77767e-05 0.898706
vn -0.438552 3.78137e-05 0.898706
vn -0.438552 3.785e-05 0.898706
vn 0.438552 -3.78163e-05 -0.898706
vn 0.438552 -3.78111e-05 -0.898706
vn -0.897423 5.13122e-06 -0.441171
vn -0.438552 3.7807e-05 0.898706
vn -0.438552 3.78011e-05 0.898706
vn -0.438552 3.7723e-05 0.898706
vn -0.896678 5.16631e-06 -0.442683
vn -0.896678 5.16616e-06 -0.442683
vn -0.896678 5.14529e-06 -0.442683
vn -0.896678 5.18702e-06 -0.442683
vn 0.439275 -3.78363e-05 -0.898353
vn 0.439275 -3.77954e-05 -0.898353
vn 0.439275 -3.78793e-05 -0.898353
vn 0.896678 -5.19146e-06 0.442683
vn 0.896678 -5.0965e-06 0.442683
vn -0.438552 3.73332e-05 0.898706
vn -0.438552 3.76469e-05 0.898706
vn -0.897423 5.29631e-06 -0.441172
vn -0.897423 5.14432e-06 -0.441171
vn 0.439275 -3.77602e-05 -0.898353
vn 0.439275 -3.78597e-05 -0.898353
vn 0.897423 -5.37762e-06 0.441171
vn 0.897423 -5.29826e-06 0.441171
vn -0.896678 5.16602e-06 -0.442683
vn 0.896678 -5.19167e-06 0.442683
vn 0.897423 -6.70068e-06 0.441171
vn 0.0732908 0.985936 -0.150192
vn 0.0672602 0.997187 0.033065
vn 0.261843 0.802195 -0.536583
vn 0.261843 0.802195 -0.536583
vn -0.566579 0.775079 -0.279716
vn 0.566582 0.775076 0.279717
vn 0.261949 0.802014 -0.536801
vn -0.566364 0.775274 -0.279609
vn 0.566367 0.775272 0.279611
vn 0.566367 0.775272 0.279611
vn 0.164104 0.927598 -0.335606
vn 0.163229 0.928153 -0.334498
vn -0.566364 0.775274 -0.279609
vn -0.566364 0.775274 -0.279609
vn 0.566367 0.775272 0.279611

# Mesh 'defaultobject' with 64 faces
g defaultobject
usemtl DefaultMaterial
f  1//1 2//1 3//1
f  2//1 1//1 4//2
f  5//3 6//3 7//3
f  6//3 5//3 8//4
f  3//1 9//5 10//5
f  9//5 3//1 2//1
f  7//3 11//6 12//6
f  11//6 7//3 6//3
f  9//5 12//6 13//7
f  12//6 9//5 7//3
f  10//5 13//7 14//8
f  13//7 10//5 9//5
f  6//9 15//9 11//9
f  15//9 6//9 16//10
f  11//11 17//11 12//11
f  17//11 11//11 15//12
f  12//11 18//13 13//13
f  18//13 12//11 19//14
f  20//15 7//15 9//15
f  7//15 20//15 21//16
f  22//17 17//17 19//17
f  23//18 14//18 13//13
f  14//18 23//18 24//19
f  24//19 23//18 25//20
f  24//21 10//21 14//21
f  10//21 24//21 26//22
f  27//23 1//23 3//23
f  1//23 27//23 28//24
f  28//25 4//25 1//25
f  4//25 28//25 29//26
f  29//26 28//25 30//27
f  4//28 31//28 2//28
f  31//28 4//28 29//29
f  16//30 32//30 33//30
f  32//30 16//30 34//31
f  32//32 5//32 7//32
f  5//32 32//32 35//33
f  35//34 8//34 5//34
f  8//34 35//34 36//35
f  8//36 34//36 6//9
f  34//36 8//36 36//37
f  37//38 3//23 10//21
f  3//23 37//38 27//23
f  2//28 20//39 9//39
f  20//39 2//28 31//28
f  33//40 22//40 21//40
f  17//41 16//41 33//41
f  16//42 17//42 15//42
f  20//43 19//43 21//43
f  19//43 20//43 18//44
f  26//45 25//45 38//45
f  25//45 26//45 24//45
f  25//46 39//46 38//46
f  25//47 23//47 39//47
f  28//48 40//48 30//48
f  40//48 28//48 27//48
f  30//49 31//49 29//49
f  31//49 30//49 40//50
f  35//51 34//51 36//51
f  34//52 35//52 32//52
f  27//48 41//53 40//48
f  41//53 27//48 37//54
f  40//50 20//55 31//49
f  20//55 40//50 41//49

