# {"id":"BLDG_0003000f00410b77","idOriginal":"BLDG_0003000f00410b77","origin":[13.326491959317094,52.54331098467624],"elevation":34.8199996948242}
# Longitude: 13.326491959317094
# Latitude: 52.54331098467624
# Elevation: 34.8199996948242

# File produced by Open Asset Import Library (http://www.assimp.sf.net)
# (assimp v3.1.0)

mtllib BLDG_0003000f00410b77.obj.mtl

# 76 vertex positions
v  3.476 3.73226 4.35072
v  10.9052 3.73226 -8.70994
v  7.9365e-05 3.73226 -0.00011821
v  5.87946 3.73226 2.4396
v  6.82895 3.73226 3.3456
v  11.2125 3.73226 -1.63861
v  11.7141 3.73226 0.175809
v  11.7937 3.73226 -2.05057
v  12.4122 3.73226 -2.40368
v  13.0626 3.73226 -2.69453
v  13.7382 3.73226 -2.92033
v  14.4327 3.73226 -3.07891
v  11.2501 3.73226 -9.45242
v  10.6721 3.73226 -9.00214
v  15.1393 3.73226 -3.16875
v  11.8732 3.73226 -9.83827
v  15.8513 3.73226 -3.18898
v  12.5341 3.73226 -10.1553
v  16.562 3.73226 -3.13942
v  13.2251 3.73226 -10.3998
v  17.2643 3.73226 -3.02053
v  13.9381 3.73226 -10.569
v  17.9517 3.73226 -2.83347
v  14.6652 3.73226 -10.661
v  18.6173 3.73226 -2.58001
v  19.2551 3.73226 -2.26261
v  15.3978 3.73226 -10.6747
v  24.5152 3.73226 2.12329
v  19.0173 3.73226 -0.335162
v  16.1277 3.73226 -10.6099
v  16.8467 3.73226 -10.4675
v  17.5462 3.73226 -10.249
v  18.6149 3.73226 -9.18818
v  18.2184 3.73226 -9.95687
v  25.6045 3.73226 0.89711
v  32.0277 3.73226 -1.23949
v  29.4532 3.73226 3.1492
v  18.8554 3.73226 -9.59457
v  11.714 -1.07725e-17 0.175928
v  6.82887 -2.04866e-16 3.34572
v  11.2124 1.00328e-16 -1.63849
v  11.7936 1.25554e-16 -2.05046
v  12.4122 1.47176e-16 -2.40356
v  13.0625 1.64985e-16 -2.69441
v  13.7381 1.78811e-16 -2.92021
v  14.4326 1.88522e-16 -3.07879
v  15.1392 1.94023e-16 -3.16863
v  15.8512 1.95262e-16 -3.18887
v  16.5619 1.92227e-16 -3.1393
v  17.2643 1.84947e-16 -3.02041
v  17.9516 1.73492e-16 -2.83335
v  18.6172 1.57973e-16 -2.5799
v  19.255 1.38537e-16 -2.26249
v  19.0172 2.05155e-17 -0.335044
v  24.5151 -1.30021e-16 2.12341
v  25.6044 -5.49394e-17 0.897228
v  29.4532 -1.9284e-16 3.14932
v  32.0277 7.58894e-17 -1.23937
v  18.6148 5.62607e-16 -9.18806
v  18.8553 5.87491e-16 -9.59446
v  18.2184 6.09676e-16 -9.95676
v  17.5462 6.2756e-16 -10.2488
v  16.8466 6.40941e-16 -10.4674
v  16.1277 6.49664e-16 -10.6098
v  15.3977 6.53629e-16 -10.6746
v  14.6651 6.52791e-16 -10.6609
v  13.938 6.47158e-16 -10.5689
v  13.225 6.36796e-16 -10.3997
v  12.534 6.21824e-16 -10.1552
v  11.8731 6.02413e-16 -9.83815
v  11.25 5.78786e-16 -9.4523
v  10.672 5.51215e-16 -9.00202
v  10.9051 5.33323e-16 -8.70983
v  0 0 0
v  3.47592 -2.66412e-16 4.35084
v  5.87938 -1.4939e-16 2.43972

# 0 UV coordinates

# 96 vertex normals
vn 0 1 0
vn 0.544319 1.50064e-05 0.838878
vn 0.963843 -2.8878e-05 -0.266472
vn 0.963843 -2.88865e-05 -0.266472
vn 0.578266 1.35845e-05 0.815848
vn 0.495764 1.70016e-05 0.868457
vn 0.495763 1.68727e-05 0.868458
vn 0.408267 2.01643e-05 0.912863
vn 0.316965 2.32477e-05 0.948437
vn 0.316966 2.33262e-05 0.948437
vn 0.222608 2.61676e-05 0.974908
vn 0.126129 2.87568e-05 0.992014
vn 0.126129 2.86924e-05 0.992014
vn 0.0284036 3.10057e-05 0.999597
vn 0.0284039 3.10698e-05 0.999597
vn -0.0695753 3.30836e-05 0.997577
vn -0.0695754 3.30654e-05 0.997577
vn -0.166899 3.47362e-05 0.985974
vn -0.262616 3.60739e-05 0.9649
vn -0.262616 3.62083e-05 0.9649
vn -0.355859 3.725e-05 0.93454
vn -0.355859 3.7194e-05 0.93454
vn -0.445515 3.78715e-05 0.895274
vn -0.445515 3.79331e-05 0.895275
vn -0.992476 1.7425e-05 -0.122436
vn -0.992476 1.7423e-05 -0.122436
vn -0.40821 3.76758e-05 0.912888
vn -0.40821 3.74637e-05 0.912888
vn 0.747621 5.37494e-06 0.664126
vn 0.74762 4.98545e-06 0.664126
vn -0.505036 3.822e-05 0.863098
vn -0.505036 3.79335e-05 0.863098
vn 0.862542 -2.05901e-06 0.505986
vn 0.862542 -2.51098e-06 0.505986
vn 0.509818 -3.82005e-05 -0.860283
vn 0.860532 -2.32912e-06 0.509397
vn 0.494401 -3.81532e-05 -0.869234
vn 0.398527 -3.76138e-05 -0.917157
vn 0.298182 -3.64911e-05 -0.954509
vn 0.298181 -3.66435e-05 -0.954509
vn 0.19436 -3.50016e-05 -0.98093
vn 0.194359 -3.51529e-05 -0.98093
vn 0.088356 -3.34347e-05 -0.996089
vn 0.0883572 -3.32028e-05 -0.996089
vn -0.0186866 -3.12829e-05 -0.999825
vn -0.125508 -2.87403e-05 -0.992093
vn -0.125508 -2.87724e-05 -0.992093
vn -0.230927 -2.58717e-05 -0.972971
vn -0.333605 -2.27944e-05 -0.942713
vn -0.333605 -2.27092e-05 -0.942713
vn -0.43248 -1.93962e-05 -0.901644
vn -0.526448 -1.5639e-05 -0.850208
vn -0.526448 -1.57735e-05 -0.850207
vn -0.614567 -1.1961e-05 -0.788864
vn -0.614567 -1.1804e-05 -0.788865
vn -0.781758 3.65376e-05 0.623582
vn -0.781757 3.63378e-05 0.623583
vn -0.624073 -1.14772e-05 -0.781366
vn -0.624073 -1.13624e-05 -0.781366
vn -0.781285 3.63965e-05 0.624175
vn -0.781285 3.63829e-05 0.624175
vn 0.62238 1.15667e-05 0.782715
vn 0.62238 1.15251e-05 0.782715
vn -0.690345 3.75643e-05 0.72348
vn -0.690346 3.76525e-05 0.72348
vn -3.09589e-24 -1 -6.12323e-17
vn -1.40509e-24 -1 -6.12323e-17
vn 0 -1 -6.12323e-17
vn 7.1197e-24 -1 -6.12323e-17
vn 0 -1 -6.12323e-17
vn 6.63486e-25 -1 -6.12323e-17
vn -2.08991e-23 -1 -6.12323e-17
vn 2.91551e-23 -1 -6.12323e-17
vn 5.81577e-24 -1 -6.12323e-17
vn -1.48036e-24 -1 -6.12323e-17
vn -2.07954e-23 -1 -6.12323e-17
vn 3.89886e-24 -1 -6.12323e-17
vn 6.74612e-24 -1 -6.12323e-17
vn -7.14873e-24 -1 -6.12323e-17
vn -4.86431e-24 -1 -6.12323e-17
vn 1.48112e-24 -1 -6.12323e-17
vn 0 -1 -6.12323e-17
vn -1.74942e-25 -1 -6.12323e-17
vn 2.98064e-24 -1 -6.12322e-17
vn 1.23814e-23 -1 -6.12324e-17
vn 6.44533e-24 -1 -6.12324e-17
vn -6.14144e-24 -1 -6.12323e-17
vn 1.86303e-23 -1 -6.12324e-17
vn -4.61403e-23 -1 -6.12322e-17
vn 1.01317e-23 -1 -6.12323e-17
vn 1.57807e-23 -1 -6.12323e-17
vn -9.37761e-23 -1 -6.1232e-17
vn 8.2362e-23 -1 -6.12325e-17
vn 2.31233e-22 -1 -6.1233e-17
vn -2.88075e-22 -1 -6.12316e-17
vn -9.72712e-24 -1 -6.12322e-17

# Mesh 'defaultobject' with 148 faces
g defaultobject
usemtl DefaultMaterial
f  1//1 2//1 3//1
f  2//1 1//1 4//1
f  2//1 4//1 5//1
f  2//1 5//1 6//1
f  6//1 5//1 7//1
f  2//1 6//1 8//1
f  2//1 8//1 9//1
f  2//1 9//1 10//1
f  2//1 10//1 11//1
f  2//1 11//1 12//1
f  2//1 13//1 14//1
f  13//1 2//1 12//1
f  13//1 12//1 15//1
f  13//1 15//1 16//1
f  16//1 15//1 17//1
f  16//1 17//1 18//1
f  18//1 17//1 19//1
f  18//1 19//1 20//1
f  20//1 19//1 21//1
f  20//1 21//1 22//1
f  22//1 21//1 23//1
f  22//1 23//1 24//1
f  24//1 23//1 25//1
f  24//1 25//1 26//1
f  24//1 26//1 27//1
f  28//1 26//1 29//1
f  26//1 28//1 27//1
f  27//1 28//1 30//1
f  30//1 28//1 31//1
f  31//1 28//1 32//1
f  32//1 28//1 33//1
f  32//1 33//1 34//1
f  33//1 28//1 35//1
f  33//1 35//1 36//1
f  36//1 35//1 37//1
f  38//1 34//1 33//1
f  39//2 5//2 40//2
f  5//2 39//2 7//2
f  41//3 7//3 39//3
f  7//3 41//3 6//4
f  42//5 6//5 41//5
f  6//5 42//5 8//5
f  43//6 8//6 42//6
f  8//6 43//6 9//7
f  44//8 9//8 43//8
f  9//8 44//8 10//8
f  45//9 10//9 44//9
f  10//9 45//9 11//10
f  46//11 11//11 45//11
f  11//11 46//11 12//11
f  47//12 12//12 46//12
f  12//12 47//12 15//13
f  48//14 15//14 47//14
f  15//14 48//14 17//15
f  49//16 17//16 48//16
f  17//16 49//16 19//17
f  50//18 19//18 49//18
f  19//18 50//18 21//18
f  51//19 21//19 50//19
f  21//19 51//19 23//20
f  52//21 23//21 51//21
f  23//21 52//21 25//22
f  53//23 25//23 52//23
f  25//23 53//23 26//24
f  29//25 53//25 54//25
f  53//25 29//25 26//26
f  55//27 29//27 54//27
f  29//27 55//27 28//28
f  56//29 28//29 55//29
f  28//29 56//29 35//30
f  57//31 35//31 56//31
f  35//31 57//31 37//32
f  58//33 37//33 57//33
f  37//33 58//33 36//34
f  33//35 58//35 59//35
f  58//35 33//35 36//35
f  60//36 33//36 59//36
f  33//36 60//36 38//36
f  34//37 60//37 61//37
f  60//37 34//37 38//37
f  32//38 61//38 62//38
f  61//38 32//38 34//38
f  31//39 62//39 63//39
f  62//39 31//39 32//40
f  30//41 63//41 64//41
f  63//41 30//41 31//42
f  27//43 64//43 65//43
f  64//43 27//43 30//44
f  24//45 65//45 66//45
f  65//45 24//45 27//45
f  22//46 66//46 67//46
f  66//46 22//46 24//47
f  20//48 67//48 68//48
f  67//48 20//48 22//48
f  18//49 68//49 69//49
f  68//49 18//49 20//50
f  16//51 69//51 70//51
f  69//51 16//51 18//51
f  13//52 70//52 71//52
f  70//52 13//52 16//53
f  14//54 71//54 72//54
f  71//54 14//54 13//55
f  2//56 72//56 73//56
f  72//56 2//56 14//57
f  3//58 73//58 74//58
f  73//58 3//58 2//59
f  1//60 74//60 75//60
f  74//60 1//60 3//61
f  76//62 1//62 75//62
f  1//62 76//62 4//63
f  5//64 76//64 40//64
f  76//64 5//64 4//65
f  74//66 76//66 75//66
f  54//67 56//67 55//67
f  56//67 54//67 53//68
f  76//66 39//69 40//69
f  39//69 76//66 74//66
f  39//69 74//66 41//70
f  41//70 74//66 73//71
f  41//70 73//71 42//70
f  42//70 73//71 43//72
f  43//72 73//71 44//73
f  44//73 73//71 45//74
f  45//74 73//71 46//75
f  46//75 73//71 47//76
f  47//76 73//71 48//77
f  48//77 73//71 49//78
f  49//78 73//71 50//79
f  50//79 73//71 51//80
f  51//80 73//71 58//81
f  58//81 73//71 59//82
f  59//82 73//71 72//83
f  59//82 72//83 71//84
f  59//82 71//84 70//85
f  59//82 70//85 69//86
f  59//82 69//86 68//87
f  59//82 68//87 67//88
f  59//82 67//88 66//89
f  59//82 66//89 60//90
f  60//90 66//89 65//91
f  60//90 65//91 64//92
f  60//90 64//92 61//93
f  61//93 64//92 63//94
f  61//93 63//94 62//95
f  56//67 58//81 57//82
f  58//81 56//67 53//68
f  58//81 53//68 52//96
f  58//81 52//96 51//80

