# {"id":"BLDG_0003000f0041426a","idOriginal":"BLDG_0003000f0041426a","origin":[13.38446125749614,52.5542563824208],"elevation":40.0699996948242}
# Longitude: 13.38446125749614
# Latitude: 52.5542563824208
# Elevation: 40.0699996948242

# File produced by Open Asset Import Library (http://www.assimp.sf.net)
# (assimp v3.1.0)

mtllib BLDG_0003000f0041426a.obj.mtl

# 18 vertex positions
v  6.75408 3.76908e-16 -6.15537
v  3.37739 16.5948 -3.07821
v  6.75437 13.8082 -6.15581
v  3.29564 1.83911e-16 -3.0035
v  0.000294719 13.8082 -0.000437629
v  0 0 0
v  13.6898 -1.02541e-15 16.7462
v  14.3572 13.8082 15.7528
v  13.6901 13.8082 16.7458
v  19.6017 13.8082 7.94101
v  19.6014 -4.86273e-16 7.94145
v  14.3569 -9.64608e-16 15.7532
v  7.16888 13.8082 12.3647
v  7.16859 -7.57146e-16 12.3651
v  8.90865 -5.98552e-16 9.77509
v  8.90895 13.8082 9.77466
v  12.8476 13.8082 14.0964
v  16.2247 16.5948 11.0186

# 0 UV coordinates

# 28 vertex normals
vn -0.673589 -9.02974e-06 -0.739106
vn -0.673589 -9.04229e-06 -0.739106
vn -0.673589 -9.04255e-06 -0.739106
vn -0.673589 -9.04789e-06 -0.739106
vn 0.830067 -7.46581e-08 0.557663
vn 0.83025 -2.84588e-05 0.557391
vn 0.830229 -1.04587e-07 0.557422
vn 2.29385e-19 1 6.13031e-17
vn -0.557661 3.8154e-05 0.830069
vn -0.830067 3.61415e-08 -0.557663
vn -0.830067 7.46513e-08 -0.557664
vn -0.739104 3.71237e-05 0.673591
vn -0.739104 3.71271e-05 0.673591
vn 0.739104 -3.71965e-05 -0.673592
vn 0.739104 -3.71386e-05 -0.673592
vn 0.673589 8.98814e-06 0.739106
vn -0 1 0
vn 0.384852 0.853739 -0.350739
vn 0.384852 0.853739 -0.350739
vn -0.384839 0.85375 0.350728
vn -0.384839 0.85375 0.350728
vn -0.384839 0.85375 0.350728
vn -3.59081e-24 -1 -6.12323e-17
vn 0 -1 -6.12323e-17
vn 1.21497e-24 -1 -6.12323e-17
vn 3.17736e-24 -1 -6.12323e-17
vn -1.72061e-19 -1 -6.13397e-17
vn 8.63841e-24 -1 -6.12323e-17

# Mesh 'defaultobject' with 32 faces
g defaultobject
usemtl DefaultMaterial
f  1//1 2//1 3//1
f  2//1 1//1 4//2
f  2//1 4//2 5//3
f  5//3 4//2 6//4
f  7//5 8//5 9//5
f  8//6 7//6 10//6
f  10//7 7//7 11//7
f  11//8 7//8 12//8
f  7//9 13//9 14//9
f  13//9 7//9 9//9
f  15//10 13//10 16//10
f  13//10 15//10 14//11
f  6//12 16//12 5//12
f  16//12 6//12 15//13
f  1//14 10//14 11//14
f  10//14 1//14 3//15
f  17//16 10//16 18//16
f  17//17 8//17 10//17
f  8//17 17//17 9//17
f  9//17 17//17 13//17
f  13//17 17//17 16//17
f  3//18 18//18 10//18
f  18//18 3//18 2//19
f  5//20 18//20 2//20
f  18//20 5//20 16//21
f  18//20 16//21 17//22
f  4//23 15//23 6//23
f  15//23 4//23 1//24
f  15//23 1//24 11//25
f  15//23 11//25 7//26
f  7//26 11//25 12//27
f  7//26 14//28 15//23

