# {"id":"BLDG_0003000b0049a736","idOriginal":"BLDG_0003000b0049a736","origin":[13.315098186629683,52.530258518025605],"elevation":35.89}
# Longitude: 13.315098186629683
# Latitude: 52.530258518025605
# Elevation: 35.89

# File produced by Open Asset Import Library (http://www.assimp.sf.net)
# (assimp v3.1.0)

mtllib BLDG_0003000b0049a736.obj.mtl

# 50 vertex positions
v  16.5947 -6.10352e-07 13.5836
v  9.06601 19.2939 15.4483
v  16.5951 19.2939 13.583
v  4.07605 19.2939 16.6845
v  9.0656 -6.10352e-07 15.4489
v  4.07564 -6.10352e-07 16.6851
v  -2.25836 18.84 -9.24766
v  14.577 8.56666e-16 -13.9904
v  -2.25876 5.66219e-16 -9.24706
v  14.5774 18.84 -13.991
v  12.7074 -6.10352e-07 -0.0295817
v  12.7078 19.2939 -0.0301923
v  17.1895 21.5902 -4.84359
v  15.2999 21.59 -11.4612
v  18.1279 21.5902 -1.55733
v  22.0643 21.5902 12.2279
v  22.9313 21.5902 15.2643
v  24.4553 21.5902 20.6012
v  25.3957 19.2939 23.8947
v  15.2994 7.01752e-16 -11.4605
v  25.3953 -6.10352e-07 23.8953
v  17.1891 -6.10352e-07 -4.84291
v  18.1274 -6.10352e-07 -1.55665
v  22.0639 -6.10352e-07 12.2286
v  22.9309 -6.10352e-07 15.2649
v  24.4548 -6.10352e-07 20.6018
v  0.811874 19.2939 3.32141
v  0 -6.10352e-07 -3.73733e-23
v  0.811464 -6.10352e-07 3.32202
v  -1.63405 4.09619e-16 -6.68959
v  -1.6336 21.59 -6.69028
v  0.00045875 21.5902 -0.00068323
v  19.9721 19.2939 25.4092
v  12.0401 19.2939 27.624
v  7.08612 19.2939 29.0073
v  19.9716 -6.10352e-07 25.4098
v  12.0397 -6.10352e-07 27.6246
v  7.08571 -6.10352e-07 29.0079
v  5.76265 -6.10352e-07 1.92706
v  5.76306 19.2939 1.92645
v  6.14068 -6.10352e-07 25.1391
v  4.82447 -6.10352e-07 19.7507
v  6.14114 21.5902 25.1384
v  4.82493 21.5902 19.75
v  11.7695 21.5902 -3.31653
v  4.95164 21.5902 -1.39565
v  17.4621 21.5902 16.6192
v  9.81489 21.5902 18.5138
v  18.9861 21.5902 21.9561
v  11.1311 21.5902 23.9022

# 0 UV coordinates

# 71 vertex normals
vn -0.240475 -2.56429e-05 -0.970655
vn -0.240476 -2.57201e-05 -0.970655
vn -0.240475 -2.55152e-05 -0.970655
vn -0.240476 -2.5595e-05 -0.970655
vn -0.271186 -2.46897e-05 -0.962527
vn -0.271186 -2.4735e-05 -0.962527
vn -0.961565 2.91371e-05 0.274577
vn -0.961565 2.91266e-05 0.274577
vn 0.961565 -2.90256e-05 -0.274576
vn 0.961565 -2.91439e-05 -0.274576
vn 0.961565 -2.92098e-05 -0.274576
vn 0.961565 -2.90364e-05 -0.274577
vn 0.961565 -2.90962e-05 -0.274576
vn 0.961565 -2.90329e-05 -0.274577
vn 0.961565 -2.92393e-05 -0.274576
vn 0.961565 -2.88938e-05 -0.274577
vn 0.961565 -2.9123e-05 -0.274576
vn 0.73755 0.64161 -0.210609
vn 0 -1 0
vn 0 1 0
vn -0.971438 2.81508e-05 0.237291
vn -0.971439 2.81516e-05 0.237291
vn -0.971439 2.81628e-05 0.237291
vn -0.971439 2.8148e-05 0.237291
vn -0.971438 2.81502e-05 0.237291
vn -0.971439 2.81035e-05 0.237291
vn 0.268942 2.47446e-05 0.963157
vn 0.268942 2.47524e-05 0.963156
vn 0.268942 2.49088e-05 0.963156
vn 0.268942 2.47182e-05 0.963157
vn 0.268942 2.47044e-05 0.963156
vn 0.268942 2.47551e-05 0.963156
vn 0.271186 2.4696e-05 0.962527
vn 0.271186 2.46954e-05 0.962527
vn 0.271186 2.46987e-05 0.962527
vn -0.971439 2.81539e-05 0.237292
vn -0.971438 2.8164e-05 0.237291
vn -0.971438 2.80604e-05 0.237292
vn -0.971438 2.81539e-05 0.237292
vn -0.971438 2.81566e-05 0.237292
vn -0.971439 2.834e-05 0.237291
vn 0 -1 -6.12323e-17
vn -1.28005e-08 -1 -4.5433e-08
vn -1.15336e-07 -1 2.8173e-08
vn -1.60704e-08 -1 -5.70389e-08
vn 0.717114 -0.674584 -0.175168
vn 0.15124 0.830045 0.536799
vn 0.15124 0.830045 0.536799
vn 0.15124 0.830045 0.536799
vn 0.15124 0.830045 0.536799
vn -0.363084 0.92597 0.103679
vn -0.363084 0.92597 0.103679
vn -0.363084 0.92597 0.103679
vn -0.363084 0.92597 0.103679
vn -0.141491 0.808585 -0.571114
vn -0.141491 0.808585 -0.571114
vn -0.141491 0.808585 -0.571114
vn -0.141491 0.808585 -0.571114
vn -0.141491 0.808585 -0.571114
vn -0.195951 0.691297 -0.695493
vn -0.195951 0.691297 -0.695494
vn -7.14009e-06 1 -2.53425e-05
vn -7.14009e-06 1 -2.53425e-05
vn -7.14009e-06 1 -2.53425e-05
vn -7.14009e-06 1 -2.53425e-05
vn 0.129607 0.842331 0.523145
vn 0.149762 0.830608 0.536341
vn 0.138315 0.857614 0.495346
vn 0.129607 0.842331 0.523145
vn 0.134389 0.8662 0.481286
vn 0.123627 0.857734 0.499008

# Mesh 'defaultobject' with 96 faces
g defaultobject
usemtl DefaultMaterial
f  1//1 2//1 3//1
f  2//1 1//1 4//2
f  4//2 1//1 5//3
f  4//2 5//3 6//4
f  7//5 8//5 9//5
f  8//5 7//5 10//6
f  3//7 11//7 1//7
f  11//7 3//7 12//8
f  13//9 10//9 14//9
f  10//9 13//9 8//10
f  8//10 13//9 15//11
f  8//10 15//11 16//12
f  8//10 16//12 17//13
f  8//10 17//13 18//14
f  8//10 18//14 19//15
f  8//10 19//15 20//16
f  20//16 19//15 21//17
f  20//18 21//18 22//18
f  22//19 21//19 23//19
f  23//20 21//20 24//20
f  24//19 21//19 25//19
f  25//19 21//19 26//19
f  27//21 28//21 29//21
f  28//21 27//21 30//22
f  30//22 27//21 9//23
f  9//23 27//21 7//24
f  7//24 27//21 31//25
f  31//25 27//21 32//26
f  33//27 21//27 19//27
f  21//27 33//27 34//28
f  21//27 34//28 35//29
f  21//27 35//29 36//30
f  36//30 35//29 37//31
f  37//31 35//29 38//32
f  12//33 39//33 11//33
f  39//33 12//33 29//34
f  29//34 12//33 27//35
f  27//35 12//33 40//23
f  35//36 41//36 38//36
f  41//36 35//36 42//37
f  42//37 35//36 6//38
f  6//38 35//36 4//39
f  4//39 35//36 43//40
f  4//39 43//40 44//41
f  24//19 11//19 23//19
f  11//19 24//19 1//19
f  1//19 24//19 25//19
f  1//19 25//19 26//19
f  1//19 26//19 21//19
f  1//19 21//19 36//19
f  1//19 36//19 5//19
f  5//19 36//19 37//19
f  5//19 37//19 6//19
f  6//19 37//19 42//19
f  42//19 37//19 38//19
f  42//19 38//19 41//19
f  20//42 9//42 8//42
f  9//42 20//42 22//19
f  9//42 22//19 23//19
f  9//42 23//19 11//19
f  9//42 11//19 39//43
f  9//42 39//43 30//44
f  30//44 39//43 29//45
f  30//46 29//46 28//46
f  45//47 12//47 13//47
f  12//47 45//47 46//48
f  12//47 46//48 40//23
f  40//23 46//48 32//49
f  40//23 32//49 27//50
f  3//51 13//51 12//51
f  13//51 3//51 15//52
f  15//52 3//51 16//53
f  16//53 3//51 17//54
f  3//55 47//55 17//55
f  47//55 3//55 2//56
f  47//55 2//56 48//57
f  48//57 2//56 4//58
f  48//57 4//58 44//59
f  10//60 31//60 14//60
f  31//60 10//60 7//61
f  14//62 45//62 13//62
f  45//62 14//62 31//63
f  45//62 31//63 46//64
f  46//64 31//63 32//65
f  17//20 49//20 18//20
f  49//20 17//20 47//20
f  49//20 47//20 50//20
f  50//20 47//20 48//20
f  50//20 48//20 43//20
f  43//20 48//20 44//20
f  33//66 18//66 49//66
f  18//67 33//67 19//67
f  33//68 50//68 34//68
f  50//69 33//66 49//66
f  34//70 43//70 35//70
f  43//71 34//71 50//71

