# {"id":"BLDG_0003000b00690bef","idOriginal":"BLDG_0003000b00690bef","origin":[13.40833424431456,52.52634429051742],"elevation":36.4099998474121}
# Longitude: 13.40833424431456
# Latitude: 52.52634429051742
# Elevation: 36.4099998474121

# File produced by Open Asset Import Library (http://www.assimp.sf.net)
# (assimp v3.1.0)

mtllib BLDG_0003000b00690bef.obj.mtl

# 10 vertex positions
v  0 0 0
v  13.3324 4.755e-16 -7.76551
v  10.3904 -1.81847e-16 2.96979
v  2.94198 6.57348e-16 -10.7353
v  10.3907 14.0785 2.96935
v  0.000300924 14.0785 -0.00044535
v  5.1956 18.6811 1.48431
v  2.94228 14.0785 -10.7357
v  13.3327 14.0785 -7.76595
v  8.13758 18.6811 -9.25099

# 0 UV coordinates

# 15 vertex normals
vn 8.80264e-25 -1 -6.12323e-17
vn 2.64079e-24 -1 -6.12323e-17
vn -0.274816 3.62806e-05 0.961497
vn -0.274816 3.62896e-05 0.961497
vn -0.274816 3.63344e-05 0.961497
vn -0.96444 1.22539e-05 -0.264302
vn -0.96444 1.22509e-05 -0.264302
vn 0.274816 -3.62899e-05 -0.961497
vn 0.274816 -3.62806e-05 -0.961497
vn 0.274816 -3.63152e-05 -0.961497
vn 0.96444 -1.21956e-05 0.264302
vn -0.625415 0.761236 -0.171393
vn -0.625415 0.761236 -0.171393
vn 0.625423 0.761229 0.171395
vn 0.625423 0.761229 0.171395

# Mesh 'defaultobject' with 16 faces
g defaultobject
usemtl DefaultMaterial
f  1//1 2//1 3//1
f  2//1 1//1 4//2
f  5//3 1//3 3//3
f  1//3 5//3 6//4
f  6//4 5//3 7//5
f  6//6 4//6 1//6
f  4//6 6//6 8//7
f  8//8 2//8 4//8
f  2//8 8//8 9//9
f  9//9 8//8 10//10
f  2//11 5//11 3//11
f  5//11 2//11 9//11
f  10//12 6//12 7//12
f  6//12 10//12 8//13
f  9//14 7//14 5//14
f  7//14 9//14 10//15

