# {"id":"BLDG_0003000f003d07e4","idOriginal":"BLDG_0003000f003d07e4","origin":[13.372445509937446,52.54589271613798],"elevation":36.7799987792969}
# Longitude: 13.372445509937446
# Latitude: 52.54589271613798
# Elevation: 36.7799987792969

# File produced by Open Asset Import Library (http://www.assimp.sf.net)
# (assimp v3.1.0)

mtllib BLDG_0003000f003d07e4.obj.mtl

# 8 vertex positions
v  6.94513 -1.59071e-16 2.59783
v  7.4922e-05 3.51303 -0.000111289
v  0 0 0
v  6.9452 3.51303 2.59771
v  5.6596 9.39431e-16 -15.3421
v  5.65968 3.51303 -15.3422
v  12.6047 7.8036e-16 -12.7442
v  12.6048 3.51303 -12.7444

# 0 UV coordinates

# 10 vertex normals
vn -0.350343 3.71228e-05 0.936621
vn -0.938199 9.04489e-06 -0.346096
vn -0.938199 9.00062e-06 -0.346096
vn 0.350343 -3.72146e-05 -0.936621
vn 0.350343 -3.69128e-05 -0.936621
vn 0.938199 -9.16365e-06 0.346096
vn 0.938199 -9.03085e-06 0.346096
vn 0 1 0
vn 0 -1 -6.12323e-17
vn 3.49277e-24 -1 -6.12323e-17

# Mesh 'defaultobject' with 12 faces
g defaultobject
usemtl DefaultMaterial
f  1//1 2//1 3//1
f  2//1 1//1 4//1
f  2//2 5//2 3//2
f  5//2 2//2 6//3
f  6//4 7//4 5//4
f  7//4 6//4 8//5
f  7//6 4//6 1//6
f  4//6 7//6 8//7
f  8//8 2//8 4//8
f  2//8 8//8 6//8
f  3//9 7//9 1//9
f  7//9 3//9 5//10

