# {"id":"BLDG_0003000e0055923e","idOriginal":"BLDG_0003000e0055923e","origin":[13.400070161916796,52.530002637926096],"elevation":36.4099998474121}
# Longitude: 13.400070161916796
# Latitude: 52.530002637926096
# Elevation: 36.4099998474121

# File produced by Open Asset Import Library (http://www.assimp.sf.net)
# (assimp v3.1.0)

mtllib BLDG_0003000e0055923e.obj.mtl

# 28 vertex positions
v  20.5043 -5.55422e-16 9.07073
v  21.0928 21.9724 19.2048
v  21.0923 -1.176e-15 19.2055
v  20.5047 21.9724 9.07003
v  15.7928 21.5259 19.5951
v  15.2012 -5.76038e-16 9.40741
v  15.7923 -1.1999e-15 19.5958
v  15.2016 21.5259 9.40673
v  21.8662 21.9724 32.533
v  21.8657 -1.99211e-15 32.5337
v  16.5662 21.9724 32.9233
v  16.5657 -2.01601e-15 32.924
v  7.84645 21.9724 33.5655
v  7.84598 -2.05534e-15 33.5662
v  7.25978 21.5259 20.2235
v  7.25932 -1.23838e-15 20.2242
v  0.455286 21.9724 10.3429
v  0 0 0
v  0.454817 -6.33365e-16 10.3436
v  0.000469412 21.9724 -0.00069525
v  6.35231 2.46949e-17 -0.403298
v  6.35277 21.5259 -0.403979
v  6.80759 21.5259 9.93966
v  6.80713 -6.0867e-16 9.94034
v  0.910304 21.9724 20.6911
v  0.909834 -1.26701e-15 20.6918
v  1.49696 21.9724 34.0331
v  1.49649 -2.08397e-15 34.0338

# 0 UV coordinates

# 37 vertex normals
vn 0.998321 -2.31472e-05 -0.057927
vn 0.998321 -2.31515e-05 -0.057927
vn -0.998321 2.31509e-05 0.057927
vn -0.998321 2.31534e-05 0.057927
vn -0.063361 -3.02604e-05 -0.997991
vn -0.0633608 -3.02243e-05 -0.997991
vn 0.998321 -2.31473e-05 -0.0579269
vn 0.0734479 2.9945e-05 0.997299
vn 0.0734481 2.99437e-05 0.997299
vn -0.0734479 -2.99789e-05 -0.997299
vn -0.999035 2.27318e-05 0.0439282
vn -0.999035 2.2733e-05 0.0439282
vn -0.0633608 -3.02247e-05 -0.997991
vn -0.0633608 -3.02245e-05 -0.997991
vn 0.999035 -2.27238e-05 -0.0439282
vn -0.999035 2.27326e-05 0.0439283
vn 0.999035 -2.27225e-05 -0.0439283
vn 0.0734481 2.9943e-05 0.997299
vn -0.999035 2.27326e-05 0.0439283
vn -0.0835984 0.996488 0.00485075
vn -0.0835984 0.996488 0.00485075
vn -0.0835984 0.996488 0.00485074
vn -0.00245551 0.999441 -0.0333417
vn -0.00245551 0.999441 -0.0333417
vn -0.00245551 0.999441 -0.0333417
vn 0.0699271 0.997547 -0.00307474
vn 0.0699271 0.997547 -0.00307474
vn -0.00245552 0.999441 -0.0333417
vn 0.0699271 0.997547 -0.00307474
vn -7.85111e-24 -1 -6.12323e-17
vn -2.34293e-23 -1 -6.12323e-17
vn -2.38798e-23 -1 -6.12323e-17
vn 1.19399e-23 -1 -6.12323e-17
vn -7.25727e-24 -1 -6.12323e-17
vn 6.42768e-24 -1 -6.12323e-17
vn 0 -1 -6.12323e-17
vn 0 -1 -6.12323e-17

# Mesh 'defaultobject' with 52 faces
g defaultobject
usemtl DefaultMaterial
f  1//1 2//1 3//1
f  2//1 1//1 4//2
f  5//3 6//3 7//3
f  6//3 5//3 8//4
f  8//5 1//5 6//5
f  1//5 8//5 4//6
f  3//1 9//7 10//7
f  9//7 3//1 2//1
f  10//8 11//8 12//8
f  11//8 10//8 9//8
f  12//8 13//9 14//9
f  13//9 12//8 11//8
f  15//10 7//10 16//10
f  7//10 15//10 5//10
f  17//11 18//11 19//11
f  18//11 17//11 20//12
f  20//13 21//13 18//13
f  21//13 20//13 22//14
f  21//15 23//15 24//15
f  23//15 21//15 22//15
f  25//16 19//11 26//16
f  19//11 25//16 17//11
f  24//15 15//17 16//17
f  15//17 24//15 23//15
f  14//9 27//18 28//18
f  27//18 14//9 13//9
f  27//19 26//16 28//19
f  26//16 27//19 25//16
f  8//20 2//20 4//20
f  2//20 8//20 5//21
f  2//20 5//21 9//22
f  9//23 5//23 11//23
f  15//24 11//23 5//23
f  11//23 15//24 13//25
f  23//26 20//26 17//26
f  20//26 23//26 22//26
f  15//27 17//26 25//27
f  17//26 15//27 23//26
f  15//24 27//28 13//25
f  27//29 15//27 25//27
f  3//30 6//30 1//30
f  6//30 3//30 7//31
f  10//32 7//31 3//30
f  7//31 10//32 12//33
f  16//34 12//33 14//34
f  12//33 16//34 7//31
f  18//35 24//35 19//35
f  24//35 18//35 21//36
f  19//35 16//34 26//36
f  16//34 19//35 24//35
f  14//34 26//36 16//34
f  26//36 14//34 28//37

