# {"id":"BLDG_00030000001a1fd6","idOriginal":"BLDG_00030000001a1fd6","origin":[13.407288192613528,52.53424774336367],"elevation":50.9500007629395}
# Longitude: 13.407288192613528
# Latitude: 52.53424774336367
# Elevation: 50.9500007629395

# File produced by Open Asset Import Library (http://www.assimp.sf.net)
# (assimp v3.1.0)

mtllib BLDG_00030000001a1fd6.obj.mtl

# 8 vertex positions
v  11.9173 5.42767e-16 -8.86406
v  5.16169 20.7109 3.02488
v  5.16124 -1.85261e-16 3.02554
v  11.9178 20.7109 -8.86472
v  0.00041345 19.3439 -0.00061224
v  0 0 0
v  6.75609 7.28028e-16 -11.8896
v  6.75651 19.3439 -11.8902

# 0 UV coordinates

# 11 vertex normals
vn 0.869437 -2.96315e-06 0.494045
vn 0.869437 -2.90928e-06 0.494045
vn -0.505717 3.8113e-05 0.862699
vn -0.505717 3.81219e-05 0.862699
vn -0.869437 2.94639e-06 -0.494045
vn -0.869437 2.94446e-06 -0.494045
vn 0.505717 -3.81138e-05 -0.862699
vn 0.505717 -3.81356e-05 -0.862699
vn 0 -1 -6.12323e-17
vn 2.58854e-24 -1 -6.12323e-17
vn -0.193693 0.974869 -0.110063

# Mesh 'defaultobject' with 12 faces
g defaultobject
usemtl DefaultMaterial
f  1//1 2//1 3//1
f  2//1 1//1 4//2
f  3//3 5//3 6//3
f  5//3 3//3 2//4
f  5//5 7//5 6//5
f  7//5 5//5 8//6
f  8//7 1//7 7//7
f  1//7 8//7 4//8
f  6//9 1//9 3//9
f  1//9 6//9 7//10
f  5//11 4//11 8//11
f  4//11 5//11 2//11

