# {"id":"BLDG_000300000019f49a","idOriginal":"BLDG_000300000019f49a","origin":[13.406415978802357,52.528850162149624],"elevation":37.3499984741211}
# Longitude: 13.406415978802357
# Latitude: 52.528850162149624
# Elevation: 37.3499984741211

# File produced by Open Asset Import Library (http://www.assimp.sf.net)
# (assimp v3.1.0)

mtllib BLDG_000300000019f49a.obj.mtl

# 8 vertex positions
v  5.46396 -9.15495e-17 1.49512
v  8.2371e-05 3.85412 -0.00012194
v  0 0 0
v  5.46404 3.6425 1.495
v  1.23087 3.57731e-16 -5.8422
v  1.23095 3.85412 -5.84232
v  6.69483 2.66182e-16 -4.34708
v  6.69491 3.85412 -4.3472

# 0 UV coordinates

# 12 vertex normals
vn -0.26393 3.61675e-05 0.964542
vn -0.26393 3.6189e-05 0.964542
vn -0.978518 1.43904e-05 -0.20616
vn -0.978518 1.43841e-05 -0.20616
vn 0.26393 -3.61906e-05 -0.964542
vn 0.26393 -3.61661e-05 -0.964542
vn 0.978518 -1.44932e-05 0.20616
vn 0.978518 -1.42984e-05 0.20616
vn 0.0365941 0.999301 0.00770986
vn -0.00936569 0.99937 0.0342273
vn -7.84015e-25 -1 -6.12323e-17
vn 0 -1 -6.12323e-17

# Mesh 'defaultobject' with 12 faces
g defaultobject
usemtl DefaultMaterial
f  1//1 2//1 3//1
f  2//1 1//1 4//2
f  2//3 5//3 3//3
f  5//3 2//3 6//4
f  6//5 7//5 5//5
f  7//5 6//5 8//6
f  7//7 4//7 1//7
f  4//7 7//7 8//8
f  4//9 6//9 2//9
f  6//10 4//10 8//10
f  3//11 7//11 1//11
f  7//11 3//11 5//12

