# {"id":"BLDG_0003000e005308ef","idOriginal":"BLDG_0003000e005308ef","origin":[13.349789969168901,52.54458357865942],"elevation":36.1300010681152}
# Longitude: 13.349789969168901
# Latitude: 52.54458357865942
# Elevation: 36.1300010681152

# File produced by Open Asset Import Library (http://www.assimp.sf.net)
# (assimp v3.1.0)

mtllib BLDG_0003000e005308ef.obj.mtl

# 26 vertex positions
v  0.454929 1.04892e-15 -17.1301
v  0.475457 11.6562 -17.1053
v  0.475209 1.04738e-15 -17.105
v  0.455177 11.6562 -17.1305
v  -1.26372 1.17846e-15 -19.2457
v  -1.26347 11.6562 -19.2461
v  -3.86136 11.6562 -17.1397
v  -3.8616 1.04948e-15 -17.1393
v  -2.16355 11.6562 -15.0835
v  -2.1638 9.23576e-16 -15.0831
v  10.5413 13.77 -4.59857
v  6.21071 -0.810001 -1.1308
v  10.541 -0.810001 -4.59811
v  1.88047 -0.810001 2.33651
v  1.88078 13.77 2.33605
v  6.21115 19.48 -1.13144
v  -8.21505 -0.810001 -10.2073
v  0.000310497 13.77 -0.000461821
v  -8.21474 13.77 -10.2078
v  0 -0.810001 -4.95983e-17
v  0.445735 13.77 -17.1424
v  8.66048 -0.810001 -6.93462
v  0.445424 -0.810001 -17.1419
v  8.66079 13.77 -6.93508
v  4.33067 19.48 -3.46795
v  -0.408109 19.48 -9.35594

# 0 UV coordinates

# 38 vertex normals
vn 0.779034 -3.64935e-05 -0.626982
vn 0.779034 -3.64955e-05 -0.626981
vn 0.776156 -3.65461e-05 -0.630541
vn 0.776156 -3.6441e-05 -0.630541
vn -0.629801 -1.11208e-05 -0.776757
vn -0.771102 3.65794e-05 0.636712
vn -0.771101 3.65273e-05 0.636712
vn 0.60816 1.21823e-05 0.793815
vn 0.60816 1.22438e-05 0.793815
vn 0.625038 1.14507e-05 0.780595
vn 0.625038 1.14492e-05 0.780595
vn 0.625038 1.14124e-05 0.780595
vn 0.625038 1.14409e-05 0.780595
vn -0.779033 3.6502e-05 0.626983
vn -0.779033 3.65078e-05 0.626983
vn -0.779033 3.64521e-05 0.626983
vn -0.779033 0 0.626983
vn 0.779033 -3.64387e-05 -0.626983
vn 0.779033 -3.64206e-05 -0.626983
vn 0.779033 -3.64227e-05 -0.626983
vn 0.779033 -3.64306e-05 -0.626983
vn -0.625038 -1.14353e-05 -0.780595
vn -0.625038 -1.14022e-05 -0.780595
vn -7.38694e-22 -1 -6.12333e-17
vn 2.92222e-23 -1 -6.12323e-17
vn 1.18726e-23 -1 -6.12323e-17
vn -1.42168e-08 -1 -1.77551e-08
vn 0 -1 0
vn 0 1 -0
vn -0.558751 0.69683 0.449695
vn -0.558751 0.69683 0.449695
vn -0.558751 0.69683 0.449695
vn -0.558751 0.69683 0.449695
vn 0.558771 0.696804 -0.449711
vn 0.558771 0.696804 -0.449711
vn 0.558771 0.696803 -0.449711
vn 0.558771 0.696804 -0.449711
vn -0.448424 0.696625 -0.560027

# Mesh 'defaultobject' with 44 faces
g defaultobject
usemtl DefaultMaterial
f  1//1 2//1 3//1
f  2//1 1//1 4//2
f  5//3 4//3 1//3
f  4//3 5//3 6//4
f  7//5 5//5 8//5
f  5//5 7//5 6//5
f  9//6 8//6 10//6
f  8//6 9//6 7//7
f  3//8 9//8 10//8
f  9//8 3//8 2//9
f  11//10 12//10 13//10
f  12//10 11//10 14//11
f  14//11 11//10 15//12
f  15//12 11//10 16//13
f  17//14 18//14 19//14
f  18//14 17//14 15//15
f  15//15 17//14 14//16
f  14//17 17//17 20//17
f  21//18 22//18 23//18
f  22//18 21//18 13//19
f  13//19 21//18 24//20
f  13//19 24//20 11//21
f  19//22 23//22 17//22
f  23//22 19//22 21//23
f  10//24 1//24 3//24
f  1//24 10//24 5//25
f  5//25 10//24 8//26
f  23//27 20//27 17//27
f  20//27 23//27 22//27
f  20//27 22//27 14//28
f  14//28 22//27 12//28
f  12//28 22//27 13//28
f  4//29 9//29 2//29
f  9//29 4//29 6//29
f  9//29 6//29 7//29
f  19//30 25//30 26//30
f  25//30 19//30 18//31
f  25//30 18//31 16//32
f  16//32 18//31 15//33
f  26//34 24//34 21//34
f  24//34 26//34 25//35
f  24//34 25//35 11//36
f  11//36 25//35 16//37
f  21//38 19//38 26//38

