# {"id":"BLDG_0003000e002da9c7","idOriginal":"BLDG_0003000e002da9c7","origin":[13.426814338596937,52.50704053231007],"elevation":34.6300010681152}
# Longitude: 13.426814338596937
# Latitude: 52.50704053231007
# Elevation: 34.6300010681152

# File produced by Open Asset Import Library (http://www.assimp.sf.net)
# (assimp v3.1.0)

mtllib BLDG_0003000e002da9c7.obj.mtl

# 36 vertex positions
v  28.2609 22.5497 -5.68192
v  14.6673 22.5497 -6.23378
v  25.4335 22.5497 -0.281421
v  17.4946 22.5497 -11.6343
v  6.02675 19.5661 -11.0107
v  16.0809 19.5661 -8.93394
v  7.48978 19.5661 -13.6837
v  14.6672 19.5661 -6.23369
v  8.95282 19.5661 -16.3567
v  17.4946 19.5661 -11.6342
v  11.9641 22.5497 -1.07059
v  22.793 22.5497 4.76208
v  17.3786 22.6877 1.84574
v  8.89563 22.523 4.7904
v  14.3101 22.6877 7.70673
v  11.9641 22.523 -1.07059
v  22.793 22.523 4.76208
v  19.7245 22.523 10.6231
v  11.964 18.4246 -1.07046
v  0.000434944 20.3256 -0.00064214
v  8.89558 20.3256 4.79047
v  3.17661 18.4246 -5.80354
v  14.6668 3.81665e-16 -6.23307
v  28.2604 3.47874e-16 -5.68121
v  25.433 1.71885e-17 -0.280709
v  17.4942 7.12351e-16 -11.6336
v  6.02633 6.74175e-16 -11.0101
v  8.9524 1.00152e-15 -16.3561
v  11.9636 6.55112e-17 -1.06988
v  22.7925 -2.91637e-16 4.7628
v  8.89515 -2.93371e-16 4.79111
v  19.7241 -6.50519e-16 10.6238
v  3.17622 3.55329e-16 -5.80296
v  0 0 0
v  12.8416 22.5497 -0.597934
v  21.9155 22.5497 4.28943

# 0 UV coordinates

# 40 vertex normals
vn 0 1 0
vn -0.02371 0.999642 -0.0124132
vn -0.02371 0.999642 -0.0124132
vn 0.02371 0.999642 0.0124132
vn 0.02371 0.999642 0.0124132
vn 0.130973 0.961102 -0.243163
vn 0.130973 0.961102 -0.243163
vn -2.47141e-24 -1 -6.12323e-17
vn 2.19961e-25 -1 -6.12323e-17
vn 6.67506e-25 -1 -6.12323e-17
vn -7.56098e-25 -1 -6.12323e-17
vn 1.30128e-24 -1 -6.12323e-17
vn 0 -1 -6.12323e-17
vn -0.885929 4.29561e-06 -0.463821
vn -0.885929 4.01243e-06 -0.463821
vn 0.483847 -3.79613e-05 -0.875153
vn 0.483847 -3.80022e-05 -0.875153
vn 0.885929 -4.30146e-06 0.463821
vn -0.483847 3.79934e-05 0.875153
vn -0.877198 3.60519e-06 -0.480129
vn -0.877198 3.575e-06 -0.480129
vn -0.877198 3.60518e-06 -0.480129
vn 0.483847 -3.79941e-05 -0.875153
vn 0.483847 -3.79705e-05 -0.875153
vn -0.885929 4.30556e-06 -0.463821
vn 0.885929 -4.30134e-06 0.463821
vn -0.474208 3.79698e-05 0.880413
vn -0.474208 3.79498e-05 0.880413
vn -0.474208 3.67341e-05 0.880413
vn -0.885929 4.2911e-06 -0.463821
vn -0.885929 4.06723e-06 -0.463821
vn -0.474208 3.68916e-05 0.880413
vn 0.885929 -4.33942e-06 0.463821
vn 0.885929 -4.26261e-06 0.463821
vn -0.474208 3.79692e-05 0.880413
vn -0.474208 3.79506e-05 0.880413
vn -0.877198 3.60243e-06 -0.480129
vn -0.877198 3.61511e-06 -0.480129
vn 0.474208 -3.79479e-05 -0.880413
vn 0.474208 -3.79773e-05 -0.880413

# Mesh 'defaultobject' with 55 faces
g defaultobject
usemtl DefaultMaterial
f  1//1 2//1 3//1
f  2//1 1//1 4//1
f  5//1 6//1 7//1
f  6//1 5//1 8//1
f  6//1 9//1 7//1
f  6//1 10//1 9//1
f  3//1 11//1 12//1
f  11//1 3//1 2//1
f  13//2 14//2 15//2
f  14//2 13//2 16//3
f  17//4 15//4 18//4
f  15//4 17//4 13//5
f  19//6 20//6 21//6
f  20//6 19//6 22//7
f  23//8 24//8 25//8
f  24//8 23//8 26//8
f  27//9 26//8 23//8
f  26//8 27//9 28//10
f  29//11 25//8 30//11
f  25//8 29//11 23//8
f  31//12 30//11 32//12
f  30//11 31//12 29//11
f  33//13 31//12 34//13
f  31//12 33//13 29//11
f  2//14 10//14 8//14
f  10//14 2//14 4//15
f  4//16 24//16 26//16
f  24//16 4//16 1//17
f  24//18 3//18 25//18
f  3//18 24//18 1//18
f  23//19 5//19 27//19
f  5//19 23//19 8//19
f  5//20 28//20 27//20
f  28//20 5//20 7//21
f  28//20 7//21 9//22
f  9//23 26//16 28//23
f  26//16 9//23 10//24
f  11//25 23//25 29//25
f  23//25 11//25 2//14
f  25//18 12//26 30//26
f  12//26 25//18 3//18
f  18//27 31//27 32//27
f  31//27 18//27 14//28
f  14//28 18//27 15//29
f  21//30 16//30 19//30
f  16//30 21//30 14//31
f  13//32 35//32 36//32
f  30//26 18//33 32//33
f  18//33 30//26 17//34
f  31//27 20//35 34//35
f  20//35 31//27 21//36
f  20//37 33//37 34//37
f  33//37 20//37 22//38
f  22//39 29//39 33//39
f  29//39 22//39 19//40

