# {"id":"BLDG_0003000b0051cdc4","idOriginal":"BLDG_0003000b0051cdc4","origin":[13.39258172310745,52.52732759810058],"elevation":34.6100006103516}
# Longitude: 13.39258172310745
# Latitude: 52.52732759810058
# Elevation: 34.6100006103516

# File produced by Open Asset Import Library (http://www.assimp.sf.net)
# (assimp v3.1.0)

mtllib BLDG_0003000b0051cdc4.obj.mtl

# 26 vertex positions
v  15.589 22.7766 -2.0966
v  7.43637 17.8582 -3.11757
v  8.63296 22.7766 0.819216
v  18.0771 17.8582 -7.57793
v  21.719 17.8582 4.40537
v  18.0344 22.7766 5.94976
v  12.5873 22.3853 3.31514
v  9.75262 22.3853 4.5034
v  13.9131 22.3853 7.67733
v  11.0782 17.8582 8.86573
v  16.4958 22.3853 16.1269
v  13.5869 17.8582 17.1204
v  20.6744 22.7766 14.7
v  24.4553 17.8582 13.409
v  4.78441 17.8582 11.504
v  3.03394 22.3853 7.2941
v  1.5804 22.7766 3.79862
v  0.000381332 17.8582 -0.00056498
v  18.0767 4.6398e-16 -7.57736
v  7.43599 1.90861e-16 -3.117
v  21.7186 -2.69786e-16 4.40594
v  13.5865 -1.04835e-15 17.1209
v  24.4549 -8.21101e-16 13.4096
v  11.0779 -5.42904e-16 8.86629
v  4.78403 -7.04449e-16 11.5045
v  0 0 0

# 0 UV coordinates

# 41 vertex normals
vn -0.297147 0.639682 -0.70888
vn -0.297147 0.639682 -0.70888
vn 0.744191 0.628512 -0.226169
vn 0.744191 0.628512 -0.226169
vn 0.0392929 0.994821 0.093738
vn 0.0392929 0.994821 0.093738
vn -0.0839072 0.996147 0.0255004
vn -0.0839072 0.996147 0.0255004
vn 0.273102 0.707772 0.651517
vn -0.792864 0.559736 0.240961
vn -0.792436 0.559799 0.242219
vn -0.791713 0.561512 0.240611
vn -0.0839757 0.996146 0.0253366
vn -0.0844759 0.996091 0.0258212
vn 0.744191 0.628512 -0.226169
vn 0.743304 0.630242 -0.224265
vn 0.270278 0.709606 0.650699
vn 0.273102 0.707772 0.651517
vn 0.0395651 0.994818 0.0936549
vn 0.0394462 0.994699 0.0949675
vn -0.297147 0.639682 -0.70888
vn -0.298484 0.64164 -0.706544
vn -0.386588 -2.09232e-05 -0.922253
vn -0.386588 -2.08985e-05 -0.922253
vn 0.95679 -2.96254e-05 -0.29078
vn 0.323158 2.30151e-05 0.946345
vn 0.323158 2.30962e-05 0.946345
vn 0.323158 2.29196e-05 0.946345
vn -0.95679 2.96309e-05 0.29078
vn -0.95679 2.96465e-05 0.29078
vn 0.95679 -2.96345e-05 -0.29078
vn 0.386588 2.09404e-05 0.922252
vn -0.923348 3.1883e-05 0.383964
vn -0.923348 3.18641e-05 0.383964
vn -0.923348 3.18534e-05 0.383964
vn -0.923348 3.18205e-05 0.383964
vn -0.386588 -2.09224e-05 -0.922253
vn 0 -1 -6.12323e-17
vn -5.8922e-24 -1 -6.12323e-17
vn 2.13844e-24 -1 -6.12323e-17
vn 4.2158e-24 -1 -6.12323e-17

# Mesh 'defaultobject' with 48 faces
g defaultobject
usemtl DefaultMaterial
f  1//1 2//1 3//1
f  2//1 1//1 4//2
f  5//3 1//3 6//3
f  1//3 5//3 4//4
f  7//5 3//5 8//5
f  3//5 7//5 1//6
f  6//7 7//7 9//7
f  7//7 6//7 1//8
f  10//9 7//9 8//9
f  7//10 10//10 9//10
f  10//11 11//11 9//11
f  11//12 10//12 12//12
f  9//13 13//13 6//13
f  13//14 9//14 11//14
f  6//3 14//15 5//3
f  14//16 6//16 13//16
f  15//17 8//17 16//17
f  8//9 15//18 10//9
f  17//19 8//19 3//19
f  8//20 17//20 16//20
f  18//21 3//1 2//1
f  3//22 18//22 17//22
f  2//23 19//23 20//23
f  19//23 2//23 4//24
f  19//25 5//25 21//25
f  5//25 19//25 4//25
f  14//26 22//26 23//26
f  22//26 14//26 12//26
f  12//26 14//26 13//27
f  12//26 13//27 11//28
f  12//29 24//29 22//29
f  24//29 12//29 10//30
f  21//25 14//31 23//31
f  14//31 21//25 5//25
f  24//32 15//32 25//32
f  15//32 24//32 10//32
f  15//33 26//33 25//33
f  26//33 15//33 18//34
f  18//34 15//33 16//35
f  18//34 16//35 17//36
f  18//37 20//23 26//37
f  20//23 18//37 2//23
f  20//38 21//38 24//38
f  21//38 20//38 19//39
f  24//38 23//40 22//40
f  23//40 24//38 21//38
f  24//38 26//41 20//38
f  26//41 24//38 25//38

