# {"id":"BLDG_00030000001be348","idOriginal":"BLDG_00030000001be348","origin":[13.347731605321451,52.54939805678021],"elevation":35.25}
# Longitude: 13.347731605321451
# Latitude: 52.54939805678021
# Elevation: 35.25

# File produced by Open Asset Import Library (http://www.assimp.sf.net)
# (assimp v3.1.0)

mtllib BLDG_00030000001be348.obj.mtl

# 26 vertex positions
v  9.11711 5.68752e-16 -9.28843
v  10.5866 22.882 -10.7858
v  10.5861 6.60394e-16 -10.7851
v  6.58197 4.10602e-16 -6.70565
v  2.22701 1.38927e-16 -2.26885
v  0 0 0
v  0.0004145 19.466 -0.000616769
v  9.1176 22.882 -9.28915
v  6.58243 21.99 -6.70634
v  2.22749 22.78 -2.26957
v  12.6678 19.466 12.316
v  19.2498 21.99 5.61032
v  14.8949 22.78 10.047
v  21.7849 19.466 3.02759
v  21.7845 -1.85424e-16 3.02821
v  19.2493 -3.43576e-16 5.61102
v  14.8944 -6.15247e-16 10.0478
v  12.6674 -7.54176e-16 12.3166
v  4.25025 -2.53046e-16 4.13256
v  4.25067 19.466 4.13194
v  14.8368 19.466 -6.65311
v  14.8364 4.07348e-16 -6.65249
v  13.3678 19.466 -5.15648
v  13.3674 3.15706e-16 -5.15587
v  10.8327 21.99 -2.57378
v  6.47775 22.78 1.86299

# 0 UV coordinates

# 44 vertex normals
vn -0.713658 -6.98568e-06 -0.700495
vn -0.713657 -7.0076e-06 -0.700495
vn -0.713658 -6.97205e-06 -0.700495
vn -0.713657 -6.92188e-06 -0.700495
vn -0.713657 -7.00238e-06 -0.700495
vn -0.713658 -6.52308e-06 -0.700495
vn -0.713656 -1.51876e-05 -0.700496
vn -0.713658 -7.09638e-06 -0.700495
vn 0.713657 7.22023e-06 0.700495
vn 0.713657 6.96727e-06 0.700495
vn 0.713657 6.95148e-06 0.700495
vn 0.713658 6.98508e-06 0.700495
vn 0.713658 7.01359e-06 0.700495
vn 0.713657 6.99615e-06 0.700495
vn -0.69711 3.75133e-05 0.716964
vn -0.69711 3.7553e-05 0.716964
vn -0.69711 3.75577e-05 0.716964
vn -0.69711 3.75606e-05 0.716964
vn 0.69711 -3.7553e-05 -0.716964
vn 0.69711 -3.75572e-05 -0.716964
vn 0.713657 6.97341e-06 0.700495
vn 0.69711 -3.75911e-05 -0.716964
vn 0.69711 -3.75577e-05 -0.716964
vn 0.398787 0.820215 -0.410141
vn 0.398788 0.820212 -0.410146
vn 0.398788 0.820212 -0.410146
vn 0.0878784 0.992023 -0.0903817
vn 0.0878779 0.992023 -0.0903801
vn 0.0878776 0.992023 -0.0903804
vn 0.0878776 0.992023 -0.0903804
vn -0.503051 0.692286 0.517377
vn -0.503052 0.692282 0.517382
vn -0.503053 0.692282 0.51738
vn 0.356315 0.86644 0.349743
vn 0.356315 0.86644 0.349743
vn 0.202774 0.846929 0.491522
vn -2.49198e-24 -1 -6.12323e-17
vn -1.16055e-23 -1 -6.12323e-17
vn 4.53885e-23 -1 -6.12323e-17
vn 1.70335e-23 -1 -6.12323e-17
vn -9.54849e-24 -1 -6.12323e-17
vn -4.25838e-23 -1 -6.12324e-17
vn 0 -1 -6.12323e-17
vn 0 -1 -6.12323e-17

# Mesh 'defaultobject' with 48 faces
g defaultobject
usemtl DefaultMaterial
f  1//1 2//1 3//1
f  2//1 1//1 4//2
f  2//1 4//2 5//3
f  2//1 5//3 6//4
f  2//1 6//4 7//5
f  2//1 7//5 8//6
f  8//6 7//5 9//7
f  9//7 7//5 10//8
f  11//9 12//9 13//9
f  12//9 11//9 14//10
f  14//10 11//9 15//11
f  15//11 11//9 16//12
f  16//12 11//9 17//13
f  17//13 11//9 18//14
f  11//15 19//15 18//15
f  19//15 11//15 6//16
f  6//16 11//15 20//17
f  6//16 20//17 7//18
f  3//19 21//19 22//19
f  21//19 3//19 2//20
f  22//21 23//21 24//21
f  23//21 22//21 21//21
f  24//22 14//22 15//22
f  14//22 24//22 23//23
f  14//24 25//24 12//24
f  25//24 14//24 23//25
f  25//24 23//25 9//26
f  12//27 26//27 13//27
f  26//27 12//27 25//28
f  26//27 25//28 10//29
f  10//29 25//28 9//30
f  13//31 20//31 11//31
f  20//31 13//31 26//32
f  20//31 26//32 7//33
f  7//33 26//32 10//33
f  23//34 2//34 8//34
f  2//34 23//34 21//35
f  9//36 23//36 8//36
f  16//37 24//37 15//37
f  24//37 16//37 17//38
f  24//37 17//38 18//39
f  24//37 3//40 22//40
f  3//40 24//37 18//39
f  3//40 18//39 19//41
f  3//40 19//41 1//42
f  1//42 19//41 4//43
f  4//43 19//41 5//44
f  5//44 19//41 6//44

