# {"id":"BLDG_0003000000280985","idOriginal":"BLDG_0003000000280985","origin":[13.34870131309681,52.52392598133076],"elevation":34.9099998474121}
# Longitude: 13.34870131309681
# Latitude: 52.52392598133076
# Elevation: 34.9099998474121

# File produced by Open Asset Import Library (http://www.assimp.sf.net)
# (assimp v3.1.0)

mtllib BLDG_0003000000280985.obj.mtl

# 14 vertex positions
v  2.6787 -4.69561e-17 0.766851
v  0.000138277 6.49386 -0.000205399
v  0 0 0
v  2.67884 6.49386 0.766645
v  2.62176 6.49386 1.00785
v  2.62162 -6.17257e-17 1.00806
v  4.63645 -9.44924e-17 1.54318
v  4.63658 6.49386 1.54297
v  6.27519 2.78947e-16 -4.55555
v  6.27533 6.49386 -4.55576
v  3.47155 6.49386 -5.22795
v  3.47141 3.20107e-16 -5.22774
v  1.49888 6.49386 -5.70124
v  1.49875 3.49088e-16 -5.70103

# 0 UV coordinates

# 20 vertex normals
vn -0.275222 3.62756e-05 0.961381
vn -0.275222 3.62756e-05 0.961381
vn -0.973128 1.3439e-05 -0.230265
vn -0.973128 1.34369e-05 -0.230265
vn -0.256693 3.60334e-05 0.966493
vn -0.256693 3.6051e-05 0.966493
vn 0.965744 -1.23485e-05 0.259498
vn 0.965744 -1.23717e-05 0.259498
vn 0.233139 -3.56603e-05 -0.972444
vn 0.233138 -3.56689e-05 -0.972444
vn 0.233302 -3.57425e-05 -0.972404
vn 0.233303 -3.56626e-05 -0.972404
vn -0.967138 1.25518e-05 -0.254251
vn -0.967138 1.25481e-05 -0.254251
vn 0 1 0
vn 5.02663e-24 -1 -6.12323e-17
vn -3.75645e-22 -1 -6.12324e-17
vn 6.22266e-24 -1 -6.12323e-17
vn -7.01045e-24 -1 -6.12323e-17
vn -3.32102e-24 -1 -6.12323e-17

# Mesh 'defaultobject' with 24 faces
g defaultobject
usemtl DefaultMaterial
f  1//1 2//1 3//1
f  2//1 1//1 4//2
f  5//3 1//3 6//3
f  1//3 5//3 4//4
f  7//5 5//5 6//5
f  5//5 7//5 8//6
f  9//7 8//7 7//7
f  8//7 9//7 10//8
f  11//9 9//9 12//9
f  9//9 11//9 10//10
f  13//11 12//11 14//11
f  12//11 13//11 11//12
f  2//13 14//13 3//13
f  14//13 2//13 13//14
f  2//15 11//15 13//15
f  11//15 2//15 4//15
f  11//15 4//15 10//15
f  10//15 4//15 5//15
f  10//15 5//15 8//15
f  6//16 9//16 7//16
f  9//16 6//16 1//17
f  9//16 1//17 3//18
f  9//16 3//18 12//19
f  12//19 3//18 14//20

