# {"id":"BLDG_0003000f003e6b47","idOriginal":"BLDG_0003000f003e6b47","origin":[13.35680102667767,52.55247637863295],"elevation":36.3899993896484}
# Longitude: 13.35680102667767
# Latitude: 52.55247637863295
# Elevation: 36.3899993896484

# File produced by Open Asset Import Library (http://www.assimp.sf.net)
# (assimp v3.1.0)

mtllib BLDG_0003000f003e6b47.obj.mtl

# 70 vertex positions
v  0.00058409 27.4143 -0.00086878
v  9.09527 27.4143 2.5138
v  9.16319 27.4143 0.228205
v  0.0403567 27.4143 2.38493
v  12.7808 19.015 5.31417
v  8.67949 20.83 4.9391
v  11.0383 20.83 7.1889
v  10.3657 19.015 3.01068
v  3.82449 21.48 10.4914
v  6.02125 21.48 12.5867
v  1.67049 19.015 12.9549
v  3.79536 19.015 14.9815
v  6.074 24.1015 -0.312479
v  11.3476 24.13 -4.61384
v  6.05983 24.13 -0.325951
v  7.75505 20.72 1.28559
v  12.809 20.72 -2.81271
v  6.97328 25.5 -10.0045
v  0.985728 25.5 -5.14916
v  0.965752 25.46 -5.16814
v  4.91323 20.72 -12.5428
v  -1.40385 20.72 -7.4203
v  -6.37344 25.5 0.783234
v  0.965753 25.5 -5.16814
v  -11.2823 20.72 0.590147
v  -2.12337 20.72 9.29604
v  0.415954 25.5 7.23682
v  4.27247 24.13 1.14839
v  6.074 24.13 -0.31248
v  5.95359 24.13 2.74635
v  10.0223 20.72 3.4407
v  5.9384 24.13 2.75867
v  8.4878 24.13 5.18197
v  5.95359 24.1015 2.74635
v  0.43736 25.5 7.21946
v  3.84114 25.5 10.4549
v  1.6781 20.72 12.9095
v  0.415953 25.46 7.23682
v  9.1626 -1.40267e-17 0.229074
v  0.0397727 -1.46088e-16 2.3858
v  0 0 0
v  9.09469 -1.53979e-16 2.51467
v  3.82403 0.16 10.4921
v  3.79496 0.16 14.9821
v  1.67009 0.16 12.9555
v  6.0208 0.16 12.5874
v  8.67905 0.16 4.93975
v  11.0379 0.16 7.18956
v  10.3653 0.16 3.01128
v  12.7804 0.16 5.31477
v  8.48729 0.0200006 5.18274
v  7.75461 0.0200006 1.28625
v  10.0219 0.0200006 3.44135
v  11.3471 0.0200005 -4.61307
v  12.8086 0.0200005 -2.81205
v  6.97274 0.0200005 -10.0037
v  4.91279 0.0200005 -12.5422
v  -1.40429 0.0200006 -7.41964
v  3.84059 0.0200006 10.4557
v  -11.2827 0.0200006 0.590803
v  1.67766 0.0200006 12.9101
v  -2.12382 0.0200006 9.29669
v  0.96521 0.0200006 -5.16734
v  6.07349 0.0200006 -0.311716
v  0.985185 0.0200005 -5.14835
v  6.05932 0.0200005 -0.325187
v  0.415411 0.0200006 7.23763
v  0.436817 0.0200006 7.22027
v  5.95307 0.0200006 2.74712
v  5.93789 0.0200006 2.75943

# 0 UV coordinates

# 108 vertex normals
vn 0 1 0
vn 0.39926 0.815697 -0.418605
vn 0.39926 0.815697 -0.418605
vn 0.0606468 0.996132 -0.0635852
vn 0.0606468 0.996132 -0.0635852
vn -0.415521 0.798467 0.435654
vn -0.415521 0.798466 0.435653
vn 0.520798 0.562398 0.642244
vn 0.52079 0.562417 0.642235
vn 0.52079 0.562417 0.642235
vn 0.121944 0.981079 0.150381
vn 0.121944 0.981079 0.150381
vn -0.519888 0.564517 -0.641122
vn -0.519888 0.564517 -0.641122
vn -0.519881 0.564532 -0.641114
vn -0.521272 0.561289 -0.642829
vn -0.521272 0.561289 -0.642829
vn -0.57018 0.561317 0.599849
vn -0.57018 0.561317 0.599849
vn 0.121159 0.981324 0.149413
vn 0.12116 0.981324 0.149413
vn 0.131067 0.981737 -0.137887
vn 0.131067 0.981737 -0.137887
vn 0.522167 0.55919 0.643932
vn 0.571184 0.559162 -0.600905
vn 0.569678 0.562389 -0.599321
vn 0.569666 0.562369 -0.599351
vn 0.569678 0.562389 -0.599321
vn 0.131907 0.9815 -0.138771
vn 0.131907 0.9815 -0.138771
vn -0.568665 0.564545 0.598255
vn -0.568665 0.564545 0.598256
vn -0.56866 0.564554 0.598251
vn 0 -1 -6.12323e-17
vn -1.59806e-24 -1 -6.12323e-17
vn 0 -1 0
vn -1.8227e-08 -1 1.47909e-08
vn -1.8227e-08 -1 1.47909e-08
vn -1.8227e-08 -1 1.47909e-08
vn -1.30475e-08 -1 1.37265e-08
vn 0.0249932 -3.22134e-05 -0.999688
vn 0.0249932 -3.22131e-05 -0.999688
vn -0.999861 2.18313e-05 0.0166683
vn -0.999861 2.18313e-05 0.0166683
vn -0.0142306 3.19911e-05 0.999899
vn 0.999559 -2.03394e-05 0.0297004
vn -0.752799 -4.69608e-06 -0.65825
vn -0.752799 -5.09148e-06 -0.65825
vn -0.752799 -4.80921e-06 -0.65825
vn -0.752799 -4.89655e-06 -0.65825
vn -0.752799 -4.82777e-06 -0.65825
vn -0.752799 -4.8357e-06 -0.65825
vn 0.732468 5.92211e-06 0.680802
vn 0.732468 6.21054e-06 0.680802
vn 0.732468 5.97613e-06 0.680802
vn 0.732468 5.88878e-06 0.680802
vn 0.732468 5.9575e-06 0.680802
vn 0.732468 5.9561e-06 0.680802
vn 0.690188 -3.76297e-05 -0.72363
vn -0.690188 3.76176e-05 0.72363
vn -0.690188 3.76542e-05 0.72363
vn -0.688955 3.57178e-05 0.724804
vn -0.688955 3.76565e-05 0.724804
vn -0.688955 3.79202e-05 0.724804
vn -0.688955 3.76489e-05 0.724804
vn -0.688955 0 0.724804
vn -0.537638 -0.62532 0.565614
vn -0.629844 0 -0.776721
vn -0.629845 -1.11992e-05 -0.776721
vn -0.629848 -1.13178e-05 -0.776719
vn -0.629844 -1.16194e-05 -0.776721
vn -0.629845 -1.11858e-05 -0.776721
vn 0.776501 -3.6362e-05 -0.630116
vn 0.776501 -3.63349e-05 -0.630116
vn 0.776501 -3.65005e-05 -0.630116
vn 0.776501 -3.65313e-05 -0.630116
vn 0.629852 3.65039e-06 0.776715
vn 0.629844 4.91491e-06 0.776721
vn 0.629845 1.11995e-05 0.776721
vn 0.629834 1.54494e-05 0.77673
vn 0.629835 1.14959e-05 0.776729
vn 0.629845 1.11883e-05 0.776721
vn 0.62985 1.80293e-05 0.776717
vn -0.629845 -1.12135e-05 -0.776721
vn -0.629845 -1.11718e-05 -0.776721
vn -0.629845 -1.12388e-05 -0.776721
vn -0.629845 -1.1209e-05 -0.776721
vn 0.688944 -4.68758e-05 -0.724815
vn 0.688955 -3.38651e-05 -0.724804
vn 0.688955 -3.76507e-05 -0.724804
vn 0.688975 -4.74684e-05 -0.724785
vn 0.688955 -3.76589e-05 -0.724804
vn 0.557323 0.587892 -0.586323
vn 0.336901 0.872282 -0.354432
vn 0.688952 -3.28538e-05 -0.724807
vn 0.750255 4.85894e-06 0.661148
vn 0.750255 5.07453e-06 0.661149
vn 0.750255 4.94514e-06 0.661149
vn 0.750255 5.14096e-06 0.661148
vn 0.750255 4.98194e-06 0.661149
vn 0.750255 4.97118e-06 0.661149
vn -0.688955 3.76343e-05 0.724804
vn -0.688955 3.76663e-05 0.724804
vn -0.688955 3.76543e-05 0.724804
vn 0.629845 1.12012e-05 0.776721
vn 0.629845 1.11588e-05 0.776721
vn 0.688955 -3.76676e-05 -0.724804
vn 0.688955 -3.76528e-05 -0.724804

# Mesh 'defaultobject' with 128 faces
g defaultobject
usemtl DefaultMaterial
f  1//1 2//1 3//1
f  2//1 1//1 4//1
f  5//2 6//2 7//2
f  6//2 5//2 8//3
f  7//4 9//4 10//4
f  9//4 7//4 6//5
f  10//6 11//6 12//6
f  11//6 10//6 9//7
f  13//8 14//8 15//8
f  14//9 13//9 16//9
f  14//9 16//9 17//10
f  15//11 18//11 19//11
f  18//11 15//11 14//12
f  20//13 21//13 22//13
f  21//13 20//13 18//14
f  18//15 20//15 19//15
f  22//16 23//16 24//16
f  23//16 22//16 25//17
f  23//18 26//18 27//18
f  26//18 23//18 25//19
f  24//20 28//20 29//20
f  28//20 24//20 23//21
f  28//22 27//22 30//22
f  27//22 28//22 23//23
f  28//24 16//24 29//24
f  16//25 28//25 30//25
f  31//26 32//26 33//26
f  32//27 31//27 34//27
f  34//28 31//26 16//28
f  33//29 35//29 36//29
f  35//29 33//29 32//30
f  36//31 26//31 37//31
f  26//31 36//31 38//32
f  38//33 36//33 35//33
f  39//34 40//34 41//34
f  40//34 39//34 42//35
f  43//36 44//36 45//36
f  44//36 43//36 46//36
f  46//36 43//36 47//36
f  46//36 47//36 48//36
f  48//36 47//36 49//36
f  48//36 49//36 50//36
f  51//36 52//36 53//36
f  52//36 54//37 55//37
f  54//37 52//36 56//38
f  56//38 52//36 57//39
f  57//39 52//36 58//40
f  58//40 52//36 51//36
f  58//40 51//36 59//36
f  58//40 59//36 60//36
f  60//36 59//36 61//36
f  60//36 61//36 62//18
f  1//41 39//41 41//41
f  39//41 1//41 3//42
f  4//43 41//43 40//43
f  41//43 4//43 1//44
f  42//45 4//45 40//45
f  4//45 42//45 2//45
f  39//46 2//46 42//46
f  2//46 39//46 3//46
f  6//47 11//47 9//47
f  11//47 6//47 8//48
f  11//47 8//48 49//49
f  11//47 49//49 47//50
f  11//47 47//50 43//51
f  11//47 43//51 45//52
f  12//53 7//53 10//53
f  7//53 12//53 5//54
f  5//54 12//53 50//55
f  50//55 12//53 48//56
f  48//56 12//53 46//57
f  46//57 12//53 44//58
f  49//59 5//59 50//59
f  5//59 49//59 8//59
f  12//60 45//60 44//60
f  45//60 12//60 11//61
f  20//62 15//62 19//62
f  15//62 20//62 63//63
f  15//62 63//63 13//64
f  13//64 63//63 64//65
f  64//66 63//66 65//66
f  64//67 65//67 66//67
f  32//68 38//68 35//68
f  38//69 32//69 67//69
f  67//69 32//69 34//70
f  67//69 34//70 68//71
f  68//71 34//70 69//72
f  68//71 69//72 70//43
f  14//73 21//73 18//73
f  21//73 14//73 17//74
f  21//73 17//74 57//75
f  57//75 17//74 55//76
f  57//39 55//37 56//38
f  56//1 55//1 54//1
f  26//77 38//77 27//77
f  38//78 30//78 27//78
f  30//78 38//78 67//79
f  30//80 67//80 34//80
f  34//80 67//80 68//81
f  34//82 68//82 69//82
f  69//1 68//1 70//43
f  16//83 30//83 34//82
f  57//84 22//84 21//84
f  22//84 57//84 25//85
f  25//85 57//84 58//86
f  25//85 58//86 60//87
f  16//88 13//88 29//88
f  29//89 20//89 24//89
f  20//89 29//89 63//90
f  63//91 29//91 13//91
f  63//90 13//92 64//92
f  63//93 64//93 65//93
f  65//94 64//94 66//94
f  22//95 24//89 20//89
f  37//96 33//96 36//96
f  33//96 37//96 31//97
f  31//97 37//96 53//98
f  53//98 37//96 51//99
f  51//99 37//96 59//100
f  59//100 37//96 61//101
f  60//102 26//102 25//102
f  26//102 60//102 37//103
f  37//103 60//102 61//104
f  61//104 60//36 62//43
f  55//105 16//83 52//105
f  16//83 55//105 17//106
f  52//107 31//107 53//107
f  31//107 52//107 16//108

