# {"id":"BLDG_00030009003f45e0","idOriginal":"BLDG_00030009003f45e0","origin":[13.390549317288556,52.5471003419882],"elevation":48.2299995422363}
# Longitude: 13.390549317288556
# Latitude: 52.5471003419882
# Elevation: 48.2299995422363

# File produced by Open Asset Import Library (http://www.assimp.sf.net)
# (assimp v3.1.0)

mtllib BLDG_00030009003f45e0.obj.mtl

# 16 vertex positions
v  12.3146 19.0298 -0.799377
v  15.9926 19.0298 7.19092
v  15.4562 19.0298 -1.00316
v  12.8326 19.0298 7.3959
v  0.000406318 19.0298 -0.000602829
v  0.51835 19.0298 8.19467
v  13.2685 19.0298 14.2936
v  0.956235 19.0298 15.1232
v  15.4558 6.13888e-17 -1.00256
v  12.3142 4.89108e-17 -0.798775
v  15.9922 -4.40354e-16 7.19152
v  12.8322 -4.52905e-16 7.3965
v  0 0 0
v  0.517944 -5.01816e-16 8.19527
v  0.955828 -9.26065e-16 15.1238
v  13.2681 -8.75266e-16 14.2942

# 0 UV coordinates

# 14 vertex normals
vn -0 1 0
vn -0.0647299 -3.02304e-05 -0.997903
vn 0.997864 -2.33741e-05 -0.0653222
vn 0.0647299 3.02241e-05 0.997903
vn -0.998009 2.33072e-05 0.0630745
vn -0.998009 2.33072e-05 0.0630745
vn -0.0647299 -3.02296e-05 -0.997903
vn -0.998009 2.33072e-05 0.0630745
vn 0.998009 -2.33046e-05 -0.0630745
vn 0.0672276 3.01658e-05 0.997738
vn 2.55978e-25 -1 -6.12323e-17
vn 7.63448e-24 -1 -6.12323e-17
vn -8.35896e-24 -1 -6.12323e-17
vn 7.41545e-24 -1 -6.12323e-17

# Mesh 'defaultobject' with 28 faces
g defaultobject
usemtl DefaultMaterial
f  1//1 2//1 3//1
f  2//1 1//1 4//1
f  4//1 5//1 6//1
f  5//1 4//1 1//1
f  7//1 6//1 8//1
f  6//1 7//1 4//1
f  1//2 9//2 10//2
f  9//2 1//2 3//2
f  9//3 2//3 11//3
f  2//3 9//3 3//3
f  11//4 4//4 12//4
f  4//4 11//4 2//4
f  6//5 13//5 14//5
f  13//5 6//5 5//6
f  5//7 10//2 13//7
f  10//2 5//7 1//2
f  8//8 14//5 15//8
f  14//5 8//8 6//5
f  12//9 7//9 16//9
f  7//9 12//9 4//9
f  16//10 8//10 15//10
f  8//10 16//10 7//10
f  9//11 12//11 10//11
f  12//11 9//11 11//12
f  13//13 12//11 14//13
f  12//11 13//13 10//11
f  14//13 16//14 15//14
f  16//14 14//13 12//11

