# {"id":"BLDG_000300000026a4ac","idOriginal":"BLDG_000300000026a4ac","origin":[13.329255046675867,52.52427159066851],"elevation":33.7599983215332}
# Longitude: 13.329255046675867
# Latitude: 52.52427159066851
# Elevation: 33.7599983215332

# File produced by Open Asset Import Library (http://www.assimp.sf.net)
# (assimp v3.1.0)

mtllib BLDG_000300000026a4ac.obj.mtl

# 10 vertex positions
v  8.53411 4.8482 2.17928
v  1.41572 4.8482 -5.18097
v  0.000103107 4.8482 -0.00015336
v  6.53233 4.8482 -3.86972
v  9.96443 4.8482 -2.98845
v  8.534 -1.33452e-16 2.17943
v  0 0 0
v  9.96432 1.8298e-16 -2.98829
v  6.53223 2.36943e-16 -3.86957
v  1.41562 3.17234e-16 -5.18082

# 0 UV coordinates

# 12 vertex normals
vn 0 1 0
vn -0.24744 3.59115e-05 0.968903
vn 0.963766 -1.20328e-05 0.266751
vn 0.248707 -3.59828e-05 -0.968579
vn 0.248707 -3.59107e-05 -0.968579
vn 0.24825 -3.5857e-05 -0.968696
vn 0.24825 -3.59767e-05 -0.968696
vn -0.964638 1.21774e-05 -0.263579
vn -0.964638 1.21715e-05 -0.263579
vn 5.60579e-25 -1 -6.12323e-17
vn -1.39041e-24 -1 -6.12323e-17
vn 2.79961e-24 -1 -6.12323e-17

# Mesh 'defaultobject' with 16 faces
g defaultobject
usemtl DefaultMaterial
f  1//1 2//1 3//1
f  2//1 1//1 4//1
f  4//1 1//1 5//1
f  6//2 3//2 7//2
f  3//2 6//2 1//2
f  8//3 1//3 6//3
f  1//3 8//3 5//3
f  4//4 8//4 9//4
f  8//4 4//4 5//5
f  2//6 9//6 10//6
f  9//6 2//6 4//7
f  3//8 10//8 7//8
f  10//8 3//8 2//9
f  7//10 8//10 6//10
f  8//10 7//10 9//11
f  9//11 7//10 10//12

