# {"id":"BLDG_0003000e001236c4","idOriginal":"BLDG_0003000e001236c4","origin":[13.334224991296303,52.55595732364241],"elevation":36.37}
# Longitude: 13.334224991296303
# Latitude: 52.55595732364241
# Elevation: 36.37

# File produced by Open Asset Import Library (http://www.assimp.sf.net)
# (assimp v3.1.0)

mtllib BLDG_0003000e001236c4.obj.mtl

# 18 vertex positions
v  14.2018 -2.60535e-17 0.425487
v  17.7356 15.42 3.97112
v  17.7353 -2.43191e-16 3.97161
v  10.6684 -1.06812e-06 -3.12064
v  6.86109 -1.06812e-06 -6.94157
v  10.6687 15.42 -3.12113
v  6.86142 15.42 -6.94205
v  14.2022 19.39 0.424872
v  11.1975 15.42 10.5859
v  3.92037 -1.06812e-06 3.70651
v  11.1972 -6.48229e-16 10.5864
v  0 -1.06812e-06 -6.54032e-23
v  3.9207 15.42 3.70602
v  0.000328069 15.42 -0.0004888
v  3.43054 -1.06812e-06 -3.47078
v  3.43096 19.39 -3.4714
v  10.8807 19.39 3.78535
v  7.29478 19.39 0.292318

# 0 UV coordinates

# 31 vertex normals
vn 0.708371 -3.74462e-05 -0.705841
vn 0.708371 -3.74586e-05 -0.70584
vn 0.708371 -3.75164e-05 -0.70584
vn 0.708371 -3.74586e-05 -0.705841
vn 0.708371 -3.74476e-05 -0.705841
vn 0.708371 -3.75012e-05 -0.705841
vn -0.687009 3.76709e-05 0.726649
vn -0.687009 3.76458e-05 0.726649
vn -0.687009 3.7648e-05 0.726649
vn -0.687009 3.76506e-05 0.726649
vn -0.711217 -7.15203e-06 -0.702972
vn -0.711217 -7.16043e-06 -0.702972
vn -0.711217 -7.15035e-06 -0.702972
vn -0.711217 -7.13761e-06 -0.702972
vn 0.711218 7.1551e-06 0.702972
vn -9.09656e-24 -1 -6.12323e-17
vn 2.33108e-07 -1 6.89309e-08
vn -8.13541e-08 -1 8.10635e-08
vn 4.93108e-08 -1 4.87392e-08
vn 1.56907e-07 -1 -1.07084e-08
vn 0 -1 0
vn -0.442001 0.765555 0.467505
vn -0.444732 0.770561 0.456562
vn -0.437933 0.770492 0.463202
vn -0.440336 0.77573 0.452048
vn 0.444749 0.770542 -0.456578
vn 0.444749 0.770542 -0.456578
vn 0.447045 0.77571 -0.445448
vn 0.441932 0.783514 0.436809
vn 0.441932 0.783514 0.436809
vn -0.441936 0.78351 -0.436812

# Mesh 'defaultobject' with 32 faces
g defaultobject
usemtl DefaultMaterial
f  1//1 2//1 3//1
f  2//1 1//1 4//2
f  2//1 4//2 5//3
f  2//1 5//3 6//4
f  6//4 5//3 7//5
f  8//6 2//1 6//4
f  9//7 10//7 11//7
f  10//7 9//7 12//8
f  12//8 9//7 13//9
f  12//8 13//9 14//10
f  14//11 15//11 12//11
f  15//11 14//11 5//12
f  5//12 14//11 7//13
f  7//13 14//11 16//14
f  3//15 9//15 11//15
f  9//15 3//15 2//15
f  11//16 1//16 3//16
f  1//16 11//16 4//17
f  4//17 11//16 5//18
f  5//18 11//16 15//19
f  15//19 11//16 10//20
f  15//19 10//20 12//21
f  17//22 13//22 9//22
f  13//23 17//23 18//23
f  13//24 18//24 14//24
f  14//25 18//25 16//25
f  6//26 18//26 17//26
f  18//26 6//26 16//27
f  16//28 6//28 7//28
f  17//29 2//29 8//29
f  2//29 17//29 9//30
f  6//31 17//31 8//31

