# {"id":"BLDG_000300000028092e","idOriginal":"BLDG_000300000028092e","origin":[13.348463859235672,52.52401237048572],"elevation":34.66}
# Longitude: 13.348463859235672
# Latitude: 52.52401237048572
# Elevation: 34.66

# File produced by Open Asset Import Library (http://www.assimp.sf.net)
# (assimp v3.1.0)

mtllib BLDG_000300000028092e.obj.mtl

# 30 vertex positions
v  16.0741 17.46 -13.6845
v  20.448 19.3 -7.37646
v  21.7692 19.3 -12.4069
v  19.5542 19.3 -3.97359
v  14.7529 17.46 -8.65402
v  12.2449 19.3 0.8947
v  11.7072 17.46 2.94175
v  17.9021 19.3 2.31653
v  0.380698 19.3 -2.08715
v  0.000371778 17.46 -0.00055229
v  17.3645 19.3 4.36353
v  15.8258 19.3 10.2218
v  10.1685 17.46 8.79999
v  13.897 19.3 -5.39542
v  1.54926 19.3 -8.49881
v  2.09507 17.46 -11.4937
v  21.7688 -1.52588e-07 -12.4063
v  15.8254 -1.52588e-07 10.2224
v  20.4476 -1.52588e-07 -7.37585
v  19.5538 -1.52588e-07 -3.97298
v  17.9017 -1.52588e-07 2.31714
v  17.364 -1.52588e-07 4.36414
v  0.380287 -1.52588e-07 -2.08654
v  0 -1.52588e-07 -9.34331e-24
v  1.54885 5.20364e-16 -8.4982
v  2.09469 7.03749e-16 -11.4931
v  16.0738 -1.52588e-07 -13.6839
v  14.7525 5.29872e-16 -8.65347
v  11.7069 -1.52588e-07 2.9423
v  10.1682 -1.52588e-07 8.80054

# 0 UV coordinates

# 40 vertex normals
vn -0.290973 0.953674 -0.0764246
vn -0.290973 0.953674 -0.0764244
vn -0.290973 0.953674 -0.0764244
vn -0.159928 0.754662 0.636324
vn -0.159928 0.754662 0.636324
vn -0.159928 0.754662 0.636324
vn -0.290973 0.953674 -0.0764244
vn -0.290973 0.953674 -0.0764245
vn -0.290973 0.953674 -0.0764245
vn 0 1 0
vn 0.116838 0.877632 -0.464877
vn 0.104974 0.877512 -0.467925
vn 0.126289 0.855315 -0.502481
vn 0.967195 -1.2612e-05 0.254035
vn 0.967195 -1.24576e-05 0.254035
vn 0.967195 -1.25215e-05 0.254035
vn 0.967195 -1.25143e-05 0.254035
vn 0.967195 -1.27267e-05 0.254035
vn 0.967195 -1.25369e-05 0.254035
vn 0 -1 0
vn -0.983794 1.52764e-05 -0.179303
vn -0.983794 1.52825e-05 -0.179303
vn -0.983794 1.52599e-05 -0.179303
vn -0.983794 1.52863e-05 -0.179303
vn -0.983794 1.53506e-05 -0.179303
vn -0.983794 1.5309e-05 -0.179303
vn -0.967195 1.25693e-05 -0.254035
vn 0.218898 -3.55213e-05 -0.975748
vn 0.218898 -3.55302e-05 -0.975748
vn 0.218898 -3.55213e-05 -0.975748
vn -0.243751 3.58558e-05 0.969838
vn -0.243751 3.58635e-05 0.969838
vn -0.243751 3.59091e-05 0.969838
vn -0.967195 1.25693e-05 -0.254035
vn -0.176844 0.983142 -0.0464482
vn 0.967195 0 0.254035
vn 2.78779e-09 -1 -1.24267e-08
vn 3.19065e-09 -1 -1.2695e-08
vn -0.430799 0.899026 -0.078516
vn 0.983794 0 0.179303

# Mesh 'defaultobject' with 56 faces
g defaultobject
usemtl DefaultMaterial
f  1//1 2//1 3//1
f  2//1 1//1 4//2
f  4//2 1//1 5//3
f  6//4 7//4 8//4
f  7//4 6//4 9//5
f  7//4 9//5 10//6
f  7//7 11//7 8//7
f  11//7 7//7 12//8
f  12//8 7//7 13//9
f  4//10 6//10 8//10
f  6//10 4//10 9//10
f  9//10 4//10 14//10
f  9//10 14//10 15//10
f  4//11 5//11 14//11
f  16//12 14//12 5//12
f  14//13 16//13 15//13
f  2//14 17//14 3//14
f  17//14 2//14 4//15
f  17//14 4//15 8//16
f  17//14 8//16 11//17
f  17//14 11//17 12//18
f  17//14 12//18 18//19
f  17//14 18//19 19//2
f  19//2 18//10 20//10
f  20//20 18//20 21//20
f  21//10 18//10 22//10
f  10//21 23//21 24//21
f  23//21 10//21 25//22
f  25//22 10//21 26//23
f  26//23 10//21 16//24
f  16//24 10//21 9//25
f  16//24 9//25 15//26
f  5//27 27//27 28//27
f  27//27 5//27 1//27
f  1//28 17//28 27//28
f  17//28 1//28 3//29
f  16//30 28//30 26//30
f  28//30 16//30 5//30
f  29//31 10//31 24//31
f  10//31 29//31 7//31
f  18//32 13//32 30//32
f  13//32 18//32 12//33
f  13//34 29//34 30//34
f  29//34 13//34 7//34
f  19//23 27//20 17//20
f  27//20 19//23 20//20
f  27//20 20//20 21//20
f  27//20 21//20 22//20
f  27//20 22//20 18//20
f  27//20 18//20 30//20
f  27//35 30//35 28//35
f  28//36 30//36 29//36
f  29//37 26//37 28//37
f  26//37 29//37 24//38
f  26//39 24//39 25//39
f  25//40 24//40 23//40

