# {"id":"BLDG_00030008002ff63b","idOriginal":"BLDG_00030008002ff63b","origin":[13.349889901171814,52.56016330929679],"elevation":38.7000007629395}
# Longitude: 13.349889901171814
# Latitude: 52.56016330929679
# Elevation: 38.7000007629395

# File produced by Open Asset Import Library (http://www.assimp.sf.net)
# (assimp v3.1.0)

mtllib BLDG_00030008002ff63b.obj.mtl

# 14 vertex positions
v  7.39099 12.624 7.02681
v  3.58651 12.624 -3.75585
v  0.000268854 12.624 -0.00040027
v  5.07731 12.624 -5.31732
v  8.44129 12.624 -8.84204
v  15.8177 12.624 -1.80213
v  8.05419 12.624 6.33255
v  0 0 0
v  8.05392 -3.87781e-16 6.33295
v  7.39073 -4.30292e-16 7.02721
v  15.8175 1.10324e-16 -1.80173
v  3.58625 2.29955e-16 -3.75545
v  5.07704 3.25567e-16 -5.31692
v  8.44102 5.41394e-16 -8.84164

# 0 UV coordinates

# 18 vertex normals
vn 0 1 0
vn 2.16267e-23 -1 -6.12324e-17
vn 1.84648e-24 -1 -6.12323e-17
vn 2.49997e-25 -1 -6.12323e-17
vn 0 -1 -6.12323e-17
vn -0.68906 3.76461e-05 0.724705
vn -0.68906 3.76533e-05 0.724705
vn 0.723101 6.48395e-06 0.690742
vn 0.723101 6.511e-06 0.690742
vn 0.723417 6.50321e-06 0.690412
vn 0.690412 -3.76365e-05 -0.723417
vn 0.690412 -3.76068e-05 -0.723417
vn -0.72341 -6.49616e-06 -0.690419
vn -0.72341 -6.44276e-06 -0.690419
vn -0.723285 -6.48931e-06 -0.69055
vn -0.723285 -6.50297e-06 -0.69055
vn -0.723212 -6.49549e-06 -0.690626
vn -0.723212 -6.49329e-06 -0.690626

# Mesh 'defaultobject' with 24 faces
g defaultobject
usemtl DefaultMaterial
f  1//1 2//1 3//1
f  2//1 1//1 4//1
f  4//1 1//1 5//1
f  5//1 1//1 6//1
f  6//1 1//1 7//1
f  8//2 9//2 10//2
f  9//2 8//2 11//3
f  11//3 8//2 12//4
f  11//3 12//4 13//5
f  11//3 13//5 14//5
f  1//6 8//6 10//6
f  8//6 1//6 3//7
f  9//8 1//8 10//8
f  1//8 9//8 7//9
f  11//10 7//10 9//10
f  7//10 11//10 6//10
f  14//11 6//11 11//11
f  6//11 14//11 5//12
f  4//13 14//13 13//13
f  14//13 4//13 5//14
f  2//15 13//15 12//15
f  13//15 2//15 4//16
f  3//17 12//17 8//17
f  12//17 3//17 2//18

