# {"id":"BLDG_0003000f001baae7","idOriginal":"BLDG_0003000f001baae7","origin":[13.356986890943356,52.54112213484713],"elevation":35.8800010681152}
# Longitude: 13.356986890943356
# Latitude: 52.54112213484713
# Elevation: 35.8800010681152

# File produced by Open Asset Import Library (http://www.assimp.sf.net)
# (assimp v3.1.0)

mtllib BLDG_0003000f001baae7.obj.mtl

# 37 vertex positions
v  10.2322 -1.06812e-06 -3.73603
v  1.13308 -1.06812e-06 3.14102
v  0 -1.06812e-06 -6.54032e-23
v  2.94824 -1.06812e-06 8.17278
v  13.6693 -1.06812e-06 -4.99101
v  4.1797 -1.06812e-06 11.5865
v  13.6709 3.05647e-16 -4.9916
v  18.1948 -1.06812e-06 -6.64337
v  14.567 -1.06812e-06 7.79384
v  22.2329 -1.06812e-06 -8.1178
v  26.5678 -1.06812e-06 3.41207
v  16.0379 1.50603e-15 -24.5953
v  11.9992 1.41566e-15 -23.1194
v  7.47683 1.31446e-15 -21.4667
v  4.03846 1.23752e-15 -20.2102
v  11.9997 22.4992 -23.1201
v  22.2333 18.65 -8.11839
v  16.0383 18.6529 -24.5959
v  18.1952 22.5 -6.64408
v  26.5682 18.65 3.41148
v  21.253 22.5 1.48887
v  10.2326 18.65 -3.73662
v  11.4078 21.9 -0.611188
v  14.8449 21.9 -1.86617
v  1.13355 21.9 3.14032
v  0.000397352 18.65 -0.00059059
v  13.2904 22.5 4.39621
v  2.94871 22.5 8.17207
v  14.5674 18.65 7.79325
v  4.1801 18.65 11.5859
v  4.03886 18.6529 -20.2108
v  13.6714 21.9015 -4.99229
v  7.47729 21.9015 -21.4674
v  13.6698 21.9 -4.99171
v  10.2326 18.6529 -3.73662
v  13.6714 21.9002 -4.99229
v  22.2333 18.6529 -8.11839

# 0 UV coordinates

# 56 vertex normals
vn 0 -1 0
vn 0.000844561 -0.999999 0.000483459
vn -3.28249e-07 -1 -2.52357e-07
vn -2.08115e-08 -1 -5.69981e-08
vn -2.08289e-08 -1 -5.6996e-08
vn 9.99516e-24 -1 -6.12323e-17
vn 0.000587348 -1 -0.000220823
vn -2.08318e-08 -1 -5.70038e-08
vn 0.624115 0.745307 -0.234514
vn 0.624466 0.744906 -0.234856
vn 0.624491 0.744906 -0.234788
vn 0.624491 0.744906 -0.234788
vn -0.239228 0.716584 -0.655193
vn -0.239235 0.716584 -0.65519
vn -0.239223 0.716597 -0.65518
vn -0.0382296 0.993769 -0.104703
vn -0.0382296 0.993769 -0.104703
vn -0.0382283 0.993768 -0.104703
vn -0.0382327 0.993768 -0.104707
vn 0.24958 0.685912 0.683546
vn 0.24958 0.685912 0.683546
vn 0.24958 0.685912 0.683546
vn 0.249567 0.685925 0.683537
vn -0.621289 0.747956 0.233584
vn -0.621044 0.748226 0.233371
vn -0.62129 0.747955 0.233584
vn 0.343003 0 0.939334
vn -0.115453 0.992366 0.0433646
vn -0.115308 0.992383 0.0433518
vn -0.115685 0.992333 0.0434939
vn -0.115686 0.992333 0.0434939
vn -0.359122 0.19469 -0.912758
vn -0.621604 0.747658 0.233702
vn 0.342978 2.24138e-05 0.939343
vn 0.342978 2.24369e-05 0.939343
vn 0.342978 2.24281e-05 0.939343
vn -0.936031 3.1103e-05 0.351917
vn -0.936031 3.11117e-05 0.351917
vn -0.936031 0 0.351917
vn 0.936031 -3.10278e-05 -0.351917
vn 0.936031 -3.11644e-05 -0.351917
vn 0.936031 0 -0.351917
vn 0.936031 -3.11516e-05 -0.351917
vn -0.342978 -2.24388e-05 -0.939343
vn -0.342978 -2.24314e-05 -0.939343
vn -0.343243 -2.24746e-05 -0.939246
vn -0.343243 -2.22434e-05 -0.939246
vn -0.343243 -2.23789e-05 -0.939246
vn -0.343243 -2.23539e-05 -0.939247
vn -0.343243 -2.24156e-05 -0.939246
vn -0.343244 -2.24551e-05 -0.939246
vn -0.940666 3.07398e-05 0.339334
vn -0.940666 3.07795e-05 0.339334
vn -0.940666 3.07708e-05 0.339334
vn -0.940666 3.07751e-05 0.339334
vn 0 1 0

# Mesh 'defaultobject' with 67 faces
g defaultobject
usemtl DefaultMaterial
f  1//1 2//1 3//1
f  2//1 1//1 4//1
f  4//1 1//1 5//1
f  4//1 5//1 6//1
f  6//2 5//2 7//2
f  6//1 7//3 8//3
f  6//1 8//3 9//1
f  9//1 8//3 10//1
f  9//1 10//1 11//1
f  8//3 12//4 10//1
f  12//4 8//3 13//5
f  13//5 8//3 7//3
f  13//5 7//3 14//6
f  14//7 7//7 5//7
f  14//6 5//1 1//1
f  14//6 1//1 15//8
f  16//9 17//9 18//9
f  17//10 16//10 19//10
f  17//11 19//11 20//11
f  20//11 19//11 21//12
f  22//13 23//13 24//13
f  23//13 22//13 25//14
f  25//15 22//15 26//15
f  24//16 27//16 21//16
f  27//16 24//16 23//17
f  27//16 23//17 28//18
f  28//18 23//17 25//19
f  21//20 29//20 20//20
f  29//20 21//20 27//21
f  29//20 27//21 30//22
f  30//23 27//23 28//23
f  31//24 32//24 33//24
f  32//25 31//25 34//25
f  34//26 31//24 35//26
f  32//27 34//27 36//27
f  16//28 32//28 19//28
f  32//29 16//29 33//29
f  21//30 34//30 24//30
f  34//30 21//30 19//31
f  34//32 19//32 36//32
f  22//33 24//33 34//33
f  20//34 9//34 11//34
f  9//34 20//34 6//35
f  6//35 20//34 30//36
f  30//36 20//11 29//20
f  22//37 15//37 1//37
f  15//37 22//37 31//38
f  31//39 22//39 35//39
f  18//40 10//40 12//40
f  10//40 18//40 17//41
f  17//42 18//42 37//42
f  10//40 20//43 11//43
f  20//43 10//40 17//41
f  26//44 1//44 3//44
f  1//44 26//44 22//45
f  18//46 33//46 16//46
f  33//46 18//46 31//47
f  31//47 18//46 12//48
f  31//47 12//48 13//49
f  31//47 13//49 14//50
f  31//47 14//50 15//51
f  25//52 30//52 28//52
f  30//52 25//52 26//53
f  30//52 26//53 3//54
f  30//52 3//54 6//55
f  6//1 3//1 2//1
f  6//56 2//56 4//56

