# {"id":"BLDG_0003000f00082068","idOriginal":"BLDG_0003000f00082068","origin":[13.332265182937558,52.52118097444032],"elevation":34.1399993896484}
# Longitude: 13.332265182937558
# Latitude: 52.52118097444032
# Elevation: 34.1399993896484

# File produced by Open Asset Import Library (http://www.assimp.sf.net)
# (assimp v3.1.0)

mtllib BLDG_0003000f00082068.obj.mtl

# 8 vertex positions
v  7.35466 -1.05694e-16 1.72611
v  5.59426 2.2273 4.11607
v  5.59422 -2.52041e-16 4.11614
v  7.3547 2.2273 1.72604
v  1.75922 1.46349e-16 -2.39006
v  1.75927 2.2273 -2.39013
v  4.7376e-05 2.2273 -7.04397e-05
v  0 0 0

# 0 UV coordinates

# 11 vertex normals
vn 0.805159 1.65881e-06 0.593059
vn 0.805159 1.65881e-06 0.593059
vn 0.592566 -3.78472e-05 -0.805522
vn 0.592566 -3.80937e-05 -0.805522
vn -0.805358 -1.61687e-06 -0.592789
vn -0.805358 -1.6701e-06 -0.592789
vn -0.592647 3.8082e-05 0.805462
vn -0.592647 3.80792e-05 0.805462
vn -1.02698e-23 -1 -6.12323e-17
vn 5.13684e-24 -1 -6.12323e-17
vn 0 1 0

# Mesh 'defaultobject' with 12 faces
g defaultobject
usemtl DefaultMaterial
f  1//1 2//1 3//1
f  2//1 1//1 4//2
f  5//3 4//3 1//3
f  4//3 5//3 6//4
f  7//5 5//5 8//5
f  5//5 7//5 6//6
f  2//7 8//7 3//7
f  8//7 2//7 7//8
f  3//9 5//9 1//9
f  5//9 3//9 8//10
f  2//11 6//11 7//11
f  6//11 2//11 4//11

