# {"id":"BLDG_000300090068f78f","idOriginal":"BLDG_000300090068f78f","origin":[13.395048450316839,52.536527684161754],"elevation":43.8199996948242}
# Longitude: 13.395048450316839
# Latitude: 52.536527684161754
# Elevation: 43.8199996948242

# File produced by Open Asset Import Library (http://www.assimp.sf.net)
# (assimp v3.1.0)

mtllib BLDG_000300090068f78f.obj.mtl

# 10 vertex positions
v  10.7407 16.5503 -4.80386
v  2.65072 19.2654 5.55105
v  13.3911 19.2654 0.747705
v  0.000353468 16.5503 -0.000523911
v  5.30098 16.5503 11.1028
v  16.0414 16.5503 6.29945
v  10.7404 2.9412e-16 -4.80334
v  5.30062 -6.79882e-16 11.1033
v  0 0 0
v  16.041 -3.85762e-16 6.29997

# 0 UV coordinates

# 16 vertex normals
vn -0.164886 0.914812 -0.368688
vn -0.164886 0.914812 -0.368689
vn 0.164883 0.914815 0.368683
vn 0.164883 0.914815 0.368683
vn 0 -1 -6.12323e-17
vn 2.92656e-24 -1 -6.12323e-17
vn -0.902439 3.28952e-05 0.430817
vn -0.902439 3.29113e-05 0.430817
vn -0.902439 3.28876e-05 0.430817
vn -0.408255 -2.01783e-05 -0.912868
vn -0.408255 -2.01771e-05 -0.912868
vn 0.902439 -3.29336e-05 -0.430817
vn 0.902439 -3.28816e-05 -0.430817
vn 0.902439 -3.29447e-05 -0.430817
vn 0.408255 2.01584e-05 0.912868
vn 0.408255 2.01976e-05 0.912868

# Mesh 'defaultobject' with 16 faces
g defaultobject
usemtl DefaultMaterial
f  1//1 2//1 3//1
f  2//1 1//1 4//2
f  3//3 5//3 6//3
f  5//3 3//3 2//4
f  7//5 8//5 9//5
f  8//5 7//5 10//6
f  5//7 9//7 8//7
f  9//7 5//7 4//8
f  4//8 5//7 2//9
f  4//10 7//10 9//10
f  7//10 4//10 1//11
f  1//12 10//12 7//12
f  10//12 1//12 6//13
f  6//13 1//12 3//14
f  10//15 5//15 8//15
f  5//15 10//15 6//16

