# {"id":"BLDG_0003000a00112392","idOriginal":"BLDG_0003000a00112392","origin":[13.381035572208612,52.545747287364144],"elevation":45.1399993896484}
# Longitude: 13.381035572208612
# Latitude: 52.545747287364144
# Elevation: 45.1399993896484

# File produced by Open Asset Import Library (http://www.assimp.sf.net)
# (assimp v3.1.0)

mtllib BLDG_0003000a00112392.obj.mtl

# 29 vertex positions
v  20.0772 3.94973e-16 -6.45039
v  12.844 4.01791 3.9632
v  12.8439 -2.42684e-16 3.96333
v  20.0773 4.01791 -6.45052
v  10.7345 -1.54044e-16 2.51573
v  10.7346 4.00112 2.51561
v  17.9654 4.834e-16 -7.89453
v  17.9655 4.00112 -7.89466
v  13.837 6.56275e-16 -10.7178
v  13.837 4.00112 -10.7179
v  8.45282 4.00112 5.80071
v  4.33594 -1.82204e-16 2.97562
v  8.45273 -3.55199e-16 5.80083
v  4.33603 4.00112 2.97549
v  18.3583 1.05529e-15 -17.2342
v  13.837 4.01791 -10.7179
v  18.3584 4.01791 -17.2343
v  9.49615 4.00112 -13.6864
v  14.0174 1.23706e-15 -20.2027
v  9.49607 8.38043e-16 -13.6863
v  14.0175 4.00112 -20.2028
v  6.61616 4.01791 -0.310765
v  6.61616 4.00112 -0.310764
v  2.28021 4.00112 -3.28638
v  2.28013 2.01225e-16 -3.28625
v  4.33603 4.01791 2.97549
v  0 0 0
v  8.5378e-05 4.00112 -0.000126731
v  6.61607 1.9021e-17 -0.310637

# 0 UV coordinates

# 39 vertex normals
vn 0.821313 5.99035e-07 0.570478
vn -0.565839 3.82139e-05 0.824516
vn -0.565838 3.8092e-05 0.824516
vn 0.564479 -3.82241e-05 -0.825447
vn 0.564479 -3.82681e-05 -0.825447
vn 0.564479 -3.82677e-05 -0.825447
vn -0.565838 3.81412e-05 0.824516
vn -0.565838 3.82086e-05 0.824516
vn 0.821313 6.55498e-07 0.570478
vn 0.821313 6.25703e-07 0.570478
vn 0.821603 5.98528e-07 0.57006
vn -0.821603 -4.46602e-07 -0.57006
vn -0.821603 -3.1073e-07 -0.57006
vn 0.564479 -3.83194e-05 -0.825447
vn 0.564479 -3.80724e-05 -0.825447
vn 0.821603 0 0.57006
vn 0.821603 3.58571e-05 0.57006
vn -0.821603 -5.44517e-07 -0.57006
vn 0.821603 -7.09717e-06 0.57006
vn 0.821603 1.41944e-05 0.57006
vn -0.565838 3.82139e-05 0.824516
vn -0.565838 3.81898e-05 0.824516
vn -0.821603 -5.24165e-07 -0.57006
vn -0.00539259 0.999978 -0.00374565
vn -0.00539259 0.999978 -0.00374565
vn 0 1 -0
vn -0.00262438 0.999995 -0.0018209
vn -0.00262438 0.999995 -0.0018209
vn -0.00262438 0.999995 -0.0018209
vn -0.00262438 0.999995 -0.0018209
vn -0.00262438 0.999995 -0.0018209
vn 2.61129e-23 -1 -6.12323e-17
vn 2.61216e-23 -1 -6.12323e-17
vn 0 -1 -6.12323e-17
vn 0 -1 -6.12323e-17
vn 1.01542e-23 -1 -6.12323e-17
vn -1.01542e-23 -1 -6.12323e-17
vn 0 -1 -6.12323e-17
vn 5.03376e-24 -1 -6.12323e-17

# Mesh 'defaultobject' with 52 faces
g defaultobject
usemtl DefaultMaterial
f  1//1 2//1 3//1
f  2//1 1//1 4//1
f  2//2 5//2 3//2
f  5//2 2//2 6//3
f  7//4 4//4 1//4
f  4//4 7//4 8//5
f  9//6 8//5 7//4
f  8//5 9//6 10//6
f  11//7 12//7 13//7
f  12//7 11//7 14//8
f  5//9 11//9 13//9
f  11//9 5//9 6//10
f  15//11 16//11 9//11
f  16//11 15//11 17//11
f  18//12 19//12 20//12
f  19//12 18//12 21//13
f  19//14 17//14 15//14
f  17//14 19//14 21//15
f  10//16 22//16 23//16
f  22//17 10//17 16//17
f  24//18 20//12 25//18
f  20//12 24//18 18//12
f  23//16 26//19 14//19
f  26//20 23//20 22//20
f  26//21 27//21 12//7
f  27//21 26//21 28//22
f  28//23 25//18 27//23
f  25//18 28//23 24//18
f  8//24 2//24 4//24
f  2//24 8//24 6//25
f  10//26 6//26 8//26
f  6//26 10//26 23//26
f  23//26 11//26 6//26
f  11//26 23//26 14//26
f  21//27 16//27 17//27
f  16//27 21//27 18//27
f  18//27 22//28 16//27
f  22//28 18//27 24//29
f  24//29 26//30 22//28
f  26//30 24//29 28//31
f  3//32 7//32 1//32
f  7//32 3//32 5//33
f  9//34 5//33 29//34
f  5//33 9//34 7//32
f  29//34 13//35 12//35
f  13//35 29//34 5//33
f  9//34 19//36 15//36
f  19//36 9//34 20//37
f  29//34 20//37 9//34
f  20//37 29//34 25//38
f  12//35 25//38 29//34
f  25//38 12//35 27//39

