# {"id":"BLDG_0003000f000e4d76","idOriginal":"BLDG_0003000f000e4d76","origin":[13.34438882466649,52.51892327632173],"elevation":33.73}
# Longitude: 13.34438882466649
# Latitude: 52.51892327632173
# Elevation: 33.73

# File produced by Open Asset Import Library (http://www.assimp.sf.net)
# (assimp v3.1.0)

mtllib BLDG_0003000f000e4d76.obj.mtl

# 40 vertex positions
v  10.4744 13.4776 13.6523
v  9.93841 13.4776 8.65617
v  1.56825 13.4776 14.6147
v  1.03218 13.4776 9.61799
v  8.90651 13.4776 -0.962245
v  0.000286901 13.4776 -0.000426169
v  13.1962 13.4776 -1.42551
v  14.2342 13.4776 8.19225
v  2.7038 10.2 25.2
v  12.1273 10.2 29.0599
v  11.61 10.2 24.2376
v  17.5287 10.2 38.7195
v  16.436 10.2 28.5949
v  3.22103 10.2 30.0212
v  13.2136 10.2 39.1852
v  4.3073 10.2 40.1465
v  14.7733 11.1971 13.1878
v  11.61 11.1971 24.2376
v  15.9156 11.1971 23.7723
v  2.70382 11.1971 25.2
v  1.5682 11.1971 14.6148
v  10.4744 11.1971 13.6524
v  2.70358 -1.54308e-15 25.2003
v  1.56796 -4.57764e-07 14.6152
v  1.0319 -4.57764e-07 9.61841
v  0 -4.57764e-07 -2.80299e-23
v  4.30709 -2.45828e-15 40.1468
v  3.22081 -1.83829e-15 30.0215
v  13.1959 -4.57764e-07 -1.42508
v  8.90622 -4.57764e-07 -0.961819
v  15.9153 -4.57764e-07 23.7726
v  11.6097 -1.48414e-15 24.2379
v  13.2134 -2.39942e-15 39.1855
v  17.5285 -2.3709e-15 38.7198
v  14.2339 -4.57764e-07 8.19268
v  9.93812 -4.57764e-07 8.6566
v  14.773 -4.57764e-07 13.1882
v  10.4741 -4.57764e-07 13.6527
v  16.4358 -1.75095e-15 28.5952
v  12.1271 -1.77943e-15 29.0602

# 0 UV coordinates

# 44 vertex normals
vn 0 1 0
vn -0.994294 2.45065e-05 0.106671
vn -0.994294 2.44377e-05 0.106671
vn -0.994294 2.45436e-05 0.106671
vn -0.994294 2.45453e-05 0.106671
vn -0.994294 2.45337e-05 0.106671
vn -0.994294 2.45633e-05 0.106671
vn -0.994294 2.45483e-05 0.106671
vn -0.994294 2.45418e-05 0.106671
vn -0.994294 2.45418e-05 0.106671
vn -0.10737 -2.91601e-05 -0.994219
vn -0.10737 -2.91476e-05 -0.994219
vn -0.10737 -2.91592e-05 -0.994219
vn -0.10737 -2.91522e-05 -0.994219
vn 0.107437 2.91298e-05 0.994212
vn 0.107437 2.92155e-05 0.994212
vn 0.107438 2.81694e-05 0.994212
vn 0.107437 2.80814e-05 0.994212
vn 0.107308 2.9318e-05 0.994226
vn 0.107308 2.92506e-05 0.994226
vn 0.107308 2.93231e-05 0.994226
vn 0.994227 -2.45703e-05 -0.1073
vn 0.10737 2.9167e-05 0.994219
vn 0.10737 2.91588e-05 0.994219
vn -0.107437 -2.91282e-05 -0.994212
vn -0.107437 -2.91373e-05 -0.994212
vn 0.994227 -2.45773e-05 -0.1073
vn 0.994227 -2.44733e-05 -0.1073
vn -0.107308 -2.91321e-05 -0.994226
vn -0.107308 -2.91522e-05 -0.994226
vn 0.994227 -2.46061e-05 -0.1073
vn 0.994227 -2.43949e-05 -0.1073
vn 0.994294 -2.44809e-05 -0.106671
vn 0.994294 -2.4596e-05 -0.106671
vn 0.107437 2.92702e-05 0.994212
vn 0.994294 -2.45696e-05 -0.106671
vn 0 -1 0
vn 5.08095e-08 -1 -5.45102e-09
vn 5.08095e-08 -1 -5.45102e-09
vn -9.91454e-08 -1 6.6376e-08
vn 0 -1 -6.12323e-17
vn 7.8003e-23 -1 -6.12324e-17
vn 1.91298e-09 -1 1.7724e-08
vn 0 -1 -6.12323e-17

# Mesh 'defaultobject' with 76 faces
g defaultobject
usemtl DefaultMaterial
f  1//1 2//1 3//1
f  4//1 5//1 6//1
f  5//1 4//1 7//1
f  7//1 4//1 2//1
f  7//1 2//1 8//1
f  2//1 4//1 3//1
f  9//1 10//1 11//1
f  10//1 12//1 13//1
f  12//1 10//1 9//1
f  12//1 9//1 14//1
f  12//1 14//1 15//1
f  15//1 14//1 16//1
f  17//1 18//1 19//1
f  18//1 17//1 20//1
f  20//1 17//1 21//1
f  21//1 17//1 22//1
f  4//2 21//2 3//2
f  21//2 9//3 20//3
f  9//3 21//2 23//4
f  23//4 21//2 24//5
f  24//5 21//2 4//2
f  24//5 4//2 6//6
f  24//5 6//6 25//7
f  25//7 6//6 26//8
f  14//9 27//9 16//9
f  27//9 14//9 28//10
f  28//10 14//9 9//3
f  28//10 9//3 23//4
f  29//11 5//11 7//11
f  5//11 29//11 6//12
f  6//12 29//11 30//13
f  6//12 30//13 26//14
f  31//15 11//15 32//15
f  11//15 31//15 19//16
f  11//15 19//16 18//17
f  11//15 20//18 9//18
f  20//18 11//15 18//17
f  12//19 33//19 34//19
f  33//19 12//19 27//20
f  27//20 12//19 16//21
f  16//1 12//1 15//1
f  29//22 8//22 35//22
f  8//22 29//22 7//22
f  35//23 2//23 36//23
f  2//23 35//23 8//24
f  22//7 37//25 38//25
f  37//25 22//7 17//26
f  37//27 19//27 31//27
f  19//27 37//27 17//28
f  10//29 39//29 40//29
f  39//29 10//29 13//30
f  39//31 12//31 34//31
f  12//31 39//31 13//32
f  2//33 38//33 36//33
f  38//33 2//33 22//7
f  22//7 2//33 1//34
f  22//7 3//35 21//35
f  3//35 22//7 1//35
f  32//36 10//36 40//36
f  10//36 32//36 11//36
f  26//37 36//37 38//37
f  36//37 26//37 30//37
f  36//37 30//37 35//37
f  35//37 30//37 29//37
f  25//38 40//38 24//38
f  40//38 25//38 32//39
f  32//39 25//38 26//37
f  32//39 26//37 31//40
f  31//40 26//37 38//37
f  31//40 38//37 37//37
f  28//41 33//41 27//41
f  33//41 28//41 23//42
f  33//41 23//42 24//38
f  33//41 24//38 34//43
f  34//43 24//38 40//38
f  34//43 40//38 39//44

