# {"id":"BLDG_0003000e00aa8388","idOriginal":"BLDG_0003000e00aa8388","origin":[13.349660055746885,52.55258802095023],"elevation":36.4799995422363}
# Longitude: 13.349660055746885
# Latitude: 52.55258802095023
# Elevation: 36.4799995422363

# File produced by Open Asset Import Library (http://www.assimp.sf.net)
# (assimp v3.1.0)

mtllib BLDG_0003000e00aa8388.obj.mtl

# 8 vertex positions
v  50.981 2.6099e-15 -42.623
v  4.97768 5.39981 4.75697
v  4.97757 -2.91291e-16 4.75714
v  50.9811 5.39981 -42.6231
v  0 0 0
v  0.000101665 4.77383 -0.00015128
v  46.0034 2.9012e-15 -47.3801
v  46.0035 4.77383 -47.3803

# 0 UV coordinates

# 11 vertex normals
vn 0.717454 6.84635e-06 0.696606
vn -0.690918 3.76224e-05 0.722933
vn -0.690918 3.76234e-05 0.722933
vn -0.717453 -6.796e-06 -0.696606
vn -0.717453 -7.35995e-06 -0.696606
vn 0.690918 -3.76042e-05 -0.722933
vn 0.690918 -3.74286e-05 -0.722933
vn -5.96132e-23 -1 -6.12324e-17
vn -2.98066e-23 -1 -6.12324e-17
vn -0.0649628 0.995892 -0.0630751
vn -0.0649628 0.995892 -0.0630751

# Mesh 'defaultobject' with 12 faces
g defaultobject
usemtl DefaultMaterial
f  1//1 2//1 3//1
f  2//1 1//1 4//1
f  2//2 5//2 3//2
f  5//2 2//2 6//3
f  6//4 7//4 5//4
f  7//4 6//4 8//5
f  7//6 4//6 1//6
f  4//6 7//6 8//7
f  3//8 7//8 1//8
f  7//8 3//8 5//9
f  8//10 2//10 4//10
f  2//10 8//10 6//11

