# {"id":"BLDG_0003000a00295104","idOriginal":"BLDG_0003000a00295104","origin":[13.389403986478746,52.5392887640812],"elevation":43.8499984741211}
# Longitude: 13.389403986478746
# Latitude: 52.5392887640812
# Elevation: 43.8499984741211

# File produced by Open Asset Import Library (http://www.assimp.sf.net)
# (assimp v3.1.0)

mtllib BLDG_0003000a00295104.obj.mtl

# 10 vertex positions
v  0.87983 0.157349 1.9044
v  0 0 0
v  0.879827 -1.16611e-16 1.9044
v  3.35899e-06 0.157349 -4.98071e-06
v  6.7426 0.157349 14.5949
v  6.74259 -8.93679e-16 14.5949
v  10.618 -7.79956e-16 12.7376
v  10.618 0.157349 12.7376
v  3.98676 1.10791e-16 -1.80936
v  3.98676 0.157349 -1.80936

# 0 UV coordinates

# 14 vertex normals
vn -0.907801 3.26024e-05 0.4194
vn -0.907801 3.26548e-05 0.4194
vn -0.907806 3.19667e-05 0.41939
vn -0.907806 3.26022e-05 0.41939
vn 0.432177 1.90397e-05 0.901789
vn 0.432177 1.76294e-05 0.901789
vn 0.90992 -3.63945e-05 -0.414784
vn 0.90992 -3.03288e-05 -0.414784
vn -0.413272 -2.0002e-05 -0.910608
vn -0.413272 -2.02084e-05 -0.910608
vn 0 -1 -6.12323e-17
vn 3.03278e-24 -1 -6.12323e-17
vn 1.4101e-23 -1 -6.12324e-17
vn 0 1 0

# Mesh 'defaultobject' with 16 faces
g defaultobject
usemtl DefaultMaterial
f  1//1 2//1 3//1
f  2//1 1//1 4//2
f  5//3 3//3 6//3
f  3//3 5//3 1//4
f  5//5 7//5 8//5
f  7//5 5//5 6//6
f  8//7 9//7 10//7
f  9//7 8//7 7//8
f  4//9 9//9 2//9
f  9//9 4//9 10//10
f  9//11 3//11 2//11
f  3//11 9//11 7//12
f  3//11 7//12 6//13
f  1//14 10//14 4//14
f  10//14 1//14 8//14
f  8//14 1//14 5//14

