# {"id":"BLDG_0003000f00412080","idOriginal":"BLDG_0003000f00412080","origin":[13.346535913284503,52.55561654332267],"elevation":36.3899993896484}
# Longitude: 13.346535913284503
# Latitude: 52.55561654332267
# Elevation: 36.3899993896484

# File produced by Open Asset Import Library (http://www.assimp.sf.net)
# (assimp v3.1.0)

mtllib BLDG_0003000f00412080.obj.mtl

# 17 vertex positions
v  11.0329 8.30922 -11.3508
v  16.4031 3.73485e-16 -6.09948
v  11.0327 6.95017e-16 -11.3505
v  21.7736 5.19539e-17 -0.848471
v  16.4033 9.22087 -6.09977
v  21.7738 8.30922 -0.848735
v  10.7411 8.30922 10.5018
v  5.37046 -3.21532e-16 5.25101
v  10.7409 -6.43063e-16 10.502
v  0 0 0
v  5.37065 9.22087 5.25072
v  0.000176923 8.30922 -0.00026338
v  8.9424 8.30922 -9.20007
v  8.94222 5.63326e-16 -9.19981
v  19.6831 -7.97375e-17 1.30221
v  19.6833 8.30922 1.30195
v  14.3129 9.22087 -3.94909

# 0 UV coordinates

# 27 vertex normals
vn 0.699111 -3.7494e-05 -0.715013
vn 0.699111 -3.74683e-05 -0.715013
vn 0.699111 -3.76932e-05 -0.715014
vn 0.699111 -3.75896e-05 -0.715013
vn -0.699111 3.7494e-05 0.715014
vn -0.699111 3.74988e-05 0.715014
vn -0.699111 3.75429e-05 0.715013
vn -0.699111 3.75497e-05 0.715013
vn -0.717074 -6.85339e-06 -0.696997
vn -0.717074 -6.90625e-06 -0.696997
vn -0.717074 -7.04118e-06 -0.696997
vn -0.717074 -6.82472e-06 -0.696997
vn 0.717074 6.78608e-06 0.696997
vn 0.717074 6.76312e-06 0.696997
vn 0.717074 6.85338e-06 0.696997
vn 0 -1 0
vn -0.0864019 0.992714 -0.0839827
vn -0.0864018 0.992714 -0.0839827
vn -0.0864018 0.992714 -0.0839827
vn 0.0864017 0.992714 0.0839825
vn 0.0864017 0.992714 0.0839826
vn 0.0864017 0.992714 0.0839826
vn 0 -1 -6.12323e-17
vn -1.09875e-24 -1 -6.12323e-17
vn -1.78113e-24 -1 -6.12323e-17
vn 3.56225e-24 -1 -6.12323e-17
vn 4.70005e-24 -1 -6.12323e-17

# Mesh 'defaultobject' with 30 faces
g defaultobject
usemtl DefaultMaterial
f  1//1 2//1 3//1
f  2//1 1//1 4//2
f  4//2 1//1 5//3
f  4//2 5//3 6//4
f  7//5 8//5 9//5
f  8//5 7//5 10//6
f  10//6 7//5 11//7
f  10//6 11//7 12//8
f  3//9 13//9 1//9
f  13//9 3//9 12//10
f  12//10 3//9 14//11
f  12//10 14//11 10//12
f  6//13 15//13 4//13
f  15//13 6//13 9//14
f  9//14 6//13 7//15
f  7//16 6//16 16//16
f  1//17 17//17 5//17
f  17//17 1//17 11//18
f  11//18 1//17 12//19
f  12//10 1//17 13//9
f  5//20 16//20 6//20
f  16//20 5//20 7//21
f  7//21 5//20 11//22
f  11//16 5//16 17//16
f  2//23 14//23 3//23
f  14//23 2//23 10//24
f  10//24 2//23 8//25
f  8//25 2//23 4//26
f  8//25 4//26 15//27
f  8//25 15//27 9//23

