# {"id":"BLDG_0003000b0056753b","idOriginal":"BLDG_0003000b0056753b","origin":[13.399470802493628,52.52339460268601],"elevation":33.560001373291}
# Longitude: 13.399470802493628
# Latitude: 52.52339460268601
# Elevation: 33.560001373291

# File produced by Open Asset Import Library (http://www.assimp.sf.net)
# (assimp v3.1.0)

mtllib BLDG_0003000b0056753b.obj.mtl

# 32 vertex positions
v  7.67972 22.2438 -18.9815
v  14.0566 17.2179 -12.7069
v  14.5692 22.2438 -18.3787
v  6.97115 17.2179 -13.3269
v  8.38807 17.2179 -24.6358
v  15.0816 17.2179 -24.0501
v  5.50553 22.2438 -19.1717
v  4.79696 17.2179 -13.5171
v  6.21389 17.2179 -24.826
v  3.14448 17.2179 -25.0946
v  2.43612 22.2438 -19.4403
v  1.72755 17.2179 -13.7857
v  6.97108 14.2588 -13.3268
v  2.83996 18.89 2.10256
v  4.85122 14.2588 3.59245
v  4.797 18.89 -13.5172
v  4.797 18.8852 -13.5172
v  0.000418712 19.6003 -0.00061992
v  2.83996 18.8852 2.10256
v  1.7276 19.6003 -13.7857
v  14.0562 7.78041e-16 -12.7064
v  15.0813 1.47261e-15 -24.0496
v  6.97078 8.16003e-16 -13.3263
v  8.38771 1.50847e-15 -24.6352
v  5.58194 17.2179 -13.4484
v  6.21352 1.52012e-15 -24.8255
v  3.14411 1.53657e-15 -25.094
v  1.72718 8.44096e-16 -13.7851
v  4.85092 -2.20002e-16 3.5929
v  2.83955 -1.28781e-16 2.10315
v  0 0 0
v  4.79659 8.27651e-16 -13.5166

# 0 UV coordinates

# 40 vertex normals
vn -0.0576755 0.749773 0.659177
vn -0.0576756 0.749773 0.659177
vn 0.0576775 0.749753 -0.659199
vn 0.0576774 0.749753 -0.659199
vn -0.0576756 0.749773 0.659177
vn -0.0576753 0.749773 0.659177
vn 0.0576775 0.749753 -0.659199
vn 0.0576775 0.749753 -0.659199
vn -0.0576755 0.749773 0.659177
vn 0.897686 0.426039 0.112474
vn 0.897686 0.426039 0.112474
vn 0.22448 0.974073 0.0281258
vn 0.22448 0.974073 0.0281258
vn 0.995942 -1.84518e-05 0.089997
vn 0.995942 -1.83917e-05 0.0899971
vn 0.995942 -1.84015e-05 0.0899971
vn -0.0871633 3.33691e-05 0.996194
vn -0.0871633 3.33653e-05 0.996194
vn 0.0871633 -3.33148e-05 -0.996194
vn 0.0871632 -3.36527e-05 -0.996194
vn 0.0871633 -3.33148e-05 -0.996194
vn -0.992242 1.72684e-05 -0.124321
vn -0.992242 1.72753e-05 -0.124321
vn -0.992242 1.71983e-05 -0.124321
vn 0.0871633 -3.33136e-05 -0.996194
vn -0.0871624 3.36829e-05 0.996194
vn 0.992242 -1.72743e-05 0.124321
vn 0.992242 -1.72429e-05 0.124321
vn -0.595188 3.81407e-05 0.803587
vn -0.595188 3.81349e-05 0.803587
vn -0.992242 1.72648e-05 -0.124321
vn -0.992242 1.72686e-05 -0.124321
vn 0.0871633 -3.33667e-05 -0.996194
vn 0.087163 -3.37559e-05 -0.996194
vn -0.595188 3.8127e-05 0.803587
vn -0.595188 3.81307e-05 0.803587
vn 0 -1 -6.12323e-17
vn -1.04563e-23 -1 -6.12323e-17
vn 0 -1 -6.12323e-17
vn 0 -1 -6.12323e-17

# Mesh 'defaultobject' with 52 faces
g defaultobject
usemtl DefaultMaterial
f  1//1 2//1 3//1
f  2//1 1//1 4//2
f  5//3 3//3 6//3
f  3//3 5//3 1//4
f  7//5 4//2 1//1
f  4//2 7//5 8//6
f  9//7 1//4 5//3
f  1//4 9//7 7//7
f  7//7 10//8 11//8
f  10//8 7//7 9//7
f  8//6 11//9 12//9
f  11//9 8//6 7//5
f  13//10 14//10 15//10
f  14//10 13//10 16//11
f  17//12 18//12 19//12
f  18//12 17//12 20//13
f  6//14 21//14 22//14
f  21//14 6//14 2//15
f  2//15 6//14 3//16
f  21//17 4//17 23//17
f  4//17 21//17 2//18
f  5//19 22//19 24//19
f  22//19 5//19 6//19
f  13//20 25//20 4//20
f  9//21 24//19 26//21
f  24//19 9//21 5//19
f  12//22 27//22 28//22
f  27//22 12//22 10//23
f  10//23 12//22 11//24
f  10//25 26//21 27//25
f  26//21 10//25 9//21
f  8//26 25//26 16//26
f  23//27 15//27 29//27
f  15//27 23//27 13//28
f  15//29 30//29 29//29
f  30//29 15//29 14//30
f  18//31 28//22 31//31
f  28//22 18//31 20//32
f  20//33 8//33 12//33
f  8//33 20//33 17//34
f  19//35 31//35 30//29
f  31//35 19//35 18//36
f  21//37 24//37 22//37
f  24//37 21//37 23//38
f  23//38 26//39 24//37
f  26//39 23//38 32//37
f  27//37 32//37 28//37
f  32//37 27//37 26//39
f  32//37 29//40 30//40
f  29//40 32//37 23//38
f  28//37 30//40 31//37
f  30//40 28//37 32//37

