# {"id":"BLDG_0003000e001a1733","idOriginal":"BLDG_0003000e001a1733","origin":[13.336972664072896,52.52423953131942],"elevation":33.6300010681152}
# Longitude: 13.336972664072896
# Latitude: 52.52423953131942
# Elevation: 33.6300010681152

# File produced by Open Asset Import Library (http://www.assimp.sf.net)
# (assimp v3.1.0)

mtllib BLDG_0003000e001a1733.obj.mtl

# 8 vertex positions
v  7.91846 -3.01791e-16 4.92862
v  0 0 0
v  7.54901 4.43404e-17 -0.724134
v  0.369452 -3.46131e-16 5.65275
v  0.000442688 20.8054 -0.00065812
v  7.54945 20.8054 -0.724793
v  7.91884 17.9047 4.92805
v  0.369833 17.9047 5.65218

# 0 UV coordinates

# 10 vertex normals
vn 2.46573e-24 -1 -6.12323e-17
vn -0.0954861 -2.94559e-05 -0.995431
vn -0.0954861 -2.94533e-05 -0.995431
vn 0.997871 -2.32973e-05 -0.0652189
vn 0.997871 -2.3308e-05 -0.0652188
vn 0.0954861 2.94355e-05 0.995431
vn -0.997871 2.32953e-05 0.0652188
vn -0.997871 2.32952e-05 0.0652188
vn 0.0435361 0.890009 0.453859
vn 0.0435361 0.890009 0.453859

# Mesh 'defaultobject' with 12 faces
g defaultobject
usemtl DefaultMaterial
f  1//1 2//1 3//1
f  2//1 1//1 4//1
f  5//2 3//2 2//2
f  3//2 5//2 6//3
f  3//4 7//4 1//4
f  7//4 3//4 6//5
f  1//6 8//6 4//6
f  8//6 1//6 7//6
f  8//7 2//7 4//7
f  2//7 8//7 5//8
f  7//9 5//9 8//9
f  5//9 7//9 6//10

