# {"id":"BLDG_0003000b002ebed8","idOriginal":"BLDG_0003000b002ebed8","origin":[13.352197418084474,52.53132774532046],"elevation":35.6399993896484}
# Longitude: 13.352197418084474
# Latitude: 52.53132774532046
# Elevation: 35.6399993896484

# File produced by Open Asset Import Library (http://www.assimp.sf.net)
# (assimp v3.1.0)

mtllib BLDG_0003000b002ebed8.obj.mtl

# 11 vertex positions
v  14.4247 4.24128e-16 -6.92653
v  4.07175 -5.20887e-16 8.50674
v  0 0 0
v  16.4606 1.63684e-16 -2.67316
v  18.4964 -9.67598e-17 1.58021
v  16.461 19.6491 -2.67378
v  0.000371094 17.4234 -0.00055139
v  6.28713 19.6491 2.21156
v  14.4251 17.4234 -6.92708
v  18.4968 17.4234 1.57966
v  4.07212 17.4234 8.50619

# 0 UV coordinates

# 15 vertex normals
vn 2.80642e-24 -1 -6.12323e-17
vn 0 -1 -6.12323e-17
vn -0.18477 0.904322 -0.384789
vn -0.18477 0.904322 -0.384789
vn 0.184767 0.904325 0.384783
vn -0.38501 0.904326 0.184285
vn 0.901998 -3.28644e-05 -0.431741
vn 0.901998 -3.28146e-05 -0.431741
vn 0.901998 -3.29197e-05 -0.431741
vn 0.901998 -3.25296e-05 -0.431741
vn -0.901998 3.28891e-05 0.431741
vn -0.901998 3.28745e-05 0.431741
vn -0.432867 -1.93086e-05 -0.901458
vn -0.432867 -1.93028e-05 -0.901458
vn 0.432867 1.92924e-05 0.901458

# Mesh 'defaultobject' with 18 faces
g defaultobject
usemtl DefaultMaterial
f  1//1 2//1 3//1
f  2//1 1//1 4//2
f  2//1 4//2 5//2
f  6//3 7//3 8//3
f  7//3 6//3 9//4
f  10//5 8//5 11//5
f  8//5 10//5 6//5
f  7//6 11//6 8//6
f  9//7 4//7 1//7
f  4//7 9//7 5//8
f  5//8 9//7 10//9
f  10//9 9//7 6//10
f  11//11 3//11 2//11
f  3//11 11//11 7//12
f  7//13 1//13 3//13
f  1//13 7//13 9//14
f  5//15 11//15 2//15
f  11//15 5//15 10//15

