# {"id":"BLDG_0003000b002c5a88","idOriginal":"BLDG_0003000b002c5a88","origin":[13.394560244070897,52.53217374916371],"elevation":35.2099990844727}
# Longitude: 13.394560244070897
# Latitude: 52.53217374916371
# Elevation: 35.2099990844727

# File produced by Open Asset Import Library (http://www.assimp.sf.net)
# (assimp v3.1.0)

mtllib BLDG_0003000b002c5a88.obj.mtl

# 10 vertex positions
v  0 0 0
v  19.55 -5.81446e-16 9.49574
v  1.86669 -7.61378e-16 12.4342
v  17.6833 1.79931e-16 -2.9385
v  18.6172 23.9254 3.27786
v  0.000466076 21.8238 -0.00069065
v  0.933856 23.9254 6.21636
v  17.6838 21.8238 -2.93919
v  19.5505 21.8238 9.49505
v  1.86716 21.8238 12.4336

# 0 UV coordinates

# 16 vertex normals
vn 0 -1 -6.12323e-17
vn 3.75851e-24 -1 -6.12323e-17
vn -0.0519781 0.948398 -0.312794
vn -0.0519781 0.948398 -0.312794
vn 0.0519773 0.9484 0.312789
vn 0.0519773 0.9484 0.312788
vn -0.988918 2.58246e-05 0.148461
vn -0.988918 2.58179e-05 0.148461
vn -0.988918 2.58044e-05 0.148461
vn -0.163926 -2.77177e-05 -0.986473
vn -0.163926 -2.77107e-05 -0.986473
vn 0.988918 -2.58738e-05 -0.148461
vn 0.988918 -2.58721e-05 -0.148461
vn 0.988918 -2.53713e-05 -0.148461
vn 0.163926 2.77612e-05 0.986473
vn 0.163926 2.7693e-05 0.986473

# Mesh 'defaultobject' with 16 faces
g defaultobject
usemtl DefaultMaterial
f  1//1 2//1 3//1
f  2//1 1//1 4//2
f  5//3 6//3 7//3
f  6//3 5//3 8//4
f  9//5 7//5 10//5
f  7//5 9//5 5//6
f  10//7 1//7 3//7
f  1//7 10//7 6//8
f  6//8 10//7 7//9
f  6//10 4//10 1//10
f  4//10 6//10 8//11
f  8//12 2//12 4//12
f  2//12 8//12 9//13
f  9//13 8//12 5//14
f  2//15 10//15 3//15
f  10//15 2//15 9//16

