# {"id":"BLDG_0003000f00109d45","idOriginal":"BLDG_0003000f00109d45","origin":[13.344315249903815,52.50552885370321],"elevation":31.2999992370605}
# Longitude: 13.344315249903815
# Latitude: 52.50552885370321
# Elevation: 31.2999992370605

# File produced by Open Asset Import Library (http://www.assimp.sf.net)
# (assimp v3.1.0)

mtllib BLDG_0003000f00109d45.obj.mtl

# 24 vertex positions
v  7.45007 28.8576 15.6841
v  4.89943 -6.31664e-16 10.3158
v  7.44946 -9.60428e-16 15.685
v  4.89943 0.120001 10.3158
v  2.82881 0.120001 5.9561
v  4.90006 29.5548 10.3149
v  2.82943 29.441 5.95518
v  2.82946 30.77 5.95513
v  4.90009 30.77 10.3149
v  0 0 0
v  2.82881 -3.64706e-16 5.95611
v  0.000626693 29.441 -0.000930111
v  20.9175 30.77 2.87607
v  18.8469 29.441 -1.48363
v  18.8469 30.77 -1.48367
v  16.0174 4.55495e-16 -7.4388
v  16.0181 29.441 -7.43973
v  20.9175 29.5548 2.87611
v  23.4675 28.8576 8.24527
v  18.8462 0.120001 -1.4827
v  20.9169 0.120001 2.87704
v  23.4669 -5.04933e-16 8.24618
v  20.9169 -1.76168e-16 2.87705
v  18.8462 9.0789e-17 -1.4827

# 0 UV coordinates

# 41 vertex normals
vn -0.903298 3.27786e-05 0.429014
vn -0.903295 3.15848e-05 0.429019
vn -0.903298 3.27766e-05 0.429014
vn -0.903298 3.30362e-05 0.429014
vn -0.903298 3.28286e-05 0.429014
vn -0.903298 3.3008e-05 0.429014
vn -0.903298 3.33794e-05 0.429014
vn -0.903298 3.27816e-05 0.429014
vn 0.903298 -3.30056e-05 -0.429014
vn 0.903298 -3.28067e-05 -0.429014
vn 0.903297 -3.21606e-05 -0.429016
vn 0.903298 -3.28636e-05 -0.429014
vn 0.903298 -3.27763e-05 -0.429014
vn 0.903298 -3.27835e-05 -0.429014
vn 0.903298 -3.27811e-05 -0.429014
vn 0.903298 -2.79953e-05 -0.429014
vn 0.903298 -2.79953e-05 -0.429014
vn -0.421211 -1.96871e-05 -0.906963
vn -0.421211 -1.96814e-05 -0.906963
vn 0.421211 2.16e-05 0.906963
vn 0.421211 1.96771e-05 0.906963
vn 0.421211 1.96988e-05 0.906963
vn -0.421211 -1.96771e-05 -0.906963
vn -0.421211 -1.9695e-05 -0.906963
vn -0.421211 -1.9503e-05 -0.906963
vn -0.421211 -1.95682e-05 -0.906963
vn 0.421211 1.96667e-05 0.906963
vn 0.421211 1.93806e-05 0.906963
vn 0.421211 2.09745e-05 0.906963
vn -0.421211 -2.04627e-05 -0.906963
vn -0.421211 -2.21365e-05 -0.906963
vn -0.421211 -1.96667e-05 -0.906963
vn -0.421211 -1.96708e-05 -0.906963
vn 0.421211 1.96857e-05 0.906963
vn 0 1 0
vn 0.049069 0.993191 0.105657
vn 0.049069 0.993191 0.105657
vn 3.63707e-24 -1 -6.12323e-17
vn 0 -1 0
vn 0 -1 -6.12323e-17
vn -4.03469e-24 -1 -6.12323e-17

# Mesh 'defaultobject' with 52 faces
g defaultobject
usemtl DefaultMaterial
f  1//1 2//1 3//1
f  2//1 1//1 4//2
f  4//2 1//1 5//3
f  6//4 7//4 1//1
f  7//4 6//4 8//5
f  8//5 6//4 9//6
f  5//3 10//7 11//7
f  10//7 5//3 12//8
f  12//8 5//3 1//1
f  12//8 1//1 7//4
f  13//9 14//9 15//9
f  14//9 16//10 17//10
f  16//10 14//9 13//9
f  16//10 13//9 18//11
f  16//10 18//11 19//12
f  16//10 19//12 20//13
f  20//13 19//12 21//14
f  21//14 19//12 22//15
f  21//14 22//15 23//16
f  24//17 16//10 20//13
f  12//18 16//18 10//18
f  16//18 12//18 17//19
f  24//20 5//20 11//20
f  5//20 24//20 20//20
f  5//20 20//20 7//21
f  7//21 20//20 14//22
f  7//23 20//23 5//23
f  20//23 7//23 14//24
f  14//24 7//23 8//25
f  14//24 8//25 15//26
f  21//27 6//27 4//27
f  6//27 21//27 18//27
f  6//27 18//27 9//28
f  9//28 18//27 13//29
f  4//30 23//30 2//30
f  23//30 4//30 21//31
f  21//31 4//30 6//32
f  21//31 6//32 18//33
f  22//34 1//34 3//34
f  1//34 22//34 19//34
f  7//35 17//35 12//35
f  17//35 7//35 14//35
f  9//35 15//35 8//35
f  15//35 9//35 13//35
f  1//36 18//36 6//36
f  18//36 1//36 19//37
f  16//38 11//38 10//38
f  11//38 16//38 24//38
f  20//39 4//39 5//39
f  4//39 20//39 21//39
f  23//40 3//40 2//40
f  3//40 23//40 22//41

