# {"id":"BLDG_0003000e00478950","idOriginal":"BLDG_0003000e00478950","origin":[13.344535552908967,52.55374167818898],"elevation":35.1100006103516}
# Longitude: 13.344535552908967
# Latitude: 52.55374167818898
# Elevation: 35.1100006103516

# File produced by Open Asset Import Library (http://www.assimp.sf.net)
# (assimp v3.1.0)

mtllib BLDG_0003000e00478950.obj.mtl

# 26 vertex positions
v  9.5348 -5.65676e-16 9.2382
v  17.9252 -5.69629e-16 9.30274
v  14.0136 -8.31395e-16 13.5777
v  7.92571 -4.70213e-16 7.67916
v  2.18292 -1.29508e-16 2.11502
v  13.5438 -3.09691e-16 5.05763
v  20.6655 1.45047e-16 -2.36879
v  0 0 0
v  4.00901 2.55986e-16 -4.18057
v  19.0521 2.40241e-16 -3.92343
v  13.2943 5.79978e-16 -9.47176
v  11.1056 7.0912e-16 -11.5808
v  14.0141 20.2831 13.5771
v  9.53523 20.2831 9.23755
v  0.000431817 20.2831 -0.00064286
v  7.92619 22.6467 7.67844
v  2.18343 23.8107 2.11426
v  19.0526 22.6467 -3.92414
v  11.106 20.2831 -11.5814
v  13.2948 23.8107 -9.47251
v  20.6659 20.2831 -2.36944
v  4.00945 20.2831 -4.18121
v  17.9256 20.2831 9.3021
v  13.5442 20.2831 5.05699
v  11.9352 22.6467 3.49788
v  6.19244 23.8107 -2.0663

# 0 UV coordinates

# 46 vertex normals
vn -9.75544e-24 -1 -6.12323e-17
vn -1.00393e-23 -1 -6.12323e-17
vn -3.42911e-24 -1 -6.12323e-17
vn 0 -1 -6.12324e-17
vn -1.00524e-24 -1 -6.12323e-17
vn 2.16616e-24 -1 -6.12323e-17
vn 1.03267e-24 -1 -6.12323e-17
vn 0 -1 -6.12323e-17
vn 4.843e-25 -1 -6.12323e-17
vn 1.69875e-24 -1 -6.12323e-17
vn -0.695848 3.75478e-05 0.718189
vn -0.695848 3.76379e-05 0.718189
vn -0.695848 3.75853e-05 0.718189
vn -0.695848 3.76209e-05 0.718189
vn -0.695848 3.76368e-05 0.718189
vn -0.695848 3.75768e-05 0.718189
vn -0.695848 3.74435e-05 0.718189
vn -0.695848 3.76118e-05 0.718189
vn 0.693883 -3.7372e-05 -0.720088
vn 0.693883 -3.74439e-05 -0.720088
vn 0.693883 -3.76327e-05 -0.720088
vn 0.693883 -3.76257e-05 -0.720088
vn 0 1 6.93889e-17
vn -0.721761 -6.59375e-06 -0.692143
vn -0.721761 -6.62389e-06 -0.692142
vn -0.721761 -6.54849e-06 -0.692143
vn -0.721761 -6.57109e-06 -0.692143
vn 0.695848 -3.76106e-05 -0.718189
vn 0.695848 -3.75952e-05 -0.718189
vn 0.737768 5.71248e-06 0.675054
vn 0.737768 5.63133e-06 0.675054
vn 0.721761 6.59851e-06 0.692142
vn 0.721761 6.54367e-06 0.692143
vn 0 1 0
vn 0.523814 0.687964 0.502319
vn 0.523818 0.68796 0.50232
vn 0.523817 0.68796 0.502321
vn 0.523817 0.68796 0.502321
vn 0.103977 0.989569 0.0997095
vn 0.103976 0.989569 0.0997094
vn 0.103976 0.989569 0.099709
vn 0.103976 0.989569 0.0997091
vn -0.546787 0.652747 -0.524352
vn -0.546791 0.652743 -0.524353
vn -0.546791 0.652743 -0.524353
vn -0.546791 0.652743 -0.524353

# Mesh 'defaultobject' with 48 faces
g defaultobject
usemtl DefaultMaterial
f  1//1 2//1 3//1
f  2//1 1//1 4//2
f  2//1 4//2 5//3
f  2//1 5//3 6//4
f  6//4 5//3 7//5
f  7//5 5//3 8//6
f  7//5 8//6 9//7
f  7//5 9//7 10//8
f  10//8 9//7 11//9
f  11//9 9//7 12//10
f  13//11 1//11 3//11
f  1//11 13//11 4//12
f  4//12 13//11 5//13
f  5//13 13//11 8//14
f  8//14 13//11 14//15
f  8//14 14//15 15//16
f  15//16 14//15 16//17
f  15//16 16//17 17//18
f  18//19 19//19 20//19
f  19//19 18//19 21//20
f  19//19 21//20 12//21
f  12//21 21//20 7//22
f  12//23 7//23 11//23
f  11//9 7//5 10//8
f  12//24 22//24 19//24
f  22//24 12//24 15//25
f  15//25 12//24 9//26
f  15//25 9//26 8//27
f  6//28 23//28 2//28
f  23//28 6//28 24//29
f  2//30 13//30 3//30
f  13//30 2//30 23//31
f  7//32 24//32 6//32
f  24//32 7//32 21//33
f  23//34 14//34 13//34
f  14//34 23//34 24//34
f  18//35 24//35 21//35
f  24//35 18//35 25//36
f  24//35 25//36 14//37
f  14//37 25//36 16//38
f  20//39 25//39 18//39
f  25//39 20//39 26//40
f  25//39 26//40 16//41
f  16//41 26//40 17//42
f  19//43 26//43 20//43
f  26//43 19//43 22//44
f  26//43 22//44 17//45
f  17//45 22//44 15//46

