# {"id":"BLDG_0003000b0003ae65","idOriginal":"BLDG_0003000b0003ae65","origin":[13.378476752050238,52.54392840473231],"elevation":42.8199996948242}
# Longitude: 13.378476752050238
# Latitude: 52.54392840473231
# Elevation: 42.8199996948242

# File produced by Open Asset Import Library (http://www.assimp.sf.net)
# (assimp v3.1.0)

mtllib BLDG_0003000b0003ae65.obj.mtl

# 10 vertex positions
v  5.70157 3.49995 6.81802
v  0.63626 -4.45854e-16 7.28135
v  5.70149 -4.1749e-16 6.81813
v  3.16896 3.65616 7.04962
v  0.636335 3.49995 7.28124
v  0 0 0
v  7.4672e-05 3.49995 -0.00011085
v  5.06523 2.83644e-17 -0.463226
v  2.5327 3.65616 -0.231729
v  5.06531 3.49995 -0.463337

# 0 UV coordinates

# 15 vertex normals
vn 0.091072 2.96642e-05 0.995844
vn 0.0910721 2.95701e-05 0.995844
vn 0.0910722 2.95332e-05 0.995844
vn -0.996204 2.40092e-05 0.0870504
vn -0.996204 2.40112e-05 0.0870504
vn -0.0910721 -2.95972e-05 -0.995844
vn -0.0910721 -2.96069e-05 -0.995844
vn -0.0910721 -2.96088e-05 -0.995844
vn 0.996204 -2.40828e-05 -0.0870504
vn 0.996204 -2.39337e-05 -0.0870505
vn 0 -1 -6.12323e-17
vn -0.0610749 0.998119 0.00533685
vn -0.0610749 0.998119 0.00533685
vn 0.0610751 0.998119 -0.00533687
vn 0.0610751 0.998119 -0.00533687

# Mesh 'defaultobject' with 16 faces
g defaultobject
usemtl DefaultMaterial
f  1//1 2//1 3//1
f  2//1 1//1 4//2
f  2//1 4//2 5//3
f  5//4 6//4 2//4
f  6//4 5//4 7//5
f  7//6 8//6 6//6
f  8//6 7//6 9//7
f  8//6 9//7 10//8
f  8//9 1//9 3//9
f  1//9 8//9 10//10
f  6//11 3//11 2//11
f  3//11 6//11 8//11
f  7//12 4//12 9//12
f  4//12 7//12 5//13
f  9//14 1//14 10//14
f  1//14 9//14 4//15

