# {"id":"BLDG_0003000a00112378","idOriginal":"BLDG_0003000a00112378","origin":[13.37979355755583,52.544518199611616],"elevation":45.5499992370605}
# Longitude: 13.37979355755583
# Latitude: 52.544518199611616
# Elevation: 45.5499992370605

# File produced by Open Asset Import Library (http://www.assimp.sf.net)
# (assimp v3.1.0)

mtllib BLDG_0003000a00112378.obj.mtl

# 8 vertex positions
v  1.42143 3.9225 1.4778
v  0 0 0
v  1.42135 -9.0497e-17 1.47793
v  8.3694e-05 3.9225 -0.00012424
v  4.43341 8.692e-17 -1.41951
v  4.4335 3.9225 -1.41964
v  3.01145 1.77418e-16 -2.89745
v  3.01154 3.9225 -2.89757

# 0 UV coordinates

# 11 vertex normals
vn -0.720769 3.73285e-05 0.693175
vn -0.720769 3.73344e-05 0.693175
vn 0.693261 7.96966e-06 0.720687
vn 0.693261 8.02783e-06 0.720687
vn 0.720623 -3.73718e-05 -0.693327
vn 0.720623 -3.73718e-05 -0.693327
vn -0.693335 -8.03096e-06 -0.720615
vn -0.693335 -8.07192e-06 -0.720615
vn 1.54435e-24 -1 -6.12323e-17
vn -1.54418e-24 -1 -6.12323e-17
vn 0 1 0

# Mesh 'defaultobject' with 12 faces
g defaultobject
usemtl DefaultMaterial
f  1//1 2//1 3//1
f  2//1 1//1 4//2
f  1//3 5//3 6//3
f  5//3 1//3 3//4
f  6//5 7//5 8//5
f  7//5 6//5 5//6
f  4//7 7//7 2//7
f  7//7 4//7 8//8
f  2//9 5//9 3//9
f  5//9 2//9 7//10
f  6//11 4//11 1//11
f  4//11 6//11 8//11

