# {"id":"BLDG_0003000b0049b668","idOriginal":"BLDG_0003000b0049b668","origin":[13.390822697603438,52.5271121247844],"elevation":35.0099983215332}
# Longitude: 13.390822697603438
# Latitude: 52.5271121247844
# Elevation: 35.0099983215332

# File produced by Open Asset Import Library (http://www.assimp.sf.net)
# (assimp v3.1.0)

mtllib BLDG_0003000b0049b668.obj.mtl

# 8 vertex positions
v  36.083 9.42068e-16 -15.3851
v  5.12485 -7.11586e-16 11.6211
v  0 0 0
v  41.2078 2.30482e-16 -3.76406
v  0.000432461 20.2549 -0.00064079
v  36.0834 20.2549 -15.3858
v  41.2083 19.7168 -3.76469
v  5.12527 19.7168 11.6205

# 0 UV coordinates

# 12 vertex normals
vn 3.40058e-24 -1 -6.12323e-17
vn -3.40058e-24 -1 -6.12323e-17
vn -0.392217 -2.07272e-05 -0.919873
vn -0.392217 -2.07579e-05 -0.919873
vn 0.914979 -3.22333e-05 -0.403502
vn 0.914979 -3.2237e-05 -0.403502
vn 0.392217 2.06762e-05 0.919873
vn 0.392217 2.07551e-05 0.919873
vn -0.914979 3.23032e-05 0.403502
vn -0.914979 3.2301e-05 0.403502
vn 0.016604 0.999104 0.0389417
vn 0.016604 0.999104 0.0389417

# Mesh 'defaultobject' with 12 faces
g defaultobject
usemtl DefaultMaterial
f  1//1 2//1 3//1
f  2//1 1//1 4//2
f  5//3 1//3 3//3
f  1//3 5//3 6//4
f  1//5 7//5 4//5
f  7//5 1//5 6//6
f  4//7 8//7 2//7
f  8//7 4//7 7//8
f  8//9 3//9 2//9
f  3//9 8//9 5//10
f  8//11 6//11 5//11
f  6//11 8//11 7//12

