# {"id":"BLDG_0003000f001c162a","idOriginal":"BLDG_0003000f001c162a","origin":[13.37483513027556,52.53875200519132],"elevation":36.4000015258789}
# Longitude: 13.37483513027556
# Latitude: 52.53875200519132
# Elevation: 36.4000015258789

# File produced by Open Asset Import Library (http://www.assimp.sf.net)
# (assimp v3.1.0)

mtllib BLDG_0003000f001c162a.obj.mtl

# 18 vertex positions
v  9.42154 -8.20044e-16 13.3923
v  6.78652 -5.7375e-16 9.37005
v  9.40282 -5.72147e-16 9.34387
v  6.79449 -8.21654e-16 13.4186
v  0 0 0
v  0.0185797 -5.77898e-16 9.43779
v  6.76801 1.84874e-18 -0.0301921
v  0.02655 -8.25802e-16 13.4864
v  6.79465 7.87723 13.4184
v  9.40297 6.92238 9.34365
v  6.78668 7.87723 9.3698
v  6.78666 6.92238 9.36983
v  0.000168021 7.87723 -0.0002494
v  0.0187477 7.87723 9.43754
v  6.76816 6.92238 -0.0304113
v  6.79463 6.92238 13.4184
v  0.026718 7.87723 13.4861
v  9.42171 7.87723 13.3921

# 0 UV coordinates

# 25 vertex normals
vn 0 -1 -6.12323e-17
vn -2.98642e-23 -1 -6.12323e-17
vn 0 -1 -6.12323e-17
vn 0 -1 -6.12323e-17
vn 0.342839 0.939394 -0.000674938
vn 0.139699 0.990194 -0.000275023
vn 0.139699 0.990194 -0.000275016
vn 0.139699 0.990194 -0.000275016
vn -0.00229744 0.973295 -0.229548
vn 0.999989 -2.14536e-05 -0.00462431
vn 0.999989 -2.15002e-05 -0.00462422
vn 0.010008 3.13836e-05 0.99995
vn -0.999998 2.15344e-05 0.00196867
vn -0.999998 2.15363e-05 0.00196867
vn -0.0100079 -3.15048e-05 -0.99995
vn -0.0100078 -3.14711e-05 -0.99995
vn -0.999998 2.13922e-05 0.00196865
vn -0.999998 2.13923e-05 0.00196865
vn -0.00446096 -3.15654e-05 -0.99999
vn -0.00446096 -3.15655e-05 -0.99999
vn 0.999998 -2.13473e-05 -0.00196867
vn 0.999998 -2.14162e-05 -0.00196862
vn -0.999998 2.1392e-05 0.00196866
vn 0.0100078 3.1383e-05 0.99995
vn 0.0100079 3.14717e-05 0.99995

# Mesh 'defaultobject' with 30 faces
g defaultobject
usemtl DefaultMaterial
f  1//1 2//1 3//1
f  2//1 1//1 4//2
f  5//3 2//1 6//3
f  2//1 5//3 7//4
f  6//3 4//2 8//4
f  4//2 6//3 2//1
f  9//5 10//5 11//5
f  12//6 13//6 14//6
f  13//6 12//6 15//7
f  16//8 14//6 17//8
f  14//6 16//8 12//6
f  10//9 9//9 18//9
f  3//10 18//10 1//10
f  18//10 3//10 10//11
f  1//12 9//12 4//12
f  9//12 1//12 18//12
f  9//13 12//13 16//13
f  12//13 9//13 11//14
f  11//15 3//15 2//15
f  3//15 11//15 10//16
f  14//17 5//17 6//17
f  5//17 14//17 13//18
f  13//19 7//19 5//19
f  7//19 13//19 15//20
f  7//21 12//21 2//21
f  12//21 7//21 15//22
f  17//23 6//17 8//23
f  6//17 17//23 14//17
f  4//12 17//24 8//24
f  17//24 4//12 16//25

