# {"id":"BLDG_0003000e0047895a","idOriginal":"BLDG_0003000e0047895a","origin":[13.345106154711186,52.554121398578566],"elevation":35.4700012207031}
# Longitude: 13.345106154711186
# Latitude: 52.554121398578566
# Elevation: 35.4700012207031

# File produced by Open Asset Import Library (http://www.assimp.sf.net)
# (assimp v3.1.0)

mtllib BLDG_0003000e0047895a.obj.mtl

# 40 vertex positions
v  9.54569 -1.2207e-06 9.33128
v  -8.72988 -5.57365e-16 9.10246
v  0 -1.2207e-06 -7.47465e-23
v  -10.6041 -6.77026e-16 11.0567
v  -8.33882 -8.08325e-16 13.201
v  7.38664 -1.2207e-06 11.5825
v  -3.08077 -1.11309e-15 18.1781
v  7.38433 -7.09369e-16 11.5849
v  2.88491 -1.2207e-06 16.2763
v  0.81581 -1.12874e-15 18.4337
v  -0.909872 -1.23892e-15 20.2331
v  17.0406 -1.28737e-15 21.0243
v  19.202 -1.14937e-15 18.7707
v  12.5421 -1.57458e-15 25.7148
v  10.4721 -1.70674e-15 27.8731
v  12.5426 21.8389 25.7141
v  19.2024 19.0467 18.7701
v  17.0411 22.8782 21.0236
v  10.4725 19.0467 27.8725
v  -10.6037 19.05 11.0561
v  -3.0803 21.84 18.1774
v  -8.33833 22.88 13.2002
v  -0.909466 19.05 20.2325
v  -8.72948 19.05 9.10186
v  0.00040558 19.05 -0.000603779
v  0.816216 19.0467 18.4331
v  9.5461 19.0467 9.33067
v  9.5461 19.05 9.33067
v  0.816216 19.05 18.4331
v  2.88537 21.84 16.2756
v  7.38482 22.8782 11.5842
v  0.747789 21.84 14.1861
v  0.0719505 22.88 4.4309
v  -1.32131 21.84 16.3435
v  -6.49888 22.88 11.2822
v  2.88537 21.8377 16.2756
v  2.88628 21.8389 16.2747
v  7.38712 22.8742 11.5818
v  7.38712 22.8788 11.5818
v  7.38712 22.88 11.5818

# 0 UV coordinates

# 62 vertex normals
vn -6.76608e-08 -1 6.92156e-08
vn -6.60017e-08 -1 -6.33001e-08
vn -5.55558e-08 -1 5.86909e-08
vn -8.61274e-08 -1 -8.2602e-08
vn -7.00135e-08 -1 7.39644e-08
vn 0.000809608 -0.999999 0.00128505
vn -4.14211e-07 -1 -6.57453e-07
vn -3.49195e-08 -1 5.3233e-07
vn 1.73154e-23 -1 -6.12323e-17
vn 6.52457e-08 -1 6.25751e-08
vn 6.52458e-08 -1 6.25751e-08
vn 0.645289 -0.447878 0.618876
vn -0.632407 0.481864 -0.606522
vn 0.712134 -0.162466 0.682985
vn 0.721723 6.30211e-06 0.692182
vn 0.721723 6.82429e-06 0.692182
vn 0.721723 6.65097e-06 0.692182
vn 0.721723 6.51028e-06 0.692182
vn 0.721723 6.54863e-06 0.692182
vn 0.721723 6.61343e-06 0.692182
vn -0.687444 3.76252e-05 0.726237
vn -0.687444 3.76937e-05 0.726237
vn -0.687444 3.76534e-05 0.726237
vn -0.687444 3.76849e-05 0.726237
vn -0.721723 -6.57263e-06 -0.692182
vn -0.721723 -6.508e-06 -0.692182
vn -0.721723 -6.55733e-06 -0.692182
vn -0.721723 -6.57904e-06 -0.692182
vn -0.69903 3.75756e-05 0.715092
vn -0.69903 3.75844e-05 0.715092
vn 0.69903 -3.7554e-05 -0.715092
vn 0.69903 -3.75243e-05 -0.715092
vn 0.69903 -3.7547e-05 -0.715092
vn 0.69903 -0.000201218 -0.715092
vn 0.721723 6.60633e-06 0.692182
vn 0.721723 6.60748e-06 0.692182
vn 0.721723 -2.88649e-05 0.692182
vn -0.110321 0.987453 0.112988
vn -0.110256 0.987483 0.11279
vn -0.110256 0.987483 0.11279
vn -0.110208 0.987474 0.11291
vn 0.492459 0.731037 0.472302
vn 0.492446 0.731037 0.472316
vn 0.492453 0.731045 0.472296
vn 0.102618 0.98984 0.0984176
vn 0.102611 0.989841 0.0984169
vn 0.102621 0.98984 0.098419
vn 0 1 0
vn -0.559627 0.631466 -0.53672
vn -0.559627 0.631466 -0.53672
vn -0.559642 0.631466 -0.536704
vn -0.559621 0.631475 -0.536715
vn -0.477184 0.730757 0.488149
vn -0.477062 0.730921 0.488024
vn -0.477062 0.730921 0.488024
vn 0.541896 0.631702 -0.554348
vn 0.541896 0.631702 -0.554348
vn 0.541868 0.63175 -0.55432
vn 0.541969 0.631573 -0.554423
vn 0.843129 0 -0.537711
vn 0.542039 0.631452 -0.554494
vn -0.476967 0.731047 0.487927

# Mesh 'defaultobject' with 67 faces
g defaultobject
usemtl DefaultMaterial
f  1//1 2//1 3//1
f  2//1 1//1 4//2
f  4//2 1//1 5//3
f  5//3 1//1 6//4
f  5//3 6//4 7//5
f  7//6 6//6 8//6
f  7//5 8//7 9//7
f  7//5 9//7 10//8
f  7//5 10//8 11//9
f  12//10 1//1 13//10
f  1//1 12//10 14//10
f  1//1 14//10 15//11
f  1//1 15//11 10//8
f  1//12 10//12 6//12
f  6//13 10//13 8//13
f  8//14 10//14 9//14
f  16//15 17//15 18//15
f  17//15 16//15 19//16
f  17//15 19//16 13//17
f  13//17 19//16 12//18
f  12//18 19//16 14//19
f  14//19 19//16 15//20
f  20//21 21//21 22//21
f  21//21 20//21 23//22
f  23//22 20//21 4//23
f  23//22 4//23 11//24
f  11//9 4//2 5//3
f  11//9 5//3 7//5
f  3//25 24//25 25//25
f  24//25 3//25 20//26
f  20//26 3//25 2//27
f  20//26 2//27 4//28
f  19//29 10//29 15//29
f  10//29 19//29 26//30
f  1//31 17//31 13//31
f  17//31 1//31 27//32
f  25//33 1//31 3//33
f  1//31 25//33 27//32
f  27//34 25//34 28//34
f  10//35 23//35 11//35
f  23//35 10//35 26//36
f  23//37 26//37 29//37
f  18//38 30//38 16//38
f  30//39 18//39 31//39
f  30//39 31//39 32//40
f  32//41 31//41 33//41
f  34//42 29//42 32//42
f  29//43 34//43 21//43
f  29//44 21//44 23//44
f  33//45 34//45 32//45
f  34//45 33//45 21//46
f  21//46 33//45 22//47
f  22//48 33//48 35//48
f  24//49 33//49 25//49
f  33//49 24//49 35//50
f  35//51 24//51 22//51
f  22//52 24//52 20//52
f  36//53 16//53 37//53
f  16//54 36//54 26//54
f  16//54 26//54 19//55
f  38//56 17//56 27//56
f  17//56 38//56 18//57
f  18//58 38//58 31//58
f  25//59 39//59 28//59
f  39//60 25//60 40//60
f  40//61 25//61 33//61
f  32//62 29//62 30//62

