# {"id":"BLDG_0003000e0064e4a8","idOriginal":"BLDG_0003000e0064e4a8","origin":[13.387312247426213,52.517315797949074],"elevation":33.0299987792969}
# Longitude: 13.387312247426213
# Latitude: 52.517315797949074
# Elevation: 33.0299987792969

# File produced by Open Asset Import Library (http://www.assimp.sf.net)
# (assimp v3.1.0)

mtllib BLDG_0003000e0064e4a8.obj.mtl

# 8 vertex positions
v  22.2478 25.97 -1.7933
v  1.20764 25.97 14.9807
v  23.4549 25.97 13.1883
v  0.000554346 25.97 -0.00082106
v  1.20709 -9.17356e-16 14.9816
v  22.2473 1.09758e-16 -1.79248
v  23.4543 -8.07598e-16 13.1891
v  0 0 0

# 0 UV coordinates

# 9 vertex normals
vn 0 1 -0
vn -4.4187e-24 -1 -6.12323e-17
vn 0 -1 -6.12323e-17
vn 0.99677 -2.3846e-05 -0.0803112
vn 0.0803106 2.97998e-05 0.99677
vn -0.99677 2.38158e-05 0.0803112
vn -0.99677 2.38151e-05 0.0803112
vn -0.0803106 -2.97946e-05 -0.99677
vn -0.0803106 -2.97993e-05 -0.99677

# Mesh 'defaultobject' with 12 faces
g defaultobject
usemtl DefaultMaterial
f  1//1 2//1 3//1
f  2//1 1//1 4//1
f  5//2 6//2 7//2
f  6//2 5//2 8//3
f  6//4 3//4 7//4
f  3//4 6//4 1//4
f  7//5 2//5 5//5
f  2//5 7//5 3//5
f  8//6 2//6 4//6
f  2//6 8//6 5//7
f  6//8 4//8 1//8
f  4//8 6//8 8//9

