# {"id":"BLDG_0003000a0018ebe9","idOriginal":"BLDG_0003000a0018ebe9","origin":[13.38167334948609,52.559322448093695],"elevation":39.25}
# Longitude: 13.38167334948609
# Latitude: 52.559322448093695
# Elevation: 39.25

# File produced by Open Asset Import Library (http://www.assimp.sf.net)
# (assimp v3.1.0)

mtllib BLDG_0003000a0018ebe9.obj.mtl

# 24 vertex positions
v  10.8382 -3.27274e-16 5.34479
v  22.2872 3.15254e-16 -5.14849
v  16.035 -4.84196e-16 7.90752
v  17.0904 4.72176e-16 -7.71122
v  9.32652 -2.81626e-16 4.5993
v  15.5759 5.17909e-16 -8.45809
v  0 0 0
v  6.24938 7.99534e-16 -13.0574
v  10.8386 18.6487 5.34419
v  22.2876 21.0169 -5.14915
v  17.0908 18.6487 -7.71181
v  16.0354 21.0169 7.90685
v  9.32692 18.6487 4.59871
v  12.9276 20.7146 0.981968
v  11.4149 20.7146 0.236028
v  15.0539 20.5274 -3.4582
v  13.5403 20.5274 -4.20463
v  15.5763 18.6487 -8.45868
v  0.000397969 18.6487 -0.00059124
v  12.4517 21.0169 -1.93006
v  3.12514 21.0169 -6.52936
v  6.24978 18.6487 -13.058
v  13.0392 20.5715 -3.15775
v  11.9864 20.6643 -0.958063

# 0 UV coordinates

# 34 vertex normals
vn 1.2624e-24 -1 -6.12323e-17
vn 1.2624e-24 -1 -6.12323e-17
vn 8.67936e-24 -1 -6.12323e-17
vn -1.51608e-23 -1 -6.12323e-17
vn 0 -1 -6.12323e-17
vn 2.81364e-24 -1 -6.12323e-17
vn -0.341234 0.925666 -0.163408
vn -0.17374 0.919612 0.352319
vn -0.173742 0.919612 0.352317
vn 0.0168116 0.999277 -0.0340901
vn 0.0168112 0.999277 -0.0340905
vn 0.163684 0.928998 -0.33192
vn 0.163686 0.928998 -0.331919
vn -0.137541 0.950417 0.278907
vn -0.137541 0.950417 0.278907
vn 0.137544 0.950415 -0.278914
vn 0.137544 0.950415 -0.278914
vn 0.901919 -5.54207e-06 0.431905
vn -0.442286 3.78624e-05 0.896874
vn -0.442286 3.78798e-05 0.896874
vn 0.442286 -3.78454e-05 -0.896874
vn 0.442286 -3.78799e-05 -0.896874
vn 0.901919 -5.61087e-06 0.431905
vn 0.901919 -5.51051e-06 0.431905
vn -0.442286 3.78451e-05 0.896874
vn -0.902012 7.73697e-06 -0.431711
vn -0.902012 5.76355e-06 -0.431711
vn 0.442286 -3.7868e-05 -0.896874
vn -0.902012 6.39686e-06 -0.431711
vn -0.442286 3.78663e-05 0.896874
vn -0.902012 5.56221e-06 -0.431711
vn -0.902012 5.54745e-06 -0.431711
vn -0.902012 5.56394e-06 -0.431711
vn 0.442286 -3.7868e-05 -0.896874

# Mesh 'defaultobject' with 40 faces
g defaultobject
usemtl DefaultMaterial
f  1//1 2//1 3//1
f  2//1 1//1 4//2
f  5//3 4//2 1//1
f  4//2 5//3 6//4
f  7//5 6//4 5//3
f  6//4 7//5 8//6
f  9//7 10//7 11//7
f  10//7 9//7 12//7
f  13//8 14//8 15//8
f  14//8 13//8 9//9
f  15//10 16//10 17//10
f  16//10 15//10 14//11
f  17//12 11//12 18//12
f  11//12 17//12 16//13
f  19//14 20//14 21//14
f  20//14 19//14 13//15
f  21//16 18//16 22//16
f  18//16 21//16 20//17
f  2//18 12//18 3//18
f  12//18 2//18 10//18
f  3//19 9//19 1//19
f  9//19 3//19 12//20
f  11//21 2//21 4//21
f  2//21 11//21 10//22
f  16//23 9//23 11//23
f  9//23 16//23 14//24
f  1//19 13//25 5//25
f  13//25 1//19 9//19
f  18//26 23//26 17//26
f  24//27 13//27 15//27
f  18//28 4//21 6//28
f  4//21 18//28 11//21
f  20//29 23//26 24//27
f  5//25 19//30 7//30
f  19//30 5//25 13//25
f  19//31 8//31 7//31
f  8//31 19//31 22//32
f  22//32 19//31 21//33
f  22//34 6//28 8//34
f  6//28 22//34 18//28

