# {"id":"BLDG_0003000900823f99","idOriginal":"BLDG_0003000900823f99","origin":[13.386682354590501,52.519665070794495],"elevation":32.6500015258789}
# Longitude: 13.386682354590501
# Latitude: 52.519665070794495
# Elevation: 32.6500015258789

# File produced by Open Asset Import Library (http://www.assimp.sf.net)
# (assimp v3.1.0)

mtllib BLDG_0003000900823f99.obj.mtl

# 39 vertex positions
v  2.68981 33 32.8214
v  12.0906 33 21.4491
v  1.82759 33 22.2893
v  12.9528 33 31.9812
v  11.199 33 10.5584
v  0.936019 33 11.3987
v  22.2991 33 9.64966
v  23.1907 33 20.5404
v  28.3597 9.5 20.1227
v  22.1166 9.5 7.42745
v  23.1906 9.5 20.5463
v  26.5324 9.5 -2.1738
v  11.2596 9.5 -0.922137
v  21.3653 9.5 -1.75034
v  12.0109 9.5 8.25477
v  12.0905 5.45 21.4561
v  24.0563 5.45 31.0709
v  23.1938 5.45 20.5462
v  12.9521 5.45 31.9809
v  0.000630741 29.55 -0.000934389
v  12.0113 29.55 8.25413
v  11.26 29.55 -0.922692
v  22.299 29.55 9.64977
v  22.1162 29.55 7.42689
v  12.1933 29.55 10.4771
v  0.751903 29.55 9.17589
v  0.935945 29.55 11.3988
v  28.3595 -1.23218e-15 20.123
v  21.3664 1.07165e-16 -1.75014
v  26.5322 1.33089e-16 -2.1735
v  11.2594 5.64462e-17 -0.921836
v  0 0 0
v  1.36756 -1.02133e-15 16.6796
v  23.1936 -1.2581e-15 20.5464
v  2.68911 -2.00979e-15 32.8224
v  24.0562 -1.90256e-15 31.0711
v  2.68974 29.55 32.8215
v  2.68923 5.45 32.8223
v  23.1906 29.55 20.5405

# 0 UV coordinates

# 53 vertex normals
vn 0 1 0
vn -2.92197e-23 -1 -6.12323e-17
vn 9.33418e-25 -1 -6.12323e-17
vn 0 -1 -6.12323e-17
vn 3.80256e-24 -1 -6.12323e-17
vn -3.62411e-24 -1 -6.12323e-17
vn 4.87889e-24 -1 -6.12323e-17
vn -7.48284e-24 -1 -6.12323e-17
vn -0.0815996 -2.97734e-05 -0.996665
vn -0.0815996 -2.97716e-05 -0.996665
vn -0.0815926 -2.58089e-05 -0.996666
vn -0.0816801 -2.97697e-05 -0.996659
vn -0.0816801 -2.97744e-05 -0.996659
vn -0.0816801 -2.97779e-05 -0.996659
vn -0.996666 2.38537e-05 0.0815933
vn -0.99659 -0.000263145 0.0825113
vn -0.996668 0.000103052 0.0815684
vn -0.996666 8.60794e-05 0.0815933
vn -0.996661 2.3901e-05 0.0816554
vn -0.996661 2.38625e-05 0.0816555
vn -0.996656 -0.000340988 0.0817156
vn -0.996666 2.38471e-05 0.0815933
vn -0.996666 2.3881e-05 0.0815933
vn 0.0815926 2.97097e-05 0.996666
vn 0.0816733 0.000291072 0.996659
vn 0.0815983 0.000255409 0.996665
vn 0.0816802 2.9599e-05 0.996659
vn 0.0816804 2.98756e-05 0.996659
vn 0.0816803 2.99962e-05 0.996659
vn 0.0815925 -1.10531e-05 0.996666
vn 0.0817026 3.0227e-05 0.996657
vn 0.0817016 2.98055e-05 0.996657
vn 0.0817016 7.51786e-05 0.996657
vn 0.0816901 2.96449e-05 0.996658
vn 0.0816794 2.96485e-05 0.996659
vn 0.996666 -2.3828e-05 -0.0815934
vn 0.996661 1.68424e-05 -0.0816552
vn 0 -1 0
vn 0.996666 -2.35097e-05 -0.0815933
vn 0.996666 -2.40832e-05 -0.0815931
vn 0.996659 -2.38007e-05 -0.0816808
vn 0.996666 -2.38606e-05 -0.0815933
vn 0.996666 -2.38608e-05 -0.0815933
vn -0.0816042 -2.99405e-05 -0.996665
vn -0.0816052 -3.33409e-05 -0.996665
vn -0.0815925 -2.96631e-05 -0.996666
vn -0.0815926 -2.99239e-05 -0.996666
vn 0.996666 -2.38635e-05 -0.0815932
vn 0.996666 -2.38714e-05 -0.0815932
vn -0.0815926 -2.97739e-05 -0.996666
vn -0.0815926 -2.9781e-05 -0.996666
vn 0.996659 -2.38617e-05 -0.0816801
vn 0.996659 -2.38783e-05 -0.08168

# Mesh 'defaultobject' with 74 faces
g defaultobject
usemtl DefaultMaterial
f  1//1 2//1 3//1
f  2//1 1//1 4//1
f  3//1 5//1 6//1
f  5//1 3//1 7//1
f  7//1 3//1 2//1
f  7//1 2//1 8//1
f  9//1 10//1 11//1
f  10//1 9//1 12//1
f  10//1 12//1 13//1
f  13//1 12//1 14//1
f  13//1 15//1 10//1
f  16//1 17//1 18//1
f  17//1 16//1 19//1
f  20//1 21//1 22//1
f  21//1 23//1 24//1
f  23//1 21//1 25//1
f  25//1 21//1 20//1
f  25//1 20//1 26//1
f  25//1 26//1 27//1
f  28//2 29//2 30//2
f  29//2 28//2 31//3
f  31//3 28//2 32//4
f  32//4 28//2 33//5
f  33//5 28//2 34//6
f  33//5 34//6 35//7
f  35//7 34//6 36//8
f  20//9 31//9 32//9
f  31//9 20//9 13//10
f  13//10 20//9 22//11
f  13//12 29//12 31//12
f  29//12 13//12 14//12
f  29//12 14//12 30//13
f  30//13 14//12 12//14
f  32//15 26//15 20//15
f  26//16 32//16 27//16
f  27//17 32//17 3//17
f  3//18 32//18 1//18
f  1//19 32//19 37//19
f  37//19 32//19 38//20
f  38//21 32//21 33//21
f  38//22 33//22 35//22
f  3//23 6//23 27//23
f  2//24 39//24 8//24
f  39//25 2//25 11//25
f  11//26 2//26 16//26
f  11//27 16//27 18//27
f  11//27 28//28 9//28
f  28//28 11//27 18//27
f  28//28 18//27 34//29
f  1//30 19//30 4//30
f  19//31 1//31 37//31
f  19//31 37//31 38//32
f  19//33 38//33 36//33
f  36//34 38//34 35//34
f  36//35 17//35 19//35
f  10//36 39//36 11//36
f  39//37 10//37 24//37
f  39//38 24//38 23//38
f  39//36 23//39 8//39
f  7//40 8//39 23//39
f  9//41 30//41 12//41
f  30//41 9//41 28//41
f  4//42 16//42 2//42
f  16//42 4//42 19//43
f  6//44 25//44 27//44
f  25//44 6//44 5//45
f  25//46 5//46 23//46
f  23//46 5//46 7//47
f  13//48 21//48 15//48
f  21//48 13//48 22//49
f  15//50 24//50 10//50
f  24//50 15//50 21//51
f  34//52 17//52 36//52
f  17//52 34//52 18//53

