# {"id":"BLDG_00030000001b0947","idOriginal":"BLDG_00030000001b0947","origin":[13.331048232938818,52.558869310716084],"elevation":36.810001373291}
# Longitude: 13.331048232938818
# Latitude: 52.558869310716084
# Elevation: 36.810001373291

# File produced by Open Asset Import Library (http://www.assimp.sf.net)
# (assimp v3.1.0)

mtllib BLDG_00030000001b0947.obj.mtl

# 34 vertex positions
v  17.0151 15.8167 9.04572
v  15.6252 -4.72151e-16 7.71081
v  17.0148 -5.53921e-16 9.04622
v  15.6255 15.8167 7.71031
v  18.7822 -4.43075e-16 7.23597
v  18.7825 15.8167 7.23547
v  17.3779 -3.60494e-16 5.88731
v  17.3782 15.8167 5.88681
v  19.4547 -2.28147e-16 3.72593
v  19.4551 15.8167 3.72542
v  11.4175 2.41831e-16 -3.9494
v  11.4178 15.8167 -3.9499
v  12.3944 3.12939e-16 -5.11068
v  12.3947 15.8167 -5.11118
v  12.7413 3.38255e-16 -5.52412
v  12.7416 15.8167 -5.52462
v  11.1625 4.24898e-16 -6.93911
v  11.1629 15.8167 -6.93961
v  9.60096 15.8167 -5.2025
v  9.60063 3.1853e-16 -5.202
v  7.28339 4.43564e-16 -7.24394
v  7.28373 15.8167 -7.24445
v  0.000336445 15.8167 -0.00050147
v  0 0 0
v  4.68712 15.8167 4.57324
v  4.68679 -2.80061e-16 4.57374
v  4.34756 15.8167 4.92183
v  4.34723 -3.01406e-16 4.92233
v  6.83082 15.8167 7.45991
v  6.83048 -4.56818e-16 7.46041
v  7.22821 -4.31935e-16 7.05404
v  7.22854 15.8167 7.05354
v  11.8878 15.8167 11.6008
v  11.8874 -7.10376e-16 11.6013

# 0 UV coordinates

# 44 vertex normals
vn -0.69291 3.75303e-05 0.721024
vn -0.692911 3.76156e-05 0.721023
vn 0.715518 6.92328e-06 0.698594
vn 0.715518 6.97095e-06 0.698594
vn 0.692676 -3.75758e-05 -0.721248
vn 0.692676 -3.75564e-05 -0.721249
vn 0.721071 6.64814e-06 0.692861
vn 0.721071 6.66825e-06 0.692861
vn 0.690636 -3.75875e-05 -0.723203
vn 0.690636 -3.76309e-05 -0.723203
vn 0.765231 4.13211e-06 0.643755
vn 0.765232 4.17681e-06 0.643755
vn 0.766065 4.12495e-06 0.642763
vn 0.766064 4.06036e-06 0.642765
vn 0.66742 -3.78038e-05 -0.744682
vn 0.66742 -3.78251e-05 -0.744682
vn -0.743615 -5.37785e-06 -0.668608
vn 0.661135 -3.78633e-05 -0.750267
vn -0.705184 -7.47933e-06 -0.709024
vn -0.705184 -7.47763e-06 -0.709024
vn -0.698423 3.75636e-05 0.715685
vn -0.698423 3.75473e-05 0.715685
vn -0.716318 -6.88443e-06 -0.697774
vn -0.716317 -6.88387e-06 -0.697774
vn -0.714785 3.73936e-05 0.699344
vn -0.714785 3.7351e-05 0.699345
vn 0.714671 6.97209e-06 0.699461
vn -0.698458 3.75211e-05 0.715651
vn -0.698458 3.75632e-05 0.715651
vn 0.721123 6.67207e-06 0.692807
vn 0.721123 6.62736e-06 0.692807
vn 2.62262e-23 -1 -6.12324e-17
vn 1.53173e-23 -1 -6.12324e-17
vn -6.78611e-25 -1 -6.12324e-17
vn 0 -1 -6.12323e-17
vn 0 -1 -6.12323e-17
vn -7.66816e-24 -1 -6.12323e-17
vn 4.31371e-24 -1 -6.12323e-17
vn 1.49511e-21 -1 -6.12337e-17
vn 1.36532e-23 -1 -6.12324e-17
vn 5.17746e-24 -1 -6.12323e-17
vn 4.11426e-24 -1 -6.12323e-17
vn -6.07586e-23 -1 -6.12323e-17
vn 0 1 0

# Mesh 'defaultobject' with 64 faces
g defaultobject
usemtl DefaultMaterial
f  1//1 2//1 3//1
f  2//1 1//1 4//2
f  5//3 1//3 3//3
f  1//3 5//3 6//4
f  7//5 6//5 5//5
f  6//5 7//5 8//6
f  9//7 8//7 7//7
f  8//7 9//7 10//8
f  11//9 10//9 9//9
f  10//9 11//9 12//10
f  13//11 12//11 11//11
f  12//11 13//11 14//12
f  15//13 14//13 13//13
f  14//13 15//13 16//14
f  17//15 16//15 15//15
f  16//15 17//15 18//16
f  19//17 17//17 20//17
f  17//17 19//17 18//17
f  21//18 19//18 20//18
f  19//18 21//18 22//18
f  23//19 21//19 24//19
f  21//19 23//19 22//20
f  25//21 24//21 26//21
f  24//21 25//21 23//22
f  27//23 26//23 28//23
f  26//23 27//23 25//24
f  29//25 28//25 30//25
f  28//25 29//25 27//26
f  31//27 29//27 30//27
f  29//27 31//27 32//27
f  33//28 31//28 34//28
f  31//28 33//28 32//29
f  2//30 33//30 34//30
f  33//30 2//30 4//31
f  28//32 31//32 30//32
f  31//32 28//32 26//33
f  5//34 3//34 2//34
f  31//32 2//34 34//35
f  2//34 31//32 26//33
f  2//34 26//33 24//35
f  2//34 24//35 21//36
f  2//34 21//36 7//37
f  2//34 7//37 5//34
f  7//37 21//36 9//38
f  9//38 21//36 20//39
f  20//39 11//40 9//38
f  11//40 20//39 17//41
f  11//40 17//41 13//42
f  13//42 17//41 15//43
f  25//44 22//44 23//44
f  22//44 25//44 19//44
f  1//44 8//44 4//44
f  8//44 1//44 6//44
f  29//44 25//44 27//44
f  25//44 29//44 19//44
f  19//44 29//44 18//44
f  18//44 29//44 12//44
f  12//44 29//44 32//44
f  12//44 32//44 10//44
f  10//44 32//44 4//44
f  4//44 32//44 33//44
f  10//44 4//44 8//44
f  12//44 16//44 18//44
f  16//44 12//44 14//44

