# {"id":"BLDG_00030008001f59de","idOriginal":"BLDG_00030008001f59de","origin":[13.385418914152597,52.52628866107086],"elevation":34.2599983215332}
# Longitude: 13.385418914152597
# Latitude: 52.52628866107086
# Elevation: 34.2599983215332

# File produced by Open Asset Import Library (http://www.assimp.sf.net)
# (assimp v3.1.0)

mtllib BLDG_00030008001f59de.obj.mtl

# 16 vertex positions
v  14.4828 -1.08917e-15 17.7875
v  6.79015 2.02935e-17 -0.331418
v  13.584 4.0151e-17 -0.655715
v  0 0 0
v  7.69058 -1.10932e-15 18.1165
v  0.900426 -1.12961e-15 18.4479
v  13.5841 3.24 -0.655818
v  11.0878 4.76 17.9529
v  14.4829 3.24 17.7874
v  10.189 4.76 -0.490411
v  7.69065 3.24 18.1164
v  6.79022 3.24 -0.33152
v  4.29561 4.76 18.2821
v  3.39518 4.76 -0.165859
v  6.9153e-05 3.24 -0.00010249
v  0.900495 3.24 18.4478

# 0 UV coordinates

# 28 vertex normals
vn -1.34886e-23 -1 -6.12323e-17
vn 2.1078e-25 -1 -6.12323e-17
vn 0 -1 -6.12323e-17
vn 1.34918e-23 -1 -6.12323e-17
vn 0.407738 0.912883 -0.0198707
vn 0.407738 0.912883 -0.0198708
vn -0.407396 0.913035 0.0198846
vn -0.407536 0.912973 0.0198609
vn 0.407737 0.912883 -0.0199012
vn 0.407737 0.912883 -0.0199012
vn -0.40773 0.912886 0.0199009
vn -0.40773 0.912886 0.0199009
vn 0.0483774 3.07267e-05 0.998829
vn 0.0485314 -0.000292978 0.998822
vn 0.0480789 3.07264e-05 0.998843
vn 0.0487504 3.0711e-05 0.998811
vn 0.0487505 3.05081e-05 0.998811
vn 0.0487511 3.0123e-05 0.998811
vn -0.0486758 -3.05585e-05 -0.998815
vn -0.0471662 0.00104868 -0.998887
vn -0.0476797 -3.05885e-05 -0.998863
vn -0.0487505 -3.0564e-05 -0.998811
vn -0.0487505 -3.05612e-05 -0.998811
vn -0.0487505 -3.05546e-05 -0.998811
vn 0.998815 -2.27312e-05 -0.0486763
vn 0.998815 -2.29862e-05 -0.0486763
vn -0.998811 2.28603e-05 0.048751
vn -0.998811 2.28356e-05 0.048751

# Mesh 'defaultobject' with 28 faces
g defaultobject
usemtl DefaultMaterial
f  1//1 2//1 3//1
f  2//1 1//1 4//2
f  4//2 1//1 5//3
f  4//2 5//3 6//4
f  7//5 8//5 9//5
f  8//5 7//5 10//6
f  11//7 10//7 12//7
f  10//8 11//8 8//8
f  12//9 13//9 11//9
f  13//9 12//9 14//10
f  15//11 13//11 14//11
f  13//11 15//11 16//12
f  9//13 5//13 1//13
f  5//14 9//14 8//14
f  5//15 8//15 11//15
f  5//16 11//16 6//16
f  6//16 11//16 13//17
f  6//16 13//17 16//18
f  3//19 10//19 7//19
f  10//20 3//20 12//20
f  12//21 3//21 2//21
f  12//22 2//22 14//22
f  14//22 2//22 15//23
f  15//23 2//22 4//24
f  3//25 9//25 1//25
f  9//25 3//25 7//26
f  4//27 16//27 15//27
f  16//27 4//27 6//28

