# {"id":"BLDG_0003000e0079f811","idOriginal":"BLDG_0003000e0079f811","origin":[13.388166636154823,52.518609143937766],"elevation":29.7900009155273}
# Longitude: 13.388166636154823
# Latitude: 52.518609143937766
# Elevation: 29.7900009155273

# File produced by Open Asset Import Library (http://www.assimp.sf.net)
# (assimp v3.1.0)

mtllib BLDG_0003000e0079f811.obj.mtl

# 60 vertex positions
v  9.18979 34.11 46.2005
v  16.3444 34.11 44.5717
v  9.10318 34.11 45.1964
v  18.3365 34.11 44.3999
v  18.4231 34.11 45.404
v  8.372 34.11 36.7201
v  14.0796 34.11 18.3149
v  6.83824 34.11 18.9395
v  16.0715 34.11 18.143
v  15.6133 34.11 36.0954
v  17.6053 34.11 35.9236
v  6.19299 34.11 11.4593
v  15.3721 34.11 10.0347
v  6.13881 34.11 10.8312
v  15.4263 34.11 10.6628
v  13.4343 34.11 10.8346
v  18.2892 25.66 1.77611
v  14.6853 25.66 2.08699
v  22.6258 25.66 52.0863
v  16.0704 25.66 18.1434
v  17.6041 25.66 35.924
v  19.0251 25.66 52.3969
v  22.9313 25.66 55.6297
v  5.80762 25.66 53.537
v  6.11319 25.66 57.0794
v  9.18977 33.21 46.2005
v  19.0253 33.21 52.3966
v  18.4221 33.21 45.4041
v  5.80778 33.21 53.5368
v  9.79295 33.21 53.193
v  2.15362 33.21 11.175
v  9.10316 33.21 45.1964
v  6.83822 33.21 18.9395
v  6.13879 33.21 10.8312
v  1.46801 33.21 3.22689
v  15.3711 33.21 10.0348
v  14.6855 33.21 2.08675
v  4.92954 25.66 57.1814
v  0.287565 25.66 3.32894
v  1.46785 25.66 3.22712
v  0.000547761 25.66 -0.00081133
v  18.0023 25.66 -1.55251
v  13.4344 36.21 10.8346
v  6.8384 36.21 18.9394
v  14.0796 36.21 18.3148
v  6.19315 36.21 11.4592
v  15.6133 36.21 36.0954
v  9.10326 36.21 45.1963
v  16.3445 36.21 44.5717
v  8.37209 36.21 36.72
v  6.11264 -3.49515e-15 57.0802
v  22.6253 -3.18941e-15 52.0871
v  22.9307 -3.40639e-15 55.6305
v  19.6727 -1.09198e-15 17.8334
v  4.929 -3.5014e-15 57.1822
v  0.287017 -2.03888e-16 3.32975
v  19.0279 -6.33947e-16 10.3531
v  18.2887 -1.08805e-16 1.77693
v  18.0017 9.50143e-17 -1.5517
v  0 0 0

# 0 UV coordinates

# 66 vertex normals
vn 0 1 0
vn 7.9361e-24 -1 -6.12323e-17
vn -8.75695e-24 -1 -6.12323e-17
vn 0 -1 -6.12323e-17
vn 0 -1 -6.12323e-17
vn -3.12193e-24 -1 -6.12323e-17
vn 4.38486e-25 -1 -6.12323e-17
vn 0.9963 -2.39875e-05 -0.0859415
vn 0.9963 -2.38815e-05 -0.0859416
vn 0.9963 -2.40806e-05 -0.0859415
vn 0.996375 -0.00114263 -0.0850572
vn 0.9963 -0.000144161 -0.0859407
vn 0.9963 -0.000143263 -0.0859416
vn 0.9963 -0.000143136 -0.0859416
vn 0.9963 -0.000143263 -0.0859416
vn 0.9963 -0.000143263 -0.0859416
vn 0.996288 0.000124303 -0.0860813
vn 0.996299 -0.00114347 -0.0859416
vn 0.9963 -0.0011438 -0.085941
vn -0.9963 2.37553e-05 0.085942
vn -0.9963 2.4081e-05 0.0859415
vn -0.9963 2.35718e-05 0.0859416
vn -0.9963 2.36644e-05 0.0859416
vn -0.9963 2.18159e-05 0.0859416
vn -0.9963 2.36642e-05 0.0859416
vn -0.9963 4.39831e-05 0.0859416
vn -0.9963 7.84553e-05 0.0859415
vn 0.996306 -2.40351e-05 -0.0858801
vn 0.996306 -2.39591e-05 -0.0858796
vn 0.996306 -2.40766e-05 -0.0858797
vn 0.996306 -2.39292e-05 -0.0858796
vn 0.996306 -2.38393e-05 -0.0858794
vn 0.996305 -2.4028e-05 -0.0858797
vn 0.996306 -2.39698e-05 -0.0858795
vn -0.9963 2.40038e-05 0.0859416
vn -0.9963 2.39325e-05 0.0859416
vn -0.9963 2.39848e-05 0.0859415
vn -0.996306 2.39923e-05 0.0858796
vn -0.996306 2.39836e-05 0.0858796
vn -0.996306 2.39836e-05 0.0858795
vn -0.996306 2.39834e-05 0.0858795
vn 0.085941 2.98897e-05 0.9963
vn 0.0859409 2.99136e-05 0.9963
vn 0.085941 2.98789e-05 0.9963
vn 0.0858796 2.97146e-05 0.996305
vn 0.0858788 2.97538e-05 0.996306
vn 0.085879 2.95617e-05 0.996306
vn 0.9963 -2.4013e-05 -0.0859415
vn 0.0859409 2.971e-05 0.9963
vn 0.0859409 2.98355e-05 0.9963
vn -0.0859409 -2.98372e-05 -0.9963
vn -0.0859409 -2.96978e-05 -0.9963
vn 0.9963 -2.34598e-05 -0.0859417
vn 0.9963 -2.40737e-05 -0.0859416
vn 0.0859412 2.9023e-05 0.9963
vn 0.0859412 2.89607e-05 0.9963
vn -0.0859412 -3.07421e-05 -0.9963
vn -0.0859407 -2.90249e-05 -0.9963
vn 0.0859409 2.77299e-05 0.9963
vn 0.0859411 2.90418e-05 0.9963
vn -0.0859409 -3.00276e-05 -0.9963
vn -0.0859408 -2.87944e-05 -0.9963
vn -0.0859409 -2.96901e-05 -0.9963
vn -0.0859408 -2.96587e-05 -0.9963
vn -0.0858789 -2.96699e-05 -0.996306
vn -0.0858788 -2.96684e-05 -0.996306

# Mesh 'defaultobject' with 116 faces
g defaultobject
usemtl DefaultMaterial
f  1//1 2//1 3//1
f  2//1 1//1 4//1
f  4//1 1//1 5//1
f  6//1 7//1 8//1
f  7//1 6//1 9//1
f  9//1 6//1 10//1
f  9//1 10//1 11//1
f  11//1 10//1 2//1
f  11//1 2//1 4//1
f  12//1 13//1 14//1
f  13//1 12//1 15//1
f  15//1 12//1 16//1
f  15//1 16//1 7//1
f  15//1 7//1 9//1
f  17//1 18//1 19//1
f  20//1 19//1 18//1
f  21//1 19//1 20//1
f  22//1 19//1 21//1
f  23//1 19//1 22//1
f  24//1 23//1 22//1
f  25//1 23//1 24//1
f  26//1 27//1 28//1
f  29//1 30//1 31//1
f  26//1 31//1 30//1
f  27//1 26//1 30//1
f  32//1 31//1 26//1
f  33//1 31//1 32//1
f  34//1 31//1 33//1
f  35//1 31//1 34//1
f  36//1 35//1 34//1
f  37//1 35//1 36//1
f  38//1 25//1 39//1
f  24//1 39//1 25//1
f  40//1 39//1 24//1
f  41//1 39//1 40//1
f  18//1 41//1 40//1
f  17//1 41//1 18//1
f  42//1 41//1 17//1
f  43//1 44//1 45//1
f  44//1 43//1 46//1
f  47//1 48//1 49//1
f  48//1 47//1 50//1
f  51//2 52//2 53//2
f  52//2 51//2 54//3
f  54//3 51//2 55//4
f  54//3 55//4 56//5
f  54//3 56//5 57//6
f  57//6 56//5 58//5
f  58//5 56//5 59//7
f  59//7 56//5 60//5
f  37//8 36//8 18//8
f  21//9 27//9 22//9
f  27//9 21//9 28//10
f  28//11 21//11 5//11
f  5//12 21//12 4//12
f  4//12 21//12 20//13
f  4//12 20//13 11//14
f  11//14 20//13 9//15
f  9//15 20//13 18//16
f  9//17 18//17 36//17
f  9//18 36//18 15//18
f  15//18 36//18 13//19
f  34//20 12//20 14//20
f  12//20 34//20 8//21
f  8//21 34//20 6//22
f  6//22 34//20 3//23
f  3//23 34//20 1//24
f  1//24 34//20 26//25
f  26//1 34//1 33//1
f  26//1 33//1 32//1
f  6//26 48//26 50//26
f  48//26 6//26 3//26
f  12//27 44//27 46//27
f  44//27 12//27 8//27
f  53//28 19//28 23//28
f  19//28 53//28 17//29
f  17//29 53//28 52//30
f  17//29 52//30 54//31
f  17//29 54//31 42//32
f  42//32 54//31 57//33
f  42//32 57//33 59//34
f  59//7 57//6 58//5
f  29//35 40//35 24//35
f  40//35 29//35 31//36
f  40//35 31//36 35//37
f  38//38 56//38 55//38
f  56//38 38//38 39//39
f  56//38 39//39 60//40
f  60//40 39//39 41//41
f  27//42 24//42 22//42
f  24//42 27//42 30//43
f  24//42 30//43 29//44
f  55//45 25//45 38//45
f  25//45 55//45 23//46
f  23//46 55//45 53//47
f  53//2 55//4 51//2
f  16//48 45//48 7//48
f  45//48 16//48 43//48
f  7//49 44//49 8//49
f  44//49 7//49 45//50
f  16//51 46//51 43//51
f  46//51 16//51 12//52
f  10//53 49//53 2//53
f  49//53 10//53 47//54
f  2//55 48//55 3//55
f  48//55 2//55 49//56
f  10//57 50//57 47//57
f  50//57 10//57 6//58
f  28//59 1//59 26//59
f  1//59 28//59 5//60
f  36//61 14//61 13//61
f  14//61 36//61 34//62
f  18//63 35//63 37//63
f  35//63 18//63 40//64
f  59//65 41//65 42//65
f  41//65 59//65 60//66

