# {"id":"BLDG_0003000b0056a4ac","idOriginal":"BLDG_0003000b0056a4ac","origin":[13.399853169616968,52.52607803311902],"elevation":35.8499984741211}
# Longitude: 13.399853169616968
# Latitude: 52.52607803311902
# Elevation: 35.8499984741211

# File produced by Open Asset Import Library (http://www.assimp.sf.net)
# (assimp v3.1.0)

mtllib BLDG_0003000b0056a4ac.obj.mtl

# 10 vertex positions
v  14.4976 13.345 -4.50396
v  8.17068 -3.27466e-16 5.34793
v  14.4973 2.75762e-16 -4.50354
v  8.17097 13.345 5.3475
v  11.3344 16.6871 0.421667
v  0.000285092 13.345 -0.00042215
v  0 0 0
v  6.32664 6.03228e-16 -9.85146
v  6.32693 13.345 -9.85189
v  3.16368 16.6871 -4.92626

# 0 UV coordinates

# 14 vertex normals
vn 0.841429 -8.72131e-07 0.540368
vn 0.841429 -1.12112e-06 0.540368
vn -0.547648 3.81711e-05 0.836709
vn -0.547648 3.82004e-05 0.836709
vn -0.841429 8.81832e-07 -0.540368
vn -0.841429 8.7213e-07 -0.540368
vn -0.841429 8.77399e-07 -0.540368
vn 0.547648 -3.81904e-05 -0.836709
vn -0.271527 0.868433 0.414845
vn -0.271527 0.868433 0.414845
vn 0.271536 0.868424 -0.414859
vn 0.271536 0.868424 -0.414859
vn 9.26103e-25 -1 -6.12323e-17
vn 2.77831e-24 -1 -6.12323e-17

# Mesh 'defaultobject' with 16 faces
g defaultobject
usemtl DefaultMaterial
f  1//1 2//1 3//1
f  2//1 1//1 4//1
f  4//1 1//1 5//2
f  2//3 6//3 7//3
f  6//3 2//3 4//4
f  6//5 8//5 7//5
f  8//5 6//5 9//6
f  9//6 6//5 10//7
f  9//8 3//8 8//8
f  3//8 9//8 1//8
f  6//9 5//9 10//9
f  5//9 6//9 4//10
f  10//11 1//11 9//11
f  1//11 10//11 5//12
f  7//13 3//13 2//13
f  3//13 7//13 8//14

