# {"id":"BLDG_00030000001b5bea","idOriginal":"BLDG_00030000001b5bea","origin":[13.342528537399037,52.55322460326274],"elevation":36.689998626709}
# Longitude: 13.342528537399037
# Latitude: 52.55322460326274
# Elevation: 36.689998626709

# File produced by Open Asset Import Library (http://www.assimp.sf.net)
# (assimp v3.1.0)

mtllib BLDG_00030000001b5bea.obj.mtl

# 8 vertex positions
v  8.9911e-05 4.22377 -0.00013386
v  18.0771 4.22377 7.34642
v  5.02586 4.22377 -5.36504
v  12.8831 4.22377 12.7292
v  0 0 0
v  18.077 -4.49847e-16 7.34655
v  12.883 -7.79446e-16 12.7293
v  5.02577 3.28506e-16 -5.3649

# 0 UV coordinates

# 10 vertex normals
vn -0 1 0
vn 0 -1 -6.12323e-17
vn 0 -1 -6.12323e-17
vn -0.70285 3.74029e-05 0.711338
vn -0.70285 3.75053e-05 0.711338
vn 0.719615 6.64076e-06 0.694373
vn 0.697721 -3.74773e-05 -0.716369
vn 0.697721 -3.76756e-05 -0.716369
vn -0.729797 -6.13161e-06 -0.683664
vn -0.729797 -6.19875e-06 -0.683664

# Mesh 'defaultobject' with 12 faces
g defaultobject
usemtl DefaultMaterial
f  1//1 2//1 3//1
f  2//1 1//1 4//1
f  5//2 6//2 7//2
f  6//2 5//2 8//3
f  4//4 5//4 7//4
f  5//4 4//4 1//5
f  6//6 4//6 7//6
f  4//6 6//6 2//6
f  8//7 2//7 6//7
f  2//7 8//7 3//8
f  1//9 8//9 5//9
f  8//9 1//9 3//10

