# {"id":"BLDG_0003000b002beaf9","idOriginal":"BLDG_0003000b002beaf9","origin":[13.353368558278415,52.533677215600555],"elevation":35.3699989318848}
# Longitude: 13.353368558278415
# Latitude: 52.533677215600555
# Elevation: 35.3699989318848

# File produced by Open Asset Import Library (http://www.assimp.sf.net)
# (assimp v3.1.0)

mtllib BLDG_0003000b002beaf9.obj.mtl

# 11 vertex positions
v  10.4339 13.7118 13.1109
v  62.2111 19.9556 -38.2056
v  5.21722 19.9556 6.55504
v  74.0167 13.7118 -36.8245
v  63.5831 13.7118 -49.9358
v  0.000292066 13.7118 -0.000434
v  5.21679 -4.01419e-16 6.55567
v  10.4336 -8.02838e-16 13.1113
v  0 0 0
v  63.5829 3.05766e-15 -49.9354
v  74.0164 2.25482e-15 -36.824

# 0 UV coordinates

# 16 vertex normals
vn 0.369088 0.801817 0.469961
vn 0.369088 0.801817 0.469961
vn -0.369092 0.801812 -0.469966
vn -0.369092 0.801812 -0.469966
vn 0.467598 0.801807 -0.372099
vn -0.782481 3.63585e-05 0.622674
vn -0.782481 3.63944e-05 0.622674
vn -0.782481 3.63759e-05 0.622674
vn -0.782482 3.63158e-05 0.622674
vn 0.782481 -3.62616e-05 -0.622674
vn 0.617649 1.16723e-05 0.786454
vn 0.617649 1.18925e-05 0.786454
vn -0.617649 -1.17364e-05 -0.786454
vn -0.617649 -1.18834e-05 -0.786454
vn 0 -1 -6.12323e-17
vn -5.55112e-17 -1 0

# Mesh 'defaultobject' with 18 faces
g defaultobject
usemtl DefaultMaterial
f  1//1 2//1 3//1
f  2//1 1//1 4//2
f  3//3 5//3 6//3
f  5//3 3//3 2//4
f  4//5 5//5 2//5
f  1//6 7//6 8//6
f  7//6 1//6 9//7
f  9//7 1//6 6//8
f  6//8 1//6 3//9
f  10//10 4//10 11//10
f  4//10 10//10 5//10
f  11//11 1//11 8//11
f  1//11 11//11 4//12
f  6//13 10//13 9//13
f  10//13 6//13 5//14
f  8//15 10//15 11//15
f  10//15 8//15 9//15
f  9//15 8//15 7//16

