# {"id":"BLDG_00030000001aabc3","idOriginal":"BLDG_00030000001aabc3","origin":[13.337582016869511,52.54899092302279],"elevation":35.2200012207031}
# Longitude: 13.337582016869511
# Latitude: 52.54899092302279
# Elevation: 35.2200012207031

# File produced by Open Asset Import Library (http://www.assimp.sf.net)
# (assimp v3.1.0)

mtllib BLDG_00030000001aabc3.obj.mtl

# 10 vertex positions
v  5.82074 2.77091 5.61932
v  2.83452 2.77091 -2.92787
v  5.8964e-05 2.77091 -8.77893e-05
v  3.03078 2.77091 -2.73822
v  8.65701 2.77091 2.69248
v  0 0 0
v  8.65695 -1.64872e-16 2.69257
v  5.82068 -3.44089e-16 5.6194
v  3.03073 1.67662e-16 -2.73813
v  2.83446 1.79275e-16 -2.92778

# 0 UV coordinates

# 13 vertex normals
vn 0 1 0
vn -3.21096e-24 -1 -6.12323e-17
vn 0 -1 -6.12323e-17
vn -5.94997e-24 -1 -6.12323e-17
vn -0.694558 3.74817e-05 0.719436
vn -0.694558 3.75734e-05 0.719436
vn 0.71813 6.84017e-06 0.695909
vn 0.71813 6.75572e-06 0.695909
vn 0.694494 -3.75878e-05 -0.719498
vn 0.69488 -3.75411e-05 -0.719126
vn 0.69488 -3.76002e-05 -0.719125
vn -0.718465 -6.74847e-06 -0.695563
vn -0.718465 -6.69315e-06 -0.695563

# Mesh 'defaultobject' with 16 faces
g defaultobject
usemtl DefaultMaterial
f  1//1 2//1 3//1
f  2//1 1//1 4//1
f  4//1 1//1 5//1
f  6//2 7//2 8//2
f  7//2 6//2 9//3
f  9//3 6//2 10//4
f  1//5 6//5 8//5
f  6//5 1//5 3//6
f  7//7 1//7 8//7
f  1//7 7//7 5//8
f  9//9 5//9 7//9
f  5//9 9//9 4//9
f  10//10 4//10 9//10
f  4//10 10//10 2//11
f  3//12 10//12 6//12
f  10//12 3//12 2//13

