# {"id":"BLDG_0003000b002608e8","idOriginal":"BLDG_0003000b002608e8","origin":[13.349765289601578,52.54107263219618],"elevation":34.2999992370605}
# Longitude: 13.349765289601578
# Latitude: 52.54107263219618
# Elevation: 34.2999992370605

# File produced by Open Asset Import Library (http://www.assimp.sf.net)
# (assimp v3.1.0)

mtllib BLDG_0003000b002608e8.obj.mtl

# 42 vertex positions
v  14.1038 20.1479 -2.95231
v  16.634 20.8935 11.1162
v  21.7616 20.1479 7.11169
v  8.98043 20.8935 1.0577
v  12.6352 20.1479 -4.88239
v  10.2473 20.1479 -8.0207
v  5.12386 20.8935 -4.01069
v  27.6204 21.9321 -21.6184
v  25.4501 22.3938 -19.9198
v  29.3702 18.7666 -14.9011
v  14.1038 18.7666 -2.95227
v  10.2473 22.3938 -8.02077
v  31.5405 21.9321 -16.5998
v  39.339 21.9321 -6.6159
v  37.1669 18.7666 -4.91947
v  37.1258 22.5428 -20.9713
v  33.2057 22.5428 -25.99
v  44.9289 22.5428 -10.9815
v  39.5032 18.7666 -22.832
v  35.5831 18.7666 -27.8507
v  47.3083 18.7666 -12.8397
v  0.000429067 20.1479 -0.00063803
v  3.857 20.1479 5.06775
v  11.5064 20.1479 15.1208
v  16.6336 -6.80712e-16 11.1169
v  14.1034 1.80738e-16 -2.95167
v  21.7612 -4.35505e-16 7.11233
v  11.506 -9.2592e-16 15.1214
v  44.9284 6.72381e-16 -10.9808
v  39.5028 1.39802e-15 -22.8314
v  47.3079 7.86168e-16 -12.8391
v  39.3385 4.05065e-16 -6.61521
v  37.1665 3.01194e-16 -4.91887
v  35.5827 1.70533e-15 -27.8501
v  29.3698 9.1239e-16 -14.9005
v  33.2052 1.59138e-15 -25.9893
v  27.6199 1.32371e-15 -21.6178
v  25.4496 1.21969e-15 -19.9191
v  10.2468 4.91087e-16 -8.02007
v  3.85657 -3.10349e-16 5.06839
v  5.12342 2.45544e-16 -4.01003
v  0 0 0

# 0 UV coordinates

# 73 vertex normals
vn 0.0906163 0.993496 -0.0689506
vn 0.0906163 0.993496 -0.0689506
vn 0.0906163 0.993496 -0.0689505
vn 0.0906164 0.993496 -0.0689506
vn 0.0906163 0.993496 -0.0689506
vn 0.415345 0.859817 0.29699
vn 0.305043 0.868938 0.389738
vn 0.305042 0.868939 0.389737
vn 0.305042 0.868938 0.389737
vn -0.594366 0.656649 0.464264
vn -0.594365 0.656649 0.464264
vn -0.594365 0.656649 0.464264
vn -0.0676061 0.996314 0.0528077
vn -0.0676061 0.996314 0.0528077
vn -0.0676061 0.996314 0.0528077
vn -0.0676061 0.996314 0.0528078
vn 0.615546 0.624441 -0.480809
vn 0.615546 0.624441 -0.480808
vn 0.615546 0.624441 -0.480808
vn 0.615546 0.624441 -0.480808
vn -0.0906156 0.993496 0.06895
vn -0.0906156 0.993496 0.06895
vn -0.0906156 0.993496 0.06895
vn -0.0906156 0.993496 0.06895
vn 2.57394e-24 -1 -6.12323e-17
vn -2.05915e-23 -1 -6.12323e-17
vn 2.76589e-24 -1 -6.12323e-17
vn -9.41878e-24 -1 -6.12323e-17
vn 0 -1 -6.12323e-17
vn -1.5505e-23 -1 -6.12323e-17
vn 0 -1 -6.12323e-17
vn 5.50699e-23 -1 -6.12323e-17
vn -1.87532e-23 -1 -6.12323e-17
vn 8.44587e-23 -1 -6.12323e-17
vn 0 -1 -6.12323e-17
vn -5.11093e-24 -1 -6.12323e-17
vn -0.616347 -1.18116e-05 -0.787475
vn -0.616347 -1.10092e-05 -0.787475
vn -0.616346 -1.18582e-05 -0.787475
vn -0.616347 -1.18005e-05 -0.787475
vn -0.616347 -1.18747e-05 -0.787475
vn -0.616347 -1.18767e-05 -0.787475
vn -0.616347 -1.16698e-05 -0.787475
vn -0.616347 -1.16521e-05 -0.787475
vn -0.616346 -1.19903e-05 -0.787475
vn -0.616347 -1.12613e-05 -0.787475
vn -0.616347 -1.18081e-05 -0.787475
vn 0.615511 1.14599e-05 0.788128
vn 0.615511 1.19874e-05 0.788128
vn 0.615511 1.18145e-05 0.788128
vn 0.615512 1.21864e-05 0.788128
vn 0.615511 1.1865e-05 0.788128
vn 0.615511 1.18148e-05 0.788128
vn 0.788078 -3.61175e-05 -0.615575
vn 0.788078 -3.62153e-05 -0.615575
vn 0.788078 -3.66436e-05 -0.615575
vn 0.788078 -3.6309e-05 -0.615575
vn 0.615511 1.18466e-05 0.788128
vn 0.615511 1.18879e-05 0.788128
vn 0.615511 1.18466e-05 0.788128
vn 0.615511 1.10094e-05 0.788128
vn -0.795815 3.61235e-05 0.60554
vn -0.795815 3.61213e-05 0.60554
vn -0.795815 3.61262e-05 0.60554
vn 1 0 0
vn 0.795815 -3.61611e-05 -0.60554
vn 0.795815 -3.61611e-05 -0.605541
vn 0.795814 -3.61237e-05 -0.60554
vn 0.795815 -3.61418e-05 -0.60554
vn 0.616347 1.18692e-05 0.787475
vn 0.616347 1.17853e-05 0.787475
vn -0.795815 3.62617e-05 0.60554
vn -0.788078 3.6309e-05 0.615575

# Mesh 'defaultobject' with 80 faces
g defaultobject
usemtl DefaultMaterial
f  1//1 2//1 3//1
f  2//1 1//1 4//2
f  4//2 1//1 5//3
f  4//2 5//3 6//4
f  4//2 6//4 7//5
f  8//6 9//6 10//6
f  10//7 5//7 11//7
f  5//7 10//7 12//8
f  12//8 10//7 9//9
f  10//10 13//10 8//10
f  13//10 10//10 14//11
f  14//11 10//10 15//12
f  8//13 16//13 17//13
f  16//13 8//13 18//14
f  18//14 8//13 13//15
f  18//14 13//15 14//16
f  17//17 19//17 20//17
f  19//17 17//17 16//18
f  19//17 16//18 21//19
f  21//19 16//18 18//20
f  22//21 4//21 7//21
f  4//21 22//21 2//22
f  2//22 22//21 23//23
f  2//22 23//23 24//24
f  25//25 26//25 27//25
f  26//25 25//25 28//26
f  29//27 30//27 31//27
f  30//27 29//27 32//28
f  30//27 32//28 33//29
f  30//27 33//29 34//30
f  34//30 33//29 35//31
f  34//30 35//31 36//32
f  36//32 35//31 37//33
f  37//33 35//31 26//25
f  37//33 26//25 38//34
f  38//34 26//25 39//35
f  39//35 26//25 28//26
f  39//35 28//26 40//29
f  39//35 40//29 41//29
f  41//29 40//29 42//36
f  22//37 6//37 42//37
f  6//37 22//37 7//38
f  36//39 20//39 34//39
f  20//39 36//39 37//40
f  20//39 37//40 38//41
f  20//39 38//41 39//42
f  20//39 39//42 17//43
f  17//43 39//42 8//44
f  8//44 39//42 9//45
f  9//45 39//42 6//37
f  9//45 6//37 12//46
f  6//37 39//42 41//47
f  6//37 41//47 42//37
f  14//48 21//48 18//48
f  21//48 14//48 15//49
f  21//48 15//49 31//50
f  31//50 15//49 29//51
f  29//51 15//49 32//52
f  32//52 15//49 33//53
f  20//54 30//54 34//54
f  30//54 20//54 31//55
f  31//55 20//54 19//56
f  31//55 19//56 21//57
f  3//58 25//58 27//58
f  25//58 3//58 28//59
f  28//59 3//58 24//60
f  24//60 3//58 2//61
f  42//62 23//62 22//62
f  23//62 42//62 24//63
f  24//63 42//62 28//64
f  28//65 42//65 40//65
f  1//66 11//66 5//66
f  11//66 1//66 3//67
f  11//66 3//67 26//68
f  26//68 3//67 27//69
f  35//70 11//70 26//70
f  11//70 35//70 10//71
f  12//72 6//72 5//72
f  15//73 35//73 33//73
f  35//73 15//73 10//73

