# {"id":"BLDG_0003000e0096abc3","idOriginal":"BLDG_0003000e0096abc3","origin":[13.391379812116387,52.51636939965367],"elevation":32.439998626709}
# Longitude: 13.391379812116387
# Latitude: 52.51636939965367
# Elevation: 32.439998626709

# File produced by Open Asset Import Library (http://www.assimp.sf.net)
# (assimp v3.1.0)

mtllib BLDG_0003000e0096abc3.obj.mtl

# 19 vertex positions
v  3.57327 2.19939e-17 -0.359188
v  0.642979 -3.91668e-16 6.39643
v  0 0 0
v  14.889 9.16439e-17 -1.49666
v  28.9075 1.7793e-16 -2.90581
v  4.21625 -3.69674e-16 6.03724
v  15.532 -3.00024e-16 4.89977
v  29.5505 -2.13739e-16 3.49062
v  5.80022 -1.33454e-15 21.7947
v  17.116 -1.26489e-15 20.6573
v  28.9077 10.3426 -2.90614
v  15.5322 10.3426 4.89944
v  29.5507 10.3426 3.49029
v  14.8892 10.3426 -1.49699
v  5.80044 10.3426 21.7944
v  17.1162 10.3426 20.6569
v  4.21647 10.3426 6.03691
v  0.000220827 10.3426 -0.000326959
v  0.6432 10.3426 6.3961

# 0 UV coordinates

# 26 vertex normals
vn 0 -1 -6.12323e-17
vn -2.89636e-24 -1 -6.12323e-17
vn -1.14652e-24 -1 -6.12323e-17
vn -7.24091e-25 -1 -6.12323e-17
vn 5.84487e-25 -1 -6.12323e-17
vn -5.87859e-25 -1 -6.12323e-17
vn 7.05431e-24 -1 -6.12323e-17
vn 0 1 -0
vn -0.100017 -2.93199e-05 -0.994986
vn -0.100017 -2.93178e-05 -0.994986
vn -0.100017 -2.93729e-05 -0.994986
vn -0.100017 -2.93256e-05 -0.994986
vn 0 -1 0
vn 0.100017 2.93343e-05 0.994986
vn -0.994986 2.44059e-05 0.100018
vn -0.994986 2.44082e-05 0.100018
vn 0.994986 -2.4441e-05 -0.100018
vn 0.994986 -2.44481e-05 -0.100018
vn 0.100017 2.9333e-05 0.994986
vn 0.100017 2.93068e-05 0.994986
vn -0.994986 2.44024e-05 0.100018
vn -0.994986 2.43932e-05 0.100018
vn 0.994986 -2.44539e-05 -0.100018
vn 0.994986 -2.44422e-05 -0.100018
vn 0.100017 2.92448e-05 0.994986
vn 0.100017 2.94232e-05 0.994986

# Mesh 'defaultobject' with 34 faces
g defaultobject
usemtl DefaultMaterial
f  1//1 2//1 3//1
f  2//1 1//1 4//2
f  2//1 4//2 5//1
f  2//1 5//1 6//3
f  6//3 5//1 7//4
f  7//4 5//1 8//5
f  7//4 9//6 6//3
f  9//6 7//4 10//7
f  11//8 12//8 13//8
f  12//8 11//8 14//8
f  12//8 15//8 16//8
f  15//8 12//8 14//8
f  15//8 14//8 17//8
f  17//8 14//8 18//8
f  17//8 18//8 19//8
f  4//9 11//9 5//9
f  11//9 4//9 1//10
f  11//9 1//10 3//11
f  11//9 3//11 18//12
f  11//13 18//13 14//13
f  6//14 19//14 2//14
f  19//14 6//14 17//14
f  3//15 19//15 18//15
f  19//15 3//15 2//16
f  5//17 13//17 8//17
f  13//17 5//17 11//18
f  8//19 12//19 7//19
f  12//19 8//19 13//20
f  6//21 15//21 17//21
f  15//21 6//21 9//22
f  7//23 16//23 10//23
f  16//23 7//23 12//24
f  10//25 15//25 9//25
f  15//25 10//25 16//26

