# {"id":"BLDG_0003000b00498612","idOriginal":"BLDG_0003000b00498612","origin":[13.339311304597866,52.52686416158078],"elevation":33.6699981689453}
# Longitude: 13.339311304597866
# Latitude: 52.52686416158078
# Elevation: 33.6699981689453

# File produced by Open Asset Import Library (http://www.assimp.sf.net)
# (assimp v3.1.0)

mtllib BLDG_0003000b00498612.obj.mtl

# 18 vertex positions
v  0.935826 8.56114e-16 -13.9814
v  9.0111 -3.57231e-17 0.583402
v  0 0 0
v  11.3472 -4.49846e-17 0.734654
v  11.5651 1.64148e-16 -2.68075
v  12.1379 1.60342e-16 -2.61858
v  11.8095 3.84051e-16 -6.27202
v  12.323 8.10933e-16 -13.2435
v  12.3434 3.80663e-16 -6.2167
v  12.3439 22.2034 -6.2174
v  11.81 22.2034 -6.27272
v  12.1384 22.2034 -2.61929
v  9.01157 22.2034 0.5827
v  0.936298 22.2034 -13.9821
v  0.000472507 22.2034 -0.00070246
v  12.3234 22.2034 -13.2442
v  11.5656 22.2034 -2.68145
v  11.3477 22.2034 0.733951

# 0 UV coordinates

# 23 vertex normals
vn 6.69413e-24 -1 -6.12323e-17
vn -1.21036e-24 -1 -6.12323e-17
vn 5.46258e-24 -1 -6.12323e-17
vn -2.27701e-23 -1 -6.12323e-17
vn 5.69328e-24 -1 -6.12323e-17
vn 0 -1 -6.12323e-17
vn -5.30808e-23 -1 -6.12323e-17
vn 0 1 0
vn -0.0646074 3.29441e-05 0.997911
vn -0.0646092 3.2944e-05 0.997911
vn -0.0646091 3.29468e-05 0.997911
vn 0.997972 -1.92045e-05 0.0636593
vn -0.10789 3.37432e-05 0.994163
vn -0.10789 3.37478e-05 0.994163
vn 0.998373 -1.94663e-05 0.0570128
vn 0.998373 -1.94231e-05 0.0570125
vn 0.103067 -3.36568e-05 -0.994674
vn 0.997299 -1.88802e-05 0.0734542
vn 0.997299 -1.88817e-05 0.0734542
vn 0.0646615 -3.29652e-05 -0.997907
vn 0.0646616 -3.29211e-05 -0.997907
vn -0.997767 1.91205e-05 -0.0667842
vn -0.997767 1.91183e-05 -0.0667842

# Mesh 'defaultobject' with 32 faces
g defaultobject
usemtl DefaultMaterial
f  1//1 2//1 3//1
f  2//1 1//1 4//2
f  4//2 1//1 5//3
f  5//3 1//1 6//4
f  6//4 1//1 7//5
f  7//5 1//1 8//6
f  9//7 6//4 7//5
f  10//8 11//8 12//8
f  13//8 14//8 15//8
f  14//8 13//8 16//8
f  16//8 13//8 11//8
f  11//8 13//8 17//8
f  17//8 13//8 18//8
f  11//8 17//8 12//8
f  2//9 15//9 3//9
f  15//9 2//9 13//9
f  4//10 13//9 2//9
f  13//9 4//10 18//11
f  5//12 18//12 4//12
f  18//12 5//12 17//12
f  6//13 17//13 5//13
f  17//13 6//13 12//14
f  9//15 12//15 6//15
f  12//15 9//15 10//16
f  11//17 9//17 7//17
f  9//17 11//17 10//17
f  8//18 11//18 7//18
f  11//18 8//18 16//19
f  14//20 8//20 1//20
f  8//20 14//20 16//21
f  15//22 1//22 3//22
f  1//22 15//22 14//23

