# {"id":"BLDG_0003000f0024720b","idOriginal":"BLDG_0003000f0024720b","origin":[13.364500316233954,52.529049482488105],"elevation":33.9000015258789}
# Longitude: 13.364500316233954
# Latitude: 52.529049482488105
# Elevation: 33.9000015258789

# File produced by Open Asset Import Library (http://www.assimp.sf.net)
# (assimp v3.1.0)

mtllib BLDG_0003000f0024720b.obj.mtl

# 23 vertex positions
v  4.51652 16.4166 11.5354
v  2.25808 -3.53186e-16 5.76797
v  4.51617 -7.06373e-16 11.5359
v  0 0 0
v  0.000349923 16.4166 -0.00051944
v  2.2585 19.6732 5.76735
v  29.6421 7.07741e-16 -11.5583
v  19.9634 16.4166 -7.78469
v  29.6424 16.4166 -11.5588
v  19.9631 4.76643e-16 -7.78417
v  34.7467 16.4166 1.4795
v  29.9069 -2.06174e-16 3.36708
v  34.7464 -9.06252e-17 1.48002
v  25.0674 -3.21723e-16 5.25414
v  25.0677 16.4166 5.25362
v  29.9073 19.6732 3.36646
v  34.1582 1.36841e-18 -0.0223478
v  34.1586 16.4166 -0.0228672
v  24.4792 -2.2973e-16 3.75177
v  24.4796 16.4166 3.75125
v  22.2216 19.6732 -2.01683
v  27.0611 19.6732 -3.90388
v  29.3192 19.6732 1.86409

# 0 UV coordinates

# 39 vertex normals
vn -0.931185 3.13943e-05 0.364546
vn -0.931185 3.1399e-05 0.364546
vn -0.931185 3.13831e-05 0.364546
vn -0.931185 3.14388e-05 0.364546
vn -0.363288 -2.1773e-05 -0.931677
vn -0.363288 -2.17544e-05 -0.931677
vn -0.363288 -2.1562e-05 -0.931677
vn -0.363288 -2.17358e-05 -0.931677
vn 0.363288 2.17173e-05 0.931677
vn 0.363288 2.16962e-05 0.931677
vn 0.363288 2.1773e-05 0.931677
vn 0.363288 2.16485e-05 0.931677
vn 0.931185 -3.13402e-05 -0.364546
vn 0.931185 -3.13074e-05 -0.364546
vn 0.931185 -3.14576e-05 -0.364547
vn 0.931185 -3.14431e-05 -0.364546
vn 0.363288 2.17327e-05 0.931677
vn 0.363288 2.17327e-05 0.931677
vn -0.931185 3.13402e-05 0.364546
vn -0.931185 3.1335e-05 0.364546
vn -1.57923e-24 -1 -6.12323e-17
vn 0 -1 -6.12323e-17
vn -1.59548e-24 -1 -6.12323e-17
vn 4.19731e-27 -1 -6.12323e-17
vn 0 -1 -6.12323e-17
vn -7.9774e-25 -1 -6.12323e-17
vn -0.16906 0.885121 -0.433566
vn -0.16906 0.885121 -0.433565
vn -0.16906 0.885121 -0.433565
vn -0.16906 0.885121 -0.433565
vn 0.169057 0.885126 0.433558
vn 0.169057 0.885126 0.433558
vn -0.494627 0.847259 0.19364
vn -0.494627 0.847259 0.19364
vn -0.494627 0.847259 0.19364
vn 0.494641 0.84725 -0.193645
vn 0.494641 0.84725 -0.193645
vn 0.494641 0.84725 -0.193645
vn 0.494641 0.84725 -0.193645

# Mesh 'defaultobject' with 42 faces
g defaultobject
usemtl DefaultMaterial
f  1//1 2//1 3//1
f  2//1 1//1 4//2
f  4//2 1//1 5//3
f  5//3 1//1 6//4
f  7//5 8//5 9//5
f  8//5 7//5 5//6
f  5//6 7//5 10//7
f  5//6 10//7 4//8
f  11//9 12//9 13//9
f  12//9 11//9 14//10
f  14//10 11//9 15//11
f  15//11 11//9 16//12
f  9//13 17//13 7//13
f  17//13 9//13 13//14
f  13//14 9//13 18//15
f  13//14 18//15 11//16
f  19//17 1//17 3//17
f  1//17 19//17 20//18
f  15//19 19//19 14//19
f  19//19 15//19 20//20
f  14//21 19//21 12//21
f  17//22 10//22 7//22
f  10//22 17//22 4//23
f  4//23 17//22 2//24
f  2//24 17//22 13//25
f  2//24 13//25 19//21
f  19//21 13//25 12//21
f  2//24 19//21 3//26
f  9//27 21//27 22//27
f  21//27 9//27 8//28
f  21//27 8//28 6//29
f  6//29 8//28 5//30
f  21//31 20//31 22//31
f  20//31 21//31 1//32
f  1//32 21//31 6//31
f  20//33 23//33 22//33
f  23//33 20//33 16//34
f  16//34 20//33 15//35
f  22//36 18//36 9//36
f  18//36 22//36 23//37
f  18//36 23//37 11//38
f  11//38 23//37 16//39

