# {"id":"BLDG_0003000f0003d244","idOriginal":"BLDG_0003000f0003d244","origin":[13.359440278738848,52.52560725762651],"elevation":35.4500007629395}
# Longitude: 13.359440278738848
# Latitude: 52.52560725762651
# Elevation: 35.4500007629395

# File produced by Open Asset Import Library (http://www.assimp.sf.net)
# (assimp v3.1.0)

mtllib BLDG_0003000f0003d244.obj.mtl

# 70 vertex positions
v  9.07556 17.9409 15.8502
v  8.10995 17.9409 16.1126
v  8.25513 17.9409 16.2447
v  7.95166 17.9409 15.996
v  7.78267 17.9409 15.8964
v  12.3665 17.9409 22.2563
v  8.99969 17.9409 18.7154
v  11.0139 17.9409 22.9056
v  22.7259 17.9409 17.2817
v  9.04664 17.9409 18.5252
v  9.07414 17.9409 18.3311
v  9.08214 17.9409 18.1347
v  9.06939 17.9409 17.9392
v  9.88982 17.9409 17.5446
v  23.4022 17.9409 16.9564
v  21.3315 17.9409 12.6559
v  7.60419 17.9409 15.8143
v  3.27219 17.9409 6.80249
v  20.6797 17.9409 11.3051
v  16.3733 17.9409 2.36278
v  0.217019 17.9409 0.449687
v  16.873 17.9409 0.955773
v  19.3507 17.9409 -0.221969
v  21.2362 17.9409 -5.62391
v  0.000382287 17.9409 -0.00056754
v  0.938458 17.9409 -0.451434
v  1.98248 17.9409 -0.953381
v  3.30152 17.9409 -4.61941
v  3.58833 17.9409 -5.41955
v  19.4739 17.9409 -6.24699
v  4.66638 17.9409 -8.41577
v  15.7451 17.9409 -9.65874
v  17.4397 17.9409 -10.4797
v  7.40041 17.9409 -9.72352
v  10.8748 17.9409 -11.3858
v  22.7255 -1.05823e-15 17.2823
v  21.3311 -7.74986e-16 12.6565
v  23.4018 -1.03832e-15 16.957
v  12.3661 -1.36284e-15 22.2569
v  20.6794 -6.92273e-16 11.3057
v  16.3729 -1.44713e-16 2.36335
v  17.4393 6.41662e-16 -10.4791
v  15.7447 5.91392e-16 -9.65817
v  10.8744 6.97144e-16 -11.3852
v  11.0135 -1.4026e-15 22.9061
v  9.88944 -1.07433e-15 17.5452
v  9.07518 -9.7058e-16 15.8508
v  8.25475 -9.94737e-16 16.2453
v  7.40003 5.95359e-16 -9.72295
v  8.10957 -9.86645e-16 16.1131
v  7.95127 -9.7951e-16 15.9966
v  7.78228 -9.73408e-16 15.897
v  7.60381 -9.6838e-16 15.8148
v  3.27181 -4.16567e-16 6.80306
v  4.666 5.15283e-16 -8.41521
v  3.58795 3.31817e-16 -5.41898
v  3.30114 2.82822e-16 -4.61884
v  1.98209 5.8343e-17 -0.952814
v  0.216637 -2.75701e-17 0.450254
v  0.938076 2.76076e-17 -0.450866
v  0 0 0
v  19.3503 1.35569e-17 -0.221401
v  19.4735 3.82483e-16 -6.24642
v  21.2358 3.4433e-16 -5.62334
v  16.8727 -5.8559e-17 0.956341
v  8.99931 -1.14602e-15 18.7159
v  9.04626 -1.13438e-15 18.5258
v  9.07376 -1.12249e-15 18.3316
v  9.08176 -1.11046e-15 18.1353
v  9.06901 -1.09849e-15 17.9397

# 0 UV coordinates

# 94 vertex normals
vn 0 1 0
vn -5.54231e-23 -1 -6.12323e-17
vn 1.93009e-23 -1 -6.12323e-17
vn 3.45881e-23 -1 -6.12323e-17
vn -3.48571e-24 -1 -6.12323e-17
vn 5.60172e-23 -1 -6.12323e-17
vn 4.12714e-24 -1 -6.12323e-17
vn -5.25219e-24 -1 -6.12323e-17
vn 0 -1 -6.12323e-17
vn 0 -1 -6.12323e-17
vn -1.34312e-22 -1 -6.12323e-17
vn 1.566e-22 -1 -6.12323e-17
vn -1.61746e-23 -1 -6.12323e-17
vn 1.85289e-21 -1 -6.12324e-17
vn -8.45557e-22 -1 -6.12323e-17
vn 0 -1 -6.12323e-17
vn 7.46091e-22 -1 -6.12323e-17
vn 2.39522e-23 -1 -6.12323e-17
vn 0 -1 -6.12323e-17
vn 4.88305e-23 -1 -6.12323e-17
vn -1.41564e-23 -1 -6.12323e-17
vn 1.14358e-23 -1 -6.12323e-17
vn 2.17395e-23 -1 -6.12323e-17
vn 9.26505e-22 -1 -6.12317e-17
vn -9.19415e-22 -1 -6.12332e-17
vn 3.1995e-22 -1 -6.12318e-17
vn 0.432881 1.93534e-05 0.901451
vn 0.432881 1.92608e-05 0.901451
vn 0.433397 1.92412e-05 0.901203
vn 0.433398 1.92898e-05 0.901202
vn 0.900994 -3.2998e-05 -0.433833
vn 0.900993 -3.28866e-05 -0.433833
vn 0.900648 -3.28949e-05 -0.43455
vn 0.900648 -3.29901e-05 -0.434549
vn 0.900966 -3.2991e-05 -0.433889
vn 0.900966 -3.29053e-05 -0.433889
vn 0.942323 -9.44534e-06 0.334704
vn 0.942323 -9.54769e-06 0.334705
vn 0.429309 1.94008e-05 0.903158
vn 0.429309 1.94444e-05 0.903158
vn 0.944141 -9.65294e-06 0.329541
vn 0.944141 -9.64365e-06 0.329541
vn 0.33334 -3.69069e-05 -0.942807
vn 0.33334 -3.6932e-05 -0.942807
vn 0.901317 -3.28596e-05 -0.43316
vn 0.901317 -3.29502e-05 -0.43316
vn -0.435996 -1.91933e-05 -0.899949
vn -0.435995 -1.9147e-05 -0.899949
vn 0.334215 -3.69335e-05 -0.942497
vn 0.334215 -3.69157e-05 -0.942497
vn -0.431588 -1.93792e-05 -0.902071
vn -0.431588 -1.93312e-05 -0.902071
vn -0.431498 -1.93345e-05 -0.902114
vn -0.431499 -1.93824e-05 -0.902114
vn -0.940947 9.33665e-06 -0.338555
vn -0.940947 9.34915e-06 -0.338555
vn -0.941352 9.38098e-06 -0.337426
vn -0.940946 9.34175e-06 -0.338555
vn -0.940946 9.33662e-06 -0.338555
vn -0.433305 -1.92759e-05 -0.901247
vn -0.433305 -1.92744e-05 -0.901247
vn -0.433192 -1.92812e-05 -0.901302
vn -0.433192 -1.92801e-05 -0.901302
vn -0.901121 3.29172e-05 0.433569
vn -0.901121 3.29167e-05 0.433569
vn -0.901201 3.29175e-05 0.433402
vn -0.901201 3.29136e-05 0.433402
vn -0.901275 3.28902e-05 0.433247
vn -0.901275 3.29142e-05 0.433247
vn -0.418011 3.76315e-05 0.908442
vn -0.673131 3.7663e-05 0.739523
vn -0.673133 3.76987e-05 0.739521
vn 0.433362 1.92416e-05 0.90122
vn 0.433362 1.92671e-05 0.90122
vn -0.901331 3.29347e-05 0.433132
vn -0.901331 3.29117e-05 0.433132
vn -0.433361 -1.92186e-05 -0.901221
vn -0.433363 -1.93144e-05 -0.90122
vn -0.997879 2.33331e-05 0.0651025
vn -0.997879 2.33262e-05 0.0651032
vn -0.99917 1.99542e-05 -0.0407424
vn -0.99917 2.00071e-05 -0.0407473
vn -0.990121 1.66252e-05 -0.140216
vn -0.990121 1.66104e-05 -0.140215
vn -0.97084 1.31247e-05 -0.23973
vn -0.970841 1.30733e-05 -0.239725
vn -0.901277 3.29371e-05 0.433244
vn -0.901277 3.28911e-05 0.433244
vn 0.432743 1.93379e-05 0.901517
vn 0.432743 1.93601e-05 0.901517
vn -0.507916 3.8058e-05 0.861407
vn -0.507914 3.80717e-05 0.861408
vn -0.592839 3.80648e-05 0.805321
vn -0.592842 3.81076e-05 0.805319

# Mesh 'defaultobject' with 136 faces
g defaultobject
usemtl DefaultMaterial
f  1//1 2//1 3//1
f  2//1 1//1 4//1
f  4//1 1//1 5//1
f  6//1 7//1 8//1
f  7//1 6//1 9//1
f  7//1 9//1 10//1
f  10//1 9//1 11//1
f  11//1 9//1 12//1
f  12//1 9//1 13//1
f  13//1 9//1 14//1
f  14//1 9//1 15//1
f  14//1 15//1 16//1
f  14//1 16//1 1//1
f  1//1 16//1 5//1
f  5//1 16//1 17//1
f  17//1 16//1 18//1
f  18//1 16//1 19//1
f  18//1 19//1 20//1
f  18//1 20//1 21//1
f  21//1 20//1 22//1
f  21//1 22//1 23//1
f  21//1 23//1 24//1
f  21//1 24//1 25//1
f  25//1 24//1 26//1
f  26//1 24//1 27//1
f  27//1 24//1 28//1
f  28//1 24//1 29//1
f  29//1 24//1 30//1
f  29//1 30//1 31//1
f  31//1 30//1 32//1
f  32//1 30//1 33//1
f  32//1 34//1 31//1
f  34//1 32//1 35//1
f  36//2 37//2 38//2
f  37//2 36//2 39//3
f  37//2 39//3 40//4
f  40//4 39//3 41//5
f  41//5 39//3 42//6
f  42//6 39//3 43//7
f  43//7 39//3 44//8
f  44//8 39//3 45//9
f  44//8 45//9 46//10
f  44//8 46//10 47//11
f  44//8 47//11 48//12
f  44//8 48//12 49//13
f  49//13 48//12 50//14
f  49//13 50//14 51//15
f  49//13 51//15 52//16
f  49//13 52//16 53//17
f  49//13 53//17 54//9
f  49//13 54//9 55//18
f  55//18 54//9 56//19
f  56//19 54//9 57//20
f  57//20 54//9 58//21
f  58//21 54//9 59//10
f  58//21 59//10 60//22
f  60//22 59//10 61//10
f  62//19 63//19 64//19
f  63//19 62//19 65//10
f  63//19 65//10 42//6
f  42//6 65//10 41//5
f  66//23 46//10 45//9
f  46//10 66//23 67//24
f  46//10 67//24 68//25
f  46//10 69//26 70//26
f  69//26 46//10 68//25
f  36//27 6//27 39//27
f  6//27 36//27 9//28
f  38//29 9//29 36//29
f  9//29 38//29 15//30
f  37//31 15//31 38//31
f  15//31 37//31 16//32
f  40//33 16//33 37//33
f  16//33 40//33 19//34
f  41//35 19//35 40//35
f  19//35 41//35 20//36
f  65//37 20//37 41//37
f  20//37 65//37 22//38
f  62//39 22//39 65//39
f  22//39 62//39 23//40
f  64//41 23//41 62//41
f  23//41 64//41 24//42
f  30//43 64//43 63//43
f  64//43 30//43 24//44
f  42//45 30//45 63//45
f  30//45 42//45 33//46
f  32//47 42//47 43//47
f  42//47 32//47 33//48
f  35//49 43//49 44//49
f  43//49 35//49 32//50
f  34//51 44//51 49//51
f  44//51 34//51 35//52
f  31//53 49//53 55//53
f  49//53 31//53 34//54
f  29//55 55//55 56//55
f  55//55 29//55 31//56
f  28//57 56//57 57//57
f  56//57 28//57 29//57
f  27//58 57//58 58//58
f  57//58 27//58 28//59
f  26//60 58//60 60//60
f  58//60 26//60 27//61
f  25//62 60//62 61//62
f  60//62 25//62 26//63
f  21//64 61//64 59//64
f  61//64 21//64 25//65
f  18//66 59//66 54//66
f  59//66 18//66 21//67
f  17//68 54//68 53//68
f  54//68 17//68 18//69
f  52//70 17//70 53//70
f  17//70 52//70 5//70
f  3//71 50//71 48//71
f  50//71 3//71 2//72
f  47//73 3//73 48//73
f  3//73 47//73 1//74
f  14//75 47//75 46//75
f  47//75 14//75 1//76
f  13//77 46//77 70//77
f  46//77 13//77 14//78
f  12//79 70//79 69//79
f  70//79 12//79 13//80
f  11//81 69//81 68//81
f  69//81 11//81 12//82
f  10//83 68//83 67//83
f  68//83 10//83 11//84
f  7//85 67//85 66//85
f  67//85 7//85 10//86
f  8//87 66//87 45//87
f  66//87 8//87 7//88
f  39//89 8//89 45//89
f  8//89 39//89 6//90
f  51//91 5//91 52//91
f  5//91 51//91 4//92
f  2//93 51//93 50//93
f  51//93 2//93 4//94

