# {"id":"BLDG_0003000f000e85a1","idOriginal":"BLDG_0003000f000e85a1","origin":[13.341079547630434,52.50924205226339],"elevation":33.1500015258789}
# Longitude: 13.341079547630434
# Latitude: 52.50924205226339
# Elevation: 33.1500015258789

# File produced by Open Asset Import Library (http://www.assimp.sf.net)
# (assimp v3.1.0)

mtllib BLDG_0003000f000e85a1.obj.mtl

# 8 vertex positions
v  0 0 0
v  7.72591 1.80266e-16 -2.94396
v  5.23935 -1.48586e-16 2.42659
v  2.48656 3.28852e-16 -5.37056
v  7.72596 2.41307 -2.94404
v  5.1355e-05 2.41307 -7.62595e-05
v  5.2394 2.41307 2.42652
v  2.48661 2.41307 -5.37063

# 0 UV coordinates

# 10 vertex normals
vn 0 -1 -6.12323e-17
vn 0 1 0
vn -0.420261 3.77142e-05 0.907403
vn -0.420262 3.75773e-05 0.907403
vn -0.907455 6.0346e-06 -0.42015
vn -0.907455 5.99287e-06 -0.42015
vn 0.420262 -3.76168e-05 -0.907403
vn 0.420262 -3.76584e-05 -0.907403
vn 0.907455 -5.94328e-06 0.42015
vn 0.907455 -6.07684e-06 0.42015

# Mesh 'defaultobject' with 12 faces
g defaultobject
usemtl DefaultMaterial
f  1//1 2//1 3//1
f  2//1 1//1 4//1
f  5//2 6//2 7//2
f  6//2 5//2 8//2
f  3//3 6//3 1//3
f  6//3 3//3 7//4
f  6//5 4//5 1//5
f  4//5 6//5 8//6
f  8//7 2//7 4//7
f  2//7 8//7 5//8
f  2//9 7//9 3//9
f  7//9 2//9 5//10

