# {"id":"BLDG_000300090068f82e","idOriginal":"BLDG_000300090068f82e","origin":[13.396735977606786,52.54163853855237],"elevation":45.8400001525879}
# Longitude: 13.396735977606786
# Latitude: 52.54163853855237
# Elevation: 45.8400001525879

# File produced by Open Asset Import Library (http://www.assimp.sf.net)
# (assimp v3.1.0)

mtllib BLDG_000300090068f82e.obj.mtl

# 94 vertex positions
v  26.8788 18.66 -15.96
v  25.1586 22 -20.0424
v  25.1557 18.66 -20.0491
v  27.7791 22 -13.8238
v  27.779 18.66 -13.8237
v  37.322 1.89894e-15 -31.012
v  38.344 13.06 -28.5872
v  37.3223 13.06 -31.0124
v  38.3437 1.75044e-15 -28.5868
v  41.4563 2.00559e-15 -32.7538
v  41.4566 13.06 -32.7542
v  10.4743 1.53439e-16 -2.50585
v  11.4859 4.96 -0.105184
v  11.4858 6.43106e-18 -0.105027
v  10.4744 4.96 -2.50601
v  9.87222 4.96 0.574656
v  9.87212 -3.51972e-17 0.574813
v  4.91916 22 -0.164856
v  10.4747 18.66 -2.50645
v  10.4745 22 -2.50579
v  4.91909 18.66 -0.164751
v  8.86134 18.66 -1.82595
v  29.2201 18.66 -10.4038
v  30.5486 4.96 -10.9631
v  30.548 18.66 -10.9632
v  8.86105 4.96 -1.82551
v  30.5484 6.71287e-16 -10.963
v  29.2197 6.3701e-16 -10.4032
v  4.23599 4.96 -1.7847
v  2.57516 3.50151e-16 -5.7184
v  4.233 1.09197e-16 -1.78333
v  4.23628 18.66 -1.78513
v  2.57822 22 -5.72019
v  2.57527 4.96 -5.71856
v  2.57815 18.66 -5.72008
v  1.21878 5.47291e-16 -8.93794
v  1.21889 4.96 -8.93809
v  25.4177 18.66 -23.1404
v  32.0792 1.58883e-15 -25.9476
v  25.4173 1.4169e-15 -23.1398
v  37.6055 1.73139e-15 -28.2758
v  32.0795 13.06 -25.948
v  30.7501 18.66 -25.3869
v  32.0801 18.66 -25.9472
v  37.6058 13.06 -28.2762
v  31.8195 22 -22.8492
v  26.4871 18.66 -20.6021
v  31.8194 18.66 -22.8491
v  6.41073 4.96 -12.1516
v  6.41102 18.66 -12.1521
v  26.4839 1.26189e-15 -20.6082
v  6.41062 7.44064e-16 -12.1515
v  25.1553 1.22762e-15 -20.0485
v  41.7301 1.13205e-15 -18.4878
v  41.296 18.66 -19.5195
v  41.7305 18.66 -18.4884
v  41.2938 13.06 -19.524
v  39.7894 18.66 -23.0948
v  41.2936 1.19548e-15 -19.5236
v  39.7893 13.06 -23.0946
v  8.1344 18.66 -8.0614
v  8.13357 22 -8.06112
v  8.13428 13.06 -8.06122
v  8.13411 4.96 -8.06096
v  13.1593 4.96 8.37692
v  13.1592 -5.12948e-16 8.37708
v  13.1596 18.66 8.37649
v  6.77791 4.96 -11.2801
v  6.77781 6.90696e-16 -11.2799
v  9.2138 -6.14726e-16 10.0392
v  4.98118 18.66 11.822
v  4.98078 -7.23923e-16 11.8226
v  9.21799 18.66 10.037
v  37.2099 8.43131e-16 -13.7694
v  38.4295 18.66 -10.8761
v  38.4291 6.65935e-16 -10.8755
v  37.2103 18.66 -13.77
v  36.2032 9.89444e-16 -16.1588
v  36.2036 18.66 -16.1594
v  0 0 0
v  0.000398573 18.66 -0.0005909
v  34.2627 13.06 -20.7658
v  33.1466 18.66 -23.4156
v  34.2629 18.66 -20.766
v  31.7671 18.66 -8.06934
v  31.7667 4.94068e-16 -8.06875
v  46.1657 13.06 -21.5767
v  42.0312 1.2145e-15 -19.8344
v  46.1654 1.32117e-15 -21.5763
v  42.0314 13.06 -19.8348
v  34.44 22 -16.6306
v  34.4399 18.66 -16.6304
v  29.1071 18.66 -14.3833
v  42.478 1.85709e-15 -30.3286

# 0 UV coordinates

# 134 vertex normals
vn -0.921525 3.21417e-05 0.388318
vn -0.921525 3.17764e-05 0.388318
vn -0.921525 3.17785e-05 0.388318
vn -0.921552 3.19543e-05 0.388254
vn -0.388251 -2.07926e-05 -0.921554
vn -0.388251 -2.09272e-05 -0.921553
vn 0.921544 -3.19567e-05 -0.388273
vn 0.388246 2.08765e-05 0.921556
vn 0.388246 2.08902e-05 0.921556
vn 0.388316 -0.00016208 0.921526
vn 0.388409 2.08858e-05 0.921487
vn 0 1 0
vn 0.388245 2.08916e-05 0.921556
vn 0.388245 2.09234e-05 0.921556
vn 0.388638 0.000699062 0.92139
vn 0.388245 -3.3593e-05 0.921556
vn 0.388638 2.08667e-05 0.921391
vn 0.388245 2.09018e-05 0.921556
vn 0.388245 2.06696e-05 0.921556
vn 0.388245 2.0871e-05 0.921556
vn -0.921555 0.000664535 0.388248
vn -0.921269 3.19769e-05 0.388925
vn -0.921525 3.1898e-05 0.388318
vn -0.921525 3.19827e-05 0.388318
vn -0.921487 0.000159861 0.38841
vn 0.38864 2.08294e-05 0.92139
vn -0.388204 -2.09227e-05 -0.921573
vn -0.921555 3.19923e-05 0.388248
vn -0.921555 3.19328e-05 0.388248
vn -0.388385 -2.08081e-05 -0.921497
vn -0.388249 3.63749e-05 -0.921555
vn -0.388247 3.74678e-05 -0.921555
vn -0.388476 -0.000149679 -0.921459
vn -0.388246 0.000172993 -0.921556
vn -0.388246 0.000173151 -0.921556
vn -0.388247 -2.09273e-05 -0.921555
vn -0.388249 -2.10376e-05 -0.921555
vn -0.388315 0.00217376 -0.921524
vn -0.38361 -0.00882992 -0.923453
vn -0.388316 -2.07249e-05 -0.921526
vn -0.388245 -2.09174e-05 -0.921556
vn -0.383614 -0.00745639 -0.923463
vn -0.388164 0.000365955 -0.92159
vn -0.388245 -2.07732e-05 -0.921556
vn -1 0 0
vn 0.921525 -3.20458e-05 -0.388318
vn 0.921524 -3.22894e-05 -0.388322
vn 0.921525 -3.22933e-05 -0.388318
vn 0.921526 -3.18991e-05 -0.388318
vn 0.921526 -3.17601e-05 -0.388317
vn -0.388316 -2.10565e-05 -0.921526
vn -0.388316 -2.09294e-05 -0.921526
vn -0.388316 -2.09188e-05 -0.921526
vn -0.388316 -2.08938e-05 -0.921526
vn -0.388316 -2.08649e-05 -0.921526
vn 0.921556 -3.20213e-05 -0.388246
vn 0.921556 -3.19912e-05 -0.388246
vn 0.921556 -3.19758e-05 -0.388246
vn 0.921556 -3.20425e-05 -0.388246
vn 0.921556 -3.19878e-05 -0.388246
vn -0.921555 3.20436e-05 0.388247
vn -0.921555 3.19476e-05 0.388247
vn -0.921555 3.19912e-05 0.388247
vn -0.921555 3.19199e-05 0.388247
vn -0.921555 3.19106e-05 0.388247
vn 0.388244 2.09068e-05 0.921556
vn 0.388244 2.08791e-05 0.921557
vn 0.388244 2.08857e-05 0.921557
vn 0.388244 2.09119e-05 0.921557
vn 0 -1 0
vn 0.921555 -3.20833e-05 -0.388249
vn 0.921555 -3.20839e-05 -0.388247
vn 0.921555 -3.20451e-05 -0.388248
vn 0.388316 2.0767e-05 0.921526
vn -0.921556 3.19787e-05 0.388246
vn -0.921556 3.19896e-05 0.388246
vn 0.921555 -3.54263e-05 -0.388248
vn 0.921555 -3.49481e-05 -0.388247
vn 0.921556 -3.20163e-05 -0.388245
vn -0.921555 3.195e-05 0.388248
vn -0.921555 3.20385e-05 0.388248
vn 0.388246 2.08548e-05 0.921556
vn 0.388246 2.08689e-05 0.921556
vn -0.921555 -3.75777e-05 0.388248
vn -0.921673 3.19635e-05 0.387968
vn -0.921673 3.21458e-05 0.387969
vn 0.388275 2.07917e-05 0.921544
vn 0.388246 3.14079e-05 0.921556
vn 0.388275 1.90563e-05 0.921544
vn 0.388248 2.07927e-05 0.921555
vn -0.388316 -2.09898e-05 -0.921526
vn -0.388316 -2.09227e-05 -0.921526
vn 0.921525 0.000121915 -0.388318
vn 0.921555 0.000261005 -0.388247
vn 0.921526 -3.24111e-05 -0.388318
vn 0.921525 -3.16494e-05 -0.388318
vn 0.388316 2.10012e-05 0.921526
vn 0.388316 2.10748e-05 0.921526
vn 0.388316 2.10433e-05 0.921526
vn 0.921553 -3.18976e-05 -0.388253
vn -5.55112e-17 -1 -3.747e-17
vn -0.388246 -2.07638e-05 -0.921556
vn -0.388246 -2.07731e-05 -0.921556
vn -0.388244 -2.0846e-05 -0.921557
vn -0.388244 -2.08926e-05 -0.921557
vn -0.388244 -2.09051e-05 -0.921557
vn 1.51337e-23 -1 -6.12322e-17
vn -7.7832e-24 -1 -6.12323e-17
vn -1.05736e-17 1 6.87281e-17
vn 1.30473e-22 -1 -6.12324e-17
vn -1.85904e-23 -1 -6.12323e-17
vn 1.95002e-22 -1 -6.12326e-17
vn 0 -1 -6.12323e-17
vn -1.32961e-23 -1 -6.12323e-17
vn 1.24092e-23 -1 -6.12324e-17
vn -4.51871e-23 -1 -6.12323e-17
vn 1.86558e-23 -1 -6.12323e-17
vn -8.86829e-24 -1 -6.12323e-17
vn -4.37245e-24 -1 -6.12324e-17
vn 0 -1 -6.12232e-17
vn 1.0525e-23 -1 -6.12323e-17
vn 1.24333e-24 -1 -6.12323e-17
vn 3.50794e-24 -1 -6.12324e-17
vn 4.97311e-25 -1 -6.12323e-17
vn 5.55112e-17 1 2.77556e-17
vn 1.84355e-24 -1 -6.12323e-17
vn 1.34753e-23 -1 -6.12324e-17
vn 0 -1 -6.12323e-17
vn 0 -1 -6.12324e-17
vn -2.8316e-23 -1 -6.12323e-17
vn 0 -1 -6.12323e-17
vn 1.54221e-23 -1 -6.12323e-17
vn -1.79678e-24 -1 -6.12323e-17
vn -1.43741e-23 -1 -6.12323e-17

# Mesh 'defaultobject' with 184 faces
g defaultobject
usemtl DefaultMaterial
f  1//1 2//1 3//1
f  2//1 1//1 4//2
f  4//2 1//1 5//3
f  6//4 7//4 8//4
f  7//4 6//4 9//4
f  10//5 8//5 11//5
f  8//5 10//5 6//6
f  12//7 13//7 14//7
f  13//7 12//7 15//7
f  14//8 16//8 17//8
f  16//8 14//8 13//9
f  18//10 19//10 20//10
f  19//11 18//11 21//11
f  19//12 21//12 22//12
f  23//13 24//13 25//13
f  24//13 23//13 19//14
f  24//15 19//15 22//15
f  24//16 22//16 15//16
f  15//17 22//17 26//17
f  15//18 27//18 24//13
f  27//18 15//18 28//19
f  28//19 15//18 12//20
f  29//21 30//21 31//21
f  30//22 29//22 32//22
f  18//23 32//23 21//23
f  32//23 18//23 33//24
f  32//25 33//25 30//25
f  30//26 33//26 34//26
f  34//27 33//27 35//27
f  34//28 36//28 30//28
f  36//28 34//28 37//29
f  38//30 39//30 40//30
f  39//31 38//31 41//31
f  41//31 38//31 9//32
f  9//33 38//33 42//33
f  42//34 38//34 43//34
f  42//34 43//34 44//35
f  9//36 45//36 7//36
f  45//36 9//36 42//37
f  46//38 3//38 2//38
f  3//39 46//39 47//39
f  47//40 46//40 48//40
f  3//41 49//41 50//41
f  49//42 3//42 47//42
f  49//43 47//43 51//43
f  49//41 51//44 52//44
f  52//45 51//45 53//45
f  54//46 55//46 56//46
f  55//46 54//46 57//47
f  55//46 57//47 58//48
f  57//47 54//46 59//49
f  60//50 58//48 57//47
f  61//51 33//51 62//51
f  33//51 61//51 63//52
f  33//51 63//52 35//53
f  35//53 63//52 34//54
f  34//54 63//52 64//55
f  17//56 65//56 66//56
f  65//56 17//56 67//57
f  67//57 17//56 16//58
f  67//57 16//58 22//59
f  22//59 16//58 26//60
f  63//61 68//61 64//61
f  68//61 63//61 49//62
f  49//62 63//61 50//63
f  50//63 63//61 61//64
f  68//61 52//65 69//65
f  52//65 68//61 49//62
f  70//66 71//66 72//66
f  71//66 70//66 66//67
f  71//66 66//67 65//68
f  71//66 65//68 67//69
f  71//70 67//70 73//70
f  74//71 75//71 76//71
f  75//71 74//71 77//71
f  77//71 74//71 78//72
f  77//71 78//72 79//73
f  54//74 79//74 78//74
f  79//74 54//74 56//74
f  80//75 71//75 81//75
f  71//75 80//75 72//76
f  82//77 83//77 84//77
f  83//77 82//77 44//78
f  44//78 82//77 42//79
f  40//80 47//80 38//80
f  47//80 40//80 51//81
f  76//82 85//82 86//82
f  85//82 76//82 75//83
f  24//84 85//84 25//84
f  85//85 24//85 86//85
f  86//85 24//85 27//86
f  87//87 88//87 89//87
f  88//88 87//88 59//88
f  59//89 87//87 90//89
f  59//90 90//90 57//90
f  60//91 84//91 58//91
f  84//91 60//91 82//92
f  19//93 62//93 20//93
f  62//94 19//94 61//94
f  48//95 91//95 92//95
f  91//95 48//95 46//96
f  93//97 4//97 5//97
f  4//97 93//97 91//98
f  91//98 93//97 92//99
f  89//100 11//100 87//100
f  11//100 89//100 10//100
f  10//101 89//101 94//101
f  37//102 69//102 36//102
f  69//102 37//102 68//103
f  80//104 29//104 31//104
f  29//104 80//104 81//105
f  29//104 81//105 32//106
f  94//101 6//107 10//101
f  6//107 94//101 89//101
f  6//107 89//101 88//108
f  6//109 88//109 9//109
f  9//110 88//108 41//110
f  41//110 88//108 39//111
f  39//111 88//108 59//112
f  39//111 59//112 54//113
f  39//111 54//113 78//114
f  39//111 78//114 40//115
f  40//115 78//114 74//116
f  40//115 74//116 76//117
f  40//115 76//117 27//118
f  27//118 76//117 86//119
f  40//115 27//118 51//120
f  51//120 27//118 53//121
f  27//118 52//122 53//121
f  52//122 27//118 28//123
f  52//122 28//123 12//124
f  52//125 12//125 69//125
f  69//126 12//124 36//126
f  36//126 12//124 14//127
f  36//126 14//127 17//128
f  36//126 17//128 66//129
f  36//126 66//129 30//130
f  30//130 66//129 31//131
f  31//131 66//129 70//132
f  31//131 70//132 80//133
f  80//133 70//132 72//134
f  55//12 79//12 56//12
f  79//12 55//12 58//12
f  79//12 58//12 84//12
f  79//12 84//12 92//12
f  92//12 84//12 48//12
f  48//12 84//12 83//12
f  48//12 83//12 44//12
f  48//12 44//12 47//12
f  47//12 44//12 43//12
f  47//12 43//12 38//12
f  77//12 85//12 75//12
f  85//12 77//12 79//12
f  85//12 79//12 92//12
f  85//12 92//12 93//12
f  85//70 93//70 25//70
f  25//12 93//12 23//12
f  23//12 93//12 19//12
f  19//12 93//12 5//12
f  19//12 5//12 1//12
f  19//12 1//12 3//12
f  19//12 3//12 50//12
f  19//12 50//12 61//94
f  82//12 45//12 42//12
f  45//12 82//12 7//12
f  7//12 11//12 8//12
f  11//12 7//12 87//12
f  87//12 7//12 60//12
f  60//12 7//12 82//12
f  87//12 60//12 57//12
f  87//12 57//12 90//12
f  22//12 73//12 67//12
f  73//12 22//12 71//12
f  71//12 22//12 21//12
f  71//12 21//12 81//12
f  81//12 21//12 32//12
f  34//12 68//12 37//12
f  68//12 34//12 64//12
f  62//12 18//12 20//12
f  18//12 62//12 33//12
f  4//12 46//12 2//12
f  46//12 4//12 91//12
f  26//12 13//12 15//12
f  13//12 26//12 16//12

