# {"id":"BLDG_000300090034b6de","idOriginal":"BLDG_000300090034b6de","origin":[13.337901970062935,52.54265449624251],"elevation":34.3199996948242}
# Longitude: 13.337901970062935
# Latitude: 52.54265449624251
# Elevation: 34.3199996948242

# File produced by Open Asset Import Library (http://www.assimp.sf.net)
# (assimp v3.1.0)

mtllib BLDG_000300090034b6de.obj.mtl

# 40 vertex positions
v  26.3812 15.9232 31.9122
v  1.52873 -0.439999 1.84896
v  26.3809 -0.439999 31.9127
v  1.52908 15.9232 1.84844
v  27.9099 15.9232 33.7621
v  27.9096 -0.439999 33.7627
v  29.6176 15.9232 35.8275
v  29.6173 -0.439999 35.828
v  67.3662 -0.439999 4.74773
v  67.3666 15.9232 4.74721
v  65.618 -0.439999 2.71161
v  65.6183 15.9232 2.71109
v  65.0173 -0.439999 2.01223
v  65.0177 15.9232 2.01171
v  73.4474 3.00518e-16 -4.90784
v  65.0176 14.6396 2.01175
v  65.0173 -1.23213e-16 2.01221
v  73.4477 14.6396 -4.9083
v  71.1604 4.70764e-16 -7.68815
v  71.1607 14.6396 -7.68862
v  79.0527 8.68671e-16 -14.1865
v  79.053 14.6396 -14.1869
v  83.3221 1.08393e-15 -17.702
v  83.3224 14.6396 -17.7024
v  85.3642 1.18686e-15 -19.383
v  85.3645 14.6396 -19.3834
v  88.4373 14.6396 -15.7052
v  88.437 9.61639e-16 -15.7048
v  90.8851 1.0851e-15 -17.721
v  90.8855 14.6396 -17.7215
v  62.9303 3.16776e-15 -51.7335
v  62.9306 14.6396 -51.734
v  37.7942 14.6396 -31.0699
v  37.7939 1.90245e-15 -31.0694
v  37.216 14.6396 -30.5946
v  37.2157 1.87335e-15 -30.5941
v  37.2157 -0.439999 -30.5941
v  37.2161 15.9232 -30.5946
v  0.000348207 15.9232 -0.00051824
v  0 -0.439999 -2.69421e-17

# 0 UV coordinates

# 43 vertex normals
vn -0.770749 3.65672e-05 0.637139
vn -0.770749 3.65836e-05 0.637139
vn -0.770862 3.66395e-05 0.637002
vn -0.770862 3.65653e-05 0.637002
vn -0.770677 3.64043e-05 0.637226
vn -0.770678 3.66427e-05 0.637225
vn 0.635621 1.06795e-05 0.772001
vn 0.635621 1.08321e-05 0.772001
vn 0.758706 -3.69081e-05 -0.651434
vn 0.758706 -3.68973e-05 -0.651434
vn 0.758616 -3.68995e-05 -0.651538
vn 0.758616 -3.69074e-05 -0.651538
vn 0.634485 1.09184e-05 0.772935
vn 0.634485 1.12529e-05 0.772935
vn 0.772292 -3.62171e-05 -0.635267
vn 0.772293 -3.66334e-05 -0.635266
vn 0.635636 1.08835e-05 0.771989
vn 0.635636 1.0858e-05 0.771989
vn 0.635646 1.08601e-05 0.77198
vn 0.635556 1.08677e-05 0.772055
vn -0.76744 3.66957e-05 0.641121
vn 0.635728 1.08553e-05 0.771913
vn 0.772548 -3.66479e-05 -0.634957
vn -0.635039 -1.08876e-05 -0.77248
vn -0.635039 -1.09883e-05 -0.77248
vn -0.635039 -1.08876e-05 -0.77248
vn -0.760946 3.68005e-05 0.648815
vn 0.760946 -3.69087e-05 -0.648815
vn 0.760946 -3.67346e-05 -0.648815
vn -0.635038 -1.09517e-05 -0.772481
vn -0.635038 -1.10196e-05 -0.772481
vn -0.770689 3.65846e-05 0.637212
vn -0.770689 3.65813e-05 0.637212
vn 0 -1 -6.12323e-17
vn -1.0086e-23 -1 -6.12323e-17
vn -2.11039e-24 -1 -6.12323e-17
vn 8.77737e-24 -1 -6.12324e-17
vn -8.15773e-24 -1 -6.12323e-17
vn -3.48276e-23 -1 -6.12323e-17
vn -3.44634e-23 -1 -6.12323e-17
vn 2.65371e-24 -1 -6.12323e-17
vn 0 -1 0
vn 0 1 0

# Mesh 'defaultobject' with 72 faces
g defaultobject
usemtl DefaultMaterial
f  1//1 2//1 3//1
f  2//1 1//1 4//2
f  5//3 3//3 6//3
f  3//3 5//3 1//4
f  7//5 6//5 8//5
f  6//5 7//5 5//6
f  9//7 7//7 8//7
f  7//7 9//7 10//8
f  11//9 10//9 9//9
f  10//9 11//9 12//10
f  13//11 12//11 11//11
f  12//11 13//11 14//12
f  15//13 16//13 17//13
f  16//13 15//13 18//14
f  19//15 18//15 15//15
f  18//15 19//15 20//16
f  21//17 20//17 19//17
f  20//17 21//17 22//18
f  23//19 22//19 21//19
f  22//19 23//19 24//19
f  25//20 24//20 23//20
f  24//20 25//20 26//20
f  27//21 25//21 28//21
f  25//21 27//21 26//21
f  29//22 27//22 28//22
f  27//22 29//22 30//22
f  31//23 30//23 29//23
f  30//23 31//23 32//23
f  33//24 31//24 34//24
f  31//24 33//24 32//25
f  35//26 34//24 36//26
f  34//24 35//26 33//24
f  16//27 36//27 17//27
f  36//27 16//27 35//27
f  37//28 14//28 13//28
f  14//28 37//28 38//29
f  39//30 37//30 40//30
f  37//30 39//30 38//31
f  4//32 40//32 2//32
f  40//32 4//32 39//33
f  36//34 15//34 17//34
f  15//34 36//34 19//35
f  19//35 36//34 21//36
f  21//36 36//34 23//37
f  23//37 36//34 25//38
f  25//38 29//39 28//39
f  29//39 25//38 31//40
f  31//40 25//38 34//41
f  34//41 25//38 36//34
f  37//42 2//42 40//42
f  2//42 37//42 13//42
f  2//42 13//42 3//42
f  3//42 13//42 6//42
f  6//42 13//42 11//42
f  6//42 11//42 8//42
f  8//42 11//42 9//42
f  30//43 26//43 27//43
f  18//43 35//43 16//43
f  35//43 18//43 33//43
f  33//43 18//43 20//43
f  33//43 20//43 32//43
f  32//43 20//43 22//43
f  32//43 22//43 24//43
f  32//43 24//43 26//43
f  32//43 26//43 30//43
f  12//43 7//43 10//43
f  7//43 12//43 14//43
f  7//43 14//43 38//43
f  7//43 38//43 1//43
f  1//43 38//43 4//43
f  4//43 38//43 39//43
f  7//43 1//43 5//43

