# {"id":"BLDG_0003000b002608cb","idOriginal":"BLDG_0003000b002608cb","origin":[13.347202632451248,52.54045061811499],"elevation":35.4099998474121}
# Longitude: 13.347202632451248
# Latitude: 52.54045061811499
# Elevation: 35.4099998474121

# File produced by Open Asset Import Library (http://www.assimp.sf.net)
# (assimp v3.1.0)

mtllib BLDG_0003000b002608cb.obj.mtl

# 34 vertex positions
v  14.7266 -8.49497e-17 1.38733
v  11.4162 21.8308 5.13744
v  11.4157 -3.1462e-16 5.13813
v  14.727 21.8308 1.38664
v  16.5467 4.13716e-17 -0.675649
v  16.5472 21.8308 -0.676341
v  19.7927 2.66483e-16 -4.352
v  19.7932 21.8308 -4.35269
v  22.2098 4.34113e-16 -7.08961
v  22.2102 21.8308 -7.0903
v  13.2382 9.19022e-16 -15.0088
v  13.2386 21.8308 -15.0095
v  9.6225 21.8308 -10.9007
v  9.62204 6.67435e-16 -10.9
v  8.84168 21.8308 -10.8564
v  8.84122 6.6472e-16 -10.8557
v  7.93411 21.8308 -9.8276
v  7.93364 6.01725e-16 -9.82691
v  7.98701 21.8308 -9.04784
v  7.98655 5.53978e-16 -9.04715
v  5.28936 21.8308 -5.99639
v  5.2889 3.6713e-16 -5.9957
v  4.49902 21.8308 -5.9327
v  4.49856 3.63231e-16 -5.93201
v  3.6195 21.8308 -4.93511
v  3.61904 3.02146e-16 -4.93442
v  3.66938 21.8308 -4.15663
v  3.66892 2.54478e-16 -4.15594
v  0.000464828 21.8308 -0.00069129
v  0 0 0
v  8.38021 21.8308 7.39638
v  8.37975 -4.5294e-16 7.39707
v  8.96545 21.8308 7.91224
v  8.96498 -4.84528e-16 7.91293

# 0 UV coordinates

# 45 vertex normals
vn 0.749702 4.9945e-06 0.661775
vn 0.749702 5.01197e-06 0.661775
vn 0.749863 5.00182e-06 0.661593
vn 0.749863 4.96212e-06 0.661593
vn 0.749619 4.97037e-06 0.661869
vn 0.749619 4.96146e-06 0.66187
vn 0.749633 4.97027e-06 0.661853
vn 0.749634 5.03606e-06 0.661853
vn 0.661766 -3.77611e-05 -0.749711
vn 0.661766 -3.78195e-05 -0.749711
vn -0.750672 -4.95441e-06 -0.660676
vn -0.0566954 -3.03683e-05 -0.998392
vn -0.0566967 -3.04144e-05 -0.998391
vn -0.749904 -4.98196e-06 -0.661547
vn -0.749903 -4.93671e-06 -0.661547
vn -0.997706 2.33915e-05 0.0676938
vn -0.749206 -5.02187e-06 -0.662337
vn -0.0803241 -2.98586e-05 -0.996769
vn -0.750102 -4.97061e-06 -0.661322
vn -0.997954 2.32656e-05 0.0639408
vn -0.997954 2.32779e-05 0.0639405
vn -0.749667 -4.99481e-06 -0.661816
vn -0.749666 -4.98927e-06 -0.661816
vn -0.661781 3.78231e-05 0.749697
vn -0.661781 3.78306e-05 0.749697
vn -0.661245 3.78556e-05 0.75017
vn -0.661244 3.78267e-05 0.750171
vn 0.749524 4.98552e-06 0.661978
vn 0.749524 5.00912e-06 0.661978
vn 0 1 0
vn -4.35339e-23 -1 -6.12324e-17
vn -1.27915e-24 -1 -6.12323e-17
vn -3.19422e-24 -1 -6.12323e-17
vn 3.53944e-24 -1 -6.12323e-17
vn 2.54161e-23 -1 -6.12323e-17
vn -1.27252e-23 -1 -6.12323e-17
vn 3.29012e-23 -1 -6.12323e-17
vn 3.21744e-24 -1 -6.12323e-17
vn 8.69566e-24 -1 -6.12324e-17
vn -3.6109e-24 -1 -6.12323e-17
vn -1.18201e-23 -1 -6.12323e-17
vn 0 -1 -6.12324e-17
vn 7.612e-23 -1 -6.12325e-17
vn -1.94074e-23 -1 -6.12323e-17
vn 0 -1 -6.12323e-17

# Mesh 'defaultobject' with 64 faces
g defaultobject
usemtl DefaultMaterial
f  1//1 2//1 3//1
f  2//1 1//1 4//2
f  5//3 4//3 1//3
f  4//3 5//3 6//4
f  7//5 6//5 5//5
f  6//5 7//5 8//6
f  9//7 8//7 7//7
f  8//7 9//7 10//8
f  11//9 10//9 9//9
f  10//9 11//9 12//10
f  13//11 11//11 14//11
f  11//11 13//11 12//11
f  15//12 14//12 16//12
f  14//12 15//12 13//13
f  17//14 16//14 18//14
f  16//14 17//14 15//15
f  19//16 18//16 20//16
f  18//16 19//16 17//16
f  21//17 20//17 22//17
f  20//17 21//17 19//17
f  23//18 22//18 24//18
f  22//18 23//18 21//18
f  25//19 24//19 26//19
f  24//19 25//19 23//19
f  27//20 26//20 28//20
f  26//20 27//20 25//21
f  29//22 28//22 30//22
f  28//22 29//22 27//23
f  31//24 30//24 32//24
f  30//24 31//24 29//25
f  33//26 32//26 34//26
f  32//26 33//26 31//27
f  3//28 33//28 34//28
f  33//28 3//28 2//29
f  31//30 27//30 29//30
f  27//30 31//30 21//30
f  21//30 31//30 19//30
f  19//30 31//30 13//30
f  13//30 31//30 12//30
f  12//30 31//30 10//30
f  10//30 31//30 6//30
f  6//30 31//30 33//30
f  6//30 33//30 2//30
f  6//30 2//30 4//30
f  10//30 6//30 8//30
f  19//30 15//30 17//30
f  15//30 19//30 13//30
f  27//30 23//30 25//30
f  23//30 27//30 21//30
f  32//31 3//31 34//31
f  3//31 32//31 30//32
f  3//31 30//32 28//33
f  3//31 28//33 1//34
f  1//34 28//33 26//35
f  1//34 26//35 24//36
f  1//34 24//36 22//37
f  1//34 22//37 5//38
f  5//38 22//37 20//39
f  5//38 20//39 7//40
f  7//40 20//39 18//41
f  7//40 18//41 16//42
f  7//40 16//42 14//43
f  7//40 14//43 11//44
f  7//40 11//44 9//45

