# {"id":"BLDG_0003000e0047b214","idOriginal":"BLDG_0003000e0047b214","origin":[13.386793681343145,52.51183615588572],"elevation":31.2299995422363}
# Longitude: 13.386793681343145
# Latitude: 52.51183615588572
# Elevation: 31.2299995422363

# File produced by Open Asset Import Library (http://www.assimp.sf.net)
# (assimp v3.1.0)

mtllib BLDG_0003000e0047b214.obj.mtl

# 24 vertex positions
v  13.2908 25.6503 -1.04106
v  19.1679 9.18665e-17 -1.50029
v  13.2903 6.36967e-17 -1.04025
v  19.1684 25.6503 -1.5011
v  20.0683 -5.81521e-16 9.49696
v  20.0688 25.6503 9.49615
v  19.6187 27.6184 3.99746
v  14.0835 25.6503 9.96463
v  14.083 -6.10207e-16 9.96544
v  0.793265 25.6503 11.0049
v  0 0 0
v  0.792717 -6.73904e-16 11.0057
v  0.000547498 25.6503 -0.000810659
v  14.7459 25.65 19.1604
v  14.7453 -1.17329e-15 19.1612
v  14.0835 25.65 9.96463
v  1.45103 -1.23355e-15 20.1454
v  1.45158 25.65 20.1446
v  8.09877 27.62 19.6524
v  0.793265 25.65 11.0049
v  13.6872 27.6184 4.46172
v  7.43844 27.6184 10.4847
v  7.04208 27.6184 4.98185
v  7.43844 27.62 10.4847

# 0 UV coordinates

# 31 vertex normals
vn -0.0780327 -2.98412e-05 -0.996951
vn 0.996665 -2.3849e-05 -0.0816047
vn 0.996665 -2.33414e-05 -0.0816047
vn 0.0780327 2.9842e-05 0.996951
vn -0.997416 2.35614e-05 0.0718418
vn -0.997416 2.356e-05 0.0718418
vn -0.0780326 -2.98423e-05 -0.996951
vn 0.997416 -2.35572e-05 -0.0718419
vn 0.0738268 2.99414e-05 0.997271
vn 0.0738268 2.99411e-05 0.997271
vn 0.0738268 3.02864e-05 0.997271
vn -0.997416 2.35614e-05 0.0718419
vn -0.997416 2.35618e-05 0.0718419
vn -0.0262185 0.941864 -0.334969
vn -0.0262185 0.941864 -0.334969
vn 0.026218 0.941866 0.334963
vn 0.026218 0.941867 0.334963
vn 0.282453 0.959065 -0.0203445
vn -0.28245 0.959066 0.0203443
vn -0.28245 0.959066 0.0203443
vn -0.0262185 0.941864 -0.334969
vn -0.0262185 0.941864 -0.334969
vn 0.026218 0.941866 0.334963
vn 0.282708 0.95899 -0.0203629
vn 0.282708 0.95899 -0.0203629
vn -0.282705 0.958991 0.0203626
vn -0.282705 0.958991 0.0203626
vn -6.3933e-24 -1 -6.12323e-17
vn -6.51046e-24 -1 -6.12323e-17
vn -2.87924e-24 -1 -6.12323e-17
vn 0 -1 -6.12323e-17

# Mesh 'defaultobject' with 38 faces
g defaultobject
usemtl DefaultMaterial
f  1//1 2//1 3//1
f  2//1 1//1 4//1
f  4//2 5//2 2//2
f  5//2 4//2 6//2
f  6//2 4//2 7//3
f  5//4 8//4 9//4
f  8//4 5//4 6//4
f  10//5 11//5 12//5
f  11//5 10//5 13//6
f  13//7 3//1 11//7
f  3//1 13//7 1//1
f  9//8 14//8 15//8
f  14//8 9//8 16//8
f  14//9 17//9 15//9
f  17//9 14//9 18//10
f  18//10 14//9 19//11
f  18//12 12//5 17//12
f  12//5 18//12 20//13
f  4//14 21//14 7//14
f  21//14 4//14 1//15
f  7//16 8//16 6//16
f  8//16 7//16 21//17
f  22//18 8//18 23//18
f  23//19 10//19 22//19
f  10//19 23//19 13//20
f  13//21 21//14 1//15
f  21//14 13//21 23//22
f  23//23 8//16 21//17
f  14//24 24//24 19//24
f  24//24 14//24 16//25
f  19//26 20//26 18//26
f  20//26 19//26 24//27
f  3//28 5//28 9//28
f  5//28 3//28 2//29
f  11//30 9//28 12//30
f  9//28 11//30 3//28
f  15//31 12//30 9//28
f  12//30 15//31 17//31

