# {"id":"BLDG_00030000001dac64","idOriginal":"BLDG_00030000001dac64","origin":[13.368924209987155,52.55118361365577],"elevation":37.1800003051758}
# Longitude: 13.368924209987155
# Latitude: 52.55118361365577
# Elevation: 37.1800003051758

# File produced by Open Asset Import Library (http://www.assimp.sf.net)
# (assimp v3.1.0)

mtllib BLDG_00030000001dac64.obj.mtl

# 10 vertex positions
v  1.5554 3.66204 6.75198
v  5.88228 3.66204 -1.35099
v  7.8084e-05 3.66204 -0.00011604
v  3.34842 3.66204 6.33814
v  7.40095 3.66204 5.40338
v  0 0 0
v  1.55533 -4.13446e-16 6.75209
v  3.34835 -3.88106e-16 6.33825
v  7.40087 -3.30869e-16 5.4035
v  5.8822 8.2717e-17 -1.35087

# 0 UV coordinates

# 12 vertex normals
vn 0 1 0
vn -0.974481 2.79096e-05 0.224469
vn -0.974481 2.78912e-05 0.224469
vn 0.224893 2.61638e-05 0.974384
vn 0.224892 2.60311e-05 0.974384
vn 0.224759 2.60332e-05 0.974414
vn 0.975643 -2.77989e-05 -0.219365
vn -0.223827 -2.61108e-05 -0.974629
vn -0.223827 -2.60904e-05 -0.974629
vn -1.66081e-23 -1 -6.12323e-17
vn -1.83717e-24 -1 -6.12323e-17
vn -5.06816e-24 -1 -6.12323e-17

# Mesh 'defaultobject' with 16 faces
g defaultobject
usemtl DefaultMaterial
f  1//1 2//1 3//1
f  2//1 1//1 4//1
f  2//1 4//1 5//1
f  1//2 6//2 7//2
f  6//2 1//2 3//3
f  8//4 1//4 7//4
f  1//4 8//4 4//5
f  9//6 4//6 8//6
f  4//6 9//6 5//6
f  10//7 5//7 9//7
f  5//7 10//7 2//7
f  3//8 10//8 6//8
f  10//8 3//8 2//9
f  6//10 8//10 7//10
f  8//10 6//10 9//11
f  9//11 6//10 10//12

