# {"id":"BLDG_0003000000270aa9","idOriginal":"BLDG_0003000000270aa9","origin":[13.329172094810277,52.530155841533315],"elevation":32.1199989318848}
# Longitude: 13.329172094810277
# Latitude: 52.530155841533315
# Elevation: 32.1199989318848

# File produced by Open Asset Import Library (http://www.assimp.sf.net)
# (assimp v3.1.0)

mtllib BLDG_0003000000270aa9.obj.mtl

# 14 vertex positions
v  14.0363 2.7424e-16 -4.47868
v  8.09761 5.25545e-16 -8.58281
v  14.5485 4.58366e-16 -7.48568
v  12.9014 -1.3443e-16 2.19541
v  1.64709 5.92721e-16 -9.67987
v  6.45059 -6.72139e-17 1.09769
v  0 0 0
v  1.64731 10.3172 -9.68019
v  6.45083 11.0525 1.09734
v  8.09784 11.0525 -8.58316
v  0.00021942 10.3172 -0.00032649
v  14.0365 10.3173 -4.47901
v  14.5487 10.3172 -7.48601
v  12.9016 10.3172 2.19508

# 0 UV coordinates

# 23 vertex normals
vn -7.95693e-24 -1 -6.12323e-17
vn 9.56167e-24 -1 -6.12323e-17
vn 6.59119e-24 -1 -6.12323e-17
vn 0 -1 -6.12323e-17
vn 0 -1 -6.12323e-17
vn -0.110095 0.993745 -0.0187313
vn -0.110095 0.993745 -0.0187313
vn 0.110095 0.993744 0.0187314
vn 0.110095 0.993744 0.0187313
vn 0.110095 0.993745 0.0187313
vn 0.985801 -1.56404e-05 0.167917
vn 0.985801 -1.56404e-05 0.167917
vn 0.985848 -1.5661e-05 0.167641
vn 0.985848 -1.56609e-05 0.167641
vn -0.167757 3.47593e-05 0.985828
vn -0.167757 3.47788e-05 0.985828
vn -0.167757 3.47657e-05 0.985828
vn -0.98583 1.56577e-05 -0.167745
vn -0.98583 1.56673e-05 -0.167745
vn 0.167666 -3.47318e-05 -0.985844
vn 0.167666 -3.47774e-05 -0.985844
vn 0.167666 -3.47774e-05 -0.985844
vn 0.167666 -3.47756e-05 -0.985844

# Mesh 'defaultobject' with 48 faces
g defaultobject
usemtl DefaultMaterial
f  1//1 2//1 3//1
f  2//1 1//1 4//2
f  2//1 4//2 5//3
f  5//3 4//2 6//4
f  5//3 6//4 7//5
f  1//1 2//1 3//1
f  2//1 1//1 4//2
f  2//1 4//2 5//3
f  5//3 4//2 6//4
f  5//3 6//4 7//5
f  8//6 9//6 10//6
f  9//6 8//6 11//7
f  10//8 12//8 13//8
f  12//8 10//8 14//9
f  14//9 10//8 9//10
f  8//6 9//6 10//6
f  9//6 8//6 11//7
f  10//8 12//8 13//8
f  12//8 10//8 14//9
f  14//9 10//8 9//10
f  3//11 12//11 1//11
f  12//11 3//11 13//12
f  1//13 14//13 4//13
f  14//13 1//13 12//14
f  4//15 9//15 6//15
f  9//15 4//15 14//16
f  6//15 11//17 7//17
f  11//17 6//15 9//15
f  11//18 5//18 7//18
f  5//18 11//18 8//19
f  8//20 2//20 5//20
f  2//20 8//20 10//21
f  10//21 3//22 2//20
f  3//22 10//21 13//23
f  3//11 12//11 1//11
f  12//11 3//11 13//12
f  1//13 14//13 4//13
f  14//13 1//13 12//14
f  4//15 9//15 6//15
f  9//15 4//15 14//16
f  6//15 11//17 7//17
f  11//17 6//15 9//15
f  11//18 5//18 7//18
f  5//18 11//18 8//19
f  8//20 2//20 5//20
f  2//20 8//20 10//21
f  10//21 3//22 2//20
f  3//22 10//21 13//23

