# {"id":"BLDG_0003000e004566ec","idOriginal":"BLDG_0003000e004566ec","origin":[13.343635455767888,52.56108202976318],"elevation":38.1500015258789}
# Longitude: 13.343635455767888
# Latitude: 52.56108202976318
# Elevation: 38.1500015258789

# File produced by Open Asset Import Library (http://www.assimp.sf.net)
# (assimp v3.1.0)

mtllib BLDG_0003000e004566ec.obj.mtl

# 12 vertex positions
v  10.8716 6.74801 -3.11161
v  7.77303 -2.90432e-17 0.474311
v  10.8715 1.90518e-16 -3.11139
v  4.67458 -2.48604e-16 4.06002
v  4.67472 6.74801 4.0598
v  7.77322 8.9843 0.474026
v  0.000143657 6.74801 -0.000213981
v  3.09845 2.19561e-16 -3.58571
v  0 0 0
v  6.1969 4.39122e-16 -7.17141
v  6.19704 6.74801 -7.17163
v  3.09864 8.9843 -3.58599

# 0 UV coordinates

# 19 vertex normals
vn 0.756645 4.59741e-06 0.653826
vn 0.756645 4.56282e-06 0.653826
vn 0.756645 4.59741e-06 0.653826
vn 0.756645 4.76943e-06 0.653826
vn -0.756645 -4.62486e-06 -0.653826
vn -0.756645 -4.62246e-06 -0.653826
vn -0.756645 -4.65088e-06 -0.653826
vn -0.756645 -4.58945e-06 -0.653826
vn -0.655734 3.79478e-05 0.754992
vn -0.655734 3.79007e-05 0.754992
vn 0.655734 -3.78906e-05 -0.754992
vn 0.655734 -3.7845e-05 -0.754992
vn -0.27984 0.904366 0.322199
vn -0.27984 0.904366 0.322199
vn 0.279848 0.90436 -0.322209
vn 0.279848 0.90436 -0.322209
vn 0 -1 -6.12323e-17
vn 0 -1 -6.12323e-17
vn -7.21704e-24 -1 -6.12323e-17

# Mesh 'defaultobject' with 20 faces
g defaultobject
usemtl DefaultMaterial
f  1//1 2//1 3//1
f  2//1 1//1 4//2
f  4//2 1//1 5//3
f  5//3 1//1 6//4
f  7//5 8//5 9//5
f  8//5 7//5 10//6
f  10//6 7//5 11//7
f  11//7 7//5 12//8
f  5//9 9//9 4//9
f  9//9 5//9 7//10
f  10//11 1//11 3//11
f  1//11 10//11 11//12
f  7//13 6//13 12//13
f  6//13 7//13 5//14
f  12//15 1//15 11//15
f  1//15 12//15 6//16
f  2//17 10//17 3//17
f  10//17 2//17 4//18
f  10//17 4//18 8//19
f  8//19 4//18 9//17

