# {"id":"BLDG_0003000b002ea188","idOriginal":"BLDG_0003000b002ea188","origin":[13.329602980769907,52.53085775695273],"elevation":33.1500015258789}
# Longitude: 13.329602980769907
# Latitude: 52.53085775695273
# Elevation: 33.1500015258789

# File produced by Open Asset Import Library (http://www.assimp.sf.net)
# (assimp v3.1.0)

mtllib BLDG_0003000b002ea188.obj.mtl

# 22 vertex positions
v  0.916138 3.16134e-16 -5.16286
v  4.95451 -5.4952e-17 0.897434
v  0 0 0
v  1.83789 6.34204e-16 -10.3573
v  15.2627 4.88327e-16 -7.97498
v  13.4698 -1.49368e-16 2.43936
v  17.068 -1.89249e-16 3.09067
v  18.9162 4.48606e-16 -7.32629
v  17.7565 -1.9689e-16 3.21545
v  18.6838 1.23081e-16 -2.01006
v  19.6057 4.4115e-16 -7.20453
v  0.000430905 20.2608 -0.00064118
v  0.916618 22.5622 -5.16357
v  1.83832 20.2467 -10.358
v  15.2631 20.2468 -7.97563
v  18.9166 20.247 -7.32693
v  19.6061 20.2467 -7.20517
v  18.6843 22.5622 -2.01078
v  17.7569 20.2329 3.21481
v  17.0685 20.234 3.09003
v  13.4703 20.2396 2.43872
v  4.95494 20.2529 0.896793

# 0 UV coordinates

# 37 vertex normals
vn 0 -1 -6.12323e-17
vn -2.94787e-24 -1 -6.12323e-17
vn 1.15783e-24 -1 -6.12323e-17
vn -2.05507e-24 -1 -6.12323e-17
vn 1.07883e-23 -1 -6.12323e-17
vn -8.04536e-24 -1 -6.12323e-17
vn 1.13979e-22 -1 -6.12323e-17
vn -8.59953e-23 -1 -6.12323e-17
vn -0.984618 1.54115e-05 -0.174719
vn -0.984618 1.54141e-05 -0.174719
vn -0.984618 1.54093e-05 -0.174719
vn 0.174729 -3.48819e-05 -0.984617
vn 0.174729 -3.48859e-05 -0.984617
vn 0.174821 -3.48874e-05 -0.9846
vn 0.174821 -3.48474e-05 -0.9846
vn 0.1739 -3.4833e-05 -0.984763
vn 0.1739 -3.48499e-05 -0.984763
vn 0.984616 -1.54472e-05 0.174732
vn 0.984616 -1.54416e-05 0.174732
vn 0.984616 -1.54491e-05 0.174732
vn -0.178339 3.49242e-05 0.983969
vn -0.178339 3.49314e-05 0.983969
vn -0.178115 3.49303e-05 0.98401
vn -0.178115 3.49205e-05 0.98401
vn -0.178179 3.49334e-05 0.983998
vn -0.178179 3.49292e-05 0.983998
vn -0.178234 3.49298e-05 0.983988
vn -0.178234 3.49294e-05 0.983988
vn 0.0702183 0.915684 -0.395718
vn 0.0702175 0.915682 -0.395722
vn 0.0702184 0.915684 -0.395718
vn 0.0698348 0.916644 -0.393557
vn -0.0702165 0.915688 0.395708
vn -0.0702166 0.915688 0.395707
vn -0.0702165 0.915688 0.395708
vn -0.0702163 0.915688 0.395708
vn -0.0702181 0.915688 0.395708

# Mesh 'defaultobject' with 80 faces
g defaultobject
usemtl DefaultMaterial
f  1//1 2//1 3//1
f  2//1 1//1 4//1
f  2//1 4//1 5//2
f  2//1 5//2 6//3
f  6//3 5//2 7//4
f  7//4 5//2 8//5
f  7//4 8//5 9//6
f  9//6 8//5 10//7
f  10//7 8//5 11//8
f  1//1 2//1 3//1
f  2//1 1//1 4//1
f  2//1 4//1 5//2
f  2//1 5//2 6//3
f  6//3 5//2 7//4
f  7//4 5//2 8//5
f  7//4 8//5 9//6
f  9//6 8//5 10//7
f  10//7 8//5 11//8
f  12//9 1//9 3//9
f  1//9 12//9 13//10
f  13//10 4//10 1//9
f  4//10 13//10 14//11
f  14//12 5//12 4//12
f  5//12 14//12 15//13
f  15//14 8//14 5//14
f  8//14 15//14 16//15
f  16//16 11//16 8//16
f  11//16 16//16 17//17
f  11//18 18//18 10//18
f  18//18 11//18 17//19
f  10//18 19//20 9//20
f  19//20 10//18 18//18
f  9//21 20//21 7//21
f  20//21 9//21 19//22
f  7//23 21//23 6//23
f  21//23 7//23 20//24
f  6//25 22//25 2//25
f  22//25 6//25 21//26
f  2//27 12//27 3//27
f  12//27 2//27 22//28
f  12//9 1//9 3//9
f  1//9 12//9 13//10
f  13//10 4//10 1//9
f  4//10 13//10 14//11
f  14//12 5//12 4//12
f  5//12 14//12 15//13
f  15//14 8//14 5//14
f  8//14 15//14 16//15
f  16//16 11//16 8//16
f  11//16 16//16 17//17
f  11//18 18//18 10//18
f  18//18 11//18 17//19
f  10//18 19//20 9//20
f  19//20 10//18 18//18
f  9//21 20//21 7//21
f  20//21 9//21 19//22
f  7//23 21//23 6//23
f  21//23 7//23 20//24
f  6//25 22//25 2//25
f  22//25 6//25 21//26
f  2//27 12//27 3//27
f  12//27 2//27 22//28
f  17//29 13//29 18//29
f  13//29 17//29 16//30
f  13//29 16//30 14//31
f  14//32 16//32 15//32
f  12//33 18//33 13//33
f  18//33 12//33 22//34
f  18//33 22//34 21//35
f  18//33 21//35 20//36
f  18//33 20//36 19//37
f  17//29 13//29 18//29
f  13//29 17//29 16//30
f  13//29 16//30 14//31
f  14//32 16//32 15//32
f  12//33 18//33 13//33
f  18//33 12//33 22//34
f  18//33 22//34 21//35
f  18//33 21//35 20//36
f  18//33 20//36 19//37

