# {"id":"BLDG_0003000e009c0907","idOriginal":"BLDG_0003000e009c0907","origin":[13.34453325599689,52.52070504788669],"elevation":34.0800018310547}
# Longitude: 13.34453325599689
# Latitude: 52.52070504788669
# Elevation: 34.0800018310547

# File produced by Open Asset Import Library (http://www.assimp.sf.net)
# (assimp v3.1.0)

mtllib BLDG_0003000e009c0907.obj.mtl

# 40 vertex positions
v  1.32806 12.8296 23.0303
v  1.42248 12.8296 14.8113
v  0.579781 12.8296 14.9484
v  18.592 12.8296 12.9353
v  8.5597 12.8296 22.2878
v  13.2845 12.8296 21.8034
v  19.4556 12.8296 12.9017
v  20.2776 12.8296 21.0869
v  10.4664 14.2753 -0.940188
v  10.6069 14.2753 0.768291
v  17.2176 14.2753 -1.64787
v  18.3032 14.2753 9.87888
v  1.42251 14.2753 14.8112
v  18.592 14.2753 12.9353
v  17.8673 14.2753 5.24935
v  1.10352 14.2753 11.4967
v  0.546894 14.2753 5.69127
v  6.86634 14.2753 1.02303
v  0.000315382 14.2753 -0.00046852
v  6.67203 14.2753 -0.584548
v  1.42221 -9.06955e-16 14.8117
v  0.579508 -9.15353e-16 14.9489
v  1.32779 -1.41022e-15 23.0307
v  8.55942 -1.36476e-15 22.2882
v  13.2842 -1.3351e-15 21.8038
v  20.2773 -1.29123e-15 21.0873
v  19.4553 -7.90027e-16 12.9021
v  18.5917 -7.92086e-16 12.9357
v  18.3029 -0.540001 9.87935
v  18.5917 -0.540001 12.9358
v  17.867 -0.540001 5.24982
v  17.2173 -0.540001 -1.6474
v  10.4661 -0.540001 -0.939719
v  10.6066 -0.540001 0.768759
v  6.86603 -0.540001 1.0235
v  6.67171 -0.540001 -0.58408
v  0 -0.540001 -3.30655e-17
v  0.546578 -0.540001 5.69173
v  1.1032 -0.540001 11.4972
v  1.4222 -0.540001 14.8117

# 0 UV coordinates

# 45 vertex normals
vn 0 1 0
vn -0.160643 -2.77619e-05 -0.987013
vn -0.995741 2.41068e-05 0.0921936
vn -0.995741 2.41092e-05 0.0921936
vn 0.102135 2.93259e-05 0.994771
vn 0.102135 2.93208e-05 0.994771
vn 0.101991 2.93256e-05 0.994785
vn 0.101925 2.93275e-05 0.994792
vn 0.101925 2.93222e-05 0.994792
vn 0.994995 -2.44651e-05 -0.099922
vn 0.994995 -2.43069e-05 -0.0999223
vn -0.0388954 -3.08153e-05 -0.999243
vn -0.0388943 -3.07411e-05 -0.999243
vn -0.108614 -2.90928e-05 -0.994084
vn -0.108615 -2.91697e-05 -0.994084
vn 0.995565 -2.41219e-05 -0.0940756
vn 0.995565 -2.4249e-05 -0.094075
vn 0.995597 -2.42395e-05 -0.0937365
vn 0.995597 -2.41149e-05 -0.0937369
vn 0.995593 -2.41168e-05 -0.0937784
vn 0.995593 -2.41168e-05 -0.0937784
vn -0.10425 -2.92394e-05 -0.994551
vn -0.10425 -2.92434e-05 -0.994551
vn -0.996635 2.38276e-05 0.0819713
vn -0.996635 2.37634e-05 0.0819719
vn -0.0679454 -3.01117e-05 -0.997689
vn -0.0679454 -3.01055e-05 -0.997689
vn 0.992774 -2.49176e-05 -0.120001
vn 0.992774 -2.49163e-05 -0.120001
vn -0.0872121 -2.96471e-05 -0.99619
vn -0.0872121 -2.96504e-05 -0.99619
vn -0.995421 2.42175e-05 0.0955905
vn -0.995421 2.42131e-05 0.0955905
vn -0.995435 2.42101e-05 0.0954416
vn -0.995435 2.42131e-05 0.0954416
vn -0.995401 2.42126e-05 0.0957988
vn -0.995401 2.42206e-05 0.0957988
vn 0.108615 2.91151e-05 0.994084
vn -1.43563e-23 -1 -6.12323e-17
vn 2.90902e-23 -1 -6.12324e-17
vn 2.98761e-24 -1 -6.12323e-17
vn 2.01913e-23 -1 -6.12323e-17
vn -5.91121e-24 -1 -6.12323e-17
vn 0 -1 -6.12323e-17
vn 0 -1 0

# Mesh 'defaultobject' with 72 faces
g defaultobject
usemtl DefaultMaterial
f  1//1 2//1 3//1
f  2//1 1//1 4//1
f  4//1 1//1 5//1
f  4//1 5//1 6//1
f  4//1 6//1 7//1
f  7//1 6//1 8//1
f  9//1 10//1 11//1
f  12//1 13//1 14//1
f  13//1 12//1 15//1
f  13//1 15//1 11//1
f  13//1 11//1 16//1
f  16//1 11//1 17//1
f  17//1 11//1 10//1
f  17//1 10//1 18//1
f  17//1 18//1 19//1
f  19//1 18//1 20//1
f  3//2 21//2 22//2
f  21//2 3//2 2//2
f  1//3 22//3 23//3
f  22//3 1//3 3//4
f  24//5 1//5 23//5
f  1//5 24//5 5//6
f  25//7 5//7 24//7
f  5//7 25//7 6//7
f  26//8 6//8 25//8
f  6//8 26//8 8//9
f  27//10 8//10 26//10
f  8//10 27//10 7//11
f  4//12 27//12 28//12
f  27//12 4//12 7//13
f  2//14 28//14 21//14
f  28//14 2//14 4//15
f  29//16 14//16 30//16
f  14//16 29//16 12//17
f  31//18 12//18 29//18
f  12//18 31//18 15//19
f  32//20 15//20 31//20
f  15//20 32//20 11//21
f  9//22 32//22 33//22
f  32//22 9//22 11//23
f  10//24 33//24 34//24
f  33//24 10//24 9//25
f  18//26 34//26 35//26
f  34//26 18//26 10//27
f  36//28 18//28 35//28
f  18//28 36//28 20//29
f  19//30 36//30 37//30
f  36//30 19//30 20//31
f  17//32 37//32 38//32
f  37//32 17//32 19//33
f  16//34 38//34 39//34
f  38//34 16//34 17//35
f  13//36 39//36 40//36
f  39//36 13//36 16//37
f  30//38 13//38 40//38
f  13//38 30//38 14//38
f  22//39 24//39 23//39
f  24//39 22//39 21//40
f  24//39 21//40 28//41
f  24//39 28//41 25//42
f  25//42 28//41 26//43
f  26//43 28//41 27//44
f  40//45 29//45 30//45
f  29//45 40//45 31//45
f  31//45 40//45 32//45
f  32//45 40//45 34//45
f  34//45 40//45 35//45
f  35//45 40//45 36//45
f  36//45 40//45 38//45
f  36//45 38//45 37//45
f  38//45 40//45 39//45
f  33//45 32//45 34//45

