# {"id":"BLDG_0003000f00088c9c","idOriginal":"BLDG_0003000f00088c9c","origin":[13.348741764517538,52.5240294565113],"elevation":34.7599983215332}
# Longitude: 13.348741764517538
# Latitude: 52.5240294565113
# Elevation: 34.7599983215332

# File produced by Open Asset Import Library (http://www.assimp.sf.net)
# (assimp v3.1.0)

mtllib BLDG_0003000f00088c9c.obj.mtl

# 18 vertex positions
v  14.1814 -2.27318e-16 3.71238
v  14.0469 22.3567 4.38663
v  14.1818 22.3567 3.71167
v  13.669 22.3567 6.27691
v  13.6685 -3.84393e-16 6.27762
v  14.0464 -2.68647e-16 4.38734
v  16.4685 22.3567 -7.72635
v  17.4676 7.79229e-16 -12.7258
v  16.468 4.73059e-16 -7.72564
v  17.4681 22.3567 -12.7265
v  30.6987 5.6939e-16 -9.29884
v  25.6552 22.3567 9.48527
v  25.6548 -5.80849e-16 9.48598
v  30.6991 22.3567 -9.29955
v  0.000476051 22.3567 -0.00070717
v  0 0 0
v  2.93052 6.83156e-16 -11.1568
v  2.931 22.3567 -11.1575

# 0 UV coordinates

# 25 vertex normals
vn -0.980597 1.47141e-05 -0.196036
vn -0.980597 1.47198e-05 -0.196036
vn -0.980597 1.46723e-05 -0.196035
vn 1.26883e-16 1 7.93016e-17
vn -0.980597 1.46305e-05 -0.196035
vn -0.980597 1.47099e-05 -0.196036
vn 0.96579 -1.23168e-05 0.259324
vn 0.96579 -1.23869e-05 0.259324
vn -0.258568 3.6056e-05 0.965993
vn -0.258568 3.60285e-05 0.965993
vn 0.250733 -3.59884e-05 -0.968056
vn -0.253245 3.599e-05 0.967402
vn -0.253245 3.60016e-05 0.967402
vn -0.967191 1.2559e-05 -0.254049
vn -0.967191 1.25574e-05 -0.254049
vn 0.245687 -3.58699e-05 -0.969349
vn 0.245687 -3.58801e-05 -0.969349
vn 0 1 0
vn 1.14122e-24 -1 -6.12323e-17
vn 1.63277e-24 -1 -6.12323e-17
vn -5.86446e-24 -1 -6.12323e-17
vn 0 -1 -6.12323e-17
vn -1.55282e-23 -1 -6.12323e-17
vn 0 -1 -6.12323e-17
vn 2.62907e-24 -1 -6.12323e-17

# Mesh 'defaultobject' with 32 faces
g defaultobject
usemtl DefaultMaterial
f  1//1 2//1 3//1
f  2//1 1//1 4//2
f  4//2 1//1 5//3
f  5//4 1//4 6//4
f  7//5 8//5 9//5
f  8//5 7//5 10//6
f  11//7 12//7 13//7
f  12//7 11//7 14//8
f  13//9 4//9 5//9
f  4//9 13//9 12//10
f  10//11 11//11 8//11
f  11//11 10//11 14//11
f  1//12 15//12 16//12
f  15//12 1//12 3//13
f  15//14 17//14 16//14
f  17//14 15//14 18//15
f  18//16 9//16 17//16
f  9//16 18//16 7//17
f  12//18 2//18 4//18
f  2//18 12//18 3//18
f  3//18 12//18 18//18
f  18//18 12//18 7//18
f  7//18 12//18 14//18
f  7//18 14//18 10//18
f  18//18 15//18 3//18
f  11//19 9//19 8//19
f  9//19 11//19 13//20
f  9//19 13//20 1//21
f  9//19 1//21 16//22
f  1//21 13//20 6//23
f  6//23 13//20 5//24
f  16//22 17//25 9//19

