# {"id":"BLDG_0003000f00243ee9","idOriginal":"BLDG_0003000f00243ee9","origin":[13.354878973324709,52.560681497219235],"elevation":39.7799987792969}
# Longitude: 13.354878973324709
# Latitude: 52.560681497219235
# Elevation: 39.7799987792969

# File produced by Open Asset Import Library (http://www.assimp.sf.net)
# (assimp v3.1.0)

mtllib BLDG_0003000f00243ee9.obj.mtl

# 17 vertex positions
v  5.61882 9.0955e-17 -1.48541
v  0.768603 -1.77517e-16 2.89907
v  0 0 0
v  4.14148 -9.56518e-16 15.6211
v  9.7603 -8.65563e-16 14.1357
v  11.2376 1.8191e-16 -2.97081
v  12.0062 4.39295e-18 -0.0717422
v  15.3791 -7.74608e-16 12.6503
v  0.000305189 14.3255 -0.00045423
v  11.2379 14.3255 -2.97127
v  5.61922 19.0178 -1.48601
v  15.3794 14.3255 12.6499
v  4.14179 14.3255 15.6207
v  9.7607 19.0178 14.1351
v  0.768908 14.3255 2.89862
v  12.0065 14.3255 -0.0721965
v  6.38783 19.0178 1.41306

# 0 UV coordinates

# 28 vertex normals
vn 1.51854e-24 -1 -6.12323e-17
vn -2.76833e-24 -1 -6.12323e-17
vn 7.89099e-24 -1 -6.12323e-17
vn -1.80365e-23 -1 -6.12323e-17
vn 0 -1 -6.12323e-17
vn -1.38417e-24 -1 -6.12323e-17
vn -0.255583 -2.52099e-05 -0.966787
vn -0.255583 -2.52229e-05 -0.966787
vn -0.255583 -2.51902e-05 -0.966787
vn -0.255583 -2.52486e-05 -0.966787
vn 0.255583 2.51911e-05 0.966787
vn 0.255583 2.51198e-05 0.966787
vn 0.255583 2.52555e-05 0.966787
vn 0.255583 2.51786e-05 0.966787
vn -0.966606 2.87182e-05 0.256267
vn -0.966606 2.87146e-05 0.256267
vn -0.966606 2.87294e-05 0.256267
vn 0.970143 0 -0.242536
vn 0.966606 -2.87809e-05 -0.256267
vn 0.966606 -2.87804e-05 -0.256267
vn 0.966606 -2.84114e-05 -0.256267
vn 0.966606 -2.87123e-05 -0.256267
vn -0.607199 0.778071 0.160981
vn -0.607199 0.778071 0.160981
vn -0.607199 0.778071 0.160981
vn 0.607216 0.778057 -0.160985
vn 0.607216 0.778057 -0.160985
vn 0.607216 0.778057 -0.160985

# Mesh 'defaultobject' with 30 faces
g defaultobject
usemtl DefaultMaterial
f  1//1 2//1 3//1
f  2//1 1//1 4//2
f  4//2 1//1 5//3
f  5//3 1//1 6//4
f  5//3 6//4 7//5
f  5//3 7//5 8//6
f  9//7 1//7 3//7
f  1//7 9//7 6//8
f  6//8 9//7 10//9
f  10//9 9//7 11//10
f  12//11 5//11 8//11
f  5//11 12//11 4//12
f  4//12 12//11 13//13
f  13//13 12//11 14//14
f  3//15 15//15 9//15
f  15//15 3//15 13//16
f  13//16 3//15 4//17
f  4//18 3//18 2//18
f  10//19 7//19 6//19
f  7//19 10//19 8//20
f  8//20 10//19 16//21
f  8//20 16//21 12//22
f  9//23 17//23 11//23
f  17//23 9//23 14//24
f  14//24 9//23 13//25
f  13//13 9//15 15//15
f  11//26 16//26 10//26
f  16//26 11//26 12//27
f  12//27 11//26 14//28
f  14//24 11//10 17//23

