# {"id":"BLDG_00030000001ef6fb","idOriginal":"BLDG_00030000001ef6fb","origin":[13.378130570425274,52.551523018052116],"elevation":39.2299995422363}
# Longitude: 13.378130570425274
# Latitude: 52.551523018052116
# Elevation: 39.2299995422363

# File produced by Open Asset Import Library (http://www.assimp.sf.net)
# (assimp v3.1.0)

mtllib BLDG_00030000001ef6fb.obj.mtl

# 22 vertex positions
v  21.9332 17.6281 -2.49852
v  16.6363 20.0578 7.39896
v  24.2988 20.0578 -0.0909647
v  14.2797 17.6281 4.98263
v  20.9785 20.6431 11.8513
v  28.6576 20.6431 4.34522
v  23.9648 17.6281 14.9135
v  31.6552 17.6281 7.39633
v  9.45741 20.4558 9.69623
v  11.814 20.0578 12.1126
v  16.1562 20.6431 16.565
v  19.1425 17.6281 19.6272
v  0.000436426 20.4558 -0.00064821
v  4.78568 17.6281 -4.75219
v  21.9328 1.52956e-16 -2.49796
v  14.2793 -3.05132e-16 4.98319
v  31.6549 -4.52928e-16 7.39688
v  23.9645 -9.13223e-16 14.9141
v  19.1422 -1.20185e-15 19.6278
v  9.45697 -5.93762e-16 9.69688
v  0 0 0
v  4.78531 2.90954e-16 -4.75163

# 0 UV coordinates

# 38 vertex normals
vn -0.408369 0.8116 -0.417779
vn -0.408368 0.811601 -0.417779
vn -0.0655 0.9956 -0.0670096
vn -0.0655004 0.9956 -0.0670097
vn 0.402723 0.817354 0.412003
vn 0.402722 0.817355 0.412003
vn 0.350792 0.916751 -0.191083
vn -0.408368 0.811601 -0.417779
vn -0.0655003 0.9956 -0.0670097
vn -0.0655003 0.9956 -0.0670097
vn 0.402722 0.817355 0.412002
vn 0.402722 0.817355 0.412002
vn 0.276849 0.922201 -0.27
vn 0.276849 0.922201 -0.27
vn -0.699007 -7.71417e-06 -0.715115
vn -0.699007 -7.76165e-06 -0.715115
vn 0.713308 -3.74134e-05 -0.700851
vn 0.713308 -3.7404e-05 -0.700851
vn 0.713308 -3.78039e-05 -0.700851
vn 0.713308 -3.76008e-05 -0.700851
vn 0.699007 7.76725e-06 0.715115
vn 0.699007 7.74713e-06 0.715115
vn 0.699007 7.7819e-06 0.715115
vn -0.715907 3.73941e-05 0.698195
vn -0.715907 3.74208e-05 0.698195
vn -0.715907 3.74619e-05 0.698195
vn -0.715907 3.67933e-05 0.698195
vn -0.715907 3.74208e-05 0.698195
vn -0.715907 3.73985e-05 0.698195
vn -0.704606 -7.45318e-06 -0.709599
vn -0.704606 -7.45807e-06 -0.709599
vn 0.715907 -3.743e-05 -0.698195
vn 0.715907 -3.74618e-05 -0.698195
vn -7.09752e-25 -1 -6.12323e-17
vn 7.1317e-25 -1 -6.12323e-17
vn 6.79128e-24 -1 -6.12323e-17
vn 0 -1 -6.12323e-17
vn 0 -1 -6.12323e-17

# Mesh 'defaultobject' with 40 faces
g defaultobject
usemtl DefaultMaterial
f  1//1 2//1 3//1
f  2//1 1//1 4//2
f  3//3 5//3 6//3
f  5//3 3//3 2//4
f  6//5 7//5 8//5
f  7//5 6//5 5//6
f  9//7 10//7 4//7
f  10//8 2//1 4//2
f  10//9 5//3 2//4
f  5//3 10//9 11//10
f  11//11 7//5 5//6
f  7//5 11//11 12//12
f  4//13 13//13 9//13
f  13//13 4//13 14//14
f  4//15 15//15 16//15
f  15//15 4//15 1//16
f  1//17 17//17 15//17
f  17//17 1//17 8//18
f  8//18 1//17 3//19
f  8//18 3//19 6//20
f  17//21 7//21 18//21
f  7//21 17//21 8//22
f  18//21 12//23 19//23
f  12//23 18//21 7//21
f  12//24 20//24 19//24
f  20//24 12//24 9//25
f  9//25 12//24 10//26
f  10//26 12//24 11//27
f  9//25 21//28 20//24
f  21//28 9//25 13//29
f  13//30 22//30 21//30
f  22//30 13//30 14//31
f  22//32 4//32 16//32
f  4//32 22//32 14//33
f  16//34 17//34 18//34
f  17//34 16//34 15//35
f  20//36 18//34 19//36
f  18//34 20//36 16//34
f  21//37 16//34 20//36
f  16//34 21//37 22//38

