# {"id":"BLDG_0003000a001ecc4a","idOriginal":"BLDG_0003000a001ecc4a","origin":[13.38648825986137,52.55801442946197],"elevation":40.8800010681152}
# Longitude: 13.38648825986137
# Latitude: 52.55801442946197
# Elevation: 40.8800010681152

# File produced by Open Asset Import Library (http://www.assimp.sf.net)
# (assimp v3.1.0)

mtllib BLDG_0003000a001ecc4a.obj.mtl

# 21 vertex positions
v  25.751 -3.84109e-16 6.27298
v  18.496 -5.71122e-16 9.32712
v  21.1172 -2.41025e-16 3.93623
v  23.1298 -7.14206e-16 11.6639
v  0 0 0
v  2.70062 3.27644e-16 -5.35084
v  16.1241 -8.69821e-16 14.2052
v  20.7473 -1.01425e-15 16.5639
v  18.4961 5.9285 9.32694
v  19.8067 6.37289 6.63148
v  18.4961 6.81729 9.32691
v  21.1173 5.9285 3.93604
v  25.7511 5.9285 6.27279
v  23.1299 5.9285 11.6637
v  2.70076 6.81729 -5.35106
v  21.1173 6.81729 3.93602
v  0.000126554 5.9285 -0.00018794
v  16.1242 5.9285 14.2051
v  20.7474 5.9285 16.5637
v  21.9387 6.81729 14.1137
v  19.7344 6.81729 12.9956

# 0 UV coordinates

# 31 vertex normals
vn 2.5529e-24 -1 -6.12323e-17
vn -2.5529e-24 -1 -6.12323e-17
vn 0 -1 -6.12323e-17
vn -8.46374e-24 -1 -6.12323e-17
vn -9.36214e-24 -1 -6.12323e-17
vn 0.899327 -5.22364e-06 0.437276
vn 0.450267 -3.78567e-05 -0.892894
vn 0.899327 -5.23296e-06 0.437276
vn -0.450267 3.8405e-05 0.892894
vn 0.450267 -3.79754e-05 -0.892894
vn 0.450267 -3.78657e-05 -0.892894
vn -0.899327 5.45824e-06 -0.437276
vn -0.450267 3.78964e-05 0.892894
vn -0.892739 4.77339e-06 -0.450573
vn -0.892739 4.76828e-06 -0.450573
vn -0.899327 5.52827e-06 -0.437276
vn -0.899327 5.23895e-06 -0.437276
vn 0.899327 -5.23895e-06 0.437276
vn 0.899327 -5.1686e-06 0.437276
vn 0.899327 -5.71108e-06 0.437276
vn -0.45445 3.80299e-05 0.890772
vn -0.45445 3.80299e-05 0.890772
vn 0.0660469 0.989183 -0.130973
vn 0.151825 0.985647 0.0738215
vn -0.0660462 0.989184 0.130972
vn -0.0660462 0.989184 0.130972
vn -0.279535 0.950467 -0.135917
vn 0.140324 0.95067 -0.276651
vn 0.139939 0.950478 -0.277503
vn -0.140974 0.950668 0.276325
vn -0.140889 0.950261 0.277766

# Mesh 'defaultobject' with 35 faces
g defaultobject
usemtl DefaultMaterial
f  1//1 2//1 3//1
f  2//1 1//1 4//2
f  3//1 5//3 6//3
f  5//3 3//1 2//1
f  4//2 7//4 2//1
f  7//4 4//2 8//5
f  9//6 10//6 11//6
f  12//7 1//7 3//7
f  1//7 12//7 13//7
f  1//8 14//8 4//8
f  14//8 1//8 13//8
f  11//9 9//9 14//9
f  15//10 3//7 6//10
f  3//7 15//10 16//11
f  12//12 10//12 16//12
f  2//13 17//13 5//13
f  17//13 2//13 9//9
f  17//14 6//14 5//14
f  6//14 17//14 15//15
f  18//16 2//16 7//16
f  2//16 18//16 9//17
f  14//8 8//18 4//8
f  8//18 14//8 19//19
f  19//19 14//8 20//20
f  8//21 18//21 7//21
f  18//21 8//21 19//22
f  12//23 11//23 13//23
f  13//24 11//24 14//24
f  9//25 15//25 17//25
f  15//25 9//25 16//26
f  21//27 9//27 18//27
f  14//28 21//28 20//28
f  21//29 14//29 9//29
f  20//30 18//30 19//30
f  18//31 20//31 21//31

