# {"id":"BLDG_0003000a0053657b","idOriginal":"BLDG_0003000a0053657b","origin":[13.398245722862214,52.532028876093015],"elevation":34.6800003051758}
# Longitude: 13.398245722862214
# Latitude: 52.532028876093015
# Elevation: 34.6800003051758

# File produced by Open Asset Import Library (http://www.assimp.sf.net)
# (assimp v3.1.0)

mtllib BLDG_0003000a0053657b.obj.mtl

# 9 vertex positions
v  0.115498 22.2498 10.3951
v  0 0 0
v  0.115023 -6.3656e-16 10.3958
v  0.000475286 22.2498 -0.00070413
v  12.7212 1.86331e-17 -0.304302
v  12.7217 22.2498 -0.305006
v  12.8367 22.2498 10.0908
v  12.8363 -6.17926e-16 10.0915
v  6.41868 25.7498 5.04494

# 0 UV coordinates

# 13 vertex normals
vn -0.999939 2.171e-05 0.0110637
vn -0.999939 2.17101e-05 0.0110637
vn -0.0239139 -3.11266e-05 -0.999714
vn -0.0239139 -3.11261e-05 -0.999714
vn 0.999939 -2.1694e-05 -0.0110637
vn 0.999939 -2.1694e-05 -0.0110637
vn 0.023914 3.11128e-05 0.999714
vn -0.481983 0.876165 0.00533281
vn -0.013357 0.829474 -0.558385
vn 0.481991 0.87616 -0.00533291
vn 0.0133566 0.829485 0.558369
vn -6.40321e-24 -1 -6.12323e-17
vn 0 -1 -6.12323e-17

# Mesh 'defaultobject' with 14 faces
g defaultobject
usemtl DefaultMaterial
f  1//1 2//1 3//1
f  2//1 1//1 4//2
f  4//3 5//3 2//3
f  5//3 4//3 6//4
f  5//5 7//5 8//5
f  7//5 5//5 6//6
f  8//7 1//7 3//7
f  1//7 8//7 7//7
f  9//8 4//8 1//8
f  6//9 4//9 9//9
f  9//10 7//10 6//10
f  1//11 7//11 9//11
f  2//12 8//12 3//12
f  8//12 2//12 5//13

