# {"id":"BLDG_0003000f003e74ef","idOriginal":"BLDG_0003000f003e74ef","origin":[13.361103088426866,52.554440784649],"elevation":37.8899993896484}
# Longitude: 13.361103088426866
# Latitude: 52.554440784649
# Elevation: 37.8899993896484

# File produced by Open Asset Import Library (http://www.assimp.sf.net)
# (assimp v3.1.0)

mtllib BLDG_0003000f003e74ef.obj.mtl

# 21 vertex positions
v  0.000479529 22.5004 -0.00071314
v  1.98175 1.25635e-17 -0.205178
v  0 0 0
v  8.37027 5.30643e-17 -0.866605
v  14.7588 9.3565e-17 -1.52803
v  14.7592 19.71 -1.52866
v  8.37075 22.5004 -0.867319
v  1.98223 22.5004 -0.205891
v  16.4091 19.71 14.2439
v  10.0202 -9.12725e-16 14.9059
v  16.4087 -8.72224e-16 14.2445
v  3.63166 -9.53226e-16 15.5674
v  3.63208 19.71 15.5667
v  10.0207 22.5004 14.9052
v  15.404 -2.84135e-16 4.64027
v  15.4045 19.71 4.63965
v  2.62699 -3.65136e-16 5.96313
v  2.62741 19.71 5.9625
v  0.571495 19.71 6.17536
v  0.571075 -3.7817e-16 6.17598
v  9.016 22.5004 5.30098

# 0 UV coordinates

# 32 vertex normals
vn -0.102983 -2.93313e-05 -0.994683
vn -0.102983 -2.93304e-05 -0.994683
vn -0.102983 -2.93314e-05 -0.994683
vn -0.102983 -2.9324e-05 -0.994683
vn 0 -1 0
vn 0.102983 2.93214e-05 0.994683
vn 0.102983 2.92752e-05 0.994683
vn 0.102983 2.93783e-05 0.994683
vn 0.102983 2.90814e-05 0.994683
vn 0.994573 -2.44712e-05 -0.104038
vn 0.994573 -2.44817e-05 -0.104038
vn 0.994573 -2.45907e-05 -0.104039
vn 0.994573 -2.45675e-05 -0.104038
vn -0.994573 2.44883e-05 0.104038
vn -0.994573 2.44953e-05 0.104038
vn 0.102983 2.93284e-05 0.994683
vn -0.995752 2.41412e-05 0.0920743
vn -0.995752 2.41398e-05 0.0920743
vn -0.396307 0.917182 0.0414561
vn -0.396307 0.917182 0.0414561
vn -0.396307 0.917182 0.0414561
vn 0.396314 0.917179 -0.0414569
vn 0.396314 0.917179 -0.0414569
vn 0.396314 0.917179 -0.0414568
vn 0.396314 0.917179 -0.0414569
vn 0.0422536 0.911952 0.408114
vn 0.0422537 0.911952 0.408115
vn 0.0422536 0.911952 0.408114
vn 0 -1 -6.12323e-17
vn -2.04857e-23 -1 -6.12323e-17
vn 2.13393e-24 -1 -6.12323e-17
vn 1.36571e-23 -1 -6.12323e-17

# Mesh 'defaultobject' with 38 faces
g defaultobject
usemtl DefaultMaterial
f  1//1 2//1 3//1
f  2//1 1//1 4//2
f  4//2 1//1 5//2
f  5//2 1//1 6//3
f  6//3 1//1 7//4
f  7//5 1//5 8//5
f  9//6 10//6 11//6
f  10//6 9//6 12//7
f  12//7 9//6 13//8
f  13//8 9//6 14//9
f  6//10 15//10 5//10
f  15//10 6//10 11//11
f  11//11 6//10 16//12
f  11//11 16//12 9//13
f  13//14 17//14 12//14
f  17//14 13//14 18//15
f  17//16 19//16 20//16
f  19//16 17//16 18//16
f  19//17 3//17 20//17
f  3//17 19//17 1//18
f  18//19 21//19 7//19
f  21//19 18//19 14//20
f  14//20 18//19 13//21
f  7//22 16//22 6//22
f  16//22 7//22 9//23
f  9//23 7//22 21//24
f  9//23 21//24 14//25
f  8//26 18//26 7//26
f  18//26 8//26 19//27
f  19//27 8//26 1//28
f  3//29 17//29 20//29
f  17//29 10//30 12//30
f  10//30 17//29 11//31
f  11//31 17//29 3//29
f  11//31 3//29 2//29
f  11//31 2//29 4//29
f  11//31 4//29 15//32
f  15//32 4//29 5//29

