# {"id":"BLDG_0003000f00248a84","idOriginal":"BLDG_0003000f00248a84","origin":[13.383094241822418,52.519388656068166],"elevation":30.7900009155273}
# Longitude: 13.383094241822418
# Latitude: 52.519388656068166
# Elevation: 30.7900009155273

# File produced by Open Asset Import Library (http://www.assimp.sf.net)
# (assimp v3.1.0)

mtllib BLDG_0003000f00248a84.obj.mtl

# 166 vertex positions
v  31.9566 28.5539 -14.8129
v  41.683 28.5539 -18.9183
v  41.5641 28.5539 -19.1805
v  6.88568 28.5539 79.4834
v  12.8514 28.5539 76.9146
v  5.52124 28.5539 64.1059
v  13.0276 28.5539 79.6234
v  6.94201 28.5539 80.1155
v  18.2089 28.5539 79.3113
v  24.4458 28.5539 75.9298
v  17.9585 28.5539 76.4985
v  24.7215 28.5539 78.7937
v  29.8615 28.5539 78.0218
v  37.543 28.5539 74.7722
v  29.6006 28.5539 75.4743
v  37.804 28.5539 77.3521
v  42.5772 28.5539 76.962
v  49.4 28.5539 73.7131
v  42.3499 28.5539 74.348
v  49.7075 28.5539 76.2206
v  54.4819 28.5539 -5.97194
v  53.2449 28.5539 -24.166
v  29.3586 28.5539 -13.6313
v  27.9119 28.5539 -12.9729
v  25.2283 28.5539 -11.7533
v  23.8253 28.5539 -11.1147
v  21.1763 28.5539 -9.91033
v  11.5318 28.5539 -5.52509
v  11.6413 28.5539 -5.28376
v  0.000609341 28.5539 -0.00090288
v  0.995709 28.5539 11.853
v  55.376 28.5539 7.37285
v  1.02999 28.5539 12.2644
v  3.00475 28.5539 35.7254
v  56.1959 28.5539 19.7098
v  58.1312 28.5539 45.5051
v  58.783 28.5539 54.1978
v  54.8418 28.5539 73.1502
v  60.7374 28.5539 75.2336
v  55.0959 28.5539 75.8013
v  21.1757 6.06777e-16 -9.90943
v  11.6407 3.23482e-16 -5.28286
v  11.5312 3.38259e-16 -5.52418
v  58.7824 -3.31871e-15 54.1987
v  54.8412 -4.47921e-15 73.1511
v  49.3994 -4.51368e-15 73.714
v  60.7368 -4.60679e-15 75.2345
v  55.0953 -4.64155e-15 75.8022
v  0.995099 -7.25843e-16 11.8539
v  0 0 0
v  1.02938 -7.51033e-16 12.2653
v  3.00414 -2.1876e-15 35.7263
v  23.8247 6.80525e-16 -11.1138
v  25.2277 7.19624e-16 -11.7524
v  27.9113 7.94303e-16 -12.9719
v  29.358 8.34622e-16 -13.6304
v  31.956 9.06971e-16 -14.812
v  5.52063 -3.92541e-15 64.1068
v  41.5634 1.17441e-15 -19.1796
v  41.6824 1.15835e-15 -18.9173
v  53.2443 1.47968e-15 -24.1651
v  54.4813 3.6562e-16 -5.97104
v  6.88507 -4.86701e-15 79.4843
v  55.3754 -4.51512e-16 7.37375
v  6.9414 -4.90572e-15 80.1164
v  12.8508 -4.70972e-15 76.9155
v  17.9578 -4.68424e-15 76.4994
v  56.1953 -1.20693e-15 19.7107
v  18.2083 -4.85647e-15 79.3122
v  24.4452 -4.64942e-15 75.9307
v  29.6 -4.62153e-15 75.4752
v  58.1306 -2.78644e-15 45.506
v  29.8609 -4.77751e-15 78.0227
v  37.5424 -4.57853e-15 74.7731
v  42.3493 -4.55256e-15 74.3489
v  42.5766 -4.71262e-15 76.9629
v  49.7069 -4.66722e-15 76.2215
v  37.8033 -4.7365e-15 77.353
v  24.7209 -4.82478e-15 78.7946
v  13.0269 -4.87558e-15 79.6243
v  46.2438 -4.97565e-16 8.12586
v  31.4696 28.5539 9.34278
v  31.469 -5.72136e-16 9.34368
v  46.2444 28.5539 8.12496
v  48.0902 28.5539 30.4086
v  48.0896 -1.86205e-15 30.4095
v  12.3032 28.5539 33.5501
v  12.3026 -2.05441e-15 33.551
v  10.5925 -6.77454e-16 11.0637
v  10.5931 28.5539 11.0628
v  28.6113 -5.8652e-16 9.5786
v  28.6119 28.5539 9.5777
v  47.2801 28.5539 -9.19951
v  45.2396 6.6451e-16 -10.8523
v  47.2795 5.63253e-16 -9.19861
v  45.2402 28.5539 -10.8532
v  47.6842 28.5539 -1.59967
v  47.6836 9.78963e-17 -1.59877
v  38.538 28.5539 -0.722728
v  38.5373 4.4199e-17 -0.721825
v  36.1427 3.84778e-16 -6.2839
v  36.1434 28.5539 -6.2848
v  54.6912 -2.01944e-15 32.98
v  49.4565 28.5539 33.4971
v  49.4559 -2.05116e-15 33.498
v  54.6918 28.5539 32.9791
v  54.9097 28.5539 35.1907
v  54.9091 -2.15486e-15 35.1916
v  49.675 28.5539 35.7081
v  49.6744 -2.18655e-15 35.709
v  18.0157 28.5539 68.3563
v  24.0179 -4.14876e-15 67.7543
v  18.0151 -4.18567e-15 68.3572
v  24.0185 28.5539 67.7534
v  15.2247 -4.06209e-15 66.339
v  15.2253 28.5539 66.3381
v  13.9428 -2.96494e-15 48.4211
v  13.9434 28.5539 48.4202
v  22.4128 -2.92309e-15 47.7376
v  22.4134 28.5539 47.7367
v  41.0594 -2.8309e-15 46.2321
v  41.06 28.5539 46.2312
v  48.3918 -2.79464e-15 45.6399
v  48.3924 28.5539 45.639
v  49.7092 -2.82117e-15 46.0732
v  49.7098 28.5539 46.0723
v  51.2953 28.5539 62.8229
v  51.2947 -3.84685e-15 62.8238
v  48.8168 28.5539 65.7126
v  48.8162 -4.02379e-15 65.7135
v  46.7446 28.5539 65.913
v  46.744 -4.03606e-15 65.9139
v  42.8651 28.5539 66.2914
v  42.8645 -4.05923e-15 66.2923
v  42.6665 -3.9244e-15 64.0902
v  42.6671 28.5539 64.0893
v  23.8579 28.5539 65.7406
v  23.8572 -4.02551e-15 65.7415
v  7.31919 -2.64858e-15 43.2546
v  7.51936 28.5539 45.2752
v  7.51875 -2.77236e-15 45.2761
v  7.3198 28.5539 43.2537
v  12.6217 -2.61649e-15 42.7306
v  12.6223 28.5539 42.7297
v  12.8219 28.5539 44.7505
v  12.8213 -2.74023e-15 44.7514
v  55.3368 28.5539 41.0644
v  55.1382 -2.3918e-15 39.061
v  55.3362 -2.51453e-15 41.0653
v  55.1388 28.5539 39.0601
v  50.2098 28.5539 41.5717
v  50.2092 -2.54559e-15 41.5726
v  50.0099 -2.42286e-15 39.5682
v  50.0105 28.5539 39.5673
v  6.85775 -2.29714e-15 37.5151
v  7.09326 28.5539 39.8915
v  7.09265 -2.44271e-15 39.8924
v  6.85836 28.5539 37.5142
v  12.0447 -2.26577e-15 37.0029
v  12.0453 28.5539 37.002
v  12.1984 28.5539 38.549
v  12.1978 -2.3605e-15 38.5499
v  11.3387 28.5539 38.6339
v  11.338 -2.3657e-15 38.6348
v  11.4205 28.5539 39.4643
v  11.4199 -2.41654e-15 39.4652

# 0 UV coordinates

# 175 vertex normals
vn 0 1 0
vn 0 -1 -6.12323e-17
vn 5.03603e-23 -1 -6.12323e-17
vn -3.53088e-23 -1 -6.12323e-17
vn 1.75293e-23 -1 -6.12325e-17
vn -2.95658e-24 -1 -6.12324e-17
vn 1.06583e-22 -1 -6.12323e-17
vn -5.97331e-24 -1 -6.12323e-17
vn 0 -1 -6.12323e-17
vn 2.5852e-22 -1 -6.12322e-17
vn 0 -1 -6.12324e-17
vn 0 -1 -6.12323e-17
vn 0 -1 -6.12323e-17
vn -1.42832e-23 -1 -6.12323e-17
vn -4.21703e-23 -1 -6.12324e-17
vn -3.51943e-23 -1 -6.12324e-17
vn 5.5459e-23 -1 -6.12323e-17
vn 1.59722e-23 -1 -6.12323e-17
vn 3.8092e-23 -1 -6.12323e-17
vn 2.25704e-22 -1 -6.12322e-17
vn 7.39671e-23 -1 -6.12323e-17
vn -1.78842e-23 -1 -6.12323e-17
vn -1.87805e-22 -1 -6.12325e-17
vn 1.0097e-22 -1 -6.12323e-17
vn -7.69084e-25 -1 -6.12323e-17
vn 0 -1 -6.12323e-17
vn 6.83922e-23 -1 -6.12323e-17
vn 8.04594e-24 -1 -6.12323e-17
vn -2.52763e-23 -1 -6.12324e-17
vn -8.46376e-23 -1 -6.12324e-17
vn 1.0233e-23 -1 -6.12323e-17
vn -4.45116e-23 -1 -6.12325e-17
vn 1.23235e-22 -1 -6.12322e-17
vn 3.15472e-23 -1 -6.12324e-17
vn -0.996495 2.3911e-05 0.0836527
vn -0.996495 2.39103e-05 0.0836527
vn -0.996545 2.38951e-05 0.0830513
vn -0.996545 2.3893e-05 0.0830514
vn -0.996476 2.39225e-05 0.0838754
vn -0.996476 2.39197e-05 0.0838754
vn -0.996092 2.40433e-05 0.0883232
vn -0.996092 2.40551e-05 0.0883232
vn -0.996087 2.40451e-05 0.0883823
vn -0.996053 2.40562e-05 0.0887576
vn 0.0805987 2.97057e-05 0.996747
vn 0.997893 -2.33426e-05 -0.0648771
vn 0.997893 -2.33598e-05 -0.0648769
vn 0.0812101 2.99563e-05 0.996697
vn 0.0812086 2.9689e-05 0.996697
vn -0.99606 2.40206e-05 0.0886802
vn -0.99606 2.40872e-05 0.0886796
vn 0.0792162 2.97417e-05 0.996857
vn 0.0792162 2.97353e-05 0.996857
vn 0.995399 -2.42979e-05 -0.0958216
vn 0.995399 -2.42572e-05 -0.095822
vn 0.0880188 2.97971e-05 0.996119
vn 0.0880173 2.95244e-05 0.996119
vn -0.994794 2.44379e-05 0.101906
vn -0.994794 2.44771e-05 0.101905
vn 0.0840289 2.98914e-05 0.996463
vn 0.0840289 2.98872e-05 0.996463
vn 0.994923 -2.44666e-05 -0.100639
vn 0.0879196 2.97926e-05 0.996128
vn 0.087918 2.95261e-05 0.996128
vn -0.996239 2.40269e-05 0.0866471
vn 0.103416 2.91492e-05 0.994638
vn 0.103417 2.94148e-05 0.994638
vn 0.992565 -2.50872e-05 -0.121719
vn 0.102896 2.94288e-05 0.994692
vn 0.102896 2.94425e-05 0.994692
vn -0.995438 2.42861e-05 0.0954115
vn -0.995438 2.41786e-05 0.0954126
vn 0.100119 2.92303e-05 0.994975
vn 0.995712 -2.42006e-05 -0.0925082
vn 0.9972 -2.36725e-05 -0.0747756
vn 0.997198 -2.36745e-05 -0.0748126
vn 0.997198 -2.36848e-05 -0.0748126
vn 0.997799 -2.34281e-05 -0.0663131
vn 0.997799 -2.34227e-05 -0.0663131
vn 0.997763 -2.34386e-05 -0.0668507
vn 0.997763 -2.33062e-05 -0.0668509
vn 0.997697 -2.33368e-05 -0.067833
vn 0.997697 -2.34723e-05 -0.0678328
vn -0.413301 -1.99915e-05 -0.910595
vn -0.413301 -1.99971e-05 -0.910595
vn 0.91076 -3.23932e-05 -0.412937
vn 0.910765 -3.25146e-05 -0.412926
vn -0.41385 -1.9947e-05 -0.910345
vn -0.41385 -1.99166e-05 -0.910345
vn -0.413996 -1.99695e-05 -0.910279
vn -0.413996 -1.99418e-05 -0.910279
vn -0.414244 -1.99606e-05 -0.910166
vn -0.413752 -1.99782e-05 -0.91039
vn -0.414231 -1.99307e-05 -0.910172
vn -0.414232 -1.99611e-05 -0.910172
vn -0.41388 -1.9946e-05 -0.910331
vn -0.41388 -1.99432e-05 -0.910331
vn -0.413913 -1.99724e-05 -0.910316
vn -0.413913 -1.99448e-05 -0.910316
vn 0.0821471 2.97698e-05 0.99662
vn 0.0821471 2.97743e-05 0.99662
vn -0.996587 2.39162e-05 0.082549
vn -0.996587 2.37803e-05 0.0825492
vn -0.0874474 -2.96747e-05 -0.996169
vn -0.0874474 -2.96718e-05 -0.996169
vn 0.997121 -2.36835e-05 -0.075828
vn 0.997121 -2.36776e-05 -0.075828
vn 0.0821391 2.97675e-05 0.996621
vn 0.0819311 2.9771e-05 0.996638
vn 0.0819312 2.97768e-05 0.996638
vn -0.629729 3.80046e-05 0.776815
vn -0.629729 3.80306e-05 0.776815
vn -0.99859 2.30242e-05 0.0530949
vn -0.998589 2.30228e-05 0.0530949
vn -0.0954427 -2.94361e-05 -0.995435
vn 0.918495 -3.2138e-05 -0.395433
vn 0.448782 1.86493e-05 0.893641
vn 0.448782 1.86624e-05 0.893641
vn 0.0984693 2.94036e-05 0.99514
vn 0.0984687 2.92846e-05 0.99514
vn -0.995181 2.4364e-05 0.0980573
vn -0.995181 2.42311e-05 0.098059
vn -0.0983682 -2.94061e-05 -0.99515
vn -0.0983674 -2.92732e-05 -0.99515
vn 0.995151 -2.43861e-05 -0.0983608
vn -0.0999354 -2.95073e-05 -0.994994
vn -0.0999341 -2.92348e-05 -0.994994
vn 0.586062 -3.82506e-05 -0.810266
vn 0.586062 -3.827e-05 -0.810266
vn 0.99745 -2.35568e-05 -0.0713626
vn 0.99745 -2.35457e-05 -0.0713626
vn 0.0804382 2.98419e-05 0.99676
vn 0.0804382 2.98459e-05 0.99676
vn 0.0804752 2.98476e-05 0.996757
vn 0.0804752 2.98404e-05 0.996757
vn 0.0805098 2.9838e-05 0.996754
vn -0.312485 3.67565e-05 0.949923
vn -0.312488 3.663e-05 0.949922
vn -0.99555 2.42513e-05 0.0942314
vn -0.75904 -4.30181e-06 -0.651044
vn -0.096278 -2.93372e-05 -0.995354
vn -0.0962778 -2.93243e-05 -0.995354
vn -0.0970821 -2.93046e-05 -0.995276
vn -0.0970822 -2.93176e-05 -0.995276
vn 0.995984 -2.41123e-05 -0.0895343
vn -0.0874551 -2.95444e-05 -0.996168
vn -0.087455 -2.95385e-05 -0.996168
vn -0.996829 2.38164e-05 0.0795706
vn -0.996829 2.37498e-05 0.0795715
vn 0.995162 -2.43496e-05 -0.0982445
vn 0.995162 -2.43363e-05 -0.0982447
vn 0.0983557 2.92755e-05 0.995151
vn -0.995159 2.43505e-05 0.0982797
vn -0.995159 2.43373e-05 0.0982799
vn -0.0984689 -2.94069e-05 -0.99514
vn -0.995153 2.42524e-05 0.0983361
vn -0.995153 2.43722e-05 0.0983344
vn -0.0984593 -2.94039e-05 -0.995141
vn -0.0984594 -2.9417e-05 -0.995141
vn 0.995094 -2.44027e-05 -0.0989335
vn 0.0984325 2.94048e-05 0.995144
vn 0.0984318 2.9272e-05 0.995144
vn 0.995154 -2.43513e-05 -0.0983315
vn 0.0982769 2.94122e-05 0.995159
vn 0.0982762 2.92792e-05 0.995159
vn -0.995141 2.43557e-05 0.0984557
vn -0.995141 2.43425e-05 0.0984559
vn -0.098338 -2.92772e-05 -0.995153
vn -0.0983423 -2.941e-05 -0.995153
vn -0.995176 2.43452e-05 0.098101
vn -0.995176 2.43321e-05 0.0981015
vn -0.0982639 -2.9412e-05 -0.99516
vn -0.910589 3.2476e-05 0.413312
vn -0.413259 -1.99748e-05 -0.910613
vn -0.413259 -1.99958e-05 -0.910613

# Mesh 'defaultobject' with 242 faces
g defaultobject
usemtl DefaultMaterial
f  1//1 2//1 3//1
f  4//1 5//1 6//1
f  5//1 4//1 7//1
f  7//1 4//1 8//1
f  9//1 10//1 11//1
f  10//1 9//1 12//1
f  13//1 14//1 15//1
f  14//1 13//1 16//1
f  17//1 18//1 19//1
f  18//1 17//1 20//1
f  2//1 21//1 22//1
f  21//1 2//1 1//1
f  21//1 1//1 23//1
f  21//1 23//1 24//1
f  21//1 24//1 25//1
f  21//1 25//1 26//1
f  21//1 26//1 27//1
f  21//1 27//1 28//1
f  21//1 28//1 29//1
f  21//1 29//1 30//1
f  21//1 30//1 31//1
f  21//1 31//1 32//1
f  32//1 31//1 33//1
f  32//1 33//1 34//1
f  32//1 34//1 35//1
f  35//1 34//1 36//1
f  36//1 34//1 6//1
f  36//1 6//1 37//1
f  37//1 6//1 38//1
f  37//1 38//1 39//1
f  38//1 6//1 5//1
f  38//1 5//1 11//1
f  38//1 11//1 10//1
f  38//1 10//1 15//1
f  38//1 15//1 14//1
f  38//1 14//1 19//1
f  38//1 19//1 18//1
f  39//1 38//1 40//1
f  41//2 42//2 43//2
f  44//3 45//3 46//3
f  45//3 44//3 47//4
f  45//3 47//4 48//5
f  42//2 49//6 50//6
f  49//6 42//2 51//7
f  51//7 42//2 52//8
f  52//8 42//2 41//2
f  52//8 41//2 53//9
f  52//8 53//9 54//10
f  52//8 54//10 55//11
f  52//8 55//11 56//12
f  52//8 56//12 57//13
f  52//8 57//13 58//14
f  58//14 57//13 59//15
f  58//14 59//15 60//11
f  58//14 60//11 61//16
f  58//14 61//16 62//17
f  58//14 62//17 63//18
f  63//18 62//17 64//19
f  63//18 64//19 65//20
f  65//20 64//19 66//21
f  66//21 64//19 67//22
f  67//22 64//19 68//9
f  67//22 68//9 69//23
f  69//23 68//9 70//24
f  70//24 68//9 71//25
f  71//25 68//9 72//26
f  71//25 72//26 73//27
f  73//27 72//26 74//28
f  74//28 72//26 75//29
f  75//29 72//26 44//3
f  75//29 44//3 76//30
f  76//30 44//3 46//3
f  76//30 46//3 77//31
f  78//32 73//27 74//28
f  79//33 69//23 70//24
f  80//34 65//20 66//21
f  31//35 50//35 49//35
f  50//35 31//35 30//36
f  33//37 49//37 51//37
f  49//37 33//37 31//38
f  34//39 51//39 52//39
f  51//39 34//39 33//40
f  6//41 52//41 58//41
f  52//41 6//41 34//42
f  4//43 58//43 63//43
f  58//43 4//43 6//43
f  8//44 63//44 65//44
f  63//44 8//44 4//44
f  80//45 8//45 65//45
f  8//45 80//45 7//45
f  66//46 7//46 80//46
f  7//46 66//46 5//47
f  67//48 5//48 66//48
f  5//48 67//48 11//49
f  9//50 67//50 69//50
f  67//50 9//50 11//51
f  79//52 9//52 69//52
f  9//52 79//52 12//53
f  70//54 12//54 79//54
f  12//54 70//54 10//55
f  71//56 10//56 70//56
f  10//56 71//56 15//57
f  13//58 71//58 73//58
f  71//58 13//58 15//59
f  78//60 13//60 73//60
f  13//60 78//60 16//61
f  74//62 16//62 78//62
f  16//62 74//62 14//62
f  75//63 14//63 74//63
f  14//63 75//63 19//64
f  17//65 75//65 76//65
f  75//65 17//65 19//65
f  77//66 17//66 76//66
f  17//66 77//66 20//67
f  46//68 20//68 77//68
f  20//68 46//68 18//68
f  45//69 18//69 46//69
f  18//69 45//69 38//70
f  40//71 45//71 48//71
f  45//71 40//71 38//72
f  47//73 40//73 48//73
f  40//73 47//73 39//73
f  44//74 39//74 47//74
f  39//74 44//74 37//74
f  72//75 37//75 44//75
f  37//75 72//75 36//75
f  68//76 36//76 72//76
f  36//76 68//76 35//77
f  64//78 35//78 68//78
f  35//78 64//78 32//79
f  62//80 32//80 64//80
f  32//80 62//80 21//81
f  61//82 21//82 62//82
f  21//82 61//82 22//83
f  2//84 61//84 60//84
f  61//84 2//84 22//85
f  59//86 2//86 60//86
f  2//87 59//87 3//87
f  1//88 59//88 57//88
f  59//88 1//88 3//89
f  23//90 57//90 56//90
f  57//90 23//90 1//91
f  24//92 56//92 55//92
f  56//92 24//92 23//92
f  25//93 55//93 54//93
f  55//93 25//93 24//93
f  26//94 54//94 53//94
f  54//94 26//94 25//95
f  27//96 53//96 41//96
f  53//96 27//96 26//97
f  28//98 41//98 43//98
f  41//98 28//98 27//99
f  81//100 82//100 83//100
f  82//100 81//100 84//101
f  85//102 81//102 86//102
f  81//102 85//102 84//103
f  87//104 86//104 88//104
f  86//104 87//104 85//105
f  89//106 87//106 88//106
f  87//106 89//106 90//107
f  91//108 90//108 89//108
f  90//108 91//108 92//108
f  83//109 92//109 91//109
f  92//109 83//109 82//110
f  93//111 94//111 95//111
f  94//111 93//111 96//112
f  97//113 95//113 98//113
f  95//113 97//113 93//114
f  99//115 98//115 100//115
f  98//115 99//115 97//115
f  101//116 99//116 100//116
f  99//116 101//116 102//116
f  94//117 102//117 101//117
f  102//117 94//117 96//118
f  103//119 104//119 105//119
f  104//119 103//119 106//120
f  107//121 103//121 108//121
f  103//121 107//121 106//122
f  109//123 108//123 110//123
f  108//123 109//123 107//124
f  105//125 109//125 110//125
f  109//125 105//125 104//125
f  111//126 112//126 113//126
f  112//126 111//126 114//127
f  115//128 111//128 113//128
f  111//128 115//128 116//129
f  117//130 116//130 115//130
f  116//130 117//130 118//131
f  119//132 118//132 117//132
f  118//132 119//132 120//133
f  121//134 120//134 119//134
f  120//134 121//134 122//135
f  123//136 122//136 121//136
f  122//136 123//136 124//136
f  125//137 124//137 123//137
f  124//137 125//137 126//138
f  127//139 125//139 128//139
f  125//139 127//139 126//139
f  129//140 128//140 130//140
f  128//140 129//140 127//140
f  131//141 130//141 132//141
f  130//141 131//141 129//142
f  133//143 132//143 134//143
f  132//143 133//143 131//144
f  135//145 133//145 134//145
f  133//145 135//145 136//145
f  137//146 135//146 138//146
f  135//146 137//146 136//147
f  114//148 138//148 112//148
f  138//148 114//148 137//149
f  139//150 140//150 141//150
f  140//150 139//150 142//151
f  143//152 142//152 139//152
f  142//152 143//152 144//152
f  145//153 143//153 146//153
f  143//153 145//153 144//154
f  140//155 146//155 141//155
f  146//155 140//155 145//155
f  147//156 148//156 149//156
f  148//156 147//156 150//157
f  151//158 149//158 152//158
f  149//158 151//158 147//159
f  153//160 151//160 152//160
f  151//160 153//160 154//160
f  148//161 154//161 153//161
f  154//161 148//161 150//162
f  155//163 156//163 157//163
f  156//163 155//163 158//163
f  159//164 158//164 155//164
f  158//164 159//164 160//165
f  161//166 159//166 162//166
f  159//166 161//166 160//167
f  163//168 162//168 164//168
f  162//168 163//168 161//169
f  165//170 164//170 166//170
f  164//170 165//170 163//171
f  156//172 166//172 157//172
f  166//172 156//172 165//172
f  29//173 43//173 42//173
f  43//173 29//173 28//173
f  30//174 42//174 50//174
f  42//174 30//174 29//175

