# {"id":"BLDG_0003000f00248af7","idOriginal":"BLDG_0003000f00248af7","origin":[13.37987700319788,52.522009820087746],"elevation":33.560001373291}
# Longitude: 13.37987700319788
# Latitude: 52.522009820087746
# Elevation: 33.560001373291

# File produced by Open Asset Import Library (http://www.assimp.sf.net)
# (assimp v3.1.0)

mtllib BLDG_0003000f00248af7.obj.mtl

# 43 vertex positions
v  31.7007 1.40125e-16 -2.28841
v  27.6857 -2.60377e-16 4.25229
v  26.651 1.17804e-16 -1.92389
v  32.7354 -2.38057e-16 3.88776
v  13.1192 -3.24765e-16 5.30381
v  12.5954 5.56749e-17 -0.90924
v  0.523811 -3.8044e-16 6.21305
v  0 0 0
v  33.2939 -4.42203e-16 7.22172
v  28.333 -4.96996e-16 8.11655
v  1.09846 -7.978e-16 13.0291
v  13.5807 -6.59934e-16 10.7775
v  35.3025 -1.17637e-15 19.2116
v  30.3417 -1.23117e-15 20.1065
v  14.6065 -1.40496e-15 22.9447
v  2.12425 -1.54283e-15 25.1963
v  26.6514 20.5571 -1.92454
v  27.6861 19.1101 4.25168
v  31.7011 20.5571 -2.28906
v  32.7358 20.5571 3.88711
v  13.1196 19.1101 5.30321
v  12.5959 20.5571 -0.90989
v  6.29815 20.5571 -0.45527
v  0.524219 19.1101 6.21245
v  6.82196 20.5571 5.75778
v  0.000407728 19.1101 -0.00060437
v  28.3334 19.1101 8.11595
v  33.2943 20.5571 7.22107
v  13.5811 19.1101 10.7769
v  7.34002 20.5571 11.9027
v  1.09886 19.1101 13.0285
v  35.3029 19.11 19.211
v  29.3378 20.56 14.1109
v  30.3421 19.11 20.1059
v  34.2986 20.56 13.216
v  28.3334 19.11 8.11595
v  33.2943 20.56 7.22107
v  29.3378 20.5571 14.1109
v  14.0941 20.5571 16.8605
v  30.3421 19.1101 20.1059
v  14.6069 19.1101 22.9441
v  7.85292 20.5571 17.9863
v  2.12466 19.1101 25.1957

# 0 UV coordinates

# 61 vertex normals
vn -2.93503e-24 -1 -6.12323e-17
vn 8.38581e-25 -1 -6.12323e-17
vn 6.02548e-25 -1 -6.12323e-17
vn 3.362e-25 -1 -6.12323e-17
vn 0 -1 -6.12323e-17
vn -2.68057e-24 -1 -6.12323e-17
vn -1.53229e-24 -1 -6.12323e-17
vn -1.52644e-24 -1 -6.12323e-17
vn 0 -1 -6.12323e-17
vn -2.76457e-23 -1 -6.12323e-17
vn 1.08949e-23 -1 -6.12323e-17
vn -1.09873e-23 -1 -6.12323e-17
vn 0.0162782 0.974108 0.225496
vn -0.272138 0.961177 0.0455904
vn 0.0162782 0.974108 0.225496
vn -0.222607 0.974728 0.0187676
vn 0.0162782 0.974108 0.225496
vn 0.222609 0.974727 -0.0187678
vn -0.272138 0.961177 0.0455904
vn -0.272138 0.961178 0.0455905
vn 0.222609 0.974727 -0.0187678
vn -0.222607 0.974728 0.0187676
vn 0.0411921 0.972704 0.228365
vn 0.041192 0.972704 0.228366
vn -0.0411926 0.972703 -0.228368
vn -0.272656 0.961027 0.045677
vn -0.0411125 0.97281 -0.227925
vn -0.0411125 0.97281 -0.227925
vn 0.041112 0.972811 0.227922
vn 0.041112 0.972811 0.227922
vn -0.0411125 0.97281 -0.227925
vn 0.041112 0.972811 0.227922
vn 0.041112 0.972811 0.227922
vn -0.222607 0.974728 0.0187676
vn -0.222607 0.974728 0.0187676
vn 0.222609 0.974727 -0.0187678
vn -0.0720007 -3.0003e-05 -0.997405
vn -0.0720008 -3.00088e-05 -0.997405
vn 0.986256 -2.62692e-05 -0.165224
vn -0.0720008 -3.00059e-05 -0.997405
vn 0.0720008 2.99986e-05 0.997405
vn 0.0720008 2.99952e-05 0.997405
vn -0.996465 2.39198e-05 0.0840101
vn -0.996465 2.39172e-05 0.0840101
vn -0.0720008 -3.00074e-05 -0.997405
vn -0.0720008 -3.0009e-05 -0.997405
vn 0.986256 -2.62755e-05 -0.165224
vn -0.986256 2.62931e-05 0.165224
vn -0.986256 2.62889e-05 0.165224
vn 0.996465 -2.38908e-05 -0.0840101
vn 0.996465 -2.38885e-05 -0.0840101
vn -0.996465 2.39167e-05 0.0840101
vn 0.986256 -2.62706e-05 -0.165224
vn 0.986256 -2.62932e-05 -0.165224
vn 0.986256 -2.33716e-05 -0.165224
vn 0.177513 2.73435e-05 0.984118
vn -0.177513 -2.73542e-05 -0.984118
vn -0.177513 -2.73453e-05 -0.984118
vn 0.177513 2.73412e-05 0.984118
vn 0.177513 2.73607e-05 0.984118
vn -0.996465 2.39291e-05 0.0840101

# Mesh 'defaultobject' with 78 faces
g defaultobject
usemtl DefaultMaterial
f  1//1 2//1 3//1
f  2//1 1//1 4//2
f  3//1 5//3 6//3
f  5//3 3//1 2//1
f  6//3 7//4 8//4
f  7//4 6//3 5//3
f  9//5 2//1 4//2
f  2//1 9//5 10//6
f  5//3 11//7 7//4
f  11//7 5//3 12//8
f  13//9 10//6 9//5
f  10//6 13//9 14//10
f  12//8 14//10 15//11
f  14//10 12//8 10//6
f  15//11 11//7 12//8
f  11//7 15//11 16//12
f  17//13 18//13 19//13
f  19//14 18//14 20//14
f  21//15 17//13 22//15
f  17//13 21//15 18//13
f  23//16 24//16 25//16
f  24//16 23//16 26//16
f  23//17 21//15 22//15
f  23//18 25//18 21//18
f  27//19 20//14 18//14
f  20//14 27//19 28//20
f  29//21 25//18 30//21
f  25//18 29//21 21//18
f  30//22 24//16 31//22
f  24//16 30//22 25//16
f  32//23 33//23 34//23
f  33//23 32//23 35//24
f  33//25 35//25 36//25
f  35//26 37//26 36//26
f  38//27 29//27 39//27
f  29//27 38//27 27//28
f  40//29 39//29 41//29
f  39//29 40//29 38//30
f  29//27 42//31 39//27
f  42//32 41//29 39//29
f  41//29 42//32 43//33
f  31//22 42//34 30//22
f  42//34 31//22 43//35
f  42//36 29//21 30//21
f  17//37 1//37 3//37
f  1//37 17//37 19//38
f  1//39 20//39 4//39
f  20//39 1//39 19//39
f  22//40 3//37 6//40
f  3//37 22//40 17//37
f  2//41 21//41 5//41
f  21//41 2//41 18//42
f  24//43 8//43 7//43
f  8//43 24//43 26//44
f  26//45 6//40 8//45
f  6//40 26//45 22//40
f  22//40 26//45 23//46
f  4//39 28//47 9//47
f  28//47 4//39 20//39
f  27//48 2//48 10//48
f  2//48 27//48 18//49
f  5//50 29//50 12//50
f  29//50 5//50 21//51
f  31//52 7//43 11//52
f  7//43 31//52 24//43
f  37//53 13//53 9//47
f  13//53 37//53 32//54
f  32//54 37//53 35//55
f  13//56 34//56 14//56
f  34//56 13//56 32//56
f  29//57 10//57 12//57
f  10//57 29//57 27//58
f  14//56 41//59 15//59
f  41//59 14//56 40//59
f  15//59 43//60 16//60
f  43//60 15//59 41//59
f  43//61 11//52 16//61
f  11//52 43//61 31//52

