# {"id":"BLDG_00030002004da5a3","idOriginal":"BLDG_00030002004da5a3","origin":[13.39733056804761,52.526507326740635],"elevation":35.8300018310547}
# Longitude: 13.39733056804761
# Latitude: 52.526507326740635
# Elevation: 35.8300018310547

# File produced by Open Asset Import Library (http://www.assimp.sf.net)
# (assimp v3.1.0)

mtllib BLDG_00030002004da5a3.obj.mtl

# 10 vertex positions
v  15.2574 15.8379 10.1665
v  3.02363 -8.04217e-16 13.1339
v  15.2571 -6.22546e-16 10.167
v  3.02397 15.8379 13.1334
v  9.14074 17.6466 11.6498
v  0 0 0
v  0.000338295 15.8379 -0.00050103
v  12.2335 1.8167e-16 -2.9669
v  12.2338 15.8379 -2.9674
v  6.11711 17.6466 -1.48401

# 0 UV coordinates

# 16 vertex normals
vn 0.235691 2.57566e-05 0.971828
vn 0.235691 2.57459e-05 0.971828
vn 0.235691 2.57186e-05 0.971828
vn -0.974509 2.79223e-05 0.224348
vn -0.974509 2.79125e-05 0.224348
vn -0.235691 -2.57093e-05 -0.971828
vn -0.235691 -2.56985e-05 -0.971828
vn -0.235691 -2.58024e-05 -0.971828
vn 0.974509 -2.78792e-05 -0.224348
vn 0.974509 -2.79149e-05 -0.224348
vn 4.99302e-24 -1 -6.12323e-17
vn 0 -1 -6.12323e-17
vn -0.269161 0.9611 0.0619652
vn -0.269161 0.9611 0.0619653
vn 0.269165 0.961099 -0.0619662
vn 0.269165 0.961099 -0.0619662

# Mesh 'defaultobject' with 16 faces
g defaultobject
usemtl DefaultMaterial
f  1//1 2//1 3//1
f  2//1 1//1 4//2
f  4//2 1//1 5//3
f  4//4 6//4 2//4
f  6//4 4//4 7//5
f  7//6 8//6 6//6
f  8//6 7//6 9//7
f  9//7 7//6 10//8
f  8//9 1//9 3//9
f  1//9 8//9 9//10
f  6//11 3//11 2//11
f  3//11 6//11 8//12
f  7//13 5//13 10//13
f  5//13 7//13 4//14
f  10//15 1//15 9//15
f  1//15 10//15 5//16

