# {"id":"BLDG_0003000a002be2a0","idOriginal":"BLDG_0003000a002be2a0","origin":[13.392130588465433,52.537319919435205],"elevation":43.1199989318848}
# Longitude: 13.392130588465433
# Latitude: 52.537319919435205
# Elevation: 43.1199989318848

# File produced by Open Asset Import Library (http://www.assimp.sf.net)
# (assimp v3.1.0)

mtllib BLDG_0003000a002be2a0.obj.mtl

# 54 vertex positions
v  30.3835 15.6134 -6.32013
v  39.2115 6.44046e-16 -10.5181
v  30.3832 3.86966e-16 -6.31964
v  39.2119 15.6134 -10.5186
v  40.9859 15.6134 -6.85102
v  40.9855 4.19474e-16 -6.85053
v  32.1575 15.7069 -2.65259
v  28.532 15.6134 -0.928408
v  32.1575 15.6134 -2.65258
v  30.3448 19.9639 -1.79063
v  28.532 15.7069 -0.928411
v  26.7798 2.82036e-16 -4.606
v  28.5316 5.68183e-17 -0.927914
v  26.7801 15.7069 -4.6065
v  30.3835 15.7069 -6.32013
v  31.2706 19.9639 -4.48649
v  44.6318 15.6134 0.68651
v  44.6315 -4.20669e-17 0.687004
v  35.8058 15.6134 4.88991
v  35.8055 -2.99451e-16 4.8904
v  14.8558 15.6134 5.57549
v  14.8555 -3.4143e-16 5.57598
v  37.2601 15.6134 7.89646
v  37.2598 -4.83549e-16 7.89695
v  33.5718 15.6134 9.65302
v  33.5715 -5.91107e-16 9.65352
v  19.8143 15.6134 16.2051
v  19.8139 -9.92308e-16 16.2056
v  3.10403 15.6134 6.65299
v  0 0 0
v  3.1037 -4.07408e-16 6.65349
v  0.000333397 15.6134 -0.00049428
v  10.0399 2.90688e-16 -4.7473
v  10.0402 15.6134 -4.7478
v  13.1335 15.6134 1.88335
v  13.1332 -1.15352e-16 1.88384
v  4.82633 15.6134 10.3451
v  4.826 -6.33487e-16 10.3456
v  8.37555 15.6134 17.9537
v  8.37522 -1.09938e-15 17.9542
v  18.4024 15.6134 13.1784
v  16.6291 15.6493 9.37694
v  9.78746 15.6134 20.9804
v  9.78712 -1.28471e-15 20.9809
v  12.1022 15.6134 25.9425
v  12.1018 -1.58855e-15 25.943
v  22.142 15.6134 21.1952
v  22.1417 -1.29786e-15 21.1957
v  10.39 15.6493 12.3462
v  29.4634 19.9639 -3.62704
v  32.1357 15.6134 6.63782
v  18.402 -8.06974e-16 13.1789
v  32.1572 1.62394e-16 -2.65209
v  32.1354 -4.0648e-16 6.63832

# 0 UV coordinates

# 63 vertex normals
vn -0.429472 -1.93919e-05 -0.90308
vn -0.429472 -1.93394e-05 -0.90308
vn 0.900219 -3.3141e-05 -0.435438
vn 0.900219 -3.31335e-05 -0.435438
vn 0.429472 1.01113e-05 0.90308
vn 0.429472 1.93738e-05 0.90308
vn 0.429471 2.00235e-05 0.903081
vn -0.902825 3.27983e-05 0.430009
vn -0.902825 3.29112e-05 0.430008
vn -0.429472 -1.94162e-05 -0.90308
vn -0.429472 -1.93888e-05 -0.90308
vn 0.900219 -3.16873e-05 -0.435438
vn 0.900219 -3.29473e-05 -0.435438
vn 0.900203 -5.00512e-05 -0.435471
vn 0.900219 -3.31482e-05 -0.435438
vn 0.429981 1.94442e-05 0.902838
vn 0.429981 1.93443e-05 0.902838
vn -0.429472 -1.94581e-05 -0.90308
vn 0.900219 -3.29105e-05 -0.435438
vn 0.429981 1.93773e-05 0.902838
vn 0.429981 1.94222e-05 0.902838
vn 0.429981 1.93686e-05 0.902838
vn -0.906249 3.27218e-05 0.422744
vn -0.906249 3.27344e-05 0.422744
vn -0.427466 -1.94915e-05 -0.904031
vn -0.427466 -1.94924e-05 -0.904031
vn 0.906249 -3.27727e-05 -0.422744
vn -0.906249 3.27476e-05 0.422744
vn 0.906249 -3.2751e-05 -0.422744
vn -0.906249 3.26941e-05 0.422744
vn 0.906249 -3.80135e-05 -0.422744
vn -0.906249 3.28011e-05 0.422744
vn -0.906249 3.26941e-05 0.422745
vn 0.906249 -3.27458e-05 -0.422744
vn 0.427466 1.94918e-05 0.904031
vn 0.427466 1.94698e-05 0.904031
vn 0.00367667 0.999963 0.00771997
vn 0.00367619 0.999963 0.00772457
vn 0 1 0
vn 0.815431 0.426472 -0.391401
vn -0.81541 0.426521 0.391391
vn -0.817038 0.425456 0.389149
vn -0.387408 0.43162 -0.814628
vn -0.387407 0.43162 -0.814628
vn 0.387402 0.431649 0.814616
vn -0.00774981 0.999963 0.00361511
vn -0.00367345 0.999963 -0.00771882
vn -0.00367401 0.999963 -0.00772559
vn 0 -1 -6.12323e-17
vn -6.51479e-25 -1 -6.12323e-17
vn 1.7551e-24 -1 -6.12323e-17
vn 1.13557e-24 -1 -6.12323e-17
vn 1.4273e-24 -1 -6.12323e-17
vn -2.17652e-24 -1 -6.12323e-17
vn 0 -1 -6.12323e-17
vn -5.31703e-24 -1 -6.12323e-17
vn -3.2368e-24 -1 -6.12323e-17
vn -6.5134e-24 -1 -6.12323e-17
vn 2.58541e-24 -1 -6.12323e-17
vn 2.58711e-24 -1 -6.12323e-17
vn -3.14694e-24 -1 -6.12323e-17
vn 0 -1 -6.12323e-17
vn 3.88019e-24 -1 -6.12323e-17

# Mesh 'defaultobject' with 102 faces
g defaultobject
usemtl DefaultMaterial
f  1//1 2//1 3//1
f  2//1 1//1 4//2
f  2//3 5//3 6//3
f  5//3 2//3 4//4
f  7//5 8//5 9//5
f  8//5 7//5 10//6
f  8//7 10//6 11//7
f  11//8 12//8 13//8
f  12//8 11//8 14//9
f  14//10 3//1 12//10
f  3//1 14//10 15//11
f  15//12 9//12 1//12
f  9//12 15//12 16//13
f  9//14 16//14 7//14
f  6//3 17//15 18//15
f  17//15 6//3 5//3
f  18//16 19//16 20//16
f  19//16 18//16 17//17
f  21//1 13//1 22//1
f  13//1 21//1 8//18
f  20//19 23//19 24//19
f  23//19 20//19 19//19
f  24//20 25//20 26//20
f  25//20 24//20 23//21
f  26//20 27//22 28//22
f  27//22 26//20 25//20
f  29//23 30//23 31//23
f  30//23 29//23 32//24
f  32//25 33//25 30//25
f  33//25 32//25 34//26
f  33//27 35//27 36//27
f  35//27 33//27 34//27
f  37//28 31//23 38//28
f  31//23 37//28 29//23
f  36//27 21//29 22//29
f  21//29 36//27 35//27
f  39//30 38//28 40//30
f  38//28 39//30 37//28
f  41//31 21//29 42//31
f  43//32 40//30 44//32
f  40//30 43//32 39//30
f  45//33 44//32 46//33
f  44//32 45//33 43//32
f  28//34 47//34 48//34
f  47//34 28//34 27//34
f  48//35 45//35 46//35
f  45//35 48//35 47//36
f  41//37 49//37 39//37
f  49//37 41//37 42//38
f  27//39 39//39 43//39
f  39//39 27//39 41//39
f  47//39 43//39 45//39
f  43//39 47//39 27//39
f  4//39 9//39 5//39
f  9//39 4//39 1//39
f  7//40 50//40 10//40
f  50//41 11//41 10//41
f  11//42 50//42 14//42
f  15//43 50//43 16//43
f  50//43 15//43 14//44
f  50//45 7//45 16//45
f  5//39 19//39 17//39
f  19//39 5//39 9//39
f  9//39 51//39 19//39
f  51//39 9//39 8//39
f  8//39 41//39 51//39
f  41//39 8//39 21//39
f  19//39 25//39 23//39
f  25//39 19//39 51//39
f  51//39 27//39 25//39
f  27//39 51//39 41//39
f  35//39 32//39 29//39
f  32//39 35//39 34//39
f  21//39 29//39 37//39
f  29//39 21//39 35//39
f  37//46 39//46 49//46
f  42//47 37//47 49//47
f  37//47 42//47 21//48
f  30//49 36//49 31//49
f  36//49 30//49 33//50
f  31//49 22//51 38//51
f  22//51 31//49 36//49
f  38//51 52//52 40//52
f  52//52 38//51 22//51
f  40//52 28//53 44//53
f  28//53 40//52 52//52
f  44//53 48//54 46//54
f  48//54 44//53 28//53
f  2//55 53//55 3//55
f  53//55 2//55 6//56
f  13//57 3//55 53//55
f  3//55 13//57 12//58
f  6//56 20//59 53//55
f  20//59 6//56 18//60
f  53//55 54//61 13//57
f  54//61 53//55 20//59
f  22//51 54//61 52//52
f  54//61 22//51 13//57
f  20//59 26//62 54//61
f  26//62 20//59 24//63
f  52//52 26//62 28//53
f  26//62 52//52 54//61

