# {"id":"BLDG_0003000a00295b99","idOriginal":"BLDG_0003000a00295b99","origin":[13.393637103457124,52.540438148089166],"elevation":44.5200004577637}
# Longitude: 13.393637103457124
# Latitude: 52.540438148089166
# Elevation: 44.5200004577637

# File produced by Open Asset Import Library (http://www.assimp.sf.net)
# (assimp v3.1.0)

mtllib BLDG_0003000a00295b99.obj.mtl

# 24 vertex positions
v  8.93731 23.2852 -3.98603
v  22.291 1.05 -9.94157
v  8.93683 1.05 -3.98532
v  22.2915 23.2852 -9.94227
v  28.6354 23.2852 4.06516
v  28.6349 1.05 4.06586
v  15.683 23.2852 9.84219
v  15.6825 1.05 9.8429
v  8.93685 2.44009e-16 -3.98497
v  5.03036 5.90201 -2.24319
v  8.93698 5.90201 -3.98516
v  0.00012604 5.90201 -0.00018688
v  5.03024 1.37344e-16 -2.243
v  0 0 0
v  15.651 5.90201 9.80683
v  11.0548 -7.25994e-16 11.8564
v  15.6508 -6.00506e-16 9.80701
v  6.33178 -8.54951e-16 13.9624
v  11.055 5.90201 11.8562
v  6.33191 5.90201 13.9622
v  9.91012 5.90201 3.29332
v  9.90999 -2.01669e-16 3.29351
v  9.91001 1.05 3.29348
v  9.91049 23.2852 3.29277

# 0 UV coordinates

# 28 vertex normals
vn -0.40734 -2.02173e-05 -0.913277
vn -0.40734 -2.02467e-05 -0.913277
vn 0.910932 -3.25115e-05 -0.412556
vn 0.910932 -3.25338e-05 -0.412556
vn 0.40734 2.02017e-05 0.913277
vn 0.40734 2.02259e-05 0.913277
vn -0.407251 -2.02389e-05 -0.913316
vn -0.407251 -2.0302e-05 -0.913316
vn -0.407251 -2.0097e-05 -0.913316
vn -0.407251 -2.02221e-05 -0.913316
vn 0.407251 2.02389e-05 0.913316
vn 0.407251 2.01538e-05 0.913316
vn 0.407251 2.02936e-05 0.913316
vn 0.407251 2.02389e-05 0.913316
vn 0.99118 -2.53382e-05 -0.132521
vn 0.750201 -3.69981e-05 -0.66121
vn -0.910729 3.25052e-05 0.413004
vn -0.910729 3.25263e-05 0.413004
vn -0.750201 3.69532e-05 0.66121
vn -0.750201 3.69603e-05 0.66121
vn -0.99118 2.53671e-05 0.132521
vn 5.078e-24 -1 -6.12323e-17
vn 0 -1 -6.12323e-17
vn 2.5079e-24 -1 -6.12323e-17
vn 0 -1 -6.12323e-17
vn 5.27121e-24 -1 -6.12323e-17
vn 0 -1 0
vn 0 1 0

# Mesh 'defaultobject' with 40 faces
g defaultobject
usemtl DefaultMaterial
f  1//1 2//1 3//1
f  2//1 1//1 4//2
f  2//3 5//3 6//3
f  5//3 2//3 4//4
f  6//5 7//5 8//5
f  7//5 6//5 5//6
f  9//7 10//7 11//7
f  10//7 9//7 12//8
f  12//8 9//7 13//9
f  12//8 13//9 14//10
f  15//11 16//11 17//11
f  16//11 15//11 18//12
f  18//12 15//11 19//13
f  18//12 19//13 20//14
f  9//15 21//15 22//15
f  21//15 9//15 11//15
f  22//16 15//16 17//16
f  15//16 22//16 21//16
f  20//17 14//17 18//17
f  14//17 20//17 12//18
f  7//19 23//19 8//19
f  23//19 7//19 24//20
f  24//21 3//21 23//21
f  3//21 24//21 1//21
f  16//22 22//22 17//22
f  22//22 16//22 13//23
f  13//23 16//22 14//24
f  14//24 16//22 18//25
f  13//23 9//26 22//22
f  23//27 6//27 8//27
f  6//27 23//27 3//27
f  6//27 3//27 2//27
f  20//28 10//28 12//28
f  10//28 20//28 11//28
f  11//28 20//28 21//28
f  21//28 20//28 19//28
f  21//28 19//28 15//28
f  5//28 24//28 7//28
f  24//28 5//28 1//28
f  1//28 5//28 4//28

