# {"id":"BLDG_0003000f000ede10","idOriginal":"BLDG_0003000f000ede10","origin":[13.390384109292999,52.55693324755597],"elevation":41.7400016784668}
# Longitude: 13.390384109292999
# Latitude: 52.55693324755597
# Elevation: 41.7400016784668

# File produced by Open Asset Import Library (http://www.assimp.sf.net)
# (assimp v3.1.0)

mtllib BLDG_0003000f000ede10.obj.mtl

# 10 vertex positions
v  11.1279 17.5395 5.37376
v  0 0 0
v  11.1275 -3.29082e-16 5.37432
v  0.000374503 17.5395 -0.00055599
v  5.5642 20.6494 2.6865
v  5.69036 7.23559e-16 -11.8166
v  5.69073 17.5395 -11.8172
v  16.8179 3.94477e-16 -6.4423
v  16.8183 17.5395 -6.44285
v  11.2546 20.6494 -9.13011

# 0 UV coordinates

# 16 vertex normals
vn -0.434907 3.78379e-05 0.900475
vn -0.434907 3.78305e-05 0.900475
vn -0.434907 3.79189e-05 0.900475
vn -0.900975 5.48422e-06 -0.43387
vn -0.900975 5.49912e-06 -0.43387
vn 0.434907 -3.78379e-05 -0.900475
vn 0.434907 -3.78142e-05 -0.900475
vn 0.434907 -3.79686e-05 -0.900475
vn 0.900975 -5.50555e-06 0.43387
vn 0.900975 -5.47238e-06 0.43387
vn 0 -1 -6.12323e-17
vn -2.61315e-24 -1 -6.12323e-17
vn -0.405064 0.893238 -0.195061
vn -0.405064 0.893238 -0.195061
vn 0.405066 0.893237 0.195062
vn 0.405066 0.893237 0.195062

# Mesh 'defaultobject' with 16 faces
g defaultobject
usemtl DefaultMaterial
f  1//1 2//1 3//1
f  2//1 1//1 4//2
f  4//2 1//1 5//3
f  4//4 6//4 2//4
f  6//4 4//4 7//5
f  7//6 8//6 6//6
f  8//6 7//6 9//7
f  9//7 7//6 10//8
f  8//9 1//9 3//9
f  1//9 8//9 9//10
f  2//11 8//11 3//11
f  8//11 2//11 6//12
f  10//13 4//13 5//13
f  4//13 10//13 7//14
f  9//15 5//15 1//15
f  5//15 9//15 10//16

