# {"id":"BLDG_0003000f003010a5","idOriginal":"BLDG_0003000f003010a5","origin":[13.365919267710593,52.54816340281374],"elevation":35.8400001525879}
# Longitude: 13.365919267710593
# Latitude: 52.54816340281374
# Elevation: 35.8400001525879

# File produced by Open Asset Import Library (http://www.assimp.sf.net)
# (assimp v3.1.0)

mtllib BLDG_0003000f003010a5.obj.mtl

# 8 vertex positions
v  2.60011 3.24091 2.55819
v  3.66177 3.24091 -3.68111
v  6.909e-05 3.24091 -0.00010267
v  6.29531 3.24091 -1.08721
v  6.29525 6.6566e-17 -1.08711
v  2.60004 -1.5665e-16 2.55829
v  3.66171 2.25397e-16 -3.68101
v  0 0 0

# 0 UV coordinates

# 11 vertex normals
vn 0 1 0
vn 0.702292 7.59646e-06 0.711889
vn 0.702292 7.53978e-06 0.711889
vn 0.701725 -3.75741e-05 -0.712448
vn 0.701725 -3.75741e-05 -0.712448
vn -0.708963 -7.22798e-06 -0.705245
vn -0.708963 -7.28815e-06 -0.705245
vn -0.70136 3.75635e-05 0.712807
vn -0.70136 3.75329e-05 0.712807
vn 5.51876e-24 -1 -6.12323e-17
vn 5.59069e-24 -1 -6.12323e-17

# Mesh 'defaultobject' with 12 faces
g defaultobject
usemtl DefaultMaterial
f  1//1 2//1 3//1
f  2//1 1//1 4//1
f  5//2 1//2 6//2
f  1//2 5//2 4//3
f  7//4 4//4 5//4
f  4//4 7//4 2//5
f  3//6 7//6 8//6
f  7//6 3//6 2//7
f  1//8 8//8 6//8
f  8//8 1//8 3//9
f  6//10 7//10 5//10
f  7//10 6//10 8//11

