# {"id":"BLDG_00030000001b918b","idOriginal":"BLDG_00030000001b918b","origin":[13.34369975824707,52.56142028527772],"elevation":38.5800018310547}
# Longitude: 13.34369975824707
# Latitude: 52.56142028527772
# Elevation: 38.5800018310547

# File produced by Open Asset Import Library (http://www.assimp.sf.net)
# (assimp v3.1.0)

mtllib BLDG_00030000001b918b.obj.mtl

# 8 vertex positions
v  2.32355 2.3639 1.90497
v  0 0 0
v  2.3235 -1.16651e-16 1.90505
v  5.0324e-05 2.3639 -7.495e-05
v  6.1208 1.67918e-16 -2.74232
v  6.12085 2.3639 -2.74239
v  3.7971 2.83897e-16 -4.63638
v  3.79715 2.3639 -4.63646

# 0 UV coordinates

# 10 vertex normals
vn -0.634036 3.8022e-05 0.773303
vn -0.634036 3.80161e-05 0.773303
vn 0.774372 3.63e-06 0.63273
vn 0.774372 3.49556e-06 0.63273
vn 0.631809 -3.80171e-05 -0.775124
vn -0.773655 -3.61921e-06 -0.633607
vn -0.773655 -3.52374e-06 -0.633607
vn 0 1 0
vn 0 -1 -6.12323e-17
vn -5.89345e-24 -1 -6.12324e-17

# Mesh 'defaultobject' with 12 faces
g defaultobject
usemtl DefaultMaterial
f  1//1 2//1 3//1
f  2//1 1//1 4//2
f  5//3 1//3 3//3
f  1//3 5//3 6//4
f  7//5 6//5 5//5
f  6//5 7//5 8//5
f  4//6 7//6 2//6
f  7//6 4//6 8//7
f  4//8 6//8 8//8
f  6//8 4//8 1//8
f  2//9 5//9 3//9
f  5//9 2//9 7//10

