# {"id":"BLDG_0003000b002ebe70","idOriginal":"BLDG_0003000b002ebe70","origin":[13.349197270463101,52.53041446478422],"elevation":33.5}
# Longitude: 13.349197270463101
# Latitude: 52.53041446478422
# Elevation: 33.5

# File produced by Open Asset Import Library (http://www.assimp.sf.net)
# (assimp v3.1.0)

mtllib BLDG_0003000b002ebe70.obj.mtl

# 12 vertex positions
v  16.5333 8.19952e-17 -1.33908
v  6.79192 9.02346e-16 -14.7364
v  19.9293 5.33168e-16 -8.7073
v  13.1373 -3.69178e-16 6.02913
v  0 0 0
v  3.39596 4.51173e-16 -7.36821
v  19.9298 25.072 -8.70809
v  13.1379 25.072 6.02834
v  16.5339 26.8186 -1.33993
v  0.000533895 25.072 -0.0007934
v  6.79246 25.072 -14.7372
v  3.39653 26.8186 -7.36906

# 0 UV coordinates

# 17 vertex normals
vn 0 -1 -6.12323e-17
vn -7.22272e-24 -1 -6.12323e-17
vn 0.908182 -6.09844e-06 0.418575
vn 0.908182 -6.14177e-06 0.418575
vn 0.908182 -6.10641e-06 0.418575
vn 0.908182 -6.32608e-06 0.418575
vn -0.908182 6.0935e-06 -0.418575
vn -0.908182 6.09488e-06 -0.418575
vn -0.908182 6.09844e-06 -0.418575
vn -0.908182 5.92229e-06 -0.418575
vn -0.417103 3.76618e-05 0.908859
vn -0.417103 3.76407e-05 0.908859
vn 0.417103 -3.76475e-05 -0.908859
vn -0.0877845 0.977602 0.19128
vn -0.0877845 0.977602 0.19128
vn 0.0877859 0.977601 -0.191283
vn 0.0877858 0.977601 -0.191283

# Mesh 'defaultobject' with 20 faces
g defaultobject
usemtl DefaultMaterial
f  1//1 2//1 3//1
f  2//1 1//1 4//1
f  2//1 4//1 5//2
f  2//1 5//2 6//2
f  7//3 1//3 3//3
f  1//3 7//3 4//4
f  4//4 7//3 8//5
f  8//5 7//3 9//6
f  10//7 6//7 5//7
f  6//7 10//7 2//8
f  2//8 10//7 11//9
f  11//9 10//7 12//10
f  4//11 10//11 5//11
f  10//11 4//11 8//12
f  11//13 3//13 2//13
f  3//13 11//13 7//13
f  12//14 8//14 9//14
f  8//14 12//14 10//15
f  11//16 9//16 7//16
f  9//16 11//16 12//17

