# {"id":"BLDG_00030000001702b0","idOriginal":"BLDG_00030000001702b0","origin":[13.381392789915934,52.522279002770034],"elevation":34.3300018310547}
# Longitude: 13.381392789915934
# Latitude: 52.522279002770034
# Elevation: 34.3300018310547

# File produced by Open Asset Import Library (http://www.assimp.sf.net)
# (assimp v3.1.0)

mtllib BLDG_00030000001702b0.obj.mtl

# 8 vertex positions
v  0.556725 2.1422 2.73918
v  4.83036 2.1422 -0.981694
v  4.571e-05 2.1422 -6.775e-05
v  5.38704 2.1422 1.75755
v  0 0 0
v  0.55668 -1.67731e-16 2.73925
v  4.83031 6.01073e-17 -0.981626
v  5.38699 -1.07623e-16 1.75762

# 0 UV coordinates

# 8 vertex normals
vn 0 1 0
vn -0.979968 2.72089e-05 0.199153
vn -0.979968 2.72084e-05 0.199153
vn -0.199151 -2.67193e-05 -0.979969
vn -0.199151 -2.67434e-05 -0.979969
vn 0.979968 -2.72344e-05 -0.199153
vn 0.199151 2.66892e-05 0.979969
vn -1.92118e-24 -1 -6.12323e-17

# Mesh 'defaultobject' with 12 faces
g defaultobject
usemtl DefaultMaterial
f  1//1 2//1 3//1
f  2//1 1//1 4//1
f  5//2 1//2 3//2
f  1//2 5//2 6//3
f  7//4 3//4 2//4
f  3//4 7//4 5//5
f  7//6 4//6 8//6
f  4//6 7//6 2//6
f  8//7 1//7 6//7
f  1//7 8//7 4//7
f  7//8 6//8 5//8
f  6//8 7//8 8//8

