# {"id":"BLDG_00030000001b71f5","idOriginal":"BLDG_00030000001b71f5","origin":[13.342534458435772,52.56070261922568],"elevation":37.9500007629395}
# Longitude: 13.342534458435772
# Latitude: 52.56070261922568
# Elevation: 37.9500007629395

# File produced by Open Asset Import Library (http://www.assimp.sf.net)
# (assimp v3.1.0)

mtllib BLDG_00030000001b71f5.obj.mtl

# 8 vertex positions
v  2.07767 5.05 2.1602
v  0 0 0
v  2.07757 -1.32284e-16 2.16036
v  0.000107501 5.05 -0.00016013
v  6.4066 1.22339e-16 -1.99795
v  6.40671 5.05 -1.99811
v  4.32871 2.54558e-16 -4.15725
v  4.32882 5.05 -4.15741

# 0 UV coordinates

# 10 vertex normals
vn -0.720784 3.73059e-05 0.69316
vn -0.720784 3.73229e-05 0.69316
vn 0.692743 8.11678e-06 0.721185
vn 0.692743 8.24262e-06 0.721185
vn 0.720559 -3.73068e-05 -0.693394
vn -0.692678 -8.12467e-06 -0.721247
vn -0.692678 -8.16634e-06 -0.721247
vn 0 1 0
vn 0 -1 -6.12323e-17
vn -1.17719e-23 -1 -6.12323e-17

# Mesh 'defaultobject' with 12 faces
g defaultobject
usemtl DefaultMaterial
f  1//1 2//1 3//1
f  2//1 1//1 4//2
f  5//3 1//3 3//3
f  1//3 5//3 6//4
f  7//5 6//5 5//5
f  6//5 7//5 8//5
f  4//6 7//6 2//6
f  7//6 4//6 8//7
f  1//8 8//8 4//8
f  8//8 1//8 6//8
f  3//9 7//9 5//9
f  7//9 3//9 2//10

