# {"id":"BLDG_0003000b00567892","idOriginal":"BLDG_0003000b00567892","origin":[13.401185436518775,52.53560650560031],"elevation":49.3699989318848}
# Longitude: 13.401185436518775
# Latitude: 52.53560650560031
# Elevation: 49.3699989318848

# File produced by Open Asset Import Library (http://www.assimp.sf.net)
# (assimp v3.1.0)

mtllib BLDG_0003000b00567892.obj.mtl

# 64 vertex positions
v  20.1627 21.9975 -16.808
v  17.7265 21.9975 -16.3685
v  19.0942 21.9975 -15.3593
v  38.8938 21.9975 -35.3959
v  36.4541 21.9975 -34.9761
v  37.953 21.9975 -33.9796
v  37.395 21.9975 -36.3911
v  43.8243 21.9975 -30.0804
v  25.8504 21.9975 -27.3825
v  36.7935 21.9975 -19.811
v  23.236 21.9975 -33.0793
v  28.362 21.9975 -40.3512
v  23.1031 21.9975 0.184406
v  9.69209 21.9975 6.38864
v  16.0053 21.9975 10.552
v  7.72196 21.9975 5.08966
v  0.000469986 21.9975 -0.00069629
v  6.90191 21.9975 -9.82704
v  17.2241 21.9975 -4.0476
v  15.1408 21.9975 -5.5483
v  14.5282 21.9975 -5.98777
v  11.2026 21.9975 -8.09739
v  10.1695 21.9975 -8.92692
v  7.59976 21.9975 -10.8195
v  10.5768 21.9975 -10.523
v  7.97692 21.9975 -11.3561
v  13.0687 21.9975 -10.0527
v  18.795 21.9975 -17.8166
v  13.3624 21.9975 -7.61993
v  15.9403 21.9975 -7.99198
v  14.3921 21.9975 -9.08215
v  12.202 21.9975 -8.43784
v  9.69162 -3.91234e-16 6.38934
v  23.1026 -1.13342e-17 0.185102
v  16.0049 -6.46167e-16 10.5527
v  7.72149 -3.11695e-16 5.09036
v  0 0 0
v  6.90144 6.0169e-16 -9.82634
v  17.2236 2.47801e-16 -4.0469
v  15.1404 3.39693e-16 -5.5476
v  14.5277 3.66603e-16 -5.98708
v  11.2021 4.9578e-16 -8.09669
v  10.169 5.46573e-16 -8.92622
v  7.59929 6.62463e-16 -10.8188
v  10.5763 6.44307e-16 -10.5223
v  7.97645 6.9532e-16 -11.3554
v  23.2355 2.02548e-15 -33.0786
v  13.0682 6.15507e-16 -10.052
v  17.726 1.00224e-15 -16.3678
v  18.7945 1.09091e-15 -17.8159
v  20.1622 1.02915e-15 -16.8073
v  25.8499 1.67665e-15 -27.3818
v  19.0937 9.40445e-16 -15.3586
v  43.8239 1.84185e-15 -30.0797
v  36.793 1.21303e-15 -19.8103
v  37.9525 2.08061e-15 -33.9789
v  28.3615 2.47075e-15 -40.3505
v  36.4536 2.14162e-15 -34.9754
v  38.8934 2.16733e-15 -35.3952
v  37.3945 2.22827e-15 -36.3904
v  12.2016 5.16626e-16 -8.43714
v  13.3619 4.66544e-16 -7.61923
v  15.9398 4.89325e-16 -7.99129
v  14.3916 5.56078e-16 -9.08145

# 0 UV coordinates

# 85 vertex normals
vn 0 1 0
vn -5.57238e-24 -1 -6.12324e-17
vn 0 -1 -6.12323e-17
vn 0 -1 -6.12323e-17
vn -2.18171e-23 -1 -6.12323e-17
vn 4.60281e-23 -1 -6.12324e-17
vn -1.98608e-22 -1 -6.1232e-17
vn 0 -1 -6.12323e-17
vn 4.45957e-23 -1 -6.12324e-17
vn 1.88033e-23 -1 -6.12324e-17
vn -1.35812e-23 -1 -6.12323e-17
vn -1.45177e-23 -1 -6.12323e-17
vn 1.53026e-24 -1 -6.12323e-17
vn 2.29946e-23 -1 -6.12323e-17
vn -7.87224e-23 -1 -6.12324e-17
vn 4.28773e-23 -1 -6.12323e-17
vn 1.94751e-23 -1 -6.12323e-17
vn -2.59816e-23 -1 -6.12324e-17
vn 1.29769e-23 -1 -6.12324e-17
vn 5.11454e-24 -1 -6.12323e-17
vn -5.91307e-24 -1 -6.12323e-17
vn -4.65269e-24 -1 -6.12323e-17
vn 6.5226e-20 -1 -6.13354e-17
vn -9.56813e-23 -1 -6.12322e-17
vn -1.23911e-22 -1 -6.12324e-17
vn 2.45598e-23 -1 -6.12324e-17
vn -2.28125e-23 -1 -6.12324e-17
vn -2.54041e-23 -1 -6.12324e-17
vn 0.576142 -3.81811e-05 -0.817349
vn 0.576142 -3.81983e-05 -0.817349
vn -0.322446 -2.30661e-05 -0.946588
vn 0.626097 -3.80331e-05 -0.779745
vn 0.626098 -3.80597e-05 -0.779745
vn 0.968948 -1.28846e-05 0.247263
vn 0.968948 -1.28435e-05 0.247262
vn -0.185482 3.50647e-05 0.982648
vn 0.804809 1.60208e-06 0.593534
vn 0.804809 1.57999e-06 0.593534
vn -0.593745 3.8182e-05 0.804653
vn -0.593746 3.82518e-05 0.804653
vn 0.80479 1.61669e-06 0.593559
vn 0.80479 1.54745e-06 0.59356
vn 0.59353 -3.81823e-05 -0.804812
vn 0.59353 -3.81312e-05 -0.804812
vn 0.80478 1.54649e-06 0.593573
vn -0.568983 3.82611e-05 0.822349
vn -0.568983 3.82117e-05 0.822349
vn 0.825141 2.78677e-07 0.564927
vn 0.825141 1.39338e-07 0.564927
vn 0.553226 -3.82366e-05 -0.833031
vn 0.553226 -3.81644e-05 -0.833031
vn 0.832951 -3.02778e-07 0.553347
vn 0.832951 -2.03976e-07 0.553346
vn 0.553152 -3.82366e-05 -0.833081
vn 0.553153 -3.80921e-05 -0.83308
vn -0.832739 1.91785e-07 -0.553666
vn 0.5533 -3.82366e-05 -0.832982
vn -0.817342 -7.79345e-07 -0.576152
vn -0.817342 -8.50208e-07 -0.576152
vn -0.818295 -7.01608e-07 -0.574798
vn -0.818295 -7.15969e-07 -0.574798
vn -0.818132 -7.12467e-07 -0.575031
vn -0.81803 -7.44118e-07 -0.575175
vn -0.81803 -7.19199e-07 -0.575175
vn -0.818331 -7.08586e-07 -0.574748
vn -0.818331 -7.24152e-07 -0.574748
vn -0.550403 3.81766e-05 0.834899
vn -0.550403 3.81954e-05 0.834899
vn -0.550456 3.81855e-05 0.834864
vn -0.550456 3.81763e-05 0.834864
vn -0.550532 3.82147e-05 0.834814
vn -0.550532 3.81918e-05 0.834814
vn 0.825155 2.20833e-07 0.564907
vn 0.584225 -3.81482e-05 -0.811592
vn 0.584225 -3.8196e-05 -0.811592
vn 0.584501 -3.81912e-05 -0.811393
vn 0.584501 -3.81448e-05 -0.811393
vn 0.582898 -3.81742e-05 -0.812545
vn 0.582898 -3.81921e-05 -0.812545
vn 0.817478 7.69218e-07 0.575959
vn 0.817478 7.55956e-07 0.57596
vn 0.575739 -3.82165e-05 -0.817634
vn 0.575738 -3.81993e-05 -0.817634
vn -0.81761 -7.59535e-07 -0.575772
vn -0.817611 -7.72009e-07 -0.575772

# Mesh 'defaultobject' with 124 faces
g defaultobject
usemtl DefaultMaterial
f  1//1 2//1 3//1
f  4//1 5//1 6//1
f  5//1 4//1 7//1
f  8//1 9//1 10//1
f  9//1 8//1 11//1
f  11//1 8//1 6//1
f  11//1 6//1 12//1
f  12//1 6//1 5//1
f  13//1 14//1 15//1
f  14//1 13//1 16//1
f  16//1 13//1 17//1
f  17//1 13//1 18//1
f  18//1 13//1 19//1
f  18//1 19//1 20//1
f  18//1 20//1 21//1
f  18//1 21//1 22//1
f  18//1 22//1 23//1
f  18//1 23//1 24//1
f  24//1 23//1 25//1
f  24//1 25//1 26//1
f  26//1 25//1 27//1
f  26//1 27//1 11//1
f  11//1 27//1 2//1
f  11//1 2//1 28//1
f  28//1 2//1 1//1
f  11//1 28//1 9//1
f  21//1 29//1 22//1
f  29//1 21//1 30//1
f  29//1 30//1 31//1
f  32//1 22//1 29//1
f  33//2 34//2 35//2
f  34//2 33//2 36//3
f  34//2 36//3 37//3
f  34//2 37//3 38//4
f  34//2 38//4 39//5
f  39//5 38//4 40//6
f  40//6 38//4 41//7
f  41//7 38//4 42//8
f  42//8 38//4 43//9
f  43//9 38//4 44//10
f  43//9 44//10 45//11
f  45//11 44//10 46//12
f  45//11 46//12 47//13
f  45//11 47//13 48//14
f  48//14 47//13 49//15
f  49//15 47//13 50//16
f  49//15 50//16 51//17
f  50//16 47//13 52//18
f  51//17 53//19 49//15
f  52//18 54//20 55//20
f  54//20 52//18 47//13
f  54//20 47//13 56//21
f  56//21 47//13 57//22
f  56//21 57//22 58//23
f  58//23 59//24 56//21
f  59//24 58//23 60//25
f  61//26 62//26 42//8
f  41//7 62//26 63//27
f  62//26 41//7 42//8
f  63//27 62//26 64//28
f  29//29 61//29 32//29
f  61//29 29//29 62//30
f  22//31 61//31 42//31
f  61//31 22//31 32//31
f  22//32 43//32 23//32
f  43//32 22//32 42//33
f  23//34 45//34 25//34
f  45//34 23//34 43//35
f  25//36 48//36 27//36
f  48//36 25//36 45//36
f  27//37 49//37 2//37
f  49//37 27//37 48//38
f  3//39 49//39 53//39
f  49//39 3//39 2//40
f  3//41 51//41 1//41
f  51//41 3//41 53//42
f  1//43 50//43 28//43
f  50//43 1//43 51//44
f  28//45 52//45 9//45
f  52//45 28//45 50//45
f  10//46 52//46 55//46
f  52//46 10//46 9//47
f  10//48 54//48 8//48
f  54//48 10//48 55//49
f  6//50 54//50 56//50
f  54//50 6//50 8//51
f  6//52 59//52 4//52
f  59//52 6//52 56//53
f  7//54 59//54 60//54
f  59//54 7//54 4//55
f  5//56 60//56 58//56
f  60//56 5//56 7//56
f  12//57 58//57 57//57
f  58//57 12//57 5//57
f  11//58 57//58 47//58
f  57//58 11//58 12//59
f  26//60 47//60 46//60
f  47//60 26//60 11//61
f  24//62 46//62 44//62
f  46//62 24//62 26//62
f  18//63 44//63 38//63
f  44//63 18//63 24//64
f  17//65 38//65 37//65
f  38//65 17//65 18//66
f  17//67 36//67 16//67
f  36//67 17//67 37//68
f  16//69 33//69 14//69
f  33//69 16//69 36//70
f  14//71 35//71 15//71
f  35//71 14//71 33//72
f  15//73 34//73 13//73
f  34//73 15//73 35//73
f  13//74 39//74 19//74
f  39//74 13//74 34//75
f  19//76 40//76 20//76
f  40//76 19//76 39//77
f  20//78 41//78 21//78
f  41//78 20//78 40//79
f  21//80 63//80 30//80
f  63//80 21//80 41//81
f  30//82 64//82 31//82
f  64//82 30//82 63//83
f  29//84 64//84 62//84
f  64//84 29//84 31//85

