# {"id":"BLDG_0003000b004fb416","idOriginal":"BLDG_0003000b004fb416","origin":[13.404147147702682,52.53994222143374],"elevation":48.0400009155273}
# Longitude: 13.404147147702682
# Latitude: 52.53994222143374
# Elevation: 48.0400009155273

# File produced by Open Asset Import Library (http://www.assimp.sf.net)
# (assimp v3.1.0)

mtllib BLDG_0003000b004fb416.obj.mtl

# 21 vertex positions
v  2.98302 19.9031 -10.0169
v  10.7096 22.7721 -4.67113
v  8.80168 22.7721 -11.6839
v  5.1027 19.9031 -2.22581
v  16.3164 19.9031 -7.11628
v  14.6202 19.9031 -13.3508
v  12.2633 22.7721 1.03959
v  19.4238 19.9031 4.30517
v  6.65645 22.7721 3.48482
v  8.21007 19.9031 9.19564
v  0.000425324 19.9031 -0.00063018
v  2.34654 22.7721 5.36444
v  4.69254 19.9031 10.7297
v  2.9826 6.1332e-16 -10.0163
v  5.10228 1.36253e-16 -2.22518
v  14.6198 8.1746e-16 -13.3501
v  16.316 4.35708e-16 -7.11565
v  19.4233 -2.63654e-16 4.3058
v  8.20965 -5.63109e-16 9.19627
v  0 0 0
v  4.69211 -6.57043e-16 10.7303

# 0 UV coordinates

# 30 vertex normals
vn -0.413323 0.903614 0.11245
vn -0.413323 0.903614 0.11245
vn 0.413332 0.90361 -0.112453
vn 0.413332 0.90361 -0.112453
vn -0.413323 0.903614 0.11245
vn 0.413332 0.90361 -0.112453
vn 0.175881 0.898011 0.40329
vn 0.175881 0.898011 0.40329
vn -0.175884 0.898007 -0.403296
vn -0.175884 0.898007 -0.403296
vn 0.175881 0.898011 0.40329
vn -0.964926 2.89325e-05 0.262522
vn -0.964926 2.89115e-05 0.262522
vn -0.275405 -2.45193e-05 -0.961328
vn -0.275405 -2.4562e-05 -0.961328
vn -0.275405 -2.47688e-05 -0.961328
vn 0.964926 -2.893e-05 -0.262522
vn 0.964926 -2.89374e-05 -0.262522
vn 0.964926 -2.89359e-05 -0.262522
vn 0.399753 2.04922e-05 0.916623
vn -0.916233 3.22697e-05 0.400647
vn -0.916233 3.22651e-05 0.400647
vn -0.916233 3.22438e-05 0.400647
vn -0.399753 -2.04799e-05 -0.916623
vn -0.399753 -2.04777e-05 -0.916623
vn 0.399753 2.04899e-05 0.916623
vn 4.3334e-24 -1 -6.12323e-17
vn 4.0615e-24 -1 -6.12323e-17
vn 2.95601e-24 -1 -6.12323e-17
vn 3.24833e-24 -1 -6.12323e-17

# Mesh 'defaultobject' with 38 faces
g defaultobject
usemtl DefaultMaterial
f  1//1 2//1 3//1
f  2//1 1//1 4//2
f  3//3 5//3 6//3
f  5//3 3//3 2//4
f  2//1 4//2 7//5
f  7//6 5//3 2//4
f  5//3 7//6 8//6
f  8//7 9//7 10//7
f  9//7 8//7 7//8
f  7//9 4//9 9//9
f  9//9 11//10 12//10
f  11//10 9//9 4//9
f  10//7 12//11 13//11
f  12//11 10//7 9//7
f  4//12 14//12 15//12
f  14//12 4//12 1//13
f  1//14 16//14 14//14
f  16//14 1//14 6//15
f  6//15 1//14 3//16
f  16//17 5//17 17//17
f  5//17 16//17 6//18
f  17//17 8//19 18//19
f  8//19 17//17 5//17
f  18//20 10//20 19//20
f  10//20 18//20 8//20
f  13//21 20//21 21//21
f  20//21 13//21 11//22
f  11//22 13//21 12//23
f  11//24 15//24 20//24
f  15//24 11//24 4//25
f  19//20 13//26 21//26
f  13//26 19//20 10//20
f  14//27 17//27 15//27
f  17//27 14//27 16//28
f  18//29 15//27 17//27
f  15//27 18//29 19//29
f  15//27 21//30 20//30
f  21//30 15//27 19//29

