# {"id":"BLDG_0003000a001ed02e","idOriginal":"BLDG_0003000a001ed02e","origin":[13.394141320364525,52.531384139087514],"elevation":35.3899993896484}
# Longitude: 13.394141320364525
# Latitude: 52.531384139087514
# Elevation: 35.3899993896484

# File produced by Open Asset Import Library (http://www.assimp.sf.net)
# (assimp v3.1.0)

mtllib BLDG_0003000a001ed02e.obj.mtl

# 10 vertex positions
v  0 0 0
v  15.0377 -6.35085e-16 10.3717
v  4.49216 -9.33797e-16 15.2501
v  10.5455 2.98713e-16 -4.87835
v  15.038 15.0452 10.3712
v  4.49248 15.0452 15.2496
v  9.76533 19.6664 12.8103
v  0.000321301 15.0452 -0.00047611
v  10.5458 15.0452 -4.87882
v  5.27317 19.6664 -2.4398

# 0 UV coordinates

# 12 vertex normals
vn 9.27068e-24 -1 -6.12323e-17
vn 0 -1 -6.12323e-17
vn 0.419852 1.97387e-05 0.907592
vn 0.419852 1.97858e-05 0.907592
vn -0.959249 2.94286e-05 0.282563
vn -0.959249 2.94273e-05 0.282563
vn -0.419852 -1.97548e-05 -0.907592
vn -0.419852 -1.97387e-05 -0.907592
vn -0.419852 -1.97858e-05 -0.907592
vn 0.959249 -2.94411e-05 -0.282563
vn -0.601093 0.779318 0.177062
vn 0.601111 0.779303 -0.177067

# Mesh 'defaultobject' with 16 faces
g defaultobject
usemtl DefaultMaterial
f  1//1 2//1 3//1
f  2//1 1//1 4//2
f  5//3 3//3 2//3
f  3//3 5//3 6//3
f  6//3 5//3 7//4
f  6//5 1//5 3//5
f  1//5 6//5 8//6
f  8//7 4//7 1//7
f  4//7 8//7 9//8
f  9//8 8//7 10//9
f  4//10 5//10 2//10
f  5//10 4//10 9//10
f  8//11 7//11 10//11
f  7//11 8//11 6//11
f  10//12 5//12 9//12
f  5//12 10//12 7//12

