# {"id":"BLDG_00030000001f3b9d","idOriginal":"BLDG_00030000001f3b9d","origin":[13.388439894693741,52.55115489211616],"elevation":43.67}
# Longitude: 13.388439894693741
# Latitude: 52.55115489211616
# Elevation: 43.67

# File produced by Open Asset Import Library (http://www.assimp.sf.net)
# (assimp v3.1.0)

mtllib BLDG_00030000001f3b9d.obj.mtl

# 20 vertex positions
v  9.63166 17.38 5.30749
v  4.81614 23.43 2.65328
v  17.4828 17.38 -8.93801
v  12.6672 23.43 -11.5922
v  7.85147 17.38 -14.2461
v  0.000371045 17.38 -0.00055072
v  9.80879 0.24 4.41202
v  -0.192488 0.24 -0.0856949
v  9.80917 18.2024 4.41145
v  -0.192104 18.2024 -0.0862641
v  4.80865 23.5985 2.16242
v  7.22717 0.24 -13.5563
v  7.22756 18.2024 -13.5568
v  17.2285 0.24 -9.05856
v  17.2288 18.2024 -9.05913
v  12.2283 23.5985 -11.3082
v  0 0 0
v  9.63129 -3.25024e-16 5.30804
v  17.4824 5.47262e-16 -8.93746
v  7.8511 8.72285e-16 -14.2455

# 0 UV coordinates

# 26 vertex normals
vn -0.648116 -0.672575 -0.357195
vn -0.648116 -0.672575 -0.357195
vn 0.648114 -0.672578 0.357194
vn 0.648114 -0.672578 0.357194
vn 0.410148 -3.76373e-05 -0.912019
vn 0.410148 -3.76552e-05 -0.912019
vn 0.410148 -3.76159e-05 -0.912019
vn 0.875918 -3.41242e-06 0.48246
vn 0.875918 -3.4516e-06 0.48246
vn -0.410148 3.7624e-05 0.912019
vn -0.410148 3.76616e-05 0.912019
vn -0.410148 3.75998e-05 0.912019
vn -0.875918 3.41554e-06 -0.48246
vn -0.875918 3.40273e-06 -0.48246
vn 0.482675 -3.80561e-05 -0.8758
vn 0.482675 -3.80556e-05 -0.8758
vn 0.482675 -3.80566e-05 -0.8758
vn -0.482675 3.81061e-05 0.875799
vn -0.482675 3.80316e-05 0.8758
vn -0.482675 3.79992e-05 0.8758
vn -0.875798 3.39874e-06 -0.482677
vn -0.875798 3.43355e-06 -0.482677
vn 0.875798 -3.41198e-06 0.482677
vn 0.875798 -3.4028e-06 0.482677
vn -4.7353e-24 1 6.12323e-17
vn 2.36765e-24 1 6.12323e-17

# Mesh 'defaultobject' with 26 faces
g defaultobject
usemtl DefaultMaterial
f  1//1 2//1 3//1
f  4//2 3//1 2//1
f  4//3 2//3 5//3
f  6//4 5//3 2//3
f  7//5 8//5 9//5
f  10//6 9//5 8//5
f  11//7 9//5 10//6
f  8//8 12//8 10//8
f  13//9 10//8 12//8
f  12//10 14//10 13//10
f  15//11 13//10 14//10
f  16//12 13//10 15//11
f  7//13 9//13 14//13
f  15//14 14//13 9//13
f  17//15 6//15 18//15
f  1//16 18//15 6//15
f  2//17 1//16 6//15
f  19//18 3//18 20//18
f  5//19 20//18 3//18
f  4//20 5//19 3//18
f  18//21 1//21 19//21
f  3//22 19//21 1//21
f  5//23 6//23 20//23
f  17//24 20//23 6//23
f  19//25 20//25 18//25
f  17//26 18//25 20//25

