# {"id":"BLDG_0003000b001e4b5e","idOriginal":"BLDG_0003000b001e4b5e","origin":[13.355677031755707,52.521286068433675],"elevation":32.7799987792969}
# Longitude: 13.355677031755707
# Latitude: 52.521286068433675
# Elevation: 32.7799987792969

# File produced by Open Asset Import Library (http://www.assimp.sf.net)
# (assimp v3.1.0)

mtllib BLDG_0003000b001e4b5e.obj.mtl

# 32 vertex positions
v  12.0332 3.15626e-16 -5.15457
v  11.0315 19.6579 -1.04677
v  11.0311 6.4058e-17 -1.04615
v  12.0337 19.6579 -5.15519
v  1.72448 19.6579 -7.47213
v  1.72406 4.57498e-16 -7.47151
v  0.000418768 19.6579 -0.00062169
v  0 0 0
v  10.2147 -1.63137e-16 2.66423
v  10.2151 19.6579 2.66361
v  0.00035957 16.879 -0.000533801
v  10.2147 0.330002 2.66422
v  7.02997e-06 0.330002 -1.04401e-05
v  10.215 16.879 2.6637
v  -1.56329 16.879 6.99494
v  -1.56364 0.330002 6.99546
v  -0.883244 0.330002 7.38557
v  -0.882891 16.879 7.38505
v  7.28581 0.330002 12.0646
v  7.28616 16.879 12.064
v  9.30709 0.330002 13.2223
v  9.30744 16.879 13.2218
v  10.0266 0.330002 10.146
v  10.0269 16.879 10.1455
v  8.56626 16.879 9.80341
v  8.56591 0.330002 9.80393
v  11.6948 -1.84331e-16 3.01036
v  11.6952 19.6579 3.00974
v  12.0902 -8.0566e-17 1.31574
v  12.0906 19.6579 1.31512
v  12.5592 4.21726e-17 -0.68873
v  12.5596 19.6579 -0.689352

# 0 UV coordinates

# 36 vertex normals
vn 0.971514 -1.31985e-05 0.236981
vn 0.219276 -3.55087e-05 -0.975663
vn 0.219276 -3.5531e-05 -0.975663
vn -0.974395 1.36466e-05 -0.224843
vn -0.974395 1.36515e-05 -0.224843
vn -0.252381 3.59839e-05 0.967628
vn 0.252381 -3.59776e-05 -0.967628
vn 0.252381 -3.59806e-05 -0.967628
vn -0.975918 1.38995e-05 -0.21814
vn -0.975918 1.38912e-05 -0.21814
vn -0.497402 3.80194e-05 0.86752
vn -0.497402 3.80424e-05 0.86752
vn -0.497016 3.80503e-05 0.867741
vn -0.497017 3.80259e-05 0.867741
vn -0.497023 3.80369e-05 0.867737
vn -0.497023 3.80493e-05 0.867737
vn 0.973723 -1.35573e-05 0.227736
vn 0.973723 -1.35162e-05 0.227736
vn 0.228034 -3.561e-05 -0.973653
vn 0.228034 -3.55968e-05 -0.973653
vn 0.974357 -1.36684e-05 0.225009
vn 0.974357 -1.36683e-05 0.225009
vn -0.227707 3.56478e-05 0.97373
vn 0.973846 -1.35528e-05 0.227209
vn 0.973846 -1.35545e-05 0.227209
vn 0.973701 -1.35314e-05 0.227829
vn 0.227745 -3.56441e-05 -0.973721
vn 0.227745 -3.5647e-05 -0.973721
vn 1.25089e-24 -1 -6.12323e-17
vn 0 -1 -6.12323e-17
vn 0 -1 -6.12323e-17
vn 2.9855e-25 -1 -6.12323e-17
vn -1.19578e-24 -1 -6.12323e-17
vn 3.9205e-24 -1 -6.12323e-17
vn -0 -1 0
vn 0 1 0

# Mesh 'defaultobject' with 56 faces
g defaultobject
usemtl DefaultMaterial
f  1//1 2//1 3//1
f  2//1 1//1 4//1
f  5//2 1//2 6//2
f  1//2 5//2 4//3
f  7//4 6//4 8//4
f  6//4 7//4 5//5
f  9//6 7//6 8//6
f  7//6 9//6 10//6
f  11//7 12//7 13//7
f  12//7 11//7 14//8
f  15//9 13//9 16//9
f  13//9 15//9 11//10
f  17//11 15//11 16//11
f  15//11 17//11 18//12
f  19//13 18//13 17//13
f  18//13 19//13 20//14
f  21//15 20//14 19//13
f  20//14 21//15 22//16
f  23//17 22//17 21//17
f  22//17 23//17 24//18
f  25//19 23//19 26//19
f  23//19 25//19 24//20
f  12//21 25//21 26//21
f  25//21 12//21 14//22
f  27//23 10//23 9//23
f  10//23 27//23 28//23
f  29//24 28//24 27//24
f  28//24 29//24 30//25
f  31//26 30//26 29//26
f  30//26 31//26 32//26
f  2//27 31//27 3//27
f  31//27 2//27 32//28
f  9//29 29//29 27//29
f  29//29 9//29 31//30
f  31//30 9//29 8//31
f  31//30 8//31 3//32
f  3//32 8//31 1//33
f  1//33 8//31 6//34
f  12//35 16//35 13//35
f  16//35 12//35 17//35
f  17//35 12//35 19//35
f  19//35 12//35 26//35
f  19//35 26//35 23//35
f  19//35 23//35 21//35
f  10//36 5//36 7//36
f  5//36 10//36 28//36
f  5//36 28//36 30//36
f  5//36 30//36 2//36
f  2//36 30//36 32//36
f  4//36 5//36 2//36
f  11//36 25//36 14//36
f  25//36 11//36 22//36
f  22//36 11//36 20//36
f  20//36 11//36 18//36
f  18//36 11//36 15//36
f  22//36 24//36 25//36

