# {"id":"BLDG_0003000a00486172","idOriginal":"BLDG_0003000a00486172","origin":[13.40669397124477,52.52792900557149],"elevation":36.6800003051758}
# Longitude: 13.40669397124477
# Latitude: 52.52792900557149
# Elevation: 36.6800003051758

# File produced by Open Asset Import Library (http://www.assimp.sf.net)
# (assimp v3.1.0)

mtllib BLDG_0003000a00486172.obj.mtl

# 19 vertex positions
v  12.2985 16.7983 -14.5662
v  23.3433 5.76018e-16 -9.40708
v  12.2981 8.91893e-16 -14.5657
v  23.3436 16.7983 -9.40761
v  18.856 16.7983 -0.0541317
v  18.8556 3.28207e-18 -0.0536003
v  7.32793 16.7983 -4.2062
v  7.32757 2.57523e-16 -4.20567
v  16.0559 16.7983 5.78218
v  16.0555 -3.54089e-16 5.78271
v  4.52743 -9.9848e-17 1.63064
v  4.52782 18.6499 1.63005
v  10.2919 18.6499 3.70608
v  0.000398597 18.6499 -0.00059003
v  0 0 0
v  2.05825 3.73733e-16 -6.10352
v  2.05861 16.7983 -6.10405
v  15.1805 18.6499 -6.48318
v  13.092 18.6499 -2.13022

# 0 UV coordinates

# 31 vertex normals
vn 0.423171 -3.77083e-05 -0.90605
vn 0.423171 -3.77323e-05 -0.90605
vn 0.9016 -5.66937e-06 0.43257
vn -0.901601 5.59268e-06 -0.43257
vn -0.9016 5.61827e-06 -0.43257
vn 0.9016 -5.56032e-06 0.43257
vn -0.338861 3.69846e-05 0.940836
vn -0.338861 3.70053e-05 0.940836
vn -0.338861 3.69913e-05 0.940836
vn -0.338861 3.70118e-05 0.940836
vn -0.947572 1.01426e-05 -0.319543
vn -0.947572 1.01404e-05 -0.319543
vn 0.338861 -3.70209e-05 -0.940836
vn 0.338861 -3.69942e-05 -0.940836
vn -6.698e-24 -1 -6.12323e-17
vn -6.04723e-24 -1 -6.12323e-17
vn 0 -1 -6.12323e-17
vn 5.36723e-24 -1 -6.12323e-17
vn -8.54154e-25 -1 -6.12323e-17
vn 0 -1 -6.12323e-17
vn 0.122835 0.956944 -0.263001
vn 0.262072 0.956822 0.125737
vn 0.262072 0.956822 0.125737
vn -0.262071 0.956822 -0.125736
vn -0.262071 0.956822 -0.125736
vn 0.262072 0.956822 0.125737
vn 0.262072 0.956822 0.125737
vn 0.0936357 0.961064 -0.259977
vn -0.262071 0.956822 -0.125736
vn 0.0936357 0.961064 -0.259977
vn 0.0936357 0.961064 -0.259977

# Mesh 'defaultobject' with 34 faces
g defaultobject
usemtl DefaultMaterial
f  1//1 2//1 3//1
f  2//1 1//1 4//2
f  2//3 5//3 6//3
f  5//3 2//3 4//3
f  7//4 3//4 8//4
f  3//4 7//4 1//5
f  6//3 9//6 10//6
f  9//6 6//3 5//3
f  9//7 11//7 10//7
f  11//7 9//7 12//8
f  12//8 9//7 13//9
f  11//7 14//10 15//10
f  14//10 11//7 12//8
f  14//11 16//11 15//11
f  16//11 14//11 17//12
f  17//13 8//13 16//13
f  8//13 17//13 7//14
f  6//15 3//15 2//15
f  3//15 6//15 8//16
f  10//17 8//16 6//15
f  8//16 10//17 11//18
f  15//19 8//16 11//18
f  8//16 15//19 16//20
f  18//21 4//21 1//21
f  5//22 18//22 19//22
f  18//22 5//22 4//23
f  19//24 1//24 7//24
f  1//24 19//24 18//25
f  19//22 9//26 5//22
f  9//26 19//22 13//27
f  13//28 7//28 12//28
f  13//29 19//24 7//24
f  17//30 12//28 7//28
f  12//28 17//30 14//31

