# {"id":"BLDG_00030009000d7ad0","idOriginal":"BLDG_00030009000d7ad0","origin":[13.352444002904608,52.54894958467063],"elevation":36.0999984741211}
# Longitude: 13.352444002904608
# Latitude: 52.54894958467063
# Elevation: 36.0999984741211

# File produced by Open Asset Import Library (http://www.assimp.sf.net)
# (assimp v3.1.0)

mtllib BLDG_00030009000d7ad0.obj.mtl

# 36 vertex positions
v  18.9016 9.32643e-16 -15.2312
v  27.4802 -1.81671e-16 2.96691
v  13.725 6.77218e-16 -11.0598
v  32.1981 1.02395e-16 -1.67224
v  24.4392 -1.51203e-15 24.6933
v  29.3322 -1.21742e-15 19.882
v  34.2351 -2.47945e-17 0.404925
v  36.8341 -7.65739e-16 12.5055
v  38.3391 -2.81055e-16 4.58997
v  41.552 -4.81673e-16 7.86632
v  5.37123 2.65027e-16 -4.32822
v  15.0414 -9.30601e-16 15.1979
v  0 0 0
v  19.9345 -6.35991e-16 10.3865
v  17.0879 -1.05722e-15 17.2656
v  21.2112 -1.31232e-15 21.4318
v  41.5524 18.6 7.86573
v  34.2355 21.16 0.404255
v  38.3396 21.83 4.58928
v  32.1986 21.376 -1.67292
v  18.9021 21.376 -15.2319
v  21.2117 21.83 21.4311
v  17.0884 21.16 17.265
v  24.4396 18.6 24.6927
v  0.000455307 21.376 -0.00067726
v  15.0419 21.376 15.1972
v  36.8345 18.6 12.5049
v  29.3326 18.6 19.8814
v  27.4806 18.6 2.96632
v  13.7254 18.6 -11.0604
v  19.9349 18.6 10.3859
v  5.37163 18.6 -4.32881
v  26.1047 21.83 16.6198
v  33.6216 21.83 9.22843
v  21.9814 21.16 12.4536
v  29.5176 21.16 5.04341

# 0 UV coordinates

# 57 vertex normals
vn 3.25808e-24 -1 -6.12323e-17
vn 0 -1 -6.12323e-17
vn -1.84785e-23 -1 -6.12323e-17
vn -6.7956e-23 -1 -6.12323e-17
vn 1.54079e-23 -1 -6.12323e-17
vn -1.09199e-23 -1 -6.12323e-17
vn 0 -1 -6.12323e-17
vn 2.88629e-24 -1 -6.12323e-17
vn 2.98105e-24 -1 -6.12323e-17
vn -2.12139e-23 -1 -6.12324e-17
vn 2.36902e-23 -1 -6.12323e-17
vn 0.713984 -3.75277e-05 -0.700162
vn 0.713984 -3.74006e-05 -0.700162
vn 0.713984 -3.74297e-05 -0.700162
vn -1.85037e-17 1 9.25186e-17
vn -0.710755 3.75707e-05 0.703439
vn -0.710755 3.74496e-05 0.703439
vn -0.710755 3.74557e-05 0.703439
vn -0.710755 3.73629e-05 0.703439
vn -0.710755 3.7445e-05 0.703439
vn -0.710755 3.74262e-05 0.703439
vn -0.710755 3.96448e-05 0.703439
vn 0.701126 7.6405e-06 0.713037
vn 0.701127 7.77795e-06 0.713037
vn 0.701127 7.77052e-06 0.713037
vn 0.701127 7.74899e-06 0.713037
vn 0.701127 7.60251e-06 0.713037
vn 0.701127 7.63603e-06 0.713037
vn -0.713984 3.74147e-05 0.700162
vn -0.627452 -1.12897e-05 -0.778655
vn -0.627452 -1.1284e-05 -0.778655
vn -0.701127 -7.63904e-06 -0.713037
vn -0.627452 -1.13056e-05 -0.778655
vn -0.627452 -1.13058e-05 -0.778655
vn 0.710755 -3.74461e-05 -0.703439
vn 0.710755 -3.74064e-05 -0.703439
vn 0.403563 0.817737 0.410418
vn 0.403564 0.817736 0.410418
vn 0.40356 0.81774 0.410416
vn 0.403562 0.817738 0.410417
vn 0.403562 0.817738 0.410417
vn 0.403561 0.817738 0.410417
vn -0.0796232 0.993531 -0.0809757
vn -0.0796229 0.993531 -0.0809757
vn -0.0796235 0.993531 -0.080976
vn -0.0796239 0.99353 -0.0809763
vn -0.0796235 0.99353 -0.0809763
vn 0 1 0
vn -0.463172 0.750728 -0.47104
vn -0.463172 0.750728 -0.47104
vn -0.463171 0.750729 -0.47104
vn -0.227692 0.920014 0.318953
vn -0.276219 0.922134 0.270872
vn -0.276219 0.922134 0.270872
vn 0.314083 0.924909 -0.214233
vn 0.266543 0.927019 -0.263799
vn 0.266543 0.927019 -0.263799

# Mesh 'defaultobject' with 68 faces
g defaultobject
usemtl DefaultMaterial
f  1//1 2//1 3//1
f  2//1 1//1 4//2
f  2//1 4//2 5//2
f  5//2 4//2 6//3
f  6//3 4//2 7//4
f  6//3 7//4 8//5
f  8//5 7//4 9//6
f  8//5 9//6 10//7
f  11//8 12//8 13//8
f  12//8 11//8 14//9
f  12//8 14//9 15//10
f  15//10 14//9 16//11
f  16//11 14//9 2//1
f  16//11 2//1 5//2
f  17//12 18//12 19//12
f  20//13 1//13 21//13
f  1//13 20//13 18//12
f  1//13 18//12 17//12
f  1//13 17//12 10//14
f  1//1 10//7 4//2
f  4//2 10//7 7//4
f  7//15 10//15 9//15
f  22//16 23//16 24//16
f  24//16 16//17 5//17
f  16//17 24//16 15//18
f  15//18 24//16 12//19
f  12//19 24//16 13//20
f  13//20 24//16 25//21
f  25//21 24//16 23//16
f  25//21 23//16 26//22
f  27//23 10//23 17//23
f  10//23 27//23 28//24
f  10//23 28//24 24//25
f  10//23 24//25 8//26
f  8//26 24//25 6//27
f  6//27 24//25 5//28
f  29//29 3//29 2//29
f  3//29 29//29 30//29
f  30//30 1//30 3//30
f  1//30 30//30 21//31
f  31//32 2//32 14//32
f  2//32 31//32 29//32
f  25//33 11//33 13//33
f  11//33 25//33 32//34
f  11//35 31//35 14//35
f  31//35 11//35 32//36
f  24//37 33//37 22//37
f  33//37 24//37 34//38
f  34//38 24//37 19//39
f  19//39 24//37 28//40
f  19//39 28//40 27//41
f  19//39 27//41 17//42
f  22//43 35//43 23//43
f  35//43 22//43 36//44
f  36//44 22//43 18//45
f  18//45 22//43 34//46
f  18//45 34//46 19//47
f  34//48 22//48 33//48
f  23//49 29//49 31//49
f  29//49 23//49 35//50
f  29//49 35//50 18//51
f  18//48 35//48 36//48
f  18//52 20//52 29//52
f  29//53 21//53 30//53
f  21//53 29//53 20//54
f  23//55 31//55 26//55
f  32//56 26//56 31//56
f  26//56 32//56 25//57

