# {"id":"BLDG_0003000e000e0731","idOriginal":"BLDG_0003000e000e0731","origin":[13.339461266144749,52.55267499678847],"elevation":35.1199989318848}
# Longitude: 13.339461266144749
# Latitude: 52.55267499678847
# Elevation: 35.1199989318848

# File produced by Open Asset Import Library (http://www.assimp.sf.net)
# (assimp v3.1.0)

mtllib BLDG_0003000e000e0731.obj.mtl

# 12 vertex positions
v  8.47101 16.7048 8.31485
v  4.23533 -2.54585e-16 4.15769
v  8.47066 -5.0917e-16 8.31538
v  0 0 0
v  0.00035552 16.7048 -0.00052941
v  4.23577 20.8434 4.15703
v  8.49217 16.7048 -8.79612
v  12.7616 2.86174e-16 -4.67357
v  8.49182 5.38575e-16 -8.79559
v  17.0314 3.3773e-17 -0.551556
v  17.0317 16.7048 -0.552085
v  12.762 20.8434 -4.67424

# 0 UV coordinates

# 20 vertex normals
vn -0.700536 3.75285e-05 0.713617
vn -0.700536 3.7534e-05 0.713617
vn -0.700536 3.75252e-05 0.713617
vn -0.700536 3.7506e-05 0.713617
vn 0.694549 -3.75856e-05 -0.719445
vn 0.694549 -3.7593e-05 -0.719445
vn 0.694549 -3.75511e-05 -0.719445
vn 0.694549 -3.76626e-05 -0.719445
vn -0.719421 -6.70144e-06 -0.694574
vn -0.719421 -6.68777e-06 -0.694574
vn 0.719421 6.70714e-06 0.694574
vn 0.719421 6.74419e-06 0.694574
vn 1.44748e-24 -1 -6.12323e-17
vn -1.80935e-25 -1 -6.12323e-17
vn 0 -1 -6.12323e-17
vn 0 -1 -6.12323e-17
vn -0.41151 0.820252 -0.397298
vn -0.41151 0.820252 -0.397298
vn 0.411508 0.820255 0.397295
vn 0.411507 0.820255 0.397295

# Mesh 'defaultobject' with 20 faces
g defaultobject
usemtl DefaultMaterial
f  1//1 2//1 3//1
f  2//1 1//1 4//2
f  4//2 1//1 5//3
f  5//3 1//1 6//4
f  7//5 8//5 9//5
f  8//5 7//5 10//6
f  10//6 7//5 11//7
f  11//7 7//5 12//8
f  5//9 9//9 4//9
f  9//9 5//9 7//10
f  10//11 1//11 3//11
f  1//11 10//11 11//12
f  2//13 10//13 3//13
f  10//13 2//13 4//14
f  10//13 4//14 8//15
f  8//15 4//14 9//16
f  7//17 6//17 12//17
f  6//17 7//17 5//18
f  12//19 1//19 11//19
f  1//19 12//19 6//20

