# {"id":"BLDG_0003000b0049874b","idOriginal":"BLDG_0003000b0049874b","origin":[13.333974336569824,52.529228878848606],"elevation":34}
# Longitude: 13.333974336569824
# Latitude: 52.529228878848606
# Elevation: 34

# File produced by Open Asset Import Library (http://www.assimp.sf.net)
# (assimp v3.1.0)

mtllib BLDG_0003000b0049874b.obj.mtl

# 8 vertex positions
v  36.3555 -3.85978e-16 6.3035
v  9.3781e-05 4.40829 -0.00013949
v  0 0 0
v  36.3556 4.40829 6.30336
v  38.3295 3.64215e-16 -5.94808
v  38.3296 4.40829 -5.94822
v  2.11665 4.40829 -12.3338
v  2.11656 7.55221e-16 -12.3337

# 0 UV coordinates

# 11 vertex normals
vn -0.170836 3.48972e-05 0.985299
vn -0.170836 3.48034e-05 0.985299
vn 0.987267 -1.63173e-05 0.159072
vn 0.987267 -1.62824e-05 0.159072
vn 0.173656 -3.50094e-05 -0.984806
vn 0.173656 -3.49686e-05 -0.984806
vn -0.985593 1.56154e-05 -0.169135
vn -0.985593 1.55701e-05 -0.169135
vn 0 -1 -6.12323e-17
vn 4.60188e-25 -1 -6.12323e-17
vn 0 1 0

# Mesh 'defaultobject' with 12 faces
g defaultobject
usemtl DefaultMaterial
f  1//1 2//1 3//1
f  2//1 1//1 4//2
f  5//3 4//3 1//3
f  4//3 5//3 6//4
f  7//5 5//5 8//5
f  5//5 7//5 6//6
f  2//7 8//7 3//7
f  8//7 2//7 7//8
f  3//9 5//9 1//9
f  5//9 3//9 8//10
f  2//11 6//11 7//11
f  6//11 2//11 4//11

