# {"id":"BLDG_00030000001a261b","idOriginal":"BLDG_00030000001a261b","origin":[13.423039761104897,52.505847921335686],"elevation":34.560001373291}
# Longitude: 13.423039761104897
# Latitude: 52.505847921335686
# Elevation: 34.560001373291

# File produced by Open Asset Import Library (http://www.assimp.sf.net)
# (assimp v3.1.0)

mtllib BLDG_00030000001a261b.obj.mtl

# 8 vertex positions
v  12.1319 4.59703e-16 -7.50752
v  7.15295 4.39848 3.09908
v  7.15286 -1.89772e-16 3.09922
v  12.132 4.39848 -7.50766
v  7.1537e-05 3.34382 -0.00010564
v  0 0 0
v  4.97905 6.49475e-16 -10.6067
v  4.97912 3.34382 -10.6068

# 0 UV coordinates

# 12 vertex normals
vn 0.905225 -5.92136e-06 0.424933
vn 0.905225 -6.0694e-06 0.424934
vn -0.397569 3.74643e-05 0.917572
vn -0.397569 3.74928e-05 0.917572
vn -0.905225 5.94143e-06 -0.424934
vn -0.905225 5.91065e-06 -0.424934
vn 0.397569 -3.75524e-05 -0.917572
vn 0.397569 -3.74806e-05 -0.917572
vn -9.27751e-24 -1 -6.12323e-17
vn 0 -1 -6.12323e-17
vn -0.121418 0.990964 -0.0569964
vn -0.121418 0.990964 -0.0569964

# Mesh 'defaultobject' with 12 faces
g defaultobject
usemtl DefaultMaterial
f  1//1 2//1 3//1
f  2//1 1//1 4//2
f  3//3 5//3 6//3
f  5//3 3//3 2//4
f  5//5 7//5 6//5
f  7//5 5//5 8//6
f  8//7 1//7 7//7
f  1//7 8//7 4//8
f  3//9 7//9 1//9
f  7//9 3//9 6//10
f  8//11 2//11 4//11
f  2//11 8//11 5//12

