# {"id":"BLDG_0003000f00088bb7","idOriginal":"BLDG_0003000f00088bb7","origin":[13.35261219555189,52.51980849070661],"elevation":34.71}
# Longitude: 13.35261219555189
# Latitude: 52.51980849070661
# Elevation: 34.71

# File produced by Open Asset Import Library (http://www.assimp.sf.net)
# (assimp v3.1.0)

mtllib BLDG_0003000f00088bb7.obj.mtl

# 41 vertex positions
v  15.0914 7.68102e-16 -12.5441
v  21.5069 1.73557e-15 -28.3439
v  17.6948 7.45517e-16 -12.1752
v  7.01223 8.38194e-16 -13.6888
v  3.34974 8.69969e-16 -14.2077
v  18.9477 1.77251e-15 -28.9473
v  11.0636 1.88632e-15 -30.8059
v  7.4632 1.93829e-15 -31.6547
v  34.6253 3.69871e-16 -6.04045
v  35.1512 5.94071e-16 -9.70192
v  33.4581 -1.2766e-16 2.08484
v  33.0843 -2.87023e-16 4.68745
v  14.3451 -1.24449e-16 2.03241
v  16.8459 5.2506e-16 -8.57487
v  14.9484 3.22537e-17 -0.526743
v  16.8459 -1.22 -8.57484
v  15.0914 -1.22 -12.544
v  17.6948 -1.22 -12.1752
v  7.0122 -1.22 -13.6887
v  14.9484 -1.22 -0.526705
v  14.345 -1.22 2.03245
v  3.34972 -1.22 -14.2076
v  0 -1.22 -7.47035e-17
v  7.46363 20.33 -31.6553
v  7.0127 22.43 -13.6895
v  11.064 22.43 -30.8066
v  3.35017 20.33 -14.2083
v  4.26636 22.43 -2.04099
v  0.000458984 20.33 -0.00068146
v  33.4586 22.43 2.08413
v  14.3455 20.33 2.03177
v  33.0847 20.33 4.68681
v  14.9489 22.43 -0.527453
v  15.0919 23.14 -12.5448
v  18.9482 23.14 -28.948
v  14.2431 23.14 -8.94446
v  34.6258 23.14 -6.04119
v  16.8464 23.14 -8.57561
v  17.6952 20.33 -12.1759
v  21.5073 20.33 -28.3446
v  35.1517 20.33 -9.70256

# 0 UV coordinates

# 84 vertex normals
vn 1.27789e-23 -1 -6.12323e-17
vn 0 -1 -6.12323e-17
vn -1.38413e-23 -1 -6.12323e-17
vn -3.03271e-23 -1 -6.12324e-17
vn -3.64599e-24 -1 -6.12323e-17
vn 7.98401e-24 -1 -6.12323e-17
vn -4.87046e-24 -1 -6.12323e-17
vn -2.92634e-24 -1 -6.12323e-17
vn 0 -1 -6.12323e-17
vn 0 -1 -6.12323e-17
vn 0 1 5.55112e-17
vn 0 0 1
vn 0 -1 -0
vn -0.480424 0.869634 -0.113708
vn -0.482023 0.868757 -0.113646
vn -0.482023 0.868757 -0.113646
vn -0.0875444 0.781378 0.617887
vn -0.0874089 0.780104 0.619514
vn -0.0877648 0.78012 0.619443
vn -0.0877648 0.78012 0.619443
vn -0.0849996 0.996181 -0.0199826
vn -0.0847055 0.996204 -0.0200484
vn -0.0847162 0.996205 -0.0199734
vn -0.0847162 0.996205 -0.0199734
vn -0.012039 0.99628 0.0853267
vn -0.0121216 0.996304 0.0850349
vn -0.0120504 0.996304 0.0850516
vn -0.0120504 0.996304 0.0850516
vn 0.710709 0.683239 0.167563
vn 0.712166 0.681755 0.167423
vn 0.712077 0.681733 0.167886
vn 0.0853673 0.796287 -0.598865
vn 0.0850815 0.795082 -0.600504
vn 0.0850814 0.795082 -0.600504
vn 0.973314 -1.32671e-05 0.229477
vn 0.973314 -1.38496e-05 0.229477
vn 0.973314 -1.77513e-05 0.229477
vn 0.973314 -1.26382e-05 0.229477
vn 0.973314 -1.34733e-05 0.229477
vn 0.973314 -1.3577e-05 0.229477
vn 0.973314 -1.33429e-05 0.229477
vn 0.973314 -1.34979e-05 0.229477
vn 0.973314 -1.35643e-05 0.229477
vn 0.973314 -1.32016e-05 0.229477
vn -0.140282 3.41145e-05 0.990112
vn -0.140282 3.4103e-05 0.990112
vn -0.140282 3.43385e-05 0.990112
vn -0.140282 3.43397e-05 0.990112
vn -2.77556e-17 1 2.498e-16
vn 0.229455 -3.57795e-05 -0.973319
vn 0.229455 -3.58807e-05 -0.973319
vn 0.229455 -3.56587e-05 -0.973319
vn 0.229455 -3.56603e-05 -0.973319
vn -2.77556e-17 1 1.66533e-16
vn 0.98984 -1.60352e-05 0.142186
vn 0.98984 -1.65569e-05 0.142186
vn 0.98984 -1.6678e-05 0.142186
vn 0.98984 -1.66766e-05 0.142186
vn -1.05736e-17 1 6.34413e-17
vn 0 1 6.19163e-17
vn -0.973314 1.32385e-05 -0.229477
vn -0.973314 1.36421e-05 -0.229477
vn -0.973314 1.34586e-05 -0.229477
vn -0.973314 1.34733e-05 -0.229477
vn 1.11022e-16 -1 -2.77556e-17
vn -7.40149e-17 -1 -9.25186e-17
vn 0.140282 -3.37993e-05 -0.990112
vn 0.140282 -3.43385e-05 -0.990111
vn 0.140282 -3.4307e-05 -0.990112
vn 0.140282 -3.43074e-05 -0.990111
vn 0.140282 -3.4291e-05 -0.990112
vn 0.140282 -3.42886e-05 -0.990112
vn 0.140282 -3.43175e-05 -0.990111
vn -0.89283 3.32772e-05 0.450394
vn 0.140282 -3.4312e-05 -0.990112
vn -0.140282 3.43053e-05 0.990112
vn -0.140282 3.43066e-05 0.990112
vn -0.140282 3.42877e-05 0.990112
vn -0.140282 3.42974e-05 0.990112
vn -0.973314 1.34733e-05 -0.229477
vn -0.973314 1.34458e-05 -0.229477
vn -0.973314 1.34825e-05 -0.229477
vn -0.973314 1.34736e-05 -0.229477
vn -0.973314 1.37092e-05 -0.229477

# Mesh 'defaultobject' with 94 faces
g defaultobject
usemtl DefaultMaterial
f  1//1 2//1 3//1
f  2//1 1//1 4//2
f  2//1 4//2 5//3
f  2//1 5//3 6//4
f  6//4 5//3 7//5
f  7//5 5//3 8//6
f  9//7 3//1 10//7
f  3//1 9//7 11//8
f  3//1 11//8 12//9
f  3//1 12//9 13//10
f  3//11 13//11 14//11
f  14//12 13//12 15//12
f  16//13 17//13 18//13
f  17//13 16//13 19//13
f  19//13 16//13 20//13
f  19//13 20//13 21//13
f  19//13 21//13 22//13
f  22//13 21//13 23//13
f  24//14 25//14 26//14
f  25//15 24//15 27//15
f  25//15 27//15 28//16
f  28//16 27//15 29//16
f  30//17 31//17 32//17
f  31//18 30//18 33//18
f  31//19 33//19 29//19
f  29//19 33//19 28//20
f  26//21 34//21 35//21
f  34//22 26//22 25//22
f  34//23 25//23 36//23
f  36//23 25//23 28//24
f  37//25 33//25 30//25
f  33//26 37//26 38//26
f  33//27 38//27 28//27
f  28//27 38//27 36//28
f  35//29 39//29 40//29
f  39//30 35//30 34//30
f  39//31 34//31 36//31
f  41//32 38//32 37//32
f  38//33 41//33 39//33
f  38//33 39//33 36//34
f  20//35 13//35 21//35
f  13//35 20//35 16//36
f  13//35 16//36 18//37
f  13//35 18//37 3//38
f  13//35 3//38 31//39
f  31//39 3//38 2//40
f  31//39 2//40 39//41
f  39//41 2//40 40//42
f  39//41 33//43 31//39
f  33//43 39//41 38//44
f  25//45 39//45 34//45
f  39//45 25//45 27//46
f  39//45 27//46 3//47
f  3//47 27//46 5//48
f  3//1 5//3 1//1
f  1//49 5//49 4//49
f  40//50 26//50 35//50
f  26//50 40//50 24//51
f  24//51 40//50 2//52
f  24//51 2//52 8//53
f  8//6 2//1 6//4
f  8//54 6//54 7//54
f  30//55 41//55 37//55
f  41//55 30//55 32//56
f  41//55 32//56 10//57
f  10//57 32//56 12//58
f  10//59 12//59 9//59
f  9//59 12//59 11//60
f  39//61 33//61 38//61
f  33//61 39//61 31//62
f  31//62 39//61 3//63
f  31//62 3//63 13//64
f  13//10 3//1 14//65
f  13//10 14//65 15//66
f  17//67 3//67 18//67
f  3//67 17//67 39//68
f  39//68 17//67 34//69
f  34//69 17//67 19//70
f  34//69 19//70 25//71
f  25//71 19//70 22//72
f  25//71 22//72 27//73
f  27//74 22//74 5//74
f  3//67 41//75 10//75
f  41//75 3//67 39//68
f  32//76 13//76 12//76
f  13//76 23//77 21//77
f  23//77 13//76 32//76
f  23//77 32//76 31//78
f  23//77 31//78 29//79
f  8//80 27//80 24//80
f  27//80 8//80 29//81
f  29//81 8//80 5//82
f  29//81 5//82 23//83
f  23//83 5//82 22//84

