# {"id":"BLDG_0003000f0003e9c8","idOriginal":"BLDG_0003000f0003e9c8","origin":[13.36005133376811,52.52487387890252],"elevation":35.2799987792969}
# Longitude: 13.36005133376811
# Latitude: 52.52487387890252
# Elevation: 35.2799987792969

# File produced by Open Asset Import Library (http://www.assimp.sf.net)
# (assimp v3.1.0)

mtllib BLDG_0003000f0003e9c8.obj.mtl

# 92 vertex positions
v  14.8145 21.4026 18.3513
v  17.0213 21.4026 12.014
v  12.9075 21.4026 13.701
v  18.9283 21.4026 16.6644
v  8.84647 21.3238 6.83013
v  11.0533 21.3238 0.492797
v  6.93948 21.3238 2.17975
v  12.9603 21.3238 5.14318
v  0.000389326 18.0305 -0.00057795
v  13.4416 18.0305 -3.8406
v  12.4171 18.0305 -5.96565
v  13.0215 18.0305 -2.64142
v  16.8385 18.0305 5.30657
v  0.970215 18.0305 2.01784
v  2.37618 18.0305 4.94659
v  22.2643 18.0305 7.22057
v  27.5277 18.0305 8.40156
v  22.4728 18.0305 6.62583
v  2.68852 18.0305 5.59518
v  26.7295 18.0305 10.6744
v  4.21604 18.0305 8.77524
v  27.5017 18.0305 12.2728
v  5.65664 18.0305 11.7761
v  9.93683 18.0305 20.688
v  15.7417 18.0305 19.4887
v  8.54318 18.0305 17.7857
v  15.315 18.0305 20.7775
v  13.567 18.0305 21.6164
v  10.9794 18.0305 22.8585
v  29.855 18.0305 15.0957
v  28.3134 18.0305 11.8836
v  28.3577 18.0305 15.813
v  27.9988 18.0305 16.9371
v  28.8178 18.0305 18.6408
v  28.9475 18.0305 18.9112
v  18.0651 18.0305 20.2946
v  19.5686 18.0305 23.4211
v  18.3768 18.0305 20.9438
v  11.0528 -0.239998 0.493479
v  6.93941 18.0305 2.17985
v  6.93902 -0.239998 2.18043
v  11.0532 18.0305 0.492901
v  12.9602 18.0305 5.14328
v  12.9598 -0.239998 5.14386
v  8.8464 18.0305 6.83023
v  8.84601 -0.239998 6.83081
v  13.4412 -0.239998 -3.84003
v  13.0211 -0.239998 -2.64084
v  12.4167 -0.239998 -5.96507
v  0 -0.239998 -1.46956e-17
v  0.969826 -0.239998 2.01842
v  2.37579 -0.239998 4.94716
v  27.5273 -0.239998 8.40214
v  22.4724 -0.239998 6.62641
v  2.68813 -0.239998 5.59576
v  4.21565 -0.239998 8.77582
v  5.65625 -0.239998 11.7766
v  8.54279 -0.239998 17.7863
v  9.93644 -0.239998 20.6886
v  10.9791 -0.239998 22.8591
v  13.5666 -0.239998 21.6169
v  15.3146 -0.239998 20.7781
v  15.7413 -0.239998 19.4893
v  18.0647 -0.239998 20.2951
v  18.3764 -0.239998 20.9443
v  19.5682 -0.239998 23.4217
v  28.9471 -0.239998 18.9117
v  28.8174 -0.239998 18.6413
v  27.9984 -0.239998 16.9377
v  28.3573 -0.239998 15.8136
v  29.8546 -0.239998 15.0963
v  28.3131 -0.239998 11.8842
v  27.5013 -0.239998 12.2734
v  26.7291 -0.239998 10.675
v  22.2639 -0.239998 7.22115
v  16.8381 -0.239998 5.30715
v  18.9279 -1.02044e-15 16.6651
v  14.8141 -1.12374e-15 18.352
v  17.0209 -7.35687e-16 12.0147
v  12.9071 -8.38983e-16 13.7016
v  12.9598 0.0900002 5.14385
v  8.84602 0.0900002 6.8308
v  11.0528 0.0900002 0.493469
v  6.93903 0.0900002 2.18042
v  17.0209 -0.239998 12.0147
v  12.9074 18.0305 13.7011
v  12.9071 -0.239998 13.7016
v  17.0213 18.0305 12.0141
v  18.9283 18.0305 16.6645
v  18.9279 -0.239998 16.6651
v  14.8144 18.0305 18.3514
v  14.814 -0.239998 18.352

# 0 UV coordinates

# 76 vertex normals
vn 0 1 0
vn 0.379408 2.11841e-05 0.925229
vn -0.925228 3.17055e-05 0.379411
vn -0.925228 3.17062e-05 0.379411
vn -0.379408 -2.11864e-05 -0.925229
vn 0.925228 -3.17056e-05 -0.379411
vn 0.943758 -9.63564e-06 0.330636
vn 0.943758 -9.64077e-06 0.330636
vn 0.900772 -3.29175e-05 -0.434293
vn 0.900772 -3.29672e-05 -0.434293
vn -0.43303 -1.92858e-05 -0.901379
vn -0.43303 -1.92674e-05 -0.901379
vn -0.901351 3.29038e-05 0.433088
vn -0.901351 3.29067e-05 0.433088
vn -0.901503 3.29e-05 0.432772
vn -0.901503 3.2897e-05 0.432772
vn 0.33143 -3.69021e-05 -0.94348
vn 0.33143 -3.69367e-05 -0.94348
vn -0.90097 3.29237e-05 0.433881
vn -0.901403 3.28927e-05 0.432981
vn -0.901403 3.29044e-05 0.432981
vn -0.901498 3.29119e-05 0.432783
vn -0.901498 3.28884e-05 0.432783
vn -0.901411 3.28923e-05 0.432963
vn -0.901411 3.29158e-05 0.432963
vn -0.901455 3.28903e-05 0.432873
vn -0.901402 3.28927e-05 0.432983
vn 0.432776 1.92996e-05 0.901501
vn 0.432776 1.92768e-05 0.901501
vn 0.432657 1.92825e-05 0.901559
vn 0.432658 1.93969e-05 0.901558
vn 0.949318 -1.02418e-05 0.314317
vn 0.949318 -1.0273e-05 0.314318
vn -0.327699 3.68639e-05 0.944782
vn -0.901463 3.289e-05 0.432855
vn -0.901143 3.29043e-05 0.433523
vn 0.433358 1.92801e-05 0.901222
vn 0.901593 -3.2884e-05 -0.432585
vn 0.901276 -3.28978e-05 -0.433245
vn 0.901276 -3.28529e-05 -0.433246
vn 0.952625 -1.06983e-05 0.304148
vn 0.952625 -1.06665e-05 0.304148
vn 0.432045 1.93235e-05 0.901852
vn 0.901549 -3.28831e-05 -0.432677
vn 0.901549 -3.29784e-05 -0.432677
vn -0.432305 -1.93165e-05 -0.901727
vn -0.432304 -1.92714e-05 -0.901728
vn 0.900444 -3.29366e-05 -0.434971
vn 0.943509 -9.61261e-06 0.331347
vn 0.943509 -9.71282e-06 0.331348
vn -0.943717 9.73417e-06 -0.330753
vn -0.943718 9.63576e-06 -0.330751
vn 0.332666 -3.69393e-05 -0.943045
vn 0.332666 -3.69494e-05 -0.943045
vn 0.901436 -3.29037e-05 -0.432912
vn 0.379408 2.11757e-05 0.925229
vn 0.379408 2.11907e-05 0.925229
vn 0.925228 -3.17112e-05 -0.379411
vn -0.379408 -2.11733e-05 -0.925229
vn -0.379408 -2.11902e-05 -0.925229
vn -0.925228 3.17511e-05 0.379411
vn 0.379408 2.11774e-05 0.925229
vn 0.379408 2.12026e-05 0.925229
vn 0.925228 -3.16952e-05 -0.379411
vn 0.925228 -3.17399e-05 -0.379411
vn -0.379408 -2.11898e-05 -0.925229
vn -0.379408 -2.11748e-05 -0.92523
vn -0.925228 3.16935e-05 0.379411
vn -0.925228 3.17228e-05 0.379411
vn 0.379408 2.119e-05 0.925229
vn 0.379408 2.11489e-05 0.92523
vn -0.925228 3.18021e-05 0.379411
vn -0.379408 -2.11864e-05 -0.925229
vn -0.379408 -2.11468e-05 -0.92523
vn -7.10667e-24 -1 -6.12323e-17
vn 0 -1 0

# Mesh 'defaultobject' with 156 faces
g defaultobject
usemtl DefaultMaterial
f  1//1 2//1 3//1
f  2//1 1//1 4//1
f  5//1 6//1 7//1
f  6//1 5//1 8//1
f  9//1 10//1 11//1
f  10//1 9//1 12//1
f  12//1 9//1 13//1
f  13//1 9//1 14//1
f  13//1 14//1 15//1
f  13//1 15//1 16//1
f  16//1 17//1 18//1
f  17//1 16//1 15//1
f  17//1 15//1 19//1
f  17//1 19//1 20//1
f  20//1 19//1 21//1
f  20//1 21//1 22//1
f  22//1 21//1 23//1
f  24//1 25//1 26//1
f  25//1 24//1 27//1
f  27//1 24//1 28//1
f  28//1 24//1 29//1
f  22//1 30//1 31//1
f  30//1 22//1 23//1
f  30//1 23//1 26//1
f  30//1 26//1 32//1
f  32//1 26//1 33//1
f  33//1 26//1 34//1
f  34//1 26//1 35//1
f  35//1 26//1 25//1
f  35//1 25//1 36//1
f  35//1 36//1 37//1
f  37//1 36//1 38//1
f  39//2 40//2 41//2
f  40//2 39//2 42//2
f  43//3 39//3 44//3
f  39//3 43//3 42//4
f  45//5 44//5 46//5
f  44//5 45//5 43//5
f  41//6 45//6 46//6
f  45//6 41//6 40//6
f  47//7 12//7 48//7
f  12//7 47//7 10//8
f  49//9 10//9 47//9
f  10//9 49//9 11//10
f  9//11 49//11 50//11
f  49//11 9//11 11//12
f  14//13 50//13 51//13
f  50//13 14//13 9//14
f  15//15 51//15 52//15
f  51//15 15//15 14//16
f  18//17 53//17 54//17
f  53//17 18//17 17//18
f  19//19 52//19 55//19
f  52//19 19//19 15//19
f  21//20 55//20 56//20
f  55//20 21//20 19//21
f  23//22 56//22 57//22
f  56//22 23//22 21//23
f  26//24 57//24 58//24
f  57//24 26//24 23//25
f  24//26 58//26 59//26
f  58//26 24//26 26//26
f  29//27 59//27 60//27
f  59//27 29//27 24//27
f  61//28 29//28 60//28
f  29//28 61//28 28//29
f  62//30 28//30 61//30
f  28//30 62//30 27//31
f  63//32 27//32 62//32
f  27//32 63//32 25//33
f  64//34 25//34 63//34
f  25//34 64//34 36//34
f  38//35 64//35 65//35
f  64//35 38//35 36//35
f  37//36 65//36 66//36
f  65//36 37//36 38//36
f  67//37 37//37 66//37
f  37//37 67//37 35//37
f  68//38 35//38 67//38
f  35//38 68//38 34//38
f  69//39 34//39 68//39
f  34//39 69//39 33//40
f  70//41 33//41 69//41
f  33//41 70//41 32//42
f  71//43 32//43 70//43
f  32//43 71//43 30//43
f  72//44 30//44 71//44
f  30//44 72//44 31//45
f  22//46 72//46 73//46
f  72//46 22//46 31//47
f  74//48 22//48 73//48
f  22//48 74//48 20//48
f  53//49 20//49 74//49
f  20//49 53//49 17//50
f  16//51 54//51 75//51
f  54//51 16//51 18//52
f  13//53 75//53 76//53
f  75//53 13//53 16//54
f  48//55 13//55 76//55
f  13//55 48//55 12//55
f  77//56 1//56 78//56
f  1//56 77//56 4//57
f  79//58 4//58 77//58
f  4//58 79//58 2//58
f  3//59 79//59 80//59
f  79//59 3//59 2//60
f  1//61 80//61 78//61
f  80//61 1//61 3//61
f  81//62 5//62 82//62
f  5//62 81//62 8//63
f  83//64 8//64 81//64
f  8//64 83//64 6//65
f  7//66 83//66 84//66
f  83//66 7//66 6//67
f  5//68 84//68 82//68
f  84//68 5//68 7//69
f  85//70 86//70 87//70
f  86//70 85//70 88//71
f  89//72 85//72 90//72
f  85//72 89//72 88//72
f  91//73 90//73 92//73
f  90//73 91//73 89//74
f  87//6 91//6 92//6
f  91//6 87//6 86//6
f  78//75 79//75 77//75
f  79//75 78//75 80//75
f  82//76 83//76 81//76
f  83//76 82//76 84//76
f  49//76 51//76 50//76
f  51//76 49//76 52//76
f  52//76 49//76 47//76
f  52//76 47//76 48//76
f  52//76 48//76 55//76
f  55//76 48//76 76//76
f  55//76 76//76 56//76
f  56//76 76//76 57//76
f  57//76 76//76 58//76
f  58//76 76//76 75//76
f  53//76 75//76 54//76
f  75//76 53//76 58//76
f  58//76 53//76 59//76
f  59//76 53//76 60//76
f  60//76 53//76 74//76
f  60//76 74//76 63//76
f  63//76 74//76 73//76
f  63//76 73//76 64//76
f  64//76 73//76 72//76
f  64//76 72//76 71//76
f  64//76 71//76 70//76
f  64//76 70//76 65//76
f  70//76 66//76 65//76
f  66//76 70//76 69//76
f  66//76 69//76 68//76
f  66//76 68//76 67//76
f  63//76 61//76 60//76
f  61//76 63//76 62//76

