# {"id":"BLDG_0003000e0079fc7f","idOriginal":"BLDG_0003000e0079fc7f","origin":[13.39553786045348,52.51343469803074],"elevation":34.3499984741211}
# Longitude: 13.39553786045348
# Latitude: 52.51343469803074
# Elevation: 34.3499984741211

# File produced by Open Asset Import Library (http://www.assimp.sf.net)
# (assimp v3.1.0)

mtllib BLDG_0003000e0079fc7f.obj.mtl

# 77 vertex positions
v  7.14754 18.3469 1.41888
v  46.6587 24.65 9.14933
v  8.2063 24.65 -4.96161
v  48.2682 18.3469 16.509
v  0.000401646 18.5666 -0.00059442
v  8.1985 24.65 -4.91456
v  1.05135 24.65 -6.33403
v  7.14755 18.5666 1.41888
v  30.2765 22.3507 -35.8881
v  29.1338 24.65 -25.396
v  32.5316 22.3507 -26.0552
v  26.6737 24.65 -35.639
v  30.1662 22.3507 -21.0972
v  22.8581 24.65 -24.1783
v  21.3754 22.3507 -19.3914
v  33.5195 22.3507 -21.7479
v  17.17 24.65 -18.5755
v  18.6527 24.65 -23.3622
v  14.3049 24.65 -9.32547
v  17.881 22.3507 -8.11003
v  36.1618 24.65 -5.80677
v  42.4462 24.65 -10.1119
v  35.6369 24.65 -8.54449
v  12.4715 24.65 -16.8876
v  26.6691 24.65 -35.6387
v  19.6274 24.65 -35.1518
v  42.8564 24.65 -8.23414
v  29.9435 24.65 -3.34623
v  46.64 24.65 9.06388
v  8.19283 24.65 -4.88043
v  33.5539 24.65 -5.32938
v  26.5562 24.65 -4.68253
v  17.8274 24.65 -8.12833
v  18.6439 24.65 -23.3341
v  1.54415 24.65 -6.27142
v  3.92495 24.65 -13.5105
v  5.17412 24.65 -17.3102
v  29.1094 24.65 -25.4157
v  42.4457 6.19128e-16 -10.1111
v  36.1613 3.55514e-16 -5.80599
v  35.6364 5.23151e-16 -8.54371
v  29.1089 1.55622e-15 -25.4149
v  18.6434 1.42876e-15 -23.3333
v  26.6686 2.18219e-15 -35.6379
v  19.6269 2.15238e-15 -35.151
v  14.3043 5.70973e-16 -9.32469
v  8.19231 2.98792e-16 -4.87965
v  29.943 2.0485e-16 -3.34545
v  46.6395 -5.5505e-16 9.06466
v  42.8559 5.04148e-16 -8.23336
v  33.5534 3.26283e-16 -5.3286
v  26.5556 2.86675e-16 -4.68175
v  17.8269 4.97669e-16 -8.12755
v  12.471 1.03402e-15 -16.8869
v  5.17359 1.0599e-15 -17.3095
v  3.92442 8.2723e-16 -13.5097
v  1.54363 3.83966e-16 -6.27064
v  46.6581 -0.0399971 9.15011
v  7.14715 -0.0399971 1.41946
v  8.20578 -0.0399971 -4.96083
v  48.2678 -0.0399971 16.5096
v  8.19797 -0.239998 -4.91378
v  0 -0.239998 -1.46956e-17
v  1.05082 -0.239998 -6.33325
v  7.14715 -0.239998 1.41947
v  30.276 0.260002 -35.8874
v  29.1333 0.260002 -25.3952
v  26.6732 0.260002 -35.6382
v  32.5311 0.260002 -26.0545
v  21.3749 0.260002 -19.3907
v  22.8576 0.260002 -24.1775
v  30.1657 0.260002 -21.0965
v  33.519 0.260002 -21.7472
v  18.6521 0.260002 -23.3615
v  17.1695 0.260002 -18.5747
v  17.8805 0.260002 -8.10933
v  14.3043 0.260002 -9.3247

# 0 UV coordinates

# 84 vertex normals
vn -0.24261 0.70998 0.661112
vn -0.24261 0.70998 0.661112
vn -0.134023 0.725712 0.674819
vn 0.539547 0.832813 -0.123742
vn 0.527395 0.840125 -0.126668
vn 0.0879576 0.887008 0.4533
vn 0.0879576 0.887008 0.4533
vn 0.539547 0.832813 -0.123742
vn 0.0879577 0.887008 0.4533
vn 0.496828 0.854096 0.153889
vn 0.0879575 0.887008 0.4533
vn 0.496828 0.854096 0.153889
vn 0 1 0
vn 1.49589e-23 -1 -6.12323e-17
vn -6.61341e-24 -1 -6.12323e-17
vn -4.38298e-23 -1 -6.12323e-17
vn 9.03479e-23 -1 -6.12323e-17
vn 4.33376e-25 -1 -6.12323e-17
vn 1.75107e-24 -1 -6.12323e-17
vn 5.75728e-24 -1 -6.12323e-17
vn -1.10898e-24 -1 -6.12323e-17
vn -8.60121e-25 -1 -6.12323e-17
vn -1.08932e-22 -1 -6.12324e-17
vn 7.6956e-24 -1 -6.12323e-17
vn -3.13746e-23 -1 -6.12323e-17
vn 3.08735e-24 -1 -6.12323e-17
vn 0 -1 0
vn -0.955227 1.10829e-05 -0.295875
vn -0.955227 1.10455e-05 -0.295875
vn 0.955227 -1.10246e-05 0.295875
vn 0.955227 -1.11124e-05 0.295875
vn -0.321773 3.67916e-05 0.946817
vn -0.321773 3.67806e-05 0.946817
vn 0.976905 -2.76176e-05 -0.213675
vn 0.976955 -2.76103e-05 -0.213448
vn -0.224322 -2.60124e-05 -0.974515
vn -0.982115 2.69255e-05 0.188281
vn -0.180065 -2.72465e-05 -0.983655
vn -0.481436 -1.74227e-05 -0.876481
vn 0.366978 -3.72405e-05 -0.93023
vn 0.36719 -3.72424e-05 -0.930146
vn 0.321774 -3.67994e-05 -0.946817
vn 0.955227 -1.10484e-05 0.295875
vn 0.955227 -1.10379e-05 0.295875
vn 0.195078 2.68741e-05 0.980788
vn 0.195078 2.68016e-05 0.980788
vn 0.972671 -2.81011e-05 -0.232187
vn -0.0689839 -3.00215e-05 -0.997618
vn -0.931086 8.3677e-06 -0.364799
vn 0.0578149 -3.27518e-05 -0.998327
vn -0.949982 1.04164e-05 -0.312306
vn -0.949982 1.04284e-05 -0.312306
vn -0.949944 1.0412e-05 -0.31242
vn -0.20478 3.53132e-05 0.978808
vn -0.20478 3.52961e-05 0.978808
vn -0.340955 3.69917e-05 0.94008
vn 0.344507 -3.70387e-05 -0.938784
vn 0.344507 -3.70072e-05 -0.938784
vn 0.976907 -2.76361e-05 -0.213664
vn 0.976907 -2.75796e-05 -0.213664
vn -0.344507 3.70584e-05 0.938784
vn -0.986513 1.5882e-05 -0.163683
vn -0.986513 1.58972e-05 -0.163683
vn 0.194802 -3.5165e-05 -0.980843
vn 0.194802 -3.51434e-05 -0.980843
vn 0.986513 -1.58846e-05 0.163683
vn 0.986513 -1.58817e-05 0.163683
vn -0.194802 3.51576e-05 0.980843
vn -0.986513 1.58951e-05 -0.163683
vn -0.986513 1.5894e-05 -0.163683
vn -0.972348 2.81371e-05 0.233535
vn -0.068984 -3.00456e-05 -0.997618
vn -0.0689841 -3.00545e-05 -0.997618
vn 0.974695 -2.79528e-05 -0.223541
vn 0.974695 -2.78501e-05 -0.223541
vn -0.190486 -2.69485e-05 -0.98169
vn 0.190485 2.69443e-05 0.98169
vn 0.190485 2.69588e-05 0.98169
vn 0.974694 -2.77681e-05 -0.223542
vn 0.190486 2.69579e-05 0.98169
vn 0.190486 2.69769e-05 0.98169
vn -0.955227 1.10455e-05 -0.295875
vn -0.955227 1.10224e-05 -0.295875
vn -0.190486 -2.70252e-05 -0.98169

# Mesh 'defaultobject' with 140 faces
g defaultobject
usemtl DefaultMaterial
f  1//1 2//1 3//1
f  2//1 1//1 4//2
f  5//3 6//3 7//3
f  6//3 5//3 8//3
f  9//4 10//4 11//4
f  10//5 9//5 12//5
f  13//6 14//6 15//6
f  14//6 13//6 10//7
f  10//4 16//8 11//4
f  16//9 10//7 13//6
f  17//10 15//10 18//10
f  18//11 15//6 14//6
f  15//10 19//12 20//12
f  19//12 15//10 17//10
f  21//13 22//13 23//13
f  24//13 25//13 26//13
f  27//13 28//13 29//13
f  30//13 29//13 28//13
f  21//13 28//13 27//13
f  22//13 21//13 27//13
f  31//13 28//13 21//13
f  32//13 30//13 28//13
f  33//13 30//13 32//13
f  19//13 30//13 33//13
f  34//13 30//13 19//13
f  24//13 30//13 34//13
f  35//13 30//13 24//13
f  25//13 24//13 34//13
f  36//13 35//13 24//13
f  37//13 36//13 24//13
f  34//13 38//13 25//13
f  39//14 40//14 41//14
f  42//15 43//15 44//15
f  45//16 44//15 43//15
f  46//17 45//16 43//15
f  47//18 48//18 49//18
f  50//19 49//18 48//18
f  40//14 50//19 48//18
f  39//14 50//19 40//14
f  51//20 40//14 48//18
f  52//21 48//18 47//18
f  53//22 52//21 47//18
f  46//17 53//22 47//18
f  45//16 46//17 47//18
f  54//23 45//16 47//18
f  55//24 54//23 47//18
f  56//25 55//24 47//18
f  57//26 56//25 47//18
f  58//27 59//27 60//27
f  59//27 58//27 61//27
f  62//27 63//27 64//27
f  63//27 62//27 65//27
f  66//27 67//27 68//27
f  67//27 66//27 69//27
f  67//27 70//27 71//27
f  70//27 67//27 72//27
f  69//27 72//27 67//27
f  72//27 69//27 73//27
f  74//27 70//27 75//27
f  70//27 74//27 71//27
f  75//27 76//27 77//27
f  76//27 75//27 70//27
f  19//28 75//28 77//28
f  75//28 19//28 17//29
f  70//30 20//30 76//30
f  20//30 70//30 15//31
f  76//32 19//32 77//32
f  19//32 76//32 20//33
f  50//34 29//34 49//34
f  29//34 50//34 27//34
f  39//35 27//35 50//35
f  27//35 39//35 22//35
f  23//36 39//36 41//36
f  39//36 23//36 22//36
f  21//37 41//37 40//37
f  41//37 21//37 23//37
f  31//38 40//38 51//38
f  40//38 31//38 21//38
f  28//39 51//39 48//39
f  51//39 28//39 31//39
f  32//40 48//40 52//40
f  48//40 32//40 28//40
f  33//41 52//41 53//41
f  52//41 33//41 32//41
f  19//42 53//42 46//42
f  53//42 19//42 33//42
f  43//43 19//43 46//43
f  19//43 43//43 34//44
f  42//45 34//45 43//45
f  34//45 42//45 38//46
f  44//47 38//47 42//47
f  38//47 44//47 25//47
f  26//48 44//48 45//48
f  44//48 26//48 25//48
f  24//49 45//49 54//49
f  45//49 24//49 26//49
f  37//50 54//50 55//50
f  54//50 37//50 24//50
f  36//51 55//51 56//51
f  55//51 36//51 37//52
f  35//53 56//53 57//53
f  56//53 35//53 36//53
f  47//54 35//54 57//54
f  35//54 47//54 30//55
f  49//56 30//56 47//56
f  30//56 49//56 29//56
f  3//57 58//57 60//57
f  58//57 3//57 2//58
f  58//59 4//59 61//59
f  4//59 58//59 2//60
f  61//61 1//61 59//61
f  1//61 61//61 4//61
f  1//62 60//62 59//62
f  60//62 1//62 3//63
f  7//64 62//64 64//64
f  62//64 7//64 6//65
f  62//66 8//66 65//66
f  8//66 62//66 6//67
f  65//68 5//68 63//68
f  5//68 65//68 8//68
f  5//69 64//69 63//69
f  64//69 5//69 7//70
f  10//71 68//71 67//71
f  68//71 10//71 12//71
f  12//72 66//72 68//72
f  66//72 12//72 9//73
f  66//74 11//74 69//74
f  11//74 66//74 9//75
f  14//76 67//76 71//76
f  67//76 14//76 10//76
f  72//77 15//77 70//77
f  15//77 72//77 13//78
f  69//74 16//79 73//79
f  16//79 69//74 11//74
f  73//80 13//78 72//77
f  13//78 73//80 16//81
f  17//29 74//82 75//28
f  74//82 17//29 18//83
f  18//84 71//76 74//84
f  71//76 18//84 14//76

