# {"id":"BLDG_0003000f0007d582","idOriginal":"BLDG_0003000f0007d582","origin":[13.326292748503718,52.53319337302352],"elevation":35.9300003051758}
# Longitude: 13.326292748503718
# Latitude: 52.53319337302352
# Elevation: 35.9300003051758

# File produced by Open Asset Import Library (http://www.assimp.sf.net)
# (assimp v3.1.0)

mtllib BLDG_0003000f0007d582.obj.mtl

# 10 vertex positions
v  0.621585 2.49231 2.16857
v  0 0 0
v  0.621532 -1.32792e-16 2.16865
v  5.2996e-05 2.49231 -7.88802e-05
v  0.803625 2.49231 2.80126
v  0.803572 -1.71533e-16 2.80134
v  6.99428 -6.83531e-17 1.11629
v  6.99433 2.49231 1.11621
v  6.13511 1.0104e-16 -1.6501
v  6.13517 2.49231 -1.65018

# 0 UV coordinates

# 13 vertex normals
vn -0.961299 2.91617e-05 0.275506
vn -0.961299 2.91605e-05 0.275506
vn -0.961012 2.92137e-05 0.276506
vn -0.961012 2.91872e-05 0.276506
vn 0.262635 2.51085e-05 0.964895
vn 0.262635 2.49892e-05 0.964895
vn 0.955003 -2.96555e-05 -0.296598
vn -0.25973 -2.50405e-05 -0.965681
vn -0.25973 -2.50615e-05 -0.965681
vn 2.3502e-24 -1 -6.12323e-17
vn 4.57184e-25 -1 -6.12323e-17
vn 0 -1 -6.12323e-17
vn 0 1 0

# Mesh 'defaultobject' with 16 faces
g defaultobject
usemtl DefaultMaterial
f  1//1 2//1 3//1
f  2//1 1//1 4//2
f  5//3 3//3 6//3
f  3//3 5//3 1//4
f  7//5 5//5 6//5
f  5//5 7//5 8//6
f  9//7 8//7 7//7
f  8//7 9//7 10//7
f  4//8 9//8 2//8
f  9//8 4//8 10//9
f  3//10 7//10 6//10
f  7//10 3//10 2//11
f  7//10 2//11 9//12
f  1//13 10//13 4//13
f  10//13 1//13 8//13
f  8//13 1//13 5//13

