# {"id":"BLDG_00030008004e82c5","idOriginal":"BLDG_00030008004e82c5","origin":[13.362282142184025,52.5535678051184],"elevation":37.3400001525879}
# Longitude: 13.362282142184025
# Latitude: 52.5535678051184
# Elevation: 37.3400001525879

# File produced by Open Asset Import Library (http://www.assimp.sf.net)
# (assimp v3.1.0)

mtllib BLDG_00030008004e82c5.obj.mtl

# 26 vertex positions
v  18.2734 21.0726 -9.74599
v  5.77678 21.99 -3.55525
v  18.0687 21.99 -3.23296
v  5.97774 21.0726 -10.0684
v  0.114733 21.99 -3.7037
v  0.31569 21.0726 -10.2168
v  5.66245 18.9928 0.147851
v  17.9522 18.9928 0.470075
v  0.000404804 18.9928 -0.000601931
v  6.05457 18.9928 -12.5595
v  0.454779 21.8283 -14.7238
v  0.392577 21.8283 -12.708
v  6.1163 18.9928 -14.5602
v  18.3517 18.9928 -12.2371
v  18.273 5.96729e-16 -9.74532
v  6.05416 7.69011e-16 -12.5589
v  18.3513 7.49269e-16 -12.2365
v  18.0682 1.97919e-16 -3.23226
v  17.9518 -2.88207e-17 0.470677
v  0.454313 9.01532e-16 -14.7231
v  6.1159 8.91515e-16 -14.5596
v  5.66205 -9.0901e-18 0.148453
v  0.392112 7.78101e-16 -12.7074
v  0.31524 6.25558e-16 -10.2161
v  0.114264 2.26744e-16 -3.70301
v  0 0 0

# 0 UV coordinates

# 46 vertex normals
vn 0.00365422 0.990234 -0.139369
vn 0.00365403 0.990234 -0.139369
vn 0.00365411 0.990234 -0.139369
vn 0.00365411 0.990234 -0.139369
vn -0.0164851 0.777434 0.628748
vn -0.0164856 0.777435 0.628747
vn -0.016485 0.777435 0.628747
vn -0.0164851 0.777435 0.628747
vn 0.447451 0.894202 0.013807
vn 0.447451 0.894202 0.013807
vn 0.424778 0.862598 0.274751
vn 0.0167929 0.767773 -0.640502
vn 0.0167932 0.767774 -0.6405
vn 0.0167932 0.767774 -0.6405
vn -5.18009e-24 -1 -6.12323e-17
vn -7.92529e-24 -1 -6.12323e-17
vn 0 -1 -6.12323e-17
vn -2.33482e-24 -1 -6.12323e-17
vn 4.6774e-24 -1 -6.12323e-17
vn -9.26918e-23 -1 -6.12323e-17
vn 6.00019e-23 -1 -6.12324e-17
vn -1.14751e-23 -1 -6.12323e-17
vn 0 -1 -6.12323e-17
vn -0.999524 2.03265e-05 -0.0308424
vn -0.999524 2.03246e-05 -0.0308424
vn -0.999524 2.03297e-05 -0.0308424
vn -0.999524 2.03368e-05 -0.0308424
vn -0.999524 2.03268e-05 -0.0308424
vn -0.999524 1.98792e-05 -0.0308425
vn -0.999524 2.02017e-05 -0.0308425
vn -0.999524 2.03067e-05 -0.0308424
vn 0.999506 -2.00987e-05 0.0314193
vn 0.999506 -1.9886e-05 0.0314194
vn 0.999506 -2.03829e-05 0.0314194
vn 0.999506 -2.0283e-05 0.0314192
vn 1.52477e-17 1 6.14673e-17
vn -0.0262099 3.22406e-05 0.999656
vn -0.0262099 3.2245e-05 0.999656
vn -0.0262099 3.22404e-05 0.999656
vn 0 -1 0
vn 0.0288821 -3.22775e-05 -0.999583
vn 0.0288821 -3.22865e-05 -0.999583
vn 0.999524 -2.03262e-05 0.0308424
vn 0.999524 -2.03278e-05 0.0308424
vn 0.0262099 -3.22821e-05 -0.999656
vn 0.0262099 -3.22841e-05 -0.999656

# Mesh 'defaultobject' with 48 faces
g defaultobject
usemtl DefaultMaterial
f  1//1 2//1 3//1
f  2//1 1//1 4//2
f  2//1 4//2 5//3
f  5//3 4//2 6//4
f  3//5 7//5 8//5
f  7//5 3//5 2//6
f  7//5 2//6 9//7
f  9//7 2//6 5//8
f  10//9 11//9 12//9
f  11//9 10//9 13//10
f  6//11 10//11 12//11
f  14//12 4//12 1//12
f  4//12 14//12 10//13
f  4//12 10//13 6//14
f  15//15 16//15 17//15
f  16//15 15//15 18//16
f  16//15 18//16 19//17
f  16//15 20//18 21//18
f  20//18 16//15 19//17
f  20//18 19//17 22//19
f  20//18 22//19 23//20
f  23//20 22//19 24//21
f  24//21 22//19 25//22
f  25//22 22//19 26//23
f  23//24 11//24 20//24
f  11//24 23//24 24//25
f  11//24 24//25 25//26
f  11//24 25//26 26//27
f  11//24 26//27 9//28
f  11//24 9//28 6//29
f  11//24 6//29 12//30
f  6//29 9//28 5//31
f  8//32 1//32 3//32
f  1//32 8//32 14//33
f  14//33 8//32 17//34
f  17//34 8//32 19//35
f  17//36 19//36 15//36
f  15//15 19//17 18//16
f  8//37 22//37 19//37
f  22//37 8//37 26//38
f  26//38 8//37 9//39
f  9//40 8//40 7//40
f  11//41 21//41 20//41
f  21//41 11//41 13//42
f  21//43 10//43 16//43
f  10//43 21//43 13//44
f  10//45 17//45 16//45
f  17//45 10//45 14//46

