# {"id":"BLDG_00030009007f90d8","idOriginal":"BLDG_00030009007f90d8","origin":[13.37323585532437,52.560574107857754],"elevation":40.7200012207031}
# Longitude: 13.37323585532437
# Latitude: 52.560574107857754
# Elevation: 40.7200012207031

# File produced by Open Asset Import Library (http://www.assimp.sf.net)
# (assimp v3.1.0)

mtllib BLDG_00030009007f90d8.obj.mtl

# 12 vertex positions
v  30.0025 13.5827 -0.348251
v  0.0826629 14.803 5.99763
v  30.0849 14.803 5.64981
v  0.000289704 13.5827 -0.00043067
v  0.164984 13.5827 11.9958
v  30.1672 13.5827 11.6479
v  0.0823471 -3.67278e-16 5.9981
v  0.164694 -7.34555e-16 11.9962
v  0 0 0
v  30.0845 -3.4598e-16 5.65028
v  30.0022 2.12979e-17 -0.347821
v  30.1669 -7.13257e-16 11.6484

# 0 UV coordinates

# 16 vertex normals
vn -0.00231087 0.97993 -0.19933
vn -0.00231087 0.97993 -0.19933
vn 0.00231084 0.97993 0.199328
vn -0.999906 2.17619e-05 0.0137276
vn -0.999906 2.17674e-05 0.0137276
vn -0.999906 2.17621e-05 0.0137276
vn -0.999906 2.17369e-05 0.0137276
vn 0.999906 -2.17778e-05 -0.0137274
vn 0.999906 -2.19184e-05 -0.0137277
vn 0.999906 -2.17772e-05 -0.0137275
vn 0.999906 -2.15374e-05 -0.0137275
vn -0.0115924 -3.14578e-05 -0.999933
vn -0.0115924 -3.14579e-05 -0.999933
vn 0.0115924 3.14156e-05 0.999933
vn 0 -1 -6.12323e-17
vn -1.17653e-24 -1 -6.12323e-17

# Mesh 'defaultobject' with 20 faces
g defaultobject
usemtl DefaultMaterial
f  1//1 2//1 3//1
f  2//1 1//1 4//2
f  3//3 5//3 6//3
f  5//3 3//3 2//3
f  5//4 7//4 8//4
f  7//4 5//4 9//5
f  9//5 5//4 4//6
f  4//6 5//4 2//7
f  1//8 10//8 11//8
f  10//8 1//8 12//9
f  12//9 1//8 6//10
f  6//10 1//8 3//11
f  4//12 11//12 9//12
f  11//12 4//12 1//13
f  12//14 5//14 8//14
f  5//14 12//14 6//14
f  7//15 12//15 8//15
f  12//15 7//15 9//15
f  12//15 9//15 10//15
f  10//15 9//15 11//16

