# {"id":"BLDG_00030008004e646d","idOriginal":"BLDG_00030008004e646d","origin":[13.363811542803319,52.54610515615403],"elevation":36.2400016784668}
# Longitude: 13.363811542803319
# Latitude: 52.54610515615403
# Elevation: 36.2400016784668

# File produced by Open Asset Import Library (http://www.assimp.sf.net)
# (assimp v3.1.0)

mtllib BLDG_00030008004e646d.obj.mtl

# 12 vertex positions
v  0 0 0
v  9.75508 1.07841e-16 -1.76118
v  6.29757 -2.32289e-16 3.79357
v  6.72236 6.69097e-16 -10.9272
v  11.0274 2.33039e-16 -3.80582
v  13.1112 4.37989e-16 -7.15289
v  7.025e-05 3.29578 -0.0001044
v  6.72243 3.29578 -10.9273
v  6.29764 3.29578 3.79347
v  9.75516 3.29578 -1.76129
v  11.0275 3.29578 -3.80593
v  13.1113 3.29578 -7.153

# 0 UV coordinates

# 15 vertex normals
vn 1.10066e-24 -1 -6.12323e-17
vn 2.23477e-24 -1 -6.12323e-17
vn -1.18545e-23 -1 -6.12323e-17
vn 7.23986e-24 -1 -6.12323e-17
vn -0.85173 1.5566e-06 -0.523981
vn -0.85173 1.58809e-06 -0.523981
vn -0.515998 3.8178e-05 0.85659
vn 0.848973 -1.32676e-06 0.528436
vn 0.848973 -1.50366e-06 0.528436
vn 0.849034 -1.44189e-06 0.528337
vn 0.848921 -1.43113e-06 0.528519
vn 0.848921 -1.17426e-06 0.528519
vn 0.508634 -3.79735e-05 -0.860983
vn 0.508634 -3.80245e-05 -0.860983
vn 0 1 0

# Mesh 'defaultobject' with 20 faces
g defaultobject
usemtl DefaultMaterial
f  1//1 2//1 3//1
f  2//1 1//1 4//2
f  2//1 4//2 5//3
f  5//3 4//2 6//4
f  7//5 4//5 1//5
f  4//5 7//5 8//6
f  3//7 7//7 1//7
f  7//7 3//7 9//7
f  2//8 9//8 3//8
f  9//8 2//8 10//9
f  5//10 10//10 2//10
f  10//10 5//10 11//10
f  6//11 11//11 5//11
f  11//11 6//11 12//12
f  8//13 6//13 4//13
f  6//13 8//13 12//14
f  9//15 8//15 7//15
f  8//15 9//15 10//15
f  8//15 10//15 11//15
f  8//15 11//15 12//15

