# {"id":"BLDG_0003000e002263f1","idOriginal":"BLDG_0003000e002263f1","origin":[13.419391022029224,52.50853842741373],"elevation":34.9000015258789}
# Longitude: 13.419391022029224
# Latitude: 52.50853842741373
# Elevation: 34.9000015258789

# File produced by Open Asset Import Library (http://www.assimp.sf.net)
# (assimp v3.1.0)

mtllib BLDG_0003000e002263f1.obj.mtl

# 57 vertex positions
v  16.3498 -3.01253e-17 0.491984
v  13.5559 30.5867 6.45554
v  13.5552 -3.95347e-16 6.4565
v  16.3505 30.5867 0.491017
v  8.38645 30.9173 3.99327
v  11.0341 30.748 5.25437
v  5.73882 30.748 2.73218
v  3.21702 30.5867 1.53102
v  5.975 4.23718 -4.35569
v  3.21645 4.23718 1.53186
v  5.97556 30.5867 -4.35653
v  4.5963 30.9173 -1.41276
v  0.514092 30.748 7.29987
v  3.21636 -9.38073e-17 1.53199
v  0.513434 -4.47048e-16 7.30085
v  3.21702 30.748 1.53102
v  13.5559 30.748 6.45553
v  10.8529 30.748 12.2244
v  10.8523 -7.48587e-16 12.2254
v  18.5542 3.70693 -39.7266
v  21.8286 2.33859e-15 -38.1921
v  18.5541 2.43254e-15 -39.7265
v  21.8287 3.70693 -38.1922
v  19.1144 1.98387e-15 -32.399
v  15.8454 3.70693 -33.9266
v  15.8453 2.0774e-15 -33.9265
v  19.1144 3.70693 -32.3992
v  7.103e-05 3.3209 -0.00010492
v  0 0 0
v  2.74015 3.59248e-16 -5.86696
v  2.74022 3.3209 -5.86706
v  5.97491 2.66701e-16 -4.35556
v  24.2065 30.5104 -43.2667
v  34.5754 2.35175e-15 -38.4069
v  24.2058 2.64926e-15 -43.2658
v  34.5761 30.5104 -38.4079
v  29.2453 30.9952 -40.9057
v  33.2878 30.7111 -39.0116
v  32.1989 30.5104 -33.3342
v  32.1982 2.04107e-15 -33.3333
v  21.8293 30.5104 -38.1931
v  19.115 30.5458 -32.4
v  21.8293 30.5458 -38.1931
v  27.5904 31.0647 -35.4936
v  26.8681 30.9952 -35.8321
v  30.4314 30.7448 -34.1624
v  27.0141 31.1296 -35.7637
v  29.4899 30.5458 -27.5525
v  29.4893 1.68704e-15 -27.5515
v  32.1989 30.5458 -33.3342
v  19.115 30.9173 -32.4
v  24.3025 30.9173 -29.9763
v  29.4899 30.5867 -27.5525
v  30.9106 30.7111 -33.9379
v  26.7318 31.1296 -35.1611
v  11.163 30.9173 -1.93276
v  9.77474 30.9173 1.03025

# 0 UV coordinates

# 79 vertex normals
vn 0.905533 -5.96439e-06 0.424276
vn 0.430022 -3.89001e-05 -0.902818
vn -0.905533 5.95751e-06 -0.424277
vn -0.905533 5.96378e-06 -0.424277
vn -0.905533 5.76912e-06 -0.424277
vn -0.905533 5.96597e-06 -0.424277
vn -0.905533 5.96619e-06 -0.424277
vn -0.430022 3.70558e-05 0.902818
vn -0.430023 3.8907e-05 0.902818
vn 0.905533 -5.98343e-06 0.424277
vn 0.905533 -5.94448e-06 0.424277
vn -0.430022 3.77008e-05 0.902818
vn -0.430022 3.77116e-05 0.902818
vn 0.424297 -3.80565e-05 -0.905523
vn 0.424298 -3.71247e-05 -0.905522
vn -0.42331 3.79309e-05 0.905985
vn -0.42331 3.80378e-05 0.905985
vn -0.906051 5.84751e-06 -0.423169
vn -0.906051 6.08061e-06 -0.423169
vn -0.430022 3.77246e-05 0.902818
vn -0.430022 3.77482e-05 0.902818
vn -0.906051 6.00979e-06 -0.423169
vn -0.906051 6.01692e-06 -0.423169
vn 0.42331 -3.76757e-05 -0.905985
vn 0.42331 -3.77009e-05 -0.905985
vn 0.424298 -3.77419e-05 -0.905523
vn 0.424298 -3.76022e-05 -0.905523
vn 0.424298 -3.74499e-05 -0.905523
vn 0.424297 -5.28353e-05 -0.905523
vn 0.905533 -5.99157e-06 0.424276
vn -0.905533 5.93941e-06 -0.424277
vn -0.905532 5.99601e-06 -0.424277
vn -0.905532 5.98285e-06 -0.424277
vn -0.905533 5.92256e-06 -0.424277
vn -0.424298 3.66552e-05 0.905523
vn 0.424297 -2.2883e-05 -0.905523
vn 0.424299 -4.68436e-05 -0.905522
vn 0.905533 -5.98513e-06 0.424277
vn 0.905533 -5.93134e-06 0.424277
vn 0.42331 -3.6602e-05 -0.905985
vn 0.42331 -4.39369e-05 -0.905985
vn 0.42331 -4.21683e-05 -0.905985
vn 0.905533 -5.9602e-06 0.424277
vn -0.905533 5.96121e-06 -0.424277
vn -0.905533 5.98352e-06 -0.424277
vn 2.06272e-25 -1 -6.12323e-17
vn -5.15681e-25 -1 -6.12324e-17
vn 0 -1 -6.12323e-17
vn 9.55365e-24 -1 -6.12323e-17
vn 0 -1 -6.12323e-17
vn -1.45131e-24 -1 -6.12323e-17
vn -1.81414e-24 -1 -6.12323e-17
vn -2.85873e-23 -1 -6.12323e-17
vn 1.14278e-24 -1 -6.12323e-17
vn 6.86943e-24 -1 -6.12323e-17
vn 0.126494 0.990195 0.0592671
vn 0.0575045 0.997982 0.026943
vn 0.0575044 0.997982 0.026943
vn -0.0785915 0.996227 -0.0368231
vn -0.0785914 0.996227 -0.0368231
vn -0.0429376 0.994842 0.0918968
vn -0.091851 0.994842 -0.0430356
vn -0.0918511 0.994842 -0.0430357
vn 0.0918512 0.994842 0.0430358
vn 0.0918512 0.994842 0.0430356
vn 0.0521858 0.998338 0.024451
vn 0.0521858 0.998338 0.024451
vn -0.0521857 0.998338 -0.024451
vn -0.00451761 0.999943 0.00966879
vn -0.0521857 0.998338 -0.024451
vn 0.0521858 0.998338 0.024451
vn 0.0521858 0.998338 0.024451
vn 0.0521858 0.998338 0.024451
vn -0.0521857 0.998338 -0.024451
vn -0.043158 0.994871 0.0914817
vn 0.0431583 0.994871 -0.0914824
vn 0 1 -0
vn -0.225222 0.968613 -0.105189
vn -0.225562 0.96848 -0.105684

# Mesh 'defaultobject' with 90 faces
g defaultobject
usemtl DefaultMaterial
f  1//1 2//1 3//1
f  2//1 1//1 4//1
f  5//2 6//2 7//2
f  8//3 9//3 10//3
f  9//3 8//3 11//4
f  11//4 8//3 12//5
f  13//6 14//6 15//6
f  14//6 13//6 16//7
f  6//8 2//8 17//8
f  16//9 8//9 7//9
f  3//1 18//10 19//10
f  18//10 3//1 17//11
f  19//12 13//12 15//12
f  13//12 19//12 18//13
f  20//14 21//14 22//14
f  21//14 20//14 23//15
f  24//16 25//16 26//16
f  25//16 24//16 27//17
f  25//18 22//18 26//18
f  22//18 25//18 20//19
f  14//20 28//20 29//20
f  28//20 14//20 10//21
f  28//22 30//22 29//22
f  30//22 28//22 31//23
f  31//24 32//24 30//24
f  32//24 31//24 9//25
f  33//26 34//26 35//26
f  34//26 33//26 36//27
f  36//27 33//26 37//28
f  36//29 37//29 38//29
f  34//30 39//30 40//30
f  39//30 34//30 36//30
f  41//31 35//31 21//31
f  35//31 41//31 33//32
f  42//33 23//33 27//33
f  23//33 42//33 43//34
f  44//35 45//35 46//35
f  43//36 44//36 41//36
f  44//37 43//37 47//37
f  40//30 48//38 49//38
f  48//38 40//30 50//39
f  51//40 48//40 42//40
f  48//40 51//40 52//41
f  48//40 52//41 53//42
f  49//38 4//1 1//1
f  4//1 49//38 53//43
f  11//4 24//44 32//44
f  24//44 11//4 51//45
f  34//46 21//46 35//46
f  21//46 34//46 40//47
f  21//46 49//48 24//48
f  49//48 21//46 40//47
f  1//49 24//48 49//48
f  24//48 1//49 32//50
f  3//48 32//50 1//49
f  32//50 3//48 14//50
f  3//48 15//51 14//50
f  15//51 3//48 19//52
f  21//46 26//53 22//53
f  26//53 21//46 24//48
f  29//54 32//50 14//50
f  32//50 29//54 30//55
f  54//56 36//56 38//56
f  36//56 54//56 39//56
f  45//57 38//57 37//57
f  38//57 45//57 54//58
f  41//59 37//59 33//59
f  37//59 41//59 45//60
f  55//61 42//61 48//61
f  47//62 42//62 55//62
f  42//62 47//62 43//63
f  50//64 55//64 48//64
f  55//64 50//64 47//65
f  4//66 52//66 56//66
f  52//66 4//66 53//67
f  52//68 11//68 56//68
f  52//69 51//69 11//69
f  56//68 11//68 57//70
f  57//71 4//66 56//66
f  4//66 57//71 5//72
f  4//66 5//72 2//73
f  57//70 8//74 5//74
f  57//75 12//75 8//75
f  57//76 11//76 12//76
f  16//77 13//77 17//77
f  17//77 13//77 18//77
f  20//77 27//77 23//77
f  27//77 20//77 25//77
f  28//78 9//78 31//78
f  9//79 28//79 10//79

