# {"id":"BLDG_0003000000190aad","idOriginal":"BLDG_0003000000190aad","origin":[13.39759584944157,52.53760477244591],"elevation":46.2299995422363}
# Longitude: 13.39759584944157
# Latitude: 52.53760477244591
# Elevation: 46.2299995422363

# File produced by Open Asset Import Library (http://www.assimp.sf.net)
# (assimp v3.1.0)

mtllib BLDG_0003000000190aad.obj.mtl

# 19 vertex positions
v  5.69468 8.22266 -2.48408
v  13.741 3.66996e-16 -5.9935
v  5.69451 1.5209e-16 -2.48382
v  13.7411 8.22266 -5.99376
v  16.4595 7.21315 0.181453
v  16.4594 -1.11248e-17 0.181681
v  8.80761 7.21315 3.51905
v  8.80745 -2.15494e-16 3.51928
v  3.1131 7.21315 6.00287
v  0 0 0
v  3.11295 -3.67584e-16 6.00309
v  0.000154078 7.21315 -0.000228359
v  2.84743 8.22266 -1.24217
v  13.2177 7.21315 12.0236
v  7.71138 -9.10577e-16 14.8709
v  13.2175 -7.36244e-16 12.0238
v  7.71153 7.21315 14.8706
v  10.4646 8.22266 13.4471
v  5.96037 8.22266 4.76093

# 0 UV coordinates

# 26 vertex normals
vn -0.399801 -2.04903e-05 -0.916602
vn 0.915242 -3.23722e-05 -0.402904
vn 0.915242 -3.22827e-05 -0.402904
vn 0.399801 2.05254e-05 0.916602
vn 0.399801 2.0462e-05 0.916602
vn -0.887741 3.35323e-05 0.460344
vn -0.887741 3.35367e-05 0.460344
vn -0.399801 -2.04784e-05 -0.916602
vn -0.399801 -2.05281e-05 -0.916602
vn 0.459303 1.83486e-05 0.888279
vn 0.459303 1.83789e-05 0.888279
vn 0.459303 1.80597e-05 0.888279
vn -0.887741 3.35627e-05 0.460344
vn 0.887741 -3.36194e-05 -0.460344
vn 0.887741 -3.34537e-05 -0.460344
vn 3.57524e-24 -1 -6.12323e-17
vn -3.75958e-24 -1 -6.12323e-17
vn 0 -1 -6.12323e-17
vn 3.56599e-24 -1 -6.12323e-17
vn 0.0591609 0.988991 0.135635
vn 0.0591609 0.988991 0.135635
vn -0.274934 0.950834 0.142569
vn 0.0591609 0.988991 0.135635
vn 0.27494 0.950832 -0.142572
vn -0.274935 0.950834 0.142569
vn 0.27494 0.950832 -0.142572

# Mesh 'defaultobject' with 34 faces
g defaultobject
usemtl DefaultMaterial
f  1//1 2//1 3//1
f  2//1 1//1 4//1
f  2//2 5//2 6//2
f  5//2 2//2 4//3
f  6//4 7//4 8//4
f  7//4 6//4 5//5
f  9//6 10//6 11//6
f  10//6 9//6 12//7
f  12//8 3//1 10//8
f  3//1 12//8 1//1
f  1//1 12//8 13//9
f  14//10 15//10 16//10
f  15//10 14//10 17//11
f  17//11 14//10 18//12
f  17//13 11//6 15//13
f  11//6 17//13 9//6
f  8//14 14//14 16//14
f  14//14 8//14 7//15
f  2//16 8//16 3//16
f  8//16 2//16 6//17
f  3//16 11//18 10//18
f  11//18 3//16 8//16
f  15//19 8//16 16//19
f  8//16 15//19 11//18
f  7//20 4//20 1//20
f  4//20 7//20 5//21
f  13//22 9//22 19//22
f  9//22 13//22 12//22
f  13//23 7//20 1//20
f  13//24 19//24 7//24
f  19//22 17//25 18//25
f  17//25 19//22 9//22
f  7//24 18//26 14//26
f  18//26 7//24 19//24

