# {"id":"BLDG_00030009007f8ff3","idOriginal":"BLDG_00030009007f8ff3","origin":[13.374243600906636,52.55367150217988],"elevation":38.7200012207031}
# Longitude: 13.374243600906636
# Latitude: 52.55367150217988
# Elevation: 38.7200012207031

# File produced by Open Asset Import Library (http://www.assimp.sf.net)
# (assimp v3.1.0)

mtllib BLDG_00030009007f8ff3.obj.mtl

# 110 vertex positions
v  18.6673 18.8197 -3.37098
v  13.2152 18.8197 -6.63055
v  14.9333 18.8197 -3.704
v  18.0156 18.8197 -5.55721
v  18.9515 18.8197 -5.34845
v  11.0111 18.8197 -8.21733
v  14.634 18.8197 -0.18775
v  12.7082 18.8197 -7.72807
v  1.71791 18.8197 1.59699
v  4.45747 18.8197 -4.55437
v  0.000401421 18.8197 -0.000596451
v  4.09135 18.8197 -0.609425
v  6.98834 18.8197 2.08588
v  9.69882 18.8197 -0.392668
v  4.62808 18.8197 -5.887
v  5.6906 18.8197 -6.91177
v  5.75805 18.8197 -7.8264
v  10.4682 18.8197 -9.19461
v  4.09141 21.7691 -0.609518
v  2.98007 21.7691 5.75113
v  6.9884 21.7691 2.08579
v  1.71797 21.7691 1.59689
v  0.549692 21.7691 2.82357
v  18.6673 21.8161 -3.37108
v  19.4839 21.8161 0.0135361
v  20.0367 21.8161 -3.04109
v  14.9334 21.8161 -3.7041
v  14.634 21.8161 -0.187845
v  -6.40131 18.7488 5.52615
v  -2.81039 18.7488 2.87071
v  -3.23842 18.7488 2.40056
v  -5.71201 18.7488 5.96121
v  0.549628 18.7488 2.82366
v  -1.11932 18.7488 1.144
v  2.2531 18.7488 13.5922
v  2.98 18.7488 5.75122
v  9.69882 18.7488 -0.392666
v  4.28735 18.7488 11.4701
v  6.47104 18.7488 9.19281
v  23.195 18.7488 -4.48672
v  26.1096 18.7488 -4.31727
v  23.282 18.7488 -4.86002
v  19.4839 18.7488 0.0136333
v  14.9026 18.7488 6.26256
v  18.9559 18.7488 5.25778
v  18.556 18.7488 7.091
v  26.7712 18.7488 -4.19071
v  24.7748 18.7488 4.60062
v  23.5604 18.7488 6.29338
v  24.3505 18.7488 6.47136
v  7.5583 18.7488 10.1705
v  9.91201 18.7488 7.64946
v  20.0366 18.7488 -3.04099
v  21.1642 18.7488 -4.85334
v  20.5157 18.7488 -4.99872
v  9.69842 2.40074e-17 -0.392071
v  14.9329 2.26768e-16 -3.70341
v  14.6336 1.14598e-17 -0.187153
v  0 0 0
v  4.09095 3.728e-17 -0.608828
v  1.71751 -9.78237e-17 1.59758
v  11.0107 5.0313e-16 -8.21674
v  10.4678 5.62971e-16 -9.19402
v  4.45707 2.78838e-16 -4.55378
v  5.6902 4.23187e-16 -6.91117
v  5.75765 4.79192e-16 -7.8258
v  4.62768 3.60438e-16 -5.88641
v  18.9511 3.27462e-16 -5.34785
v  18.6669 2.06377e-16 -3.37039
v  18.0152 3.40244e-16 -5.55661
v  13.2148 4.05968e-16 -6.62996
v  6.98794 -1.2776e-16 2.08648
v  12.7078 4.73171e-16 -7.72747
v  6.98794 0.209999 2.08647
v  1.71751 0.209999 1.59758
v  4.09095 0.209999 -0.608835
v  2.97961 0.209999 5.75181
v  0.549232 0.209999 2.82425
v  18.6669 0.129997 -3.37039
v  14.6336 0.129997 -0.187157
v  14.9329 0.129997 -3.70341
v  19.4835 0.129997 0.0142234
v  20.0362 0.129997 -3.0404
v  -3.23882 0.0499992 2.40116
v  -5.71241 0.0499992 5.96181
v  -6.40171 0.0499992 5.52674
v  2.2527 0.0499992 13.5928
v  -2.81079 0.0499992 2.8713
v  -1.11972 0.0499992 1.1446
v  0.549229 0.0499992 2.82425
v  4.28695 0.0499992 11.4707
v  2.9796 0.0499992 5.75182
v  6.47064 0.0499992 9.1934
v  9.69842 0.0499992 -0.392073
v  7.5579 0.0499992 10.171
v  9.91162 0.0499992 7.65005
v  14.9022 0.0499992 6.26315
v  19.4835 0.0499992 0.0142259
v  18.5556 0.0499992 7.09159
v  18.9555 0.0499992 5.25838
v  23.56 0.0499992 6.29397
v  20.0362 0.0499992 -3.0404
v  20.5153 0.0499992 -4.99813
v  21.1638 0.0499992 -4.85274
v  24.3501 0.0499992 6.47196
v  23.1946 0.0499992 -4.48613
v  24.7744 0.0499992 4.60121
v  26.7708 0.0499992 -4.19012
v  26.1092 0.0499992 -4.31668
v  23.2816 0.0499992 -4.85943

# 0 UV coordinates

# 107 vertex normals
vn 0 1 0
vn -1.89998e-25 -1 -6.12323e-17
vn 8.72865e-25 -1 -6.12323e-17
vn 9.83618e-25 -1 -6.12323e-17
vn -3.13021e-23 -1 -6.12324e-17
vn 3.16548e-23 -1 -6.12323e-17
vn 1.25336e-23 -1 -6.12323e-17
vn -1.88364e-23 -1 -6.12324e-17
vn 0 -1 -6.12323e-17
vn 3.53951e-24 -1 -6.12323e-17
vn -4.87014e-24 -1 -6.12324e-17
vn 3.25331e-24 -1 -6.12323e-17
vn 5.16975e-23 -1 -6.12323e-17
vn 4.05157e-24 -1 -6.12323e-17
vn 0 -1 0
vn 0.975172 -1.37587e-05 0.22145
vn 0.187895 -3.5133e-05 -0.982189
vn 0.187895 -3.51389e-05 -0.982189
vn 0.188505 -3.51482e-05 -0.982072
vn 0.188505 -3.51424e-05 -0.982072
vn -0.973869 1.35628e-05 -0.227112
vn 0.177653 -3.49809e-05 -0.984093
vn 0.218783 -3.5594e-05 -0.975774
vn -0.971334 1.31726e-05 -0.237717
vn -0.984021 1.53352e-05 -0.178053
vn -0.984021 1.53343e-05 -0.178053
vn 0.0414866 -3.25506e-05 -0.999139
vn 0.0414866 -3.25496e-05 -0.999139
vn -0.674827 -9.00563e-06 -0.737976
vn -0.674827 -8.96651e-06 -0.737976
vn 0.769417 -3.66472e-05 -0.638747
vn 0.769417 -3.66539e-05 -0.638747
vn 0.674827 9.01631e-06 0.737976
vn 0.674827 8.99562e-06 0.737976
vn -0.0414866 3.25513e-05 0.999139
vn -0.0414866 3.255e-05 0.999139
vn 0.996395 -1.85686e-05 0.0848325
vn -0.0888342 3.34663e-05 0.996046
vn -0.0888343 3.34629e-05 0.996046
vn 0.98983 -1.65572e-05 0.142257
vn 0.98983 -1.66618e-05 0.142258
vn 0.21771 -3.55701e-05 -0.976013
vn 0.21771 -3.55674e-05 -0.976014
vn 0.218208 -3.55635e-05 -0.975902
vn 0.218208 -3.55771e-05 -0.975902
vn 0.907808 -3.2652e-05 -0.419385
vn 0.907808 -3.26153e-05 -0.419386
vn 0.277012 -3.63418e-05 -0.960866
vn 0.277012 -3.63521e-05 -0.960866
vn 0.874178 -3.40273e-05 -0.485606
vn 0.874178 -3.40528e-05 -0.485606
vn -0.278952 -2.44874e-05 -0.960305
vn -0.278952 -2.45118e-05 -0.960305
vn -0.997292 1.89448e-05 -0.0735493
vn -0.694206 -8.0045e-06 -0.719777
vn -0.991904 1.71359e-05 -0.126993
vn -0.714655 -6.925e-06 -0.699477
vn -0.714655 -6.92482e-06 -0.699477
vn -0.681081 3.77344e-05 0.732208
vn -0.681081 3.77332e-05 0.732208
vn 0.680866 8.68655e-06 0.732408
vn -0.681162 3.77208e-05 0.732133
vn -0.681162 3.77335e-05 0.732133
vn 0.681162 -3.77299e-05 -0.732133
vn -0.680866 -8.68884e-06 -0.732408
vn -0.680866 -8.69637e-06 -0.732408
vn -0.724132 -6.41301e-06 -0.689661
vn -0.724132 -6.41101e-06 -0.689661
vn -0.769417 3.66584e-05 0.638747
vn -0.769417 3.66563e-05 0.638747
vn 0.674827 8.98303e-06 0.737976
vn 0.674827 8.99932e-06 0.737976
vn 0.0888342 -3.34653e-05 -0.996046
vn 0.0888342 -3.34582e-05 -0.996046
vn -0.996395 1.85631e-05 -0.0848325
vn -0.996395 1.85628e-05 -0.0848325
vn -0.0414866 3.255e-05 0.999139
vn -0.0414866 3.25483e-05 0.999139
vn 0.984021 -1.52999e-05 0.178053
vn 0.984021 -1.53885e-05 0.178054
vn 0.234279 -3.58102e-05 -0.972169
vn 0.709364 -3.74625e-05 -0.704842
vn 0.709364 -3.74679e-05 -0.704842
vn -0.714442 -6.94764e-06 -0.699694
vn -0.714442 -6.94309e-06 -0.699694
vn 0.73945 -3.71026e-05 -0.673211
vn -0.702899 -7.54312e-06 -0.711289
vn -0.702899 -7.56126e-06 -0.711289
vn -0.533749 3.81619e-05 0.845643
vn -0.691801 3.76642e-05 0.722088
vn -0.691801 3.76185e-05 0.722088
vn 0.721896 6.54946e-06 0.692001
vn 0.721896 6.52343e-06 0.692002
vn 0.721785 6.53068e-06 0.692118
vn -0.668628 3.78228e-05 0.743597
vn -0.668628 3.78057e-05 0.743597
vn 0.730941 6.01116e-06 0.68244
vn 0.730941 6.04813e-06 0.68244
vn 0.267756 2.48327e-05 0.963487
vn 0.267756 2.48081e-05 0.963487
vn -0.221147 3.5602e-05 0.975241
vn 0.977029 -1.40786e-05 0.213106
vn 0.977029 -1.40735e-05 0.213106
vn -0.219424 3.56072e-05 0.97563
vn -0.219788 3.56083e-05 0.975548
vn 0.975223 -1.3779e-05 0.221224
vn 0.975223 -1.37839e-05 0.221224

# Mesh 'defaultobject' with 204 faces
g defaultobject
usemtl DefaultMaterial
f  1//1 2//1 3//1
f  2//1 1//1 4//1
f  4//1 1//1 5//1
f  3//1 6//1 7//1
f  6//1 3//1 2//1
f  6//1 2//1 8//1
f  9//1 10//1 11//1
f  10//1 9//1 12//1
f  10//1 12//1 13//1
f  10//1 13//1 14//1
f  10//1 14//1 15//1
f  15//1 14//1 16//1
f  16//1 14//1 7//1
f  16//1 7//1 17//1
f  17//1 7//1 18//1
f  18//1 7//1 6//1
f  19//1 20//1 21//1
f  20//1 19//1 22//1
f  20//1 22//1 23//1
f  24//1 25//1 26//1
f  25//1 24//1 27//1
f  25//1 27//1 28//1
f  29//1 30//1 31//1
f  30//1 29//1 32//1
f  30//1 33//1 34//1
f  33//1 30//1 32//1
f  33//1 32//1 35//1
f  33//1 35//1 36//1
f  36//1 35//1 37//1
f  37//1 35//1 38//1
f  37//1 38//1 39//1
f  40//1 41//1 42//1
f  41//1 40//1 43//1
f  41//1 43//1 44//1
f  41//1 44//1 45//1
f  45//1 44//1 46//1
f  41//1 45//1 47//1
f  45//1 48//1 47//1
f  48//1 45//1 49//1
f  48//1 49//1 50//1
f  51//1 52//1 39//1
f  53//1 54//1 55//1
f  54//1 53//1 40//1
f  40//1 53//1 43//1
f  39//1 43//1 37//1
f  43//1 39//1 52//1
f  43//1 52//1 44//1
f  56//2 57//2 58//2
f  59//3 60//3 61//3
f  60//3 59//3 62//4
f  62//4 59//3 63//5
f  63//5 59//3 64//6
f  63//5 64//6 65//7
f  63//5 65//7 66//8
f  65//7 64//6 67//9
f  57//2 68//10 69//10
f  68//10 57//2 70//11
f  70//11 57//2 71//12
f  71//12 57//2 56//2
f  71//12 56//2 72//13
f  71//12 72//13 60//3
f  71//12 60//3 73//14
f  73//14 60//3 62//4
f  74//15 75//15 76//15
f  75//15 74//15 77//15
f  75//15 77//15 78//15
f  79//15 80//15 81//15
f  80//15 79//15 82//15
f  82//15 79//15 83//15
f  84//15 85//15 86//15
f  85//15 84//15 87//15
f  87//15 84//15 88//15
f  87//15 88//15 89//15
f  87//15 89//15 90//15
f  87//15 90//15 91//15
f  91//15 90//15 92//15
f  91//15 92//15 93//15
f  93//15 92//15 94//15
f  93//15 94//15 95//15
f  95//15 94//15 96//15
f  96//15 94//15 97//15
f  97//15 94//15 98//15
f  97//15 98//15 99//15
f  99//15 98//15 100//15
f  100//15 98//15 101//15
f  101//15 98//15 102//15
f  101//15 102//15 103//15
f  101//15 103//15 104//15
f  101//15 104//15 105//15
f  105//15 104//15 106//15
f  105//15 106//15 107//15
f  107//15 106//15 108//15
f  108//15 106//15 109//15
f  109//15 106//15 110//15
f  108//16 48//16 107//16
f  48//16 108//16 47//16
f  41//17 108//17 109//17
f  108//17 41//17 47//18
f  42//19 109//19 110//19
f  109//19 42//19 41//20
f  40//21 110//21 106//21
f  110//21 40//21 42//21
f  54//22 106//22 104//22
f  106//22 54//22 40//22
f  55//23 104//23 103//23
f  104//23 55//23 54//23
f  53//24 103//24 102//24
f  103//24 53//24 55//24
f  43//25 102//25 98//25
f  102//25 43//25 53//26
f  37//27 98//27 94//27
f  98//27 37//27 43//28
f  36//29 94//29 92//29
f  94//29 36//29 37//30
f  90//31 36//31 92//31
f  36//31 90//31 33//32
f  56//33 13//33 72//33
f  13//33 56//33 14//34
f  58//35 14//35 56//35
f  14//35 58//35 7//36
f  57//37 7//37 58//37
f  7//37 57//37 3//37
f  69//38 3//38 57//38
f  3//38 69//38 1//39
f  68//40 1//40 69//40
f  1//40 68//40 5//41
f  4//42 68//42 70//42
f  68//42 4//42 5//43
f  2//44 70//44 71//44
f  70//44 2//44 4//45
f  73//46 2//46 71//46
f  2//46 73//46 8//47
f  6//48 73//48 62//48
f  73//48 6//48 8//49
f  63//50 6//50 62//50
f  6//50 63//50 18//51
f  17//52 63//52 66//52
f  63//52 17//52 18//53
f  16//54 66//54 65//54
f  66//54 16//54 17//54
f  15//55 65//55 67//55
f  65//55 15//55 16//55
f  10//56 67//56 64//56
f  67//56 10//56 15//56
f  11//57 64//57 59//57
f  64//57 11//57 10//58
f  9//59 59//59 61//59
f  59//59 9//59 11//60
f  60//61 9//61 61//61
f  9//61 60//61 12//61
f  13//62 60//62 72//62
f  60//62 13//62 12//63
f  76//64 21//64 74//64
f  21//64 76//64 19//64
f  22//65 76//65 75//65
f  76//65 22//65 19//66
f  23//67 75//67 78//67
f  75//67 23//67 22//68
f  20//69 78//69 77//69
f  78//69 20//69 23//70
f  74//71 20//71 77//71
f  20//71 74//71 21//72
f  27//73 79//73 81//73
f  79//73 27//73 24//74
f  28//75 81//75 80//75
f  81//75 28//75 27//76
f  82//77 28//77 80//77
f  28//77 82//77 25//78
f  83//79 25//79 82//79
f  25//79 83//79 26//80
f  24//81 83//81 79//81
f  83//81 24//81 26//81
f  89//82 33//82 90//82
f  33//82 89//82 34//83
f  30//84 89//84 88//84
f  89//84 30//84 34//85
f  84//86 30//86 88//86
f  30//86 84//86 31//86
f  29//87 84//87 86//87
f  84//87 29//87 31//88
f  85//89 29//89 86//89
f  29//89 85//89 32//89
f  35//90 85//90 87//90
f  85//90 35//90 32//91
f  91//92 35//92 87//92
f  35//92 91//92 38//93
f  93//94 38//94 91//94
f  38//94 93//94 39//94
f  51//95 93//95 95//95
f  93//95 51//95 39//96
f  96//97 51//97 95//97
f  51//97 96//97 52//98
f  97//99 52//99 96//99
f  52//99 97//99 44//100
f  99//101 44//101 97//101
f  44//101 99//101 46//101
f  100//102 46//102 99//102
f  46//102 100//102 45//103
f  101//104 45//104 100//104
f  45//104 101//104 49//104
f  105//105 49//105 101//105
f  49//105 105//105 50//105
f  107//106 50//106 105//106
f  50//106 107//106 48//107

