# {"id":"BLDG_0003000b00217abe","idOriginal":"BLDG_0003000b00217abe","origin":[13.378586590543804,52.52232710687671],"elevation":32.8800010681152}
# Longitude: 13.378586590543804
# Latitude: 52.52232710687671
# Elevation: 32.8800010681152

# File produced by Open Asset Import Library (http://www.assimp.sf.net)
# (assimp v3.1.0)

mtllib BLDG_0003000b00217abe.obj.mtl

# 140 vertex positions
v  49.3662 23.7836 26.7866
v  50.6226 23.7836 22.4999
v  49.0522 23.7836 22.6299
v  67.8401 23.7836 37.598
v  67.8721 23.7836 37.3929
v  65.5975 23.7836 37.7763
v  66.4923 23.7836 21.187
v  61.8005 23.7836 38.08
v  64.2422 23.7836 21.373
v  35.6325 23.7836 40.1668
v  60.3961 23.7836 21.6904
v  48.4364 23.7836 28.568
v  48.7672 23.7836 28.1801
v  49.036 23.7836 27.7476
v  52.2632 23.7836 22.3639
v  49.2372 23.7836 27.2791
v  48.0516 23.7836 28.9019
v  47.6217 23.7836 29.1744
v  47.1552 23.7836 29.3798
v  46.6638 23.7836 29.5132
v  44.39 23.7836 29.9839
v  42.1023 23.7836 30.3828
v  39.8032 23.7836 30.7083
v  37.4951 23.7836 30.9616
v  34.4632 23.7836 40.2599
v  35.1798 23.7836 31.1415
v  16.658 23.7836 41.6806
v  32.8599 23.7836 31.2481
v  30.5382 23.7836 31.2815
v  28.2168 23.7836 31.241
v  25.8974 23.7836 31.1273
v  25.4395 23.7836 31.0685
v  24.9932 23.7836 30.949
v  24.5676 23.7836 30.7694
v  24.1705 23.7836 30.5342
v  23.8085 23.7836 30.2478
v  23.489 23.7836 29.914
v  23.2178 23.7836 29.5408
v  22.9991 23.7836 29.1338
v  22.2736 23.7836 27.3947
v  21.6169 23.7836 25.6282
v  21.0291 23.7836 23.838
v  13.2693 23.7836 41.9506
v  20.5112 23.7836 22.0259
v  20.0645 23.7836 20.1957
v  19.6895 23.7836 18.3485
v  19.3868 23.7836 16.4886
v  10.6483 23.7836 42.1595
v  19.1563 23.7836 14.6185
v  18.9992 23.7836 12.7407
v  19.0081 23.7836 12.2697
v  19.0823 23.7836 11.8042
v  19.9818 23.7836 10.1741
v  18.8868 23.7836 8.96016
v  19.6741 23.7836 10.5308
v  19.4182 23.7836 10.9263
v  19.2196 23.7836 11.354
v  10.164 23.7836 36.6295
v  18.3513 23.7836 8.36591
v  18.1499 23.7836 7.53024
v  15.7953 23.7836 -2.25376
v  9.22337 23.7836 25.9228
v  7.56497 23.7836 20.2874
v  15.4474 23.7836 -3.69643
v  12.2029 23.7836 -2.92021
v  5.35512 23.7836 20.7013
v  3.69504 23.7836 -0.885589
v  0.385388 23.7836 1.48655
v  1.24509 23.7836 -0.298704
v  0.000507401 23.7836 -0.000752189
v  15.4469 2.26295e-16 -3.69567
v  12.2024 1.78765e-16 -2.91945
v  3.69453 5.41806e-17 -0.884837
v  1.24459 1.82443e-17 -0.297952
v  0 0 0
v  0.384881 -9.10712e-17 1.48731
v  5.35461 -1.26763e-15 20.702
v  7.56446 -1.24229e-15 20.2882
v  9.22286 -1.58736e-15 25.9235
v  10.1635 -2.24296e-15 36.6302
v  10.6478 -2.58157e-15 42.1603
v  13.2688 -2.56878e-15 41.9514
v  16.6575 -2.55225e-15 41.6814
v  34.4627 -2.46525e-15 40.2606
v  35.632 -2.45955e-15 40.1675
v  61.8 -2.33177e-15 38.0807
v  65.597 -2.31317e-15 37.777
v  67.8396 -2.30226e-15 37.5987
v  67.8716 -2.2897e-15 37.3937
v  66.4918 -1.29737e-15 21.1877
v  64.2417 -1.30877e-15 21.3738
v  60.3956 -1.3282e-15 21.6912
v  52.2627 -1.36944e-15 22.3646
v  50.6221 -1.37777e-15 22.5006
v  49.0517 -1.38573e-15 22.6307
v  49.3657 -1.64025e-15 26.7873
v  49.2367 -1.67041e-15 27.2798
v  49.0355 -1.6991e-15 27.7484
v  48.7667 -1.72558e-15 28.1808
v  48.4359 -1.74933e-15 28.5688
v  48.0511 -1.76978e-15 28.9026
v  47.6212 -1.78647e-15 29.1752
v  47.1547 -1.79904e-15 29.3805
v  46.6633 -1.80721e-15 29.514
v  44.3895 -1.83603e-15 29.9846
v  42.1018 -1.86046e-15 30.3836
v  39.8027 -1.88039e-15 30.709
v  37.4946 -1.8959e-15 30.9624
v  35.1793 -1.90692e-15 31.1423
v  32.8593 -1.91344e-15 31.2489
v  30.5377 -1.91548e-15 31.2822
v  28.2163 -1.913e-15 31.2417
v  25.8968 -1.90604e-15 31.128
v  25.439 -1.90244e-15 31.0693
v  24.9927 -1.89512e-15 30.9497
v  24.5671 -1.88413e-15 30.7701
v  24.17 -1.86972e-15 30.5349
v  23.808 -1.85219e-15 30.2485
v  23.4885 -1.83175e-15 29.9147
v  23.2173 -1.8089e-15 29.5415
v  22.9986 -1.78398e-15 29.1346
v  22.2731 -1.67749e-15 27.3954
v  21.6164 -1.56932e-15 25.6289
v  21.0286 -1.4597e-15 23.8387
v  20.5107 -1.34874e-15 22.0267
v  20.064 -1.23667e-15 20.1964
v  19.689 -1.12356e-15 18.3492
v  19.3863 -1.00968e-15 16.4893
v  19.1558 -8.95172e-16 14.6193
v  18.9987 -7.80188e-16 12.7414
v  19.0076 -7.51348e-16 12.2704
v  19.0818 -7.22846e-16 11.805
v  19.2191 -6.95278e-16 11.3547
v  19.4177 -6.69088e-16 10.927
v  19.6736 -6.44871e-16 10.5315
v  19.9813 -6.23032e-16 10.1749
v  18.8863 -5.48698e-16 8.96091
v  18.3508 -5.1231e-16 8.36666
v  18.1494 -4.6114e-16 7.53099
v  15.7948 1.37957e-16 -2.25301

# 0 UV coordinates

# 177 vertex normals
vn 0 1 0
vn -0.232676 -2.5786e-05 -0.972554
vn -0.232676 -2.57864e-05 -0.972554
vn -0.232586 -2.5796e-05 -0.972576
vn -0.232586 -2.57886e-05 -0.972576
vn -0.23296 -2.57875e-05 -0.972486
vn -0.232959 -2.57852e-05 -0.972486
vn -0.23282 -2.57903e-05 -0.97252
vn -0.23282 -2.57916e-05 -0.97252
vn -0.96811 2.85764e-05 0.250525
vn -0.96811 2.85769e-05 0.250525
vn -0.968142 2.85846e-05 0.250402
vn -0.968142 2.85732e-05 0.250402
vn 0.184077 2.72084e-05 0.982912
vn 0.184076 2.7127e-05 0.982912
vn -0.959322 2.94073e-05 0.282314
vn -0.959322 2.94039e-05 0.282314
vn -0.996163 2.40296e-05 0.0875168
vn -0.996163 2.40226e-05 0.0875168
vn -0.996186 2.40216e-05 0.0872514
vn 0.0794547 2.99626e-05 0.996839
vn 0.0794533 2.98025e-05 0.996839
vn 0.0794191 2.9803e-05 0.996841
vn 0.0795419 2.98033e-05 0.996831
vn 0.0793714 2.98044e-05 0.996845
vn 0.0793746 2.9964e-05 0.996845
vn 0.0794934 2.99629e-05 0.996835
vn 0.0794933 2.98041e-05 0.996835
vn 0.0797326 2.97962e-05 0.996816
vn 0.0797326 2.98094e-05 0.996816
vn 0.0792405 2.98206e-05 0.996855
vn 0.0792402 2.97949e-05 0.996855
vn 0.988061 -1.63679e-05 0.154065
vn 0.996395 -2.40963e-05 -0.0848335
vn 0.996395 -2.37758e-05 -0.0848339
vn -0.0824078 -2.9745e-05 -0.996599
vn -0.0822524 -2.98154e-05 -0.996612
vn -0.082252 -2.97487e-05 -0.996612
vn -0.0825233 -2.9729e-05 -0.996589
vn -0.0825236 -2.98089e-05 -0.996589
vn -0.0826176 -2.98067e-05 -0.996581
vn -0.0826165 -2.97268e-05 -0.996581
vn -0.0825159 -2.97292e-05 -0.99659
vn -0.0825171 -2.98091e-05 -0.99659
vn -0.99716 2.36573e-05 0.0753169
vn -0.99716 2.36513e-05 0.075317
vn -0.967371 1.26305e-05 -0.253363
vn -0.967372 1.26102e-05 -0.253362
vn -0.918896 7.1369e-06 -0.3945
vn -0.849289 1.43612e-06 -0.527927
vn -0.760896 -4.20106e-06 -0.648874
vn -0.760898 -4.27094e-06 -0.648871
vn -0.655378 -9.94537e-06 -0.755301
vn -0.655374 -9.84043e-06 -0.755305
vn -0.535408 -1.52654e-05 -0.844594
vn -0.53541 -1.5333e-05 -0.844592
vn -0.402859 -2.03993e-05 -0.915262
vn -0.402856 -2.0326e-05 -0.915263
vn -0.262105 -2.49786e-05 -0.965039
vn -0.202678 -2.66178e-05 -0.979245
vn -0.202679 -2.66963e-05 -0.979245
vn -0.171796 -2.74626e-05 -0.985133
vn -0.140176 -2.8295e-05 -0.990127
vn -0.109091 -2.90815e-05 -0.994032
vn -0.0774837 -2.99292e-05 -0.996994
vn -0.0774829 -2.98493e-05 -0.996994
vn -0.0459037 -3.05846e-05 -0.998946
vn -0.0459046 -3.06647e-05 -0.998946
vn -0.0143594 -3.12876e-05 -0.999897
vn 0.0174445 -3.19645e-05 -0.999848
vn 0.0489621 -3.26838e-05 -0.998801
vn 0.048963 -3.26038e-05 -0.998801
vn 0.127291 -3.40555e-05 -0.991865
vn 0.127287 -3.4135e-05 -0.991866
vn 0.25878 -3.60412e-05 -0.965936
vn 0.388756 -3.74047e-05 -0.921341
vn 0.509604 -3.81264e-05 -0.860409
vn 0.509607 -3.80574e-05 -0.860408
vn 0.620513 -3.80781e-05 -0.784196
vn 0.62051 -3.80151e-05 -0.784198
vn 0.722367 -3.72591e-05 -0.69151
vn 0.722369 -3.73145e-05 -0.691508
vn 0.80894 -3.5879e-05 -0.587891
vn 0.808939 -3.58323e-05 -0.587893
vn 0.880878 -3.37477e-05 -0.473343
vn 0.92291 -3.18519e-05 -0.385015
vn 0.937336 -3.10054e-05 -0.348428
vn 0.95009 -3.01225e-05 -0.311976
vn 0.961508 -2.91926e-05 -0.274778
vn 0.961508 -2.92152e-05 -0.274777
vn 0.971483 -2.82341e-05 -0.23711
vn 0.971483 -2.82155e-05 -0.237111
vn 0.980011 -2.71916e-05 -0.198943
vn 0.980011 -2.72075e-05 -0.198943
vn 0.987011 -2.61433e-05 -0.160653
vn 0.987011 -2.61301e-05 -0.160654
vn 0.992488 -2.50375e-05 -0.122339
vn 0.992488 -2.50421e-05 -0.122339
vn 0.996517 -2.38955e-05 -0.0833852
vn 0.996517 -2.38922e-05 -0.0833852
vn 0.999819 -2.07272e-05 0.0190222
vn 0.987546 -1.60952e-05 0.157334
vn 0.987546 -1.60889e-05 0.157333
vn 0.956489 -1.1173e-05 0.291768
vn 0.907029 -6.02751e-06 0.421068
vn 0.839557 -7.22199e-07 0.543271
vn 0.839557 -7.44146e-07 0.543272
vn 0.757207 4.48586e-06 0.653176
vn 0.742562 -3.70052e-05 -0.669778
vn 0.742562 -3.70328e-05 -0.669778
vn 0.742857 -3.70255e-05 -0.66945
vn 0.972173 -2.81504e-05 -0.234265
vn 0.972243 -2.81549e-05 -0.233974
vn 0.972243 -2.8139e-05 -0.233974
vn 0.972134 -2.81514e-05 -0.234426
vn 0.972134 -2.81902e-05 -0.234425
vn -1.29537e-21 -1 -6.12331e-17
vn -9.1663e-23 -1 -6.12324e-17
vn 2.61341e-21 -1 -6.12316e-17
vn 8.46299e-23 -1 -6.12323e-17
vn -2.16528e-23 -1 -6.12323e-17
vn -1.02045e-22 -1 -6.12323e-17
vn 0 -1 -6.12323e-17
vn 2.05124e-23 -1 -6.12323e-17
vn 3.31027e-23 -1 -6.12323e-17
vn -6.02931e-23 -1 -6.12324e-17
vn 1.26801e-23 -1 -6.12323e-17
vn -3.53641e-23 -1 -6.12324e-17
vn 0 -1 -6.12323e-17
vn 0 -1 -6.12323e-17
vn 1.29128e-23 -1 -6.12323e-17
vn -3.93659e-24 -1 -6.12323e-17
vn -8.4159e-25 -1 -6.12323e-17
vn 1.13831e-23 -1 -6.12331e-17
vn 1.35922e-22 -1 -6.12323e-17
vn -8.60974e-23 -1 -6.12323e-17
vn 9.79757e-25 -1 -6.12323e-17
vn 2.50632e-23 -1 -6.12323e-17
vn -6.40795e-23 -1 -6.12324e-17
vn 3.34415e-23 -1 -6.12323e-17
vn 1.90308e-22 -1 -6.1232e-17
vn -1.40777e-22 -1 -6.12326e-17
vn 2.54092e-22 -1 -6.1232e-17
vn 1.68772e-22 -1 -6.12321e-17
vn -2.00486e-22 -1 -6.12325e-17
vn 1.80801e-23 -1 -6.12323e-17
vn -5.34702e-24 -1 -6.12323e-17
vn 0 -1 -6.12323e-17
vn 1.18442e-22 -1 -6.12323e-17
vn -6.51641e-24 -1 -6.12323e-17
vn -2.24406e-23 -1 -6.12324e-17
vn -4.46023e-23 -1 -6.12324e-17
vn 1.21598e-22 -1 -6.12321e-17
vn 2.10287e-23 -1 -6.12323e-17
vn -2.00239e-23 -1 -6.12323e-17
vn -9.4356e-23 -1 -6.12324e-17
vn 3.91542e-22 -1 -6.1232e-17
vn -5.03216e-23 -1 -6.12324e-17
vn -3.27345e-22 -1 -6.12326e-17
vn -1.7096e-23 -1 -6.12324e-17
vn 5.64812e-22 -1 -6.1232e-17
vn -3.15517e-22 -1 -6.12325e-17
vn 5.77714e-23 -1 -6.12323e-17
vn 7.85337e-23 -1 -6.12323e-17
vn 2.34855e-23 -1 -6.12323e-17
vn -4.98956e-23 -1 -6.12324e-17
vn -1.00302e-22 -1 -6.12324e-17
vn 2.16419e-23 -1 -6.12323e-17
vn 2.41435e-23 -1 -6.12323e-17
vn -2.49503e-23 -1 -6.12323e-17
vn -5.19639e-23 -1 -6.12324e-17
vn 3.40626e-23 -1 -6.12323e-17
vn 1.99949e-23 -1 -6.12323e-17
vn -5.18286e-23 -1 -6.12324e-17
vn 2.95019e-23 -1 -6.12323e-17
vn 9.71494e-23 -1 -6.12323e-17
vn -4.23554e-22 -1 -6.12326e-17

# Mesh 'defaultobject' with 276 faces
g defaultobject
usemtl DefaultMaterial
f  1//1 2//1 3//1
f  4//1 5//1 6//1
f  7//1 6//1 5//1
f  8//1 6//1 7//1
f  9//1 8//1 7//1
f  10//1 8//1 9//1
f  11//1 10//1 9//1
f  12//1 10//1 11//1
f  13//1 12//1 11//1
f  14//1 13//1 11//1
f  15//1 14//1 11//1
f  16//1 14//1 15//1
f  2//1 16//1 15//1
f  1//1 16//1 2//1
f  17//1 10//1 12//1
f  18//1 10//1 17//1
f  19//1 10//1 18//1
f  20//1 10//1 19//1
f  21//1 10//1 20//1
f  22//1 10//1 21//1
f  23//1 10//1 22//1
f  24//1 10//1 23//1
f  25//1 10//1 24//1
f  26//1 25//1 24//1
f  27//1 25//1 26//1
f  28//1 27//1 26//1
f  29//1 27//1 28//1
f  30//1 27//1 29//1
f  31//1 27//1 30//1
f  32//1 27//1 31//1
f  33//1 27//1 32//1
f  34//1 27//1 33//1
f  35//1 27//1 34//1
f  36//1 27//1 35//1
f  37//1 27//1 36//1
f  38//1 27//1 37//1
f  39//1 27//1 38//1
f  40//1 27//1 39//1
f  41//1 27//1 40//1
f  42//1 27//1 41//1
f  43//1 27//1 42//1
f  44//1 43//1 42//1
f  45//1 43//1 44//1
f  46//1 43//1 45//1
f  47//1 43//1 46//1
f  48//1 43//1 47//1
f  49//1 48//1 47//1
f  50//1 48//1 49//1
f  51//1 48//1 50//1
f  52//1 48//1 51//1
f  53//1 54//1 55//1
f  56//1 55//1 54//1
f  57//1 56//1 54//1
f  52//1 57//1 54//1
f  48//1 52//1 54//1
f  58//1 48//1 54//1
f  59//1 58//1 54//1
f  60//1 58//1 59//1
f  61//1 58//1 60//1
f  62//1 58//1 61//1
f  63//1 62//1 61//1
f  64//1 63//1 61//1
f  65//1 63//1 64//1
f  66//1 63//1 65//1
f  67//1 66//1 65//1
f  68//1 66//1 67//1
f  69//1 68//1 67//1
f  70//1 68//1 69//1
f  65//2 71//2 72//2
f  71//2 65//2 64//3
f  67//4 72//4 73//4
f  72//4 67//4 65//5
f  69//6 73//6 74//6
f  73//6 69//6 67//7
f  70//8 74//8 75//8
f  74//8 70//8 69//9
f  68//10 75//10 76//10
f  75//10 68//10 70//11
f  66//12 76//12 77//12
f  76//12 66//12 68//13
f  78//14 66//14 77//14
f  66//14 78//14 63//15
f  62//16 78//16 79//16
f  78//16 62//16 63//17
f  58//18 79//18 80//18
f  79//18 58//18 62//19
f  48//20 80//20 81//20
f  80//20 48//20 58//20
f  82//21 48//21 81//21
f  48//21 82//21 43//22
f  83//23 43//23 82//23
f  43//23 83//23 27//23
f  84//24 27//24 83//24
f  27//24 84//24 25//24
f  85//25 25//25 84//25
f  25//25 85//25 10//26
f  86//27 10//27 85//27
f  10//27 86//27 8//28
f  87//29 8//29 86//29
f  8//29 87//29 6//30
f  88//31 6//31 87//31
f  6//31 88//31 4//32
f  89//33 4//33 88//33
f  4//33 89//33 5//33
f  90//34 5//34 89//34
f  5//34 90//34 7//35
f  9//36 90//36 91//36
f  90//36 9//36 7//36
f  11//37 91//37 92//37
f  91//37 11//37 9//38
f  15//39 92//39 93//39
f  92//39 15//39 11//40
f  2//41 93//41 94//41
f  93//41 2//41 15//42
f  3//43 94//43 95//43
f  94//43 3//43 2//44
f  1//45 95//45 96//45
f  95//45 1//45 3//46
f  16//47 96//47 97//47
f  96//47 16//47 1//48
f  14//49 97//49 98//49
f  97//49 14//49 16//49
f  13//50 98//50 99//50
f  98//50 13//50 14//50
f  12//51 99//51 100//51
f  99//51 12//51 13//52
f  17//53 100//53 101//53
f  100//53 17//53 12//54
f  18//55 101//55 102//55
f  101//55 18//55 17//56
f  19//57 102//57 103//57
f  102//57 19//57 18//58
f  20//59 103//59 104//59
f  103//59 20//59 19//59
f  21//60 104//60 105//60
f  104//60 21//60 20//61
f  22//62 105//62 106//62
f  105//62 22//62 21//62
f  23//63 106//63 107//63
f  106//63 23//63 22//63
f  24//64 107//64 108//64
f  107//64 24//64 23//64
f  26//65 108//65 109//65
f  108//65 26//65 24//66
f  28//67 109//67 110//67
f  109//67 28//67 26//68
f  29//69 110//69 111//69
f  110//69 29//69 28//69
f  30//70 111//70 112//70
f  111//70 30//70 29//70
f  31//71 112//71 113//71
f  112//71 31//71 30//72
f  32//73 113//73 114//73
f  113//73 32//73 31//74
f  33//75 114//75 115//75
f  114//75 33//75 32//75
f  34//76 115//76 116//76
f  115//76 34//76 33//76
f  35//77 116//77 117//77
f  116//77 35//77 34//78
f  118//79 35//79 117//79
f  35//79 118//79 36//80
f  119//81 36//81 118//81
f  36//81 119//81 37//82
f  120//83 37//83 119//83
f  37//83 120//83 38//84
f  121//85 38//85 120//85
f  38//85 121//85 39//85
f  122//86 39//86 121//86
f  39//86 122//86 40//86
f  123//87 40//87 122//87
f  40//87 123//87 41//87
f  124//88 41//88 123//88
f  41//88 124//88 42//88
f  125//89 42//89 124//89
f  42//89 125//89 44//90
f  126//91 44//91 125//91
f  44//91 126//91 45//92
f  127//93 45//93 126//93
f  45//93 127//93 46//94
f  128//95 46//95 127//95
f  46//95 128//95 47//96
f  129//97 47//97 128//97
f  47//97 129//97 49//98
f  130//99 49//99 129//99
f  49//99 130//99 50//100
f  131//101 50//101 130//101
f  50//101 131//101 51//101
f  132//102 51//102 131//102
f  51//102 132//102 52//103
f  133//104 52//104 132//104
f  52//104 133//104 57//104
f  134//105 57//105 133//105
f  57//105 134//105 56//105
f  135//106 56//106 134//106
f  56//106 135//106 55//107
f  136//108 55//108 135//108
f  55//108 136//108 53//108
f  137//109 53//109 136//109
f  53//109 137//109 54//110
f  138//111 54//111 137//111
f  54//111 138//111 59//111
f  139//112 59//112 138//112
f  59//112 139//112 60//112
f  140//113 60//113 139//113
f  60//113 140//113 61//114
f  71//115 61//115 140//115
f  61//115 71//115 64//116
f  98//117 97//117 93//117
f  94//118 93//117 97//117
f  96//119 94//118 97//117
f  95//120 94//118 96//119
f  136//121 135//121 137//121
f  134//122 137//121 135//121
f  79//123 137//121 134//122
f  78//124 137//121 79//123
f  138//125 137//121 78//124
f  139//126 138//125 78//124
f  140//127 139//126 78//124
f  77//128 140//127 78//124
f  76//129 140//127 77//128
f  71//130 140//127 76//129
f  72//131 71//130 76//129
f  73//132 72//131 76//129
f  74//130 73//132 76//129
f  75//133 74//130 76//129
f  88//134 87//134 89//134
f  90//135 89//134 87//134
f  86//136 90//135 87//134
f  85//137 90//135 86//136
f  91//138 90//135 85//137
f  92//139 91//138 85//137
f  100//140 92//139 85//137
f  99//141 92//139 100//140
f  98//117 92//139 99//141
f  93//117 92//139 98//117
f  101//142 100//140 85//137
f  102//143 101//142 85//137
f  103//144 102//143 85//137
f  104//145 103//144 85//137
f  105//146 104//145 85//137
f  106//147 105//146 85//137
f  107//148 106//147 85//137
f  84//149 107//148 85//137
f  83//150 107//148 84//149
f  108//151 107//148 83//150
f  109//152 108//151 83//150
f  110//153 109//152 83//150
f  111//154 110//153 83//150
f  112//155 111//154 83//150
f  113//156 112//155 83//150
f  114//157 113//156 83//150
f  115//158 114//157 83//150
f  116//159 115//158 83//150
f  117//160 116//159 83//150
f  118//161 117//160 83//150
f  119//162 118//161 83//150
f  82//163 119//162 83//150
f  120//164 119//162 82//163
f  121//165 120//164 82//163
f  122//129 121//165 82//163
f  123//166 122//129 82//163
f  81//167 123//166 82//163
f  124//168 123//166 81//167
f  80//148 124//168 81//167
f  125//169 124//168 80//148
f  126//170 125//169 80//148
f  127//171 126//170 80//148
f  79//123 127//171 80//148
f  128//172 127//171 79//123
f  129//173 128//172 79//123
f  130//174 129//173 79//123
f  131//175 130//174 79//123
f  132//176 131//175 79//123
f  133//177 132//176 79//123
f  134//122 133//177 79//123

