# {"id":"BLDG_00030009007e0f67","idOriginal":"BLDG_00030009007e0f67","origin":[13.390623907341586,52.54565472258474],"elevation":47.3499984741211}
# Longitude: 13.390623907341586
# Latitude: 52.54565472258474
# Elevation: 47.3499984741211

# File produced by Open Asset Import Library (http://www.assimp.sf.net)
# (assimp v3.1.0)

mtllib BLDG_00030009007e0f67.obj.mtl

# 24 vertex positions
v  21.8696 21.6667 16.7671
v  22.9464 21.6667 21.9752
v  23.9801 21.6667 21.5159
v  14.6368 21.6667 0.497829
v  13.6031 21.6667 0.958121
v  16.7444 21.6667 5.23755
v  13.0876 21.6667 29.414
v  24.0817 21.6667 24.5276
v  0.00046262 21.6667 -0.0006863
v  20.8349 21.6667 17.2264
v  15.7098 21.6667 5.69782
v  10.9766 21.6667 -4.94139
v  13.0871 -1.80113e-15 29.4147
v  22.9459 -1.34564e-15 21.9759
v  24.0813 -1.50193e-15 24.5283
v  21.8691 -1.02673e-15 16.7678
v  23.9796 -1.31751e-15 21.5166
v  20.8345 -1.05486e-15 17.2271
v  0 0 0
v  15.7093 -3.48933e-16 5.6985
v  13.6027 -5.871e-17 0.958807
v  14.6364 -3.05253e-17 0.498515
v  10.9762 3.02531e-16 -4.94071
v  16.744 -3.20749e-16 5.23823

# 0 UV coordinates

# 29 vertex normals
vn 0 1 0
vn -3.15033e-23 -1 -6.12324e-17
vn 5.62905e-23 -1 -6.12324e-17
vn 9.94237e-23 -1 -6.12323e-17
vn -4.37307e-24 -1 -6.12323e-17
vn -5.57624e-24 -1 -6.12323e-17
vn 0 -1 -6.12323e-17
vn 1.80405e-23 -1 -6.12323e-17
vn 0 -1 -6.12323e-17
vn 0.91382 -3.24149e-05 -0.40612
vn -0.405707 -2.03229e-05 -0.914003
vn -0.405706 -2.02873e-05 -0.914004
vn 0.913771 -3.23616e-05 -0.406229
vn 0.913772 -3.23476e-05 -0.406229
vn 0.406445 2.0277e-05 0.913675
vn 0.406445 2.02588e-05 0.913675
vn 0.913734 -3.2389e-05 -0.406313
vn 0.913734 -3.23381e-05 -0.406313
vn -0.406787 -2.02517e-05 -0.913523
vn 0.913552 -3.23893e-05 -0.406721
vn 0.913552 -3.23825e-05 -0.406721
vn -0.410464 -2.01199e-05 -0.911877
vn -0.410464 -2.01362e-05 -0.911877
vn -0.91365 3.23868e-05 0.406501
vn -0.91365 3.2384e-05 0.406501
vn 0.406144 2.02681e-05 0.913809
vn 0.406144 2.02827e-05 0.913809
vn 0.913688 -3.24228e-05 -0.406417
vn 0.406062 2.02741e-05 0.913845

# Mesh 'defaultobject' with 44 faces
g defaultobject
usemtl DefaultMaterial
f  1//1 2//1 3//1
f  4//1 5//1 6//1
f  2//1 7//1 8//1
f  7//1 2//1 9//1
f  9//1 2//1 10//1
f  10//1 2//1 1//1
f  9//1 10//1 11//1
f  9//1 11//1 6//1
f  9//1 6//1 5//1
f  9//1 5//1 12//1
f  13//2 14//2 15//2
f  14//2 16//3 17//3
f  16//3 14//2 13//2
f  16//3 13//2 18//4
f  18//4 13//2 19//5
f  18//4 19//5 20//6
f  20//6 19//5 21//7
f  20//6 21//7 22//8
f  21//7 19//5 23//7
f  22//8 24//9 20//6
f  3//10 16//10 1//10
f  16//10 3//10 17//10
f  10//11 16//11 18//11
f  16//11 10//11 1//12
f  10//13 20//13 11//13
f  20//13 10//13 18//14
f  11//15 24//15 6//15
f  24//15 11//15 20//16
f  6//17 22//17 4//17
f  22//17 6//17 24//18
f  5//19 22//19 21//19
f  22//19 5//19 4//19
f  5//20 23//20 12//20
f  23//20 5//20 21//21
f  9//22 23//22 19//22
f  23//22 9//22 12//23
f  7//24 19//24 13//24
f  19//24 7//24 9//25
f  7//26 15//26 8//26
f  15//26 7//26 13//27
f  8//28 14//28 2//28
f  14//28 8//28 15//28
f  2//29 17//29 3//29
f  17//29 2//29 14//29

