# {"id":"BLDG_0003000f002fca07","idOriginal":"BLDG_0003000f002fca07","origin":[13.33548163671417,52.51487994696597],"elevation":32.5699996948242}
# Longitude: 13.33548163671417
# Latitude: 52.51487994696597
# Elevation: 32.5699996948242

# File produced by Open Asset Import Library (http://www.assimp.sf.net)
# (assimp v3.1.0)

mtllib BLDG_0003000f002fca07.obj.mtl

# 52 vertex positions
v  22.3842 22.8528 -6.54664
v  7.33512 22.6733 -2.14567
v  7.33513 22.8528 -2.14567
v  0 0 0
v  3.29629 5.90263e-17 -0.963972
v  7.33464 1.3134e-16 -2.14495
v  24.8208 22.4662 -7.2592
v  22.3837 4.00822e-16 -6.54591
v  32.9676 23.1635 -9.64168
v  36.2473 20.3184 -10.6007
v  24.8203 4.44454e-16 -7.25849
v  32.9671 5.90338e-16 -9.64095
v  36.2468 6.49067e-16 -10.6001
v  3.29678 22.6733 -0.964689
v  0.000482373 22.6733 -0.00071676
v  31.9604 22.4662 17.7008
v  43.4071 20.3184 14.43
v  40.1215 23.1635 15.3687
v  43.4066 -8.8362e-16 14.4306
v  29.5194 22.8528 18.3983
v  22.7599 22.8528 20.3299
v  22.7599 22.6733 20.3299
v  12.3904 22.6733 23.293
v  40.121 -9.41109e-16 15.3695
v  31.9599 -1.08391e-15 17.7015
v  29.5189 -1.12662e-15 18.3991
v  22.7594 -1.24489e-15 20.3306
v  12.3899 -1.42633e-15 23.2937
v  9.7429 -3.7286e-16 6.08926
v  9.11259 22.6733 3.93178
v  9.74338 22.6733 6.08855
v  9.11254 20.3184 3.93186
v  7.46105 22.6733 -1.71512
v  9.11211 -2.40796e-16 3.9325
v  18.05 20.3184 15.177
v  18.0496 -9.2936e-16 15.1776
v  18.0501 22.6733 15.1769
v  22.4262 22.6733 19.9649
v  37.9887 20.3184 -4.51272
v  41.6886 20.3184 8.42216
v  37.9883 2.76285e-16 -4.51208
v  41.6881 -5.15748e-16 8.4228
v  4.18873 22.6733 14.3196
v  4.18825 -8.76865e-16 14.3203
v  27.8009 20.3184 12.3906
v  24.1251 2.80392e-17 -0.457915
v  27.8005 -7.58745e-16 12.3913
v  24.1255 20.3184 -0.458558
v  34.709 23.1635 -3.55368
v  38.403 23.1635 9.36094
v  26.5622 22.4662 -1.1712
v  30.2419 22.4662 11.693

# 0 UV coordinates

# 85 vertex normals
vn -0.280685 -2.43909e-05 -0.9598
vn -0.280685 -2.43663e-05 -0.9598
vn -0.280685 -2.43508e-05 -0.9598
vn -0.280685 -2.43593e-05 -0.9598
vn -0.280685 -2.4289e-05 -0.9598
vn -0.280685 -2.4366e-05 -0.9598
vn -0.280685 -2.4374e-05 -0.9598
vn -0.280685 -2.43675e-05 -0.9598
vn -0.280685 -2.45156e-05 -0.9598
vn -0.280685 -2.42977e-05 -0.9598
vn -0.280685 -2.43638e-05 -0.9598
vn -0.280685 -2.43691e-05 -0.9598
vn 0.274756 2.45872e-05 0.961514
vn 0.274756 2.4537e-05 0.961514
vn 0.274756 2.42274e-05 0.961514
vn 0.274756 2.45516e-05 0.961514
vn 0.274757 2.3746e-05 0.961514
vn 0.274756 2.46491e-05 0.961514
vn 0.274756 2.48645e-05 0.961514
vn 0.274756 2.4421e-05 0.961514
vn 0.274756 2.46535e-05 0.961514
vn 0.274756 2.44827e-05 0.961514
vn 0.274756 2.45633e-05 0.961514
vn 0.959793 -2.93005e-05 -0.28071
vn 0.959793 -2.90796e-05 -0.280708
vn 0.959793 -2.90796e-05 -0.28071
vn 0.959793 -2.9281e-05 -0.28071
vn 0.738136 -3.70839e-05 -0.674651
vn 0.738136 -3.70311e-05 -0.674651
vn 0.738136 -3.68558e-05 -0.674651
vn 0.738137 -3.68558e-05 -0.674651
vn 0.961441 -2.90862e-05 -0.27501
vn 0.961441 -2.90265e-05 -0.27501
vn 0.961441 -2.88435e-05 -0.275011
vn 0.961441 -2.93072e-05 -0.27501
vn 0 0 -1
vn -4.44089e-17 1 5.55112e-17
vn -0.959793 2.93064e-05 0.28071
vn -0.959793 2.92935e-05 0.28071
vn -0.738137 3.70493e-05 0.674651
vn -0.961441 2.91875e-05 0.27501
vn -0.961441 2.90908e-05 0.275011
vn 0.280685 2.43658e-05 0.9598
vn 0.280685 2.43898e-05 0.9598
vn -0.959793 2.93381e-05 0.28071
vn -0.738136 3.71835e-05 0.674652
vn -0.274756 -2.45628e-05 -0.961514
vn 0 1 -0
vn 0.61519 0.76849 -0.175969
vn 0.615194 0.768487 -0.175967
vn 0.615183 0.768496 -0.175967
vn 0.615184 0.768495 -0.175967
vn 0.615183 0.768495 -0.175967
vn 0.615183 0.768495 -0.175967
vn -0.0787148 0.996643 0.0225156
vn -0.0787145 0.996643 0.0225158
vn -0.0787151 0.996643 0.0225157
vn -0.078716 0.996643 0.0225157
vn -0.0787158 0.996643 0.0225159
vn -0.620975 0.76344 0.177624
vn -0.620975 0.763439 0.177624
vn -0.62097 0.763443 0.177624
vn 0.237798 0.918975 0.314542
vn 0.104299 0.928398 0.356649
vn 0.104299 0.928398 0.356651
vn 0.104299 0.928398 0.356649
vn 0.0320991 0.917574 -0.396266
vn -0.103267 0.92668 -0.361386
vn -0.103267 0.92668 -0.361386
vn -0.75394 0.471212 0.457749
vn 0 -1 -6.12323e-17
vn -1.26092e-24 -1 -6.12323e-17
vn 0 -1 -6.12323e-17
vn -1.5376e-23 -1 -6.12323e-17
vn 1.28521e-23 -1 -6.12323e-17
vn 5.26913e-23 -1 -6.12323e-17
vn 4.99307e-23 -1 -6.12323e-17
vn 1.33486e-23 -1 -6.12323e-17
vn 3.34163e-24 -1 -6.12323e-17
vn 9.64085e-24 -1 -6.12324e-17
vn -5.33222e-25 -1 -6.12323e-17
vn -5.34503e-25 -1 -6.12323e-17
vn 0 -1 -6.12323e-17
vn -2.46631e-23 -1 -6.12323e-17
vn -3.15781e-24 -1 -6.12323e-17

# Mesh 'defaultobject' with 104 faces
g defaultobject
usemtl DefaultMaterial
f  1//1 2//1 3//1
f  2//1 1//1 4//2
f  4//2 1//1 5//3
f  5//3 1//1 6//4
f  6//4 1//1 7//5
f  6//4 7//5 8//6
f  8//6 7//5 9//7
f  8//6 9//7 10//8
f  8//6 10//8 11//9
f  11//9 10//8 12//10
f  12//10 10//8 13//11
f  14//12 4//2 15//12
f  4//2 14//12 2//1
f  16//13 17//13 18//13
f  17//13 16//13 19//14
f  19//14 16//13 20//15
f  19//14 20//15 21//16
f  19//14 21//16 22//17
f  19//14 22//17 23//18
f  19//14 23//18 24//19
f  24//19 23//18 25//20
f  25//20 23//18 26//21
f  26//21 23//18 27//22
f  27//22 23//18 28//23
f  29//24 30//24 31//24
f  30//24 29//24 32//25
f  30//24 32//25 33//26
f  32//25 29//24 34//27
f  29//28 35//28 36//28
f  35//28 29//28 31//29
f  35//28 31//29 37//30
f  37//30 38//31 35//28
f  39//32 13//32 10//32
f  13//32 39//32 40//33
f  13//32 40//33 17//34
f  13//32 17//34 19//35
f  13//36 19//36 41//36
f  41//37 19//37 42//37
f  43//38 4//38 44//38
f  4//38 43//38 15//39
f  23//40 44//40 28//40
f  44//40 23//40 43//40
f  45//41 46//41 47//41
f  46//41 45//41 48//42
f  46//43 32//43 34//43
f  32//43 46//43 48//44
f  3//45 2//45 33//45
f  21//46 38//46 22//46
f  35//47 47//47 36//47
f  47//47 35//47 45//47
f  38//48 23//48 22//48
f  23//48 38//48 37//48
f  23//48 37//48 31//48
f  23//48 31//48 43//48
f  43//48 31//48 30//48
f  43//48 30//48 33//48
f  43//48 33//48 15//48
f  15//48 33//48 2//48
f  15//39 2//45 14//12
f  49//49 10//49 9//49
f  10//49 49//49 50//50
f  10//49 50//51 18//51
f  10//49 18//51 39//52
f  39//52 18//51 40//53
f  40//53 18//51 17//54
f  51//55 9//55 7//55
f  9//55 51//55 52//56
f  9//55 52//56 16//57
f  9//55 16//57 50//58
f  50//58 16//57 18//59
f  9//48 50//48 49//48
f  45//60 7//60 48//60
f  7//60 45//60 51//61
f  51//61 45//60 16//62
f  51//48 16//48 52//48
f  7//63 1//63 48//63
f  48//64 33//64 32//64
f  33//64 48//64 3//65
f  3//65 48//64 1//66
f  16//67 45//67 20//67
f  35//68 20//68 45//68
f  20//68 35//68 21//69
f  21//70 35//70 38//70
f  41//71 12//71 13//71
f  12//71 41//71 42//71
f  12//71 42//71 11//72
f  11//72 42//71 19//73
f  11//72 19//73 24//71
f  11//72 24//71 25//74
f  11//72 25//74 8//75
f  8//75 25//74 46//76
f  46//76 25//74 47//77
f  47//77 25//74 26//78
f  47//77 26//78 36//79
f  36//79 26//78 27//80
f  46//76 6//81 8//75
f  6//81 46//76 34//82
f  5//83 44//83 4//83
f  44//83 5//83 6//81
f  44//83 6//81 34//82
f  44//83 34//82 29//84
f  44//83 29//84 36//79
f  44//83 36//79 28//85
f  28//85 36//79 27//80

