# {"id":"BLDG_0003000b00099f49","idOriginal":"BLDG_0003000b00099f49","origin":[13.363240845792216,52.54034191373692],"elevation":34.3400001525879}
# Longitude: 13.363240845792216
# Latitude: 52.54034191373692
# Elevation: 34.3400001525879

# File produced by Open Asset Import Library (http://www.assimp.sf.net)
# (assimp v3.1.0)

mtllib BLDG_0003000b00099f49.obj.mtl

# 208 vertex positions
v  17.7153 3.65207e-16 -5.96428
v  19.0909 3.68798e-16 -6.02294
v  18.4048 3.64628e-16 -5.95482
v  17.031 3.70563e-16 -6.05176
v  19.7644 3.77693e-16 -6.16819
v  16.3616 3.80611e-16 -6.21585
v  20.4179 3.91207e-16 -6.38889
v  15.7149 3.95229e-16 -6.45458
v  21.0423 4.09127e-16 -6.68155
v  12.5855 5.84457e-16 -9.5449
v  21.629 4.31276e-16 -7.04328
v  22.1717 4.57289e-16 -7.4681
v  22.6625 4.8695e-16 -7.9525
v  23.0962 5.19779e-16 -8.48863
v  23.4662 5.5541e-16 -9.07053
v  23.7679 5.93363e-16 -9.69036
v  12.339 6.23871e-16 -10.1886
v  23.9975 6.33157e-16 -10.3402
v  12.1661 6.64731e-16 -10.8559
v  24.1525 6.74308e-16 -11.0123
v  12.0705 7.06548e-16 -11.5388
v  24.2308 7.16258e-16 -11.6974
v  12.0519 7.48761e-16 -12.2282
v  24.2311 7.58449e-16 -12.3864
v  12.1119 7.90807e-16 -12.9149
v  24.1538 8.00394e-16 -13.0714
v  12.2487 8.32166e-16 -13.5903
v  23.9994 8.41569e-16 -13.7439
v  12.4608 8.72354e-16 -14.2466
v  23.7701 8.81374e-16 -14.3939
v  12.7461 9.10774e-16 -14.8741
v  23.4688 9.19357e-16 -15.0142
v  13.0998 9.47022e-16 -15.466
v  23.0997 9.5499e-16 -15.5962
v  13.5185 9.80542e-16 -16.0135
v  22.6668 9.87857e-16 -16.1329
v  13.996 1.011e-15 -16.5109
v  22.1762 1.0175e-15 -16.6171
v  14.5268 1.03793e-15 -16.9506
v  21.6338 1.04362e-15 -17.0436
v  15.104 1.06102e-15 -17.3278
v  21.0474 1.06575e-15 -17.4051
v  15.7202 1.08e-15 -17.6377
v  20.4232 1.08375e-15 -17.6989
v  16.3674 1.09456e-15 -17.8756
v  19.7701 1.09729e-15 -17.9201
v  17.037 1.10458e-15 -18.0392
v  19.0967 1.10622e-15 -18.066
v  17.721 1.10988e-15 -18.1257
v  18.4108 1.11042e-15 -18.1345
v  15.7149 0.0600014 -6.45458
v  8.49801 0.0600014 -5.26512
v  12.5855 0.0600014 -9.5449
v  11.6681 0.0600014 -2.1313
v  6.49742 -0.110001 -5.74626
v  5.12364 -0.110001 -5.68269
v  5.80852 -0.110001 -5.75327
v  7.18058 -0.110001 -5.66186
v  4.45071 -0.110001 -5.53498
v  7.85067 -0.110001 -5.50019
v  3.79894 -0.110001 -5.31242
v  8.49801 -0.110001 -5.26511
v  3.17631 -0.110001 -5.0179
v  11.6681 -0.110001 -2.13129
v  2.59085 -0.110001 -4.65553
v  2.04993 -0.110001 -4.22885
v  1.5604 -0.110001 -3.74443
v  1.12908 -0.110001 -3.20763
v  0.760362 -0.110001 -2.62571
v  0.459892 -0.110001 -2.00586
v  11.9116 -0.110001 -1.48706
v  0.231476 -0.110001 -1.35596
v  12.0801 -0.110001 -0.819234
v  0.0777179 -0.110001 -0.684503
v  12.1727 -0.110001 -0.136983
v  0 -0.110001 -6.73559e-18
v  12.1883 -0.110001 0.551735
v  0.000936348 -0.110001 0.68844
v  12.1252 -0.110001 1.23774
v  0.0788476 -0.110001 1.37285
v  11.986 -0.110001 1.91192
v  0.233298 -0.110001 2.04408
v  11.771 -0.110001 2.56634
v  0.462622 -0.110001 2.69353
v  11.4844 -0.110001 3.19255
v  0.763916 -0.110001 3.31323
v  11.1284 -0.110001 3.78204
v  1.13246 -0.110001 3.89454
v  10.7085 -0.110001 4.32821
v  1.56473 -0.110001 4.43068
v  10.2297 -0.110001 4.82321
v  2.05475 -0.110001 4.91482
v  9.69774 -0.110001 5.26105
v  2.59592 -0.110001 5.34073
v  9.11996 -0.110001 5.63638
v  3.18225 -0.110001 5.70282
v  8.50381 -0.110001 5.94384
v  3.80527 -0.110001 5.99663
v  7.85727 -0.110001 6.17993
v  4.45713 -0.110001 6.21837
v  7.18774 -0.110001 6.34174
v  5.12996 -0.110001 6.36483
v  6.50378 -0.110001 6.42759
v  5.81521 -0.110001 6.43524
v  19.0912 16.8829 -6.02347
v  19.7647 16.8829 -6.16872
v  20.4183 16.8829 -6.38942
v  21.0427 16.8829 -6.68208
v  21.6294 16.8829 -7.04381
v  22.1721 16.8829 -7.46863
v  22.6628 16.8829 -7.95303
v  23.0966 16.8829 -8.48917
v  23.4665 16.8829 -9.07107
v  23.7682 16.8829 -9.69089
v  23.9979 16.8829 -10.3408
v  24.1528 16.8829 -11.0128
v  24.2312 16.8829 -11.6979
v  24.2315 16.8829 -12.3869
v  24.1542 16.8829 -13.072
v  23.9998 16.8829 -13.7444
v  23.7705 16.8829 -14.3945
v  23.4692 16.8829 -15.0148
v  23.1 16.8829 -15.5967
v  22.6672 16.8829 -16.1335
v  22.1765 16.8829 -16.6176
v  21.6341 16.8829 -17.0442
v  21.0478 16.8829 -17.4056
v  20.4236 16.8829 -17.6995
v  19.7705 16.8829 -17.9206
v  19.097 16.8829 -18.0665
v  18.4111 16.8829 -18.1351
v  17.7213 16.8829 -18.1262
v  17.0373 16.8829 -18.0398
v  16.3678 16.8829 -17.8761
v  15.7206 16.8829 -17.6382
v  15.1044 16.8829 -17.3283
v  14.5272 16.8829 -16.9512
v  13.9964 16.8829 -16.5115
v  13.5188 16.8829 -16.014
v  13.1001 16.8829 -15.4666
v  12.7465 16.8829 -14.8746
v  12.4611 16.8829 -14.2471
v  12.2491 16.8829 -13.5908
v  12.1123 16.8829 -12.9154
v  12.0522 16.8829 -12.2287
v  12.0709 16.8829 -11.5393
v  12.1665 16.8829 -10.8564
v  12.3393 16.8829 -10.1891
v  12.5859 16.8829 -9.54544
v  15.7153 16.8829 -6.45512
v  15.715 2.86375 -6.45467
v  12.5856 2.86375 -9.54499
v  8.49807 2.86375 -5.2652
v  11.6682 2.86375 -2.13139
v  7.85104 16.8661 -5.50073
v  8.49837 16.8661 -5.26565
v  7.18094 16.8661 -5.66239
v  6.49779 16.8661 -5.7468
v  5.80888 16.8661 -5.75381
v  5.124 16.8661 -5.68323
v  4.45107 16.8661 -5.53552
v  3.7993 16.8661 -5.31296
v  3.17668 16.8661 -5.01843
v  2.59121 16.8661 -4.65607
v  2.05029 16.8661 -4.22938
v  1.56076 16.8661 -3.74496
v  1.12944 16.8661 -3.20817
v  0.760724 16.8661 -2.62624
v  0.460254 16.8661 -2.0064
v  0.231838 16.8661 -1.3565
v  0.0780797 16.8661 -0.68504
v  0.000361833 16.8661 -0.00053755
v  0.00129818 16.8661 0.687903
v  0.0792095 16.8661 1.37232
v  0.23366 16.8661 2.04354
v  0.462983 16.8661 2.69299
v  0.764278 16.8661 3.31269
v  1.13283 16.8661 3.894
v  1.5651 16.8661 4.43014
v  2.05511 16.8661 4.91428
v  2.59628 16.8661 5.3402
v  3.18261 16.8661 5.70228
v  3.80564 16.8661 5.99609
v  4.4575 16.8661 6.21783
v  5.13032 16.8661 6.36429
v  5.81557 16.8661 6.4347
v  6.50414 16.8661 6.42705
v  7.1881 16.8661 6.3412
v  7.85763 16.8661 6.1794
v  8.50417 16.8661 5.9433
v  9.12033 16.8661 5.63584
v  9.6981 16.8661 5.26051
v  10.2301 16.8661 4.82267
v  10.7088 16.8661 4.32767
v  11.1287 16.8661 3.78151
v  11.4848 16.8661 3.19201
v  11.7713 16.8661 2.5658
v  11.9864 16.8661 1.91138
v  12.1256 16.8661 1.2372
v  12.1887 16.8661 0.551198
v  12.1731 16.8661 -0.137521
v  12.0805 16.8661 -0.819772
v  11.9119 16.8661 -1.4876
v  11.6685 16.8661 -2.13183
v  16.3619 16.8829 -6.21639
v  17.0314 16.8829 -6.05229
v  17.7157 16.8829 -5.96481
v  18.4052 16.8829 -5.95536

# 0 UV coordinates

# 222 vertex normals
vn -2.32732e-23 -1 -6.12324e-17
vn -8.13483e-24 -1 -6.1232e-17
vn -3.65093e-24 -1 -6.12324e-17
vn 1.96399e-25 -1 -6.12323e-17
vn 1.18979e-24 -1 -6.12323e-17
vn -3.49362e-24 -1 -6.12324e-17
vn -4.44989e-24 -1 -6.12324e-17
vn -2.69727e-24 -1 -6.12323e-17
vn 4.18918e-24 -1 -6.12324e-17
vn -1.14543e-23 -1 -6.12323e-17
vn -3.50578e-24 -1 -6.12323e-17
vn -1.62902e-24 -1 -6.12323e-17
vn 1.52546e-24 -1 -6.12324e-17
vn -1.68146e-24 -1 -6.12323e-17
vn -1.20068e-24 -1 -6.12323e-17
vn 3.72912e-24 -1 -6.12324e-17
vn 4.82155e-24 -1 -6.12323e-17
vn -1.85394e-24 -1 -6.12322e-17
vn -5.04338e-24 -1 -6.12324e-17
vn -4.57411e-24 -1 -6.12324e-17
vn -3.50161e-24 -1 -6.12323e-17
vn -1.97141e-25 -1 -6.12324e-17
vn 9.40698e-25 -1 -6.12323e-17
vn 1.40184e-24 -1 -6.12323e-17
vn 1.63147e-24 -1 -6.12323e-17
vn 4.38359e-24 -1 -6.12324e-17
vn 4.30847e-24 -1 -6.12323e-17
vn -2.23999e-24 -1 -6.12322e-17
vn -6.03905e-24 -1 -6.12325e-17
vn -5.43741e-24 -1 -6.12325e-17
vn -2.62679e-25 -1 -6.12321e-17
vn 7.33105e-24 -1 -6.12323e-17
vn 5.11307e-24 -1 -6.12325e-17
vn -4.66752e-24 -1 -6.12322e-17
vn -7.3627e-24 -1 -6.12325e-17
vn -5.15377e-24 -1 -6.12325e-17
vn -1.1682e-25 -1 -6.12321e-17
vn 3.22079e-24 -1 -6.12322e-17
vn -4.76281e-24 -1 -6.12328e-17
vn -3.0354e-23 -1 -6.12322e-17
vn -2.45491e-23 -1 -6.12318e-17
vn 7.28077e-24 -1 -6.12325e-17
vn 1.24069e-23 -1 -6.12321e-17
vn 1.32294e-24 -1 -6.12318e-17
vn -5.10111e-24 -1 -6.12323e-17
vn 1.00664e-23 -1 -6.12327e-17
vn 0 -1 -6.12335e-17
vn -0 -1 0
vn 0.210825 2.64724e-05 0.977524
vn 0.210824 2.6448e-05 0.977524
vn 0.319935 2.31663e-05 0.947439
vn 0.42439 1.96067e-05 0.90548
vn 0.524833 1.57448e-05 0.851205
vn 0.524835 1.58037e-05 0.851204
vn 0.616388 1.18394e-05 0.787442
vn 0.616387 1.1792e-05 0.787443
vn 0.702486 7.55324e-06 0.711697
vn 0.702486 7.53404e-06 0.711698
vn 0.77743 3.31352e-06 0.62897
vn 0.77743 3.33144e-06 0.628969
vn 0.843903 -1.01761e-06 0.536495
vn 0.899146 -5.3289e-06 0.437649
vn 0.899146 -5.35451e-06 0.43765
vn 0.942869 -9.59252e-06 0.333165
vn 0.942869 -9.57458e-06 0.333165
vn 0.974422 -1.36842e-05 0.224727
vn 0.974422 -1.3587e-05 0.224724
vn 0.993526 -1.75082e-05 0.113606
vn 0.993526 -1.76202e-05 0.113608
vn 1 -2.13387e-05 0.000429067
vn 1 -2.13387e-05 0.000429067
vn 0.993695 -2.47705e-05 -0.112118
vn 0.993695 -2.46585e-05 -0.112121
vn 0.974629 -2.77937e-05 -0.223827
vn 0.974629 -2.7891e-05 -0.223825
vn 0.943047 -3.06593e-05 -0.33266
vn 0.899514 -3.30275e-05 -0.436892
vn 0.899514 -3.30518e-05 -0.436892
vn 0.844432 -3.50055e-05 -0.535663
vn 0.84443 -3.488e-05 -0.535666
vn 0.778415 -3.6391e-05 -0.62775
vn 0.778417 -3.64781e-05 -0.627748
vn 0.702394 -3.75141e-05 -0.711788
vn 0.618173 -3.80643e-05 -0.786042
vn 0.618175 -3.81538e-05 -0.78604
vn 0.524781 -3.80731e-05 -0.851237
vn 0.524778 -3.82286e-05 -0.851239
vn 0.425888 -3.77685e-05 -0.904776
vn 0.42589 -3.76663e-05 -0.904775
vn 0.320735 -3.68102e-05 -0.947169
vn 0.320734 -3.68809e-05 -0.947169
vn 0.211681 -3.5436e-05 -0.977339
vn 0.099504 -3.36006e-05 -0.995037
vn -0.0128203 -3.14696e-05 -0.999918
vn -0.0128176 -3.13567e-05 -0.999918
vn -0.125417 -2.87194e-05 -0.992104
vn -0.125419 -2.88173e-05 -0.992104
vn -0.237402 -2.56596e-05 -0.971411
vn -0.237403 -2.56864e-05 -0.971411
vn -0.345035 -2.23426e-05 -0.93859
vn -0.345034 -2.23231e-05 -0.93859
vn -0.449305 -1.87675e-05 -0.893379
vn -0.449303 -1.8692e-05 -0.893379
vn -0.547012 -1.49263e-05 -0.837124
vn -0.547012 -1.48954e-05 -0.837125
vn -0.637929 -1.08622e-05 -0.770095
vn -0.721382 -6.54461e-06 -0.692537
vn -0.721384 -6.62277e-06 -0.692536
vn -0.794284 -2.30359e-06 -0.607546
vn -0.858477 2.0784e-06 -0.512853
vn -0.858477 2.05889e-06 -0.512852
vn -0.910284 6.28965e-06 -0.413984
vn -0.910284 6.31766e-06 -0.413985
vn -0.951562 1.05385e-05 -0.307456
vn -0.980116 1.45843e-05 -0.198426
vn -0.980116 1.45955e-05 -0.198427
vn -0.996197 1.84535e-05 -0.0871337
vn -0.999636 2.21999e-05 0.0269948
vn -0.999636 2.21435e-05 0.0269962
vn -0.990336 2.55331e-05 0.138691
vn -0.990336 2.55409e-05 0.138691
vn -0.968056 2.85469e-05 0.250733
vn -0.968057 2.86016e-05 0.250732
vn -0.933854 3.1221e-05 0.357654
vn -0.933854 3.12008e-05 0.357655
vn -0.702646 3.74916e-05 0.711539
vn -0.702646 3.75117e-05 0.711539
vn 0.702646 -3.75864e-05 -0.711539
vn -0.723166 -6.35155e-06 -0.690674
vn -0.703024 3.75616e-05 0.711166
vn 0.730064 5.97368e-06 0.683378
vn 0.34134 -3.70318e-05 -0.93994
vn 0.34134 -3.70222e-05 -0.93994
vn 0.234529 -3.5773e-05 -0.972109
vn 0.122619 -3.40591e-05 -0.992454
vn 0.12262 -3.40312e-05 -0.992454
vn 0.0101709 -3.18711e-05 -0.999948
vn 0.0101702 -3.18992e-05 -0.999948
vn -0.102509 -2.93037e-05 -0.994732
vn -0.214393 -2.63491e-05 -0.976748
vn -0.323154 -2.30726e-05 -0.946346
vn -0.323154 -2.3068e-05 -0.946346
vn -0.427608 -1.95249e-05 -0.903964
vn -0.427607 -1.95055e-05 -0.903965
vn -0.526286 -1.56972e-05 -0.850308
vn -0.526286 -1.57211e-05 -0.850307
vn -0.619326 -1.16593e-05 -0.785134
vn -0.619326 -1.16506e-05 -0.785134
vn -0.703388 -7.52041e-06 -0.710806
vn -0.703388 -7.51536e-06 -0.710806
vn -0.779528 -3.21807e-06 -0.626368
vn -0.779528 -3.22354e-06 -0.626368
vn -0.844714 1.05543e-06 -0.535218
vn -0.844714 1.05839e-06 -0.535218
vn -0.899848 5.36487e-06 -0.436203
vn -0.899848 5.36645e-06 -0.436203
vn -0.943427 9.60708e-06 -0.331581
vn -0.97477 1.37083e-05 -0.223213
vn -0.97477 1.37071e-05 -0.223213
vn -0.993616 1.76059e-05 -0.112814
vn -0.993616 1.7606e-05 -0.112814
vn -0.999999 2.13572e-05 0.0013601
vn -0.999999 2.13573e-05 0.0013601
vn -0.993583 2.47585e-05 0.113106
vn -0.993583 2.47587e-05 0.113106
vn -0.974533 2.7873e-05 0.224244
vn -0.974533 2.78714e-05 0.224244
vn -0.942943 3.06379e-05 0.332955
vn -0.942943 3.06426e-05 0.332954
vn -0.899339 3.30147e-05 0.437253
vn -0.899338 3.30102e-05 0.437253
vn -0.844565 3.49498e-05 0.535453
vn -0.844565 3.49574e-05 0.535452
vn -0.778484 3.64606e-05 0.627664
vn -0.702829 3.75025e-05 0.711359
vn -0.702829 3.74976e-05 0.711359
vn -0.618459 3.80609e-05 0.785817
vn -0.525428 3.81364e-05 0.850838
vn -0.426543 3.77254e-05 0.904467
vn -0.322042 3.68348e-05 0.946725
vn -0.212699 3.54663e-05 0.977118
vn -0.10221 3.3669e-05 0.994763
vn 0.011105 3.14172e-05 0.999938
vn 0.124548 2.87539e-05 0.992214
vn 0.234907 2.57626e-05 0.972018
vn 0.343009 2.24221e-05 0.939332
vn 0.343009 2.24132e-05 0.939332
vn 0.446499 1.87929e-05 0.894784
vn 0.446499 1.88184e-05 0.894784
vn 0.544756 1.49403e-05 0.838595
vn 0.635485 1.08978e-05 0.772113
vn 0.635485 1.09119e-05 0.772113
vn 0.71881 6.70337e-06 0.695206
vn 0.792778 2.41572e-06 0.60951
vn 0.792778 2.38004e-06 0.609511
vn 0.855986 -1.90041e-06 0.516999
vn 0.909317 -6.23409e-06 0.416103
vn 0.909317 -6.23919e-06 0.416103
vn 0.95001 -1.03965e-05 0.312219
vn 0.95001 -1.03417e-05 0.312218
vn 0.979353 -1.44507e-05 0.202157
vn 0.995796 -1.83018e-05 0.0915941
vn 0.995796 -1.83572e-05 0.0915954
vn 0.999744 -2.2058e-05 -0.0226134
vn 0.999744 -2.20018e-05 -0.0226148
vn 0.990914 -2.53569e-05 -0.134495
vn 0.990914 -2.54118e-05 -0.134494
vn 0.969595 -2.84466e-05 -0.244715
vn 0.969595 -2.84485e-05 -0.244715
vn 0.935433 -3.11636e-05 -0.353505
vn 0.703024 -3.75304e-05 -0.711166
vn 0.703024 -3.74799e-05 -0.711166
vn -0.346328 3.70774e-05 0.938113
vn -0.346328 3.70966e-05 0.938113
vn -0.238075 3.58346e-05 0.971247
vn -0.126802 3.41132e-05 0.991928
vn -0.126802 3.40989e-05 0.991928
vn -0.0137174 3.19496e-05 0.999906
vn -0.0137173 3.19511e-05 0.999906
vn 0.0987986 2.93966e-05 0.995107
vn 0.0987989 2.94079e-05 0.995107
vn 0 1 0

# Mesh 'defaultobject' with 404 faces
g defaultobject
usemtl DefaultMaterial
f  1//1 2//1 3//1
f  2//1 1//1 4//2
f  2//1 4//2 5//3
f  5//3 4//2 6//4
f  5//3 6//4 7//5
f  7//5 6//4 8//6
f  7//5 8//6 9//7
f  9//7 8//6 10//8
f  9//7 10//8 11//9
f  11//9 10//8 12//10
f  12//10 10//8 13//11
f  13//11 10//8 14//12
f  14//12 10//8 15//13
f  15//13 10//8 16//14
f  16//14 10//8 17//15
f  16//14 17//15 18//16
f  18//16 17//15 19//17
f  18//16 19//17 20//18
f  20//18 19//17 21//19
f  20//18 21//19 22//20
f  22//20 21//19 23//21
f  22//20 23//21 24//22
f  24//22 23//21 25//23
f  24//22 25//23 26//24
f  26//24 25//23 27//25
f  26//24 27//25 28//26
f  28//26 27//25 29//27
f  28//26 29//27 30//28
f  30//28 29//27 31//29
f  30//28 31//29 32//30
f  32//30 31//29 33//31
f  32//30 33//31 34//32
f  34//32 33//31 35//33
f  34//32 35//33 36//34
f  36//34 35//33 37//35
f  36//34 37//35 38//36
f  38//36 37//35 39//37
f  38//36 39//37 40//38
f  40//38 39//37 41//39
f  40//38 41//39 42//40
f  42//40 41//39 43//41
f  42//40 43//41 44//42
f  44//42 43//41 45//43
f  44//42 45//43 46//44
f  46//44 45//43 47//45
f  46//44 47//45 48//46
f  48//46 47//45 49//47
f  48//46 49//47 50//47
f  51//48 52//48 53//48
f  52//48 51//48 54//48
f  55//48 56//48 57//48
f  56//48 55//48 58//48
f  56//48 58//48 59//48
f  59//48 58//48 60//48
f  59//48 60//48 61//48
f  61//48 60//48 62//48
f  61//48 62//48 63//48
f  63//48 62//48 64//48
f  63//48 64//48 65//48
f  65//48 64//48 66//48
f  66//48 64//48 67//48
f  67//48 64//48 68//48
f  68//48 64//48 69//48
f  69//48 64//48 70//48
f  70//48 64//48 71//48
f  70//48 71//48 72//48
f  72//48 71//48 73//48
f  72//48 73//48 74//48
f  74//48 73//48 75//48
f  74//48 75//48 76//48
f  76//48 75//48 77//48
f  76//48 77//48 78//48
f  78//48 77//48 79//48
f  78//48 79//48 80//48
f  80//48 79//48 81//48
f  80//48 81//48 82//48
f  82//48 81//48 83//48
f  82//48 83//48 84//48
f  84//48 83//48 85//48
f  84//48 85//48 86//48
f  86//48 85//48 87//48
f  86//48 87//48 88//48
f  88//48 87//48 89//48
f  88//48 89//48 90//48
f  90//48 89//48 91//48
f  90//48 91//48 92//48
f  92//48 91//48 93//48
f  92//48 93//48 94//48
f  94//48 93//48 95//48
f  94//48 95//48 96//48
f  96//48 95//48 97//48
f  96//48 97//48 98//48
f  98//48 97//48 99//48
f  98//48 99//48 100//48
f  100//48 99//48 101//48
f  100//48 101//48 102//48
f  102//48 101//48 103//48
f  102//48 103//48 104//48
f  5//49 105//49 2//49
f  105//49 5//49 106//50
f  7//51 106//51 5//51
f  106//51 7//51 107//51
f  9//52 107//52 7//52
f  107//52 9//52 108//52
f  11//53 108//53 9//53
f  108//53 11//53 109//54
f  12//55 109//55 11//55
f  109//55 12//55 110//56
f  13//57 110//57 12//57
f  110//57 13//57 111//58
f  14//59 111//59 13//59
f  111//59 14//59 112//60
f  15//61 112//61 14//61
f  112//61 15//61 113//61
f  16//62 113//62 15//62
f  113//62 16//62 114//63
f  18//64 114//64 16//64
f  114//64 18//64 115//65
f  20//66 115//66 18//66
f  115//66 20//66 116//67
f  22//68 116//68 20//68
f  116//68 22//68 117//69
f  24//70 117//70 22//70
f  117//70 24//70 118//71
f  26//72 118//72 24//72
f  118//72 26//72 119//73
f  28//74 119//74 26//74
f  119//74 28//74 120//75
f  30//76 120//76 28//76
f  120//76 30//76 121//76
f  32//77 121//77 30//77
f  121//77 32//77 122//78
f  34//79 122//79 32//79
f  122//79 34//79 123//80
f  36//81 123//81 34//81
f  123//81 36//81 124//82
f  38//83 124//83 36//83
f  124//83 38//83 125//83
f  40//84 125//84 38//84
f  125//84 40//84 126//85
f  127//86 40//86 42//86
f  40//86 127//86 126//87
f  128//88 42//88 44//88
f  42//88 128//88 127//89
f  129//90 44//90 46//90
f  44//90 129//90 128//91
f  130//92 46//92 48//92
f  46//92 130//92 129//92
f  131//93 48//93 50//93
f  48//93 131//93 130//93
f  132//94 50//94 49//94
f  50//94 132//94 131//95
f  133//96 49//96 47//96
f  49//96 133//96 132//97
f  134//98 47//98 45//98
f  47//98 134//98 133//99
f  135//100 45//100 43//100
f  45//100 135//100 134//101
f  136//102 43//102 41//102
f  43//102 136//102 135//103
f  137//104 41//104 39//104
f  41//104 137//104 136//105
f  138//106 39//106 37//106
f  39//106 138//106 137//106
f  139//107 37//107 35//107
f  37//107 139//107 138//108
f  140//109 35//109 33//109
f  35//109 140//109 139//109
f  141//110 33//110 31//110
f  33//110 141//110 140//111
f  142//112 31//112 29//112
f  31//112 142//112 141//113
f  143//114 29//114 27//114
f  29//114 143//114 142//114
f  144//115 27//115 25//115
f  27//115 144//115 143//116
f  145//117 25//117 23//117
f  25//117 145//117 144//117
f  146//118 23//118 21//118
f  23//118 146//118 145//119
f  147//120 21//120 19//120
f  21//120 147//120 146//121
f  148//122 19//122 17//122
f  19//122 148//122 147//123
f  149//124 17//124 10//124
f  17//124 149//124 148//125
f  150//126 10//126 8//126
f  10//126 150//126 149//127
f  53//128 151//128 51//128
f  151//128 53//128 152//128
f  153//129 53//129 52//129
f  53//129 153//129 152//129
f  154//130 52//130 54//130
f  52//130 154//130 153//130
f  51//131 154//131 54//131
f  154//131 51//131 151//131
f  155//132 62//132 60//132
f  62//132 155//132 156//133
f  157//134 60//134 58//134
f  60//134 157//134 155//134
f  158//135 58//135 55//135
f  58//135 158//135 157//136
f  159//137 55//137 57//137
f  55//137 159//137 158//138
f  160//139 57//139 56//139
f  57//139 160//139 159//139
f  161//140 56//140 59//140
f  56//140 161//140 160//140
f  162//141 59//141 61//141
f  59//141 162//141 161//142
f  163//143 61//143 63//143
f  61//143 163//143 162//144
f  164//145 63//145 65//145
f  63//145 164//145 163//146
f  165//147 65//147 66//147
f  65//147 165//147 164//148
f  166//149 66//149 67//149
f  66//149 166//149 165//150
f  167//151 67//151 68//151
f  67//151 167//151 166//152
f  168//153 68//153 69//153
f  68//153 168//153 167//154
f  169//155 69//155 70//155
f  69//155 169//155 168//156
f  170//157 70//157 72//157
f  70//157 170//157 169//157
f  171//158 72//158 74//158
f  72//158 171//158 170//159
f  172//160 74//160 76//160
f  74//160 172//160 171//161
f  173//162 76//162 78//162
f  76//162 173//162 172//163
f  174//164 78//164 80//164
f  78//164 174//164 173//165
f  175//166 80//166 82//166
f  80//166 175//166 174//167
f  176//168 82//168 84//168
f  82//168 176//168 175//169
f  177//170 84//170 86//170
f  84//170 177//170 176//171
f  178//172 86//172 88//172
f  86//172 178//172 177//173
f  179//174 88//174 90//174
f  88//174 179//174 178//174
f  180//175 90//175 92//175
f  90//175 180//175 179//176
f  181//177 92//177 94//177
f  92//177 181//177 180//177
f  96//178 181//178 94//178
f  181//178 96//178 182//178
f  98//179 182//179 96//179
f  182//179 98//179 183//179
f  100//180 183//180 98//180
f  183//180 100//180 184//180
f  102//181 184//181 100//181
f  184//181 102//181 185//181
f  104//182 185//182 102//182
f  185//182 104//182 186//182
f  103//183 186//183 104//183
f  186//183 103//183 187//183
f  101//184 187//184 103//184
f  187//184 101//184 188//184
f  99//185 188//185 101//185
f  188//185 99//185 189//185
f  97//186 189//186 99//186
f  189//186 97//186 190//187
f  95//188 190//188 97//188
f  190//188 95//188 191//189
f  93//190 191//190 95//190
f  191//190 93//190 192//190
f  91//191 192//191 93//191
f  192//191 91//191 193//192
f  89//193 193//193 91//193
f  193//193 89//193 194//193
f  87//194 194//194 89//194
f  194//194 87//194 195//195
f  85//196 195//196 87//196
f  195//196 85//196 196//196
f  83//197 196//197 85//197
f  196//197 83//197 197//198
f  81//199 197//199 83//199
f  197//199 81//199 198//200
f  79//201 198//201 81//201
f  198//201 79//201 199//201
f  77//202 199//202 79//202
f  199//202 77//202 200//203
f  75//204 200//204 77//204
f  200//204 75//204 201//205
f  73//206 201//206 75//206
f  201//206 73//206 202//207
f  71//208 202//208 73//208
f  202//208 71//208 203//209
f  64//210 203//210 71//210
f  203//210 64//210 204//210
f  62//211 204//211 64//211
f  204//211 62//211 156//212
f  6//213 150//213 8//213
f  150//213 6//213 205//214
f  4//215 205//215 6//215
f  205//215 4//215 206//215
f  1//216 206//216 4//216
f  206//216 1//216 207//217
f  3//218 207//218 1//218
f  207//218 3//218 208//219
f  2//220 208//220 3//220
f  208//220 2//220 105//221
f  150//222 148//222 149//222
f  148//222 150//222 147//222
f  147//222 150//222 146//222
f  146//222 150//222 145//222
f  145//222 150//222 144//222
f  144//222 150//222 205//222
f  144//222 205//222 143//222
f  143//222 205//222 206//222
f  143//222 206//222 142//222
f  142//222 206//222 207//222
f  142//222 207//222 141//222
f  141//222 207//222 208//222
f  141//222 208//222 140//222
f  140//222 208//222 105//222
f  140//222 105//222 139//222
f  139//222 105//222 106//222
f  139//222 106//222 138//222
f  138//222 106//222 107//222
f  138//222 107//222 137//222
f  137//222 107//222 108//222
f  137//222 108//222 136//222
f  136//222 108//222 109//222
f  136//222 109//222 135//222
f  135//222 109//222 110//222
f  135//222 110//222 134//222
f  134//222 110//222 111//222
f  134//222 111//222 133//222
f  133//222 111//222 112//222
f  133//222 112//222 132//222
f  132//222 112//222 113//222
f  132//222 113//222 131//222
f  131//222 113//222 114//222
f  131//222 114//222 130//222
f  130//222 114//222 115//222
f  130//222 115//222 129//222
f  129//222 115//222 116//222
f  129//222 116//222 128//222
f  128//222 116//222 117//222
f  128//222 117//222 127//222
f  127//222 117//222 118//222
f  127//222 118//222 126//222
f  126//222 118//222 119//222
f  126//222 119//222 125//222
f  125//222 119//222 120//222
f  125//222 120//222 124//222
f  124//222 120//222 121//222
f  124//222 121//222 123//222
f  123//222 121//222 122//222
f  151//222 153//222 154//222
f  153//222 151//222 152//222
f  156//222 203//222 204//222
f  203//222 156//222 202//222
f  202//222 156//222 201//222
f  201//222 156//222 200//222
f  200//222 156//222 199//222
f  199//222 156//222 155//222
f  199//222 155//222 198//222
f  198//222 155//222 157//222
f  198//222 157//222 197//222
f  197//222 157//222 158//222
f  197//222 158//222 196//222
f  196//222 158//222 159//222
f  196//222 159//222 195//222
f  195//222 159//222 160//222
f  195//222 160//222 194//222
f  194//222 160//222 161//222
f  194//222 161//222 193//222
f  193//222 161//222 162//222
f  193//222 162//222 192//222
f  192//222 162//222 163//222
f  192//222 163//222 191//222
f  191//222 163//222 164//222
f  191//222 164//222 190//222
f  190//222 164//222 165//222
f  190//222 165//222 189//222
f  189//222 165//222 166//222
f  189//222 166//222 188//222
f  188//222 166//222 167//222
f  188//222 167//222 187//222
f  187//222 167//222 168//222
f  187//222 168//222 186//222
f  186//222 168//222 169//222
f  186//222 169//222 185//222
f  185//222 169//222 170//222
f  185//222 170//222 184//222
f  184//222 170//222 171//222
f  184//222 171//222 183//222
f  183//222 171//222 172//222
f  183//222 172//222 182//222
f  182//222 172//222 173//222
f  182//222 173//222 181//222
f  181//222 173//222 174//222
f  181//222 174//222 180//222
f  180//222 174//222 175//222
f  180//222 175//222 179//222
f  179//222 175//222 176//222
f  179//222 176//222 178//222
f  178//222 176//222 177//222

