# {"id":"BLDG_0003000b005c92a3","idOriginal":"BLDG_0003000b005c92a3","origin":[13.407690077424284,52.52852354233135],"elevation":36.9300003051758}
# Longitude: 13.407690077424284
# Latitude: 52.52852354233135
# Elevation: 36.9300003051758

# File produced by Open Asset Import Library (http://www.assimp.sf.net)
# (assimp v3.1.0)

mtllib BLDG_0003000b005c92a3.obj.mtl

# 19 vertex positions
v  9.12693 1.0977e-15 -17.9268
v  2.51767 6.90237e-16 -11.2724
v  4.26273 1.16866e-15 -19.0856
v  7.40162 6.24693e-16 -10.202
v  18.6161 -2.49836e-16 4.08014
v  21.2331 4.39069e-16 -7.17054
v  4.88395 -6.55447e-17 1.07043
v  0 0 0
v  2.51802 16.35 -11.2729
v  4.26308 16.35 -19.0861
v  9.12727 15.6997 -17.9273
v  7.40196 15.6997 -10.2025
v  21.2334 15.6997 -7.17103
v  18.6165 15.6997 4.07964
v  19.9249 16.35 -1.54572
v  4.88429 15.6997 1.06993
v  0.000335565 15.6997 -0.00049672
v  1.25919 16.35 -5.63673
v  6.14314 16.35 -4.56631

# 0 UV coordinates

# 28 vertex normals
vn -2.38066e-23 -1 -6.12323e-17
vn -1.07018e-23 -1 -6.12323e-17
vn 5.17917e-24 -1 -6.12323e-17
vn 0 -1 -6.12323e-17
vn 0 -1 -6.12323e-17
vn -0.975954 1.39723e-05 -0.217977
vn 0.231755 -3.57079e-05 -0.972774
vn 0.231755 -3.56827e-05 -0.972774
vn 0.975954 -1.39677e-05 0.217977
vn 0.975954 -1.3983e-05 0.217977
vn 0.973999 -1.36562e-05 0.226554
vn 0.973999 -1.14274e-05 0.226554
vn -0.21409 3.54837e-05 0.976814
vn -0.21409 3.54837e-05 0.976814
vn 0.21409 -3.54919e-05 -0.976814
vn -0.21409 3.54879e-05 0.976814
vn -0.975954 1.39635e-05 -0.217977
vn -0.975954 1.42219e-05 -0.217977
vn 0.125865 0.991649 0.0281117
vn 0.125865 0.991649 0.0281117
vn -0.023954 0.993721 0.109293
vn -0.023954 0.993721 0.109293
vn 0.0239542 0.993721 -0.109294
vn 0.0239542 0.993721 -0.109294
vn -0.023954 0.993721 0.109293
vn -0.023954 0.993721 0.109293
vn 0.125865 0.991649 0.0281117
vn 0.0239542 0.993721 -0.109294

# Mesh 'defaultobject' with 34 faces
g defaultobject
usemtl DefaultMaterial
f  1//1 2//1 3//1
f  2//1 1//1 4//2
f  5//3 4//2 6//3
f  4//2 5//3 7//4
f  2//1 7//4 8//5
f  7//4 2//1 4//2
f  9//6 3//6 2//6
f  3//6 9//6 10//6
f  10//7 1//7 3//7
f  1//7 10//7 11//8
f  1//9 12//9 4//9
f  12//9 1//9 11//10
f  13//11 5//11 6//11
f  5//11 13//11 14//11
f  14//11 13//11 15//12
f  5//13 16//13 7//13
f  16//13 5//13 14//14
f  12//15 6//15 4//15
f  6//15 12//15 13//15
f  7//13 17//16 8//16
f  17//16 7//13 16//13
f  17//17 2//6 8//17
f  2//6 17//17 9//6
f  9//6 17//17 18//18
f  12//19 10//19 9//19
f  10//19 12//19 11//20
f  19//21 14//21 15//21
f  14//21 19//21 16//22
f  12//23 15//23 13//23
f  15//23 12//23 19//24
f  18//25 16//22 19//21
f  16//22 18//25 17//26
f  18//27 12//19 9//19
f  18//28 19//24 12//23

