# {"id":"BLDG_000300090031ee12","idOriginal":"BLDG_000300090031ee12","origin":[13.355755349491728,52.55980244401639],"elevation":40.2900009155273}
# Longitude: 13.355755349491728
# Latitude: 52.55980244401639
# Elevation: 40.2900009155273

# File produced by Open Asset Import Library (http://www.assimp.sf.net)
# (assimp v3.1.0)

mtllib BLDG_000300090031ee12.obj.mtl

# 17 vertex positions
v  18.4128 13.9608 -5.01267
v  16.9275 15.3365 0.961159
v  19.8214 15.3365 0.173375
v  1.40893 15.3365 5.1856
v  15.5188 13.9608 -4.22488
v  0.000297435 13.9608 -0.00044265
v  18.336 13.9608 6.14729
v  21.23 13.9608 5.35951
v  2.81751 13.9608 10.3717
v  19.8211 -1.0646e-17 0.173862
v  18.4125 3.0691e-16 -5.01222
v  21.2297 -3.28202e-16 5.35995
v  1.4086 -3.17556e-16 5.18609
v  2.81721 -6.35112e-16 10.3722
v  0 0 0
v  15.5185 2.58672e-16 -4.22444
v  18.3357 -3.7644e-16 6.14773

# 0 UV coordinates

# 29 vertex normals
vn -0.0651384 0.968762 -0.239287
vn -0.0651385 0.968762 -0.239287
vn -0.0651385 0.968762 -0.239287
vn -0.0651385 0.968762 -0.239287
vn 0.0651377 0.968762 0.239284
vn 0.0651377 0.968762 0.239284
vn 0.0651377 0.968762 0.239284
vn 0.0651377 0.968762 0.239284
vn 0.965037 -2.8744e-05 -0.262116
vn 0.965037 -2.87341e-05 -0.262116
vn 0.965036 -2.88848e-05 -0.262116
vn 0.965036 -2.90248e-05 -0.262116
vn -0.965036 2.88938e-05 0.262116
vn -0.965036 2.8893e-05 0.262116
vn -0.965036 2.88709e-05 0.262116
vn -0.965036 2.88313e-05 0.262116
vn -0.262661 -2.50211e-05 -0.964888
vn -0.262661 -2.50083e-05 -0.964888
vn -0.262661 -2.49626e-05 -0.964888
vn -0.262661 -2.49973e-05 -0.964888
vn 0.262661 2.50182e-05 0.964888
vn 0.262661 2.49828e-05 0.964888
vn 0.262661 2.50511e-05 0.964888
vn 6.56906e-24 -1 -6.12323e-17
vn -1.22501e-24 -1 -6.12323e-17
vn 0 -1 -6.12323e-17
vn 6.13032e-25 -1 -6.12323e-17
vn 7.18492e-25 -1 -6.12323e-17
vn 3.06253e-25 -1 -6.12323e-17

# Mesh 'defaultobject' with 30 faces
g defaultobject
usemtl DefaultMaterial
f  1//1 2//1 3//1
f  2//1 1//1 4//2
f  4//2 1//1 5//3
f  4//2 5//3 6//4
f  3//5 7//5 8//5
f  7//5 3//5 9//6
f  9//6 3//5 2//7
f  9//6 2//7 4//8
f  1//9 10//9 11//9
f  10//9 1//9 12//10
f  12//10 1//9 8//11
f  8//11 1//9 3//12
f  9//13 13//13 14//13
f  13//13 9//13 15//14
f  15//14 9//13 6//15
f  6//15 9//13 4//16
f  11//17 5//17 1//17
f  5//17 11//17 6//18
f  6//18 11//17 16//19
f  6//18 16//19 15//20
f  8//21 17//21 12//21
f  17//21 8//21 14//22
f  14//22 8//21 9//23
f  9//13 8//5 7//5
f  10//24 16//24 11//24
f  16//24 10//24 15//25
f  15//25 10//24 13//26
f  13//26 10//24 12//27
f  13//26 12//27 17//28
f  13//26 17//28 14//29

