# {"id":"BLDG_0003000e006e2622","idOriginal":"BLDG_0003000e006e2622","origin":[13.384865534780104,52.51898412603039],"elevation":33.4900016784668}
# Longitude: 13.384865534780104
# Latitude: 52.51898412603039
# Elevation: 33.4900016784668

# File produced by Open Asset Import Library (http://www.assimp.sf.net)
# (assimp v3.1.0)

mtllib BLDG_0003000e006e2622.obj.mtl

# 24 vertex positions
v  26.1201 1.3891e-16 -2.26857
v  27.6238 22.51 15.0511
v  27.6233 -9.21655e-16 15.0518
v  26.1206 22.51 -2.26928
v  9.27923 5.01 11.3491
v  1.04861 22.51 12.0629
v  1.04799 5.01 12.0635
v  9.27961 22.51 11.3486
v  8.49349 5.01 2.29555
v  0.262863 22.51 3.00934
v  8.49386 22.51 2.295
v  0.261576 5.01 3.00998
v  9.73567 22.51 16.6035
v  9.73568 5.01 16.6084
v  8.23219 5.01 -0.715214
v  8.23247 22.51 -0.716816
v  11.4248 22.51 16.4569
v  11.4243 -1.00774e-15 16.4576
v  1.50488 5.01 17.3234
v  1.50477 -1.06076e-15 17.3235
v  0.000106926 5.01 -0.00015842
v  9.92112 5.28251e-17 -0.862699
v  0 0 0
v  9.9216 22.51 -0.863411

# 0 UV coordinates

# 32 vertex normals
vn 0.996255 -2.40035e-05 -0.0864631
vn 0.0864625 2.96943e-05 0.996255
vn 0.0864624 2.96424e-05 0.996255
vn -0.0864623 -2.96421e-05 -0.996255
vn -0.0864624 -2.96647e-05 -0.996255
vn -0.996255 2.40152e-05 0.0864629
vn -0.996255 2.39641e-05 0.0864631
vn -0.996255 2.39827e-05 0.0864631
vn -0.996255 2.40152e-05 0.0864629
vn 0.0864624 2.96413e-05 0.996255
vn 0.0864633 3.03355e-05 0.996255
vn 0.0867735 0.000278637 0.996228
vn 0.0864624 -0.000840047 0.996255
vn 0.0865363 -0.000814973 0.996248
vn 0.0869597 2.96315e-05 0.996212
vn -0.0866289 -2.9653e-05 -0.996241
vn -0.0864624 0.000302591 -0.996255
vn -0.0865362 -8.54201e-05 -0.996249
vn -0.0865375 -8.97712e-05 -0.996249
vn -0.0864623 -2.95858e-05 -0.996255
vn -0.0864624 -2.96515e-05 -0.996255
vn -0.996249 2.39988e-05 0.0865369
vn -0.996249 2.39903e-05 0.086537
vn -0.996249 2.39629e-05 0.0865369
vn -0.996249 3.78871e-05 0.0865369
vn -0.996249 2.39941e-05 0.086537
vn -0.996255 7.63799e-05 0.0864631
vn -9.78412e-24 -1 -6.12323e-17
vn 4.49501e-24 -1 -6.12323e-17
vn 0 -1 -6.12323e-17
vn 0 -1 -6.12219e-17
vn 0 1 0

# Mesh 'defaultobject' with 44 faces
g defaultobject
usemtl DefaultMaterial
f  1//1 2//1 3//1
f  2//1 1//1 4//1
f  5//2 6//2 7//2
f  6//2 5//2 8//3
f  9//4 10//4 11//4
f  10//4 9//4 12//5
f  5//6 13//6 8//6
f  13//6 5//6 14//7
f  15//8 11//8 16//8
f  11//8 15//8 9//9
f  17//10 3//10 2//10
f  3//10 17//10 13//11
f  3//12 13//12 14//12
f  3//13 14//13 18//13
f  18//14 14//14 19//14
f  18//15 19//15 20//15
f  21//16 22//16 23//16
f  22//17 21//17 1//17
f  1//18 21//18 15//18
f  1//18 15//18 16//19
f  1//20 16//20 24//20
f  1//20 24//20 4//21
f  23//22 12//22 21//22
f  12//22 23//22 20//23
f  12//22 20//23 7//24
f  12//25 7//25 6//25
f  7//24 20//23 19//26
f  6//27 10//27 12//27
f  23//28 18//28 20//28
f  18//28 23//28 3//29
f  3//29 23//28 1//30
f  1//30 23//28 22//31
f  6//32 11//32 10//32
f  11//32 24//32 16//32
f  24//32 11//32 4//32
f  4//32 11//32 6//32
f  4//32 6//32 8//32
f  4//32 8//32 2//32
f  2//32 8//32 17//32
f  17//32 8//32 13//32
f  14//32 7//32 19//32
f  7//32 14//32 5//32
f  15//32 12//32 9//32
f  12//32 15//32 21//32

