# {"id":"BLDG_00030009007acce1","idOriginal":"BLDG_00030009007acce1","origin":[13.328799649765639,52.52373787374715],"elevation":33.439998626709}
# Longitude: 13.328799649765639
# Latitude: 52.52373787374715
# Elevation: 33.439998626709

# File produced by Open Asset Import Library (http://www.assimp.sf.net)
# (assimp v3.1.0)

mtllib BLDG_00030009007acce1.obj.mtl

# 12 vertex positions
v  18.3808 20.65 -5.90506
v  15.6895 -4.13101e-18 0.0674646
v  18.3804 3.61541e-16 -5.90441
v  12.9986 -3.69803e-16 6.03934
v  12.999 20.65 6.03868
v  15.69 24.57 0.0666874
v  0.00043915 20.65 -0.00065319
v  2.69089 3.65672e-16 -5.97187
v  0 0 0
v  5.38177 7.31343e-16 -11.9437
v  5.38221 20.65 -11.9444
v  2.69141 24.57 -5.97265

# 0 UV coordinates

# 19 vertex normals
vn 0.911719 -6.38192e-06 0.410814
vn 0.911719 -6.43021e-06 0.410814
vn 0.911719 -6.41454e-06 0.410814
vn 0.911719 -6.31413e-06 0.410814
vn -0.911719 6.39427e-06 -0.410814
vn -0.911719 6.41611e-06 -0.410814
vn -0.911719 6.39348e-06 -0.410814
vn -0.911719 6.38841e-06 -0.410814
vn -0.421357 3.76343e-05 0.906895
vn -0.421357 3.76601e-05 0.906895
vn 0.421357 -3.76509e-05 -0.906895
vn 0.421357 -3.76202e-05 -0.906895
vn -0.216384 0.858065 0.465729
vn -0.216384 0.858065 0.465729
vn 0.216392 0.858054 -0.465744
vn 0 -1 -6.12323e-17
vn -9.02279e-24 -1 -6.12323e-17
vn 4.51139e-24 -1 -6.12323e-17
vn 0 -1 -5.55112e-17

# Mesh 'defaultobject' with 20 faces
g defaultobject
usemtl DefaultMaterial
f  1//1 2//1 3//1
f  2//1 1//1 4//2
f  4//2 1//1 5//3
f  5//3 1//1 6//4
f  7//5 8//5 9//5
f  8//5 7//5 10//6
f  10//6 7//5 11//7
f  11//7 7//5 12//8
f  4//9 7//9 9//9
f  7//9 4//9 5//10
f  11//11 3//11 10//11
f  3//11 11//11 1//12
f  7//13 6//13 12//13
f  6//13 7//13 5//14
f  12//15 1//15 11//15
f  1//15 12//15 6//15
f  2//16 10//16 3//16
f  10//16 2//16 4//17
f  10//16 4//17 9//18
f  10//16 9//18 8//19

