# {"id":"BLDG_00030006000ec13e","idOriginal":"BLDG_00030006000ec13e","origin":[13.390004638031833,52.52628725102013],"elevation":34.439998626709}
# Longitude: 13.390004638031833
# Latitude: 52.52628725102013
# Elevation: 34.439998626709

# File produced by Open Asset Import Library (http://www.assimp.sf.net)
# (assimp v3.1.0)

mtllib BLDG_00030006000ec13e.obj.mtl

# 58 vertex positions
v  18.5087 21.5594 -14.8517
v  9.54538 22.3298 -16.1503
v  10.6626 22.3298 -12.3078
v  17.3915 21.5594 -18.6941
v  10.6626 21.7755 -12.3078
v  20.8042 22.3619 -6.95648
v  18.5087 22.3619 -14.8517
v  12.9791 21.7755 -4.34013
v  22.7324 22.3619 -0.324642
v  14.9074 22.3619 2.29169
v  7.33533 21.5594 -23.7514
v  1.31531 22.3298 -25.3219
v  2.63269 21.5594 -21.7692
v  6.27136 22.3298 -27.4109
v  8.01725 22.3298 -13.5525
v  5.23459 21.5594 -14.7526
v  6.62643 21.5594 -10.9992
v  9.54537 21.5594 -16.1502
v  10.6626 21.5594 -12.3078
v  9.52411 21.7755 -3.18494
v  11.9248 22.3619 3.28893
v  4.47497 22.3619 2.14151
v  0.000464903 21.7755 -0.00068886
v  2.4011 21.7755 6.47319
v  10.7244 22.3619 0.0519853
v  11.9248 21.7755 3.28894
v  14.9838 21.5594 -26.9753
v  11.7588 22.5545 -29.724
v  12.8228 22.5545 -26.0645
v  13.9198 21.5594 -30.6348
v  7.65212 21.9826 -27.9929
v  8.71611 21.9826 -24.3335
v  10.9707 21.9826 -16.6124
v  15.1608 22.5545 -17.9709
v  13.9193 1.8758e-15 -30.6341
v  6.27088 1.67839e-15 -27.4102
v  14.9833 1.65172e-15 -26.9746
v  11.8536 22.1031 -16.8986
v  7.33487 1.45431e-15 -23.7508
v  9.5449 9.88876e-16 -16.1496
v  17.3911 1.14464e-15 -18.6935
v  11.4951 22.1383 -16.7824
v  18.5082 9.09361e-16 -14.851
v  13.8678 22.015 -13.347
v  20.8038 4.25919e-16 -6.95578
v  10.6621 7.53592e-16 -12.3071
v  12.9787 2.65714e-16 -4.33945
v  22.732 1.98353e-17 -0.323934
v  14.9069 -1.40369e-16 2.2924
v  1.31483 1.55048e-15 -25.3212
v  2.63223 1.33294e-15 -21.7686
v  5.23413 9.03294e-16 -14.7519
v  6.62597 6.73464e-16 -10.9985
v  11.9243 -2.01432e-16 3.28963
v  11.1245 22.1664 1.13097
v  9.52365 1.94979e-16 -3.18425
v  0 0 0
v  2.40064 -3.96411e-16 6.47388

# 0 UV coordinates

# 84 vertex normals
vn 0.0893409 0.995662 -0.0259758
vn 0.0893409 0.995662 -0.0259757
vn -0.0681213 0.99748 0.0198062
vn -0.0681213 0.99748 0.0198062
vn -0.0681213 0.99748 0.0198062
vn -0.0268458 0.99641 -0.0802922
vn 0.077461 0.979912 0.183771
vn 0.077461 0.979912 0.183771
vn -0.310917 0.943418 0.115294
vn -0.11087 0.933153 -0.341955
vn 0.318313 0.943457 -0.0925492
vn 0.110868 0.933155 0.34195
vn -0.0268458 0.99641 -0.0802922
vn -0.157078 0.985867 0.0582474
vn -0.0531237 0.985867 -0.158886
vn -0.0531237 0.985867 -0.158886
vn 0.0531233 0.985867 0.158884
vn 0.0531233 0.985867 0.158884
vn 0.377262 0.919588 -0.109688
vn 0.377262 0.919588 -0.109688
vn -0.123039 0.991757 0.0357735
vn -0.123039 0.991757 0.0357735
vn -0.262651 0.961864 0.0763653
vn 0.288028 0.950526 0.116363
vn -0.262529 0.961874 0.0766615
vn -0.261131 0.962313 0.0759234
vn -0.123126 0.991754 0.0355666
vn -0.123653 0.991668 0.0361081
vn 0.377262 0.919588 -0.109688
vn 0.375471 0.920466 -0.10846
vn -0.388415 -2.08286e-05 -0.921485
vn -0.388416 -2.12704e-05 -0.921484
vn -0.388415 -2.08762e-05 -0.921485
vn -0.388415 -2.04724e-05 -0.921485
vn 0.960237 -2.93572e-05 -0.279187
vn 0.308417 2.42721e-05 0.951251
vn -0.960237 2.93583e-05 0.279187
vn -0.960237 2.93124e-05 0.279188
vn 0.960237 -2.93185e-05 -0.279188
vn -0.960237 2.91931e-05 0.279188
vn -0.960237 2.85019e-05 0.279188
vn 0.308417 2.02285e-05 0.951251
vn 0.308417 2.17708e-05 0.951251
vn 0.960237 -2.9305e-05 -0.279188
vn -0.308417 -2.46389e-05 -0.951251
vn 0.960237 -2.93163e-05 -0.279187
vn -0.960237 2.93566e-05 0.279187
vn -0.960237 2.93505e-05 0.279187
vn 0.308417 2.3993e-05 0.951251
vn 0.960237 -2.93065e-05 -0.279188
vn 0.317097 2.32287e-05 0.948393
vn 0.317097 2.3239e-05 0.948393
vn -0.388415 -2.09094e-05 -0.921485
vn 0.388415 2.08895e-05 0.921485
vn 0.388414 2.08115e-05 0.921485
vn -0.937612 3.10236e-05 0.347684
vn -0.937612 3.10351e-05 0.347684
vn -0.937612 3.1029e-05 0.347684
vn -0.937612 3.10082e-05 0.347684
vn -0.308417 -2.35034e-05 -0.951251
vn -0.308417 -2.35387e-05 -0.951251
vn 0.308417 2.3499e-05 0.951251
vn 0.317097 2.32399e-05 0.948393
vn 0.937612 -3.08518e-05 -0.347685
vn -0.317097 -2.32323e-05 -0.948393
vn -0.937612 3.10124e-05 0.347684
vn -0.937612 3.10167e-05 0.347684
vn -0.317097 -2.32321e-05 -0.948393
vn 0.937612 -3.29487e-05 -0.347684
vn 0.317097 2.32109e-05 0.948393
vn 0.317097 2.32371e-05 0.948393
vn 8.42464e-25 -1 -6.12324e-17
vn -6.31848e-25 -1 -6.12323e-17
vn 3.24473e-24 -1 -6.12323e-17
vn -1.60469e-24 -1 -6.12324e-17
vn 3.1239e-24 -1 -6.12323e-17
vn 3.0955e-24 -1 -6.12323e-17
vn 1.8595e-24 -1 -6.12323e-17
vn 0 -1 -6.12323e-17
vn -7.80082e-24 -1 -6.12323e-17
vn -1.09616e-23 -1 -6.12323e-17
vn 4.38109e-24 -1 -6.12324e-17
vn -2.10573e-24 -1 -6.12323e-17
vn -3.05571e-24 -1 -6.12323e-17

# Mesh 'defaultobject' with 100 faces
g defaultobject
usemtl DefaultMaterial
f  1//1 2//1 3//1
f  2//1 1//1 4//2
f  5//3 6//3 7//3
f  6//3 5//3 8//4
f  6//3 8//4 9//5
f  9//6 8//6 10//6
f  11//7 12//7 13//7
f  12//7 11//7 14//8
f  15//9 16//9 17//9
f  18//10 16//10 15//10
f  15//11 19//11 18//11
f  15//12 17//12 19//12
f  20//13 10//6 8//6
f  10//6 20//13 21//6
f  22//14 23//14 24//14
f  20//15 22//15 25//15
f  22//15 20//15 23//16
f  25//17 24//17 26//17
f  24//17 25//17 22//18
f  27//19 28//19 29//19
f  28//19 27//19 30//20
f  29//21 31//21 32//21
f  31//21 29//21 28//22
f  31//23 11//23 32//23
f  31//24 14//24 11//24
f  11//25 33//25 32//25
f  33//26 11//26 18//26
f  32//27 34//27 29//27
f  34//28 32//28 33//28
f  29//19 4//29 27//19
f  4//30 29//30 34//30
f  14//31 35//31 36//31
f  35//31 14//31 31//32
f  31//32 30//33 35//31
f  30//33 31//32 28//34
f  35//35 27//35 37//35
f  27//35 35//35 30//35
f  38//36 4//36 34//36
f  18//37 39//37 40//37
f  39//37 18//37 11//38
f  37//35 4//39 41//39
f  4//39 37//35 27//35
f  3//40 18//37 19//40
f  18//37 3//40 2//41
f  42//42 33//42 38//36
f  18//43 42//42 2//43
f  41//39 1//44 43//44
f  1//44 41//39 4//39
f  44//45 5//45 3//45
f  43//44 6//46 45//46
f  6//46 43//44 7//46
f  8//47 46//47 47//47
f  46//47 8//47 5//48
f  44//49 1//49 7//49
f  45//46 9//50 48//50
f  9//50 45//46 6//46
f  48//51 10//51 49//51
f  10//51 48//51 9//52
f  12//53 36//31 50//53
f  36//31 12//53 14//31
f  39//54 13//54 51//54
f  13//54 39//54 11//55
f  13//56 50//56 51//56
f  50//56 13//56 12//57
f  17//58 52//58 53//58
f  52//58 17//58 16//59
f  16//60 40//60 52//60
f  40//60 16//60 18//61
f  46//62 17//62 53//62
f  17//62 46//62 19//62
f  49//51 21//63 54//63
f  21//63 49//51 10//51
f  26//64 55//64 21//64
f  20//65 47//65 56//65
f  47//65 20//65 8//65
f  24//66 57//66 58//66
f  57//66 24//66 23//67
f  23//68 56//65 57//68
f  56//65 23//68 20//65
f  55//64 20//69 25//69
f  54//63 24//70 58//70
f  24//70 54//63 26//71
f  37//72 36//72 35//72
f  36//72 37//72 39//73
f  39//73 41//74 40//74
f  41//74 39//73 37//72
f  40//74 43//75 46//75
f  43//75 40//74 41//74
f  45//76 46//75 43//75
f  46//75 45//76 47//77
f  48//78 47//77 45//76
f  47//77 48//78 49//79
f  39//73 50//80 36//72
f  50//80 39//73 51//81
f  40//74 53//82 52//82
f  53//82 40//74 46//75
f  54//79 47//77 49//79
f  47//77 54//79 56//83
f  56//83 58//84 57//84
f  58//84 56//83 54//79

