# {"id":"BLDG_0003000000188665","idOriginal":"BLDG_0003000000188665","origin":[13.394902456301827,52.52761804590007],"elevation":35.5400009155273}
# Longitude: 13.394902456301827
# Latitude: 52.52761804590007
# Elevation: 35.5400009155273

# File produced by Open Asset Import Library (http://www.assimp.sf.net)
# (assimp v3.1.0)

mtllib BLDG_0003000000188665.obj.mtl

# 20 vertex positions
v  12.8197 14.0396 -3.55023
v  6.42741 -3.13749e-16 5.12392
v  12.8194 2.17362e-16 -3.54979
v  6.42771 14.0396 5.12347
v  9.62378 18.1315 0.78649
v  4.12959 -2.01583e-16 3.29211
v  4.12989 14.0396 3.29166
v  7.55454 17.8389 -1.35549
v  7.49874 17.8019 -1.27977
v  10.5219 14.0396 -5.38204
v  7.32597 18.1315 -1.04532
v  6.60793 17.2122 -0.0709708
v  10.5216 3.29528e-16 -5.3816
v  5.42308 16.4279 1.53685
v  0 0 0
v  0.000299837 14.0396 -0.00044417
v  6.70109 5.16022e-16 -8.42727
v  6.70139 14.0396 -8.42772
v  1.357 16.4279 -1.70663
v  3.52979 17.8019 -4.43913

# 0 UV coordinates

# 29 vertex normals
vn 0.80502 1.5882e-06 0.593248
vn 0.80502 1.58101e-06 0.593248
vn 0.80502 1.60068e-06 0.593248
vn -0.623358 3.80685e-05 0.781936
vn -0.623358 3.80552e-05 0.781936
vn 0.80502 1.53933e-06 0.593248
vn 0.80502 2.01931e-06 0.593248
vn 0.623358 -3.80134e-05 -0.781936
vn 0.80502 1.55819e-06 0.593248
vn -0.623358 3.80552e-05 0.781936
vn -0.623358 3.80509e-05 0.781936
vn -0.78271 -2.97442e-06 -0.622386
vn -0.782711 -2.97994e-06 -0.622386
vn -0.78271 -3.11535e-06 -0.622386
vn -0.782711 -2.93633e-06 -0.622386
vn 0.623358 -3.8024e-05 -0.781936
vn 0.623358 -3.80657e-05 -0.781936
vn -0.37721 0.79613 0.473169
vn 0.377224 0.796114 -0.473187
vn -0.460589 0.674139 0.577403
vn -0.460565 0.673875 0.57773
vn -0.228095 0.930519 0.286545
vn -0.228094 0.930704 0.285943
vn 0.370253 0.804491 -0.464443
vn 0.370083 0.804294 -0.464918
vn 1.67322e-24 -1 -6.12323e-17
vn -1.67322e-24 -1 -6.12323e-17
vn 0 -1 -6.12323e-17
vn -6.0381e-24 -1 -6.12323e-17

# Mesh 'defaultobject' with 32 faces
g defaultobject
usemtl DefaultMaterial
f  1//1 2//1 3//1
f  2//1 1//1 4//2
f  4//2 1//1 5//3
f  4//4 6//4 2//4
f  6//4 4//4 7//5
f  8//6 9//6 10//6
f  11//7 12//7 8//6
f  13//8 1//8 3//8
f  1//8 13//8 10//8
f  7//9 12//7 14//9
f  7//5 15//10 6//4
f  15//10 7//5 16//11
f  16//12 17//12 15//12
f  17//12 16//12 18//13
f  18//13 16//12 19//14
f  18//13 19//14 20//15
f  17//16 10//8 13//8
f  10//8 17//16 18//17
f  7//18 5//18 11//18
f  5//18 7//18 4//18
f  11//19 1//19 10//19
f  1//19 11//19 5//19
f  16//20 14//20 19//20
f  14//21 16//21 7//21
f  19//22 9//22 20//22
f  9//23 19//23 14//23
f  20//24 10//24 18//24
f  10//25 20//25 9//25
f  6//26 3//26 2//26
f  3//26 6//26 13//27
f  15//28 13//27 6//26
f  13//27 15//28 17//29

