# {"id":"BLDG_00030008001bb8db","idOriginal":"BLDG_00030008001bb8db","origin":[13.39886118243833,52.53212461177843],"elevation":35.9900016784668}
# Longitude: 13.39886118243833
# Latitude: 52.53212461177843
# Elevation: 35.9900016784668

# File produced by Open Asset Import Library (http://www.assimp.sf.net)
# (assimp v3.1.0)

mtllib BLDG_00030008001bb8db.obj.mtl

# 10 vertex positions
v  15.0828 19.1941 5.01242
v  4.80679 -5.9368e-16 9.69553
v  15.0824 -3.06959e-16 5.01303
v  4.8072 19.1941 9.69492
v  9.94509 23.0876 7.35355
v  0 0 0
v  0.000410028 19.1941 -0.00060742
v  10.2756 2.86721e-16 -4.6825
v  10.276 19.1941 -4.68311
v  5.13829 23.0876 -2.34198

# 0 UV coordinates

# 14 vertex normals
vn 0.414667 1.99412e-05 0.909973
vn 0.414667 1.99122e-05 0.909973
vn -0.895937 3.31999e-05 0.444182
vn -0.895937 3.31959e-05 0.444182
vn -0.414667 -1.9939e-05 -0.909973
vn -0.414667 -1.99412e-05 -0.909973
vn -0.414667 -1.99556e-05 -0.909973
vn 0.895937 -3.32045e-05 -0.444182
vn 3.4676e-24 -1 -6.12323e-17
vn 0 -1 -6.12323e-17
vn -0.508801 0.823099 0.25225
vn -0.5088 0.823099 0.25225
vn 0.508816 0.823087 -0.252258
vn 0.508816 0.823087 -0.252258

# Mesh 'defaultobject' with 16 faces
g defaultobject
usemtl DefaultMaterial
f  1//1 2//1 3//1
f  2//1 1//1 4//1
f  4//1 1//1 5//2
f  4//3 6//3 2//3
f  6//3 4//3 7//4
f  7//5 8//5 6//5
f  8//5 7//5 9//6
f  9//6 7//5 10//7
f  8//8 1//8 3//8
f  1//8 8//8 9//8
f  2//9 8//9 3//9
f  8//9 2//9 6//10
f  10//11 4//11 5//11
f  4//11 10//11 7//12
f  9//13 5//13 1//13
f  5//13 9//13 10//14

