# {"id":"BLDG_0003000b0049853e","idOriginal":"BLDG_0003000b0049853e","origin":[13.342882412704848,52.52473689695424],"elevation":32.7099990844727}
# Longitude: 13.342882412704848
# Latitude: 52.52473689695424
# Elevation: 32.7099990844727

# File produced by Open Asset Import Library (http://www.assimp.sf.net)
# (assimp v3.1.0)

mtllib BLDG_0003000b0049853e.obj.mtl

# 12 vertex positions
v  11.6361 16.3046 2.69267
v  5.81785 -8.24552e-17 1.34659
v  11.6357 -1.6491e-16 2.69319
v  0 0 0
v  0.000347053 16.3046 -0.00051576
v  5.81826 19.179 1.34599
v  4.03871 16.3046 -16.3147
v  9.85622 9.16499e-16 -14.9676
v  4.03836 9.98955e-16 -16.3142
v  15.6741 8.34044e-16 -13.621
v  15.6744 16.3046 -13.6215
v  9.85663 19.179 -14.9682

# 0 UV coordinates

# 19 vertex normals
vn -0.225498 3.56022e-05 0.974244
vn -0.225498 3.5604e-05 0.974244
vn -0.225498 3.56179e-05 0.974244
vn -0.225498 3.56132e-05 0.974244
vn 0.225498 -3.55727e-05 -0.974244
vn 0.225498 -3.56138e-05 -0.974244
vn 0.225498 -3.56297e-05 -0.974244
vn 0.225498 -3.55299e-05 -0.974244
vn -0.970702 1.30611e-05 -0.240285
vn -0.970702 1.30775e-05 -0.240285
vn 0.970702 -1.30022e-05 0.240285
vn 0.970702 -1.30579e-05 0.240285
vn 0 -1 -6.12323e-17
vn 8.44066e-24 -1 -6.12323e-17
vn 6.3305e-24 -1 -6.12323e-17
vn 6.3305e-24 -1 -6.12323e-17
vn -0.421047 0.901031 -0.104225
vn 0.421051 0.901029 0.104226
vn 0.421051 0.901029 0.104226

# Mesh 'defaultobject' with 20 faces
g defaultobject
usemtl DefaultMaterial
f  1//1 2//1 3//1
f  2//1 1//1 4//2
f  4//2 1//1 5//3
f  5//3 1//1 6//4
f  7//5 8//5 9//5
f  8//5 7//5 10//6
f  10//6 7//5 11//7
f  11//7 7//5 12//8
f  5//9 9//9 4//9
f  9//9 5//9 7//10
f  10//11 1//11 3//11
f  1//11 10//11 11//12
f  2//13 10//13 3//13
f  10//13 2//13 4//14
f  10//13 4//14 8//15
f  8//15 4//14 9//16
f  7//17 6//17 12//17
f  6//17 7//17 5//17
f  12//18 1//18 11//18
f  1//18 12//18 6//19

