# {"id":"BLDG_00030009007af323","idOriginal":"BLDG_00030009007af323","origin":[13.395588460833963,52.51058714555125],"elevation":34.5}
# Longitude: 13.395588460833963
# Latitude: 52.51058714555125
# Elevation: 34.5

# File produced by Open Asset Import Library (http://www.assimp.sf.net)
# (assimp v3.1.0)

mtllib BLDG_00030009007af323.obj.mtl

# 30 vertex positions
v  2.39224 64.4173 38.0521
v  4.08454 64.4173 37.9253
v  8.38936 64.4173 9.05783
v  10.3308 64.4173 35.1494
v  10.39 64.4173 37.4535
v  0.00137572 64.4173 -0.00203566
v  22.6122 64.4173 -1.82273
v  15.5608 64.4173 8.86843
v  17.2619 64.4173 34.7494
v  25.7717 64.4173 36.3021
v  17.4335 64.4173 36.9265
v  18.5249 64.4173 36.8451
v  24.6892 64.4173 36.3835
v  15.5609 70.3174 8.86824
v  10.331 70.3174 35.1492
v  17.262 70.3174 34.7492
v  8.38949 70.3174 9.05764
v  15.5594 -5.43159e-16 8.87047
v  10.3295 -2.15241e-15 35.1515
v  8.38799 -5.54756e-16 9.05986
v  17.2605 -2.12791e-15 34.7514
v  4.08317 -2.32238e-15 37.9273
v  10.3886 -2.29349e-15 37.4556
v  2.39086 -2.33014e-15 38.0541
v  0 0 0
v  24.6878 -2.22797e-15 36.3855
v  22.6108 1.11485e-16 -1.82069
v  25.7703 -2.22299e-15 36.3042
v  18.5236 -2.25624e-15 36.8471
v  17.4321 -2.26122e-15 36.9286

# 0 UV coordinates

# 34 vertex normals
vn 0 1 0
vn -4.23559e-25 -1 -6.12323e-17
vn 3.11647e-23 -1 -6.12323e-17
vn -1.6366e-23 -1 -6.12323e-17
vn -7.01381e-23 -1 -6.12323e-17
vn -5.69364e-24 -1 -6.12323e-17
vn 1.32266e-22 -1 -6.12323e-17
vn 2.86557e-23 -1 -6.12323e-17
vn 0 -1 -6.12323e-17
vn 0.997847 -2.3403e-05 -0.0655871
vn 0.997847 -2.33863e-05 -0.0655871
vn -0.0264007 -3.10255e-05 -0.999651
vn -0.997243 2.36448e-05 0.0742052
vn -0.997243 2.36468e-05 0.0742052
vn 0.0576207 3.02898e-05 0.998339
vn 0.0576213 3.03435e-05 0.998338
vn -0.996909 2.37668e-05 0.0785671
vn 0.0744286 2.99461e-05 0.997226
vn 0.0746769 2.99403e-05 0.997208
vn 0.074922 2.99343e-05 0.997189
vn 0.996584 -2.38852e-05 -0.0825891
vn -0.0802634 -2.9785e-05 -0.996774
vn -0.0802634 -2.9785e-05 -0.996774
vn -0.998032 2.32965e-05 0.0627044
vn -0.998032 2.32959e-05 0.0627044
vn 0.074714 2.99387e-05 0.997205
vn 0.0747139 2.99382e-05 0.997205
vn 0.0746072 2.99407e-05 0.997213
vn 0.999671 -2.21678e-05 -0.0256681
vn 0.999671 -2.21662e-05 -0.0256681
vn 0.997243 -2.36455e-05 -0.0742052
vn 0.0264007 3.10181e-05 0.999651
vn -0.997847 2.33763e-05 0.0655871
vn -0.997847 2.33892e-05 0.0655871

# Mesh 'defaultobject' with 60 faces
g defaultobject
usemtl DefaultMaterial
f  1//1 2//1 3//1
f  4//1 3//1 2//1
f  5//1 4//1 2//1
f  1//1 3//1 6//1
f  7//1 6//1 3//1
f  8//1 7//1 3//1
f  9//1 7//1 8//1
f  10//1 7//1 9//1
f  11//1 10//1 9//1
f  12//1 10//1 11//1
f  13//1 10//1 12//1
f  14//1 15//1 16//1
f  15//1 14//1 17//1
f  18//2 19//2 20//2
f  19//2 18//2 21//3
f  22//4 19//2 23//4
f  19//2 22//4 20//2
f  20//2 22//4 24//5
f  20//2 24//5 25//6
f  26//7 27//7 28//7
f  27//7 26//7 29//8
f  27//7 29//8 30//9
f  27//7 30//9 21//3
f  27//7 21//3 18//2
f  27//7 18//2 25//6
f  25//6 18//2 20//2
f  18//10 16//10 21//10
f  16//10 18//10 14//11
f  17//12 18//12 20//12
f  18//12 17//12 14//12
f  15//13 20//13 19//13
f  20//13 15//13 17//14
f  21//15 15//15 19//15
f  15//15 21//15 16//16
f  11//17 21//17 30//17
f  21//17 11//17 9//17
f  29//18 11//18 30//18
f  11//18 29//18 12//18
f  26//19 12//19 29//19
f  12//19 26//19 13//19
f  28//20 13//20 26//20
f  13//20 28//20 10//20
f  27//21 10//21 28//21
f  10//21 27//21 7//21
f  6//22 27//22 25//22
f  27//22 6//22 7//23
f  1//24 25//24 24//24
f  25//24 1//24 6//25
f  22//26 1//26 24//26
f  1//26 22//26 2//27
f  23//28 2//28 22//28
f  2//28 23//28 5//28
f  19//29 5//29 23//29
f  5//29 19//29 4//30
f  20//31 4//31 19//31
f  4//31 20//31 3//31
f  18//32 3//32 20//32
f  3//32 18//32 8//32
f  9//33 18//33 21//33
f  18//33 9//33 8//34

