# {"id":"BLDG_0003000f0007cffd","idOriginal":"BLDG_0003000f0007cffd","origin":[13.330484696928746,52.521620750592085],"elevation":33.7799987792969}
# Longitude: 13.330484696928746
# Latitude: 52.521620750592085
# Elevation: 33.7799987792969

# File produced by Open Asset Import Library (http://www.assimp.sf.net)
# (assimp v3.1.0)

mtllib BLDG_0003000f0007cffd.obj.mtl

# 60 vertex positions
v  8.00455 -1.76 -10.3151
v  19.7632 19.7304 -1.84682
v  19.7628 -1.76 -1.84615
v  8.00501 19.7304 -10.3158
v  0.000457068 19.7304 -0.00067968
v  0 -1.76 -1.07769e-16
v  36.7368 19.7304 26.1322
v  36.7363 -1.76 26.1328
v  37.9537 -1.76 24.4758
v  37.9541 19.7304 24.4751
v  38.9081 -1.76 23.1768
v  38.9086 19.7304 23.1761
v  20.3244 -1.76 9.81547
v  20.3249 19.7304 9.81479
v  37.954 15.679 24.4753
v  40.9614 0.710003 20.3823
v  37.9537 0.710003 24.4757
v  40.9617 15.679 20.3818
v  50.2548 0.59 5.7756
v  43.2384 5.84928 15.0651
v  43.2383 0.59 15.0653
v  50.2549 5.84928 5.77544
v  53.0837 0.59 2.03148
v  53.0838 5.84928 2.03132
v  46.2028 0.59 -2.99225
v  46.2029 5.84928 -2.99242
v  42.614 0.59 -5.611
v  42.6141 5.84928 -5.61117
v  32.7876 5.84928 7.53709
v  32.7875 0.59 7.53726
v  44.3036 -1.76 15.8338
v  42.4826 19.7304 18.312
v  42.4821 -1.76 18.3127
v  44.304 19.7304 15.8332
v  43.2383 -1.76 15.0653
v  43.2387 19.7304 15.0647
v  32.7874 -1.76 7.53733
v  32.7879 19.7304 7.53665
v  21.981 -1.76 -0.24705
v  21.9815 19.7304 -0.24773
v  22.8741 -1.76 -1.50499
v  22.8745 19.7304 -1.50567
v  24.1868 -1.76 5.13139
v  24.1873 19.7304 5.13071
v  24.1869 -3.14204e-16 5.13134
v  42.4826 21.2522 18.312
v  42.4821 -1.12133e-15 18.3127
v  24.1873 21.2522 5.13067
v  20.3249 21.2522 9.81474
v  20.3245 -6.01021e-16 9.81541
v  38.9086 21.2522 23.176
v  38.9082 -1.41916e-15 23.1767
v  40.9614 -1.24805e-15 20.3823
v  40.9618 21.2522 20.3816
v  40.9416 15.679 26.5894
v  40.9413 0.710003 26.5899
v  43.8834 0.710003 22.5898
v  43.8837 15.679 22.5893
v  20.6442 -1.76 -3.08722
v  20.6446 19.7304 -3.0879

# 0 UV coordinates

# 58 vertex normals
vn 0.584442 -3.80968e-05 -0.811436
vn 0.584442 -3.80723e-05 -0.811436
vn -0.790031 -2.58681e-06 -0.613067
vn -0.790031 -2.57736e-06 -0.613067
vn -0.57966 3.80632e-05 0.814859
vn -0.57966 3.81002e-05 0.814859
vn 0.805893 1.73741e-06 0.592062
vn 0.805891 1.53777e-06 0.592063
vn 0.805861 1.54163e-06 0.592105
vn 0.583759 -3.80943e-05 -0.811927
vn 0.583759 -3.81253e-05 -0.811927
vn -0.805861 -1.45988e-06 -0.592104
vn -0.805862 -1.66522e-06 -0.592104
vn 0.797965 1.61991e-06 0.602703
vn 0.797965 2.24296e-06 0.602703
vn 0.797865 2.31849e-06 0.602837
vn 0.797864 2.27984e-06 0.602837
vn 0.589665 -3.78854e-05 -0.807648
vn 0.589449 -3.79176e-05 -0.807806
vn 0.589449 -3.79585e-05 -0.807806
vn -0.801013 -1.51274e-06 -0.598647
vn -0.801013 -2.09373e-06 -0.598647
vn -0.584478 3.83195e-05 0.811409
vn -0.584478 3.83931e-05 0.811409
vn 0.805842 1.5941e-06 0.59213
vn 0.805842 1.57246e-06 0.59213
vn 0.585042 -3.81219e-05 -0.811003
vn 0.584478 -3.81204e-05 -0.811409
vn 0.584493 -3.81187e-05 -0.811399
vn 0.584493 -3.8092e-05 -0.811399
vn 0.815421 9.38487e-07 0.578868
vn 0.815421 9.34891e-07 0.578868
vn 0.771535 3.69861e-06 0.636187
vn -0.584559 3.81593e-05 0.811351
vn -0.584559 3.81233e-05 0.811351
vn 0.584559 -3.80181e-05 -0.811351
vn 0.584559 -3.80818e-05 -0.811351
vn -0.771535 -3.68724e-06 -0.636187
vn -0.771535 -3.71578e-06 -0.636187
vn -0.583759 3.80143e-05 0.811927
vn -0.583759 3.80667e-05 0.811927
vn 0.805861 1.63702e-06 0.592104
vn 0.805861 1.53996e-06 0.592105
vn 0.805842 1.54631e-06 0.592131
vn 0.805842 1.63367e-06 0.592131
vn -0.577657 3.81603e-05 0.81628
vn 0.805569 1.47549e-06 0.592502
vn 0.80557 1.68077e-06 0.592501
vn 0.602802 -3.79691e-05 -0.797891
vn 0.578682 -3.8121e-05 -0.815553
vn 0.578682 -3.81251e-05 -0.815553
vn -0.815309 -9.44336e-07 -0.579026
vn -0.815309 -9.47546e-07 -0.579026
vn 0 1 0
vn 0 -1 -6.12323e-17
vn -1.44101e-23 -1 -6.12323e-17
vn 1.06727e-23 -1 -6.12324e-17
vn 0 -1 0

# Mesh 'defaultobject' with 104 faces
g defaultobject
usemtl DefaultMaterial
f  1//1 2//1 3//1
f  2//1 1//1 4//2
f  5//3 1//3 6//3
f  1//3 5//3 4//4
f  7//5 6//5 8//5
f  6//5 7//5 5//6
f  9//7 7//7 8//7
f  7//7 9//7 10//8
f  11//9 10//9 9//9
f  10//9 11//9 12//9
f  13//10 12//10 11//10
f  12//10 13//10 14//11
f  15//12 16//12 17//12
f  16//12 15//12 18//13
f  19//14 20//14 21//14
f  20//14 19//14 22//15
f  23//16 22//16 19//16
f  22//16 23//16 24//17
f  25//18 24//18 23//18
f  24//18 25//18 26//18
f  27//19 26//19 25//19
f  26//19 27//19 28//20
f  29//21 27//21 30//21
f  27//21 29//21 28//22
f  20//23 30//23 21//23
f  30//23 20//23 29//24
f  31//25 32//25 33//25
f  32//25 31//25 34//26
f  35//27 34//27 31//27
f  34//27 35//27 36//27
f  37//28 36//28 35//28
f  36//28 37//28 38//28
f  39//29 38//29 37//29
f  38//29 39//29 40//30
f  41//31 40//31 39//31
f  40//31 41//31 42//32
f  43//33 14//33 13//33
f  14//33 43//33 44//33
f  32//34 43//34 33//34
f  43//34 32//34 44//35
f  45//36 46//36 47//36
f  46//36 45//36 48//37
f  49//38 45//38 50//38
f  45//38 49//38 48//39
f  51//40 50//40 52//40
f  50//40 51//40 49//41
f  53//42 51//42 52//42
f  51//42 53//42 54//43
f  47//44 54//44 53//44
f  54//44 47//44 46//45
f  55//46 17//46 56//46
f  17//46 55//46 15//46
f  57//47 55//47 56//47
f  55//47 57//47 58//48
f  16//49 58//49 57//49
f  58//49 16//49 18//49
f  59//50 42//50 41//50
f  42//50 59//50 60//51
f  2//52 59//52 3//52
f  59//52 2//52 60//53
f  48//54 54//54 46//54
f  54//54 48//54 51//54
f  51//54 48//54 49//54
f  55//54 18//54 15//54
f  18//54 55//54 58//54
f  20//54 28//54 29//54
f  28//54 20//54 22//54
f  28//54 22//54 24//54
f  28//54 24//54 26//54
f  34//54 44//54 32//54
f  44//54 34//54 36//54
f  44//54 36//54 38//54
f  44//54 38//54 40//54
f  60//54 2//54 42//54
f  10//54 5//54 7//54
f  5//54 10//54 12//54
f  5//54 12//54 14//54
f  5//54 14//54 44//54
f  5//54 44//54 40//54
f  5//54 40//54 42//54
f  5//54 42//54 2//54
f  5//54 2//54 4//54
f  47//55 50//55 45//55
f  50//55 47//55 53//56
f  50//55 53//56 52//57
f  56//58 16//58 57//58
f  16//58 56//58 17//58
f  19//58 25//58 23//58
f  25//58 19//58 21//58
f  25//58 21//58 27//58
f  27//58 21//58 30//58
f  9//58 13//58 11//58
f  33//58 35//58 31//58
f  35//58 33//58 37//58
f  37//58 33//58 39//58
f  39//58 33//58 3//58
f  3//58 33//58 1//58
f  1//58 33//58 43//58
f  1//58 43//58 6//58
f  6//58 43//58 13//58
f  6//58 13//58 9//58
f  6//58 9//58 8//58
f  39//58 59//58 41//58
f  59//58 39//58 3//58

