# {"id":"BLDG_000300000026f321","idOriginal":"BLDG_000300000026f321","origin":[13.327103089508896,52.53140531891649],"elevation":35.439998626709}
# Longitude: 13.327103089508896
# Latitude: 52.53140531891649
# Elevation: 35.439998626709

# File produced by Open Asset Import Library (http://www.assimp.sf.net)
# (assimp v3.1.0)

mtllib BLDG_000300000026f321.obj.mtl

# 8 vertex positions
v  0.0452241 -3.02268e-16 4.93642
v  7.90106 -2.03029e-18 0.0331571
v  7.84359 -3.05786e-16 4.99386
v  0 0 0
v  0.0452688 2.10254 4.93635
v  7.9011 2.10254 0.0330906
v  4.471e-05 2.10254 -6.65402e-05
v  7.84364 2.10254 4.9938

# 0 UV coordinates

# 11 vertex normals
vn -1.967e-24 -1 -6.12323e-17
vn 2.1209e-26 -1 -6.12323e-17
vn 0 1 0
vn -0.999958 2.15534e-05 0.00916093
vn -0.999958 2.15538e-05 0.00916093
vn -0.00736621 3.19074e-05 0.999973
vn -0.00736627 3.16802e-05 0.999973
vn 0.999933 -2.09515e-05 0.0115833
vn 0.999933 -2.09487e-05 0.0115833
vn 0.00419651 -3.17365e-05 -0.999991
vn 0.00419651 -3.17372e-05 -0.999991

# Mesh 'defaultobject' with 12 faces
g defaultobject
usemtl DefaultMaterial
f  1//1 2//1 3//1
f  2//1 1//1 4//2
f  5//3 6//3 7//3
f  6//3 5//3 8//3
f  5//4 4//4 1//4
f  4//4 5//4 7//5
f  3//6 5//6 1//6
f  5//6 3//6 8//7
f  2//8 8//8 3//8
f  8//8 2//8 6//9
f  7//10 2//10 4//10
f  2//10 7//10 6//11

