# {"id":"BLDG_0003000e00125e1d","idOriginal":"BLDG_0003000e00125e1d","origin":[13.342559312059663,52.561538907008],"elevation":38.8600006103516}
# Longitude: 13.342559312059663
# Latitude: 52.561538907008
# Elevation: 38.8600006103516

# File produced by Open Asset Import Library (http://www.assimp.sf.net)
# (assimp v3.1.0)

mtllib BLDG_0003000e00125e1d.obj.mtl

# 22 vertex positions
v  13.3341 -7.10361e-16 11.6011
v  15.5338 5.76258e-17 -0.941101
v  20.7202 -2.64414e-16 4.31822
v  12.2041 2.64354e-16 -4.31722
v  12.3893 -7.67548e-16 12.535
v  8.34518 5.03968e-16 -8.23042
v  10.6549 -6.60086e-16 10.78
v  5.05038 -3.12885e-16 5.1098
v  0.938602 5.67648e-17 -0.92704
v  3.23849 -2.00624e-16 3.27643
v  0 0 0
v  0.000297761 13.9878 -0.00044355
v  0.9389 13.9878 -0.927484
v  3.23879 13.9878 3.27599
v  5.05068 13.9878 5.10935
v  10.6552 13.9878 10.7796
v  12.3896 13.9878 12.5346
v  13.3344 13.9878 11.6006
v  20.7205 13.9878 4.31777
v  15.5341 13.9878 -0.941545
v  12.2044 13.9878 -4.31766
v  8.34547 13.9878 -8.23086

# 0 UV coordinates

# 29 vertex normals
vn 5.52769e-24 -1 -6.12323e-17
vn 0 -1 -6.12323e-17
vn 0 -1 -6.12323e-17
vn -6.58581e-24 -1 -6.12323e-17
vn 1.17167e-22 -1 -6.12324e-17
vn 0 -1 -6.12323e-17
vn 5.66637e-24 -1 -6.12323e-17
vn 0 -1 -6.12323e-17
vn -0.702711 -7.60197e-06 -0.711475
vn -0.702711 -7.59917e-06 -0.711475
vn -0.711213 3.74276e-05 0.702977
vn -0.711213 3.7431e-05 0.702977
vn -0.711259 3.74392e-05 0.70293
vn -0.711259 3.74271e-05 0.70293
vn -0.711214 3.74155e-05 0.702976
vn -0.711214 3.74397e-05 0.702976
vn -0.711276 3.74148e-05 0.702912
vn 0.702994 7.59531e-06 0.711196
vn 0.702994 7.54719e-06 0.711196
vn 0.702116 7.59828e-06 0.712063
vn 0.702116 7.67715e-06 0.712063
vn 0.712027 -3.74198e-05 -0.702152
vn 0.712027 -3.74013e-05 -0.702152
vn 0.711989 -3.74122e-05 -0.702191
vn 0.712024 -3.74026e-05 -0.702155
vn 0.712024 -3.74522e-05 -0.702155
vn -0.702129 -7.62978e-06 -0.71205
vn -0.702129 -7.59085e-06 -0.71205
vn 0 1 0

# Mesh 'defaultobject' with 40 faces
g defaultobject
usemtl DefaultMaterial
f  1//1 2//1 3//1
f  2//1 1//1 4//2
f  4//2 1//1 5//3
f  4//2 5//3 6//4
f  6//4 5//3 7//5
f  6//4 7//5 8//6
f  6//4 8//6 9//7
f  9//7 8//6 10//8
f  9//7 10//8 11//2
f  12//9 9//9 11//9
f  9//9 12//9 13//10
f  14//11 11//11 10//11
f  11//11 14//11 12//12
f  15//13 10//13 8//13
f  10//13 15//13 14//14
f  16//15 8//15 7//15
f  8//15 16//15 15//16
f  17//17 7//17 5//17
f  7//17 17//17 16//17
f  1//18 17//18 5//18
f  17//18 1//18 18//19
f  3//20 18//20 1//20
f  18//20 3//20 19//21
f  2//22 19//22 3//22
f  19//22 2//22 20//23
f  4//24 20//24 2//24
f  20//24 4//24 21//24
f  6//25 21//25 4//25
f  21//25 6//25 22//26
f  13//27 6//27 9//27
f  6//27 13//27 22//28
f  18//29 16//29 17//29
f  16//29 18//29 19//29
f  16//29 19//29 15//29
f  15//29 19//29 20//29
f  15//29 20//29 14//29
f  14//29 20//29 12//29
f  12//29 20//29 21//29
f  12//29 21//29 13//29
f  13//29 21//29 22//29

