# {"id":"BLDG_0003000800271e75","idOriginal":"BLDG_0003000800271e75","origin":[13.351828213652762,52.545350370687274],"elevation":34.02}
# Longitude: 13.351828213652762
# Latitude: 52.545350370687274
# Elevation: 34.02

# File produced by Open Asset Import Library (http://www.assimp.sf.net)
# (assimp v3.1.0)

mtllib BLDG_0003000800271e75.obj.mtl

# 56 vertex positions
v  2.39505 6.25 2.97284
v  8.96586 6.25 -7.58269
v  0.00013312 6.25 -0.00019798
v  11.779 6.25 -4.09044
v  6.6871 12.7264 17.0237
v  9.83617 6.24597 29.9667
v  14.2588 12.7264 26.3778
v  2.25478 6.24597 20.5562
v  2.35699 12.7264 11.6742
v  -6.46303 6.24597 9.735
v  -1.97313 12.7264 6.32461
v  -4.21098 12.7264 3.56113
v  -8.56445 12.7264 -1.81733
v  -8.50865 6.24597 7.19584
v  -17.2995 6.24597 -3.71594
v  -12.9179 12.7264 -7.19579
v  -20.2886 12.7264 -16.3011
v  -24.6119 6.24597 -12.7927
v  -8.53662 6.24597 -10.6752
v  -15.9655 6.24597 -19.809
v  0.618016 6.24597 -17.9457
v  -4.22497 12.7264 -5.3744
v  4.79208 12.7264 -12.7644
v  0.0864074 6.24597 -0.0731618
v  8.96586 6.24597 -7.58269
v  2.51649 6.24597 2.91464
v  11.7639 6.24597 -4.10921
v  6.81796 12.7264 8.20294
v  15.9554 12.7264 1.09376
v  11.1191 6.24597 13.4917
v  20.1467 6.24597 6.29713
v  18.6812 6.24597 22.7892
v  0 0 0
v  2.39492 -1.82046e-16 2.97304
v  8.96573 4.64293e-16 -7.58249
v  11.7789 2.50455e-16 -4.09024
v  9.83603 4.57764e-07 29.9669
v  2.25465 4.57764e-07 20.5564
v  -6.46316 4.57764e-07 9.7352
v  -8.50878 4.57764e-07 7.19604
v  -17.2996 4.57764e-07 -3.71574
v  -24.6121 4.57764e-07 -12.7925
v  4.79181 4.57764e-07 -12.764
v  0.617883 4.57764e-07 -17.9455
v  8.96573 4.57764e-07 -7.58249
v  15.9552 4.57764e-07 1.09416
v  11.7638 4.57764e-07 -4.10901
v  20.1465 4.57764e-07 6.29733
v  -20.2888 4.57764e-07 -16.3007
v  -15.9656 4.57764e-07 -19.8088
v  14.2585 4.57764e-07 26.3782
v  18.6811 4.57764e-07 22.7894
v  -8.53676 4.57764e-07 -10.675
v  0.0862744 4.57764e-07 -0.0729639
v  2.51635 4.57764e-07 2.91483
v  11.119 4.57764e-07 13.4919

# 0 UV coordinates

# 83 vertex normals
vn 0 1 0
vn -0.583826 0.660162 0.472582
vn -0.586171 0.658329 0.472235
vn -0.585084 0.658323 0.473589
vn -0.586883 0.657283 0.472809
vn -0.586519 0.656207 0.47475
vn -0.586419 0.656204 0.474878
vn -0.586558 0.656154 0.474775
vn -0.588713 0.654579 0.474283
vn -0.588713 0.654579 0.474283
vn -0.58834 0.653509 0.476217
vn -0.58832 0.653509 0.476241
vn -0.590662 0.651676 0.475854
vn 0.58846 0.651646 -0.478615
vn 0.588342 0.653477 -0.476258
vn 0.588361 0.653477 -0.476234
vn -0.442281 0.716349 -0.539659
vn -0.42798 0.725553 -0.538894
vn -0.436243 0.725574 -0.532198
vn 0.450619 0.716269 0.532824
vn 0.436193 0.725581 0.53223
vn 0.436239 0.725581 0.532192
vn 0.586915 0.655625 -0.475064
vn 0.586808 0.655627 -0.475194
vn 0.586946 0.655574 -0.475096
vn 0.584719 0.657218 -0.475572
vn -0.427563 0.717765 -0.549548
vn -0.416865 0.724572 -0.548834
vn -0.423175 0.724683 -0.543836
vn 0.43392 0.717818 0.544473
vn 0.423135 0.72469 0.543858
vn 0.42317 0.72469 0.54383
vn 0.585106 0.658292 -0.473606
vn 0.5851 0.658292 -0.473613
vn 0.58274 0.660131 -0.473963
vn -0.778758 3.64687e-05 0.627324
vn -0.778758 3.64585e-05 0.627324
vn -0.645749 -1.04328e-05 -0.76355
vn -0.645749 -1.03808e-05 -0.76355
vn 0.778758 -3.65105e-05 -0.627324
vn 0.601378 1.25758e-05 0.798965
vn 0.601378 1.24719e-05 0.798965
vn -0.778727 3.65906e-05 0.627363
vn -0.778727 3.6511e-05 0.627363
vn -0.778727 3.63038e-05 0.627363
vn -0.778727 3.64152e-05 0.627363
vn -0.778727 3.63845e-05 0.627363
vn -0.778727 3.64036e-05 0.627363
vn -0.778727 3.65253e-05 0.627363
vn -0.778727 3.65225e-05 0.627363
vn -0.778727 3.65738e-05 0.627363
vn 0.778758 -3.63188e-05 -0.627324
vn 0.778758 -3.63958e-05 -0.627324
vn 0.778758 -3.65072e-05 -0.627324
vn 0.778758 -3.65219e-05 -0.627324
vn 0.778758 -3.6522e-05 -0.627324
vn 0.778758 -3.67012e-05 -0.627324
vn 0.778758 -3.63551e-05 -0.627324
vn 0.778758 -3.62362e-05 -0.627324
vn -0.63011 -1.11916e-05 -0.776506
vn -0.63011 -1.13262e-05 -0.776506
vn -0.63011 -1.11916e-05 -0.776506
vn -0.63011 -1.12601e-05 -0.776506
vn 0.63011 1.11916e-05 0.776506
vn 0.63011 1.1206e-05 0.776506
vn 0.63011 1.11916e-05 0.776506
vn 0.63011 1.13432e-05 0.776506
vn -0.621913 -1.15512e-05 -0.783086
vn -0.621913 -1.13841e-05 -0.783086
vn 0.645749 1.02936e-05 0.76355
vn -0.604855 -1.23162e-05 -0.796336
vn -0.604855 -1.23004e-05 -0.796336
vn 0.623242 1.16396e-05 0.782029
vn 0.623242 1.16396e-05 0.782029
vn 0.775797 -3.64161e-05 -0.630983
vn 0.775797 -3.66236e-05 -0.630983
vn 0.775797 -3.64939e-05 -0.630983
vn 0.775797 -3.65336e-05 -0.630983
vn 0.775797 -3.6692e-05 -0.630983
vn 0.775797 -3.64881e-05 -0.630983
vn 0 -1 -6.12323e-17
vn 1.00567e-24 -1 -6.12323e-17
vn 0 -1 0

# Mesh 'defaultobject' with 104 faces
g defaultobject
usemtl DefaultMaterial
f  1//1 2//1 3//1
f  2//1 1//1 4//1
f  5//2 6//2 7//2
f  6//3 5//3 8//3
f  8//4 5//4 9//4
f  8//5 9//5 10//5
f  10//6 9//6 11//6
f  10//7 11//7 12//7
f  10//8 12//8 13//8
f  10//9 13//9 14//9
f  14//9 13//9 15//10
f  15//11 13//11 16//11
f  15//12 16//12 17//12
f  15//13 17//13 18//13
f  17//14 19//14 20//14
f  19//15 17//15 16//15
f  19//16 16//16 13//16
f  21//17 22//17 23//17
f  22//18 21//18 19//18
f  22//19 19//19 13//19
f  23//20 24//20 25//20
f  24//21 23//21 22//21
f  24//22 22//22 13//22
f  12//23 24//23 13//23
f  24//24 12//24 11//24
f  24//25 11//25 9//25
f  24//26 9//26 26//26
f  27//27 28//27 29//27
f  28//28 27//28 26//28
f  28//29 26//29 9//29
f  29//30 30//30 31//30
f  30//31 29//31 28//31
f  30//32 28//32 9//32
f  5//33 30//33 9//33
f  30//33 5//33 7//34
f  30//35 7//35 32//35
f  1//36 33//36 34//36
f  33//36 1//36 3//37
f  3//38 35//38 33//38
f  35//38 3//38 2//39
f  35//40 4//40 36//40
f  4//40 35//40 2//40
f  36//41 1//41 34//41
f  1//41 36//41 4//42
f  8//43 37//43 6//43
f  37//43 8//43 38//43
f  38//43 8//43 10//44
f  38//43 10//44 39//45
f  39//45 10//44 14//46
f  39//45 14//46 40//47
f  40//47 14//46 15//48
f  40//47 15//48 41//49
f  41//49 15//48 18//50
f  41//49 18//50 42//51
f  21//52 43//52 44//52
f  43//52 21//52 45//53
f  45//53 21//52 23//54
f  45//53 23//54 25//55
f  27//56 46//56 47//56
f  46//56 27//56 48//57
f  48//57 27//56 29//58
f  48//57 29//58 31//59
f  18//60 49//60 42//60
f  49//60 18//60 50//61
f  50//61 18//60 20//62
f  20//62 18//60 17//63
f  32//64 51//64 52//64
f  51//64 32//64 37//65
f  37//65 32//64 6//66
f  6//66 32//64 7//67
f  19//68 44//68 53//68
f  44//68 19//68 21//69
f  45//70 24//70 54//70
f  24//70 45//70 25//70
f  26//71 47//71 55//71
f  47//71 26//71 27//72
f  48//73 30//73 56//73
f  30//73 48//73 31//74
f  50//75 19//75 53//75
f  19//75 50//75 20//76
f  54//77 26//77 55//77
f  26//77 54//77 24//78
f  56//79 32//79 52//79
f  32//79 56//79 30//80
f  33//81 36//81 34//81
f  36//81 33//81 35//82
f  50//83 53//83 49//83
f  49//83 55//83 42//83
f  55//83 49//83 54//83
f  54//83 49//83 53//83
f  54//83 53//83 45//83
f  45//83 53//83 43//83
f  43//83 53//83 44//83
f  38//83 51//83 37//83
f  51//83 38//83 39//83
f  51//83 39//83 52//83
f  52//83 39//83 40//83
f  52//83 40//83 41//83
f  52//83 41//83 56//83
f  56//83 41//83 42//83
f  56//83 42//83 55//83
f  56//83 55//83 48//83
f  48//83 55//83 46//83
f  46//83 55//83 47//83

