# {"id":"BLDG_000300000043546b","idOriginal":"BLDG_000300000043546b","origin":[13.33675644300479,52.529385505080754],"elevation":33.6399993896484}
# Longitude: 13.33675644300479
# Latitude: 52.529385505080754
# Elevation: 33.6399993896484

# File produced by Open Asset Import Library (http://www.assimp.sf.net)
# (assimp v3.1.0)

mtllib BLDG_000300000043546b.obj.mtl

# 8 vertex positions
v  3.20937 -2.73199e-17 0.446167
v  0.969225 3.03627e-16 -4.95861
v  4.07247 2.72619e-16 -4.45221
v  0 0 0
v  8.8694e-05 4.16844 -0.0001319
v  3.20946 4.16844 0.446035
v  4.07256 4.16844 -4.45234
v  0.969313 4.16844 -4.95874

# 0 UV coordinates

# 9 vertex normals
vn -2.0312e-23 -1 -6.12323e-17
vn 6.4772e-24 -1 -6.12323e-17
vn -0.137696 3.42711e-05 0.990474
vn 0.984829 -1.54552e-05 0.173529
vn 0.984829 -1.54782e-05 0.173529
vn 0.161054 -3.45868e-05 -0.986946
vn -0.981428 1.48122e-05 -0.191833
vn -0.981428 1.48252e-05 -0.191833
vn 0 1 0

# Mesh 'defaultobject' with 12 faces
g defaultobject
usemtl DefaultMaterial
f  1//1 2//1 3//1
f  2//1 1//1 4//2
f  1//3 5//3 4//3
f  5//3 1//3 6//3
f  3//4 6//4 1//4
f  6//4 3//4 7//5
f  8//6 3//6 2//6
f  3//6 8//6 7//6
f  5//7 2//7 4//7
f  2//7 5//7 8//8
f  6//9 8//9 5//9
f  8//9 6//9 7//9

