# {"id":"BLDG_0003000f0003f2f6","idOriginal":"BLDG_0003000f0003f2f6","origin":[13.360189634726117,52.526632234340866],"elevation":35.0800018310547}
# Longitude: 13.360189634726117
# Latitude: 52.526632234340866
# Elevation: 35.0800018310547

# File produced by Open Asset Import Library (http://www.assimp.sf.net)
# (assimp v3.1.0)

mtllib BLDG_0003000f0003f2f6.obj.mtl

# 66 vertex positions
v  5.74592 15.503 12.0201
v  3.16254 15.503 -1.51918
v  0.000330358 15.503 -0.00049046
v  3.48779 15.503 -0.843492
v  6.30815 15.503 -2.1978
v  9.49839 15.503 10.2075
v  6.47072 15.503 -3.10773
v  8.04692 15.503 -3.86564
v  8.86739 15.503 -3.42831
v  11.6931 15.503 -4.77336
v  16.4888 15.503 6.84408
v  17.4553 15.503 -8.38415
v  11.3631 15.503 -5.4583
v  17.7794 15.503 -7.70909
v  23.7969 15.503 3.4281
v  21.2541 15.503 -9.38906
v  23.7244 15.503 -10.9191
v  26.3607 15.503 -9.9791
v  25.6978 15.503 4.11058
v  26.1354 15.503 5.04291
v  27.5497 15.503 5.54158
v  30.2898 15.503 -11.8659
v  27.7473 15.503 5.61126
v  29.0601 15.503 8.3411
v  30.8698 15.503 -10.658
v  41.1291 15.503 2.52139
v  31.4192 15.503 -10.4736
v  39.9572 15.503 0.0902237
v  35.5374 15.503 -9.08618
v  36.4298 15.503 -7.23341
v  37.0998 15.503 -5.84381
v  38.227 15.503 -3.50382
v  21.1196 15.503 -9.6687
v  0 0 0
v  5.74559 -7.36051e-16 12.0206
v  9.49806 -6.2506e-16 10.208
v  16.4884 -4.19109e-16 6.84457
v  23.7965 -2.09941e-16 3.42859
v  25.6975 -2.51731e-16 4.11107
v  26.135 -3.08819e-16 5.0434
v  27.5494 -3.39354e-16 5.54207
v  27.747 -3.4362e-16 5.61175
v  29.0597 -5.10775e-16 8.34159
v  41.1288 -1.54421e-16 2.52188
v  39.9569 -5.55464e-18 0.0907142
v  38.2267 2.14517e-16 -3.50333
v  37.0994 3.578e-16 -5.84332
v  36.4295 4.42888e-16 -7.23292
v  35.5371 5.56338e-16 -9.08569
v  31.4189 6.41295e-16 -10.4731
v  30.8695 6.52586e-16 -10.6575
v  30.2895 7.26545e-16 -11.8654
v  26.3604 6.11014e-16 -9.97861
v  23.7241 6.68571e-16 -10.9186
v  21.1193 5.92007e-16 -9.66821
v  21.2537 5.74884e-16 -9.38857
v  17.779 4.72015e-16 -7.7086
v  17.455 5.13351e-16 -8.38366
v  11.3628 3.34194e-16 -5.45781
v  11.6927 2.92254e-16 -4.77287
v  8.86706 2.09893e-16 -3.42782
v  8.04659 2.36672e-16 -3.86515
v  6.47039 1.90263e-16 -3.10724
v  6.30782 1.34547e-16 -2.19731
v  3.48746 5.16189e-17 -0.843001
v  3.16221 9.29931e-17 -1.51869

# 0 UV coordinates

# 81 vertex normals
vn 0 1 0
vn -0.902234 3.28389e-05 0.431247
vn -0.902234 3.2869e-05 0.431247
vn 0.434958 1.92192e-05 0.900451
vn 0.434958 1.91897e-05 0.900451
vn 0.433575 1.92378e-05 0.901117
vn 0.433575 1.92537e-05 0.901117
vn 0.423448 1.9628e-05 0.90592
vn 0.423448 1.96433e-05 0.90592
vn -0.337905 3.69635e-05 0.94118
vn -0.337905 3.69939e-05 0.94118
vn -0.905263 3.27142e-05 0.424851
vn -0.905264 3.28125e-05 0.42485
vn -0.332518 3.6927e-05 0.943097
vn -0.332517 3.69679e-05 0.943097
vn -0.332478 3.69665e-05 0.943111
vn -0.332481 3.69256e-05 0.94311
vn -0.901216 3.28844e-05 0.43337
vn -0.901216 3.28977e-05 0.43337
vn 0.434341 1.92457e-05 0.900748
vn 0.434341 1.9209e-05 0.900748
vn 0.900806 -3.30269e-05 -0.434222
vn 0.900805 -3.27933e-05 -0.434223
vn 0.901028 -3.2787e-05 -0.43376
vn 0.90091 -3.27901e-05 -0.434005
vn 0.900911 -3.3027e-05 -0.434004
vn 0.900784 -3.30276e-05 -0.434267
vn 0.900937 -3.30236e-05 -0.433949
vn 0.900937 -3.30348e-05 -0.433949
vn 0.319275 -3.68178e-05 -0.947662
vn 0.319275 -3.68571e-05 -0.947662
vn 0.318163 -3.68451e-05 -0.948036
vn 0.318164 -3.6806e-05 -0.948036
vn 0.901454 -3.30128e-05 -0.432875
vn 0.901453 -3.28722e-05 -0.432876
vn -0.432885 -1.93446e-05 -0.901449
vn -0.432885 -1.92892e-05 -0.901449
vn 0.33584 -3.69718e-05 -0.941919
vn 0.335839 -3.69884e-05 -0.941919
vn -0.432758 -1.92938e-05 -0.90151
vn -0.432758 -1.92405e-05 -0.90151
vn -0.901251 3.28828e-05 0.433297
vn -0.43528 -1.92017e-05 -0.900295
vn 0.901514 -3.28708e-05 -0.43275
vn -0.432922 -1.93155e-05 -0.901432
vn -0.432922 -1.92878e-05 -0.901432
vn -0.900911 3.29534e-05 0.434004
vn -0.90091 3.29113e-05 0.434005
vn -0.429802 -1.94027e-05 -0.902923
vn -0.429802 -1.93749e-05 -0.902923
vn 0.470373 -3.79277e-05 -0.882468
vn 0.470373 -3.79702e-05 -0.882468
vn -0.433353 -1.92726e-05 -0.901224
vn -0.433354 -1.92859e-05 -0.901224
vn -0.984413 1.54192e-05 -0.175874
vn -0.432871 -1.92902e-05 -0.901456
vn 0.901043 -3.29266e-05 -0.43373
vn 0.901043 -3.29292e-05 -0.43373
vn -0.432924 -1.92927e-05 -0.90143
vn -0.432924 -1.92952e-05 -0.90143
vn -2.51553e-24 -1 -6.12323e-17
vn 1.20269e-23 -1 -6.12323e-17
vn -2.17837e-22 -1 -6.1232e-17
vn 0 -1 -6.12323e-17
vn -2.04986e-24 -1 -6.12323e-17
vn 0 -1 -6.12323e-17
vn 2.09961e-24 -1 -6.12323e-17
vn 1.25837e-23 -1 -6.12324e-17
vn 4.41612e-24 -1 -6.12323e-17
vn -5.36708e-24 -1 -6.12323e-17
vn -3.39979e-23 -1 -6.12324e-17
vn -2.60874e-24 -1 -6.12324e-17
vn 2.14085e-22 -1 -6.12326e-17
vn -7.97201e-24 -1 -6.12323e-17
vn 0 -1 -6.12323e-17
vn 7.15767e-23 -1 -6.12325e-17
vn -3.39938e-24 -1 -6.12323e-17
vn -1.157e-23 -1 -6.12323e-17
vn 1.46189e-23 -1 -6.12324e-17
vn -1.46135e-23 -1 -6.12323e-17
vn 0 -1 -6.12413e-17

# Mesh 'defaultobject' with 128 faces
g defaultobject
usemtl DefaultMaterial
f  1//1 2//1 3//1
f  2//1 1//1 4//1
f  4//1 1//1 5//1
f  5//1 1//1 6//1
f  5//1 6//1 7//1
f  7//1 6//1 8//1
f  8//1 6//1 9//1
f  9//1 6//1 10//1
f  10//1 6//1 11//1
f  10//1 12//1 13//1
f  12//1 10//1 11//1
f  12//1 11//1 14//1
f  14//1 11//1 15//1
f  14//1 15//1 16//1
f  16//1 15//1 17//1
f  17//1 15//1 18//1
f  18//1 15//1 19//1
f  18//1 19//1 20//1
f  18//1 20//1 21//1
f  18//1 21//1 22//1
f  22//1 21//1 23//1
f  22//1 23//1 24//1
f  22//1 24//1 25//1
f  25//1 24//1 26//1
f  25//1 26//1 27//1
f  27//1 26//1 28//1
f  27//1 28//1 29//1
f  29//1 28//1 30//1
f  30//1 28//1 31//1
f  31//1 28//1 32//1
f  17//1 33//1 16//1
f  1//2 34//2 35//2
f  34//2 1//2 3//3
f  36//4 1//4 35//4
f  1//4 36//4 6//5
f  37//6 6//6 36//6
f  6//6 37//6 11//7
f  38//8 11//8 37//8
f  11//8 38//8 15//9
f  39//10 15//10 38//10
f  15//10 39//10 19//11
f  20//12 39//12 40//12
f  39//12 20//12 19//13
f  41//14 20//14 40//14
f  20//14 41//14 21//15
f  42//16 21//16 41//16
f  21//16 42//16 23//17
f  24//18 42//18 43//18
f  42//18 24//18 23//19
f  44//20 24//20 43//20
f  24//20 44//20 26//21
f  45//22 26//22 44//22
f  26//22 45//22 28//23
f  46//24 28//24 45//24
f  28//24 46//24 32//24
f  47//25 32//25 46//25
f  32//25 47//25 31//26
f  48//27 31//27 47//27
f  31//27 48//27 30//27
f  49//28 30//28 48//28
f  30//28 49//28 29//29
f  27//30 49//30 50//30
f  49//30 27//30 29//31
f  25//32 50//32 51//32
f  50//32 25//32 27//33
f  52//34 25//34 51//34
f  25//34 52//34 22//35
f  18//36 52//36 53//36
f  52//36 18//36 22//37
f  17//38 53//38 54//38
f  53//38 17//38 18//39
f  33//40 54//40 55//40
f  54//40 33//40 17//41
f  16//42 55//42 56//42
f  55//42 16//42 33//42
f  14//43 56//43 57//43
f  56//43 14//43 16//43
f  58//44 14//44 57//44
f  14//44 58//44 12//44
f  13//45 58//45 59//45
f  58//45 13//45 12//46
f  10//47 59//47 60//47
f  59//47 10//47 13//48
f  9//49 60//49 61//49
f  60//49 9//49 10//50
f  8//51 61//51 62//51
f  61//51 8//51 9//52
f  7//53 62//53 63//53
f  62//53 7//53 8//54
f  5//55 63//55 64//55
f  63//55 5//55 7//55
f  4//56 64//56 65//56
f  64//56 4//56 5//56
f  66//57 4//57 65//57
f  4//57 66//57 2//58
f  3//59 66//59 34//59
f  66//59 3//59 2//60
f  66//61 65//61 34//61
f  39//62 41//62 40//62
f  41//62 39//62 42//63
f  34//61 36//64 35//64
f  36//64 34//61 37//65
f  37//65 34//61 65//61
f  37//65 65//61 64//66
f  37//65 64//66 38//67
f  38//67 64//66 63//68
f  38//67 63//68 61//66
f  61//66 63//68 62//69
f  38//67 61//66 60//70
f  38//67 60//70 39//62
f  58//71 57//71 59//71
f  42//63 44//72 43//72
f  44//72 42//63 39//62
f  44//72 39//62 60//70
f  44//72 60//70 59//71
f  44//72 59//71 57//71
f  44//72 57//71 56//66
f  44//72 56//66 55//73
f  44//72 55//73 54//64
f  44//72 54//64 45//74
f  45//74 54//64 46//75
f  46//75 54//64 53//76
f  46//75 53//76 51//75
f  51//75 53//76 52//77
f  46//75 51//75 47//78
f  47//78 51//75 48//79
f  51//75 49//80 48//79
f  49//80 51//75 50//81

