# {"id":"BLDG_00030009007eef0e","idOriginal":"BLDG_00030009007eef0e","origin":[13.397087530568331,52.537628600432264],"elevation":46.3499984741211}
# Longitude: 13.397087530568331
# Latitude: 52.537628600432264
# Elevation: 46.3499984741211

# File produced by Open Asset Import Library (http://www.assimp.sf.net)
# (assimp v3.1.0)

mtllib BLDG_00030009007eef0e.obj.mtl

# 10 vertex positions
v  4.32031 16.3265 10.2505
v  0 0 0
v  4.31996 -6.27694e-16 10.251
v  0.000348734 16.3265 -0.00051687
v  2.16041 20.3086 5.12487
v  13.8166 3.68361e-16 -6.01579
v  13.817 16.3265 -6.01631
v  18.1366 -2.59333e-16 4.23523
v  18.1369 16.3265 4.23471
v  15.9771 20.3086 -0.890924

# 0 UV coordinates

# 13 vertex normals
vn -0.921515 3.19731e-05 0.388342
vn -0.921515 3.19778e-05 0.388342
vn -0.921515 3.19491e-05 0.388342
vn -0.399204 -2.04993e-05 -0.916862
vn -0.399204 -2.04929e-05 -0.916862
vn 0.921515 -3.19958e-05 -0.388342
vn 0.921515 -3.20783e-05 -0.388342
vn 0.399203 2.04664e-05 0.916862
vn 0.399204 2.04974e-05 0.916862
vn -0.2324 0.813074 -0.533761
vn 0.232396 0.813082 0.53375
vn 0.232396 0.813082 0.53375
vn 1.2633e-24 -1 -6.12323e-17

# Mesh 'defaultobject' with 16 faces
g defaultobject
usemtl DefaultMaterial
f  1//1 2//1 3//1
f  2//1 1//1 4//2
f  4//2 1//1 5//3
f  4//4 6//4 2//4
f  6//4 4//4 7//5
f  7//6 8//6 6//6
f  8//6 7//6 9//6
f  9//6 7//6 10//7
f  8//8 1//8 3//8
f  1//8 8//8 9//9
f  10//10 4//10 5//10
f  4//10 10//10 7//10
f  9//11 5//11 1//11
f  5//11 9//11 10//12
f  2//13 8//13 3//13
f  8//13 2//13 6//13

