# {"id":"BLDG_00030008002725d6","idOriginal":"BLDG_00030008002725d6","origin":[13.356822314315117,52.56123816092488],"elevation":40.2000007629395}
# Longitude: 13.356822314315117
# Latitude: 52.56123816092488
# Elevation: 40.2000007629395

# File produced by Open Asset Import Library (http://www.assimp.sf.net)
# (assimp v3.1.0)

mtllib BLDG_00030008002725d6.obj.mtl

# 23 vertex positions
v  19.6693 13.6036 4.06565
v  19.6647 14.2868 7.17105
v  19.6694 14.9699 4.0656
v  19.6597 -6.29281e-16 10.2769
v  0.143734 13.6036 10.7079
v  0.143444 -6.55696e-16 10.7083
v  19.66 13.6036 10.2765
v  0.055215 -2.52392e-16 4.12188
v  0.0555339 14.9699 4.1214
v  37.717 -6.0484e-16 9.87779
v  37.7231 13.6036 14.8919
v  37.7228 -9.11891e-16 14.8923
v  37.7173 14.9699 9.87732
v  19.6528 13.6036 15.0126
v  19.6525 -9.19281e-16 15.013
v  19.66 14.9699 10.2765
v  0 0 0
v  0.000289847 13.6036 -0.00043136
v  19.6762 4.31307e-17 -0.704377
v  19.6765 13.6036 -0.704808
v  19.6691 -2.48976e-16 4.06608
v  37.7102 -2.45833e-16 4.01475
v  37.7105 13.6036 4.01432

# 0 UV coordinates

# 36 vertex normals
vn -0.999999 2.08926e-05 -0.00150755
vn 0.0220989 3.12078e-05 0.999756
vn 0.0220989 3.12797e-05 0.999756
vn -0.99991 2.17288e-05 0.0133944
vn -0.99991 2.17293e-05 0.0133944
vn 0.999999 -2.13484e-05 -0.00115707
vn 0.999999 -2.11872e-05 -0.00115751
vn 0.0066787 3.16148e-05 0.999978
vn 0.00667864 3.15449e-05 0.999978
vn -0.999999 2.12639e-05 -0.00150782
vn -0.999999 2.123e-05 -0.00150772
vn -0.99991 2.17293e-05 0.0133944
vn -0.99991 2.17294e-05 0.0133944
vn -0.0357754 -3.09267e-05 -0.99936
vn -0.0357754 -3.09264e-05 -0.99936
vn 0.999999 -2.123e-05 0.00150774
vn 0.999999 -2.1264e-05 0.00150785
vn 0.999999 -2.08925e-05 0.00150816
vn -0.00284492 -3.16615e-05 -0.999996
vn 0.999999 -2.11871e-05 -0.00115748
vn 0.999999 -2.13485e-05 -0.00115707
vn -8.31013e-25 -1 -6.12323e-17
vn 3.26216e-25 -1 -6.12323e-17
vn -1.88821e-24 -1 -6.12323e-17
vn 0 -1 -6.12323e-17
vn 1.64689e-24 -1 -6.12323e-17
vn -2.33855e-24 -1 -6.12323e-17
vn 0 -1 -6.12323e-17
vn -0.00985675 0.961296 -0.275341
vn -0.000895105 0.949213 -0.314632
vn -0.000645673 0.973905 -0.226956
vn -0.0047492 0.976635 -0.214854
vn 0.00448842 0.979157 0.203056
vn 0.000611227 0.976647 0.214848
vn 0.00185126 0.960815 0.277185
vn 0.00581062 0.964813 0.262873

# Mesh 'defaultobject' with 38 faces
g defaultobject
usemtl DefaultMaterial
f  1//1 2//1 3//1
f  4//2 5//2 6//2
f  5//2 4//2 7//3
f  5//4 8//4 6//4
f  8//4 5//4 9//5
f  10//6 11//6 12//6
f  11//6 10//6 13//7
f  12//8 14//8 15//8
f  14//8 12//8 11//9
f  14//10 4//10 15//10
f  4//10 14//10 16//11
f  9//5 17//12 8//4
f  17//12 9//5 18//13
f  18//14 19//14 17//14
f  19//14 18//14 20//15
f  19//16 3//16 21//16
f  3//16 19//16 20//17
f  7//18 2//18 16//18
f  1//19 22//19 21//19
f  22//19 1//19 23//19
f  22//20 13//7 10//6
f  13//7 22//20 23//21
f  8//22 19//22 21//22
f  19//22 8//22 17//23
f  21//22 10//24 4//24
f  10//24 21//22 22//25
f  4//24 8//22 21//22
f  8//22 4//24 6//26
f  12//27 4//24 10//24
f  4//24 12//27 15//28
f  18//29 3//29 20//29
f  3//30 18//30 9//30
f  1//31 13//31 23//31
f  13//32 1//32 16//32
f  7//33 9//33 5//33
f  9//34 7//34 3//34
f  11//35 16//35 14//35
f  16//36 11//36 13//36

