# {"id":"BLDG_0003000e003263a3","idOriginal":"BLDG_0003000e003263a3","origin":[13.423706910553635,52.506859705106244],"elevation":34.6199989318848}
# Longitude: 13.423706910553635
# Latitude: 52.506859705106244
# Elevation: 34.6199989318848

# File produced by Open Asset Import Library (http://www.assimp.sf.net)
# (assimp v3.1.0)

mtllib BLDG_0003000e003263a3.obj.mtl

# 10 vertex positions
v  21.8744 16.2847 -2.67015
v  17.0549 -4.83033e-16 7.88853
v  21.8741 1.63468e-16 -2.66964
v  17.0552 16.2847 7.88802
v  19.4649 21.0987 2.60878
v  0.000348405 16.2847 -0.00051447
v  0 0 0
v  4.81921 6.46501e-16 -10.5582
v  4.81956 16.2847 -10.5587
v  2.41005 21.0987 -5.27975

# 0 UV coordinates

# 16 vertex normals
vn 0.909715 -6.38574e-06 0.415233
vn 0.909715 -6.2731e-06 0.415233
vn 0.909715 -6.5545e-06 0.415233
vn -0.419806 3.76479e-05 0.907614
vn -0.419806 3.7598e-05 0.907614
vn -0.909715 6.34486e-06 -0.415233
vn -0.909715 6.31422e-06 -0.415233
vn -0.909715 6.34967e-06 -0.415233
vn 0.419806 -3.76757e-05 -0.907614
vn 0.419806 -3.76605e-05 -0.907614
vn 4.85496e-25 -1 -6.12323e-17
vn -4.85496e-25 -1 -6.12323e-17
vn -0.268033 0.769648 0.579482
vn -0.268033 0.769648 0.579482
vn 0.268043 0.769629 -0.579504
vn 0.268043 0.769629 -0.579504

# Mesh 'defaultobject' with 16 faces
g defaultobject
usemtl DefaultMaterial
f  1//1 2//1 3//1
f  2//1 1//1 4//2
f  4//2 1//1 5//3
f  2//4 6//4 7//4
f  6//4 2//4 4//5
f  6//6 8//6 7//6
f  8//6 6//6 9//7
f  9//7 6//6 10//8
f  9//9 3//9 8//9
f  3//9 9//9 1//10
f  7//11 3//11 2//11
f  3//11 7//11 8//12
f  6//13 5//13 10//13
f  5//13 6//13 4//14
f  10//15 1//15 9//15
f  1//15 10//15 5//16

