# {"id":"BLDG_0003000e00495758","idOriginal":"BLDG_0003000e00495758","origin":[13.352934910513978,52.55987808753746],"elevation":38.5099983215332}
# Longitude: 13.352934910513978
# Latitude: 52.55987808753746
# Elevation: 38.5099983215332

# File produced by Open Asset Import Library (http://www.assimp.sf.net)
# (assimp v3.1.0)

mtllib BLDG_0003000e00495758.obj.mtl

# 14 vertex positions
v  16.4772 -5.66952e-16 9.25902
v  13.4592 3.21004 12.3761
v  13.4591 -7.57826e-16 12.3762
v  16.4773 3.21004 9.25892
v  3.15501 1.97394e-16 -3.22369
v  3.15508 3.21004 -3.22379
v  6.8378e-05 3.21004 -0.00010178
v  0 0 0
v  2.65842 3.21004 2.44442
v  2.65835 -1.49684e-16 2.44452
v  10.7157 3.21004 9.85309
v  10.7156 -6.03334e-16 9.85319
v  12.1888 3.21004 11.2072
v  12.1887 -6.86247e-16 11.2073

# 0 UV coordinates

# 18 vertex normals
vn 0.718435 6.50481e-06 0.695594
vn 0.683741 -3.74933e-05 -0.729725
vn 0.683741 -3.77537e-05 -0.729725
vn -0.714679 -6.95369e-06 -0.699452
vn -0.714679 -6.94845e-06 -0.699452
vn -0.676882 3.77733e-05 0.736091
vn -0.676882 3.77574e-05 0.736091
vn -0.676859 3.78784e-05 0.736113
vn -0.676859 3.77735e-05 0.736113
vn -0.676729 3.76607e-05 0.736232
vn -0.676729 3.78795e-05 0.736232
vn -0.677122 3.76577e-05 0.73587
vn -2.67364e-24 -1 -6.12323e-17
vn 1.08975e-22 -1 -6.12324e-17
vn -9.3839e-23 -1 -6.12323e-17
vn -8.58194e-24 -1 -6.12323e-17
vn -6.50275e-24 -1 -6.12323e-17
vn 0 1 0

# Mesh 'defaultobject' with 24 faces
g defaultobject
usemtl DefaultMaterial
f  1//1 2//1 3//1
f  2//1 1//1 4//1
f  5//2 4//2 1//2
f  4//2 5//2 6//3
f  7//4 5//4 8//4
f  5//4 7//4 6//5
f  9//6 8//6 10//6
f  8//6 9//6 7//7
f  11//8 10//8 12//8
f  10//8 11//8 9//9
f  13//10 12//10 14//10
f  12//10 13//10 11//11
f  2//12 14//12 3//12
f  14//12 2//12 13//12
f  3//13 5//13 1//13
f  5//13 3//13 14//14
f  5//13 14//14 12//15
f  5//13 12//15 10//16
f  5//13 10//16 8//17
f  4//18 13//18 2//18
f  13//18 4//18 6//18
f  13//18 6//18 11//18
f  11//18 6//18 9//18
f  9//18 6//18 7//18

