# {"id":"BLDG_0003000b002c59c0","idOriginal":"BLDG_0003000b002c59c0","origin":[13.39369122056542,52.5305032730303],"elevation":34.689998626709}
# Longitude: 13.39369122056542
# Latitude: 52.5305032730303
# Elevation: 34.689998626709

# File produced by Open Asset Import Library (http://www.assimp.sf.net)
# (assimp v3.1.0)

mtllib BLDG_0003000b002c59c0.obj.mtl

# 35 vertex positions
v  19.5853 23.5617 -2.14231
v  5.05471 21.7137 -2.40428
v  7.75336 23.5617 3.48447
v  16.8575 21.7137 -8.01721
v  22.313 21.7137 3.7327
v  10.4519 21.7137 9.37333
v  28.1973 21.7137 16.4062
v  18.648 23.5617 27.2583
v  30.708 23.5617 21.8137
v  16.1643 21.7137 21.8386
v  21.1316 21.7137 32.6782
v  33.2187 21.7137 27.2214
v  0.000463698 21.7137 -0.000687091
v  2.69912 23.5617 5.88806
v  5.39773 23.5617 11.7769
v  11.0638 23.5617 24.1411
v  16.0312 23.5617 34.9807
v  16.1643 23.5617 21.8385
v  19.7909 23.5617 43.1851
v  24.9168 21.7137 40.9379
v  16.857 4.90871e-16 -8.01653
v  5.05424 1.47178e-16 -2.40359
v  22.3125 -2.28604e-16 3.73339
v  10.4515 -5.73993e-16 9.37402
v  17.8201 22.9457 25.4517
v  28.1968 -1.00463e-15 16.4069
v  16.1638 -1.33727e-15 21.8392
v  33.2183 -1.66687e-15 27.2221
v  21.1312 -2.001e-15 32.6788
v  0 0 0
v  5.39723 -7.21171e-16 11.7776
v  11.0633 -1.47826e-15 24.1419
v  16.0307 -2.142e-15 34.9815
v  19.7904 -2.64437e-15 43.1858
v  24.9163 -2.50677e-15 40.9386

# 0 UV coordinates

# 55 vertex normals
vn -0.11783 0.961626 -0.247772
vn -0.11783 0.961626 -0.247772
vn 0.117829 0.961627 0.247769
vn 0.117829 0.961627 0.247769
vn -0.121826 0.955164 -0.269851
vn -0.121826 0.955164 -0.269851
vn 0.121824 0.955165 0.269848
vn 0.121824 0.955165 0.269848
vn -0.11783 0.961626 -0.247772
vn -0.11783 0.961626 -0.247772
vn 0.117829 0.961627 0.247769
vn 0.285064 0.949565 -0.130634
vn 0.285064 0.949565 -0.130634
vn 0.285064 0.949565 -0.130634
vn 0.0630191 0.988202 0.139591
vn 0.285064 0.949565 -0.130634
vn -0.429469 -1.93912e-05 -0.903082
vn -0.429469 -1.94304e-05 -0.903082
vn 0.907005 -3.26957e-05 -0.42112
vn 0.907005 -3.26865e-05 -0.42112
vn 0.907005 -3.20286e-05 -0.42112
vn 0.429469 1.94221e-05 0.903082
vn 0.429469 1.93954e-05 0.903082
vn -0.909089 3.3305e-05 0.416601
vn -0.411467 -2.00388e-05 -0.911425
vn -0.411467 -2.01188e-05 -0.911424
vn 0.907005 -3.27142e-05 -0.421121
vn 0.907005 -3.27569e-05 -0.421121
vn 0.907005 -3.22001e-05 -0.421121
vn 0.411467 2.00563e-05 0.911425
vn 0.411467 2.00033e-05 0.911425
vn -0.90909 3.25961e-05 0.416601
vn -0.909089 3.25962e-05 0.416601
vn -0.909089 3.23454e-05 0.416601
vn -0.429469 -1.9405e-05 -0.903082
vn -0.909089 3.25777e-05 0.416601
vn 0.909089 -3.25692e-05 -0.416601
vn 0.909089 -3.26205e-05 -0.416601
vn -0.909089 3.25808e-05 0.416601
vn -0.411467 -1.9303e-05 -0.911425
vn -0.909089 3.26041e-05 0.416601
vn -0.909089 3.25808e-05 0.416601
vn 0.909089 -3.26584e-05 -0.416601
vn 0.909089 -3.25811e-05 -0.416601
vn 0.401512 2.03287e-05 0.915854
vn 0.401512 2.03559e-05 0.915854
vn 0 -1 -6.12323e-17
vn 2.50153e-24 -1 -6.12323e-17
vn 1.3452e-23 -1 -6.12323e-17
vn -5.35674e-24 -1 -6.12324e-17
vn 0 -1 -6.12323e-17
vn 0 -1 -6.12324e-17
vn 4.12565e-23 -1 -6.12324e-17
vn 4.4026e-23 -1 -6.12323e-17
vn -8.32961e-24 -1 -6.12324e-17

# Mesh 'defaultobject' with 64 faces
g defaultobject
usemtl DefaultMaterial
f  1//1 2//1 3//1
f  2//1 1//1 4//2
f  5//3 3//3 6//3
f  3//3 5//3 1//4
f  7//5 8//5 9//5
f  8//5 7//5 10//6
f  9//7 11//7 12//7
f  11//7 9//7 8//8
f  13//9 3//1 2//1
f  3//1 13//9 14//10
f  3//3 14//11 6//3
f  14//12 15//12 6//12
f  6//12 16//13 10//13
f  16//13 6//12 15//12
f  11//14 16//13 17//14
f  16//15 11//15 18//15
f  11//14 19//16 20//16
f  19//16 11//14 17//14
f  2//17 21//17 22//17
f  21//17 2//17 4//18
f  4//19 23//19 21//19
f  23//19 4//19 5//20
f  5//20 4//19 1//21
f  23//22 6//22 24//22
f  6//22 23//22 5//23
f  25//24 11//24 8//24
f  10//25 26//25 27//25
f  26//25 10//25 7//26
f  7//27 28//27 26//27
f  28//27 7//27 12//28
f  12//28 7//27 9//29
f  28//30 11//30 29//30
f  11//30 28//30 12//31
f  15//32 30//32 31//32
f  30//32 15//32 13//33
f  13//33 15//32 14//34
f  13//35 22//17 30//35
f  22//17 13//35 2//17
f  16//36 31//32 32//36
f  31//32 16//36 15//32
f  24//37 10//37 27//37
f  10//37 24//37 6//38
f  17//39 32//36 33//39
f  32//36 17//39 16//36
f  18//40 10//25 16//40
f  10//41 25//24 18//41
f  19//42 33//39 34//42
f  33//39 19//42 17//39
f  29//43 20//43 35//43
f  20//43 29//43 11//44
f  35//45 19//45 34//45
f  19//45 35//45 20//46
f  22//47 23//47 24//47
f  23//47 22//47 21//48
f  26//49 29//49 27//49
f  29//49 26//49 28//50
f  30//51 24//47 31//51
f  24//47 30//51 22//47
f  31//51 27//49 32//52
f  27//49 31//51 24//47
f  33//53 27//49 29//49
f  27//49 33//53 32//52
f  29//49 34//54 33//53
f  34//54 29//49 35//55

