# {"id":"BLDG_0003000b002ebe7f","idOriginal":"BLDG_0003000b002ebe7f","origin":[13.3516415839848,52.53054386830592],"elevation":35.4900016784668}
# Longitude: 13.3516415839848
# Latitude: 52.53054386830592
# Elevation: 35.4900016784668

# File produced by Open Asset Import Library (http://www.assimp.sf.net)
# (assimp v3.1.0)

mtllib BLDG_0003000b002ebe7f.obj.mtl

# 12 vertex positions
v  12.8783 -6.41267e-16 10.4727
v  12.6256 3.78385e-16 -6.1795
v  19.1911 -4.52074e-16 7.38293
v  6.5655 -8.30459e-16 13.5624
v  0 0 0
v  6.3128 1.89193e-16 -3.08975
v  0.000432035 20.2854 -0.00064193
v  12.8788 22.8338 10.472
v  6.31329 22.8338 -3.09047
v  6.56594 20.2854 13.5618
v  19.1915 20.2854 7.38229
v  12.626 20.2854 -6.18014

# 0 UV coordinates

# 19 vertex normals
vn 7.99822e-24 -1 -6.12323e-17
vn -1.59964e-23 -1 -6.12323e-17
vn 0 -1 -6.12323e-17
vn -0.306809 0.940111 0.148525
vn -0.306809 0.940111 0.148525
vn 0.306816 0.940108 -0.148528
vn 0.306816 0.940108 -0.148528
vn 0.439611 1.90767e-05 0.898188
vn 0.439611 1.90102e-05 0.898188
vn 0.439611 1.9056e-05 0.898188
vn 0.439611 1.90618e-05 0.898188
vn -0.439611 -1.90603e-05 -0.898188
vn -0.439611 -1.90503e-05 -0.898188
vn -0.439611 -1.9056e-05 -0.898188
vn -0.439611 -1.90618e-05 -0.898188
vn -0.90008 3.2955e-05 0.435724
vn -0.90008 3.29582e-05 0.435724
vn 0.90008 -3.28977e-05 -0.435724
vn 0.90008 -3.29476e-05 -0.435724

# Mesh 'defaultobject' with 20 faces
g defaultobject
usemtl DefaultMaterial
f  1//1 2//1 3//1
f  2//1 1//1 4//2
f  2//1 4//2 5//3
f  2//1 5//3 6//2
f  7//4 8//4 9//4
f  8//4 7//4 10//5
f  9//6 11//6 12//6
f  11//6 9//6 8//7
f  11//8 1//8 3//8
f  1//8 11//8 4//9
f  4//9 11//8 10//10
f  10//10 11//8 8//11
f  7//12 6//12 5//12
f  6//12 7//12 2//13
f  2//13 7//12 12//14
f  12//14 7//12 9//15
f  10//16 5//16 4//16
f  5//16 10//16 7//17
f  2//18 11//18 3//18
f  11//18 2//18 12//19

