# {"id":"BLDG_0003000a0010da26","idOriginal":"BLDG_0003000a0010da26","origin":[13.38608074441598,52.552784021482395],"elevation":40.189998626709}
# Longitude: 13.38608074441598
# Latitude: 52.552784021482395
# Elevation: 40.189998626709

# File produced by Open Asset Import Library (http://www.assimp.sf.net)
# (assimp v3.1.0)

mtllib BLDG_0003000a0010da26.obj.mtl

# 10 vertex positions
v  2.98853 6.38971 0.287183
v  3.25154 6.01226 -2.44777
v  0.000128338 6.01226 -0.00019053
v  10.9787 6.38971 9.14803
v  12.6044 6.01226 7.92426
v  9.35302 6.01226 10.3718
v  3.25141 1.49871e-16 -2.44758
v  0 0 0
v  12.6043 -4.85232e-16 7.92445
v  9.35289 -6.35103e-16 10.372

# 0 UV coordinates

# 15 vertex normals
vn -0.110104 0.983099 -0.146264
vn 0.135961 0.983099 -0.122601
vn 0.135961 0.983099 -0.122601
vn -0.135959 0.983099 0.1226
vn -0.135959 0.983099 0.1226
vn -0.601417 -1.24806e-05 -0.798935
vn -0.601417 -1.24591e-05 -0.798935
vn 0.74265 -3.69801e-05 -0.669679
vn 0.601418 1.2467e-05 0.798935
vn 0.601418 1.24356e-05 0.798935
vn 0.601418 1.35034e-05 0.798935
vn -0.74265 3.69241e-05 0.669679
vn -0.74265 3.7075e-05 0.669679
vn 0 -1 -6.12323e-17
vn 3.74028e-24 -1 -6.12323e-17

# Mesh 'defaultobject' with 16 faces
g defaultobject
usemtl DefaultMaterial
f  1//1 2//1 3//1
f  4//2 2//2 1//2
f  2//2 4//2 5//3
f  6//4 1//4 3//4
f  1//4 6//4 4//5
f  3//6 7//6 8//6
f  7//6 3//6 2//7
f  7//8 5//8 9//8
f  5//8 7//8 2//8
f  5//9 10//9 9//9
f  10//9 5//9 6//10
f  6//10 5//9 4//11
f  6//12 8//12 10//12
f  8//12 6//12 3//13
f  7//14 10//14 8//14
f  10//14 7//14 9//15

