# {"id":"BLDG_0003000e008c13d6","idOriginal":"BLDG_0003000e008c13d6","origin":[13.347297182310296,52.53470587593148],"elevation":34.1500015258789}
# Longitude: 13.347297182310296
# Latitude: 52.53470587593148
# Elevation: 34.1500015258789

# File produced by Open Asset Import Library (http://www.assimp.sf.net)
# (assimp v3.1.0)

mtllib BLDG_0003000e008c13d6.obj.mtl

# 46 vertex positions
v  12.9385 -1.52588e-06 -2.08206
v  -0.233344 -8.08951e-16 13.2112
v  0 -1.52588e-06 -9.34331e-23
v  -0.493989 -1.71255e-15 27.968
v  -0.582522 -2.01947e-15 32.9805
v  2.56619 -2.02288e-15 33.0361
v  18.2509 1.79834e-16 -2.93692
v  12.7052 -6.81462e-16 11.1291
v  17.9386 -6.29895e-16 10.287
v  23.0772 2.2739e-16 -3.71357
v  23.5775 3.70071e-17 -0.604371
v  24.675 -3.80606e-16 6.21576
v  25.1435 -5.58901e-16 9.12755
v  9.36642 -2.03023e-15 33.1561
v  12.4038 -1.72649e-15 28.1957
v  12.3152 -2.03341e-15 33.2082
v  17.5135 -1.73201e-15 28.2859
v  17.3951 -2.0389e-15 33.2978
v  -0.582084 20.61 32.9798
v  9.36689 22.14 33.1554
v  17.3956 23.47 33.2971
v  12.3157 23.47 33.2074
v  2.56668 23.03 33.0353
v  24.6755 22.14 6.21506
v  23.0777 20.61 -3.71422
v  23.578 23.03 -0.605101
v  25.144 20.61 9.12689
v  0.000438832 20.61 -0.000652379
v  12.939 20.61 -2.08271
v  18.2513 20.61 -2.93757
v  12.7056 20.61 11.1285
v  17.939 20.61 10.2863
v  -0.493551 20.61 27.9674
v  -0.232906 20.61 13.2105
v  12.4042 20.61 28.1951
v  17.5139 20.61 28.2853
v  18.0087 22.14 7.33784
v  12.7577 22.14 8.17963
v  9.84595 22.14 8.64819
v  18.177 23.03 0.210666
v  12.8834 23.03 1.06591
v  3.05408 23.03 2.64764
v  2.87635 23.03 12.7101
v  2.65522 23.03 28.0229
v  9.45543 22.14 28.143
v  9.79387 22.14 11.597

# 0 UV coordinates

# 77 vertex normals
vn 1.8639e-08 -1 1.15828e-07
vn -1.18269e-07 -1 -2.08894e-09
vn -1.18269e-07 -1 -2.08894e-09
vn -7.62986e-10 -1 4.32245e-08
vn 3.08905e-07 -1 1.34687e-07
vn 3.20756e-22 -1 -6.12322e-17
vn 2.30363e-24 -1 -6.12323e-17
vn 1.33223e-23 -1 -6.12323e-17
vn 0 -1 -6.12323e-17
vn -8.40126e-24 -1 -6.12323e-17
vn -7.37919e-24 -1 -6.12323e-17
vn 2.25591e-23 -1 -6.12323e-17
vn -8.41286e-24 -1 -6.12324e-17
vn 2.17071e-23 -1 -6.12323e-17
vn 1.65304e-23 -1 -6.12323e-17
vn -1.13015e-23 -1 -6.12324e-17
vn -0.0176489 3.20212e-05 0.999844
vn -0.0176492 3.19865e-05 0.999844
vn -0.017649 3.20498e-05 0.999844
vn -0.0176495 3.17532e-05 0.999844
vn -0.017649 3.21951e-05 0.999844
vn -0.0176494 3.2065e-05 0.999844
vn -0.0176488 2.84424e-05 0.999844
vn -0.017649 3.1933e-05 0.999844
vn 0.9873 -2.59429e-05 -0.158869
vn 0.9873 -2.57832e-05 -0.158869
vn 0.9873 -2.60432e-05 -0.158869
vn 0.9873 -2.60494e-05 -0.158869
vn -0.158875 -2.78687e-05 -0.987299
vn -0.158875 -2.78802e-05 -0.987299
vn -0.158875 -2.78103e-05 -0.987299
vn -0.158875 -2.78666e-05 -0.987299
vn 0 1 0
vn 0 -1 0
vn 0.158875 2.78666e-05 0.987299
vn 0.158875 2.786e-05 0.987299
vn 0.158875 2.79123e-05 0.987299
vn -0.999844 2.07317e-05 -0.0176599
vn -0.999844 2.07379e-05 -0.0176599
vn -0.999844 2.07667e-05 -0.0176599
vn -0.999844 2.06753e-05 -0.0176598
vn -0.999844 2.07093e-05 -0.0176599
vn -0.999844 2.07299e-05 -0.0176599
vn 0.0176495 -3.20211e-05 -0.999844
vn 0.999721 -2.05379e-05 0.0236107
vn 0.999721 -2.05319e-05 0.0236107
vn 0.999844 -2.07232e-05 0.0176599
vn 0.999844 -2.07205e-05 0.0176599
vn -0.356521 0.808759 -0.467762
vn 0.0764783 0.887658 0.454108
vn 0.0739435 0.884185 0.461247
vn 0.0740735 0.88466 0.460315
vn 0.0740735 0.88466 0.460315
vn 0.0740734 0.88466 0.460315
vn 0.0190846 0.991802 0.126355
vn 0.0202189 0.991932 0.125146
vn 0.0201598 0.991917 0.125279
vn 0.0203609 0.992061 0.124096
vn -0.0968075 0.792916 -0.601591
vn -0.0968075 0.792916 -0.601591
vn -0.0968075 0.792916 -0.601591
vn -0.0952301 0.770329 -0.630496
vn -0.0978894 0.788292 -0.607465
vn -0.609219 0.792929 -0.0107604
vn -0.609219 0.792929 -0.0107604
vn -0.609219 0.792929 -0.0107604
vn -0.619089 0.785264 -0.00943225
vn -0.61526 0.788249 -0.0108671
vn 0.129731 0.991547 0.00229138
vn 0.128178 0.991749 0.00201479
vn 0.129726 0.991547 0.00259871
vn 0.129731 0.991547 0.0022914
vn 0.461735 0.886971 0.00914489
vn 0.466172 0.884656 0.00823382
vn 0.466172 0.884656 0.00823374
vn 0.00874586 0.86859 -0.495454
vn 0.0087455 0.86859 -0.495454

# Mesh 'defaultobject' with 88 faces
g defaultobject
usemtl DefaultMaterial
f  1//1 2//1 3//1
f  2//1 1//1 4//2
f  4//2 1//1 5//3
f  5//3 1//1 6//4
f  6//4 1//1 7//5
f  6//4 7//5 8//6
f  8//6 7//5 9//7
f  9//7 7//5 10//8
f  9//7 10//8 11//9
f  9//7 11//9 12//10
f  9//7 12//10 13//11
f  8//6 14//12 6//4
f  14//12 8//6 15//13
f  14//12 15//13 16//14
f  16//14 15//13 17//15
f  16//14 17//15 18//16
f  6//17 19//17 5//17
f  19//17 6//17 14//18
f  19//17 14//18 16//19
f  19//17 16//19 18//20
f  19//17 18//20 20//21
f  20//21 18//20 21//22
f  20//21 21//22 22//23
f  23//24 19//17 20//21
f  24//25 25//25 26//25
f  25//25 24//25 27//26
f  25//25 27//26 10//27
f  10//27 27//26 13//28
f  10//8 13//11 11//9
f  11//9 13//11 12//10
f  28//29 1//29 3//29
f  1//29 28//29 7//30
f  7//30 28//29 10//31
f  10//31 28//29 25//32
f  25//33 28//33 29//33
f  25//34 29//34 30//34
f  27//35 9//35 13//35
f  9//35 27//35 8//36
f  8//36 27//35 31//37
f  31//34 27//34 32//34
f  19//38 4//38 5//38
f  4//38 19//38 2//39
f  2//39 19//38 3//40
f  3//40 19//38 33//41
f  3//40 33//41 34//42
f  3//40 34//42 28//43
f  35//44 17//44 15//44
f  17//44 35//44 36//44
f  17//45 21//45 18//45
f  21//45 17//45 36//46
f  8//47 35//47 15//47
f  35//47 8//47 31//48
f  20//49 22//49 35//49
f  37//50 27//50 24//50
f  27//51 37//51 38//51
f  27//52 38//52 39//52
f  27//52 39//52 32//53
f  32//53 39//52 31//54
f  40//55 24//55 26//55
f  24//56 40//56 41//56
f  24//57 41//57 42//57
f  24//58 42//58 39//58
f  24//33 39//33 38//33
f  24//33 38//33 37//33
f  30//59 26//59 25//59
f  26//59 30//59 29//60
f  26//59 29//60 28//61
f  26//62 28//62 40//62
f  40//63 28//63 42//63
f  40//33 42//33 41//33
f  23//64 33//64 19//64
f  33//64 23//64 34//65
f  34//65 23//64 28//66
f  28//67 23//67 43//67
f  43//33 23//33 44//33
f  42//68 28//68 43//68
f  20//69 44//69 23//69
f  44//33 42//33 43//33
f  42//70 44//70 39//70
f  39//71 44//71 45//71
f  45//72 44//69 20//69
f  39//33 45//33 46//33
f  20//33 46//33 45//33
f  46//73 20//73 35//73
f  46//74 35//74 31//74
f  31//74 39//75 46//74
f  35//76 21//76 36//76
f  21//76 35//76 22//77

