# {"id":"BLDG_0003000f0003cc4e","idOriginal":"BLDG_0003000f0003cc4e","origin":[13.358973325656024,52.52380601659534],"elevation":33.7999992370605}
# Longitude: 13.358973325656024
# Latitude: 52.52380601659534
# Elevation: 33.7999992370605

# File produced by Open Asset Import Library (http://www.assimp.sf.net)
# (assimp v3.1.0)

mtllib BLDG_0003000f0003cc4e.obj.mtl

# 106 vertex positions
v  43.81 0.310001 -1.04442
v  43.0306 12.6515 -1.21954
v  43.0303 0.310001 -1.21915
v  43.8103 12.6515 -1.04481
v  43.9747 0.310001 -1.77609
v  43.9749 12.6515 -1.77649
v  43.1946 12.6515 -1.95184
v  43.1944 0.310001 -1.95145
v  44.6209 0.310001 -8.31481
v  44.6211 12.6515 -8.3152
v  45.4018 0.310001 -8.13944
v  45.4021 12.6515 -8.13983
v  45.5659 0.310001 -8.87173
v  45.5661 12.6515 -8.87213
v  44.7852 12.6515 -9.04688
v  44.7849 0.310001 -9.04649
v  46.2121 0.310001 -15.4104
v  46.2123 12.6515 -15.4108
v  46.9924 0.310001 -15.2357
v  46.9926 12.6515 -15.2361
v  47.1564 0.310001 -15.968
v  47.1567 12.6515 -15.9684
v  46.3764 12.6515 -16.1431
v  46.3761 0.310001 -16.1427
v  47.8026 0.310001 -22.5061
v  47.8029 12.6515 -22.5065
v  48.5836 0.310001 -22.3313
v  48.5838 12.6515 -22.3317
v  48.7476 0.310001 -23.063
v  48.7479 12.6515 -23.0634
v  47.967 12.6515 -23.2382
v  47.9667 0.310001 -23.2378
v  49.3951 0.310001 -29.6023
v  49.3953 12.6515 -29.6027
v  50.1741 0.310001 -29.4264
v  50.1744 12.6515 -29.4268
v  50.3382 0.310001 -30.1581
v  50.3384 12.6515 -30.1585
v  49.5588 12.6515 -30.3332
v  49.5585 0.310001 -30.3328
v  49.9873 0.310001 -32.2453
v  49.9876 12.6515 -32.2457
v  50.5562 0.310001 -34.7855
v  50.5565 12.6515 -34.7859
v  50.9856 0.310001 -36.6974
v  50.9859 12.6515 -36.6978
v  51.7665 0.310001 -36.5226
v  51.7668 12.6515 -36.523
v  51.93 0.310001 -37.2543
v  51.9303 12.6515 -37.2547
v  51.1499 12.6515 -37.4294
v  51.1497 0.310001 -37.4291
v  51.3137 0.310001 -38.1607
v  51.314 12.6515 -38.1611
v  25.5111 12.6515 -43.947
v  25.5108 0.310001 -43.9466
v  16.057 12.6515 0.952616
v  16.0567 0.310001 0.953006
v  26.107 2.85383e-15 -46.6066
v  25.511 7.09028 -43.9469
v  25.5108 2.69096e-15 -43.9466
v  26.1072 7.09028 -46.6068
v  11.2012 7.09028 -49.9493
v  11.201 3.0585e-15 -49.949
v  8.12821 7.09028 -36.249
v  8.12806 2.2196e-15 -36.2488
v  9.29914 2.20355e-15 -35.9867
v  9.29929 7.09028 -35.9869
v  8.79582 7.09028 -33.7432
v  8.79567 2.06616e-15 -33.743
v  16.0311 1.96681e-15 -32.1205
v  16.0313 7.09028 -32.1207
v  11.9086 7.09028 -13.7399
v  11.9085 8.4131e-16 -13.7396
v  4.6744 7.09028 -15.3611
v  4.67425 9.40585e-16 -15.3609
v  4.17094 7.09028 -13.1181
v  4.17079 8.03238e-16 -13.1179
v  3.00048 7.09028 -13.3802
v  3.00033 8.19288e-16 -13.38
v  0.000151076 7.09028 -0.000224271
v  0 0 0
v  13.8152 -1.89679e-16 3.0977
v  13.8153 7.09028 3.09748
v  14.9066 -2.04666e-16 3.34245
v  14.9068 7.09028 3.34222
v  15.4715 -5.02744e-17 0.821042
v  15.4717 7.09028 0.820818
v  16.0567 -5.83554e-17 0.953016
v  16.0569 7.09028 0.952792
v  23.4709 0.310001 2.61494
v  23.4711 12.6515 2.61455
v  41.2745 0.310001 6.60755
v  41.2747 12.6515 6.60716
v  41.4385 0.310001 5.87586
v  41.4388 12.6515 5.87547
v  42.2188 0.310001 6.05061
v  42.2191 12.6515 6.05022
v  42.3829 0.310001 5.31953
v  42.3831 12.6515 5.31914
v  41.6034 12.6515 5.1438
v  41.6032 0.310001 5.14419
v  42.0314 0.310001 3.23232
v  42.0316 12.6515 3.23193
v  42.6009 0.310001 0.692083
v  42.6012 12.6515 0.691693

# 0 UV coordinates

# 98 vertex normals
vn -0.21868 3.55328e-05 0.975797
vn -0.21868 3.55222e-05 0.975797
vn 0.975598 -1.3863e-05 0.219566
vn 0.975598 -1.38614e-05 0.219566
vn 0.219259 -3.55404e-05 -0.975667
vn 0.975782 -1.38875e-05 0.218747
vn 0.975782 -1.38994e-05 0.218747
vn -0.21911 3.55103e-05 0.9757
vn 0.975809 -1.39025e-05 0.218624
vn 0.975809 -1.38856e-05 0.218624
vn 0.218383 -3.5575e-05 -0.975863
vn 0.975766 -1.38742e-05 0.218818
vn -0.218531 3.55772e-05 0.97583
vn -0.218532 3.55017e-05 0.97583
vn 0.218532 -3.55772e-05 -0.97583
vn 0.975782 -1.38757e-05 0.218747
vn -0.218382 3.55746e-05 0.975864
vn -0.218383 3.55068e-05 0.975863
vn 0.975774 -1.35779e-05 0.218783
vn 0.975772 -1.38798e-05 0.218788
vn 0.218383 -3.55075e-05 -0.975863
vn 0.218382 -3.5575e-05 -0.975864
vn 0.97573 -1.35644e-05 0.218978
vn 0.97573 -1.39079e-05 0.218979
vn -0.220291 3.54517e-05 0.975434
vn -0.220289 3.56014e-05 0.975435
vn 0.975774 -1.3879e-05 0.218783
vn 0.218681 -3.55793e-05 -0.975796
vn 0.975772 -1.38805e-05 0.218788
vn 0.975773 -1.35429e-05 0.218786
vn 0.975826 -1.35509e-05 0.218548
vn 0.975826 -1.38552e-05 0.21855
vn 0.975692 -1.38321e-05 0.219144
vn 0.975692 -1.38987e-05 0.219145
vn -0.218385 3.54238e-05 0.975863
vn -0.21838 3.57256e-05 0.975864
vn 0.975947 -1.3874e-05 0.218009
vn 0.975946 -1.39409e-05 0.21801
vn 0.218529 -3.56604e-05 -0.97583
vn 0.218533 -3.54264e-05 -0.97583
vn 0.975774 -1.35441e-05 0.218783
vn 0.975772 -1.3846e-05 0.218788
vn 0.218801 -3.54302e-05 -0.975769
vn 0.218801 -3.57318e-05 -0.975769
vn -0.978543 1.4353e-05 -0.206042
vn -0.978543 1.43739e-05 -0.206042
vn 0.975788 -1.37973e-05 0.218719
vn 0.218801 -3.56238e-05 -0.97577
vn -0.975756 1.39204e-05 -0.218861
vn -0.975756 1.37892e-05 -0.218861
vn -0.218433 3.56491e-05 0.975852
vn -0.218433 3.56176e-05 0.975852
vn -0.975736 1.37859e-05 -0.218951
vn -0.218813 3.56253e-05 0.975767
vn -0.975758 1.38189e-05 -0.218852
vn -0.975758 1.37895e-05 -0.218852
vn 0.218688 -3.55056e-05 -0.975795
vn 0.218688 -3.54909e-05 -0.975795
vn -0.975724 1.38791e-05 -0.219002
vn 0.21853 -3.55034e-05 -0.97583
vn -0.975768 1.38702e-05 -0.218806
vn -0.975768 1.38862e-05 -0.218806
vn -0.218792 3.55304e-05 0.975772
vn -0.218805 3.55257e-05 0.975769
vn 0.97581 -1.38205e-05 0.218622
vn -0.219988 3.55334e-05 0.975502
vn 0.978543 -1.43521e-05 0.206042
vn 0.978543 -1.42583e-05 0.206042
vn -0.21873 3.55344e-05 0.975785
vn -0.21873 3.55242e-05 0.975785
vn -0.218824 3.55414e-05 0.975764
vn -0.218824 3.55414e-05 0.975764
vn 0.975772 -1.38878e-05 0.218788
vn 0.975772 -1.38967e-05 0.218788
vn -0.218531 3.55017e-05 0.97583
vn 0.975738 -1.38901e-05 0.218943
vn 0.975738 -1.3882e-05 0.218942
vn 0.21941 -3.55519e-05 -0.975633
vn 0.975826 -1.38955e-05 0.218549
vn 0.975826 -1.39004e-05 0.218549
vn 0.975776 -1.38916e-05 0.218774
vn 0.975776 -1.35911e-05 0.218773
vn 0.975679 -1.35725e-05 0.219206
vn 0.975678 -1.38758e-05 0.219208
vn 0 1 0
vn -1.77981e-23 -1 -6.12323e-17
vn 0 -1 -6.12323e-17
vn 1.65786e-23 -1 -6.12323e-17
vn 3.64272e-24 -1 -6.12323e-17
vn -1.07961e-23 -1 -6.12323e-17
vn 0 -1 -6.12323e-17
vn 2.12684e-24 -1 -6.12323e-17
vn 1.88258e-23 -1 -6.12323e-17
vn -1.09019e-22 -1 -6.12322e-17
vn 1.27091e-22 -1 -6.12325e-17
vn 4.57914e-24 -1 -6.12323e-17
vn 3.4153e-23 -1 -6.12324e-17
vn 0 -1 0

# Mesh 'defaultobject' with 204 faces
g defaultobject
usemtl DefaultMaterial
f  1//1 2//1 3//1
f  2//1 1//1 4//2
f  5//3 4//3 1//3
f  4//3 5//3 6//4
f  7//5 5//5 8//5
f  5//5 7//5 6//5
f  9//6 7//6 8//6
f  7//6 9//6 10//7
f  11//8 10//8 9//8
f  10//8 11//8 12//8
f  13//9 12//9 11//9
f  12//9 13//9 14//10
f  15//11 13//11 16//11
f  13//11 15//11 14//11
f  17//12 15//12 16//12
f  15//12 17//12 18//12
f  19//13 18//13 17//13
f  18//13 19//13 20//14
f  21//9 20//9 19//9
f  20//9 21//9 22//10
f  23//15 21//15 24//15
f  21//15 23//15 22//15
f  25//16 23//16 24//16
f  23//16 25//16 26//16
f  27//17 26//17 25//17
f  26//17 27//17 28//18
f  29//19 28//19 27//19
f  28//19 29//19 30//20
f  31//21 29//21 32//21
f  29//21 31//21 30//22
f  33//23 31//23 32//23
f  31//23 33//23 34//24
f  35//25 34//25 33//25
f  34//25 35//25 36//26
f  37//27 36//27 35//27
f  36//27 37//27 38//27
f  39//28 37//28 40//28
f  37//28 39//28 38//28
f  41//29 39//29 40//29
f  39//29 41//29 42//30
f  43//31 42//31 41//31
f  42//31 43//31 44//32
f  45//33 44//33 43//33
f  44//33 45//33 46//34
f  47//35 46//35 45//35
f  46//35 47//35 48//36
f  49//37 48//37 47//37
f  48//37 49//37 50//38
f  51//39 49//39 52//39
f  49//39 51//39 50//40
f  53//41 51//41 52//41
f  51//41 53//41 54//42
f  55//43 53//43 56//43
f  53//43 55//43 54//44
f  57//45 56//45 58//45
f  56//45 57//45 55//46
f  59//47 60//47 61//47
f  60//47 59//47 62//47
f  63//48 59//48 64//48
f  59//48 63//48 62//48
f  65//49 64//49 66//49
f  64//49 65//49 63//50
f  67//51 65//51 66//51
f  65//51 67//51 68//52
f  69//53 67//53 70//53
f  67//53 69//53 68//53
f  71//54 69//54 70//54
f  69//54 71//54 72//54
f  73//55 71//55 74//55
f  71//55 73//55 72//56
f  75//57 74//57 76//57
f  74//57 75//57 73//58
f  77//59 76//59 78//59
f  76//59 77//59 75//59
f  79//60 78//60 80//60
f  78//60 79//60 77//60
f  81//61 80//61 82//61
f  80//61 81//61 79//62
f  83//63 81//63 82//63
f  81//63 83//63 84//63
f  85//64 84//64 83//64
f  84//64 85//64 86//64
f  87//65 86//65 85//65
f  86//65 87//65 88//65
f  89//66 88//66 87//66
f  88//66 89//66 90//66
f  61//67 90//67 89//67
f  90//67 61//67 60//68
f  91//69 57//69 58//69
f  57//69 91//69 92//70
f  93//71 92//71 91//71
f  92//71 93//71 94//72
f  95//73 94//73 93//73
f  94//73 95//73 96//74
f  97//75 96//75 95//75
f  96//75 97//75 98//75
f  99//76 98//76 97//76
f  98//76 99//76 100//77
f  101//78 99//78 102//78
f  99//78 101//78 100//78
f  103//79 101//79 102//79
f  101//79 103//79 104//80
f  105//81 104//81 103//81
f  104//81 105//81 106//82
f  3//83 106//83 105//83
f  106//83 3//83 2//84
f  63//85 60//85 62//85
f  60//85 63//85 72//85
f  60//85 72//85 90//85
f  90//85 72//85 73//85
f  90//85 73//85 75//85
f  90//85 75//85 88//85
f  88//85 75//85 86//85
f  86//85 75//85 77//85
f  86//85 77//85 84//85
f  84//85 77//85 79//85
f  84//85 79//85 81//85
f  63//85 68//85 72//85
f  68//85 63//85 65//85
f  69//85 72//85 68//85
f  98//85 101//85 96//85
f  101//85 98//85 100//85
f  4//85 7//85 2//85
f  7//85 4//85 6//85
f  12//85 15//85 10//85
f  15//85 12//85 14//85
f  20//85 23//85 18//85
f  23//85 20//85 22//85
f  28//85 31//85 26//85
f  31//85 28//85 30//85
f  36//85 39//85 34//85
f  39//85 36//85 38//85
f  48//85 51//85 46//85
f  51//85 48//85 50//85
f  92//85 55//85 57//85
f  55//85 92//85 94//85
f  55//85 94//85 96//85
f  55//85 96//85 31//85
f  55//85 31//85 44//85
f  55//85 44//85 54//85
f  31//85 96//85 106//85
f  106//85 96//85 104//85
f  104//85 96//85 101//85
f  31//85 106//85 26//85
f  26//85 106//85 10//85
f  10//85 106//85 7//85
f  7//85 106//85 2//85
f  26//85 10//85 15//85
f  26//85 15//85 23//85
f  23//85 15//85 18//85
f  44//85 31//85 39//85
f  39//85 31//85 34//85
f  44//85 39//85 42//85
f  54//85 44//85 51//85
f  51//85 44//85 46//85
f  61//86 64//86 59//86
f  64//86 61//86 66//87
f  66//87 61//86 67//88
f  61//86 71//89 67//88
f  71//89 61//86 89//90
f  71//89 89//90 74//91
f  74//91 89//90 76//92
f  76//92 89//90 78//93
f  78//93 89//90 80//94
f  80//94 89//90 87//95
f  80//94 87//95 82//87
f  82//87 87//95 83//87
f  83//87 87//95 85//96
f  70//97 67//88 71//89
f  56//98 91//98 58//98
f  91//98 56//98 93//98
f  93//98 56//98 95//98
f  95//98 56//98 102//98
f  95//98 102//98 97//98
f  102//98 56//98 103//98
f  103//98 56//98 105//98
f  105//98 56//98 3//98
f  3//98 56//98 8//98
f  3//98 8//98 1//98
f  8//98 56//98 9//98
f  9//98 56//98 16//98
f  9//98 16//98 11//98
f  16//98 56//98 17//98
f  17//98 56//98 19//98
f  19//98 56//98 24//98
f  24//98 56//98 25//98
f  25//98 56//98 27//98
f  27//98 56//98 32//98
f  32//98 56//98 33//98
f  33//98 56//98 40//98
f  40//98 56//98 43//98
f  43//98 56//98 53//98
f  33//98 40//98 35//98
f  40//98 43//98 41//98
f  43//98 53//98 52//98
f  43//98 52//98 45//98
f  45//98 52//98 47//98
f  49//98 47//98 52//98
f  37//98 35//98 40//98
f  29//98 27//98 32//98
f  21//98 19//98 24//98
f  13//98 11//98 16//98
f  5//98 1//98 8//98
f  99//98 97//98 102//98

