# {"id":"BLDG_00030009007e83d8","idOriginal":"BLDG_00030009007e83d8","origin":[13.371524027910517,52.5477585831911],"elevation":36.3400001525879}
# Longitude: 13.371524027910517
# Latitude: 52.5477585831911
# Elevation: 36.3400001525879

# File produced by Open Asset Import Library (http://www.assimp.sf.net)
# (assimp v3.1.0)

mtllib BLDG_00030009007e83d8.obj.mtl

# 12 vertex positions
v  1.3257 15.5525 10.4329
v  0 0 0
v  1.32537 -6.3886e-16 10.4334
v  0.000331671 15.5525 -0.000492699
v  16.2887 -5.23495e-16 8.54932
v  16.289 15.5525 8.54882
v  14.9517 1.15442e-16 -1.88531
v  14.9521 15.5525 -1.8858
v  8.60615 15.5525 -1.08562
v  8.60582 6.6445e-17 -1.08513
v  6.15723 15.5525 -0.77726
v  6.1569 4.75633e-17 -0.776767

# 0 UV coordinates

# 15 vertex normals
vn -0.992028 2.51413e-05 0.126019
vn -0.992028 2.51481e-05 0.126019
vn 0.124925 2.87215e-05 0.992166
vn 0.124925 2.87865e-05 0.992166
vn 0.991892 -2.51925e-05 -0.127087
vn 0.991892 -2.51867e-05 -0.127087
vn -0.125102 -2.87608e-05 -0.992144
vn -0.124931 -2.87651e-05 -0.992165
vn -0.12517 -2.87612e-05 -0.992135
vn -0.12517 -2.87591e-05 -0.992135
vn 0 1 0
vn 2.67009e-24 -1 -6.12323e-17
vn 0 -1 -6.12323e-17
vn -6.29417e-24 -1 -6.12323e-17
vn -4.48278e-22 -1 -6.12348e-17

# Mesh 'defaultobject' with 20 faces
g defaultobject
usemtl DefaultMaterial
f  1//1 2//1 3//1
f  2//1 1//1 4//2
f  5//3 1//3 3//3
f  1//3 5//3 6//4
f  7//5 6//5 5//5
f  6//5 7//5 8//6
f  9//7 7//7 10//7
f  7//7 9//7 8//7
f  11//8 10//8 12//8
f  10//8 11//8 9//8
f  4//9 12//9 2//9
f  12//9 4//9 11//10
f  1//11 11//11 4//11
f  11//11 1//11 9//11
f  9//11 1//11 6//11
f  9//11 6//11 8//11
f  2//12 5//12 3//12
f  5//12 2//12 10//13
f  5//12 10//13 7//14
f  10//13 2//12 12//15

