# {"id":"BLDG_0003000b006b458f","idOriginal":"BLDG_0003000b006b458f","origin":[13.34763972045664,52.553388212310196],"elevation":35.8800010681152}
# Longitude: 13.34763972045664
# Latitude: 52.553388212310196
# Elevation: 35.8800010681152

# File produced by Open Asset Import Library (http://www.assimp.sf.net)
# (assimp v3.1.0)

mtllib BLDG_0003000b006b458f.obj.mtl

# 8 vertex positions
v  5.08304 4.40172 4.95425
v  0 0 0
v  5.08295 -3.03369e-16 4.95439
v  9.3729e-05 4.40172 -0.0001395
v  21.7984 7.75514e-16 -12.6651
v  21.7984 4.40172 -12.6652
v  16.6488 1.07468e-15 -17.5508
v  16.6489 4.40172 -17.5509

# 0 UV coordinates

# 9 vertex normals
vn -0.697993 3.75499e-05 0.716104
vn -0.697993 3.75578e-05 0.716104
vn 0.725475 6.28029e-06 0.688249
vn 0.688277 -3.76032e-05 -0.725448
vn -0.725504 -6.36242e-06 -0.688218
vn -0.725504 -6.36553e-06 -0.688218
vn 0 -1 -6.12323e-17
vn 4.93264e-24 -1 -6.12323e-17
vn 0 1 0

# Mesh 'defaultobject' with 12 faces
g defaultobject
usemtl DefaultMaterial
f  1//1 2//1 3//1
f  2//1 1//1 4//2
f  5//3 1//3 3//3
f  1//3 5//3 6//3
f  7//4 6//4 5//4
f  6//4 7//4 8//4
f  4//5 7//5 2//5
f  7//5 4//5 8//6
f  2//7 5//7 3//7
f  5//7 2//7 7//8
f  4//9 6//9 8//9
f  6//9 4//9 1//9

