# {"id":"BLDG_0003000800382ac2","idOriginal":"BLDG_0003000800382ac2","origin":[13.344444378071463,52.55526937959099],"elevation":36.5400009155273}
# Longitude: 13.344444378071463
# Latitude: 52.55526937959099
# Elevation: 36.5400009155273

# File produced by Open Asset Import Library (http://www.assimp.sf.net)
# (assimp v3.1.0)

mtllib BLDG_0003000800382ac2.obj.mtl

# 14 vertex positions
v  2.51295 -1.48225e-16 2.4207
v  7.43627 -7.47282e-17 1.2204
v  4.43047 -2.61338e-16 4.26797
v  0 0 0
v  7.11664 -4.47209e-17 0.730348
v  3.30933 2.1675e-16 -3.5398
v  7.39661 -2.26437e-17 0.3698
v  8.5417e-05 4.01221 -0.00012718
v  7.3967 4.01221 0.369672
v  3.30942 4.01221 -3.53993
v  2.51303 4.01221 2.42057
v  7.11672 4.01221 0.730221
v  4.43056 4.01221 4.26784
v  7.43635 4.01221 1.22028

# 0 UV coordinates

# 18 vertex normals
vn -1.16133e-24 -1 -6.12323e-17
vn -8.86217e-25 -1 -6.12323e-17
vn 0 -1 -6.12323e-17
vn 2.57663e-24 -1 -6.12323e-17
vn -0 1 0
vn -0.693764 3.75695e-05 0.720203
vn -0.693764 3.7599e-05 0.720203
vn -0.693792 3.7612e-05 0.720176
vn -0.693792 3.75692e-05 0.720176
vn 0.711969 7.10779e-06 0.70221
vn 0.837589 -3.51413e-05 -0.5463
vn 0.837589 -3.51286e-05 -0.546301
vn 0.789831 2.63197e-06 0.613325
vn 0.789831 2.63604e-06 0.613325
vn 0.691225 -3.757e-05 -0.72264
vn 0.691225 -3.7612e-05 -0.72264
vn -0.730487 -6.09613e-06 -0.682927
vn -0.730487 -6.13061e-06 -0.682927

# Mesh 'defaultobject' with 24 faces
g defaultobject
usemtl DefaultMaterial
f  1//1 2//1 3//1
f  2//1 1//1 4//2
f  2//1 4//2 5//3
f  5//3 4//2 6//3
f  5//3 6//3 7//4
f  8//5 9//5 10//5
f  9//5 8//5 11//5
f  9//5 11//5 12//5
f  12//5 11//5 13//5
f  12//5 13//5 14//5
f  11//6 4//6 1//6
f  4//6 11//6 8//7
f  13//8 1//8 3//8
f  1//8 13//8 11//9
f  2//10 13//10 3//10
f  13//10 2//10 14//10
f  5//11 14//11 2//11
f  14//11 5//11 12//12
f  7//13 12//13 5//13
f  12//13 7//13 9//14
f  6//15 9//15 7//15
f  9//15 6//15 10//16
f  8//17 6//17 4//17
f  6//17 8//17 10//18

