# {"id":"BLDG_0003000000191358","idOriginal":"BLDG_0003000000191358","origin":[13.39909749696282,52.5378174684614],"elevation":46.4799995422363}
# Longitude: 13.39909749696282
# Latitude: 52.5378174684614
# Elevation: 46.4799995422363

# File produced by Open Asset Import Library (http://www.assimp.sf.net)
# (assimp v3.1.0)

mtllib BLDG_0003000000191358.obj.mtl

# 10 vertex positions
v  0.000110541 5.17446 -0.00016381
v  2.82315 7.09427e-17 -1.15858
v  0 0 0
v  2.82326 5.17446 -1.15875
v  5.48709 5.17446 4.88691
v  5.48698 -2.99247e-16 4.88707
v  2.66383 -3.7019e-16 6.04565
v  2.66394 5.17446 6.04549
v  4.07552 5.6458 5.46619
v  2.02692 5.6458 0.816813

# 0 UV coordinates

# 16 vertex normals
vn -0.379659 -2.11766e-05 -0.925126
vn -0.379659 -2.11673e-05 -0.925126
vn 0.915106 -3.21936e-05 -0.403213
vn 0.915106 -3.2361e-05 -0.403213
vn 0.379659 2.11597e-05 0.925126
vn 0.379659 2.11422e-05 0.925126
vn 0.379659 2.11338e-05 0.925126
vn -0.915106 3.2267e-05 0.403213
vn -0.915106 3.2314e-05 0.403213
vn 0 -1 -6.12323e-17
vn -2.62675e-24 -1 -6.12323e-17
vn -0.112091 0.955422 -0.273136
vn 0.270178 0.955422 -0.119046
vn 0.270178 0.955422 -0.119046
vn -0.270173 0.955424 0.119043
vn -0.270173 0.955424 0.119043

# Mesh 'defaultobject' with 16 faces
g defaultobject
usemtl DefaultMaterial
f  1//1 2//1 3//1
f  2//1 1//1 4//2
f  2//3 5//3 6//3
f  5//3 2//3 4//4
f  5//5 7//5 6//5
f  7//5 5//5 8//6
f  8//6 5//5 9//7
f  8//8 3//8 7//8
f  3//8 8//8 1//9
f  2//10 7//10 3//10
f  7//10 2//10 6//11
f  10//12 4//12 1//12
f  9//13 4//13 10//13
f  4//13 9//13 5//14
f  8//15 10//15 1//15
f  10//15 8//15 9//16

