# {"id":"BLDG_000300060004c68e","idOriginal":"BLDG_000300060004c68e","origin":[13.382713158566261,52.52163663553245],"elevation":33.1800003051758}
# Longitude: 13.382713158566261
# Latitude: 52.52163663553245
# Elevation: 33.1800003051758

# File produced by Open Asset Import Library (http://www.assimp.sf.net)
# (assimp v3.1.0)

mtllib BLDG_000300060004c68e.obj.mtl

# 33 vertex positions
v  10.2618 -3.26882e-16 5.33839
v  25.5314 -1.12317e-16 1.83428
v  10.2621 14.82 5.33792
v  10.2621 17.67 5.33783
v  25.5317 14.82 1.83381
v  33.0633 17.67 0.105389
v  33.0632 14.82 0.105479
v  38.808 14.82 3.68112
v  43.6982 -1.53031e-15 24.9919
v  38.8077 -2.25432e-16 3.68159
v  42.8842 14.82 21.4432
v  43.6985 14.82 24.9914
v  30.6748 14.82 24.2451
v  30.6745 -1.48461e-15 24.2456
v  10.5975 17.67 6.79909
v  10.5971 -4.16359e-16 6.79965
v  2.0129 17.67 8.76912
v  2.01253 -5.36988e-16 8.76968
v  0 0 0
v  0.000377071 17.67 -0.000558821
v  1.67718 -4.4751e-16 7.30839
v  34.1309 14.82 4.75447
v  34.1306 -2.91156e-16 4.75494
v  39.0213 14.82 26.0648
v  39.021 -1.59604e-15 26.0653
v  38.2067 -1.37877e-15 22.517
v  38.207 14.82 22.5166
v  8.58465 1.20608e-16 -1.96968
v  31.3865 4.41022e-16 -7.20244
v  31.3861 14.82 -7.2026
v  8.58503 17.67 -1.97024
v  31.3862 17.67 -7.20269
v  33.0636 -6.47666e-18 0.105772

# 0 UV coordinates

# 44 vertex normals
vn 0.223668 2.60629e-05 0.974665
vn 0.223668 2.60307e-05 0.974665
vn 0.223668 2.60485e-05 0.974665
vn 0.223668 2.59759e-05 0.974666
vn 0.223668 2.60332e-05 0.974665
vn 0.974664 -2.78975e-05 -0.223676
vn 0.974664 -2.77758e-05 -0.223675
vn 0.974664 -2.7876e-05 -0.223676
vn -0.974665 2.77504e-05 0.223672
vn -0.974665 2.78974e-05 0.223672
vn 0.974664 -2.79059e-05 -0.223672
vn 0.974664 -2.78348e-05 -0.223673
vn 0.974664 -2.7948e-05 -0.223673
vn 0.223671 2.59939e-05 0.974665
vn 0.223671 2.60429e-05 0.974665
vn -0.974664 2.78727e-05 0.223673
vn -0.974664 2.78697e-05 0.223673
vn -0.974664 2.78669e-05 0.223673
vn -0.223674 -2.60483e-05 -0.974664
vn 0.223674 2.60821e-05 0.974664
vn 0.223674 2.59547e-05 0.974664
vn -0.974662 2.79049e-05 0.223682
vn 0.22367 2.59883e-05 0.974665
vn 0.22367 2.60799e-05 0.974665
vn -0.223632 -2.60522e-05 -0.974674
vn -0.223674 -4.75889e-05 -0.974664
vn -0.223657 -1.64852e-05 -0.974668
vn -0.223632 0.000278405 -0.974674
vn -0.223668 -2.60307e-05 -0.974666
vn 0.974665 -2.79467e-05 -0.223669
vn 0.974665 2.40786e-05 -0.223672
vn 0.974665 2.40605e-05 -0.223672
vn 0.974651 -2.78991e-05 -0.223733
vn 0 1 0
vn 0.974665 -2.79371e-05 -0.223669
vn 6.41269e-24 -1 -6.12323e-17
vn 0 -1 -6.12323e-17
vn -3.87426e-23 -1 -6.12323e-17
vn 1.20288e-23 -1 -6.12323e-17
vn -4.54556e-23 -1 -6.12323e-17
vn 0 -1 -6.12323e-17
vn 0 -1 -6.12323e-17
vn 2.00449e-24 -1 -6.12323e-17
vn 8.01812e-24 -1 -6.12323e-17

# Mesh 'defaultobject' with 62 faces
g defaultobject
usemtl DefaultMaterial
f  1//1 2//1 3//1
f  4//2 3//1 2//1
f  5//3 4//2 2//1
f  6//4 4//2 5//3
f  7//5 6//4 5//3
f  8//6 9//6 10//6
f  9//6 8//6 11//7
f  9//6 11//7 12//8
f  13//9 2//9 14//9
f  2//9 13//9 5//10
f  1//11 15//11 16//11
f  15//11 1//11 3//12
f  15//11 3//12 4//13
f  16//14 17//14 18//14
f  17//14 16//14 15//15
f  19//16 17//16 20//16
f  17//16 19//16 21//17
f  17//16 21//17 18//18
f  10//19 22//19 8//19
f  22//19 10//19 23//19
f  9//20 24//20 25//20
f  24//20 9//20 12//21
f  26//22 24//22 27//22
f  24//22 26//22 25//22
f  26//23 13//23 14//23
f  13//23 26//23 27//24
f  20//25 28//25 19//25
f  28//26 20//26 29//26
f  29//27 20//27 30//27
f  30//28 20//28 31//28
f  30//29 31//29 32//29
f  6//30 7//30 32//30
f  30//31 33//31 29//31
f  33//31 30//31 23//32
f  23//33 30//33 22//33
f  22//34 30//34 7//34
f  7//30 30//35 32//30
f  21//36 19//36 28//36
f  9//37 23//37 10//37
f  23//37 9//37 26//38
f  23//37 26//38 14//39
f  26//38 9//37 25//40
f  33//41 28//36 29//41
f  28//36 33//41 2//42
f  28//36 2//42 1//42
f  28//36 1//42 21//36
f  2//42 33//41 14//39
f  14//39 33//41 23//37
f  1//42 18//43 21//36
f  18//43 1//42 16//44
f  13//34 7//34 5//34
f  7//34 13//34 22//34
f  22//34 13//34 8//34
f  8//34 13//34 27//34
f  8//34 27//34 11//34
f  11//34 27//34 24//34
f  11//34 24//34 12//34
f  15//34 4//34 17//34
f  17//34 31//34 20//34
f  31//34 17//34 32//34
f  32//34 17//34 4//34
f  32//34 4//34 6//34

