# {"id":"BLDG_00030008003008be","idOriginal":"BLDG_00030008003008be","origin":[13.401687059179535,52.52346325857781],"elevation":35.3300018310547}
# Longitude: 13.401687059179535
# Latitude: 52.52346325857781
# Elevation: 35.3300018310547

# File produced by Open Asset Import Library (http://www.assimp.sf.net)
# (assimp v3.1.0)

mtllib BLDG_00030008003008be.obj.mtl

# 21 vertex positions
v  10.9808 4.62466e-16 -7.55264
v  12.3858 2.24207e-16 -3.66157
v  8.94209 3.76605e-16 -6.15043
v  14.6114 4.61555e-16 -7.53776
v  16.2742 3.87969e-16 -6.33602
v  21.3699 -1.73374e-16 2.83141
v  23.1649 8.30267e-17 -1.35593
v  3.4896 -1.50467e-16 2.45731
v  0 0 0
v  17.3471 -7.47982e-16 12.2155
v  16.2747 23.14 -6.33675
v  8.94259 23.14 -6.15116
v  12.3863 23.14 -3.6623
v  10.9813 23.14 -7.55338
v  14.6119 23.14 -7.5385
v  23.1654 23.14 -1.35666
v  12.3864 27.68 -3.66245
v  21.3705 27.68 2.83053
v  3.49019 27.68 2.45643
v  0.000494398 23.14 -0.000731871
v  17.3476 27.1096 12.2146

# 0 UV coordinates

# 30 vertex normals
vn 1.33648e-23 -1 -6.12324e-17
vn -7.50589e-24 -1 -6.12323e-17
vn 5.80484e-24 -1 -6.12323e-17
vn -2.14876e-24 -1 -6.12323e-17
vn -5.60304e-24 -1 -6.12323e-17
vn 0 -1 -6.12323e-17
vn 0 -1 -6.12323e-17
vn 0 -1 -6.12323e-17
vn 0 1 0
vn 0.418545 0.699597 -0.579123
vn 0.418545 0.699597 -0.579123
vn -0.425108 0.661273 -0.618063
vn -0.425108 0.661273 -0.618063
vn 0.0203255 0.999357 0.0295512
vn -0.0334834 0.998365 0.0463296
vn -0.5667 -1.39635e-05 -0.823924
vn -0.5667 -1.39401e-05 -0.823924
vn 0.00409848 -3.17186e-05 -0.999992
vn 0.00409848 -3.17184e-05 -0.999992
vn 0.585757 -3.81401e-05 -0.810487
vn -0.5667 -1.39054e-05 -0.823924
vn 0.585756 -3.81594e-05 -0.810487
vn 0.919106 -7.17298e-06 0.39401
vn 0.919106 -7.16004e-06 0.39401
vn -0.575755 3.81589e-05 0.817623
vn -0.575755 3.8161e-05 0.817623
vn -0.5667 -1.39512e-05 -0.823924
vn 0.585756 -3.81733e-05 -0.810487
vn -0.575755 3.81722e-05 0.817623
vn 0.919106 -7.19419e-06 0.39401

# Mesh 'defaultobject' with 38 faces
g defaultobject
usemtl DefaultMaterial
f  1//1 2//1 3//1
f  2//1 1//1 4//2
f  2//1 4//2 5//3
f  5//3 6//4 2//1
f  6//4 5//3 7//5
f  8//6 3//1 2//1
f  3//1 8//6 9//7
f  2//1 10//8 8//6
f  10//8 2//1 6//4
f  11//9 12//9 13//9
f  12//9 11//9 14//9
f  14//9 11//9 15//9
f  16//10 17//10 18//10
f  17//10 16//10 11//11
f  12//12 19//12 17//12
f  19//12 12//12 20//13
f  19//14 21//14 17//14
f  17//15 21//15 18//15
f  12//16 1//16 3//16
f  1//16 12//16 14//17
f  14//18 4//18 1//18
f  4//18 14//18 15//19
f  4//20 11//20 5//20
f  11//20 4//20 15//20
f  17//21 11//21 13//21
f  5//20 16//22 7//22
f  16//22 5//20 11//20
f  7//23 18//23 6//23
f  18//23 7//23 16//24
f  19//25 9//25 8//25
f  9//25 19//25 20//26
f  20//27 3//16 9//27
f  3//16 20//27 12//16
f  17//28 13//28 12//28
f  21//29 8//25 10//29
f  8//25 21//29 19//25
f  6//23 21//30 10//30
f  21//30 6//23 18//23

