# {"id":"BLDG_000300090031ee19","idOriginal":"BLDG_000300090031ee19","origin":[13.356271246973984,52.55583263023658],"elevation":39.6500015258789}
# Longitude: 13.356271246973984
# Latitude: 52.55583263023658
# Elevation: 39.6500015258789

# File produced by Open Asset Import Library (http://www.assimp.sf.net)
# (assimp v3.1.0)

mtllib BLDG_000300090031ee19.obj.mtl

# 8 vertex positions
v  7.9087e-05 3.71204 -0.000117661
v  7.1114 3.71204 -0.770763
v  3.73233 3.71204 -3.8599
v  3.26468 3.71204 3.17076
v  0 0 0
v  3.2646 -1.9416e-16 3.17088
v  7.11132 4.71884e-17 -0.770645
v  3.73225 2.36343e-16 -3.85978

# 0 UV coordinates

# 10 vertex normals
vn 0 1 0
vn -0.696735 3.7571e-05 0.717329
vn -0.696735 3.75815e-05 0.717329
vn 0.715661 6.81058e-06 0.698448
vn 0.715661 6.85722e-06 0.698448
vn 0.674734 -3.77658e-05 -0.738061
vn -0.718883 -6.71738e-06 -0.695131
vn -0.718883 -6.68172e-06 -0.695131
vn -4.20127e-24 -1 -6.12323e-17
vn -8.66613e-24 -1 -6.12323e-17

# Mesh 'defaultobject' with 12 faces
g defaultobject
usemtl DefaultMaterial
f  1//1 2//1 3//1
f  2//1 1//1 4//1
f  4//2 5//2 6//2
f  5//2 4//2 1//3
f  7//4 4//4 6//4
f  4//4 7//4 2//5
f  8//6 2//6 7//6
f  2//6 8//6 3//6
f  1//7 8//7 5//7
f  8//7 1//7 3//8
f  6//9 8//9 7//9
f  8//9 6//9 5//10

