# {"id":"BLDG_0003000b004985d0","idOriginal":"BLDG_0003000b004985d0","origin":[13.33717778428782,52.52625331172719],"elevation":33.4500007629395}
# Longitude: 13.33717778428782
# Latitude: 52.52625331172719
# Elevation: 33.4500007629395

# File produced by Open Asset Import Library (http://www.assimp.sf.net)
# (assimp v3.1.0)

mtllib BLDG_0003000b004985d0.obj.mtl

# 36 vertex positions
v  2.11086 22.2421 -12.842
v  8.96682 18.7389 -18.0044
v  3.13494 18.7389 -19.0737
v  14.8051 18.7389 -16.9339
v  19.9112 18.7389 -15.9977
v  18.8847 22.2421 -9.76652
v  7.94275 22.2421 -11.7727
v  13.7785 22.2421 -10.7027
v  5.85701 4.82956 0.916902
v  1.08637 6.06392 -6.60975
v  0.000129027 6.06392 -0.00019185
v  6.91823 4.82956 -5.54043
v  11.7131 18.7389 1.83335
v  12.7518 18.7389 -4.47132
v  17.8581 22.2421 -3.53521
v  10.6959 18.7389 8.00778
v  16.8413 22.2421 2.63618
v  16.0363 22.2421 7.52288
v  6.91852 18.7389 -5.54087
v  1.08664 18.7389 -6.61015
v  0 0 0
v  6.91813 3.39244e-16 -5.54027
v  5.8569 -5.61534e-17 0.917055
v  1.08624 4.04719e-16 -6.60956
v  18.8842 5.97984e-16 -9.76582
v  19.9108 9.79541e-16 -15.9971
v  2.11039 7.86304e-16 -12.8413
v  14.8047 1.03687e-15 -16.9333
v  8.96642 1.10241e-15 -18.0038
v  3.13454 1.16789e-15 -19.0731
v  10.6955 -4.90371e-16 8.00837
v  16.8409 -1.61463e-16 2.63689
v  16.0358 -4.60687e-16 7.52359
v  11.7127 -1.12297e-16 1.83394
v  17.8576 2.16426e-16 -3.53451
v  12.7514 2.73753e-16 -4.47073

# 0 UV coordinates

# 65 vertex normals
vn 0.0874951 0.874428 -0.477201
vn 0.0874952 0.874428 -0.477201
vn 0.0874951 0.874428 -0.477201
vn 0.0874952 0.874428 -0.477201
vn 0 1 0
vn 0.201152 0.979002 0.033058
vn 0.201152 0.979002 0.033058
vn -0.551995 0.828873 -0.0909417
vn -0.551995 0.828873 -0.0909415
vn -0.551995 0.828873 -0.0909417
vn -0.551995 0.828873 -0.0909417
vn -0.551995 0.828873 -0.0909417
vn -0.0874925 0.874436 0.477187
vn -0.0874925 0.874436 0.477187
vn -0.0874926 0.874436 0.477187
vn -0.0874926 0.874436 0.477187
vn -0.0874925 0.874436 0.477187
vn -6.82331e-25 -1 -6.12323e-17
vn -6.66616e-25 -1 -6.12323e-17
vn -1.41406e-24 -1 -6.12323e-17
vn -4.91709e-24 -1 -6.12323e-17
vn 3.93251e-24 -1 -6.12323e-17
vn 5.6526e-24 -1 -6.12323e-17
vn -4.94382e-24 -1 -6.12324e-17
vn 1.27265e-23 -1 -6.12323e-17
vn 1.33862e-23 -1 -6.12323e-17
vn -4.07477e-24 -1 -6.12323e-17
vn -4.07677e-24 -1 -6.12323e-17
vn 2.39435e-24 -1 -6.12323e-17
vn 0.986699 -1.58389e-05 0.162559
vn 0.986699 -1.58288e-05 0.162559
vn 0.986699 -1.5697e-05 0.162559
vn 0.986699 -1.59686e-05 0.162559
vn 0.986699 -1.58158e-05 0.162559
vn 0.986699 -1.67098e-05 0.16256
vn 0.986699 -1.60168e-05 0.162559
vn 0.986699 -1.52594e-05 0.162559
vn 0.180345 -3.4875e-05 -0.983603
vn 0.180344 -3.50343e-05 -0.983604
vn 0.180345 -3.47142e-05 -0.983603
vn 0.180344 -3.5021e-05 -0.983604
vn 0.180345 -3.49228e-05 -0.983603
vn 0.180344 -3.49728e-05 -0.983604
vn -0.986699 1.58485e-05 -0.162559
vn -0.986699 1.58307e-05 -0.162559
vn -0.986699 1.58527e-05 -0.162559
vn 0 1 5.55112e-17
vn -0.180344 3.49113e-05 0.983604
vn -0.180344 3.49481e-05 0.983604
vn -0.180344 3.49627e-05 0.983603
vn -0.180344 3.49627e-05 0.983604
vn -0.180344 3.49585e-05 0.983603
vn -0.986763 1.58655e-05 -0.162168
vn -0.986763 1.5888e-05 -0.162168
vn -0.986763 1.5888e-05 -0.162168
vn -0.986763 1.58721e-05 -0.162168
vn -0.986763 1.58872e-05 -0.162168
vn -0.986763 1.58813e-05 -0.162168
vn -0.986763 1.57981e-05 -0.162168
vn 0.090407 2.95501e-05 0.995905
vn 0.0904072 2.95895e-05 0.995905
vn 0.986763 -1.59175e-05 0.162168
vn 0.986763 -1.5827e-05 0.162168
vn -0.154692 3.45539e-05 0.987963
vn -0.154692 3.45417e-05 0.987963

# Mesh 'defaultobject' with 68 faces
g defaultobject
usemtl DefaultMaterial
f  1//1 2//1 3//1
f  2//1 1//1 4//2
f  4//2 1//1 5//3
f  5//3 1//1 6//4
f  6//5 1//5 7//5
f  6//5 7//5 8//5
f  9//6 10//6 11//6
f  10//6 9//6 12//7
f  13//8 6//8 14//8
f  6//8 13//8 15//9
f  15//9 13//8 16//10
f  15//9 16//10 17//11
f  17//11 16//10 18//12
f  8//13 14//13 6//13
f  14//13 8//13 7//14
f  14//13 7//14 1//15
f  14//13 1//15 19//16
f  19//16 1//15 20//17
f  21//18 22//18 23//18
f  22//18 21//18 24//19
f  22//18 24//19 25//20
f  25//20 24//19 26//21
f  26//21 24//19 27//22
f  26//21 27//22 28//23
f  28//23 27//22 29//24
f  29//24 27//22 30//25
f  31//26 32//26 33//26
f  32//26 31//26 34//27
f  32//26 34//27 35//28
f  35//28 34//27 36//29
f  35//28 36//29 25//20
f  25//20 36//29 22//18
f  32//30 18//30 33//30
f  18//30 32//30 35//31
f  18//30 35//31 25//32
f  18//30 25//32 26//33
f  18//30 26//33 5//34
f  18//30 5//34 17//35
f  17//35 5//34 15//36
f  15//36 5//34 6//37
f  3//38 29//38 30//38
f  29//38 3//38 28//39
f  28//39 3//38 26//40
f  26//40 3//38 2//41
f  26//40 2//41 4//42
f  26//40 4//42 5//43
f  36//44 13//44 14//44
f  13//44 36//44 16//45
f  16//45 36//44 31//46
f  31//47 36//47 34//47
f  36//48 12//48 22//48
f  12//48 36//48 14//49
f  12//48 14//49 19//50
f  12//48 19//50 20//51
f  20//51 10//52 12//48
f  11//53 24//53 21//53
f  24//53 11//53 27//54
f  27//54 11//53 30//55
f  30//55 11//53 10//56
f  30//55 10//56 3//57
f  3//57 10//56 20//58
f  3//57 20//58 1//59
f  33//60 16//60 31//60
f  16//60 33//60 18//61
f  22//62 9//62 23//62
f  9//62 22//62 12//63
f  23//64 11//64 21//64
f  11//64 23//64 9//65

