# {"id":"BLDG_0003000b0061ff60","idOriginal":"BLDG_0003000b0061ff60","origin":[13.404008847408985,52.53815975242622],"elevation":49.3800010681152}
# Longitude: 13.404008847408985
# Latitude: 52.53815975242622
# Elevation: 49.3800010681152

# File produced by Open Asset Import Library (http://www.assimp.sf.net)
# (assimp v3.1.0)

mtllib BLDG_0003000b0061ff60.obj.mtl

# 27 vertex positions
v  11.9909 21.0338 -4.82465
v  12.0318 21.8659 -25.7538
v  4.32111 21.0338 -22.3632
v  19.8054 21.8659 -7.9686
v  22.15 21.8554 -3.2104
v  20.0297 21.8554 -8.05885
v  28.0685 21.0338 -11.293
v  32.3091 21.0338 -1.59609
v  16.2315 21.0338 4.87225
v  14.1112 21.8554 0.0237746
v  2.08717 21.8554 4.86127
v  0.000449481 21.0338 -0.00066591
v  4.17385 21.0338 9.72326
v  26.3721 20.9423 -10.6105
v  20.1781 21.0338 -29.3361
v  18.5043 20.9423 -28.6
v  20.1777 1.79628e-15 -29.3354
v  4.32066 1.36931e-15 -22.3625
v  28.0681 6.91456e-16 -11.2923
v  19.9432 21.8465 -8.02403
v  11.9904 2.95384e-16 -4.82398
v  11.9909 20.1666 -4.82462
v  28.0685 20.7037 -11.293
v  32.3087 9.76918e-17 -1.59543
v  16.231 -2.9838e-16 4.87292
v  0 0 0
v  4.1734 -5.95419e-16 9.72392

# 0 UV coordinates

# 41 vertex normals
vn -0.0900712 0.995156 0.0393891
vn -0.0901175 0.995152 0.0393889
vn -0.0865198 0.995531 0.0378361
vn 0.0865203 0.995531 -0.0378363
vn 0.0865204 0.995531 -0.0378363
vn 0.0572855 0.988152 0.142388
vn 0.0572855 0.988152 0.142388
vn -0.0572858 0.988152 -0.142389
vn -0.0572858 0.988152 -0.142389
vn -0.0572858 0.988152 -0.142389
vn 0.0572855 0.988152 0.142388
vn 0.0572855 0.988152 0.142388
vn -0.0457941 0.99875 0.0200285
vn -0.045815 0.998749 0.0200354
vn 0.118684 0.991576 -0.0518746
vn 0.118597 0.991587 -0.0518696
vn -0.402537 -2.03647e-05 -0.915404
vn -0.402537 -2.03903e-05 -0.915404
vn -0.402537 -2.03556e-05 -0.915404
vn -0.402537 -2.03813e-05 -0.915404
vn 0.916221 -3.22329e-05 -0.400674
vn 0.373243 3.32482e-05 0.927734
vn -0.916221 3.22554e-05 0.400674
vn -0.916221 3.22671e-05 0.400674
vn 0.373245 2.17863e-05 0.927733
vn 0.373245 2.0951e-05 0.927733
vn -0.373245 -2.65505e-05 -0.927733
vn -0.373245 -2.08561e-05 -0.927733
vn 0.916221 -3.22842e-05 -0.400674
vn 0.373245 2.13697e-05 0.927733
vn 0.373245 2.13906e-05 0.927733
vn -0.91894 3.21266e-05 0.394398
vn -0.91894 3.21235e-05 0.394398
vn -0.91894 3.22518e-05 0.394398
vn -0.373245 -2.13951e-05 -0.927733
vn -0.373245 -2.14106e-05 -0.927733
vn 0.373245 2.13917e-05 0.927733
vn 4.96607e-24 -1 -6.12323e-17
vn -2.55447e-24 -1 -6.12323e-17
vn 0 -1 -6.12323e-17
vn 4.62019e-24 -1 -6.12323e-17

# Mesh 'defaultobject' with 46 faces
g defaultobject
usemtl DefaultMaterial
f  1//1 2//1 3//1
f  2//2 1//2 4//2
f  1//3 5//3 6//3
f  5//4 7//4 6//4
f  7//4 5//4 8//5
f  9//6 5//6 10//6
f  5//6 9//6 8//7
f  5//8 1//8 10//8
f  1//8 11//9 10//8
f  11//9 1//8 12//10
f  10//6 13//11 9//6
f  13//11 10//6 11//12
f  14//13 15//13 16//13
f  15//14 14//14 7//14
f  4//15 16//15 2//15
f  16//16 4//16 14//16
f  3//17 17//17 18//17
f  17//17 3//17 16//18
f  17//17 16//18 15//19
f  16//18 3//17 2//20
f  17//21 7//21 19//21
f  7//21 17//21 15//21
f  1//22 20//22 4//22
f  1//23 18//23 21//23
f  18//23 1//23 3//24
f  22//25 14//25 1//25
f  20//26 1//25 14//25
f  6//27 23//27 20//27
f  23//27 6//27 7//28
f  19//21 8//29 24//29
f  8//29 19//21 7//21
f  24//30 9//30 25//30
f  9//30 24//30 8//31
f  13//32 26//32 27//32
f  26//32 13//32 12//33
f  12//33 13//32 11//34
f  12//35 21//35 26//35
f  21//35 12//35 1//36
f  25//30 13//37 27//37
f  13//37 25//30 9//30
f  19//38 18//38 17//38
f  18//38 19//38 21//39
f  19//38 25//40 21//39
f  25//40 19//38 24//41
f  21//39 27//40 26//40
f  27//40 21//39 25//40

