# {"id":"BLDG_00030000001c8669","idOriginal":"BLDG_00030000001c8669","origin":[13.34683158917047,52.55608615059331],"elevation":36.44}
# Longitude: 13.34683158917047
# Latitude: 52.55608615059331
# Elevation: 36.44

# File produced by Open Asset Import Library (http://www.assimp.sf.net)
# (assimp v3.1.0)

mtllib BLDG_00030000001c8669.obj.mtl

# 36 vertex positions
v  2.6376 -1.37329e-06 2.60771
v  9.30121 -1.37329e-06 -9.64248
v  6.20488 -1.37329e-06 6.13455
v  3.23915 -1.37329e-06 -3.35799
v  0 -1.37329e-06 -8.40898e-23
v  12.2696 -1.37329e-06 12.1306
v  11.7319 -1.37329e-06 5.03849
v  15.5011 -1.37329e-06 8.76501
v  8.4799 -1.37329e-06 8.38378
v  15.1031 6.31613e-16 -10.315
v  12.4608 -1.37329e-06 -12.918
v  6.63496 -1.37329e-06 -18.657
v  3.4754 -1.37329e-06 -15.3815
v  17.833 7.57887e-17 -1.23772
v  18.7261 4.13072e-16 -6.74598
v  21.0052 2.75598e-16 -4.50085
v  3.47577 17.3 -15.3821
v  12.4612 19.6 -12.9186
v  6.63538 19.6 -18.6576
v  9.30158 17.3 -9.64303
v  15.5543 19.18 -3.48351
v  21.0055 17.3 -4.5014
v  18.7265 19.18 -6.74659
v  9.45727 19.18 2.78864
v  6.20528 19.18 6.13394
v  17.8334 17.3 -1.23827
v  11.7323 17.3 5.03794
v  11.9441 19.51 -7.04001
v  15.1035 19.51 -10.3156
v  5.87717 19.51 -0.750904
v  2.63802 19.51 2.60709
v  3.23952 17.3 -3.35854
v  0.000368364 17.3 -0.000548391
v  15.5015 17.3 8.76446
v  8.48032 19.6 8.38316
v  12.27 19.6 12.1299

# 0 UV coordinates

# 56 vertex normals
vn 0 -1 0
vn -1.18858e-07 -1 -1.15543e-07
vn 4.38927e-07 -1 8.20269e-08
vn 7.27256e-24 -1 -6.12323e-17
vn -0.31655 0.892491 0.321336
vn 0.363282 0.862151 0.35316
vn 0.363281 0.86216 0.353139
vn 0.363291 0.862148 0.353158
vn 0.363291 0.862148 0.353158
vn 0.363291 0.862148 0.353158
vn 0.0466083 0.997901 0.0449547
vn 0.046608 0.997901 0.0449614
vn 0.0466056 0.997901 0.0449561
vn 0.0470721 0.997843 0.0457606
vn 0.0470702 0.997843 0.0457565
vn 0 1 0
vn -0.368421 0.859065 -0.35535
vn -0.368405 0.859065 -0.355366
vn -0.368414 0.859048 -0.355398
vn -0.368426 0.859048 -0.355386
vn -0.368426 0.859048 -0.355386
vn 0.31089 0.89692 -0.314454
vn 0.31089 0.89692 -0.314454
vn -0.300923 0.892373 0.336327
vn 0.224998 0.891152 -0.393985
vn -0.703065 3.75088e-05 0.711125
vn -0.703065 3.74297e-05 0.711125
vn -0.703065 3.75375e-05 0.711125
vn -0.703065 3.75448e-05 0.711125
vn -0.703065 3.7512e-05 0.711125
vn -0.703065 3.70098e-05 0.711125
vn -0.703065 3.66427e-05 0.711125
vn -0.703065 3.74957e-05 0.711125
vn 0.701782 -3.74603e-05 -0.712392
vn 0.701782 -3.75062e-05 -0.712392
vn 0.701782 -3.73539e-05 -0.712392
vn 0.701782 -3.7628e-05 -0.712392
vn 0.701782 -3.74341e-05 -0.712392
vn 0.701782 -3.75273e-05 -0.712392
vn 0.664494 -0.321624 -0.674541
vn 0 1 8.32667e-17
vn 0.717036 6.8559e-06 0.697036
vn 0.717036 6.88993e-06 0.697036
vn 0.717036 6.79716e-06 0.697036
vn -0.719728 -6.65299e-06 -0.694256
vn -0.719728 -6.68743e-06 -0.694256
vn -0.719728 -6.66679e-06 -0.694256
vn -0.719729 -6.68215e-06 -0.694256
vn 0.703065 -3.75035e-05 -0.711125
vn 0.703065 -3.75347e-05 -0.711125
vn 0.721326 6.55949e-06 0.692596
vn 0.721326 6.60452e-06 0.692596
vn -0.701782 3.74745e-05 0.712392
vn -0.701782 3.75234e-05 0.712392
vn -0.719728 -6.68133e-06 -0.694256
vn -0.719728 -6.63607e-06 -0.694256

# Mesh 'defaultobject' with 68 faces
g defaultobject
usemtl DefaultMaterial
f  1//1 2//1 3//1
f  2//1 1//1 4//1
f  4//1 1//1 5//1
f  6//1 7//1 8//1
f  7//1 6//1 9//1
f  7//1 9//1 10//2
f  10//2 9//1 11//3
f  11//3 9//1 3//1
f  11//3 3//1 2//1
f  11//3 2//1 12//1
f  12//1 2//1 13//1
f  14//4 15//4 16//4
f  15//4 14//4 7//1
f  15//4 7//1 10//2
f  17//5 18//5 19//5
f  18//5 17//5 20//5
f  21//6 22//6 23//6
f  22//7 21//7 24//7
f  22//6 24//8 25//8
f  22//6 25//8 26//9
f  26//9 25//8 27//10
f  28//11 23//11 29//11
f  23//11 28//11 30//12
f  23//11 30//12 31//13
f  23//14 31//14 21//14
f  21//14 31//14 25//15
f  21//16 25//16 24//16
f  20//17 28//17 29//17
f  28//18 20//18 32//18
f  28//19 32//19 30//19
f  30//20 32//20 33//20
f  30//20 33//20 31//21
f  34//22 35//22 36//22
f  35//22 34//22 27//23
f  29//24 18//24 20//24
f  25//25 35//25 27//25
f  36//26 9//26 6//26
f  9//26 36//26 3//27
f  3//27 36//26 1//28
f  1//28 36//26 5//29
f  5//29 36//26 33//30
f  33//30 36//26 25//31
f  25//31 36//26 35//32
f  31//33 33//30 25//31
f  18//34 12//34 19//34
f  12//34 18//34 29//35
f  12//34 29//35 23//36
f  12//34 23//36 22//37
f  12//34 22//37 10//38
f  10//38 22//37 16//39
f  12//40 10//40 11//40
f  10//41 16//41 15//41
f  22//42 14//42 16//42
f  14//42 22//42 7//43
f  7//43 22//42 27//44
f  27//23 22//6 26//9
f  2//45 32//45 20//45
f  32//45 2//45 33//46
f  33//46 2//45 4//47
f  33//46 4//47 5//48
f  7//49 34//49 8//49
f  34//49 7//49 27//50
f  8//51 36//51 6//51
f  36//51 8//51 34//52
f  20//53 13//53 2//53
f  13//53 20//53 17//54
f  17//55 12//55 13//55
f  12//55 17//55 19//56

