# {"id":"BLDG_0003000000290dec","idOriginal":"BLDG_0003000000290dec","origin":[13.368324340511894,52.49941907683491],"elevation":35.1399993896484}
# Longitude: 13.368324340511894
# Latitude: 52.49941907683491
# Elevation: 35.1399993896484

# File produced by Open Asset Import Library (http://www.assimp.sf.net)
# (assimp v3.1.0)

mtllib BLDG_0003000000290dec.obj.mtl

# 12 vertex positions
v  1.37536 24.4772 -7.56357
v  12.8917 23.0429 2.33697
v  14.2665 24.4772 -5.22587
v  0.000491245 23.0429 -0.00072766
v  2.75017 23.0429 -15.1263
v  15.6414 23.0429 -12.7886
v  14.266 3.19945e-16 -5.2251
v  2.74968 9.26175e-16 -15.1256
v  15.6409 7.83033e-16 -12.7879
v  12.8912 -1.43143e-16 2.3377
v  0 0 0
v  1.37484 4.63088e-16 -7.5628

# 0 UV coordinates

# 19 vertex normals
vn -0.0327298 0.983033 0.180487
vn -0.0327298 0.983033 0.180487
vn 0.0327302 0.983032 -0.18049
vn 0.0327302 0.983032 -0.18049
vn 4.20542e-24 -1 -6.12323e-17
vn 0 -1 -6.12323e-17
vn 0 -1 -6.12323e-17
vn 0 -1 -5.55112e-17
vn 0.983875 -1.53225e-05 0.178859
vn 0.983875 -1.53288e-05 0.178859
vn 0.983875 -1.53633e-05 0.178859
vn 0.983875 -1.48777e-05 0.178859
vn -0.983875 1.53269e-05 -0.178859
vn -0.983875 1.53342e-05 -0.178859
vn -0.983875 1.53225e-05 -0.178859
vn -0.983875 1.53967e-05 -0.178859
vn -0.178431 3.48749e-05 0.983952
vn -0.178431 3.48813e-05 0.983952
vn 0.178431 -3.48746e-05 -0.983952

# Mesh 'defaultobject' with 20 faces
g defaultobject
usemtl DefaultMaterial
f  1//1 2//1 3//1
f  2//1 1//1 4//2
f  5//3 3//3 6//3
f  3//3 5//3 1//4
f  7//5 8//5 9//5
f  8//5 7//5 10//6
f  8//5 10//6 11//7
f  8//5 11//7 12//8
f  6//9 7//9 9//9
f  7//9 6//9 10//10
f  10//10 6//9 2//11
f  2//11 6//9 3//12
f  4//13 12//13 11//13
f  12//13 4//13 8//14
f  8//14 4//13 5//15
f  5//15 4//13 1//16
f  10//17 4//17 11//17
f  4//17 10//17 2//18
f  5//19 9//19 8//19
f  9//19 5//19 6//19

