# {"id":"BLDG_0003000e003a2fef","idOriginal":"BLDG_0003000e003a2fef","origin":[13.345520554157723,52.50999112517858],"elevation":32.689998626709}
# Longitude: 13.345520554157723
# Latitude: 52.50999112517858
# Elevation: 32.689998626709

# File produced by Open Asset Import Library (http://www.assimp.sf.net)
# (assimp v3.1.0)

mtllib BLDG_0003000e003a2fef.obj.mtl

# 16 vertex positions
v  4.00175 -3.59662e-16 5.87372
v  14.0839 4.09002e-16 -6.67951
v  17.3825 2.88614e-18 -0.0471342
v  1.87644 -3.25963e-16 5.32338
v  2.69933 -1.29886e-16 2.1212
v  0.70608 2.04788e-17 -0.334444
v  0 0 0
v  10.7471 3.12101e-16 -5.09699
v  1.87662 8.39548 5.32312
v  4.00193 8.39548 5.87345
v  17.3827 8.39548 -0.0473995
v  14.0841 8.39548 -6.67978
v  10.7473 8.39548 -5.09726
v  0.706259 8.39548 -0.334709
v  0.000178726 8.39548 -0.00026532
v  2.6995 8.39548 2.12093

# 0 UV coordinates

# 23 vertex normals
vn 0 -1 -6.12323e-17
vn 0 -1 -6.12323e-17
vn 0 -1 -6.12323e-17
vn 4.65419e-24 -1 -6.12323e-17
vn 4.13503e-24 -1 -6.12323e-17
vn 1.28697e-19 -1 -6.1088e-17
vn -0.250677 3.59087e-05 0.968071
vn -0.250677 3.59669e-05 0.968071
vn 0.404646 2.03088e-05 0.914473
vn 0.404646 2.02467e-05 0.914473
vn 0.895376 -3.31548e-05 -0.445311
vn 0.895376 -3.31854e-05 -0.445311
vn -0.428519 -1.94301e-05 -0.903533
vn -0.428519 -1.94327e-05 -0.903533
vn -0.428546 -1.94333e-05 -0.90352
vn -0.428546 -1.94291e-05 -0.90352
vn -0.428071 -1.94479e-05 -0.903745
vn -0.428071 -1.94506e-05 -0.903745
vn -0.617875 3.80122e-05 0.786276
vn -0.617875 3.8002e-05 0.786276
vn -0.968532 1.27689e-05 -0.248889
vn -0.968532 1.27619e-05 -0.248889
vn 0 1 0

# Mesh 'defaultobject' with 28 faces
g defaultobject
usemtl DefaultMaterial
f  1//1 2//1 3//1
f  2//1 1//1 4//2
f  2//1 4//2 5//3
f  2//1 5//3 6//4
f  6//4 5//3 7//5
f  2//1 6//4 8//6
f  1//7 9//7 4//7
f  9//7 1//7 10//8
f  3//9 10//9 1//9
f  10//9 3//9 11//10
f  2//11 11//11 3//11
f  11//11 2//11 12//12
f  13//13 2//13 8//13
f  2//13 13//13 12//14
f  14//15 8//15 6//15
f  8//15 14//15 13//16
f  15//17 6//17 7//17
f  6//17 15//17 14//18
f  16//19 7//19 5//19
f  7//19 16//19 15//20
f  9//21 5//21 4//21
f  5//21 9//21 16//22
f  10//23 16//23 9//23
f  16//23 10//23 11//23
f  16//23 11//23 14//23
f  14//23 11//23 13//23
f  13//23 11//23 12//23
f  14//23 15//23 16//23

