# {"id":"BLDG_00030009007acce9","idOriginal":"BLDG_00030009007acce9","origin":[13.328446961470021,52.52383016899312],"elevation":32.0699996948242}
# Longitude: 13.328446961470021
# Latitude: 52.52383016899312
# Elevation: 32.0699996948242

# File produced by Open Asset Import Library (http://www.assimp.sf.net)
# (assimp v3.1.0)

mtllib BLDG_00030009007acce9.obj.mtl

# 25 vertex positions
v  26.4192 -2.91292e-16 4.75716
v  10.7567 6.20759e-16 -10.1378
v  29.2053 9.32137e-17 -1.5223
v  23.6331 -6.75798e-16 11.0366
v  5.11681 -1.46317e-16 2.38954
v  5.63991 7.67076e-16 -12.5273
v  2.81995 3.83538e-16 -6.26365
v  0 0 0
v  5.11681 0.32 2.38953
v  -2.6508 0.32 5.88793
v  6.80599e-06 0.32 -1.013e-05
v  2.48939 0.32 8.22553
v  29.2057 21.9783 -1.52299
v  7.93736 28.1231 -3.875
v  26.4198 28.1231 4.75627
v  10.7572 21.9783 -10.1385
v  2.82055 28.1231 -6.26454
v  5.64037 21.9783 -12.528
v  5.11727 21.9783 2.38885
v  23.6335 21.9783 11.0359
v  0.000467389 21.9783 -0.00069521
v  5.11733 24.363 2.38877
v  -2.65026 25.7496 5.88713
v  2.48991 24.363 8.22477
v  0.000547588 25.7496 -0.0008145

# 0 UV coordinates

# 43 vertex normals
vn 6.0567e-24 -1 -6.12323e-17
vn 0 -1 -6.12323e-17
vn 2.72967e-24 -1 -6.12323e-17
vn 1.09187e-23 -1 -6.12323e-17
vn -0 -1 0
vn 0.28213 0.745269 -0.604133
vn 0.28213 0.745269 -0.604133
vn 0.28213 0.745269 -0.604133
vn -0.282119 0.745291 0.604111
vn -0.282119 0.745291 0.604111
vn -0.282119 0.745291 0.60411
vn 0.21745 0.97115 0.0978978
vn 0.21745 0.97115 0.0978978
vn 0.914069 -6.60594e-06 0.40556
vn 0.914069 -6.61947e-06 0.40556
vn 0.914069 -6.60594e-06 0.40556
vn 0.914069 -6.77753e-06 0.40556
vn -0.91185 6.40529e-06 -0.410523
vn -0.91185 6.41792e-06 -0.410523
vn -0.91185 6.94171e-06 -0.410524
vn -0.91185 6.38279e-06 -0.410523
vn -0.91185 6.43583e-06 -0.410523
vn -0.91185 6.40614e-06 -0.410523
vn -0.91185 6.40585e-06 -0.410523
vn -0.91185 6.41664e-06 -0.410523
vn 0.423133 -3.76577e-05 -0.906068
vn 0.423133 -3.75883e-05 -0.906068
vn 0.423133 -3.76693e-05 -0.906068
vn 0.423133 -3.76577e-05 -0.906068
vn -0.423133 3.76577e-05 0.906068
vn -0.423133 3.76498e-05 0.906068
vn -0.423133 3.76675e-05 0.906068
vn -0.423133 3.76822e-05 0.906068
vn -0.423133 3.76583e-05 0.906068
vn 0.423133 -3.76583e-05 -0.906068
vn 0.423133 -3.76648e-05 -0.906068
vn 0.423133 -3.76146e-05 -0.906068
vn 0.423133 -3.76792e-05 -0.906068
vn 0.91185 -6.40206e-06 0.410523
vn 0.91185 -6.4052e-06 0.410523
vn 0.91185 -6.56101e-06 0.410523
vn -0.413972 3.75971e-05 0.91029
vn -0.413972 3.76229e-05 0.91029

# Mesh 'defaultobject' with 48 faces
g defaultobject
usemtl DefaultMaterial
f  1//1 2//1 3//1
f  2//1 1//1 4//2
f  2//1 4//2 5//2
f  2//1 5//2 6//3
f  6//3 5//2 7//4
f  7//4 5//2 8//2
f  9//5 10//5 11//5
f  10//5 9//5 12//5
f  13//6 14//6 15//6
f  14//6 13//6 16//7
f  14//6 16//7 17//6
f  17//6 16//7 18//8
f  15//9 19//9 20//9
f  19//9 15//9 14//10
f  19//9 14//10 21//10
f  21//10 14//10 17//11
f  22//12 23//12 24//12
f  23//12 22//12 25//13
f  13//14 1//14 3//14
f  1//14 13//14 4//15
f  4//15 13//14 20//16
f  20//16 13//14 15//17
f  7//18 18//18 6//18
f  18//18 7//18 8//19
f  18//18 8//19 11//20
f  18//18 11//20 10//21
f  18//18 10//21 21//22
f  21//22 10//21 23//23
f  21//22 23//23 25//24
f  17//25 18//18 21//22
f  3//26 16//26 13//26
f  16//26 3//26 18//27
f  18//27 3//26 2//28
f  18//27 2//28 6//29
f  20//30 5//30 4//30
f  5//30 20//30 8//31
f  8//31 20//30 19//32
f  8//31 19//32 11//33
f  11//33 19//32 21//34
f  21//35 9//35 11//35
f  9//35 21//35 19//36
f  19//36 21//35 25//37
f  19//36 25//37 22//38
f  9//39 24//39 12//39
f  24//39 9//39 19//40
f  24//39 19//40 22//41
f  12//42 23//42 10//42
f  23//42 12//42 24//43

