# {"id":"BLDG_0003000e000d0ec6","idOriginal":"BLDG_0003000e000d0ec6","origin":[13.339571094509179,52.517008816576286],"elevation":34.25}
# Longitude: 13.339571094509179
# Latitude: 52.517008816576286
# Elevation: 34.25

# File produced by Open Asset Import Library (http://www.assimp.sf.net)
# (assimp v3.1.0)

mtllib BLDG_0003000e000d0ec6.obj.mtl

# 48 vertex positions
v  56.6865 12.3785 1.1976
v  0.977309 12.3785 7.71843
v  1.19637 12.3785 9.22822
v  0.000263424 12.3785 -0.000391371
v  3.69518 12.3785 -0.535524
v  3.53412 12.3785 -1.64507
v  6.89121 12.3785 -2.1311
v  9.3609 12.3785 -2.48814
v  12.5714 12.3785 -2.95314
v  8.73013 12.3785 -7.28311
v  8.6645 12.3785 -7.77931
v  42.4949 12.3785 -7.28587
v  45.5601 12.3785 -7.72923
v  41.6799 12.3785 -12.2766
v  41.6288 12.3785 -12.5894
v  47.5674 12.3785 -8.02
v  51.2447 12.3785 -7.4203
v  55.3118 12.3785 -8.00999
v  56.468 12.3785 -0.311568
v  51.084 12.3785 -8.52923
v  44.6861 12.3785 -13.0885
v  44.7444 12.3785 -12.7346
v  11.8024 12.3785 -8.19749
v  11.8616 12.3785 -7.79417
v  8.72986 4.45938e-16 -7.28271
v  12.5712 1.80804e-16 -2.95275
v  9.36064 1.5233e-16 -2.48774
v  11.8613 4.77231e-16 -7.79378
v  8.66424 4.76322e-16 -7.77892
v  11.8022 5.01927e-16 -8.1971
v  41.6796 7.517e-16 -12.2762
v  45.5598 4.73255e-16 -7.72884
v  42.4947 4.46107e-16 -7.28548
v  44.7442 7.79746e-16 -12.7342
v  41.6285 7.70856e-16 -12.589
v  44.6859 8.01414e-16 -13.0881
v  51.0837 5.22241e-16 -8.52884
v  51.2445 4.54338e-16 -7.41991
v  47.5672 4.91059e-16 -8.01961
v  0.977045 -4.72641e-16 7.71882
v  56.6862 -7.3356e-17 1.19799
v  1.19611 -5.6509e-16 9.22861
v  0 0 0
v  3.69492 3.27674e-17 -0.535132
v  3.53385 1.00708e-16 -1.64468
v  6.89095 1.30468e-16 -2.1307
v  56.4677 1.90541e-17 -0.311177
v  55.3115 4.90447e-16 -8.0096

# 0 UV coordinates

# 55 vertex normals
vn 0 1 0
vn 0 -1 -6.12323e-17
vn -1.36423e-23 -1 -6.12323e-17
vn -2.70318e-24 -1 -6.12323e-17
vn -2.66444e-24 -1 -6.12323e-17
vn 0 -1 -6.12323e-17
vn -6.73843e-24 -1 -6.12323e-17
vn 8.0013e-24 -1 -6.12322e-17
vn -1.4891e-24 -1 -6.12324e-17
vn -6.64825e-24 -1 -6.12323e-17
vn 3.71342e-24 -1 -6.12323e-17
vn 1.21315e-25 -1 -6.12323e-17
vn 0 -1 -6.12323e-17
vn 2.70595e-24 -1 -6.12323e-17
vn -1.32384e-23 -1 -6.12323e-17
vn -0.989637 2.55981e-05 0.143591
vn -0.989637 2.55989e-05 0.143591
vn 0.14323 2.82292e-05 0.98969
vn 0.14323 2.82732e-05 0.98969
vn 0.989684 -2.55741e-05 -0.143267
vn 0.988908 -2.57311e-05 -0.148527
vn 0.988908 -2.57212e-05 -0.148527
vn -0.143494 -2.82475e-05 -0.989651
vn -0.143494 -2.82093e-05 -0.989651
vn 0.989653 -2.55814e-05 -0.143481
vn 0.989653 -2.5576e-05 -0.143481
vn -0.143316 -2.82139e-05 -0.989677
vn -0.143356 -2.8251e-05 -0.989671
vn -0.143356 -2.82129e-05 -0.989671
vn 0.986981 -2.60763e-05 -0.160836
vn 0.986981 -2.60687e-05 -0.160836
vn 0.986714 -2.61133e-05 -0.162467
vn -0.161095 -2.77494e-05 -0.986939
vn -0.986914 2.60789e-05 0.161246
vn -0.986926 2.6083e-05 0.161174
vn -0.986926 2.60768e-05 0.161174
vn -0.143299 -2.82525e-05 -0.989679
vn 0.98942 -2.56268e-05 -0.145081
vn 0.98942 -2.56977e-05 -0.145081
vn 0.989414 -2.56988e-05 -0.145122
vn 0.989413 -2.56228e-05 -0.145124
vn -0.132097 -2.85298e-05 -0.991237
vn -0.132097 -2.85018e-05 -0.991237
vn -0.991367 2.53033e-05 0.131118
vn -0.991458 2.52045e-05 0.130426
vn -0.991458 2.52833e-05 0.130426
vn -0.143081 -2.82581e-05 -0.989711
vn -0.143081 -2.82391e-05 -0.989711
vn -0.143281 -2.82407e-05 -0.989682
vn -0.143281 -2.8253e-05 -0.989682
vn -0.989627 2.56043e-05 0.143661
vn -0.143334 -2.82402e-05 -0.989674
vn -0.143334 -2.82393e-05 -0.989674
vn -0.992084 2.50813e-05 0.125578
vn -0.992084 2.50826e-05 0.125578

# Mesh 'defaultobject' with 92 faces
g defaultobject
usemtl DefaultMaterial
f  1//1 2//1 3//1
f  2//1 1//1 4//1
f  4//1 1//1 5//1
f  5//1 1//1 6//1
f  6//1 1//1 7//1
f  7//1 1//1 8//1
f  8//1 1//1 9//1
f  8//1 9//1 10//1
f  10//1 9//1 11//1
f  9//1 1//1 12//1
f  12//1 1//1 13//1
f  12//1 13//1 14//1
f  14//1 13//1 15//1
f  13//1 1//1 16//1
f  16//1 1//1 17//1
f  17//1 1//1 18//1
f  18//1 1//1 19//1
f  20//1 16//1 17//1
f  13//1 21//1 15//1
f  21//1 13//1 22//1
f  9//1 23//1 11//1
f  23//1 9//1 24//1
f  25//2 26//2 27//2
f  26//2 25//2 28//3
f  28//3 25//2 29//4
f  28//3 29//4 30//5
f  31//6 32//6 33//6
f  32//6 31//6 34//7
f  34//7 31//6 35//8
f  34//7 35//8 36//9
f  37//10 38//10 39//10
f  40//11 41//11 42//11
f  41//11 40//11 43//12
f  41//11 43//12 44//13
f  41//11 44//13 45//2
f  41//11 45//2 46//2
f  41//11 46//2 27//2
f  41//11 27//2 26//2
f  41//11 26//2 33//6
f  41//11 33//6 47//14
f  47//14 33//6 38//10
f  47//14 38//10 48//15
f  38//10 33//6 32//6
f  38//10 32//6 39//10
f  3//16 40//16 42//16
f  40//16 3//16 2//17
f  41//18 3//18 42//18
f  3//18 41//18 1//19
f  47//20 1//20 41//20
f  1//20 47//20 19//20
f  48//21 19//21 47//21
f  19//21 48//21 18//22
f  17//23 48//23 38//23
f  48//23 17//23 18//24
f  37//25 17//25 38//25
f  17//25 37//25 20//26
f  16//27 37//27 39//27
f  37//27 16//27 20//27
f  13//28 39//28 32//28
f  39//28 13//28 16//29
f  34//30 13//30 32//30
f  13//30 34//30 22//31
f  36//32 22//32 34//32
f  22//32 36//32 21//32
f  15//33 36//33 35//33
f  36//33 15//33 21//33
f  14//34 35//34 31//34
f  35//34 14//34 15//34
f  12//35 31//35 33//35
f  31//35 12//35 14//36
f  9//37 33//37 26//37
f  33//37 9//37 12//37
f  28//38 9//38 26//38
f  9//38 28//38 24//39
f  30//40 24//40 28//40
f  24//40 30//40 23//41
f  11//42 30//42 29//42
f  30//42 11//42 23//43
f  10//44 29//44 25//44
f  29//44 10//44 11//44
f  8//45 25//45 27//45
f  25//45 8//45 10//46
f  7//47 27//47 46//47
f  27//47 7//47 8//48
f  6//49 46//49 45//49
f  46//49 6//49 7//50
f  5//51 45//51 44//51
f  45//51 5//51 6//51
f  4//52 44//52 43//52
f  44//52 4//52 5//53
f  2//54 43//54 40//54
f  43//54 2//54 4//55

