# {"id":"BLDG_0003000f00302416","idOriginal":"BLDG_0003000f00302416","origin":[13.384931877275134,52.55066006319279],"elevation":41.1599998474121}
# Longitude: 13.384931877275134
# Latitude: 52.55066006319279
# Elevation: 41.1599998474121

# File produced by Open Asset Import Library (http://www.assimp.sf.net)
# (assimp v3.1.0)

mtllib BLDG_0003000f00302416.obj.mtl

# 33 vertex positions
v  26.1669 -1.61977e-15 26.4529
v  41.1561 -9.18403e-16 14.9987
v  28.2716 -1.75006e-15 28.5807
v  39.0513 -7.88113e-16 12.8709
v  28.5418 -1.37556e-16 2.24646
v  43.3031 -5.13671e-16 8.38889
v  31.6861 8.50947e-17 -1.3897
v  16.2655 -1.00686e-15 16.4433
v  14.0434 9.94435e-16 -16.2404
v  12.2763 8.69306e-16 -14.1968
v  0 0 0
v  40.2495 6.91488e-16 -11.2929
v  52.3286 6.89048e-17 -1.1253
v  31.6864 15.4392 -1.39019
v  40.2498 15.4392 -11.2933
v  52.329 15.4392 -1.12579
v  43.3034 15.4392 8.3884
v  28.2721 21.7432 28.58
v  26.1673 21.7432 26.4522
v  41.1566 21.7432 14.998
v  39.0518 21.7432 12.8702
v  39.0516 15.4392 12.8704
v  16.266 21.7432 16.4426
v  28.5421 15.4392 2.24597
v  28.5423 21.7432 2.24577
v  12.2769 28.3585 -14.1977
v  14.044 28.3585 -16.2413
v  31.6867 28.3652 -1.3906
v  22.8653 28.3652 -8.81593
v  28.5424 28.3585 2.24556
v  16.2661 28.3585 16.4424
v  0.00060529 28.3585 -0.00089857
v  20.4096 28.3652 -5.97609

# 0 UV coordinates

# 40 vertex normals
vn -1.70155e-23 -1 -6.12324e-17
vn 3.78122e-24 -1 -6.12323e-17
vn 0 -1 -6.12323e-17
vn 5.80256e-24 -1 -6.12323e-17
vn 3.21517e-24 -1 -6.12323e-17
vn -3.39927e-24 -1 -6.12323e-17
vn 4.89296e-25 -1 -6.12323e-17
vn -4.26108e-24 -1 -6.12323e-17
vn -8.19613e-24 -1 -6.12323e-17
vn -0.756417 -4.5603e-06 -0.654089
vn -0.756417 -4.65374e-06 -0.654089
vn 0.643975 -3.80898e-05 -0.765047
vn 0.643975 -3.79333e-05 -0.765047
vn 0.725492 6.36815e-06 0.688231
vn 0.725492 6.17974e-06 0.688231
vn -0.71094 3.74249e-05 0.703252
vn 0.71094 -3.75164e-05 -0.703252
vn 0.71094 -3.73918e-05 -0.703253
vn 0.725492 6.33507e-06 0.688231
vn 0.725492 6.29759e-06 0.688231
vn 0.725492 6.3991e-06 0.688231
vn -0.71094 3.74249e-05 0.703253
vn -0.71094 3.74873e-05 0.703253
vn 0.71094 -3.74149e-05 -0.703253
vn 0.71094 -3.74958e-05 -0.703253
vn -0.756417 -4.59319e-06 -0.654089
vn 0.643975 -3.79658e-05 -0.765047
vn 0.643975 -3.8013e-05 -0.765047
vn 0.643975 0.000197837 -0.765047
vn 0.756417 4.53001e-06 0.654089
vn 0.756418 4.54301e-06 0.654089
vn -0.71094 3.74838e-05 0.703253
vn -0.71094 3.74577e-05 0.703253
vn -0.756418 -4.58038e-06 -0.654089
vn 0.756417 4.67004e-06 0.654089
vn 0 1 0
vn -0.000438853 1 -0.000379485
vn -0.000438853 1 -0.000379485
vn -0.000896171 0.999999 0.00106466
vn 0.000438853 1 0.000379485

# Mesh 'defaultobject' with 57 faces
g defaultobject
usemtl DefaultMaterial
f  1//1 2//1 3//1
f  2//1 1//1 4//2
f  5//3 6//3 4//2
f  6//3 5//3 7//4
f  8//5 4//2 1//1
f  4//2 8//5 5//3
f  9//6 5//3 10//6
f  5//3 9//6 7//4
f  11//7 5//3 8//5
f  5//3 11//7 10//6
f  12//8 6//3 7//4
f  6//3 12//8 13//9
f  14//10 12//10 7//10
f  12//10 14//10 15//11
f  12//12 16//12 13//12
f  16//12 12//12 15//13
f  13//14 17//14 6//14
f  17//14 13//14 16//15
f  18//16 1//16 3//16
f  1//16 18//16 19//16
f  4//17 20//17 2//17
f  20//17 4//17 21//18
f  2//19 18//19 3//19
f  18//19 2//19 20//20
f  6//14 22//21 4//21
f  22//21 6//14 17//14
f  19//16 8//22 1//16
f  8//22 19//16 23//23
f  24//24 21//18 22//24
f  21//18 24//24 25//25
f  26//26 9//26 10//26
f  9//26 26//26 27//26
f  27//27 7//27 9//27
f  7//27 27//27 28//28
f  28//29 27//29 29//29
f  14//30 30//30 24//30
f  30//30 14//30 28//31
f  31//32 11//32 8//22
f  11//32 31//32 32//33
f  32//34 10//26 11//34
f  10//26 32//34 26//26
f  25//35 31//35 23//35
f  31//35 25//35 30//30
f  20//36 19//36 18//36
f  19//36 20//36 21//36
f  14//36 22//36 17//36
f  22//36 14//36 24//36
f  21//36 23//36 19//36
f  23//36 21//36 25//36
f  29//37 26//37 33//37
f  26//37 29//37 27//38
f  29//39 30//39 28//39
f  29//40 33//40 30//40
f  30//36 32//36 31//36
f  32//36 30//36 26//36
f  15//36 17//36 16//36
f  17//36 15//36 14//36

