# {"id":"BLDG_0003000b002c5a1b","idOriginal":"BLDG_0003000b002c5a1b","origin":[13.393637603052953,52.53081294471421],"elevation":35.7299995422363}
# Longitude: 13.393637603052953
# Latitude: 52.53081294471421
# Elevation: 35.7299995422363

# File produced by Open Asset Import Library (http://www.assimp.sf.net)
# (assimp v3.1.0)

mtllib BLDG_0003000b002c5a1b.obj.mtl

# 44 vertex positions
v  6.68945 19.5 -3.16906
v  9.15905 21.7489 -4.33889
v  11.5758 21.831 -5.48366
v  6.6895 21.7209 -3.16913
v  5.58232 3.37854e-16 -5.51757
v  6.68904 1.94011e-16 -3.16844
v  5.58278 21.7209 -5.51826
v  11.9962 5.3528e-16 -8.74179
v  11.9966 21.7209 -8.74248
v  8.02424 21.7489 -6.74557
v  10.9435 21.8442 -8.21309
v  13.0277 21.7209 -6.1714
v  13.0273 3.77847e-16 -6.17071
v  15.9971 22.0192 1.23293
v  18.1172 19.5 6.5198
v  16.7147 22.1415 3.02223
v  13.0277 19.5 -6.17133
v  24.961 7.23978e-16 -11.8235
v  24.9614 19.5 -11.8241
v  30.0506 -5.31295e-17 0.86767
v  30.051 19.5 0.867053
v  26.1865 21.7217 -8.7695
v  28.6484 22.1415 -2.63051
v  18.1168 -3.9926e-16 6.52041
v  14.2527 21.7217 -3.11676
v  14.6949 22.5237 -2.01417
v  15.5725 22.5237 0.174138
v  13.0278 22.5237 -6.17142
v  12.5062 19.5 9.17761
v  12.5058 -5.62004e-16 9.17822
v  9.59789 22.5237 3.00418
v  10.0398 22.0642 3.94223
v  8.97304 21.8741 1.67792
v  11.4583 21.775 -5.42797
v  13.0277 21.7927 -6.1714
v  5.81716 19.5 12.346
v  0 0 0
v  5.81675 -7.56015e-16 12.3467
v  0.000416422 19.5 -0.000617051
v  4.13196 22.2035 8.76881
v  1.46502 21.7281 3.108
v  10.821 22.2035 5.60037
v  8.15406 21.7281 -0.0604443
v  11.9625 21.8442 -5.66683

# 0 UV coordinates

# 54 vertex normals
vn -0.428081 -1.93548e-05 -0.903741
vn -0.428081 -1.94068e-05 -0.903741
vn -0.904634 3.28053e-05 0.42619
vn -0.904634 3.28146e-05 0.42619
vn -0.449139 -1.86898e-05 -0.893462
vn -0.449139 -1.86997e-05 -0.893462
vn -0.449139 -4.74816e-06 -0.893462
vn -0.449139 -1.80548e-05 -0.893462
vn 0.928146 -3.16282e-05 -0.372216
vn 0.928146 -3.15886e-05 -0.372216
vn -0.928146 3.17256e-05 0.372216
vn -0.428081 -1.94476e-05 -0.903741
vn -0.428081 -1.94685e-05 -0.90374
vn 0.928146 -3.15689e-05 -0.372216
vn 0.928146 -3.15178e-05 -0.372216
vn 0.928146 -3.18325e-05 -0.372216
vn 0.428081 1.94665e-05 0.903741
vn -0.928146 3.21742e-05 0.372216
vn -0.928146 3.12178e-05 0.372216
vn -0.928146 3.17043e-05 0.372216
vn 0.428081 1.94644e-05 0.903741
vn 0.904634 -3.31383e-05 -0.42619
vn 0.428081 1.87818e-05 0.90374
vn -0.904634 3.27975e-05 0.42619
vn -0.904634 3.28047e-05 0.42619
vn -0.904634 3.28762e-05 0.42619
vn -0.904634 3.26959e-05 0.42619
vn -0.428081 -1.9456e-05 -0.903741
vn 0.904634 -3.22161e-05 -0.42619
vn 0.904634 -3.3556e-05 -0.42619
vn 0.428081 1.94529e-05 0.903741
vn -0.00926353 0.999948 0.00436799
vn -0.00926207 0.999948 0.00436353
vn -0.0271579 0.999572 0.0108681
vn -0.0277661 0.999529 0.0130924
vn 0.096868 0.994539 -0.0388471
vn 0.0967372 0.994557 -0.0387126
vn -0.239826 0.828334 -0.506307
vn -0.0271668 0.997984 -0.057353
vn 0.246029 0.818346 0.519404
vn 0.173417 0.914271 0.366109
vn 0.173417 0.914271 0.366109
vn -0.17342 0.914268 -0.366114
vn -0.368034 0.918023 0.147593
vn -0.232893 0.839059 -0.491672
vn -0.0324293 0.997126 -0.0684629
vn 0.241605 0.825507 0.510064
vn 0.241605 0.825507 0.510064
vn 7.26713e-25 -1 -6.12323e-17
vn 3.33962e-25 -1 -6.12323e-17
vn -2.34996e-24 -1 -6.12323e-17
vn -4.69992e-24 -1 -6.12323e-17
vn 0 -1 -6.12323e-17
vn -4.19251e-24 -1 -6.12323e-17

# Mesh 'defaultobject' with 66 faces
g defaultobject
usemtl DefaultMaterial
f  1//1 2//1 3//1
f  2//1 1//1 4//2
f  4//3 5//3 6//3
f  5//3 4//3 7//4
f  7//5 8//5 5//5
f  8//5 7//5 9//6
f  9//7 7//7 10//7
f  9//6 10//8 11//8
f  8//9 12//9 13//9
f  12//9 8//9 9//10
f  14//11 15//11 16//11
f  17//12 18//12 13//12
f  18//12 17//12 19//13
f  19//14 20//14 18//14
f  20//14 19//14 21//14
f  21//14 19//14 22//15
f  21//14 22//15 23//16
f  20//17 15//17 24//17
f  15//17 20//17 21//17
f  25//18 14//11 26//18
f  27//19 26//18 14//11
f  17//20 26//18 28//20
f  24//17 29//21 30//21
f  29//21 24//17 15//17
f  31//22 32//22 33//22
f  34//23 35//23 28//23
f  36//24 37//24 38//24
f  37//24 36//24 39//25
f  39//25 36//24 40//26
f  39//25 40//26 41//27
f  39//28 6//28 37//28
f  6//28 39//28 1//1
f  29//29 32//22 42//29
f  33//22 1//30 43//30
f  30//21 36//31 38//31
f  36//31 30//21 29//21
f  7//32 2//32 10//32
f  2//32 7//32 4//33
f  10//34 44//34 11//34
f  44//35 10//35 2//35
f  11//36 12//36 9//36
f  12//37 11//37 44//37
f  22//38 17//38 25//38
f  17//38 22//38 19//38
f  23//39 25//39 16//39
f  25//39 23//39 22//39
f  21//40 16//40 15//40
f  16//40 21//40 23//40
f  15//41 31//41 29//41
f  31//41 15//41 27//42
f  31//43 27//43 1//43
f  27//44 28//44 1//44
f  43//45 39//45 41//45
f  39//45 43//45 1//45
f  42//46 41//46 40//46
f  41//46 42//46 43//46
f  29//47 40//47 36//47
f  40//47 29//47 42//48
f  5//49 13//49 6//49
f  13//49 5//49 8//50
f  13//49 20//51 24//51
f  20//51 13//49 18//52
f  24//51 6//49 13//49
f  6//49 24//51 30//53
f  37//54 30//53 38//54
f  30//53 37//54 6//49

