# {"id":"BLDG_0003000e001236df","idOriginal":"BLDG_0003000e001236df","origin":[13.341860078736444,52.55642007028408],"elevation":37.9099998474121}
# Longitude: 13.341860078736444
# Latitude: 52.55642007028408
# Elevation: 37.9099998474121

# File produced by Open Asset Import Library (http://www.assimp.sf.net)
# (assimp v3.1.0)

mtllib BLDG_0003000e001236df.obj.mtl

# 37 vertex positions
v  33.8495 7.07397e-16 -11.5527
v  22.5484 8.65115e-16 -14.1284
v  26.7745 1.13027e-15 -18.4588
v  29.6053 4.43325e-16 -7.24005
v  18.0619 1.13327e-15 -18.5077
v  22.288 1.39843e-15 -22.838
v  8.97161 5.6291e-16 -9.19301
v  6.06189 3.80344e-16 -6.21149
v  2.3682 1.48589e-16 -2.42665
v  0 0 0
v  13.457 2.94693e-16 -4.8127
v  4.48544 -2.68217e-16 4.38031
v  20.4732 -1.24855e-16 2.03903
v  17.551 -3.0667e-16 5.0083
v  13.8414 -5.37477e-16 8.77766
v  11.463 -6.85455e-16 11.1943
v  8.97208 21.9786 -9.19371
v  8.97206 21.068 -9.19368
v  11.0629 21.068 -7.15182
v  18.0624 21.9786 -18.5084
v  6.06239 23.3103 -6.21223
v  0.000448454 21.068 -0.00066785
v  2.36872 24.113 -2.42741
v  22.2885 21.9786 -22.8387
v  26.7749 21.9786 -18.4595
v  33.85 21.9786 -11.5534
v  11.4634 21.068 11.1937
v  17.5515 23.3103 5.00757
v  13.8419 24.113 8.7769
v  20.4737 21.068 2.03836
v  13.4575 21.068 -4.81337
v  13.4575 20.0252 -4.81334
v  4.48589 21.068 4.37964
v  29.6057 20.0252 -7.24069
v  22.5488 20.0252 -14.129
v  10.5478 23.3103 -1.83192
v  6.85415 24.113 1.9529

# 0 UV coordinates

# 65 vertex normals
vn -5.30957e-24 -1 -6.12323e-17
vn -5.32326e-24 -1 -6.12323e-17
vn -4.14297e-24 -1 -6.12323e-17
vn -4.17652e-24 -1 -6.12323e-17
vn -2.83761e-23 -1 -6.12324e-17
vn -3.19335e-23 -1 -6.12324e-17
vn 0 -1 -6.12323e-17
vn 0 -1 -6.12323e-17
vn 1.31473e-24 -1 -6.12323e-17
vn -8.40504e-25 -1 -6.12323e-17
vn -1.30296e-24 -1 -6.12323e-17
vn -1.02639e-24 -1 -6.12323e-17
vn -1.28071e-23 -1 -6.12323e-17
vn -0.698673 3.71149e-05 0.715441
vn -0.715672 -7.08149e-06 -0.698436
vn -0.715672 -6.78847e-06 -0.698436
vn -0.715672 -6.90642e-06 -0.698436
vn -0.715672 -7.11378e-06 -0.698436
vn -0.715672 -6.808e-06 -0.698436
vn -0.715672 -6.95765e-06 -0.698436
vn -0.715672 -6.8325e-06 -0.698436
vn -0.715672 -6.85441e-06 -0.698436
vn -0.715672 -6.84128e-06 -0.698436
vn 0.698509 -3.7579e-05 -0.715601
vn 0.698509 -3.75534e-05 -0.715601
vn 0.698509 -3.7579e-05 -0.715601
vn 0.712731 6.78836e-06 0.701437
vn 0.712731 6.95328e-06 0.701437
vn 0.712731 7.07844e-06 0.701437
vn 0.712731 7.10607e-06 0.701437
vn 0.712731 7.03568e-06 0.701437
vn 0.712731 7.09557e-06 0.701437
vn 0.698673 -3.75504e-05 -0.715441
vn 0.698673 -3.72686e-05 -0.715441
vn 0.698673 -3.7548e-05 -0.715441
vn 0.698673 -3.72967e-05 -0.715441
vn -0.698673 3.75666e-05 0.715441
vn -0.698673 3.75591e-05 0.715441
vn -0.698673 3.75765e-05 0.715441
vn -0.698673 3.75512e-05 0.715441
vn 0.712731 7.09928e-06 0.701437
vn 0.712731 7.01333e-06 0.701437
vn -0.698509 3.75164e-05 0.715601
vn -0.698509 3.74993e-05 0.715601
vn 0.715672 6.90755e-06 0.698436
vn 0.715672 6.93682e-06 0.698436
vn -0.214592 0.951641 0.219843
vn -0.214592 0.95164 0.219843
vn -0.214592 0.951641 0.219843
vn 0.212887 0.954733 0.20776
vn 0.212887 0.954733 0.20776
vn 0.212887 0.954733 0.20776
vn -0.666667 -0.666667 0.333333
vn 0.331131 0.880555 -0.33908
vn 0.33113 0.880557 -0.339077
vn 0.33113 0.880556 -0.339077
vn 0.33113 0.880557 -0.339077
vn 0.33113 0.880557 -0.339077
vn 0.104844 0.988677 -0.10736
vn 0.104845 0.988676 -0.107362
vn 0.104845 0.988676 -0.107361
vn -0.466812 0.744035 0.478016
vn -0.466811 0.744037 0.478013
vn -0.46681 0.744037 0.478014
vn -0.46681 0.744037 0.478014

# Mesh 'defaultobject' with 70 faces
g defaultobject
usemtl DefaultMaterial
f  1//1 2//1 3//1
f  2//1 1//1 4//2
f  3//1 5//3 6//3
f  5//3 3//1 7//4
f  7//4 3//1 8//5
f  8//5 3//1 9//6
f  9//6 3//1 10//7
f  10//7 3//1 2//1
f  10//7 2//1 11//8
f  10//7 11//8 12//9
f  12//9 11//8 13//10
f  12//9 13//10 14//11
f  12//9 14//11 15//12
f  12//9 15//12 16//13
f  17//14 18//14 19//14
f  20//15 18//15 17//15
f  21//16 22//16 23//16
f  22//16 21//16 10//17
f  10//17 21//16 18//15
f  10//17 18//15 20//15
f  10//17 20//15 24//18
f  10//17 24//18 9//19
f  9//19 24//18 8//20
f  8//20 24//18 7//21
f  7//21 24//18 5//22
f  5//22 24//18 6//23
f  1//24 25//24 26//24
f  25//24 1//24 24//25
f  24//25 1//24 6//26
f  6//3 1//1 3//1
f  27//27 28//27 29//27
f  28//27 27//27 30//28
f  30//28 27//27 13//29
f  13//29 27//27 14//30
f  14//30 27//27 15//31
f  15//31 27//27 16//32
f  13//33 31//33 30//33
f  31//33 13//33 32//34
f  32//34 13//33 11//35
f  19//36 31//33 32//34
f  27//37 12//37 16//37
f  12//37 27//37 10//38
f  10//38 27//37 33//39
f  10//38 33//39 22//40
f  1//41 34//41 4//41
f  34//41 1//41 26//42
f  34//43 2//43 4//43
f  2//43 34//43 35//44
f  2//45 32//45 11//45
f  32//45 2//45 35//46
f  26//47 35//47 34//47
f  35//47 26//47 25//48
f  35//47 25//48 24//49
f  20//50 35//50 24//50
f  35//50 20//50 17//51
f  35//50 17//51 32//52
f  32//53 17//53 19//53
f  30//54 36//54 28//54
f  36//54 30//54 31//55
f  36//54 31//55 21//56
f  21//56 31//55 19//57
f  21//56 19//57 18//58
f  28//59 37//59 29//59
f  37//59 28//59 36//60
f  37//59 36//60 23//61
f  23//61 36//60 21//61
f  29//62 33//62 27//62
f  33//62 29//62 37//63
f  33//62 37//63 22//64
f  22//64 37//63 23//65

