# {"id":"BLDG_0003000a00040037","idOriginal":"BLDG_0003000a00040037","origin":[13.361053245629865,52.504460016714134],"elevation":33.4599990844727}
# Longitude: 13.361053245629865
# Latitude: 52.504460016714134
# Elevation: 33.4599990844727

# File produced by Open Asset Import Library (http://www.assimp.sf.net)
# (assimp v3.1.0)

mtllib BLDG_0003000a00040037.obj.mtl

# 30 vertex positions
v  5.00898 9.97413e-16 -16.289
v  33.9779 7.02534e-17 -1.14732
v  3.22132 6.41446e-16 -10.4756
v  35.6315 4.2181e-16 -6.88868
v  37.01 -7.91263e-16 12.9223
v  43.4469 -9.28881e-16 15.1698
v  42.1402 2.99468e-16 -4.89068
v  45.3366 -5.27091e-16 8.60805
v  47.008 -1.71734e-16 2.80463
v  48.6489 1.77125e-16 -2.89267
v  1.44639 2.88012e-16 -4.70359
v  30.5731 -6.53645e-16 10.6748
v  0 0 0
v  32.3065 -2.85104e-16 4.6561
v  40.4935 23.274 0.827916
v  48.6493 20.8898 -2.89333
v  42.1407 23.274 -4.89141
v  38.8221 23.274 6.63134
v  37.0105 23.274 12.9216
v  47.0085 20.8898 2.80397
v  45.3371 20.8898 8.60739
v  43.4473 20.8898 15.1691
v  32.307 20.8898 4.65544
v  33.9784 20.8898 -1.14798
v  35.632 23.274 -6.88942
v  3.22177 20.8898 -10.4763
v  5.00948 23.274 -16.2897
v  30.5736 23.274 10.6741
v  0.000495948 23.274 -0.00073522
v  1.44683 20.8898 -4.70425

# 0 UV coordinates

# 51 vertex normals
vn -2.16659e-24 -1 -6.12323e-17
vn -4.42642e-24 -1 -6.12323e-17
vn -1.04128e-23 -1 -6.12323e-17
vn 1.70193e-24 -1 -6.12323e-17
vn 0 -1 -6.12323e-17
vn 0 -1 -6.12323e-17
vn 1.03015e-23 -1 -6.12323e-17
vn 2.65956e-24 -1 -6.12323e-17
vn -4.194e-24 -1 -6.12323e-17
vn 0.317633 0.943791 0.0914788
vn 0.317633 0.943791 0.091479
vn 0.317633 0.943791 0.0914789
vn 0.317633 0.943791 0.0914789
vn 0.317633 0.943791 0.091479
vn 0.317633 0.943791 0.0914788
vn -0.317631 0.943791 -0.0914783
vn -0.317631 0.943792 -0.0914781
vn -0.317631 0.943791 -0.0914783
vn -0.317631 0.943791 -0.0914783
vn -0.108775 0.928766 0.354347
vn -0.107577 0.928773 0.354695
vn -0.1071 0.931024 0.348889
vn 0.117429 0.934397 -0.336322
vn 0.117429 0.934397 -0.336322
vn 0.12655 0.899936 -0.417254
vn 0.293459 -3.64152e-05 -0.955972
vn 0.293459 -3.63269e-05 -0.955972
vn 0.293459 -3.63991e-05 -0.955972
vn 0.293459 -3.64705e-05 -0.955972
vn 0.293459 -3.63631e-05 -0.955972
vn 0.293459 -3.64256e-05 -0.955972
vn 0.960941 -1.17888e-05 0.276753
vn 0.960941 -1.18529e-05 0.276753
vn 0.960941 -1.16063e-05 0.276752
vn 0.960941 -1.17941e-05 0.276753
vn -2.22045e-16 1 0
vn 0 1 5.94762e-17
vn -0.329641 3.61403e-05 0.944106
vn -0.329641 3.65626e-05 0.944106
vn -0.329641 3.68702e-05 0.944106
vn -0.329641 3.68687e-05 0.944106
vn 0 1 6.66134e-17
vn -0.290238 3.64083e-05 0.956954
vn -0.290238 3.64538e-05 0.956954
vn -0.955829 1.10816e-05 -0.293924
vn -0.955829 1.10926e-05 -0.293924
vn -0.960941 1.17878e-05 -0.276753
vn -0.955829 1.10829e-05 -0.293924
vn -0.955829 1.10816e-05 -0.293924
vn 0.290238 -3.64162e-05 -0.956954
vn 0.290238 -3.64328e-05 -0.956954

# Mesh 'defaultobject' with 56 faces
g defaultobject
usemtl DefaultMaterial
f  1//1 2//1 3//1
f  2//1 1//1 4//2
f  2//1 4//2 5//3
f  5//3 4//2 6//4
f  6//4 4//2 7//5
f  6//4 7//5 8//6
f  8//6 7//5 9//7
f  9//7 7//5 10//6
f  11//8 12//8 13//8
f  12//8 11//8 14//9
f  12//8 14//9 5//3
f  5//3 14//9 2//1
f  15//10 16//10 17//10
f  16//10 15//10 18//11
f  16//10 18//11 19//12
f  16//10 19//12 20//13
f  20//13 19//12 21//14
f  21//14 19//12 22//15
f  23//16 17//16 24//16
f  17//16 23//16 15//17
f  15//17 23//16 18//18
f  18//18 23//16 19//19
f  25//20 24//20 17//20
f  24//21 25//21 26//21
f  26//22 25//22 27//22
f  19//23 23//23 28//23
f  23//23 29//24 28//23
f  29//25 23//25 30//25
f  27//26 4//26 1//26
f  4//26 27//26 7//27
f  7//27 27//26 10//28
f  10//28 27//26 16//29
f  16//29 27//26 25//30
f  16//29 25//30 17//31
f  20//32 10//32 16//32
f  10//32 20//32 21//33
f  10//32 21//33 22//34
f  10//32 22//34 6//35
f  10//36 6//36 9//36
f  9//36 6//36 8//37
f  28//38 22//38 19//38
f  22//38 28//38 29//39
f  22//38 29//39 13//40
f  22//38 13//40 6//41
f  6//36 13//42 5//42
f  5//3 13//8 12//8
f  2//43 26//43 3//43
f  26//43 2//43 24//44
f  26//45 1//45 3//45
f  1//45 26//45 27//46
f  23//47 2//47 14//47
f  2//47 23//47 24//47
f  29//48 11//48 13//48
f  11//48 29//48 30//49
f  30//50 14//50 11//50
f  14//50 30//50 23//51

