# {"id":"BLDG_0003000f00000008","idOriginal":"BLDG_0003000f00000008","origin":[13.378012865350707,52.5588716570141],"elevation":40.0099983215332}
# Longitude: 13.378012865350707
# Latitude: 52.5588716570141
# Elevation: 40.0099983215332

# File produced by Open Asset Import Library (http://www.assimp.sf.net)
# (assimp v3.1.0)

mtllib BLDG_0003000f00000008.obj.mtl

# 44 vertex positions
v  28.7803 21.05 12.4446
v  0 0 0
v  28.7798 -7.62053e-16 12.4453
v  26.3065 21.05 11.3749
v  15.1064 21.05 6.53161
v  1.76734 21.05 0.763389
v  0.000449108 21.05 -0.00066735
v  12.054 21.05 -23.0242
v  25.3925 1.05658e-15 -17.2552
v  12.0535 1.40978e-15 -23.0235
v  36.5926 7.60012e-16 -12.4119
v  60.5194 1.26456e-16 -2.06519
v  36.5931 21.05 -12.4126
v  49.112 21.05 -6.99898
v  60.5198 21.05 -2.06586
v  16.9961 -1.32346e-16 2.16138
v  3.65747 21.05 -3.6075
v  16.9965 21.0514 2.16071
v  1.89057 21.05 -4.37156
v  1.89012 2.6764e-16 -4.3709
v  34.4879 21.0514 -7.54437
v  47.0064 1.3043e-16 -2.13008
v  47.0068 21.0514 -2.13074
v  34.4874 4.61919e-16 -7.5437
v  58.4142 -1.71637e-16 2.80305
v  49.5633 -1.42491e-15 23.2706
v  49.5638 21.0514 23.27
v  58.4146 21.0514 2.80238
v  38.0656 -7.49708e-16 12.2437
v  35.261 21.05 16.3684
v  38.066 21.05 12.243
v  35.2606 -1.00232e-15 16.3691
v  40.1719 21.0514 13.6749
v  40.1715 -8.37385e-16 13.6755
v  38.1559 21.0514 18.3369
v  38.1555 -1.12285e-15 18.3375
v  30.6699 -4.94413e-16 8.07438
v  28.1967 21.0514 7.004
v  30.6704 21.05 8.07371
v  28.1962 -4.28912e-16 7.00467
v  23.2873 7.58486e-16 -12.387
v  9.94876 21.05 -18.1559
v  9.94831 1.11169e-15 -18.1553
v  23.2878 21.0514 -12.3877

# 0 UV coordinates

# 71 vertex normals
vn -0.39691 3.75961e-05 0.917858
vn -0.39691 3.76546e-05 0.917858
vn -0.39691 3.76031e-05 0.917858
vn -0.39691 3.75652e-05 0.917858
vn -0.39691 3.75671e-05 0.917858
vn 0.396913 -3.75782e-05 -0.917856
vn 0.396913 -3.75734e-05 -0.917856
vn 0.396913 -3.75955e-05 -0.917856
vn 0.396913 -3.75791e-05 -0.917856
vn 0.396913 -3.7548e-05 -0.917856
vn 0.396913 -3.75858e-05 -0.917856
vn 0.39691 -3.75474e-05 -0.917858
vn 0.39691 -3.74675e-05 -0.917857
vn 0.39691 -3.75759e-05 -0.917858
vn -0.396913 3.75722e-05 0.917856
vn -0.396913 3.75987e-05 0.917856
vn 0.917858 -7.04459e-06 0.396909
vn 0.917856 -5.94877e-06 0.396913
vn 0.917857 -7.03951e-06 0.396912
vn 0.917722 -0.0170811 0.396855
vn -0.826953 -1.48069e-07 -0.562271
vn -0.826953 -9.71301e-08 -0.562272
vn 0.562269 -3.81493e-05 -0.826955
vn 0.562269 -3.82496e-05 -0.826954
vn -0.562288 3.81744e-05 0.826941
vn -0.562289 3.82468e-05 0.826941
vn 0.39691 -3.75961e-05 -0.917858
vn 0.39691 -3.75577e-05 -0.917857
vn 0.917857 -7.04018e-06 0.396912
vn -0.917857 6.99318e-06 -0.396912
vn -0.917857 6.99939e-06 -0.396912
vn -0.396913 3.75839e-05 0.917856
vn -0.396913 3.75815e-05 0.917856
vn -0.917855 6.99827e-06 -0.396915
vn -0.917856 7.03944e-06 -0.396914
vn -0.917856 6.96077e-06 -0.396914
vn 0.917856 -6.97381e-06 0.396914
vn 0.917856 -7.0424e-06 0.396914
vn -0.917856 7.04397e-06 -0.396913
vn -0.917856 6.87316e-06 -0.396913
vn -0.396911 3.76014e-05 0.917857
vn 4.54683e-25 -1 -6.12323e-17
vn -1.46359e-24 -1 -6.12323e-17
vn 3.27187e-24 -1 -6.12323e-17
vn 0 -1 -6.12323e-17
vn -1.37361e-23 -1 -6.12323e-17
vn 2.60987e-23 -1 -6.12324e-17
vn -1.41818e-24 -1 -6.12323e-17
vn 0 -1 -6.12323e-17
vn 1.35096e-24 -1 -6.12323e-17
vn -2.46716e-18 -1 -6.20902e-17
vn 7.40686e-24 -1 -6.12323e-17
vn -2.77556e-17 1 5.20417e-17
vn 3.75032e-23 -1 -6.12323e-17
vn -1.81879e-23 -1 -6.12323e-17
vn 0.000463796 1 0.000200561
vn -0.000113508 1 0.000262487
vn -2.62234e-05 1 6.06419e-05
vn 0.917856 -0.000176722 0.396914
vn -0.000199518 1 0.000225293
vn -0 1 0
vn 0.000101912 1 -0.000235671
vn 0.000101912 1 -0.000235671
vn 0.000101912 1 -0.000235671
vn -0.000454465 1 0.000115045
vn -8.60109e-05 1 -3.71943e-05
vn -0.000100572 1 -4.34907e-05
vn 1.95822e-05 1 -4.52838e-05
vn 0.917856 0.000879301 0.396913
vn -0.000499741 1 -0.000216105
vn -0.000321697 1 -0.000218732

# Mesh 'defaultobject' with 84 faces
g defaultobject
usemtl DefaultMaterial
f  1//1 2//1 3//1
f  2//1 1//1 4//2
f  2//1 4//2 5//3
f  2//1 5//3 6//4
f  2//1 6//4 7//5
f  8//6 9//6 10//6
f  9//6 8//6 11//7
f  11//7 8//6 12//8
f  12//8 8//6 13//9
f  12//8 13//9 14//10
f  12//8 14//10 15//11
f  16//12 17//12 18//12
f  17//12 16//12 19//13
f  19//13 16//12 20//14
f  21//15 22//15 23//15
f  22//15 21//15 24//16
f  15//17 25//17 12//17
f  25//17 15//17 26//18
f  26//18 15//17 27//19
f  27//20 15//20 28//20
f  29//21 30//21 31//21
f  30//21 29//21 32//22
f  29//23 33//23 34//23
f  33//23 29//23 31//24
f  32//25 35//25 30//25
f  35//25 32//25 36//26
f  37//27 38//27 39//27
f  38//27 37//27 40//28
f  37//29 1//29 3//29
f  1//29 37//29 39//29
f  20//30 7//30 19//30
f  7//30 20//30 2//31
f  41//32 42//32 43//32
f  42//32 41//32 44//33
f  10//34 42//34 8//34
f  42//34 10//34 43//34
f  41//35 18//35 44//35
f  18//35 41//35 16//36
f  24//37 38//37 40//37
f  38//37 24//37 21//38
f  22//39 33//39 23//39
f  33//39 22//39 34//40
f  26//41 35//41 36//41
f  35//41 26//41 27//41
f  12//42 22//42 11//42
f  24//43 11//42 22//42
f  9//44 11//42 24//43
f  40//45 9//44 24//43
f  9//44 41//46 10//46
f  43//47 10//46 41//46
f  3//48 2//48 37//48
f  40//45 37//48 2//48
f  16//49 40//45 2//48
f  9//44 40//45 16//49
f  41//46 9//44 16//49
f  20//50 16//49 2//48
f  25//51 26//51 12//42
f  36//52 12//42 26//51
f  22//42 12//42 36//52
f  34//53 22//53 36//53
f  29//54 34//54 36//52
f  32//55 29//54 36//52
f  39//56 38//56 1//56
f  4//57 1//57 38//57
f  4//58 44//58 5//58
f  18//59 5//59 44//59
f  17//60 5//60 18//60
f  6//61 5//61 17//61
f  19//61 6//61 17//61
f  7//61 6//61 19//61
f  14//62 13//62 23//62
f  21//62 23//62 13//62
f  8//63 21//62 13//62
f  44//64 21//62 8//63
f  38//61 21//61 44//61
f  4//65 38//65 44//65
f  42//66 44//66 8//66
f  15//64 14//62 28//64
f  27//67 28//67 14//67
f  35//68 27//68 14//68
f  23//69 35//69 14//69
f  33//61 35//61 23//61
f  31//70 35//70 33//70
f  30//71 35//71 31//71

