# {"id":"BLDG_00030002005fdca1","idOriginal":"BLDG_00030002005fdca1","origin":[13.367379147780982,52.49951372327528],"elevation":33.8800010681152}
# Longitude: 13.367379147780982
# Latitude: 52.49951372327528
# Elevation: 33.8800010681152

# File produced by Open Asset Import Library (http://www.assimp.sf.net)
# (assimp v3.1.0)

mtllib BLDG_00030002005fdca1.obj.mtl

# 26 vertex positions
v  5.01241 -5.51287e-17 0.900321
v  0.000503302 23.6098 -0.00074558
v  0 0 0
v  5.01291 23.6098 0.899575
v  5.91888 -2.51297e-17 0.410399
v  5.91938 23.6098 0.409653
v  6.03179 -3.47428e-18 0.0567393
v  6.0323 23.6098 0.0559938
v  7.92967 -2.17164e-17 0.354656
v  7.93018 23.6098 0.35391
v  7.69977 23.6098 2.00742
v  7.69926 -1.22965e-16 2.00816
v  12.169 -1.64793e-16 2.69127
v  12.1695 23.6098 2.69052
v  13.0784 2.06917e-16 -3.37921
v  13.0789 23.6098 -3.37996
v  13.9453 5.61262e-16 -9.1661
v  13.9458 23.6098 -9.16685
v  7.55866 23.6098 -10.3402
v  7.55816 6.33108e-16 -10.3394
v  7.96962 7.8282e-16 -12.7844
v  7.97012 23.6098 -12.7852
v  2.30723 23.6098 -13.7549
v  2.30673 8.422e-16 -13.7542
v  1.90867 23.6098 -11.3787
v  1.90816 6.96696e-16 -11.3779

# 0 UV coordinates

# 33 vertex normals
vn -0.176789 3.48559e-05 0.984249
vn -0.176789 3.48519e-05 0.984249
vn 0.475471 1.76383e-05 0.879731
vn 0.475472 1.76494e-05 0.879731
vn 0.952621 -1.06929e-05 0.304161
vn -0.155074 3.45021e-05 0.987903
vn -0.155074 3.45048e-05 0.987903
vn -0.990431 1.67655e-05 -0.138011
vn -0.990431 1.67651e-05 -0.138011
vn -0.151076 3.44382e-05 0.988522
vn 0.988963 -1.6412e-05 0.148164
vn 0.988966 -1.64156e-05 0.148141
vn 0.988966 -1.64121e-05 0.148141
vn 0.18068 -3.49174e-05 -0.983542
vn 0.18068 -3.4921e-05 -0.983542
vn 0.986133 -1.57704e-05 0.165955
vn 0.986133 -1.57969e-05 0.165955
vn 0.16879 -3.47324e-05 -0.985652
vn 0.168791 -3.46943e-05 -0.985652
vn -0.986224 1.58054e-05 -0.165416
vn -0.986224 1.57988e-05 -0.165415
vn -0.986227 1.58008e-05 -0.165398
vn -0.986227 1.58061e-05 -0.165398
vn 7.65035e-24 -1 -6.12323e-17
vn -1.48657e-23 -1 -6.12323e-17
vn 0 -1 -6.12323e-17
vn -2.09236e-24 -1 -6.12323e-17
vn 9.62694e-24 -1 -6.12323e-17
vn 6.46454e-25 -1 -6.12323e-17
vn -2.55464e-24 -1 -6.12323e-17
vn 5.57572e-24 -1 -6.12323e-17
vn 7.01364e-24 -1 -6.12323e-17
vn 0 1 0

# Mesh 'defaultobject' with 48 faces
g defaultobject
usemtl DefaultMaterial
f  1//1 2//1 3//1
f  2//1 1//1 4//2
f  5//3 4//3 1//3
f  4//3 5//3 6//4
f  7//5 6//5 5//5
f  6//5 7//5 8//5
f  9//6 8//6 7//6
f  8//6 9//6 10//7
f  11//8 9//8 12//8
f  9//8 11//8 10//9
f  13//10 11//10 12//10
f  11//10 13//10 14//10
f  15//11 14//11 13//11
f  14//11 15//11 16//11
f  17//12 16//12 15//12
f  16//12 17//12 18//13
f  19//14 17//14 20//14
f  17//14 19//14 18//15
f  21//16 19//16 20//16
f  19//16 21//16 22//17
f  23//18 21//18 24//18
f  21//18 23//18 22//19
f  25//20 24//20 26//20
f  24//20 25//20 23//21
f  2//22 26//22 3//22
f  26//22 2//22 25//23
f  24//24 20//24 26//24
f  20//24 24//24 21//25
f  26//24 1//26 3//26
f  1//26 26//24 5//27
f  5//27 26//24 7//28
f  7//28 26//24 9//29
f  9//29 26//24 15//30
f  15//30 26//24 20//24
f  15//30 20//24 17//31
f  9//29 13//32 12//32
f  13//32 9//29 15//30
f  14//33 10//33 11//33
f  10//33 19//33 8//33
f  19//33 10//33 18//33
f  18//33 10//33 14//33
f  18//33 14//33 16//33
f  4//33 25//33 2//33
f  25//33 4//33 23//33
f  23//33 4//33 22//33
f  22//33 4//33 19//33
f  19//33 4//33 6//33
f  19//33 6//33 8//33

