# {"id":"BLDG_0003000b004986d6","idOriginal":"BLDG_0003000b004986d6","origin":[13.341512857770715,52.52839557223415],"elevation":31.66}
# Longitude: 13.341512857770715
# Latitude: 52.52839557223415
# Elevation: 31.66

# File produced by Open Asset Import Library (http://www.assimp.sf.net)
# (assimp v3.1.0)

mtllib BLDG_0003000b004986d6.obj.mtl

# 51 vertex positions
v  41.8105 -1.52588e-07 17.8187
v  41.7309 22.0918 21.3146
v  41.7305 -1.52588e-07 21.3153
v  41.9488 -1.52588e-07 11.7691
v  42.0281 -1.52588e-07 8.30521
v  42.2056 -1.52588e-07 0.545469
v  42.2061 25.0986 0.544675
v  41.9494 24.3503 11.7683
v  42.0286 25.0986 8.30441
v  41.811 24.643 17.8179
v  9.79187 24.35 0.125774
v  0.000470162 22.09 -0.00069894
v  3.49935 24.64 0.0444396
v  13.2607 22.09 0.170677
v  13.2602 -1.52588e-07 0.171376
v  0 -1.52588e-07 -9.34331e-24
v  9.79135 -1.52588e-07 0.126544
v  3.49883 -1.52588e-07 0.0452192
v  36.2191 -1.52588e-07 21.2361
v  12.8254 -1.27975e-15 20.8999
v  12.8259 22.09 20.8992
v  36.2196 22.0918 21.2354
v  12.8259 22.0918 20.8992
v  -0.161013 22.09 7.69816
v  -0.433908 22.09 20.7086
v  -0.161484 -4.71419e-16 7.69886
v  -0.434378 -1.26808e-15 20.7093
v  36.5172 22.0918 8.2253
v  36.6941 -1.52588e-07 0.474238
v  36.5168 -1.52588e-07 8.226
v  36.6946 22.0918 0.473539
v  13.0988 22.09 7.88873
v  13.0983 -4.83088e-16 7.88943
v  13.0988 22.0918 7.88873
v  36.438 24.3503 11.6891
v  13.0262 24.3503 11.3527
v  36.2997 24.643 17.7387
v  12.8993 24.643 17.4024
v  13.0261 24.35 11.357
v  3.3378 24.64 7.74836
v  3.13828 24.64 17.2605
v  9.63005 24.35 7.83881
v  9.5573 24.35 11.3072
v  12.8993 24.6401 17.4024
v  12.8993 24.64 17.4008
v  12.8993 24.6389 17.4024
v  13.0262 24.3472 11.3527
v  13.0256 -1.52588e-07 11.3535
v  13.0256 -6.95463e-16 11.3578
v  12.8988 -1.52588e-07 17.4031
v  12.8988 -1.06554e-15 17.4016

# 0 UV coordinates

# 77 vertex normals
vn 0.999738 -2.05087e-05 0.0228704
vn 0.999739 -2.04003e-05 0.0228698
vn 0.999738 -2.04114e-05 0.0228698
vn 0.999738 -2.06534e-05 0.0228702
vn 0.999738 -2.05465e-05 0.0228701
vn 0.999738 -2.15248e-05 0.0228699
vn 0.999738 -1.77852e-05 0.0228702
vn 0.999738 -2.05987e-05 0.0228702
vn 0.012923 -3.19088e-05 -0.999916
vn 0.012923 -3.19198e-05 -0.999916
vn 0.012923 -3.19129e-05 -0.999917
vn 0.012923 -3.1913e-05 -0.999917
vn 0 -1 0
vn -0.0143705 3.19877e-05 0.999897
vn -0.0143705 3.19957e-05 0.999897
vn -0.0143705 3.1991e-05 0.999897
vn -0.0143705 -0.00037876 0.999897
vn -0.0143705 0 0.999897
vn -0.99978 2.06157e-05 -0.0209704
vn -0.99978 2.06077e-05 -0.0209704
vn -0.99978 2.06315e-05 -0.0209704
vn -0.99978 2.06147e-05 -0.0209704
vn -0.999738 2.06824e-05 -0.0228701
vn -0.999738 2.05098e-05 -0.0228696
vn 0.012923 -3.19131e-05 -0.999916
vn 0.012923 -3.19121e-05 -0.999916
vn 0.99978 -2.06158e-05 0.0209704
vn 0.0143705 -3.19478e-05 -0.999897
vn 0.0143705 -3.1947e-05 -0.999897
vn 0.0143705 0 -0.999897
vn -0.0143705 3.19914e-05 0.999897
vn 0.00784756 0.837727 -0.546033
vn 0.00784642 0.837727 -0.546033
vn 0.00784749 0.837731 -0.546027
vn 0.000694428 0.998832 -0.0483184
vn 0.000694531 0.998832 -0.0483183
vn 0.000694434 0.998832 -0.0483188
vn 0.00069434 0.998832 -0.0483192
vn -0.99978 -0.00033664 -0.0209533
vn -0.00846872 0.807903 0.589254
vn -0.00846874 0.807903 0.589254
vn -0.0084699 0.807907 0.589249
vn -0.588832 0.808161 -0.0123479
vn -0.588828 0.808164 -0.0123507
vn -0.588828 0.808164 -0.0123506
vn -0.588828 0.808164 -0.0123506
vn 0.046025 0.99894 0.000965594
vn 0.0460255 0.99894 0.000965163
vn 0.0460255 0.99894 0.000965392
vn 0.0460255 0.99894 0.000965385
vn 0.545746 0.837873 0.011447
vn 0.545742 0.837875 0.0114495
vn 0.545742 0.837875 0.011447
vn -0.478766 0.877874 -0.0109523
vn -0.478766 0.877874 -0.0109521
vn -0.473414 0.863154 0.175626
vn -0.00846357 0.808165 0.588895
vn -0.00856671 0.808032 0.589076
vn 0.000701742 0.998807 -0.048827
vn 0.99978 0 0.0209855
vn 0.000688613 0.998851 -0.0479134
vn 0.000688611 0.998851 -0.0479134
vn 0.0078444 0.837872 -0.54581
vn 0.987599 -0.12345 0.0969963
vn -6.51357e-09 -1 -1.49004e-10
vn -6.52063e-09 -1 -1.3677e-10
vn 0.497959 0.867138 0.0104447
vn -0.192474 -0.981294 -0.00403713
vn 0.267471 0.963549 0.00561019
vn -0.404303 -0.914586 -0.00848021
vn -2.5608e-10 -1 1.98142e-08
vn -1.55797e-08 -1 -3.26784e-10
vn -9.51967e-11 -1 7.36607e-09
vn 0 -1 -6.12323e-17
vn -1.8491e-23 -1 -6.12324e-17
vn -0.192683 -0.981253 -0.00404156
vn -0.408669 -0.912642 -0.00857184

# Mesh 'defaultobject' with 90 faces
g defaultobject
usemtl DefaultMaterial
f  1//1 2//1 3//1
f  2//1 1//1 4//2
f  2//1 4//2 5//3
f  2//1 5//3 6//4
f  2//1 6//4 7//5
f  2//1 7//5 8//6
f  8//6 7//5 9//7
f  10//8 2//1 8//6
f  11//9 12//9 13//9
f  12//9 11//9 14//10
f  12//9 14//10 15//11
f  12//9 15//11 16//12
f  16//12 15//11 17//9
f  16//13 17//13 18//13
f  2//14 19//14 3//14
f  19//14 2//14 20//15
f  20//15 2//14 21//16
f  21//17 2//17 22//17
f  21//18 22//18 23//18
f  16//19 24//19 12//19
f  24//19 16//19 25//20
f  25//20 16//19 26//21
f  25//20 26//21 27//22
f  28//23 29//23 30//23
f  29//23 28//23 31//24
f  31//25 6//25 29//25
f  6//25 31//25 7//26
f  15//27 32//27 33//27
f  32//27 15//27 14//27
f  32//28 30//28 33//28
f  30//28 32//28 28//29
f  28//30 32//30 34//30
f  20//15 25//31 27//31
f  25//31 20//15 21//16
f  28//32 35//32 8//32
f  35//32 28//32 36//33
f  36//33 28//32 34//34
f  8//35 37//35 10//35
f  37//35 8//35 38//36
f  38//36 8//35 35//37
f  38//36 35//37 36//38
f  38//39 36//39 39//39
f  10//40 22//40 2//40
f  22//40 10//40 37//40
f  22//40 37//40 23//41
f  23//41 37//40 38//42
f  12//43 40//43 13//43
f  40//43 12//43 24//44
f  40//43 24//44 41//45
f  41//45 24//44 25//46
f  13//47 42//47 11//47
f  42//47 13//47 40//48
f  42//47 40//48 43//49
f  43//49 40//48 41//50
f  11//51 32//51 14//51
f  32//51 11//51 42//52
f  32//51 42//52 43//53
f  31//54 9//54 7//54
f  9//54 31//54 28//55
f  8//56 9//56 28//56
f  21//57 41//57 25//57
f  41//58 21//58 44//58
f  41//59 44//59 45//59
f  44//60 21//60 46//60
f  43//61 45//61 39//61
f  45//61 43//61 41//62
f  39//63 32//63 43//63
f  32//64 39//64 47//64
f  5//13 29//13 6//13
f  29//13 5//13 4//13
f  29//13 4//13 1//13
f  29//13 1//13 3//13
f  29//13 3//13 19//13
f  29//13 19//13 30//13
f  30//13 19//13 33//65
f  33//65 19//13 20//66
f  33//67 20//67 48//67
f  48//68 20//68 49//68
f  49//69 20//69 50//69
f  49//70 50//70 51//70
f  18//13 26//71 16//13
f  26//71 18//13 17//39
f  26//71 17//39 27//72
f  27//72 17//39 15//73
f  27//72 15//73 33//65
f  27//72 33//65 49//74
f  27//72 49//74 51//75
f  27//72 51//75 20//66
f  49//76 33//76 48//76
f  20//77 51//77 50//77

