# {"id":"BLDG_0003000900a334ff","idOriginal":"BLDG_0003000900a334ff","origin":[13.331400607275727,52.55619776361186],"elevation":37.5499992370605}
# Longitude: 13.331400607275727
# Latitude: 52.55619776361186
# Elevation: 37.5499992370605

# File produced by Open Asset Import Library (http://www.assimp.sf.net)
# (assimp v3.1.0)

mtllib BLDG_0003000900a334ff.obj.mtl

# 16 vertex positions
v  0 0 0
v  9.76224 -3.22908e-16 5.27348
v  7.2829 -4.69042e-16 7.66004
v  15.4856 1.44643e-17 -0.236221
v  17.7959 1.50697e-16 -2.46106
v  5.46224 3.22859e-16 -5.27269
v  10.4983 6.20616e-16 -10.1354
v  6.32584 3.73956e-16 -6.10717
v  7.28314 11.2886 7.65968
v  5.46248 11.2886 -5.27304
v  0.000240129 11.2886 -0.00035785
v  6.32608 11.2886 -6.10753
v  10.4985 11.2886 -10.1358
v  9.76248 11.2886 5.27312
v  15.4859 11.2886 -0.236578
v  17.7961 11.2886 -2.46142

# 0 UV coordinates

# 19 vertex normals
vn 0 -1 -6.12323e-17
vn -2.52186e-24 -1 -6.12323e-17
vn -3.29271e-25 -1 -6.12323e-17
vn -3.48469e-20 -1 -6.1226e-17
vn 0 1 0
vn -0.724723 3.72578e-05 0.689041
vn -0.724723 3.72587e-05 0.689041
vn 0.693498 8.0643e-06 0.720458
vn 0.69353 8.06056e-06 0.720427
vn 0.693666 8.07309e-06 0.720297
vn 0.693666 8.19162e-06 0.720297
vn 0.724672 -3.71425e-05 -0.689094
vn 0.724672 -3.72382e-05 -0.689093
vn -0.694565 -8.03545e-06 -0.71943
vn -0.694565 -8.00507e-06 -0.71943
vn -0.694879 -8.01814e-06 -0.719127
vn -0.694879 -8.01916e-06 -0.719127
vn -0.694513 -8.03407e-06 -0.71948
vn -0.694513 -8.0371e-06 -0.71948

# Mesh 'defaultobject' with 28 faces
g defaultobject
usemtl DefaultMaterial
f  1//1 2//1 3//1
f  2//1 1//1 4//2
f  4//2 1//1 5//1
f  5//1 1//1 6//3
f  5//1 6//3 7//1
f  7//1 6//3 8//4
f  9//5 10//5 11//5
f  10//5 9//5 12//5
f  12//5 9//5 13//5
f  13//5 9//5 14//5
f  13//5 14//5 15//5
f  13//5 15//5 16//5
f  9//6 1//6 3//6
f  1//6 9//6 11//7
f  2//8 9//8 3//8
f  9//8 2//8 14//8
f  4//9 14//9 2//9
f  14//9 4//9 15//9
f  5//10 15//10 4//10
f  15//10 5//10 16//11
f  7//12 16//12 5//12
f  16//12 7//12 13//13
f  12//14 7//14 8//14
f  7//14 12//14 13//15
f  10//16 8//16 6//16
f  8//16 10//16 12//17
f  11//18 6//18 1//18
f  6//18 11//18 10//19

