# {"id":"BLDG_000300000021961c","idOriginal":"BLDG_000300000021961c","origin":[13.3293322259471,52.55875952928589],"elevation":36.8899993896484}
# Longitude: 13.3293322259471
# Latitude: 52.55875952928589
# Elevation: 36.8899993896484

# File produced by Open Asset Import Library (http://www.assimp.sf.net)
# (assimp v3.1.0)

mtllib BLDG_000300000021961c.obj.mtl

# 38 vertex positions
v  0 0 0
v  6.95717 -3.61456e-16 5.90303
v  5.65259 -4.24409e-16 6.93113
v  7.99891 -3.51833e-16 5.74587
v  16.087 -6.56669e-18 0.107242
v  8.35945 -3.79805e-16 6.20268
v  5.44054 2.63857e-16 -4.30912
v  15.7169 2.21541e-17 -0.361804
v  16.0579 7.75976e-17 -1.26727
v  18.9533 2.17249e-16 -3.54795
v  5.14584 2.8667e-16 -4.68167
v  5.45225 3.01504e-16 -4.92393
v  7.78779 3.77699e-16 -6.16829
v  7.29685 3.90641e-16 -6.37965
v  19.8428 2.22033e-16 -3.62608
v  7.49575 4.00265e-16 -6.53683
v  21.8094 2.69883e-16 -4.40752
v  20.2167 1.92943e-16 -3.15101
v  15.5452 7.53966e-16 -12.3132
v  16.0872 11.0276 0.106893
v  15.7171 11.0276 -0.362154
v  8.35968 11.0276 6.20233
v  5.65283 11.0276 6.93078
v  5.44078 11.0276 -4.30947
v  0.000234546 11.0276 -0.000349631
v  6.9574 11.0276 5.90268
v  5.45248 11.0276 -4.92428
v  7.29708 11.0276 -6.38
v  7.99914 11.0276 5.74552
v  7.49598 11.0276 -6.53718
v  7.78802 11.0276 -6.16864
v  15.5455 11.0276 -12.3136
v  16.0581 11.0276 -1.26761
v  18.9535 11.0276 -3.5483
v  21.8096 11.0276 -4.40787
v  19.843 11.0276 -3.62643
v  20.2169 11.0276 -3.15136
v  5.14607 11.0276 -4.68202

# 0 UV coordinates

# 45 vertex normals
vn 0 -1 -6.12323e-17
vn -1.64458e-23 -1 -6.12323e-17
vn 1.38641e-23 -1 -6.12323e-17
vn 0 -1 -6.12323e-17
vn -2.48522e-24 -1 -6.12323e-17
vn 1.60315e-24 -1 -6.12323e-17
vn 2.75157e-24 -1 -6.12324e-17
vn -5.37663e-24 -1 -6.12323e-17
vn 2.64515e-24 -1 -6.12323e-17
vn 2.69601e-23 -1 -6.12323e-17
vn -1.85938e-23 -1 -6.12323e-17
vn 5.55126e-23 -1 -6.12324e-17
vn 1.7535e-23 -1 -6.12323e-17
vn 5.30346e-25 -1 -6.12323e-17
vn 0 1 0
vn -0.774961 3.65184e-05 0.632009
vn -0.774961 3.65206e-05 0.632009
vn 0.618966 1.17278e-05 0.785418
vn 0.618966 1.17603e-05 0.785418
vn 0.149176 2.82097e-05 0.988811
vn 0.149175 2.81661e-05 0.988811
vn -0.784965 3.63361e-05 0.61954
vn 0.619317 1.1704e-05 0.785141
vn 0.785067 -3.63407e-05 -0.619411
vn 0.935834 -8.73428e-06 0.352442
vn 0.935834 -8.73987e-06 0.352442
vn 0.618783 1.17318e-05 0.785562
vn 0.618783 1.17552e-05 0.785562
vn 0.087494 2.97338e-05 0.996165
vn 0.0874938 2.97126e-05 0.996165
vn -0.785791 3.63338e-05 0.618493
vn -0.78579 3.63204e-05 0.618493
vn 0.619373 1.1723e-05 0.785097
vn 0.619373 1.17336e-05 0.785097
vn 0.783779 -3.6353e-05 -0.621039
vn 0.783779 -3.63187e-05 -0.621039
vn -0.620927 -1.16351e-05 -0.783868
vn -0.620927 -1.16012e-05 -0.783868
vn 0.783758 -3.63593e-05 -0.621066
vn -0.62002 -1.16772e-05 -0.784586
vn -0.619501 -1.17012e-05 -0.784996
vn -0.620204 -1.16686e-05 -0.78444
vn -0.784285 3.63489e-05 0.620401
vn -0.620882 -1.16482e-05 -0.783904
vn -0.620882 -1.16372e-05 -0.783904

# Mesh 'defaultobject' with 72 faces
g defaultobject
usemtl DefaultMaterial
f  1//1 2//1 3//1
f  2//1 1//1 4//2
f  4//2 5//3 6//3
f  5//3 4//2 1//1
f  5//3 1//1 7//1
f  5//3 7//1 8//4
f  8//4 7//1 9//5
f  9//5 7//1 10//6
f  10//6 7//1 11//7
f  10//6 11//7 12//8
f  10//6 12//8 13//9
f  13//9 12//8 14//10
f  10//6 13//9 15//11
f  13//9 14//10 16//12
f  15//11 17//13 18//13
f  17//13 15//11 13//9
f  17//13 13//9 19//14
f  20//15 21//15 22//15
f  23//15 24//15 25//15
f  24//15 23//15 26//15
f  24//15 26//15 27//15
f  27//15 26//15 28//15
f  28//15 26//15 29//15
f  28//15 29//15 30//15
f  30//15 29//15 31//15
f  31//15 29//15 22//15
f  31//15 22//15 32//15
f  32//15 22//15 21//15
f  32//15 21//15 33//15
f  32//15 33//15 34//15
f  32//15 34//15 35//15
f  35//15 34//15 36//15
f  35//15 36//15 37//15
f  27//15 38//15 24//15
f  23//16 1//16 3//16
f  1//16 23//16 25//17
f  2//18 23//18 3//18
f  23//18 2//18 26//19
f  4//20 26//20 2//20
f  26//20 4//20 29//21
f  22//22 4//22 6//22
f  4//22 22//22 29//22
f  5//23 22//23 6//23
f  22//23 5//23 20//23
f  8//24 20//24 5//24
f  20//24 8//24 21//24
f  9//25 21//25 8//25
f  21//25 9//25 33//26
f  10//27 33//27 9//27
f  33//27 10//27 34//28
f  15//29 34//29 10//29
f  34//29 15//29 36//30
f  37//31 15//31 18//31
f  15//31 37//31 36//32
f  17//33 37//33 18//33
f  37//33 17//33 35//34
f  19//35 35//35 17//35
f  35//35 19//35 32//36
f  31//37 19//37 13//37
f  19//37 31//37 32//38
f  16//39 31//39 13//39
f  31//39 16//39 30//39
f  28//40 16//40 14//40
f  16//40 28//40 30//40
f  27//41 14//41 12//41
f  14//41 27//41 28//41
f  38//42 12//42 11//42
f  12//42 38//42 27//42
f  24//43 11//43 7//43
f  11//43 24//43 38//43
f  25//44 7//44 1//44
f  7//44 25//44 24//45

