# {"id":"BLDG_00030009007e83c8","idOriginal":"BLDG_00030009007e83c8","origin":[13.370832673453524,52.54801467949164],"elevation":36.2700004577637}
# Longitude: 13.370832673453524
# Latitude: 52.54801467949164
# Elevation: 36.2700004577637

# File produced by Open Asset Import Library (http://www.assimp.sf.net)
# (assimp v3.1.0)

mtllib BLDG_00030009007e83c8.obj.mtl

# 16 vertex positions
v  2.18785 15.8447 10.3163
v  0 0 0
v  2.18751 -6.31722e-16 10.3168
v  0.000337887 15.8447 -0.00050197
v  16.5431 -4.4536e-16 7.27328
v  16.5434 15.8447 7.27278
v  16.491 -4.30361e-16 7.02832
v  16.4913 15.8447 7.02782
v  20.1241 -3.83224e-16 6.25853
v  20.1245 15.8447 6.25803
v  17.974 2.33331e-16 -3.81059
v  17.9743 15.8447 -3.81109
v  10.249 15.8447 -2.17328
v  10.2487 1.33044e-16 -2.17278
v  7.84328 15.8447 -1.66308
v  7.84294 1.01803e-16 -1.66258

# 0 UV coordinates

# 20 vertex normals
vn -0.978252 2.74523e-05 0.207422
vn -0.978252 2.74324e-05 0.207422
vn 0.207401 2.66109e-05 0.978256
vn 0.207401 2.65617e-05 0.978256
vn 0.978124 -2.74267e-05 -0.208024
vn 0.978124 -2.74328e-05 -0.208024
vn 0.207279 2.65872e-05 0.978282
vn 0.977952 -2.74518e-05 -0.208828
vn 0.977952 -2.75687e-05 -0.208827
vn -0.207397 -2.65815e-05 -0.978257
vn -0.207396 -2.65418e-05 -0.978257
vn -0.20746 -2.65661e-05 -0.978244
vn -0.20746 -2.65797e-05 -0.978244
vn -0.207376 -2.65697e-05 -0.978261
vn -0.207376 -2.65685e-05 -0.978261
vn 0 1 0
vn 0 -1 -6.12323e-17
vn 3.9729e-23 -1 -6.12324e-17
vn -3.46168e-24 -1 -6.12323e-17
vn 5.20877e-24 -1 -6.12323e-17

# Mesh 'defaultobject' with 28 faces
g defaultobject
usemtl DefaultMaterial
f  1//1 2//1 3//1
f  2//1 1//1 4//2
f  5//3 1//3 3//3
f  1//3 5//3 6//4
f  7//5 6//5 5//5
f  6//5 7//5 8//6
f  9//7 8//7 7//7
f  8//7 9//7 10//7
f  11//8 10//8 9//8
f  10//8 11//8 12//9
f  13//10 11//10 14//10
f  11//10 13//10 12//11
f  15//12 14//12 16//12
f  14//12 15//12 13//13
f  4//14 16//14 2//14
f  16//14 4//14 15//15
f  1//16 15//16 4//16
f  15//16 1//16 6//16
f  15//16 6//16 13//16
f  13//16 6//16 8//16
f  13//16 8//16 12//16
f  10//16 12//16 8//16
f  2//17 5//17 3//17
f  5//17 2//17 16//17
f  5//17 16//17 7//18
f  7//18 16//17 9//19
f  9//19 16//17 14//17
f  9//19 14//17 11//20

