# {"id":"BLDG_0003000f004153d4","idOriginal":"BLDG_0003000f004153d4","origin":[13.402219844516017,52.52483716621658],"elevation":34.0800018310547}
# Longitude: 13.402219844516017
# Latitude: 52.52483716621658
# Elevation: 34.0800018310547

# File produced by Open Asset Import Library (http://www.assimp.sf.net)
# (assimp v3.1.0)

mtllib BLDG_0003000f004153d4.obj.mtl

# 75 vertex positions
v  26.3676 -1.77817e-16 2.90398
v  32.6488 8.9081e-17 -1.4548
v  30.812 -2.6607e-16 4.34525
v  28.2043 1.77334e-16 -2.89608
v  7.88747 1.89138e-16 -3.08886
v  10.4231 5.30413e-16 -8.66231
v  4.77422 6.42581e-16 -10.4942
v  2.23863 3.01306e-16 -4.9207
v  24.5055 -5.37843e-16 8.78364
v  28.9068 -6.34442e-16 10.3612
v  5.57339 -1.22324e-16 1.9977
v  0 0 0
v  31.2489 1.58 2.96563
v  36.166 1.58 -0.314237
v  34.8755 1.58 4.14163
v  32.6488 1.58 -1.45474
v  28.916 1.58 10.3323
v  32.7163 1.58 11.5975
v  38.316 1.58 0.382965
v  37.0948 1.58 4.86127
v  35.0463 1.58 12.3732
v  44.3521 1.58 2.34027
v  42.9631 1.58 6.76417
v  30.8124 1.58 18.1717
v  33.2443 1.58 18.9814
v  40.6194 1.58 14.2287
v  38.5705 1.58 20.7547
v  54.2063 1.58 10.41
v  55.8489 1.58 6.06833
v  51.4032 1.58 17.819
v  48.9811 1.58 24.2207
v  30.8125 23.95 4.3445
v  32.6493 23.95 -1.45556
v  28.2048 23.3609 -2.89682
v  10.4236 26.4641 -8.66315
v  28.2049 26.4641 -2.89692
v  26.3681 25.9859 2.90316
v  26.3681 23.3609 2.90324
v  7.88803 25.9859 -3.08968
v  2.2392 26.4641 -4.92154
v  4.77479 26.4641 -10.495
v  28.9074 23.95 10.3605
v  24.506 23.3609 8.7829
v  0.000565441 26.4641 -0.00083708
v  5.57395 25.9859 1.99688
v  31.2494 23.9454 2.96492
v  32.6493 23.9454 -1.45545
v  36.1664 23.9454 -0.314945
v  28.9165 23.9454 10.3315
v  34.876 23.4968 4.14093
v  32.7168 23.5309 11.5968
v  32.7168 23.4968 11.5968
v  34.876 23.5309 4.14093
v  38.3165 23.9454 0.382258
v  37.0953 23.5309 4.86057
v  37.0953 22.9081 4.86059
v  35.0468 22.9081 12.3726
v  44.3526 23.9454 2.33956
v  44.3525 19.9411 2.33968
v  42.9636 23.5309 6.76347
v  42.9635 19.9411 6.76359
v  30.8129 23.4968 18.171
v  33.2448 23.4968 18.9807
v  38.571 23.4968 20.754
v  40.6199 22.9081 14.2281
v  40.6198 19.9411 14.2282
v  38.5709 19.9411 20.7541
v  55.8493 19.9411 6.06775
v  50.1009 20.4759 4.2037
v  54.2067 19.9411 10.4094
v  51.4036 19.9411 17.8184
v  48.9815 19.9411 24.2201
v  43.7762 20.4759 22.4871
v  48.5851 20.4759 8.58648
v  46.0117 20.4759 16.0233

# 0 UV coordinates

# 103 vertex normals
vn 2.7936e-24 -1 -6.12323e-17
vn 1.8624e-24 -1 -6.12323e-17
vn 2.90944e-25 -1 -6.12323e-17
vn 0 -1 -6.12323e-17
vn 2.69334e-24 -1 -6.12323e-17
vn 0 -1 -6.12323e-17
vn 0 -1 0
vn 0.953337 -1.08712e-05 0.301909
vn 0.953337 -1.07992e-05 0.301908
vn 0.308472 -3.66844e-05 -0.951233
vn 0.308472 -3.6668e-05 -0.951233
vn 0.308472 -3.66779e-05 -0.951233
vn 0.308472 -3.66916e-05 -0.951233
vn 0.953337 -1.051e-05 0.301909
vn 0.953337 -1.09613e-05 0.301909
vn -0.308472 3.6678e-05 0.951233
vn -0.308472 3.66478e-05 0.951233
vn -0.910231 6.34913e-06 -0.414101
vn 0.308472 -3.6689e-05 -0.951233
vn 0.953337 -1.08029e-05 0.301908
vn -0.337415 3.69993e-05 0.941356
vn -0.337415 3.69622e-05 0.941356
vn -0.953337 1.08415e-05 -0.301908
vn -0.953337 1.08446e-05 -0.301908
vn -0.910231 6.34995e-06 -0.414101
vn 0.910231 -6.3572e-06 0.414101
vn -0.337415 3.69885e-05 0.941356
vn -0.337415 3.69936e-05 0.941356
vn -0.953337 1.07765e-05 -0.301908
vn -0.953337 1.09374e-05 -0.301909
vn 0.308457 -3.67204e-05 -0.951238
vn 0.308457 -3.66653e-05 -0.951238
vn -0.953337 1.08674e-05 -0.301909
vn 0.960532 7.21366e-06 0.278169
vn 0.960532 1.44273e-05 0.278169
vn -0.315888 3.67387e-05 0.948796
vn -0.315888 3.676e-05 0.948796
vn 0.308457 -3.66653e-05 -0.951238
vn 0.308457 -3.67166e-05 -0.951238
vn -0.308457 3.81502e-05 0.951238
vn -0.308457 3.99479e-05 0.951238
vn 0.964771 -1.22205e-05 0.26309
vn 0.964771 -1.22147e-05 0.26309
vn 0.308457 -3.67166e-05 -0.951238
vn 0.308457 -3.66627e-05 -0.951238
vn 0.95408 -1.08001e-05 0.299553
vn 0.954079 -1.14026e-05 0.299554
vn -0.308457 3.66985e-05 0.951238
vn -0.308457 3.66773e-05 0.951238
vn -0.315888 3.67081e-05 0.948796
vn -0.315888 3.67356e-05 0.948796
vn -0.960532 1.16924e-05 -0.27817
vn -0.960532 1.17639e-05 -0.27817
vn -0.315888 3.67416e-05 0.948797
vn -0.315888 3.68191e-05 0.948797
vn 0.315888 -3.67177e-05 -0.948796
vn 0.95408 -1.10186e-05 0.299553
vn 0.95408 -1.01973e-05 0.299553
vn 0.308457 -3.66256e-05 -0.951238
vn 0.308457 -3.66897e-05 -0.951238
vn 0.308457 -3.77758e-05 -0.951238
vn 0.935299 -8.6268e-06 0.35386
vn 0.935298 -8.82261e-06 0.35386
vn -0.954079 1.09413e-05 -0.299553
vn 0.935298 -8.79917e-06 0.353861
vn -0.315888 3.67551e-05 0.948796
vn -0.315888 3.68208e-05 0.948796
vn -0.315888 3.67339e-05 0.948797
vn 0.935298 -8.61292e-06 0.35386
vn -0.119262 0.992144 -0.0377685
vn -0.119262 0.992144 -0.0377684
vn -0.0241739 0.996925 0.0745448
vn -0.0241739 0.996925 0.0745448
vn 0.0735359 0.996731 0.0334545
vn -0.0241739 0.996925 0.0745448
vn -0.119262 0.992144 -0.0377685
vn -0.119262 0.992144 -0.0377685
vn 0.0735359 0.996731 0.0334545
vn 0.103058 0.99414 0.0326372
vn -0.0274696 0.996027 0.0847123
vn 0.0989646 0.994678 0.0286601
vn 0.103058 0.99414 0.0326371
vn -0.0274695 0.996027 0.0847123
vn -0.0274696 0.996027 0.0847123
vn 0.22522 0.97237 0.0614167
vn 0.235106 0.969582 0.0680867
vn -0.0274696 0.996027 0.0847123
vn -0.0274696 0.996027 0.0847123
vn 0.02709 0.996316 -0.0813669
vn 0.224073 0.97241 0.0648914
vn 0.0270899 0.996316 -0.081367
vn 0.0851811 0.99593 0.0294602
vn 0.0825342 0.996099 0.0312259
vn -0.0840983 0.996108 -0.0264044
vn -0.0851809 0.99593 -0.0294601
vn -0.0851764 0.99593 -0.029474
vn -0.0893932 0.995601 -0.0280669
vn 0.0843811 0.995922 0.0319247
vn 0.0885378 0.995602 0.0306371
vn -0.0885425 0.995602 -0.0306221
vn -0.092567 0.995282 -0.0290634
vn 0.0876914 0.995595 0.0331771
vn 0.0916864 0.995283 0.0317094

# Mesh 'defaultobject' with 138 faces
g defaultobject
usemtl DefaultMaterial
f  1//1 2//1 3//1
f  2//1 1//1 4//2
f  4//2 5//3 6//3
f  5//3 4//2 1//1
f  7//4 5//3 8//4
f  5//3 7//4 6//3
f  9//5 3//1 10//5
f  3//1 9//5 1//1
f  8//4 11//6 12//6
f  11//6 8//4 5//3
f  13//7 14//7 15//7
f  14//7 13//7 16//7
f  15//7 17//7 13//7
f  17//7 15//7 18//7
f  19//7 15//7 14//7
f  15//7 19//7 20//7
f  20//7 18//7 15//7
f  18//7 20//7 21//7
f  22//7 20//7 19//7
f  20//7 22//7 23//7
f  24//7 21//7 25//7
f  21//7 24//7 18//7
f  25//7 26//7 27//7
f  26//7 25//7 21//7
f  28//7 22//7 29//7
f  22//7 28//7 23//7
f  26//7 28//7 30//7
f  28//7 26//7 23//7
f  27//7 30//7 31//7
f  30//7 27//7 26//7
f  2//8 32//8 3//8
f  32//8 2//8 33//9
f  34//10 2//10 4//10
f  2//10 34//10 33//11
f  35//12 4//10 6//12
f  4//10 35//12 36//13
f  34//14 37//14 38//14
f  37//14 34//14 36//15
f  1//16 39//16 5//16
f  39//16 1//16 37//17
f  40//18 7//18 8//18
f  7//18 40//18 41//18
f  41//19 6//12 7//19
f  6//12 41//19 35//12
f  3//8 42//20 10//20
f  42//20 3//8 32//8
f  10//21 43//21 9//21
f  43//21 10//21 42//22
f  43//23 1//23 9//23
f  1//23 43//23 38//24
f  44//25 8//18 12//25
f  8//18 44//25 40//18
f  5//26 45//26 11//26
f  45//26 5//26 39//26
f  11//27 44//27 12//27
f  44//27 11//27 45//28
f  46//29 16//29 13//29
f  16//29 46//29 47//30
f  47//31 14//31 16//31
f  14//31 47//31 48//32
f  49//33 13//29 17//33
f  13//29 49//33 46//29
f  50//34 51//34 52//34
f  51//34 50//34 53//35
f  18//36 49//36 17//36
f  49//36 18//36 51//37
f  48//32 19//38 14//31
f  19//38 48//32 54//39
f  55//40 50//40 56//40
f  50//40 55//40 53//41
f  20//42 57//42 21//42
f  57//42 20//42 56//43
f  54//39 22//44 19//38
f  22//44 54//39 58//45
f  59//46 60//46 61//46
f  60//46 59//46 58//47
f  23//48 55//40 20//48
f  55//40 23//48 60//49
f  25//50 62//50 24//50
f  62//50 25//50 63//51
f  62//52 18//52 24//52
f  18//52 62//52 52//53
f  27//54 63//51 25//50
f  63//51 27//54 64//55
f  57//56 26//56 21//56
f  26//56 57//56 65//56
f  66//57 64//57 67//57
f  64//57 66//57 65//58
f  59//59 29//59 22//44
f  29//59 59//59 68//60
f  68//60 59//59 69//61
f  29//62 70//62 28//62
f  70//62 29//62 68//63
f  66//64 23//64 26//64
f  23//64 66//64 61//64
f  28//62 71//65 30//65
f  71//65 28//62 70//62
f  72//66 27//54 31//66
f  27//54 72//66 67//67
f  67//67 72//66 73//68
f  30//65 72//69 31//69
f  72//69 30//65 71//65
f  38//70 33//70 34//70
f  33//70 38//70 32//71
f  37//72 35//72 39//72
f  35//72 37//72 36//73
f  40//74 39//74 41//74
f  41//75 39//72 35//72
f  43//76 32//71 38//70
f  32//71 43//76 42//77
f  45//78 40//74 44//78
f  40//74 45//78 39//74
f  53//79 47//79 46//79
f  47//80 53//80 48//80
f  53//81 49//81 51//81
f  49//82 53//79 46//79
f  53//80 54//83 48//80
f  54//83 53//80 55//84
f  56//85 52//85 57//85
f  52//86 56//86 50//86
f  55//84 58//87 54//83
f  58//87 55//84 60//88
f  63//89 57//89 62//89
f  62//90 57//90 52//90
f  65//91 63//89 64//91
f  63//89 65//91 57//89
f  70//92 69//92 74//92
f  69//93 70//93 68//93
f  61//94 69//94 59//94
f  69//95 61//95 74//95
f  61//96 75//96 74//96
f  75//97 61//97 66//97
f  74//98 71//98 70//98
f  71//99 74//99 75//99
f  66//100 73//100 75//100
f  73//101 66//101 67//101
f  75//102 72//102 71//102
f  72//103 75//103 73//103

