# {"id":"BLDG_00030002007d4a34","idOriginal":"BLDG_00030002007d4a34","origin":[13.39293945668192,52.52662122904828],"elevation":34.7200012207031}
# Longitude: 13.39293945668192
# Latitude: 52.52662122904828
# Elevation: 34.7200012207031

# File produced by Open Asset Import Library (http://www.assimp.sf.net)
# (assimp v3.1.0)

mtllib BLDG_00030002007d4a34.obj.mtl

# 8 vertex positions
v  1.46691 2.97386 4.69991
v  6.94104 3.94982 -2.06954
v  8.43439e-05 3.94982 -0.00012495
v  8.40787 2.97386 2.63049
v  6.94096 1.26715e-16 -2.06942
v  0 0 0
v  8.40781 -1.61077e-16 2.63058
v  1.46685 -2.87792e-16 4.7

# 0 UV coordinates

# 12 vertex normals
vn 0.0555586 0.980912 0.186347
vn 0.0555586 0.980912 0.186347
vn -0.285717 -2.42145e-05 -0.958314
vn -0.285717 -2.42059e-05 -0.958314
vn 0.95459 -2.96679e-05 -0.297923
vn 0.95459 -2.98157e-05 -0.297923
vn 0.285717 2.41747e-05 0.958314
vn 0.285717 2.4219e-05 0.958314
vn -0.95459 2.98062e-05 0.297923
vn -0.95459 2.98088e-05 0.297923
vn -2.96929e-24 -1 -6.12323e-17
vn 1.48465e-24 -1 -6.12323e-17

# Mesh 'defaultobject' with 12 faces
g defaultobject
usemtl DefaultMaterial
f  1//1 2//1 3//1
f  2//1 1//1 4//2
f  3//3 5//3 6//3
f  5//3 3//3 2//4
f  5//5 4//5 7//5
f  4//5 5//5 2//6
f  7//7 1//7 8//7
f  1//7 7//7 4//8
f  1//9 6//9 8//9
f  6//9 1//9 3//10
f  5//11 8//11 6//11
f  8//11 5//11 7//12

