# {"id":"BLDG_0003000e0055923c","idOriginal":"BLDG_0003000e0055923c","origin":[13.399261102133881,52.5297675628879],"elevation":35.5999984741211}
# Longitude: 13.399261102133881
# Latitude: 52.5297675628879
# Elevation: 35.5999984741211

# File produced by Open Asset Import Library (http://www.assimp.sf.net)
# (assimp v3.1.0)

mtllib BLDG_0003000e0055923c.obj.mtl

# 10 vertex positions
v  5.15912 16.6412 12.9188
v  0 0 0
v  5.15877 -7.91083e-16 12.9194
v  0.000355499 16.6412 -0.000526549
v  2.57985 21.9769 6.45899
v  21.9651 9.90255e-17 -1.61721
v  21.9655 16.6412 -1.61774
v  22.7923 -7.11586e-16 11.6211
v  22.7926 16.6412 11.6206
v  22.3792 21.9769 5.00124

# 0 UV coordinates

# 15 vertex normals
vn -0.928699 3.15562e-05 0.370834
vn -0.928699 3.15731e-05 0.370834
vn -0.928699 3.16066e-05 0.370834
vn -0.0734275 -2.99873e-05 -0.997301
vn -0.0734275 -2.99892e-05 -0.997301
vn 0.998054 -2.33651e-05 -0.0623602
vn 0.998054 -2.33642e-05 -0.0623602
vn 0.998054 -2.30289e-05 -0.0623602
vn 0.0734275 2.99809e-05 0.997301
vn -3.62453e-25 -1 -6.12323e-17
vn 2.25744e-24 -1 -6.12323e-17
vn -0.0460301 0.779117 -0.625186
vn -0.0460301 0.779117 -0.625186
vn 0.0460287 0.779132 0.625168
vn 0.0460287 0.779132 0.625168

# Mesh 'defaultobject' with 16 faces
g defaultobject
usemtl DefaultMaterial
f  1//1 2//1 3//1
f  2//1 1//1 4//2
f  4//2 1//1 5//3
f  4//4 6//4 2//4
f  6//4 4//4 7//5
f  7//6 8//6 6//6
f  8//6 7//6 9//7
f  9//7 7//6 10//8
f  8//9 1//9 3//9
f  1//9 8//9 9//9
f  6//10 3//10 2//10
f  3//10 6//10 8//11
f  10//12 4//12 5//12
f  4//12 10//12 7//13
f  9//14 5//14 1//14
f  5//14 9//14 10//15

