# {"id":"BLDG_0003000000210111","idOriginal":"BLDG_0003000000210111","origin":[13.392976508860865,52.558001096899844],"elevation":42.060001373291}
# Longitude: 13.392976508860865
# Latitude: 52.558001096899844
# Elevation: 42.060001373291

# File produced by Open Asset Import Library (http://www.assimp.sf.net)
# (assimp v3.1.0)

mtllib BLDG_0003000000210111.obj.mtl

# 8 vertex positions
v  8.62623 3.63873e-16 -5.9425
v  4.51477 3.00383 2.18383
v  4.5147 -1.33727e-16 2.18392
v  8.62629 3.00383 -5.9426
v  5.2284e-05 2.44827 -7.76099e-05
v  0 0 0
v  4.11153 4.976e-16 -8.12642
v  4.11158 2.44827 -8.1265

# 0 UV coordinates

# 9 vertex normals
vn 0.892295 -4.60159e-06 0.451452
vn -0.435462 3.7903e-05 0.900207
vn -0.435462 3.77298e-05 0.900207
vn -0.892295 4.7444e-06 -0.451452
vn -0.892295 4.87247e-06 -0.451452
vn 0.435462 -3.77326e-05 -0.900207
vn 0.435462 -3.77004e-05 -0.900207
vn -0.0982588 0.993918 -0.0497135
vn -9.27389e-24 -1 -6.12323e-17

# Mesh 'defaultobject' with 12 faces
g defaultobject
usemtl DefaultMaterial
f  1//1 2//1 3//1
f  2//1 1//1 4//1
f  3//2 5//2 6//2
f  5//2 3//2 2//3
f  5//4 7//4 6//4
f  7//4 5//4 8//5
f  8//6 1//6 7//6
f  1//6 8//6 4//7
f  8//8 2//8 4//8
f  2//8 8//8 5//8
f  3//9 7//9 1//9
f  7//9 3//9 6//9

