# {"id":"BLDG_0003000f00383b28","idOriginal":"BLDG_0003000f00383b28","origin":[13.372034828453282,52.54365090595413],"elevation":37.0999984741211}
# Longitude: 13.372034828453282
# Latitude: 52.54365090595413
# Elevation: 37.0999984741211

# File produced by Open Asset Import Library (http://www.assimp.sf.net)
# (assimp v3.1.0)

mtllib BLDG_0003000f00383b28.obj.mtl

# 228 vertex positions
v  28.6324 10.77 19.4199
v  46.4117 10.77 28.0746
v  40.5166 16.4 16.9943
v  29.85 10.0885 17.0464
v  16.1481 10.0885 7.20323
v  11.6139 10.0885 8.91124
v  42.3549 10.0885 -11.9668
v  27.5471 10.0885 -18.349
v  14.4614 10.0885 6.45078
v  13.002 10.0885 5.79972
v  11.3375 3.41478 11.6567
v  11.6138 3.41478 8.91145
v  10.5463 3.41478 11.3043
v  29.8499 3.41478 17.0466
v  27.181 3.41478 18.7137
v  28.7932 3.41478 19.4985
v  71.2915 14.2577 -1.77257
v  66.6967 14.2577 -6.30292
v  65.7951 14.2577 -4.1803
v  68.0289 14.2577 -9.43958
v  70.7526 14.2577 -15.8525
v  71.9036 14.2577 -3.17453
v  76.3741 14.2577 -13.4139
v  39.9723 14.315 -17.6535
v  65.7951 14.315 -4.1803
v  66.6967 14.315 -6.30293
v  59.0737 14.315 -7.12467
v  39.1882 14.315 -15.8343
v  11.8596 17.4707 -41.4516
v  41.9609 17.4707 -22.2673
v  51.8253 17.4707 -24.0634
v  36.5674 17.4707 -24.5919
v  34.5666 17.4707 -19.9496
v  10.9953 17.4707 -39.4272
v  7.57158 17.4707 -31.415
v  6.45482 17.4707 -41.2975
v  5.01002 17.4707 -32.629
v  2.72966 17.4707 -33.7098
v  5.95402 17.4707 -41.504
v  2.31785 17.4707 -33.9048
v  56.5909 17.4707 -21.9958
v  66.6967 17.4707 -6.30303
v  70.7527 17.4707 -15.8526
v  39.9723 17.4707 -17.6536
v  7.57152 14.5091 -31.4149
v  33.8084 14.5091 -18.1906
v  34.5665 14.5091 -19.9495
v  14.8437 14.5091 -26.4969
v  6.94808 14.5091 -29.9549
v  39.1884 22.682 -15.8346
v  32.8853 22.682 -16.0487
v  38.2788 22.682 -13.7241
v  41.961 22.682 -22.2675
v  33.8086 22.682 -18.1909
v  36.5675 22.682 -24.5921
v  33.8083 10.1648 -18.1905
v  13.7956 10.1648 -24.2759
v  32.8851 10.1648 -16.0483
v  14.8436 10.1648 -26.4968
v  41.0543 10.4532 -12.5274
v  39.1881 10.4532 -15.8342
v  38.2785 10.4532 -13.7238
v  59.0736 10.4532 -7.12455
v  58.3099 10.4532 -5.09024
v  10.5464 6.26277 11.3042
v  2.50072 6.26277 1.11525
v  0.156295 6.26277 6.67619
v  11.6138 6.26277 8.91136
v  12.491 6.26277 6.94511
v  13.0019 6.26277 5.79984
v  13.7956 10.3873 -24.2759
v  16.1481 10.3873 7.20322
v  27.5471 10.3873 -18.349
v  2.50081 10.3873 1.11512
v  10.9657 10.3873 -25.4997
v  0.000255431 10.3873 -0.00037934
v  49.9351 2.71925 31.887
v  63.4269 2.71925 -0.237001
v  49.27 2.71925 32.1347
v  65.5424 2.71925 0.716183
v  50.5697 2.71925 31.5698
v  51.1678 2.71925 31.1868
v  51.7207 2.71925 30.7422
v  52.2233 2.71925 30.2412
v  52.6702 2.71925 29.6895
v  53.055 2.71925 29.0933
v  53.3747 2.71925 28.4594
v  31.2924 2.71925 25.1994
v  46.4115 2.71925 28.0749
v  32.8621 2.71925 21.4792
v  30.9153 2.71925 26.0932
v  43.827 2.71925 31.5735
v  43.776 2.71925 31.6895
v  44.8599 2.71925 31.9791
v  60.524 2.71925 -3.74997
v  45.3825 2.71925 32.1592
v  64.2636 2.71925 -2.12692
v  45.9176 2.71925 32.2953
v  46.4621 2.71925 32.3865
v  47.1703 2.71925 32.4367
v  47.8794 2.71925 32.4111
v  48.5819 2.71925 32.3101
v  32.8622 9.31469 21.479
v  27.1132 9.31469 23.3964
v  31.2926 9.31469 25.1992
v  28.7933 9.31469 19.4983
v  25.4529 9.31469 22.6803
v  27.1811 9.31469 18.7135
v  60.4816 10.77 -3.65427
v  42.7023 10.77 -12.309
v  48.5976 16.4 -1.2291
v  59.0734 -0.32 -7.12421
v  39.1879 -0.32 -15.8338
v  38.2783 -0.32 -13.7234
v  12.4908 -4.25278e-16 6.94531
v  11.6137 -5.45676e-16 8.91156
v  13.0017 -3.5515e-16 5.80004
v  2.50059 -6.83017e-17 1.11545
v  0.156161 -4.08811e-16 6.67638
v  10.5462 -6.92194e-16 11.3044
v  27.5469 -1.59 -18.3486
v  13.7953 -1.59 -24.2755
v  10.9654 -1.59 -25.4993
v  0 -1.59 -9.73594e-17
v  2.50055 -1.59 1.1155
v  16.1479 -1.59 7.2036
v  31.2924 -0.34 25.1995
v  30.9153 -0.34 26.0933
v  43.7759 -0.34 31.6896
v  43.827 -0.34 31.5735
v  44.8598 -0.34 31.9792
v  45.3825 -0.34 32.1593
v  45.9176 -0.34 32.2954
v  46.462 -0.34 32.3866
v  47.1703 -0.34 32.4368
v  47.8793 -0.34 32.4112
v  48.5819 -0.34 32.3102
v  49.27 -0.34 32.1348
v  49.935 -0.34 31.8871
v  50.5697 -0.34 31.5699
v  51.1677 -0.34 31.1869
v  51.7206 -0.34 30.7423
v  52.2233 -0.34 30.2413
v  52.6701 -0.34 29.6896
v  53.055 -0.34 29.0934
v  53.3746 -0.34 28.4595
v  65.5423 -0.34 0.71628
v  63.4268 -0.34 -0.236904
v  64.2635 -0.34 -2.12682
v  60.524 -0.34 -3.74987
v  46.4115 -0.34 28.075
v  32.862 -0.34 21.4793
v  32.862 -0.149998 21.4793
v  28.7931 -0.149998 19.4986
v  27.1809 -0.149998 18.7138
v  25.4527 -0.149998 22.6806
v  27.113 -0.149998 23.3967
v  31.2924 -0.149998 25.1995
v  46.4115 -0.339998 28.075
v  28.6321 -0.339998 19.4202
v  42.7021 -0.339998 -12.3087
v  60.4814 -0.339998 -3.65392
v  31.2827 10.0885 2.18081
v  36.5182 -0.169998 -9.61728
v  31.2824 -0.169998 2.18114
v  36.5184 10.0885 -9.61761
v  26.4844 10.0885 0.00366661
v  26.4842 -0.169998 0.00399151
v  31.7942 -0.169998 -11.692
v  31.7945 10.0885 -11.6923
v  42.3546 -0.169998 -11.9665
v  29.8498 -0.169998 17.0468
v  27.5469 -0.169998 -18.3487
v  16.1479 -0.169998 7.20356
v  14.4612 -0.169998 6.45111
v  13.0017 -0.169998 5.80005
v  11.6137 -0.169998 8.91157
v  11.3374 0.0500031 11.6568
v  10.5462 0.0500031 11.3044
v  27.1809 0.0500031 18.7138
v  28.7931 0.0500031 19.4986
v  29.8498 0.0500031 17.0467
v  11.6137 0.0500031 8.91156
v  71.2912 -0.459999 -1.77211
v  65.7948 -0.459999 -4.17983
v  71.9033 -0.459999 -3.17406
v  76.3738 -0.459999 -13.4134
v  70.7523 -0.459999 -15.852
v  68.0286 -0.459999 -9.43912
v  66.6964 -0.459999 -6.30246
v  66.6964 -0.509998 -6.30246
v  39.9719 -0.509998 -17.653
v  39.1879 -0.509998 -15.8338
v  59.0734 -0.509998 -7.12421
v  65.7948 -0.509998 -4.17983
v  70.7523 -1.4 -15.852
v  56.5905 -1.4 -21.9952
v  51.8249 -1.4 -24.0628
v  11.8592 -1.4 -41.451
v  10.9949 -1.4 -39.4266
v  6.45441 -1.4 -41.2969
v  5.95362 -1.4 -41.5034
v  2.31745 -1.4 -33.9042
v  2.72926 -1.4 -33.7092
v  5.00962 -1.4 -32.6284
v  7.57118 -1.4 -31.4144
v  34.5662 -1.4 -19.949
v  36.567 -1.4 -24.5913
v  41.9605 -1.4 -22.2667
v  39.9719 -1.4 -17.653
v  66.6963 -1.4 -6.30243
v  34.5661 -1.57 -19.9489
v  7.57118 -1.57 -31.4144
v  6.94773 -1.57 -29.9544
v  14.8434 -1.57 -26.4964
v  33.8081 -1.57 -18.1901
v  41.9605 -0.239998 -22.2668
v  39.1879 -0.239998 -15.8338
v  36.567 -0.239998 -24.5913
v  33.8081 -0.239998 -18.1901
v  32.8848 -0.239998 -16.048
v  38.2783 -0.239998 -13.7234
v  33.8081 -1.53 -18.1901
v  14.8434 -1.53 -26.4964
v  13.7953 -1.53 -24.2755
v  32.8848 -1.53 -16.048
v  41.054 -0.32 -12.5271
v  58.3096 -0.32 -5.0899

# 0 UV coordinates

# 191 vertex normals
vn -0.265414 0.795156 0.545236
vn 0 1 0
vn 0.265424 0.795139 -0.545256
vn -0.452568 0.868854 -0.200688
vn -0.452568 0.868854 -0.200688
vn 0.45257 0.868852 0.200689
vn 0.45257 0.868852 0.200689
vn 0.401194 -3.75524e-05 -0.915993
vn -0.918334 6.96689e-06 -0.395806
vn 0.913248 -6.55991e-06 0.407405
vn 0.913248 -6.56463e-06 0.407405
vn 0.407402 -3.76267e-05 -0.913249
vn 0.407402 -3.76112e-05 -0.913249
vn -0.921459 7.34649e-06 -0.388476
vn -0.921459 7.37499e-06 -0.388476
vn -0.406887 3.75934e-05 0.913479
vn -0.406887 3.77005e-05 0.913479
vn 0.913248 -6.69812e-06 0.407405
vn 0.395803 -3.75484e-05 -0.918336
vn 0.396917 -3.75569e-05 -0.917855
vn -0.91866 7.07974e-06 -0.39505
vn -0.91866 7.08419e-06 -0.39505
vn -0.407402 3.7615e-05 0.913249
vn -0.407402 3.76223e-05 0.913249
vn -0.407402 3.76387e-05 0.913249
vn 0.913248 -6.64776e-06 0.407405
vn -0.92135 7.17019e-06 -0.388734
vn -0.399009 3.75179e-05 0.916947
vn 0.915361 -6.60145e-06 0.402634
vn -0.365545 3.73463e-05 0.930794
vn -0.325783 3.6971e-05 0.945445
vn -0.325786 3.63806e-05 0.945444
vn -0.246555 3.54375e-05 0.969129
vn -0.165253 3.42478e-05 0.986251
vn -0.165246 3.54786e-05 0.986252
vn -0.0706583 3.38372e-05 0.997501
vn -0.0706636 3.2592e-05 0.9975
vn 0.0360711 3.03883e-05 0.999349
vn 0.142375 2.78375e-05 0.989813
vn 0.142374 2.76589e-05 0.989813
vn 0.246955 2.46665e-05 0.969027
vn 0.246961 2.61791e-05 0.969025
vn 0.34901 2.29854e-05 0.937119
vn 0.349008 2.24021e-05 0.93712
vn 0.44705 1.89617e-05 0.894509
vn 0.539335 1.5342e-05 0.842091
vn 0.62666 1.15003e-05 0.779293
vn 0.705944 7.54951e-06 0.708268
vn 0.777094 3.53993e-06 0.629385
vn 0.840165 -5.62844e-07 0.542331
vn 0.892882 -4.61088e-06 0.450291
vn 0.915793 -6.58575e-06 0.401651
vn 0.915793 -7.9029e-06 0.401651
vn 0.4108 -3.75872e-05 -0.911725
vn 0.410799 -3.81038e-05 -0.911726
vn 0.914399 -6.56095e-06 0.404813
vn 0.914399 -7.71099e-06 0.404815
vn 0.398136 -3.74648e-05 -0.917326
vn 0.398136 -3.79613e-05 -0.917327
vn -0.914151 6.4885e-06 -0.405373
vn -0.914151 6.55169e-06 -0.405373
vn 0.437684 -3.84133e-05 -0.899129
vn 0.437684 -3.78675e-05 -0.899129
vn -0.92135 7.17022e-06 -0.388733
vn -0.92135 8.31905e-06 -0.388734
vn 0.437684 -3.77089e-05 -0.899129
vn 0.437684 -3.76207e-05 -0.899129
vn 0.437683 -3.77089e-05 -0.899129
vn -0.916774 6.86622e-06 -0.399407
vn -0.916774 6.76197e-06 -0.399407
vn -0.396073 3.76985e-05 0.918219
vn -0.396073 3.75174e-05 0.918219
vn -0.396072 3.75119e-05 0.918219
vn 0.92135 -7.37403e-06 0.388734
vn 0.92135 -6.99972e-06 0.388733
vn -0.437684 3.79927e-05 0.899129
vn -0.437684 3.79232e-05 0.899129
vn -0.914151 6.74264e-06 -0.405373
vn -0.914151 6.93438e-06 -0.405373
vn 0.437684 -3.79474e-05 -0.899129
vn 0.437684 -3.77971e-05 -0.899129
vn 0.914151 -6.56867e-06 0.405373
vn 0.914151 -6.64781e-06 0.405373
vn -0.914042 6.5248e-06 -0.405621
vn -0.914041 6.85525e-06 -0.405621
vn 0.41319 -3.7676e-05 -0.910645
vn 0.41319 -3.76049e-05 -0.910645
vn 0.910551 -6.39786e-06 0.413397
vn 0.910551 -6.3689e-06 0.413397
vn -0.402121 3.76219e-05 0.915586
vn -0.402121 3.76939e-05 0.915587
vn 0.918335 -6.9679e-06 0.395805
vn 0.918335 -7.34454e-06 0.395805
vn 0.395803 -3.7416e-05 -0.918336
vn 0.395803 -3.76485e-05 -0.918336
vn -0.913248 6.6118e-06 -0.407405
vn -0.913248 6.47988e-06 -0.407405
vn 0.407402 -3.76238e-05 -0.913249
vn 0.407402 -3.76617e-05 -0.913249
vn 0.407402 -3.76192e-05 -0.913249
vn -0.913248 6.5269e-06 -0.407405
vn -0.913248 6.63073e-06 -0.407405
vn -0.407402 3.76169e-05 0.913249
vn -0.407402 3.74679e-05 0.913249
vn -0.406888 3.73883e-05 0.913478
vn -0.406887 3.76542e-05 0.913479
vn -0.406881 3.76509e-05 0.913481
vn -0.406881 3.77816e-05 0.913481
vn -0.437685 3.79758e-05 0.899129
vn 0.918335 -7.21882e-06 0.395805
vn 0.407402 -3.76504e-05 -0.913249
vn 0.407402 -3.77659e-05 -0.913249
vn -0.913248 6.59586e-06 -0.407405
vn -0.913248 6.4804e-06 -0.407404
vn -0.401249 3.75252e-05 0.915969
vn -0.401248 3.75359e-05 0.915969
vn 0.916461 -6.80648e-06 0.400125
vn 0.91646 -6.79717e-06 0.400127
vn 0.397962 -3.74677e-05 -0.917402
vn 0.397962 -3.75271e-05 -0.917402
vn -0.92042 7.65239e-06 -0.39093
vn -0.920421 7.20063e-06 -0.390929
vn -0.920421 7.1753e-06 -0.390929
vn -0.920422 7.18805e-06 -0.390927
vn 0.390927 -3.74802e-05 -0.920422
vn 0.390927 -3.76104e-05 -0.920422
vn -0.918335 7.06044e-06 -0.395805
vn -0.918335 7.0859e-06 -0.395805
vn -0.401194 3.75496e-05 0.915993
vn -0.401248 3.75907e-05 0.915969
vn -0.401248 3.76959e-05 0.915969
vn 0.92042 -7.51058e-06 0.39093
vn 0.397961 -3.7563e-05 -0.917402
vn 0.397961 -3.75971e-05 -0.917402
vn 0.398005 -3.74706e-05 -0.917383
vn 0.398004 -3.75634e-05 -0.917383
vn 0.398954 -3.76108e-05 -0.916971
vn 0.398955 -3.74777e-05 -0.916971
vn -0.919691 7.15257e-06 -0.392642
vn 0.380864 -3.74681e-05 -0.924631
vn 0.381235 -3.74711e-05 -0.924478
vn -0.902052 5.62637e-06 -0.431627
vn -0.902052 5.53912e-06 -0.431627
vn -0.428031 3.76295e-05 0.903764
vn -0.428024 3.78116e-05 0.903768
vn -0.428272 3.78105e-05 0.90365
vn -0.428272 3.78136e-05 0.90365
vn -0.390927 3.76055e-05 0.920422
vn -0.390927 3.73849e-05 0.920422
vn 0.918335 -6.97801e-06 0.395805
vn 0.918334 -7.15795e-06 0.395806
vn -0.395803 3.75347e-05 0.918336
vn -0.395803 3.74573e-05 0.918336
vn -0.918334 7.15608e-06 -0.395805
vn -0.918335 6.97046e-06 -0.395805
vn -0.390927 3.74849e-05 0.920422
vn -0.390927 3.73735e-05 0.920422
vn 0.920421 -6.97526e-06 0.390929
vn 0.92042 -7.32596e-06 0.39093
vn 0.390927 -3.74873e-05 -0.920422
vn 0.390927 -3.74989e-05 -0.920422
vn -0.919664 7.19882e-06 -0.392707
vn -0.919664 7.17156e-06 -0.392707
vn -0.401175 3.75836e-05 0.916002
vn -0.401194 3.75852e-05 0.915993
vn 0.918335 -7.0722e-06 0.395805
vn 0.918334 -7.03221e-06 0.395805
vn 0.918334 -7.00845e-06 0.395805
vn 0.395803 -3.75454e-05 -0.918335
vn -0.918334 7.16678e-06 -0.395805
vn -0.918335 7.01397e-06 -0.395805
vn -0.918335 7.04695e-06 -0.395804
vn -0.395803 3.74676e-05 0.918335
vn -0.395803 3.7503e-05 0.918336
vn 0.918335 -7.0312e-06 0.395805
vn 0.401194 -3.75537e-05 -0.915993
vn 0.401194 -3.74883e-05 -0.915993
vn -0.904359 5.81869e-06 -0.426773
vn -0.395803 3.7472e-05 0.918336
vn -0.395803 3.74093e-05 0.918336
vn 0.918334 -6.94815e-06 0.395805
vn -0.395803 3.75167e-05 0.918336
vn -0.395803 3.75383e-05 0.918336
vn -0.395803 3.76137e-05 0.918336
vn 0.936194 -9.09993e-06 0.351484
vn 0.936195 -8.75366e-06 0.351482
vn -3.67124e-24 -1 -6.12323e-17
vn 0 -1 -6.12323e-17
vn -1.35111e-25 -1 -6.12323e-17
vn 3.55278e-24 -1 -6.12324e-17
vn -0 -1 0

# Mesh 'defaultobject' with 392 faces
g defaultobject
usemtl DefaultMaterial
f  1//1 2//1 3//1
f  4//2 5//2 6//2
f  5//2 4//2 7//2
f  5//2 7//2 8//2
f  6//2 9//2 10//2
f  9//2 6//2 5//2
f  11//2 12//2 13//2
f  12//2 11//2 14//2
f  14//2 11//2 15//2
f  14//2 15//2 16//2
f  17//2 18//2 19//2
f  18//2 17//2 20//2
f  20//2 17//2 21//2
f  21//2 17//2 22//2
f  21//2 22//2 23//2
f  24//2 25//2 26//2
f  25//2 24//2 27//2
f  27//2 24//2 28//2
f  29//2 30//2 31//2
f  30//2 29//2 32//2
f  32//2 29//2 33//2
f  33//2 29//2 34//2
f  33//2 34//2 35//2
f  35//2 34//2 36//2
f  35//2 36//2 37//2
f  37//2 36//2 38//2
f  38//2 36//2 39//2
f  38//2 39//2 40//2
f  41//2 42//2 43//2
f  42//2 41//2 44//2
f  44//2 41//2 31//2
f  44//2 31//2 30//2
f  45//2 46//2 47//2
f  46//2 45//2 48//2
f  48//2 45//2 49//2
f  50//2 51//2 52//2
f  51//2 50//2 53//2
f  51//2 53//2 54//2
f  54//2 53//2 55//2
f  56//2 57//2 58//2
f  57//2 56//2 59//2
f  60//2 61//2 62//2
f  61//2 60//2 63//2
f  63//2 60//2 64//2
f  65//2 66//2 67//2
f  66//2 65//2 68//2
f  66//2 68//2 69//2
f  66//2 69//2 70//2
f  71//2 72//2 73//2
f  72//2 71//2 74//2
f  74//2 71//2 75//2
f  74//2 75//2 76//2
f  77//2 78//2 79//2
f  78//2 77//2 80//2
f  80//2 77//2 81//2
f  80//2 81//2 82//2
f  80//2 82//2 83//2
f  80//2 83//2 84//2
f  80//2 84//2 85//2
f  80//2 85//2 86//2
f  80//2 86//2 87//2
f  88//2 89//2 90//2
f  89//2 88//2 91//2
f  89//2 91//2 92//2
f  92//2 91//2 93//2
f  89//2 92//2 94//2
f  89//2 94//2 95//2
f  95//2 94//2 96//2
f  95//2 96//2 97//2
f  97//2 96//2 98//2
f  97//2 98//2 99//2
f  97//2 99//2 100//2
f  97//2 100//2 101//2
f  97//2 101//2 102//2
f  97//2 102//2 78//2
f  78//2 102//2 79//2
f  103//2 104//2 105//2
f  104//2 103//2 106//2
f  104//2 106//2 107//2
f  107//2 106//2 108//2
f  109//3 110//3 111//3
f  111//4 1//4 3//4
f  1//4 111//4 110//5
f  111//6 2//6 109//6
f  2//6 111//6 3//7
f  61//8 112//8 113//8
f  112//8 61//8 63//8
f  62//9 113//9 114//9
f  113//9 62//9 61//9
f  115//10 68//10 116//10
f  68//10 115//10 69//10
f  117//11 69//10 115//10
f  69//10 117//11 70//11
f  66//12 117//12 118//12
f  117//12 66//12 70//13
f  67//14 118//14 119//14
f  118//14 67//14 66//15
f  120//16 67//16 119//16
f  67//16 120//16 65//17
f  116//10 65//18 120//18
f  65//18 116//10 68//10
f  71//19 121//19 122//19
f  121//19 71//19 73//19
f  75//20 122//20 123//20
f  122//20 75//20 71//20
f  76//21 123//21 124//21
f  123//21 76//21 75//22
f  125//23 76//23 124//23
f  76//23 125//23 74//24
f  126//25 74//24 125//23
f  74//24 126//25 72//25
f  121//26 72//26 126//26
f  72//26 121//26 73//26
f  91//27 127//27 128//27
f  127//27 91//27 88//27
f  129//28 91//28 128//28
f  91//28 129//28 93//28
f  130//29 93//29 129//29
f  93//29 130//29 92//29
f  131//30 92//30 130//30
f  92//30 131//30 94//30
f  132//31 94//31 131//31
f  94//31 132//31 96//32
f  133//33 96//33 132//33
f  96//33 133//33 98//33
f  134//34 98//34 133//34
f  98//34 134//34 99//35
f  135//36 99//36 134//36
f  99//36 135//36 100//37
f  136//38 100//38 135//38
f  100//38 136//38 101//38
f  137//39 101//39 136//39
f  101//39 137//39 102//40
f  138//41 102//41 137//41
f  102//41 138//41 79//42
f  139//43 79//43 138//43
f  79//43 139//43 77//44
f  140//45 77//45 139//45
f  77//45 140//45 81//45
f  141//46 81//46 140//46
f  81//46 141//46 82//46
f  142//47 82//47 141//47
f  82//47 142//47 83//47
f  143//48 83//48 142//48
f  83//48 143//48 84//48
f  144//49 84//49 143//49
f  84//49 144//49 85//49
f  145//50 85//50 144//50
f  85//50 145//50 86//50
f  146//51 86//51 145//51
f  86//51 146//51 87//51
f  147//52 87//52 146//52
f  87//52 147//52 80//53
f  78//54 147//54 148//54
f  147//54 78//54 80//55
f  149//56 78//56 148//56
f  78//56 149//56 97//57
f  95//58 149//58 150//58
f  149//58 95//58 97//59
f  89//60 150//60 151//60
f  150//60 89//60 95//61
f  90//62 151//62 152//62
f  151//62 90//62 89//63
f  88//27 152//64 127//27
f  152//64 88//27 90//65
f  106//66 153//66 154//66
f  153//66 106//66 103//67
f  108//68 154//66 155//68
f  154//66 108//68 106//66
f  107//69 155//69 156//69
f  155//69 107//69 108//70
f  157//71 107//71 156//71
f  107//71 157//71 104//72
f  158//73 104//72 157//71
f  104//72 158//73 105//73
f  153//74 105//74 158//74
f  105//74 153//74 103//75
f  159//76 1//76 160//76
f  1//76 159//76 2//77
f  1//78 161//78 160//78
f  161//78 1//78 110//79
f  110//80 162//80 161//80
f  162//80 110//80 109//81
f  162//82 2//82 159//82
f  2//82 162//82 109//83
f  163//84 164//84 165//84
f  164//84 163//84 166//85
f  167//86 165//86 168//86
f  165//86 167//86 163//87
f  169//88 167//88 168//88
f  167//88 169//88 170//89
f  164//90 170//90 169//90
f  170//90 164//90 166//91
f  171//92 4//92 172//92
f  4//92 171//92 7//93
f  8//94 171//94 173//94
f  171//94 8//94 7//95
f  5//96 173//96 174//96
f  173//96 5//96 8//97
f  9//98 174//98 175//98
f  174//98 9//98 5//99
f  10//100 175//98 176//100
f  175//98 10//100 9//98
f  6//101 176//101 177//101
f  176//101 6//101 10//102
f  172//103 6//103 177//103
f  6//103 172//103 4//104
f  178//105 13//105 179//105
f  13//105 178//105 11//106
f  180//107 11//106 178//105
f  11//106 180//107 15//108
f  181//109 15//109 180//109
f  15//109 181//109 16//109
f  182//110 16//110 181//110
f  16//110 182//110 14//110
f  12//111 182//111 183//111
f  182//111 12//111 14//112
f  13//113 183//113 179//113
f  183//113 13//113 12//114
f  184//115 19//115 185//115
f  19//115 184//115 17//116
f  186//117 17//117 184//117
f  17//117 186//117 22//117
f  187//118 22//117 186//117
f  22//117 187//118 23//118
f  21//119 187//119 188//119
f  187//119 21//119 23//120
f  20//121 188//121 189//121
f  188//121 20//121 21//122
f  18//123 189//121 190//123
f  189//121 18//123 20//121
f  19//124 190//123 185//124
f  190//123 19//124 18//123
f  24//125 191//125 192//125
f  191//125 24//125 26//126
f  28//127 192//127 193//127
f  192//127 28//127 24//128
f  194//129 28//129 193//129
f  28//129 194//129 27//129
f  195//130 27//130 194//130
f  27//130 195//130 25//131
f  191//132 25//132 195//132
f  25//132 191//132 26//132
f  41//133 196//133 197//133
f  196//133 41//133 43//134
f  31//135 197//135 198//135
f  197//135 31//135 41//136
f  29//137 198//137 199//137
f  198//137 29//137 31//138
f  34//139 199//139 200//139
f  199//139 34//139 29//139
f  36//140 200//140 201//140
f  200//140 36//140 34//140
f  39//141 201//141 202//141
f  201//141 39//141 36//141
f  40//142 202//142 203//142
f  202//142 40//142 39//143
f  204//144 40//144 203//144
f  40//144 204//144 38//145
f  205//146 38//146 204//146
f  38//146 205//146 37//146
f  206//147 37//146 205//146
f  37//146 206//147 35//147
f  207//148 35//148 206//148
f  35//148 207//148 33//149
f  208//150 33//150 207//150
f  33//150 208//150 32//151
f  209//152 32//152 208//152
f  32//152 209//152 30//153
f  44//154 209//154 210//154
f  209//154 44//154 30//155
f  211//156 44//156 210//156
f  44//156 211//156 42//157
f  196//158 42//158 211//158
f  42//158 196//158 43//159
f  45//160 212//160 213//160
f  212//160 45//160 47//161
f  49//162 213//162 214//162
f  213//162 49//162 45//163
f  215//164 49//164 214//164
f  49//164 215//164 48//164
f  216//165 48//165 215//165
f  48//165 216//165 46//165
f  212//166 46//166 216//166
f  46//166 212//166 47//166
f  217//167 50//167 218//167
f  50//167 217//167 53//168
f  55//169 217//169 219//169
f  217//169 55//169 53//169
f  54//170 219//170 220//170
f  219//170 54//170 55//171
f  51//172 220//170 221//172
f  220//170 51//172 54//170
f  222//173 51//173 221//173
f  51//173 222//173 52//174
f  218//167 52//175 222//175
f  52//175 218//167 50//167
f  59//176 223//176 224//176
f  223//176 59//176 56//177
f  57//178 224//178 225//178
f  224//178 57//178 59//178
f  226//179 57//179 225//179
f  57//179 226//179 58//180
f  223//181 58//181 226//181
f  58//181 223//181 56//181
f  227//182 62//182 114//182
f  62//182 227//182 60//182
f  228//183 60//182 227//182
f  60//182 228//183 64//184
f  112//185 64//185 228//185
f  64//185 112//185 63//186
f  115//187 118//187 117//187
f  118//187 115//187 119//188
f  119//188 115//187 116//189
f  119//188 116//189 120//190
f  122//191 124//191 123//191
f  124//191 122//191 121//191
f  124//191 121//191 126//191
f  124//191 126//191 125//191
f  149//191 148//191 150//191
f  127//191 129//191 128//191
f  129//191 127//191 152//191
f  129//191 152//191 130//191
f  130//191 152//191 151//191
f  130//191 151//191 131//191
f  131//191 151//191 132//191
f  132//191 151//191 133//191
f  133//191 151//191 150//191
f  133//191 150//191 134//191
f  134//191 150//191 135//191
f  135//191 150//191 136//191
f  136//191 150//191 137//191
f  137//191 150//191 138//191
f  138//191 150//191 139//191
f  139//191 150//191 140//191
f  140//191 150//191 141//191
f  141//191 150//191 142//191
f  142//191 150//191 143//191
f  143//191 150//191 144//191
f  144//191 150//191 145//191
f  145//191 150//191 146//191
f  146//191 150//191 148//191
f  146//191 148//191 147//191
f  154//191 156//191 155//191
f  156//191 154//191 153//191
f  156//191 153//191 157//191
f  157//191 153//191 158//191
f  160//191 162//191 159//191
f  162//191 160//191 161//191
f  172//191 173//191 171//191
f  173//191 172//191 174//191
f  174//191 172//191 177//191
f  174//191 177//191 175//191
f  175//191 177//191 176//191
f  180//191 182//191 181//191
f  182//191 180//191 178//191
f  182//191 178//191 183//191
f  183//191 178//191 179//191
f  185//191 186//191 184//191
f  186//191 185//191 187//191
f  187//191 185//191 188//191
f  188//191 185//191 190//191
f  188//191 190//191 189//191
f  191//191 193//191 192//191
f  193//191 191//191 194//191
f  194//191 191//191 195//191
f  211//191 197//191 196//191
f  197//191 211//191 210//191
f  197//191 210//191 198//191
f  198//191 210//191 209//191
f  209//191 199//191 198//191
f  199//191 209//191 208//191
f  199//191 208//191 207//191
f  199//191 207//191 200//191
f  200//191 207//191 206//191
f  200//191 206//191 201//191
f  201//191 206//191 205//191
f  201//191 205//191 202//191
f  202//191 205//191 204//191
f  202//191 204//191 203//191
f  212//191 214//191 213//191
f  214//191 212//191 215//191
f  215//191 212//191 216//191
f  218//191 219//191 217//191
f  219//191 218//191 220//191
f  220//191 218//191 221//191
f  221//191 218//191 222//191
f  224//191 226//191 225//191
f  226//191 224//191 223//191
f  227//191 112//191 228//191
f  112//191 227//191 113//191
f  113//191 227//191 114//191

