# {"id":"BLDG_0003000b0056a506","idOriginal":"BLDG_0003000b0056a506","origin":[13.401211153114273,52.52775280239998],"elevation":36.0499992370605}
# Longitude: 13.401211153114273
# Latitude: 52.52775280239998
# Elevation: 36.0499992370605

# File produced by Open Asset Import Library (http://www.assimp.sf.net)
# (assimp v3.1.0)

mtllib BLDG_0003000b0056a506.obj.mtl

# 38 vertex positions
v  2.49888 19.9347 5.87728
v  0.986244 18.1448 2.31877
v  4.12906 18.0534 9.71264
v  0 0 0
v  4.12867 -5.94763e-16 9.71321
v  0.000385714 18.0534 -0.000571149
v  6.907 1.20188e-16 -1.96282
v  6.90739 18.0534 -1.96339
v  9.08759 19.7335 4.43962
v  8.59727 19.3556 2.9996
v  10.2871 18.0534 7.96266
v  8.49274 19.2751 2.6926
v  8.94391 19.9347 4.01762
v  10.2867 -4.87607e-16 7.96323
v  17.6117 -1.80492e-15 29.4765
v  13.3229 19.3556 31.3422
v  13.3225 -1.91919e-15 31.3428
v  17.6121 19.3556 29.4759
v  10.5851 -1.52485e-15 24.9027
v  10.5855 18.0534 24.9021
v  15.3487 -1.39794e-15 22.83
v  15.3491 18.0534 22.8295
v  9.85636 18.3853 6.69757
v  7.71969 18.1448 0.422288
v  6.90737 16.9572 -1.96335
v  12.8678 2.23911e-16 -3.65675
v  12.8682 18.0534 -3.65732
v  16.2475 -3.83884e-16 6.2693
v  16.2479 18.0534 6.26873
v  14.5581 19.3556 1.30566
v  12.8181 19.3556 15.396
v  21.0431 18.0534 20.352
v  21.0427 -1.24624e-15 20.3526
v  23.3061 18.0534 26.9985
v  23.3058 -1.65322e-15 26.9991
v  20.4592 19.3556 28.2372
v  15.7318 19.3556 14.3532
v  18.1961 19.3556 21.5907

# 0 UV coordinates

# 58 vertex normals
vn -0.920312 3.19434e-05 0.391185
vn -0.920312 3.2043e-05 0.391185
vn -0.920312 3.20384e-05 0.391185
vn -0.273354 -2.45915e-05 -0.961913
vn -0.273354 -2.45962e-05 -0.961913
vn -0.946632 3.02693e-05 0.322317
vn 0.946632 -3.11842e-05 -0.322317
vn 0.273354 2.45978e-05 0.961913
vn 0.273354 2.45896e-05 0.961913
vn 0.398969 2.04872e-05 0.916964
vn 0.398969 2.05083e-05 0.916964
vn -0.920312 3.20083e-05 0.391185
vn -0.920312 3.20394e-05 0.391185
vn -0.398969 -2.05487e-05 -0.916964
vn -0.398969 -2.04308e-05 -0.916964
vn 0.946632 -3.08552e-05 -0.322317
vn 0.94663 -2.11461e-05 -0.322321
vn 0.946632 -3.03765e-05 -0.322317
vn -0.273354 -2.45962e-05 -0.961913
vn -0.273354 -2.45907e-05 -0.961913
vn 0.946632 -3.0397e-05 -0.322317
vn 0.946632 -3.04013e-05 -0.322317
vn 0.946632 -3.00324e-05 -0.322317
vn -0.946632 3.04342e-05 0.322317
vn -0.946632 2.98442e-05 0.322317
vn 0.946632 -3.04227e-05 -0.322317
vn 0.946632 -3.04183e-05 -0.322317
vn 0.398969 2.05487e-05 0.916964
vn 0.398969 1.94596e-05 0.916964
vn -0.065976 0.970436 -0.232164
vn -0.065976 0.970437 -0.232164
vn 0.0659752 0.970437 0.232162
vn 0.0659752 0.970437 0.232162
vn 0.0551361 0.986524 0.15405
vn -0.0551364 0.986523 -0.154051
vn -0.0459566 0.985766 -0.161718
vn 0.367193 0.921704 -0.125025
vn 0.367193 0.921704 -0.125025
vn -0.367185 0.921708 0.125022
vn 0.367193 0.921704 -0.125025
vn -0.0729946 0.983121 -0.167766
vn -0.367185 0.921708 0.125022
vn -0.00984339 0.999341 -0.0349488
vn -0.00998873 0.999332 -0.0351496
vn -0.118291 0.9044 -0.409961
vn -0.114649 0.906178 -0.407058
vn 0.112594 0.91123 0.39621
vn 0.114763 0.910295 0.397735
vn -0.0729946 0.983121 -0.167766
vn -0.0729946 0.983121 -0.167766
vn 0 -1 -6.12323e-17
vn 1.63161e-24 -1 -6.12323e-17
vn -2.17874e-24 -1 -6.12323e-17
vn 2.06996e-23 -1 -6.12323e-17
vn 2.4367e-23 -1 -6.12323e-17
vn 3.41138e-23 -1 -6.12324e-17
vn -1.4081e-24 -1 -6.12323e-17
vn -3.88169e-23 -1 -6.12323e-17

# Mesh 'defaultobject' with 67 faces
g defaultobject
usemtl DefaultMaterial
f  1//1 2//1 3//1
f  3//1 4//2 5//2
f  4//2 3//1 6//3
f  6//3 3//1 2//1
f  6//4 7//4 4//4
f  7//4 6//4 8//5
f  9//6 10//6 11//6
f  12//6 8//5 8//5
f  8//7 13//7 9//7
f  14//8 3//8 5//8
f  3//8 14//8 11//9
f  15//10 16//10 17//10
f  16//10 15//10 18//11
f  16//12 19//12 17//12
f  19//12 16//12 20//13
f  20//14 21//14 19//14
f  21//14 20//14 22//15
f  23//16 24//16 10//16
f  12//6 10//17 24//17
f  8//7 12//6 25//18
f  8//5 26//19 7//4
f  26//19 8//5 27//20
f  27//21 28//21 26//21
f  28//21 27//21 29//22
f  29//22 27//21 30//23
f  22//24 14//24 21//24
f  14//24 22//24 11//6
f  11//6 22//24 31//25
f  28//21 32//26 33//26
f  32//26 28//21 29//22
f  33//26 34//27 35//27
f  34//27 33//26 32//26
f  34//28 15//10 35//28
f  15//10 34//28 18//11
f  18//11 34//28 36//29
f  27//30 10//30 30//30
f  10//30 27//30 8//31
f  30//32 11//32 29//32
f  11//32 30//32 10//33
f  22//34 37//34 31//34
f  37//35 11//35 31//35
f  11//36 37//36 29//36
f  32//37 37//37 38//37
f  37//37 32//37 29//38
f  37//39 22//39 38//39
f  38//37 34//40 32//37
f  34//40 38//37 36//40
f  36//41 22//41 18//41
f  36//42 38//39 22//39
f  8//43 2//43 24//43
f  2//44 8//44 6//44
f  24//45 1//45 13//45
f  1//46 24//46 2//46
f  13//47 3//47 11//47
f  3//48 13//48 1//48
f  20//49 18//41 22//41
f  18//41 20//49 16//50
f  26//51 14//51 7//51
f  14//51 26//51 28//52
f  28//52 21//53 14//51
f  21//53 28//52 33//54
f  35//55 21//53 33//54
f  21//53 35//55 15//56
f  7//51 5//57 4//57
f  5//57 7//51 14//51
f  19//58 15//56 17//58
f  15//56 19//58 21//53

