# {"id":"DEB_LOD2_UUID_d76aad77-e38d-429c-b763-9eec53bb4ad2","idOriginal":"DEB_LOD2_UUID_d76aad77-e38d-429c-b763-9eec53bb4ad2","origin":[13.405917489633985,52.510880345334016],"elevation":35.463}
# Longitude: 13.405917489633985
# Latitude: 52.510880345334016
# Elevation: 35.463

# File produced by Open Asset Import Library (http://www.assimp.sf.net)
# (assimp v3.1.0)

mtllib DEB_LOD2_UUID_d76aad77-e38d-429c-b763-9eec53bb4ad2.obj.mtl

# 35 vertex positions
v  11.999 15.812 -5.451
v  12.159 18.843 -9.349
v  6.196 18.843 -9.369
v  12.049 15.849 -5.499
v  12.104 15.85 -5.5
v  16.036 15.901 -5.552
v  15.944 18.843 -9.336
v  16.036 3.39962e-16 -5.552
v  12.159 5.72461e-16 -9.349
v  15.944 5.71665e-16 -9.336
v  12.104 3.36778e-16 -5.5
v  6.196 5.73686e-16 -9.369
v  12.049 3.36717e-16 -5.499
v  11.999 3.33777e-16 -5.451
v  11.926 3.29552e-16 -5.382
v  11.048 2.78668e-16 -4.551
v  11.007 -5.57214e-18 0.091
v  6.121 5.73747e-16 -9.37
v  3.656 5.74237e-16 -9.378
v  0.134 5.74972e-16 -9.39
v  5.987 -2.93915e-18 0.048
v  0.077 3.32063e-16 -5.423
v  3.723 -1.77574e-18 0.029
v  0 0 0
v  11.007 16.284 0.091
v  6.065 18.882 -5.402
v  5.987 18.882 0.048
v  11.048 16.297 -4.551
v  6.121 18.882 -9.37
v  11.926 15.849 -5.382
v  3.723 17.71 0.029
v  0.134 15.784 -9.39
v  3.656 17.606 -9.378
v  0.077 15.784 -5.423
v  0 15.784 9.66491e-16

# 0 UV coordinates

# 59 vertex normals
vn -0.00205873 0.789468 0.613789
vn 0.00532332 0.789311 0.61397
vn -0.00319799 0.789437 0.613824
vn -0.0021214 0.789431 0.613835
vn -0.00210818 0.789438 0.613827
vn 0 -1 -6.12323e-17
vn 6.99731e-24 -1 -6.12323e-17
vn 4.01829e-24 -1 -6.12323e-17
vn 0 -1 -6.1232e-17
vn 4.4633e-22 -1 -6.12327e-17
vn -3.08496e-22 -1 -6.12319e-17
vn 1.28149e-23 -1 -6.12323e-17
vn 1.86403e-23 -1 -6.12324e-17
vn -7.02968e-22 -1 -6.1232e-17
vn 1.29678e-23 -1 -6.12323e-17
vn -2.2382e-24 -1 -6.12323e-17
vn -1.79734e-23 -1 -6.12323e-17
vn -8.91358e-24 -1 -6.12323e-17
vn 0 -1 -6.12323e-17
vn 0.0181774 0 0.999835
vn 0.0132237 0 0.999913
vn 0.0132237 0 0.999913
vn 0.459571 0.888117 0.00657735
vn 0.459598 0.888103 0.00654661
vn 0.459606 0.888099 0.00648634
vn 0.45948 0.888163 0.00664914
vn 0.458465 0.888672 0.00851092
vn 0.461312 0.887232 0.00311542
vn -0.00839193 -9.29073e-11 0.999965
vn -0.00856542 -2.21804e-05 0.999963
vn -0.0085115 0 0.999964
vn -0.00847869 0.000167606 0.999964
vn 0.00340716 0 -0.999994
vn 0.00324557 0 -0.999995
vn 0.00324557 0 -0.999995
vn 0.0133248 0 -0.999911
vn 0.00335407 -3.96085e-05 -0.999994
vn 0.0152881 0.00377675 -0.999876
vn 0.00335407 0 -0.999994
vn 0.00343447 0 -0.999994
vn -0.999899 0 -0.0141974
vn -0.999897 0 -0.0143671
vn -0.00778918 -1.05172e-10 0.99997
vn -0.00778918 -6.12305e-17 0.99997
vn 0.999705 0 -0.0243055
vn 0.999705 0 -0.0243055
vn 0.687401 0 0.726278
vn 0.687401 0 0.726278
vn 0.686917 0 0.726736
vn 0.692529 0 0.72139
vn 0.692529 0 0.72139
vn 0.999961 0 0.00883213
vn 0.999961 -0 0.00883213
vn -0.459431 0.888189 -0.00652335
vn -0.459671 0.888067 -0.0063197
vn -0.459484 0.888162 -0.00657609
vn -0.459483 0.888162 -0.0066021
vn -0.45945 0.888179 -0.00666513
vn -0.459681 0.888061 -0.00648741

# Mesh 'defaultobject' with 66 faces
g defaultobject
usemtl DefaultMaterial
f  1//1 2//1 3//1
f  2//2 1//2 4//2
f  2//3 4//3 5//3
f  2//4 5//4 6//4
f  2//5 6//5 7//5
f  8//6 9//6 10//6
f  9//6 8//6 11//7
f  9//6 11//7 12//8
f  12//8 11//7 13//9
f  12//8 13//9 14//10
f  12//8 14//10 15//11
f  12//8 15//11 16//12
f  12//8 16//12 17//13
f  12//8 17//13 18//14
f  18//14 17//13 19//15
f  19//15 17//13 20//16
f  20//16 17//13 21//17
f  20//16 21//17 22//18
f  22//18 21//17 23//6
f  22//18 23//6 24//19
f  11//20 4//20 13//20
f  4//20 11//20 5//20
f  5//21 11//21 8//21
f  5//21 8//21 6//22
f  25//23 26//23 27//23
f  26//24 25//24 28//24
f  26//25 28//25 29//25
f  29//26 28//26 30//26
f  29//27 30//27 1//27
f  29//28 1//28 3//28
f  21//29 31//29 23//29
f  31//30 21//30 17//30
f  31//31 17//31 25//31
f  31//32 25//32 27//32
f  32//33 19//33 20//33
f  19//33 32//33 33//33
f  19//34 33//34 18//34
f  18//34 33//34 29//35
f  18//36 29//36 12//36
f  12//37 29//37 9//37
f  9//38 29//38 3//38
f  9//39 3//39 2//39
f  9//40 2//40 10//40
f  10//40 2//40 7//40
f  34//41 24//41 35//41
f  24//41 34//41 22//41
f  22//42 34//42 32//42
f  22//42 32//42 20//42
f  31//43 24//43 23//43
f  24//43 31//43 35//44
f  7//45 8//45 10//45
f  8//45 7//45 6//46
f  15//47 28//47 16//47
f  28//47 15//47 30//48
f  30//49 15//49 14//49
f  30//49 14//49 1//49
f  1//50 14//50 13//50
f  1//50 13//50 4//51
f  28//52 17//52 16//52
f  17//52 28//52 25//53
f  31//54 34//54 35//54
f  34//55 31//55 27//55
f  34//56 27//56 26//56
f  34//57 26//57 32//57
f  32//58 26//58 33//58
f  33//59 26//59 29//59

