# {"id":"DEB_LOD2_UUID_2b6c71d9-0739-484d-b43c-0f4359666b48","idOriginal":"DEB_LOD2_UUID_2b6c71d9-0739-484d-b43c-0f4359666b48","origin":[13.397179306076213,52.51376017490873],"elevation":32.5}
# Longitude: 13.397179306076213
# Latitude: 52.51376017490873
# Elevation: 32.5

# File produced by Open Asset Import Library (http://www.assimp.sf.net)
# (assimp v3.1.0)

mtllib DEB_LOD2_UUID_2b6c71d9-0739-484d-b43c-0f4359666b48.obj.mtl

# 46 vertex positions
v  15.573 22.54 -4.315
v  16.367 10.15 2.14
v  15.573 10.15 -4.315
v  16.367 22.54 2.14
v  1.706 19.07 -2.684
v  1.844 1.6447e-16 -2.686
v  1.706 1.64348e-16 -2.684
v  1.844 19.07 -2.686
v  0.117 19.07 -2.497
v  0.117 1.52897e-16 -2.497
v  0.401 19.07 -0.042
v  0.401 2.57176e-18 -0.042
v  14.057 22.54 -4.136
v  12.35 2.40949e-16 -3.935
v  12.35 22.54 -3.935
v  15.626 10.15 -4.321
v  15.626 2.64585e-16 -4.321
v  14.057 2.53257e-16 -4.136
v  15.573 2.64218e-16 -4.315
v  21.564 3.07325e-16 -5.019
v  21.564 10.15 -5.019
v  14.806 22.54 2.324
v  13.102 -1.54612e-16 2.525
v  14.806 -1.42304e-16 2.324
v  13.102 22.54 2.525
v  22.321 10.15 1.435
v  21.83 -9.13587e-17 1.492
v  22.321 -8.78684e-17 1.435
v  21.83 10.15 1.492
v  0 19.07 1.1677e-15
v  0 0 0
v  2.679 22.54 3.759
v  1.886 19.07 -2.691
v  2.679 19.07 3.759
v  1.886 22.54 -2.691
v  6.907 -1.99495e-16 3.258
v  6.907 22.54 3.258
v  16.377 10.15 2.139
v  1.886 1.64776e-16 -2.691
v  0.512 19.07 4.016
v  0.512 -2.45909e-16 4.016
v  16.377 -1.30976e-16 2.139
v  16.367 -1.31037e-16 2.14
v  2.679 -2.30172e-16 3.759
v  2.496 -2.31519e-16 3.781
v  2.496 19.07 3.781

# 0 UV coordinates

# 47 vertex normals
vn 0.99252 0 -0.122085
vn -0.0144902 -0 -0.999895
vn -0.116878 -0 -0.993146
vn -0.993375 0 0.114916
vn -0.116943 0 -0.993139
vn -0.117259 2.4311e-05 -0.993101
vn -0.117092 0 -0.993121
vn -0.112488 -0.00148144 -0.993652
vn -0.117017 0 -0.99313
vn 8.74896e-21 -1 -6.11727e-17
vn -1.58664e-21 1 6.12188e-17
vn -0.116744 -0 -0.993162
vn 0.117146 0 0.993115
vn 0.115315 0 0.993329
vn 0.993191 0 -0.116493
vn -0.104168 6.08992e-17 -0.99456
vn -0.104168 0 -0.99456
vn -0.992527 0 0.122027
vn 0.117502 0 0.993073
vn 0 1 0
vn -0.118216 -0 -0.992988
vn -0.118052 3.64662e-07 -0.993007
vn -0.118216 -9.10412e-05 -0.992988
vn -0.118052 0 -0.993007
vn -0.118052 0 -0.993007
vn -0.991971 0 0.126466
vn -0.991971 -7.74383e-18 0.126466
vn 0 -1 -6.12323e-17
vn -6.60133e-23 -1 -6.12322e-17
vn 5.92956e-24 -1 -6.12323e-17
vn 7.27294e-23 -1 -6.12323e-17
vn -3.2406e-21 -1 -6.12324e-17
vn -2.07152e-23 -1 -6.12323e-17
vn -1.89765e-23 -1 -6.12323e-17
vn -1.54494e-24 -1 -6.12323e-17
vn -5.22416e-24 -1 -6.12323e-17
vn -1.41438e-22 -1 -6.12323e-17
vn 4.80112e-23 -1 -6.12323e-17
vn 0 -1 -6.12323e-17
vn 4.18391e-24 -1 -6.12323e-17
vn 0.0995178 0 0.995036
vn 0.117063 0 0.993125
vn 0.117625 0 0.993058
vn 0.11936 0 0.992851
vn 0.117673 0 0.993052
vn 0.117673 -0 0.993052
vn 0.117824 0 0.993035

# Mesh 'defaultobject' with 88 faces
g defaultobject
usemtl DefaultMaterial
f  1//1 2//1 3//1
f  2//1 1//1 4//1
f  5//2 6//2 7//2
f  6//2 5//2 8//2
f  9//3 7//3 10//3
f  7//3 9//3 5//3
f  11//4 10//4 12//4
f  10//4 11//4 9//4
f  13//5 14//5 15//5
f  14//6 13//6 1//6
f  14//7 1//7 3//7
f  14//8 3//8 16//8
f  14//9 16//9 17//9
f  14//10 17//10 18//10
f  18//11 17//11 19//11
f  16//12 20//12 17//12
f  20//12 16//12 21//12
f  22//13 23//13 24//13
f  23//13 22//13 25//13
f  26//14 27//14 28//14
f  27//14 26//14 29//14
f  21//15 28//15 20//15
f  28//15 21//15 26//15
f  30//16 12//16 31//16
f  12//16 30//16 11//17
f  32//18 33//18 34//18
f  33//18 32//18 35//18
f  25//19 36//19 23//19
f  36//19 25//19 37//19
f  2//20 16//20 3//20
f  16//20 2//20 38//20
f  16//20 38//20 29//20
f  16//20 29//20 21//20
f  21//20 29//20 26//20
f  32//20 15//20 35//20
f  15//20 32//20 37//20
f  15//20 37//20 25//20
f  15//20 25//20 22//20
f  15//20 22//20 13//20
f  13//20 22//20 4//20
f  13//20 4//20 1//20
f  8//21 39//21 6//21
f  39//22 8//22 14//22
f  14//23 8//23 33//23
f  14//22 33//24 15//24
f  15//24 33//24 35//25
f  40//26 31//26 41//26
f  31//26 40//26 30//27
f  28//28 17//10 20//28
f  17//10 28//28 27//29
f  17//10 27//29 42//30
f  17//10 42//30 19//31
f  19//31 42//30 43//32
f  19//31 43//32 24//33
f  19//31 24//33 18//10
f  18//10 24//33 14//10
f  14//10 24//33 23//34
f  14//10 23//34 39//35
f  39//35 23//34 36//36
f  39//35 36//36 44//28
f  39//35 44//28 45//28
f  39//35 45//28 6//37
f  6//37 45//28 7//38
f  7//38 45//28 41//39
f  7//38 41//39 12//39
f  7//38 12//39 10//40
f  12//39 41//39 31//39
f  42//41 2//41 43//41
f  2//41 42//41 38//41
f  43//42 22//42 24//42
f  22//42 43//42 4//42
f  4//1 43//42 2//1
f  45//43 40//43 41//43
f  40//43 45//43 46//43
f  46//44 45//44 44//44
f  46//44 44//44 34//44
f  34//45 44//45 36//45
f  34//45 36//45 32//46
f  32//46 36//45 37//46
f  29//47 42//47 27//47
f  42//47 29//47 38//47
f  46//20 30//20 40//20
f  30//20 46//20 34//20
f  30//20 34//20 11//20
f  11//20 34//20 33//20
f  11//20 33//20 8//20
f  11//20 8//20 9//20
f  9//20 8//20 5//20

