# {"id":"DEB_LOD2_UUID_79215b0c-fc49-4ac5-822c-562b22e3389c","idOriginal":"DEB_LOD2_UUID_79215b0c-fc49-4ac5-822c-562b22e3389c","origin":[13.399599479175063,52.527714731817554],"elevation":36.42}
# Longitude: 13.399599479175063
# Latitude: 52.527714731817554
# Elevation: 36.42

# File produced by Open Asset Import Library (http://www.assimp.sf.net)
# (assimp v3.1.0)

mtllib DEB_LOD2_UUID_79215b0c-fc49-4ac5-822c-562b22e3389c.obj.mtl

# 38 vertex positions
v  11.556 20.42 -4.095
v  11.767 2.03169e-16 -3.318
v  11.556 2.50746e-16 -4.095
v  11.767 20.42 -3.318
v  11.994 20.42 -3.382
v  11.994 18.26 -3.382
v  18.756 18.26 -5.289
v  18.756 3.23858e-16 -5.289
v  11.994 2.07088e-16 -3.382
v  8.279 20.42 3.037
v  7.009 18.26 -1.974
v  8.279 18.26 3.037
v  7.009 20.42 -1.974
v  22.147 15.07 7.306
v  3.207 -7.70425e-16 12.582
v  22.147 -4.47363e-16 7.306
v  3.207 15.07 12.582
v  13.268 18.26 1.647
v  13.268 20.42 1.647
v  21.658 18.26 5.489
v  2.742 15.07 10.758
v  21.658 15.07 5.489
v  2.742 18.26 10.758
v  7.193 20.42 -2.026
v  7.009 1.7041e-16 -2.783
v  7.193 1.24057e-16 -2.026
v  7.009 20.42 -2.783
v  0 18.26 1.1181e-15
v  1.272 18.26 4.989
v  20.111 18.26 -0.259
v  20.498 18.26 1.179
v  2.742 -6.58738e-16 10.758
v  1.272 -3.05488e-16 4.989
v  0 0 0
v  21.658 -3.36104e-16 5.489
v  7.009 1.20873e-16 -1.974
v  20.498 -7.21929e-17 1.179
v  20.111 1.58592e-17 -0.259

# 0 UV coordinates

# 43 vertex normals
vn 0.96505 0 -0.262067
vn -0.271359 -0 -0.962478
vn -0.271359 0 -0.962478
vn -0.27143 9.51516e-07 -0.962458
vn -0.271427 0 -0.962459
vn 2.23399e-19 -1 -6.0453e-17
vn -0.969352 0 0.245675
vn 0.268347 0 0.963322
vn 0.969378 0 -0.245573
vn 0.268391 0 0.96331
vn 0.268332 0 0.963327
vn -0.971707 0 0.236188
vn -0 1 0
vn -5.72321e-24 -1 -6.12324e-17
vn -9.0478e-25 -1 -6.12323e-17
vn -1.04626e-24 -1 -6.12323e-17
vn -1.44374e-24 -1 -6.12323e-17
vn 2.60705e-24 -1 -6.12324e-17
vn -3.88689e-24 -1 -6.12323e-17
vn -4.1308e-23 -1 -6.12321e-17
vn 5.58307e-24 -1 -6.12324e-17
vn -1.48175e-24 -1 -6.12323e-17
vn -9.11888e-24 -1 -6.12324e-17
vn 0.965637 0 -0.259894
vn 0.965637 0 -0.259894
vn 0.965642 -4.94385e-06 -0.259877
vn 0.965637 2.08421e-06 -0.259893
vn 0.965642 0 -0.259877
vn -0.969001 0 0.247057
vn -0.969036 -3.99163e-05 0.24692
vn -0.969007 3.09646e-05 0.247033
vn -0.96902 -6.5982e-06 0.246982
vn -0.969007 0 0.247033
vn -0.969001 0.000264199 0.247057
vn -0.969036 0 0.24692
vn -0.271092 5.89394e-17 -0.962554
vn -0.271092 0 -0.962554
vn -0.271957 0 -0.962309
vn 0.965579 0 -0.260111
vn 0.965642 -6.92666e-05 -0.259877
vn 0.965579 1.9801e-05 -0.260111
vn 0.965642 0 -0.259877
vn -0.277232 -0 -0.960803

# Mesh 'defaultobject' with 72 faces
g defaultobject
usemtl DefaultMaterial
f  1//1 2//1 3//1
f  2//1 1//1 4//1
f  4//2 5//2 2//2
f  6//3 2//2 5//2
f  7//4 2//4 6//4
f  8//5 2//4 7//4
f  9//6 2//6 8//6
f  10//7 11//7 12//7
f  11//7 10//7 13//7
f  14//8 15//8 16//8
f  15//8 14//8 17//8
f  5//9 18//9 6//9
f  18//9 5//9 19//9
f  19//10 12//10 18//10
f  12//10 19//10 10//10
f  20//11 21//11 22//11
f  21//11 20//11 23//11
f  24//12 25//12 26//12
f  25//12 24//12 27//12
f  28//13 12//13 11//13
f  12//13 28//13 29//13
f  6//13 30//13 7//13
f  30//13 6//13 18//13
f  30//13 18//13 31//13
f  31//13 18//13 12//13
f  31//13 12//13 29//13
f  31//13 29//13 23//13
f  31//13 23//13 20//13
f  32//14 16//14 15//14
f  16//14 32//14 33//15
f  16//14 33//15 34//16
f  16//14 34//16 35//17
f  35//17 34//16 36//18
f  35//17 36//18 37//19
f  37//19 36//18 26//20
f  37//19 26//20 25//21
f  37//19 25//21 38//22
f  38//22 25//21 2//6
f  2//6 25//21 3//23
f  38//22 9//6 8//6
f  9//6 38//22 2//6
f  14//13 21//13 17//13
f  21//13 14//13 22//13
f  10//13 24//13 13//13
f  24//13 10//13 1//13
f  1//13 10//13 4//13
f  4//13 10//13 5//13
f  5//13 10//13 19//13
f  1//13 27//13 24//13
f  20//24 37//24 31//24
f  37//24 20//24 22//25
f  37//26 22//26 14//26
f  37//24 14//27 35//27
f  35//28 14//26 16//28
f  33//29 28//29 34//29
f  28//30 33//30 32//30
f  28//31 32//31 15//31
f  28//32 15//32 21//32
f  21//33 15//33 17//33
f  21//34 29//34 28//34
f  29//35 21//35 23//35
f  28//36 36//36 34//36
f  36//36 28//36 11//37
f  36//38 11//38 26//38
f  26//38 11//38 24//38
f  24//38 11//38 13//38
f  30//39 8//39 7//39
f  8//40 30//40 31//40
f  8//41 31//41 38//41
f  38//42 31//42 37//26
f  27//43 3//43 25//43
f  3//43 27//43 1//43

