# {"id":"DEB_LOD2_UUID_25dc84a2-cd9d-4d77-8ea6-addae0d33971","idOriginal":"DEB_LOD2_UUID_25dc84a2-cd9d-4d77-8ea6-addae0d33971","origin":[13.385786456771262,52.52753990429359],"elevation":34.77}
# Longitude: 13.385786456771262
# Latitude: 52.52753990429359
# Elevation: 34.77

# File produced by Open Asset Import Library (http://www.assimp.sf.net)
# (assimp v3.1.0)

mtllib DEB_LOD2_UUID_25dc84a2-cd9d-4d77-8ea6-addae0d33971.obj.mtl

# 152 vertex positions
v  1.501 24.55 -0.807
v  0 22.883 1.40118e-15
v  5.069 24.55 5.548
v  2.028 22.734 3.922
v  1.076 21.725 4.333
v  1.502 20.608 7.426
v  17.428 1.27608e-16 -2.084
v  13.513 18.974 -0.192
v  13.513 1.17566e-17 -0.192
v  17.428 18.895 -2.084
v  13.459 19.31 -0.166
v  13.459 1.01646e-17 -0.166
v  13.513 19.308 -0.192
v  25.739 21.529 -7.074
v  25.878 4.38056e-16 -7.154
v  25.878 21.533 -7.154
v  25.739 19.181 -7.074
v  24.947 19.162 -6.616
v  25.739 4.33158e-16 -7.074
v  24.947 4.05113e-16 -6.616
v  10.462 22.263 -5.626
v  10.462 24.415 -5.626
v  0 0 0
v  1.501 4.94145e-17 -0.807
v  6.101 24.55 -3.281
v  6.101 2.00903e-16 -3.281
v  6.221 24.381 -3.345
v  6.221 2.04822e-16 -3.345
v  10.462 3.44493e-16 -5.626
v  10.507 22.263 -5.65
v  22.2 22.324 -11.937
v  10.507 3.45963e-16 -5.65
v  22.2 7.3093e-16 -11.937
v  2.028 -2.40153e-16 3.922
v  1.076 -2.6532e-16 4.333
v  44.46 21.492 -12.941
v  42.997 7.43422e-16 -12.141
v  44.46 7.92408e-16 -12.941
v  42.997 22.88 -12.141
v  40.948 22.415 -16.697
v  40.489 1.00617e-15 -16.432
v  40.489 22.889 -16.432
v  41.84 21.557 -17.211
v  41.84 1.05387e-15 -17.211
v  40.948 1.0224e-15 -16.697
v  12.243 19.771 -0.162
v  13.196 19.764 -0.654
v  6.626 21.252 17.299
v  6.334 21.91 16.779
v  6.626 21.91 17.299
v  30.538 22.93 -2.336
v  28.897 8.86032e-17 -1.447
v  28.897 22.93 -1.447
v  30.538 22.198 -2.336
v  31.193 22.846 -2.691
v  30.538 1.43039e-16 -2.336
v  31.193 1.64776e-16 -2.691
v  2.925 21.91 17.813
v  2.375 -8.39557e-16 13.711
v  2.925 -1.09073e-15 17.813
v  2.375 21.91 13.711
v  31.464 25.43 -8.352
v  35.816 25.43 -18.899
v  27.887 25.43 -14.844
v  45.013 25.43 -2.735
v  33.822 25.43 -4.073
v  36.915 25.43 1.54
v  32.884 22.93 3.668
v  31.979 -2.53869e-16 4.146
v  32.884 -2.246e-16 3.668
v  31.979 22.93 4.146
v  22.87 22.318 -12.279
v  22.87 25.391 -12.279
v  23.255 18.861 -5.079
v  23.647 2.70035e-16 -4.41
v  23.255 3.10999e-16 -5.079
v  23.647 18.452 -4.41
v  34.374 -1.7641e-16 2.881
v  34.374 22.93 2.881
v  36.915 -9.42978e-17 1.54
v  45.013 1.6747e-16 -2.735
v  45.023 1.67838e-16 -2.741
v  45.023 25.419 -2.741
v  47.674 2.53502e-16 -4.14
v  47.674 22.925 -4.14
v  31.284 22.93 -2.726
v  26.756 21.533 -7.617
v  27.803 25.348 -14.801
v  28.096 22.852 -8.324
v  28.84 22.85 -6.97
v  28.84 4.26789e-16 -6.97
v  28.096 5.09698e-16 -8.324
v  25.215 18.845 -6.077
v  25.215 3.72109e-16 -6.077
v  17.892 18.408 -1.287
v  45.706 22.906 -7.507
v  46.875 22.917 -5.507
v  45.706 4.59671e-16 -7.507
v  46.875 3.37207e-16 -5.507
v  17.892 7.8806e-17 -1.287
v  5.161 21.91 14.69
v  4.128 21.91 12.85
v  5.161 24.55 14.69
v  4.128 22.225 12.85
v  30.117 22.93 0.768
v  31.227 22.93 2.782
v  31.227 -1.70348e-16 2.782
v  30.117 -4.70264e-17 0.768
v  38.304 1.23512e-15 -20.171
v  35.816 1.15723e-15 -18.899
v  27.887 9.08933e-16 -14.844
v  27.803 9.063e-16 -14.801
v  23.112 7.59403e-16 -12.402
v  26.756 4.66407e-16 -7.617
v  22.87 7.51872e-16 -12.279
v  13.196 4.00459e-17 -0.654
v  12.243 9.91964e-18 -0.162
v  11.076 -2.70035e-17 0.441
v  6.626 -1.05926e-15 17.299
v  4.205 -7.84509e-16 12.812
v  4.128 -7.86836e-16 12.85
v  3.641 -7.23766e-16 11.82
v  1.617 -5.05595e-16 8.257
v  1.502 -4.54711e-16 7.426
v  17.459 -7.23215e-16 11.811
v  15.234 -7.95224e-16 12.987
v  11.918 -1.18852e-16 1.941
v  15.075 -8.00368e-16 13.071
v  10.614 -9.44509e-16 15.425
v  9.222 -9.89515e-16 16.16
v  7.221 -1.05424e-15 17.217
v  6.873 -1.05718e-15 17.265
v  3.671 -7.26889e-16 11.871
v  3.671 21.035 11.871
v  4.205 22.227 12.812
v  9.05 24.55 12.639
v  15.075 24.55 13.071
v  15.234 24.55 12.987
v  17.459 21.409 11.811
v  1.617 21.018 8.257
v  3.641 21.035 11.82
v  6.873 21.159 17.265
v  7.221 21.425 17.217
v  11.918 21.409 1.941
v  11.076 21.409 0.441
v  9.691 24.55 3.114
v  9.222 23.268 16.16
v  1.502 21.268 7.426
v  7.461 24.55 9.809
v  38.304 22.933 -20.171
v  23.112 25.389 -12.402
v  10.614 24.55 15.425

# 0 UV coordinates

# 244 vertex normals
vn -0.609788 0.714805 0.342364
vn -0.609902 0.714633 0.342519
vn -0.609855 0.714809 0.342236
vn -0.609857 0.714846 0.342154
vn 0.435122 0 0.900371
vn 0.435122 0 0.900371
vn 0.43381 0 0.901004
vn 0.43381 0 0.901004
vn 0.498822 0 0.866704
vn 0.498822 0 0.866704
vn 0.500605 1.72069e-05 0.865676
vn 0.498822 -9.82734e-05 0.866704
vn 0.500605 0 0.865676
vn 0.871961 0 -0.489576
vn 0.871961 0 -0.489576
vn -0.47354 0 -0.880772
vn -0.47354 0 -0.880772
vn -0.473666 0 -0.880705
vn -0.470588 0 -0.882353
vn -0.473679 1.95593e-05 -0.880698
vn -0.470588 -0.000691562 -0.882353
vn -0.473679 0 -0.880698
vn -0.47059 0 -0.882352
vn -0.473561 7.71928e-06 -0.880761
vn -0.470589 -0.00200392 -0.88235
vn -0.473561 0 -0.880761
vn -0.396362 -0 -0.918094
vn -0.396362 0 -0.918094
vn 0.479777 0 0.87739
vn 0.479777 -0 0.87739
vn -0.499994 0 -0.866029
vn -0.499288 -1.92499e-05 -0.866436
vn -0.499519 0 -0.866303
vn -2.24616e-19 1 6.08398e-17
vn 0.295501 0.773318 0.560944
vn 0.295315 0.773335 0.56102
vn 0.29267 0.773305 0.562445
vn 0.297885 0.773656 0.559214
vn 0.871934 0 -0.489624
vn -0.476335 0 -0.879264
vn -0.476335 0 -0.879264
vn -0.476512 1.69538e-05 -0.879168
vn -0.476335 -6.0949e-06 -0.879264
vn -0.476499 0 -0.879175
vn -0.991131 0 0.132892
vn 0 1 0
vn 0.467035 0 0.884239
vn -0.875772 0 0.482726
vn -0.875772 0 0.482726
vn 0.862795 0 -0.505554
vn 0.467042 0 0.884235
vn 0.466736 0 0.884397
vn 0.466736 0 0.884397
vn 0.466849 0 0.884337
vn 0.514547 0 0.857462
vn 0.514547 0 0.857462
vn 0.466722 0 0.884404
vn 0.466722 0 0.884404
vn -0.574328 0.754514 0.317579
vn -0.574416 0.754671 0.317046
vn -0.575291 0.754174 0.316641
vn -0.574861 0.75446 0.31674
vn -0.574814 0.754402 0.316964
vn -0.574885 0.754403 0.316832
vn -0.574924 0.75438 0.316819
vn -0.573301 0.754343 0.319832
vn -0.574922 0.754373 0.316838
vn -0.574965 0.754343 0.31683
vn -0.876407 0 0.481571
vn -0.876255 2.14078e-05 0.481848
vn -0.876407 -6.76907e-05 0.48157
vn -0.876255 0 0.481848
vn 0.453749 0 0.89113
vn 0.453749 -0 0.89113
vn 0.217465 0.884294 0.413199
vn 0.219686 0.884344 0.411914
vn 0.217503 0.884327 0.413107
vn 0.21748 0.884339 0.413094
vn 0.218043 0.884111 0.413287
vn 0.217401 0.884349 0.413115
vn 0.217553 0.884327 0.413081
vn 0.283373 0.881558 0.377564
vn 0.218554 0.88428 0.412653
vn 0.21763 0.884336 0.413023
vn 0.863306 0 -0.504682
vn 0.86334 -1.61931e-05 -0.504622
vn 0.863343 -1.81653e-05 -0.504617
vn 0.863306 1.21674e-05 -0.504682
vn 0.86334 4.0853e-07 -0.504622
vn 0.863343 0 -0.504617
vn 0.476957 0 0.878927
vn 0.476957 -0 0.878927
vn -0.871943 0 0.489607
vn -0.87198 0 0.489541
vn -3.33133e-23 -1 -6.12323e-17
vn -3.90282e-23 -1 -6.12323e-17
vn 7.35908e-24 -1 -6.12323e-17
vn -6.16533e-24 -1 -6.12323e-17
vn 5.60872e-24 -1 -6.12323e-17
vn 2.79116e-24 -1 -6.12323e-17
vn 2.28929e-23 -1 -6.12323e-17
vn 4.69547e-22 -1 -6.12324e-17
vn 0 -1 -6.12323e-17
vn 1.30536e-22 -1 -6.12323e-17
vn -3.55246e-22 -1 -6.12324e-17
vn 2.41403e-23 -1 -6.12323e-17
vn -3.03958e-23 -1 -6.12323e-17
vn 5.08676e-24 -1 -6.12323e-17
vn -3.94055e-24 -1 -6.12323e-17
vn 2.4496e-24 -1 -6.12323e-17
vn 5.79475e-23 -1 -6.12323e-17
vn -2.97192e-23 -1 -6.12323e-17
vn 5.10893e-24 -1 -6.12323e-17
vn -2.94494e-24 -1 -6.12323e-17
vn -4.27048e-23 -1 -6.12323e-17
vn 1.20064e-22 -1 -6.12324e-17
vn 2.44054e-23 -1 -6.12323e-17
vn -9.99686e-24 -1 -6.12324e-17
vn -1.38653e-22 -1 -6.12323e-17
vn 7.47784e-23 -1 -6.12323e-17
vn 1.82575e-23 -1 -6.12323e-17
vn 6.32108e-24 -1 -6.12323e-17
vn -1.24257e-24 -1 -6.12323e-17
vn 1.95671e-24 -1 -6.12323e-17
vn 4.43656e-24 -1 -6.12323e-17
vn -7.72275e-21 -1 -6.12298e-17
vn -2.1753e-24 -1 -6.12323e-17
vn -1.48284e-24 -1 -6.12323e-17
vn 2.50782e-22 -1 -6.12323e-17
vn -1.38145e-23 -1 -6.12323e-17
vn 1.03413e-23 -1 -6.12323e-17
vn -2.34068e-23 -1 -6.12323e-17
vn -1.25369e-19 -1 -6.12145e-17
vn 9.29516e-24 -1 -6.12323e-17
vn 9.7561e-24 -1 -6.12323e-17
vn -3.70969e-24 -1 -6.12323e-17
vn -2.366e-22 -1 -6.12323e-17
vn -2.36274e-24 -1 -6.12323e-17
vn 4.68864e-23 -1 -6.12324e-17
vn -7.52667e-24 -1 -6.12323e-17
vn 1.0195e-22 -1 -6.12323e-17
vn -6.54506e-24 -1 -6.12323e-17
vn -2.06198e-22 -1 -6.12323e-17
vn -1.75914e-24 -1 -6.12323e-17
vn 0.852343 0 -0.522983
vn 0.852343 0 -0.522983
vn 0.551077 0.768043 -0.326228
vn 0.550676 0.768333 -0.32622
vn 0.309284 0.932596 -0.186032
vn 0.86313 0.0194607 -0.504607
vn 0.550684 0.768385 -0.326086
vn 0.55086 0.768165 -0.326305
vn -0.345555 0.671928 -0.65506
vn -0.341734 0.671874 -0.657117
vn -0.345521 0.671849 -0.655159
vn 0.467123 0 0.884193
vn 0.467285 0 0.884107
vn 0.467285 0 0.884107
vn -0.869502 0 0.49393
vn -0.861935 0.00294584 0.507011
vn -0.869718 -0.000129208 0.493549
vn -0.869396 3.3596e-05 0.494117
vn -0.869718 0 0.493549
vn -0.228216 -0.964312 0.134241
vn -0.864211 0 0.50313
vn 0.136367 0 0.990658
vn 0.136638 0 0.990621
vn 0.136638 0 0.990621
vn 0.137561 0 0.990493
vn -0.440853 -0 -0.897579
vn -0.442549 -0.000168525 -0.896744
vn -0.440853 7.40933e-06 -0.897579
vn -0.442549 0 -0.896744
vn -0.875793 0 0.482686
vn -0.875727 1.37651e-05 0.482806
vn -0.875793 -9.32324e-06 0.482686
vn -0.875727 0 0.482806
vn 0.680661 0.625074 -0.382078
vn 0.680583 0.625158 -0.382078
vn 0.679401 0.626856 -0.3814
vn 0.678792 0.627701 -0.381094
vn 0.680618 0.625122 -0.382075
vn 0.680542 0.625395 -0.381764
vn -0.463297 0 -0.886203
vn 0.467075 0 0.884218
vn 0.467075 -0 0.884218
vn -0.550497 0.775369 0.309446
vn -0.550702 0.775342 0.309148
vn -0.550702 0.775348 0.309133
vn -0.544588 0.775117 0.320341
vn -0.550761 0.775262 0.309244
vn 0.466452 0 0.884546
vn 0.466644 0 0.884445
vn 0.466644 0 0.884445
vn 0.895422 0 -0.445218
vn 0.895422 0 -0.445218
vn 0.579431 0.745388 -0.329631
vn 0.5965 0.727322 -0.339397
vn 0.579361 0.745448 -0.329619
vn 0.579402 0.745327 -0.32982
vn 0.3455 0.6719 0.655119
vn 0.345486 0.671909 0.655116
vn 0.343208 0.671391 0.656842
vn 0.87201 0 -0.489488
vn 0.871986 3.95908e-06 -0.489531
vn 0.87201 -2.60514e-05 -0.489488
vn 0.871986 0 -0.489531
vn 0.252418 0.838457 0.482985
vn 0.253521 0.838443 0.482432
vn 0.254211 0.838444 0.482067
vn 0.253951 0.83842 0.482246
vn -0.550109 0.775569 0.309634
vn -0.55075 0.775292 0.309188
vn -0.550762 0.775284 0.309186
vn 0.45905 -2.11947e-09 0.88841
vn 0.45905 0 0.88841
vn 0.458738 0 0.888572
vn 0.458738 0 0.888572
vn 0.466924 0 0.884297
vn 0.466924 0 0.884297
vn 0.466694 0 0.884419
vn -0.455318 -0 -0.890329
vn -0.455318 0 -0.890329
vn -0.455675 0 -0.890146
vn -0.455675 0 -0.890146
vn -0.455325 0 -0.890325
vn -0.455212 0 -0.890383
vn -0.888275 0 0.459312
vn -0.888275 -2.81248e-17 0.459312
vn -0.875923 0 0.48245
vn -0.880298 0 0.474422
vn -0.880298 0 0.474422
vn -0.454643 -0 -0.890674
vn -0.4531 5.83221e-05 -0.89146
vn -0.454643 -2.10546e-05 -0.890674
vn -0.4531 0 -0.89146
vn -0.4531 0 -0.89146
vn 0.863385 0 -0.504545
vn -0.465869 0 -0.884854
vn -0.99056 0 0.137081
vn -0.99056 0 0.137081
vn -0.990648 0 0.136442
vn -0.99056 9.26764e-05 0.137081
vn -0.990649 -2.66394e-05 0.136433

# Mesh 'defaultobject' with 300 faces
g defaultobject
usemtl DefaultMaterial
f  1//1 2//1 3//1
f  4//2 3//2 2//2
f  5//3 3//3 4//3
f  6//4 3//4 5//4
f  7//5 8//5 9//5
f  8//5 7//5 10//6
f  9//7 11//7 12//7
f  11//7 9//7 13//8
f  13//8 9//5 8//5
f  14//9 15//9 16//9
f  15//9 14//9 17//10
f  15//11 17//11 18//11
f  15//12 18//12 19//12
f  19//13 18//13 20//13
f  21//14 13//14 8//14
f  13//14 21//14 22//15
f  1//16 23//16 2//16
f  23//16 1//16 24//17
f  24//18 1//18 25//18
f  24//18 25//18 26//18
f  26//19 25//19 27//19
f  26//20 27//20 22//20
f  26//21 22//21 28//21
f  28//22 22//22 29//22
f  29//22 22//15 21//14
f  29//23 21//23 30//23
f  29//24 30//24 31//24
f  29//25 31//25 32//25
f  32//26 31//24 33//26
f  5//27 34//27 35//27
f  34//27 5//27 4//28
f  36//29 37//29 38//29
f  37//29 36//29 39//30
f  40//31 41//31 42//31
f  41//32 40//32 43//32
f  41//33 43//33 44//33
f  41//34 44//34 45//34
f  46//35 22//35 27//35
f  22//36 46//36 47//36
f  22//37 47//37 13//37
f  13//38 47//38 11//38
f  48//39 49//39 50//39
f  51//40 52//40 53//40
f  52//40 51//40 54//41
f  52//42 54//42 55//42
f  52//40 55//43 56//43
f  56//44 55//44 57//44
f  58//45 59//45 60//45
f  59//45 58//45 61//45
f  62//46 63//46 64//46
f  63//46 62//46 65//46
f  65//46 62//46 66//46
f  65//46 66//46 67//46
f  68//47 69//47 70//47
f  69//47 68//47 71//47
f  14//48 72//48 17//48
f  72//48 14//48 73//49
f  74//50 75//50 76//50
f  75//50 74//50 77//50
f  78//51 68//47 70//47
f  68//47 78//51 79//51
f  79//52 78//52 80//52
f  79//52 80//52 67//53
f  67//54 80//54 81//54
f  67//54 81//54 65//54
f  65//55 81//55 82//55
f  65//55 82//55 83//56
f  83//57 82//57 84//57
f  83//57 84//57 85//58
f  86//59 55//59 54//59
f  87//60 64//60 88//60
f  64//61 87//61 89//61
f  64//62 89//62 62//62
f  62//63 89//63 90//63
f  62//64 90//64 55//64
f  62//65 55//65 66//65
f  66//66 55//66 86//66
f  66//67 86//67 79//67
f  66//68 79//68 67//68
f  91//69 89//69 92//69
f  89//70 91//70 57//70
f  89//71 57//71 90//71
f  90//72 57//72 55//72
f  93//73 76//73 94//73
f  76//73 93//73 74//74
f  77//75 74//75 95//75
f  8//76 30//76 21//76
f  30//77 8//77 31//77
f  31//78 8//78 10//78
f  31//79 10//79 95//79
f  31//80 95//80 74//80
f  31//81 74//81 93//81
f  31//82 93//82 18//82
f  18//83 72//83 31//83
f  72//84 18//84 17//84
f  96//85 37//85 39//85
f  37//86 96//86 97//86
f  37//86 97//86 85//87
f  37//88 85//88 98//88
f  98//89 85//89 99//89
f  99//89 85//89 84//90
f  77//91 100//91 75//91
f  100//91 77//91 95//92
f  50//46 61//46 58//46
f  61//46 50//46 49//46
f  61//46 49//46 101//46
f  61//46 101//46 102//46
f  103//93 101//93 49//93
f  101//94 103//94 102//94
f  102//94 103//94 104//94
f  105//46 51//46 53//46
f  51//46 105//46 86//46
f  86//46 105//46 79//46
f  79//46 105//46 106//46
f  79//46 106//46 71//46
f  79//46 71//46 68//46
f  38//95 37//95 44//95
f  69//96 107//96 57//96
f  56//97 57//96 107//96
f  108//98 56//97 107//96
f  52//99 56//97 108//98
f  84//100 82//100 99//100
f  98//101 99//100 82//100
f  37//95 98//101 82//100
f  81//102 37//95 82//100
f  80//103 37//95 81//102
f  44//95 37//95 80//103
f  45//104 44//95 80//103
f  41//105 45//104 80//103
f  109//106 41//105 80//103
f  110//107 109//106 80//103
f  111//108 110//107 80//103
f  78//109 111//108 80//103
f  57//96 111//108 78//109
f  70//110 57//96 78//109
f  69//96 57//96 70//110
f  91//103 111//108 57//96
f  92//111 111//108 91//103
f  112//112 111//108 92//111
f  113//113 112//112 92//111
f  114//114 113//113 92//111
f  15//115 113//113 114//114
f  19//116 113//113 15//115
f  20//117 113//113 19//116
f  94//118 76//118 20//117
f  113//113 20//117 76//118
f  115//119 113//113 76//118
f  33//120 115//119 76//118
f  75//121 100//121 76//118
f  33//120 76//118 100//121
f  7//122 33//120 100//121
f  32//123 33//120 7//122
f  9//124 32//123 7//122
f  12//125 32//123 9//124
f  116//126 32//123 12//125
f  117//127 32//123 116//126
f  118//103 32//123 117//127
f  119//128 60//128 120//128
f  121//129 120//128 60//128
f  59//130 121//129 60//128
f  122//131 123//131 34//131
f  35//132 34//131 123//131
f  124//133 35//132 123//131
f  125//134 126//134 127//134
f  128//135 127//134 126//134
f  129//136 127//134 128//135
f  118//103 127//134 129//136
f  32//123 118//103 129//136
f  29//137 32//123 129//136
f  28//138 29//137 129//136
f  130//139 28//138 129//136
f  131//140 28//138 130//139
f  26//141 28//138 131//140
f  24//142 26//141 131//140
f  132//143 24//142 131//140
f  119//128 24//142 132//143
f  120//128 24//142 119//128
f  133//103 24//142 120//128
f  122//131 24//142 133//103
f  34//131 24//142 122//131
f  23//144 24//142 34//131
f  43//145 38//145 44//145
f  38//145 43//145 36//146
f  83//147 39//147 40//147
f  39//148 83//148 85//148
f  39//149 85//149 96//149
f  96//150 85//150 97//150
f  40//151 39//151 36//151
f  40//152 36//152 43//152
f  134//153 135//153 136//153
f  104//154 103//154 135//154
f  136//155 135//155 103//155
f  126//156 137//156 128//156
f  137//156 126//156 138//156
f  138//157 126//157 125//157
f  138//157 125//157 139//158
f  122//159 140//159 123//159
f  140//160 122//160 133//160
f  140//161 133//161 120//161
f  140//162 120//162 134//162
f  134//163 120//163 135//163
f  140//164 134//164 141//164
f  95//165 7//165 100//165
f  7//165 95//165 10//165
f  132//166 48//166 119//166
f  48//166 132//166 142//166
f  142//167 132//167 131//167
f  142//167 131//167 143//168
f  119//169 58//169 60//169
f  58//169 119//169 50//169
f  50//39 119//128 48//39
f  61//170 121//170 59//170
f  121//171 61//171 120//171
f  120//172 61//170 102//172
f  120//173 102//173 135//173
f  135//173 102//173 104//173
f  107//174 105//174 108//174
f  105//175 107//175 69//175
f  105//174 69//176 106//176
f  106//177 69//177 71//177
f  138//178 144//178 145//178
f  144//179 138//179 139//179
f  146//180 27//180 25//180
f  27//181 146//181 138//181
f  27//182 138//182 145//182
f  27//183 145//183 46//183
f  86//184 54//184 51//184
f  147//185 131//185 130//185
f  131//185 147//185 143//186
f  140//187 3//187 148//187
f  3//188 140//188 149//188
f  149//189 140//189 141//189
f  149//190 141//190 134//190
f  149//191 134//191 136//191
f  114//192 16//192 15//192
f  16//192 114//192 87//192
f  87//193 114//193 92//193
f  87//193 92//193 89//194
f  18//195 94//195 20//195
f  94//195 18//195 93//196
f  40//197 42//197 83//197
f  83//198 63//198 65//198
f  63//199 83//199 42//199
f  63//200 42//200 150//200
f  49//201 136//201 103//201
f  136//202 49//202 142//202
f  142//203 49//203 48//203
f  144//204 118//204 145//204
f  118//205 144//205 139//205
f  118//206 139//206 127//206
f  127//207 139//205 125//207
f  14//208 151//208 73//208
f  151//209 14//209 16//209
f  151//210 16//210 87//210
f  151//211 87//211 88//211
f  143//212 136//212 142//212
f  136//213 143//213 147//213
f  136//214 147//214 152//214
f  117//215 145//215 118//215
f  145//215 117//215 46//216
f  46//217 117//217 116//217
f  46//217 116//217 47//218
f  129//219 147//219 130//219
f  147//219 129//219 152//220
f  152//221 129//221 128//221
f  152//221 128//221 137//221
f  151//222 112//222 113//222
f  112//222 151//222 88//223
f  112//224 88//224 111//224
f  111//224 88//224 64//225
f  111//226 64//226 110//226
f  110//226 64//226 63//226
f  110//227 63//227 109//227
f  109//227 63//227 150//227
f  4//228 23//228 34//228
f  23//228 4//228 2//229
f  105//230 52//230 108//230
f  52//230 105//230 53//230
f  11//231 116//231 12//231
f  116//231 11//231 47//232
f  3//46 25//46 1//46
f  25//46 3//46 146//46
f  146//46 3//46 149//46
f  146//46 149//46 138//46
f  138//46 149//46 136//46
f  138//46 136//46 152//46
f  138//46 152//46 137//46
f  31//233 115//233 33//233
f  115//234 31//234 113//234
f  113//235 31//235 72//235
f  113//236 72//236 151//236
f  151//236 72//236 73//237
f  150//238 41//238 109//238
f  41//238 150//238 42//238
f  3//239 6//239 148//239
f  140//240 6//240 123//240
f  6//240 140//240 148//241
f  124//242 5//242 35//242
f  5//243 124//243 123//243
f  5//244 123//244 6//244

