# {"id":"DEB_LOD2_UUID_b925dc37-249d-4edd-be01-4205227070d1","idOriginal":"DEB_LOD2_UUID_b925dc37-249d-4edd-be01-4205227070d1","origin":[13.417172444216844,52.51618550522368],"elevation":35.72}
# Longitude: 13.417172444216844
# Latitude: 52.51618550522368
# Elevation: 35.72

# File produced by Open Asset Import Library (http://www.assimp.sf.net)
# (assimp v3.1.0)

mtllib DEB_LOD2_UUID_b925dc37-249d-4edd-be01-4205227070d1.obj.mtl

# 38 vertex positions
v  14.393 2.944 -3.26
v  11.432 4.29 -3.105
v  14.044 3.331 -1.894
v  12.633 3.316 -5.699
v  13.754 2.944 -4.942
v  13.963 3.202 -1.578
v  12.34 2.63299e-17 -0.43
v  13.963 9.66246e-17 -1.578
v  12.34 2.944 -0.43
v  14.044 1.15974e-16 -1.894
v  13.754 3.0261e-16 -4.942
v  14.393 1.99617e-16 -3.26
v  12.633 3.48963e-16 -5.699
v  12.315 3.62067e-16 -5.913
v  10.455 3.52392e-16 -5.755
v  3.129 -1.7341e-16 2.832
v  1.243 1.52652e-16 -2.493
v  2.028 -1.64654e-16 2.689
v  0.462 1.02503e-16 -1.674
v  1.784 -1.54183e-16 2.518
v  0.626 -1.04401e-16 1.705
v  0.37 8.21738e-17 -1.342
v  0 0 0
v  0.393 -6.68045e-17 1.091
v  0.609 -1.03666e-16 1.693
v  3.129 2.944 2.832
v  12.315 3.169 -5.913
v  0.609 2.915 1.693
v  2.028 3.183 2.689
v  0.626 2.92 1.705
v  1.784 3.299 2.518
v  1.243 2.944 -2.493
v  10.455 2.944 -5.755
v  0 2.93 1.79411e-16
v  3.005 4.29 -0.121
v  0.37 3.322 -1.342
v  0.393 2.92 1.091
v  0.462 3.188 -1.674

# 0 UV coordinates

# 66 vertex normals
vn 0.402312 0.902638 -0.152939
vn 0.402342 0.902672 -0.152656
vn 0.402797 0.902407 -0.153024
vn 0.577473 0 0.81641
vn 1.81313e-23 -1 -6.12323e-17
vn -1.65577e-23 -1 -6.12323e-17
vn 0 -1 -6.12323e-17
vn 0 -1 -6.12323e-17
vn 9.13671e-23 -1 -6.12323e-17
vn -2.27017e-24 -1 -6.12323e-17
vn 3.83638e-24 -1 -6.12323e-17
vn 1.91789e-24 -1 -6.12323e-17
vn -5.67907e-23 -1 -6.12323e-17
vn -1.12876e-23 -1 -6.12323e-17
vn -1.32883e-22 -1 -6.12323e-17
vn 2.80137e-23 -1 -6.12323e-17
vn 9.05715e-23 -1 -6.12323e-17
vn -1.79951e-23 -1 -6.12323e-17
vn 0 -1 -6.12325e-17
vn -8.65929e-22 -1 -6.1232e-17
vn 0.934813 0 -0.35514
vn 0.333826 0 0.942635
vn 0.558307 0 -0.829635
vn 0.559597 -0.000179876 -0.828765
vn 0.558307 0.000737715 -0.829634
vn 0.559638 0 -0.828737
vn -0.576679 0 0.816971
vn -0.5746 1.81481e-05 0.818434
vn -0.573912 0.000431934 0.818917
vn -0.574507 0 0.8185
vn -0.570305 -0.0309767 0.820848
vn -0.57432 -0.00127835 0.81863
vn -0.333794 -0 -0.942646
vn 0.968798 -0.00117214 0.247851
vn 0.968841 0 0.247682
vn 0.968841 0 0.247682
vn 0 1 6.12281e-17
vn -0.40237 0.902648 0.152728
vn -0.402324 0.902588 0.153198
vn -0.402555 0.902573 0.152683
vn -0.401609 0.903176 0.1516
vn -0.592108 0.0918076 0.800612
vn 0.144634 0.902443 0.405805
vn 0.14331 0.902798 0.405485
vn 0.14359 0.902766 0.405458
vn 0.143588 0.902746 0.405502
vn 0.143372 0.902747 0.405576
vn 0.14354 0.902822 0.405351
vn -0.940821 0 0.338903
vn -0.941246 -0.000496312 0.337723
vn -0.940821 0.000275193 0.338905
vn -0.941246 0 0.337723
vn -0.1288 0 0.991671
vn -0.144326 0.903082 -0.404491
vn -0.143419 0.902686 -0.405696
vn -0.143613 0.902713 -0.405567
vn -0.14361 0.902714 -0.405565
vn -0.143756 0.902715 -0.405511
vn -0.143673 0.902354 -0.406345
vn -0.723696 -0 -0.690118
vn -0.723697 0 -0.690118
vn -0.964031 1.6275e-17 -0.265791
vn -0.964031 0 -0.265791
vn -0.963684 0 -0.267045
vn -0.0846414 -0 -0.996411
vn -0.0846414 0 -0.996411

# Mesh 'defaultobject' with 72 faces
g defaultobject
usemtl DefaultMaterial
f  1//1 2//1 3//1
f  2//2 1//2 4//2
f  4//3 1//3 5//3
f  6//4 7//4 8//4
f  7//4 6//4 9//4
f  10//5 11//5 12//5
f  11//5 10//5 13//6
f  13//6 10//5 8//7
f  13//6 8//7 7//8
f  13//6 7//8 14//9
f  14//9 7//8 15//10
f  15//10 7//8 16//11
f  15//10 16//11 17//12
f  17//12 16//11 18//13
f  17//12 18//13 19//14
f  19//14 18//13 20//15
f  19//14 20//15 21//16
f  19//14 21//16 22//17
f  22//17 21//16 23//18
f  23//18 21//16 24//19
f  24//19 21//16 25//20
f  5//21 12//21 11//21
f  12//21 5//21 1//21
f  9//22 16//22 7//22
f  16//22 9//22 26//22
f  4//23 14//23 27//23
f  14//24 4//24 5//24
f  14//25 5//25 13//25
f  13//26 5//26 11//26
f  21//27 28//27 25//27
f  28//28 21//28 20//28
f  28//29 20//29 18//29
f  28//30 18//30 29//30
f  28//31 29//31 30//31
f  30//32 29//32 31//32
f  32//33 15//33 17//33
f  15//33 32//33 33//33
f  6//34 1//34 3//34
f  1//35 6//35 8//35
f  1//35 8//35 12//36
f  12//37 8//37 10//37
f  34//38 35//38 36//38
f  35//39 34//39 37//39
f  35//40 37//40 31//40
f  31//41 37//41 28//41
f  31//42 28//42 30//42
f  29//43 35//43 31//43
f  35//44 29//44 26//44
f  35//45 26//45 9//45
f  35//46 9//46 2//46
f  2//47 9//47 6//47
f  2//48 6//48 3//48
f  24//49 34//49 23//49
f  34//50 24//50 25//50
f  34//51 25//51 37//51
f  37//52 25//52 28//52
f  26//53 18//53 16//53
f  18//53 26//53 29//53
f  35//54 38//54 36//54
f  38//55 35//55 32//55
f  32//56 35//56 33//56
f  33//56 35//56 2//57
f  33//58 2//58 4//58
f  33//59 4//59 27//59
f  38//60 17//60 19//60
f  17//60 38//60 32//61
f  34//62 22//62 23//62
f  22//62 34//62 36//63
f  22//64 36//64 19//64
f  19//64 36//64 38//64
f  33//65 14//65 15//65
f  14//65 33//65 27//66

