# {"id":"DEB_LOD2_UUID_aae9e48c-5476-458b-bdb9-6e7f496feaf0","idOriginal":"DEB_LOD2_UUID_aae9e48c-5476-458b-bdb9-6e7f496feaf0","origin":[13.371219226518704,52.50572174904482],"elevation":34.529}
# Longitude: 13.371219226518704
# Latitude: 52.50572174904482
# Elevation: 34.529

# File produced by Open Asset Import Library (http://www.assimp.sf.net)
# (assimp v3.1.0)

mtllib DEB_LOD2_UUID_aae9e48c-5476-458b-bdb9-6e7f496feaf0.obj.mtl

# 22 vertex positions
v  5.651 17.482 -6.463
v  2.53 5.02473e-16 -8.206
v  2.53 17.482 -8.206
v  5.651 3.95745e-16 -6.463
v  11.958 17.482 1.155
v  12.741 -1.08749e-16 1.776
v  12.741 17.482 1.776
v  11.958 -7.07234e-17 1.155
v  8.152 -3.54535e-16 5.79
v  0 0 0
v  6.985 3.50127e-16 -5.718
v  10.416 2.32683e-16 -3.8
v  11.725 1.87983e-16 -3.07
v  14.044 -5.66399e-17 0.925
v  14.854 8.08879e-17 -1.321
v  14.044 17.482 0.925
v  14.854 17.482 -1.321
v  0 17.482 1.07046e-15
v  10.416 17.482 -3.8
v  6.985 17.482 -5.718
v  11.725 17.482 -3.07
v  8.152 17.482 5.79

# 0 UV coordinates

# 21 vertex normals
vn 0.487589 0 -0.873073
vn -0.621395 0 0.783498
vn 5.19372e-24 -1 -6.12323e-17
vn 0 -1 -6.12323e-17
vn -3.63677e-24 -1 -6.12323e-17
vn -3.87573e-23 -1 -6.12323e-17
vn 1.50792e-23 -1 -6.12323e-17
vn 0 -1 -6.12323e-17
vn 7.56045e-23 -1 -6.12324e-17
vn -3.68714e-24 -1 -6.12323e-17
vn -6.26917e-24 -1 -6.12323e-17
vn 0.546817 0 0.837252
vn 0.940695 0 0.339254
vn -0.955613 0 -0.294626
vn 0.487952 0 -0.87287
vn 0.487915 0 -0.872891
vn 0.487059 0 -0.873369
vn 0.487587 0 -0.873075
vn 0.772834 0 0.634608
vn 0 1 0
vn -0.57906 0 0.815285

# Mesh 'defaultobject' with 40 faces
g defaultobject
usemtl DefaultMaterial
f  1//1 2//1 3//1
f  2//1 1//1 4//1
f  5//2 6//2 7//2
f  6//2 5//2 8//2
f  2//3 9//3 10//3
f  9//3 2//3 4//4
f  9//3 4//4 8//5
f  8//5 4//4 11//6
f  8//5 11//6 12//7
f  8//5 12//7 6//8
f  6//8 12//7 13//9
f  6//8 13//9 14//10
f  14//10 13//9 15//11
f  7//12 14//12 16//12
f  14//12 7//12 6//12
f  16//13 15//13 17//13
f  15//13 16//13 14//13
f  3//14 10//14 18//14
f  10//14 3//14 2//14
f  19//15 11//15 20//15
f  11//15 19//15 12//15
f  17//16 13//16 21//16
f  13//16 17//16 15//16
f  21//17 12//17 19//17
f  12//17 21//17 13//17
f  20//18 4//1 1//1
f  4//1 20//18 11//18
f  22//19 8//19 5//19
f  8//19 22//19 9//19
f  22//20 3//20 18//20
f  3//20 22//20 5//20
f  3//20 5//20 7//20
f  3//20 7//20 16//20
f  3//20 16//20 1//20
f  1//20 16//20 20//20
f  20//20 16//20 19//20
f  19//20 16//20 17//20
f  19//20 17//20 21//20
f  18//21 9//21 22//21
f  9//21 18//21 10//21

