# {"id":"DEB_LOD2_UUID_eb5bc75e-ab19-4370-bc29-a13f6667ee03","idOriginal":"DEB_LOD2_UUID_eb5bc75e-ab19-4370-bc29-a13f6667ee03","origin":[13.382784264190935,52.52199860160955],"elevation":33.82}
# Longitude: 13.382784264190935
# Latitude: 52.52199860160955
# Elevation: 33.82

# File produced by Open Asset Import Library (http://www.assimp.sf.net)
# (assimp v3.1.0)

mtllib DEB_LOD2_UUID_eb5bc75e-ab19-4370-bc29-a13f6667ee03.obj.mtl

# 40 vertex positions
v  19.829 15.299 5.983
v  18.129 13.954 -3.288
v  19.111 18.95 2.068
v  19.829 -3.66353e-16 5.983
v  18.129 2.01332e-16 -3.288
v  19.111 -1.26628e-16 2.068
v  8.017 13.855 -1.455
v  10.083 1.11994e-16 -1.829
v  8.017 8.90931e-17 -1.455
v  10.083 13.876 -1.829
v  15.18 13.83 8.507
v  15.176 13.848 8.487
v  13.217 13.83 8.884
v  9.982 13.848 9.485
v  0.997 18.95 5.549
v  1.98 13.848 11.023
v  12.043 13.857 9.079
v  13.213 13.848 8.864
v  20.114 13.848 7.539
v  9.982 -5.80789e-16 9.485
v  12.043 -5.55928e-16 9.079
v  20.114 -4.61631e-16 7.539
v  0.01 13.83 0.055
v  5.395 13.83 -0.979
v  0 13.778 8.43659e-16
v  15.176 -5.19679e-16 8.487
v  15.18 2.66 8.507
v  15.46 2.66 9.97
v  15.46 -6.10486e-16 9.97
v  15.18 -5.20904e-16 8.507
v  5.395 5.99465e-17 -0.979
v  0 0 0
v  1.98 -6.74964e-16 11.023
v  13.213 -5.42763e-16 8.864
v  13.497 2.66 10.347
v  13.217 2.66 8.884
v  13.497 -6.33571e-16 10.347
v  13.217 -5.43988e-16 8.884
v  0.01 -3.36778e-18 0.055
v  0.997 -3.39778e-16 5.549

# 0 UV coordinates

# 62 vertex normals
vn 0.9836 2.71476e-05 -0.180364
vn 0.983601 0 -0.18036
vn 0.9836 0 -0.18036
vn 1.96326e-19 -1 -6.13028e-17
vn -0.178131 -0 -0.984007
vn -0.178131 0 -0.984007
vn -0.178423 -0 -0.983954
vn 0.124798 0.749781 0.649811
vn 0.127599 0.736871 0.663882
vn 0.127583 0.736857 0.663901
vn 0.127562 0.736874 0.663886
vn 0.127676 0.7368 0.663947
vn 0.104763 0.749538 0.653619
vn 0.127782 0.73678 0.663947
vn 0.127447 0.736922 0.663855
vn 0.149872 0.736626 0.659486
vn 0.193277 0 0.981144
vn 0.193277 -0 0.981144
vn 0.983636 0 -0.180165
vn 0.983636 0 -0.180165
vn -0.128437 0.73218 -0.668892
vn -0.12747 0.736919 -0.663854
vn -0.127581 0.736868 -0.663889
vn -0.127557 0.736831 -0.663935
vn -0.127654 0.736944 -0.66379
vn -0.127535 0.736839 -0.66393
vn 0.980575 0 -0.196143
vn 0.980575 0 -0.196143
vn 0.982174 -6.38152e-05 -0.187976
vn 0.982153 0 -0.188086
vn -1.35765e-19 1 6.12582e-17
vn -0.178548 6.02484e-17 -0.983931
vn -0.178548 0 -0.983931
vn -0.178621 0 -0.983918
vn -0.178621 0 -0.983918
vn 0.188747 0 0.982026
vn 0.180735 0 0.983532
vn 0.180735 -0 0.983532
vn -0.982174 0 0.187976
vn -0.980583 0 0.196107
vn -0.980582 0 0.196107
vn 0.188606 0 0.982053
vn 0.188537 0 0.982066
vn 0 1 0
vn 0.188606 0 0.982053
vn -0.98387 0 0.178885
vn -0.984243 -8.51664e-06 0.17682
vn -0.984256 -3.79841e-05 0.176749
vn -0.984248 0 0.176795
vn -0.984248 0.00229921 0.17678
vn -0.98425 3.92492e-05 0.176784
vn 2.00028e-23 -1 -6.12323e-17
vn 1.07375e-21 -1 -6.12314e-17
vn 2.37786e-24 -1 -6.12323e-17
vn 0 -1 -6.12323e-17
vn -1.91028e-23 -1 -6.12323e-17
vn -3.33525e-22 -1 -6.1234e-17
vn 0 -1 -6.12323e-17
vn -2.27511e-24 -1 -6.12323e-17
vn 1.81415e-23 -1 -6.12323e-17
vn -8.93645e-25 -1 -6.12323e-17
vn 0 -1 -6.12323e-17

# Mesh 'defaultobject' with 76 faces
g defaultobject
usemtl DefaultMaterial
f  1//1 2//1 3//1
f  2//2 1//2 4//2
f  2//2 4//2 5//3
f  5//4 4//4 6//4
f  7//5 8//5 9//5
f  8//5 7//5 10//6
f  10//7 5//7 8//7
f  5//7 10//7 2//7
f  11//8 12//8 13//8
f  14//9 15//9 16//9
f  15//10 14//10 3//10
f  3//11 14//11 17//11
f  3//12 17//12 18//12
f  3//13 18//13 13//13
f  3//14 13//14 12//14
f  3//15 12//15 19//15
f  3//16 19//16 1//16
f  17//17 20//17 21//17
f  20//17 17//17 14//18
f  1//19 22//19 4//19
f  22//19 1//19 19//20
f  23//21 24//21 25//21
f  24//22 23//22 15//22
f  24//23 15//23 3//23
f  24//24 3//24 7//24
f  7//25 3//25 10//25
f  10//26 3//26 2//26
f  11//27 26//27 12//27
f  26//27 11//27 27//28
f  26//29 27//29 28//29
f  26//30 28//30 29//30
f  26//31 29//31 30//31
f  25//32 31//32 32//32
f  31//32 25//32 24//33
f  31//34 24//34 9//34
f  9//34 24//34 7//35
f  14//36 33//36 20//36
f  33//36 14//36 16//36
f  18//37 21//37 34//37
f  21//37 18//37 17//38
f  35//39 36//39 37//39
f  38//40 18//40 34//40
f  18//40 38//40 36//41
f  36//39 38//39 37//39
f  18//40 36//41 13//41
f  11//42 36//42 27//42
f  36//42 11//42 13//42
f  19//43 26//43 22//43
f  26//43 19//43 12//43
f  28//44 36//44 35//44
f  36//44 28//44 27//44
f  28//45 37//45 29//45
f  37//45 28//45 35//45
f  39//46 25//46 32//46
f  25//47 39//47 40//47
f  25//48 40//48 33//48
f  25//49 33//49 16//49
f  25//50 16//50 23//50
f  23//51 16//51 15//51
f  37//52 30//52 29//52
f  30//52 37//52 26//53
f  6//4 8//54 5//4
f  8//54 6//4 4//4
f  8//54 4//4 22//55
f  8//54 22//55 26//53
f  8//54 26//53 34//56
f  34//56 26//53 38//57
f  38//57 26//53 37//52
f  8//54 34//56 21//58
f  8//54 21//58 9//59
f  9//59 21//58 20//60
f  9//59 20//60 31//61
f  31//61 20//60 33//58
f  31//61 33//58 40//58
f  31//61 40//58 39//58
f  31//61 39//58 32//62

