# {"id":"DEB_LOD2_UUID_ef5e9715-9359-434e-9d54-46e65ea85cee","idOriginal":"DEB_LOD2_UUID_ef5e9715-9359-434e-9d54-46e65ea85cee","origin":[13.3387015157289,52.549142291832496],"elevation":35.82}
# Longitude: 13.3387015157289
# Latitude: 52.549142291832496
# Elevation: 35.82

# File produced by Open Asset Import Library (http://www.assimp.sf.net)
# (assimp v3.1.0)

mtllib DEB_LOD2_UUID_ef5e9715-9359-434e-9d54-46e65ea85cee.obj.mtl

# 31 vertex positions
v  0 2.99 1.83085e-16
v  0.353 2.21049e-17 -0.361
v  0 0 0
v  0.353 2.99 -0.361
v  2.695 2.99 3.361
v  0.381 -3.39595e-16 5.546
v  0.381 2.99 5.546
v  2.695 -2.05802e-16 3.361
v  2.79 2.99 3.272
v  2.79 -2.00352e-16 3.272
v  2.641 2.99 -2.699
v  5.22 7.34788e-19 -0.012
v  2.641 1.65266e-16 -2.699
v  5.22 2.99 -0.012
v  5.692 -2.93915e-17 0.48
v  5.692 2.99 0.48
v  7.234 -1.27731e-16 2.086
v  7.234 2.99 2.086
v  9.519 -2.73525e-16 4.467
v  9.519 4.93 4.467
v  11.77 -4.17115e-16 6.812
v  11.77 3.019 6.812
v  1.781 -4.26667e-16 6.968
v  1.781 2.99 6.968
v  4.098 -5.70808e-16 9.322
v  4.098 4.93 9.322
v  6.379 -7.12683e-16 11.639
v  6.379 3.019 11.639
v  2.697 -1.93617e-16 3.162
v  2.697 2.99 3.162
v  4.154 2.99 4.844

# 0 UV coordinates

# 38 vertex normals
vn -0.714985 4.281e-17 -0.69914
vn -0.714985 0 -0.69914
vn -0.68655 0 -0.727083
vn -0.683685 0 -0.729777
vn 0.721457 0 -0.692459
vn 0.721622 0 -0.692288
vn 0.721333 0 -0.692588
vn 0.721502 0 -0.692412
vn 0.721502 0 -0.692412
vn 0.721418 0 -0.6925
vn 0.721418 0 -0.6925
vn -0.712598 0 0.701573
vn -0.712686 0 0.701484
vn -0.712685 0 0.701484
vn -0.712621 0 0.701549
vn -0.714708 -0 -0.699423
vn 7.88417e-24 -1 -6.12323e-17
vn 5.59831e-24 -1 -6.12323e-17
vn -4.40978e-24 -1 -6.12323e-17
vn 0 -1 -6.12323e-17
vn 7.25748e-24 -1 -6.12323e-17
vn -3.79911e-24 -1 -6.12324e-17
vn 0 -1 -6.12324e-17
vn 1.47614e-24 -1 -6.12323e-17
vn 0 -1 -6.12323e-17
vn 0 -1 -6.12323e-17
vn 0 -1 -6.12565e-17
vn 0.667061 0 0.745003
vn -0 1 0
vn -0.338156 0.862024 -0.377578
vn -0.33821 0.861879 -0.377859
vn -0.338222 0.86194 -0.37771
vn -0.760834 0 0.648947
vn -0.763635 -0.00604705 0.645619
vn -0.760834 0.000209594 0.648947
vn -0.76365 0 0.64563
vn 0.338331 0.86187 0.377773
vn 0.338222 0.861927 0.377741

# Mesh 'defaultobject' with 58 faces
g defaultobject
usemtl DefaultMaterial
f  1//1 2//1 3//1
f  2//1 1//1 4//2
f  5//3 6//3 7//3
f  6//3 5//3 8//3
f  8//4 5//4 9//4
f  8//4 9//4 10//4
f  11//5 12//5 13//5
f  12//5 11//5 14//5
f  12//6 14//6 15//6
f  15//6 14//6 16//6
f  15//7 16//7 17//7
f  17//7 16//7 18//7
f  17//8 18//8 19//8
f  19//8 18//8 20//9
f  19//10 20//10 21//10
f  21//10 20//10 22//11
f  23//12 7//12 6//12
f  7//12 23//12 24//12
f  24//13 23//13 25//13
f  24//13 25//13 26//14
f  26//15 25//15 27//15
f  26//15 27//15 28//15
f  4//16 13//16 2//16
f  13//16 4//16 11//16
f  25//17 21//17 27//17
f  21//17 25//17 19//18
f  19//18 25//17 23//19
f  19//18 23//19 17//20
f  17//20 23//19 6//21
f  17//20 6//21 8//22
f  17//20 8//22 10//23
f  17//20 10//23 15//24
f  15//24 10//23 29//25
f  15//24 29//25 3//26
f  15//24 3//26 12//26
f  12//26 3//26 13//26
f  13//26 3//26 2//27
f  22//28 27//28 21//28
f  27//28 22//28 28//28
f  4//29 14//29 11//29
f  14//29 4//29 16//29
f  16//29 4//29 18//29
f  18//29 4//29 1//29
f  18//29 1//29 30//29
f  18//29 30//29 31//29
f  31//29 30//29 9//29
f  31//29 9//29 5//29
f  31//29 5//29 7//29
f  31//29 7//29 24//29
f  20//30 24//30 26//30
f  24//31 20//31 31//31
f  31//32 20//32 18//32
f  29//33 1//33 3//33
f  1//34 29//34 10//34
f  1//35 10//35 30//35
f  30//36 10//36 9//36
f  28//37 20//37 26//37
f  20//38 28//38 22//38

