# {"id":"DEB_LOD2_UUID_bb09365c-e4fd-4976-8b22-5ab36f0343da","idOriginal":"DEB_LOD2_UUID_bb09365c-e4fd-4976-8b22-5ab36f0343da","origin":[13.386535996208933,52.52415457427248],"elevation":33.508}
# Longitude: 13.386535996208933
# Latitude: 52.52415457427248
# Elevation: 33.508

# File produced by Open Asset Import Library (http://www.assimp.sf.net)
# (assimp v3.1.0)

mtllib DEB_LOD2_UUID_bb09365c-e4fd-4976-8b22-5ab36f0343da.obj.mtl

# 16 vertex positions
v  7.584 2.648 1.072
v  7.97 -2.05496e-16 3.356
v  7.584 -6.56411e-17 1.072
v  7.97 2.648 3.356
v  8.698 -3.20429e-16 5.233
v  8.698 2.648 5.233
v  0.759 4.51282e-17 -0.737
v  8.28 -3.44493e-16 5.626
v  0 0 0
v  2.858 2.69422e-17 -0.44
v  5.13 3.61271e-17 -0.59
v  0 2.648 1.62143e-16
v  0.759 2.648 -0.737
v  2.858 2.648 -0.44
v  5.13 2.648 -0.59
v  8.28 2.648 5.626

# 0 UV coordinates

# 17 vertex normals
vn 0.986018 0 -0.166639
vn 0.932331 0 -0.361607
vn -2.55192e-24 -1 -6.12323e-17
vn -1.90392e-23 -1 -6.12323e-17
vn 0 -1 -6.12323e-17
vn 1.05681e-23 -1 -6.12323e-17
vn -3.14776e-22 -1 -6.12323e-17
vn -9.27081e-24 -1 -6.12323e-17
vn -0.696633 4.39298e-17 -0.717428
vn -0.696633 0 -0.717428
vn -0.0658777 -0 -0.997828
vn 0.684984 0 0.728558
vn -0.562009 0 0.827131
vn -0.562009 -5.06472e-17 0.827131
vn 0.1401 0 -0.990137
vn 0 1 0
vn 0.560759 0 -0.827979

# Mesh 'defaultobject' with 28 faces
g defaultobject
usemtl DefaultMaterial
f  1//1 2//1 3//1
f  2//1 1//1 4//1
f  4//2 5//2 2//2
f  5//2 4//2 6//2
f  7//3 8//3 9//3
f  8//3 7//3 10//4
f  8//3 10//4 11//5
f  8//3 11//5 3//6
f  8//3 3//6 2//7
f  8//3 2//7 5//8
f  12//9 7//9 9//9
f  7//9 12//9 13//10
f  14//11 11//11 10//11
f  11//11 14//11 15//11
f  6//12 8//12 5//12
f  8//12 6//12 16//12
f  16//13 9//13 8//13
f  9//13 16//13 12//14
f  13//15 10//15 7//15
f  10//15 13//15 14//15
f  6//16 12//16 16//16
f  12//16 6//16 4//16
f  12//16 4//16 1//16
f  12//16 1//16 15//16
f  12//16 15//16 14//16
f  12//16 14//16 13//16
f  15//17 3//17 11//17
f  3//17 15//17 1//17

