# {"id":"DEB_LOD2_UUID_21d71cc2-14ef-4e42-acf7-43c17c989a56","idOriginal":"DEB_LOD2_UUID_21d71cc2-14ef-4e42-acf7-43c17c989a56","origin":[13.350155378902885,52.534687467662856],"elevation":35.87}
# Longitude: 13.350155378902885
# Latitude: 52.534687467662856
# Elevation: 35.87

# File produced by Open Asset Import Library (http://www.assimp.sf.net)
# (assimp v3.1.0)

mtllib DEB_LOD2_UUID_21d71cc2-14ef-4e42-acf7-43c17c989a56.obj.mtl

# 22 vertex positions
v  0.164 -4.64141e-17 0.758
v  0 20.534 1.25734e-15
v  0 0 0
v  0.545 -1.54795e-16 2.528
v  1.076 -3.05549e-16 4.99
v  1.076 18.028 4.99
v  0.545 20.23 2.528
v  0.164 20.443 0.758
v  0.044 20.534 -0.006
v  5.219 20.534 -0.738
v  16.601 20.23 0.259
v  16.258 20.493 -1.941
v  16.204 20.534 -2.29
v  1.19 17.551 5.523
v  1.19 -3.38186e-16 5.523
v  17.074 17.535 3.297
v  17.074 -2.01883e-16 3.297
v  16.258 1.18852e-16 -1.941
v  16.204 1.40222e-16 -2.29
v  16.601 -1.58592e-17 0.259
v  5.219 4.51895e-17 -0.738
v  0.044 3.67394e-19 -0.006

# 0 UV coordinates

# 34 vertex normals
vn -0.977385 0 0.211466
vn -0.977608 -3.98621e-05 0.210434
vn -0.977523 1.11748e-05 0.21083
vn -0.977532 0 0.210786
vn -0.977544 -0.000117253 0.21073
vn -0.248262 0.953972 0.168238
vn 0.0157927 0.993145 0.115813
vn 0.0209987 0.993144 0.114995
vn 0.0163943 0.993125 0.115903
vn 0.0163753 0.993129 0.115876
vn 0.0163485 0.993095 0.116171
vn 0.0161345 0.993327 0.114199
vn -0.977883 0 0.209153
vn -0.977883 0 0.209153
vn 0.138785 0 0.990323
vn 0.0922362 0.751993 0.652686
vn 0.0923657 0.751719 0.652983
vn 0.0922292 0.751971 0.652712
vn 0.988241 0 -0.152905
vn 2.14728e-24 -1 -6.12323e-17
vn 0 -1 -6.12324e-17
vn 3.89885e-24 -1 -6.12323e-17
vn 2.19962e-24 -1 -6.12323e-17
vn -1.79367e-24 -1 -6.12323e-17
vn 1.14835e-24 -1 -6.12323e-17
vn 0 -1 -6.12323e-17
vn 0 -1 -6.12323e-17
vn -0.135113 0 -0.99083
vn -0.140055 0 -0.990144
vn -0.139894 0 -0.990166
vn 0.988063 0 -0.154048
vn 0.988093 -2.10575e-05 -0.153859
vn 0.988063 3.67828e-05 -0.154048
vn 0.988096 0 -0.153841

# Mesh 'defaultobject' with 40 faces
g defaultobject
usemtl DefaultMaterial
f  1//1 2//1 3//1
f  2//2 1//2 4//2
f  2//3 4//3 5//3
f  2//4 5//4 6//4
f  2//5 6//5 7//5
f  2//6 7//6 8//6
f  8//7 9//7 2//7
f  9//8 8//8 7//8
f  9//9 7//9 10//9
f  10//10 7//10 11//10
f  10//11 11//11 12//11
f  10//12 12//12 13//12
f  14//13 5//13 15//13
f  5//13 14//13 6//14
f  16//15 15//15 17//15
f  15//15 16//15 14//15
f  6//16 11//16 7//16
f  11//17 6//17 14//17
f  11//18 14//18 16//18
f  13//19 18//19 19//19
f  18//19 13//19 12//19
f  15//20 20//20 17//20
f  20//20 15//20 5//21
f  20//20 5//21 4//22
f  20//20 4//22 18//23
f  18//23 4//22 1//24
f  18//23 1//24 19//25
f  19//25 1//24 21//26
f  21//26 1//24 22//27
f  22//27 1//24 3//27
f  9//28 3//28 2//28
f  3//28 9//28 22//28
f  22//29 9//29 10//29
f  22//29 10//29 21//29
f  21//30 10//30 13//30
f  21//30 13//30 19//30
f  11//31 18//31 12//31
f  18//32 11//32 16//32
f  18//33 16//33 20//33
f  20//34 16//34 17//34

