# {"id":"DEB_LOD2_UUID_660006f7-f9ca-4e22-b6de-7e8d1ac8f30a","idOriginal":"DEB_LOD2_UUID_660006f7-f9ca-4e22-b6de-7e8d1ac8f30a","origin":[13.424143715067514,52.509223580007266],"elevation":35.39}
# Longitude: 13.424143715067514
# Latitude: 52.509223580007266
# Elevation: 35.39

# File produced by Open Asset Import Library (http://www.assimp.sf.net)
# (assimp v3.1.0)

mtllib DEB_LOD2_UUID_660006f7-f9ca-4e22-b6de-7e8d1ac8f30a.obj.mtl

# 25 vertex positions
v  13.11 8.60437e-16 -14.052
v  13.234 18.378 -14.316
v  13.11 18.381 -14.052
v  24.721 18.669 -38.839
v  13.234 18.939 -14.316
v  25.611 18.648 -40.739
v  25.611 2.49454e-15 -40.739
v  13.234 8.76602e-16 -14.316
v  24.721 2.3782e-15 -38.839
v  0 22.753 1.39322e-15
v  7.252 1.04168e-15 -17.012
v  0 0 0
v  7.252 23 -17.012
v  8.854 1.2718e-15 -20.77
v  8.854 23.059 -20.77
v  19.521 22.793 -43.484
v  25.58 18.669 -40.753
v  3.648 19.908 1.734
v  3.648 -1.06177e-16 1.734
v  5.788 18.62 1.43
v  12.534 18.828 -14.319
v  19.521 2.66263e-15 -43.484
v  25.58 2.4954e-15 -40.753
v  12.534 8.76786e-16 -14.319
v  5.788 -8.75622e-17 1.43

# 0 UV coordinates

# 45 vertex normals
vn 0.905128 -0 0.425138
vn 0.905575 -0 0.424187
vn 0.905574 0.000153658 0.424188
vn 0.905575 0 0.424187
vn 0.90557 -1.65098e-05 0.424197
vn 0 1 6.10054e-17
vn -8.18059e-18 -1 -6.48604e-17
vn -0.919904 2.40119e-17 -0.392143
vn -0.919904 0 -0.392143
vn -0.919903 0 -0.392146
vn -0.919903 0 -0.392146
vn 0.479175 0.850314 0.217618
vn 0.481025 0.849691 0.215965
vn 0.480998 0.849713 0.215936
vn 0.481008 0.849711 0.215923
vn 0.522741 0.222553 -0.822929
vn -0.429299 0 0.903162
vn -0.429299 -5.53027e-17 0.903162
vn 0.525435 0.81749 0.235855
vn 0.525501 0.817446 0.235861
vn 0.525438 0.817485 0.235865
vn 0.524536 0.817532 0.237706
vn 0.524615 0.817651 0.237119
vn -0.905155 -0 -0.425081
vn -0.905155 0 -0.425081
vn 0.410922 0 -0.911671
vn 0.411464 -0.000211767 -0.911426
vn 0.410922 1.32353e-06 -0.911671
vn 0.411584 0 -0.911372
vn -0.420557 0 0.907266
vn -0.420557 0 0.907266
vn 0.91922 0 0.393743
vn 0.919221 -0 0.393743
vn -0.410884 0 0.911688
vn 0.140644 0 0.99006
vn 0.140644 -0 0.99006
vn -4.45119e-21 -1 -6.12344e-17
vn 7.78364e-23 -1 -6.12324e-17
vn 3.78904e-23 -1 -6.12323e-17
vn -2.76557e-23 -1 -6.12323e-17
vn 2.76656e-23 -1 -6.12325e-17
vn 1.12741e-21 -1 -6.12343e-17
vn -2.12945e-23 -1 -6.12324e-17
vn -1.05037e-24 -1 -6.12323e-17
vn 2.74597e-24 -1 -6.12323e-17

# Mesh 'defaultobject' with 46 faces
g defaultobject
usemtl DefaultMaterial
f  1//1 2//1 3//1
f  2//2 4//2 5//2
f  4//3 2//3 6//3
f  6//4 2//2 7//4
f  7//5 2//5 1//5
f  7//6 1//6 8//6
f  7//7 8//7 9//7
f  10//8 11//8 12//8
f  11//8 10//8 13//9
f  11//8 13//9 14//10
f  14//10 13//9 15//11
f  5//12 15//12 13//12
f  15//13 5//13 4//13
f  15//14 4//14 16//14
f  16//15 4//15 6//15
f  16//16 6//16 17//16
f  18//17 12//17 19//17
f  12//17 18//17 10//18
f  10//19 18//19 13//19
f  20//20 13//20 18//20
f  21//21 13//21 20//21
f  2//22 13//22 21//22
f  3//23 2//23 21//23
f  15//24 22//24 14//24
f  22//24 15//24 16//25
f  17//26 22//26 16//26
f  22//27 17//27 6//27
f  22//26 6//28 23//28
f  23//29 6//29 7//29
f  3//30 24//30 1//30
f  24//30 3//30 21//31
f  21//32 25//32 24//32
f  25//32 21//32 20//33
f  13//34 2//34 5//34
f  20//35 19//35 25//35
f  19//35 20//35 18//36
f  9//7 23//37 7//7
f  23//37 9//7 22//38
f  22//38 9//7 14//39
f  14//39 9//7 8//7
f  14//39 8//7 11//40
f  11//40 8//7 1//41
f  11//40 1//41 24//42
f  11//40 24//42 12//43
f  12//43 24//42 25//44
f  12//43 25//44 19//45

