# {"id":"DEB_LOD2_UUID_e4ccaf1c-866e-47de-8656-6f5f2f30740b","idOriginal":"DEB_LOD2_UUID_e4ccaf1c-866e-47de-8656-6f5f2f30740b","origin":[13.330472337431088,52.52921213392206],"elevation":33.927}
# Longitude: 13.330472337431088
# Latitude: 52.52921213392206
# Elevation: 33.927

# File produced by Open Asset Import Library (http://www.assimp.sf.net)
# (assimp v3.1.0)

mtllib DEB_LOD2_UUID_e4ccaf1c-866e-47de-8656-6f5f2f30740b.obj.mtl

# 102 vertex positions
v  6.349 -6.50287e-17 1.062
v  6.076 3.593 1.016
v  6.076 -6.22121e-17 1.016
v  6.349 3.593 1.062
v  7.696 -7.8806e-17 1.287
v  6.349 18.283 1.062
v  7.696 18.283 1.287
v  9.865 -1.00972e-16 1.649
v  9.865 18.283 1.649
v  15.651 -1.60245e-16 2.617
v  15.651 18.283 2.617
v  19.135 -1.95882e-16 3.199
v  19.135 18.283 3.199
v  20.781 -2.12721e-16 3.474
v  20.781 18.283 3.474
v  20.81 -2.13027e-16 3.479
v  20.81 18.283 3.479
v  22.941 5.33579e-16 -8.714
v  7.243 7.4134e-16 -12.107
v  23.062 5.75829e-16 -9.404
v  22.547 3.95316e-16 -6.456
v  7.163 7.42197e-16 -12.121
v  6.86 7.4532e-16 -12.172
v  5.357 7.61057e-16 -12.429
v  5.237 7.18806e-16 -11.739
v  22.51 3.82335e-16 -6.244
v  22.26 2.94711e-16 -4.813
v  4.832 5.76625e-16 -9.417
v  21.927 1.78309e-16 -2.912
v  4.808 5.68052e-16 -9.277
v  4.762 5.68542e-16 -9.285
v  1.716 6.01179e-16 -9.818
v  0 0 0
v  21.727 1.08259e-16 -1.768
v  21.382 -1.26751e-17 0.207
v  20.99 -1.49897e-16 2.448
v  3.049 -3.12285e-17 0.51
v  5.811 -5.95178e-17 0.972
v  4.901 -5.02105e-17 0.82
v  9.146 22.503 -7.005
v  7.799 20.933 -7.23
v  7.799 22.503 -7.23
v  9.146 20.933 -7.005
v  11.315 22.503 -6.642
v  11.315 20.933 -6.642
v  10.046 18.283 0.619
v  15.831 18.283 1.586
v  16.223 18.282 -0.655
v  19.707 18.283 -0.073
v  20.053 18.283 -2.048
v  21.727 18.283 -1.768
v  20.99 18.283 2.448
v  21.382 18.283 0.207
v  6.529 18.283 0.031
v  6.921 18.283 -2.21
v  7.267 18.283 -4.186
v  8.614 18.283 -3.961
v  10.437 18.283 -1.623
v  10.783 18.283 -3.598
v  15.831 20.933 1.586
v  10.046 20.933 0.619
v  4.832 3.593 -9.417
v  6.638 0.603 -9.115
v  4.832 0.603 -9.417
v  6.638 3.593 -9.115
v  16.223 20.933 -0.655
v  6.35 3.593 -7.472
v  7.799 3.593 -7.23
v  6.35 20.933 -7.472
v  7.267 22.503 -4.186
v  10.783 20.933 -3.598
v  8.614 22.503 -3.961
v  10.783 22.503 -3.598
v  21.727 20.933 -1.768
v  21.927 20.933 -2.912
v  0 3.593 2.20008e-16
v  3.049 3.593 0.51
v  5.811 3.593 0.972
v  4.901 3.593 0.82
v  19.707 20.933 -0.073
v  23.062 20.933 -9.404
v  22.941 20.933 -8.714
v  1.716 3.593 -9.818
v  5.357 0.603 -12.429
v  6.86 0.603 -12.172
v  20.053 20.933 -2.048
v  4.808 3.593 -9.277
v  5.237 0.603 -11.739
v  7.163 20.933 -12.121
v  7.243 20.933 -12.107
v  7.163 0.603 -12.121
v  10.437 20.933 -1.623
v  22.51 20.933 -6.244
v  22.547 20.933 -6.456
v  6.494 3.593 -8.294
v  6.638 20.933 -9.115
v  6.494 20.933 -8.294
v  6.529 3.593 0.031
v  6.921 3.593 -2.21
v  7.267 3.593 -4.186
v  4.762 3.593 -9.285
v  22.26 20.933 -4.813

# 0 UV coordinates

# 113 vertex normals
vn -0.166156 0 0.986099
vn -0.164755 0 0.986335
vn -0.164755 0 0.986335
vn -0.164755 0 0.986335
vn -0.16462 0 0.986357
vn -0.165007 0 0.986292
vn -0.164766 0 0.986333
vn -0.164788 0 0.986329
vn -0.169915 0 0.985459
vn -3.53176e-24 -1 -6.12323e-17
vn 2.87849e-24 -1 -6.12323e-17
vn -3.30421e-23 -1 -6.12322e-17
vn -1.50894e-22 -1 -6.12319e-17
vn -6.67609e-23 -1 -6.12322e-17
vn 1.47313e-23 -1 -6.12324e-17
vn 0 -1 -6.12325e-17
vn 8.11601e-24 -1 -6.12324e-17
vn -1.00045e-23 -1 -6.12323e-17
vn -1.22178e-23 -1 -6.12323e-17
vn 1.66123e-22 -1 -6.12328e-17
vn -1.08541e-21 -1 -6.12294e-17
vn -2.06327e-23 -1 -6.12323e-17
vn 2.01404e-24 -1 -6.12323e-17
vn -2.16061e-24 -1 -6.12324e-17
vn -3.91094e-26 -1 -6.12323e-17
vn 0 -1 -6.12323e-17
vn 2.52985e-24 -1 -6.12324e-17
vn 2.28557e-24 -1 -6.12324e-17
vn 6.42913e-22 -1 -6.12322e-17
vn -1.29216e-20 -1 -6.1145e-17
vn 1.30725e-21 -1 -6.12317e-17
vn -3.76398e-21 -1 -6.12023e-17
vn 3.65269e-21 -1 -6.12532e-17
vn -5.77543e-22 -1 -6.12296e-17
vn 3.38979e-21 -1 -6.12331e-17
vn -1.83399e-21 -1 -6.12259e-17
vn 2.77611e-21 -1 -6.12466e-17
vn 0.164755 0 -0.986334
vn 0.165063 0 -0.986283
vn 0 1 0
vn 0.00020098 1 -0.00041168
vn -0.000279261 1 -4.88195e-05
vn -0.164869 0 0.986315
vn 0.16493 0 -0.986305
vn 0.985044 0 0.172305
vn 0.985044 -0 0.172305
vn -0.16473 0 0.986339
vn -0.164755 0 0.986335
vn -0.165063 -0.00010088 0.986283
vn -0.164945 0 0.986303
vn -0.164755 0.000436647 0.986334
vn -0.165063 0 0.986283
vn 0.98506 0 0.172214
vn 0.98506 0 0.172214
vn 0.985083 8.79377e-06 0.172078
vn 0.985044 -3.13368e-05 0.172306
vn 0.985099 6.51153e-05 0.171987
vn 0.98506 -1.67757e-05 0.172214
vn 0.985062 -1.23368e-05 0.172199
vn 0.985099 0 0.171987
vn 0 1 6.12401e-17
vn -0.164976 0 0.986298
vn -0.16509 -9.92997e-05 0.986278
vn -0.164976 6.0317e-05 0.986298
vn -0.164751 0.000179771 0.986335
vn -0.164978 0 0.986297
vn 0 -1 0
vn -0.164766 0 0.986333
vn 0.98497 0 0.172727
vn 0.985069 0 0.17216
vn -0.985067 1.05424e-17 -0.172171
vn -0.985067 0 -0.172171
vn 0.168545 0 -0.985694
vn -0.164972 0 0.986298
vn -0.985623 -0 -0.168962
vn -0.985622 0 -0.168962
vn -0.985127 -0.000684237 -0.171825
vn -0.985156 0 -0.171662
vn 1.65013e-19 1 6.12609e-17
vn 0.17238 0 -0.985031
vn 0.17238 0 -0.985031
vn 0.165981 -0.000874431 -0.986129
vn 0.167319 0 -0.985903
vn 1.67529e-21 1 6.12231e-17
vn 0.168429 0 -0.985714
vn -0.985131 0 -0.171805
vn -0.984999 0 -0.172562
vn -0.163795 0 0.986494
vn 0.985109 0 0.171932
vn 0.985116 0 0.171893
vn -0.985089 0 -0.172046
vn -0.985089 0 -0.172047
vn -0.984964 -0.000127231 -0.172759
vn -0.985 -8.08814e-05 -0.172555
vn -0.985089 5.9599e-05 -0.172046
vn -0.984982 0 -0.172657
vn 0.172365 0 -0.985033
vn 0.171328 0.000904592 -0.985214
vn 0.172365 -1.36585e-05 -0.985033
vn 0.171329 0 -0.985214
vn -0.985099 -0 -0.171986
vn -0.985044 2.31186e-05 -0.172306
vn -0.985013 6.24624e-05 -0.172477
vn -0.985069 -5.41658e-05 -0.17216
vn -0.985099 -0.000155509 -0.171986
vn -0.985029 4.81961e-05 -0.172386
vn -0.985069 0 -0.17216
vn -0.985069 0 -0.17216
vn -0.985069 0 -0.17216
vn 0.984999 0 0.172561
vn 0.985002 0 0.172544
vn 0.98508 0 0.172096
vn -0.985212 -0 -0.171341

# Mesh 'defaultobject' with 200 faces
g defaultobject
usemtl DefaultMaterial
f  1//1 2//1 3//1
f  2//1 1//1 4//1
f  4//2 1//2 5//2
f  4//2 5//2 6//3
f  6//3 5//2 7//4
f  7//5 5//5 8//5
f  7//5 8//5 9//5
f  9//6 8//6 10//6
f  9//6 10//6 11//6
f  11//7 10//7 12//7
f  11//7 12//7 13//7
f  13//8 12//8 14//8
f  13//8 14//8 15//8
f  15//9 14//9 16//9
f  15//9 16//9 17//9
f  18//10 19//10 20//10
f  19//10 18//10 21//11
f  19//10 21//11 22//12
f  22//12 21//11 23//13
f  23//13 21//11 24//14
f  24//14 21//11 25//15
f  25//15 21//11 26//16
f  25//15 26//16 27//17
f  25//15 27//17 28//18
f  28//18 27//17 29//19
f  28//18 29//19 30//20
f  30//20 29//19 31//21
f  31//21 29//19 32//22
f  32//22 29//19 33//23
f  33//23 29//19 34//24
f  33//23 34//24 35//25
f  33//23 35//25 36//26
f  33//23 36//26 8//27
f  8//27 36//26 14//28
f  14//28 36//26 16//29
f  8//27 14//28 12//30
f  8//27 12//30 10//31
f  33//23 8//27 3//32
f  3//32 8//27 5//33
f  3//32 5//33 1//34
f  33//23 3//32 37//35
f  37//35 3//32 38//36
f  37//35 38//36 39//37
f  40//38 41//38 42//38
f  41//38 40//38 43//38
f  43//39 40//39 44//39
f  43//39 44//39 45//39
f  11//40 46//40 9//40
f  46//40 11//40 47//40
f  47//40 11//40 13//40
f  47//41 13//41 48//41
f  48//42 13//42 49//42
f  49//40 13//40 15//40
f  49//40 15//40 50//40
f  50//40 15//40 51//40
f  51//40 15//40 52//40
f  52//40 15//40 17//40
f  51//40 52//40 53//40
f  7//40 54//40 6//40
f  54//40 7//40 55//40
f  55//40 7//40 56//40
f  56//40 7//40 9//40
f  56//40 9//40 57//40
f  57//40 9//40 58//40
f  57//40 58//40 59//40
f  58//40 9//40 46//40
f  60//43 46//43 47//43
f  46//43 60//43 61//43
f  62//44 63//44 64//44
f  63//44 62//44 65//44
f  66//45 47//45 48//45
f  47//45 66//45 60//46
f  41//47 67//47 68//47
f  67//47 41//47 69//47
f  57//48 70//48 56//48
f  70//49 57//49 59//49
f  70//50 59//50 71//50
f  70//51 71//51 72//51
f  72//52 71//52 73//52
f  74//53 29//53 75//53
f  29//53 74//53 51//54
f  29//55 51//55 53//55
f  29//56 53//56 52//56
f  29//57 52//57 17//57
f  29//58 17//58 34//58
f  34//59 17//59 36//59
f  36//60 17//60 16//60
f  34//61 36//61 35//61
f  37//62 76//62 33//62
f  76//63 37//63 39//63
f  76//64 39//64 77//64
f  77//65 39//65 38//65
f  77//66 38//66 78//66
f  77//67 78//67 79//67
f  49//68 66//68 48//68
f  66//68 49//68 80//68
f  81//69 18//69 20//69
f  18//69 81//69 82//69
f  44//70 71//70 45//70
f  71//70 44//70 73//70
f  76//71 32//71 33//71
f  32//71 76//71 83//72
f  72//40 42//40 70//40
f  42//40 72//40 73//40
f  42//40 73//40 44//40
f  42//40 44//40 40//40
f  84//73 23//73 24//73
f  23//73 84//73 85//73
f  74//74 50//74 51//74
f  50//74 74//74 86//74
f  87//75 62//75 30//75
f  64//76 30//75 62//75
f  88//77 30//77 64//77
f  25//78 30//78 88//78
f  28//79 30//79 25//79
f  19//80 89//80 90//80
f  89//80 19//80 91//81
f  91//82 19//82 85//82
f  85//83 19//83 23//83
f  23//84 19//84 22//84
f  91//40 64//40 63//40
f  64//40 91//40 88//40
f  88//40 91//40 85//40
f  88//40 85//40 84//40
f  90//85 20//85 19//85
f  20//85 90//85 81//85
f  92//86 46//86 61//86
f  46//86 92//86 58//86
f  58//87 92//87 71//87
f  58//87 71//87 59//87
f  2//88 38//88 3//88
f  38//88 2//88 78//88
f  21//89 93//89 26//89
f  93//89 21//89 94//89
f  94//90 21//90 18//90
f  94//90 18//90 82//90
f  63//91 89//91 91//91
f  89//91 63//91 65//92
f  89//93 65//93 95//93
f  89//94 95//94 67//94
f  89//95 67//95 96//95
f  96//96 67//96 69//96
f  96//67 69//67 97//67
f  77//40 83//40 76//40
f  83//40 77//40 79//40
f  83//40 79//40 78//40
f  83//40 78//40 2//40
f  83//40 2//40 4//40
f  83//40 4//40 98//40
f  83//40 98//40 99//40
f  83//40 99//40 100//40
f  83//40 100//40 101//40
f  101//40 100//40 67//40
f  67//40 100//40 68//40
f  101//40 67//40 87//40
f  87//40 67//40 62//40
f  62//40 95//40 65//40
f  95//40 62//40 67//40
f  101//97 32//97 83//97
f  32//98 101//98 87//98
f  32//99 87//99 31//99
f  31//100 87//100 30//100
f  6//101 98//101 4//101
f  98//102 6//102 99//102
f  99//103 6//103 100//103
f  100//104 6//104 68//104
f  68//105 6//105 54//105
f  68//106 54//106 56//106
f  68//107 56//107 41//107
f  56//67 54//67 55//67
f  41//107 56//107 70//108
f  41//107 70//108 42//109
f  86//110 49//110 50//110
f  49//110 86//110 80//110
f  60//40 66//40 61//40
f  96//40 90//40 89//40
f  90//40 96//40 81//40
f  81//40 96//40 97//40
f  81//40 97//40 69//40
f  81//40 69//40 41//40
f  81//40 41//40 43//40
f  81//40 43//40 45//40
f  81//40 45//40 71//40
f  81//40 71//40 92//40
f  81//40 92//40 61//40
f  81//40 61//40 66//40
f  81//40 66//40 86//40
f  86//40 66//40 80//40
f  81//40 86//40 82//40
f  82//40 86//40 94//40
f  94//40 86//40 93//40
f  86//40 102//40 93//40
f  102//40 86//40 75//40
f  75//40 86//40 74//40
f  27//111 75//111 29//111
f  75//111 27//111 102//111
f  102//112 27//112 26//112
f  102//112 26//112 93//112
f  88//113 24//113 25//113
f  24//113 88//113 84//113

