# {"id":"DEB_LOD2_UUID_6ab160d7-6db4-4736-9ced-3c0138771092","idOriginal":"DEB_LOD2_UUID_6ab160d7-6db4-4736-9ced-3c0138771092","origin":[13.325748306589098,52.534065882922384],"elevation":34.73}
# Longitude: 13.325748306589098
# Latitude: 52.534065882922384
# Elevation: 34.73

# File produced by Open Asset Import Library (http://www.assimp.sf.net)
# (assimp v3.1.0)

mtllib DEB_LOD2_UUID_6ab160d7-6db4-4736-9ced-3c0138771092.obj.mtl

# 8 vertex positions
v  0 4.49 2.74933e-16
v  25.576 2.9465e-16 -4.812
v  0 0 0
v  25.576 4.49 -4.812
v  26.109 1.21179e-16 -1.979
v  0.531 -1.73471e-16 2.833
v  0.531 4.49 2.833
v  26.109 4.49 -1.979

# 0 UV coordinates

# 9 vertex normals
vn -0.184901 6.01765e-17 -0.982757
vn -0.184901 0 -0.982757
vn 7.05695e-25 -1 -6.12323e-17
vn 3.52829e-25 -1 -6.12323e-17
vn -0.982884 0 0.184226
vn -0.982884 -1.12806e-17 0.184226
vn 0.184887 0 0.98276
vn 0.982758 0 -0.184896
vn 0 1 0

# Mesh 'defaultobject' with 12 faces
g defaultobject
usemtl DefaultMaterial
f  1//1 2//1 3//1
f  2//1 1//1 4//2
f  3//3 5//3 6//3
f  5//3 3//3 2//4
f  7//5 3//5 6//5
f  3//5 7//5 1//6
f  8//7 6//7 5//7
f  6//7 8//7 7//7
f  4//8 5//8 2//8
f  5//8 4//8 8//8
f  8//9 1//9 7//9
f  1//9 8//9 4//9

