# {"id":"DEB_LOD2_UUID_c9b71b99-02f4-4f9f-8e07-7e089db30ad9","idOriginal":"DEB_LOD2_UUID_c9b71b99-02f4-4f9f-8e07-7e089db30ad9","origin":[13.362024196694236,52.54642092946516],"elevation":36.19}
# Longitude: 13.362024196694236
# Latitude: 52.54642092946516
# Elevation: 36.19

# File produced by Open Asset Import Library (http://www.assimp.sf.net)
# (assimp v3.1.0)

mtllib DEB_LOD2_UUID_c9b71b99-02f4-4f9f-8e07-7e089db30ad9.obj.mtl

# 144 vertex positions
v  8.563 19.758 -9.308
v  9.534 19.592 -10.734
v  8.328 19.592 -9.551
v  10.638 21.218 -7.162
v  13.124 22.969 -4.589
v  13.192 23.017 -4.518
v  9.844 19.804 -10.43
v  24.53 23.022 -15.614
v  12.427 20.308 -11.519
v  11.129 19.859 -11.534
v  13.765 20.301 -12.85
v  13.344 19.845 -13.744
v  16.134 20.279 -15.236
v  15.276 19.83 -15.679
v  14.98 19.614 -16.008
v  15.506 19.839 -15.879
v  17.5 20.255 -16.643
v  17.744 19.913 -17.86
v  20.082 19.89 -20.216
v  13.046 19.634 -14.055
v  13.138 19.844 -13.543
v  5.235 23.49 0.287
v  4.295 -1.38385e-17 0.226
v  5.235 -1.75737e-17 0.287
v  4.295 23.49 0.226
v  26.05 20.118 -8.799
v  25.623 5.68604e-16 -9.286
v  26.05 5.38783e-16 -8.799
v  25.623 20.434 -9.286
v  6.215 23.49 1.315
v  6.215 -8.05205e-17 1.315
v  29.298 19.665 -10.68
v  27.298 5.34497e-16 -8.729
v  29.298 6.53961e-16 -10.68
v  27.298 19.666 -8.729
v  17.349 20.09 -0.217
v  19.743 20.131 -2.672
v  19.191 20.544 -3.314
v  19.603 20.526 -3.664
v  22.253 20.489 -6.149
v  23.066 19.936 -5.362
v  22.664 20.489 -6.551
v  25.288 20.417 -8.909
v  26.016 19.916 -8.19
v  23.451 19.933 -5.731
v  20.38 19.982 -2.868
v  22.253 3.76518e-16 -6.149
v  22.664 4.01133e-16 -6.551
v  13.124 24.47 -4.589
v  10.065 23.49 -1.587
v  13.124 23.49 -4.589
v  10.065 24.47 -1.587
v  2.315 23.49 -9.226
v  0.316 21.13 -9.2
v  0.316 23.49 -9.2
v  2.315 21.13 -9.226
v  2.627 23.49 -9.23
v  2.627 21.13 -9.23
v  8.074 23.49 -9.302
v  8.074 21.13 -9.302
v  8.563 23.49 -9.308
v  8.563 21.13 -9.308
v  8.272 21.13 -11.973
v  6.729 8.25902e-16 -13.488
v  6.729 21.13 -13.488
v  9.534 21.13 -10.734
v  9.844 6.38653e-16 -10.43
v  8.272 7.33135e-16 -11.973
v  9.534 6.57268e-16 -10.734
v  12.427 7.05335e-16 -11.519
v  11.129 7.06254e-16 -11.534
v  4.762 21.13 -11.628
v  0.697 7.06805e-16 -11.543
v  0.697 21.13 -11.543
v  4.762 7.1201e-16 -11.628
v  4.874 21.13 -11.63
v  4.874 7.12132e-16 -11.63
v  19.191 2.02924e-16 -3.314
v  19.603 2.24355e-16 -3.664
v  18.425 23.49 1.072
v  15.567 -2.3948e-16 3.911
v  18.425 -6.56411e-17 1.072
v  15.567 23.49 3.911
v  8.447 23.49 3.753
v  7.634 -2.27723e-16 3.719
v  8.447 -2.29805e-16 3.753
v  7.634 23.49 3.719
v  5.176 21.13 -11.933
v  5.176 7.30686e-16 -11.933
v  5.608 21.13 -12.366
v  5.608 7.57199e-16 -12.366
v  16.134 9.32936e-16 -15.236
v  15.506 9.72308e-16 -15.879
v  3.649 23.49 -0.304
v  3.171 -1.01033e-17 0.165
v  3.649 1.86146e-17 -0.304
v  3.171 23.49 0.165
v  23.066 3.28328e-16 -5.362
v  13.138 8.2927e-16 -13.543
v  13.765 7.86836e-16 -12.85
v  11.424 23.49 6.746
v  11.424 -4.13073e-16 6.746
v  20.082 1.23787e-15 -20.216
v  17.744 1.09361e-15 -17.86
v  14.98 9.80207e-16 -16.008
v  13.046 8.60621e-16 -14.055
v  7.57 24.47 -4.151
v  10.638 23.49 -7.162
v  7.57 23.49 -4.151
v  10.638 24.47 -7.162
v  4.158 -1.34099e-17 0.219
v  4.158 23.49 0.219
v  23.451 3.50923e-16 -5.731
v  15.276 9.60062e-16 -15.679
v  24.53 9.56082e-16 -15.614
v  8.328 21.13 -9.551
v  0.396 21.13 -11.523
v  0.397 21.13 -11.554
v  14.887 -2.06292e-16 3.369
v  14.887 23.49 3.369
v  14.951 -2.02495e-16 3.307
v  14.951 23.49 3.307
v  26.016 5.01493e-16 -8.19
v  25.288 5.45519e-16 -8.909
v  20.38 1.75614e-16 -2.868
v  0.3 23.49 0.01
v  0 0 0
v  0.3 -6.12323e-19 0.01
v  0 23.49 1.43835e-15
v  19.743 1.63613e-16 -2.672
v  17.349 1.32874e-17 -0.217
v  17.244 23.49 -0.109
v  17.244 6.67433e-18 -0.109
v  17.349 23.49 -0.217
v  13.192 23.49 -4.518
v  13.344 8.41577e-16 -13.744
v  17.874 23.49 0.458
v  17.874 -2.80444e-17 0.458
v  6.203 23.49 2.203
v  0.316 5.63338e-16 -9.2
v  0.396 7.0558e-16 -11.523
v  0.397 7.07478e-16 -11.554
v  6.203 -1.34895e-16 2.203
v  17.5 1.01909e-15 -16.643

# 0 UV coordinates

# 184 vertex normals
vn -0.308672 0.897609 -0.314673
vn -0.30742 0.898308 -0.313902
vn -0.307985 0.898194 -0.313676
vn -0.304333 0.898611 -0.316038
vn -0.304984 0.898539 -0.315616
vn -0.307636 0.898221 -0.313941
vn -0.307686 0.898137 -0.314133
vn -0.307268 0.89872 -0.312872
vn -0.307652 0.898197 -0.313994
vn -0.307563 0.898427 -0.313422
vn -0.307593 0.898249 -0.313904
vn -0.307739 0.898087 -0.314223
vn -0.307112 0.898519 -0.313601
vn -0.308001 0.898152 -0.31378
vn -0.30759 0.898234 -0.313949
vn -0.307559 0.898201 -0.314074
vn -0.307588 0.898215 -0.314007
vn -0.30797 0.898026 -0.314171
vn -0.309263 0.898168 -0.31249
vn -0.0647574 0 0.997901
vn -0.751907 0 0.659269
vn -0.751907 0 0.659269
vn -0.723803 0 0.690007
vn 0.698284 0 0.715821
vn 0.307094 0.898224 0.314464
vn 0.307409 0.898407 0.313633
vn 0.307204 0.89824 0.314309
vn 0.305901 0.89884 0.313864
vn 0.307272 0.89822 0.3143
vn 0.307053 0.898378 0.314064
vn 0.30744 0.898154 0.314323
vn 0.307075 0.898292 0.314286
vn 0.307347 0.898091 0.314595
vn 0.307912 0.898069 0.314105
vn 0.307332 0.898212 0.314263
vn 0.307116 0.89825 0.314369
vn 0.307842 0.898456 0.313066
vn 0.3072 0.898268 0.314232
vn 0.307095 0.898327 0.314168
vn 0.699237 0 0.71489
vn 0.700426 0 0.713725
vn -0.0130054 0 -0.999915
vn -0.0128185 0 -0.999918
vn -0.0132172 0 -0.999913
vn -0.0122681 0 -0.999925
vn 0.700603 0 -0.713551
vn 0.700574 4.13427e-06 -0.71358
vn 0.70059 0 -0.713564
vn 0.700118 0.000132739 -0.714027
vn 0.700548 0 -0.713606
vn -1.08491e-19 -1 -6.10803e-17
vn -8.99694e-20 -1 -6.11492e-17
vn 0.0115557 0 -0.999933
vn 0.0115557 0 -0.999933
vn -0.0209056 0 -0.999781
vn -0.017853 0 -0.999841
vn 0.647433 0 0.762123
vn 0.647433 -0 0.762122
vn 0.704745 0 0.709461
vn -0.0417841 0 0.999127
vn -0.708274 0 -0.705938
vn -0.707924 0 -0.706288
vn -0.707422 0 -0.706792
vn 0.715401 0 -0.698714
vn 0.715401 0 -0.698714
vn 0.700355 0 0.713795
vn 0.695525 0 -0.718502
vn 0.695525 0 -0.718502
vn -0.741535 0 0.670914
vn -0.741535 0 0.670914
vn -0.708999 0 0.705209
vn -0.709813 -0 -0.70439
vn -0.709813 0 -0.70439
vn -0.710555 -0 -0.703642
vn -0.700446 -0 -0.713706
vn -0.0510283 0 0.998697
vn -0.721475 0 0.692441
vn -0.656179 -0 -0.754605
vn -0.656179 0 -0.754605
vn 0.719068 -9.54221e-05 -0.69494
vn 0.719069 0 -0.694939
vn 0.719035 3.2582e-05 -0.694974
vn 0.7191 0 -0.694907
vn 0 1 0
vn 0.698161 0 0.715941
vn 0.695795 0 0.718241
vn 0.702695 0 -0.711491
vn -0.715596 0 0.698514
vn -0.715596 0 0.698514
vn -0.0333148 0 0.999445
vn -0.0333148 -6.11984e-17 0.999445
vn 0.715946 0 0.698156
vn 0.715946 0 0.698156
vn 0.71699 0 0.697083
vn 0.719161 0 -0.694844
vn 0.719161 0 -0.694844
vn 0.719161 0 -0.694844
vn 0.722194 0 -0.691691
vn 0.719041 0 -0.694967
vn 0.719041 0 -0.694967
vn 0.718899 0 -0.695115
vn 0.718899 0 -0.695115
vn 0.718841 0 -0.695174
vn 0.718841 0 -0.695174
vn -0.70525 -0 -0.708959
vn -0.70525 0 -0.708959
vn -0.722036 0 0.691856
vn -0.722036 0 0.691855
vn 0.692034 0 0.721865
vn 0.692034 -0 0.721865
vn 0.744259 0 -0.667892
vn -0.0539096 0 0.998546
vn -0.999411 0 -0.0343276
vn -0.999411 0 -0.0343276
vn -0.999408 0 -0.0344178
vn -0.99948 0.00023951 -0.0322418
vn -0.999408 -3.196e-06 -0.0344178
vn -0.99948 0 -0.0322417
vn 0.700267 0 0.713881
vn 0.758255 0 -0.651958
vn 0.758255 0 -0.651958
vn -0.0560014 0 0.998431
vn -0.0560014 0 0.998431
vn 0.036641 0 -0.999328
vn -0.716685 0 0.697398
vn 0.668964 0 -0.743295
vn 2.49257e-23 -1 -6.12324e-17
vn 2.32464e-23 -1 -6.12324e-17
vn 0 -1 -6.12323e-17
vn -4.24669e-23 -1 -6.12323e-17
vn -5.153e-23 -1 -6.12323e-17
vn 0 -1 -6.12323e-17
vn 8.34129e-23 -1 -6.12324e-17
vn -5.82133e-23 -1 -6.12323e-17
vn 4.13045e-25 -1 -6.12323e-17
vn -2.30993e-22 -1 -6.12321e-17
vn 2.32849e-21 -1 -6.12322e-17
vn 0 -1 -6.12324e-17
vn 1.37592e-21 -1 -6.12337e-17
vn 0 -1 -6.12323e-17
vn 9.13413e-24 -1 -6.12324e-17
vn -3.14377e-23 -1 -6.12323e-17
vn -1.63028e-21 -1 -6.12302e-17
vn 0 -1 -6.12323e-17
vn 1.97411e-23 -1 -6.12323e-17
vn 1.11795e-23 -1 -6.12323e-17
vn 1.53273e-22 -1 -6.12323e-17
vn 0 -1 -6.12323e-17
vn 1.58584e-22 -1 -6.12346e-17
vn 5.82651e-23 -1 -6.12323e-17
vn -8.15341e-24 -1 -6.12323e-17
vn -1.36449e-23 -1 -6.12323e-17
vn -3.55911e-22 -1 -6.12321e-17
vn 1.31572e-22 -1 -6.12324e-17
vn -3.76263e-22 -1 -6.12322e-17
vn 1.27827e-23 -1 -6.12323e-17
vn -2.43647e-24 -1 -6.12323e-17
vn -8.34704e-22 -1 -6.12314e-17
vn -2.4747e-22 -1 -6.12322e-17
vn -1.69261e-22 -1 -6.12322e-17
vn -7.16675e-24 -1 -6.12323e-17
vn 4.49334e-23 -1 -6.12324e-17
vn -6.63438e-22 -1 -6.12313e-17
vn 9.87801e-24 -1 -6.12323e-17
vn 7.90366e-24 -1 -6.12323e-17
vn 1.90724e-23 -1 -6.12323e-17
vn -0.980488 -0 -0.19658
vn -0.980488 0 -0.19658
vn -0.698367 -0 -0.71574
vn -0.698367 0 -0.71574
vn 0.743405 0 -0.668841
vn 0.743405 0 -0.668841
vn -0.717483 -0 -0.696576
vn -0.717483 0 -0.696576
vn 0.68043 0 0.732813
vn 0.68043 -0 0.732813
vn -0.727199 0 0.686426
vn 0 1 6.12323e-17
vn 0.747519 0 0.66424
vn 0.747519 -0 0.66424
vn -0.999909 -0 -0.0135124
vn -0.651666 -0 -0.758506
vn -0.716633 0 0.69745
vn -0.700118 0 0.714027

# Mesh 'defaultobject' with 284 faces
g defaultobject
usemtl DefaultMaterial
f  1//1 2//1 3//1
f  2//2 1//2 4//2
f  2//3 4//3 5//3
f  2//4 5//4 6//4
f  2//5 6//5 7//5
f  7//6 6//6 8//6
f  7//7 8//7 9//7
f  7//8 9//8 10//8
f  9//9 8//9 11//9
f  11//10 8//10 12//10
f  12//11 8//11 13//11
f  12//12 13//12 14//12
f  12//13 14//13 15//13
f  14//14 13//14 16//14
f  13//15 8//15 17//15
f  17//16 8//16 18//16
f  18//17 8//17 19//17
f  15//18 20//18 12//18
f  12//19 21//19 11//19
f  22//20 23//20 24//20
f  23//20 22//20 25//20
f  26//21 27//21 28//21
f  27//21 26//21 29//22
f  30//23 24//23 31//23
f  24//23 30//23 22//23
f  32//24 33//24 34//24
f  33//24 32//24 35//24
f  36//25 37//25 6//25
f  38//26 6//26 37//26
f  8//27 6//27 38//27
f  39//28 8//28 38//28
f  40//29 8//29 39//29
f  41//30 40//30 39//30
f  42//31 8//31 40//31
f  43//32 8//32 42//32
f  44//33 43//33 42//33
f  29//34 8//34 43//34
f  35//35 8//35 29//35
f  32//36 8//36 35//36
f  29//37 26//37 35//37
f  42//38 45//38 44//38
f  39//39 46//39 41//39
f  42//40 47//40 48//40
f  47//40 42//40 40//40
f  49//41 50//41 51//41
f  50//41 49//41 52//41
f  53//42 54//42 55//42
f  54//42 53//42 56//42
f  56//43 53//43 57//43
f  56//43 57//43 58//43
f  58//44 57//44 59//44
f  58//44 59//44 60//44
f  60//45 59//45 61//45
f  60//45 61//45 62//45
f  63//46 64//46 65//46
f  64//47 63//47 66//47
f  64//48 66//48 2//48
f  64//49 2//49 7//49
f  64//50 7//50 67//50
f  64//51 67//51 68//51
f  68//51 67//51 69//52
f  10//53 70//53 71//53
f  70//53 10//53 9//54
f  72//55 73//55 74//55
f  73//55 72//55 75//55
f  75//56 72//56 76//56
f  75//56 76//56 77//56
f  39//57 78//57 79//57
f  78//57 39//57 38//58
f  80//59 81//59 82//59
f  81//59 80//59 83//59
f  84//60 85//60 86//60
f  85//60 84//60 87//60
f  88//61 77//61 76//61
f  77//61 88//61 89//61
f  89//62 88//62 90//62
f  89//62 90//62 91//62
f  91//63 90//63 65//63
f  91//63 65//63 64//63
f  16//64 92//64 93//64
f  92//64 16//64 13//65
f  94//66 95//66 96//66
f  95//66 94//66 97//66
f  40//67 98//67 47//67
f  98//67 40//67 41//68
f  11//69 99//69 100//69
f  99//69 11//69 21//70
f  101//71 86//71 102//71
f  86//71 101//71 84//71
f  18//72 103//72 104//72
f  103//72 18//72 19//73
f  20//74 105//74 106//74
f  105//74 20//74 15//74
f  107//75 108//75 109//75
f  108//75 107//75 110//75
f  25//76 111//76 23//76
f  111//76 25//76 112//76
f  45//77 48//77 113//77
f  48//77 45//77 42//77
f  14//78 93//78 114//78
f  93//78 14//78 16//79
f  32//80 19//80 8//80
f  19//81 32//81 103//81
f  103//82 32//82 115//82
f  115//83 32//83 34//83
f  62//84 116//84 60//84
f  56//84 117//84 54//84
f  117//84 56//84 118//84
f  118//84 56//84 74//84
f  74//84 56//84 72//84
f  72//84 56//84 58//84
f  72//84 58//84 60//84
f  72//84 60//84 76//84
f  76//84 60//84 88//84
f  88//84 60//84 90//84
f  90//84 60//84 65//84
f  65//84 60//84 63//84
f  63//84 60//84 116//84
f  63//84 116//84 66//84
f  119//85 101//85 102//85
f  101//85 119//85 120//85
f  120//86 119//86 121//86
f  120//86 121//86 122//86
f  43//87 123//87 124//87
f  123//87 43//87 44//87
f  46//88 79//88 125//88
f  79//88 46//88 39//89
f  126//90 127//90 128//90
f  127//90 126//90 129//91
f  130//92 36//92 131//92
f  36//92 130//92 37//93
f  131//94 132//94 133//94
f  132//94 131//94 134//94
f  134//94 131//92 36//25
f  49//95 108//95 110//95
f  108//95 49//95 4//96
f  4//96 49//95 5//97
f  5//3 49//95 51//41
f  5//98 51//98 135//98
f  5//98 135//98 6//98
f  6//99 135//99 134//99
f  6//99 134//99 36//100
f  108//101 62//101 61//101
f  62//101 108//101 1//101
f  1//101 108//101 4//102
f  62//103 3//103 116//103
f  3//103 62//103 1//104
f  9//105 100//105 70//105
f  100//105 9//105 11//106
f  12//107 106//107 136//107
f  106//107 12//107 20//108
f  44//109 113//109 123//109
f  113//109 44//109 45//110
f  137//111 82//111 138//111
f  82//111 137//111 80//111
f  97//112 128//112 95//112
f  128//112 97//112 126//112
f  83//84 132//84 122//84
f  132//84 83//84 137//84
f  137//84 83//84 80//84
f  22//84 109//84 25//84
f  109//84 22//84 50//84
f  50//84 22//84 30//84
f  50//84 30//84 139//84
f  50//84 139//84 87//84
f  50//84 87//84 51//84
f  51//84 87//84 84//84
f  51//84 84//84 135//84
f  135//84 84//84 134//84
f  134//84 84//84 132//84
f  132//84 84//84 101//84
f  132//84 101//84 120//84
f  132//84 120//84 122//84
f  129//84 53//84 55//84
f  53//84 129//84 57//84
f  57//84 129//84 59//84
f  59//84 129//84 126//84
f  59//84 126//84 97//84
f  59//84 97//84 61//84
f  61//84 97//84 108//84
f  108//84 97//84 94//84
f  108//84 94//84 109//84
f  109//84 94//84 112//84
f  109//84 112//84 25//84
f  55//113 127//113 129//113
f  127//113 55//113 54//114
f  127//113 54//114 140//113
f  140//115 54//115 117//115
f  140//116 117//116 118//116
f  140//115 118//117 141//117
f  141//118 118//118 142//118
f  66//119 3//119 2//119
f  3//119 66//119 116//119
f  38//120 130//120 78//120
f  130//120 38//120 37//121
f  35//122 28//122 33//122
f  28//122 35//122 26//123
f  118//124 73//124 142//124
f  73//124 118//124 74//124
f  52//125 109//125 50//125
f  109//125 52//125 107//125
f  132//126 138//126 133//126
f  138//126 132//126 137//126
f  115//127 104//127 103//127
f  104//127 115//127 34//128
f  104//127 34//128 33//129
f  104//127 33//129 27//130
f  27//130 33//129 28//131
f  82//132 133//132 138//132
f  133//132 82//132 81//129
f  133//132 81//129 89//129
f  89//129 81//129 77//133
f  77//133 81//129 75//134
f  75//134 81//129 73//135
f  73//135 81//129 142//136
f  142//136 81//129 121//137
f  142//136 121//137 119//138
f  142//136 119//138 141//139
f  141//139 119//138 140//140
f  140//140 119//138 102//141
f  140//140 102//141 24//142
f  24//142 102//141 31//143
f  31//143 102//141 86//144
f  31//143 86//144 143//145
f  143//145 86//144 85//146
f  140//140 128//147 127//147
f  128//147 140//140 95//148
f  95//148 140//140 23//129
f  23//129 140//140 24//142
f  95//148 23//129 111//149
f  113//150 124//150 123//150
f  124//150 113//150 144//151
f  144//151 113//150 92//152
f  92//152 113//150 93//153
f  93//153 113//150 114//154
f  114//154 113//150 48//155
f  125//156 47//156 98//156
f  47//156 125//156 136//157
f  47//156 136//157 106//158
f  136//157 125//156 100//159
f  136//157 100//159 99//160
f  100//159 125//156 70//161
f  70//161 125//156 79//140
f  70//161 79//140 71//162
f  71//162 79//140 78//140
f  71//162 78//140 130//163
f  71//162 130//163 67//51
f  67//51 130//163 131//164
f  67//51 131//164 69//52
f  69//52 131//164 68//51
f  68//51 131//164 64//51
f  64//51 131//164 91//165
f  91//165 131//164 89//129
f  89//129 131//164 133//132
f  114//154 106//158 105//166
f  106//158 114//154 48//155
f  106//158 48//155 47//156
f  27//130 144//151 104//127
f  144//151 27//130 124//150
f  17//167 104//167 144//167
f  104//167 17//167 18//168
f  21//169 136//169 99//169
f  136//169 21//169 12//170
f  15//171 114//171 105//171
f  114//171 15//171 14//172
f  13//173 144//173 92//173
f  144//173 13//173 17//174
f  41//175 125//175 98//175
f  125//175 41//175 46//176
f  49//84 107//84 52//84
f  107//84 49//84 110//84
f  87//177 143//177 85//177
f  143//177 87//177 139//177
f  96//178 95//178 111//178
f  29//179 124//179 27//179
f  124//179 29//179 43//180
f  139//181 31//181 143//181
f  31//181 139//181 30//181
f  7//182 71//182 67//182
f  71//182 7//182 10//182
f  112//183 96//183 111//183
f  96//183 112//183 94//183
f  83//184 121//184 81//184
f  121//184 83//184 122//184

