# {"id":"DEB_LOD2_UUID_33f530b7-af6b-4f52-bcc5-c413f25e5ecd","idOriginal":"DEB_LOD2_UUID_33f530b7-af6b-4f52-bcc5-c413f25e5ecd","origin":[13.38801371168216,52.53545104250501],"elevation":37.02}
# Longitude: 13.38801371168216
# Latitude: 52.53545104250501
# Elevation: 37.02

# File produced by Open Asset Import Library (http://www.assimp.sf.net)
# (assimp v3.1.0)

mtllib DEB_LOD2_UUID_33f530b7-af6b-4f52-bcc5-c413f25e5ecd.obj.mtl

# 8 vertex positions
v  7.303 5.98 -1.891
v  4.146 -1.71083e-16 2.794
v  7.303 1.1579e-16 -1.891
v  4.146 5.98 2.794
v  3.157 2.86751e-16 -4.683
v  0 0 0
v  0 5.98 3.66169e-16
v  3.157 5.98 -4.683

# 0 UV coordinates

# 9 vertex normals
vn 0.82929 0 0.558819
vn 0.82929 -2.22797e-08 0.558819
vn 0 -1 -6.12323e-17
vn -0.829179 3.42278e-17 -0.558983
vn -0.829179 0 -0.558983
vn 0.558572 0 -0.829456
vn 0 1 0
vn -0.558847 -3.30625e-08 0.82927
vn -0.558847 -5.07782e-17 0.82927

# Mesh 'defaultobject' with 12 faces
g defaultobject
usemtl DefaultMaterial
f  1//1 2//1 3//1
f  2//1 1//1 4//2
f  5//3 2//3 6//3
f  2//3 5//3 3//3
f  7//4 5//4 6//4
f  5//4 7//4 8//5
f  8//6 3//6 5//6
f  3//6 8//6 1//6
f  1//7 7//7 4//7
f  7//7 1//7 8//7
f  4//8 6//8 2//8
f  6//8 4//8 7//9

