# {"id":"DEB_LOD2_UUID_4b618951-7a74-4864-8a5d-8530a98b38d0","idOriginal":"DEB_LOD2_UUID_4b618951-7a74-4864-8a5d-8530a98b38d0","origin":[13.396829402581766,52.537560204801984],"elevation":46.24}
# Longitude: 13.396829402581766
# Latitude: 52.537560204801984
# Elevation: 46.24

# File produced by Open Asset Import Library (http://www.assimp.sf.net)
# (assimp v3.1.0)

mtllib DEB_LOD2_UUID_4b618951-7a74-4864-8a5d-8530a98b38d0.obj.mtl

# 88 vertex positions
v  10.968 16.44 -3.061
v  13.216 2.46705e-16 -4.029
v  10.968 1.87432e-16 -3.061
v  13.216 16.44 -4.029
v  10.968 25.31 -3.061
v  13.216 25.31 -4.029
v  19.823 1.44814e-16 -2.365
v  17.341 4.58018e-16 -7.48
v  17.573 4.64447e-16 -7.585
v  12.836 3.39166e-16 -5.539
v  22.093 -1.77574e-16 2.9
v  12.694 3.35431e-16 -5.478
v  13.086 2.78668e-16 -4.551
v  13.015 2.76893e-16 -4.522
v  17.516 -2.9961e-16 4.893
v  8.769 2.32989e-16 -3.805
v  1.45 3.85151e-17 -0.629
v  17.361 -3.0359e-16 4.958
v  14.983 -3.64639e-16 5.955
v  14.915 -3.66353e-16 5.983
v  14.935 -3.69047e-16 6.027
v  15.088 -3.90417e-16 6.376
v  17.521 -7.34911e-16 12.002
v  0 0 0
v  16.256 -7.75691e-16 12.668
v  0.067 -9.85841e-18 0.161
v  0.635 -8.65213e-17 1.413
v  15.657 -7.94979e-16 12.983
v  4.728 -6.39388e-16 10.442
v  9.185 -1.00354e-15 16.389
v  6.766 -9.14627e-16 14.937
v  8.807 -1.01572e-15 16.588
v  7.784 -1.04867e-15 17.126
v  10.254 2.72423e-16 -4.449
v  10.355 2.75117e-16 -4.493
v  0.067 22.14 0.161
v  0.635 22.14 1.413
v  6.766 22.14 14.937
v  4.728 22.14 10.442
v  10.254 22.14 -4.449
v  10.9 16.44 -3.027
v  10.254 16.44 -4.449
v  10.9 22.14 -3.027
v  7.784 22.14 17.126
v  22.093 16.463 2.9
v  17.516 16.453 4.893
v  0 22.14 1.35568e-15
v  17.573 16.503 -7.585
v  19.823 21.1 -2.365
v  9.415 24.6 -2.385
v  2.091 22.14 0.783
v  2.091 24.6 0.783
v  9.415 22.14 -2.385
v  10.9 24.6 -3.027
v  13.444 16.44 -4.128
v  13.444 17.744 -4.128
v  13.444 25.31 -4.128
v  14.983 25.31 5.955
v  14.983 24.6 5.955
v  10.9 25.31 -3.027
v  17.361 16.455 4.958
v  15.087 21.1 -0.317
v  17.361 25.31 4.958
v  15.087 25.31 -0.317
v  1.45 22.14 -0.629
v  8.769 22.14 -3.805
v  10.355 16.44 -4.493
v  13.015 16.44 -4.522
v  12.694 16.44 -5.478
v  12.836 16.44 -5.539
v  17.341 16.506 -7.48
v  12.836 16.5 -5.539
v  13.086 16.44 -4.551
v  6.193 24.6 9.808
v  9.185 24.6 16.389
v  15.657 24.6 12.983
v  16.256 24.6 12.668
v  13.517 24.6 6.64
v  14.915 24.6 5.983
v  14.935 24.6 6.027
v  17.521 22.14 12.002
v  13.517 22.14 6.64
v  16.256 22.14 12.668
v  15.088 22.14 6.376
v  14.935 22.14 6.027
v  6.193 22.14 9.808
v  9.185 22.14 16.389
v  8.807 22.14 16.588

# 0 UV coordinates

# 110 vertex normals
vn -0.395497 -0 -0.918467
vn -0.395497 0 -0.918467
vn -1.46313e-22 -1 -6.12323e-17
vn 5.70047e-24 -1 -6.12323e-17
vn 7.15845e-24 -1 -6.12323e-17
vn -6.75627e-23 -1 -6.12323e-17
vn -9.7518e-24 -1 -6.12323e-17
vn -3.24497e-23 -1 -6.12323e-17
vn -1.77433e-23 -1 -6.12323e-17
vn 5.47591e-24 -1 -6.12323e-17
vn 0 -1 -6.12323e-17
vn 6.29277e-24 -1 -6.12323e-17
vn -1.15789e-24 -1 -6.12323e-17
vn -1.1144e-22 -1 -6.12323e-17
vn 0 -1 -6.12323e-17
vn 0 -1 -6.1233e-17
vn 0 -1 -6.12333e-17
vn 0 -1 -6.12323e-17
vn 0 -1 -6.12324e-17
vn -3.15451e-23 -1 -6.12323e-17
vn 7.26296e-23 -1 -6.12324e-17
vn -9.5951e-24 -1 -6.12323e-17
vn -7.89119e-24 -1 -6.12323e-17
vn 0 -1 -6.12324e-17
vn 4.74874e-24 -1 -6.12323e-17
vn -3.08499e-22 -1 -6.12322e-17
vn -0.910665 0 0.413145
vn -0.910787 -1.83863e-05 0.412876
vn -0.910762 1.35453e-05 0.412933
vn -0.910665 0.000184603 0.413145
vn -0.910779 0 0.412894
vn 0 -1 0
vn 0.910454 0 -0.41361
vn -0.906743 0 0.421683
vn 0.399231 0 0.91685
vn 0.399231 -0 0.91685
vn -0.923247 0 0.384208
vn -0.923247 -2.3526e-17 0.384208
vn 0.918305 5.98094e-05 -0.395874
vn 0.918305 0 -0.395874
vn -0.397002 0 -0.917818
vn -0.396827 0 -0.917894
vn -0.398284 -0 -0.917262
vn -0.398284 0 -0.917262
vn -0.910356 0 0.413826
vn 0.918306 0 -0.395872
vn 0.918295 0 -0.395896
vn 0.918295 0 -0.395896
vn 0.918306 0 -0.395872
vn 0.251676 0.777581 0.576218
vn 0.249586 0.777551 0.577167
vn 0.249623 0.777537 0.577169
vn -0.397963 0 -0.917402
vn -0.398075 8.76785e-06 -0.917353
vn -0.397868 -8.89901e-05 -0.917443
vn -0.398029 0 -0.917373
vn -0.397963 -4.94192e-05 -0.917402
vn -0.398075 2.22923e-05 -0.917353
vn -0.399391 0.000163627 -0.91678
vn -0.397867 -1.11368e-05 -0.917443
vn -0.399392 0 -0.91678
vn -0.925996 0 0.377534
vn 0.919311 0 -0.393532
vn -0.394699 -0 -0.91881
vn -0.39569 -1.01439e-05 -0.918384
vn -0.394699 0.000322049 -0.91881
vn -0.39569 0 -0.918384
vn -0.39569 0 -0.918384
vn -0.378128 -0 -0.925753
vn 0 1 0
vn -0.412323 -0 -0.911038
vn -0.412323 0 -0.911038
vn -0.447211 -0 -0.894428
vn -0.447211 0 -0.894428
vn -0.447211 0 -0.894428
vn -0.447211 0 -0.894428
vn 0.910423 0 -0.413678
vn -0.910377 0 0.41378
vn -0.910333 0 0.413876
vn 0.396808 0 0.917902
vn 0.917849 0 -0.39693
vn -0.921036 0 0.389478
vn 0.380749 -0 0.924678
vn 0.386597 -1.89299e-05 0.922249
vn 0.386725 -4.13206e-05 0.922195
vn 0.386503 0 0.922288
vn 0 1 6.12159e-17
vn -1.19843e-19 1 6.0976e-17
vn 0.386652 -0 0.922226
vn 0.386652 0 0.922226
vn -0.918369 0 0.395725
vn -0.918369 0 0.395725
vn -0.249868 0.777187 -0.577534
vn -0.249453 0.777573 -0.577194
vn -0.251242 0.7769 -0.577325
vn -0.249587 0.777549 -0.577169
vn 0.465842 -0 0.884868
vn 0.465689 3.33181e-06 0.884949
vn 0.465697 0 0.884944
vn 0.465862 -7.07915e-05 0.884857
vn 0.465697 1.20205e-05 0.884944
vn 0.465862 0 0.884857
vn 0.465713 -0 0.884936
vn 0.465441 0.000913077 0.885079
vn 0.910363 0 -0.41381
vn 0.910363 0 -0.41381
vn 0.915856 -2.9412e-05 -0.401507
vn 0.915246 0 -0.402895
vn -7.50037e-21 1 6.12357e-17
vn 0.465461 0 0.885068

# Mesh 'defaultobject' with 172 faces
g defaultobject
usemtl DefaultMaterial
f  1//1 2//1 3//1
f  2//1 1//1 4//1
f  4//1 1//1 5//2
f  4//1 5//2 6//2
f  7//3 8//3 9//3
f  8//3 7//3 10//4
f  10//4 7//3 11//5
f  10//4 11//5 12//6
f  12//6 11//5 13//7
f  13//7 11//5 14//8
f  14//8 11//5 2//9
f  2//9 11//5 3//10
f  3//10 11//5 15//11
f  3//10 15//11 16//12
f  16//12 15//11 17//13
f  17//13 15//11 18//14
f  17//13 18//14 19//15
f  17//13 19//15 20//16
f  17//13 20//16 21//17
f  17//13 21//17 22//18
f  17//13 22//18 23//19
f  17//13 23//19 24//18
f  24//18 23//19 25//20
f  24//18 25//20 26//18
f  26//18 25//20 27//18
f  27//18 25//20 28//21
f  27//18 28//21 29//22
f  29//22 28//21 30//23
f  29//22 30//23 31//15
f  31//15 30//23 32//24
f  31//15 32//24 33//25
f  3//10 34//26 35//26
f  34//26 3//10 16//12
f  27//27 36//27 26//27
f  36//28 27//28 29//28
f  36//29 29//29 31//29
f  36//30 31//30 37//30
f  37//31 31//31 38//31
f  37//32 38//32 39//32
f  40//33 41//33 42//33
f  41//33 40//33 43//33
f  44//34 31//34 33//34
f  31//34 44//34 38//34
f  45//35 15//35 11//35
f  15//35 45//35 46//36
f  36//37 24//37 26//37
f  24//37 36//37 47//38
f  45//39 48//39 49//39
f  48//40 45//40 11//40
f  48//40 11//40 9//40
f  9//3 11//5 7//3
f  50//41 51//41 52//41
f  51//41 50//41 53//41
f  53//42 50//42 54//42
f  53//42 54//42 43//42
f  6//43 55//43 4//43
f  55//43 6//43 56//44
f  56//44 6//43 57//44
f  58//45 54//45 59//45
f  54//45 58//45 60//45
f  61//46 62//46 63//46
f  64//47 56//47 57//47
f  56//47 64//47 62//48
f  62//46 64//49 63//46
f  46//50 62//50 61//50
f  62//51 46//51 49//51
f  49//52 46//52 45//52
f  65//53 24//53 47//53
f  24//54 65//54 66//54
f  24//55 66//55 40//55
f  24//56 40//56 42//56
f  24//57 42//57 17//57
f  17//58 42//58 16//58
f  16//59 42//59 67//59
f  16//60 67//60 34//60
f  34//61 67//61 35//61
f  4//62 14//62 2//62
f  14//62 4//62 68//62
f  67//63 3//63 35//63
f  3//63 67//63 1//63
f  69//64 10//64 12//64
f  10//65 69//65 8//65
f  8//66 69//66 70//66
f  8//67 70//67 71//67
f  71//67 70//67 72//68
f  68//69 13//69 14//69
f  13//69 68//69 73//69
f  74//70 50//70 52//70
f  50//70 74//70 75//70
f  50//70 75//70 76//70
f  50//70 76//70 77//70
f  50//70 77//70 78//70
f  78//70 54//70 50//70
f  54//70 78//70 79//70
f  79//70 78//70 80//70
f  59//70 54//70 79//70
f  81//70 82//70 83//70
f  82//70 81//70 84//70
f  82//70 84//70 85//70
f  63//70 60//70 58//70
f  60//70 63//70 64//70
f  60//70 64//70 6//70
f  6//70 64//70 57//70
f  60//70 6//70 5//70
f  71//71 9//71 8//71
f  9//71 71//71 48//72
f  43//73 1//73 41//73
f  1//73 43//73 5//74
f  5//74 43//73 54//75
f  5//74 54//75 60//76
f  39//70 51//70 37//70
f  51//70 39//70 86//70
f  86//70 39//70 38//70
f  86//70 38//70 87//70
f  87//70 38//70 44//70
f  87//70 44//70 88//70
f  36//70 65//70 47//70
f  65//70 36//70 66//70
f  66//70 36//70 37//70
f  66//70 37//70 40//70
f  40//70 37//70 51//70
f  40//70 51//70 53//70
f  40//70 53//70 43//70
f  78//77 83//77 82//77
f  83//77 78//77 77//77
f  86//78 52//78 51//78
f  52//78 86//78 74//78
f  74//79 86//79 87//79
f  74//79 87//79 75//79
f  80//80 82//80 85//80
f  82//80 80//80 78//80
f  84//81 23//81 22//81
f  23//81 84//81 81//81
f  69//70 55//70 70//70
f  55//70 69//70 73//70
f  55//70 73//70 68//70
f  55//70 68//70 4//70
f  73//82 12//82 13//82
f  12//82 73//82 69//82
f  20//83 59//83 79//83
f  59//84 20//84 61//84
f  61//85 20//85 46//85
f  46//86 20//86 15//86
f  15//87 20//87 19//87
f  15//87 19//87 18//88
f  59//89 63//89 58//89
f  63//89 59//89 61//90
f  1//70 42//70 41//70
f  42//70 1//70 67//70
f  56//91 70//91 55//91
f  70//91 56//91 72//92
f  56//93 71//93 72//93
f  71//94 56//94 62//94
f  71//95 62//95 48//95
f  48//96 62//96 49//96
f  32//97 87//97 88//97
f  87//98 32//98 77//98
f  77//99 32//99 83//99
f  83//100 32//100 81//100
f  81//101 32//101 25//101
f  81//102 25//102 23//102
f  25//20 32//24 30//23
f  25//20 30//23 28//21
f  87//103 76//103 75//103
f  76//104 87//104 77//104
f  80//105 20//105 79//105
f  20//105 80//105 85//106
f  20//107 85//107 84//107
f  20//108 84//108 22//108
f  20//87 22//109 21//109
f  88//110 33//110 32//110
f  33//110 88//110 44//110

