# {"id":"DEB_LOD2_UUID_6627ac97-2a2e-4fb7-94f3-e477434b551a","idOriginal":"DEB_LOD2_UUID_6627ac97-2a2e-4fb7-94f3-e477434b551a","origin":[13.399465597902278,52.53577025353456],"elevation":47.68}
# Longitude: 13.399465597902278
# Latitude: 52.53577025353456
# Elevation: 47.68

# File produced by Open Asset Import Library (http://www.assimp.sf.net)
# (assimp v3.1.0)

mtllib DEB_LOD2_UUID_6627ac97-2a2e-4fb7-94f3-e477434b551a.obj.mtl

# 60 vertex positions
v  30.023 17.86 3.441
v  28.439 -3.51841e-16 5.746
v  30.023 -2.107e-16 3.441
v  28.439 17.86 5.746
v  29.442 19.33 2.159
v  16.273 22.37 11.617
v  20.744 19.33 14.808
v  29.427 19.34 2.149
v  0 6.77 4.14543e-16
v  3.202 2.77811e-16 -4.537
v  0 0 0
v  3.202 6.77 -4.537
v  19.746 19.437 -3.52
v  20.166 2.54114e-16 -4.15
v  19.746 2.15538e-16 -3.52
v  20.166 19.442 -4.15
v  24.718 22.38 -1.054
v  16.202 22.342 11.566
v  16.258 22.38 11.606
v  13.953 19.365 5.159
v  14.05 19.365 5.014
v  24.697 22.366 -1.068
v  13.727 6.77 2.237
v  12.399 -2.50624e-16 4.093
v  13.727 -1.36977e-16 2.237
v  12.399 6.77 4.093
v  13.943 -3.16816e-16 5.174
v  13.892 19.33 5.138
v  13.943 19.365 5.174
v  13.892 6.77 5.138
v  12.433 6.77 4.117
v  13.892 -3.14612e-16 5.138
v  12.433 -2.52094e-16 4.117
v  18.244 19.417 -1.271
v  18.244 7.78263e-17 -1.271
v  29.442 17.86 2.159
v  30.439 17.86 2.837
v  30.439 -1.73716e-16 2.837
v  24.718 6.45389e-17 -1.054
v  24.697 6.53961e-17 -1.068
v  29.442 -1.32201e-16 2.159
v  29.427 -1.31588e-16 2.149
v  20.744 17.86 14.808
v  21.725 17.86 15.508
v  3.677 6.77 -5.211
v  13.212 -7.41524e-17 1.211
v  3.677 3.19082e-16 -5.211
v  13.212 6.77 1.211
v  11.773 19.33 8.405
v  11.773 6.77 8.405
v  10.2 6.77 7.282
v  11.773 -5.14658e-16 8.405
v  10.2 -4.45894e-16 7.282
v  21.725 -9.49591e-16 15.508
v  20.744 -9.06728e-16 14.808
v  16.273 -7.11336e-16 11.617
v  14.05 -3.07019e-16 5.014
v  16.258 -7.10663e-16 11.606
v  16.202 -7.08213e-16 11.566
v  13.953 -3.15898e-16 5.159

# 0 UV coordinates

# 77 vertex normals
vn 0.824156 0 0.566362
vn 0.399043 0.874911 0.274399
vn 0.39952 0.874437 0.275216
vn -0.817018 3.53073e-17 -0.576612
vn -0.817018 0 -0.576612
vn -0.83205 -0 -0.5547
vn -0.83205 0 -0.5547
vn -0.402055 0.875309 -0.268672
vn -0.399742 0.876847 -0.267107
vn -0.399932 0.876628 -0.267541
vn -0.401759 0.874471 -0.271829
vn 0.813259 0 0.581901
vn 0.576684 0 -0.816968
vn 0.576683 0 -0.816968
vn 0.573349 -3.75805e-05 -0.819311
vn 0.576692 0.00107492 -0.816961
vn 0.576683 0.00107215 -0.816968
vn 0.573426 0 -0.819258
vn -3.75578e-20 -1 -6.11783e-17
vn -0.831595 -0 -0.555383
vn 0.562425 0 -0.826848
vn 0.553478 0.0026414 -0.83286
vn 0.562413 -6.87851e-06 -0.826857
vn 0.556582 0.00405769 -0.830783
vn 0.562391 0 -0.826872
vn 0.562333 4.3579e-05 -0.826911
vn 0.562385 0 -0.826876
vn -2.77556e-19 -1 -6.10623e-17
vn 0 -1 -6.12225e-17
vn 1.07998e-19 -1 -6.13431e-17
vn -1.11022e-19 -1 -6.10623e-17
vn 0 1 0
vn 0.558628 0 -0.829418
vn -0.838977 -0 -0.544167
vn 0.823987 0 0.566609
vn 1.14174e-23 -1 -6.12323e-17
vn 0 -1 -6.12323e-17
vn 0 -1 -6.12323e-17
vn -3.43592e-23 -1 -6.12323e-17
vn 4.0996e-23 -1 -6.12324e-17
vn -6.0855e-24 -1 -6.12323e-17
vn 2.61933e-23 -1 -6.12323e-17
vn 0 -1 -6.12323e-17
vn -1.03322e-23 -1 -6.12323e-17
vn -4.65576e-23 -1 -6.12323e-17
vn 7.66159e-24 -1 -6.12323e-17
vn -6.34835e-23 -1 -6.12324e-17
vn -2.12822e-23 -1 -6.12323e-17
vn -1.22523e-21 -1 -6.12319e-17
vn -2.41529e-22 -1 -6.12323e-17
vn 8.8622e-23 -1 -6.12324e-17
vn -7.43278e-19 -1 -6.17312e-17
vn -0.580846 0 0.814014
vn -0.581042 0 0.813874
vn -0.581042 0 0.813873
vn -0.580925 0 0.813957
vn -0.581239 0 0.813733
vn -0.591319 0 0.806438
vn -0.580928 0 0.813955
vn -0.580928 0 0.813955
vn -0.395026 0.882218 -0.256216
vn -0.394974 0.882212 -0.256315
vn -0.670766 0.595068 -0.442682
vn 0.823939 0 0.566679
vn 0.393925 0.880641 0.263239
vn 0.391538 0.882177 0.26165
vn -0.817404 -0 -0.576064
vn 0.823565 0 0.567222
vn 0.893729 0 -0.448607
vn -0.406677 0.874699 -0.263657
vn -0.400262 0.876688 -0.26685
vn -0.410539 0.872097 -0.266278
vn -0.832042 -0 -0.554712
vn -0.831167 1.46695e-06 -0.556023
vn -0.832042 -1.41949e-05 -0.554712
vn -0.831167 0 -0.556023
vn -0.831806 0 -0.555067

# Mesh 'defaultobject' with 116 faces
g defaultobject
usemtl DefaultMaterial
f  1//1 2//1 3//1
f  2//1 1//1 4//1
f  5//2 6//2 7//2
f  6//3 5//3 8//3
f  9//4 10//4 11//4
f  10//4 9//4 12//5
f  13//6 14//6 15//6
f  14//6 13//6 16//7
f  17//8 18//8 19//8
f  18//9 17//9 20//9
f  20//10 17//10 21//10
f  21//11 17//11 22//11
f  23//12 24//12 25//12
f  24//12 23//12 26//12
f  27//13 28//13 29//13
f  28//13 27//13 30//14
f  30//15 27//15 31//15
f  31//16 27//16 26//16
f  26//17 27//17 32//17
f  26//18 32//18 24//18
f  24//19 32//19 33//19
f  34//20 15//20 35//20
f  15//20 34//20 13//20
f  22//21 14//21 16//21
f  14//22 22//22 17//22
f  14//23 17//23 8//23
f  14//24 8//24 5//24
f  14//25 5//25 36//25
f  14//26 36//26 37//26
f  14//25 37//27 38//27
f  14//28 38//28 39//28
f  14//28 39//28 40//29
f  39//28 38//28 41//30
f  39//28 41//30 42//31
f  4//32 43//32 44//32
f  43//32 4//32 36//32
f  36//32 4//32 1//32
f  36//32 1//32 37//32
f  45//33 46//33 47//33
f  46//33 45//33 48//33
f  49//34 30//34 50//34
f  30//34 49//34 28//34
f  30//32 51//32 50//32
f  51//32 30//32 9//32
f  9//32 30//32 31//32
f  9//32 26//32 12//32
f  26//32 9//32 31//32
f  12//32 26//32 23//32
f  12//32 23//32 45//32
f  45//32 23//32 48//32
f  5//35 43//35 36//35
f  43//35 5//35 7//35
f  25//36 24//19 46//36
f  47//37 46//36 24//19
f  52//38 47//37 24//19
f  53//39 47//37 52//38
f  10//40 47//37 53//39
f  11//41 10//40 53//39
f  38//28 3//42 41//30
f  2//43 41//30 3//42
f  42//31 41//30 2//43
f  39//28 42//31 2//43
f  54//44 39//28 2//43
f  40//29 39//28 54//44
f  14//28 40//29 54//44
f  55//45 14//28 54//44
f  56//46 14//28 55//45
f  15//47 14//28 56//46
f  35//48 15//47 56//46
f  57//43 35//48 56//46
f  58//49 57//43 56//46
f  59//50 57//43 58//49
f  27//51 57//43 59//50
f  52//38 27//51 59//50
f  60//52 57//43 27//51
f  32//19 27//51 52//38
f  33//19 32//19 52//38
f  24//19 33//19 52//38
f  54//53 43//53 55//53
f  43//53 54//53 44//53
f  53//54 9//54 11//54
f  9//54 53//54 51//54
f  51//54 53//54 52//55
f  51//54 52//55 50//55
f  50//56 52//56 59//56
f  50//56 59//56 49//56
f  49//56 59//56 18//56
f  18//57 59//57 58//57
f  18//57 58//57 19//57
f  19//58 58//58 56//58
f  19//58 56//58 6//58
f  6//59 56//59 55//59
f  6//59 55//59 7//60
f  7//60 55//59 43//53
f  22//61 13//61 21//61
f  13//62 22//62 16//62
f  21//63 13//63 34//63
f  4//64 54//64 2//64
f  54//64 4//64 44//64
f  6//65 17//65 19//65
f  17//66 6//66 8//66
f  12//67 47//67 10//67
f  47//67 12//67 45//67
f  37//68 3//68 38//68
f  3//68 37//68 1//68
f  48//69 25//69 46//69
f  25//69 48//69 23//69
f  18//70 29//70 49//70
f  29//71 18//71 20//71
f  28//72 49//72 29//72
f  29//73 60//73 27//73
f  60//74 29//74 57//74
f  57//75 29//75 20//75
f  57//74 20//76 21//76
f  57//77 21//77 35//77
f  35//77 21//77 34//77

