# {"id":"DEB_LOD2_UUID_82c334af-4d98-4ec0-800f-c0aa96e29c6b","idOriginal":"DEB_LOD2_UUID_82c334af-4d98-4ec0-800f-c0aa96e29c6b","origin":[13.37821976374423,52.535520163420806],"elevation":36.62}
# Longitude: 13.37821976374423
# Latitude: 52.535520163420806
# Elevation: 36.62

# File produced by Open Asset Import Library (http://www.assimp.sf.net)
# (assimp v3.1.0)

mtllib DEB_LOD2_UUID_82c334af-4d98-4ec0-800f-c0aa96e29c6b.obj.mtl

# 30 vertex positions
v  0 18.147 1.11118e-15
v  1.637 5.60888e-17 -0.916
v  0 0 0
v  1.637 19.559 -0.916
v  20.032 18.732 11.903
v  18.466 -7.82733e-16 12.783
v  20.032 -7.28849e-16 11.903
v  18.466 20.421 12.783
v  12.801 20.72 15.936
v  2.983 20.72 -1.669
v  5.044 18.148 9.043
v  6.241 18.147 11.191
v  9.815 18.148 17.598
v  8.178 20.92 -4.575
v  18.002 20.92 13.041
v  11.077 17.797 -6.196
v  20.901 17.797 11.42
v  17.32 17.797 4.998
v  16.112 17.796 2.831
v  12.801 -9.75799e-16 15.936
v  9.815 -1.07757e-15 17.598
v  18.002 -7.98531e-16 13.041
v  17.32 -3.06039e-16 4.998
v  20.901 -6.99273e-16 11.42
v  16.112 -1.73349e-16 2.831
v  11.077 3.79396e-16 -6.196
v  8.178 2.80138e-16 -4.575
v  6.241 -6.85251e-16 11.191
v  2.983 1.02197e-16 -1.669
v  5.044 -5.53724e-16 9.043

# 0 UV coordinates

# 52 vertex normals
vn -0.488311 5.34356e-17 -0.87267
vn -0.488311 0 -0.87267
vn 0.489891 0 0.871784
vn -0.525255 0.798938 0.292926
vn -0.525238 0.798954 0.292913
vn -0.525153 0.799039 0.292831
vn -0.525337 0.798812 0.293123
vn -0.525213 0.798992 0.292853
vn 0.598149 0.728661 -0.333573
vn 0.598265 0.728533 -0.333645
vn 0.598265 0.728533 -0.333645
vn 0.598331 0.728465 -0.333674
vn 0 1 0
vn 0.785793 0.436429 -0.438244
vn -0.0293279 0.999436 0.0163557
vn -0.0293286 0.999436 0.0163558
vn 0.486338 0 0.873771
vn 0.486338 0 0.873771
vn 0.486356 0 0.873761
vn 0.486356 0 0.873761
vn 0.485964 0 0.873979
vn 5.4313e-23 -1 -6.12324e-17
vn 0 -1 -6.12323e-17
vn -1.08374e-22 -1 -6.12323e-17
vn 9.66799e-24 -1 -6.12323e-17
vn 4.60228e-24 -1 -6.12323e-17
vn 0 -1 -6.12323e-17
vn 4.91379e-23 -1 -6.12323e-17
vn -9.49119e-24 -1 -6.12323e-17
vn 2.46381e-23 -1 -6.12323e-17
vn 2.77623e-24 -1 -6.12323e-17
vn -1.00894e-22 -1 -6.12324e-17
vn 2.99147e-24 -1 -6.12323e-17
vn 4.81033e-20 -1 -6.11392e-17
vn 0.873335 0 -0.487121
vn 0.873453 -0.000141039 -0.486909
vn 0.873393 -5.21219e-05 -0.487016
vn 0.873335 8.31562e-05 -0.487121
vn 0.873408 0 -0.486989
vn 0.485813 0 0.874063
vn 0.485813 -0 0.874063
vn -0.488228 0 -0.872716
vn -0.488194 -2.9185e-06 -0.872735
vn -0.488228 1.11284e-05 -0.872716
vn -0.488194 0 -0.872735
vn -0.488044 0 -0.872819
vn -0.873314 0 0.487158
vn -0.873314 0 0.487158
vn -0.873332 0 0.487126
vn -0.873331 -2.98279e-17 0.487126
vn -0.873523 0 0.486782
vn -0.873524 0 0.486782

# Mesh 'defaultobject' with 56 faces
g defaultobject
usemtl DefaultMaterial
f  1//1 2//1 3//1
f  2//1 1//1 4//2
f  5//3 6//3 7//3
f  6//3 5//3 8//3
f  4//4 9//4 10//4
f  9//5 4//5 1//5
f  9//6 1//6 11//6
f  9//7 11//7 12//7
f  9//8 12//8 13//8
f  8//9 14//9 15//9
f  14//10 8//10 16//10
f  16//10 8//10 5//11
f  16//12 5//12 17//12
f  16//13 17//13 18//13
f  16//14 18//14 19//14
f  9//15 14//15 10//15
f  14//15 9//15 15//16
f  20//17 13//17 21//17
f  13//17 20//17 9//18
f  9//19 20//19 22//19
f  9//19 22//19 15//20
f  15//21 22//21 6//21
f  15//21 6//21 8//21
f  7//22 23//22 24//22
f  23//22 7//22 6//23
f  23//22 6//23 22//24
f  23//22 22//24 20//25
f  23//22 20//25 25//26
f  25//26 20//25 26//27
f  26//27 20//25 21//28
f  26//27 21//28 27//29
f  27//29 21//28 28//30
f  27//29 28//30 29//31
f  29//31 28//30 30//32
f  29//31 30//32 3//33
f  29//31 3//33 2//34
f  19//35 26//35 16//35
f  26//36 19//36 18//36
f  26//37 18//37 17//37
f  26//38 17//38 25//38
f  25//39 17//39 24//39
f  25//26 24//22 23//22
f  17//40 7//40 24//40
f  7//40 17//40 5//41
f  10//42 2//42 4//42
f  2//43 10//43 14//43
f  2//44 14//44 29//44
f  29//45 14//43 27//45
f  27//46 14//46 16//46
f  27//46 16//46 26//46
f  13//47 28//47 21//47
f  28//47 13//47 12//48
f  11//49 3//49 30//49
f  3//49 11//49 1//50
f  12//51 30//51 28//51
f  30//51 12//51 11//52

