# {"id":"DEB_LOD2_UUID_b4eae73c-2c92-43cf-8c42-d2b3fbcc6d01","idOriginal":"DEB_LOD2_UUID_b4eae73c-2c92-43cf-8c42-d2b3fbcc6d01","origin":[13.401144283612812,52.51313029001966],"elevation":34.49}
# Longitude: 13.401144283612812
# Latitude: 52.51313029001966
# Elevation: 34.49

# File produced by Open Asset Import Library (http://www.assimp.sf.net)
# (assimp v3.1.0)

mtllib DEB_LOD2_UUID_b4eae73c-2c92-43cf-8c42-d2b3fbcc6d01.obj.mtl

# 44 vertex positions
v  3.708 20.24 4.84
v  0 0 0
v  3.708 -2.96365e-16 4.84
v  0 20.24 1.23934e-15
v  22.267 3.54596e-16 -5.791
v  13.612 4.69162e-16 -7.662
v  18.761 6.93028e-16 -11.318
v  23.709 2.15415e-16 -3.518
v  20.686 1.08198e-16 -1.767
v  13.108 -5.1674e-16 8.439
v  5.347 -1.9674e-16 3.213
v  11.581 -6.47838e-16 10.58
v  4.458 -1.22159e-16 1.995
v  1.834 8.26637e-17 -1.35
v  5.235 -1.8731e-16 3.059
v  10.579 -7.3387e-16 11.985
v  9.474 -6.93701e-16 11.329
v  3.8 -3.02855e-16 4.946
v  6.203 -4.73142e-16 7.727
v  7.922 -6.04363e-16 9.87
v  9.326 -6.87211e-16 11.223
v  8.596 -6.55308e-16 10.702
v  3.8 20.24 4.946
v  6.203 20.24 7.727
v  1.834 20.24 -1.35
v  4.458 20.24 1.995
v  5.235 20.24 3.059
v  5.347 20.24 3.213
v  18.761 20.24 -11.318
v  13.612 20.24 -7.662
v  22.267 20.24 -5.791
v  7.922 20.24 9.87
v  10.674 20.24 9.45
v  8.596 20.24 10.702
v  9.326 20.24 11.223
v  9.474 16.16 11.329
v  10.674 16.16 9.45
v  9.326 16.16 11.223
v  10.579 16.16 11.985
v  11.581 16.16 10.58
v  22.267 16.16 -5.791
v  13.108 16.16 8.439
v  20.686 16.16 -1.767
v  23.709 16.16 -3.518

# 0 UV coordinates

# 51 vertex normals
vn -0.793818 0 0.608156
vn -0.793818 -3.72388e-17 0.608156
vn 3.84768e-24 -1 -6.12323e-17
vn 3.11871e-24 -1 -6.12324e-17
vn -3.5051e-24 -1 -6.12323e-17
vn 3.62384e-24 -1 -6.12323e-17
vn 0 -1 -6.12323e-17
vn 8.60932e-24 -1 -6.12324e-17
vn 2.73529e-24 -1 -6.12323e-17
vn 8.28943e-24 -1 -6.12323e-17
vn 0 -1 -6.12324e-17
vn -6.2632e-23 -1 -6.12323e-17
vn -1.2501e-22 -1 -6.12323e-17
vn 1.63019e-21 -1 -6.12336e-17
vn 0 -1 -6.12321e-17
vn 1.2945e-22 -1 -6.12324e-17
vn 7.72186e-22 -1 -6.12328e-17
vn -1.03314e-22 -1 -6.12322e-17
vn -0.755219 0 0.655473
vn -0.756658 -1.52458e-05 0.653811
vn -0.755219 0.000399226 0.655473
vn -0.756658 0 0.653811
vn 0 1 0
vn -0.578944 -0 -0.815367
vn 0.807586 0 -0.58975
vn 0.808736 -0.000127139 -0.588172
vn 0.807586 1.83756e-05 -0.58975
vn 0.808736 0 -0.588172
vn -0.777027 0 0.629467
vn 0.814164 0 0.580635
vn 0.814144 0 0.580662
vn -0.780051 0 0.625715
vn -0.796162 -0 -0.605083
vn 0.79605 0 0.605231
vn 0.795915 0 0.605409
vn 0.802879 0 0.596142
vn -0.582281 0 0.812988
vn -0.580921 0 0.81396
vn -0.582281 -7.40493e-05 0.812988
vn -0.580848 1.98424e-05 0.814012
vn -0.580921 0 0.81396
vn 0.844434 0 -0.535659
vn 0.844434 0 -0.535659
vn 0.84441 1.81966e-05 -0.535697
vn 0.844434 -7.48365e-06 -0.535659
vn 0.84441 0 -0.535697
vn -0.510484 0 0.859887
vn 0.7868 0 -0.617208
vn -0.592809 4.9313e-17 -0.805343
vn -0.592809 0 -0.805343
vn 0.501217 0 0.865322

# Mesh 'defaultobject' with 84 faces
g defaultobject
usemtl DefaultMaterial
f  1//1 2//1 3//1
f  2//1 1//1 4//2
f  5//3 6//3 7//3
f  6//3 5//3 8//4
f  6//3 8//4 9//5
f  6//3 9//5 10//6
f  6//3 10//6 11//7
f  11//7 10//6 12//8
f  13//9 2//9 14//9
f  2//9 13//9 15//10
f  2//9 15//10 11//7
f  2//9 11//7 12//8
f  2//9 12//8 16//11
f  2//9 16//11 3//12
f  3//12 16//11 17//13
f  3//12 17//13 18//14
f  18//14 17//13 19//15
f  19//15 17//13 20//16
f  20//16 17//13 21//17
f  20//16 21//17 22//18
f  18//19 1//19 3//19
f  1//20 18//20 19//20
f  1//21 19//21 23//21
f  23//22 19//22 24//22
f  1//23 25//23 4//23
f  25//23 1//23 26//23
f  26//23 1//23 27//23
f  27//23 1//23 28//23
f  28//23 29//23 30//23
f  29//23 28//23 31//23
f  31//23 28//23 1//23
f  31//23 1//23 23//23
f  31//23 23//23 24//23
f  31//23 24//23 32//23
f  31//23 32//23 33//23
f  33//23 32//23 34//23
f  33//23 34//23 35//23
f  30//24 7//24 6//24
f  7//24 30//24 29//24
f  27//25 13//25 26//25
f  13//26 27//26 28//26
f  13//27 28//27 15//27
f  15//28 28//28 11//28
f  36//23 37//23 38//23
f  37//23 36//23 39//23
f  37//23 39//23 40//23
f  37//23 40//23 41//23
f  41//23 40//23 42//23
f  41//23 42//23 43//23
f  41//23 43//23 44//23
f  34//29 20//29 22//29
f  20//29 34//29 32//29
f  12//30 39//30 16//30
f  39//30 12//30 40//30
f  40//31 12//31 10//31
f  40//31 10//31 42//31
f  32//32 19//32 20//32
f  19//32 32//32 24//32
f  28//33 6//33 11//33
f  6//33 28//33 30//33
f  37//34 35//34 38//34
f  35//34 37//34 33//34
f  33//35 37//35 41//35
f  33//35 41//35 31//35
f  43//36 10//36 9//36
f  10//36 43//36 42//36
f  36//37 38//37 17//37
f  21//38 34//38 22//38
f  34//39 21//39 17//39
f  34//40 17//40 38//40
f  34//38 38//41 35//41
f  31//42 7//42 29//42
f  7//42 31//42 41//43
f  7//44 41//44 44//44
f  7//42 44//45 5//45
f  5//46 44//46 8//46
f  39//47 17//47 16//47
f  17//47 39//47 36//47
f  25//48 13//48 14//48
f  13//48 25//48 26//48
f  4//49 14//49 2//49
f  14//49 4//49 25//50
f  44//51 9//51 8//51
f  9//51 44//51 43//51

