# {"id":"DEB_LOD2_UUID_e2f0070b-5459-4e4f-bbd5-fcfd11adfbf0","idOriginal":"DEB_LOD2_UUID_e2f0070b-5459-4e4f-bbd5-fcfd11adfbf0","origin":[13.397201603230762,52.540050568957284],"elevation":45.086}
# Longitude: 13.397201603230762
# Latitude: 52.540050568957284
# Elevation: 45.086

# File produced by Open Asset Import Library (http://www.assimp.sf.net)
# (assimp v3.1.0)

mtllib DEB_LOD2_UUID_e2f0070b-5459-4e4f-bbd5-fcfd11adfbf0.obj.mtl

# 38 vertex positions
v  10.679 17.931 -1.262
v  14.764 2.644 8.101
v  10.679 2.644 -1.262
v  14.764 17.931 8.101
v  1.232 -1.7292e-16 2.824
v  0 17.949 1.09906e-15
v  0 0 0
v  5.364 -7.52729e-16 12.293
v  8.673 -1.21712e-15 19.877
v  1.232 17.949 2.824
v  5.364 17.949 12.293
v  8.673 17.949 19.877
v  18.686 -3.90295e-16 6.374
v  14.764 -4.96043e-16 8.101
v  18.686 2.644 6.374
v  14.719 17.949 8.121
v  14.719 -4.97268e-16 8.121
v  14.677 2.644 -2.975
v  10.575 17.962 -1.286
v  9.333 2.51359e-16 -4.105
v  9.333 17.966 -4.105
v  10.6 17.962 -1.228
v  10.575 7.87448e-17 -1.286
v  10.6 7.51933e-17 -1.228
v  13.361 19.833 17.815
v  10.052 19.833 10.231
v  14.74 17.949 8.169
v  16.728 17.943 12.683
v  18.075 17.939 15.742
v  5.92 19.833 0.762
v  4.688 19.833 -2.062
v  14.74 -5.00207e-16 8.169
v  18.075 -9.63919e-16 15.742
v  16.728 -7.7661e-16 12.683
v  4.688 1.26261e-16 -2.062
v  14.677 1.82166e-16 -2.975
v  10.679 7.72752e-17 -1.262
v  13.361 -1.09085e-15 17.815

# 0 UV coordinates

# 63 vertex normals
vn 0.916564 0 -0.399889
vn -0.916574 0 0.399865
vn -0.916537 1.59532e-05 0.39995
vn -0.916556 -2.04453e-05 0.399906
vn -0.916574 -7.3912e-05 0.399865
vn -0.916537 2.25052e-05 0.39995
vn -0.916556 0 0.399906
vn 0.402997 0 0.915202
vn 0.406146 0 0.913808
vn 0.406146 0 0.913808
vn 0 1 0
vn 0.915119 0 -0.403185
vn 0.91832 -0.00137424 -0.395837
vn 0.915119 2.8176e-05 -0.403185
vn 0.918321 0 -0.395837
vn 0.316441 0.938511 -0.138068
vn 0.31585 0.938692 -0.138186
vn 0.316363 0.938535 -0.138082
vn 0.316365 0.938534 -0.13808
vn 0.316489 0.938494 -0.138071
vn 0.316459 0.938501 -0.138095
vn 0.316459 0.938501 -0.138094
vn 0.319645 0.937467 -0.137781
vn 0.309417 0.940741 -0.138805
vn 0.316448 0.93851 -0.138052
vn 0.314665 0.939223 -0.137286
vn 0.916156 0 -0.400822
vn 0.915177 7.10734e-06 -0.403051
vn 0.9152 -8.66351e-06 -0.402999
vn 0.916156 -0.00111258 -0.400821
vn 0.915187 0 -0.40303
vn 2.26115e-19 1 6.1051e-17
vn -0.402621 5.60501e-17 -0.915367
vn -0.402621 0 -0.915367
vn -0.402607 0 -0.915373
vn -0.402607 0 -0.915373
vn -0.316445 0.938512 0.138052
vn -0.316445 0.938512 0.138052
vn -0.316432 0.938512 0.138082
vn -0.316439 0.938512 0.138066
vn -0.316439 0.938512 0.138066
vn 0.919064 0 -0.394109
vn 1.91443e-23 -1 -6.12323e-17
vn 5.669e-23 -1 -6.12324e-17
vn -2.07882e-24 -1 -6.12323e-17
vn -1.54767e-24 -1 -6.12323e-17
vn 3.69757e-24 -1 -6.12323e-17
vn 0 -1 -6.12323e-17
vn -2.08378e-22 -1 -6.12324e-17
vn 3.94973e-22 -1 -6.12335e-17
vn 0 -1 -6.12324e-17
vn -7.99131e-24 -1 -6.12323e-17
vn -8.50443e-24 -1 -6.12323e-17
vn -4.96986e-24 -1 -6.12323e-17
vn -4.99701e-24 -1 -6.12323e-17
vn -0.395323 -0 -0.918542
vn -0.395323 0 -0.918542
vn -0.393836 -5.26587e-05 -0.919181
vn -0.393865 0 -0.919168
vn 1.77592e-20 1 6.12747e-17
vn 0.402621 0 0.915367
vn 0.402621 0 0.915367
vn 0.40255 0 0.915398

# Mesh 'defaultobject' with 72 faces
g defaultobject
usemtl DefaultMaterial
f  1//1 2//1 3//1
f  2//1 1//1 4//1
f  5//2 6//2 7//2
f  6//3 5//3 8//3
f  6//4 8//4 9//4
f  6//5 9//5 10//5
f  10//6 9//6 11//6
f  11//7 9//7 12//7
f  13//8 2//8 14//8
f  2//8 13//8 15//8
f  14//9 16//9 17//9
f  16//9 14//9 4//10
f  4//1 14//9 2//8
f  15//11 3//11 2//11
f  3//11 15//11 18//11
f  19//12 20//12 21//12
f  20//13 19//13 22//13
f  20//14 22//14 23//14
f  23//15 22//15 24//15
f  25//16 16//16 26//16
f  16//17 25//17 27//17
f  27//18 25//18 28//18
f  28//18 25//18 29//19
f  30//20 21//20 31//20
f  21//21 30//21 19//21
f  19//21 30//21 26//22
f  19//23 26//23 22//23
f  22//24 26//24 1//24
f  1//25 26//25 16//25
f  1//26 16//26 4//26
f  27//27 17//27 16//27
f  17//28 27//28 28//28
f  17//29 28//29 29//29
f  17//30 29//30 32//30
f  32//31 29//31 33//31
f  32//32 33//32 34//32
f  6//33 35//33 7//33
f  35//33 6//33 31//34
f  35//35 31//35 20//35
f  20//35 31//35 21//36
f  10//37 31//37 6//37
f  31//37 10//37 30//38
f  30//39 10//39 11//39
f  30//39 11//39 26//39
f  26//40 11//40 12//40
f  26//40 12//40 25//41
f  18//42 13//42 36//42
f  13//42 18//42 15//42
f  13//43 37//43 36//43
f  37//43 13//43 24//44
f  24//44 13//43 35//45
f  35//45 13//43 7//46
f  7//46 13//43 14//47
f  7//46 14//47 5//48
f  5//48 14//47 17//49
f  5//48 17//49 32//50
f  5//48 32//50 34//51
f  5//48 34//51 8//52
f  8//52 34//51 33//53
f  8//52 33//53 38//54
f  8//52 38//54 9//55
f  23//48 35//45 20//48
f  35//45 23//48 24//44
f  22//56 1//56 24//56
f  3//57 24//56 1//56
f  18//58 24//58 3//58
f  36//59 24//59 18//59
f  37//60 24//60 36//60
f  38//61 12//61 9//61
f  12//61 38//61 25//62
f  25//63 38//63 33//63
f  25//63 33//63 29//63

