# {"id":"DEB_LOD2_UUID_bde1352c-2edb-4a2f-904e-d49b34cfa097","idOriginal":"DEB_LOD2_UUID_bde1352c-2edb-4a2f-904e-d49b34cfa097","origin":[13.399798870160295,52.530451006118895],"elevation":36.443}
# Longitude: 13.399798870160295
# Latitude: 52.530451006118895
# Elevation: 36.443

# File produced by Open Asset Import Library (http://www.assimp.sf.net)
# (assimp v3.1.0)

mtllib DEB_LOD2_UUID_bde1352c-2edb-4a2f-904e-d49b34cfa097.obj.mtl

# 26 vertex positions
v  0.003 20.873 0.07
v  0 0 0
v  0.003 -4.28626e-18 0.07
v  0 20.873 1.2781e-15
v  0.451 20.873 15.032
v  0.365 -7.30624e-16 11.932
v  0.451 -9.20444e-16 15.032
v  0.365 20.873 11.932
v  0.6 20.873 19.928
v  0.511 -1.03893e-15 16.967
v  0.6 -1.22024e-15 19.928
v  0.511 20.873 16.967
v  13.091 20.873 -0.324
v  13.45 -7.06437e-16 11.537
v  13.091 1.98393e-17 -0.324
v  13.45 20.873 11.537
v  13.539 20.873 15.037
v  13.683 -1.19672e-15 19.544
v  13.539 -9.20751e-16 15.037
v  13.683 20.873 19.544
v  0.159 20.873 4.958
v  0.159 -3.0359e-16 4.958
v  13.09 20.873 -0.364
v  0.47 20.873 15.439
v  13.09 2.22886e-17 -0.364
v  0.47 -9.45366e-16 15.439

# 0 UV coordinates

# 27 vertex normals
vn -0.999083 0 0.0428178
vn -0.999083 -2.62184e-18 0.0428178
vn -0.999615 0 0.0277313
vn -0.999549 0 0.0300439
vn 0.999542 0 -0.0302534
vn 0.99949 0 -0.031934
vn -0.999491 0 0.0318987
vn 0.0293384 0 0.99957
vn 0 1 0
vn 0.999688 0 -0.0249785
vn -0.998912 0 0.0466322
vn 0.999677 0 -0.0254203
vn -9.01666e-25 -1 -6.12324e-17
vn 2.06676e-25 -1 -6.12323e-17
vn -2.31995e-24 -1 -6.12323e-17
vn 0 -1 -6.12324e-17
vn 1.02237e-24 -1 -6.12323e-17
vn 1.79302e-24 -1 -6.12323e-17
vn -1.7294e-23 -1 -6.12324e-17
vn -2.38307e-23 -1 -6.12324e-17
vn 2.72915e-24 -1 -6.12323e-17
vn -9.2629e-24 -1 -6.12324e-17
vn 5.15758e-24 -1 -6.12323e-17
vn -0.999564 0 0.0295254
vn -0.0277967 6.12087e-17 -0.999614
vn -0.0277967 0 -0.999614
vn -0.99964 0 0.0268228

# Mesh 'defaultobject' with 48 faces
g defaultobject
usemtl DefaultMaterial
f  1//1 2//1 3//1
f  2//1 1//1 4//2
f  5//3 6//3 7//3
f  6//3 5//3 8//3
f  9//4 10//4 11//4
f  10//4 9//4 12//4
f  13//5 14//5 15//5
f  14//5 13//5 16//5
f  17//6 18//6 19//6
f  18//6 17//6 20//6
f  21//7 3//7 22//7
f  3//7 21//7 1//7
f  20//8 11//8 18//8
f  11//8 20//8 9//8
f  1//9 23//9 4//9
f  23//9 1//9 13//9
f  13//9 1//9 21//9
f  13//9 21//9 16//9
f  16//9 21//9 8//9
f  16//9 8//9 5//9
f  16//9 5//9 17//9
f  17//9 5//9 24//9
f  17//9 24//9 20//9
f  20//9 24//9 12//9
f  20//9 12//9 9//9
f  23//10 15//10 25//10
f  15//10 23//10 13//10
f  24//11 7//11 26//11
f  7//11 24//11 5//11
f  16//12 19//12 14//12
f  19//12 16//12 17//12
f  25//13 3//13 2//13
f  3//13 25//13 22//14
f  22//14 25//13 6//15
f  6//15 25//13 15//16
f  6//15 15//16 14//17
f  6//15 14//17 7//18
f  7//18 14//17 26//19
f  26//19 14//17 10//20
f  10//20 14//17 11//21
f  11//21 14//17 19//22
f  11//21 19//22 18//23
f  8//24 22//24 6//24
f  22//24 8//24 21//24
f  4//25 25//25 2//25
f  25//25 4//25 23//26
f  12//27 26//27 10//27
f  26//27 12//27 24//27

