# {"id":"DEB_LOD2_UUID_25e04ef1-5302-4222-b246-f23be8984068","idOriginal":"DEB_LOD2_UUID_25e04ef1-5302-4222-b246-f23be8984068","origin":[13.381817956065518,52.520828112399954],"elevation":33.9}
# Longitude: 13.381817956065518
# Latitude: 52.520828112399954
# Elevation: 33.9

# File produced by Open Asset Import Library (http://www.assimp.sf.net)
# (assimp v3.1.0)

mtllib DEB_LOD2_UUID_25e04ef1-5302-4222-b246-f23be8984068.obj.mtl

# 72 vertex positions
v  15.72 4.277 -21.1
v  14.654 1.07891e-15 -17.62
v  15.72 1.292e-15 -21.1
v  14.654 4.277 -17.62
v  16.704 4.277 -24.471
v  16.429 4.277 -24.007
v  16.544 4.277 -23.974
v  6.149 4.277 -20.249
v  6.538 4.277 -21.514
v  15.571 4.277 -21.142
v  8.224 4.277 -27.092
v  18.858 8.1 -12.908
v  19.43 7.79488e-16 -12.73
v  18.858 7.90387e-16 -12.908
v  19.43 8.1 -12.73
v  15.188 11.12 -8.917
v  12.339 8.1 -9.797
v  15.188 8.1 -8.917
v  12.339 11.12 -9.797
v  16.58 8.33678e-16 -13.615
v  13.763 10.338 -14.491
v  16.58 10.339 -13.615
v  13.763 8.1 -14.491
v  13.705 8.1 -14.509
v  13.705 8.8842e-16 -14.509
v  13.763 8.87318e-16 -14.491
v  16.604 10.339 -13.608
v  11.389 5.47 3.666
v  9.399 5.47 3.038
v  11.389 -2.24478e-16 3.666
v  9.399 -1.86024e-16 3.038
v  9.093 8.1 2.942
v  9.093 -1.80146e-16 2.942
v  9.399 8.1 3.038
v  14.727 8.1 0.775
v  12.447 -4.65366e-18 0.076
v  14.727 -4.74551e-17 0.775
v  12.447 8.1 0.076
v  16.704 1.49842e-15 -24.471
v  8.224 1.65891e-15 -27.092
v  15.571 1.29457e-15 -21.142
v  16.544 1.46798e-15 -23.974
v  16.429 1.47e-15 -24.007
v  6.538 1.31735e-15 -21.514
v  18.015 4.92492e-16 -8.043
v  16.604 8.3325e-16 -13.608
v  15.3 -5.8232e-17 0.951
v  6.149 1.23989e-15 -20.249
v  4.204 8.52905e-16 -13.929
v  12.432 -7.77651e-18 0.127
v  3.758 7.62343e-16 -12.45
v  1.022 2.07333e-16 -3.386
v  8.528 -1.69552e-16 2.769
v  0.106 -1.17566e-17 0.192
v  0.143 -2.75546e-18 0.045
v  0 0 0
v  15.3 8.1 0.951
v  16.604 8.1 -13.608
v  0.106 8.1 0.192
v  0.143 8.1 0.045
v  0 8.1 4.95982e-16
v  12.432 8.1 0.127
v  10.465 8.1 -0.479
v  18.015 8.1 -8.043
v  8.528 8.1 2.769
v  1.022 8.1 -3.386
v  3.758 8.1 -12.45
v  4.204 8.1 -13.929
v  6.149 8.1 -20.249
v  14.654 8.1 -17.62
v  12.432 5.47 0.127
v  10.465 5.47 -0.479

# 0 UV coordinates

# 78 vertex normals
vn 0.956147 0 0.292889
vn 0 1 0
vn 0.297135 0 -0.954836
vn -0.295123 0 0.955459
vn 0.296943 0 -0.954895
vn 0.296391 -0.000210443 -0.955067
vn 0.296932 0 -0.954899
vn 3.61578e-19 1 6.00698e-17
vn 0.046453 0.987535 -0.150392
vn 0.0444913 0.987296 -0.152537
vn 0.0464296 0.987529 -0.150433
vn -0.300948 0 0.953641
vn -0.299341 0 0.954146
vn -0.299341 0 0.954146
vn -0.293113 0 0.956078
vn 0.295297 0 -0.955406
vn 2.81947e-22 -1 -6.12323e-17
vn -4.42693e-23 -1 -6.12322e-17
vn 6.30221e-22 -1 -6.12348e-17
vn -2.92154e-23 -1 -6.12323e-17
vn 1.63558e-23 -1 -6.12324e-17
vn 3.61013e-23 -1 -6.12323e-17
vn 1.1453e-24 -1 -6.12323e-17
vn -3.60308e-21 -1 -6.12314e-17
vn 3.48304e-23 -1 -6.12323e-17
vn 0 -1 -6.12323e-17
vn -3.73889e-23 -1 -6.12323e-17
vn 8.54999e-24 -1 -6.12323e-17
vn 0 -1 -6.12322e-17
vn -3.23671e-23 -1 -6.12323e-17
vn 0 -1 -6.12318e-17
vn 0 -1 -6.12323e-17
vn 5.73125e-24 -1 -6.12323e-17
vn -6.21024e-23 -1 -6.12323e-17
vn -1.82306e-22 -1 -6.12323e-17
vn 0 -1 -6.12324e-17
vn 3.25838e-24 -1 -6.12323e-17
vn -2.33633e-20 -1 -6.12352e-17
vn 0 -1 -6.12323e-17
vn -0.293617 0 0.955923
vn 0.279997 0 -0.960001
vn 0.296586 -5.34682e-05 -0.955006
vn 0.279994 0.00504772 -0.959989
vn 0.296586 0 -0.955006
vn -0.969753 -0 -0.244088
vn -0.300173 0 0.953885
vn -0.300173 -5.84086e-17 0.953885
vn -0.957342 0 -0.288956
vn -0.957337 0 -0.288975
vn -0.957416 0 -0.288714
vn 0.957964 0 0.286888
vn 0.957336 0 0.288976
vn 0.957336 -0 0.288976
vn -0.292594 0 0.956237
vn -0.292777 -0.000208419 0.956181
vn -0.292594 1.39829e-05 0.956237
vn -0.292777 0 0.956181
vn 0.959369 0 0.282156
vn 0.959369 0 0.282156
vn 0.95921 -5.45941e-06 0.282695
vn 0.959369 0.000378903 0.282156
vn 0.95921 0 0.282695
vn 0.956487 0 0.291773
vn 0.956488 -0 0.291773
vn 0.957333 0 0.288988
vn 0.957324 0 0.289015
vn -0.957229 -0 -0.289331
vn -0.275833 0 0.961206
vn 0.295325 0 -0.955397
vn -0.956935 -0 -0.290302
vn -0.956935 0 -0.290302
vn -0.955763 0 -0.294139
vn -0.955763 0 -0.294139
vn -0.955828 0 -0.293927
vn -0.294427 0 0.955674
vn 0.271305 0 -0.962493
vn 0.951889 0 0.306442
vn 0.957006 0 0.290068

# Mesh 'defaultobject' with 140 faces
g defaultobject
usemtl DefaultMaterial
f  1//1 2//1 3//1
f  2//1 1//1 4//1
f  5//2 6//2 7//2
f  1//2 8//2 4//2
f  8//2 1//2 9//2
f  9//2 1//2 10//2
f  9//2 10//2 11//2
f  11//2 10//2 6//2
f  11//2 6//2 5//2
f  12//3 13//3 14//3
f  13//3 12//3 15//3
f  16//4 17//4 18//4
f  17//4 16//4 19//4
f  20//5 21//5 22//5
f  21//5 20//5 23//5
f  23//6 20//6 24//6
f  24//7 20//7 25//7
f  25//8 20//8 26//8
f  27//9 19//9 16//9
f  19//10 27//10 22//10
f  21//11 19//11 22//11
f  28//12 29//12 30//12
f  31//13 32//13 33//13
f  32//13 31//13 29//14
f  29//12 31//12 30//12
f  32//13 29//14 34//14
f  35//15 36//15 37//15
f  36//15 35//15 38//15
f  11//16 39//16 40//16
f  39//16 11//16 5//16
f  2//17 41//17 3//17
f  42//18 40//18 39//18
f  40//18 42//18 43//19
f  40//18 43//19 41//17
f  40//18 41//17 2//17
f  40//18 2//17 25//20
f  40//18 25//20 44//21
f  45//22 14//22 13//22
f  14//22 45//22 46//23
f  46//23 45//22 20//24
f  20//24 45//22 26//25
f  26//25 45//22 47//26
f  26//25 47//26 25//20
f  25//20 47//26 44//21
f  44//21 47//26 48//27
f  48//27 47//26 49//28
f  49//28 47//26 37//29
f  49//28 37//29 36//30
f  49//28 36//30 50//31
f  49//28 50//31 30//32
f  49//28 30//32 51//33
f  51//33 30//32 31//34
f  51//33 31//34 52//26
f  52//26 31//34 33//35
f  52//26 33//35 53//36
f  52//26 53//36 54//37
f  52//26 54//37 55//38
f  56//39 52//26 55//38
f  57//40 37//40 47//40
f  37//40 57//40 35//40
f  27//41 20//41 22//41
f  20//41 27//41 58//41
f  20//42 58//42 12//42
f  20//43 12//43 46//43
f  46//44 12//44 14//44
f  59//45 55//45 54//45
f  55//45 59//45 60//45
f  60//46 56//46 55//46
f  56//46 60//46 61//47
f  62//2 17//2 63//2
f  17//2 62//2 38//2
f  17//2 38//2 18//2
f  18//2 38//2 35//2
f  18//2 35//2 58//2
f  58//2 35//2 57//2
f  58//2 57//2 64//2
f  58//2 64//2 12//2
f  12//2 64//2 15//2
f  23//2 24//2 17//2
f  65//2 60//2 59//2
f  60//2 65//2 66//2
f  66//2 65//2 67//2
f  67//2 65//2 68//2
f  68//2 65//2 69//2
f  69//2 65//2 24//2
f  69//2 24//2 70//2
f  24//2 65//2 17//2
f  17//2 65//2 32//2
f  17//2 32//2 34//2
f  17//2 34//2 63//2
f  66//2 61//2 60//2
f  66//48 56//48 61//48
f  56//48 66//48 52//48
f  52//49 66//49 67//49
f  52//49 67//49 51//49
f  51//50 67//50 68//50
f  51//50 68//50 49//50
f  6//51 41//51 43//51
f  41//51 6//51 10//51
f  27//52 18//52 58//52
f  18//52 27//52 16//53
f  53//54 59//54 54//54
f  59//55 53//55 33//55
f  59//56 33//56 65//56
f  65//57 33//57 32//57
f  62//58 36//58 38//58
f  36//58 62//58 71//59
f  36//60 71//60 28//60
f  36//61 28//61 50//61
f  50//62 28//60 30//62
f  4//63 25//63 2//63
f  25//63 4//63 24//64
f  24//64 4//63 70//64
f  45//65 57//65 47//65
f  57//65 45//65 64//65
f  64//66 45//66 13//66
f  64//66 13//66 15//66
f  9//67 40//67 44//67
f  40//67 9//67 11//67
f  7//68 43//68 42//68
f  43//68 7//68 6//68
f  69//69 4//69 8//69
f  4//69 69//69 70//69
f  19//70 23//70 17//70
f  23//70 19//70 21//71
f  69//72 49//72 68//72
f  49//72 69//72 8//73
f  49//72 8//73 48//72
f  48//74 8//74 9//74
f  48//74 9//74 44//74
f  62//75 72//75 71//75
f  72//75 62//75 63//75
f  10//76 3//76 41//76
f  3//76 10//76 1//76
f  5//77 42//77 39//77
f  42//77 5//77 7//77
f  71//2 29//2 28//2
f  29//2 71//2 72//2
f  63//78 29//78 72//78
f  29//78 63//78 34//78

