# {"id":"DEB_LOD2_UUID_0a17eb80-252e-4047-9f9f-e381b4de0a7d","idOriginal":"DEB_LOD2_UUID_0a17eb80-252e-4047-9f9f-e381b4de0a7d","origin":[13.359338605619076,52.5398620772502],"elevation":37.05}
# Longitude: 13.359338605619076
# Latitude: 52.5398620772502
# Elevation: 37.05

# File produced by Open Asset Import Library (http://www.assimp.sf.net)
# (assimp v3.1.0)

mtllib DEB_LOD2_UUID_0a17eb80-252e-4047-9f9f-e381b4de0a7d.obj.mtl

# 12 vertex positions
v  12.742 3.588 15.592
v  0 0 0
v  12.742 -9.54735e-16 15.592
v  0 3.586 2.19579e-16
v  16.26 -7.78385e-16 12.712
v  7.842 3.93724e-16 -6.43
v  20.584 -5.61562e-16 9.171
v  3.52 1.76717e-16 -2.886
v  7.842 3.294 -6.43
v  20.584 3.294 9.171
v  16.26 4.87 12.712
v  3.52 4.87 -2.886

# 0 UV coordinates

# 19 vertex normals
vn -0.774325 0 0.632789
vn -0.774324 -3.87471e-17 0.632789
vn -3.76198e-24 -1 -6.12323e-17
vn 0 -1 -6.12323e-17
vn 3.7631e-24 -1 -6.12323e-17
vn 4.62065e-24 -1 -6.12323e-17
vn 0.774503 0 -0.63257
vn 0.633453 0 0.773781
vn 0.633453 0 0.773781
vn 0.633579 0 0.773678
vn 0.633579 0 0.773678
vn -0.210206 0.962469 0.17166
vn -0.210266 0.962442 0.171739
vn 0.2102 0.962465 -0.171686
vn 0.210191 0.96247 -0.171672
vn -0.634027 0 -0.773311
vn -0.634027 0 -0.773311
vn -0.634075 0 -0.773271
vn -0.634075 0 -0.773271

# Mesh 'defaultobject' with 20 faces
g defaultobject
usemtl DefaultMaterial
f  1//1 2//1 3//1
f  2//1 1//1 4//2
f  5//3 6//3 7//3
f  6//3 5//3 3//4
f  6//3 3//4 8//5
f  8//5 3//4 2//6
f  9//7 7//7 6//7
f  7//7 9//7 10//7
f  5//8 1//8 3//8
f  1//8 5//8 11//9
f  11//10 5//10 7//10
f  11//10 7//10 10//11
f  11//12 4//12 1//12
f  4//13 11//13 12//13
f  10//14 12//14 11//14
f  12//15 10//15 9//15
f  12//16 2//16 4//16
f  2//16 12//16 8//17
f  8//18 12//18 9//18
f  8//18 9//18 6//19

