# {"id":"DEB_LOD2_UUID_5118ad30-951c-4452-b964-c18aae3cd1a6","idOriginal":"DEB_LOD2_UUID_5118ad30-951c-4452-b964-c18aae3cd1a6","origin":[13.369880884995887,52.52902800281152],"elevation":33.91}
# Longitude: 13.369880884995887
# Latitude: 52.52902800281152
# Elevation: 33.91

# File produced by Open Asset Import Library (http://www.assimp.sf.net)
# (assimp v3.1.0)

mtllib DEB_LOD2_UUID_5118ad30-951c-4452-b964-c18aae3cd1a6.obj.mtl

# 22 vertex positions
v  34.474 5.294 95.204
v  33.055 -5.60631e-15 91.558
v  34.474 -5.82956e-15 95.204
v  33.055 5.294 91.558
v  33.681 5.481 86.467
v  11.179 6.406 -4.354
v  0 5.481 3.35614e-16
v  47.92 6.406 89.967
v  33.899 5.481 87.026
v  34.117 5.481 87.585
v  34.335 5.481 88.144
v  34.958 5.481 89.743
v  33.623 5.371 90.264
v  33.623 -5.52708e-15 90.264
v  11.179 2.66606e-16 -4.354
v  47.92 -5.50889e-15 89.967
v  0 0 0
v  33.681 -5.29458e-15 86.467
v  33.899 -5.32881e-15 87.026
v  34.117 -5.36303e-15 87.585
v  34.335 -5.39726e-15 88.144
v  34.958 -5.49517e-15 89.743

# 0 UV coordinates

# 36 vertex normals
vn -0.931909 0 0.362692
vn -0.0716321 0.997041 0.0279025
vn -0.0716285 0.997041 0.0279016
vn -0.0716372 0.997039 0.027937
vn -0.0716373 0.997039 0.0279377
vn -0.0716372 0.997039 0.0279371
vn -0.0716336 0.99704 0.0279098
vn -0.0716197 0.997067 0.0269965
vn -0.0715992 0.997043 0.0279008
vn -0.0716028 0.997044 0.0278673
vn -0.915669 -0 -0.401933
vn -1.395e-24 -1 -6.12323e-17
vn -9.12981e-24 -1 -6.12323e-17
vn -8.82746e-23 -1 -6.1232e-17
vn 8.55161e-23 -1 -6.12328e-17
vn 8.5516e-23 -1 -6.12328e-17
vn 3.68856e-23 -1 -6.12325e-17
vn 1.79457e-23 -1 -6.12314e-17
vn -6.49774e-24 -1 -6.12326e-17
vn 2.81317e-23 -1 -6.12322e-17
vn 0.362928 0 0.931817
vn 0.362928 -0 0.931817
vn -0.36356 -0 -0.931571
vn -0.36356 0 -0.931571
vn -0.931805 0 0.362961
vn -0.931805 -2.22249e-17 0.362961
vn -0.931775 0 0.363037
vn -0.362925 5.70574e-17 -0.931818
vn -0.362925 0 -0.931818
vn -0.931661 0 0.36333
vn -0.931659 6.47952e-07 0.363335
vn -0.931661 -6.52485e-07 0.36333
vn -0.93166 0 0.363332
vn 0 -1 0
vn 0 1 0
vn 0.931802 0 -0.362966

# Mesh 'defaultobject' with 40 faces
g defaultobject
usemtl DefaultMaterial
f  1//1 2//1 3//1
f  2//1 1//1 4//1
f  5//2 6//2 7//2
f  6//2 5//2 8//3
f  8//4 5//4 9//4
f  8//4 9//4 10//5
f  8//4 10//5 11//6
f  8//3 11//7 12//7
f  8//8 12//8 13//8
f  8//9 13//9 4//9
f  8//10 4//10 1//10
f  4//11 14//11 2//11
f  14//11 4//11 13//11
f  15//12 16//12 17//12
f  18//13 17//12 16//12
f  19//14 18//13 16//12
f  20//15 19//14 16//12
f  21//16 20//15 16//12
f  22//17 21//16 16//12
f  14//18 22//17 16//12
f  2//19 14//18 16//12
f  3//20 2//19 16//12
f  8//21 3//21 16//21
f  3//21 8//21 1//22
f  13//23 22//23 14//23
f  22//23 13//23 12//24
f  5//25 17//25 18//25
f  17//25 5//25 7//26
f  12//27 21//27 22//27
f  21//27 12//27 11//27
f  7//28 15//28 17//28
f  15//28 7//28 6//29
f  19//30 5//30 18//30
f  5//30 19//30 20//31
f  5//30 20//31 21//32
f  5//30 21//32 11//33
f  5//34 11//34 9//34
f  9//35 11//35 10//35
f  6//36 16//36 15//36
f  16//36 6//36 8//36

