# {"id":"DEB_LOD2_UUID_0ea39a6a-02aa-4c93-9561-74eaab3fc793","idOriginal":"DEB_LOD2_UUID_0ea39a6a-02aa-4c93-9561-74eaab3fc793","origin":[13.381059306211252,52.53626421993201],"elevation":36.27}
# Longitude: 13.381059306211252
# Latitude: 52.53626421993201
# Elevation: 36.27

# File produced by Open Asset Import Library (http://www.assimp.sf.net)
# (assimp v3.1.0)

mtllib DEB_LOD2_UUID_0ea39a6a-02aa-4c93-9561-74eaab3fc793.obj.mtl

# 8 vertex positions
v  0 3.66 2.2411e-16
v  5.701 1.35385e-16 -2.211
v  0 0 0
v  5.701 3.66 -2.211
v  7.712 3.66 19.835
v  7.712 -1.21454e-15 19.835
v  13.413 -1.07916e-15 17.624
v  13.413 3.66 17.624

# 0 UV coordinates

# 9 vertex normals
vn -0.361586 5.70893e-17 -0.932339
vn -0.361586 0 -0.932339
vn -0.93203 0 0.362381
vn -0.93203 -2.21894e-17 0.362381
vn 0 -1 -6.12323e-17
vn 8.13638e-24 -1 -6.12323e-17
vn 0 1 0
vn 0.361586 0 0.932339
vn 0.93203 0 -0.36238

# Mesh 'defaultobject' with 12 faces
g defaultobject
usemtl DefaultMaterial
f  1//1 2//1 3//1
f  2//1 1//1 4//2
f  5//3 3//3 6//3
f  3//3 5//3 1//4
f  2//5 6//5 3//5
f  6//5 2//5 7//6
f  5//7 4//7 1//7
f  4//7 5//7 8//7
f  8//8 6//8 7//8
f  6//8 8//8 5//8
f  4//9 7//9 2//9
f  7//9 4//9 8//9

