# {"id":"DEB_LOD2_UUID_f32b51dc-cd85-4ecb-b773-7e82f2286143","idOriginal":"DEB_LOD2_UUID_f32b51dc-cd85-4ecb-b773-7e82f2286143","origin":[13.316764800254148,52.52786196723516],"elevation":34.2}
# Longitude: 13.316764800254148
# Latitude: 52.52786196723516
# Elevation: 34.2

# File produced by Open Asset Import Library (http://www.assimp.sf.net)
# (assimp v3.1.0)

mtllib DEB_LOD2_UUID_f32b51dc-cd85-4ecb-b773-7e82f2286143.obj.mtl

# 12 vertex positions
v  0 8.402 5.14474e-16
v  2.159 4.01194e-16 -6.552
v  0 0 0
v  2.159 8.738 -6.552
v  50.663 8.738 10.216
v  48.409 8.402 16.735
v  41.913 8.738 7.191
v  26.86 8.738 1.987
v  48.409 -1.02472e-15 16.735
v  50.663 -6.2555e-16 10.216
v  26.86 -1.21669e-16 1.987
v  41.913 -4.40322e-16 7.191

# 0 UV coordinates

# 17 vertex normals
vn -0.949765 1.91635e-17 -0.312964
vn -0.949765 0 -0.312964
vn -0.0158967 0.998816 0.0459841
vn -0.0158958 0.998816 0.0459796
vn -0.0158959 0.998816 0.0459802
vn -0.0158961 0.998816 0.0459832
vn -0.326728 0 0.945119
vn -0.326728 -5.78718e-17 0.945119
vn 0.945102 0 0.326777
vn 0.945102 -0 0.326777
vn 0.326723 0 -0.94512
vn 0.326738 0 -0.945115
vn 0.326739 0 -0.945114
vn 0 -1 -6.12323e-17
vn -9.39668e-24 -1 -6.12323e-17
vn 7.71007e-24 -1 -6.12323e-17
vn -1.3264e-23 -1 -6.12323e-17

# Mesh 'defaultobject' with 20 faces
g defaultobject
usemtl DefaultMaterial
f  1//1 2//1 3//1
f  2//1 1//1 4//2
f  5//3 1//3 6//3
f  1//3 5//3 7//4
f  1//3 7//4 8//5
f  1//3 8//5 4//6
f  6//7 3//7 9//7
f  3//7 6//7 1//8
f  5//9 9//9 10//9
f  9//9 5//9 6//10
f  8//11 2//11 4//11
f  2//11 8//11 11//11
f  11//12 8//12 7//12
f  11//12 7//12 12//12
f  12//12 7//12 5//13
f  12//12 5//13 10//13
f  2//14 9//14 3//14
f  9//14 2//14 11//15
f  9//14 11//15 12//16
f  9//14 12//16 10//17

