# {"id":"DEB_LOD2_UUID_5471de0c-e83b-4fe7-be97-053c0667a49f","idOriginal":"DEB_LOD2_UUID_5471de0c-e83b-4fe7-be97-053c0667a49f","origin":[13.350124391238596,52.54640126738814],"elevation":36.077}
# Longitude: 13.350124391238596
# Latitude: 52.54640126738814
# Elevation: 36.077

# File produced by Open Asset Import Library (http://www.assimp.sf.net)
# (assimp v3.1.0)

mtllib DEB_LOD2_UUID_5471de0c-e83b-4fe7-be97-053c0667a49f.obj.mtl

# 154 vertex positions
v  17.43 16.95 -4.668
v  16.877 17.391 -5.234
v  14.795 16.933 -2.468
v  12.171 19.203 -5.603
v  34.618 19.203 -23.79
v  20.939 17.34 -8.416
v  23.64 17.378 -10.698
v  21.928 16.898 -8.201
v  23.549 16.903 -9.53
v  35.52 17.39 -20.374
v  36.072 16.917 -19.733
v  37.144 16.931 -20.638
v  14.753 16.932 -2.432
v  10.486 19.203 -4.237
v  35.52 1.24755e-15 -20.374
v  36.072 1.2083e-15 -19.733
v  48.362 18.701 -31.565
v  45.613 1.8025e-15 -29.437
v  48.362 1.9328e-15 -31.565
v  45.613 18.773 -29.437
v  16.877 3.2049e-16 -5.234
v  20.939 5.15331e-16 -8.416
v  56.185 21.763 -36.028
v  55.045 20.378 -44.604
v  51.571 21.763 -41.786
v  56.979 19.609 -46.168
v  61.583 19.609 -40.423
v  61.58 21.763 -29.296
v  64.603 19.609 -36.655
v  66.98 19.609 -33.689
v  66.484 19.609 -34.308
v  21.928 5.02166e-16 -8.201
v  23.549 5.83544e-16 -9.53
v  37.28 21.027 -25.948
v  37.28 20.553 -25.948
v  38.032 19.96 -25.009
v  35.213 20.553 -28.527
v  35.213 21.998 -28.527
v  2.033 -1.59878e-16 2.611
v  0 16.915 1.03575e-15
v  0 0 0
v  2.033 16.915 2.611
v  4.63 -3.64149e-16 5.947
v  4.63 16.915 5.947
v  8.176 -6.43001e-16 10.501
v  8.176 16.915 10.501
v  9.099 -7.15561e-16 11.686
v  9.099 16.915 11.686
v  4.154 19.203 0.893
v  8.453 19.203 -6.849
v  2.121 19.203 -1.718
v  6.747 19.203 4.223
v  10.293 19.203 8.777
v  13.067 19.203 -0.922
v  16.613 19.203 3.632
v  10.047 19.203 -8.14
v  15.415 19.203 -12.49
v  32.548 19.203 -26.373
v  18.363 16.96 1.929
v  14.797 16.96 -2.331
v  14.753 1.48917e-16 -2.432
v  14.729 16.964 -2.412
v  14.729 1.47692e-16 -2.412
v  14.795 1.51121e-16 -2.468
v  17.43 2.85833e-16 -4.668
v  14.797 1.42733e-16 -2.331
v  18.363 -1.18117e-16 1.929
v  18.501 16.953 2.094
v  18.501 -1.28221e-16 2.094
v  19.437 16.953 3.212
v  19.437 -1.96678e-16 3.212
v  56.979 2.82697e-15 -46.168
v  61.583 2.4752e-15 -40.423
v  64.603 2.24447e-15 -36.655
v  66.484 2.10076e-15 -34.308
v  66.98 2.06286e-15 -33.689
v  11.21 16.953 9.955
v  9.122 16.939 11.667
v  17.514 16.994 4.788
v  19.393 17.006 3.248
v  47.91 1.95809e-15 -31.978
v  48.077 19.231 -32.102
v  47.91 19.239 -31.978
v  49.499 20.175 -33.159
v  48.077 20.197 -32.102
v  49.965 20.168 -33.505
v  49.965 2.05159e-15 -33.505
v  48.077 1.96568e-15 -32.102
v  49.499 2.0304e-15 -33.159
v  9.122 -7.14398e-16 11.667
v  11.21 -6.09568e-16 9.955
v  17.514 -2.9318e-16 4.788
v  19.393 -1.98883e-16 3.248
v  39.279 18.195 -23.453
v  39.279 18.978 -23.453
v  51.534 21.748 -41.756
v  49.157 2.43876e-15 -39.828
v  49.157 21.748 -39.828
v  51.534 2.55682e-15 -41.756
v  51.571 2.55865e-15 -41.786
v  55.045 2.73121e-15 -44.604
v  33.822 20.553 -27.399
v  35.213 1.74677e-15 -28.527
v  33.822 1.6777e-15 -27.399
v  37.868 1.87855e-15 -30.679
v  37.868 21.998 -30.679
v  44.749 2.22004e-15 -36.256
v  44.749 21.748 -36.256
v  44.749 21.999 -36.256
v  46.124 2.28825e-15 -37.37
v  47.216 2.34244e-15 -38.255
v  46.124 21.748 -37.37
v  47.216 21.748 -38.255
v  34.618 20.553 -23.79
v  32.548 20.553 -26.373
v  37.144 18.565 -20.638
v  46.817 20.785 -33.675
v  47.066 20.666 -33.364
v  50.817 19.783 -32.497
v  37.144 1.26371e-15 -20.638
v  37.409 1.27737e-15 -20.861
v  37.409 18.568 -20.861
v  46.817 21.027 -33.675
v  32.548 1.61488e-15 -26.373
v  46.013 1.77255e-15 -28.948
v  39.279 1.43608e-15 -23.453
v  46.013 18.212 -28.948
v  36.858 18.975 -21.478
v  36.858 1.31515e-15 -21.478
v  2.121 1.05197e-16 -1.718
v  8.453 4.1938e-16 -6.849
v  10.047 4.98431e-16 -8.14
v  15.415 7.64792e-16 -12.49
v  51.431 19.606 -30.818
v  51.919 1.91002e-15 -31.193
v  51.431 1.88706e-15 -30.818
v  51.919 19.797 -31.193
v  53.658 19.593 -27.97
v  53.658 1.71267e-15 -27.97
v  56.073 1.58941e-15 -25.957
v  54.269 19.797 -28.26
v  54.269 1.73043e-15 -28.26
v  56.63 1.54587e-15 -25.246
v  56.073 19.787 -25.957
v  56.63 19.784 -25.246
v  54.123 19.798 -28.447
v  54.123 1.74188e-15 -28.447
v  51.237 1.95943e-15 -32
v  50.817 1.98987e-15 -32.497
v  23.64 6.55064e-16 -10.698
v  61.58 1.79386e-15 -29.296
v  56.82 1.55683e-15 -25.425
v  51.237 19.788 -32
v  56.82 19.864 -25.425

# 0 UV coordinates

# 254 vertex normals
vn 0.309569 0.872721 0.377524
vn 0.306611 0.873373 0.378429
vn 0.307145 0.874255 0.375952
vn 0.309138 0.871509 0.380664
vn 0.309823 0.871026 0.381214
vn 0.307737 0.872827 0.378776
vn 0.307955 0.872696 0.3789
vn 0.309284 0.871392 0.380814
vn 0.302771 0.872636 0.383193
vn 0.309558 0.871578 0.380165
vn 0.305747 0.87423 0.377148
vn 0.303791 0.874224 0.378738
vn -0.757754 0 0.65254
vn -0.757754 0 0.65254
vn 0.612127 0 0.79076
vn 0.612127 -0 0.79076
vn 0.616674 0 0.787218
vn 0.616674 -0 0.787219
vn 0.23081 0.955259 -0.184953
vn 0.230345 0.955379 -0.184911
vn 0.230684 0.955305 -0.184868
vn 0.230684 0.955305 -0.184869
vn 0.230659 0.955311 -0.18487
vn 0.230672 0.955309 -0.184865
vn 0 1 0
vn 0.634017 0 0.773319
vn 0.634017 -0 0.773319
vn -0.780543 0 0.625102
vn -0.780308 0 0.625395
vn -0.780308 0 0.625395
vn -0.789027 0 0.614359
vn -0.789085 0 0.614284
vn -0.789016 0 0.614372
vn -0.788922 0 0.614494
vn 0.543666 0.705205 -0.455097
vn 0.640181 0 0.768224
vn 0.640181 0 0.768224
vn 0.650793 0 0.759255
vn 0.650793 0 0.759255
vn 0.6409 0 0.767624
vn 0.765891 0 -0.64297
vn 0.766803 0 -0.641883
vn 0.76708 0 -0.641551
vn 0.766757 0 -0.641937
vn 0.780338 0 -0.625357
vn 0.780303 0 -0.625401
vn 0.780316 0 -0.625385
vn 0.780375 0 -0.625312
vn 0.52615 0.552771 0.646227
vn 0.526106 0.552772 0.646263
vn 0.526105 0.552781 0.646256
vn 0.526121 0.552781 0.646243
vn 0.596149 -0 0.802874
vn 0.596562 -0 0.802567
vn 0.596144 0.00097794 0.802877
vn 0.596457 0 0.802645
vn 0.596432 -3.81096e-06 0.802664
vn 2.11605e-19 1 6.15066e-17
vn -5.07227e-19 -1 -6.19179e-17
vn 0.535522 0.734396 -0.416988
vn 0.535439 0.734648 -0.416651
vn 0.715274 0 -0.698844
vn 0.636886 0 0.770958
vn 0.636886 0 0.770958
vn 0.634044 0 0.773297
vn 0.634044 0 0.773297
vn 0.633912 0 0.773405
vn 0.633912 0 0.773405
vn 0.633888 0 0.773425
vn 0.633233 0 0.773962
vn 0.633232 0 0.773962
vn 0.780331 0 -0.625367
vn -0.506929 0.766307 0.39471
vn -0.50693 0.766307 0.39471
vn -0.506917 0.766307 0.394726
vn -0.50691 0.766368 0.394618
vn -0.506865 0.766369 0.394674
vn -0.506865 0.766369 0.394673
vn -0.506485 0.766375 0.395149
vn -0.494617 0.779057 0.385259
vn -0.629941 0 -0.776643
vn -0.629795 -2.69728e-05 -0.776762
vn -0.629969 5.46936e-06 -0.776621
vn -0.629941 -7.73716e-06 -0.776643
vn -0.629799 -4.81891e-05 -0.776758
vn -0.62997 0 -0.77662
vn -0.629856 -0 -0.776712
vn -0.629678 0 -0.776856
vn -0.629678 0 -0.776856
vn -0.629678 0 -0.776856
vn -0.629653 0 -0.776877
vn -0.629653 0 -0.776877
vn -0.629506 0 -0.776995
vn -0.629629 -1.28456e-05 -0.776896
vn -0.629506 1.02092e-05 -0.776995
vn -0.629612 1.44365e-06 -0.77691
vn -0.629629 -2.5738e-06 -0.776896
vn -0.629612 0 -0.77691
vn -0.780338 0 0.625358
vn -0.780337 0 0.625359
vn 0.17599 0.960126 0.217223
vn 0.176038 0.960119 0.217212
vn 0.17603 0.960121 0.217212
vn 0.183465 0.958154 0.219732
vn 0.174428 0.960419 0.217188
vn 0.17644 0.960006 0.217386
vn 0.176331 0.960024 0.217396
vn 0.175754 0.960155 0.217283
vn 0.176578 0.959977 0.217406
vn 0.645079 0 0.764116
vn 0.645079 0 0.764116
vn 0.643869 0 0.765136
vn 0.643869 -0 0.765136
vn 0.559477 0.705151 -0.435599
vn 0.559406 0.705726 -0.43476
vn 0.56015 0.69846 -0.445405
vn -0.780446 0 0.625223
vn 0.780397 0 -0.625285
vn 0.780397 0 -0.625285
vn 0.780624 0 -0.625001
vn -0.628804 -0 -0.777564
vn -0.628804 0 -0.777564
vn -0.627227 -0 -0.778836
vn -0.627227 0 -0.778836
vn 0.632229 0 0.774782
vn 0.632122 0 0.774869
vn 0.632122 0 0.774869
vn 0.774027 0 -0.633153
vn 0.774027 0 -0.633153
vn -0.62942 4.75816e-17 -0.777066
vn -0.62942 0 -0.777066
vn -0.629576 0 -0.776939
vn -0.629381 0 -0.777097
vn -0.629589 -2.87047e-05 -0.776928
vn -0.629381 9.66515e-05 -0.777097
vn -0.629589 0 -0.776928
vn -0.629566 0 -0.776947
vn -0.609319 -0 -0.792925
vn -0.787756 0 0.615988
vn -0.787756 0 0.615987
vn -0.787231 0 0.616659
vn -0.787202 6.90696e-06 0.616695
vn -0.787231 -2.13386e-06 0.616659
vn -0.787202 0 0.616695
vn 0.716057 0 0.698042
vn 0.716057 -0 0.698042
vn 1.00335e-22 -1 -6.12324e-17
vn -1.24446e-21 -1 -6.12315e-17
vn 1.47371e-21 -1 -6.12333e-17
vn -1.02609e-22 -1 -6.12323e-17
vn 4.49634e-23 -1 -6.12324e-17
vn -1.52518e-22 -1 -6.12322e-17
vn 1.67235e-22 -1 -6.12321e-17
vn 1.94405e-23 -1 -6.12323e-17
vn -9.64126e-23 -1 -6.12324e-17
vn 0 -1 -6.12323e-17
vn 3.1272e-23 -1 -6.12323e-17
vn 2.72399e-23 -1 -6.12323e-17
vn 4.32492e-22 -1 -6.12326e-17
vn 1.54881e-23 -1 -6.12323e-17
vn -1.38104e-22 -1 -6.12323e-17
vn -1.31748e-22 -1 -6.12323e-17
vn -1.69364e-23 -1 -6.12324e-17
vn 7.30755e-25 -1 -6.12323e-17
vn -1.35466e-24 -1 -6.12323e-17
vn 6.78354e-24 -1 -6.12324e-17
vn 1.16442e-23 -1 -6.12324e-17
vn -6.2052e-24 -1 -6.12323e-17
vn 4.67355e-24 -1 -6.12323e-17
vn 4.245e-24 -1 -6.12323e-17
vn -2.0217e-22 -1 -6.12322e-17
vn 1.36007e-22 -1 -6.12324e-17
vn -2.04578e-22 -1 -6.12322e-17
vn 0 -1 -6.12323e-17
vn 5.57e-23 -1 -6.12323e-17
vn -1.53315e-23 -1 -6.12323e-17
vn 7.18837e-24 -1 -6.12323e-17
vn -3.48919e-24 -1 -6.12323e-17
vn -2.65138e-24 -1 -6.12323e-17
vn -5.47862e-22 -1 -6.12321e-17
vn 2.58055e-23 -1 -6.12323e-17
vn -1.34415e-23 -1 -6.12323e-17
vn -4.58908e-24 -1 -6.12323e-17
vn 2.93111e-24 -1 -6.12323e-17
vn -4.15422e-23 -1 -6.12324e-17
vn 1.15537e-23 -1 -6.12324e-17
vn -3.83513e-23 -1 -6.12324e-17
vn 0 -1 -6.12323e-17
vn -5.03964e-23 -1 -6.12323e-17
vn 4.1322e-23 -1 -6.12323e-17
vn -3.45607e-23 -1 -6.12323e-17
vn 4.31442e-24 -1 -6.12323e-17
vn 3.25192e-23 -1 -6.12323e-17
vn 2.3076e-21 -1 -6.12331e-17
vn -9.34254e-23 -1 -6.12323e-17
vn 5.84269e-22 -1 -6.12326e-17
vn 3.49215e-23 -1 -6.12324e-17
vn 1.01115e-21 -1 -6.12328e-17
vn -1.45116e-22 -1 -6.12323e-17
vn -1.57633e-22 -1 -6.12322e-17
vn 0.177449 0.95945 0.219015
vn 0.177371 0.959507 0.218828
vn 0.177461 0.959422 0.219127
vn 0.520221 0.734446 -0.435844
vn 0.522876 0.731416 -0.437757
vn -0.763797 -1.28174e-06 0.645457
vn -0.763781 0 0.645475
vn -0.76373 0 0.645535
vn -0.763797 -6.71292e-06 0.645457
vn -0.763781 -4.36353e-06 0.645475
vn -0.763729 7.76056e-06 0.645537
vn 0.631516 0 0.775363
vn 0.631516 -0 0.775363
vn 0.418661 0.747739 0.515373
vn 0.417723 0.748126 0.515572
vn 0.417144 0.748796 0.515068
vn 0.419626 0.746571 0.516281
vn 0.419669 0.746547 0.516281
vn 0.418699 0.747567 0.515591
vn 0.503966 0.736427 0.451325
vn 0.418425 0.747942 0.51527
vn 0.630936 0 0.775835
vn 0.630936 0 0.775835
vn 0.631068 0 0.775727
vn 0.631068 0 0.775727
vn 0.745874 0 -0.666087
vn 0.745874 0 -0.666087
vn -0.231403 0.955047 0.185306
vn -0.231136 0.955138 0.185167
vn -0.237507 0.953795 0.184028
vn -0.230738 0.955287 0.184895
vn -0.230531 0.955277 0.185205
vn -0.230757 0.955277 0.184927
vn -0.230607 0.955447 0.184231
vn -0.230694 0.955314 0.184813
vn -0.230638 0.955257 0.185176
vn -0.230696 0.955305 0.184858
vn -0.230429 0.955286 0.185287
vn -0.229373 0.955841 0.183725
vn 0.674541 0 -0.738238
vn 0.674541 0 -0.738238
vn 0.685724 0 0.727862
vn 0.685724 -0 0.727862
vn -0.21243 0 0.977176
vn -0.21243 0 0.977176
vn -0.788217 0 0.615398
vn -0.788217 0 0.615398
vn 0.278335 0.897217 0.342828
vn 0.270637 0.896839 0.349906
vn 0.278418 0.897258 0.342654
vn 0.278335 0.89711 0.343109
vn 0.278432 0.896946 0.343459
vn 0.996979 0 0.0776752
vn 0.996979 -0 0.0776752

# Mesh 'defaultobject' with 304 faces
g defaultobject
usemtl DefaultMaterial
f  1//1 2//1 3//1
f  4//2 2//2 5//2
f  2//3 4//3 3//3
f  5//4 2//4 6//4
f  5//5 6//5 7//5
f  7//6 6//6 8//6
f  7//7 8//7 9//7
f  5//8 7//8 10//8
f  5//9 10//9 11//9
f  5//10 11//10 12//10
f  13//11 4//11 14//11
f  4//12 13//12 3//12
f  11//13 15//13 16//13
f  15//13 11//13 10//14
f  17//15 18//15 19//15
f  18//15 17//15 20//16
f  6//17 21//17 22//17
f  21//17 6//17 2//18
f  23//19 24//19 25//19
f  24//20 23//20 26//20
f  26//21 23//21 27//21
f  27//21 23//21 28//22
f  27//23 28//23 29//23
f  29//24 28//24 30//24
f  29//25 30//25 31//25
f  9//26 32//26 33//26
f  32//26 9//26 8//27
f  34//28 35//28 36//28
f  35//29 34//29 37//29
f  37//29 34//29 38//30
f  39//31 40//31 41//31
f  40//31 39//31 42//31
f  42//32 39//32 43//32
f  42//32 43//32 44//32
f  44//33 43//33 45//33
f  44//33 45//33 46//33
f  46//34 45//34 47//34
f  46//34 47//34 48//34
f  49//25 50//25 51//25
f  50//25 49//25 52//25
f  50//25 52//25 53//25
f  50//25 53//25 14//25
f  14//25 53//25 54//25
f  54//25 53//25 55//25
f  14//25 56//25 50//25
f  56//25 14//25 4//25
f  56//25 4//25 57//25
f  57//25 4//25 5//25
f  57//25 5//25 58//25
f  54//35 59//35 60//35
f  61//36 62//36 63//36
f  62//36 61//36 13//37
f  13//38 61//38 64//38
f  13//38 64//38 3//39
f  3//40 64//40 65//40
f  3//40 65//40 1//40
f  60//41 63//41 62//41
f  63//41 60//41 66//41
f  66//42 60//42 59//42
f  66//42 59//42 67//42
f  67//43 59//43 68//43
f  67//43 68//43 69//43
f  69//44 68//44 70//44
f  69//44 70//44 71//44
f  27//45 72//45 26//45
f  72//45 27//45 73//45
f  73//46 27//46 29//46
f  73//46 29//46 74//46
f  74//47 29//47 31//47
f  74//47 31//47 75//47
f  75//48 31//48 30//48
f  75//48 30//48 76//48
f  77//49 53//49 78//49
f  53//50 77//50 79//50
f  53//51 79//51 55//51
f  55//52 79//52 80//52
f  81//53 82//53 83//53
f  82//54 84//54 85//54
f  84//55 82//55 86//55
f  86//56 82//56 87//56
f  87//57 82//57 81//57
f  87//58 81//58 88//58
f  87//59 88//59 89//59
f  68//60 54//60 55//60
f  54//61 68//61 59//61
f  2//62 65//62 21//62
f  65//62 2//62 1//62
f  90//63 48//63 47//63
f  48//63 90//63 78//64
f  78//65 90//65 91//65
f  78//65 91//65 77//66
f  77//67 91//67 92//67
f  77//67 92//67 79//68
f  79//69 92//69 93//69
f  79//69 93//69 80//69
f  80//70 93//70 71//70
f  80//70 71//70 70//71
f  94//72 36//72 95//72
f  40//73 49//73 51//73
f  49//73 40//73 42//74
f  49//75 42//75 52//75
f  52//76 42//76 44//76
f  52//77 44//77 53//77
f  53//77 44//77 46//78
f  53//79 46//79 78//79
f  78//80 46//80 48//80
f  96//81 97//81 98//81
f  97//82 96//82 25//82
f  97//83 25//83 24//83
f  97//81 24//84 99//84
f  99//85 24//85 100//85
f  100//86 24//83 101//86
f  102//87 103//87 104//87
f  103//87 102//87 37//87
f  103//88 37//88 105//88
f  105//88 37//88 38//89
f  105//88 38//89 106//90
f  105//91 106//91 107//91
f  107//91 106//91 108//92
f  108//92 106//91 109//91
f  107//93 108//93 110//93
f  108//94 111//94 110//94
f  111//95 108//95 112//95
f  111//96 112//96 97//96
f  97//97 112//97 113//97
f  97//96 113//98 98//98
f  58//99 114//99 115//99
f  114//99 58//99 5//99
f  114//99 5//99 116//100
f  116//100 5//99 12//100
f  117//101 112//101 108//101
f  112//102 117//102 113//102
f  113//102 117//102 98//103
f  98//104 117//104 118//104
f  98//105 118//105 85//105
f  98//106 85//106 84//106
f  98//107 84//107 96//107
f  96//108 84//108 86//108
f  96//109 86//109 119//109
f  120//110 11//110 16//110
f  11//110 120//110 12//111
f  12//112 120//112 121//112
f  12//112 121//112 116//113
f  116//113 121//112 122//113
f  60//114 14//114 54//114
f  14//115 60//115 62//115
f  13//116 14//116 62//116
f  118//117 82//117 85//117
f  123//118 108//118 109//118
f  108//118 123//118 117//119
f  117//120 123//120 118//120
f  24//121 72//121 101//121
f  72//121 24//121 26//122
f  58//123 104//123 124//123
f  104//123 58//123 102//123
f  102//123 58//123 115//124
f  125//125 94//125 126//125
f  94//125 125//125 127//125
f  126//126 128//126 129//126
f  128//126 126//126 95//127
f  95//72 126//126 94//125
f  20//128 125//128 18//128
f  125//128 20//128 127//129
f  40//130 130//130 41//130
f  130//130 40//130 51//131
f  130//132 51//132 131//132
f  131//132 51//132 50//132
f  131//133 50//133 132//133
f  132//134 50//134 133//134
f  133//135 50//135 56//135
f  133//136 56//136 57//136
f  133//137 57//137 124//137
f  124//137 57//137 58//137
f  134//138 135//138 136//138
f  135//138 134//138 137//138
f  138//139 136//139 139//139
f  136//139 138//139 134//140
f  140//141 141//141 142//141
f  141//142 140//142 143//142
f  141//141 143//143 144//143
f  144//144 143//142 145//144
f  146//145 139//145 147//145
f  139//145 146//145 138//146
f  97//147 135//147 111//147
f  148//148 111//147 135//147
f  149//149 111//147 148//148
f  87//59 111//147 149//149
f  89//59 111//147 87//59
f  88//59 111//147 89//59
f  110//150 111//147 88//59
f  107//151 110//150 88//59
f  81//152 107//151 88//59
f  19//153 18//153 81//152
f  107//151 81//152 18//153
f  105//154 107//151 18//153
f  125//155 126//155 18//153
f  105//154 18//153 126//155
f  103//156 105//154 126//155
f  129//157 103//156 126//155
f  104//158 103//156 129//157
f  120//159 104//158 129//157
f  16//160 104//158 120//159
f  124//161 104//158 16//160
f  15//162 124//161 16//160
f  150//163 124//161 15//162
f  133//164 124//161 150//163
f  33//165 133//164 150//163
f  32//166 133//164 33//165
f  22//167 133//164 32//166
f  21//168 133//164 22//167
f  132//169 133//164 21//168
f  64//170 132//169 21//168
f  61//171 132//169 64//170
f  63//172 132//169 61//171
f  71//173 93//173 69//173
f  92//174 69//173 93//173
f  67//175 69//173 92//174
f  66//176 67//175 92//174
f  91//177 66//176 92//174
f  63//172 66//176 91//177
f  132//169 63//172 91//177
f  131//178 132//169 91//177
f  130//174 131//178 91//177
f  90//179 130//174 91//177
f  47//180 130//174 90//179
f  45//181 130//174 47//180
f  43//182 130//174 45//181
f  39//183 130//174 43//182
f  41//184 130//174 39//183
f  21//168 65//185 64//170
f  129//157 121//186 120//159
f  76//187 151//187 75//187
f  74//188 75//187 151//187
f  73//189 74//188 151//187
f  72//190 73//189 151//187
f  101//191 72//190 151//187
f  152//192 101//191 151//187
f  100//193 101//191 152//192
f  99//194 100//193 152//192
f  97//147 99//194 152//192
f  143//195 97//147 152//192
f  140//196 97//147 143//195
f  142//197 97//147 140//196
f  147//198 97//147 142//197
f  139//199 97//147 147//198
f  135//147 97//147 139//199
f  136//200 135//147 139//199
f  123//201 38//201 34//201
f  38//202 123//202 106//202
f  106//203 123//203 109//203
f  80//204 68//204 55//204
f  68//205 80//205 70//205
f  135//206 153//206 119//206
f  153//207 135//207 137//207
f  149//208 86//208 87//208
f  86//209 149//209 148//209
f  86//210 148//210 135//207
f  86//208 135//211 119//211
f  10//212 150//212 15//212
f  150//212 10//212 7//213
f  127//214 20//214 94//214
f  36//215 123//215 34//215
f  123//216 36//216 94//216
f  123//217 94//217 20//217
f  123//218 20//218 83//218
f  83//219 20//219 17//219
f  123//220 83//220 118//220
f  82//221 118//221 83//221
f  151//222 154//222 152//222
f  154//222 151//222 28//223
f  28//224 151//224 76//224
f  28//224 76//224 30//225
f  128//226 121//226 129//226
f  121//226 128//226 122//227
f  138//228 137//228 134//228
f  137//229 138//229 146//229
f  119//230 25//230 96//230
f  25//231 119//231 23//231
f  23//232 119//232 153//232
f  23//233 153//233 28//233
f  28//234 153//234 137//234
f  28//235 137//235 146//235
f  28//236 146//236 141//236
f  28//237 141//237 144//237
f  28//238 144//238 154//238
f  154//239 144//239 145//239
f  83//240 19//240 81//240
f  19//240 83//240 17//241
f  154//242 143//242 152//242
f  143//242 154//242 145//243
f  8//244 22//244 32//244
f  22//244 8//244 6//245
f  141//246 147//246 142//246
f  147//246 141//246 146//247
f  116//248 122//248 114//248
f  128//249 114//249 122//249
f  95//250 114//250 128//250
f  36//251 114//251 95//251
f  35//252 114//252 36//252
f  7//253 33//253 150//253
f  33//253 7//253 9//254
f  35//25 115//25 114//25
f  115//25 35//25 102//25
f  102//25 35//25 37//25

