# {"id":"DEB_LOD2_UUID_c0bbd841-cd1a-4da3-9876-52431d517a2f","idOriginal":"DEB_LOD2_UUID_c0bbd841-cd1a-4da3-9876-52431d517a2f","origin":[13.396278371570716,52.52684774488161],"elevation":35.5}
# Longitude: 13.396278371570716
# Latitude: 52.52684774488161
# Elevation: 35.5

# File produced by Open Asset Import Library (http://www.assimp.sf.net)
# (assimp v3.1.0)

mtllib DEB_LOD2_UUID_c0bbd841-cd1a-4da3-9876-52431d517a2f.obj.mtl

# 78 vertex positions
v  9.089 15.857 20.381
v  9.448 -1.3822e-15 22.573
v  9.089 -1.24798e-15 20.381
v  9.448 15.933 22.573
v  14.838 18.71 5.07
v  13.072 14.87 -3.612
v  13.71 18.71 -0.477
v  14.969 18.128 5.714
v  15.603 15.313 8.83
v  13.072 2.21171e-16 -3.612
v  14.838 -3.10448e-16 5.07
v  14.969 -3.49882e-16 5.714
v  15.603 -5.40682e-16 8.83
v  13.71 2.92078e-17 -0.477
v  6.716 20.139 28.675
v  5.586 -1.4607e-15 23.855
v  6.716 -1.75584e-15 28.675
v  5.586 19.53 23.855
v  2.012 18.692 8.593
v  6.914 18.71 7.223
v  2.004 18.71 8.558
v  7.526 16.933 10.621
v  7.554 16.866 10.748
v  7.672 16.929 10.588
v  0.728 18.71 3.11
v  5.68 18.71 1.742
v  18.18 19.537 21.069
v  19.147 -1.56332e-15 25.531
v  18.18 -1.2901e-15 21.069
v  19.147 20.125 25.531
v  7.672 15.336 10.588
v  9.873 15.701 22.639
v  5.499 18.282 23.484
v  5.521 18.282 23.577
v  8.098 15.505 13.225
v  9.582 15.527 19.986
v  4.977 14.87 -1.375
v  0 0 0
v  0 14.87 9.10525e-16
v  4.977 8.41945e-17 -1.375
v  3.32 -8.68091e-16 14.177
v  3.271 18.282 13.968
v  3.271 -8.55293e-16 13.968
v  3.32 18.282 14.177
v  5.499 -1.43798e-15 23.484
v  5.521 -1.44367e-15 23.577
v  5.521 19.495 23.577
v  0.728 -1.90433e-16 3.11
v  2.004 -5.24026e-16 8.558
v  2.012 -5.2617e-16 8.593
v  2.79 -7.29461e-16 11.913
v  2.79 18.692 11.913
v  3.271 18.69 13.968
v  10.925 19.82 25.027
v  10.588 19.525 22.75
v  10.406 19.529 22.722
v  11.476 20.129 27.471
v  14.444 20.136 26.721
v  15.244 -5.4558e-16 8.91
v  7.672 -6.48328e-16 10.588
v  15.244 15.328 8.91
v  7.526 -6.50349e-16 10.621
v  10.588 -1.39304e-15 22.75
v  9.873 19.504 22.639
v  8.998 20.134 28.098
v  8.028 16.872 12.908
v  8.028 15.503 12.908
v  7.576 16.866 10.847
v  14.444 -1.63619e-15 26.721
v  11.476 -1.68211e-15 27.471
v  8.998 -1.72051e-15 28.098
v  10.406 -1.39132e-15 22.722
v  9.873 -1.38624e-15 22.639
v  9.582 -1.22379e-15 19.986
v  8.098 -8.09798e-16 13.225
v  8.028 -7.90387e-16 12.908
v  7.576 -6.64187e-16 10.847
v  7.554 -6.58125e-16 10.748

# 0 UV coordinates

# 133 vertex normals
vn 0.986852 0 -0.161624
vn 0.979944 -0.00012456 -0.199275
vn 0.979933 4.47035e-06 -0.199329
vn 0.97993 4.3897e-05 -0.199343
vn 0.97993 0 -0.199341
vn 0.979933 -1.15282e-05 -0.199328
vn 0.979932 -1.00303e-05 -0.199333
vn 0.979922 0 -0.199381
vn 3.90992e-20 1 6.12294e-17
vn -0.973602 0 0.228251
vn -0.973602 0 0.228251
vn 0.117663 0.8938 0.432755
vn 0.120519 0.888432 0.442903
vn 0.120865 0.888726 0.442218
vn 0.124273 0.888289 0.442152
vn 0 1 0
vn 0.977313 0 -0.211802
vn 0.977313 0 -0.211802
vn 0.975555 0 -0.219754
vn 0.488157 0.865083 -0.115477
vn 0.489321 0.865173 -0.109727
vn 0.489112 0.865219 -0.110295
vn 0.489231 0.865174 -0.110122
vn 0.490244 0.864563 -0.110419
vn -0.266295 0 -0.963892
vn -0.26636 0 -0.963874
vn -0.9736 0 0.228261
vn -0.97367 0 0.22796
vn -0.973143 0 0.230203
vn -0.973738 0 0.227673
vn -0.973738 0 0.227673
vn -0.973738 0 0.227673
vn -0.973679 0 0.227922
vn -0.973679 0 0.227922
vn -0.973651 0 0.228043
vn -0.974859 0 0.222824
vn -0.974859 0 0.222824
vn -0.973624 0 0.228157
vn -0.973684 0 0.227904
vn -0.973684 0 0.227904
vn 0.0424556 0.989998 -0.134544
vn -0.029067 0.991832 -0.124196
vn -0.0264852 0.99248 -0.11951
vn -0.0346735 0.991173 -0.127964
vn -0.0291526 0.991806 -0.124382
vn -0.204782 0.639187 -0.741285
vn -0.204792 0.639198 -0.741274
vn -0.204839 0.639197 -0.741262
vn -0.204842 0.639201 -0.741257
vn 0.216357 0 0.976314
vn 0.217506 0 0.976059
vn 0.217506 0 0.976059
vn 0.220466 0 0.975395
vn 0.220466 0 0.975395
vn -0.216181 -0 -0.976353
vn -0.216181 0 -0.976353
vn -0.0275954 0.992569 -0.118511
vn -0.0277081 0.992519 -0.118907
vn -0.0280107 0.992492 -0.119063
vn -0.027928 0.9925 -0.119012
vn -0.0279136 0.992502 -0.118996
vn -0.0281417 0.992479 -0.119137
vn 0.173981 0.748006 0.640483
vn 0.174021 0.748068 0.640399
vn 0.174038 0.747947 0.640536
vn -0.210695 0 -0.977552
vn -0.210695 0 -0.977552
vn 0.217495 0 0.976061
vn 0.217495 -0 0.976061
vn 0.339732 0.937147 -0.0796118
vn 0.339963 0.937143 -0.0786612
vn 0.340826 0.936935 -0.0773952
vn 0.698173 0.698915 -0.155152
vn 8.37064e-24 -1 -6.12323e-17
vn 3.03093e-23 -1 -6.12323e-17
vn 7.26396e-23 -1 -6.12323e-17
vn -1.97128e-23 -1 -6.12324e-17
vn 1.51359e-23 -1 -6.12323e-17
vn -1.98328e-23 -1 -6.12324e-17
vn -3.57625e-22 -1 -6.12339e-17
vn 1.12466e-22 -1 -6.12319e-17
vn -1.15843e-22 -1 -6.12327e-17
vn -1.48278e-24 -1 -6.12323e-17
vn 2.64776e-22 -1 -6.12321e-17
vn 2.63291e-22 -1 -6.12322e-17
vn 2.37199e-23 -1 -6.12323e-17
vn -1.04147e-22 -1 -6.12322e-17
vn 1.88415e-23 -1 -6.12324e-17
vn 6.48659e-23 -1 -6.12321e-17
vn 7.72707e-24 -1 -6.12323e-17
vn -4.02325e-22 -1 -6.12329e-17
vn 8.95288e-24 -1 -6.12323e-17
vn 1.08956e-22 -1 -6.12319e-17
vn -1.15454e-22 -1 -6.12328e-17
vn 1.1658e-23 -1 -6.12323e-17
vn -3.36402e-23 -1 -6.12324e-17
vn 2.84052e-24 -1 -6.12323e-17
vn 0 -1 -6.12324e-17
vn 0 -1 -6.12321e-17
vn 2.81208e-24 -1 -6.12323e-17
vn 0 -1 -6.12323e-17
vn 0 -1 -6.12323e-17
vn 5.65902e-23 -1 -6.12323e-17
vn -4.29328e-24 -1 -6.12323e-17
vn 0.482284 0.868687 -0.113072
vn 0.482322 0.868685 -0.112924
vn 0.483911 0.867878 -0.112332
vn 0.976548 0 -0.215301
vn 0.976186 1.28909e-05 -0.216933
vn 0.976786 -2.52501e-05 -0.21422
vn 0.976746 0 -0.214397
vn 0.976476 0.000189951 -0.215626
vn 0.976748 -2.75213e-05 -0.21439
vn 0.976548 0.000548306 -0.215301
vn 0.976185 0.00156664 -0.216933
vn 0.976785 -0.000108054 -0.21422
vn 0.976476 0.000563281 -0.215624
vn 0.976748 0 -0.214391
vn 0.15201 0.714868 0.682538
vn 0.625274 0 0.780405
vn 0.245134 0 0.969489
vn 0.245296 0 0.969448
vn 0.245296 0 0.969448
vn 0.244994 0 0.969525
vn 0.244994 0 0.969525
vn 0.245299 0 0.969447
vn 0.245299 0 0.969447
vn 0.152579 0.026926 -0.987924
vn 0.153407 0 -0.988163
vn 0.153407 0 -0.988163
vn 0.153455 0 -0.988156
vn 0.153425 8.2553e-07 -0.98816
vn 1.28311e-19 1 6.04051e-17

# Mesh 'defaultobject' with 152 faces
g defaultobject
usemtl DefaultMaterial
f  1//1 2//1 3//1
f  2//1 1//1 4//1
f  5//2 6//2 7//2
f  6//3 5//3 8//3
f  6//4 8//4 9//4
f  6//5 9//5 10//5
f  10//6 9//6 11//6
f  11//6 9//6 12//7
f  12//8 9//8 13//8
f  10//9 11//9 14//9
f  15//10 16//10 17//10
f  16//10 15//10 18//11
f  19//12 20//12 21//12
f  20//13 19//13 22//13
f  22//14 19//14 23//14
f  24//15 20//15 22//15
f  20//16 25//16 21//16
f  25//16 20//16 26//16
f  26//16 20//16 5//16
f  26//16 5//16 7//16
f  27//17 28//17 29//17
f  28//17 27//17 30//18
f  31//19 20//19 24//19
f  32//20 33//20 34//20
f  33//21 32//21 4//21
f  33//22 1//22 35//22
f  1//23 33//23 4//23
f  35//24 1//24 36//24
f  37//25 38//25 39//25
f  38//25 37//25 40//25
f  40//26 37//26 6//26
f  40//26 6//26 10//26
f  41//27 42//27 43//27
f  42//27 41//27 44//27
f  44//28 41//28 45//28
f  44//28 45//28 33//28
f  33//29 45//29 46//29
f  33//29 46//29 34//29
f  34//30 46//30 16//30
f  34//30 16//30 47//31
f  47//31 16//30 18//32
f  48//33 39//33 38//33
f  39//33 48//33 25//34
f  25//35 48//35 49//35
f  25//35 49//35 21//35
f  21//36 49//36 50//36
f  21//36 50//36 19//37
f  19//38 50//38 51//38
f  19//38 51//38 52//38
f  52//39 51//39 43//39
f  52//39 43//39 53//40
f  53//40 43//39 42//27
f  54//41 55//41 56//41
f  55//42 54//42 27//42
f  27//43 54//43 57//43
f  27//44 57//44 58//44
f  27//45 58//45 30//45
f  26//46 39//46 25//46
f  39//47 26//47 37//47
f  37//48 26//48 7//48
f  37//48 7//48 6//49
f  59//50 31//50 60//50
f  31//50 59//50 61//50
f  61//51 59//51 13//51
f  61//51 13//51 9//52
f  60//53 22//53 62//53
f  22//53 60//53 24//54
f  24//15 60//53 31//19
f  55//55 29//55 63//55
f  29//55 55//55 27//56
f  18//57 64//57 47//57
f  64//58 18//58 15//58
f  64//59 15//59 56//59
f  56//60 15//60 54//60
f  54//61 15//61 65//61
f  54//62 65//62 57//62
f  9//63 20//63 61//63
f  20//64 9//64 8//64
f  20//65 8//65 5//65
f  34//66 64//66 32//66
f  64//66 34//66 47//67
f  66//68 42//68 67//68
f  42//68 66//68 53//69
f  52//70 23//70 19//70
f  23//71 52//71 53//71
f  23//72 53//72 66//72
f  23//73 66//73 68//73
f  69//74 29//74 28//74
f  29//74 69//74 70//75
f  29//74 70//75 71//76
f  29//74 71//76 17//77
f  29//74 17//77 63//78
f  63//78 17//77 16//79
f  63//78 16//79 72//80
f  72//80 16//79 73//81
f  73//81 16//79 2//82
f  2//82 16//79 3//83
f  3//83 16//79 46//84
f  3//83 46//84 45//85
f  3//83 45//85 41//86
f  3//83 41//86 74//87
f  74//87 41//86 75//88
f  75//88 41//86 76//89
f  76//89 41//86 77//90
f  77//90 41//86 43//91
f  77//90 43//91 51//92
f  77//90 51//92 78//93
f  78//93 51//92 62//94
f  62//94 51//92 12//95
f  12//95 51//92 11//96
f  11//96 51//92 14//97
f  14//97 51//92 50//98
f  14//97 50//98 49//99
f  14//97 49//99 48//100
f  14//97 48//100 10//101
f  10//101 48//100 40//101
f  40//101 48//100 38//102
f  59//103 12//95 13//103
f  12//95 59//103 60//104
f  12//95 60//104 62//94
f  44//105 67//105 42//105
f  67//106 44//106 33//106
f  67//107 33//107 35//107
f  23//108 62//108 22//108
f  62//109 23//109 68//109
f  62//110 68//110 66//110
f  62//111 66//111 67//111
f  62//112 67//112 35//112
f  62//113 35//113 36//113
f  62//114 36//114 78//114
f  78//115 36//115 77//115
f  77//116 36//116 76//116
f  76//117 36//117 75//117
f  75//118 36//118 74//118
f  61//119 20//119 31//119
f  36//120 3//120 74//120
f  3//120 36//120 1//120
f  71//121 15//121 17//121
f  15//121 71//121 65//121
f  65//122 71//122 70//122
f  65//122 70//122 57//123
f  57//124 70//124 69//124
f  57//124 69//124 58//125
f  58//126 69//126 28//126
f  58//126 28//126 30//127
f  55//128 64//128 56//128
f  64//129 55//129 63//129
f  64//129 63//129 32//130
f  32//131 2//131 4//131
f  2//132 32//132 63//132
f  2//82 63//78 72//80
f  2//133 72//133 73//133

