# {"id":"DEB_LOD2_UUID_1fdf342a-8176-48a5-8303-7b2de6a409e7","idOriginal":"DEB_LOD2_UUID_1fdf342a-8176-48a5-8303-7b2de6a409e7","origin":[13.37187813947461,52.51666069493914],"elevation":36.47}
# Longitude: 13.37187813947461
# Latitude: 52.51666069493914
# Elevation: 36.47

# File produced by Open Asset Import Library (http://www.assimp.sf.net)
# (assimp v3.1.0)

mtllib DEB_LOD2_UUID_1fdf342a-8176-48a5-8303-7b2de6a409e7.obj.mtl

# 49 vertex positions
v  5.811 -3.06652e-16 5.008
v  5.78 15.192 4.618
v  5.811 15.192 5.008
v  5.778 15.11 4.596
v  5.778 10.947 4.596
v  5.523 10.949 1.374
v  5.523 -8.41332e-17 1.374
v  5.78 -2.82771e-16 4.618
v  5.778 -2.81424e-16 4.596
v  1.343 15.11 4.948
v  0.396 10.947 5.023
v  0.396 15.11 5.023
v  1.343 13.36 4.948
v  4.832 15.11 4.671
v  4.832 13.36 4.671
v  5.428 10.949 0.166
v  5.42 10.82 0.064
v  5.381 10.195 -0.426
v  5.381 2.6085e-17 -0.426
v  5.428 -1.01646e-17 0.166
v  5.42 -3.91887e-18 0.064
v  5.16 15.301 6.942
v  1.373 -4.43383e-16 7.241
v  5.16 -4.25075e-16 6.942
v  1.373 15.304 7.241
v  1.349 16.497 6.933
v  3.181 19.6 5.98
v  5.136 16.501 6.632
v  0.397 15.191 5.044
v  5.136 -4.06093e-16 6.632
v  5.013 -3.1057e-16 5.072
v  0 0 0
v  1.226 -3.28879e-16 5.371
v  1.349 -4.24524e-16 6.933
v  0.039 -3.00038e-17 0.49
v  0.396 -3.0757e-16 5.023
v  0.428 -3.32675e-16 5.433
v  0.397 -3.08856e-16 5.044
v  0.142 -1.10096e-16 1.798
v  0.047 -3.62495e-17 0.592
v  1.142 13.36 2.409
v  4.631 13.36 2.133
v  0 10.195 6.24264e-16
v  5.013 16.5 5.072
v  1.226 16.497 5.371
v  0.428 15.191 5.433
v  0.142 10.949 1.798
v  0.039 10.82 0.49
v  0.047 10.949 0.592

# 0 UV coordinates

# 86 vertex normals
vn 0.996856 0 -0.0792376
vn 0.995983 -0.000266388 -0.0895451
vn 0.996808 0 -0.0798414
vn 0.996883 3.57823e-05 -0.0788967
vn 0.996874 0 -0.0790038
vn -3.16528e-19 -1 -6.12087e-17
vn 0 -1 -6.1231e-17
vn -0.0789501 0 -0.996879
vn -0.0791433 0 -0.996863
vn -0.079033 0 -0.996872
vn -0.079033 0 -0.996872
vn 0.996922 0 -0.0784001
vn 0.996936 2.04468e-05 -0.078216
vn 0.996858 -0.000101012 -0.079213
vn 0.996903 0 -0.0786444
vn 1.23449e-20 1 6.12315e-17
vn 0 1 6.12336e-17
vn 0.0787094 0 0.996898
vn 0.0787094 -0 0.996898
vn 0.0763935 0.250686 0.965049
vn 0.0765415 0.251157 0.964915
vn 0.0757439 0.250823 0.965065
vn -0.0732284 0.251137 -0.965178
vn -0.0763827 0.252943 -0.964461
vn -0.0765683 0.253012 -0.964429
vn -0.0758263 0.253281 -0.964417
vn -0.0763127 0.260105 -0.96256
vn -1.05048e-23 -1 -6.12324e-17
vn -4.4523e-24 -1 -6.12323e-17
vn 0 -1 -6.12323e-17
vn 3.35279e-23 -1 -6.12323e-17
vn 0 -1 -6.12323e-17
vn 5.11332e-24 -1 -6.12323e-17
vn 7.78252e-24 -1 -6.12323e-17
vn -3.38254e-23 -1 -6.12323e-17
vn -5.82049e-23 -1 -6.12323e-17
vn -2.01038e-23 -1 -6.12323e-17
vn -4.12398e-20 -1 -6.12291e-17
vn 4.64528e-19 -1 -6.12597e-17
vn 1.96935e-20 -1 -6.12346e-17
vn 0 1 0
vn -0.0789205 6.10413e-17 -0.996881
vn -0.0789205 0 -0.996881
vn 0.996906 0 -0.0786023
vn 0.996987 -9.85271e-05 -0.0775665
vn 0.996906 2.88394e-05 -0.0786023
vn 0.997017 0 -0.0771874
vn 0.0774611 0 0.996995
vn 0.0774611 -0 0.996995
vn -0.850251 0.521112 0.0742684
vn -0.849921 0.522539 0.0677313
vn -0.850053 0.522426 0.0669376
vn 0.079944 0 0.996799
vn 0.079944 -0 0.996799
vn -0.996848 0 0.0793409
vn -0.996938 -5.56052e-05 0.0781912
vn -0.996912 -3.58373e-05 0.0785296
vn -0.996896 0 0.0787315
vn -0.996919 0.000716343 0.0784329
vn -0.996912 -0.00026915 0.0785295
vn -0.996914 0 0.0785022
vn -0.996978 -7.76887e-05 0.0776867
vn -0.996925 0 0.0783679
vn -0.996914 0.000211819 0.0785022
vn 0.849344 0.522943 -0.0717228
vn 0.850181 0.522162 -0.0673681
vn 0.850243 0.522033 -0.0675838
vn -0.927648 0.366238 0.0730734
vn -0.927651 0.366185 0.0732886
vn -0.927586 0.366321 0.0734324
vn 0.927715 0.365988 -0.0734714
vn 0.927638 0.366239 -0.0731891
vn 0.927679 0.366181 -0.0729548
vn -0.996913 0 0.0785166
vn -0.998826 -0.00916214 0.0475615
vn -0.99684 0.000334931 0.0794397
vn -0.996913 2.65466e-05 0.0785166
vn -0.996968 0 0.0778121
vn -0.996968 0 0.0778121
vn -0.996805 -0.00828865 0.0794369
vn -0.0620336 0.618193 -0.783574
vn -0.0612327 0.621403 -0.781094
vn -0.0620647 0.618518 -0.783316
vn -0.0619601 0.618604 -0.783256
vn -0.0641937 0.618192 -0.783401
vn -0.0500937 0.621365 -0.781919

# Mesh 'defaultobject' with 94 faces
g defaultobject
usemtl DefaultMaterial
f  1//1 2//1 3//1
f  2//2 1//2 4//2
f  4//3 1//3 5//3
f  5//4 1//4 6//4
f  6//5 1//5 7//5
f  7//6 1//6 8//6
f  7//6 8//6 9//7
f  10//8 11//8 12//8
f  11//8 10//8 13//8
f  13//9 10//9 14//9
f  13//9 14//9 15//9
f  15//10 14//10 4//10
f  15//10 4//10 5//11
f  7//12 16//12 6//12
f  16//13 7//13 17//13
f  17//14 7//14 18//14
f  18//15 7//15 19//15
f  19//16 7//16 20//16
f  19//16 20//16 21//17
f  22//18 23//18 24//18
f  23//18 22//18 25//19
f  22//20 26//20 25//20
f  26//21 22//21 27//21
f  27//22 22//22 28//22
f  27//23 12//23 29//23
f  12//24 27//24 10//24
f  10//25 27//25 14//25
f  14//26 27//26 2//26
f  14//27 2//27 4//27
f  23//28 30//28 24//28
f  30//28 23//28 31//29
f  31//29 8//6 1//6
f  8//6 31//29 9//7
f  9//7 31//29 7//6
f  7//6 31//29 20//30
f  20//30 31//29 21//30
f  21//30 31//29 19//31
f  19//31 31//29 32//32
f  32//32 31//29 33//33
f  33//33 31//29 34//34
f  34//34 31//29 23//28
f  32//32 33//33 35//35
f  35//35 33//33 36//36
f  36//36 33//33 37//37
f  36//36 37//37 38//38
f  35//35 36//36 39//39
f  35//35 39//39 40//40
f  15//41 41//41 13//41
f  41//41 15//41 42//41
f  43//42 19//42 32//42
f  19//42 43//42 18//43
f  28//44 31//44 44//44
f  31//45 28//45 22//45
f  31//46 22//46 30//46
f  30//47 22//47 24//47
f  45//48 37//48 33//48
f  37//48 45//48 46//49
f  29//50 45//50 27//50
f  45//51 29//51 46//51
f  27//52 45//52 26//52
f  3//53 31//53 1//53
f  31//53 3//53 44//54
f  35//55 43//55 32//55
f  43//56 35//56 40//56
f  43//57 40//57 39//57
f  43//58 39//58 47//58
f  43//59 47//59 48//59
f  48//60 47//60 49//60
f  34//61 45//61 33//61
f  45//62 34//62 23//62
f  45//63 23//63 25//63
f  45//64 25//64 26//64
f  27//65 44//65 2//65
f  44//66 27//66 28//66
f  2//67 44//67 3//67
f  47//68 41//68 49//68
f  41//69 47//69 11//69
f  41//70 11//70 13//70
f  5//71 42//71 15//71
f  42//72 5//72 6//72
f  42//73 6//73 16//73
f  36//74 47//74 39//74
f  47//75 36//75 38//75
f  47//76 38//76 37//76
f  47//77 37//77 11//77
f  11//78 37//78 46//78
f  11//78 46//78 12//79
f  12//80 46//80 29//80
f  48//81 18//81 43//81
f  18//82 48//82 49//82
f  18//83 49//83 41//83
f  18//84 41//84 42//84
f  18//85 42//85 17//85
f  17//86 42//86 16//86

