# {"id":"DEB_LOD2_UUID_23f9ea2d-2e8f-4875-b548-c1ba0d96ca8f","idOriginal":"DEB_LOD2_UUID_23f9ea2d-2e8f-4875-b548-c1ba0d96ca8f","origin":[13.361358218751773,52.52170068752336],"elevation":33.73}
# Longitude: 13.361358218751773
# Latitude: 52.52170068752336
# Elevation: 33.73

# File produced by Open Asset Import Library (http://www.assimp.sf.net)
# (assimp v3.1.0)

mtllib DEB_LOD2_UUID_23f9ea2d-2e8f-4875-b548-c1ba0d96ca8f.obj.mtl

# 16 vertex positions
v  3.049 -2.32805e-16 3.802
v  0 6.632 4.06093e-16
v  0 0 0
v  5.379 -4.10624e-16 6.706
v  3.049 7.411 3.802
v  5.379 8.007 6.706
v  6.622 6.6 -5.527
v  5.486 8.007 6.621
v  14.67 8.007 -0.699
v  8.915 6.6 -7.355
v  8.872 6.59 -7.405
v  8.872 4.53426e-16 -7.405
v  8.915 4.50364e-16 -7.355
v  14.67 4.28014e-17 -0.699
v  5.486 -4.05419e-16 6.621
v  6.622 3.38431e-16 -5.527

# 0 UV coordinates

# 24 vertex normals
vn -0.780128 0 0.62562
vn -0.779977 0.000176737 0.625808
vn -0.780116 -0.000111845 0.625634
vn -0.779977 0 0.625808
vn -0.0983002 0.987465 -0.123492
vn -0.0985486 0.987429 -0.123584
vn -0.0981474 0.987473 -0.123549
vn -0.0984955 0.987435 -0.123577
vn -0.0985046 0.987436 -0.123562
vn -0.0935173 0.988683 -0.117306
vn 0.758185 0 -0.65204
vn 0.756447 2.6589e-05 -0.654055
vn 0.758182 -0.00291955 -0.652037
vn 0.75645 0 -0.654052
vn 0 -1 -6.12323e-17
vn 0 -1 -6.12325e-17
vn 0 -1 -6.12323e-17
vn 9.31386e-23 -1 -6.12323e-17
vn -2.33274e-22 -1 -6.12326e-17
vn -0.640777 0 -0.767727
vn -0.640777 0 -0.767727
vn -0.640788 0 -0.767718
vn 0.622015 0 0.783006
vn 0.623282 0 0.781997

# Mesh 'defaultobject' with 28 faces
g defaultobject
usemtl DefaultMaterial
f  1//1 2//1 3//1
f  2//2 1//2 4//2
f  2//3 4//3 5//3
f  5//4 4//4 6//4
f  5//5 7//5 2//5
f  7//6 5//6 6//6
f  7//7 6//7 8//7
f  7//8 8//8 9//8
f  7//9 9//9 10//9
f  7//10 10//10 11//10
f  10//11 12//11 11//11
f  12//12 10//12 9//12
f  12//13 9//13 13//13
f  13//14 9//14 14//14
f  15//15 13//15 14//15
f  13//15 15//15 4//16
f  13//15 4//16 1//17
f  13//15 1//17 3//17
f  13//15 3//17 16//18
f  13//15 16//18 12//19
f  7//20 3//20 2//20
f  3//20 7//20 16//21
f  16//22 7//22 11//22
f  16//22 11//22 12//22
f  15//23 6//23 4//23
f  6//23 15//23 8//23
f  8//24 15//24 14//24
f  8//24 14//24 9//24

