# {"id":"DEB_LOD2_UUID_36a2175f-9025-443a-a3ca-0b4218d4d523","idOriginal":"DEB_LOD2_UUID_36a2175f-9025-443a-a3ca-0b4218d4d523","origin":[13.397630251248456,52.53851775368472],"elevation":47.838}
# Longitude: 13.397630251248456
# Latitude: 52.53851775368472
# Elevation: 47.838

# File produced by Open Asset Import Library (http://www.assimp.sf.net)
# (assimp v3.1.0)

mtllib DEB_LOD2_UUID_36a2175f-9025-443a-a3ca-0b4218d4d523.obj.mtl

# 8 vertex positions
v  0 24.341 1.49046e-15
v  12.109 3.23368e-16 -5.281
v  0 0 0
v  12.109 24.341 -5.281
v  5.232 24.341 11.928
v  5.232 -7.30379e-16 11.928
v  17.316 24.341 6.62
v  17.316 -4.05358e-16 6.62

# 0 UV coordinates

# 9 vertex normals
vn -0.399758 5.61268e-17 -0.916621
vn -0.399758 0 -0.916621
vn -0.915776 0 0.401689
vn -0.915776 -2.45963e-17 0.401689
vn 0.40217 0 0.915565
vn 0 1 0
vn 0 -1 -6.12323e-17
vn 4.9404e-24 -1 -6.12323e-17
vn 0.916149 0 -0.400839

# Mesh 'defaultobject' with 12 faces
g defaultobject
usemtl DefaultMaterial
f  1//1 2//1 3//1
f  2//1 1//1 4//2
f  5//3 3//3 6//3
f  3//3 5//3 1//4
f  7//5 6//5 8//5
f  6//5 7//5 5//5
f  7//6 1//6 5//6
f  1//6 7//6 4//6
f  2//7 6//7 3//7
f  6//7 2//7 8//8
f  4//9 8//9 2//9
f  8//9 4//9 7//9

