# {"id":"DEB_LOD2_UUID_da94f7f3-c24e-4b8a-b294-ea3974c9555c","idOriginal":"DEB_LOD2_UUID_da94f7f3-c24e-4b8a-b294-ea3974c9555c","origin":[13.320645244851852,52.5301627473629],"elevation":34.19}
# Longitude: 13.320645244851852
# Latitude: 52.5301627473629
# Elevation: 34.19

# File produced by Open Asset Import Library (http://www.assimp.sf.net)
# (assimp v3.1.0)

mtllib DEB_LOD2_UUID_da94f7f3-c24e-4b8a-b294-ea3974c9555c.obj.mtl

# 124 vertex positions
v  101.667 14.24 119.02
v  71.942 11.36 117.321
v  71.942 14.24 117.321
v  101.667 11.36 119.02
v  101.667 13.26 119.02
v  109.774 13.26 119.483
v  109.774 11.36 119.483
v  112.739 -3.97049e-15 64.843
v  109.645 11.36 119.332
v  109.645 -7.30698e-15 119.332
v  112.739 11.36 64.843
v  112.795 -3.9106e-15 63.865
v  112.739 13.26 64.843
v  112.795 13.845 63.865
v  100.331 1.44074e-15 -23.529
v  100.245 7.32 -22.066
v  100.245 1.35115e-15 -22.066
v  100.331 7.32 -23.529
v  100.242 15.29 -22.011
v  100.242 1.34778e-15 -22.011
v  100.245 15.29 -22.066
v  116.139 11.36 12.749
v  115.68 -7.78875e-16 12.72
v  116.139 -7.80651e-16 12.749
v  115.68 11.36 12.72
v  101.546 14.67 121.169
v  101.546 14.24 121.169
v  101.508 14.24 121.824
v  101.583 14.24 120.513
v  116.456 15.29 6.704
v  78.717 11.36 4.548
v  116.456 11.36 6.704
v  78.717 15.29 4.548
v  110.631 13.887 120.49
v  110.563 14.67 121.684
v  71.719 -7.42375e-15 121.239
v  71.719 14.24 121.239
v  71.961 11.36 116.977
v  71.942 -7.18384e-15 117.321
v  71.961 -7.16278e-15 116.977
v  109.394 11.36 123.773
v  101.424 13.26 123.317
v  101.424 11.36 123.317
v  109.394 13.26 123.773
v  72.179 14.24 121.646
v  72.179 11.36 121.646
v  101.424 14.24 123.317
v  81.193 7.32 -24.613
v  81.117 7.32 -23.155
v  109.428 13.659 123.165
v  110.538 14.379 122.127
v  109.428 -7.54168e-15 123.165
v  110.538 -7.47812e-15 122.127
v  105.025 11.36 59.669
v  75.333 11.36 57.673
v  75.316 11.36 57.971
v  75.875 11.36 57.294
v  78.383 11.36 11.661
v  113.013 11.36 60.032
v  113.096 11.36 60.13
v  113.896 14.501 62.826
v  113.989 13.861 61.19
v  113.912 14.67 62.543
v  113.896 -3.84698e-15 62.826
v  113.989 -3.74681e-15 61.19
v  113.912 -3.82965e-15 62.543
v  113.013 -3.6759e-15 60.032
v  72.503 11.36 116.597
v  75.567 -3.84043e-15 62.719
v  72.503 -7.13951e-15 116.597
v  75.567 11.36 62.719
v  75.584 -3.82176e-15 62.414
v  75.584 14.24 62.414
v  75.567 14.24 62.719
v  104.758 13.26 64.387
v  104.758 11.36 64.387
v  104.758 14.24 64.387
v  106.297 11.36 178.292
v  69.116 -1.0788e-14 176.181
v  106.297 -1.09172e-14 178.292
v  69.116 11.36 176.181
v  117.521 1.28539e-15 -20.992
v  117.521 15.29 -20.992
v  78.717 -2.78485e-16 4.548
v  78.383 -7.1403e-16 11.661
v  78.719 -2.75423e-16 4.498
v  78.719 15.29 4.498
v  81.117 1.41783e-15 -23.155
v  81.193 1.50711e-15 -24.613
v  81.114 1.41477e-15 -23.105
v  116.456 -4.10502e-16 6.704
v  0 0 0
v  1.555 1.68989e-15 -27.598
v  116.054 -2.82159e-16 4.608
v  116.563 -2.8522e-16 4.658
v  36.188 -1.27853e-16 2.088
v  75.875 -3.50825e-15 57.294
v  75.333 -3.53145e-15 57.673
v  75.316 -3.5497e-15 57.971
v  75.088 -3.79487e-15 61.975
v  113.096 -3.6819e-15 60.13
v  109.774 -7.31622e-15 119.483
v  110.631 -7.37788e-15 120.49
v  110.563 -7.451e-15 121.684
v  72.179 -7.44867e-15 121.646
v  109.394 -7.57891e-15 123.773
v  72.215 -7.45063e-15 121.678
v  72.215 11.36 121.678
v  116.054 15.29 4.608
v  116.563 15.29 4.658
v  75.088 14.24 61.975
v  36.188 15.29 2.088
v  104.932 14.24 61.309
v  105.025 13.26 59.669
v  105.025 14.24 59.669
v  104.892 14.67 62.028
v  104.892 14.24 62.028
v  104.851 14.24 62.747
v  81.117 15.29 -23.155
v  1.555 15.29 -27.598
v  81.114 15.29 -23.105
v  75.316 14.24 57.971
v  113.096 13.26 60.13
v  0 15.29 9.36242e-16

# 0 UV coordinates

# 152 vertex normals
vn 0.0570641 0 -0.998371
vn 0.0570188 0 -0.998373
vn 0.998392 0 0.0566908
vn 0.998365 0 0.0571658
vn 0.998365 -0 0.0571658
vn 0.998365 0 0.0571658
vn 0.998277 0 0.0586811
vn 0.99851 0 0.0545725
vn -0.0630537 0 0.99801
vn -0.998322 -0 -0.0579095
vn -0.998413 0 -0.056317
vn -0.0570362 0 0.998372
vn 0.031234 0.836635 -0.546869
vn 0.031179 0.836362 -0.54729
vn 0.0313634 0.836738 -0.546704
vn 0.031254 0.83639 -0.547243
vn -0.998384 0 -0.0568247
vn -0.998384 0 -0.0568247
vn -0.998478 0.000582886 -0.0551401
vn -0.998384 -5.11728e-05 -0.0568247
vn -0.998479 0 -0.0551401
vn -0.0571213 0 0.998367
vn -0.0570448 0 0.998372
vn 0 1 0
vn -0.0313102 0.83639 0.54724
vn -0.031316 0.836378 0.547258
vn -0.0312737 0.836441 0.547164
vn -0.0312462 0.836495 0.547083
vn -0.0303425 0.836205 0.547577
vn 0.683022 0 0.730398
vn 0.683022 -0 0.730398
vn 0.998395 0.000312993 0.056629
vn 0.998388 0 0.0567511
vn 0.998388 0 0.0567511
vn -2.76777e-18 -1 -6.13927e-17
vn 0.998421 0 0.0561733
vn 0.998415 0 0.0562811
vn -0.998387 -0 -0.0567775
vn -0.998451 0 -0.0556457
vn -0.998451 0 -0.0556457
vn -0.998451 0 -0.0556457
vn -0.0570429 0 0.998372
vn -0.0570478 0 0.998371
vn -0.0566852 0 0.998392
vn 0.058871 0 -0.998266
vn -0.998899 -0 -0.0469045
vn -0.999202 0 -0.0399463
vn -0.999202 0 -0.0399463
vn -0.999202 0 -0.0399463
vn 5.49767e-24 -1 -6.12323e-17
vn 4.30119e-24 -1 -6.12324e-17
vn -9.65358e-23 -1 -6.12306e-17
vn -1.19449e-22 -1 -6.12323e-17
vn -1.92275e-25 -1 -6.12323e-17
vn 0 -1 -6.12309e-17
vn 3.5112e-24 -1 -6.12323e-17
vn 1.42227e-25 -1 -6.12323e-17
vn -3.06256e-23 -1 -6.12325e-17
vn 6.71705e-25 -1 -6.12323e-17
vn -3.32606e-23 -1 -6.12314e-17
vn 1.09343e-24 -1 -6.12324e-17
vn -3.93372e-25 -1 -6.12323e-17
vn 3.59436e-25 -1 -6.12323e-17
vn 7.96465e-24 -1 -6.12323e-17
vn -2.04146e-23 -1 -6.1232e-17
vn -8.22134e-24 -1 -6.12322e-17
vn 6.99294e-25 -1 -6.12323e-17
vn -3.07161e-23 -1 -6.1233e-17
vn -2.24546e-24 -1 -6.12325e-17
vn 2.07642e-23 -1 -6.1233e-17
vn -2.14088e-23 -1 -6.12319e-17
vn -6.98192e-24 -1 -6.12321e-17
vn 6.95581e-24 -1 -6.12323e-17
vn -1.62547e-23 -1 -6.12323e-17
vn 1.11166e-22 -1 -6.12341e-17
vn -1.01743e-24 -1 -6.12323e-17
vn -6.07397e-24 -1 -6.12322e-17
vn 2.34878e-22 -1 -6.12274e-17
vn -2.50899e-23 -1 -6.1233e-17
vn -1.67539e-24 -1 -6.12318e-17
vn 1.09528e-23 -1 -6.12329e-17
vn 5.77104e-24 -1 -6.12327e-17
vn 3.56913e-23 -1 -6.12333e-17
vn -4.0814e-23 -1 -6.12314e-17
vn -1.87822e-22 -1 -6.12288e-17
vn 9.58343e-24 -1 -6.12323e-17
vn -9.99641e-24 -1 -6.12323e-17
vn -0.998387 -0 -0.0567675
vn 0.0977612 0 -0.99521
vn -0.66277 0 0.748823
vn -0.0565738 0 0.998398
vn -0.664384 0 0.747392
vn -0.66265 0 0.748929
vn -0.664384 -9.99467e-05 0.747392
vn -0.662615 1.00231e-05 0.748961
vn 0.998396 0 0.0566178
vn 0.99839 0 0.0567144
vn 0.99844 0 0.0558406
vn 0.99844 0 0.0558406
vn -0.998378 -0 -0.0569315
vn -0.998456 0 -0.0555481
vn 0.0568402 0 -0.998383
vn -0.573058 -0 -0.819515
vn 0.761548 0 -0.648108
vn 0.76031 -0.000222043 -0.64956
vn 0.761387 0 -0.648298
vn -1.78333e-18 1 6.27518e-17
vn 0.998397 0.000387089 0.0566005
vn 0.99839 0 0.0567165
vn 0.99839 0 0.0567165
vn 0.056384 0 -0.998409
vn 0.0570612 0 -0.998371
vn 0.0570612 0 -0.998371
vn 0.0570612 0 -0.998371
vn 0.0570254 0 -0.998373
vn 0.998396 -0 0.0566132
vn -0.0292258 0.858777 0.511515
vn -0.0293276 0.858596 0.511813
vn -0.0293563 0.858559 0.511874
vn -0.0291943 0.858891 0.511326
vn -0.0292879 0.858923 0.511267
vn -0.998383 0 -0.0568521
vn -0.998383 0 -0.0568521
vn -0.998377 -3.41373e-05 -0.0569486
vn -0.998383 2.5407e-06 -0.0568521
vn -0.998377 0 -0.0569486
vn -0.998207 -0 -0.0598582
vn -0.998207 0 -0.0598581
vn -0.998644 5.34582e-05 -0.0520583
vn -0.998631 0 -0.0523171
vn 0.0565507 0 -0.9984
vn 0.686331 0 0.727289
vn 0.76478 0 -0.644291
vn 0.763089 -0.000319829 -0.646294
vn 0.764637 0 -0.644461
vn 7.62309e-20 1 6.11691e-17
vn -0.574068 -0 -0.818808
vn -0.998416 3.44465e-18 -0.0562554
vn -0.998416 0 -0.0562554
vn 0.0292182 0.858641 -0.511745
vn 0.0292475 0.858761 -0.511542
vn 0.0292227 0.858717 -0.511617
vn -0.361404 0.791228 -0.4933
vn -0.998493 -0 -0.0548775
vn 0.998635 0 0.0522269
vn 0.998635 0 0.0522269
vn 0.998628 -2.55388e-05 0.0523683
vn 0.998635 7.54562e-05 0.0522269
vn 0.998628 0 0.0523683
vn -0.0576029 0 0.99834
vn -0.0576029 -6.11307e-17 0.99834
vn 0.998362 0 0.0572109

# Mesh 'defaultobject' with 244 faces
g defaultobject
usemtl DefaultMaterial
f  1//1 2//1 3//1
f  2//1 1//1 4//1
f  4//1 1//1 5//1
f  4//2 5//2 6//2
f  4//2 6//2 7//2
f  8//3 9//3 10//3
f  9//3 8//3 11//3
f  11//4 8//4 12//4
f  11//4 12//4 13//5
f  13//5 12//4 14//6
f  15//7 16//7 17//7
f  16//7 15//7 18//7
f  17//8 19//8 20//8
f  19//8 17//8 21//8
f  21//8 17//7 16//7
f  22//9 23//9 24//9
f  23//9 22//9 25//9
f  26//10 27//10 28//10
f  27//11 26//11 29//11
f  30//12 31//12 32//12
f  31//12 30//12 33//12
f  34//13 26//13 35//13
f  26//14 34//14 6//14
f  26//15 6//15 29//15
f  29//16 6//16 5//11
f  3//17 36//17 37//17
f  36//17 3//17 2//18
f  36//19 2//19 38//19
f  36//20 38//20 39//20
f  39//21 38//21 40//21
f  41//22 42//22 43//22
f  42//22 41//22 44//22
f  43//23 45//23 46//23
f  45//23 43//23 47//23
f  47//23 43//23 42//22
f  16//24 48//24 49//24
f  48//24 16//24 18//24
f  44//25 28//25 42//25
f  28//26 44//26 26//26
f  26//27 44//27 50//27
f  26//28 50//28 35//28
f  35//29 50//29 51//29
f  51//30 52//30 53//30
f  52//30 51//30 50//31
f  54//24 55//24 56//24
f  55//24 54//24 57//24
f  57//24 54//24 58//24
f  58//24 54//24 59//24
f  59//24 54//24 60//24
f  58//24 59//24 25//24
f  58//24 25//24 31//24
f  31//24 25//24 32//24
f  32//24 25//24 22//24
f  61//32 62//32 63//32
f  62//33 61//33 64//33
f  62//33 64//33 65//34
f  65//35 64//35 66//35
f  29//36 5//21 1//36
f  25//37 67//37 23//37
f  67//37 25//37 59//37
f  68//38 69//38 70//38
f  69//38 68//38 71//38
f  69//39 71//39 72//39
f  72//39 71//39 73//40
f  73//40 71//39 74//41
f  11//42 75//42 76//42
f  75//42 11//42 13//42
f  76//42 74//43 71//43
f  74//43 76//42 75//42
f  74//43 75//42 77//43
f  78//44 79//44 80//44
f  79//44 78//44 81//44
f  19//45 82//45 20//45
f  82//45 19//45 83//45
f  58//46 84//46 85//46
f  84//46 58//46 31//46
f  84//47 31//47 86//47
f  86//47 31//47 87//48
f  87//48 31//47 33//49
f  15//50 88//50 89//50
f  88//50 15//50 17//51
f  88//50 17//51 90//52
f  24//53 23//53 91//53
f  90//52 92//54 93//54
f  92//54 90//52 17//51
f  92//54 17//51 20//55
f  92//54 20//55 82//56
f  92//54 82//56 94//57
f  92//54 94//57 95//58
f  92//54 95//58 86//59
f  86//59 95//58 91//53
f  92//54 86//59 96//60
f  86//59 91//53 84//61
f  84//61 91//53 85//62
f  85//62 91//53 23//53
f  85//62 23//53 67//63
f  85//62 67//63 97//64
f  97//64 67//63 98//65
f  98//65 67//63 99//66
f  99//66 67//63 100//67
f  100//67 67//63 101//68
f  100//67 101//68 65//35
f  100//67 65//35 66//35
f  100//67 66//35 64//35
f  100//67 64//35 12//69
f  100//67 12//69 72//70
f  72//70 12//69 8//71
f  72//70 8//71 69//72
f  69//72 8//71 70//73
f  70//73 8//71 10//74
f  70//73 10//74 40//75
f  40//75 10//74 39//76
f  39//76 10//74 36//77
f  36//77 10//74 102//78
f  36//77 102//78 103//79
f  36//77 103//79 104//80
f  36//77 104//80 53//81
f  36//77 53//81 52//82
f  36//77 52//82 105//83
f  105//83 52//82 106//84
f  105//83 106//84 107//85
f  107//85 106//84 79//86
f  79//86 106//84 80//87
f  42//36 28//36 47//36
f  81//88 107//88 79//88
f  107//88 81//88 108//88
f  109//89 95//89 94//89
f  95//89 109//89 110//89
f  73//90 100//90 72//90
f  100//90 73//90 111//90
f  87//91 96//91 86//91
f  96//91 87//91 112//91
f  108//92 46//92 107//92
f  105//93 37//93 36//93
f  37//94 105//94 107//94
f  37//95 107//95 46//95
f  37//93 46//93 45//93
f  113//96 114//96 115//96
f  106//97 78//97 80//97
f  78//97 106//97 41//97
f  41//98 106//98 52//98
f  41//98 52//98 44//98
f  44//98 52//98 50//99
f  116//100 117//100 118//100
f  117//101 116//101 113//101
f  119//102 16//102 49//102
f  16//102 119//102 21//102
f  55//103 97//103 98//103
f  97//103 55//103 57//103
f  103//104 6//104 34//104
f  6//104 103//104 7//104
f  7//105 103//105 9//105
f  9//106 103//106 10//106
f  10//107 103//107 102//107
f  51//108 34//108 35//108
f  34//109 51//109 53//109
f  34//109 53//109 103//110
f  103//79 53//81 104//80
f  120//111 90//111 93//111
f  90//111 120//111 121//111
f  115//112 56//112 122//112
f  56//112 115//112 114//113
f  56//112 114//113 54//114
f  54//115 114//115 123//115
f  54//115 123//115 60//115
f  75//116 118//116 77//116
f  77//24 73//24 74//24
f  73//24 122//24 111//24
f  122//24 73//24 115//24
f  115//24 73//24 113//24
f  113//24 73//24 77//24
f  113//24 77//24 118//24
f  113//24 118//24 117//24
f  41//24 81//24 78//24
f  81//24 41//24 108//24
f  108//24 41//24 43//24
f  108//24 43//24 46//24
f  13//117 118//117 75//117
f  118//118 13//118 116//118
f  116//119 13//119 14//119
f  116//120 14//120 63//120
f  63//121 14//121 61//121
f  122//122 100//122 111//122
f  100//122 122//122 56//123
f  100//124 56//124 55//124
f  100//122 55//125 99//125
f  99//126 55//126 98//126
f  121//127 119//127 90//127
f  49//128 90//127 119//127
f  48//129 90//129 49//129
f  89//130 90//130 48//130
f  88//50 90//52 89//50
f  48//131 15//131 89//131
f  15//131 48//131 18//131
f  61//132 12//132 64//132
f  12//132 61//132 14//132
f  65//133 123//133 62//133
f  123//133 65//133 60//133
f  60//134 65//134 59//134
f  59//135 65//135 67//135
f  67//136 65//136 101//136
f  38//137 70//137 40//137
f  70//137 38//137 68//137
f  124//138 93//138 92//138
f  93//138 124//138 120//139
f  62//140 116//140 63//140
f  116//141 62//141 123//141
f  116//142 123//142 114//142
f  116//143 114//143 113//143
f  45//24 3//24 37//24
f  3//24 45//24 1//24
f  1//24 45//24 28//24
f  28//24 45//24 47//24
f  1//24 28//24 27//24
f  1//24 27//24 29//24
f  112//24 120//24 124//24
f  120//24 112//24 121//24
f  121//24 112//24 87//24
f  30//24 87//24 33//24
f  87//24 30//24 121//24
f  121//24 30//24 119//24
f  119//24 30//24 19//24
f  19//24 30//24 109//24
f  109//24 30//24 110//24
f  83//24 19//24 109//24
f  21//24 119//24 19//24
f  57//144 85//144 97//144
f  85//144 57//144 58//144
f  30//145 95//145 110//145
f  95//145 30//145 32//146
f  95//147 32//147 22//147
f  95//148 22//148 91//148
f  91//149 22//149 24//149
f  112//150 92//150 96//150
f  92//150 112//150 124//151
f  83//152 94//152 82//152
f  94//152 83//152 109//152
f  4//24 38//24 2//24
f  38//24 4//24 68//24
f  68//24 4//24 71//24
f  71//24 4//24 9//24
f  9//24 4//24 7//24
f  71//24 9//24 76//24
f  76//24 9//24 11//24

