# {"id":"DEB_LOD2_UUID_a5878804-b110-4f6c-aa52-680cbdd172b5","idOriginal":"DEB_LOD2_UUID_a5878804-b110-4f6c-aa52-680cbdd172b5","origin":[13.365154147391115,52.55144090417561],"elevation":36.99}
# Longitude: 13.365154147391115
# Latitude: 52.55144090417561
# Elevation: 36.99

# File produced by Open Asset Import Library (http://www.assimp.sf.net)
# (assimp v3.1.0)

mtllib DEB_LOD2_UUID_a5878804-b110-4f6c-aa52-680cbdd172b5.obj.mtl

# 53 vertex positions
v  16.872 -8.278e-16 13.519
v  14.837 20.36 15.592
v  14.837 -9.54735e-16 15.592
v  16.872 19.77 13.519
v  18.314 -7.37911e-16 12.051
v  18.314 17.396 12.051
v  20.549 16.71 -2.723
v  17.547 -1.49407e-17 0.244
v  20.549 1.66736e-16 -2.723
v  17.547 16.806 0.244
v  3.765 20.37 -0.255
v  0 18.154 1.11161e-15
v  1.742 20.37 1.831
v  2.023 18.154 -2.086
v  5.611 20.37 -2.16
v  3.869 18.154 -3.99
v  13.377 20.37 -10.17
v  6.964 18.155 -7.182
v  8.574 18.155 -8.843
v  11.624 18.154 -11.99
v  10.894 19.77 7.236
v  12.518 16.887 5.321
v  8.905 19.77 5.147
v  12.635 16.884 5.44
v  18.73 16.71 11.627
v  13.377 6.22733e-16 -10.17
v  8.574 5.41478e-16 -8.843
v  11.624 7.34176e-16 -11.99
v  18.549 2.93915e-16 -4.8
v  6.964 4.39771e-16 -7.182
v  3.869 2.44317e-16 -3.99
v  2.023 1.27731e-16 -2.086
v  0 0 0
v  15.759 -1.23199e-16 2.012
v  1.742 -1.12116e-16 1.831
v  12.575 -3.15898e-16 5.159
v  1.83 -1.17689e-16 1.922
v  6.883 -4.42894e-16 7.233
v  12.465 -3.22572e-16 5.268
v  12.518 -3.25817e-16 5.321
v  12.635 -3.33104e-16 5.44
v  18.73 -7.11948e-16 11.627
v  8.872 -5.70808e-16 9.322
v  9.191 -5.91382e-16 9.658
v  6.883 20.36 7.233
v  1.83 20.36 1.922
v  8.872 20.36 9.322
v  9.191 20.36 9.658
v  12.465 16.967 5.268
v  10.751 19.77 3.242
v  12.575 16.963 5.159
v  15.759 16.862 2.012
v  18.549 19.77 -4.8

# 0 UV coordinates

# 87 vertex normals
vn 0.713617 0 0.700536
vn 0.713396 0 0.700761
vn 0.702949 0 0.711241
vn 0.702949 -0 0.711241
vn -0.473494 0.751628 -0.459193
vn -0.473494 0.751628 -0.459194
vn -0.47368 0.751623 -0.45901
vn -0.473631 0.751536 -0.459203
vn -0.473631 0.751536 -0.459203
vn -0.473475 0.75185 -0.458851
vn -0.473497 0.751769 -0.458959
vn -0.473497 0.751658 -0.459141
vn 0.547475 0.654639 -0.521267
vn 0.547668 0.654625 -0.521082
vn 0.546585 0.655688 -0.520881
vn 0.547618 0.654681 -0.521063
vn -0.257286 0.390332 -0.883993
vn -9.56651e-24 -1 -6.12324e-17
vn 0 -1 -6.12323e-17
vn -1.19363e-24 -1 -6.12323e-17
vn 0 -1 -6.12323e-17
vn 1.2473e-25 -1 -6.12323e-17
vn 0 -1 -6.12323e-17
vn -1.05174e-25 -1 -6.12323e-17
vn 2.96163e-25 -1 -6.12323e-17
vn 6.20739e-23 -1 -6.12325e-17
vn 2.60081e-24 -1 -6.12323e-17
vn 0 -1 -6.12322e-17
vn -6.61761e-23 -1 -6.12326e-17
vn 2.95993e-23 -1 -6.12322e-17
vn 4.55238e-24 -1 -6.12323e-17
vn 6.61384e-24 -1 -6.12323e-17
vn -2.4395e-23 -1 -6.12322e-17
vn -1.33574e-23 -1 -6.12323e-17
vn -1.84178e-19 -1 -6.14048e-17
vn 0.713808 0 0.700341
vn 0.144304 0.979963 -0.137294
vn 0.144251 0.979963 -0.137346
vn 0.144251 0.979963 -0.137346
vn 0.144301 0.979963 -0.137297
vn 0.14401 0.980086 -0.136724
vn 0.144279 0.979969 -0.137277
vn 0.522702 0.685731 0.506513
vn 0.520945 0.683696 0.511054
vn 0.524842 0.685583 0.504497
vn 0.522595 0.68565 0.506734
vn 0.522594 0.685647 0.506738
vn 0.522542 0.685689 0.506735
vn 0.52272 0.685576 0.506704
vn -0.724495 0 0.68928
vn -0.724495 -4.63123e-09 0.68928
vn -0.718857 -4.0682e-09 0.695158
vn -0.718856 0 0.695159
vn -0.724485 0 0.689291
vn -0.724229 0 0.68956
vn -0.725215 0 0.688522
vn -0.724469 0 0.689308
vn 0.703119 0 0.711073
vn 0.703118 -0 0.711073
vn -0.717864 4.26289e-17 -0.696184
vn -0.717864 0 -0.696184
vn -0.717957 0 -0.696087
vn -0.717931 0 -0.696114
vn -0.717931 0 -0.696114
vn 0.703872 0 0.710326
vn 0.702962 0 0.711227
vn 0.702962 0 0.711227
vn -0.718044 0 -0.695997
vn -0.718087 0 -0.695953
vn -0.718087 0 -0.695953
vn 0.70711 0 -0.707104
vn 0.713071 -3.75786e-05 -0.701092
vn 0.712383 -2.35276e-05 -0.701791
vn 0.707104 0.00397532 -0.707098
vn 0.712397 0 -0.701777
vn 0.720259 -3.19339e-05 -0.693705
vn 0.720255 0 -0.693709
vn 0.720306 -3.69482e-05 -0.693656
vn 0.72024 3.68595e-05 -0.693725
vn 0.720261 1.80349e-05 -0.693704
vn 0.720333 0 -0.693628
vn 0.056562 0.996891 0.0548538
vn 0.0576703 0.996773 0.0558383
vn 0.0576464 0.996773 0.0558611
vn 0.0576258 0.996774 0.0558704
vn 0.0576689 0.996771 0.0558829
vn 0.0576222 0.996774 0.0558739

# Mesh 'defaultobject' with 102 faces
g defaultobject
usemtl DefaultMaterial
f  1//1 2//1 3//1
f  2//1 1//1 4//1
f  4//2 1//2 5//2
f  4//2 5//2 6//2
f  7//3 8//3 9//3
f  8//3 7//3 10//4
f  11//5 12//5 13//5
f  12//5 11//5 14//6
f  14//7 11//7 15//7
f  14//8 15//8 16//8
f  16//8 15//8 17//9
f  16//10 17//10 18//10
f  18//11 17//11 19//11
f  19//12 17//12 20//12
f  21//13 22//13 23//13
f  22//14 21//14 4//14
f  22//15 4//15 24//15
f  24//16 4//16 25//16
f  25//17 4//17 6//17
f  26//18 27//18 28//18
f  27//18 26//18 29//19
f  27//18 29//19 30//19
f  30//19 29//19 31//20
f  31//20 29//19 9//21
f  31//20 9//21 32//19
f  32//19 9//21 8//22
f  32//19 8//22 33//23
f  33//23 8//22 34//24
f  33//23 34//24 35//19
f  35//19 34//24 36//25
f  35//19 36//25 37//26
f  37//26 36//25 38//27
f  38//27 36//25 39//28
f  38//27 39//28 40//29
f  38//27 40//29 41//30
f  38//27 41//30 42//31
f  38//27 42//31 43//32
f  43//32 42//31 44//33
f  44//33 42//31 1//19
f  44//33 1//19 3//34
f  1//19 42//31 5//35
f  25//36 5//36 42//36
f  5//36 25//36 6//36
f  45//37 23//37 46//37
f  23//38 45//38 21//38
f  21//38 45//38 47//39
f  21//40 47//40 4//40
f  4//41 47//41 48//41
f  4//42 48//42 2//42
f  23//43 49//43 50//43
f  49//44 23//44 22//44
f  50//45 49//45 51//45
f  50//46 51//46 52//46
f  50//46 52//46 53//47
f  53//48 52//48 10//48
f  53//49 10//49 7//49
f  35//50 12//50 33//50
f  12//50 35//50 13//51
f  13//52 35//52 37//52
f  13//52 37//52 46//53
f  46//54 37//54 38//54
f  46//54 38//54 45//54
f  45//55 38//55 43//55
f  45//55 43//55 47//55
f  47//56 43//56 44//56
f  47//56 44//56 48//56
f  48//57 44//57 3//57
f  48//57 3//57 2//57
f  10//58 34//58 8//58
f  34//58 10//58 52//59
f  12//60 32//60 33//60
f  32//60 12//60 14//61
f  32//62 14//62 31//62
f  31//62 14//62 16//62
f  31//63 16//63 30//63
f  30//63 16//63 18//64
f  36//65 49//65 39//65
f  49//65 36//65 51//65
f  51//66 36//66 34//66
f  51//66 34//66 52//67
f  19//68 30//68 18//68
f  30//68 19//68 27//68
f  27//69 19//69 20//69
f  27//69 20//69 28//70
f  22//71 39//71 49//71
f  39//72 22//72 24//72
f  39//73 24//73 25//73
f  39//74 25//74 40//74
f  40//75 25//75 42//75
f  40//29 42//31 41//30
f  53//76 20//76 17//76
f  20//77 53//77 28//77
f  28//78 53//78 7//78
f  28//79 7//79 26//79
f  26//80 7//80 29//80
f  29//81 7//81 9//81
f  46//82 11//82 13//82
f  11//83 46//83 23//83
f  11//84 23//84 15//84
f  15//85 23//85 17//85
f  17//86 23//86 50//86
f  17//85 50//87 53//87

