# {"id":"DEB_LOD2_UUID_6af164f5-017f-42e4-ad34-d6c9f3a60c04","idOriginal":"DEB_LOD2_UUID_6af164f5-017f-42e4-ad34-d6c9f3a60c04","origin":[13.404907981743913,52.51889240391536],"elevation":35.48}
# Longitude: 13.404907981743913
# Latitude: 52.51889240391536
# Elevation: 35.48

# File produced by Open Asset Import Library (http://www.assimp.sf.net)
# (assimp v3.1.0)

mtllib DEB_LOD2_UUID_6af164f5-017f-42e4-ad34-d6c9f3a60c04.obj.mtl

# 16 vertex positions
v  23.909 5.95 -7.809
v  23.905 4.78959e-16 -7.822
v  23.905 5.95 -7.822
v  25.77 5.95 -2.017
v  23.909 4.78163e-16 -7.809
v  25.77 1.23506e-16 -2.017
v  21.621 5.95 -7.074
v  0 0 0
v  0 5.95 3.64332e-16
v  21.621 4.33158e-16 -7.074
v  0.121 -2.59625e-17 0.424
v  1.638 -3.51045e-16 5.733
v  0.121 5.95 0.424
v  1.638 5.95 5.733
v  1.808 -3.47738e-16 5.679
v  1.808 5.95 5.679

# 0 UV coordinates

# 19 vertex normals
vn 0.955785 0 -0.294066
vn 0.952063 2.83637e-05 -0.305903
vn 0.955708 -0.0126855 -0.294042
vn 0.952063 0 -0.305903
vn -0.310961 0 -0.950423
vn -0.31123 0 -0.950334
vn -0.961609 0 0.274422
vn -0.961517 2.49302e-05 0.274745
vn -0.961609 -0.000312187 0.274422
vn -0.961517 0 0.274745
vn 0.30274 0 0.953073
vn 0.305791 0 0.952099
vn 0 1 0
vn 2.06004e-20 -1 -6.11683e-17
vn -7.56963e-25 -1 -6.12323e-17
vn -6.91561e-25 -1 -6.12323e-17
vn 0 -1 -6.12324e-17
vn -8.10645e-22 -1 -6.12347e-17
vn -7.11804e-22 -1 -6.12345e-17

# Mesh 'defaultobject' with 28 faces
g defaultobject
usemtl DefaultMaterial
f  1//1 2//1 3//1
f  2//2 1//2 4//2
f  2//3 4//3 5//3
f  5//4 4//4 6//4
f  7//5 8//5 9//5
f  8//5 7//5 10//5
f  10//6 7//6 3//6
f  10//6 3//6 2//6
f  11//7 9//7 8//7
f  9//8 11//8 12//8
f  9//9 12//9 13//9
f  13//10 12//10 14//10
f  15//11 14//11 12//11
f  14//11 15//11 16//11
f  16//12 15//12 6//12
f  16//12 6//12 4//12
f  13//13 7//13 9//13
f  7//13 13//13 14//13
f  7//13 14//13 16//13
f  7//13 16//13 4//13
f  7//13 4//13 1//13
f  7//13 1//13 3//13
f  12//14 6//14 15//14
f  6//14 12//14 11//15
f  6//14 11//15 5//16
f  5//16 11//15 8//17
f  5//16 8//17 10//18
f  5//16 10//18 2//19

