# {"id":"DEB_LOD2_UUID_55c008e4-c87f-4c5a-9058-d16e05398320","idOriginal":"DEB_LOD2_UUID_55c008e4-c87f-4c5a-9058-d16e05398320","origin":[13.347842722810057,52.54433338832716],"elevation":35.4}
# Longitude: 13.347842722810057
# Latitude: 52.54433338832716
# Elevation: 35.4

# File produced by Open Asset Import Library (http://www.assimp.sf.net)
# (assimp v3.1.0)

mtllib DEB_LOD2_UUID_55c008e4-c87f-4c5a-9058-d16e05398320.obj.mtl

# 47 vertex positions
v  7.248 19.636 -7.658
v  4.444 6.72637e-16 -10.985
v  4.444 19.798 -10.985
v  7.287 19.633 -7.612
v  7.248 4.68917e-16 -7.658
v  7.287 4.66101e-16 -7.612
v  10.992 14.514 6.161
v  3.516 19.993 4.419
v  7.289 14.514 9.163
v  7.218 19.993 1.417
v  18.723 14.519 -0.108
v  11.379 19.99 -1.957
v  0 14.888 9.11627e-16
v  3.698 14.882 -3.008
v  4.447 14.88 -3.617
v  4.382 14.784 -3.701
v  0 0 0
v  3.698 1.84187e-16 -3.008
v  4.447 2.21477e-16 -3.617
v  3.602 14.796 -4.701
v  4.309 19.99 -10.879
v  0.88 14.837 -8.191
v  7.013 19.99 -7.467
v  13.955 13.638 -7.338
v  13.907 4.47302e-16 -7.305
v  13.907 13.707 -7.305
v  15.24 11.795 -8.222
v  15.24 5.03452e-16 -8.222
v  13.955 4.49323e-16 -7.338
v  10.992 -3.77252e-16 6.161
v  7.289 -5.61072e-16 9.163
v  18.723 6.61309e-18 -0.108
v  19.296 3.50861e-17 -0.573
v  19.296 13.644 -0.573
v  3.516 -2.70586e-16 4.419
v  16.5 2.50624e-16 -4.093
v  11.189 6.5188e-16 -10.646
v  4.382 2.26621e-16 -3.701
v  3.602 2.87853e-16 -4.701
v  4.309 6.66147e-16 -10.879
v  0.88 5.01554e-16 -8.191
v  16.51 2.51175e-16 -4.102
v  17.631 3.10448e-16 -5.07
v  17.631 11.888 -5.07
v  16.5 13.657 -4.093
v  16.51 13.641 -4.102
v  11.189 13.779 -10.646

# 0 UV coordinates

# 78 vertex normals
vn 0.764649 0 -0.644447
vn 0.762778 0.000642817 -0.64666
vn 0.764649 -9.00941e-06 -0.644447
vn 0.762757 0 -0.646686
vn 0.422297 0.741835 0.520908
vn 0.422342 0.74187 0.520823
vn 0.422045 0.741871 0.521062
vn 0.422208 0.742502 0.52003
vn -0.42239 0.741802 -0.520881
vn -0.422427 0.741833 -0.520806
vn -0.422027 0.741836 -0.521127
vn -0.421926 0.741731 -0.521357
vn -0.422007 0.741791 -0.521207
vn -0.631019 0 -0.775767
vn -0.631019 0 -0.775767
vn -0.630866 0 -0.775892
vn -0.630866 0 -0.775892
vn -0.598442 0.645657 0.474336
vn -0.598294 0.645734 0.474417
vn -0.598551 0.645577 0.474306
vn 0 1 0
vn -0.566526 0 -0.824044
vn -0.566773 1.27815e-06 -0.823874
vn -0.566765 0 -0.82388
vn -2.27796e-18 -1 -6.45549e-17
vn 0.629747 0 0.7768
vn 0.62984 0 0.776725
vn 0.62984 0 0.776725
vn 0.630133 0 0.776487
vn 0.630133 0 0.776487
vn 0 -1 -6.12323e-17
vn -5.8203e-20 -1 -6.12878e-17
vn -3.9899e-24 -1 -6.12323e-17
vn 2.06132e-23 -1 -6.12323e-17
vn 1.19288e-23 -1 -6.12323e-17
vn -2.67715e-22 -1 -6.12324e-17
vn 2.56367e-24 -1 -6.12323e-17
vn 4.4239e-22 -1 -6.12323e-17
vn -3.68691e-23 -1 -6.12324e-17
vn 2.39734e-22 -1 -6.12323e-17
vn 5.49053e-24 -1 -6.12323e-17
vn -1.35792e-23 -1 -6.12323e-17
vn -0.616939 -0 -0.787011
vn -0.617563 -0.000232939 -0.786521
vn -0.616963 0 -0.786992
vn -0.61726 0.000344707 -0.786759
vn 0.796712 0 -0.604359
vn -0.782525 0 0.62262
vn -0.782652 -7.77796e-05 0.622459
vn -0.782591 0 0.622537
vn -0.782588 0.000113422 0.62254
vn 0.668969 0 0.743291
vn 0.653567 0 0.756869
vn 0.653567 0 0.756869
vn 0.59976 0.644665 -0.47402
vn 0.595603 0.650022 -0.471942
vn 0.625931 0.605773 -0.491171
vn 0.599099 0.645119 -0.474239
vn 0.599666 0.644767 -0.474
vn 0.599885 0.644463 -0.474135
vn 0.600054 0.644241 -0.474223
vn 0.599469 0.645002 -0.47393
vn 0.599356 0.645171 -0.473843
vn 0.602131 0.642761 -0.4736
vn 0.599532 0.645026 -0.473817
vn -0.613829 -0 -0.789439
vn -0.613828 0 -0.789439
vn 0.775723 0 -0.631073
vn -0.788524 0 0.615004
vn -0.788502 1.05926e-05 0.615032
vn -0.79087 -0.00147057 0.611983
vn -0.788519 2.75302e-05 0.61501
vn -0.79087 0 0.611984
vn -0.777124 -0.176698 0.604032
vn 0.783034 0 -0.621978
vn 0.783034 0 -0.621978
vn 0.595568 0.650022 -0.471986
vn 0.585741 0.666478 -0.46121

# Mesh 'defaultobject' with 90 faces
g defaultobject
usemtl DefaultMaterial
f  1//1 2//1 3//1
f  2//2 1//2 4//2
f  2//1 4//3 5//3
f  5//4 4//4 6//4
f  7//5 8//5 9//5
f  8//6 7//6 10//6
f  10//7 7//7 11//7
f  10//8 11//8 12//8
f  10//9 13//9 8//9
f  13//10 10//10 14//10
f  14//11 10//11 12//11
f  14//12 12//12 15//12
f  15//13 12//13 16//13
f  14//14 17//14 13//14
f  17//14 14//14 18//15
f  18//16 14//16 15//16
f  18//16 15//16 19//17
f  20//18 21//18 22//18
f  21//19 20//19 16//19
f  21//20 16//20 12//20
f  21//21 12//21 23//21
f  24//22 25//22 26//22
f  25//23 24//23 27//23
f  25//23 27//23 28//24
f  25//25 28//25 29//25
f  30//26 9//26 31//26
f  9//26 30//26 7//26
f  7//27 30//27 32//27
f  7//27 32//27 11//28
f  11//29 32//29 33//29
f  11//29 33//29 34//30
f  17//31 19//31 35//31
f  19//31 17//31 18//32
f  32//33 36//33 33//33
f  36//33 32//33 30//31
f  36//33 30//31 28//25
f  28//25 30//31 29//25
f  29//25 30//31 31//34
f  29//25 31//34 25//25
f  25//25 31//34 37//31
f  37//31 31//34 35//31
f  37//31 35//31 6//35
f  6//35 35//31 5//36
f  5//36 35//31 19//31
f  5//36 19//31 2//37
f  2//37 19//31 38//38
f  2//37 38//38 39//39
f  2//37 39//39 40//40
f  40//40 39//39 41//41
f  42//42 28//25 43//42
f  28//25 42//42 36//33
f  22//43 40//43 41//43
f  40//44 22//44 2//44
f  2//45 22//45 3//45
f  3//46 22//46 21//46
f  27//47 43//47 28//47
f  43//47 27//47 44//47
f  35//48 13//48 17//48
f  13//49 35//49 31//49
f  13//50 31//50 9//50
f  13//51 9//51 8//51
f  42//52 45//52 36//52
f  45//52 42//52 46//52
f  46//53 42//53 43//53
f  46//53 43//53 44//54
f  34//55 45//55 11//55
f  12//56 1//56 23//56
f  1//57 12//57 4//57
f  4//58 12//58 47//58
f  47//59 12//59 11//59
f  47//60 11//60 26//60
f  26//61 11//61 24//61
f  24//62 11//62 45//62
f  24//63 45//63 27//63
f  27//64 45//64 46//64
f  27//65 46//65 44//65
f  4//66 37//66 6//66
f  37//66 4//66 47//67
f  47//68 25//68 37//68
f  25//68 47//68 26//68
f  39//69 22//69 41//69
f  22//70 39//70 38//70
f  22//71 38//71 19//71
f  22//72 19//72 16//72
f  16//73 19//73 15//73
f  22//74 16//74 20//74
f  45//75 33//75 36//75
f  33//75 45//75 34//76
f  1//77 21//77 23//77
f  21//78 1//78 3//78

