# {"id":"DEB_LOD2_UUID_680e9ace-7a27-42eb-b1f7-9b2d26e43742","idOriginal":"DEB_LOD2_UUID_680e9ace-7a27-42eb-b1f7-9b2d26e43742","origin":[13.395132274979783,52.52172536119569],"elevation":32.175}
# Longitude: 13.395132274979783
# Latitude: 52.52172536119569
# Elevation: 32.175

# File produced by Open Asset Import Library (http://www.assimp.sf.net)
# (assimp v3.1.0)

mtllib DEB_LOD2_UUID_680e9ace-7a27-42eb-b1f7-9b2d26e43742.obj.mtl

# 8 vertex positions
v  16.179 1.917 -3.931
v  13.586 -4.99962e-16 8.165
v  16.179 2.40704e-16 -3.931
v  13.586 1.917 8.165
v  0 0 0
v  1.516 4.33158e-16 -7.074
v  0 1.917 1.17382e-16
v  1.516 1.917 -7.074

# 0 UV coordinates

# 9 vertex normals
vn 0.977786 0 0.209606
vn -1.1415e-24 -1 -6.12323e-17
vn -1.95185e-24 -1 -6.12323e-17
vn -0.977798 1.28311e-17 -0.209548
vn -0.977798 0 -0.209548
vn 0 1 0
vn -0.515117 0 0.85712
vn -0.515117 -5.24834e-17 0.85712
vn 0.209588 0 -0.97779

# Mesh 'defaultobject' with 12 faces
g defaultobject
usemtl DefaultMaterial
f  1//1 2//1 3//1
f  2//1 1//1 4//1
f  5//2 3//2 2//2
f  3//2 5//2 6//3
f  7//4 6//4 5//4
f  6//4 7//4 8//5
f  1//6 7//6 4//6
f  7//6 1//6 8//6
f  4//7 5//7 2//7
f  5//7 4//7 7//8
f  8//9 3//9 6//9
f  3//9 8//9 1//9

