# {"id":"DEB_LOD2_UUID_8c678374-13b3-4696-b1f2-c92eff663d3e","idOriginal":"DEB_LOD2_UUID_8c678374-13b3-4696-b1f2-c92eff663d3e","origin":[13.3670403977514,52.53617284722704],"elevation":35.118}
# Longitude: 13.3670403977514
# Latitude: 52.53617284722704
# Elevation: 35.118

# File produced by Open Asset Import Library (http://www.assimp.sf.net)
# (assimp v3.1.0)

mtllib DEB_LOD2_UUID_8c678374-13b3-4696-b1f2-c92eff663d3e.obj.mtl

# 26 vertex positions
v  13.178 14.212 5.925
v  13.864 -4.18094e-16 6.828
v  13.178 -3.62802e-16 5.925
v  13.864 14.212 6.828
v  5.513 15.55 -4.175
v  10.623 -1.56571e-16 2.557
v  5.513 2.55645e-16 -4.175
v  10.623 15.55 2.557
v  0.214 15.55 0.281
v  0 0 0
v  0.214 -1.72063e-17 0.281
v  0 15.55 9.52163e-16
v  12.638 15.55 5.214
v  7.12 14.212 9.385
v  12.638 14.212 5.214
v  7.12 15.55 9.385
v  5.901 15.55 7.778
v  5.111 -4.12461e-16 6.736
v  5.901 -4.76265e-16 7.778
v  5.111 15.55 6.736
v  8.345 -6.73556e-16 11
v  8.345 14.212 11
v  7.67 14.212 10.11
v  7.67 -6.19059e-16 10.11
v  7.12 -5.74665e-16 9.385
v  12.638 -3.19265e-16 5.214

# 0 UV coordinates

# 31 vertex normals
vn 0.796281 0 -0.604927
vn 0.796522 0 -0.604609
vn -0.795562 0 0.605873
vn -0.795562 -3.7099e-17 0.605873
vn 0.603003 0 0.797739
vn -0.796869 0 0.604152
vn 0.603025 0 0.797722
vn 0 1 0
vn 0 -1 -6.12323e-17
vn 1.37025e-23 -1 -6.12323e-17
vn -3.36389e-23 -1 -6.12324e-17
vn -4.28616e-24 -1 -6.12323e-17
vn 4.59029e-24 -1 -6.12323e-17
vn 1.51769e-23 -1 -6.12323e-17
vn 0 -1 -6.12323e-17
vn 1.81109e-24 -1 -6.12323e-17
vn -3.77964e-24 -1 -6.12323e-17
vn 0 -1 -6.12323e-17
vn -0.796685 0 0.604395
vn 0.796786 0 -0.604262
vn 0.796786 0 -0.604262
vn 0.796356 0.000166666 -0.604828
vn 0.796786 -4.4623e-05 -0.604262
vn 0.796356 0 -0.604828
vn -0.796732 0 0.604333
vn -0.796716 0 0.604354
vn -0.796691 5.39153e-06 0.604387
vn -0.796766 -1.78715e-05 0.604288
vn -0.796714 4.17974e-06 0.604356
vn -0.603719 4.88143e-17 -0.797198
vn -0.603719 0 -0.797198

# Mesh 'defaultobject' with 48 faces
g defaultobject
usemtl DefaultMaterial
f  1//1 2//1 3//1
f  2//1 1//1 4//1
f  5//2 6//2 7//2
f  6//2 5//2 8//2
f  9//3 10//3 11//3
f  10//3 9//3 12//4
f  13//5 14//5 15//5
f  14//5 13//5 16//5
f  17//6 18//6 19//6
f  18//6 17//6 20//6
f  4//7 21//7 2//7
f  21//7 4//7 22//7
f  23//8 15//8 14//8
f  15//8 23//8 22//8
f  15//8 22//8 1//8
f  1//8 22//8 4//8
f  21//9 3//9 2//9
f  3//9 21//9 24//10
f  3//9 24//10 25//11
f  3//9 25//11 26//12
f  26//12 25//11 6//13
f  6//13 25//11 19//14
f  6//13 19//14 18//15
f  6//13 18//15 7//16
f  7//16 18//15 11//17
f  7//16 11//17 10//18
f  20//19 11//19 18//19
f  11//19 20//19 9//19
f  9//8 5//8 12//8
f  5//8 9//8 8//8
f  8//8 9//8 20//8
f  8//8 20//8 17//8
f  8//8 17//8 13//8
f  13//8 17//8 16//8
f  13//20 6//20 8//20
f  6//20 13//20 15//21
f  6//22 15//22 1//22
f  6//23 1//23 26//23
f  26//24 1//24 3//24
f  22//25 14//25 21//25
f  14//8 22//8 23//8
f  25//26 17//26 19//26
f  17//27 25//27 24//27
f  17//28 24//28 21//28
f  17//26 21//29 14//29
f  17//26 14//29 16//26
f  12//30 7//30 10//30
f  7//30 12//30 5//31

