# {"id":"DEB_LOD2_UUID_7db47fbe-9d3d-44f7-8cad-a9b66d445903","idOriginal":"DEB_LOD2_UUID_7db47fbe-9d3d-44f7-8cad-a9b66d445903","origin":[13.397168463957604,52.51292952181192],"elevation":34.04}
# Longitude: 13.397168463957604
# Latitude: 52.51292952181192
# Elevation: 34.04

# File produced by Open Asset Import Library (http://www.assimp.sf.net)
# (assimp v3.1.0)

mtllib DEB_LOD2_UUID_7db47fbe-9d3d-44f7-8cad-a9b66d445903.obj.mtl

# 116 vertex positions
v  15.577 27.5 -2.15
v  14.46 27.5 -7.571
v  12.268 27.5 -4.303
v  17.769 27.5 -5.419
v  5.513 23.671 -8.697
v  5.367 5.18454e-16 -8.467
v  5.367 23.671 -8.467
v  5.513 5.32538e-16 -8.697
v  7.018 23.671 -11.071
v  7.018 6.77903e-16 -11.071
v  17.024 25.69 -11.393
v  13.033 27.585 -14.178
v  13.033 25.69 -14.178
v  17.024 27.585 -11.393
v  20.261 25.69 -9.134
v  20.261 27.585 -9.134
v  21.448 25.69 -8.306
v  21.448 27.585 -8.306
v  34.597 25.69 0.87
v  34.597 27.585 0.87
v  38.458 25.69 3.564
v  38.458 27.585 3.564
v  2.483 23.671 -3.917
v  0 0 0
v  0 23.671 1.44943e-15
v  2.483 2.39847e-16 -3.917
v  4.766 23.671 -7.518
v  4.766 4.60345e-16 -7.518
v  5.082 23.671 -8.017
v  5.082 4.909e-16 -8.017
v  0.972 24.999 0.632
v  2.864 27.585 1.863
v  5.347 27.585 -2.054
v  7.57 27.585 -5.561
v  8.377 27.585 -6.833
v  10.484 27.585 -10.157
v  7.497 23.672 -11.826
v  7.62 23.672 -12.02
v  10.228 23.671 -16.135
v  12.019 23.671 -18.96
v  14.824 23.672 -17.003
v  12.019 1.16097e-15 -18.96
v  14.824 1.04113e-15 -17.003
v  18.832 23.672 -14.206
v  18.832 8.69867e-16 -14.206
v  18.886 23.672 -14.169
v  18.886 8.67601e-16 -14.169
v  22.123 23.672 -11.91
v  22.123 7.29277e-16 -11.91
v  23.31 23.672 -11.082
v  23.31 6.78577e-16 -11.082
v  23.38 23.672 -11.033
v  23.38 6.75576e-16 -11.033
v  35.856 23.672 -2.326
v  35.856 1.42426e-16 -2.326
v  36.56 23.672 -1.835
v  36.56 1.12361e-16 -1.835
v  40.42 23.672 0.859
v  40.42 -5.25986e-17 0.859
v  12.425 27.86 2.549
v  12.268 27.86 -4.303
v  9.116 27.86 0.397
v  14.582 27.86 -0.668
v  15.577 27.86 -2.15
v  9.116 25.69 0.397
v  12.268 25.69 -4.303
v  14.46 25.69 -7.571
v  39.868 -9.91964e-17 1.62
v  38.458 -2.18232e-16 3.564
v  33.623 -6.26284e-16 10.228
v  32.496 -7.21439e-16 11.782
v  28.637 -5.56357e-16 9.086
v  28.186 -5.37069e-16 8.771
v  16.02 -1.67164e-17 0.273
v  15.798 -7.22542e-18 0.118
v  15.668 -1.71451e-18 0.028
v  15.639 -4.28626e-18 0.07
v  14.013 -1.47692e-16 2.412
v  10.228 9.87984e-16 -16.135
v  13.453 -1.97046e-16 3.218
v  7.62 7.36013e-16 -12.02
v  10.807 -4.30402e-16 7.029
v  7.497 7.24134e-16 -11.826
v  9.841 -3.91948e-16 6.401
v  6.533 -2.60176e-16 4.249
v  2.864 -1.14076e-16 1.863
v  0.972 -3.86988e-17 0.632
v  32.496 25.69 11.782
v  29.989 25.69 7.223
v  28.637 25.69 9.086
v  6.533 25.69 4.249
v  5.347 25.69 -2.054
v  2.864 25.69 1.863
v  9.841 25.69 6.401
v  10.807 25.69 7.029
v  7.57 25.69 -5.561
v  13.453 25.69 3.218
v  8.377 25.69 -6.833
v  14.013 25.69 2.412
v  10.484 25.69 -10.157
v  15.639 25.69 0.07
v  15.668 25.69 0.028
v  15.798 25.69 0.118
v  16.791 25.69 -1.361
v  33.623 25.69 10.228
v  16.791 25.31 -1.361
v  29.989 25.31 7.223
v  17.769 25.69 -5.419
v  15.577 25.69 -2.15
v  14.582 25.69 -0.668
v  12.425 25.69 2.549
v  15.798 25.31 0.118
v  16.02 25.31 0.273
v  28.186 25.31 8.771
v  28.637 25.31 9.086
v  39.868 24.773 1.62

# 0 UV coordinates

# 132 vertex normals
vn 0 1 0
vn -0.844266 0 -0.535924
vn -0.844583 0 -0.535425
vn -0.572262 0 0.820071
vn -0.572289 0 0.820052
vn -0.572117 0 0.820172
vn -0.572277 0 0.82006
vn -0.572221 0 0.820099
vn -0.844601 0 -0.535396
vn -0.844568 0 -0.535448
vn -0.844845 0 -0.535012
vn -0.636263 0.657644 -0.403329
vn -0.636342 0.657565 -0.403333
vn -0.636301 0.657592 -0.403354
vn -0.636276 0.657592 -0.403393
vn -0.636338 0.657553 -0.403359
vn -0.636518 0.657546 -0.403086
vn -0.636496 0.65755 -0.403114
vn -0.636099 0.657659 -0.403562
vn -0.636003 0.657653 -0.403723
vn -0.636244 0.65765 -0.403348
vn -0.636279 0.657633 -0.403321
vn -0.636461 0.657702 -0.402922
vn -0.636197 0.657688 -0.403361
vn -0.636194 0.657688 -0.403366
vn -0.636256 0.657646 -0.403336
vn -0.636238 0.657647 -0.403364
vn 0.572186 0 -0.820124
vn 0.572186 0 -0.820124
vn 0.572281 0 -0.820058
vn 0.565246 0 -0.824923
vn 0.572289 0 -0.820052
vn 0.572117 0 -0.820172
vn 0.573462 0 -0.819232
vn 0.572306 0 -0.82004
vn 0.572053 0 -0.820217
vn 0.572321 0 -0.820029
vn -0.830525 0 -0.556982
vn -0.830483 0 -0.557044
vn 0.545371 0 -0.838195
vn -2.99125e-24 -1 -6.12323e-17
vn 0 -1 -6.12323e-17
vn -2.66444e-24 -1 -6.12323e-17
vn 0 -1 -6.12324e-17
vn -2.28382e-22 -1 -6.12323e-17
vn 4.23317e-24 -1 -6.12323e-17
vn -3.04434e-22 -1 -6.12325e-17
vn 5.42566e-24 -1 -6.12323e-17
vn -5.96804e-24 -1 -6.12323e-17
vn -2.87586e-22 -1 -6.12324e-17
vn 6.42695e-24 -1 -6.12323e-17
vn -1.83664e-23 -1 -6.12323e-17
vn 4.64182e-22 -1 -6.12323e-17
vn 7.91609e-22 -1 -6.12325e-17
vn 0 -1 -6.1233e-17
vn -8.59478e-23 -1 -6.12323e-17
vn 4.82252e-23 -1 -6.12323e-17
vn 1.26074e-22 -1 -6.12323e-17
vn -1.32881e-23 -1 -6.12323e-17
vn 0 -1 -6.12323e-17
vn 1.16201e-22 -1 -6.12324e-17
vn 0 -1 -6.12323e-17
vn 1.28349e-23 -1 -6.12323e-17
vn -5.60612e-23 -1 -6.12323e-17
vn 7.65619e-23 -1 -6.12323e-17
vn -6.905e-23 -1 -6.12323e-17
vn -6.37307e-24 -1 -6.12323e-17
vn 2.08652e-23 -1 -6.12323e-17
vn -1.01158e-23 -1 -6.12323e-17
vn 1.96926e-23 -1 -6.12323e-17
vn -0.545225 0 0.83829
vn 0.830562 0 0.556926
vn 0.830578 0 0.556903
vn 0.830236 0 0.557412
vn 0.830232 0 0.557418
vn 0.844601 0 0.535396
vn 0.844612 0 0.535379
vn 0.844399 0 0.535715
vn 0.844594 0 0.535407
vn -0.809337 -0 -0.587345
vn 0.545193 0 -0.83831
vn -0.844398 -0 -0.535717
vn -0.844398 0 -0.535717
vn 0.434957 0.649409 -0.623763
vn 0.435173 0.649404 -0.623618
vn 0.435194 0.649391 -0.623617
vn 0.4352 0.649391 -0.623613
vn 0.427961 0.653272 -0.624568
vn 0.435169 0.649454 -0.623569
vn 0.435037 0.649455 -0.623659
vn 0.435037 0.649455 -0.623659
vn 0.43516 0.649454 -0.623575
vn 0.437344 0.646827 -0.624777
vn 0.43522 0.649377 -0.623613
vn 0.435151 0.649386 -0.623652
vn 0.43496 0.649513 -0.623652
vn 0.435219 0.64936 -0.623632
vn 0.435271 0.649296 -0.623661
vn -0.545193 0 0.83831
vn -0.57247 0 0.819926
vn -0.56921 0 0.822192
vn -0.57247 -2.44413e-05 0.819926
vn -0.569124 4.36031e-05 0.822252
vn -0.56921 0 0.822192
vn -0.572639 0 0.819808
vn -0.572609 2.02743e-05 0.819829
vn -0.572707 -5.07149e-05 0.81976
vn -0.572639 1.45437e-05 0.819808
vn -0.57261 2.18497e-05 0.819828
vn -0.572706 0 0.819761
vn -0.572706 0 0.819761
vn -0.844558 0 -0.535465
vn -0.844649 0 -0.535321
vn -0.844571 0 -0.535443
vn -0.545173 0 0.838324
vn -0.545309 0 0.838235
vn -0.545049 0 0.838404
vn -0.54511 0 0.838365
vn -0.54511 0 0.838365
vn -0.545362 0 0.838201
vn 0.821423 0 0.570319
vn 0.821238 0 0.570586
vn 0.821434 0 0.570304
vn 0.822894 0 0.568194
vn 0.822894 -8.87852e-11 0.568194
vn 0.809523 0 0.587088
vn 0.809403 0 0.587254
vn 0.809492 0 0.587131
vn 0.809492 0 0.587131
vn 0.809472 0 0.587158
vn 0.809472 0 0.587158
vn -0.844819 -0 -0.535053

# Mesh 'defaultobject' with 219 faces
g defaultobject
usemtl DefaultMaterial
f  1//1 2//1 3//1
f  2//1 1//1 4//1
f  5//2 6//2 7//2
f  6//2 5//2 8//2
f  8//3 5//3 9//3
f  8//3 9//3 10//3
f  11//4 12//4 13//4
f  12//4 11//4 14//4
f  14//5 11//5 15//5
f  14//5 15//5 16//5
f  16//6 15//6 17//6
f  16//6 17//6 18//6
f  18//7 17//7 19//7
f  18//7 19//7 20//7
f  20//8 19//8 21//8
f  20//8 21//8 22//8
f  23//9 24//9 25//9
f  24//9 23//9 26//9
f  26//10 23//10 27//10
f  26//10 27//10 28//10
f  28//11 27//11 29//11
f  28//11 29//11 30//11
f  31//12 23//12 25//12
f  23//13 31//13 32//13
f  23//14 32//14 33//14
f  23//15 33//15 27//15
f  27//16 33//16 34//16
f  27//17 34//17 29//17
f  29//18 34//18 7//18
f  7//19 34//19 35//19
f  7//20 35//20 5//20
f  5//21 35//21 9//21
f  9//22 35//22 36//22
f  9//23 36//23 37//23
f  37//24 36//24 38//24
f  38//24 36//24 39//25
f  39//26 36//26 12//26
f  39//27 12//27 40//27
f  41//28 42//28 40//28
f  42//28 41//28 43//29
f  43//30 41//30 44//30
f  43//30 44//30 45//30
f  45//31 44//31 46//31
f  45//31 46//31 47//31
f  47//32 46//32 48//32
f  47//32 48//32 49//32
f  49//33 48//33 50//33
f  49//33 50//33 51//33
f  51//34 50//34 52//34
f  51//34 52//34 53//34
f  53//35 52//35 54//35
f  53//35 54//35 55//35
f  55//36 54//36 56//36
f  55//36 56//36 57//36
f  57//37 56//37 58//37
f  57//37 58//37 59//37
f  60//1 61//1 62//1
f  61//1 60//1 63//1
f  61//1 63//1 64//1
f  61//38 65//38 62//38
f  65//38 61//38 66//38
f  66//38 61//1 3//1
f  66//39 3//39 2//39
f  66//39 2//39 67//39
f  61//40 1//40 3//40
f  1//40 61//40 64//40
f  68//41 57//41 59//41
f  57//41 68//41 69//42
f  57//41 69//42 70//42
f  57//41 70//42 55//43
f  55//43 70//42 53//42
f  53//42 70//42 71//44
f  53//42 71//44 72//42
f  53//42 72//42 73//45
f  53//42 73//45 74//46
f  53//42 74//46 51//47
f  51//47 74//46 49//48
f  49//48 74//46 47//49
f  47//49 74//46 45//50
f  45//50 74//46 43//51
f  43//51 74//46 42//52
f  42//52 74//46 75//53
f  42//52 75//53 76//54
f  42//52 76//54 77//55
f  42//52 77//55 78//56
f  42//52 78//56 79//57
f  79//57 78//56 80//58
f  79//57 80//58 81//59
f  81//59 80//58 82//60
f  81//59 82//60 83//61
f  83//61 82//60 10//62
f  10//62 82//60 84//60
f  10//62 84//60 8//63
f  8//63 84//60 85//42
f  8//63 85//42 6//64
f  6//64 85//42 30//65
f  30//65 85//42 28//66
f  28//66 85//42 26//67
f  26//67 85//42 86//68
f  26//67 86//68 87//69
f  26//67 87//69 24//70
f  88//1 89//1 90//1
f  91//1 92//1 93//1
f  92//1 91//1 94//1
f  92//1 94//1 95//1
f  92//1 95//1 96//1
f  96//1 95//1 97//1
f  96//1 97//1 98//1
f  98//1 97//1 99//1
f  98//1 99//1 100//1
f  100//1 99//1 101//1
f  100//1 101//1 102//1
f  100//1 102//1 103//1
f  100//1 103//1 104//1
f  100//1 104//1 13//1
f  13//1 104//1 89//1
f  13//1 89//1 11//1
f  11//1 89//1 15//1
f  15//1 89//1 17//1
f  17//1 89//1 19//1
f  19//1 89//1 88//1
f  19//1 88//1 105//1
f  19//1 105//1 21//1
f  89//71 106//71 107//71
f  106//71 89//71 104//71
f  108//72 1//72 109//72
f  1//72 108//72 4//72
f  110//73 60//73 111//73
f  60//73 110//73 63//73
f  63//74 110//74 109//74
f  63//74 109//74 64//74
f  64//1 109//74 1//1
f  104//75 112//75 106//75
f  112//75 104//75 103//75
f  92//76 32//76 93//76
f  32//76 92//76 33//76
f  33//77 92//77 96//77
f  33//77 96//77 34//77
f  34//78 96//78 98//78
f  34//78 98//78 35//78
f  35//77 98//77 100//77
f  35//77 100//77 36//77
f  36//79 100//79 13//79
f  36//79 13//79 12//79
f  112//1 107//1 106//1
f  107//1 112//1 113//1
f  107//1 113//1 114//1
f  107//1 114//1 115//1
f  90//80 107//80 115//80
f  107//80 90//80 89//80
f  2//81 108//81 67//81
f  108//81 2//81 4//81
f  9//82 83//82 10//82
f  83//82 9//82 37//83
f  12//84 41//84 40//84
f  41//85 12//85 14//85
f  41//86 14//86 44//86
f  44//86 14//86 16//87
f  44//88 16//88 46//88
f  46//89 16//89 48//89
f  48//90 16//90 18//90
f  48//90 18//90 50//91
f  50//92 18//92 20//92
f  50//93 20//93 52//93
f  52//94 20//94 54//94
f  54//95 20//95 22//95
f  54//96 22//96 56//96
f  56//97 22//97 116//97
f  56//98 116//98 58//98
f  60//99 65//99 111//99
f  65//99 60//99 62//99
f  113//100 112//100 74//100
f  75//101 102//101 76//101
f  102//102 75//102 74//102
f  102//103 74//103 112//103
f  102//101 112//104 103//104
f  73//105 113//105 74//105
f  113//106 73//106 72//106
f  113//107 72//107 71//107
f  113//108 71//108 114//108
f  114//109 71//109 115//109
f  115//110 71//110 88//110
f  115//110 88//110 90//111
f  38//112 83//112 37//112
f  83//112 38//112 81//112
f  81//113 38//113 39//113
f  81//113 39//113 79//113
f  79//114 39//114 40//114
f  79//114 40//114 42//114
f  85//115 93//115 86//115
f  93//115 85//115 91//115
f  91//116 85//116 84//116
f  91//116 84//116 94//116
f  94//117 84//117 82//117
f  94//117 82//117 95//117
f  87//118 25//118 24//118
f  25//118 87//118 31//119
f  31//120 87//120 86//120
f  31//120 86//120 32//120
f  32//13 86//120 93//1
f  80//121 95//121 82//121
f  95//121 80//121 97//121
f  97//122 80//122 78//122
f  97//122 78//122 99//122
f  99//123 78//123 77//123
f  99//123 77//123 101//123
f  101//124 77//124 76//124
f  101//124 76//124 102//125
f  70//126 88//126 71//126
f  88//126 70//126 105//126
f  105//127 70//127 69//127
f  105//127 69//127 21//127
f  21//128 69//128 68//128
f  21//128 68//128 22//128
f  22//128 68//128 116//129
f  116//130 68//130 59//130
f  116//130 59//130 58//131
f  29//132 6//132 30//132
f  6//132 29//132 7//132

