# {"id":"DEB_LOD2_UUID_59f90c16-55ee-4be3-a10d-2f8153bb4e78","idOriginal":"DEB_LOD2_UUID_59f90c16-55ee-4be3-a10d-2f8153bb4e78","origin":[13.411190306999732,52.52560382457411],"elevation":37.498}
# Longitude: 13.411190306999732
# Latitude: 52.52560382457411
# Elevation: 37.498

# File produced by Open Asset Import Library (http://www.assimp.sf.net)
# (assimp v3.1.0)

mtllib DEB_LOD2_UUID_59f90c16-55ee-4be3-a10d-2f8153bb4e78.obj.mtl

# 66 vertex positions
v  0.218 2.197 0.089
v  0.16 -3.7964e-18 0.062
v  0.218 -5.44968e-18 0.089
v  0.16 2.197 0.062
v  1.02 2.197 0.032
v  0.781 -3.17184e-17 0.518
v  1.02 -1.95943e-18 0.032
v  0.781 2.197 0.518
v  2.839 2.197 0.865
v  2.839 -5.2966e-17 0.865
v  2.653 -4.13135e-16 6.747
v  0.648 2.197 5.754
v  0.648 -3.52331e-16 5.754
v  2.653 2.197 6.747
v  6.532 -5.30823e-16 8.669
v  6.532 2.197 8.669
v  6.3 2.197 -1.769
v  6.142 8.03981e-17 -1.313
v  6.3 1.0832e-16 -1.769
v  6.142 2.197 -1.313
v  0.043 2.197 0.015
v  0 0 0
v  0.043 -9.18485e-19 0.015
v  0 2.197 1.34527e-16
v  0.344 -9.61348e-18 0.157
v  0.329 2.197 0.148
v  0.329 -9.06239e-18 0.148
v  0.383 -1.10831e-17 0.181
v  0.344 2.197 0.157
v  0.383 2.197 0.181
v  8.044 1.70838e-17 -0.279
v  8.044 2.197 -0.279
v  6.64 2.197 3.273
v  8.389 -2.53012e-16 4.132
v  6.64 -2.00413e-16 3.273
v  8.389 2.197 4.132
v  7.906 -4.53119e-18 0.074
v  7.906 2.197 0.074
v  0.538 2.197 0.289
v  0.488 -1.53693e-17 0.251
v  0.538 -1.76961e-17 0.289
v  0.488 2.197 0.251
v  0.674 -3.48718e-16 5.695
v  3.092 2.11741e-16 -3.458
v  0.587 -2.01454e-17 0.329
v  0.436 -1.3165e-17 0.215
v  0.274 -7.22542e-18 0.118
v  0.102 -2.32683e-18 0.038
v  2.027 2.46032e-16 -4.018
v  1.906 2.4995e-16 -4.082
v  0.769 -3.08611e-17 0.504
v  0.726 -2.80444e-17 0.458
v  0.681 -2.5289e-17 0.413
v  0.635 -2.2656e-17 0.37
v  0.635 2.197 0.37
v  0.587 2.197 0.329
v  0.681 2.197 0.413
v  0.274 2.197 0.118
v  2.027 2.197 -4.018
v  1.906 2.197 -4.082
v  3.092 2.197 -3.458
v  0.102 2.197 0.038
v  0.436 2.197 0.215
v  0.726 2.197 0.458
v  0.769 2.197 0.504
v  0.674 2.197 5.695

# 0 UV coordinates

# 66 vertex normals
vn -0.42203 0 0.906582
vn 0.897362 0 0.441295
vn -0.416362 0 0.909199
vn -0.443813 0 0.896119
vn -0.443977 0 0.896038
vn 0.944888 0 0.327395
vn -0.329372 0 0.9442
vn -0.329372 -5.78156e-17 0.9442
vn -0.514495 0 0.857493
vn -0.524098 -8.94598e-05 0.851658
vn -0.514495 0.000234189 0.857493
vn -0.524098 0 0.851658
vn 0.477622 0 -0.878565
vn 0.440839 0 -0.897586
vn 0.93136 0 0.3641
vn -0.605084 0 0.796162
vn -5.00181e-24 -1 -6.12323e-17
vn -9.75114e-24 -1 -6.12324e-17
vn -6.05746e-24 -1 -6.12323e-17
vn -1.32122e-23 -1 -6.12323e-17
vn 1.41528e-22 -1 -6.12321e-17
vn 0 -1 -6.12323e-17
vn -1.75114e-24 -1 -6.12323e-17
vn 1.7084e-23 -1 -6.12323e-17
vn -8.62291e-25 -1 -6.12323e-17
vn 0 -1 -6.12323e-17
vn -5.78928e-24 -1 -6.12323e-17
vn 8.72547e-24 -1 -6.12323e-17
vn -2.88606e-24 -1 -6.12323e-17
vn 0 -1 -6.12323e-17
vn -3.99726e-24 -1 -6.12323e-17
vn 1.57145e-23 -1 -6.12323e-17
vn -2.9414e-24 -1 -6.12323e-17
vn 2.93349e-24 -1 -6.12323e-17
vn -1.45978e-24 -1 -6.12323e-17
vn -1.50378e-24 -1 -6.12323e-17
vn -1.06009e-24 -1 -6.12323e-17
vn 2.44444e-24 -1 -6.12323e-17
vn -1.61164e-23 -1 -6.12323e-17
vn -4.78796e-23 -1 -6.12324e-17
vn -1.94832e-23 -1 -6.12323e-17
vn 2.2339e-23 -1 -6.12323e-17
vn -6.44162e-24 -1 -6.12323e-17
vn -0.649486 0 0.760373
vn -0.682884 0 0.730527
vn -0.632376 0 0.774661
vn -0.478852 0 0.877896
vn 0.46755 0 -0.883967
vn 0.465404 0.000151179 -0.885098
vn 0.46755 -0.00132892 -0.883966
vn 0.465404 0 -0.885098
vn 0.465871 0 -0.884852
vn -0.382352 0 0.924017
vn 0.929834 0 0.36798
vn -0.539955 0 0.841694
vn -0.906092 2.59062e-17 -0.42308
vn -0.906092 0 -0.42308
vn -0.707107 0 0.707107
vn -0 1 0
vn -0.915086 0 -0.403259
vn -0.912521 0 -0.409029
vn -0.730527 0 0.682884
vn -0.363208 0 0.931708
vn -0.459854 0 0.887994
vn 0.925479 0 0.3788
vn -0.56921 0 0.822192

# Mesh 'defaultobject' with 126 faces
g defaultobject
usemtl DefaultMaterial
f  1//1 2//1 3//1
f  2//1 1//1 4//1
f  5//2 6//2 7//2
f  6//2 5//2 8//2
f  9//3 7//3 10//3
f  7//3 9//3 5//3
f  11//4 12//4 13//4
f  12//4 11//4 14//4
f  14//5 11//5 15//5
f  14//5 15//5 16//5
f  17//6 18//6 19//6
f  18//6 17//6 20//6
f  21//7 22//7 23//7
f  22//7 21//7 24//8
f  25//9 26//9 27//9
f  26//10 25//10 28//10
f  26//11 28//11 29//11
f  29//12 28//12 30//12
f  20//13 31//13 18//13
f  31//13 20//13 32//13
f  33//14 34//14 35//14
f  34//14 33//14 36//14
f  32//15 37//15 31//15
f  37//15 32//15 38//15
f  39//16 40//16 41//16
f  40//16 39//16 42//16
f  15//17 11//17 34//17
f  35//18 34//17 11//17
f  13//19 35//18 11//17
f  37//20 35//18 13//19
f  43//21 37//20 13//19
f  10//22 37//20 43//21
f  31//22 37//20 10//22
f  18//23 31//22 10//22
f  19//24 18//23 10//22
f  7//25 19//24 10//22
f  44//26 19//24 7//25
f  45//26 44//26 7//25
f  41//27 44//26 45//26
f  40//28 44//26 41//27
f  46//29 44//26 40//28
f  28//30 44//26 46//29
f  25//31 44//26 28//30
f  27//32 44//26 25//31
f  47//33 44//26 27//32
f  3//34 44//26 47//33
f  2//35 44//26 3//34
f  48//22 44//26 2//35
f  23//36 44//26 48//22
f  22//37 44//26 23//36
f  49//38 44//26 22//37
f  50//39 49//38 22//37
f  6//40 51//40 7//25
f  52//41 7//25 51//40
f  53//42 7//25 52//41
f  54//43 7//25 53//42
f  45//26 7//25 54//43
f  55//44 45//44 54//44
f  45//44 55//44 56//44
f  57//45 54//45 53//45
f  54//45 57//45 55//45
f  56//46 41//46 45//46
f  41//46 56//46 39//46
f  26//47 47//47 27//47
f  47//47 26//47 58//47
f  59//48 50//48 60//48
f  50//49 59//49 61//49
f  50//50 61//50 49//50
f  49//51 61//51 44//51
f  61//52 19//52 44//52
f  19//52 61//52 17//52
f  4//53 48//53 2//53
f  48//53 4//53 62//53
f  38//54 35//54 37//54
f  35//54 38//54 33//54
f  63//55 28//55 46//55
f  28//55 63//55 30//55
f  24//56 50//56 22//56
f  50//56 24//56 60//57
f  64//58 53//58 52//58
f  53//58 64//58 57//58
f  64//59 65//59 5//59
f  8//59 5//59 65//59
f  60//59 24//59 59//59
f  61//59 59//59 24//59
f  21//59 61//59 24//59
f  62//59 61//59 21//59
f  4//59 61//59 62//59
f  1//59 61//59 4//59
f  58//59 61//59 1//59
f  26//59 61//59 58//59
f  29//59 61//59 26//59
f  30//59 61//59 29//59
f  63//59 61//59 30//59
f  42//59 61//59 63//59
f  39//59 61//59 42//59
f  56//59 61//59 39//59
f  55//59 61//59 56//59
f  57//59 61//59 55//59
f  64//59 61//59 57//59
f  5//59 61//59 64//59
f  9//59 61//59 5//59
f  17//59 61//59 9//59
f  66//59 17//59 9//59
f  12//59 17//59 66//59
f  14//59 17//59 12//59
f  20//59 17//59 14//59
f  32//59 20//59 14//59
f  33//59 32//59 14//59
f  16//59 33//59 14//59
f  38//59 32//59 33//59
f  36//59 33//59 16//59
f  66//60 13//60 12//60
f  13//60 66//60 43//60
f  43//61 66//61 9//61
f  43//61 9//61 10//61
f  65//62 52//62 51//62
f  52//62 65//62 64//62
f  62//63 23//63 48//63
f  23//63 62//63 21//63
f  58//64 3//64 47//64
f  3//64 58//64 1//64
f  36//65 15//65 34//65
f  15//65 36//65 16//65
f  42//66 46//66 40//66
f  46//66 42//66 63//66

