# {"id":"DEB_LOD2_UUID_92220c46-9b95-4c68-8e85-85b086f7581d","idOriginal":"DEB_LOD2_UUID_92220c46-9b95-4c68-8e85-85b086f7581d","origin":[13.38231882902522,52.521940486979254],"elevation":33.86}
# Longitude: 13.38231882902522
# Latitude: 52.521940486979254
# Elevation: 33.86

# File produced by Open Asset Import Library (http://www.assimp.sf.net)
# (assimp v3.1.0)

mtllib DEB_LOD2_UUID_92220c46-9b95-4c68-8e85-85b086f7581d.obj.mtl

# 78 vertex positions
v  1.021 17.83 5.83
v  7.14 17.87 4.674
v  1.014 17.87 5.785
v  8.08 12.855 10.219
v  12.902 17.87 3.629
v  8.11 12.855 10.214
v  10.264 12.866 9.811
v  19.385 17.87 2.453
v  12.88 12.879 9.322
v  13.863 12.883 9.138
v  13.933 12.884 9.125
v  19.392 17.832 2.495
v  16.423 -1.27529e-15 20.827
v  14.814 13.301 11.756
v  14.814 -7.19847e-16 11.756
v  16.595 -1.33456e-15 21.795
v  16.423 13.327 20.827
v  16.595 13.33 21.795
v  14.544 13.489 9.076
v  20.356 17.832 8.021
v  14.544 13.348 9.076
v  20.356 19.202 8.021
v  22.386 19.202 19.666
v  14.938 13.489 11.334
v  14.307 12.868 11.458
v  23.319 19.202 25.015
v  16.368 13.106 21.844
v  18.021 13.176 30.902
v  23.862 19.202 28.126
v  24.138 19.202 29.711
v  10.647 13.568 -1.931
v  18.376 2.04087e-16 -3.333
v  10.647 1.1824e-16 -1.931
v  18.376 13.568 -3.333
v  10.161 12.838 21.977
v  4.048 -1.41496e-15 23.108
v  10.161 -1.3457e-15 21.977
v  4.048 17.83 23.108
v  16.368 -1.33756e-15 21.844
v  8.747 12.868 14.124
v  8.747 -8.64846e-16 14.124
v  14.938 -6.94007e-16 11.334
v  14.307 -7.016e-16 11.458
v  8.049 12.884 10.254
v  8.044 12.884 10.226
v  8.333 12.878 11.832
v  1.989 17.83 11.353
v  14.533 13.347 9.013
v  1.014 18.07 5.785
v  7.14 18.07 4.674
v  12.902 18.07 3.629
v  19.385 18.07 2.453
v  8.162 13.568 -1.481
v  8.162 9.06851e-17 -1.481
v  8.044 -6.26162e-16 10.226
v  8.049 -6.27876e-16 10.254
v  8.333 -7.24501e-16 11.832
v  23.862 -1.72222e-15 28.126
v  23.319 -1.53173e-15 25.015
v  22.386 -1.2042e-15 19.666
v  20.356 -4.91145e-16 8.021
v  19.392 -1.52775e-16 2.495
v  19.385 -1.50203e-16 2.453
v  0 13.568 8.308e-16
v  0 0 0
v  18.021 -1.8922e-15 30.902
v  24.138 -1.81927e-15 29.711
v  14.544 -5.55745e-16 9.076
v  14.533 -5.51887e-16 9.013
v  13.933 -5.58745e-16 9.125
v  13.863 -5.59541e-16 9.138
v  12.88 -5.70808e-16 9.322
v  10.264 -6.0075e-16 9.811
v  8.11 -6.25427e-16 10.214
v  8.08 -6.25733e-16 10.219
v  1.989 -6.95171e-16 11.353
v  1.021 -3.56985e-16 5.83
v  1.014 -3.54229e-16 5.785

# 0 UV coordinates

# 132 vertex normals
vn 0.117783 0.751227 0.64945
vn 0.118838 0.746346 0.654863
vn 0.118769 0.746346 0.654875
vn 0.10851 0.751216 0.651076
vn 0.118702 0.746401 0.654825
vn 0.118786 0.746375 0.654839
vn 0.118684 0.746454 0.654767
vn 0.119613 0.745892 0.655238
vn 0.11021 0.750871 0.651188
vn 0.11941 0.746048 0.655099
vn -0.98463 0 0.174652
vn -0.984578 0.000205655 0.174944
vn -0.98463 -2.19e-05 0.174652
vn -0.984578 0 0.174945
vn -0.178602 -0 -0.983921
vn -0.178602 0 -0.983921
vn -0.684886 0.718802 0.119392
vn -0.684981 0.71869 0.119523
vn -0.684742 0.718987 0.119106
vn -0.684415 0.719262 0.119324
vn -0.684912 0.718772 0.119428
vn -0.684905 0.718772 0.119465
vn -0.684906 0.71877 0.11947
vn -0.684552 0.719427 0.117531
vn -0.684874 0.718808 0.119428
vn -0.684812 0.718851 0.119528
vn -0.684898 0.718812 0.119263
vn -0.178482 -0 -0.983943
vn 0.181928 0 0.983312
vn -0.210999 -0 -0.977486
vn 0.984173 0 -0.177209
vn 0.984173 0 -0.177209
vn -0.192826 -0 -0.981233
vn -0.192826 0 -0.981233
vn 0.614007 0.781648 -0.109646
vn 0.616764 0.779699 -0.108038
vn 0.61674 0.779716 -0.108054
vn 0.685037 0.718456 -0.120602
vn 0.616732 0.779717 -0.108093
vn 0.535646 0.50083 0.679892
vn 0.616777 0.779689 -0.108034
vn -0.59529 0.796696 0.104429
vn -0.605016 0.790753 0.0930889
vn -0.595644 0.7965 0.103909
vn 0.178447 0 0.983949
vn 0.17845 0 0.983949
vn 0.178485 0 0.983943
vn -0.178188 -0 -0.983996
vn 0.984427 0 -0.175795
vn 0.984188 2.99137e-06 -0.177129
vn 0.984427 -0.000168707 -0.175795
vn 0.984188 0 -0.177129
vn -0.506722 0 0.862109
vn 0.985107 0 -0.171942
vn 0.985126 1.85865e-05 -0.171831
vn 0.985143 6.26961e-05 -0.171734
vn 0.985133 0 -0.171792
vn 0.985123 -7.08193e-05 -0.171853
vn 0.985136 4.63987e-05 -0.171774
vn 0.985133 0 -0.171793
vn 2.22045e-19 -1 -6.12288e-17
vn 3.94395e-19 -1 -6.12792e-17
vn -1.99054e-19 1 6.12588e-17
vn 0 -1 -6.12165e-17
vn 0 1 6.12401e-17
vn 0.985133 0 -0.171794
vn 0.985698 -0.00461626 -0.168461
vn -0.178535 6.02485e-17 -0.983934
vn -0.178535 0 -0.983934
vn 0.191114 0 0.981568
vn 0.191114 -0 0.981568
vn 1.07145e-23 -1 -6.12324e-17
vn -1.4755e-23 -1 -6.12323e-17
vn 0 -1 -6.12323e-17
vn -2.93258e-24 -1 -6.12323e-17
vn 4.5539e-22 -1 -6.1232e-17
vn -9.43498e-23 -1 -6.12324e-17
vn 1.01732e-21 -1 -6.12315e-17
vn 3.60118e-24 -1 -6.12323e-17
vn -1.08224e-23 -1 -6.12324e-17
vn -9.86036e-24 -1 -6.12324e-17
vn -8.48873e-22 -1 -6.12336e-17
vn 1.0533e-21 -1 -6.12308e-17
vn -1.55604e-24 -1 -6.12323e-17
vn 1.01135e-24 -1 -6.12323e-17
vn -1.56087e-23 -1 -6.12324e-17
vn 9.59201e-23 -1 -6.12322e-17
vn 0 -1 -6.12323e-17
vn 8.33026e-25 -1 -6.12323e-17
vn 3.13602e-21 -1 -6.12151e-17
vn -1.28068e-23 -1 -6.12323e-17
vn -3.22979e-24 -1 -6.12323e-17
vn -2.68054e-24 -1 -6.12323e-17
vn -1.71639e-23 -1 -6.12324e-17
vn -3.68298e-24 -1 -6.12323e-17
vn 0.984075 0 -0.177752
vn 0.984075 0 -0.177752
vn 0.190868 0 0.981616
vn 0.190868 0 0.981616
vn 0.164404 0 0.986393
vn 0.183903 0 0.982944
vn 0.183903 0 0.982944
vn 0.183744 0 0.982974
vn 0.183744 0 0.982974
vn 0.183987 0 0.982929
vn 0.183987 0 0.982929
vn 0.182587 0 0.98319
vn 0.182587 0 0.98319
vn 0.183498 0 0.98302
vn 0.183498 0 0.98302
vn -0.990158 -0.135963 0.0331841
vn -0.984998 0 0.172566
vn 0 1 0
vn -0.984983 0 0.172649
vn -0.988083 -0.00831011 0.1537
vn -0.984986 5.85906e-05 0.172636
vn -0.985004 -3.01086e-05 0.172533
vn -0.984993 7.65952e-05 0.172594
vn -0.984983 0 0.172649
vn -0.985098 0 0.171994
vn -0.985116 -4.90306e-07 0.171894
vn -0.985098 1.75243e-05 0.171994
vn -0.985116 0 0.171894
vn 0.985175 0 -0.171552
vn -0.983753 0 0.179526
vn -0.983753 0 0.179526
vn -0.108562 0.793652 -0.598607
vn -0.108609 0.79368 -0.598562
vn -0.108555 0.793689 -0.598559
vn -0.108408 0.793639 -0.598652
vn -0.108582 0.793658 -0.598596
vn -0.108584 0.793657 -0.598597

# Mesh 'defaultobject' with 152 faces
g defaultobject
usemtl DefaultMaterial
f  1//1 2//1 3//1
f  2//2 1//2 4//2
f  2//3 4//3 5//3
f  5//4 4//4 6//4
f  5//5 6//5 7//5
f  5//6 7//6 8//6
f  8//7 7//7 9//7
f  8//8 9//8 10//8
f  8//9 10//9 11//9
f  8//10 11//10 12//10
f  13//11 14//11 15//11
f  14//12 13//12 16//12
f  14//13 16//13 17//13
f  17//14 16//14 18//14
f  19//15 20//15 21//15
f  20//15 19//15 22//16
f  19//17 23//17 22//17
f  23//18 19//18 24//18
f  23//19 24//19 14//19
f  14//20 24//20 25//20
f  23//21 14//21 17//21
f  23//22 17//22 26//22
f  26//22 17//22 18//23
f  26//24 18//24 27//24
f  26//25 27//25 28//25
f  26//26 28//26 29//26
f  29//27 28//27 30//27
f  31//28 32//28 33//28
f  32//28 31//28 34//28
f  35//29 36//29 37//29
f  36//29 35//29 38//29
f  27//30 16//30 39//30
f  16//30 27//30 18//30
f  40//31 37//31 41//31
f  37//31 40//31 35//32
f  25//33 42//33 43//33
f  42//33 25//33 24//34
f  38//35 44//35 45//35
f  44//36 38//36 46//36
f  46//37 38//37 35//37
f  46//38 35//38 40//38
f  47//39 4//39 1//39
f  4//40 47//40 45//40
f  45//41 47//41 38//41
f  11//42 48//42 12//42
f  21//43 12//43 48//43
f  20//44 12//44 21//44
f  2//45 49//45 3//45
f  49//45 2//45 50//45
f  50//45 2//45 5//46
f  50//45 5//46 51//46
f  51//47 5//47 8//47
f  51//47 8//47 52//47
f  53//48 33//48 54//48
f  33//48 53//48 31//48
f  44//49 55//49 45//49
f  55//50 44//50 46//50
f  55//51 46//51 56//51
f  56//52 46//50 57//52
f  14//53 43//53 15//53
f  43//53 14//53 25//53
f  58//54 26//54 29//54
f  26//55 58//55 23//55
f  23//56 58//56 22//56
f  22//57 58//57 20//57
f  20//58 58//58 12//58
f  12//59 58//59 34//59
f  34//60 58//57 32//60
f  32//61 58//61 59//61
f  32//61 59//61 60//62
f  32//63 60//63 61//63
f  32//61 61//64 62//64
f  32//63 62//65 63//65
f  8//66 34//60 52//66
f  34//67 8//67 12//67
f  64//68 54//68 65//68
f  54//68 64//68 53//69
f  30//70 66//70 67//70
f  66//70 30//70 28//71
f  42//72 15//72 43//72
f  60//62 16//73 61//64
f  13//74 61//64 16//73
f  15//72 61//64 13//74
f  42//72 61//64 15//72
f  68//75 61//64 42//72
f  62//64 61//64 68//75
f  69//76 62//64 68//75
f  70//77 62//64 69//76
f  71//78 62//64 70//77
f  72//79 62//64 71//78
f  73//80 62//64 72//79
f  74//81 62//64 73//80
f  75//82 62//64 74//81
f  55//83 62//64 75//82
f  76//84 62//64 55//83
f  77//85 62//64 76//84
f  63//86 62//64 77//85
f  32//61 63//86 77//85
f  78//87 32//61 77//85
f  33//88 32//61 78//87
f  65//89 33//88 78//87
f  54//90 33//88 65//89
f  37//91 36//91 41//91
f  76//84 41//91 36//91
f  57//92 41//91 76//84
f  56//93 57//92 76//84
f  55//83 56//93 76//84
f  67//94 66//94 58//61
f  39//95 58//61 66//94
f  59//61 58//61 39//95
f  16//73 59//61 39//95
f  60//62 59//61 16//73
f  46//96 41//96 57//96
f  41//96 46//96 40//97
f  75//98 45//98 55//98
f  45//98 75//98 4//99
f  4//100 75//100 74//100
f  4//100 74//100 6//100
f  6//101 74//101 73//101
f  6//101 73//101 7//102
f  7//103 73//103 72//103
f  7//103 72//103 9//104
f  9//105 72//105 71//105
f  9//105 71//105 10//106
f  10//107 71//107 70//107
f  10//107 70//107 11//108
f  11//109 70//109 69//109
f  11//109 69//109 48//110
f  36//111 1//111 3//111
f  1//112 36//112 38//112
f  1//113 38//113 47//113
f  78//114 64//114 65//114
f  64//115 78//115 77//115
f  64//116 77//116 76//116
f  64//117 76//117 36//117
f  64//118 36//118 3//118
f  64//114 3//119 49//119
f  68//120 48//120 69//120
f  48//121 68//121 42//121
f  48//122 42//122 21//122
f  21//123 42//121 24//123
f  21//123 24//123 19//123
f  29//124 67//124 58//124
f  67//124 29//124 30//124
f  28//125 39//125 66//125
f  39//125 28//125 27//126
f  50//127 64//127 49//127
f  64//128 50//128 53//128
f  53//129 50//129 51//129
f  53//130 51//130 31//130
f  31//131 51//131 34//131
f  34//131 51//131 52//132

