# {"id":"DEB_LOD2_UUID_9655f584-ff9e-43fe-8b69-32494be2cdd7","idOriginal":"DEB_LOD2_UUID_9655f584-ff9e-43fe-8b69-32494be2cdd7","origin":[13.385286672729446,52.556339140712055],"elevation":40.41}
# Longitude: 13.385286672729446
# Latitude: 52.556339140712055
# Elevation: 40.41

# File produced by Open Asset Import Library (http://www.assimp.sf.net)
# (assimp v3.1.0)

mtllib DEB_LOD2_UUID_9655f584-ff9e-43fe-8b69-32494be2cdd7.obj.mtl

# 28 vertex positions
v  7.037 19.94 11.903
v  7.717 19.94 7.33
v  6.971 19.92 11.893
v  7.703 20.141 12.009
v  12.521 21.595 12.775
v  7.921 19.945 6.083
v  7.924 19.946 6.059
v  12.955 21.595 9.856
v  14.017 21.597 2.715
v  0 19.971 1.22287e-15
v  3.72 3.06223e-16 -5.001
v  0 0 0
v  3.72 21.597 -5.001
v  7.717 -4.48833e-16 7.33
v  6.971 -7.28236e-16 11.893
v  7.921 -3.72476e-16 6.083
v  7.924 -3.71007e-16 6.059
v  7.928 -3.6966e-16 6.037
v  7.928 19.951 6.037
v  7.037 -7.28849e-16 11.903
v  7.703 -7.35339e-16 12.009
v  12.955 -6.03506e-16 9.856
v  12.521 -7.82243e-16 12.775
v  14.017 -1.66246e-16 2.715
v  8.966 6.55186e-17 -1.07
v  7.911 -3.68864e-16 6.024
v  8.966 21.597 -1.07
v  7.911 19.951 6.024

# 0 UV coordinates

# 50 vertex normals
vn -0.283891 0.957927 -0.0422143
vn -0.282541 0.958335 -0.0420135
vn -0.282532 0.958337 -0.0420136
vn -0.282207 0.958419 -0.0423248
vn -0.33435 0.942445 -0.00254376
vn -0.28243 0.958368 -0.041992
vn -0.282594 0.95833 -0.0417585
vn -0.802362 3.65458e-17 -0.596838
vn -0.802362 0 -0.596838
vn -0.986898 -0 -0.161347
vn -0.986898 0 -0.161347
vn -0.986881 0 -0.161447
vn -0.986881 0 -0.161447
vn -0.992279 0 -0.124025
vn -0.983868 6.72908e-05 -0.178895
vn -0.992279 -6.22037e-05 -0.124028
vn -0.983868 0 -0.178895
vn -0.149809 0 0.988715
vn -0.157181 -2.50001e-05 0.98757
vn -0.156517 0 0.987675
vn -0.307651 0.939305 0.151845
vn -2.29833e-24 -1 -6.12323e-17
vn -3.00639e-24 -1 -6.12323e-17
vn 2.98914e-24 -1 -6.12323e-17
vn -9.20716e-23 -1 -6.12324e-17
vn 5.29237e-23 -1 -6.12323e-17
vn -9.60004e-19 -1 -6.13775e-17
vn 0 -1 -6.12324e-17
vn -8.96607e-20 -1 -6.12382e-17
vn 4.71587e-20 -1 -6.12248e-17
vn 1.57662e-21 -1 -6.12321e-17
vn 0 -1 -6.12323e-17
vn -1.29568e-24 -1 -6.12323e-17
vn -0.151371 0.967615 0.202008
vn -0.151372 0.967617 0.202002
vn -0.151371 0.967617 0.202002
vn -0.1527 0.967889 0.199682
vn -0.157341 0.968777 0.191612
vn 0.599658 0 -0.800256
vn 0.59967 -4.58941e-06 -0.800247
vn 0.599658 4.41887e-06 -0.800256
vn 0.59967 0 -0.800247
vn -0.157015 0 0.987596
vn -0.607457 0 0.794353
vn -0.605825 0 0.795598
vn -0.607445 -0.0010175 0.794361
vn -0.605825 2.19212e-06 0.795598
vn 0.989127 0 0.147064
vn 0.989121 0 0.147101
vn 0.989121 0 0.147101

# Mesh 'defaultobject' with 52 faces
g defaultobject
usemtl DefaultMaterial
f  1//1 2//1 3//1
f  2//2 1//2 4//2
f  2//2 4//2 5//3
f  2//4 5//4 6//4
f  6//5 5//5 7//5
f  7//6 5//6 8//6
f  7//7 8//7 9//7
f  10//8 11//8 12//8
f  11//8 10//8 13//9
f  3//10 14//10 15//10
f  14//10 3//10 2//11
f  14//12 2//12 16//12
f  16//12 2//12 6//13
f  16//14 6//14 17//14
f  17//15 6//15 18//15
f  18//16 6//16 7//16
f  18//17 7//17 19//17
f  20//18 3//18 15//18
f  3//19 20//19 21//19
f  3//20 21//20 4//20
f  3//21 4//21 1//21
f  21//22 22//22 23//22
f  22//22 21//22 24//23
f  24//23 21//22 25//24
f  25//24 21//22 18//25
f  18//25 21//22 20//26
f  18//25 20//26 16//27
f  16//27 20//26 15//28
f  16//27 15//28 14//29
f  18//25 16//27 17//30
f  25//24 18//25 26//31
f  25//24 26//31 12//32
f  25//24 12//32 11//33
f  10//34 27//34 13//34
f  27//34 10//34 28//35
f  27//34 28//35 9//36
f  9//37 28//37 19//37
f  9//38 19//38 7//38
f  27//39 11//39 13//39
f  11//40 27//40 9//40
f  11//39 9//41 25//41
f  25//42 9//40 24//42
f  5//43 21//43 23//43
f  21//43 5//43 4//43
f  19//44 28//44 18//44
f  26//45 10//45 12//45
f  10//46 26//46 18//46
f  10//45 18//47 28//47
f  22//48 5//48 23//48
f  5//48 22//48 8//48
f  8//49 22//49 24//49
f  8//49 24//49 9//50

