# {"id":"DEB_LOD2_UUID_16e3da0b-837f-4a34-80aa-383edffba95f","idOriginal":"DEB_LOD2_UUID_16e3da0b-837f-4a34-80aa-383edffba95f","origin":[13.345507702192874,52.555564097489885],"elevation":36.598}
# Longitude: 13.345507702192874
# Latitude: 52.555564097489885
# Elevation: 36.598

# File produced by Open Asset Import Library (http://www.assimp.sf.net)
# (assimp v3.1.0)

mtllib DEB_LOD2_UUID_16e3da0b-837f-4a34-80aa-383edffba95f.obj.mtl

# 34 vertex positions
v  13.702 17.56 1.467
v  12.08 5.44968e-18 -0.089
v  13.702 -8.98278e-17 1.467
v  12.08 17.55 -0.089
v  3.969 13.316 3.85
v  5.021 14.226 -5.179
v  0 14.226 8.71091e-16
v  9.056 13.302 -1.274
v  14.451 16.393 3.77
v  14.451 -2.30846e-16 3.77
v  9.056 7.801e-17 -1.274
v  3.969 -2.35744e-16 3.85
v  9.587 1.10708e-16 -1.808
v  9.056 16.262 -1.274
v  9.587 17.037 -1.808
v  9.048 19.992 -9.335
v  22.194 -2.07516e-16 3.389
v  9.048 5.71604e-16 -9.335
v  22.194 19.992 3.389
v  18.286 16.496 7.343
v  18.286 -4.49629e-16 7.343
v  5.021 16.262 -5.179
v  19.869 18.811 5.743
v  19.869 -3.51657e-16 5.743
v  20.675 19.992 4.926
v  7.544 19.992 -7.783
v  5.536 17.023 -5.71
v  7.544 4.76571e-16 -7.783
v  5.536 3.49637e-16 -5.71
v  0 0 0
v  20.675 -3.0163e-16 4.926
v  11.712 -1.46958e-17 0.24
v  5.021 3.17122e-16 -5.179
v  11.712 17.043 0.24

# 0 UV coordinates

# 54 vertex normals
vn -0.692273 0 0.721636
vn 0.11659 0.986727 0.113033
vn 0.116568 0.98673 0.113031
vn -0.95097 0 0.309282
vn -0.95097 0 0.309282
vn 0.709664 0 0.70454
vn 0.709096 0 0.705112
vn 0.69548 0 -0.718546
vn -0.681672 0 0.731658
vn -0.681672 0 0.731658
vn -0.695436 0 0.718588
vn -0.695436 0 0.718588
vn 0.710873 0 0.70332
vn 0.710873 -0 0.70332
vn 0 1 0
vn -0.718278 -0 -0.695756
vn -0.718125 3.74122e-05 -0.695915
vn -0.718212 0 -0.695824
vn -0.718125 -0.000214469 -0.695915
vn -0.696264 0 0.717785
vn -0.696264 -4.39517e-17 0.717785
vn -5.35647e-24 -1 -6.12323e-17
vn 2.26953e-23 -1 -6.12324e-17
vn -5.142e-24 -1 -6.12323e-17
vn -1.91036e-23 -1 -6.12323e-17
vn 1.71998e-23 -1 -6.12324e-17
vn -5.15015e-24 -1 -6.12323e-17
vn 3.00789e-24 -1 -6.12323e-17
vn 0 -1 -6.12323e-17
vn -1.23556e-23 -1 -6.12323e-17
vn 0 -1 -6.12323e-17
vn -1.34619e-19 -1 -6.13575e-17
vn -7.67082e-20 -1 -6.12898e-17
vn -0.717974 4.2622e-17 -0.69607
vn -0.717974 0 -0.69607
vn -0.717839 0 -0.696209
vn -0.717839 0 -0.696209
vn -0.498671 0.697009 0.515272
vn -0.498661 0.697021 0.515266
vn -0.498926 0.696856 0.515233
vn -0.498676 0.697033 0.515235
vn -0.498613 0.697214 0.515051
vn -0.498858 0.696653 0.515573
vn -0.49872 0.696884 0.515395
vn -0.498711 0.696925 0.515348
vn -0.498734 0.697009 0.515212
vn -0.320257 0.677001 0.66265
vn 0.711259 0.000862789 0.70293
vn 0.711476 0 0.702711
vn 0.711476 0 0.702711
vn -0.693941 0 0.720032
vn -0.693941 0 0.720032
vn 0.666499 0 0.745506
vn 0.666499 -0 0.745506

# Mesh 'defaultobject' with 64 faces
g defaultobject
usemtl DefaultMaterial
f  1//1 2//1 3//1
f  2//1 1//1 4//1
f  5//2 6//2 7//2
f  6//3 5//3 8//3
f  9//4 3//4 10//4
f  3//4 9//4 1//5
f  11//6 5//6 12//6
f  5//6 11//6 8//6
f  8//7 11//7 13//7
f  8//7 13//7 14//7
f  14//7 13//7 15//7
f  16//8 17//8 18//8
f  17//8 16//8 19//8
f  20//9 10//9 21//9
f  10//9 20//9 9//10
f  14//11 6//11 8//11
f  6//11 14//11 22//12
f  23//13 21//13 24//13
f  21//13 23//13 20//14
f  25//15 16//15 26//15
f  16//15 25//15 19//15
f  27//16 28//16 29//16
f  28//17 27//17 18//17
f  18//18 27//18 16//18
f  16//19 27//19 26//19
f  5//20 30//20 12//20
f  30//20 5//20 7//21
f  17//22 31//22 18//22
f  24//23 18//22 31//22
f  21//24 18//22 24//23
f  3//25 18//22 21//24
f  10//26 3//25 21//24
f  2//27 18//22 3//25
f  32//28 18//22 2//27
f  13//29 18//22 32//28
f  11//30 18//22 13//29
f  12//31 18//22 11//30
f  29//29 18//22 12//31
f  30//31 29//29 12//31
f  28//32 18//22 29//29
f  33//33 29//29 30//31
f  7//34 33//34 30//34
f  33//34 7//34 6//35
f  33//36 6//36 29//36
f  29//36 6//36 27//36
f  27//36 6//36 22//37
f  14//38 27//38 22//38
f  27//39 14//39 26//39
f  26//40 14//40 15//40
f  26//41 15//41 25//41
f  25//42 15//42 4//42
f  4//43 15//43 34//43
f  25//44 4//44 1//44
f  25//45 1//45 9//45
f  25//46 9//46 20//46
f  25//47 20//47 23//47
f  23//48 19//48 25//48
f  19//49 23//49 17//49
f  17//49 23//49 24//50
f  17//22 24//23 31//22
f  34//51 13//51 32//51
f  13//51 34//51 15//52
f  4//53 32//53 2//53
f  32//53 4//53 34//54

