# {"id":"DEB_LOD2_UUID_e75a669f-69d5-4e07-ba9a-d69d3a424055","idOriginal":"DEB_LOD2_UUID_e75a669f-69d5-4e07-ba9a-d69d3a424055","origin":[13.393764782710397,52.51127887877883],"elevation":34.18}
# Longitude: 13.393764782710397
# Latitude: 52.51127887877883
# Elevation: 34.18

# File produced by Open Asset Import Library (http://www.assimp.sf.net)
# (assimp v3.1.0)

mtllib DEB_LOD2_UUID_e75a669f-69d5-4e07-ba9a-d69d3a424055.obj.mtl

# 174 vertex positions
v  62.504 34.66 16.92
v  50.884 12.25 17.812
v  62.504 12.25 16.92
v  50.884 34.66 17.812
v  2.153 12.25 27.159
v  0 0 0
v  2.153 -1.66301e-15 27.159
v  0 12.25 7.50096e-16
v  28.936 12.25 17.589
v  26.518 34.66 17.775
v  26.518 12.25 17.775
v  28.936 34.66 17.589
v  32.922 12.25 17.283
v  32.922 34.66 17.283
v  25.126 3.32 -2.002
v  25.151 1.06606e-16 -1.741
v  25.126 1.22587e-16 -2.002
v  25.151 3.32 -1.741
v  32.299 35.6 9.432
v  28.426 34.66 9.729
v  32.299 34.66 9.432
v  28.426 35.6 9.729
v  13.704 34.66 15.267
v  7.702 12.25 15.728
v  13.704 12.25 15.267
v  7.702 34.66 15.728
v  50.996 12.25 19.548
v  50.996 34.66 19.548
v  49.794 -1.98209e-16 3.237
v  49.79 34.66 3.187
v  49.794 34.66 3.237
v  49.79 3.25 3.187
v  49.547 3.25 -0.057
v  49.547 3.49024e-18 -0.057
v  49.79 -1.95147e-16 3.187
v  49.633 35.9 8.101
v  49.462 34.66 5.467
v  49.462 35.9 5.467
v  49.633 34.66 8.101
v  49.837 35.9 11.249
v  49.837 34.66 11.249
v  26.243 12.25 14.304
v  26.145 34.66 13.068
v  26.145 12.25 13.068
v  26.382 12.25 16.062
v  26.243 34.66 14.304
v  26.382 34.66 16.062
v  51.396 -1.57392e-15 25.704
v  63.66 -1.36793e-15 22.34
v  63.854 -1.51446e-15 24.733
v  62.846 -1.37179e-15 22.403
v  62.811 -1.33756e-15 21.844
v  62.74 -1.26757e-15 20.701
v  62.504 -1.03605e-15 16.92
v  62.503 -1.0347e-15 16.898
v  61.829 -3.72048e-16 6.076
v  50.78 -1.57686e-15 25.752
v  44.948 -1.60472e-15 26.207
v  61.58 -1.42794e-16 2.332
v  49.936 -1.97536e-16 3.226
v  44.166 -1.60845e-15 26.268
v  43.991 -1.46376e-15 23.905
v  43.783 -1.46474e-15 23.921
v  33.511 -1.51366e-15 24.72
v  46.342 -1.11443e-17 0.182
v  29.421 -1.53314e-15 25.038
v  43.368 -2.47991e-17 0.405
v  27.108 -1.54416e-15 25.218
v  43.343 -1.07157e-17 0.175
v  43.022 -1.23077e-17 0.201
v  41.91 -1.79411e-17 0.293
v  31.642 -6.94987e-17 1.135
v  14.57 -1.60386e-15 26.193
v  31.575 -6.98661e-17 1.141
v  31.569 -6.50287e-17 1.062
v  31.3 1.3863e-16 -2.264
v  28.095 1.22159e-16 -1.995
v  8.569 -1.63245e-15 26.66
v  24.951 1.2173e-16 -1.988
v  12.415 6.04975e-17 -0.988
v  6.579 3.20245e-17 -0.523
v  6.415 3.12285e-17 -0.51
v  46.002 34.66 3.478
v  43.28 3.25 3.687
v  43.28 34.66 3.687
v  46.002 3.25 3.478
v  49.316 34.66 3.224
v  49.316 3.25 3.224
v  43.059 12.25 14.781
v  32.786 34.66 15.57
v  32.786 12.25 15.57
v  43.059 34.66 14.781
v  44.096 12.25 14.702
v  44.096 34.66 14.702
v  43.022 3.25 0.201
v  43.368 3.25 0.405
v  43.343 3.25 0.175
v  46.342 3.25 0.182
v  12.415 34.66 -0.988
v  6.579 34.66 -0.523
v  24.951 34.66 -1.988
v  24.951 3.32 -1.988
v  46.319 35.9 8.355
v  46.147 35.9 5.722
v  46.523 35.9 11.503
v  44.948 12.25 26.207
v  43.991 12.25 23.905
v  44.166 12.25 26.268
v  29.421 12.25 25.038
v  27.108 12.25 25.218
v  33.511 12.25 24.72
v  43.783 12.25 23.921
v  44.363 12.25 18.313
v  44.492 12.25 20.047
v  14.57 12.25 26.193
v  8.569 12.25 26.66
v  13.606 12.25 14.031
v  7.479 12.25 12.919
v  6.968 12.25 6.475
v  6.698 12.25 3.07
v  6.415 12.25 -0.51
v  7.604 12.25 14.492
v  7.146 12.25 8.716
v  7.355 12.25 11.347
v  50.78 12.25 25.752
v  47.066 12.25 19.85
v  50.38 12.25 19.595
v  51.396 12.25 25.704
v  63.854 12.25 24.733
v  62.846 12.25 22.403
v  63.66 12.25 22.34
v  62.811 12.25 21.844
v  62.74 12.25 20.701
v  61.58 34.66 2.332
v  61.829 34.66 6.076
v  13.606 34.66 14.031
v  6.415 34.66 -0.51
v  31.913 35.6 4.56
v  31.642 34.66 1.135
v  31.642 35.6 1.135
v  31.913 34.66 4.56
v  32.091 35.6 6.801
v  32.091 34.66 6.801
v  6.698 34.66 3.07
v  6.968 34.66 6.475
v  7.146 34.66 8.716
v  7.355 34.66 11.347
v  7.479 34.66 12.919
v  7.604 34.66 14.492
v  25.234 34.66 1.574
v  27.882 34.66 1.36
v  28.109 34.66 4.852
v  28.254 34.66 7.096
v  50.38 34.66 19.595
v  47.066 34.66 19.85
v  41.91 34.66 0.293
v  43.022 34.66 0.201
v  44.363 34.66 18.313
v  44.492 34.66 20.047
v  49.936 34.66 3.226
v  62.503 34.66 16.898
v  27.882 3.32 1.36
v  25.234 3.32 1.574
v  31.569 3.32 1.062
v  31.569 35.6 1.062
v  27.882 35.6 1.36
v  46.319 34.66 8.355
v  46.147 34.66 5.722
v  46.523 34.66 11.503
v  31.575 35.6 1.141
v  31.3 3.32 -2.264
v  28.095 3.32 -1.995
v  28.109 35.6 4.852
v  28.254 35.6 7.096

# 0 UV coordinates

# 148 vertex normals
vn 0.076539 0 0.997067
vn -0.996873 0 0.079026
vn -0.996873 -4.83895e-18 0.079026
vn 0.076696 0 0.997055
vn 0.0765434 0 0.997066
vn 0.995444 0 -0.0953475
vn 0.0764602 0 0.997073
vn 0.0765821 0 0.997063
vn 0.997925 0 -0.064382
vn 0.996819 0 -0.0797018
vn 0.997206 7.74537e-05 -0.0746983
vn 0.9972 0 -0.0747743
vn 0 -1 -6.12328e-17
vn 0.997899 0 -0.064783
vn 0.997907 0 -0.0646682
vn -0.996871 0 0.0790396
vn -0.996889 -1.21299e-05 0.0788211
vn -0.996863 3.1244e-05 0.0791437
vn -0.996871 9.24777e-06 0.0790396
vn -0.996876 0 0.0789803
vn 0 -1 0
vn -4.41158e-24 -1 -6.12324e-17
vn 3.24027e-22 -1 -6.12312e-17
vn -2.84356e-23 -1 -6.12324e-17
vn -1.98701e-24 -1 -6.12323e-17
vn -1.92191e-23 -1 -6.12324e-17
vn 2.715e-21 -1 -6.12289e-17
vn 0 -1 -6.12323e-17
vn -1.46165e-22 -1 -6.12325e-17
vn 1.54395e-23 -1 -6.12323e-17
vn -1.60952e-24 -1 -6.12323e-17
vn 0 -1 -6.12323e-17
vn -1.91779e-22 -1 -6.12324e-17
vn 8.05524e-22 -1 -6.12321e-17
vn 8.15777e-24 -1 -6.12323e-17
vn 0 -1 -6.12323e-17
vn -3.51903e-23 -1 -6.12323e-17
vn 0 -1 -6.12323e-17
vn -6.22068e-23 -1 -6.12324e-17
vn -6.07082e-24 -1 -6.12323e-17
vn -4.77846e-24 -1 -6.12323e-17
vn 5.02181e-25 -1 -6.12323e-17
vn -4.34881e-25 -1 -6.12323e-17
vn -4.25019e-23 -1 -6.12324e-17
vn 3.54414e-23 -1 -6.12323e-17
vn 4.27403e-24 -1 -6.12323e-17
vn -2.08065e-23 -1 -6.12323e-17
vn -6.00065e-24 -1 -6.12323e-17
vn 4.72325e-23 -1 -6.12323e-17
vn -8.13077e-23 -1 -6.12324e-17
vn 1.23622e-24 -1 -6.12323e-17
vn -3.31922e-25 -1 -6.12323e-17
vn 2.94427e-25 -1 -6.12323e-17
vn 2.53283e-21 -1 -6.12016e-17
vn -0.0765565 0 -0.997065
vn -0.0764203 0 -0.997076
vn -0.0778224 0 -0.996967
vn 0.0765777 0 0.997064
vn 0.0759615 0 0.997111
vn 0 1 0
vn -0.0794261 0 -0.996841
vn -0.0795177 1.55103e-05 -0.996834
vn -0.0794886 0 -0.996836
vn -0.0794261 -0.000347822 -0.996841
vn -0.0795177 0 -0.996833
vn -0.0797466 0 -0.996815
vn -0.0771646 -0 -0.997018
vn 0.997796 0 -0.0663589
vn 0.996871 0 -0.0790404
vn -0.0792511 6.10397e-17 -0.996855
vn -0.0790205 0.000121543 -0.996873
vn -0.0792511 -3.1071e-06 -0.996855
vn -0.0790205 0 -0.996873
vn 0.996884 0 -0.0788775
vn 0.99686 0 -0.0791792
vn 0.99689 0 -0.0788115
vn 0.998066 0 -0.0621601
vn 0.998948 -0.0052014 -0.0455569
vn 0.998068 0 -0.0621264
vn 0.998058 0.000150796 -0.0622961
vn 0.998076 -0.000207679 -0.061997
vn 0.998066 1.62307e-05 -0.0621703
vn 0.998076 0 -0.061997
vn 2.13351e-19 1 6.12183e-17
vn 0.997272 0 -0.0738083
vn 0.99673 0 -0.0808048
vn -0.0805531 -0 -0.99675
vn -0.0805618 -7.42954e-07 -0.99675
vn -0.0805531 1.03375e-06 -0.99675
vn -0.0805618 0 -0.99675
vn -0.0805618 0 -0.99675
vn -0.997873 0 0.0651861
vn -0.997907 0 0.0646669
vn 0.0763116 0 0.997084
vn 0.0767198 0 0.997053
vn 0.0760763 0 0.997102
vn -0.0743645 -0 -0.997231
vn 0.997128 0 -0.0757378
vn 0.997128 0 -0.0757378
vn 0.996745 -0.000116746 -0.080615
vn 0.996754 0 -0.0805019
vn 0 1 6.12288e-17
vn 0.0775402 0 0.996989
vn 0.0775856 0 0.996986
vn 0.0775296 0 0.99699
vn 0.0775866 0 0.996986
vn 0.0775168 0 0.996991
vn 0.07755 0 0.996988
vn 0.0766909 0 0.997055
vn -0.0859579 -0 -0.996299
vn -0.0772317 0 -0.997013
vn -0.0765524 0 -0.997066
vn 0.0765749 0 0.997064
vn -0.0891967 0 -0.996014
vn -0.0891969 0 -0.996014
vn -0.081728 -1.45482e-05 -0.996655
vn -0.0891964 0.00222814 -0.996012
vn -0.081728 0 -0.996655
vn -0.0824521 0 -0.996595
vn -0.0824521 0 -0.996595
vn -0.0807327 0 -0.996736
vn -0.0836373 -0 -0.996496
vn -0.997278 0 0.073739
vn -0.997244 7.31292e-05 0.0741903
vn -0.997278 -3.51178e-05 0.073739
vn -0.997244 0 0.0741903
vn 0.0777673 0 0.996972
vn 0.0777815 0 0.99697
vn 0.077687 0 0.996978
vn 0.0777063 0 0.996976
vn -0.0766965 -0 -0.997055
vn 0.996863 0 -0.0791447
vn 0.998046 0 -0.0624892
vn -0.99689 0 0.0788044
vn -0.996871 0 0.079047
vn -0.99686 0 0.0791795
vn -0.99686 0 0.079188
vn -0.996903 0 0.0786362
vn -0.996857 0 0.0792163
vn -0.996871 0 0.07904
vn -0.0747733 -0 -0.997201
vn 0.994144 0 -0.108066
vn 0.0764205 0 0.997076
vn -0.997894 0 0.0648686
vn -0.997919 0 0.0644825
vn -0.997873 0 0.0651861
vn -0.997269 0 0.0738559
vn 0.996859 0 -0.0791999

# Mesh 'defaultobject' with 336 faces
g defaultobject
usemtl DefaultMaterial
f  1//1 2//1 3//1
f  2//1 1//1 4//1
f  5//2 6//2 7//2
f  6//2 5//2 8//3
f  9//4 10//4 11//4
f  10//4 9//4 12//4
f  12//5 9//5 13//5
f  12//5 13//5 14//5
f  15//6 16//6 17//6
f  16//6 15//6 18//6
f  19//7 20//7 21//7
f  20//7 19//7 22//7
f  23//8 24//8 25//8
f  24//8 23//8 26//8
f  4//9 27//9 2//9
f  27//9 4//9 28//9
f  29//10 30//10 31//10
f  30//10 29//10 32//10
f  32//11 29//11 33//11
f  33//12 29//12 34//12
f  34//13 29//13 35//13
f  36//14 37//14 38//14
f  37//14 36//14 39//14
f  39//15 36//15 40//15
f  39//15 40//15 41//15
f  42//16 43//16 44//16
f  43//17 42//17 45//17
f  43//18 45//18 11//18
f  43//16 11//19 46//19
f  46//20 11//20 10//20
f  46//21 10//21 47//21
f  48//22 49//22 50//22
f  49//22 48//22 51//23
f  51//23 48//22 52//24
f  52//24 48//22 53//25
f  53//25 48//22 54//26
f  54//26 48//22 55//27
f  55//27 48//22 56//28
f  56//28 48//22 57//29
f  56//28 57//29 58//30
f  56//28 58//30 59//28
f  59//28 58//30 60//31
f  60//31 58//30 61//32
f  60//31 61//32 62//33
f  60//31 62//33 63//34
f  60//31 63//34 64//35
f  60//31 64//35 29//13
f  29//13 64//35 35//13
f  35//13 64//35 34//13
f  34//13 64//35 65//36
f  65//36 64//35 66//37
f  65//36 66//37 67//38
f  67//38 66//37 68//39
f  67//38 68//39 69//40
f  69//40 68//39 70//41
f  70//41 68//39 71//42
f  71//42 68//39 72//43
f  72//43 68//39 73//38
f  72//43 73//38 74//44
f  74//44 73//38 75//45
f  75//45 73//38 76//38
f  76//38 73//38 77//46
f  77//46 73//38 78//47
f  77//46 78//47 16//48
f  16//48 78//47 7//28
f  16//48 7//28 17//49
f  17//49 7//28 79//50
f  79//50 7//28 80//51
f  80//51 7//28 81//52
f  81//52 7//28 6//53
f  81//52 6//53 82//54
f  83//55 84//55 85//55
f  84//55 83//55 86//55
f  86//56 83//56 87//56
f  86//56 87//56 88//56
f  88//57 87//57 30//57
f  88//57 30//57 32//57
f  89//58 90//58 91//58
f  90//58 89//58 92//58
f  92//59 89//59 93//59
f  92//59 93//59 94//59
f  86//60 95//60 84//60
f  95//60 86//60 96//60
f  95//60 96//60 97//60
f  96//60 86//60 98//60
f  98//60 86//60 88//60
f  98//60 88//60 33//60
f  33//60 88//60 32//60
f  99//61 81//61 100//61
f  81//62 99//62 101//62
f  81//63 101//63 102//63
f  81//64 102//64 80//64
f  80//65 102//65 79//65
f  79//66 102//66 15//66
f  79//66 15//66 17//66
f  103//60 38//60 104//60
f  38//60 103//60 105//60
f  38//60 105//60 36//60
f  36//60 105//60 40//60
f  106//60 107//60 108//60
f  109//60 11//60 110//60
f  11//60 109//60 9//60
f  9//60 109//60 111//60
f  9//60 111//60 13//60
f  13//60 111//60 112//60
f  13//60 112//60 91//60
f  91//60 112//60 89//60
f  89//60 112//60 107//60
f  89//60 107//60 93//60
f  93//60 107//60 113//60
f  113//60 107//60 106//60
f  113//60 106//60 114//60
f  115//60 24//60 116//60
f  24//60 115//60 25//60
f  25//60 115//60 110//60
f  25//60 110//60 117//60
f  117//60 110//60 45//60
f  117//60 45//60 44//60
f  45//60 110//60 11//60
f  44//60 45//60 42//60
f  116//60 8//60 5//60
f  8//60 116//60 118//60
f  8//60 118//60 119//60
f  8//60 119//60 120//60
f  8//60 120//60 121//60
f  118//60 116//60 24//60
f  118//60 24//60 122//60
f  119//60 118//60 123//60
f  123//60 118//60 124//60
f  125//60 114//60 106//60
f  114//60 125//60 126//60
f  126//60 125//60 127//60
f  127//60 125//60 128//60
f  127//60 128//60 27//60
f  27//60 128//60 129//60
f  27//60 129//60 2//60
f  2//60 129//60 130//60
f  130//60 129//60 131//60
f  2//60 132//60 3//60
f  132//60 2//60 130//60
f  3//60 132//60 133//60
f  130//67 49//67 51//67
f  49//67 130//67 131//67
f  134//68 56//68 59//68
f  56//68 134//68 135//68
f  136//69 25//69 117//69
f  25//69 136//69 23//69
f  8//70 82//70 6//70
f  82//71 8//71 81//71
f  81//72 8//70 121//72
f  81//73 121//73 100//73
f  100//73 121//73 137//73
f  138//74 139//74 140//74
f  139//74 138//74 141//74
f  141//75 138//75 142//75
f  141//75 142//75 143//75
f  143//76 142//76 19//76
f  143//76 19//76 21//76
f  23//60 136//60 26//60
f  144//60 100//60 137//60
f  100//60 144//60 99//60
f  99//60 144//60 145//60
f  99//60 145//60 146//60
f  99//60 146//60 147//60
f  99//60 147//60 148//60
f  99//60 148//60 149//60
f  99//60 149//60 101//60
f  101//60 149//60 26//60
f  101//60 26//60 136//60
f  101//60 136//60 43//60
f  101//60 43//60 150//60
f  150//60 43//60 151//60
f  151//60 43//60 152//60
f  152//60 43//60 153//60
f  153//60 43//60 46//60
f  153//60 46//60 20//60
f  20//60 46//60 47//60
f  20//60 47//60 10//60
f  20//60 10//60 21//60
f  21//60 10//60 12//60
f  21//60 12//60 90//60
f  90//60 12//60 14//60
f  154//60 4//60 155//60
f  4//60 154//60 28//60
f  141//60 156//60 139//60
f  156//60 141//60 143//60
f  156//60 143//60 21//60
f  156//60 21//60 90//60
f  156//60 90//60 92//60
f  156//60 92//60 157//60
f  157//60 92//60 85//60
f  85//60 92//60 83//60
f  83//60 92//60 87//60
f  87//60 92//60 94//60
f  87//60 94//60 158//60
f  87//60 158//60 159//60
f  87//60 159//60 30//60
f  30//60 159//60 31//60
f  31//60 159//60 160//60
f  160//60 159//60 155//60
f  160//60 155//60 134//60
f  134//60 155//60 4//60
f  134//60 4//60 1//60
f  134//60 1//60 135//60
f  135//60 1//60 161//60
f  161//77 56//77 135//77
f  56//78 161//78 1//78
f  56//79 1//79 3//79
f  56//80 3//80 133//80
f  56//81 133//81 132//81
f  56//82 132//82 53//82
f  53//83 132//83 52//83
f  56//28 53//25 54//26
f  56//84 54//84 55//84
f  157//85 84//85 95//85
f  84//85 157//85 85//85
f  131//86 50//86 49//86
f  50//86 131//86 129//86
f  150//87 162//87 163//87
f  162//87 150//87 164//88
f  164//88 150//87 151//89
f  164//88 151//89 165//90
f  165//90 151//89 166//91
f  167//92 104//92 168//92
f  104//92 167//92 103//92
f  103//93 167//93 169//93
f  103//93 169//93 105//93
f  126//94 159//94 114//94
f  159//94 126//94 155//94
f  155//95 126//95 127//95
f  155//95 127//95 154//95
f  154//96 127//96 27//96
f  154//96 27//96 28//96
f  98//97 34//97 65//97
f  34//97 98//97 33//97
f  74//98 165//98 170//98
f  165//98 74//98 164//99
f  164//100 74//100 171//100
f  171//101 74//101 76//101
f  76//102 74//102 75//102
f  78//103 5//103 7//103
f  5//103 78//103 116//103
f  116//104 78//104 73//104
f  116//104 73//104 115//104
f  115//105 73//105 68//105
f  115//105 68//105 110//105
f  110//106 68//106 66//106
f  110//106 66//106 109//106
f  109//107 66//107 64//107
f  109//107 64//107 111//107
f  111//108 64//108 63//108
f  111//108 63//108 112//108
f  112//109 63//109 62//109
f  112//109 62//109 107//109
f  18//110 77//110 16//110
f  77//110 18//110 172//110
f  160//111 29//111 31//111
f  29//111 160//111 60//111
f  60//112 160//112 134//112
f  60//112 134//112 59//112
f  43//113 117//113 44//113
f  117//113 43//113 136//113
f  140//114 74//114 170//114
f  74//114 140//114 139//115
f  74//116 139//116 156//116
f  74//117 156//117 72//117
f  72//118 156//118 71//118
f  71//119 156//119 157//119
f  71//119 157//119 95//120
f  71//119 95//120 70//120
f  70//121 95//121 97//121
f  70//121 97//121 69//121
f  172//122 76//122 77//122
f  76//122 172//122 171//122
f  113//123 94//123 93//123
f  94//124 113//124 114//124
f  94//125 114//125 158//125
f  158//126 114//126 159//126
f  58//127 108//127 61//127
f  108//127 58//127 106//127
f  106//128 58//128 57//128
f  106//128 57//128 125//128
f  125//129 57//129 48//129
f  125//129 48//129 128//129
f  128//130 48//130 50//130
f  128//130 50//130 129//130
f  104//131 37//131 168//131
f  37//131 104//131 38//131
f  90//132 13//132 91//132
f  13//132 90//132 14//132
f  173//60 165//60 166//60
f  165//60 173//60 170//60
f  170//60 173//60 140//60
f  140//60 173//60 138//60
f  138//60 173//60 174//60
f  138//60 174//60 22//60
f  138//60 22//60 142//60
f  142//60 22//60 19//60
f  132//133 51//133 52//133
f  51//133 132//133 130//133
f  120//134 137//134 121//134
f  137//134 120//134 144//134
f  144//135 120//135 119//135
f  144//135 119//135 145//135
f  145//136 119//136 123//136
f  145//136 123//136 146//136
f  146//136 123//136 124//137
f  146//136 124//137 147//137
f  147//138 124//138 118//138
f  147//138 118//138 148//138
f  148//139 118//139 122//139
f  148//139 122//139 149//139
f  149//140 122//140 24//140
f  149//140 24//140 26//140
f  96//141 65//141 67//141
f  65//141 96//141 98//141
f  97//142 67//142 69//142
f  67//142 97//142 96//142
f  40//143 169//143 41//143
f  169//143 40//143 105//143
f  163//60 18//60 102//60
f  18//60 163//60 162//60
f  18//60 162//60 172//60
f  172//60 162//60 164//60
f  172//60 164//60 171//60
f  15//60 102//60 18//60
f  152//144 166//144 151//144
f  166//144 152//144 173//144
f  173//145 152//145 153//145
f  173//145 153//145 174//145
f  174//146 153//146 20//146
f  174//146 20//146 22//146
f  108//147 62//147 61//147
f  62//147 108//147 107//147
f  101//148 163//148 102//148
f  163//148 101//148 150//148

