# {"id":"DEB_LOD2_UUID_4a10ba14-571e-426d-8575-88e62d5aba2d","idOriginal":"DEB_LOD2_UUID_4a10ba14-571e-426d-8575-88e62d5aba2d","origin":[13.383896446216268,52.55039385859964],"elevation":41.48}
# Longitude: 13.383896446216268
# Latitude: 52.55039385859964
# Elevation: 41.48

# File produced by Open Asset Import Library (http://www.assimp.sf.net)
# (assimp v3.1.0)

mtllib DEB_LOD2_UUID_4a10ba14-571e-426d-8575-88e62d5aba2d.obj.mtl

# 92 vertex positions
v  24.749 23.44 -13.721
v  24.615 24.265 -23.683
v  21.566 23.44 -16.998
v  24.707 24.28 -23.77
v  26.59 24.28 -21.832
v  26.283 23.44 -12.142
v  29.773 24.28 -18.555
v  31.636 23.44 -6.631
v  31.307 24.28 -16.975
v  36.207 24.28 -11.931
v  37.88 19.141 -13.872
v  31.511 23.224 -6.486
v  29.522 19.728 -4.18
v  29.522 2.55951e-16 -4.18
v  37.88 8.49415e-16 -13.872
v  31.511 3.97153e-16 -6.486
v  31.636 4.06032e-16 -6.631
v  36.207 7.30563e-16 -11.931
v  28.429 19.141 -23.601
v  26.546 1.56387e-15 -25.54
v  26.546 19.141 -25.54
v  31.612 19.142 -20.324
v  32.823 19.142 -19.077
v  28.429 1.44514e-15 -23.601
v  32.823 1.16813e-15 -19.077
v  31.612 1.24449e-15 -20.324
v  14.849 4.11 -1.141
v  13.304 1.65572e-16 -2.704
v  14.849 6.98661e-17 -1.141
v  13.304 4.11 -2.704
v  7.16 19.526 2.5
v  6.725 -1.23506e-16 2.017
v  7.16 -1.53081e-16 2.5
v  6.725 20.152 2.017
v  21.929 19.04 -11.009
v  33.146 19.142 -18.745
v  34.352 19.141 -17.504
v  33.146 1.1478e-15 -18.745
v  34.352 1.07181e-15 -17.504
v  19.835 19.04 -8.994
v  19.835 4.11 -8.994
v  13.304 19.035 -2.704
v  10.668 19.59 -0.967
v  10.668 5.92117e-17 -0.967
v  25.028 4.80858e-16 -7.853
v  27.396 1.05013e-16 -1.715
v  23.118 3.61393e-16 -5.902
v  24.707 1.45549e-15 -23.77
v  29.13 2.28152e-16 -3.726
v  24.615 1.45017e-15 -23.683
v  19.683 1.15956e-15 -18.937
v  29.098 2.25886e-16 -3.689
v  24.689 5.02105e-16 -8.2
v  23.475 5.78033e-16 -9.44
v  23.03 6.05894e-16 -9.895
v  22.74 6.2408e-16 -10.192
v  20.634 5.01248e-16 -8.186
v  14.671 8.64294e-16 -14.115
v  20.468 4.91573e-16 -8.028
v  19.635 3.71497e-16 -6.067
v  0 0 0
v  11.089 3.15959e-17 -0.516
v  11.06 3.34941e-17 -0.547
v  1.901 -1.17627e-16 1.921
v  3.865 -2.39235e-16 3.907
v  4.293 -2.6581e-16 4.341
v  3.865 20.75 3.907
v  18.716 23.44 -14.257
v  1.901 23.44 1.921
v  4.293 20.163 4.341
v  11.06 19.037 -0.547
v  11.089 18.996 -0.516
v  23.03 19.042 -9.895
v  22.74 4.11 -10.192
v  22.74 19.043 -10.192
v  19.635 4.11 -6.067
v  20.468 4.11 -8.028
v  20.634 4.11 -8.186
v  21.929 4.11 -11.009
v  29.13 19.04 -3.726
v  29.13 4.11 -3.726
v  29.098 4.11 -3.689
v  0 24.265 1.4858e-15
v  23.118 4.11 -5.902
v  27.396 4.11 -1.715
v  25.028 4.11 -7.853
v  24.689 4.11 -8.2
v  23.475 19.042 -9.44
v  14.671 24.265 -14.115
v  19.683 24.265 -18.937
v  25.031 19.027 -7.856
v  24.689 19.026 -8.2

# 0 UV coordinates

# 144 vertex normals
vn -0.0858363 0.992815 0.0833741
vn -0.083097 0.993049 0.0833567
vn -0.0857834 0.992821 0.0833489
vn -0.0857918 0.992821 0.0833469
vn -0.0858077 0.992819 0.0833463
vn -0.0858068 0.992819 0.0833467
vn -0.0858533 0.992815 0.0833537
vn -0.0858019 0.992819 0.0833524
vn 0.757277 -0.000142002 0.653094
vn 0.757345 8.71702e-05 0.653015
vn 0.757298 -8.2476e-05 0.653069
vn 0.757301 0 0.653066
vn 1.1036e-19 1 6.13602e-17
vn 0 -1 -6.22398e-17
vn -2.93451e-20 1 6.12041e-17
vn 0.71739 0 -0.696671
vn 0.71732 1.42003e-05 -0.696744
vn 0.717385 -2.14388e-05 -0.696677
vn 0.71739 -2.46262e-05 -0.696671
vn 0.717338 0 -0.696725
vn -2.85038e-19 1 6.15682e-17
vn -0.71119 0 0.703
vn -0.743065 0 0.66922
vn -0.743065 0 0.66922
vn -0.536053 0.664487 0.520676
vn 0.716756 0 -0.697324
vn 0.717147 -1.35817e-05 -0.696922
vn 0.716756 5.07437e-05 -0.697324
vn 0.717147 0 -0.696922
vn 0.693693 0 0.720271
vn 0.702938 0 0.711251
vn 9.71752e-24 -1 -6.12323e-17
vn 4.09616e-24 -1 -6.12323e-17
vn 4.49636e-23 -1 -6.12323e-17
vn -4.13767e-22 -1 -6.12324e-17
vn -1.27933e-23 -1 -6.12323e-17
vn 3.89385e-23 -1 -6.12323e-17
vn 1.64561e-23 -1 -6.12323e-17
vn -1.71646e-23 -1 -6.12323e-17
vn 0 -1 -6.12323e-17
vn 4.29299e-23 -1 -6.12323e-17
vn -4.15656e-23 -1 -6.12323e-17
vn -7.06708e-24 -1 -6.12323e-17
vn 1.54302e-22 -1 -6.12324e-17
vn -5.56447e-23 -1 -6.12323e-17
vn 0 -1 -6.12323e-17
vn 2.11691e-22 -1 -6.12324e-17
vn -3.25156e-23 -1 -6.12323e-17
vn -2.15646e-23 -1 -6.12323e-17
vn 1.26759e-23 -1 -6.12323e-17
vn -1.03056e-23 -1 -6.12323e-17
vn 1.93229e-23 -1 -6.12323e-17
vn 6.72564e-24 -1 -6.12323e-17
vn 4.14074e-25 -1 -6.12323e-17
vn -1.11963e-20 -1 -6.12231e-17
vn -9.4466e-25 -1 -6.12323e-17
vn -4.13266e-24 -1 -6.12323e-17
vn -2.73165e-25 -1 -6.12323e-17
vn 0 -1 -6.12323e-17
vn 2.58222e-23 -1 -6.12323e-17
vn 0.480974 0.720245 0.499912
vn 0.480948 0.720274 0.499895
vn 0.48096 0.72026 0.499902
vn 0.481119 0.720096 0.499986
vn 0.480903 0.720309 0.499887
vn 0.480772 0.720428 0.499842
vn 0.482147 0.71924 0.500227
vn 0.481192 0.720063 0.499964
vn 0.480919 0.720277 0.499918
vn 0.481013 0.720246 0.499872
vn 0.48088 0.720244 0.500003
vn -0.715487 0 0.698626
vn -0.715487 0 0.698626
vn 0 1 0
vn 0.756898 0 0.653534
vn 0.756898 0 0.653533
vn 0.756367 -0.000118437 0.654148
vn 0.756858 0 0.65358
vn -1.38952e-19 1 6.11387e-17
vn 0.717302 0 -0.696762
vn -0.731055 0 0.682318
vn -0.730279 3.33113e-05 0.683149
vn -0.731002 0 0.682376
vn -0.86353 -0.310024 0.397744
vn 0.702757 0 0.71143
vn 0.702757 -0 0.71143
vn -0.710797 0 0.703397
vn -0.711034 -3.75068e-05 0.703158
vn -0.710918 0 0.703275
vn -0.710687 0.000511918 0.703508
vn -0.709708 0 0.704496
vn -0.709708 0 0.704496
vn 0.920403 0 0.390972
vn 0.642346 0.444826 -0.624116
vn 0.642541 0.444729 -0.623984
vn 0.642479 0.444729 -0.624049
vn 0.642386 0.444798 -0.624095
vn 0.642592 0.444798 -0.623883
vn 0.642378 0.444888 -0.624039
vn 0.642556 0.444676 -0.624007
vn 0.641656 0.445621 -0.62426
vn 0.642482 0.444789 -0.624004
vn 0.642424 0.444837 -0.624029
vn 0.757358 0 0.653
vn -0.699465 0 0.714667
vn -0.531601 0.664458 0.525258
vn -0.536592 0.663562 0.5213
vn -0.534459 0.663082 0.524095
vn -0.535098 0.663167 0.523336
vn 0.690872 0 0.722977
vn -0.69332 4.41259e-17 -0.72063
vn -0.69332 0 -0.72063
vn -0.693316 0 -0.720634
vn -0.693389 0 -0.720563
vn -0.687083 0 -0.726579
vn -0.687083 0 -0.726579
vn -0.693461 0 -0.720494
vn -0.714575 -0 -0.699558
vn -0.715303 0.000284399 0.698814
vn -0.709164 0 0.705043
vn 0.689436 0 0.724346
vn 0.689707 0 0.724089
vn -0.53642 0.653847 0.533609
vn -0.536735 0.655135 0.531709
vn -0.536916 0.655704 0.530822
vn 0.284186 0.41017 0.866602
vn -0.536838 0.663175 0.52154
vn -0.53774 0.661827 0.522323
vn 0.202441 0.956422 0.210415
vn 0.202453 0.956417 0.210425
vn 0.202453 0.956416 0.21043
vn 0.202369 0.956437 0.210417
vn 0.202427 0.956437 0.21036
vn 0.693383 0 0.720569
vn -0.71492 0 0.699206
vn -0.714559 1.72802e-05 0.699575
vn -0.714656 0 0.699476
vn -0.714656 0 0.699476
vn -0.713799 -0.0559847 0.698109
vn -0.709252 0 0.704955
vn -0.709766 0.000284417 0.704437
vn 0.717225 0 0.696841
vn -0.712011 0 0.702168
vn -0.712011 0 0.702168

# Mesh 'defaultobject' with 179 faces
g defaultobject
usemtl DefaultMaterial
f  1//1 2//1 3//1
f  2//2 1//2 4//2
f  4//3 1//3 5//3
f  5//3 1//3 6//4
f  5//5 6//5 7//5
f  7//5 6//5 8//6
f  7//7 8//7 9//7
f  9//8 8//6 10//8
f  8//9 11//9 10//9
f  11//10 8//10 12//10
f  11//11 12//11 13//11
f  11//12 13//12 14//12
f  11//12 14//12 15//12
f  15//13 14//13 16//13
f  15//14 16//14 17//14
f  15//13 17//15 18//15
f  19//16 20//16 21//16
f  20//17 19//17 22//17
f  20//18 22//18 23//18
f  20//18 23//18 24//19
f  24//20 23//20 25//20
f  24//21 25//21 26//21
f  27//22 28//22 29//22
f  28//22 27//22 30//22
f  31//23 32//23 33//23
f  32//23 31//23 34//24
f  1//25 3//25 35//25
f  36//26 25//26 23//26
f  25//27 36//27 37//27
f  25//28 37//28 38//28
f  38//29 37//29 39//29
f  40//30 30//30 41//30
f  30//30 40//30 42//30
f  43//31 33//31 44//31
f  33//31 43//31 31//31
f  45//32 46//32 47//32
f  15//14 18//33 39//33
f  17//14 39//33 18//33
f  38//34 39//33 17//14
f  25//35 38//34 17//14
f  26//36 25//35 17//14
f  24//37 26//36 17//14
f  20//38 24//37 17//14
f  16//14 20//38 17//14
f  14//39 20//38 16//14
f  48//40 20//38 14//39
f  49//41 48//40 14//39
f  50//42 48//40 49//41
f  51//43 50//42 49//41
f  52//44 51//43 49//41
f  45//32 51//43 52//44
f  46//32 45//32 52//44
f  53//45 51//43 45//32
f  54//46 51//43 53//45
f  55//47 51//43 54//46
f  56//48 51//43 55//47
f  57//49 51//43 56//48
f  58//50 51//43 57//49
f  59//51 58//50 57//49
f  60//52 58//50 59//51
f  29//53 58//50 60//52
f  28//46 58//50 29//53
f  61//46 58//50 28//46
f  44//54 61//46 28//46
f  62//40 44//54 28//46
f  63//55 44//54 62//40
f  32//56 61//46 44//54
f  33//57 32//56 44//54
f  64//58 61//46 32//56
f  65//59 64//58 32//56
f  66//60 65//59 32//56
f  67//61 68//61 69//61
f  68//62 67//62 70//62
f  68//63 70//63 34//63
f  68//64 34//64 31//64
f  68//65 31//65 43//65
f  68//66 43//66 71//66
f  68//67 71//67 72//67
f  68//68 72//68 42//68
f  68//69 42//69 40//69
f  68//70 40//70 35//70
f  68//71 35//71 3//71
f  73//72 56//72 55//72
f  56//72 73//72 74//73
f  74//73 73//72 75//73
f  76//74 30//74 27//74
f  30//74 76//74 41//74
f  41//74 76//74 77//74
f  41//74 77//74 78//74
f  41//74 78//74 74//74
f  41//74 74//74 79//74
f  80//75 14//75 13//75
f  14//75 80//75 81//76
f  14//77 81//77 82//77
f  14//78 82//78 52//78
f  14//13 52//79 49//79
f  37//80 15//80 39//80
f  15//80 37//80 11//80
f  63//81 43//81 44//81
f  43//82 63//82 62//82
f  43//83 62//83 72//83
f  43//84 72//84 71//84
f  30//85 62//85 28//85
f  62//85 30//85 72//86
f  72//86 30//85 42//85
f  64//87 83//87 61//87
f  83//88 64//88 65//88
f  83//89 65//89 67//89
f  83//90 67//90 69//90
f  75//91 79//91 74//91
f  79//91 75//91 35//92
f  77//93 60//93 59//93
f  60//93 77//93 76//93
f  5//94 21//94 4//94
f  21//95 5//95 19//95
f  19//96 5//96 7//96
f  19//97 7//97 22//97
f  22//98 7//98 9//98
f  22//99 9//99 10//99
f  22//100 10//100 23//100
f  23//101 10//101 36//101
f  36//102 10//102 37//102
f  37//103 10//103 11//103
f  82//74 84//74 85//74
f  84//74 82//74 86//74
f  86//74 82//74 81//74
f  86//74 81//74 87//74
f  82//104 46//104 52//104
f  46//104 82//104 85//104
f  85//105 47//105 46//105
f  47//105 85//105 84//105
f  75//106 1//106 35//106
f  1//107 75//107 6//107
f  6//108 75//108 73//108
f  6//109 73//109 88//109
f  34//110 66//110 32//110
f  66//110 34//110 70//110
f  83//111 58//111 61//111
f  58//111 83//111 89//112
f  58//111 89//112 51//113
f  51//113 89//112 90//113
f  51//114 90//114 50//114
f  50//114 90//114 2//114
f  50//115 2//115 48//115
f  48//115 2//115 4//116
f  48//117 4//117 20//117
f  20//117 4//117 21//117
f  84//118 45//118 47//118
f  45//118 84//118 86//118
f  91//119 87//119 86//119
f  87//120 91//120 92//120
f  57//121 77//121 59//121
f  77//121 57//121 78//121
f  78//122 57//122 56//122
f  78//122 56//122 74//122
f  92//123 12//123 88//123
f  12//124 92//124 91//124
f  12//125 91//125 80//125
f  12//126 80//126 13//126
f  12//127 6//127 88//127
f  6//128 12//128 8//128
f  69//129 89//129 83//129
f  89//130 69//130 68//130
f  89//130 68//130 90//131
f  90//132 68//132 3//132
f  90//133 3//133 2//133
f  35//134 41//134 79//134
f  41//134 35//134 40//134
f  54//135 73//135 55//135
f  73//136 54//136 53//136
f  73//137 53//137 87//137
f  73//137 87//137 92//138
f  73//139 92//139 88//139
f  80//140 86//140 81//140
f  86//141 80//141 91//141
f  76//142 29//142 60//142
f  29//142 76//142 27//142
f  70//143 65//143 66//143
f  65//143 70//143 67//144

