# {"id":"DEB_LOD2_UUID_8c31a222-a23e-421e-bb8a-a0b3e8b67f8a","idOriginal":"DEB_LOD2_UUID_8c31a222-a23e-421e-bb8a-a0b3e8b67f8a","origin":[13.402401759681027,52.52845740521203],"elevation":36.41}
# Longitude: 13.402401759681027
# Latitude: 52.52845740521203
# Elevation: 36.41

# File produced by Open Asset Import Library (http://www.assimp.sf.net)
# (assimp v3.1.0)

mtllib DEB_LOD2_UUID_8c31a222-a23e-421e-bb8a-a0b3e8b67f8a.obj.mtl

# 45 vertex positions
v  11.395 17.003 1.045
v  8.946 2.5638e-16 -4.187
v  8.946 16.97 -4.187
v  12.646 17.019 3.718
v  11.395 -6.39878e-17 1.045
v  12.646 -2.27662e-16 3.718
v  8.17 -8.18738e-16 13.371
v  6.67 17.13 13.635
v  6.67 -8.34903e-16 13.635
v  8.17 17.13 13.371
v  8.858 -8.11328e-16 13.25
v  8.858 17.13 13.25
v  11.726 -7.80406e-16 12.745
v  11.726 18.59 12.745
v  11.812 -7.79488e-16 12.73
v  11.812 18.563 12.73
v  16.783 -7.25848e-16 11.854
v  16.783 18.554 11.854
v  0 17.13 1.04891e-15
v  1.473 4.21891e-17 -0.689
v  0 0 0
v  1.473 17.13 -0.689
v  1.934 17.13 -0.905
v  9.344 18.59 7.876
v  4.469 18.59 -2.091
v  17.99 -7.1403e-16 11.661
v  17.99 18.559 11.661
v  20.74 -6.87149e-16 11.222
v  20.74 18.574 11.222
v  19.933 16.68 6.21
v  19.933 -3.80253e-16 6.21
v  15.738 16.715 7.057
v  15.642 16.716 7.076
v  15.429 16.672 6.993
v  15.642 -4.3328e-16 7.076
v  15.042 -4.19074e-16 6.844
v  14.064 -3.95867e-16 6.465
v  15.429 -4.28198e-16 6.993
v  15.042 16.764 6.844
v  14.064 16.998 6.465
v  12.755 16.98 3.667
v  12.755 -2.24539e-16 3.667
v  15.738 -4.32117e-16 7.057
v  4.469 1.28037e-16 -2.091
v  1.934 5.54153e-17 -0.905

# 0 UV coordinates

# 75 vertex normals
vn 0.905692 0 -0.423937
vn 0.905715 -1.89258e-05 -0.423887
vn 0.905692 9.64195e-06 -0.423937
vn 0.905715 0 -0.423887
vn 0.173336 0 0.984863
vn 0.173214 0 0.984884
vn 0.173413 0 0.984849
vn 0.171828 0 0.985127
vn 0.171828 0 0.985127
vn 0.173548 0 0.984825
vn -0.423693 5.54646e-17 -0.905806
vn -0.423693 0 -0.905806
vn -0.415535 0.886575 0.203261
vn -0.415621 0.886519 0.203329
vn -0.415529 0.886582 0.203241
vn 0.157895 0 0.987456
vn 0.15764 0 0.987497
vn 0.15764 0 0.987497
vn 0.987284 0 -0.158966
vn 0.987284 0 -0.158966
vn -0.0592134 0.936342 -0.346061
vn -0.0592858 0.936343 -0.346046
vn -0.0586641 0.93652 -0.345673
vn -0.058734 0.9365 -0.345714
vn 0.36308 0 -0.931758
vn 0.360645 -3.58039e-05 -0.932703
vn 0.361342 -5.43734e-05 -0.932434
vn 1.61561e-21 1 6.12282e-17
vn 0.361342 0 -0.932433
vn 0.35933 0.000134898 -0.93321
vn -0.89828 0 0.439423
vn -0.89828 -2.69069e-17 0.439423
vn 0.905777 0 -0.423754
vn 0.905778 0 -0.423754
vn -1.59149e-23 -1 -6.12323e-17
vn 3.41306e-23 -1 -6.12323e-17
vn 8.37091e-24 -1 -6.12323e-17
vn -9.05042e-24 -1 -6.12323e-17
vn 1.01195e-22 -1 -6.12323e-17
vn 6.95569e-23 -1 -6.12323e-17
vn 0 -1 -6.12322e-17
vn -1.44775e-23 -1 -6.12324e-17
vn 4.6704e-23 -1 -6.12323e-17
vn -1.6911e-23 -1 -6.12323e-17
vn -9.03099e-24 -1 -6.12323e-17
vn 0 -1 -6.12324e-17
vn 6.34693e-23 -1 -6.12323e-17
vn 1.23622e-22 -1 -6.12323e-17
vn -1.43439e-24 -1 -6.12323e-17
vn 0 -1 -6.12323e-17
vn 0 -1 -6.12323e-17
vn 3.70767e-24 -1 -6.12323e-17
vn 0 -1 -6.12346e-17
vn 0.279784 0.95026 -0.136846
vn 0.279725 0.950277 -0.136847
vn 0.275046 0.951732 -0.136218
vn 0.279556 0.950327 -0.136849
vn 0.280248 0.950123 -0.136847
vn 0.279406 0.950354 -0.136964
vn 0.280273 0.950151 -0.136602
vn 0.278867 0.950441 -0.137462
vn 0.276888 0.951278 -0.135658
vn -0.423794 -0 -0.905759
vn -0.423794 0 -0.905759
vn -0.0618215 0.936605 -0.344891
vn -0.0600852 0.936907 -0.344376
vn -0.194152 0 -0.980972
vn -0.197913 2.24571e-05 -0.98022
vn -0.194152 -0.000984191 -0.980971
vn -0.197913 0 -0.98022
vn 0 1 0
vn -0.424283 0 -0.90553
vn -0.423766 0 -0.905772
vn -0.424004 0 -0.90566
vn -0.424004 0 -0.905661

# Mesh 'defaultobject' with 86 faces
g defaultobject
usemtl DefaultMaterial
f  1//1 2//1 3//1
f  2//2 1//2 4//2
f  2//1 4//3 5//3
f  5//4 4//4 6//4
f  7//5 8//5 9//5
f  8//5 7//5 10//5
f  10//6 7//6 11//6
f  10//6 11//6 12//6
f  12//7 11//7 13//7
f  12//7 13//7 14//7
f  14//8 13//8 15//8
f  14//8 15//8 16//9
f  16//10 15//10 17//10
f  16//10 17//10 18//10
f  19//11 20//11 21//11
f  20//11 19//11 22//12
f  14//13 23//13 12//13
f  23//14 14//14 24//14
f  23//15 24//15 25//15
f  26//16 18//16 17//16
f  18//16 26//16 27//16
f  27//17 26//17 28//17
f  27//17 28//17 29//18
f  30//19 28//19 31//19
f  28//19 30//19 29//20
f  32//21 18//21 27//21
f  18//22 32//22 16//22
f  16//23 32//23 33//23
f  16//24 33//24 34//24
f  35//25 34//25 33//25
f  34//26 35//26 36//26
f  34//27 36//27 37//27
f  36//28 35//28 38//28
f  39//29 37//29 40//29
f  37//30 39//30 34//30
f  8//31 21//31 9//31
f  21//31 8//31 19//32
f  41//33 37//33 42//33
f  37//33 41//33 40//34
f  26//35 31//35 28//35
f  31//35 26//35 17//36
f  31//35 17//36 15//37
f  31//35 15//37 43//38
f  43//38 15//37 35//39
f  35//39 15//37 38//40
f  38//40 15//37 13//41
f  38//40 13//41 11//42
f  38//40 11//42 36//43
f  36//43 11//42 37//44
f  37//44 11//42 42//45
f  42//45 11//42 7//46
f  42//45 7//46 9//47
f  42//45 9//47 6//48
f  6//48 9//47 21//49
f  6//48 21//49 5//50
f  5//50 21//49 20//50
f  5//50 20//50 44//51
f  5//50 44//51 2//52
f  44//51 20//50 45//53
f  24//54 3//54 25//54
f  3//55 24//55 14//55
f  3//56 14//56 16//56
f  3//57 16//57 1//57
f  1//58 16//58 4//58
f  4//59 16//59 40//59
f  40//60 16//60 39//60
f  39//61 16//61 34//61
f  4//62 40//62 41//62
f  4//63 42//63 6//63
f  42//63 4//63 41//64
f  27//65 30//65 32//65
f  30//66 27//66 29//66
f  32//67 35//67 33//67
f  35//68 32//68 30//68
f  35//69 30//69 43//69
f  43//70 30//70 31//70
f  8//71 22//71 19//71
f  22//71 8//71 23//71
f  23//71 8//71 10//71
f  23//71 10//71 12//71
f  23//72 20//72 22//72
f  20//72 23//72 45//72
f  45//73 23//73 25//73
f  45//73 25//73 44//73
f  44//74 25//74 3//74
f  44//74 3//74 2//75

