# {"id":"DEB_LOD2_UUID_72231215-09fe-4b75-bbe2-fc634b2c636c","idOriginal":"DEB_LOD2_UUID_72231215-09fe-4b75-bbe2-fc634b2c636c","origin":[13.41109627182658,52.507678107852264],"elevation":34.92}
# Longitude: 13.41109627182658
# Latitude: 52.507678107852264
# Elevation: 34.92

# File produced by Open Asset Import Library (http://www.assimp.sf.net)
# (assimp v3.1.0)

mtllib DEB_LOD2_UUID_72231215-09fe-4b75-bbe2-fc634b2c636c.obj.mtl

# 36 vertex positions
v  29.1 13.32 -18.39
v  30.724 1.2424e-15 -20.29
v  30.724 13.32 -20.29
v  29.1 1.12606e-15 -18.39
v  38.389 13.32 -29.257
v  40.013 1.90782e-15 -31.157
v  40.013 13.32 -31.157
v  38.389 1.79147e-15 -29.257
v  7.734 13.32 6.607
v  12.082 -9.30732e-17 1.52
v  12.082 13.32 1.52
v  7.734 -4.04562e-16 6.607
v  15.005 13.32 -1.9
v  19.747 4.55997e-16 -7.447
v  19.747 13.32 -7.447
v  15.005 1.16341e-16 -1.9
v  32.023 13.32 -21.81
v  33.647 1.45182e-15 -23.71
v  33.647 13.32 -23.71
v  32.023 1.33548e-15 -21.81
v  41.312 2.00089e-15 -32.677
v  37.748 2.70573e-15 -44.188
v  45.512 2.30178e-15 -37.591
v  24.359 7.86346e-16 -12.842
v  22.702 6.67739e-16 -10.905
v  21.403 5.74665e-16 -9.385
v  13.381 0 0
v  0 0 0
v  0 13.32 8.15615e-16
v  41.312 13.32 -32.677
v  45.512 13.32 -37.591
v  37.748 13.32 -44.188
v  24.359 13.32 -12.842
v  13.381 13.32 8.15615e-16
v  22.702 13.32 -10.905
v  21.403 13.32 -9.385

# 0 UV coordinates

# 33 vertex normals
vn 0.76016 0 0.649736
vn 0.760159 0 0.649737
vn 0.760163 0 0.649732
vn 0.760107 0 0.649798
vn 1.28612e-23 -1 -6.12324e-17
vn 0 -1 -6.12324e-17
vn -9.97846e-23 -1 -6.12323e-17
vn 0 -1 -6.12323e-17
vn 0 -1 -6.12323e-17
vn 1.66354e-22 -1 -6.12323e-17
vn -1.33052e-22 -1 -6.12324e-17
vn 0 -1 -6.12323e-17
vn 0 -1 -6.12323e-17
vn 0 -1 -6.12324e-17
vn 0 -1 -6.12323e-17
vn 9.11103e-23 -1 -6.12323e-17
vn 0 -1 -6.12326e-17
vn 0 -1 -6.1232e-17
vn 1.98789e-22 -1 -6.12323e-17
vn -2.29257e-23 -1 -6.12324e-17
vn -0.649536 0 0.760331
vn 0.760173 0 0.649721
vn -0.760339 0 -0.649526
vn 0.760233 0 0.649651
vn 0.760209 0 0.649679
vn 0.760209 0 0.649679
vn 0.759893 0 0.650048
vn 0.760209 0 0.649679
vn 0.760107 0 0.649798
vn 0.760159 0 0.649737
vn 0.647512 0 -0.762055
vn 0.760253 0 0.649628
vn 0 1 0

# Mesh 'defaultobject' with 68 faces
g defaultobject
usemtl DefaultMaterial
f  1//1 2//1 3//1
f  2//1 1//1 4//1
f  5//2 6//2 7//2
f  6//2 5//2 8//2
f  9//3 10//3 11//3
f  10//3 9//3 12//3
f  13//4 14//4 15//4
f  14//4 13//4 16//4
f  17//2 18//2 19//2
f  18//2 17//2 20//2
f  21//5 22//5 23//5
f  22//5 21//5 6//6
f  22//5 6//6 8//7
f  22//5 8//7 18//8
f  22//5 18//8 20//9
f  22//5 20//9 2//10
f  22//5 2//10 4//11
f  22//5 4//11 24//12
f  22//5 24//12 25//13
f  22//5 25//13 26//14
f  22//5 26//14 14//15
f  22//5 14//15 16//16
f  22//5 16//16 27//17
f  22//5 27//17 10//18
f  22//5 10//18 12//19
f  22//5 12//19 28//20
f  29//21 12//21 9//21
f  12//21 29//21 28//21
f  30//22 23//22 31//22
f  23//22 30//22 21//22
f  32//23 28//23 29//23
f  28//23 32//23 22//23
f  33//24 4//24 1//24
f  4//24 33//24 24//24
f  7//25 21//25 30//25
f  21//25 7//25 6//25
f  11//26 27//26 34//26
f  27//26 11//26 10//26
f  35//27 24//27 33//27
f  24//27 35//27 25//27
f  36//28 25//28 35//28
f  25//28 36//28 26//28
f  19//29 8//29 5//29
f  8//29 19//29 18//29
f  34//30 16//30 13//30
f  16//30 34//30 27//30
f  31//31 22//31 32//31
f  22//31 31//31 23//31
f  15//32 26//32 36//32
f  26//32 15//32 14//32
f  9//33 32//33 29//33
f  32//33 9//33 11//33
f  32//33 11//33 34//33
f  32//33 34//33 13//33
f  32//33 13//33 15//33
f  32//33 15//33 36//33
f  32//33 36//33 35//33
f  32//33 35//33 33//33
f  32//33 33//33 1//33
f  32//33 1//33 3//33
f  32//33 3//33 17//33
f  32//33 17//33 19//33
f  32//33 19//33 5//33
f  32//33 5//33 7//33
f  32//33 7//33 30//33
f  32//33 30//33 31//33
f  3//25 20//25 17//25
f  20//25 3//25 2//25

