# {"id":"DEB_LOD2_UUID_fd2fa9ec-0c71-4414-922a-e606db629c0d","idOriginal":"DEB_LOD2_UUID_fd2fa9ec-0c71-4414-922a-e606db629c0d","origin":[13.378395065790379,52.565043675573925],"elevation":40.32}
# Longitude: 13.378395065790379
# Latitude: 52.565043675573925
# Elevation: 40.32

# File produced by Open Asset Import Library (http://www.assimp.sf.net)
# (assimp v3.1.0)

mtllib DEB_LOD2_UUID_fd2fa9ec-0c71-4414-922a-e606db629c0d.obj.mtl

# 36 vertex positions
v  17.924 6.71 3.214
v  17.019 -5.03575e-16 8.224
v  17.019 6.71 8.224
v  17.924 -1.96801e-16 3.214
v  42.424 6.71 7.723
v  46.838 1.01658e-15 -16.602
v  46.838 6.71 -16.602
v  42.424 -4.72897e-16 7.723
v  37.097 6.71 -18.391
v  37.997 1.42739e-15 -23.311
v  37.997 6.71 -23.311
v  37.097 1.12612e-15 -18.391
v  9.845 6.71 -26.476
v  9.521 1.5095e-15 -24.652
v  9.521 6.71 -24.652
v  9.845 1.62119e-15 -26.476
v  22.643 -5.6646e-16 9.251
v  22.643 6.71 9.251
v  2.863 6.71 -15.709
v  0 0 0
v  0 6.71 4.10869e-16
v  2.863 9.61899e-16 -15.709
v  18.621 6.71 -26.634
v  11.877 1.70795e-15 -27.893
v  11.877 6.71 -27.893
v  18.621 1.63086e-15 -26.634
v  23.556 6.71 4.281
v  18.657 6.71 -26.813
v  4.897 6.71 -25.504
v  4.656 6.71 -24.3
v  4.434 6.71 -24.334
v  4.897 1.56167e-15 -25.504
v  18.657 1.64182e-15 -26.813
v  4.434 1.49003e-15 -24.334
v  4.656 1.48795e-15 -24.3
v  23.556 -2.62136e-16 4.281

# 0 UV coordinates

# 33 vertex normals
vn -0.984074 0 -0.177762
vn 0.983932 0 0.178544
vn 0.983677 0 0.179941
vn -0.984587 0 -0.174894
vn -0.17964 0 0.983733
vn -0.983795 0 -0.179299
vn 0.183514 0 -0.983017
vn 0 1 0
vn 0.181206 0 -0.983445
vn 0.178178 0 -0.983998
vn 0.15139 0 -0.988474
vn 0.983542 0 0.180679
vn -0.571999 0 -0.820255
vn -0.980549 0 -0.196272
vn 0 -1 -6.12323e-17
vn 0 -1 -6.12323e-17
vn 1.38378e-23 -1 -6.12323e-17
vn -9.69859e-24 -1 -6.12323e-17
vn 1.17482e-21 -1 -6.12331e-17
vn -3.46395e-23 -1 -6.12323e-17
vn 9.1546e-24 -1 -6.12323e-17
vn 5.40624e-23 -1 -6.12324e-17
vn -4.35113e-24 -1 -6.12323e-17
vn -2.85739e-23 -1 -6.12323e-17
vn -4.16609e-22 -1 -6.12321e-17
vn 1.61431e-23 -1 -6.12324e-17
vn 5.82614e-24 -1 -6.12323e-17
vn -6.46231e-24 -1 -6.12323e-17
vn -0.176498 0 0.984301
vn -0.983813 0 -0.179197
vn 0.180636 0 -0.98355
vn -0.98037 0 -0.197167
vn -0.179464 0 0.983765

# Mesh 'defaultobject' with 68 faces
g defaultobject
usemtl DefaultMaterial
f  1//1 2//1 3//1
f  2//1 1//1 4//1
f  5//2 6//2 7//2
f  6//2 5//2 8//2
f  9//3 10//3 11//3
f  10//3 9//3 12//3
f  13//4 14//4 15//4
f  14//4 13//4 16//4
f  3//5 17//5 18//5
f  17//5 3//5 2//5
f  19//6 20//6 21//6
f  20//6 19//6 22//6
f  23//7 24//7 25//7
f  24//7 23//7 26//7
f  9//8 5//8 7//8
f  5//8 9//8 27//8
f  28//8 9//8 11//8
f  9//8 28//8 27//8
f  27//8 28//8 18//8
f  18//8 28//8 1//8
f  1//8 28//8 23//8
f  1//8 23//8 21//8
f  21//8 23//8 25//8
f  21//8 25//8 15//8
f  15//8 25//8 13//8
f  21//8 15//8 29//8
f  21//8 29//8 30//8
f  21//8 30//8 19//8
f  19//8 30//8 31//8
f  3//8 18//8 1//8
f  15//9 32//9 29//9
f  32//9 15//9 14//9
f  11//10 33//10 28//10
f  33//10 11//10 10//10
f  30//11 34//11 31//11
f  34//11 30//11 35//11
f  18//12 36//12 27//12
f  36//12 18//12 17//12
f  25//13 16//13 13//13
f  16//13 25//13 24//13
f  29//14 35//14 30//14
f  35//14 29//14 32//14
f  17//15 4//15 36//15
f  4//15 17//15 2//16
f  8//17 12//17 6//17
f  12//17 8//17 33//18
f  33//18 8//17 26//19
f  26//19 8//17 24//20
f  24//20 8//17 16//21
f  16//21 8//17 14//22
f  14//22 8//17 32//23
f  32//23 8//17 36//15
f  32//23 36//15 35//24
f  35//24 36//15 34//25
f  34//25 36//15 22//26
f  22//26 36//15 4//15
f  22//26 4//15 20//27
f  33//18 10//28 12//17
f  21//29 4//29 1//29
f  4//29 21//29 20//29
f  31//30 22//30 19//30
f  22//30 31//30 34//30
f  7//31 12//31 9//31
f  12//31 7//31 6//31
f  28//32 26//32 23//32
f  26//32 28//32 33//32
f  27//33 8//33 5//33
f  8//33 27//33 36//33

