# {"id":"DEB_LOD2_UUID_605479ce-4114-43c9-a34e-ee072ade4f53","idOriginal":"DEB_LOD2_UUID_605479ce-4114-43c9-a34e-ee072ade4f53","origin":[13.387900192428916,52.52815639272116],"elevation":35.34}
# Longitude: 13.387900192428916
# Latitude: 52.52815639272116
# Elevation: 35.34

# File produced by Open Asset Import Library (http://www.assimp.sf.net)
# (assimp v3.1.0)

mtllib DEB_LOD2_UUID_605479ce-4114-43c9-a34e-ee072ade4f53.obj.mtl

# 10 vertex positions
v  0 14.613 8.94788e-16
v  7.869 1.4561e-16 -2.378
v  0 0 0
v  7.869 14.613 -2.378
v  9.606 -1.95576e-16 3.194
v  9.606 14.908 3.194
v  1.755 14.907 5.554
v  1.755 -3.40084e-16 5.554
v  6.351 14.908 4.171
v  6.351 -2.554e-16 4.171

# 0 UV coordinates

# 15 vertex normals
vn -0.289278 5.86144e-17 -0.957245
vn -0.289278 0 -0.957245
vn 0.954687 0 -0.297612
vn 0.954687 0 -0.297612
vn -0.953528 0 0.301304
vn -0.953528 -1.84495e-17 0.301304
vn 0.288151 0 0.957585
vn 0.288151 -0 0.957585
vn -2.21144e-24 -1 -6.12323e-17
vn 7.56285e-24 -1 -6.12323e-17
vn -5.33829e-24 -1 -6.12323e-17
vn 0.287483 0 0.957786
vn -0.0145838 0.998728 -0.0482591
vn -0.014786 0.998718 -0.0484146
vn -0.0145129 0.998725 -0.0483516

# Mesh 'defaultobject' with 16 faces
g defaultobject
usemtl DefaultMaterial
f  1//1 2//1 3//1
f  2//1 1//1 4//2
f  4//3 5//3 2//3
f  5//3 4//3 6//4
f  7//5 3//5 8//5
f  3//5 7//5 1//6
f  9//7 8//7 10//7
f  8//7 9//7 7//8
f  2//9 8//9 3//9
f  8//9 2//9 10//10
f  10//10 2//9 5//11
f  6//12 10//12 5//12
f  10//12 6//12 9//12
f  7//13 4//13 1//13
f  4//14 7//14 9//14
f  4//15 9//15 6//15

