# {"id":"DEB_LOD2_UUID_f646f7da-d3fb-41ce-8b44-0b095e6c778f","idOriginal":"DEB_LOD2_UUID_f646f7da-d3fb-41ce-8b44-0b095e6c778f","origin":[13.37996000499916,52.53198495406593],"elevation":35.79}
# Longitude: 13.37996000499916
# Latitude: 52.53198495406593
# Elevation: 35.79

# File produced by Open Asset Import Library (http://www.assimp.sf.net)
# (assimp v3.1.0)

mtllib DEB_LOD2_UUID_f646f7da-d3fb-41ce-8b44-0b095e6c778f.obj.mtl

# 12 vertex positions
v  7.376 3.58 5.117
v  3.786 -4.42281e-16 7.223
v  7.376 -3.13326e-16 5.117
v  3.786 3.58 7.223
v  2.172 3.58 -1.192
v  0 0 0
v  0 3.58 2.19212e-16
v  2.172 7.29889e-17 -1.192
v  3.581 3.58 -1.966
v  3.581 1.20383e-16 -1.966
v  0.033 3.58 0.062
v  0.033 -3.7964e-18 0.062

# 0 UV coordinates

# 13 vertex normals
vn 0.505991 0 0.862539
vn -0.481113 0 -0.876659
vn -0.481465 0 -0.876465
vn 0.881452 0 -0.472273
vn 0 1 0
vn -0.882747 0 0.469849
vn -0.88573 -0.000125312 0.464201
vn -0.882655 0.0144233 0.4698
vn -0.88573 0 0.464201
vn 6.30011e-24 -1 -6.12323e-17
vn 0 -1 -6.12323e-17
vn 1.18912e-22 -1 -6.12322e-17
vn 3.80313e-23 -1 -6.12323e-17

# Mesh 'defaultobject' with 20 faces
g defaultobject
usemtl DefaultMaterial
f  1//1 2//1 3//1
f  2//1 1//1 4//1
f  5//2 6//2 7//2
f  6//2 5//2 8//2
f  8//3 5//3 9//3
f  8//3 9//3 10//3
f  9//4 3//4 10//4
f  3//4 9//4 1//4
f  11//5 5//5 7//5
f  5//5 11//5 4//5
f  5//5 4//5 9//5
f  9//5 4//5 1//5
f  12//6 7//6 6//6
f  7//7 12//7 2//7
f  7//8 2//8 11//8
f  11//9 2//9 4//9
f  12//10 3//10 2//10
f  3//10 12//10 10//11
f  10//11 12//10 8//12
f  8//12 12//10 6//13

