# {"id":"DEB_LOD2_UUID_40e49d01-f9f4-490f-94eb-6351ded884b4","idOriginal":"DEB_LOD2_UUID_40e49d01-f9f4-490f-94eb-6351ded884b4","origin":[13.372058295734341,52.536767129029265],"elevation":35.239}
# Longitude: 13.372058295734341
# Latitude: 52.536767129029265
# Elevation: 35.239

# File produced by Open Asset Import Library (http://www.assimp.sf.net)
# (assimp v3.1.0)

mtllib DEB_LOD2_UUID_40e49d01-f9f4-490f-94eb-6351ded884b4.obj.mtl

# 60 vertex positions
v  7.172 -6.67126e-16 10.895
v  6.773 5.265 11.156
v  6.773 -6.83108e-16 11.156
v  7.172 5.265 10.895
v  6.202 -7.05886e-16 11.528
v  4.864 4.995 12.401
v  4.864 -7.59342e-16 12.401
v  6.202 5.363 11.528
v  6.773 5.477 11.156
v  8.537 5.265 12.133
v  8.509 -7.4036e-16 12.091
v  8.509 5.265 12.091
v  8.995 5.265 12.83
v  8.537 -7.42932e-16 12.133
v  8.995 -7.85611e-16 12.83
v  0.375 5.265 -0.243
v  0.841 -2.91466e-17 0.476
v  0.375 1.48795e-17 -0.243
v  0.841 5.265 0.476
v  38.331 5.265 -7.55
v  38.331 4.62304e-16 -7.55
v  8.61 -8.01041e-16 13.082
v  8.61 5.265 13.082
v  39.23 5.265 -7.064
v  38.756 4.1589e-16 -6.792
v  39.23 4.32545e-16 -7.064
v  38.756 5.265 -6.792
v  1.488 4.995 7.719
v  3.84 5.477 6.041
v  1.425 4.993 7.636
v  38.941 4.63468e-16 -7.569
v  38.812 4.77245e-16 -7.794
v  34.949 8.89828e-16 -14.532
v  31.857 1.22005e-15 -19.925
v  38.361 4.59059e-16 -7.497
v  23.908 8.99748e-16 -14.694
v  8.152 -7.58424e-16 12.386
v  3.926 -3.66414e-16 5.984
v  3.84 -3.69905e-16 6.041
v  1.425 -4.6757e-16 7.636
v  1.488 -4.72652e-16 7.719
v  3.746 -6.55186e-16 10.7
v  3.882 -3.62251e-16 5.916
v  2.988 -2.78852e-16 4.554
v  0.275 1.08994e-17 -0.178
v  0 0 0
v  23.908 5.265 -14.694
v  31.857 5.265 -19.925
v  0 5.265 3.22388e-16
v  3.882 5.265 5.916
v  3.926 5.265 5.984
v  2.988 5.265 4.554
v  38.361 5.265 -7.497
v  38.941 5.265 -7.569
v  3.746 5.015 10.7
v  8.152 5.265 12.386
v  3.84 5.265 6.041
v  0.275 5.265 -0.178
v  34.949 5.265 -14.532
v  38.812 5.265 -7.794

# 0 UV coordinates

# 74 vertex normals
vn 0.547418 0 0.836859
vn 0.54644 0 0.837498
vn 0.54644 0 0.837499
vn 0.545865 0 0.837873
vn 0.832056 0 -0.554691
vn 0.835721 -6.36616e-05 -0.549154
vn 0.832056 0.00105183 -0.554691
vn 0.835721 0 -0.549154
vn 0.839163 0 -0.54388
vn 0.550032 0 0.835144
vn 0.547659 0 0.836702
vn 0.497716 0 0.86734
vn -0.142114 0.986271 0.0841063
vn -0.14344 0.986236 0.0822375
vn -0.143353 0.986252 0.0822003
vn -9.88526e-23 -1 -6.12323e-17
vn -5.83098e-24 -1 -6.12323e-17
vn -1.49545e-22 -1 -6.12323e-17
vn 1.24529e-22 -1 -6.12324e-17
vn 0 -1 -6.12331e-17
vn 3.20277e-24 -1 -6.12324e-17
vn -1.70659e-24 -1 -6.12323e-17
vn 4.4088e-24 -1 -6.12323e-17
vn 1.31816e-22 -1 -6.12324e-17
vn 0 -1 -6.12318e-17
vn -1.09846e-21 -1 -6.12319e-17
vn -7.76088e-23 -1 -6.12322e-17
vn -3.77238e-23 -1 -6.12323e-17
vn 2.37088e-22 -1 -6.12325e-17
vn 0 -1 -6.12323e-17
vn 9.33212e-24 -1 -6.12323e-17
vn -3.82718e-22 -1 -6.12319e-17
vn 0 -1 -6.12323e-17
vn -2.03491e-24 -1 -6.12323e-17
vn 0 -1 -6.12322e-17
vn 6.51157e-21 -1 -6.12348e-17
vn 0 -1 -6.12324e-17
vn -1.27348e-23 -1 -6.12323e-17
vn -8.62183e-24 -1 -6.12324e-17
vn -0.549719 -0 -0.83535
vn -0.836095 0 0.548584
vn -0.835995 0.000188784 0.548737
vn -0.839541 -0.0086143 0.543229
vn -0.836072 9.86061e-05 0.548619
vn -0.83957 0 0.543251
vn 0 -1 0
vn -0.870265 0 0.492583
vn -0.8724 -5.03296e-05 0.488792
vn -0.870265 0.000667841 0.492583
vn -0.8724 0 0.488792
vn 0.867927 0 -0.496691
vn -0.83566 0 0.549246
vn -0.835661 0 0.549246
vn -0.79653 0 0.604598
vn -0.797135 -2.08817e-05 0.603801
vn -0.797119 0 0.603823
vn -0.795294 0.0720871 0.601923
vn -0.549473 -0 -0.835511
vn -0.835654 0 0.549257
vn -0.83536 0.000181477 0.549704
vn -0.835654 -8.47436e-05 0.549257
vn -0.83536 0 0.549704
vn -0.551107 -0 -0.834435
vn -0.551107 0 -0.834435
vn -0.552459 0 -0.83354
vn -0.543378 0 -0.839488
vn -0.544988 0 -0.838444
vn -0.182448 0.97436 0.131661
vn -0.182336 0.97443 0.131299
vn 0.867501 0 -0.497435
vn 0.867529 0 -0.497386
vn 0.867537 0 -0.497372
vn 0.867528 0 -0.497389
vn 0 1 0

# Mesh 'defaultobject' with 116 faces
g defaultobject
usemtl DefaultMaterial
f  1//1 2//1 3//1
f  2//1 1//1 4//1
f  5//2 6//2 7//2
f  6//2 5//2 8//3
f  8//4 5//4 3//4
f  8//4 3//4 9//4
f  9//4 3//4 2//1
f  10//5 11//5 12//5
f  11//6 10//6 13//6
f  11//7 13//7 14//7
f  14//8 13//8 15//8
f  16//9 17//9 18//9
f  17//9 16//9 19//9
f  20//10 11//10 21//10
f  11//10 20//10 12//10
f  13//11 22//11 15//11
f  22//11 13//11 23//11
f  24//12 25//12 26//12
f  25//12 24//12 27//12
f  28//13 29//13 30//13
f  29//14 28//14 8//14
f  29//15 8//15 9//15
f  25//16 31//16 26//16
f  31//16 25//16 32//17
f  32//17 25//16 33//18
f  33//18 25//16 34//19
f  34//19 25//16 35//20
f  34//19 21//21 36//21
f  21//21 34//19 35//20
f  36//21 21//21 11//22
f  36//21 11//22 17//23
f  17//23 11//22 22//24
f  17//23 22//24 37//25
f  17//23 37//25 1//26
f  17//23 1//26 38//27
f  38//27 1//26 3//28
f  38//27 3//28 39//29
f  39//29 3//28 5//30
f  39//29 5//30 40//31
f  40//31 5//30 41//32
f  41//32 5//30 42//33
f  42//33 5//30 7//34
f  38//27 18//35 17//23
f  18//35 38//27 43//36
f  18//35 43//36 44//37
f  18//35 44//37 45//38
f  45//38 44//37 46//33
f  22//24 14//39 15//39
f  14//39 22//24 11//22
f  47//40 34//40 36//40
f  34//40 47//40 48//40
f  44//41 49//41 46//41
f  49//42 44//42 43//42
f  49//43 43//43 38//43
f  49//44 38//44 50//44
f  50//45 38//45 51//45
f  49//46 50//46 52//46
f  35//47 20//47 21//47
f  20//48 35//48 25//48
f  20//49 25//49 53//49
f  53//50 25//50 27//50
f  54//51 26//51 31//51
f  26//51 54//51 24//51
f  6//52 42//52 7//52
f  42//52 6//52 55//53
f  41//54 30//54 40//54
f  30//55 41//55 42//55
f  30//56 42//56 55//56
f  30//57 55//57 28//57
f  19//58 36//58 17//58
f  36//58 19//58 47//58
f  37//59 4//59 1//59
f  4//60 37//60 22//60
f  4//61 22//61 56//61
f  56//62 22//62 23//62
f  30//63 39//63 40//63
f  39//63 30//63 57//63
f  57//63 30//63 29//64
f  39//65 57//65 38//65
f  51//65 38//65 57//65
f  58//66 46//66 49//66
f  46//66 58//66 45//66
f  45//67 58//67 16//67
f  45//67 16//67 18//67
f  55//68 8//68 28//68
f  8//69 55//69 6//69
f  29//70 2//70 57//70
f  2//70 29//70 9//70
f  59//71 34//71 48//71
f  34//71 59//71 33//71
f  33//72 59//72 60//72
f  33//72 60//72 32//72
f  32//73 60//73 54//73
f  32//73 54//73 31//73
f  56//74 12//74 4//74
f  12//74 56//74 10//74
f  10//74 56//74 23//74
f  10//74 23//74 13//74
f  2//74 51//74 57//74
f  51//74 2//74 59//74
f  59//74 2//74 4//74
f  59//74 4//74 20//74
f  59//74 20//74 60//74
f  20//74 4//74 12//74
f  60//74 20//74 53//74
f  60//74 53//74 27//74
f  60//74 27//74 54//74
f  54//74 27//74 24//74
f  52//74 58//74 49//74
f  58//74 52//74 16//74
f  16//74 52//74 19//74
f  19//74 52//74 47//74
f  47//74 52//74 48//74
f  48//74 52//74 59//74
f  59//74 52//74 50//74
f  59//74 50//74 51//74

