# {"id":"DEB_LOD2_UUID_d735f326-95a2-41f8-9db2-5da4a66cfac8","idOriginal":"DEB_LOD2_UUID_d735f326-95a2-41f8-9db2-5da4a66cfac8","origin":[13.382778149344157,52.53778508340248],"elevation":36.42}
# Longitude: 13.382778149344157
# Latitude: 52.53778508340248
# Elevation: 36.42

# File produced by Open Asset Import Library (http://www.assimp.sf.net)
# (assimp v3.1.0)

mtllib DEB_LOD2_UUID_d735f326-95a2-41f8-9db2-5da4a66cfac8.obj.mtl

# 8 vertex positions
v  9.632 6.95 1.904
v  2.384 2.01209e-16 -3.286
v  2.384 6.95 -3.286
v  9.632 -1.16586e-16 1.904
v  7.258 -3.15591e-16 5.154
v  0 0 0
v  7.258 6.95 5.154
v  0 6.95 4.25565e-16

# 0 UV coordinates

# 7 vertex normals
vn 0.582193 0 -0.813051
vn -2.92994e-24 -1 -6.12323e-17
vn 0 -1 -6.12323e-17
vn 0.807509 0 0.589855
vn -0.809417 0 -0.587234
vn -0.578983 0 0.81534
vn 0 1 0

# Mesh 'defaultobject' with 12 faces
g defaultobject
usemtl DefaultMaterial
f  1//1 2//1 3//1
f  2//1 1//1 4//1
f  2//2 5//2 6//2
f  5//2 2//2 4//3
f  7//4 4//4 1//4
f  4//4 7//4 5//4
f  3//5 6//5 8//5
f  6//5 3//5 2//5
f  8//6 5//6 7//6
f  5//6 8//6 6//6
f  7//7 3//7 8//7
f  3//7 7//7 1//7

