# {"id":"DEB_LOD2_UUID_81bbe4c3-5003-4b64-983a-b250d18fa707","idOriginal":"DEB_LOD2_UUID_81bbe4c3-5003-4b64-983a-b250d18fa707","origin":[13.38258845630522,52.521974139973786],"elevation":33.83}
# Longitude: 13.38258845630522
# Latitude: 52.521974139973786
# Elevation: 33.83

# File produced by Open Asset Import Library (http://www.assimp.sf.net)
# (assimp v3.1.0)

mtllib DEB_LOD2_UUID_81bbe4c3-5003-4b64-983a-b250d18fa707.obj.mtl

# 51 vertex positions
v  8.447 -9.72982e-16 15.89
v  7.259 -8.01225e-16 13.085
v  7.858 -7.97123e-16 13.018
v  10.323 -1.2781e-15 20.873
v  9.453 -1.09245e-15 17.841
v  9.871 -1.08822e-15 17.772
v  9.125 -9.67471e-16 15.8
v  1.946 -6.83353e-16 11.16
v  4.943 -1.73581e-15 28.348
v  9.904 -1.28551e-15 20.994
v  10.993 -1.66234e-15 27.148
v  10.337 -1.67421e-15 27.342
v  14.342 -1.91474e-16 3.127
v  12.657 1.40712e-16 -2.298
v  13.345 1.48366e-16 -2.423
v  10.394 1.15545e-16 -1.887
v  0 0 0
v  15.325 -5.26598e-16 8.6
v  14.639 -5.34681e-16 8.732
v  12.381 -5.61194e-16 9.165
v  6.717 -6.27815e-16 10.253
v  0.969 -3.40146e-16 5.555
v  6.725 -6.30264e-16 10.293
v  6.991 -7.15622e-16 11.687
v  10.323 14.394 20.873
v  9.904 14.713 20.994
v  12.381 16.603 9.165
v  6.717 16.554 10.253
v  15.325 16.628 8.6
v  13.345 16.562 -2.423
v  14.342 21.27 3.127
v  6.991 15.649 11.687
v  7.259 15.632 13.085
v  0 16.562 1.01413e-15
v  0.969 21.27 5.555
v  10.394 16.562 -1.887
v  12.657 16.562 -2.298
v  14.639 16.622 8.732
v  9.453 14.642 17.841
v  9.871 14.33 17.772
v  10.993 14.702 27.148
v  6.725 16.52 10.293
v  5.584 16.52 10.5
v  1.946 16.52 11.16
v  10.337 15.202 27.342
v  6.725 15.666 10.293
v  1.946 19.243 11.16
v  4.943 19.243 28.348
v  8.447 15.125 15.89
v  9.125 14.621 15.8
v  7.858 15.189 13.018

# 0 UV coordinates

# 87 vertex normals
vn -6.01657e-23 -1 -6.12323e-17
vn -7.97639e-23 -1 -6.12323e-17
vn -3.74576e-23 -1 -6.12324e-17
vn 6.68002e-23 -1 -6.12324e-17
vn -1.16556e-23 -1 -6.12323e-17
vn 2.23389e-23 -1 -6.12323e-17
vn 0 -1 -6.12323e-17
vn -1.02731e-22 -1 -6.12328e-17
vn -5.37045e-23 -1 -6.12323e-17
vn -2.04096e-24 -1 -6.12323e-17
vn -2.80772e-24 -1 -6.12323e-17
vn 5.34575e-23 -1 -6.12324e-17
vn 1.62544e-23 -1 -6.12324e-17
vn 0 -1 -6.12323e-17
vn 1.83729e-22 -1 -6.12313e-17
vn -5.28048e-24 -1 -6.12324e-17
vn 0.277446 0 0.960741
vn 0.277446 -0 0.960741
vn 0.188642 0 0.982046
vn 0.188642 -0 0.982046
vn 0.984248 -1.77785e-05 -0.176795
vn 0.984248 0 -0.176795
vn 0.984248 0 -0.176795
vn 4.54544e-19 1 6.11929e-17
vn 0.982117 0 -0.188274
vn 0.982117 0 -0.188274
vn -0.114492 0.767615 -0.630601
vn -0.114486 0.767606 -0.630614
vn -0.114527 0.767617 -0.630593
vn -0.114568 0.76762 -0.630582
vn 0.188331 0 0.982106
vn 0.188331 -0 0.982106
vn -0.162868 -0 -0.986648
vn -0.162868 0 -0.986648
vn 0.984701 0 -0.174251
vn 0.114301 0.768106 0.630038
vn 0.114402 0.767634 0.630596
vn 0.114482 0.767661 0.630547
vn 0.114413 0.767712 0.630499
vn 0.11448 0.767668 0.63054
vn 0.114454 0.767674 0.630537
vn 0.11461 0.767665 0.63052
vn 0.188954 0 0.981986
vn 0.188954 -0 0.981986
vn 0.989543 0 -0.144235
vn 0.989543 0 -0.144235
vn 0.283588 0 0.958946
vn 0.283588 -0 0.958946
vn 0.980581 0 -0.196114
vn 0.980581 0 -0.196114
vn 0.982277 -2.30223e-05 -0.187436
vn 0.98223 0 -0.187679
vn -1.21203e-19 1 6.12553e-17
vn 0.584209 0.805197 -0.101772
vn 0.584215 0.805181 -0.101867
vn 0.583869 0.805463 -0.101617
vn 0.584292 0.805113 -0.101956
vn 0.58391 0.805449 -0.101492
vn 0.584093 0.805286 -0.101732
vn 0.584177 0.805207 -0.10188
vn 0.584682 0.804794 -0.102242
vn 0.584135 0.80524 -0.101852
vn 0.58419 0.805194 -0.101909
vn 0.584043 0.805314 -0.1018
vn 0.584545 0.80489 -0.102271
vn 0.584223 0.805201 -0.101661
vn 0.178506 0 0.983939
vn 0.183342 0 0.983049
vn 0.183342 -0 0.983049
vn -0.178627 0 -0.983917
vn -0.178694 0 -0.983905
vn -0.178759 0 -0.983893
vn -0.178505 -0 -0.983939
vn -0.111161 -0 -0.993802
vn -0.111161 0 -0.993802
vn -0.985124 0 0.171843
vn -0.985146 -4.25476e-05 0.171719
vn -0.985136 -4.60727e-06 0.171774
vn -0.985131 4.7403e-05 0.171804
vn -0.985217 -0.000495543 0.171312
vn -0.985136 0 0.171774
vn -0.131589 -0 -0.991304
vn -0.131589 0 -0.991304
vn 0.979611 0 -0.200902
vn 0.979611 0 -0.200902
vn 0.987332 0 -0.15867
vn 0.987332 0 -0.15867

# Mesh 'defaultobject' with 98 faces
g defaultobject
usemtl DefaultMaterial
f  1//1 2//1 3//1
f  4//2 5//2 6//2
f  5//2 1//1 7//3
f  1//1 5//2 8//4
f  8//4 5//2 9//5
f  9//5 5//2 10//6
f  10//6 5//2 4//2
f  9//5 10//6 11//7
f  9//5 11//7 12//8
f  13//9 14//9 15//9
f  14//9 13//9 16//10
f  16//10 13//9 17//7
f  17//7 13//9 18//11
f  17//7 18//11 19//12
f  17//7 19//12 20//13
f  17//7 20//13 21//7
f  17//7 21//7 22//14
f  22//14 21//7 8//4
f  8//4 21//7 23//15
f  8//4 23//15 24//16
f  8//4 24//16 2//1
f  8//4 2//1 1//1
f  25//17 10//17 4//17
f  10//17 25//17 26//18
f  27//19 21//19 20//19
f  21//19 27//19 28//20
f  29//21 30//21 31//21
f  30//22 29//22 18//22
f  30//22 18//22 15//23
f  15//24 18//24 13//24
f  32//25 2//25 24//25
f  2//25 32//25 33//26
f  31//27 34//27 35//27
f  34//28 31//28 36//28
f  36//29 31//29 37//29
f  37//30 31//30 30//30
f  38//31 20//31 19//31
f  20//31 38//31 27//32
f  39//33 6//33 5//33
f  6//33 39//33 40//34
f  26//35 11//35 10//35
f  11//35 26//35 41//35
f  42//36 28//36 43//36
f  43//37 35//37 44//37
f  35//38 43//38 31//38
f  31//39 43//39 28//39
f  31//40 28//40 27//40
f  31//41 27//41 38//41
f  31//42 38//42 29//42
f  29//43 19//43 18//43
f  19//43 29//43 38//44
f  40//45 4//45 6//45
f  4//45 40//45 25//46
f  41//47 12//47 11//47
f  12//47 41//47 45//48
f  42//49 21//49 28//49
f  21//49 42//49 46//50
f  21//51 46//51 32//51
f  21//52 32//52 24//52
f  21//53 24//53 23//53
f  40//54 39//54 25//54
f  45//55 47//55 48//55
f  47//56 45//56 41//56
f  47//57 41//57 26//57
f  47//58 26//58 25//58
f  47//59 25//59 39//59
f  47//60 39//60 49//60
f  49//61 39//61 50//61
f  51//62 33//62 49//62
f  49//63 43//63 47//63
f  43//64 49//64 33//64
f  43//65 33//65 32//65
f  43//66 32//66 46//66
f  43//67 46//67 42//67
f  45//68 9//68 12//68
f  9//68 45//68 48//69
f  36//70 17//70 34//70
f  17//70 36//70 16//70
f  16//71 36//71 37//71
f  16//71 37//71 14//71
f  14//72 37//72 30//72
f  14//72 30//72 15//72
f  47//73 43//73 44//73
f  33//74 3//74 2//74
f  3//74 33//74 51//75
f  22//76 34//76 17//76
f  34//77 22//77 8//77
f  34//78 8//78 9//78
f  34//79 9//79 35//79
f  35//80 9//80 44//80
f  44//81 9//78 47//81
f  47//81 9//78 48//81
f  49//82 7//82 1//82
f  7//82 49//82 50//83
f  51//84 1//84 3//84
f  1//84 51//84 49//85
f  50//86 5//86 7//86
f  5//86 50//86 39//87

