# {"id":"DEB_LOD2_UUID_d9595b73-674a-4b69-b3a3-5a34ea8e1402","idOriginal":"DEB_LOD2_UUID_d9595b73-674a-4b69-b3a3-5a34ea8e1402","origin":[13.351629229454838,52.523781826370694],"elevation":34.51}
# Longitude: 13.351629229454838
# Latitude: 52.523781826370694
# Elevation: 34.51

# File produced by Open Asset Import Library (http://www.assimp.sf.net)
# (assimp v3.1.0)

mtllib DEB_LOD2_UUID_d9595b73-674a-4b69-b3a3-5a34ea8e1402.obj.mtl

# 10 vertex positions
v  3.176 3.55 0.749
v  5.075 4.47057e-16 -7.301
v  5.075 3.55 -7.301
v  3.176 -4.5863e-17 0.749
v  1.899 3.55 -8.051
v  0 0 0
v  0 3.55 2.17375e-16
v  1.899 4.92982e-16 -8.051
v  3.002 4.77061e-16 -7.791
v  3.002 3.55 -7.791

# 0 UV coordinates

# 9 vertex normals
vn 0.973285 0 0.229599
vn -0.973292 0 -0.229572
vn 0.230033 0 -0.973183
vn 0.229433 0 -0.973325
vn -1.1295e-23 -1 -6.12323e-17
vn 9.80627e-25 -1 -6.12323e-17
vn 0 -1 -6.12323e-17
vn -0.229535 0 0.9733
vn 0 1 0

# Mesh 'defaultobject' with 16 faces
g defaultobject
usemtl DefaultMaterial
f  1//1 2//1 3//1
f  2//1 1//1 4//1
f  5//2 6//2 7//2
f  6//2 5//2 8//2
f  3//3 9//3 10//3
f  9//3 3//3 2//3
f  10//4 8//4 5//4
f  8//4 10//4 9//4
f  9//5 6//5 8//5
f  6//5 9//5 4//6
f  4//6 9//5 2//7
f  7//8 4//8 1//8
f  4//8 7//8 6//8
f  1//9 5//9 7//9
f  5//9 1//9 3//9
f  5//9 3//9 10//9

