# {"id":"DEB_LOD2_UUID_78d09747-e81e-42b9-9307-a6eead64e8e9","idOriginal":"DEB_LOD2_UUID_78d09747-e81e-42b9-9307-a6eead64e8e9","origin":[13.383601565428359,52.5490764379792],"elevation":48.59}
# Longitude: 13.383601565428359
# Latitude: 52.5490764379792
# Elevation: 48.59

# File produced by Open Asset Import Library (http://www.assimp.sf.net)
# (assimp v3.1.0)

mtllib DEB_LOD2_UUID_78d09747-e81e-42b9-9307-a6eead64e8e9.obj.mtl

# 8 vertex positions
v  0 5.63 3.44738e-16
v  9.874 6.95722e-16 -11.362
v  0 0 0
v  9.874 5.63 -11.362
v  19.216 5.63 -3.244
v  9.342 5.63 8.119
v  19.216 1.98638e-16 -3.244
v  9.342 -4.97145e-16 8.119

# 0 UV coordinates

# 9 vertex normals
vn -0.754803 4.01655e-17 -0.655952
vn -0.754803 0 -0.655952
vn 0 1 0
vn 5.68264e-25 -1 -6.12323e-17
vn 0 -1 -6.12323e-17
vn 0.754831 0 0.655919
vn -0.655973 0 0.754785
vn -0.655973 -4.62172e-17 0.754785
vn 0.655927 0 -0.754825

# Mesh 'defaultobject' with 12 faces
g defaultobject
usemtl DefaultMaterial
f  1//1 2//1 3//1
f  2//1 1//1 4//2
f  5//3 1//3 6//3
f  1//3 5//3 4//3
f  3//4 7//4 8//4
f  7//4 3//4 2//5
f  5//6 8//6 7//6
f  8//6 5//6 6//6
f  6//7 3//7 8//7
f  3//7 6//7 1//8
f  4//9 7//9 2//9
f  7//9 4//9 5//9

