# {"id":"DEB_LOD2_UUID_ac8e1085-989b-450f-a60e-705916ddc58d","idOriginal":"DEB_LOD2_UUID_ac8e1085-989b-450f-a60e-705916ddc58d","origin":[13.378607713100282,52.51156574728649],"elevation":35.94}
# Longitude: 13.378607713100282
# Latitude: 52.51156574728649
# Elevation: 35.94

# File produced by Open Asset Import Library (http://www.assimp.sf.net)
# (assimp v3.1.0)

mtllib DEB_LOD2_UUID_ac8e1085-989b-450f-a60e-705916ddc58d.obj.mtl

# 10 vertex positions
v  0.464 8.774 4.703
v  2.927 -2.76586e-16 4.517
v  2.927 8.774 4.517
v  0.464 -2.87976e-16 4.703
v  2.566 8.774 -0.261
v  0 0 0
v  0 8.774 5.37253e-16
v  2.566 1.59816e-17 -0.261
v  0.391 -2.28642e-16 3.734
v  0.391 8.774 3.734

# 0 UV coordinates

# 9 vertex normals
vn 0.0753032 0 0.997161
vn -0.101193 0 -0.994867
vn -0.994562 0 0.104144
vn 0 1 0
vn -6.83374e-25 -1 -6.12323e-17
vn 4.47338e-24 -1 -6.12323e-17
vn 0 -1 -6.12323e-17
vn 0.997158 0 -0.0753399
vn -0.997174 0 0.0751225

# Mesh 'defaultobject' with 16 faces
g defaultobject
usemtl DefaultMaterial
f  1//1 2//1 3//1
f  2//1 1//1 4//1
f  5//2 6//2 7//2
f  6//2 5//2 8//2
f  7//3 9//3 10//3
f  9//3 7//3 6//3
f  10//4 5//4 7//4
f  5//4 10//4 1//4
f  5//4 1//4 3//4
f  8//5 9//5 6//5
f  9//5 8//5 2//6
f  9//5 2//6 4//7
f  3//8 8//8 5//8
f  8//8 3//8 2//8
f  10//9 4//9 1//9
f  4//9 10//9 9//9

