# {"id":"DEB_LOD2_UUID_29658e1a-dc7f-43d6-ab7c-8e7e4b5dc351","idOriginal":"DEB_LOD2_UUID_29658e1a-dc7f-43d6-ab7c-8e7e4b5dc351","origin":[13.335927153173007,52.52544335910972],"elevation":33.08}
# Longitude: 13.335927153173007
# Latitude: 52.52544335910972
# Elevation: 33.08

# File produced by Open Asset Import Library (http://www.assimp.sf.net)
# (assimp v3.1.0)

mtllib DEB_LOD2_UUID_29658e1a-dc7f-43d6-ab7c-8e7e4b5dc351.obj.mtl

# 43 vertex positions
v  16.504 4.476 9.714
v  20.632 5.017 5.102
v  15.478 5.018 7.563
v  17.875 3.751 12.585
v  23.036 3.751 10.118
v  17.875 -7.70609e-16 12.585
v  20.632 -3.12407e-16 5.102
v  23.036 -6.19549e-16 10.118
v  11.309 -9.62817e-16 15.724
v  15.478 -4.631e-16 7.563
v  8.212 -1.0535e-15 17.205
v  15.435 -4.64325e-16 7.583
v  12.011 -2.62074e-17 0.428
v  6.841 -8.77643e-16 14.333
v  1.722 -2.20865e-16 3.607
v  14.824 4.33341e-16 -7.077
v  9.666 2.82526e-16 -4.614
v  3.098 9.05626e-17 -1.479
v  0 0 0
v  12.061 -2.47379e-17 0.404
v  17.219 1.26873e-16 -2.072
v  4.818 6.16 2.127
v  11.385 4.46 -1.013
v  4.818 4.46 2.127
v  11.385 5.21 -1.013
v  1.722 3.75 3.607
v  0 3.749 2.2956e-16
v  9.938 4.46 12.853
v  6.841 3.75 14.333
v  8.212 3.75 17.205
v  3.098 3.749 -1.479
v  9.666 3.749 -4.614
v  14.824 3.748 -7.077
v  12.061 4.734 0.404
v  12.061 5.21 0.404
v  16.504 4.46 9.714
v  9.938 6.16 12.853
v  16.504 5.21 9.714
v  17.219 4.728 -2.072
v  12.011 5.217 0.428
v  15.478 5.21 7.563
v  15.435 5.216 7.583
v  11.309 3.751 15.724

# 0 UV coordinates

# 67 vertex normals
vn 0.0957111 0.9751 0.200049
vn 0.0960539 0.975006 0.200344
vn 0.0957105 0.975063 0.200228
vn 0 -1 -6.12323e-17
vn 0 -1 -6.12323e-17
vn -3.32933e-24 -1 -6.12323e-17
vn 0 -1 -6.12323e-17
vn 2.07963e-21 -1 -6.12308e-17
vn -1.00091e-23 -1 -6.12323e-17
vn 0 -1 -6.12323e-17
vn 1.67222e-24 -1 -6.12323e-17
vn 1.55074e-24 -1 -6.12323e-17
vn -9.27225e-24 -1 -6.12324e-17
vn 3.63957e-24 -1 -6.12323e-17
vn -3.8582e-24 -1 -6.12323e-17
vn -0.431373 -0 -0.902174
vn -0.431373 0 -0.902174
vn -0.182949 0.979259 0.0870695
vn -0.182848 0.979259 0.0872815
vn -0.182809 0.97927 0.0872457
vn -0.1828 0.97927 0.087263
vn -0.430827 0 -0.902435
vn -0.43076 0 -0.902466
vn -0.430904 0 -0.902398
vn -0.430905 0 -0.902398
vn 0.902554 0 -0.430576
vn 0.902554 0 -0.430576
vn 0.431314 0 0.902202
vn 0.431314 -0 0.902202
vn 0.902043 0 -0.431647
vn 0.902043 0 -0.431647
vn 0.432754 0 0.901512
vn 0.432754 0 0.901512
vn 0.43273 0 0.901524
vn 0.43273 0 0.901524
vn 0.901781 0 -0.432193
vn 0.901781 0 -0.432193
vn -0.902456 0 0.430783
vn 0.113298 0.99209 -0.0540419
vn 0.116811 0.991588 -0.0557591
vn 0.116854 0.991579 -0.0558272
vn 0.116824 0.991586 -0.0557672
vn 0.116868 0.991591 -0.0555865
vn 0.113017 0.992129 -0.0539164
vn -0.421736 -0 -0.906719
vn -0.421736 0 -0.906719
vn -0.430892 9.56672e-05 -0.902404
vn -0.430816 0 -0.90244
vn 0.431414 0 0.902154
vn 0.431414 0 0.902154
vn 0.431314 0 0.902202
vn 0.43127 0 0.902223
vn 0.0935811 0.976058 0.196352
vn 0.0938159 0.976058 0.196239
vn -0.902435 0 0.430827
vn -0.902488 0 0.430714
vn -0.902448 0 0.430799
vn -0.0754854 0.984531 -0.158116
vn -0.0754737 0.984531 -0.158122
vn -0.0756719 0.984493 -0.15826
vn -0.0754343 0.984494 -0.158374
vn -0.0716552 0.985107 -0.156302
vn -0.074338 0.984757 -0.157247
vn 0.902034 0 -0.431665
vn 0.902034 0 -0.431665
vn 0.902581 0 -0.43052
vn 0.902581 0 -0.43052

# Mesh 'defaultobject' with 81 faces
g defaultobject
usemtl DefaultMaterial
f  1//1 2//1 3//1
f  2//2 1//2 4//2
f  2//3 4//3 5//3
f  6//4 7//4 8//4
f  7//4 6//4 9//5
f  7//4 9//5 10//6
f  10//6 9//5 11//7
f  10//6 11//7 12//8
f  12//8 11//7 13//9
f  13//9 11//7 14//10
f  13//9 14//10 15//11
f  13//9 15//11 16//12
f  16//12 15//11 17//13
f  17//13 15//11 18//14
f  18//14 15//11 19//15
f  20//7 16//12 21//7
f  16//12 20//7 13//9
f  22//16 23//16 24//16
f  23//16 22//16 25//17
f  26//18 24//18 27//18
f  24//19 26//19 28//19
f  28//20 26//20 29//20
f  28//21 29//21 30//21
f  31//22 19//22 27//22
f  19//22 31//22 18//22
f  18//23 31//23 32//23
f  18//23 32//23 17//23
f  17//24 32//24 33//24
f  17//24 33//24 16//25
f  25//26 34//26 23//26
f  34//26 25//26 35//27
f  1//28 28//28 36//28
f  28//28 1//28 37//29
f  37//29 1//28 38//29
f  33//30 21//30 16//30
f  21//30 33//30 39//31
f  21//32 34//32 20//32
f  34//32 21//32 39//33
f  20//34 40//34 13//34
f  40//34 20//34 35//35
f  35//35 20//32 34//32
f  2//36 8//36 7//36
f  8//36 2//36 5//37
f  37//38 24//38 28//38
f  24//38 37//38 22//38
f  41//39 42//39 38//39
f  38//40 22//40 37//40
f  22//41 38//41 42//41
f  22//42 42//42 40//42
f  22//43 40//43 25//43
f  25//44 40//44 35//44
f  42//45 41//45 12//45
f  3//46 12//45 41//45
f  2//47 12//47 3//47
f  7//48 12//48 2//48
f  10//6 12//8 7//4
f  9//49 30//49 11//49
f  30//49 9//49 43//50
f  43//51 9//51 6//51
f  43//51 6//51 4//51
f  4//52 6//52 8//52
f  4//52 8//52 5//52
f  43//53 28//53 30//53
f  28//54 43//54 4//54
f  28//54 4//54 36//54
f  15//55 27//55 19//55
f  27//55 15//55 26//55
f  26//56 15//56 14//56
f  26//56 14//56 29//56
f  29//57 14//57 11//57
f  29//57 11//57 30//57
f  24//58 31//58 27//58
f  31//59 24//59 32//59
f  32//60 24//60 23//60
f  32//61 23//61 33//61
f  33//62 23//62 34//62
f  33//63 34//63 39//63
f  40//64 12//64 13//64
f  12//64 40//64 42//65
f  3//66 38//66 1//66
f  38//66 3//66 41//67

