# {"id":"DEB_LOD2_UUID_cf93b340-caee-42ac-a97f-0bd4cad53262","idOriginal":"DEB_LOD2_UUID_cf93b340-caee-42ac-a97f-0bd4cad53262","origin":[13.364579416834161,52.50969584290829],"elevation":33.631}
# Longitude: 13.364579416834161
# Latitude: 52.50969584290829
# Elevation: 33.631

# File produced by Open Asset Import Library (http://www.assimp.sf.net)
# (assimp v3.1.0)

mtllib DEB_LOD2_UUID_cf93b340-caee-42ac-a97f-0bd4cad53262.obj.mtl

# 44 vertex positions
v  23.766 3.845 -5.679
v  23.735 3.56433e-16 -5.821
v  23.735 3.845 -5.821
v  23.766 3.47738e-16 -5.679
v  21.511 3.845 -16.529
v  21.542 1.00433e-15 -16.402
v  21.542 3.845 -16.402
v  21.511 1.01211e-15 -16.529
v  24.184 3.845 -5.923
v  24.22 3.53739e-16 -5.777
v  24.22 3.845 -5.777
v  24.184 3.62679e-16 -5.923
v  0 3.845 2.35438e-16
v  10.935 -1.99005e-16 3.25
v  10.935 3.845 3.25
v  0 0 0
v  11.994 3.845 -0.308
v  10.604 4.41485e-17 -0.721
v  10.604 3.845 -0.721
v  11.994 1.88596e-17 -0.308
v  10.222 1.40467e-16 -2.294
v  10.222 3.845 -2.294
v  11.934 3.845 -0.106
v  11.035 3.845 2.913
v  2.211 3.845 -7.38
v  5.913 3.845 -8.306
v  4.886 3.845 -12.375
v  21.096 3.845 -16.291
v  21.065 3.845 -16.417
v  42.186 3.845 -10.248
v  40.49 3.845 -16.984
v  39.475 3.845 -21.016
v  41.459 3.845 -13.137
v  40.49 1.03997e-15 -16.984
v  41.459 8.04409e-16 -13.137
v  42.186 6.27509e-16 -10.248
v  2.211 4.51895e-16 -7.38
v  5.913 5.08596e-16 -8.306
v  11.035 -1.7837e-16 2.913
v  4.886 7.5775e-16 -12.375
v  21.065 1.00525e-15 -16.417
v  21.096 9.97536e-16 -16.291
v  39.475 1.28686e-15 -21.016
v  11.934 6.49063e-18 -0.106

# 0 UV coordinates

# 40 vertex normals
vn 0.97699 0 -0.213287
vn -0.971477 0 0.237135
vn -0.970921 0 0.239401
vn -0.284894 0 0.958559
vn 0.284816 0 -0.958582
vn 0.971756 0 -0.235989
vn 0 1 0
vn 0.969711 0 -0.244255
vn 0.241493 0 0.970402
vn -0.957933 0 -0.286991
vn 0.969766 0 -0.244036
vn -0.242659 0 -0.970112
vn 0.958684 0 0.284474
vn -0.24238 0 -0.970181
vn 0.971042 0 -0.238909
vn -0.241512 0 -0.970398
vn 0 -1 -6.12323e-17
vn -2.78824e-23 -1 -6.12323e-17
vn 0 -1 -6.12323e-17
vn 1.1813e-23 -1 -6.12323e-17
vn 0 -1 -6.12323e-17
vn -2.32094e-24 -1 -6.12323e-17
vn 7.49255e-23 -1 -6.1232e-17
vn 1.31908e-22 -1 -6.12324e-17
vn 4.12741e-23 -1 -6.12323e-17
vn -2.25812e-23 -1 -6.12324e-17
vn -1.26142e-22 -1 -6.12319e-17
vn 4.3554e-22 -1 -6.12341e-17
vn -4.93938e-24 -1 -6.12323e-17
vn -4.98553e-24 -1 -6.12323e-17
vn 0 -1 -6.12283e-17
vn 2.89721e-24 -1 -6.12323e-17
vn 2.7071e-24 -1 -6.12323e-17
vn -0.969593 0 0.244722
vn -0.242332 0 -0.970193
vn 0.221527 0 0.975154
vn 0.95841 0 0.285396
vn 0.242468 0 0.970159
vn 0.958606 0 0.284736
vn 0.969745 0 -0.24412

# Mesh 'defaultobject' with 84 faces
g defaultobject
usemtl DefaultMaterial
f  1//1 2//1 3//1
f  2//1 1//1 4//1
f  5//2 6//2 7//2
f  6//2 5//2 8//2
f  9//3 10//3 11//3
f  10//3 9//3 12//3
f  13//4 14//4 15//4
f  14//4 13//4 16//4
f  17//5 18//5 19//5
f  18//5 17//5 20//5
f  19//6 21//6 22//6
f  21//6 19//6 18//6
f  23//7 19//7 24//7
f  19//7 23//7 17//7
f  15//7 25//7 13//7
f  25//7 15//7 26//7
f  26//7 15//7 24//7
f  26//7 24//7 19//7
f  26//7 19//7 22//7
f  26//7 22//7 27//7
f  27//7 22//7 1//7
f  27//7 1//7 28//7
f  27//7 28//7 29//7
f  28//7 1//7 3//7
f  28//7 3//7 9//7
f  30//7 9//7 11//7
f  9//7 30//7 28//7
f  28//7 30//7 7//7
f  7//7 30//7 5//7
f  5//7 30//7 31//7
f  5//7 31//7 32//7
f  31//7 30//7 33//7
f  33//8 34//8 31//8
f  34//8 33//8 35//8
f  11//9 36//9 30//9
f  36//9 11//9 10//9
f  25//10 16//10 13//10
f  16//10 25//10 37//10
f  30//11 35//11 33//11
f  35//11 30//11 36//11
f  26//12 37//12 25//12
f  37//12 26//12 38//12
f  15//13 39//13 24//13
f  39//13 15//13 14//13
f  29//14 40//14 27//14
f  40//14 29//14 41//14
f  28//15 41//15 29//15
f  41//15 28//15 42//15
f  7//16 42//16 28//16
f  42//16 7//16 6//16
f  37//17 14//17 16//17
f  14//17 37//17 38//17
f  14//17 38//17 39//18
f  39//18 38//17 18//19
f  18//19 38//17 21//20
f  21//20 38//17 4//21
f  4//21 38//17 40//19
f  4//21 40//19 42//22
f  42//22 40//19 41//23
f  4//21 42//22 2//24
f  2//24 42//22 12//25
f  12//25 36//26 10//26
f  36//26 12//25 42//22
f  36//26 42//22 6//27
f  36//26 6//27 8//28
f  36//26 8//28 34//29
f  34//29 8//28 43//30
f  36//26 34//29 35//31
f  18//19 44//32 39//18
f  44//32 18//19 20//33
f  27//34 38//34 26//34
f  38//34 27//34 40//34
f  32//35 8//35 5//35
f  8//35 32//35 43//35
f  3//36 12//36 9//36
f  12//36 3//36 2//36
f  24//37 44//37 23//37
f  44//37 24//37 39//37
f  22//38 4//38 1//38
f  4//38 22//38 21//38
f  23//39 20//39 17//39
f  20//39 23//39 44//39
f  31//40 43//40 32//40
f  43//40 31//40 34//40

