# {"id":"DEB_LOD2_UUID_577ce3ed-cb91-4b45-ad4b-ec8ea9a9f157","idOriginal":"DEB_LOD2_UUID_577ce3ed-cb91-4b45-ad4b-ec8ea9a9f157","origin":[13.393584285354203,52.527263760008715],"elevation":34.948}
# Longitude: 13.393584285354203
# Latitude: 52.527263760008715
# Elevation: 34.948

# File produced by Open Asset Import Library (http://www.assimp.sf.net)
# (assimp v3.1.0)

mtllib DEB_LOD2_UUID_577ce3ed-cb91-4b45-ad4b-ec8ea9a9f157.obj.mtl

# 20 vertex positions
v  1.361 6.883 3.318
v  0 0 0
v  1.361 -2.03169e-16 3.318
v  0 6.883 4.21462e-16
v  11.505 4.572 -6.48
v  13.828 4.76388e-17 -0.778
v  11.505 3.96786e-16 -6.48
v  13.828 4.572 -0.778
v  8.84 -6.13548e-17 1.002
v  8.84 4.572 1.002
v  7.409 4.572 -2.26
v  6.478 2.70708e-16 -4.421
v  7.409 1.38385e-16 -2.26
v  6.478 4.572 -4.421
v  7.682 4.572 1.361
v  7.682 -8.33372e-17 1.361
v  7.682 6.883 1.361
v  6.561 4.572 -2.001
v  6.561 6.883 -2.001
v  6.561 1.22526e-16 -2.001

# 0 UV coordinates

# 17 vertex normals
vn -0.925191 0 0.379501
vn -0.925191 -2.32378e-17 0.379501
vn 0.926094 0 -0.377292
vn 0.336097 0 0.941827
vn -0.918396 0 0.395662
vn 0.296114 0 0.955153
vn 0.295753 0 0.955265
vn -0 1 0
vn -0.379027 -0 -0.925386
vn -0.291718 0 -0.956504
vn -0.292104 0 -0.956387
vn 0 -1 -6.12323e-17
vn -1.46417e-23 -1 -6.12323e-17
vn 2.16144e-24 -1 -6.12323e-17
vn 0 -1 -6.12323e-17
vn -3.29587e-24 -1 -6.12323e-17
vn 0.948655 0 -0.316312

# Mesh 'defaultobject' with 36 faces
g defaultobject
usemtl DefaultMaterial
f  1//1 2//1 3//1
f  2//1 1//1 4//2
f  5//3 6//3 7//3
f  6//3 5//3 8//3
f  8//4 9//4 6//4
f  9//4 8//4 10//4
f  11//5 12//5 13//5
f  12//5 11//5 14//5
f  9//6 15//6 16//6
f  15//6 9//6 10//6
f  16//7 1//7 3//7
f  1//7 16//7 17//7
f  17//7 16//7 15//6
f  14//8 8//8 5//8
f  8//8 14//8 11//8
f  8//8 11//8 18//8
f  8//8 18//8 15//8
f  8//8 15//8 10//8
f  1//8 19//8 4//8
f  19//8 1//8 17//8
f  14//9 7//9 12//9
f  7//9 14//9 5//9
f  19//10 2//10 4//10
f  2//10 19//10 20//10
f  20//10 19//10 18//8
f  20//11 18//11 11//11
f  20//11 11//11 13//11
f  3//12 13//12 16//12
f  13//12 3//12 20//13
f  20//13 3//12 2//14
f  9//15 7//15 6//15
f  7//15 9//15 12//16
f  12//16 9//15 13//12
f  13//12 9//15 16//12
f  19//17 15//17 18//17
f  15//17 19//17 17//17

