# {"id":"DEB_LOD2_UUID_45253242-7a4f-4b74-b34b-cf87c7701cb5","idOriginal":"DEB_LOD2_UUID_45253242-7a4f-4b74-b34b-cf87c7701cb5","origin":[13.401128156269221,52.52796695130787],"elevation":36.35}
# Longitude: 13.401128156269221
# Latitude: 52.52796695130787
# Elevation: 36.35

# File produced by Open Asset Import Library (http://www.assimp.sf.net)
# (assimp v3.1.0)

mtllib DEB_LOD2_UUID_45253242-7a4f-4b74-b34b-cf87c7701cb5.obj.mtl

# 46 vertex positions
v  5.157 14.41 -4.419
v  7.685 3.13877e-16 -5.126
v  5.157 2.70586e-16 -4.419
v  7.803 3.15898e-16 -5.159
v  7.685 14.41 -5.126
v  7.803 20.65 -5.159
v  7.685 20.65 -5.126
v  7.734 17.49 8.409
v  2.669 -5.99587e-16 9.792
v  7.734 -5.14903e-16 8.409
v  2.669 17.49 9.792
v  16.859 20.65 3.671
v  2.107 17.49 7.73
v  16.859 17.49 3.671
v  2.107 20.65 7.73
v  0 20.65 1.26445e-15
v  5.927 1.0134e-16 -1.655
v  0 0 0
v  5.927 20.65 -1.655
v  1.342 20.65 4.925
v  5.911 20.65 -1.714
v  8.41 20.65 -2.402
v  10.166 20.65 -5.814
v  16.533 20.65 2.448
v  14.053 20.65 -6.872
v  14.777 20.65 -4.153
v  16.988 17.49 5.88
v  15.77 -4.32423e-16 7.062
v  16.988 -3.60046e-16 5.88
v  15.77 17.49 7.062
v  5.911 1.04952e-16 -1.714
v  5.911 14.41 -1.714
v  14.031 -4.62855e-16 7.559
v  14.031 17.49 7.559
v  16.859 -2.24784e-16 3.671
v  17.415 -3.52882e-16 5.763
v  16.533 -1.49897e-16 2.448
v  14.777 2.54298e-16 -4.153
v  14.053 4.20789e-16 -6.872
v  12.365 -4.37383e-16 7.143
v  10.166 3.56005e-16 -5.814
v  2.107 -4.73326e-16 7.73
v  1.342 -3.01569e-16 4.925
v  12.365 17.49 7.143
v  17.415 17.49 5.763
v  8.41 14.41 -2.402

# 0 UV coordinates

# 56 vertex normals
vn -0.269333 -0 -0.963047
vn -0.269327 1.14357e-06 -0.963049
vn -0.269333 -5.33785e-08 -0.963047
vn -0.269327 0 -0.963049
vn -0.269327 0 -0.963049
vn 0.263407 0 0.964685
vn 0.26529 0 0.964169
vn -0.268943 5.89763e-17 -0.963156
vn -0.268943 0 -0.963156
vn 0 1 0
vn 0.696422 0 0.717633
vn -0.963278 0 0.268507
vn -0.96514 -0.00136978 0.261729
vn -0.963278 2.98192e-05 0.268507
vn -0.965141 0 0.26173
vn -0.965141 0 0.26173
vn 0.274794 0 0.961503
vn -2.58943e-23 -1 -6.12323e-17
vn 3.72415e-23 -1 -6.12323e-17
vn 2.17205e-23 -1 -6.12323e-17
vn 3.22341e-23 -1 -6.12323e-17
vn 0 -1 -6.12323e-17
vn -2.01524e-23 -1 -6.12323e-17
vn 3.52179e-23 -1 -6.12323e-17
vn 1.20567e-23 -1 -6.12323e-17
vn 0 -1 -6.12323e-17
vn -9.92121e-24 -1 -6.12323e-17
vn -1.23427e-23 -1 -6.12323e-17
vn 9.33614e-23 -1 -6.12323e-17
vn -4.80433e-23 -1 -6.12324e-17
vn -3.22036e-23 -1 -6.12323e-17
vn -6.3861e-20 -1 -6.12267e-17
vn -1.79546e-24 -1 -6.12323e-17
vn 0.263699 0 0.964605
vn -0.242261 0 0.970211
vn 0.264264 0 0.96445
vn -0.966358 0 0.257199
vn -0.262634 -0 -0.964895
vn -0.964807 0 0.262959
vn -0.964823 0 0.262902
vn -0.964764 5.52297e-05 0.263117
vn -0.964807 -8.47067e-06 0.262959
vn -0.964801 2.8029e-06 0.262981
vn -0.964801 0 0.26298
vn 0 -1 0
vn -0.265434 -0 -0.964129
vn 0.966329 0 -0.257309
vn 0.96639 -3.23185e-05 -0.25708
vn 0.966329 7.84556e-05 -0.257309
vn 0.96639 0 -0.25708
vn 0.966262 0 -0.257563
vn 0.966262 0 -0.257563
vn 0.966449 -5.27856e-05 -0.256858
vn 0.96638 0 -0.257118
vn -1.32453e-20 1 6.12331e-17
vn -0.267118 -0 -0.963664

# Mesh 'defaultobject' with 88 faces
g defaultobject
usemtl DefaultMaterial
f  1//1 2//1 3//1
f  2//1 1//1 4//2
f  4//2 1//1 5//3
f  4//2 5//3 6//4
f  6//4 5//3 7//5
f  8//6 9//6 10//6
f  9//6 8//6 11//6
f  12//7 13//7 14//7
f  13//7 12//7 15//7
f  16//8 17//8 18//8
f  17//8 16//8 19//9
f  12//10 20//10 15//10
f  20//10 12//10 16//10
f  16//10 12//10 19//10
f  19//10 12//10 21//10
f  21//10 12//10 22//10
f  22//10 12//10 7//10
f  7//10 12//10 6//10
f  6//10 12//10 23//10
f  23//10 12//10 24//10
f  23//10 24//10 25//10
f  25//10 24//10 26//10
f  27//11 28//11 29//11
f  28//11 27//11 30//11
f  31//12 1//12 3//12
f  1//13 31//13 17//13
f  1//14 17//14 32//14
f  32//15 17//15 19//15
f  32//15 19//15 21//16
f  30//17 33//17 28//17
f  33//17 30//17 34//17
f  29//18 35//18 36//18
f  35//18 29//18 28//19
f  35//18 28//19 37//20
f  37//20 28//19 38//21
f  38//21 28//19 33//22
f  38//21 33//22 39//23
f  39//23 33//22 40//24
f  39//23 40//24 41//25
f  41//25 40//24 10//26
f  41//25 10//26 4//27
f  4//27 10//26 9//28
f  4//27 9//28 2//29
f  2//29 9//28 17//30
f  17//30 9//28 42//31
f  17//30 42//31 18//26
f  18//26 42//31 43//32
f  2//29 31//33 3//33
f  31//33 2//29 17//30
f  44//34 10//34 40//34
f  10//34 44//34 8//34
f  34//35 40//35 33//35
f  40//35 34//35 44//35
f  45//36 29//36 36//36
f  29//36 45//36 27//36
f  11//10 14//10 13//10
f  14//10 11//10 8//10
f  14//10 8//10 44//10
f  14//10 44//10 34//10
f  14//10 34//10 30//10
f  14//10 30//10 27//10
f  14//10 27//10 45//10
f  22//37 5//37 46//37
f  5//37 22//37 7//37
f  32//10 5//10 1//10
f  5//10 32//10 46//10
f  23//38 39//38 41//38
f  39//38 23//38 25//38
f  11//39 13//39 9//39
f  43//40 16//40 18//40
f  16//41 43//41 42//41
f  16//42 42//42 9//39
f  16//43 9//43 13//43
f  16//43 13//43 15//44
f  16//45 15//45 20//45
f  21//46 46//46 32//46
f  46//46 21//46 22//46
f  26//47 39//47 25//47
f  39//48 26//48 24//48
f  39//49 24//49 38//49
f  38//50 24//50 37//50
f  37//51 24//51 12//51
f  37//51 12//51 14//52
f  37//53 14//53 45//53
f  37//54 45//54 36//54
f  37//55 36//55 35//55
f  6//56 41//56 4//56
f  41//56 6//56 23//56

