# {"id":"DEB_LOD2_UUID_86431b90-5bf4-4cb0-a9a3-1e9490b93060","idOriginal":"DEB_LOD2_UUID_86431b90-5bf4-4cb0-a9a3-1e9490b93060","origin":[13.334775514060565,52.53155983940313],"elevation":35.49}
# Longitude: 13.334775514060565
# Latitude: 52.53155983940313
# Elevation: 35.49

# File produced by Open Asset Import Library (http://www.assimp.sf.net)
# (assimp v3.1.0)

mtllib DEB_LOD2_UUID_86431b90-5bf4-4cb0-a9a3-1e9490b93060.obj.mtl

# 14 vertex positions
v  0.106 19.54 -0.612
v  0.39 1.38324e-16 -2.259
v  0.106 3.74742e-17 -0.612
v  1.11 3.93418e-16 -6.425
v  1.11 21.426 -6.425
v  0.39 20.81 -2.259
v  7.888 20.81 -0.971
v  8.654 21.426 -5.129
v  7.464 19.033 1.329
v  0 0 0
v  7.464 -8.13778e-17 1.329
v  0 19.068 1.16758e-15
v  8.654 3.14061e-16 -5.129
v  7.888 5.94566e-17 -0.971

# 0 UV coordinates

# 22 vertex normals
vn -0.985457 -0 -0.169927
vn -0.985392 3.2637e-05 -0.170303
vn -0.98541 0 -0.170196
vn -0.985376 -0.000621136 -0.170392
vn -0.0244099 0.989551 0.1421
vn -0.0244122 0.989551 0.142103
vn -0.175298 0 0.984515
vn -0.175298 -6.02842e-17 0.984515
vn -0.102437 0.796215 0.596278
vn -0.102426 0.79619 0.596314
vn -0.10243 0.796207 0.596291
vn 0.983451 0 0.181175
vn 0.983432 -2.12267e-05 0.181277
vn 0.983443 0 0.181217
vn 0 1 6.12154e-17
vn -6.54369e-24 -1 -6.12323e-17
vn 0 -1 -6.12323e-17
vn -1.40532e-24 -1 -6.12323e-17
vn -3.92791e-20 -1 -6.12459e-17
vn -0.98533 1.045e-17 -0.170662
vn -0.98533 0 -0.170662
vn 0.169312 0 -0.985563

# Mesh 'defaultobject' with 24 faces
g defaultobject
usemtl DefaultMaterial
f  1//1 2//1 3//1
f  2//2 1//2 4//2
f  4//3 1//3 5//3
f  5//4 1//4 6//4
f  7//5 5//5 6//5
f  5//5 7//5 8//6
f  9//7 10//7 11//7
f  10//7 9//7 12//8
f  7//9 12//9 9//9
f  12//10 7//10 1//10
f  1//11 7//11 6//11
f  7//12 13//12 8//12
f  13//13 7//13 9//13
f  13//14 9//14 11//14
f  13//15 11//15 14//15
f  14//16 4//16 13//16
f  4//16 14//16 11//17
f  4//16 11//17 3//17
f  3//17 11//17 10//18
f  4//16 3//17 2//19
f  12//20 3//20 10//20
f  3//20 12//20 1//21
f  5//22 13//22 4//22
f  13//22 5//22 8//22

