# {"id":"DEB_LOD2_UUID_f79b0774-1b00-4822-843f-6e2dbcac20a3","idOriginal":"DEB_LOD2_UUID_f79b0774-1b00-4822-843f-6e2dbcac20a3","origin":[13.393474437804276,52.524981684394284],"elevation":34.11}
# Longitude: 13.393474437804276
# Latitude: 52.524981684394284
# Elevation: 34.11

# File produced by Open Asset Import Library (http://www.assimp.sf.net)
# (assimp v3.1.0)

mtllib DEB_LOD2_UUID_f79b0774-1b00-4822-843f-6e2dbcac20a3.obj.mtl

# 124 vertex positions
v  38.618 24.705 -43.429
v  43.591 2.45138e-15 -40.034
v  38.618 2.65926e-15 -43.429
v  43.591 24.798 -40.034
v  18.816 2.30913e-15 -37.711
v  18.265 24.9 -35.958
v  18.265 2.20179e-15 -35.958
v  18.816 24.9 -37.711
v  18.827 2.31121e-15 -37.745
v  18.827 24.903 -37.745
v  13.493 24.9 -40.224
v  36.408 24.9 -29.405
v  31.105 24.907 -32.014
v  31.044 24.9 -31.937
v  14.087 25.041 -42.134
v  40.219 25.38 -35.044
v  15.51 25.38 -46.711
v  24.399 24.905 -35.144
v  26.705 24.905 -34.068
v  5.263 24.9 -13.764
v  5.002 7.91367e-16 -12.924
v  5.002 25.032 -12.924
v  5.263 8.42802e-16 -13.764
v  6.495 24.9 -17.725
v  6.495 1.08534e-15 -17.725
v  17.246 24.814 -52.293
v  22.973 3.08917e-15 -50.45
v  17.246 3.20202e-15 -52.293
v  22.973 24.737 -50.45
v  25.339 24.9 -25.764
v  27.558 1.83409e-15 -29.953
v  25.339 1.57759e-15 -25.764
v  27.558 24.9 -29.953
v  8.28 24.9 -23.465
v  12.604 2.28782e-15 -37.363
v  8.28 1.43682e-15 -23.465
v  12.604 24.9 -37.363
v  19.115 24.9 -11.497
v  18.11 7.47157e-16 -12.202
v  19.115 7.03988e-16 -11.497
v  18.11 24.9 -12.202
v  36.408 1.80054e-15 -29.405
v  33.957 24.9 -25.778
v  33.957 1.57845e-15 -25.778
v  40.219 2.14583e-15 -35.044
v  19.005 24.9 -29.434
v  17.902 1.58604e-15 -25.902
v  19.005 1.80231e-15 -29.434
v  17.902 24.9 -25.902
v  23.845 1.40491e-15 -22.944
v  23.845 24.9 -22.944
v  17.021 1.60294e-15 -26.178
v  17.021 24.9 -26.178
v  22.81 3.06774e-15 -50.1
v  22.81 24.775 -50.1
v  2.298 27.94 -4.399
v  1.996 26.37 -4.535
v  1.996 27.94 -4.535
v  2.298 26.37 -4.399
v  18.409 27.94 2.844
v  18.409 26.37 2.844
v  38.348 24.759 -42.949
v  38.348 2.62987e-15 -42.949
v  10.784 6.90823e-16 -11.282
v  10.722 24.923 -11.14
v  10.722 6.82128e-16 -11.14
v  10.784 24.9 -11.282
v  12.441 9.21792e-16 -15.054
v  12.441 24.9 -15.054
v  31.876 2.81216e-15 -45.926
v  29.567 2.87725e-15 -46.989
v  16.037 -4.41485e-16 7.21
v  5.583 7.76732e-16 -12.685
v  18.409 -1.74145e-16 2.844
v  3.171 4.41118e-16 -7.204
v  9.101 -2.50563e-16 4.092
v  1.996 2.77689e-16 -4.535
v  6.916 -1.90433e-16 3.11
v  0 0 0
v  0.816 -2.24723e-17 0.367
v  15.739 2.90523e-15 -47.446
v  23.604 4.1142e-16 -6.719
v  15.51 2.86022e-15 -46.711
v  14.087 2.57996e-15 -42.134
v  13.493 2.46301e-15 -40.224
v  23.08 3.52331e-16 -5.754
v  7.436 1.27045e-15 -20.748
v  5.583 25.029 -12.685
v  3.171 25.931 -7.204
v  12.749 24.934 -10.151
v  14.903 24.945 -9.1
v  17.382 24.958 -7.89
v  23.08 24.9 -5.754
v  17.55 24.9 -8.24
v  23.196 24.9 -23.287
v  24.689 1.59872e-15 -26.109
v  23.196 1.42592e-15 -23.287
v  24.689 24.9 -26.109
v  23.604 24.9 -6.719
v  29.362 24.9 -29.83
v  0 20.931 1.28165e-15
v  29.567 24.768 -46.989
v  31.876 24.766 -45.926
v  29.362 1.82656e-15 -29.83
v  31.044 1.95558e-15 -31.937
v  31.105 1.96029e-15 -32.014
v  0.816 20.931 0.367
v  6.916 20.931 3.11
v  9.101 20.931 4.092
v  16.037 20.932 7.21
v  17.382 4.83123e-16 -7.89
v  17.55 5.04554e-16 -8.24
v  24.399 2.15195e-15 -35.144
v  26.705 2.08606e-15 -34.068
v  19.586 2.10554e-15 -34.386
v  19.586 24.9 -34.386
v  18.126 24.9 -29.709
v  18.126 1.81915e-15 -29.709
v  13.561 9.24363e-16 -15.096
v  13.561 24.9 -15.096
v  12.749 6.2157e-16 -10.151
v  14.903 5.57214e-16 -9.1
v  15.739 25.305 -47.446
v  7.436 24.9 -20.748

# 0 UV coordinates

# 153 vertex normals
vn 0.563826 0 -0.825893
vn 0.563826 0 -0.825893
vn 0.953985 0 0.299855
vn 0.951448 0 0.307809
vn -0.0360107 0.996436 0.0762774
vn -0.0311497 0.997334 0.0659901
vn -0.0304178 0.997459 0.0644206
vn -0.0303569 0.997476 0.0641952
vn -0.0303292 0.997486 0.0640513
vn -0.0303555 0.997471 0.0642619
vn -0.030359 0.997419 0.065063
vn -0.0304232 0.997473 0.0642006
vn -0.0303607 0.997463 0.0643868
vn -0.954964 0 -0.296721
vn -0.954964 0 -0.296721
vn -0.954878 0 -0.296998
vn 0.306337 0 -0.951923
vn 0.306337 0 -0.951923
vn -0.883675 -0 -0.468101
vn -0.954853 -0 -0.297078
vn -0.574282 0 0.818657
vn 0.828555 0 0.559908
vn 0.82853 0 0.559945
vn 0.82853 0 0.559945
vn 0.82856 0 0.5599
vn 0.82856 0 0.5599
vn 0.954538 0 0.29809
vn -0.882151 -0 -0.470967
vn -0.298952 0 0.954268
vn 0.906515 0 0.422174
vn 0.906515 -0 0.422174
vn 0.410615 0 -0.911809
vn 0.410037 0 -0.912069
vn -0.871575 -0 -0.490262
vn -0.871575 0 -0.490262
vn 0.916452 0 0.400145
vn 0.915555 0 0.402193
vn -2.33579e-23 -1 -6.12323e-17
vn -2.3568e-22 -1 -6.12323e-17
vn 9.28943e-24 -1 -6.12323e-17
vn -4.88435e-23 -1 -6.12323e-17
vn 8.02198e-24 -1 -6.12324e-17
vn -8.6846e-24 -1 -6.12323e-17
vn -4.56213e-24 -1 -6.12323e-17
vn -4.02257e-24 -1 -6.12323e-17
vn 1.41504e-23 -1 -6.12324e-17
vn -7.27692e-24 -1 -6.12323e-17
vn 0 -1 -6.12323e-17
vn 0 -1 -6.1226e-17
vn -2.44041e-23 -1 -6.12322e-17
vn -2.69758e-23 -1 -6.12323e-17
vn 5.92802e-24 -1 -6.12323e-17
vn 5.60679e-23 -1 -6.12323e-17
vn -2.7046e-23 -1 -6.12323e-17
vn 9.72013e-23 -1 -6.12324e-17
vn -3.60664e-23 -1 -6.12323e-17
vn 5.93612e-24 -1 -6.12323e-17
vn 0 -1 -6.12323e-17
vn 3.40685e-23 -1 -6.12324e-17
vn 0 -1 -6.12323e-17
vn -1.7517e-23 -1 -6.12323e-17
vn -1.08203e-22 -1 -6.12324e-17
vn 0.0611996 0.988767 -0.136362
vn 0.061127 0.988857 -0.135738
vn 0.0610364 0.988859 -0.135767
vn 0.0610909 0.988844 -0.135849
vn 0.0620072 0.988685 -0.136592
vn 0.0611816 0.988825 -0.135951
vn 0.0608896 0.988864 -0.135794
vn 0.0612912 0.988816 -0.135964
vn 0.0611603 0.988829 -0.135927
vn 0.0610155 0.98884 -0.135914
vn 0.0606022 0.989017 -0.134807
vn 0.0602102 0.98916 -0.133933
vn -0.883917 -0 -0.467643
vn 0 1 0
vn -0.91527 2.46668e-17 -0.40284
vn -0.915234 2.13034e-05 -0.402922
vn -0.915293 -3.35391e-05 -0.402789
vn -0.915271 1.98094e-06 -0.402838
vn -0.91527 0 -0.40284
vn -0.915274 0 -0.402833
vn -0.423136 0.845638 -0.325349
vn 0.418214 0 -0.908349
vn 0.418185 9.69218e-06 -0.908362
vn 0.418214 -3.31301e-06 -0.908349
vn 0.418185 0 -0.908362
vn 0.0680235 0 -0.997684
vn -0.78152 -0 -0.623881
vn -0.783843 0 -0.620959
vn -0.783843 0 -0.620959
vn -0.335299 0.577236 0.744562
vn -0.334946 0.577225 0.74473
vn -0.334828 0.577232 0.744777
vn -0.334859 0.577346 0.744675
vn -0.334756 0.577183 0.744848
vn -0.33486 0.577298 0.744712
vn -0.901524 0 -0.43273
vn -0.901524 0 -0.43273
vn -0.901346 0 -0.4331
vn -0.422983 0 0.906138
vn -0.422843 3.82853e-05 0.906203
vn -0.422998 -2.17353e-05 0.90613
vn -0.422942 1.21384e-05 0.906157
vn -0.422998 0 0.90613
vn -0.381719 -0.430173 0.818072
vn 0.76558 0 -0.643341
vn 0.298584 0 -0.954383
vn 0.417891 0 -0.908497
vn 0.954557 0 0.29803
vn 0.438502 0 -0.89873
vn 0.438514 -1.14948e-06 -0.898724
vn 0.438638 -2.69382e-05 -0.898664
vn 0.438502 1.78993e-05 -0.89873
vn 0.438514 1.52655e-05 -0.898724
vn 0.438638 0 -0.898664
vn 0.0417798 0.995203 -0.088461
vn 0.0415518 0.995253 -0.0880007
vn 0.0415726 0.995245 -0.088089
vn 0.0415601 0.995252 -0.0880115
vn 0.0415794 0.995213 -0.0884455
vn 0.0415879 0.995244 -0.0880882
vn 0.0412312 0.995192 -0.0888471
vn 0.0413176 0.995203 -0.0886766
vn 0.041658 0.995261 -0.0878679
vn -0.95496 -0 -0.296735
vn -0.954888 0 -0.296965
vn -0.954913 0 -0.296885
vn -0.954734 0 -0.297461
vn -0.95491 -1.79898e-05 -0.296895
vn -0.95473 0.000121329 -0.297472
vn -0.95491 0 -0.296895
vn 0.0374735 0 0.999298
vn -0.380428 0 0.92481
vn -0.380429 0 0.92481
vn 0.468822 0 -0.883292
vn -0.467262 0 0.884119
vn -0.954811 -0 -0.297214
vn 0.954571 0 0.297985
vn -0.954985 -0 -0.296653
vn 0.878694 0 0.477385
vn 0.878702 -1.43411e-05 0.477371
vn 0.8787 0 0.477374
vn 0.878799 -0.000122652 0.477193
vn 0.878724 -2.31397e-05 0.47733
vn 0.878694 7.15324e-05 0.477385
vn 0.878703 4.78474e-05 0.477369
vn 0.878728 0 0.477323
vn -0.410179 0 0.912005
vn -0.410116 0 0.912033
vn -0.409931 0 0.912117
vn -0.410015 0 0.912079
vn -0.410015 0 0.912079

# Mesh 'defaultobject' with 218 faces
g defaultobject
usemtl DefaultMaterial
f  1//1 2//1 3//1
f  2//1 1//1 4//2
f  5//3 6//3 7//3
f  6//3 5//3 8//3
f  8//4 5//4 9//4
f  8//4 9//4 10//4
f  8//5 10//5 11//5
f  12//6 13//6 14//6
f  15//7 16//7 17//7
f  16//8 15//8 11//8
f  16//9 11//9 10//9
f  16//10 10//10 18//10
f  16//11 18//11 19//11
f  16//12 19//12 13//12
f  16//13 13//13 12//13
f  20//14 21//14 22//14
f  21//14 20//14 23//15
f  23//16 20//16 24//16
f  23//16 24//16 25//16
f  26//17 27//17 28//17
f  27//17 26//17 29//18
f  30//19 31//19 32//19
f  31//19 30//19 33//19
f  34//20 35//20 36//20
f  35//20 34//20 37//20
f  38//21 39//21 40//21
f  39//21 38//21 41//21
f  42//22 43//22 44//22
f  43//22 42//22 12//22
f  12//23 42//23 45//23
f  12//23 45//23 16//24
f  16//25 45//25 2//25
f  16//25 2//25 4//26
f  46//27 47//27 48//27
f  47//27 46//27 49//27
f  41//28 50//28 39//28
f  50//28 41//28 51//28
f  49//29 52//29 47//29
f  52//29 49//29 53//29
f  29//30 54//30 27//30
f  54//30 29//30 55//31
f  56//32 57//32 58//32
f  57//32 56//32 59//32
f  59//33 56//33 60//33
f  59//33 60//33 61//33
f  62//34 3//34 63//34
f  3//34 62//34 1//35
f  64//36 65//36 66//36
f  65//36 64//36 67//36
f  67//37 64//37 68//37
f  67//37 68//37 69//37
f  45//38 3//38 2//38
f  3//38 45//38 63//39
f  63//39 45//38 70//40
f  70//40 45//38 71//41
f  71//41 45//38 42//42
f  71//41 42//42 54//43
f  72//44 73//44 74//44
f  73//44 72//44 75//45
f  75//45 72//44 76//46
f  75//45 76//46 77//47
f  77//47 76//46 78//48
f  77//47 78//48 79//48
f  79//48 78//48 80//49
f  54//43 28//50 27//50
f  28//50 54//43 42//42
f  28//50 42//42 44//51
f  28//50 44//51 81//48
f  81//48 44//51 82//52
f  81//48 82//52 83//53
f  83//53 82//52 84//54
f  84//54 82//52 85//55
f  85//55 82//52 35//56
f  35//56 82//52 36//57
f  36//57 82//52 86//58
f  36//57 86//58 74//44
f  36//57 74//44 87//59
f  87//59 74//44 25//60
f  25//60 74//44 23//61
f  23//61 74//44 73//44
f  23//61 73//44 21//62
f  20//63 22//63 88//63
f  59//64 89//64 57//64
f  89//65 59//65 61//65
f  89//66 61//66 88//66
f  88//67 61//67 20//67
f  20//68 61//68 65//68
f  65//69 61//69 90//69
f  90//70 61//70 91//70
f  91//71 61//71 92//71
f  92//72 61//72 93//72
f  92//73 93//73 94//73
f  67//74 20//74 65//74
f  95//75 96//75 97//75
f  96//75 95//75 98//75
f  99//76 94//76 93//76
f  94//76 99//76 38//76
f  38//76 99//76 43//76
f  38//76 43//76 41//76
f  41//76 43//76 51//76
f  51//76 43//76 95//76
f  95//76 43//76 30//76
f  30//76 43//76 33//76
f  33//76 43//76 100//76
f  100//76 43//76 12//76
f  100//76 12//76 14//76
f  98//76 95//76 30//76
f  101//77 77//77 79//77
f  77//78 101//78 75//78
f  75//79 101//79 73//79
f  73//80 101//77 57//80
f  57//80 101//77 58//81
f  57//80 88//82 73//80
f  88//83 57//83 89//83
f  102//84 54//84 55//84
f  54//85 102//85 103//85
f  54//84 103//86 71//86
f  71//87 103//85 70//87
f  33//88 104//88 31//88
f  104//88 33//88 100//88
f  100//89 105//89 104//89
f  105//89 100//89 14//89
f  105//90 14//90 106//90
f  106//90 14//90 13//91
f  101//92 56//92 58//92
f  56//93 101//93 107//93
f  56//94 107//94 60//94
f  60//95 107//95 108//95
f  60//96 108//96 109//96
f  60//97 109//97 110//97
f  94//98 111//98 92//98
f  111//98 94//98 112//99
f  112//100 94//100 38//100
f  112//100 38//100 40//100
f  113//101 10//101 9//101
f  10//102 113//102 114//102
f  10//103 114//103 106//103
f  10//104 106//104 19//104
f  19//105 106//105 13//105
f  10//106 19//106 18//106
f  6//107 115//107 7//107
f  115//107 6//107 116//107
f  117//108 48//108 118//108
f  48//108 117//108 46//108
f  103//109 63//109 70//109
f  63//109 103//109 62//109
f  53//110 119//110 52//110
f  119//110 53//110 120//110
f  90//111 66//111 65//111
f  66//112 90//112 91//112
f  66//113 91//113 92//113
f  66//114 92//114 121//114
f  121//115 92//115 122//115
f  122//116 92//116 111//116
f  1//117 62//117 4//117
f  4//118 17//118 16//118
f  17//119 4//119 62//119
f  17//120 62//120 103//120
f  17//121 103//121 102//121
f  17//122 102//122 55//122
f  17//123 55//123 29//123
f  17//124 29//124 123//124
f  123//125 29//125 26//125
f  37//126 85//126 35//126
f  85//126 37//126 11//126
f  85//127 11//127 84//127
f  84//127 11//127 15//127
f  84//128 15//128 83//128
f  83//128 15//128 17//128
f  83//129 17//129 81//129
f  81//130 17//130 28//130
f  28//131 17//131 123//131
f  28//132 123//132 26//132
f  120//133 68//133 119//133
f  68//133 120//133 69//133
f  88//134 21//134 73//134
f  21//134 88//134 22//135
f  98//136 32//136 96//136
f  32//136 98//136 30//136
f  51//137 97//137 50//137
f  97//137 51//137 95//137
f  24//138 87//138 25//138
f  87//138 24//138 124//138
f  46//76 117//76 49//76
f  67//76 24//76 20//76
f  24//76 67//76 69//76
f  24//76 69//76 124//76
f  124//76 69//76 120//76
f  124//76 120//76 53//76
f  124//76 53//76 34//76
f  34//76 53//76 37//76
f  37//76 53//76 49//76
f  37//76 49//76 117//76
f  37//76 117//76 116//76
f  37//76 116//76 11//76
f  11//76 116//76 6//76
f  11//76 6//76 8//76
f  116//139 118//139 115//139
f  118//139 116//139 117//139
f  124//140 36//140 87//140
f  36//140 124//140 34//140
f  110//141 61//141 60//141
f  61//142 110//142 93//142
f  93//143 110//143 72//143
f  93//144 72//144 99//144
f  99//145 72//145 43//145
f  43//146 72//146 74//146
f  43//147 74//147 86//147
f  43//148 86//148 44//148
f  44//51 86//58 82//52
f  80//149 101//149 79//149
f  101//149 80//149 107//149
f  107//150 80//150 78//150
f  107//150 78//150 108//150
f  108//151 78//151 76//151
f  108//151 76//151 109//151
f  109//152 76//152 72//152
f  109//152 72//152 110//153

