# {"id":"DEB_LOD2_UUID_43412314-4935-4557-bb64-63549aae9bce","idOriginal":"DEB_LOD2_UUID_43412314-4935-4557-bb64-63549aae9bce","origin":[13.336601649668129,52.54193153959868],"elevation":35.1}
# Longitude: 13.336601649668129
# Latitude: 52.54193153959868
# Elevation: 35.1

# File produced by Open Asset Import Library (http://www.assimp.sf.net)
# (assimp v3.1.0)

mtllib DEB_LOD2_UUID_43412314-4935-4557-bb64-63549aae9bce.obj.mtl

# 12 vertex positions
v  2.079 9 -1.984
v  0 0 0
v  0 9 5.51091e-16
v  2.079 1.21485e-16 -1.984
v  8.746 9 6.106
v  8.746 -3.73885e-16 6.106
v  8.13 9 7.375
v  8.49 9 7.177
v  6.341 9 7.702
v  6.341 -4.71611e-16 7.702
v  8.49 -4.39465e-16 7.177
v  8.13 -4.51588e-16 7.375

# 0 UV coordinates

# 11 vertex normals
vn -0.690385 0 -0.723442
vn 0.771713 0 -0.635971
vn 0 1 0
vn -0.77202 0 0.635598
vn 0.481919 0 0.876216
vn 0.179805 0 0.983702
vn 0.972601 0 0.23248
vn -1.14944e-23 -1 -6.12323e-17
vn -9.27272e-23 -1 -6.12322e-17
vn 4.52428e-23 -1 -6.12324e-17
vn -3.70297e-24 -1 -6.12323e-17

# Mesh 'defaultobject' with 20 faces
g defaultobject
usemtl DefaultMaterial
f  1//1 2//1 3//1
f  2//1 1//1 4//1
f  5//2 4//2 1//2
f  4//2 5//2 6//2
f  5//3 7//3 8//3
f  7//3 5//3 9//3
f  9//3 5//3 1//3
f  9//3 1//3 3//3
f  3//4 10//4 9//4
f  10//4 3//4 2//4
f  7//5 11//5 8//5
f  11//5 7//5 12//5
f  9//6 12//6 7//6
f  12//6 9//6 10//6
f  8//7 6//7 5//7
f  6//7 8//7 11//7
f  11//8 4//8 6//8
f  4//8 11//8 12//9
f  4//8 12//9 10//10
f  4//8 10//10 2//11

