# {"id":"DEB_LOD2_UUID_fb811d61-c74f-4688-971c-c7ff28e3c682","idOriginal":"DEB_LOD2_UUID_fb811d61-c74f-4688-971c-c7ff28e3c682","origin":[13.39646064221727,52.529725286646645],"elevation":36.255}
# Longitude: 13.39646064221727
# Latitude: 52.529725286646645
# Elevation: 36.255

# File produced by Open Asset Import Library (http://www.assimp.sf.net)
# (assimp v3.1.0)

mtllib DEB_LOD2_UUID_fb811d61-c74f-4688-971c-c7ff28e3c682.obj.mtl

# 10 vertex positions
v  8.055 1.10402e-16 -1.803
v  2.085 -4.95492e-16 8.092
v  0 0 0
v  10.063 -3.49453e-16 5.707
v  10.213 -3.83621e-16 6.265
v  2.085 4.546 8.092
v  8.055 4.546 -1.803
v  0 4.546 2.78362e-16
v  10.063 4.546 5.707
v  10.213 4.546 6.265

# 0 UV coordinates

# 9 vertex normals
vn 0 -1 -6.12323e-17
vn -3.27273e-24 -1 -6.12323e-17
vn 1.6511e-23 -1 -6.12323e-17
vn 0 1 0
vn 0.966064 0 -0.258303
vn -0.968372 0 0.249512
vn 0.219307 0 0.975656
vn 0.965716 0 -0.259602
vn -0.218431 0 -0.975852

# Mesh 'defaultobject' with 16 faces
g defaultobject
usemtl DefaultMaterial
f  1//1 2//1 3//1
f  2//1 1//1 4//2
f  2//1 4//2 5//3
f  6//4 7//4 8//4
f  7//4 6//4 9//4
f  9//4 6//4 10//4
f  9//5 1//5 7//5
f  1//5 9//5 4//5
f  8//6 2//6 6//6
f  2//6 8//6 3//6
f  6//7 5//7 10//7
f  5//7 6//7 2//7
f  10//8 4//8 9//8
f  4//8 10//8 5//8
f  7//9 3//9 8//9
f  3//9 7//9 1//9

