# {"id":"DEB_LOD2_UUID_11d2c33f-324c-4edd-a9dc-c7cfaddfea3f","idOriginal":"DEB_LOD2_UUID_11d2c33f-324c-4edd-a9dc-c7cfaddfea3f","origin":[13.35365833830221,52.5094012084922],"elevation":33.47}
# Longitude: 13.35365833830221
# Latitude: 52.5094012084922
# Elevation: 33.47

# File produced by Open Asset Import Library (http://www.assimp.sf.net)
# (assimp v3.1.0)

mtllib DEB_LOD2_UUID_11d2c33f-324c-4edd-a9dc-c7cfaddfea3f.obj.mtl

# 8 vertex positions
v  0 3.38 2.06965e-16
v  2.003 3.65067e-16 -5.962
v  0 0 0
v  2.003 3.38 -5.962
v  3.955 -8.11329e-17 1.325
v  5.958 2.83934e-16 -4.637
v  5.958 3.38 -4.637
v  3.955 3.38 1.325

# 0 UV coordinates

# 9 vertex normals
vn -0.947933 1.95006e-17 -0.318469
vn -0.947933 0 -0.318469
vn -8.072e-24 -1 -6.12323e-17
vn 0 -1 -6.12323e-17
vn 0.317666 0 -0.948203
vn -0.317666 0 0.948203
vn -0.317666 -5.80607e-17 0.948203
vn 0.947933 0 0.318469
vn 0 1 0

# Mesh 'defaultobject' with 12 faces
g defaultobject
usemtl DefaultMaterial
f  1//1 2//1 3//1
f  2//1 1//1 4//2
f  2//3 5//3 3//3
f  5//3 2//3 6//4
f  4//5 6//5 2//5
f  6//5 4//5 7//5
f  8//6 3//6 5//6
f  3//6 8//6 1//7
f  7//8 5//8 6//8
f  5//8 7//8 8//8
f  8//9 4//9 1//9
f  4//9 8//9 7//9

