# {"id":"DEB_LOD2_UUID_6a81f642-be18-44f7-8f09-51f73a8a5939","idOriginal":"DEB_LOD2_UUID_6a81f642-be18-44f7-8f09-51f73a8a5939","origin":[13.362226502586362,52.500614925634],"elevation":34.855}
# Longitude: 13.362226502586362
# Latitude: 52.500614925634
# Elevation: 34.855

# File produced by Open Asset Import Library (http://www.assimp.sf.net)
# (assimp v3.1.0)

mtllib DEB_LOD2_UUID_6a81f642-be18-44f7-8f09-51f73a8a5939.obj.mtl

# 14 vertex positions
v  0 0 0
v  10.973 -1.20628e-16 1.97
v  10.414 -3.16571e-16 5.17
v  0.445 8.76235e-17 -1.431
v  6.342 2.51053e-17 -0.41
v  1.612 3.17061e-16 -5.178
v  7.466 1.43774e-16 -2.348
v  10.414 12.824 5.17
v  10.973 12.824 1.97
v  0.445 12.824 -1.431
v  0 12.824 7.85244e-16
v  1.612 12.824 -5.178
v  6.342 12.824 -0.41
v  7.466 12.824 -2.348

# 0 UV coordinates

# 12 vertex normals
vn -1.46182e-24 -1 -6.12323e-17
vn 0 -1 -6.12323e-17
vn 0 -1 -6.12323e-17
vn 0 -1 -6.12323e-17
vn 0.985083 0 0.172082
vn -0.954895 0 -0.296945
vn -0.444666 0 0.895697
vn -0.954765 0 -0.297361
vn 0.865039 0 0.501705
vn 0.457096 0 -0.889417
vn 0.435239 0 -0.900315
vn 0 1 0

# Mesh 'defaultobject' with 24 faces
g defaultobject
usemtl DefaultMaterial
f  1//1 2//1 3//1
f  2//1 1//1 4//2
f  2//1 4//2 5//3
f  5//3 4//2 6//4
f  5//3 6//4 7//3
f  8//5 2//5 9//5
f  2//5 8//5 3//5
f  10//6 1//6 11//6
f  1//6 10//6 4//6
f  11//7 3//7 8//7
f  3//7 11//7 1//7
f  12//8 4//8 10//8
f  4//8 12//8 6//8
f  13//9 7//9 14//9
f  7//9 13//9 5//9
f  9//10 5//10 13//10
f  5//10 9//10 2//10
f  14//11 6//11 12//11
f  6//11 14//11 7//11
f  9//12 11//12 8//12
f  11//12 9//12 13//12
f  11//12 13//12 14//12
f  11//12 14//12 12//12
f  11//12 12//12 10//12

