# {"id":"DEB_LOD2_UUID_e03b14f2-e4dd-4779-9631-8c35fb5bdc31","idOriginal":"DEB_LOD2_UUID_e03b14f2-e4dd-4779-9631-8c35fb5bdc31","origin":[13.399999844029656,52.53143573537724],"elevation":36.29}
# Longitude: 13.399999844029656
# Latitude: 52.53143573537724
# Elevation: 36.29

# File produced by Open Asset Import Library (http://www.assimp.sf.net)
# (assimp v3.1.0)

mtllib DEB_LOD2_UUID_e03b14f2-e4dd-4779-9631-8c35fb5bdc31.obj.mtl

# 52 vertex positions
v  14.228 23.05 -1.789
v  17.414 19.56 4.705
v  14.228 19.56 -1.789
v  17.414 23.05 4.705
v  17.414 -2.88098e-16 4.705
v  15.877 9.54612e-17 -1.559
v  18.588 -2.3305e-16 3.806
v  17.376 -2.89874e-16 4.734
v  15.566 -3.74803e-16 6.121
v  15.449 1.47386e-16 -2.407
v  14.973 -4.02603e-16 6.575
v  14.228 1.09545e-16 -1.789
v  6.894 -6.48206e-16 10.586
v  14.113 1.05993e-16 -1.731
v  13.393 1.95025e-16 -3.185
v  12.026 3.64332e-16 -5.95
v  11.673 3.53556e-16 -5.774
v  10.111 3.06284e-16 -5.002
v  1.37 4.15155e-17 -0.678
v  6.807 -6.50839e-16 10.629
v  5.524 -6.89782e-16 11.265
v  2.781 -3.47126e-16 5.669
v  2.072 -2.58768e-16 4.226
v  1.4 -1.74818e-16 2.855
v  0.147 -1.84309e-17 0.301
v  1.199 3.63108e-17 -0.593
v  0 0 0
v  2.072 19.783 4.226
v  1.4 19.783 2.855
v  15.877 19.56 -1.559
v  18.588 19.56 3.806
v  17.376 23.05 4.734
v  10.111 23.53 -5.002
v  15.566 23.05 6.121
v  10.111 23.05 -5.002
v  15.566 23.53 6.121
v  6.894 23.53 10.586
v  14.973 23.53 6.575
v  6.894 19.783 10.586
v  6.807 19.783 10.629
v  5.524 19.783 11.265
v  2.781 19.783 5.669
v  1.199 19.783 -0.593
v  1.37 19.783 -0.678
v  0 19.783 1.21136e-15
v  0.147 19.783 0.301
v  14.113 23.05 -1.731
v  15.449 19.56 -2.407
v  13.393 23.05 -3.185
v  11.673 23.05 -5.774
v  12.026 23.05 -5.95
v  1.37 23.53 -0.678

# 0 UV coordinates

# 56 vertex normals
vn 0.897775 0 -0.440454
vn 3.03007e-24 -1 -6.12323e-17
vn -7.49305e-22 -1 -6.12321e-17
vn 1.57214e-23 -1 -6.12323e-17
vn -7.45467e-24 -1 -6.12323e-17
vn -8.28763e-23 -1 -6.12323e-17
vn 0 -1 -6.12323e-17
vn 6.00214e-24 -1 -6.12323e-17
vn 2.98457e-23 -1 -6.12323e-17
vn -5.46764e-24 -1 -6.12323e-17
vn -5.75513e-24 -1 -6.12323e-17
vn 2.95064e-23 -1 -6.12323e-17
vn -7.26362e-24 -1 -6.12323e-17
vn 6.95718e-22 -1 -6.12326e-17
vn -9.42991e-23 -1 -6.12323e-17
vn 8.59426e-23 -1 -6.12324e-17
vn -4.53824e-23 -1 -6.12323e-17
vn 3.04234e-24 -1 -6.12323e-17
vn 2.60718e-23 -1 -6.12323e-17
vn 0 -1 -6.12323e-17
vn -0.897936 0 0.440126
vn 0.892523 0 -0.451003
vn 0.607977 0 0.793954
vn 0.606676 0 0.794949
vn 0.897839 0 -0.440323
vn 0.444684 0 0.895687
vn 0.444684 0 0.895688
vn 0.443082 -0.000816644 0.896481
vn 0.444684 8.78635e-06 0.895687
vn 0.443081 0 0.896481
vn -0.897929 0 0.440139
vn 0.608247 0 0.793747
vn 0.607897 0 0.794016
vn -0 1 0
vn -0.450318 -0 -0.892868
vn -0.450318 0 -0.892868
vn -0.451592 9.40352e-06 -0.892224
vn -0.451483 0 -0.89228
vn 0.892737 0 -0.450579
vn -0.897776 0 0.440452
vn -0.898567 0 0.438835
vn -0.898567 -2.68709e-17 0.438835
vn 0.896146 0 -0.443759
vn -0.443322 5.48864e-17 -0.896362
vn -0.445118 -0.000135523 -0.895472
vn -0.443395 1.30527e-05 -0.896326
vn -0.443322 5.96805e-05 -0.896363
vn -0.44512 -0.000949191 -0.89547
vn -0.443395 0 -0.896326
vn -0.443395 0 -0.896326
vn -0.443077 0 -0.896484
vn -0.446199 -0 -0.894934
vn 0.896428 0 -0.443189
vn 0.444139 0 0.895958
vn -0.897515 0 0.440983
vn -0.897844 0 0.440313

# Mesh 'defaultobject' with 100 faces
g defaultobject
usemtl DefaultMaterial
f  1//1 2//1 3//1
f  2//1 1//1 4//1
f  5//2 6//2 7//2
f  6//2 5//2 8//3
f  6//2 8//3 9//4
f  6//2 9//4 10//5
f  10//5 9//4 11//6
f  10//5 11//6 12//7
f  12//7 11//6 13//8
f  12//7 13//8 14//9
f  14//9 13//8 15//10
f  15//10 13//8 16//11
f  16//11 13//8 17//12
f  17//12 13//8 18//13
f  18//13 13//8 19//7
f  19//7 13//8 20//14
f  19//7 20//14 21//15
f  19//7 21//15 22//7
f  19//7 22//7 23//16
f  19//7 23//16 24//17
f  19//7 24//17 25//18
f  19//7 25//18 26//19
f  26//19 25//18 27//20
f  28//21 24//21 23//21
f  24//21 28//21 29//21
f  30//22 7//22 6//22
f  7//22 30//22 31//22
f  7//23 2//23 5//23
f  2//23 7//23 31//23
f  5//24 32//24 8//24
f  32//24 5//24 4//24
f  4//24 5//24 2//1
f  33//25 34//25 35//25
f  34//25 33//25 36//25
f  37//26 11//26 38//26
f  11//26 37//26 39//27
f  11//28 39//28 40//28
f  11//26 40//29 13//29
f  13//30 40//30 20//30
f  41//31 22//31 21//31
f  22//31 41//31 42//31
f  8//32 34//32 9//32
f  34//32 8//32 32//32
f  9//33 38//33 11//33
f  38//33 9//33 36//33
f  36//25 9//33 34//25
f  43//34 39//34 44//34
f  39//34 43//34 45//34
f  39//34 45//34 46//34
f  39//34 46//34 29//34
f  39//34 29//34 28//34
f  39//34 28//34 42//34
f  39//34 42//34 40//34
f  40//34 42//34 41//34
f  47//35 1//35 14//35
f  3//36 14//35 1//35
f  48//37 14//37 3//37
f  10//38 14//38 48//38
f  12//7 14//9 10//5
f  48//39 6//39 10//39
f  6//39 48//39 30//39
f  29//40 25//40 24//40
f  25//40 29//40 46//40
f  46//41 27//41 25//41
f  27//41 46//41 45//42
f  1//34 47//34 4//34
f  32//34 35//34 34//34
f  35//34 32//34 4//34
f  35//34 4//34 47//34
f  35//34 47//34 49//34
f  35//34 49//34 50//34
f  50//34 49//34 51//34
f  49//43 14//43 15//43
f  14//43 49//43 47//43
f  45//44 26//44 27//44
f  26//45 45//45 19//45
f  19//46 45//46 18//46
f  18//47 45//47 43//47
f  18//48 43//48 44//48
f  18//49 44//49 52//49
f  18//49 52//49 33//50
f  18//47 33//50 35//25
f  18//51 35//51 17//51
f  50//51 17//51 35//51
f  50//52 16//52 17//52
f  16//52 50//52 51//52
f  51//53 15//53 16//53
f  15//53 51//53 49//53
f  40//54 21//54 20//54
f  21//54 40//54 41//54
f  42//55 23//55 22//55
f  23//55 42//55 28//55
f  38//34 52//34 37//34
f  52//34 38//34 33//34
f  33//34 38//34 36//34
f  31//34 3//34 2//34
f  3//34 31//34 30//34
f  3//34 30//34 48//34
f  37//56 44//56 39//56
f  44//56 37//56 52//56

