# {"id":"DEB_LOD2_UUID_5f89e2de-1168-4a07-a9ee-17c839ed221f","idOriginal":"DEB_LOD2_UUID_5f89e2de-1168-4a07-a9ee-17c839ed221f","origin":[13.344141554638849,52.53128589802378],"elevation":33.9}
# Longitude: 13.344141554638849
# Latitude: 52.53128589802378
# Elevation: 33.9

# File produced by Open Asset Import Library (http://www.assimp.sf.net)
# (assimp v3.1.0)

mtllib DEB_LOD2_UUID_5f89e2de-1168-4a07-a9ee-17c839ed221f.obj.mtl

# 24 vertex positions
v  0 18.925 1.15882e-15
v  14.533 21.6 0.487
v  1.364 21.6 -5.508
v  0.635 18.923 0.293
v  2.732 18.917 1.261
v  12.258 18.892 5.656
v  0 0 0
v  1.364 3.37268e-16 -5.508
v  3.029 18.334 -12.231
v  3.029 7.48933e-16 -12.231
v  16.878 18.334 -5.926
v  5.714 6.74107e-16 -11.009
v  5.714 18.334 -11.009
v  17.276 18.334 -5.745
v  16.878 3.62863e-16 -5.926
v  17.276 3.5178e-16 -5.745
v  12.258 -3.4633e-16 5.656
v  16.264 19.539 -3.446
v  16.264 2.11007e-16 -3.446
v  14.533 -2.98201e-17 0.487
v  3.665 18.334 -11.941
v  3.665 7.31175e-16 -11.941
v  0.635 -1.79411e-17 0.293
v  2.732 -7.7214e-17 1.261

# 0 UV coordinates

# 40 vertex normals
vn -0.179154 0.901681 0.393542
vn -0.179118 0.901339 0.394341
vn -0.179161 0.901607 0.393709
vn -0.179191 0.901684 0.393519
vn -0.970679 0 -0.240379
vn -0.970679 0 -0.240379
vn -0.970675 0 -0.240395
vn -0.970675 0 -0.240395
vn 0.414374 0 -0.910107
vn 0.413977 0.000291716 -0.910287
vn 0.414374 -1.03977e-05 -0.910107
vn 0.413977 0 -0.910287
vn 0.915273 -0 0.402833
vn 0.915274 -3.28676e-07 0.402832
vn 0.915255 2.33176e-05 0.402875
vn 0.915273 -7.80938e-06 0.402833
vn 0.915251 0 0.402885
vn -6.00121e-18 1 6.00121e-17
vn 0.17919 0.90164 -0.393619
vn 0.17919 0.901634 -0.393632
vn 0.180004 0.900976 -0.394766
vn 0.179226 0.901597 -0.393701
vn 0.179066 0.901609 -0.393747
vn 0 1 0
vn 0.414881 0 -0.909876
vn -0.418968 0 0.908001
vn -0.419113 -5.92502e-06 0.907934
vn -0.418931 2.59287e-05 0.908018
vn -0.418968 -2.58131e-06 0.908001
vn -0.419113 -0.000111262 0.907934
vn -0.418931 0 0.908018
vn 0.414037 0 -0.91026
vn 4.8207e-23 -1 -6.12323e-17
vn 0 -1 -6.12323e-17
vn -1.18072e-23 -1 -6.12323e-17
vn 1.30323e-23 -1 -6.12323e-17
vn 1.13765e-23 -1 -6.12323e-17
vn -5.19192e-23 -1 -6.12323e-17
vn -2.06922e-23 -1 -6.12323e-17
vn 0 -1 -6.12323e-17

# Mesh 'defaultobject' with 44 faces
g defaultobject
usemtl DefaultMaterial
f  1//1 2//1 3//1
f  2//2 1//2 4//2
f  2//3 4//3 5//3
f  2//4 5//4 6//4
f  3//5 7//5 1//5
f  7//5 3//5 8//6
f  8//7 3//7 9//7
f  8//7 9//7 10//8
f  11//9 12//9 13//9
f  12//10 11//10 14//10
f  12//11 14//11 15//11
f  15//12 14//12 16//12
f  17//13 2//13 6//13
f  2//13 17//13 18//14
f  18//15 17//15 14//15
f  14//16 17//13 19//16
f  14//17 19//17 16//17
f  19//18 17//18 20//18
f  18//19 3//19 2//19
f  3//20 18//20 9//20
f  9//21 18//21 21//21
f  21//22 18//22 11//22
f  11//23 18//23 14//23
f  21//24 11//24 13//24
f  9//25 22//25 10//25
f  22//25 9//25 21//25
f  23//26 1//26 7//26
f  1//27 23//27 24//27
f  1//28 24//28 17//28
f  1//26 17//29 4//29
f  4//30 17//30 5//30
f  5//31 17//31 6//31
f  21//32 12//32 22//32
f  12//32 21//32 13//32
f  19//33 15//33 16//33
f  15//33 19//33 12//34
f  12//34 19//33 20//34
f  12//34 20//34 17//35
f  12//34 17//35 24//36
f  12//34 24//36 22//37
f  22//37 24//36 10//38
f  10//38 24//36 8//39
f  8//39 24//36 23//40
f  8//39 23//40 7//34

