# {"id":"DEB_LOD2_UUID_7a480e36-4720-472b-942d-f0e1b7e80717","idOriginal":"DEB_LOD2_UUID_7a480e36-4720-472b-942d-f0e1b7e80717","origin":[13.397172886264654,52.52558930987363],"elevation":34.255}
# Longitude: 13.397172886264654
# Latitude: 52.52558930987363
# Elevation: 34.255

# File produced by Open Asset Import Library (http://www.assimp.sf.net)
# (assimp v3.1.0)

mtllib DEB_LOD2_UUID_7a480e36-4720-472b-942d-f0e1b7e80717.obj.mtl

# 30 vertex positions
v  0 18.997 1.16323e-15
v  0.623 9.06239e-18 -0.148
v  0 0 0
v  0.623 18.997 -0.148
v  2.431 18.997 -0.553
v  2.431 3.38615e-17 -0.553
v  4.037 18.997 -0.913
v  4.037 5.59051e-17 -0.913
v  5.862 18.997 15.64
v  3.712 -9.91903e-16 16.199
v  5.862 -9.57674e-16 15.64
v  3.712 18.997 16.199
v  0.017 18.997 0.076
v  0.243 18.997 1.058
v  5.171 18.997 3.682
v  1.913 18.997 8.352
v  6.086 18.997 7.395
v  6.875 18.997 10.595
v  5.527 18.997 14.364
v  7.667 18.997 13.805
v  7.614 18.997 13.819
v  6.086 -4.52813e-16 7.395
v  5.171 -2.25457e-16 3.682
v  6.875 -6.48757e-16 10.595
v  7.667 -8.45313e-16 13.805
v  1.913 -5.11413e-16 8.352
v  0.017 -4.65366e-18 0.076
v  0.243 -6.47838e-17 1.058
v  5.527 -8.79541e-16 14.364
v  7.614 -8.4617e-16 13.819

# 0 UV coordinates

# 33 vertex normals
vn -0.231128 5.95744e-17 -0.972923
vn -0.231128 0 -0.972923
vn -0.218587 0 -0.975817
vn -0.218731 0 -0.975785
vn 0.251633 0 0.967823
vn 0 1 0
vn 0.970952 0 -0.239273
vn 0.970923 0 -0.239393
vn 0.970885 2.72168e-05 -0.239545
vn 0.970923 -2.73029e-05 -0.239393
vn 0.970885 0 -0.239545
vn -0.974713 0 0.223462
vn -0.975884 0 0.21829
vn -0.974525 2.51794e-05 0.22428
vn -0.975884 -0.000325798 0.21829
vn -0.974525 0 0.22428
vn 0.967222 0 -0.253934
vn 0.970871 0 -0.239601
vn -0.974777 0 0.22318
vn 0.252667 0 0.967553
vn 0.25539 0 0.966838
vn -2.7096e-23 -1 -6.12324e-17
vn 4.8282e-23 -1 -6.12324e-17
vn -9.74706e-24 -1 -6.12323e-17
vn -9.38068e-24 -1 -6.12323e-17
vn -8.08484e-24 -1 -6.12323e-17
vn -1.67728e-24 -1 -6.12323e-17
vn 2.69159e-24 -1 -6.12323e-17
vn -1.8386e-24 -1 -6.12323e-17
vn 2.6336e-24 -1 -6.12323e-17
vn 0 -1 -6.12323e-17
vn 0 -1 -6.12323e-17
vn -1.8555e-21 -1 -6.12319e-17

# Mesh 'defaultobject' with 56 faces
g defaultobject
usemtl DefaultMaterial
f  1//1 2//1 3//1
f  2//1 1//1 4//2
f  5//3 2//3 4//3
f  2//3 5//3 6//3
f  6//4 5//4 7//4
f  6//4 7//4 8//4
f  9//5 10//5 11//5
f  10//5 9//5 12//5
f  13//6 4//6 1//6
f  4//6 13//6 14//6
f  4//6 14//6 5//6
f  5//6 14//6 7//6
f  7//6 14//6 15//6
f  15//6 14//6 16//6
f  15//6 16//6 17//6
f  17//6 16//6 12//6
f  17//6 12//6 18//6
f  18//6 12//6 19//6
f  19//6 12//6 9//6
f  19//6 20//6 18//6
f  20//6 19//6 21//6
f  15//7 22//7 23//7
f  22//7 15//7 17//7
f  18//8 22//8 17//8
f  22//9 18//9 20//9
f  22//10 20//10 24//10
f  24//11 20//11 25//11
f  12//12 26//12 10//12
f  26//12 12//12 16//12
f  27//13 1//13 3//13
f  1//14 27//14 28//14
f  1//15 28//15 13//15
f  13//16 28//16 14//16
f  19//17 11//17 29//17
f  11//17 19//17 9//17
f  7//18 23//18 8//18
f  23//18 7//18 15//18
f  16//19 28//19 26//19
f  28//19 16//19 14//19
f  30//20 19//20 29//20
f  19//20 30//20 21//20
f  21//21 30//21 25//21
f  21//21 25//21 20//21
f  10//22 29//22 11//22
f  29//22 10//22 26//23
f  29//22 26//23 24//24
f  24//24 26//23 22//25
f  22//25 26//23 23//26
f  23//26 26//23 28//27
f  23//26 28//27 8//28
f  8//28 28//27 6//29
f  6//29 28//27 27//30
f  6//29 27//30 2//31
f  2//31 27//30 3//32
f  30//33 24//24 25//33
f  24//24 30//33 29//22

