# {"id":"DEB_LOD2_UUID_cd1357fe-6e48-4356-aa91-510203d4d7ce","idOriginal":"DEB_LOD2_UUID_cd1357fe-6e48-4356-aa91-510203d4d7ce","origin":[13.395290202684182,52.5248105049038],"elevation":34.57}
# Longitude: 13.395290202684182
# Latitude: 52.5248105049038
# Elevation: 34.57

# File produced by Open Asset Import Library (http://www.assimp.sf.net)
# (assimp v3.1.0)

mtllib DEB_LOD2_UUID_cd1357fe-6e48-4356-aa91-510203d4d7ce.obj.mtl

# 58 vertex positions
v  16.431 1.19868e-15 -19.576
v  13.791 1.15276e-15 -18.826
v  15.154 1.26677e-15 -20.688
v  19.702 1.01701e-15 -16.609
v  19.816 1.0107e-15 -16.506
v  18.363 8.89277e-16 -14.523
v  13.559 1.13341e-15 -18.51
v  13.143 1.15209e-15 -18.815
v  17.375 8.06797e-16 -13.176
v  12.731 1.06434e-15 -17.382
v  18.353 8.88481e-16 -14.51
v  12.511 1.04585e-15 -17.08
v  12.134 1.01431e-15 -16.565
v  16.864 7.6418e-16 -12.48
v  11.885 9.93556e-16 -16.226
v  2.753 2.30172e-16 -3.759
v  12.797 4.24585e-16 -6.934
v  9.537 1.52285e-16 -2.487
v  7.727 1.04095e-18 -0.017
v  2.419 2.0225e-16 -3.303
v  7.484 -1.9227e-17 0.314
v  6.287 -1.19158e-16 1.946
v  1.315 1.09912e-16 -1.795
v  0 0 0
v  4.987 -2.27662e-16 3.718
v  11.764 1.10769e-15 -18.09
v  12.591 1.17689e-15 -19.22
v  12.134 16.416 -16.565
v  11.885 13.769 -16.226
v  11.885 16.26 -16.226
v  1.315 17.26 -1.795
v  0 16.456 1.00764e-15
v  2.419 16.584 -3.303
v  2.753 16.38 -3.759
v  2.753 13.768 -3.759
v  12.511 16.626 -17.08
v  17.375 16.581 -13.176
v  16.864 16.26 -12.48
v  18.353 17.194 -14.51
v  18.363 17.2 -14.523
v  19.816 16.287 -16.506
v  19.702 16.285 -16.609
v  16.431 16.277 -19.576
v  7.484 16.528 0.314
v  6.287 17.26 1.946
v  7.727 16.38 -0.017
v  15.154 16.285 -20.688
v  7.727 15.455 -0.017
v  9.537 15.456 -2.487
v  12.797 15.456 -6.934
v  13.791 17.044 -18.826
v  16.864 15.458 -12.48
v  11.764 16.727 -18.09
v  12.591 17.188 -19.22
v  13.559 17.189 -18.51
v  13.143 17.2 -18.815
v  12.731 16.749 -17.382
v  4.987 16.465 3.718

# 0 UV coordinates

# 95 vertex normals
vn -9.34805e-24 -1 -6.12323e-17
vn -8.36338e-24 -1 -6.12323e-17
vn -2.97341e-22 -1 -6.12314e-17
vn 1.72796e-23 -1 -6.12324e-17
vn 1.62521e-22 -1 -6.12325e-17
vn -6.84427e-22 -1 -6.12315e-17
vn -2.82452e-23 -1 -6.12323e-17
vn 6.53839e-23 -1 -6.12324e-17
vn 9.31855e-23 -1 -6.12325e-17
vn -1.96819e-23 -1 -6.12323e-17
vn 2.27262e-23 -1 -6.12323e-17
vn 1.09968e-23 -1 -6.12323e-17
vn 0 -1 -6.12323e-17
vn 2.31412e-24 -1 -6.12323e-17
vn 2.7777e-24 -1 -6.12323e-17
vn 0 -1 -6.12323e-17
vn 0 -1 -6.12323e-17
vn 8.40602e-24 -1 -6.12323e-17
vn -1.93629e-24 -1 -6.12323e-17
vn -8.80077e-23 -1 -6.12324e-17
vn -0.805952 0 -0.59198
vn -0.806691 0 -0.590974
vn -0.806873 3.97013e-05 -0.590725
vn -0.806691 -3.63232e-05 -0.590974
vn -0.806748 -2.54179e-05 -0.590896
vn -0.806881 8.09968e-06 -0.590714
vn -0.806742 0 -0.590903
vn -0.806728 -1.00402e-06 -0.590923
vn -0.806742 2.74483e-05 -0.590903
vn -0.806728 0 -0.590923
vn -0.806911 4.15277e-05 -0.590673
vn -0.806525 0 -0.5912
vn -0.209511 0.937314 0.278472
vn -0.209165 0.937585 0.277821
vn -0.209041 0.937671 0.277624
vn 0.806482 0 0.591259
vn 0.792607 0 0.609733
vn 0.806638 0 0.591046
vn 0.806638 0 0.591046
vn 0.670396 0 -0.742003
vn 0.67185 0 -0.740687
vn 0.67185 0 -0.740687
vn 0.204501 0.940376 -0.271794
vn 0.20451 0.940366 -0.271823
vn 0.204127 0.940605 -0.271283
vn 0.20386 0.940751 -0.270978
vn 0.656705 0 -0.754148
vn 0.656705 0 -0.754148
vn 0.806613 0 0.59108
vn 0.806613 0 0.59108
vn 0.806503 0 0.59123
vn 0.806095 0 0.591786
vn 0.209514 0.949507 -0.233541
vn 0.209458 0.949478 -0.233707
vn 0.80641 0 0.591357
vn 0.806074 0 0.591815
vn 0.806074 -0 0.591815
vn 0.806074 0 0.591815
vn -0.806972 -0 -0.590589
vn -0.806972 0 -0.59059
vn 0.221373 0.937262 -0.269322
vn 0.221019 0.937721 -0.268011
vn 0.218236 0.940674 -0.25982
vn 0.227921 0.933387 -0.277201
vn 0.601182 0 -0.799112
vn 0.601182 0 -0.799112
vn -0.808273 -0 -0.588808
vn -0.808273 0 -0.588808
vn -0.198718 0.949758 0.241809
vn -0.19879 0.949697 0.241986
vn -0.198772 0.949704 0.241974
vn -0.198174 0.949833 0.241959
vn -0.198781 0.949757 0.24176
vn -0.212337 0.939114 0.270144
vn -0.597708 0 0.801714
vn -0.597708 -4.90908e-17 0.801714
vn -0.204422 0.940358 0.271917
vn -0.204328 0.94048 0.271563
vn -0.601206 0 0.799094
vn -0.601206 0 0.799094
vn -0.590749 0 0.806856
vn -0.590749 0 0.806856
vn -0.211208 0.965172 -0.154381
vn -0.211162 0.965148 -0.154597
vn -0.210822 0.96523 -0.154549
vn -0.211165 0.965162 -0.154504
vn 0.591552 0 -0.806267
vn 0.59128 1.34516e-05 -0.806466
vn 0.591552 -1.015e-05 -0.806267
vn 0.59128 0 -0.806467
vn -0.80608 0 -0.591807
vn -0.806908 3.22153e-05 -0.590677
vn -0.806793 0 -0.590834
vn 0.806289 0 0.591522
vn 0.806358 0 0.591428

# Mesh 'defaultobject' with 112 faces
g defaultobject
usemtl DefaultMaterial
f  1//1 2//1 3//1
f  2//1 1//1 4//2
f  2//1 4//2 5//3
f  2//1 5//3 6//4
f  2//1 6//4 7//5
f  7//5 6//4 8//6
f  9//7 10//7 11//7
f  10//7 9//7 12//8
f  12//8 9//7 13//9
f  13//9 9//7 14//10
f  13//9 14//10 15//11
f  15//11 14//10 16//12
f  16//12 14//10 17//13
f  16//12 17//13 18//14
f  16//12 18//14 19//15
f  16//12 19//15 20//16
f  20//16 19//15 21//17
f  20//16 21//17 22//18
f  20//16 22//18 23//13
f  23//13 22//18 24//16
f  24//16 22//18 25//19
f  8//6 26//20 27//20
f  26//20 8//6 6//4
f  26//20 6//4 11//7
f  26//20 11//7 10//7
f  28//21 29//21 30//21
f  31//22 24//22 32//22
f  24//23 31//23 33//23
f  24//24 33//24 23//24
f  23//25 33//25 34//25
f  23//26 34//26 20//26
f  20//27 34//27 35//27
f  20//28 35//28 29//28
f  20//29 29//29 16//29
f  16//30 29//28 15//30
f  15//21 29//21 28//21
f  15//31 28//31 36//31
f  15//32 36//32 12//32
f  15//11 12//8 13//9
f  37//33 30//33 38//33
f  30//34 37//34 28//34
f  28//35 37//35 39//35
f  11//36 37//36 9//36
f  37//36 11//36 39//36
f  39//37 11//37 6//37
f  39//37 6//37 40//37
f  40//38 6//38 5//38
f  40//38 5//38 41//39
f  5//40 42//40 41//40
f  42//40 5//40 4//40
f  42//41 4//41 1//41
f  1//41 43//42 42//41
f  44//43 31//43 45//43
f  31//44 44//44 33//44
f  33//45 44//45 34//45
f  34//46 44//46 46//46
f  47//47 1//47 3//47
f  1//47 47//47 43//48
f  18//49 48//49 19//49
f  48//49 18//49 49//50
f  49//51 18//51 17//51
f  49//51 17//51 50//51
f  19//52 44//52 21//52
f  44//52 19//52 46//52
f  46//46 19//52 48//49
f  43//53 51//53 42//53
f  51//54 43//54 47//54
f  14//55 50//55 17//55
f  50//55 14//55 52//55
f  52//56 14//56 9//56
f  52//56 9//56 38//57
f  38//57 9//56 37//58
f  53//59 27//59 26//59
f  27//59 53//59 54//60
f  41//61 55//61 40//61
f  55//62 41//62 51//62
f  51//63 41//63 42//63
f  56//64 40//64 55//64
f  34//65 48//65 35//65
f  48//65 34//65 46//66
f  36//67 10//67 12//67
f  10//67 36//67 57//68
f  39//69 36//69 28//69
f  36//70 39//70 57//70
f  57//71 54//71 53//71
f  54//72 57//72 56//72
f  56//73 57//73 40//73
f  40//74 57//74 39//74
f  58//75 24//75 25//75
f  24//75 58//75 32//76
f  45//77 32//77 58//77
f  32//78 45//78 31//78
f  52//79 30//79 29//79
f  30//79 52//79 38//80
f  57//81 26//81 10//81
f  26//81 57//81 53//82
f  49//83 35//83 48//83
f  35//84 49//84 29//84
f  29//85 49//85 50//85
f  29//86 50//86 52//86
f  56//87 27//87 54//87
f  27//88 56//88 55//88
f  27//89 55//89 8//89
f  8//90 55//90 7//90
f  51//91 7//91 55//91
f  7//92 51//92 47//92
f  7//93 47//93 3//93
f  7//5 3//1 2//1
f  22//94 58//94 25//94
f  58//94 22//94 45//94
f  45//95 22//95 21//95
f  45//95 21//95 44//95

