# {"id":"DEB_LOD2_UUID_439473ef-1fcf-404d-a173-e1969029f3ec","idOriginal":"DEB_LOD2_UUID_439473ef-1fcf-404d-a173-e1969029f3ec","origin":[13.409560227492518,52.52092666562742],"elevation":36.46}
# Longitude: 13.409560227492518
# Latitude: 52.52092666562742
# Elevation: 36.46

# File produced by Open Asset Import Library (http://www.assimp.sf.net)
# (assimp v3.1.0)

mtllib DEB_LOD2_UUID_439473ef-1fcf-404d-a173-e1969029f3ec.obj.mtl

# 154 vertex positions
v  33.893 11.19 -22.053
v  33.95 1.34687e-15 -21.996
v  33.893 1.35036e-15 -22.053
v  33.95 11.19 -21.996
v  34.507 11.19 -21.033
v  34.527 1.28312e-15 -20.955
v  34.507 1.2879e-15 -21.033
v  34.527 11.19 -20.955
v  34.561 11.19 -20
v  34.545 1.21981e-15 -19.921
v  34.561 1.22465e-15 -20
v  34.545 11.19 -19.921
v  33.376 11.19 -22.429
v  33.446 1.37105e-15 -22.391
v  33.376 1.37338e-15 -22.429
v  33.446 11.19 -22.391
v  34.428 11.19 -21.26
v  34.457 1.29727e-15 -21.186
v  34.428 1.3018e-15 -21.26
v  34.457 11.19 -21.186
v  33.231 11.19 -22.5
v  33.304 1.37565e-15 -22.466
v  33.231 1.37773e-15 -22.5
v  33.304 11.19 -22.466
v  32.93 11.19 -22.61
v  33.007 1.38299e-15 -22.586
v  32.93 1.38446e-15 -22.61
v  33.007 11.19 -22.586
v  34.288 11.19 -21.549
v  34.326 1.31521e-15 -21.479
v  34.288 1.3195e-15 -21.549
v  34.326 11.19 -21.479
v  34.523 11.19 -19.829
v  33.306 1.16054e-15 -18.953
v  34.523 1.21418e-15 -19.829
v  33.306 11.19 -18.953
v  34.545 11.19 -20.877
v  34.561 1.27351e-15 -20.798
v  34.545 1.27835e-15 -20.877
v  34.561 11.19 -20.798
v  34.527 1.21503e-15 -19.843
v  34.527 11.19 -19.843
v  2.464 11.19 2.838
v  2.154 -1.46651e-16 2.395
v  2.464 -1.73777e-16 2.838
v  2.154 11.19 2.395
v  33.648 11.19 -22.259
v  33.712 1.36003e-15 -22.211
v  33.648 1.36297e-15 -22.259
v  33.712 11.19 -22.211
v  34.596 11.19 -20.399
v  34.594 1.24418e-15 -20.319
v  34.596 1.24908e-15 -20.399
v  34.594 11.19 -20.319
v  10.71 4.8992e-16 -8.001
v  0.381 -2.17987e-17 0.356
v  0 0 0
v  0.764 -4.52507e-17 0.739
v  1.133 -6.94375e-17 1.134
v  1.488 -9.44203e-17 1.542
v  1.828 -1.20199e-16 1.963
v  3.545 -2.88404e-16 4.71
v  14.352 1.98087e-16 -3.235
v  3.591 -2.94221e-16 4.805
v  3.299 -2.5889e-16 4.228
v  3.037 -2.29927e-16 3.755
v  2.758 -2.01516e-16 3.291
v  13.236 6.05588e-16 -9.89
v  16.835 3.11673e-16 -5.09
v  12.05 1.22091e-15 -19.939
v  26.101 6.99886e-17 -1.143
v  10.805 1.8663e-15 -30.479
v  35.904 -1.85656e-16 3.032
v  31.131 1.33615e-15 -21.821
v  32.348 1.38985e-15 -22.698
v  32.376 1.38979e-15 -22.697
v  32.456 1.38955e-15 -22.693
v  32.536 1.38912e-15 -22.686
v  32.616 1.3885e-15 -22.676
v  32.695 1.38777e-15 -22.664
v  32.774 1.38679e-15 -22.648
v  32.852 1.38569e-15 -22.63
v  34.573 1.22948e-15 -20.079
v  34.583 1.23438e-15 -20.159
v  34.59 1.23928e-15 -20.239
v  33.083 1.3814e-15 -22.56
v  33.157 1.37963e-15 -22.531
v  34.594 1.25398e-15 -20.479
v  34.59 1.25888e-15 -20.559
v  34.583 1.26377e-15 -20.639
v  34.573 1.26867e-15 -20.719
v  33.515 1.36848e-15 -22.349
v  33.582 1.36579e-15 -22.305
v  33.774 1.35697e-15 -22.161
v  34.483 1.29261e-15 -21.11
v  33.835 1.35372e-15 -22.108
v  34.397 1.30633e-15 -21.334
v  34.005 1.34332e-15 -21.938
v  34.363 1.3108e-15 -21.407
v  34.058 1.33958e-15 -21.877
v  34.108 1.33578e-15 -21.815
v  34.156 1.33186e-15 -21.751
v  34.246 1.32372e-15 -21.618
v  34.202 1.32782e-15 -21.685
v  10.805 11.19 -30.479
v  12.05 11.19 -19.939
v  13.236 11.19 -9.89
v  3.037 11.19 3.755
v  2.758 11.19 3.291
v  33.582 11.19 -22.305
v  14.352 11.19 -3.235
v  3.545 11.19 4.71
v  3.591 11.19 4.805
v  3.299 11.19 4.228
v  10.71 11.19 -8.001
v  16.835 11.19 -5.09
v  26.101 11.19 -1.143
v  35.904 11.19 3.032
v  31.131 11.19 -21.821
v  32.348 11.19 -22.698
v  32.376 11.19 -22.697
v  32.456 11.19 -22.693
v  32.536 11.19 -22.686
v  32.616 11.19 -22.676
v  32.695 11.19 -22.664
v  32.774 11.19 -22.648
v  32.852 11.19 -22.63
v  34.573 11.19 -20.079
v  33.083 11.19 -22.56
v  34.583 11.19 -20.159
v  33.157 11.19 -22.531
v  34.59 11.19 -20.239
v  34.594 11.19 -20.479
v  34.59 11.19 -20.559
v  33.515 11.19 -22.349
v  34.583 11.19 -20.639
v  34.573 11.19 -20.719
v  33.774 11.19 -22.161
v  33.835 11.19 -22.108
v  34.483 11.19 -21.11
v  34.005 11.19 -21.938
v  34.058 11.19 -21.877
v  34.397 11.19 -21.334
v  34.108 11.19 -21.815
v  34.363 11.19 -21.407
v  34.156 11.19 -21.751
v  34.202 11.19 -21.685
v  34.246 11.19 -21.618
v  0.381 11.19 0.356
v  0 11.19 6.8519e-16
v  0.764 11.19 0.739
v  1.133 11.19 1.134
v  1.488 11.19 1.542
v  1.828 11.19 1.963

# 0 UV coordinates

# 154 vertex normals
vn 0.707107 0 -0.707107
vn 0.968663 0 -0.248378
vn 0.980094 0 0.198532
vn 0.477094 0 -0.878852
vn 0.931059 0 -0.364869
vn 0.422201 0 -0.906502
vn 0.297572 0 -0.954699
vn 0.878842 0 -0.477113
vn 0.5842 0 0.81161
vn 0.980094 0 -0.198532
vn 0.974397 0 0.224835
vn -0.819319 0 0.573338
vn 0.599985 0 -0.800011
vn 0.999688 0 0.0249785
vn 0 -1 -6.12324e-17
vn 0 -1 -6.12323e-17
vn -1.85007e-24 -1 -6.12323e-17
vn -1.86794e-23 -1 -6.12323e-17
vn 1.13231e-23 -1 -6.12323e-17
vn -1.06953e-22 -1 -6.12325e-17
vn -5.9122e-23 -1 -6.12324e-17
vn 0 -1 -6.12323e-17
vn 0 -1 -6.12324e-17
vn 1.11931e-23 -1 -6.12323e-17
vn 5.6941e-24 -1 -6.12323e-17
vn 1.38978e-23 -1 -6.12323e-17
vn -3.56782e-24 -1 -6.12323e-17
vn 0 -1 -6.12323e-17
vn 7.30457e-24 -1 -6.12323e-17
vn 0 -1 -6.12323e-17
vn 2.94227e-23 -1 -6.12323e-17
vn -5.14988e-23 -1 -6.12323e-17
vn -4.06405e-21 -1 -6.12293e-17
vn 0 -1 -6.12324e-17
vn 2.46637e-22 -1 -6.12326e-17
vn -1.01468e-21 -1 -6.12318e-17
vn 7.86141e-22 -1 -6.12328e-17
vn -3.94706e-21 -1 -6.12298e-17
vn 4.78371e-22 -1 -6.12327e-17
vn 8.48866e-22 -1 -6.12329e-17
vn 3.06448e-22 -1 -6.12325e-17
vn 1.06254e-21 -1 -6.12331e-17
vn 2.9795e-22 -1 -6.12326e-17
vn -2.25195e-21 -1 -6.12308e-17
vn -1.32986e-21 -1 -6.12314e-17
vn 1.42068e-21 -1 -6.12333e-17
vn 3.0643e-22 -1 -6.12326e-17
vn -1.9291e-22 -1 -6.12324e-17
vn 2.22327e-21 -1 -6.12338e-17
vn -1.95238e-21 -1 -6.12309e-17
vn -1.46199e-21 -1 -6.12313e-17
vn 2.10535e-21 -1 -6.12336e-17
vn -1.72526e-21 -1 -6.12312e-17
vn 2.61574e-22 -1 -6.12327e-17
vn 3.12639e-22 -1 -6.12326e-17
vn -1.77014e-21 -1 -6.12312e-17
vn 2.78582e-21 -1 -6.12342e-17
vn 6.66464e-22 -1 -6.12327e-17
vn -1.95975e-21 -1 -6.1231e-17
vn 1.16719e-21 -1 -6.12332e-17
vn 4.52216e-22 -1 -6.12327e-17
vn -1.14302e-21 -1 -6.12316e-17
vn -2.40887e-21 -1 -6.12308e-17
vn -4.2396e-21 -1 -6.12297e-17
vn 4.34757e-21 -1 -6.12351e-17
vn 2.08461e-21 -1 -6.12337e-17
vn -5.95912e-21 -1 -6.12284e-17
vn 3.18137e-21 -1 -6.12344e-17
vn 4.94266e-21 -1 -6.12357e-17
vn -7.48157e-22 -1 -6.12319e-17
vn 1.45559e-21 -1 -6.12333e-17
vn 4.63649e-21 -1 -6.12355e-17
vn -3.43968e-21 -1 -6.12302e-17
vn -5.39988e-21 -1 -6.12288e-17
vn -3.60739e-21 -1 -6.123e-17
vn 7.57429e-21 -1 -6.12375e-17
vn 1.76603e-21 -1 -6.12338e-17
vn -6.82294e-21 -1 -6.12281e-17
vn -6.78652e-21 -1 -6.1228e-17
vn -8.30937e-21 -1 -6.1227e-17
vn 7.42961e-21 -1 -6.12372e-17
vn 4.80864e-21 -1 -6.12353e-17
vn -1.40828e-20 -1 -6.12231e-17
vn 3.91755e-20 -1 -6.12591e-17
vn -0.993096 0 0.117306
vn -0.993107 -9.32881e-05 0.117208
vn -0.993096 8.89413e-05 0.117306
vn -0.993107 0 0.117208
vn -0.857004 0 0.51531
vn 0.5718 0 -0.820393
vn 0 1 0
vn -0.584639 -0 -0.811294
vn 0.800026 0 -0.599966
vn 0.725625 0 -0.68809
vn -0.707107 0 0.707107
vn 0.655864 0 -0.754879
vn 0.99228 0 -0.124014
vn 0.598534 0 0.801097
vn 0.598502 0 0.801121
vn 0.835874 0 -0.548921
vn -0.838824 0 0.544402
vn -0.874767 0 0.484543
vn 0.0871687 0 -0.996194
vn 0.996194 0 0.0871667
vn 0.922328 0 -0.386409
vn 0.954706 0 -0.29755
vn 0.988657 0 -0.150188
vn 0.519944 0 -0.8542
vn 0.946161 0 -0.323698
vn 0.999688 0 -0.0249785
vn 0.988657 0 0.150188
vn 0.82039 0 -0.571805
vn -0.730748 0 0.682648
vn 0.688078 0 -0.725637
vn 0.248361 0 -0.968668
vn 0.548927 0 -0.835871
vn -0.777976 0 0.628294
vn -0.900039 0 0.435809
vn 0.974397 0 -0.224835
vn -0.391893 0 0.920011
vn -0.391834 5.77821e-05 0.920036
vn -0.391893 -6.11291e-05 0.920011
vn -0.391834 0 0.920036
vn 0.198491 0 -0.980103
vn 0.961494 0 0.274825
vn 0.778396 0 -0.627774
vn 0.323698 0 -0.946161
vn -0.598491 4.9055e-17 -0.80113
vn -0.598491 0 -0.80113
vn 0.22487 0 -0.974389
vn 0.0499329 0 -0.998753
vn 0.998751 0 0.0499578
vn -0.798223 0 0.602363
vn -0.754406 0 0.656408
vn 0.386397 0 -0.922332
vn 0.124035 0 -0.992278
vn 0.627783 0 -0.778389
vn 0.99309 0 -0.117355
vn 0.99228 0 0.124014
vn 0.8542 0 -0.519944
vn 0.889439 0 -0.457054
vn 0.457064 0 -0.889434
vn 0.754881 0 -0.655862
vn 0.996194 0 -0.0871667
vn 0.391886 0 -0.920014
vn -0.598883 -0 -0.800836
vn 0.906498 0 -0.42221
vn 0.998751 0 -0.0499578
vn 0.150191 0 -0.988657
vn 0.364861 0 -0.931062
vn -0.682728 0 0.730672
vn -0.682728 -4.47408e-17 0.730672
vn 0.0356721 0 -0.999363
vn -0.890701 0 0.45459

# Mesh 'defaultobject' with 304 faces
g defaultobject
usemtl DefaultMaterial
f  1//1 2//1 3//1
f  2//1 1//1 4//1
f  5//2 6//2 7//2
f  6//2 5//2 8//2
f  9//3 10//3 11//3
f  10//3 9//3 12//3
f  13//4 14//4 15//4
f  14//4 13//4 16//4
f  17//5 18//5 19//5
f  18//5 17//5 20//5
f  21//6 22//6 23//6
f  22//6 21//6 24//6
f  25//7 26//7 27//7
f  26//7 25//7 28//7
f  29//8 30//8 31//8
f  30//8 29//8 32//8
f  33//9 34//9 35//9
f  34//9 33//9 36//9
f  37//10 38//10 39//10
f  38//10 37//10 40//10
f  12//11 41//11 10//11
f  41//11 12//11 42//11
f  43//12 44//12 45//12
f  44//12 43//12 46//12
f  47//13 48//13 49//13
f  48//13 47//13 50//13
f  51//14 52//14 53//14
f  52//14 51//14 54//14
f  55//15 56//15 57//15
f  56//15 55//15 58//16
f  58//16 55//15 59//17
f  59//17 55//15 60//16
f  60//16 55//15 61//16
f  61//16 55//15 44//18
f  44//18 55//15 45//19
f  62//20 63//20 64//20
f  63//20 62//20 65//21
f  63//20 65//21 66//22
f  63//20 66//22 67//23
f  63//20 67//23 45//19
f  63//20 45//19 55//15
f  63//20 55//15 68//24
f  63//20 68//24 69//25
f  69//25 68//24 70//26
f  69//25 70//26 71//27
f  71//27 70//26 72//28
f  71//27 72//28 73//16
f  73//16 72//28 74//29
f  73//16 74//29 34//30
f  34//30 74//29 75//31
f  34//30 75//31 35//32
f  35//32 75//31 76//33
f  35//32 76//33 77//34
f  35//32 77//34 78//35
f  35//32 78//35 79//36
f  35//32 79//36 80//37
f  35//32 80//37 41//38
f  41//38 80//37 10//39
f  10//39 80//37 81//40
f  10//39 81//40 11//41
f  11//41 81//40 82//42
f  11//41 82//42 83//43
f  83//43 82//42 27//44
f  83//43 27//44 84//45
f  84//45 27//44 26//46
f  84//45 26//46 85//47
f  85//47 26//46 86//48
f  85//47 86//48 52//49
f  52//49 86//48 87//50
f  52//49 87//50 53//51
f  53//51 87//50 23//52
f  53//51 23//52 88//53
f  88//53 23//52 22//54
f  88//53 22//54 89//55
f  89//55 22//54 15//56
f  89//55 15//56 90//57
f  90//57 15//56 14//58
f  90//57 14//58 91//59
f  91//59 14//58 92//60
f  91//59 92//60 38//61
f  38//61 92//60 93//62
f  38//61 93//62 39//63
f  39//63 93//62 49//64
f  39//63 49//64 6//65
f  6//65 49//64 48//66
f  6//65 48//66 7//67
f  7//67 48//66 94//68
f  7//67 94//68 95//69
f  95//69 94//68 96//70
f  95//69 96//70 18//71
f  18//71 96//70 3//72
f  18//71 3//72 19//73
f  19//73 3//72 2//74
f  19//73 2//74 97//75
f  97//75 2//74 98//76
f  97//75 98//76 99//77
f  99//77 98//76 100//78
f  99//77 100//78 30//79
f  30//79 100//78 101//80
f  30//79 101//80 31//81
f  31//81 101//80 102//82
f  31//81 102//82 103//83
f  103//83 102//82 104//84
f  70//85 105//85 72//85
f  105//86 70//86 68//86
f  105//87 68//87 106//87
f  106//88 68//88 107//88
f  108//89 67//89 66//89
f  67//89 108//89 109//89
f  110//90 49//90 93//90
f  49//90 110//90 47//90
f  111//91 112//91 113//91
f  112//91 111//91 114//91
f  114//91 111//91 108//91
f  108//91 111//91 109//91
f  109//91 111//91 115//91
f  115//91 111//91 107//91
f  107//91 111//91 116//91
f  107//91 116//91 106//91
f  106//91 116//91 117//91
f  106//91 117//91 105//91
f  105//91 117//91 118//91
f  105//91 118//91 119//91
f  119//91 118//91 36//91
f  119//91 36//91 120//91
f  120//91 36//91 33//91
f  120//91 33//91 121//91
f  121//91 33//91 122//91
f  122//91 33//91 123//91
f  123//91 33//91 124//91
f  124//91 33//91 125//91
f  125//91 33//91 126//91
f  126//91 33//91 127//91
f  127//91 33//91 42//91
f  127//91 42//91 12//91
f  127//91 12//91 25//91
f  25//91 12//91 9//91
f  25//91 9//91 28//91
f  28//91 9//91 128//91
f  28//91 128//91 129//91
f  129//91 128//91 130//91
f  129//91 130//91 131//91
f  131//91 130//91 132//91
f  131//91 132//91 21//91
f  21//91 132//91 54//91
f  21//91 54//91 24//91
f  24//91 54//91 51//91
f  24//91 51//91 13//91
f  13//91 51//91 133//91
f  13//91 133//91 16//91
f  16//91 133//91 134//91
f  16//91 134//91 135//91
f  135//91 134//91 136//91
f  135//91 136//91 110//91
f  110//91 136//91 137//91
f  110//91 137//91 47//91
f  47//91 137//91 40//91
f  47//91 40//91 50//91
f  50//91 40//91 37//91
f  50//91 37//91 138//91
f  138//91 37//91 8//91
f  138//91 8//91 139//91
f  139//91 8//91 5//91
f  139//91 5//91 1//91
f  1//91 5//91 140//91
f  1//91 140//91 4//91
f  4//91 140//91 20//91
f  4//91 20//91 141//91
f  141//91 20//91 17//91
f  141//91 17//91 142//91
f  142//91 17//91 143//91
f  142//91 143//91 144//91
f  144//91 143//91 145//91
f  144//91 145//91 146//91
f  146//91 145//91 32//91
f  146//91 32//91 147//91
f  147//91 32//91 29//91
f  147//91 29//91 148//91
f  149//91 115//91 150//91
f  115//91 149//91 151//91
f  115//91 151//91 152//91
f  115//91 152//91 153//91
f  115//91 153//91 154//91
f  115//91 154//91 46//91
f  115//91 46//91 43//91
f  115//91 43//91 109//91
f  119//92 75//92 74//92
f  75//92 119//92 120//92
f  144//93 102//93 101//93
f  102//93 144//93 146//93
f  4//94 98//94 2//94
f  98//94 4//94 141//94
f  151//95 56//95 58//95
f  56//95 151//95 149//95
f  138//96 96//96 94//96
f  96//96 138//96 139//96
f  137//97 90//97 91//97
f  90//97 137//97 136//97
f  63//98 113//98 64//98
f  113//98 63//98 111//98
f  111//99 63//99 69//99
f  111//99 69//99 116//99
f  147//100 103//100 104//100
f  103//100 147//100 148//100
f  109//101 45//101 67//101
f  45//101 109//101 43//101
f  114//102 66//102 65//102
f  66//102 114//102 108//102
f  122//103 78//103 77//103
f  78//103 122//103 123//103
f  132//104 84//104 85//104
f  84//104 132//104 130//104
f  143//105 19//105 97//105
f  19//105 143//105 17//105
f  140//106 7//106 95//106
f  7//106 140//106 5//106
f  40//107 91//107 38//107
f  91//107 40//107 137//107
f  16//108 92//108 14//108
f  92//108 16//108 135//108
f  20//109 95//109 18//109
f  95//109 20//109 140//109
f  133//110 53//110 88//110
f  53//110 133//110 51//110
f  128//111 11//111 83//111
f  11//111 128//111 9//111
f  146//112 104//112 102//112
f  104//112 146//112 147//112
f  152//113 58//113 59//113
f  58//113 152//113 151//113
f  139//114 3//114 96//114
f  3//114 139//114 1//114
f  127//115 27//115 82//115
f  27//115 127//115 25//115
f  135//116 93//116 92//116
f  93//116 135//116 110//116
f  154//117 60//117 61//117
f  60//117 154//117 153//117
f  113//118 62//118 64//118
f  62//118 113//118 112//118
f  8//119 39//119 6//119
f  39//119 8//119 37//119
f  71//120 116//120 69//120
f  116//121 71//121 73//121
f  116//122 73//122 117//122
f  117//123 73//123 118//123
f  125//124 81//124 80//124
f  81//124 125//124 126//124
f  42//125 35//125 41//125
f  35//125 42//125 33//125
f  142//126 101//126 100//126
f  101//126 142//126 144//126
f  28//127 86//127 26//127
f  86//127 28//127 129//127
f  150//128 55//128 57//128
f  55//128 150//128 115//129
f  126//130 82//130 81//130
f  82//130 126//130 127//130
f  121//131 77//131 76//131
f  77//131 121//131 122//131
f  54//132 85//132 52//132
f  85//132 54//132 132//132
f  46//133 61//133 44//133
f  61//133 46//133 154//133
f  153//134 59//134 60//134
f  59//134 153//134 152//134
f  131//135 23//135 87//135
f  23//135 131//135 21//135
f  123//136 79//136 78//136
f  79//136 123//136 124//136
f  50//137 94//137 48//137
f  94//137 50//137 138//137
f  36//138 73//138 34//138
f  73//138 36//138 118//138
f  130//139 83//139 84//139
f  83//139 130//139 128//139
f  148//140 31//140 103//140
f  31//140 148//140 29//140
f  32//141 99//141 30//141
f  99//141 32//141 145//141
f  24//142 15//142 22//142
f  15//142 24//142 13//142
f  141//143 100//143 98//143
f  100//143 141//143 142//143
f  136//144 89//144 90//144
f  89//144 136//144 134//144
f  105//145 74//145 72//145
f  74//145 105//145 119//145
f  115//146 68//146 55//146
f  68//146 115//146 107//146
f  145//147 97//147 99//147
f  97//147 145//147 143//147
f  134//148 88//148 89//148
f  88//148 134//148 133//148
f  124//149 80//149 79//149
f  80//149 124//149 125//149
f  129//150 87//150 86//150
f  87//150 129//150 131//150
f  149//151 57//151 56//151
f  57//151 149//151 150//152
f  120//153 76//153 75//153
f  76//153 120//153 121//153
f  112//154 65//154 62//154
f  65//154 112//154 114//154

