# {"id":"DEB_LOD2_UUID_e65be7fc-526e-4647-a007-1a3b2b61654f","idOriginal":"DEB_LOD2_UUID_e65be7fc-526e-4647-a007-1a3b2b61654f","origin":[13.401981538378324,52.53276355225827],"elevation":45.101}
# Longitude: 13.401981538378324
# Latitude: 52.53276355225827
# Elevation: 45.101

# File produced by Open Asset Import Library (http://www.assimp.sf.net)
# (assimp v3.1.0)

mtllib DEB_LOD2_UUID_e65be7fc-526e-4647-a007-1a3b2b61654f.obj.mtl

# 24 vertex positions
v  6.502 23.291 -10.487
v  10.977 1.08412e-15 -17.705
v  6.502 6.42144e-16 -10.487
v  10.977 23.291 -17.705
v  20.232 23.297 -11.946
v  15.611 25.342 -14.821
v  15.611 9.07524e-16 -14.821
v  20.232 7.31482e-16 -11.946
v  9.55 23.283 5.353
v  4.637 25.342 2.88
v  9.292 23.283 5.771
v  13.368 23.289 -0.831
v  13.586 23.288 -1.182
v  15.927 23.291 -4.973
v  0 23.291 1.42616e-15
v  5.924 23.292 -9.552
v  13.368 5.08841e-17 -0.831
v  13.586 7.23766e-17 -1.182
v  5.924 5.84891e-16 -9.552
v  0 0 0
v  15.927 3.04508e-16 -4.973
v  4.637 -1.76349e-16 2.88
v  9.292 -3.53372e-16 5.771
v  9.55 -3.27777e-16 5.353

# 0 UV coordinates

# 39 vertex normals
vn -0.849911 -0 -0.526926
vn 0.528324 0.000188734 -0.849043
vn 0.528324 0 -0.849043
vn 0.528384 -3.31495e-05 -0.849006
vn 0.528264 0 -0.84908
vn 0.299317 0.936097 0.184746
vn 0.298996 0.936077 0.185367
vn 0.298598 0.936225 0.185263
vn 0.303429 0.934565 0.185793
vn 0.298973 0.936086 0.185361
vn 0.298938 0.936096 0.185364
vn -0.29894 0.936102 -0.185332
vn -0.298876 0.936136 -0.185261
vn -0.299208 0.935891 -0.185965
vn -0.29896 0.936092 -0.185348
vn 0.84949 0 0.527604
vn 0.84949 -0 0.527604
vn -0.849833 3.22727e-17 -0.527053
vn -0.849833 0 -0.527053
vn 0.850848 0 0.525412
vn 0.850848 0 0.525412
vn 0.850899 0 0.525329
vn 0.850899 0 0.525329
vn -0.527609 0 0.849487
vn -0.527585 6.53083e-06 0.849502
vn -0.527597 0 0.849495
vn -0.527597 -3.70811e-05 0.849495
vn -1.7131e-23 -1 -6.12324e-17
vn 4.58195e-24 -1 -6.12323e-17
vn 1.77534e-24 -1 -6.12323e-17
vn 0 -1 -6.12323e-17
vn -2.20548e-23 -1 -6.12323e-17
vn 0 -1 -6.12323e-17
vn 0 -1 -6.12323e-17
vn 3.94118e-23 -1 -6.12324e-17
vn -1.27028e-19 -1 -6.12274e-17
vn 0.850958 0 0.525234
vn 0.850892 0 0.525341
vn -0.850594 -0 -0.525822

# Mesh 'defaultobject' with 44 faces
g defaultobject
usemtl DefaultMaterial
f  1//1 2//1 3//1
f  2//1 1//1 4//1
f  5//2 4//2 6//2
f  4//3 5//3 2//3
f  2//4 5//4 7//4
f  7//5 5//5 8//5
f  9//6 10//6 11//6
f  10//7 9//7 6//7
f  6//8 9//8 12//8
f  6//9 12//9 13//9
f  6//10 13//10 14//10
f  6//11 14//11 5//11
f  6//12 15//12 10//12
f  15//13 6//13 16//13
f  16//14 6//14 1//14
f  1//15 6//15 4//15
f  13//16 17//16 18//16
f  17//16 13//16 12//17
f  15//18 19//18 20//18
f  19//18 15//18 16//19
f  21//20 13//20 18//20
f  13//20 21//20 14//21
f  14//22 21//22 8//22
f  14//22 8//22 5//23
f  22//24 15//24 20//24
f  15//25 22//25 23//25
f  15//26 23//26 11//26
f  15//27 11//27 10//27
f  7//28 3//28 2//28
f  3//28 7//28 8//29
f  3//28 8//29 21//30
f  3//28 21//30 18//31
f  3//28 18//31 19//32
f  19//32 18//31 20//33
f  20//33 18//31 17//34
f  20//33 17//34 24//31
f  20//33 24//31 23//35
f  20//33 23//35 22//36
f  24//37 11//37 23//37
f  11//37 24//37 9//37
f  9//38 24//38 17//38
f  9//38 17//38 12//38
f  16//39 3//39 19//39
f  3//39 16//39 1//39

