# {"id":"DEB_LOD2_UUID_93a3d2e1-5be6-4056-85bd-9758ef1c070f","idOriginal":"DEB_LOD2_UUID_93a3d2e1-5be6-4056-85bd-9758ef1c070f","origin":[13.394739182770762,52.50874703092179],"elevation":33.93}
# Longitude: 13.394739182770762
# Latitude: 52.50874703092179
# Elevation: 33.93

# File produced by Open Asset Import Library (http://www.assimp.sf.net)
# (assimp v3.1.0)

mtllib DEB_LOD2_UUID_93a3d2e1-5be6-4056-85bd-9758ef1c070f.obj.mtl

# 108 vertex positions
v  21.871 31.69 6.094
v  22.193 30.91 10.148
v  21.871 30.91 6.094
v  22.193 31.69 10.148
v  0 27.44 1.68022e-15
v  2.811 1.35323e-17 -0.221
v  0 0 0
v  2.811 27.44 -0.221
v  7.345 27.44 -0.575
v  7.345 3.52086e-17 -0.575
v  8.343 27.44 -0.653
v  8.343 3.99847e-17 -0.653
v  31.336 30.91 11.182
v  31.327 30.91 11.065
v  17.834 30.91 12.24
v  0.424 30.91 5.497
v  42.954 30.91 1.911
v  0.404 30.91 5.244
v  0.599 30.91 7.76
v  0.911 30.91 11.815
v  0.983 30.91 12.745
v  1.039 30.91 13.467
v  14.114 30.91 12.439
v  17.827 30.91 12.148
v  40.183 30.91 10.417
v  42.972 30.91 2.134
v  43.154 30.91 4.427
v  41.741 30.91 10.303
v  43.408 30.91 7.643
v  41.746 30.91 10.367
v  41.983 30.91 13.317
v  43.474 30.91 8.482
v  43.612 30.91 10.221
v  43.848 30.91 13.209
v  20.484 30.48 36.735
v  17.834 30.48 12.24
v  19.781 30.48 36.796
v  31.336 30.48 11.182
v  20.693 30.48 36.717
v  32.752 30.48 29.182
v  33.259 30.48 35.622
v  18.673 31.69 10.424
v  18.351 31.69 6.37
v  0.404 -3.21102e-16 5.244
v  0.116 27.44 1.509
v  0.116 -9.23996e-17 1.509
v  0.404 27.44 5.244
v  0.424 -3.36594e-16 5.497
v  0.599 -4.75163e-16 7.76
v  0.911 -7.2346e-16 11.815
v  0.983 -7.80406e-16 12.745
v  20.484 -2.24937e-15 36.735
v  20.693 -2.24827e-15 36.717
v  40.575 27.44 -3.177
v  41.703 1.99985e-16 -3.266
v  40.575 1.94535e-16 -3.177
v  41.703 27.44 -3.266
v  42.972 -1.3067e-16 2.134
v  42.954 27.44 1.911
v  42.637 27.44 -2.113
v  42.637 1.29384e-16 -2.113
v  42.954 -1.17015e-16 1.911
v  26.602 27.44 -2.083
v  28.845 1.38263e-16 -2.258
v  26.602 1.27547e-16 -2.083
v  28.845 27.44 -2.258
v  42.54 2.03965e-16 -3.331
v  42.54 27.44 -3.331
v  19.781 -2.25311e-15 36.796
v  17.834 -7.49484e-16 12.24
v  17.827 -7.4385e-16 12.148
v  18.351 30.91 6.37
v  18.673 30.91 10.424
v  12.728 27.44 -0.997
v  12.728 6.10486e-17 -0.997
v  13.724 27.44 -1.075
v  13.724 6.58248e-17 -1.075
v  18.109 27.44 -1.418
v  18.109 8.68275e-17 -1.418
v  19.067 27.44 -1.493
v  19.067 9.14199e-17 -1.493
v  23.462 27.44 -1.837
v  23.462 1.12484e-16 -1.837
v  24.458 27.44 -1.915
v  24.458 1.1726e-16 -1.915
v  41.983 -8.15431e-16 13.317
v  43.848 -8.08818e-16 13.209
v  40.183 -6.37857e-16 10.417
v  31.327 -6.77536e-16 11.065
v  41.741 -6.30877e-16 10.303
v  14.114 -7.61669e-16 12.439
v  31.336 -6.847e-16 11.182
v  32.752 -1.78688e-15 29.182
v  33.259 -2.18122e-15 35.622
v  1.039 -8.24616e-16 13.467
v  29.841 27.44 -2.336
v  34.226 27.44 -2.68
v  35.224 27.44 -2.758
v  39.758 27.44 -3.113
v  29.841 1.43039e-16 -2.336
v  43.612 -6.25856e-16 10.221
v  43.474 -5.19373e-16 8.482
v  43.408 -4.67999e-16 7.643
v  43.154 -2.71076e-16 4.427
v  41.746 -6.34796e-16 10.367
v  39.758 1.90616e-16 -3.113
v  35.224 1.68879e-16 -2.758
v  34.226 1.64103e-16 -2.68

# 0 UV coordinates

# 106 vertex normals
vn 0.99686 0 -0.0791785
vn -0.0783779 6.1044e-17 -0.996924
vn -0.0783779 0 -0.996924
vn -0.0778399 0 -0.996966
vn -0.0779187 0 -0.99696
vn 0 1 0
vn -0.99704 0 0.0768802
vn -0.99689 0 0.0788054
vn -0.99689 0 0.0788054
vn -0.99689 0 0.0788054
vn -0.997023 0 0.0771008
vn -0.997053 0 0.0767153
vn -0.997017 0 0.0771883
vn 0.0858135 0 0.996311
vn -0.0786564 -0 -0.996902
vn 0.996758 0 -0.0804627
vn 0.996758 0 -0.0804627
vn 0.996911 1.57799e-05 -0.0785334
vn 0.996903 0 -0.0786347
vn -6.05728e-20 -1 -6.12277e-17
vn -0.0777841 -0 -0.99697
vn -0.0774251 -0 -0.996998
vn -0.996871 0 0.0790401
vn -0.997118 0 0.0758673
vn -0.997118 0 0.0758673
vn -0.99686 0 0.0791785
vn -0.078209 0 -0.996937
vn -0.0780743 0 -0.996948
vn -0.077983 0 -0.996955
vn -0.0780493 0 -0.99695
vn -0.0780321 0 -0.996951
vn -0.0780741 0 -0.996948
vn -0.0781188 0 -0.996944
vn 0.0578125 0 0.998327
vn 0.0729756 0 0.997334
vn 0.0729751 0 0.997334
vn 0.0864474 0 0.996256
vn 0.0781338 0 0.996943
vn 0.997054 0 -0.0767027
vn 0.997054 0 -0.0767026
vn 0.99692 6.64802e-06 -0.0784243
vn 0.997054 -0.0010229 -0.0767027
vn 0.99692 0 -0.0784243
vn 0.996915 0 -0.0784838
vn -0.997006 0 0.0773301
vn 0.996844 0 -0.0793875
vn -0.0781692 -0 -0.99694
vn 1.42939e-23 -1 -6.12323e-17
vn 1.48777e-23 -1 -6.12323e-17
vn 2.60199e-22 -1 -6.12322e-17
vn -9.37891e-24 -1 -6.12323e-17
vn -1.31714e-23 -1 -6.12323e-17
vn 4.61713e-24 -1 -6.12323e-17
vn -9.66116e-25 -1 -6.12323e-17
vn 8.31864e-24 -1 -6.12323e-17
vn -1.88517e-24 -1 -6.12323e-17
vn 0 -1 -6.12324e-17
vn -2.51339e-22 -1 -6.12323e-17
vn 0 -1 -6.12323e-17
vn -1.0131e-24 -1 -6.12323e-17
vn 7.00574e-21 -1 -6.12323e-17
vn -1.68435e-23 -1 -6.12323e-17
vn 2.67405e-24 -1 -6.12323e-17
vn 0 -1 -6.12323e-17
vn -6.375e-24 -1 -6.12323e-17
vn 4.45592e-25 -1 -6.12323e-17
vn -1.95753e-24 -1 -6.12323e-17
vn 3.01537e-25 -1 -6.12323e-17
vn -5.53727e-20 -1 -6.12353e-17
vn 5.88315e-20 -1 -6.12362e-17
vn -8.59805e-20 -1 -6.12289e-17
vn 3.96898e-20 -1 -6.12364e-17
vn -3.97413e-20 -1 -6.12264e-17
vn 1.03433e-23 -1 -6.12323e-17
vn -6.4955e-23 -1 -6.12324e-17
vn 1.01155e-22 -1 -6.12323e-17
vn 1.75762e-23 -1 -6.12323e-17
vn 9.23385e-23 -1 -6.12323e-17
vn 1.5156e-22 -1 -6.12323e-17
vn -4.34838e-24 -1 -6.12323e-17
vn -1.29564e-20 -1 -6.12323e-17
vn 4.00586e-23 -1 -6.12323e-17
vn 1.16785e-23 -1 -6.12323e-17
vn -1.73767e-23 -1 -6.12323e-17
vn -2.59126e-24 -1 -6.12323e-17
vn 1.61863e-23 -1 -6.12323e-17
vn 0.0781692 0 0.99694
vn 0.0868107 0 0.996225
vn -0.0780922 -0 -0.996946
vn -0.0782089 0 -0.996937
vn -0.0779187 0 -0.99696
vn -0.0780584 0 -0.996949
vn -0.0780962 0 -0.996946
vn 0.0781193 0 0.996944
vn -0.997058 0 0.076646
vn -0.997058 -4.69321e-18 0.076646
vn 0.996865 0 -0.0791228
vn 0.996895 0 -0.0787354
vn 0.99692 0 -0.0784205
vn 0.996866 0 -0.0791076
vn 0.996895 0 -0.0787374
vn -0.996965 0 0.0778461
vn -0.996788 4.65811e-06 0.0800821
vn -0.996965 -0.000214751 0.0778461
vn -0.996788 0 0.0800821
vn 0.0783814 0 0.996923

# Mesh 'defaultobject' with 206 faces
g defaultobject
usemtl DefaultMaterial
f  1//1 2//1 3//1
f  2//1 1//1 4//1
f  5//2 6//2 7//2
f  6//2 5//2 8//3
f  9//4 6//4 8//4
f  6//4 9//4 10//4
f  10//5 9//5 11//5
f  10//5 11//5 12//5
f  13//6 14//6 15//6
f  16//6 17//6 18//6
f  17//6 16//6 19//6
f  17//6 19//6 20//6
f  17//6 20//6 21//6
f  17//6 21//6 22//6
f  17//6 22//6 23//6
f  17//6 23//6 24//6
f  17//6 24//6 15//6
f  17//6 15//6 14//6
f  17//6 14//6 25//6
f  17//6 25//6 26//6
f  26//6 25//6 27//6
f  27//6 25//6 28//6
f  27//6 28//6 29//6
f  29//6 28//6 30//6
f  29//6 30//6 31//6
f  29//6 31//6 32//6
f  32//6 31//6 33//6
f  33//6 31//6 34//6
f  35//6 36//6 37//6
f  36//6 35//6 38//6
f  38//6 35//6 39//6
f  38//6 39//6 40//6
f  40//6 39//6 41//6
f  42//6 1//6 43//6
f  1//6 42//6 4//6
f  44//7 45//7 46//7
f  45//7 44//7 47//7
f  47//8 44//8 48//8
f  47//8 48//8 18//9
f  18//9 48//8 16//10
f  16//11 48//11 49//11
f  16//11 49//11 19//11
f  19//12 49//12 50//12
f  19//12 50//12 20//12
f  20//13 50//13 51//13
f  20//13 51//13 21//13
f  39//14 52//14 53//14
f  52//14 39//14 35//14
f  54//15 55//15 56//15
f  55//15 54//15 57//15
f  58//16 17//16 26//16
f  17//16 58//16 59//17
f  59//18 58//18 60//18
f  60//19 58//19 61//19
f  61//20 58//20 62//20
f  63//21 64//21 65//21
f  64//21 63//21 66//21
f  57//22 67//22 55//22
f  67//22 57//22 68//22
f  37//23 36//23 69//23
f  70//24 24//24 71//24
f  24//24 70//24 36//25
f  36//23 70//23 69//23
f  24//24 36//25 15//24
f  42//26 72//26 73//26
f  72//26 42//26 43//26
f  74//27 12//27 11//27
f  12//27 74//27 75//27
f  75//28 74//28 76//28
f  75//28 76//28 77//28
f  77//29 76//29 78//29
f  77//29 78//29 79//29
f  79//30 78//30 80//30
f  79//30 80//30 81//30
f  81//31 80//31 82//31
f  81//31 82//31 83//31
f  83//32 82//32 84//32
f  83//32 84//32 85//32
f  85//33 84//33 63//33
f  85//33 63//33 65//33
f  34//34 86//34 87//34
f  86//34 34//34 31//34
f  88//35 14//35 89//35
f  14//35 88//35 25//35
f  25//35 88//35 90//36
f  25//35 90//36 28//36
f  35//37 69//37 52//37
f  69//37 35//37 37//37
f  24//38 91//38 71//38
f  91//38 24//38 23//38
f  13//39 89//39 14//39
f  89//39 13//39 38//40
f  89//41 38//41 40//41
f  89//42 40//42 92//42
f  92//43 40//41 93//43
f  93//44 40//44 41//44
f  93//44 41//44 94//44
f  22//45 51//45 95//45
f  51//45 22//45 21//45
f  59//6 45//6 47//6
f  45//6 59//6 5//6
f  5//6 59//6 8//6
f  8//6 59//6 9//6
f  9//6 59//6 11//6
f  11//6 59//6 74//6
f  74//6 59//6 76//6
f  76//6 59//6 78//6
f  78//6 59//6 80//6
f  80//6 59//6 82//6
f  82//6 59//6 84//6
f  84//6 59//6 63//6
f  63//6 59//6 66//6
f  66//6 59//6 96//6
f  96//6 59//6 97//6
f  97//6 59//6 98//6
f  98//6 59//6 99//6
f  99//6 59//6 54//6
f  54//6 59//6 57//6
f  57//6 59//6 68//6
f  68//6 59//6 60//6
f  68//46 61//46 67//46
f  61//46 68//46 60//46
f  43//47 3//47 72//47
f  3//47 43//47 1//47
f  53//48 93//48 94//48
f  93//48 53//48 92//49
f  92//49 53//48 89//50
f  89//50 53//48 100//51
f  100//51 53//48 64//52
f  64//52 53//48 65//53
f  65//53 53//48 85//54
f  85//54 53//48 83//55
f  83//55 53//48 81//56
f  81//56 53//48 52//57
f  81//56 52//57 69//58
f  81//56 69//58 70//59
f  81//56 70//59 79//60
f  79//60 70//59 71//61
f  79//60 71//61 91//62
f  79//60 91//62 77//63
f  77//63 91//62 95//64
f  77//63 95//64 75//65
f  75//65 95//64 12//66
f  12//66 95//64 10//67
f  10//67 95//64 6//64
f  6//64 95//64 49//57
f  6//64 49//57 7//68
f  49//57 95//64 51//69
f  49//57 51//69 50//70
f  7//68 49//57 48//71
f  7//68 48//71 44//72
f  7//68 44//72 46//73
f  86//74 101//74 87//74
f  101//74 86//74 102//75
f  102//75 86//74 103//76
f  103//76 86//74 104//77
f  104//77 86//74 58//20
f  58//20 86//74 62//20
f  62//20 86//74 61//20
f  61//20 86//74 67//78
f  67//78 86//74 105//79
f  67//78 105//79 55//80
f  55//80 105//79 90//81
f  55//80 90//81 88//82
f  55//80 88//82 56//83
f  56//83 88//82 89//50
f  56//83 89//50 106//84
f  106//84 89//50 107//85
f  107//85 89//50 108//86
f  108//86 89//50 100//51
f  4//87 73//87 2//87
f  73//87 4//87 42//87
f  41//88 53//88 94//88
f  53//88 41//88 39//88
f  18//89 59//89 47//89
f  59//89 18//89 17//89
f  96//28 64//28 66//28
f  64//28 96//28 100//28
f  100//90 96//90 97//90
f  100//90 97//90 108//90
f  108//91 97//91 98//91
f  108//91 98//91 107//91
f  107//92 98//92 99//92
f  107//92 99//92 106//92
f  106//93 99//93 54//93
f  106//93 54//93 56//93
f  13//94 36//94 38//94
f  36//94 13//94 15//94
f  45//95 7//95 46//95
f  7//95 45//95 5//96
f  27//97 58//97 26//97
f  58//97 27//97 104//97
f  104//98 27//98 29//98
f  104//98 29//98 103//98
f  103//99 29//99 32//99
f  103//99 32//99 102//99
f  102//100 32//100 33//100
f  102//100 33//100 101//100
f  101//101 33//101 34//101
f  101//101 34//101 87//101
f  105//102 28//102 90//102
f  28//103 105//103 86//103
f  28//104 86//104 30//104
f  30//105 86//103 31//105
f  23//106 95//106 91//106
f  95//106 23//106 22//106

