# {"id":"DEB_LOD2_UUID_da38c0c6-28d2-4adc-ada5-571dd84589bf","idOriginal":"DEB_LOD2_UUID_da38c0c6-28d2-4adc-ada5-571dd84589bf","origin":[13.316594517789659,52.52784180542003],"elevation":34.26}
# Longitude: 13.316594517789659
# Latitude: 52.52784180542003
# Elevation: 34.26

# File produced by Open Asset Import Library (http://www.assimp.sf.net)
# (assimp v3.1.0)

mtllib DEB_LOD2_UUID_da38c0c6-28d2-4adc-ada5-571dd84589bf.obj.mtl

# 14 vertex positions
v  5.925 3.726 -3.936
v  0 4.215 2.58094e-16
v  4.511 3.725 1.242
v  1.465 4.215 -5.319
v  2.213 4.136 -5.22
v  1.505 4.215 -5.465
v  1.492 4.215 -5.419
v  1.465 3.25695e-16 -5.319
v  0 0 0
v  4.511 -7.60506e-17 1.242
v  1.492 3.31818e-16 -5.419
v  1.505 3.34635e-16 -5.465
v  5.925 2.4101e-16 -3.936
v  2.213 3.19633e-16 -5.22

# 0 UV coordinates

# 22 vertex normals
vn 0.100429 0.994561 0.0276171
vn 0.100464 0.994556 0.0276706
vn 0.102055 0.994524 0.0225292
vn 0.101355 0.994463 0.0277685
vn 0 1 0
vn -0.9641 1.62596e-17 -0.26554
vn -0.9641 0 -0.26554
vn -0.26545 0 0.964125
vn -0.26545 -5.90356e-17 0.964125
vn -0.965429 0 -0.260666
vn -0.962309 0 -0.271957
vn 0.964678 0 0.263433
vn 0.964678 -0 0.263433
vn 0.327019 0 -0.945018
vn 0.326903 2.23114e-05 -0.945058
vn 0.327019 -0.000132299 -0.945018
vn 0.326901 0 -0.945059
vn 0 -1 -6.12323e-17
vn 2.056e-24 -1 -6.12323e-17
vn -1.11604e-23 -1 -6.12323e-17
vn -1.0964e-23 -1 -6.12323e-17
vn -2.05005e-20 -1 -6.12379e-17

# Mesh 'defaultobject' with 24 faces
g defaultobject
usemtl DefaultMaterial
f  1//1 2//1 3//1
f  2//2 1//2 4//2
f  4//3 1//3 5//3
f  4//4 5//4 6//4
f  4//5 6//5 7//5
f  2//6 8//6 9//6
f  8//6 2//6 4//7
f  3//8 9//8 10//8
f  9//8 3//8 2//9
f  7//10 8//10 4//10
f  8//10 7//10 11//10
f  11//11 7//11 6//11
f  11//11 6//11 12//11
f  1//12 10//12 13//12
f  10//12 1//12 3//13
f  5//14 12//14 6//14
f  12//15 5//15 1//15
f  12//16 1//16 14//16
f  14//17 1//17 13//17
f  9//18 13//18 10//18
f  13//18 9//18 8//19
f  13//18 8//19 14//20
f  14//20 8//19 12//21
f  12//21 8//19 11//22

