# {"id":"DEB_LOD2_UUID_f309643d-7921-4138-b1c4-7593b40a8f35","idOriginal":"DEB_LOD2_UUID_f309643d-7921-4138-b1c4-7593b40a8f35","origin":[13.381760267300233,52.530891077300424],"elevation":35.74}
# Longitude: 13.381760267300233
# Latitude: 52.530891077300424
# Elevation: 35.74

# File produced by Open Asset Import Library (http://www.assimp.sf.net)
# (assimp v3.1.0)

mtllib DEB_LOD2_UUID_f309643d-7921-4138-b1c4-7593b40a8f35.obj.mtl

# 16 vertex positions
v  0.58 -7.92959e-17 1.295
v  0 6.581 4.0297e-16
v  0 0 0
v  2.854 -3.9005e-16 6.37
v  2.854 6.624 6.37
v  0.58 6.59 1.295
v  3.41 -3.74681e-16 6.119
v  5.278 -3.14795e-16 5.141
v  5.325 -3.21898e-16 5.257
v  2.652 8.50517e-17 -1.389
v  0.049 1.59204e-18 -0.026
v  5.278 7.052 5.141
v  2.652 7.052 -1.389
v  5.325 7.052 5.257
v  0.049 6.59 -0.026
v  3.41 6.721 6.119

# 0 UV coordinates

# 28 vertex normals
vn -0.912645 0 0.408752
vn -0.912576 3.63444e-05 0.408906
vn -0.91259 0 0.408875
vn -0.733594 -0.592591 0.332678
vn 1.13375e-22 -1 -6.12321e-17
vn -1.79258e-23 -1 -6.12323e-17
vn 0 -1 -6.12323e-17
vn -6.37104e-24 -1 -6.12323e-17
vn 6.24293e-24 -1 -6.12323e-17
vn 0 -1 -6.12153e-17
vn 0.927789 0 -0.373105
vn 0.926812 0.00259965 -0.375517
vn 0.927789 -4.62295e-05 -0.373105
vn 0.926815 0 -0.375519
vn -0.468716 5.40895e-17 -0.883349
vn -0.46388 4.60782e-05 -0.885898
vn -0.46839 -0.00227289 -0.883519
vn -0.46388 0 -0.885898
vn -0.149414 0.986949 0.0600596
vn -0.144828 0.987743 0.0582164
vn -0.144807 0.987745 0.0582332
vn -0.14485 0.987735 0.0582869
vn -0.155324 0.987154 0.0374258
vn -0.1444 0.987788 0.0585066
vn 0.411455 0 0.91143
vn 0.411455 0 0.91143
vn 0.410464 0 0.911877
vn 0.410464 0 0.911877

# Mesh 'defaultobject' with 28 faces
g defaultobject
usemtl DefaultMaterial
f  1//1 2//1 3//1
f  2//2 1//2 4//2
f  2//3 4//3 5//3
f  2//4 5//4 6//4
f  7//5 8//5 9//5
f  8//5 7//5 10//6
f  10//6 7//5 4//7
f  10//6 4//7 1//8
f  10//6 1//8 3//9
f  10//6 3//9 11//10
f  12//11 10//11 13//11
f  10//12 12//12 14//12
f  10//13 14//13 8//13
f  8//14 14//14 9//14
f  2//15 11//15 3//15
f  11//16 2//16 10//16
f  10//17 2//17 15//17
f  10//18 15//18 13//18
f  6//19 15//19 2//19
f  15//20 6//20 13//20
f  13//21 6//21 12//21
f  12//22 6//22 5//22
f  12//23 5//23 16//23
f  12//24 16//24 14//24
f  7//25 5//25 4//25
f  5//25 7//25 16//26
f  16//27 7//27 9//27
f  16//27 9//27 14//28

