# {"id":"DEB_LOD2_UUID_57293519-a190-4b80-aa97-74468daa3e5a","idOriginal":"DEB_LOD2_UUID_57293519-a190-4b80-aa97-74468daa3e5a","origin":[13.399270756947914,52.51265509004192],"elevation":33.46}
# Longitude: 13.399270756947914
# Latitude: 52.51265509004192
# Elevation: 33.46

# File produced by Open Asset Import Library (http://www.assimp.sf.net)
# (assimp v3.1.0)

mtllib DEB_LOD2_UUID_57293519-a190-4b80-aa97-74468daa3e5a.obj.mtl

# 38 vertex positions
v  8.718 20.48 -1.732
v  10.198 4.10869e-17 -0.671
v  8.718 1.06054e-16 -1.732
v  10.198 20.48 -0.671
v  12.556 22.04 6.498
v  11.364 -4.99962e-16 8.165
v  12.556 -3.97888e-16 6.498
v  11.364 22.04 8.165
v  8.026 22.04 -2.228
v  3.78 3.22572e-16 -5.268
v  3.78 22.04 -5.268
v  8.026 20.48 -2.228
v  8.026 1.36426e-16 -2.228
v  5.221 22.04 1.695
v  10.733 20.48 5.656
v  5.221 20.48 1.695
v  10.733 22.04 5.656
v  13.162 22.04 5.66
v  12.688 -3.25817e-16 5.321
v  13.162 -3.46575e-16 5.66
v  12.688 22.04 5.321
v  12.092 22.04 6.159
v  13.544 22.04 1.725
v  15.155 22.04 2.878
v  4.25 22.04 3.053
v  6.876 22.04 4.94
v  9.762 22.04 7.014
v  0 22.04 1.34956e-15
v  15.155 -1.76227e-16 2.878
v  12.092 -3.7713e-16 6.159
v  9.762 -4.29484e-16 7.014
v  6.876 -3.02488e-16 4.94
v  4.25 -1.86942e-16 3.053
v  0 0 0
v  13.544 -1.05626e-16 1.725
v  11.89 -3.30655e-17 0.54
v  11.89 20.48 0.54
v  13.544 20.48 1.725

# 0 UV coordinates

# 37 vertex normals
vn 0.58264 0 -0.81273
vn 0.813437 0 0.581653
vn 0.582144 0 -0.813086
vn 0.582144 0 -0.813086
vn 0.582571 -0.00013389 -0.81278
vn 0.582203 0 -0.813043
vn 0 1 6.12709e-17
vn 0.583563 0 -0.812068
vn -0.581725 0 0.813386
vn 0 1 0
vn 0.812923 0 0.582371
vn 2.24782e-23 -1 -6.12323e-17
vn -8.4616e-24 -1 -6.12323e-17
vn -9.56224e-24 -1 -6.12323e-17
vn 1.24633e-23 -1 -6.12323e-17
vn 1.32447e-22 -1 -6.12324e-17
vn -3.67649e-23 -1 -6.12323e-17
vn 0 -1 -6.12323e-17
vn -6.24115e-24 -1 -6.12323e-17
vn 3.8025e-24 -1 -6.12323e-17
vn 3.71628e-24 -1 -6.12323e-17
vn 0 -1 -6.12323e-17
vn -0.583423 0 0.812168
vn -0.583547 0 0.812079
vn -0.583578 0 0.812057
vn -0.58349 0 0.81212
vn 0.5824 0 -0.812902
vn 0.582002 -4.86471e-05 -0.813187
vn 0.5824 4.73744e-05 -0.812902
vn 0.582002 0 -0.813187
vn -0.813426 -0 -0.581669
vn 0.582011 0 -0.813181
vn 0.813453 0 0.58163
vn 0.814915 0 0.579581
vn 0.58993 0 -0.807455
vn -0.812481 3.56977e-17 -0.582988
vn -0.812481 0 -0.582988

# Mesh 'defaultobject' with 72 faces
g defaultobject
usemtl DefaultMaterial
f  1//1 2//1 3//1
f  2//1 1//1 4//1
f  5//2 6//2 7//2
f  6//2 5//2 8//2
f  9//3 10//3 11//3
f  10//3 9//3 12//4
f  10//5 12//5 1//5
f  10//6 1//6 3//6
f  10//7 3//7 13//7
f  14//8 15//8 16//8
f  15//8 14//8 17//8
f  18//9 19//9 20//9
f  19//9 18//9 21//9
f  22//10 21//10 23//10
f  24//10 23//10 21//10
f  18//10 24//10 21//10
f  25//10 26//10 14//10
f  17//10 14//10 26//10
f  27//10 17//10 26//10
f  8//10 17//10 27//10
f  23//10 17//10 8//10
f  22//10 23//10 8//10
f  5//10 22//10 8//10
f  28//10 25//10 11//10
f  9//10 11//10 25//10
f  14//10 9//10 25//10
f  24//11 20//11 29//11
f  20//11 24//11 18//11
f  6//12 30//12 7//12
f  30//12 6//12 3//13
f  3//13 6//12 13//14
f  13//14 6//12 10//15
f  10//15 6//12 31//16
f  10//15 31//16 32//17
f  10//15 32//17 33//18
f  10//15 33//18 34//19
f  20//18 35//18 29//18
f  35//18 20//18 36//20
f  36//20 20//18 2//21
f  2//21 20//18 19//22
f  2//21 19//22 30//12
f  2//21 30//12 3//13
f  33//23 28//23 34//23
f  28//23 33//23 25//23
f  25//24 33//24 32//24
f  25//24 32//24 26//24
f  26//25 32//25 31//25
f  26//25 31//25 27//25
f  27//26 31//26 6//26
f  27//26 6//26 8//26
f  37//27 35//27 36//27
f  35//28 37//28 29//28
f  29//29 37//29 38//29
f  29//30 38//30 24//30
f  24//30 38//30 23//30
f  17//31 38//31 15//31
f  38//31 17//31 23//31
f  38//10 16//10 15//10
f  16//10 38//10 4//10
f  16//10 4//10 12//10
f  4//10 38//10 37//10
f  12//10 4//10 1//10
f  4//32 36//32 2//32
f  36//32 4//32 37//32
f  9//33 16//33 12//33
f  16//33 9//33 14//33
f  21//34 30//34 19//34
f  30//34 21//34 22//34
f  22//35 7//35 30//35
f  7//35 22//35 5//35
f  28//36 10//36 34//36
f  10//36 28//36 11//37

