# {"id":"DEB_LOD2_UUID_7a40824c-ff79-487e-b101-2afb3411f64c","idOriginal":"DEB_LOD2_UUID_7a40824c-ff79-487e-b101-2afb3411f64c","origin":[13.35987233271121,52.55236451185627],"elevation":36.74}
# Longitude: 13.35987233271121
# Latitude: 52.55236451185627
# Elevation: 36.74

# File produced by Open Asset Import Library (http://www.assimp.sf.net)
# (assimp v3.1.0)

mtllib DEB_LOD2_UUID_7a40824c-ff79-487e-b101-2afb3411f64c.obj.mtl

# 96 vertex positions
v  0 16 9.79717e-16
v  0.012 1.42488e-16 -2.327
v  0 0 0
v  0.012 16 -2.327
v  20.382 16 11.073
v  20.381 -6.21202e-16 10.145
v  20.381 16 10.145
v  20.382 -6.78026e-16 11.073
v  20.383 16 11.826
v  20.383 -7.24134e-16 11.826
v  20.384 16 13.439
v  20.384 -8.22901e-16 13.439
v  20.386 16 15.296
v  20.386 -9.3661e-16 15.296
v  20.923 -6.14834e-16 10.041
v  20.923 16 10.041
v  20.993 -6.14038e-16 10.028
v  20.993 16 10.028
v  3.524 -6.79679e-16 11.1
v  0.675 16 11.057
v  0.675 -6.77046e-16 11.057
v  4.057 -6.80169e-16 11.108
v  6.27 -6.8219e-16 11.141
v  3.524 16 11.1
v  4.057 16 11.108
v  6.27 16 11.141
v  7.699 16 15.528
v  7.038 -9.49224e-16 15.502
v  7.699 -9.50816e-16 15.528
v  7.038 16 15.502
v  0.743 16 3.93
v  0.692 -5.63399e-16 9.201
v  0.692 16 9.201
v  0.743 -2.40643e-16 3.93
v  0.75 16 3.176
v  0.75 -1.94474e-16 3.176
v  20.153 16 6.991
v  20.814 -4.25565e-16 6.95
v  20.153 -4.28075e-16 6.991
v  20.814 16 6.95
v  3.701 16 -1.487
v  4.423 9.05014e-17 -1.478
v  3.701 9.10525e-17 -1.487
v  4.423 16 -1.478
v  0.779 1.22465e-19 -0.002
v  0.779 16 -0.002
v  11.583 -9.60307e-16 15.683
v  11.308 16 15.672
v  11.308 -9.59633e-16 15.672
v  14.967 -9.68512e-16 15.817
v  11.583 16 15.683
v  14.967 16 15.817
v  7.047 -9.11811e-16 14.891
v  7.047 16 14.891
v  11.294 18.92 0.503
v  11.181 -3.06774e-17 0.501
v  11.181 18.92 0.501
v  11.294 16 0.503
v  19.927 16 0.635
v  11.294 -3.07999e-17 0.503
v  19.927 -3.88825e-17 0.635
v  20.865 16 7.003
v  22.29 16 8.497
v  20.865 -4.2881e-16 7.003
v  22.29 -5.20291e-16 8.497
v  20.055 16 4.226
v  20.118 16 6.008
v  20.055 -2.58768e-16 4.226
v  20.118 -3.67884e-16 6.008
v  0.222 16 -2.513
v  1.664 16 -3.786
v  2.849 16 -2.472
v  3.013 16 -2.29
v  3.713 16 -2.281
v  6.995 16 -1.449
v  6.947 16 4.025
v  11.363 16 4.093
v  15.48 16 15.837
v  20.386 16 15.939
v  6.885 16 11.15
v  7.108 16 11.154
v  20.386 -9.75982e-16 15.939
v  15.48 -9.69737e-16 15.837
v  7.108 -6.82985e-16 11.154
v  3.013 1.40222e-16 -2.29
v  3.713 1.39671e-16 -2.281
v  6.995 8.87257e-17 -1.449
v  11.161 8.57865e-17 -1.401
v  6.885 -6.82741e-16 11.15
v  2.849 1.51366e-16 -2.472
v  1.664 2.31826e-16 -3.786
v  0.222 1.53877e-16 -2.513
v  11.161 18.92 -1.401
v  6.995 18.92 -1.449
v  11.363 18.92 4.093
v  6.947 18.92 4.025

# 0 UV coordinates

# 102 vertex normals
vn -0.999987 3.15762e-19 -0.00515679
vn -0.999987 0 -0.00515679
vn 0.999999 0 -0.00107699
vn 0.999999 0 -0.00132729
vn 1 0 -0.000620805
vn 0.999999 0 -0.00107641
vn 0.188444 0 0.982084
vn 0.1826 0 0.983187
vn -0.0150914 0 0.999886
vn -0.0150066 1.50986e-05 0.999887
vn -0.0149102 3.54739e-05 0.999889
vn -0.0150914 -2.78855e-05 0.999886
vn -0.0150066 -1.33325e-05 0.999887
vn -0.0149102 0 0.999889
vn -0.039304 0 0.999227
vn -0.999953 0 -0.00967513
vn -0.999957 0 -0.00928346
vn -0.0619089 -0 -0.998082
vn 0.0124645 0 -0.999922
vn -0.999958 -0 -0.00912485
vn -0.0399668 0 0.999201
vn -0.0395673 6.87667e-06 0.999217
vn -0.0399668 -8.4619e-05 0.999201
vn -0.0395673 0 0.999217
vn -0.999892 -0 -0.0147281
vn 0.0176967 0 -0.999843
vn 0.0176967 0 -0.999843
vn 0.0152884 1.70134e-05 -0.999883
vn 0.0176966 -0.00129974 -0.999843
vn 0.0152884 0 -0.999883
vn 0.720568 0 -0.693385
vn 0.723619 -2.02779e-05 -0.6902
vn 0.720567 0.000569197 -0.693385
vn 0.723619 0 -0.6902
vn 0.999365 0 -0.0356221
vn 0.999376 -6.53524e-05 -0.0353313
vn 0.999367 1.91411e-05 -0.0355826
vn 0.999365 3.48624e-05 -0.0356221
vn 0.999372 0 -0.0354206
vn 0 -1 -6.12322e-17
vn 0 1 0
vn -1.92769e-23 -1 -6.12323e-17
vn 2.35548e-22 -1 -6.12323e-17
vn 0 -1 -6.12324e-17
vn -3.05448e-23 -1 -6.12323e-17
vn -1.7086e-24 -1 -6.12323e-17
vn 5.02804e-23 -1 -6.12324e-17
vn -1.23967e-22 -1 -6.12322e-17
vn 0 -1 -6.12323e-17
vn -5.02563e-23 -1 -6.12323e-17
vn 0 -1 -6.12323e-17
vn 0 -1 -6.12323e-17
vn 0 -1 -6.12323e-17
vn 8.92418e-24 -1 -6.12323e-17
vn -9.39113e-23 -1 -6.12323e-17
vn 2.90989e-20 -1 -6.12309e-17
vn 1.05089e-23 -1 -6.12323e-17
vn 0 -1 -6.12323e-17
vn 5.10422e-25 -1 -6.12323e-17
vn 3.01845e-22 -1 -6.12324e-17
vn 1.09378e-22 -1 -6.12323e-17
vn -3.03979e-23 -1 -6.12323e-17
vn 1.97805e-23 -1 -6.12323e-17
vn -1.1718e-22 -1 -6.12323e-17
vn -6.96762e-24 -1 -6.12323e-17
vn -7.0127e-23 -1 -6.12323e-17
vn 3.30654e-22 -1 -6.12323e-17
vn -3.91739e-23 -1 -6.12323e-17
vn -4.19387e-20 -1 -6.12325e-17
vn -2.44529e-23 -1 -6.12323e-17
vn -1.35244e-23 -1 -6.12323e-17
vn -2.04058e-23 -1 -6.12323e-17
vn 0.0112745 0 -0.999936
vn 0.0115211 3.96374e-05 -0.999934
vn 0.0112745 -6.42029e-05 -0.999936
vn 0.0115211 0 -0.999934
vn 0.0115211 0 -0.999934
vn -0.999867 -0 -0.016321
vn -0.0153967 0 0.999881
vn 0.0128562 0 -0.999917
vn 1 0 0
vn -0.0146323 0 0.999893
vn -0.0179373 -0.000127069 0.999839
vn -0.0146323 4.60776e-05 0.999893
vn -0.0179373 0 0.999839
vn 0.999886 0 0.0151117
vn -0.999962 -0 -0.00876836
vn 0.999815 0 -0.0192166
vn -0.663035 0 -0.748588
vn -0.661811 0 -0.749671
vn -0.0389558 0 0.999241
vn -0.999958 -0 -0.00915908
vn 0.742619 0 -0.669714
vn 0.742888 -4.44316e-05 -0.669415
vn 0.742619 6.15193e-06 -0.669714
vn 0.742888 0 -0.669415
vn 0.999945 0 -0.0105144
vn 0.00256739 0 0.999997
vn 0.00256739 -6.12321e-17 0.999997
vn 0.763008 0 0.646389
vn -0.0398685 0 0.999205
vn -0.0207864 0 0.999784

# Mesh 'defaultobject' with 188 faces
g defaultobject
usemtl DefaultMaterial
f  1//1 2//1 3//1
f  2//1 1//1 4//2
f  5//3 6//3 7//3
f  6//3 5//3 8//3
f  8//4 5//4 9//4
f  8//4 9//4 10//4
f  10//5 9//5 11//5
f  10//5 11//5 12//5
f  12//6 11//6 13//6
f  12//6 13//6 14//6
f  15//7 7//7 6//7
f  7//7 15//7 16//7
f  16//8 15//8 17//8
f  16//8 17//8 18//8
f  19//9 20//9 21//9
f  20//10 19//10 22//10
f  20//11 22//11 23//11
f  20//12 23//12 24//12
f  24//13 23//13 25//13
f  25//14 23//14 26//14
f  27//15 28//15 29//15
f  28//15 27//15 30//15
f  31//16 32//16 33//16
f  32//16 31//16 34//16
f  34//17 31//17 35//17
f  34//17 35//17 36//17
f  37//18 38//18 39//18
f  38//18 37//18 40//18
f  41//19 42//19 43//19
f  42//19 41//19 44//19
f  35//20 45//20 36//20
f  45//20 35//20 46//20
f  47//21 48//21 49//21
f  48//22 47//22 50//22
f  48//23 50//23 51//23
f  51//24 50//22 52//24
f  30//25 53//25 28//25
f  53//25 30//25 54//25
f  55//26 56//26 57//26
f  56//26 55//26 58//27
f  56//28 58//28 59//28
f  56//29 59//29 60//29
f  60//30 59//30 61//30
f  62//31 38//31 40//31
f  38//32 62//32 63//32
f  38//33 63//33 64//33
f  64//34 63//34 65//34
f  66//35 61//35 59//35
f  61//36 66//36 67//36
f  61//37 67//37 37//37
f  61//38 37//38 68//38
f  68//39 37//39 39//39
f  68//40 39//40 69//40
f  1//41 70//41 4//41
f  70//41 1//41 71//41
f  71//41 1//41 72//41
f  72//41 1//41 46//41
f  72//41 46//41 73//41
f  73//41 46//41 74//41
f  74//41 46//41 35//41
f  74//41 35//41 41//41
f  41//41 35//41 44//41
f  44//41 35//41 75//41
f  75//41 35//41 31//41
f  75//41 31//41 33//41
f  75//41 33//41 76//41
f  76//41 33//41 20//41
f  76//41 20//41 77//41
f  77//41 20//41 24//41
f  77//41 24//41 25//41
f  52//41 7//41 51//41
f  7//41 52//41 5//41
f  5//41 52//41 78//41
f  5//41 78//41 9//41
f  9//41 78//41 11//41
f  11//41 78//41 79//41
f  11//41 79//41 13//41
f  77//41 59//41 58//41
f  59//41 77//41 25//41
f  59//41 25//41 26//41
f  59//41 26//41 80//41
f  59//41 80//41 81//41
f  59//41 81//41 54//41
f  59//41 54//41 66//41
f  66//41 54//41 30//41
f  66//41 30//41 27//41
f  66//41 27//41 67//41
f  67//41 27//41 48//41
f  67//41 48//41 37//41
f  37//41 48//41 40//41
f  40//41 48//41 62//41
f  62//41 48//41 63//41
f  63//41 48//41 51//41
f  63//41 51//41 7//41
f  63//41 7//41 16//41
f  63//41 16//41 18//41
f  17//42 64//42 65//42
f  64//42 17//42 38//43
f  38//43 17//42 39//40
f  39//40 17//42 15//44
f  39//40 15//44 6//45
f  68//40 60//46 61//46
f  60//46 68//40 69//40
f  60//46 69//40 39//40
f  60//46 39//40 6//45
f  60//46 6//45 8//47
f  60//46 8//47 10//48
f  60//46 10//48 12//49
f  60//46 12//49 14//50
f  60//46 14//50 82//51
f  60//46 82//51 83//52
f  60//46 83//52 50//53
f  60//46 50//53 47//53
f  60//46 47//53 56//54
f  28//55 84//55 29//55
f  84//55 28//55 53//56
f  85//57 86//57 43//57
f  56//54 87//58 88//58
f  87//58 56//54 47//53
f  87//58 47//53 49//44
f  87//58 49//44 29//55
f  87//58 29//55 84//55
f  87//58 84//55 42//59
f  42//59 84//55 89//60
f  42//59 89//60 23//61
f  42//59 23//61 22//62
f  42//59 22//62 43//57
f  43//57 22//62 85//57
f  85//57 22//62 90//63
f  90//63 22//62 19//64
f  90//63 19//64 91//65
f  91//65 19//64 21//53
f  91//65 21//53 34//66
f  91//65 34//66 36//67
f  91//65 36//67 45//68
f  34//66 21//53 32//69
f  45//68 92//70 91//65
f  92//70 45//68 3//71
f  92//70 3//71 2//72
f  44//73 87//73 42//73
f  87//74 44//74 88//74
f  88//75 44//75 75//75
f  88//76 75//76 93//76
f  93//76 75//76 94//77
f  54//78 84//78 53//78
f  84//78 54//78 81//78
f  95//79 76//79 77//79
f  76//79 95//79 96//79
f  55//41 96//41 95//41
f  96//41 55//41 57//41
f  96//41 57//41 94//41
f  94//41 57//41 93//41
f  73//80 86//80 85//80
f  86//80 73//80 74//80
f  13//81 82//81 14//81
f  82//81 13//81 79//81
f  89//82 26//82 23//82
f  26//83 89//83 84//83
f  26//84 84//84 80//84
f  80//85 84//85 81//85
f  74//86 43//86 86//86
f  43//86 74//86 41//86
f  96//87 75//87 76//87
f  75//87 96//87 94//87
f  55//88 77//88 58//88
f  77//88 55//88 95//88
f  70//89 2//89 4//89
f  2//89 70//89 92//89
f  92//90 70//90 71//90
f  92//90 71//90 91//90
f  78//91 50//91 83//91
f  50//91 78//91 52//91
f  20//92 32//92 21//92
f  32//92 20//92 33//92
f  72//93 91//93 71//93
f  91//94 72//94 73//94
f  91//93 73//95 90//95
f  90//96 73//96 85//96
f  93//97 56//97 88//97
f  56//97 93//97 57//97
f  46//98 3//98 45//98
f  3//98 46//98 1//99
f  63//100 17//100 65//100
f  17//100 63//100 18//100
f  48//101 29//101 49//101
f  29//101 48//101 27//101
f  79//102 83//102 82//102
f  83//102 79//102 78//102

