# {"id":"DEB_LOD2_UUID_64dbd190-5a9d-43b7-b15c-9fb45abddd3f","idOriginal":"DEB_LOD2_UUID_64dbd190-5a9d-43b7-b15c-9fb45abddd3f","origin":[13.360513992738612,52.521086490195124],"elevation":33.79}
# Longitude: 13.360513992738612
# Latitude: 52.521086490195124
# Elevation: 33.79

# File produced by Open Asset Import Library (http://www.assimp.sf.net)
# (assimp v3.1.0)

mtllib DEB_LOD2_UUID_64dbd190-5a9d-43b7-b15c-9fb45abddd3f.obj.mtl

# 28 vertex positions
v  7.991 8.872 1.239
v  3.719 6.104 4.558
v  7.991 6.104 1.239
v  3.719 8.872 4.558
v  4.296 8.872 -3.339
v  0 8.872 5.43253e-16
v  9.71 8.872 -7.545
v  12.152 8.872 6.396
v  13.404 8.872 -2.967
v  17.613 8.872 2.249
v  12.461 8.872 6.165
v  12.507 8.872 6.216
v  15.447 8.872 9.518
v  20.477 8.872 5.798
v  0 0 0
v  4.296 2.04455e-16 -3.339
v  9.71 4.61998e-16 -7.545
v  3.719 -2.79097e-16 4.558
v  7.85 -5.89239e-16 9.623
v  7.85 6.104 9.623
v  15.447 -5.82809e-16 9.518
v  20.477 -3.55025e-16 5.798
v  13.404 1.81676e-16 -2.967
v  17.613 -1.37712e-16 2.249
v  12.152 6.104 6.396
v  12.507 -3.8062e-16 6.216
v  12.461 -3.77497e-16 6.165
v  12.152 -3.91642e-16 6.396

# 0 UV coordinates

# 32 vertex normals
vn 0.613518 0 0.789681
vn 0 1 0
vn -0.613673 0 -0.78956
vn -0.613496 0 -0.789698
vn -0.774812 0 0.632191
vn -0.774938 -0.000131701 0.632037
vn -0.774685 0.000428651 0.632347
vn -0.774938 0 0.632037
vn 0.594616 0 0.80401
vn 0.778242 0 -0.627965
vn 0.778227 1.51398e-05 -0.627983
vn 0.778242 -1.725e-05 -0.627965
vn 0.778209 2.16849e-05 -0.628005
vn 0.778227 -1.47549e-05 -0.627983
vn 0.778209 0 -0.628005
vn -0.778256 0 0.627947
vn -0.742574 0 0.669764
vn -0.74686 -4.97162e-05 0.664981
vn -0.74257 0.00320038 0.669761
vn -0.74686 0 0.664981
vn 3.71434e-24 -1 -6.12323e-17
vn -5.05473e-24 -1 -6.12323e-17
vn -1.41361e-23 -1 -6.12323e-17
vn 0 -1 -6.12323e-17
vn -1.72738e-21 -1 -6.12318e-17
vn -1.73862e-22 -1 -6.12323e-17
vn -4.97527e-24 -1 -6.12323e-17
vn -1.19149e-23 -1 -6.12323e-17
vn 0.600059 0 0.799955
vn 0.598755 0 0.800932
vn 0.598755 -0 0.800932
vn 0.598755 0 0.800932

# Mesh 'defaultobject' with 52 faces
g defaultobject
usemtl DefaultMaterial
f  1//1 2//1 3//1
f  2//1 1//1 4//1
f  4//2 5//2 6//2
f  5//2 4//2 7//2
f  7//2 4//2 1//2
f  7//2 1//2 8//2
f  7//2 8//2 9//2
f  9//2 8//2 10//2
f  10//2 8//2 11//2
f  10//2 11//2 12//2
f  10//2 12//2 13//2
f  10//2 13//2 14//2
f  5//3 15//3 6//3
f  15//3 5//3 16//3
f  16//4 5//4 7//4
f  16//4 7//4 17//4
f  18//5 6//5 15//5
f  6//6 18//6 19//6
f  6//7 19//7 2//7
f  2//8 19//8 20//8
f  4//5 6//5 2//5
f  14//9 21//9 22//9
f  21//9 14//9 13//9
f  9//10 17//10 7//10
f  17//11 9//11 10//11
f  17//12 10//12 23//12
f  23//13 10//13 14//13
f  23//14 14//14 24//14
f  24//15 14//15 22//15
f  8//16 3//16 25//16
f  3//16 8//16 1//16
f  26//17 11//17 27//17
f  11//18 26//18 21//18
f  11//19 21//19 12//19
f  12//20 21//20 13//20
f  20//2 3//2 2//2
f  3//2 20//2 25//2
f  21//21 24//21 22//21
f  24//21 21//21 23//22
f  23//22 21//21 26//23
f  23//22 26//23 17//24
f  17//24 26//23 27//25
f  17//24 27//25 28//26
f  17//24 28//26 19//24
f  17//24 19//24 16//27
f  16//27 19//24 18//28
f  16//27 18//28 15//24
f  28//29 20//29 19//29
f  20//29 28//29 25//29
f  25//30 28//30 27//30
f  25//30 27//30 8//31
f  8//31 27//30 11//32

