# {"id":"DEB_LOD2_UUID_3398d91b-ca4e-4f72-ab93-24739382d1ff","idOriginal":"DEB_LOD2_UUID_3398d91b-ca4e-4f72-ab93-24739382d1ff","origin":[13.409475197684348,52.51266267289603],"elevation":34.75}
# Longitude: 13.409475197684348
# Latitude: 52.51266267289603
# Elevation: 34.75

# File produced by Open Asset Import Library (http://www.assimp.sf.net)
# (assimp v3.1.0)

mtllib DEB_LOD2_UUID_3398d91b-ca4e-4f72-ab93-24739382d1ff.obj.mtl

# 70 vertex positions
v  30.818 14.951 1.885
v  27.368 -2.24723e-16 3.67
v  30.818 -1.15423e-16 1.885
v  27.368 14.943 3.67
v  21.039 14.932 6.942
v  21.039 -4.25075e-16 6.942
v  20.986 16.531 6.969
v  20.986 -4.26728e-16 6.969
v  21.039 16.531 6.942
v  21.991 16.42 14.397
v  21.052 14.857 7.097
v  18.845 16.41 8.233
v  25.349 14.865 15.454
v  24.766 14.864 14.32
v  16.871 15.019 9.249
v  20.983 15.001 17.463
v  27.376 2.89813e-16 -4.733
v  13.774 4.34566e-16 -7.097
v  23.539 7.41585e-16 -12.111
v  29.153 8.05818e-17 -1.316
v  13.745 4.33647e-16 -7.082
v  0 0 0
v  21.052 -4.34566e-16 7.097
v  16.85 -5.63827e-16 9.208
v  24.766 -8.76847e-16 14.32
v  16.871 -5.66338e-16 9.249
v  20.983 -1.0693e-15 17.463
v  25.349 -9.46285e-16 15.454
v  25.373 -9.49224e-16 15.502
v  24.585 -9.74023e-16 15.907
v  21.794 -1.06195e-15 17.343
v  21.102 -1.08381e-15 17.7
v  3.776 -4.5367e-16 7.409
v  11.348 -7.32523e-16 11.963
v  6.92 -8.31535e-16 13.58
v  11.399 -7.38707e-16 12.064
v  15.6 -1.25251e-15 20.455
v  7.238 -8.69805e-16 14.205
v  11.047 -1.32739e-15 21.678
v  15.499 -1.25545e-15 20.503
v  13.629 -1.3146e-15 21.469
v  11.501 -1.38195e-15 22.569
v  25.373 14.841 15.502
v  17.586 22.81 0.304
v  0 16.448 1.00715e-15
v  3.776 22.81 7.409
v  13.745 16.441 -7.082
v  21.052 16.41 7.097
v  6.92 16.998 13.58
v  7.238 16.41 14.205
v  11.047 16.41 21.678
v  11.501 16.41 22.569
v  27.376 21.24 -4.733
v  13.745 14.842 -7.082
v  17.586 21.24 0.304
v  13.774 14.842 -7.097
v  23.539 14.848 -12.111
v  11.399 16.41 12.064
v  11.348 16.505 11.963
v  11.399 14.65 12.064
v  15.6 14.701 20.455
v  29.153 17.993 -1.316
v  13.629 16.41 21.469
v  15.499 14.788 20.503
v  16.871 16.41 9.249
v  16.85 16.448 9.208
v  21.794 14.844 17.343
v  21.102 14.843 17.7
v  24.585 14.842 15.907
v  9.369 16.41 13.109

# 0 UV coordinates

# 121 vertex normals
vn 0.459528 0 0.888163
vn 0.459528 -0 0.888163
vn 0.459243 0 0.88831
vn 0.453929 0 0.891038
vn 0.471865 0.847749 -0.242207
vn 0.469431 0.849106 -0.242185
vn -0.685091 0.637959 0.351649
vn -0.471587 0.849111 0.237941
vn -0.473467 0.847406 0.240275
vn 2.31975e-24 -1 -6.12323e-17
vn 2.5044e-24 -1 -6.12323e-17
vn 0 -1 -6.12323e-17
vn -5.41682e-22 -1 -6.12313e-17
vn 0 -1 -6.12323e-17
vn -8.60619e-25 -1 -6.12323e-17
vn 9.38848e-25 -1 -6.12323e-17
vn -2.26244e-22 -1 -6.12315e-17
vn 0 -1 -6.12319e-17
vn -5.70298e-24 -1 -6.12323e-17
vn -1.38617e-24 -1 -6.12323e-17
vn 1.47765e-21 -1 -6.12346e-17
vn 1.92518e-23 -1 -6.12324e-17
vn 4.32351e-23 -1 -6.12323e-17
vn 1.02684e-22 -1 -6.12319e-17
vn -7.96322e-22 -1 -6.12344e-17
vn 1.61512e-22 -1 -6.1232e-17
vn 1.89281e-22 -1 -6.12318e-17
vn 3.52647e-24 -1 -6.12323e-17
vn 4.61176e-24 -1 -6.12323e-17
vn -3.26696e-24 -1 -6.12323e-17
vn 2.49859e-23 -1 -6.12323e-17
vn 0 -1 -6.12323e-17
vn 1.47111e-22 -1 -6.12325e-17
vn 3.83194e-23 -1 -6.12324e-17
vn -1.67139e-21 -1 -6.12385e-17
vn 3.22475e-23 -1 -6.12323e-17
vn 3.90204e-23 -1 -6.12322e-17
vn 0.889352 0 -0.457224
vn 0.894252 -0.000929054 -0.447563
vn 0.889352 4.06665e-05 -0.457224
vn 0.894438 0 -0.447192
vn -0.277981 0.794222 -0.540313
vn -0.277983 0.794226 -0.540305
vn 0.888804 0 -0.458288
vn 0.888803 0 -0.458289
vn 0.889322 -1.09791e-05 -0.457281
vn 0.888803 0.000618886 -0.458288
vn 0.889322 0 -0.457281
vn -0.890962 0 0.454079
vn -0.890961 0 0.454079
vn -0.891023 0 0.453958
vn -0.891023 0 0.453958
vn -0.891268 0 0.453477
vn -0.890943 0 0.454115
vn -0.891001 0 0.454001
vn -0.278785 0.792892 -0.541851
vn -0.279453 0.793735 -0.540269
vn -0.278749 0.792851 -0.541928
vn 0.89265 0 -0.45075
vn 0.89265 0 -0.45075
vn 0.894193 -2.652e-05 -0.447682
vn 0.892648 0.00219174 -0.450749
vn 0.894193 0 -0.447682
vn 0.887149 0 -0.461483
vn 0.887149 0 -0.461483
vn 0.887203 0 -0.461379
vn 0.887203 0 -0.461379
vn 0.887197 -6.17052e-06 -0.46139
vn 0.887188 6.76784e-05 -0.461407
vn 0.887189 0 -0.461407
vn 0.887189 0 -0.461407
vn 0 1 6.15304e-17
vn 0.459196 0 0.888335
vn 0.458957 0 0.888458
vn 0.458957 0 0.888458
vn 0.457633 -0 0.889141
vn 0.294887 0.764554 0.573148
vn 0.294994 0.764494 0.573174
vn 0.294775 0.764548 0.573214
vn 0.294804 0.764535 0.573216
vn 0.457657 0 0.889129
vn -0.456772 -0 -0.889584
vn -0.456772 0 -0.889584
vn 0.447734 0 0.894167
vn 0.233688 0.85908 0.455381
vn 0.234316 0.850604 0.47071
vn 0.242523 0.848593 0.470183
vn 0.248565 0.851103 0.462427
vn 0.187553 0.912852 0.362664
vn 0.457694 0 0.88911
vn 0.458479 0 0.888705
vn 0.458479 -0 0.888705
vn 0.457507 0 0.889206
vn 0.457507 -0 0.889206
vn 0 1 0
vn 0.543872 0.792083 -0.277141
vn 0.543951 0.792 -0.277224
vn 0.547271 0.789158 -0.278791
vn -0.894194 0 0.447679
vn -0.894209 -0.0020147 0.447645
vn -0.890041 0 0.455879
vn -0.890042 0 0.455879
vn -0.894209 0 0.447649
vn -0.893673 0.000731712 0.448718
vn 0.457118 0 0.889406
vn 0.457118 -0 0.889406
vn -0.45802 0 -0.888942
vn -0.45802 0 -0.888942
vn -0.459428 0 -0.888215
vn 0.429239 0 0.903191
vn 0.294312 0.76584 0.571725
vn 0.294086 0.766009 0.571615
vn 0.293738 0.766267 0.571449
vn 0.293949 0.766119 0.571538
vn 0.294257 0.765925 0.571639
vn 0.294159 0.76598 0.571616
vn 0.275313 0.771294 0.573855
vn 0.294185 0.766 0.571576
vn 0.294159 0.766005 0.571583
vn 0.294402 0.76563 0.571959
vn 0.2918 0.766007 0.572788

# Mesh 'defaultobject' with 136 faces
g defaultobject
usemtl DefaultMaterial
f  1//1 2//1 3//1
f  2//1 1//1 4//2
f  2//3 5//3 6//3
f  5//3 2//3 4//3
f  6//4 7//4 8//4
f  7//4 6//4 9//4
f  9//4 6//3 5//3
f  10//5 11//5 12//5
f  11//6 10//6 13//6
f  11//7 13//7 14//7
f  10//8 15//8 16//8
f  15//9 10//9 12//9
f  17//10 18//10 19//10
f  18//10 17//10 20//11
f  18//10 20//11 3//12
f  18//10 3//12 21//13
f  21//13 3//12 22//14
f  22//14 3//12 2//15
f  22//14 2//15 6//16
f  22//14 6//16 8//17
f  22//14 8//17 23//18
f  22//14 23//18 24//19
f  24//19 23//18 25//20
f  24//19 25//20 26//21
f  26//21 25//20 27//22
f  27//22 25//20 28//23
f  27//22 28//23 29//24
f  27//22 29//24 30//25
f  27//22 30//25 31//26
f  27//22 31//26 32//27
f  24//19 33//28 22//14
f  33//28 24//19 34//29
f  33//28 34//29 35//30
f  35//30 34//29 36//31
f  35//30 36//31 37//32
f  35//30 37//32 38//33
f  38//33 37//32 39//34
f  39//34 37//32 40//35
f  39//34 40//35 41//36
f  39//34 41//36 42//37
f  13//38 25//38 14//38
f  25//39 13//39 43//39
f  25//40 43//40 28//40
f  28//41 43//41 29//41
f  44//42 45//42 46//42
f  45//42 44//42 47//43
f  48//44 8//44 7//44
f  8//44 48//44 11//45
f  8//46 11//46 14//46
f  8//47 14//47 23//47
f  23//48 14//48 25//48
f  33//49 45//49 22//49
f  45//49 33//49 46//50
f  46//51 33//51 35//51
f  46//51 35//51 49//52
f  49//53 35//53 38//53
f  49//53 38//53 50//53
f  50//54 38//54 39//54
f  50//54 39//54 51//54
f  51//55 39//55 42//55
f  51//55 42//55 52//55
f  53//56 54//56 55//56
f  54//57 53//57 56//57
f  56//58 53//58 57//58
f  58//59 34//59 59//59
f  34//59 58//59 60//60
f  34//61 60//61 61//61
f  34//62 61//62 36//62
f  36//63 61//63 37//63
f  5//64 55//64 9//64
f  44//65 9//64 55//64
f  54//66 44//66 55//66
f  47//67 44//66 54//66
f  62//68 57//68 53//68
f  57//69 62//69 1//69
f  57//70 1//70 3//70
f  57//70 3//70 19//71
f  19//10 3//12 20//11
f  19//72 20//72 17//72
f  41//73 52//73 42//73
f  52//73 41//73 63//73
f  63//74 41//74 40//74
f  63//74 40//74 64//75
f  15//76 12//76 65//76
f  5//77 53//77 55//77
f  53//78 5//78 4//78
f  53//79 4//79 62//79
f  62//80 4//80 1//80
f  12//81 11//81 48//81
f  56//82 19//82 18//82
f  19//82 56//82 57//83
f  66//84 34//84 24//84
f  34//84 66//84 59//84
f  67//85 16//85 68//85
f  16//86 67//86 10//86
f  10//87 67//87 69//87
f  10//88 69//88 13//88
f  13//89 69//89 43//89
f  70//90 60//90 58//90
f  67//91 32//91 31//91
f  32//91 67//91 68//92
f  69//93 31//93 30//93
f  31//93 69//93 67//94
f  51//95 70//95 50//95
f  70//95 51//95 63//95
f  63//95 51//95 52//95
f  64//96 70//96 63//96
f  70//97 64//97 60//97
f  60//98 64//98 61//98
f  68//99 15//99 32//99
f  15//100 68//100 16//100
f  26//101 66//101 24//101
f  66//101 26//101 15//102
f  15//103 26//103 27//103
f  15//104 27//104 32//104
f  66//101 15//102 65//101
f  43//105 30//105 29//105
f  30//105 43//105 69//106
f  47//107 22//107 45//107
f  22//107 47//107 21//108
f  21//13 47//67 54//66
f  21//109 54//109 56//109
f  21//109 56//109 18//109
f  61//110 40//110 37//110
f  40//110 61//110 64//110
f  58//111 59//111 70//111
f  49//112 44//112 46//112
f  44//113 49//113 50//113
f  44//114 50//114 70//114
f  44//115 70//115 59//115
f  44//116 59//116 66//116
f  44//117 66//117 65//117
f  44//118 65//118 12//118
f  44//119 12//119 7//119
f  7//120 12//120 48//120
f  9//121 44//121 7//121

