# {"id":"DEB_LOD2_UUID_9bbcbba8-8a01-457f-b75d-a04d27c8bd08","idOriginal":"DEB_LOD2_UUID_9bbcbba8-8a01-457f-b75d-a04d27c8bd08","origin":[13.366733020119995,52.5054296587178],"elevation":34.98}
# Longitude: 13.366733020119995
# Latitude: 52.5054296587178
# Elevation: 34.98

# File produced by Open Asset Import Library (http://www.assimp.sf.net)
# (assimp v3.1.0)

mtllib DEB_LOD2_UUID_9bbcbba8-8a01-457f-b75d-a04d27c8bd08.obj.mtl

# 22 vertex positions
v  4.526 4.32 0.885
v  4.591 3.32 -4.71
v  4.526 3.32 0.885
v  4.591 4.32 -4.71
v  7.589 4.32 0.899
v  7.615 4.32 -4.552
v  0 3.32 2.03291e-16
v  0.071 3.41064e-16 -5.57
v  0 0 0
v  0.071 3.32 -5.57
v  4.598 3.32 -5.334
v  4.598 3.26613e-16 -5.334
v  7.617 3.32 -5.178
v  7.617 3.17061e-16 -5.178
v  4.526 -5.41906e-17 0.885
v  2.437 3.32 0.875
v  2.437 -5.35783e-17 0.875
v  7.589 -5.50479e-17 0.899
v  2.441 -6.73556e-19 0.011
v  2.441 3.32 0.011
v  7.615 3.32 -4.552
v  7.615 2.7873e-16 -4.552

# 0 UV coordinates

# 22 vertex normals
vn -0.999933 -0 -0.0116167
vn 0 1 0
vn -0.999919 7.80456e-19 -0.0127458
vn -0.999919 0 -0.0127458
vn 0.052061 0 -0.998644
vn 0.0516039 0 -0.998668
vn -0.00478692 0 0.999988
vn -0.00457064 0.000136093 0.99999
vn -0.00478692 -0.000199547 0.999988
vn -0.00457063 0 0.99999
vn -0.00457063 0 0.99999
vn -0.999989 -0 -0.00462952
vn 0.0521775 0 -0.998638
vn -0.0045063 0 0.99999
vn -0.0045063 -6.12317e-17 0.99999
vn 0.999995 0 0.0031954
vn 0.999989 0 0.00476972
vn -1.26029e-24 -1 -6.12323e-17
vn 0 -1 -6.12323e-17
vn -1.60754e-24 -1 -6.12323e-17
vn 7.21617e-25 -1 -6.12323e-17
vn 1.55737e-23 -1 -6.12323e-17

# Mesh 'defaultobject' with 40 faces
g defaultobject
usemtl DefaultMaterial
f  1//1 2//1 3//1
f  2//1 1//1 4//1
f  5//2 4//2 1//2
f  4//2 5//2 6//2
f  7//3 8//3 9//3
f  8//3 7//3 10//4
f  11//5 8//5 10//5
f  8//5 11//5 12//5
f  12//6 11//6 13//6
f  12//6 13//6 14//6
f  15//7 16//7 17//7
f  16//8 15//8 18//8
f  16//9 18//9 3//9
f  3//10 18//10 5//10
f  3//10 5//10 1//11
f  16//12 19//12 17//12
f  19//12 16//12 20//12
f  4//13 21//13 2//13
f  21//13 4//13 6//13
f  20//14 9//14 19//14
f  9//14 20//14 7//15
f  3//2 20//2 16//2
f  20//2 10//2 7//2
f  10//2 20//2 3//2
f  10//2 3//2 2//2
f  10//2 2//2 11//2
f  11//2 2//2 21//2
f  11//2 21//2 13//2
f  14//16 21//16 22//16
f  21//16 14//16 13//16
f  22//17 5//17 18//17
f  5//17 22//17 6//17
f  6//13 22//16 21//16
f  17//18 19//18 15//18
f  22//19 12//19 14//19
f  12//19 22//19 18//20
f  12//19 18//20 8//21
f  8//21 18//20 15//18
f  8//21 15//18 19//18
f  8//21 19//18 9//22

